<?xml version="1.0" encoding="UTF-8" standalone="no"?>
<svg
   xmlns:dc="http://purl.org/dc/elements/1.1/"
   xmlns:cc="http://creativecommons.org/ns#"
   xmlns:rdf="http://www.w3.org/1999/02/22-rdf-syntax-ns#"
   xmlns:svg="http://www.w3.org/2000/svg"
   xmlns="http://www.w3.org/2000/svg"
   xmlns:sodipodi="http://sodipodi.sourceforge.net/DTD/sodipodi-0.dtd"
   xmlns:inkscape="http://www.inkscape.org/namespaces/inkscape"
   width="121.019051pt"
   height="122.020142pt"
   viewBox="0 0 121.019051 122.020142"
   version="1.2"
   id="svg146"
   sodipodi:docname="cluster_low_thresh.svg"
   inkscape:version="0.92.4 (5da689c313, 2019-01-14)">
  <metadata
     id="metadata150">
    <rdf:RDF>
      <cc:Work
         rdf:about="">
        <dc:format>image/svg+xml</dc:format>
        <dc:type
           rdf:resource="http://purl.org/dc/dcmitype/StillImage" />
        <dc:title></dc:title>
      </cc:Work>
    </rdf:RDF>
  </metadata>
  <sodipodi:namedview
     pagecolor="#ffffff"
     bordercolor="#666666"
     borderopacity="1"
     objecttolerance="10"
     gridtolerance="10"
     guidetolerance="10"
     inkscape:pageopacity="0"
     inkscape:pageshadow="2"
     inkscape:window-width="640"
     inkscape:window-height="480"
     id="namedview148"
     showgrid="false"
     inkscape:zoom="1.4505802"
     inkscape:cx="80.679367"
     inkscape:cy="81.346761"
     inkscape:window-x="0"
     inkscape:window-y="0"
     inkscape:window-maximized="0"
     inkscape:current-layer="svg146" />
  <defs
     id="defs23">
    <clipPath
       id="clip1">
      <path
         d="M 24 121 L 26 121 L 26 122.019531 L 24 122.019531 Z M 24 121 "
         id="path2" />
    </clipPath>
    <clipPath
       id="clip2">
      <path
         d="M 45 121 L 47 121 L 47 122.019531 L 45 122.019531 Z M 45 121 "
         id="path5" />
    </clipPath>
    <clipPath
       id="clip3">
      <path
         d="M 66 121 L 67 121 L 67 122.019531 L 66 122.019531 Z M 66 121 "
         id="path8" />
    </clipPath>
    <clipPath
       id="clip4">
      <path
         d="M 67 117 L 71 117 L 71 122.019531 L 67 122.019531 Z M 67 117 "
         id="path11" />
    </clipPath>
    <clipPath
       id="clip5">
      <path
         d="M 86 121 L 88 121 L 88 122.019531 L 86 122.019531 Z M 86 121 "
         id="path14" />
    </clipPath>
    <clipPath
       id="clip6">
      <path
         d="M 88 117 L 92 117 L 92 122.019531 L 88 122.019531 Z M 88 117 "
         id="path17" />
    </clipPath>
    <clipPath
       id="clip7">
      <path
         d="M 119 115 L 121.019531 115 L 121.019531 120 L 119 120 Z M 119 115 "
         id="path20" />
    </clipPath>
  </defs>
  <g
     id="surface30">
    <path
       style="fill:none;stroke-width:0.41;stroke-linecap:round;stroke-linejoin:round;stroke:rgb(0%,0%,0%);stroke-opacity:1;stroke-miterlimit:4;"
       d="M 26.828125 115.628906 L 26.828125 114.984375 "
       id="path25" />
    <g
       clip-path="url(#clip1)"
       clip-rule="nonzero"
       id="g29">
      <path
         style=" stroke:none;fill-rule:nonzero;fill:rgb(0%,0%,0%);fill-opacity:1;"
         d="M 25.035156 122.019531 C 25.160156 122.019531 25.378906 121.925781 25.378906 121.691406 C 25.378906 121.503906 25.222656 121.347656 25.035156 121.347656 C 24.847656 121.347656 24.707031 121.503906 24.707031 121.691406 C 24.707031 121.925781 24.910156 122.019531 25.035156 122.019531 Z M 25.035156 122.019531 "
         id="path27" />
    </g>
    <path
       style=" stroke:none;fill-rule:nonzero;fill:rgb(0%,0%,0%);fill-opacity:1;"
       d="M 28.519531 121.113281 C 28.410156 121.332031 28.316406 121.488281 27.910156 121.488281 L 26.753906 121.488281 L 26.753906 121.457031 L 27.925781 120.285156 C 28.675781 119.519531 28.832031 119.253906 28.832031 118.832031 C 28.832031 118.378906 28.488281 117.816406 27.847656 117.816406 C 27.691406 117.816406 26.894531 117.847656 26.550781 118.800781 L 26.691406 118.832031 C 26.769531 118.691406 27.003906 118.269531 27.550781 118.269531 C 28.019531 118.269531 28.300781 118.628906 28.300781 119.003906 C 28.300781 119.207031 28.285156 119.566406 27.425781 120.488281 L 26.144531 121.847656 L 26.144531 121.957031 L 28.316406 121.957031 L 28.613281 121.144531 Z M 28.519531 121.113281 "
       id="path31" />
    <path
       style="fill:none;stroke-width:0.41;stroke-linecap:round;stroke-linejoin:round;stroke:rgb(0%,0%,0%);stroke-opacity:1;stroke-miterlimit:4;"
       d="M 47.476563 115.628906 L 47.476563 114.984375 "
       id="path33" />
    <g
       clip-path="url(#clip2)"
       clip-rule="nonzero"
       id="g37">
      <path
         style=" stroke:none;fill-rule:nonzero;fill:rgb(0%,0%,0%);fill-opacity:1;"
         d="M 45.683594 122.019531 C 45.808594 122.019531 46.027344 121.925781 46.027344 121.691406 C 46.027344 121.503906 45.871094 121.347656 45.683594 121.347656 C 45.496094 121.347656 45.355469 121.503906 45.355469 121.691406 C 45.355469 121.925781 45.558594 122.019531 45.683594 122.019531 Z M 45.683594 122.019531 "
         id="path35" />
    </g>
    <path
       style=" stroke:none;fill-rule:nonzero;fill:rgb(0%,0%,0%);fill-opacity:1;"
       d="M 48.414063 120.488281 L 47.101563 120.488281 L 47.101563 120.457031 L 48.976563 118.503906 L 48.992188 118.503906 Z M 49.492188 120.488281 L 48.898438 120.488281 L 49.648438 117.816406 L 49.398438 117.816406 L 46.835938 120.457031 L 46.710938 120.863281 L 48.320313 120.863281 L 48.023438 121.957031 L 48.507813 121.957031 L 48.789063 120.878906 L 49.398438 120.878906 Z M 49.492188 120.488281 "
       id="path39" />
    <path
       style="fill:none;stroke-width:0.41;stroke-linecap:round;stroke-linejoin:round;stroke:rgb(0%,0%,0%);stroke-opacity:1;stroke-miterlimit:4;"
       d="M 68.121094 115.628906 L 68.121094 114.984375 "
       id="path41" />
    <g
       clip-path="url(#clip3)"
       clip-rule="nonzero"
       id="g45">
      <path
         style=" stroke:none;fill-rule:nonzero;fill:rgb(0%,0%,0%);fill-opacity:1;"
         d="M 66.328125 122.019531 C 66.453125 122.019531 66.671875 121.925781 66.671875 121.691406 C 66.671875 121.503906 66.515625 121.347656 66.328125 121.347656 C 66.140625 121.347656 66 121.503906 66 121.691406 C 66 121.925781 66.203125 122.019531 66.328125 122.019531 Z M 66.328125 122.019531 "
         id="path43" />
    </g>
    <g
       clip-path="url(#clip4)"
       clip-rule="nonzero"
       id="g49">
      <path
         style=" stroke:none;fill-rule:nonzero;fill:rgb(0%,0%,0%);fill-opacity:1;"
         d="M 70.546875 117.753906 C 68.671875 117.878906 67.546875 119.410156 67.546875 120.675781 C 67.546875 121.675781 68.15625 122.003906 68.640625 122.003906 C 69.6875 122.003906 70.1875 120.957031 70.1875 120.347656 C 70.1875 119.472656 69.5625 119.222656 69.140625 119.222656 C 69.046875 119.222656 68.953125 119.238281 68.859375 119.253906 C 68.78125 119.269531 68.6875 119.300781 68.609375 119.347656 L 68.578125 119.332031 C 68.71875 119.035156 69.46875 117.988281 70.546875 117.847656 Z M 68.921875 119.441406 C 69.375 119.441406 69.640625 119.738281 69.640625 120.238281 C 69.640625 120.785156 69.3125 121.847656 68.609375 121.847656 C 68.015625 121.847656 68.015625 121.160156 68.015625 120.988281 C 68.015625 120.894531 68.0625 119.441406 68.921875 119.441406 Z M 68.921875 119.441406 "
         id="path47" />
    </g>
    <path
       style="fill:none;stroke-width:0.41;stroke-linecap:round;stroke-linejoin:round;stroke:rgb(0%,0%,0%);stroke-opacity:1;stroke-miterlimit:4;"
       d="M 88.769531 115.628906 L 88.769531 114.984375 "
       id="path51" />
    <g
       clip-path="url(#clip5)"
       clip-rule="nonzero"
       id="g55">
      <path
         style=" stroke:none;fill-rule:nonzero;fill:rgb(0%,0%,0%);fill-opacity:1;"
         d="M 86.976563 122.019531 C 87.101563 122.019531 87.320313 121.925781 87.320313 121.691406 C 87.320313 121.503906 87.164063 121.347656 86.976563 121.347656 C 86.789063 121.347656 86.648438 121.503906 86.648438 121.691406 C 86.648438 121.925781 86.851563 122.019531 86.976563 122.019531 Z M 86.976563 122.019531 "
         id="path53" />
    </g>
    <g
       clip-path="url(#clip6)"
       clip-rule="nonzero"
       id="g59">
      <path
         style=" stroke:none;fill-rule:nonzero;fill:rgb(0%,0%,0%);fill-opacity:1;"
         d="M 88.191406 120.988281 C 88.191406 121.175781 88.316406 122.003906 89.410156 122.003906 C 90.238281 122.003906 90.722656 121.457031 90.722656 120.925781 C 90.722656 120.457031 90.472656 120.082031 90.019531 119.613281 C 90.363281 119.503906 91.019531 119.285156 91.019531 118.691406 C 91.019531 118.019531 90.363281 117.816406 89.957031 117.816406 C 89.378906 117.816406 88.847656 118.113281 88.847656 118.753906 C 88.847656 119.066406 89.003906 119.347656 89.378906 119.753906 C 89.238281 119.800781 88.191406 120.113281 88.191406 120.988281 Z M 88.597656 121.019531 C 88.597656 120.238281 89.363281 119.894531 89.519531 119.847656 C 90.113281 120.457031 90.269531 120.628906 90.269531 121.019531 C 90.269531 121.613281 89.785156 121.863281 89.457031 121.863281 C 88.925781 121.863281 88.597656 121.503906 88.597656 121.019531 Z M 89.332031 118.644531 C 89.332031 118.222656 89.566406 117.957031 89.957031 117.957031 C 90.441406 117.957031 90.613281 118.378906 90.613281 118.675781 C 90.613281 119.175781 90.238281 119.347656 89.910156 119.519531 C 89.332031 118.988281 89.332031 118.800781 89.332031 118.644531 Z M 89.332031 118.644531 "
         id="path57" />
    </g>
    <path
       style="fill:none;stroke-width:0.41;stroke-linecap:round;stroke-linejoin:round;stroke:rgb(0%,0%,0%);stroke-opacity:1;stroke-miterlimit:4;"
       d="M 109.414063 115.628906 L 109.414063 114.984375 "
       id="path61" />
    <path
       style=" stroke:none;fill-rule:nonzero;fill:rgb(0%,0%,0%);fill-opacity:1;"
       d="M 108.183594 121.957031 L 109.902344 121.957031 L 109.902344 121.863281 C 109.589844 121.878906 109.371094 121.847656 109.371094 121.660156 C 109.371094 121.566406 109.449219 121.332031 109.480469 121.222656 L 110.355469 118.035156 C 110.386719 117.941406 110.417969 117.816406 110.371094 117.816406 C 110.324219 117.816406 109.464844 118.003906 109.183594 118.050781 L 109.183594 118.144531 L 109.527344 118.128906 C 109.589844 118.128906 109.761719 118.128906 109.761719 118.332031 C 109.761719 118.378906 109.730469 118.457031 109.714844 118.519531 L 108.871094 121.535156 C 108.792969 121.816406 108.542969 121.832031 108.183594 121.878906 Z M 108.183594 121.957031 "
       id="path63" />
    <path
       style="fill:none;stroke-width:0.205;stroke-linecap:round;stroke-linejoin:round;stroke:rgb(0%,0%,0%);stroke-opacity:1;stroke-miterlimit:4;"
       d="M 10.3125 115.628906 L 10.3125 115.242188 M 14.441406 115.628906 L 14.441406 115.242188 M 18.570313 115.628906 L 18.570313 115.242188 M 22.699219 115.628906 L 22.699219 115.242188 M 30.960938 115.628906 L 30.960938 115.242188 M 35.089844 115.628906 L 35.089844 115.242188 M 39.21875 115.628906 L 39.21875 115.242188 M 43.347656 115.628906 L 43.347656 115.242188 M 51.605469 115.628906 L 51.605469 115.242188 M 55.734375 115.628906 L 55.734375 115.242188 M 59.863281 115.628906 L 59.863281 115.242188 M 63.992188 115.628906 L 63.992188 115.242188 M 72.25 115.628906 L 72.25 115.242188 M 76.382813 115.628906 L 76.382813 115.242188 M 80.511719 115.628906 L 80.511719 115.242188 M 84.640625 115.628906 L 84.640625 115.242188 M 92.898438 115.628906 L 92.898438 115.242188 M 97.027344 115.628906 L 97.027344 115.242188 M 101.15625 115.628906 L 101.15625 115.242188 M 105.285156 115.628906 L 105.285156 115.242188 "
       id="path65" />
    <path
       style="fill:none;stroke-width:0.68;stroke-linecap:round;stroke-linejoin:round;stroke:rgb(0%,0%,0%);stroke-opacity:1;stroke-miterlimit:4;"
       d="M 6.183594 115.628906 L 109.414063 115.628906 "
       id="path67" />
    <path
       style=" stroke:none;fill-rule:nonzero;fill:rgb(0%,0%,0%);fill-opacity:1;"
       d="M 111.019531 114.933594 C 109.898438 114.589844 109.167969 114.28125 108.265625 113.917969 L 108.265625 117.347656 C 108.585938 117.195313 109.898438 116.671875 111.019531 116.332031 C 112.222656 115.96875 113.316406 115.71875 114.023438 115.632813 C 113.316406 115.542969 112.222656 115.292969 111.019531 114.933594 "
       id="path69" />
    <path
       style="fill:none;stroke-width:0.41;stroke-linecap:round;stroke-linejoin:round;stroke:rgb(0%,0%,0%);stroke-opacity:1;stroke-miterlimit:4;"
       d="M 6.183594 115.628906 L 6.828125 115.628906 "
       id="path71" />
    <path
       style=" stroke:none;fill-rule:nonzero;fill:rgb(0%,0%,0%);fill-opacity:1;"
       d="M 2.046875 115.875 C 2.046875 115.28125 2.484375 112.859375 3.390625 112.859375 C 3.921875 112.859375 3.921875 113.484375 3.921875 113.671875 C 3.921875 114.734375 3.390625 116.703125 2.578125 116.703125 C 2.375 116.703125 2.046875 116.578125 2.046875 115.875 Z M 4.40625 114.21875 C 4.40625 113.625 4.234375 112.6875 3.421875 112.6875 C 2.578125 112.6875 1.5625 113.953125 1.5625 115.609375 C 1.5625 116.234375 1.90625 116.875 2.546875 116.875 C 3.578125 116.875 4.40625 115.4375 4.40625 114.21875 Z M 4.40625 114.21875 "
       id="path73" />
    <path
       style="fill:none;stroke-width:0.41;stroke-linecap:round;stroke-linejoin:round;stroke:rgb(0%,0%,0%);stroke-opacity:1;stroke-miterlimit:4;"
       d="M 6.183594 94.980469 L 6.828125 94.980469 "
       id="path75" />
    <path
       style=" stroke:none;fill-rule:nonzero;fill:rgb(0%,0%,0%);fill-opacity:1;"
       d="M 0.328125 96.246094 C 0.453125 96.246094 0.671875 96.152344 0.671875 95.917969 C 0.671875 95.730469 0.515625 95.574219 0.328125 95.574219 C 0.140625 95.574219 0 95.730469 0 95.917969 C 0 96.152344 0.203125 96.246094 0.328125 96.246094 Z M 0.328125 96.246094 "
       id="path77" />
    <path
       style=" stroke:none;fill-rule:nonzero;fill:rgb(0%,0%,0%);fill-opacity:1;"
       d="M 3.8125 95.339844 C 3.703125 95.558594 3.609375 95.714844 3.203125 95.714844 L 2.046875 95.714844 L 2.046875 95.683594 L 3.21875 94.511719 C 3.96875 93.746094 4.125 93.480469 4.125 93.058594 C 4.125 92.605469 3.78125 92.042969 3.140625 92.042969 C 2.984375 92.042969 2.1875 92.074219 1.84375 93.027344 L 1.984375 93.058594 C 2.0625 92.917969 2.296875 92.496094 2.84375 92.496094 C 3.3125 92.496094 3.59375 92.855469 3.59375 93.230469 C 3.59375 93.433594 3.578125 93.792969 2.71875 94.714844 L 1.4375 96.074219 L 1.4375 96.183594 L 3.609375 96.183594 L 3.90625 95.371094 Z M 3.8125 95.339844 "
       id="path79" />
    <path
       style="fill:none;stroke-width:0.41;stroke-linecap:round;stroke-linejoin:round;stroke:rgb(0%,0%,0%);stroke-opacity:1;stroke-miterlimit:4;"
       d="M 6.183594 74.335938 L 6.828125 74.335938 "
       id="path81" />
    <path
       style=" stroke:none;fill-rule:nonzero;fill:rgb(0%,0%,0%);fill-opacity:1;"
       d="M 0.328125 75.597656 C 0.453125 75.597656 0.671875 75.503906 0.671875 75.269531 C 0.671875 75.082031 0.515625 74.925781 0.328125 74.925781 C 0.140625 74.925781 0 75.082031 0 75.269531 C 0 75.503906 0.203125 75.597656 0.328125 75.597656 Z M 0.328125 75.597656 "
       id="path83" />
    <path
       style=" stroke:none;fill-rule:nonzero;fill:rgb(0%,0%,0%);fill-opacity:1;"
       d="M 3.0625 74.066406 L 1.75 74.066406 L 1.75 74.035156 L 3.625 72.082031 L 3.640625 72.082031 Z M 4.140625 74.066406 L 3.546875 74.066406 L 4.296875 71.394531 L 4.046875 71.394531 L 1.484375 74.035156 L 1.359375 74.441406 L 2.96875 74.441406 L 2.671875 75.535156 L 3.15625 75.535156 L 3.4375 74.457031 L 4.046875 74.457031 Z M 4.140625 74.066406 "
       id="path85" />
    <path
       style="fill:none;stroke-width:0.41;stroke-linecap:round;stroke-linejoin:round;stroke:rgb(0%,0%,0%);stroke-opacity:1;stroke-miterlimit:4;"
       d="M 6.183594 53.691406 L 6.828125 53.691406 "
       id="path87" />
    <path
       style=" stroke:none;fill-rule:nonzero;fill:rgb(0%,0%,0%);fill-opacity:1;"
       d="M 0.328125 54.953125 C 0.453125 54.953125 0.671875 54.859375 0.671875 54.625 C 0.671875 54.4375 0.515625 54.28125 0.328125 54.28125 C 0.140625 54.28125 0 54.4375 0 54.625 C 0 54.859375 0.203125 54.953125 0.328125 54.953125 Z M 0.328125 54.953125 "
       id="path89" />
    <path
       style=" stroke:none;fill-rule:nonzero;fill:rgb(0%,0%,0%);fill-opacity:1;"
       d="M 4.546875 50.6875 C 2.671875 50.8125 1.546875 52.34375 1.546875 53.609375 C 1.546875 54.609375 2.15625 54.9375 2.640625 54.9375 C 3.6875 54.9375 4.1875 53.890625 4.1875 53.28125 C 4.1875 52.40625 3.5625 52.15625 3.140625 52.15625 C 3.046875 52.15625 2.953125 52.171875 2.859375 52.1875 C 2.78125 52.203125 2.6875 52.234375 2.609375 52.28125 L 2.578125 52.265625 C 2.71875 51.96875 3.46875 50.921875 4.546875 50.78125 Z M 2.921875 52.375 C 3.375 52.375 3.640625 52.671875 3.640625 53.171875 C 3.640625 53.71875 3.3125 54.78125 2.609375 54.78125 C 2.015625 54.78125 2.015625 54.09375 2.015625 53.921875 C 2.015625 53.828125 2.0625 52.375 2.921875 52.375 Z M 2.921875 52.375 "
       id="path91" />
    <path
       style="fill:none;stroke-width:0.41;stroke-linecap:round;stroke-linejoin:round;stroke:rgb(0%,0%,0%);stroke-opacity:1;stroke-miterlimit:4;"
       d="M 6.183594 33.042969 L 6.828125 33.042969 "
       id="path93" />
    <path
       style=" stroke:none;fill-rule:nonzero;fill:rgb(0%,0%,0%);fill-opacity:1;"
       d="M 0.328125 34.304688 C 0.453125 34.304688 0.671875 34.210938 0.671875 33.976563 C 0.671875 33.789063 0.515625 33.632813 0.328125 33.632813 C 0.140625 33.632813 0 33.789063 0 33.976563 C 0 34.210938 0.203125 34.304688 0.328125 34.304688 Z M 0.328125 34.304688 "
       id="path95" />
    <path
       style=" stroke:none;fill-rule:nonzero;fill:rgb(0%,0%,0%);fill-opacity:1;"
       d="M 1.546875 33.273438 C 1.546875 33.460938 1.671875 34.289063 2.765625 34.289063 C 3.59375 34.289063 4.078125 33.742188 4.078125 33.210938 C 4.078125 32.742188 3.828125 32.367188 3.375 31.898438 C 3.71875 31.789063 4.375 31.570313 4.375 30.976563 C 4.375 30.304688 3.71875 30.101563 3.3125 30.101563 C 2.734375 30.101563 2.203125 30.398438 2.203125 31.039063 C 2.203125 31.351563 2.359375 31.632813 2.734375 32.039063 C 2.59375 32.085938 1.546875 32.398438 1.546875 33.273438 Z M 1.953125 33.304688 C 1.953125 32.523438 2.71875 32.179688 2.875 32.132813 C 3.46875 32.742188 3.625 32.914063 3.625 33.304688 C 3.625 33.898438 3.140625 34.148438 2.8125 34.148438 C 2.28125 34.148438 1.953125 33.789063 1.953125 33.304688 Z M 2.6875 30.929688 C 2.6875 30.507813 2.921875 30.242188 3.3125 30.242188 C 3.796875 30.242188 3.96875 30.664063 3.96875 30.960938 C 3.96875 31.460938 3.59375 31.632813 3.265625 31.804688 C 2.6875 31.273438 2.6875 31.085938 2.6875 30.929688 Z M 2.6875 30.929688 "
       id="path97" />
    <path
       style="fill:none;stroke-width:0.41;stroke-linecap:round;stroke-linejoin:round;stroke:rgb(0%,0%,0%);stroke-opacity:1;stroke-miterlimit:4;"
       d="M 6.183594 12.398438 L 6.828125 12.398438 "
       id="path99" />
    <path
       style=" stroke:none;fill-rule:nonzero;fill:rgb(0%,0%,0%);fill-opacity:1;"
       d="M 1.65625 13.597656 L 3.375 13.597656 L 3.375 13.503906 C 3.0625 13.519531 2.84375 13.488281 2.84375 13.300781 C 2.84375 13.207031 2.921875 12.972656 2.953125 12.863281 L 3.828125 9.675781 C 3.859375 9.582031 3.890625 9.457031 3.84375 9.457031 C 3.796875 9.457031 2.9375 9.644531 2.65625 9.691406 L 2.65625 9.785156 L 3 9.769531 C 3.0625 9.769531 3.234375 9.769531 3.234375 9.972656 C 3.234375 10.019531 3.203125 10.097656 3.1875 10.160156 L 2.34375 13.175781 C 2.265625 13.457031 2.015625 13.472656 1.65625 13.519531 Z M 1.65625 13.597656 "
       id="path101" />
    <path
       style="fill:none;stroke-width:0.205;stroke-linecap:round;stroke-linejoin:round;stroke:rgb(0%,0%,0%);stroke-opacity:1;stroke-miterlimit:4;"
       d="M 6.183594 111.5 L 6.570313 111.5 M 6.183594 107.371094 L 6.570313 107.371094 M 6.183594 103.242188 L 6.570313 103.242188 M 6.183594 99.113281 L 6.570313 99.113281 M 6.183594 90.851563 L 6.570313 90.851563 M 6.183594 86.722656 L 6.570313 86.722656 M 6.183594 82.59375 L 6.570313 82.59375 M 6.183594 78.464844 L 6.570313 78.464844 M 6.183594 70.207031 L 6.570313 70.207031 M 6.183594 66.078125 L 6.570313 66.078125 M 6.183594 61.949219 L 6.570313 61.949219 M 6.183594 57.820313 L 6.570313 57.820313 M 6.183594 49.558594 L 6.570313 49.558594 M 6.183594 45.429688 L 6.570313 45.429688 M 6.183594 41.300781 L 6.570313 41.300781 M 6.183594 37.171875 L 6.570313 37.171875 M 6.183594 28.914063 L 6.570313 28.914063 M 6.183594 24.785156 L 6.570313 24.785156 M 6.183594 20.65625 L 6.570313 20.65625 M 6.183594 16.527344 L 6.570313 16.527344 "
       id="path103" />
    <path
       style="fill:none;stroke-width:0.68;stroke-linecap:round;stroke-linejoin:round;stroke:rgb(0%,0%,0%);stroke-opacity:1;stroke-miterlimit:4;"
       d="M 6.183594 115.628906 L 6.183594 12.398438 "
       id="path105" />
    <path
       style=" stroke:none;fill-rule:nonzero;fill:rgb(0%,0%,0%);fill-opacity:1;"
       d="M 5.484375 10.789063 C 5.148438 11.914063 4.835938 12.644531 4.472656 13.546875 L 7.902344 13.546875 C 7.75 13.226563 7.226563 11.914063 6.886719 10.789063 C 6.523438 9.585938 6.277344 8.496094 6.1875 7.789063 C 6.097656 8.496094 5.851563 9.585938 5.484375 10.789063 "
       id="path107" />
    <path
       style="fill:none;stroke-width:0.819;stroke-linecap:round;stroke-linejoin:round;stroke:rgb(0%,0%,0%);stroke-opacity:1;stroke-miterlimit:4;"
       d="M 72.335938 80.734375 L 72.335938 80.734375 M 77.199219 84.820313 L 79.191406 86.988281 M 88.441406 80.675781 L 85.921875 79.175781 M 83.34375 88.152344 L 84.050781 87.058594 M 85.921875 79.175781 L 88.441406 80.675781 M 85.921875 79.175781 L 85.921875 79.175781 M 84.433594 96.34375 L 84.433594 96.34375 M 52.953125 94.722656 L 52.953125 94.722656 M 85.511719 83.347656 L 87.398438 84.886719 M 68.714844 85.160156 L 69.410156 87.269531 M 99.066406 73.351563 L 99.066406 73.351563 M 97.621094 70.425781 L 97.234375 67.714844 M 105.804688 73.554688 L 105.804688 73.554688 M 74.90625 104.910156 L 74.90625 104.910156 M 76.492188 69.574219 L 76.492188 69.574219 M 52.867188 88.796875 L 52.867188 88.796875 M 76.636719 93.714844 L 75.011719 91.542969 M 100.820313 79.984375 L 100.820313 79.984375 M 79.328125 79.734375 L 79.328125 79.734375 M 92.730469 83.660156 L 92.730469 83.660156 M 73.019531 100.917969 L 73.019531 100.917969 M 83.410156 68.585938 L 83.410156 68.585938 M 75.011719 91.542969 L 76.636719 93.714844 M 75.011719 91.542969 L 75.011719 91.542969 M 37.109375 114.558594 L 37.109375 114.558594 M 63.34375 78.125 L 63.34375 78.125 M 84.050781 87.058594 L 83.34375 88.152344 M 84.050781 87.058594 L 84.050781 87.058594 M 85.902344 75.363281 L 85.902344 75.363281 M 103.34375 56.636719 L 103.34375 56.636719 M 76.910156 72.71875 L 76.910156 72.71875 M 82.921875 62.023438 L 82.921875 62.023438 M 108.421875 80.019531 L 108.421875 80.019531 M 87.398438 84.886719 L 85.511719 83.347656 M 87.398438 84.886719 L 87.398438 84.886719 M 97.234375 67.714844 L 97.621094 70.425781 M 97.234375 67.714844 L 97.234375 67.714844 M 93.539063 78.128906 L 93.539063 78.128906 M 94.144531 90.402344 L 94.144531 90.402344 M 69.410156 87.269531 L 68.714844 85.160156 M 69.410156 87.269531 L 69.410156 87.269531 M 57.261719 102.882813 L 57.261719 102.882813 M 80.898438 103.539063 L 80.898438 103.539063 M 32.96875 106.507813 L 32.96875 106.507813 M 67.566406 92.070313 L 67.566406 92.070313 M 79.191406 86.988281 L 77.199219 84.820313 M 79.191406 86.988281 L 79.191406 86.988281 M 60.90625 81.355469 L 60.90625 81.355469 M 69.167969 110.136719 L 69.167969 110.136719 M 38.511719 81.675781 L 38.554688 82.90625 M 17.101563 72.394531 L 15.550781 70.917969 M 18.242188 77.726563 L 18.242188 77.726563 M 19.210938 64.507813 L 19.210938 64.507813 M 31.007813 65.222656 L 31.007813 65.222656 M 13.640625 81.308594 L 13.640625 81.308594 M 19.964844 60.679688 L 19.964844 60.679688 M 24.800781 80.414063 L 25.210938 78.839844 M 24.800781 80.414063 L 25.632813 78.464844 M 24.800781 80.414063 L 27.207031 81.550781 "
       id="path109" />
    <path
       style="fill:none;stroke-width:0.819;stroke-linecap:round;stroke-linejoin:round;stroke:rgb(0%,0%,0%);stroke-opacity:1;stroke-miterlimit:4;"
       d="M 20.703125 53.957031 L 20.703125 53.957031 M 37.328125 68.726563 L 34.964844 67.488281 M 34.300781 63.523438 L 34.367188 63.882813 M 15.550781 70.917969 L 17.101563 72.394531 M 15.550781 70.917969 L 15.550781 70.917969 M 33.550781 80.199219 L 33.550781 80.199219 M 28.128906 77.332031 L 30.859375 77.492188 M 28.128906 77.332031 L 25.632813 78.464844 M 28.128906 77.332031 L 28.914063 75.359375 M 28.128906 77.332031 L 28.015625 76.074219 M 30.859375 77.492188 L 28.128906 77.332031 M 30.859375 77.492188 L 31.894531 76.441406 M 30.859375 77.492188 L 28.914063 75.359375 M 31.894531 76.441406 L 30.859375 77.492188 M 31.894531 76.441406 L 31.894531 76.441406 M 48.042969 80.226563 L 48.042969 80.226563 M 25.210938 78.839844 L 24.800781 80.414063 M 25.210938 78.839844 L 25.632813 78.464844 M 34.367188 63.882813 L 34.300781 63.523438 M 34.367188 63.882813 L 34.367188 63.882813 M 14.828125 74.851563 L 14.828125 74.851563 M 25.632813 78.464844 L 24.800781 80.414063 M 25.632813 78.464844 L 28.128906 77.332031 M 25.632813 78.464844 L 25.210938 78.839844 M 25.632813 78.464844 L 24.378906 75.835938 M 43.066406 72.386719 L 43.066406 72.386719 M 36.617188 74.410156 L 36.617188 74.410156 M 44.746094 80.824219 L 44.746094 80.824219 M 24.378906 75.835938 L 25.632813 78.464844 M 24.378906 75.835938 L 24.378906 75.835938 M 25.164063 68.480469 L 22.925781 69.285156 M 38.554688 82.90625 L 38.511719 81.675781 M 38.554688 82.90625 L 38.554688 82.90625 M 41.441406 89.378906 L 43.136719 87.277344 M 27.207031 81.550781 L 24.800781 80.414063 M 27.207031 81.550781 L 28.980469 82.582031 M 28.914063 75.359375 L 28.128906 77.332031 M 28.914063 75.359375 L 30.859375 77.492188 M 28.914063 75.359375 L 28.015625 76.074219 M 41.425781 75.9375 L 41.425781 75.9375 M 34.964844 67.488281 L 37.328125 68.726563 M 34.964844 67.488281 L 34.964844 67.488281 M 28.980469 82.582031 L 27.207031 81.550781 M 28.980469 82.582031 L 28.980469 82.582031 M 41.242188 69.578125 L 41.242188 69.578125 M 43.097656 85.878906 L 43.136719 87.277344 M 28.015625 76.074219 L 28.128906 77.332031 M 28.015625 76.074219 L 28.914063 75.359375 M 28.015625 76.074219 L 28.015625 76.074219 M 43.136719 87.277344 L 41.441406 89.378906 M 43.136719 87.277344 L 43.097656 85.878906 M 43.136719 87.277344 L 43.136719 87.277344 M 24.628906 85.839844 L 24.628906 85.839844 M 22.925781 69.285156 L 25.164063 68.480469 M 22.925781 69.285156 L 22.925781 69.285156 M 29.425781 34.90625 L 29.425781 34.90625 M 45.820313 25.90625 L 45.820313 25.90625 M 61.628906 34.816406 L 63.21875 33.746094 "
       id="path111" />
    <path
       style="fill:none;stroke-width:0.819;stroke-linecap:round;stroke-linejoin:round;stroke:rgb(0%,0%,0%);stroke-opacity:1;stroke-miterlimit:4;"
       d="M 61.628906 34.816406 L 60.558594 34.546875 M 93.429688 29.171875 L 93.429688 29.171875 M 82.859375 34.597656 L 85.195313 34.613281 M 82.859375 34.597656 L 80.09375 35.457031 M 22.558594 30.402344 L 24.179688 32.707031 M 22.558594 30.402344 L 22.027344 30.441406 M 51.347656 31.265625 L 50.109375 33.464844 M 75.675781 33.484375 L 76.59375 35.015625 M 75.675781 33.484375 L 77 35.210938 M 75.675781 33.484375 L 75.503906 30.453125 M 77.242188 40.410156 L 77.242188 40.410156 M 14.003906 25.078125 L 14.003906 25.078125 M 13.195313 39.210938 L 14.460938 39.867188 M 53.957031 35.523438 L 55.125 34.625 M 53.957031 35.523438 L 52.476563 36.453125 M 53.957031 35.523438 L 55.421875 37.621094 M 68.886719 38.421875 L 68.886719 38.421875 M 90.226563 32.03125 L 90.226563 32.03125 M 63.21875 33.746094 L 61.628906 34.816406 M 63.21875 33.746094 L 60.558594 34.546875 M 24.179688 32.707031 L 22.558594 30.402344 M 24.179688 32.707031 L 24.179688 32.707031 M 51.722656 37.671875 L 51.792969 39.644531 M 51.722656 37.671875 L 52.476563 36.453125 M 34.410156 29.878906 L 34.410156 29.878906 M 8.863281 37.238281 L 8.863281 37.238281 M 60.558594 34.546875 L 61.628906 34.816406 M 60.558594 34.546875 L 63.21875 33.746094 M 60.558594 34.546875 L 60.558594 34.546875 M 28.230469 25.195313 L 26.730469 27.175781 M 52.382813 26.777344 L 52.785156 25.304688 M 46.585938 31.867188 L 48.585938 33.414063 M 46.585938 31.867188 L 45.570313 31.917969 M 46.585938 31.867188 L 46.84375 33.171875 M 46.585938 31.867188 L 47.78125 29.863281 M 50.109375 33.464844 L 51.347656 31.265625 M 50.109375 33.464844 L 48.585938 33.414063 M 51.792969 39.644531 L 51.722656 37.671875 M 51.792969 39.644531 L 51.792969 39.644531 M 72.820313 28.605469 L 72.820313 28.605469 M 48.585938 33.414063 L 46.585938 31.867188 M 48.585938 33.414063 L 50.109375 33.464844 M 48.585938 33.414063 L 46.84375 33.171875 M 76.59375 35.015625 L 75.675781 33.484375 M 76.59375 35.015625 L 79.203125 36.042969 M 76.59375 35.015625 L 77 35.210938 M 45.570313 31.917969 L 46.585938 31.867188 "
       id="path113" />
    <path
       style="fill:none;stroke-width:0.819;stroke-linecap:round;stroke-linejoin:round;stroke:rgb(0%,0%,0%);stroke-opacity:1;stroke-miterlimit:4;"
       d="M 45.570313 31.917969 L 46.84375 33.171875 M 45.570313 31.917969 L 47.78125 29.863281 M 61.109375 31.109375 L 62.183594 29.398438 M 46.84375 33.171875 L 46.585938 31.867188 M 46.84375 33.171875 L 48.585938 33.414063 M 46.84375 33.171875 L 45.570313 31.917969 M 46.84375 33.171875 L 46.84375 33.171875 M 26.730469 27.175781 L 28.230469 25.195313 M 26.730469 27.175781 L 26.730469 27.175781 M 62.183594 29.398438 L 61.109375 31.109375 M 62.183594 29.398438 L 62.183594 29.398438 M 79.203125 36.042969 L 76.59375 35.015625 M 79.203125 36.042969 L 77 35.210938 M 79.203125 36.042969 L 80.09375 35.457031 M 55.125 34.625 L 53.957031 35.523438 M 55.125 34.625 L 55.421875 37.621094 M 85.195313 34.613281 L 82.859375 34.597656 M 85.195313 34.613281 L 85.195313 34.613281 M 22.027344 30.441406 L 22.558594 30.402344 M 22.027344 30.441406 L 22.027344 30.441406 M 47.78125 29.863281 L 46.585938 31.867188 M 47.78125 29.863281 L 45.570313 31.917969 M 47.78125 29.863281 L 47.78125 29.863281 M 77 35.210938 L 75.675781 33.484375 M 77 35.210938 L 76.59375 35.015625 M 77 35.210938 L 79.203125 36.042969 M 77 35.210938 L 77 35.210938 M 81.347656 28.46875 L 81.347656 28.46875 M 80.09375 35.457031 L 82.859375 34.597656 M 80.09375 35.457031 L 79.203125 36.042969 M 80.09375 35.457031 L 80.09375 35.457031 M 68.355469 30.636719 L 68.355469 30.636719 M 41.398438 30.917969 L 39.746094 29.273438 M 41.398438 30.917969 L 39.421875 31.023438 M 37.089844 34.472656 L 37.089844 34.472656 M 52.476563 36.453125 L 53.957031 35.523438 M 52.476563 36.453125 L 51.722656 37.671875 M 52.476563 36.453125 L 52.476563 36.453125 M 45.492188 42.710938 L 45.492188 42.710938 M 52.785156 25.304688 L 52.382813 26.777344 M 52.785156 25.304688 L 52.785156 25.304688 M 56.183594 25.207031 L 56.183594 25.207031 M 39.746094 29.273438 L 41.398438 30.917969 M 39.746094 29.273438 L 39.421875 31.023438 M 47.050781 38.265625 L 47.050781 38.265625 M 55.421875 37.621094 L 53.957031 35.523438 M 55.421875 37.621094 L 55.125 34.625 M 55.421875 37.621094 L 55.421875 37.621094 M 14.460938 39.867188 L 13.195313 39.210938 M 14.460938 39.867188 L 14.460938 39.867188 M 15.617188 36.546875 L 15.617188 36.546875 M 75.503906 30.453125 L 75.675781 33.484375 M 75.503906 30.453125 L 75.503906 30.453125 M 39.421875 31.023438 L 41.398438 30.917969 M 39.421875 31.023438 L 39.746094 29.273438 M 39.421875 31.023438 L 39.421875 31.023438 M 31.953125 21.574219 L 31.953125 21.574219 "
       id="path115" />
    <path
       style="fill:none;stroke-width:2.048;stroke-linecap:round;stroke-linejoin:round;stroke:rgb(92.155457%,9.803772%,13.725281%);stroke-opacity:1;stroke-miterlimit:4;"
       d="M 72.335938 80.734375 L 72.335938 80.734375 M 77.199219 84.820313 L 77.199219 84.820313 M 88.441406 80.675781 L 88.441406 80.675781 M 83.34375 88.152344 L 83.34375 88.152344 M 85.921875 79.175781 L 85.921875 79.175781 M 84.433594 96.34375 L 84.433594 96.34375 M 52.953125 94.722656 L 52.953125 94.722656 M 85.511719 83.347656 L 85.511719 83.347656 M 68.714844 85.160156 L 68.714844 85.160156 M 99.066406 73.351563 L 99.066406 73.351563 M 97.621094 70.425781 L 97.621094 70.425781 M 105.804688 73.554688 L 105.804688 73.554688 M 74.90625 104.910156 L 74.90625 104.910156 M 76.492188 69.574219 L 76.492188 69.574219 M 52.867188 88.796875 L 52.867188 88.796875 M 76.636719 93.714844 L 76.636719 93.714844 M 100.820313 79.984375 L 100.820313 79.984375 M 79.328125 79.734375 L 79.328125 79.734375 M 92.730469 83.660156 L 92.730469 83.660156 M 73.019531 100.917969 L 73.019531 100.917969 M 83.410156 68.585938 L 83.410156 68.585938 M 75.011719 91.542969 L 75.011719 91.542969 M 37.109375 114.558594 L 37.109375 114.558594 M 63.34375 78.125 L 63.34375 78.125 M 84.050781 87.058594 L 84.050781 87.058594 M 85.902344 75.363281 L 85.902344 75.363281 M 103.34375 56.636719 L 103.34375 56.636719 M 76.910156 72.71875 L 76.910156 72.71875 M 82.921875 62.023438 L 82.921875 62.023438 M 108.421875 80.019531 L 108.421875 80.019531 M 87.398438 84.886719 L 87.398438 84.886719 M 97.234375 67.714844 L 97.234375 67.714844 M 93.539063 78.128906 L 93.539063 78.128906 M 94.144531 90.402344 L 94.144531 90.402344 M 69.410156 87.269531 L 69.410156 87.269531 M 57.261719 102.882813 L 57.261719 102.882813 M 80.898438 103.539063 L 80.898438 103.539063 M 32.96875 106.507813 L 32.96875 106.507813 M 67.566406 92.070313 L 67.566406 92.070313 M 79.191406 86.988281 L 79.191406 86.988281 M 60.90625 81.355469 L 60.90625 81.355469 M 69.167969 110.136719 L 69.167969 110.136719 M 38.511719 81.675781 L 38.511719 81.675781 M 17.101563 72.394531 L 17.101563 72.394531 M 18.242188 77.726563 L 18.242188 77.726563 M 19.210938 64.507813 L 19.210938 64.507813 M 31.007813 65.222656 L 31.007813 65.222656 M 13.640625 81.308594 L 13.640625 81.308594 M 19.964844 60.679688 L 19.964844 60.679688 M 24.800781 80.414063 L 24.800781 80.414063 M 20.703125 53.957031 L 20.703125 53.957031 M 37.328125 68.726563 L 37.328125 68.726563 M 34.300781 63.523438 L 34.300781 63.523438 M 15.550781 70.917969 L 15.550781 70.917969 M 33.550781 80.199219 L 33.550781 80.199219 M 28.128906 77.332031 L 28.128906 77.332031 M 30.859375 77.492188 L 30.859375 77.492188 M 31.894531 76.441406 L 31.894531 76.441406 M 48.042969 80.226563 L 48.042969 80.226563 M 25.210938 78.839844 L 25.210938 78.839844 M 34.367188 63.882813 L 34.367188 63.882813 M 14.828125 74.851563 L 14.828125 74.851563 M 25.632813 78.464844 L 25.632813 78.464844 M 43.066406 72.386719 L 43.066406 72.386719 "
       id="path117" />
    <path
       style="fill:none;stroke-width:2.048;stroke-linecap:round;stroke-linejoin:round;stroke:rgb(92.155457%,9.803772%,13.725281%);stroke-opacity:1;stroke-miterlimit:4;"
       d="M 36.617188 74.410156 L 36.617188 74.410156 M 44.746094 80.824219 L 44.746094 80.824219 M 24.378906 75.835938 L 24.378906 75.835938 M 25.164063 68.480469 L 25.164063 68.480469 M 38.554688 82.90625 L 38.554688 82.90625 M 41.441406 89.378906 L 41.441406 89.378906 M 27.207031 81.550781 L 27.207031 81.550781 M 28.914063 75.359375 L 28.914063 75.359375 M 41.425781 75.9375 L 41.425781 75.9375 M 34.964844 67.488281 L 34.964844 67.488281 M 28.980469 82.582031 L 28.980469 82.582031 M 41.242188 69.578125 L 41.242188 69.578125 M 43.097656 85.878906 L 43.097656 85.878906 M 28.015625 76.074219 L 28.015625 76.074219 M 43.136719 87.277344 L 43.136719 87.277344 M 24.628906 85.839844 L 24.628906 85.839844 M 22.925781 69.285156 L 22.925781 69.285156 M 29.425781 34.90625 L 29.425781 34.90625 M 45.820313 25.90625 L 45.820313 25.90625 M 61.628906 34.816406 L 61.628906 34.816406 M 93.429688 29.171875 L 93.429688 29.171875 M 82.859375 34.597656 L 82.859375 34.597656 M 22.558594 30.402344 L 22.558594 30.402344 M 51.347656 31.265625 L 51.347656 31.265625 M 75.675781 33.484375 L 75.675781 33.484375 M 77.242188 40.410156 L 77.242188 40.410156 M 14.003906 25.078125 L 14.003906 25.078125 M 13.195313 39.210938 L 13.195313 39.210938 M 53.957031 35.523438 L 53.957031 35.523438 M 68.886719 38.421875 L 68.886719 38.421875 M 90.226563 32.03125 L 90.226563 32.03125 M 63.21875 33.746094 L 63.21875 33.746094 M 24.179688 32.707031 L 24.179688 32.707031 M 51.722656 37.671875 L 51.722656 37.671875 M 34.410156 29.878906 L 34.410156 29.878906 M 8.863281 37.238281 L 8.863281 37.238281 M 60.558594 34.546875 L 60.558594 34.546875 M 28.230469 25.195313 L 28.230469 25.195313 M 52.382813 26.777344 L 52.382813 26.777344 M 46.585938 31.867188 L 46.585938 31.867188 M 50.109375 33.464844 L 50.109375 33.464844 M 51.792969 39.644531 L 51.792969 39.644531 M 72.820313 28.605469 L 72.820313 28.605469 M 48.585938 33.414063 L 48.585938 33.414063 M 76.59375 35.015625 L 76.59375 35.015625 M 45.570313 31.917969 L 45.570313 31.917969 M 61.109375 31.109375 L 61.109375 31.109375 M 46.84375 33.171875 L 46.84375 33.171875 M 26.730469 27.175781 L 26.730469 27.175781 M 62.183594 29.398438 L 62.183594 29.398438 M 79.203125 36.042969 L 79.203125 36.042969 M 55.125 34.625 L 55.125 34.625 M 85.195313 34.613281 L 85.195313 34.613281 M 22.027344 30.441406 L 22.027344 30.441406 M 47.78125 29.863281 L 47.78125 29.863281 M 77 35.210938 L 77 35.210938 M 81.347656 28.46875 L 81.347656 28.46875 M 80.09375 35.457031 L 80.09375 35.457031 M 68.355469 30.636719 L 68.355469 30.636719 M 41.398438 30.917969 L 41.398438 30.917969 M 37.089844 34.472656 L 37.089844 34.472656 M 52.476563 36.453125 L 52.476563 36.453125 M 45.492188 42.710938 L 45.492188 42.710938 M 52.785156 25.304688 L 52.785156 25.304688 "
       id="path119" />
    <path
       style="fill:none;stroke-width:2.048;stroke-linecap:round;stroke-linejoin:round;stroke:rgb(92.155457%,9.803772%,13.725281%);stroke-opacity:1;stroke-miterlimit:4;"
       d="M 56.183594 25.207031 L 56.183594 25.207031 M 39.746094 29.273438 L 39.746094 29.273438 M 47.050781 38.265625 L 47.050781 38.265625 M 55.421875 37.621094 L 55.421875 37.621094 M 14.460938 39.867188 L 14.460938 39.867188 M 15.617188 36.546875 L 15.617188 36.546875 M 75.503906 30.453125 L 75.503906 30.453125 M 39.421875 31.023438 L 39.421875 31.023438 M 31.953125 21.574219 L 31.953125 21.574219 "
       id="path121" />
    <path
       style=" stroke:none;fill-rule:nonzero;fill:rgb(12.940979%,11.764526%,11.764526%);fill-opacity:1;"
       d="M 118.449219 116.695313 C 118.230469 116.945313 118.058594 117.242188 117.886719 117.242188 C 117.730469 117.242188 117.667969 117.039063 117.636719 116.914063 C 117.589844 116.710938 117.308594 115.601563 117.308594 115.445313 C 117.308594 115.445313 117.871094 114.460938 118.105469 114.460938 C 118.277344 114.460938 118.339844 114.601563 118.542969 114.601563 C 118.730469 114.601563 118.808594 114.445313 118.808594 114.304688 C 118.808594 114.101563 118.636719 114.007813 118.480469 114.007813 C 118.058594 114.007813 117.667969 114.507813 117.246094 115.164063 L 117.152344 114.726563 C 117.011719 114.007813 116.886719 114.007813 116.714844 114.007813 C 116.449219 114.007813 115.917969 114.195313 115.683594 114.273438 L 115.714844 114.398438 C 115.980469 114.335938 116.105469 114.304688 116.167969 114.304688 C 116.386719 114.304688 116.417969 114.414063 116.496094 114.679688 C 116.511719 114.710938 116.777344 115.804688 116.777344 115.867188 C 116.042969 116.945313 115.839844 117.210938 115.699219 117.210938 C 115.558594 117.210938 115.402344 117.070313 115.230469 117.070313 C 115.042969 117.070313 114.949219 117.210938 114.949219 117.335938 C 114.949219 117.539063 115.074219 117.695313 115.339844 117.695313 C 115.605469 117.695313 115.699219 117.601563 115.839844 117.445313 C 116.121094 117.148438 116.449219 116.710938 116.855469 116.164063 L 117.089844 117.148438 C 117.199219 117.570313 117.324219 117.695313 117.558594 117.695313 C 117.746094 117.695313 117.980469 117.695313 118.558594 116.757813 Z M 118.449219 116.695313 "
       id="path123" />
    <g
       clip-path="url(#clip7)"
       clip-rule="nonzero"
       id="g127">
      <path
         style=" stroke:none;fill-rule:nonzero;fill:rgb(12.940979%,11.764526%,11.764526%);fill-opacity:1;"
         d="M 119.058594 119.640625 L 120.574219 119.640625 L 120.574219 119.5625 C 120.308594 119.5625 120.105469 119.546875 120.105469 119.375 C 120.105469 119.296875 120.183594 119.09375 120.199219 118.984375 L 120.980469 116.15625 C 121.011719 116.078125 121.042969 115.96875 120.996094 115.96875 C 120.949219 115.96875 120.199219 116.125 119.933594 116.171875 L 119.933594 116.25 L 120.246094 116.234375 C 120.292969 116.234375 120.449219 116.234375 120.449219 116.421875 C 120.449219 116.453125 120.433594 116.53125 120.417969 116.59375 L 119.667969 119.265625 C 119.605469 119.515625 119.386719 119.53125 119.058594 119.5625 Z M 119.058594 119.640625 "
         id="path125" />
    </g>
    <path
       style=" stroke:none;fill-rule:nonzero;fill:rgb(12.940979%,11.764526%,11.764526%);fill-opacity:1;"
       d="M 8.070313 2.6875 C 7.851563 2.9375 7.679688 3.234375 7.507813 3.234375 C 7.351563 3.234375 7.289063 3.03125 7.257813 2.90625 C 7.210938 2.703125 6.929688 1.59375 6.929688 1.4375 C 6.929688 1.4375 7.492188 0.453125 7.726563 0.453125 C 7.898438 0.453125 7.960938 0.59375 8.164063 0.59375 C 8.351563 0.59375 8.429688 0.4375 8.429688 0.296875 C 8.429688 0.09375 8.257813 0 8.101563 0 C 7.679688 0 7.289063 0.5 6.867188 1.15625 L 6.773438 0.71875 C 6.632813 0 6.507813 0 6.335938 0 C 6.070313 0 5.539063 0.1875 5.304688 0.265625 L 5.335938 0.390625 C 5.601563 0.328125 5.726563 0.296875 5.789063 0.296875 C 6.007813 0.296875 6.039063 0.40625 6.117188 0.671875 C 6.132813 0.703125 6.398438 1.796875 6.398438 1.859375 C 5.664063 2.9375 5.460938 3.203125 5.320313 3.203125 C 5.179688 3.203125 5.023438 3.0625 4.851563 3.0625 C 4.664063 3.0625 4.570313 3.203125 4.570313 3.328125 C 4.570313 3.53125 4.695313 3.6875 4.960938 3.6875 C 5.226563 3.6875 5.320313 3.59375 5.460938 3.4375 C 5.742188 3.140625 6.070313 2.703125 6.476563 2.15625 L 6.710938 3.140625 C 6.820313 3.5625 6.945313 3.6875 7.179688 3.6875 C 7.367188 3.6875 7.601563 3.6875 8.179688 2.75 Z M 8.070313 2.6875 "
       id="path129" />
    <path
       style=" stroke:none;fill-rule:nonzero;fill:rgb(12.940979%,11.764526%,11.764526%);fill-opacity:1;"
       d="M 10.582031 4.882813 C 10.488281 5.070313 10.410156 5.226563 10.050781 5.226563 L 9.019531 5.226563 L 9.019531 5.195313 L 10.050781 4.148438 C 10.738281 3.476563 10.863281 3.226563 10.863281 2.867188 C 10.863281 2.460938 10.566406 1.960938 9.988281 1.960938 C 9.847656 1.960938 9.144531 1.976563 8.847656 2.820313 L 8.957031 2.867188 C 9.035156 2.726563 9.238281 2.351563 9.738281 2.351563 C 10.144531 2.351563 10.394531 2.679688 10.394531 3.023438 C 10.394531 3.195313 10.378906 3.507813 9.613281 4.320313 L 8.472656 5.539063 L 8.472656 5.632813 L 10.410156 5.632813 L 10.675781 4.914063 Z M 10.582031 4.882813 "
       id="path131" />
    <path
       style=" stroke:none;fill-rule:nonzero;fill:rgb(0%,0%,0%);fill-opacity:1;"
       d="M 79.546875 18.421875 C 78.96875 18.421875 78.96875 17.890625 78.96875 17.71875 C 78.96875 16.859375 79.875 14.796875 80.9375 14.796875 C 81.390625 14.796875 81.390625 15.21875 81.390625 15.4375 C 81.390625 16.625 80.453125 18.421875 79.546875 18.421875 Z M 82.40625 17.71875 C 82 18.1875 81.8125 18.40625 81.625 18.40625 C 81.53125 18.40625 81.453125 18.328125 81.453125 18.1875 C 81.453125 18.03125 82.609375 13.984375 83.015625 12.328125 L 82.96875 12.28125 C 82.484375 12.390625 82 12.453125 81.515625 12.5 L 81.515625 12.65625 C 82.03125 12.671875 82.09375 12.71875 82.09375 12.9375 C 82.09375 13.078125 82.03125 13.3125 81.953125 13.578125 L 81.546875 15.09375 L 81.53125 15.109375 C 81.5 14.90625 81.421875 14.578125 80.890625 14.578125 C 79.765625 14.578125 78.140625 16.328125 78.140625 17.765625 C 78.140625 18.265625 78.34375 18.890625 79.125 18.890625 C 79.609375 18.890625 80.140625 18.71875 80.828125 17.671875 L 80.84375 17.703125 C 80.765625 18.03125 80.734375 18.25 80.734375 18.46875 C 80.734375 18.671875 80.8125 18.90625 81.171875 18.90625 C 81.5 18.90625 82.109375 18.453125 82.515625 17.8125 Z M 82.40625 17.71875 "
       id="path133" />
    <path
       style=" stroke:none;fill-rule:nonzero;fill:rgb(0%,0%,0%);fill-opacity:1;"
       d="M 83.445313 18.777344 C 83.445313 18.183594 83.882813 15.761719 84.789063 15.761719 C 85.320313 15.761719 85.320313 16.386719 85.320313 16.574219 C 85.320313 17.636719 84.789063 19.605469 83.976563 19.605469 C 83.773438 19.605469 83.445313 19.480469 83.445313 18.777344 Z M 85.804688 17.121094 C 85.804688 16.527344 85.632813 15.589844 84.820313 15.589844 C 83.976563 15.589844 82.960938 16.855469 82.960938 18.511719 C 82.960938 19.136719 83.304688 19.777344 83.945313 19.777344 C 84.976563 19.777344 85.804688 18.339844 85.804688 17.121094 Z M 85.804688 17.121094 "
       id="path135" />
    <path
       style=" stroke:none;fill-rule:nonzero;fill:rgb(0%,0%,0%);fill-opacity:1;"
       d="M 93.808594 15.109375 L 89.011719 15.109375 L 89.011719 15.734375 L 93.808594 15.734375 Z M 93.808594 17.015625 L 89.011719 17.015625 L 89.011719 17.640625 L 93.808594 17.640625 Z M 93.808594 17.015625 "
       id="path137" />
    <path
       style=" stroke:none;fill-rule:nonzero;fill:rgb(0%,0%,0%);fill-opacity:1;"
       d="M 97.785156 18.890625 C 97.988281 18.890625 98.316406 18.71875 98.316406 18.375 C 98.316406 18.078125 98.066406 17.828125 97.785156 17.828125 C 97.503906 17.828125 97.253906 18.0625 97.253906 18.375 C 97.253906 18.734375 97.582031 18.890625 97.785156 18.890625 Z M 97.785156 18.890625 "
       id="path139" />
    <path
       style=" stroke:none;fill-rule:nonzero;fill:rgb(0%,0%,0%);fill-opacity:1;"
       d="M 100.445313 17.296875 C 100.445313 16.375 101.117188 12.609375 102.539063 12.609375 C 103.367188 12.609375 103.367188 13.578125 103.367188 13.875 C 103.367188 15.53125 102.539063 18.578125 101.273438 18.578125 C 100.960938 18.578125 100.445313 18.40625 100.445313 17.296875 Z M 104.117188 14.734375 C 104.117188 13.796875 103.851563 12.34375 102.585938 12.34375 C 101.273438 12.34375 99.679688 14.3125 99.679688 16.875 C 99.679688 17.875 100.226563 18.84375 101.226563 18.84375 C 102.820313 18.84375 104.117188 16.609375 104.117188 14.734375 Z M 104.117188 14.734375 "
       id="path141" />
    <path
       style=" stroke:none;fill-rule:nonzero;fill:rgb(0%,0%,0%);fill-opacity:1;"
       d="M 105.832031 13.390625 C 105.988281 13.203125 106.316406 12.75 106.910156 12.75 C 107.269531 12.75 107.738281 12.984375 107.738281 13.609375 C 107.738281 14.640625 106.425781 15.0625 105.472656 15.1875 L 105.472656 15.34375 C 106.394531 15.28125 107.238281 15.625 107.238281 16.96875 C 107.238281 18.15625 106.347656 18.484375 106.019531 18.484375 C 105.488281 18.484375 105.175781 17.921875 104.738281 17.921875 C 104.378906 17.921875 104.285156 18.09375 104.285156 18.28125 C 104.285156 18.71875 104.816406 18.84375 105.378906 18.84375 C 107.128906 18.84375 108.003906 17.5 108.003906 16.4375 C 108.003906 15.390625 107.347656 15.109375 107.097656 15 L 107.097656 14.96875 C 108.097656 14.59375 108.566406 14.265625 108.566406 13.53125 C 108.566406 12.75 107.878906 12.34375 107.175781 12.34375 C 106.644531 12.34375 105.925781 12.765625 105.691406 13.34375 Z M 105.832031 13.390625 "
       id="path143" />
  </g>
</svg>
