<?xml version="1.0" encoding="UTF-8" standalone="no"?>
<svg
   xmlns:dc="http://purl.org/dc/elements/1.1/"
   xmlns:cc="http://creativecommons.org/ns#"
   xmlns:rdf="http://www.w3.org/1999/02/22-rdf-syntax-ns#"
   xmlns:svg="http://www.w3.org/2000/svg"
   xmlns="http://www.w3.org/2000/svg"
   xmlns:sodipodi="http://sodipodi.sourceforge.net/DTD/sodipodi-0.dtd"
   xmlns:inkscape="http://www.inkscape.org/namespaces/inkscape"
   width="152.860214pt"
   height="152.29303pt"
   viewBox="0 0 152.860214 152.29303"
   version="1.2"
   id="svg46"
   sodipodi:docname="parzen_smallbin.svg"
   inkscape:version="0.92.4 (5da689c313, 2019-01-14)">
  <metadata
     id="metadata50">
    <rdf:RDF>
      <cc:Work
         rdf:about="">
        <dc:format>image/svg+xml</dc:format>
        <dc:type
           rdf:resource="http://purl.org/dc/dcmitype/StillImage" />
        <dc:title></dc:title>
      </cc:Work>
    </rdf:RDF>
  </metadata>
  <sodipodi:namedview
     pagecolor="#ffffff"
     bordercolor="#666666"
     borderopacity="1"
     objecttolerance="10"
     gridtolerance="10"
     guidetolerance="10"
     inkscape:pageopacity="0"
     inkscape:pageshadow="2"
     inkscape:window-width="661"
     inkscape:window-height="480"
     id="namedview48"
     showgrid="false"
     inkscape:zoom="1.1622331"
     inkscape:cx="101.90681"
     inkscape:cy="101.52869"
     inkscape:window-x="0"
     inkscape:window-y="0"
     inkscape:window-maximized="0"
     inkscape:current-layer="svg46" />
  <defs
     id="defs5">
    <clipPath
       id="clip1">
      <path
         d="M 151 149 L 152.859375 149 L 152.859375 152.292969 L 151 152.292969 Z M 151 149 "
         id="path2" />
    </clipPath>
  </defs>
  <g
     id="surface42">
    <path
       style="fill:none;stroke-width:0.25;stroke-linecap:round;stroke-linejoin:round;stroke:rgb(12.940979%,11.764526%,11.764526%);stroke-opacity:1;stroke-miterlimit:4;"
       d="M 2.046875 149.246094 L 143.304688 149.246094 "
       id="path7" />
    <path
       style=" stroke:none;fill-rule:nonzero;fill:rgb(12.940979%,11.764526%,11.764526%);fill-opacity:1;"
       d="M 144.492188 148.734375 C 143.660156 148.484375 143.128906 148.253906 142.460938 147.988281 L 142.460938 150.507813 C 142.699219 150.398438 143.660156 150.011719 144.492188 149.765625 C 145.371094 149.496094 146.175781 149.316406 146.699219 149.25 C 146.175781 149.183594 145.371094 149 144.492188 148.734375 "
       id="path9" />
    <path
       style="fill:none;stroke-width:0.25;stroke-linecap:round;stroke-linejoin:round;stroke:rgb(12.940979%,11.764526%,11.764526%);stroke-opacity:1;stroke-miterlimit:4;"
       d="M 2.046875 149.246094 L 2.046875 7.984375 "
       id="path11" />
    <path
       style=" stroke:none;fill-rule:nonzero;fill:rgb(12.940979%,11.764526%,11.764526%);fill-opacity:1;"
       d="M 1.53125 6.804688 C 1.285156 7.628906 1.058594 8.167969 0.789063 8.828125 L 3.3125 8.828125 C 3.199219 8.59375 2.8125 7.628906 2.566406 6.804688 C 2.296875 5.917969 2.113281 5.117188 2.050781 4.597656 C 1.984375 5.117188 1.800781 5.917969 1.53125 6.804688 "
       id="path13" />
    <path
       style=" stroke:none;fill-rule:nonzero;fill:rgb(59.214783%,59.214783%,59.214783%);fill-opacity:1;"
       d="M 5.410156 11.347656 L 139.949219 11.347656 L 139.949219 145.882813 L 5.410156 145.882813 Z M 5.410156 11.347656 "
       id="path15" />
    <path
       style=" stroke:none;fill-rule:nonzero;fill:rgb(100%,100%,100%);fill-opacity:1;"
       d="M 5.410156 69.421875 L 6.179688 68.421875 L 6.179688 64.34375 L 6.773438 63.988281 L 7.765625 62.988281 L 7.765625 60.269531 L 9.128906 58.910156 L 9.128906 57.550781 L 11.84375 54.832031 L 11.84375 53.476563 L 12.207031 53.113281 L 13.207031 52.117188 L 14.921875 50.398438 L 16.285156 50.398438 L 19.363281 53.476563 L 20.363281 54.472656 L 22.078125 56.191406 L 25.796875 59.910156 L 27.152344 59.910156 L 28.515625 58.550781 L 32.585938 58.550781 L 33.949219 57.191406 L 35.304688 57.191406 L 37.023438 58.910156 L 37.023438 62.988281 L 38.023438 63.988281 L 38.386719 64.34375 L 38.386719 65.707031 L 39.386719 66.703125 L 39.742188 67.066406 L 39.742188 68.421875 L 41.105469 69.78125 L 41.105469 72.5 L 42.097656 73.5 L 42.460938 73.859375 L 42.460938 75.21875 L 46.179688 78.933594 L 47.535156 78.933594 L 48.898438 77.574219 L 54.328125 77.574219 L 55.328125 76.578125 L 55.691406 76.21875 L 58.410156 76.21875 L 59.410156 75.21875 L 59.410156 71.140625 L 58.410156 70.144531 L 58.046875 69.78125 L 56.691406 68.421875 L 56.691406 67.066406 L 55.328125 65.707031 L 55.328125 64.34375 L 54.328125 63.347656 L 53.972656 62.988281 L 52.972656 61.988281 L 52.609375 61.628906 L 52.609375 60.269531 L 50.253906 57.910156 L 49.898438 57.550781 L 49.898438 56.191406 L 48.898438 55.273438 L 48.535156 54.832031 L 48.898438 54.394531 L 49.898438 53.476563 L 50.253906 53.113281 L 52.972656 53.113281 L 53.972656 52.117188 L 54.328125 51.753906 L 58.410156 51.753906 L 59.410156 50.757813 L 59.769531 50.398438 L 63.847656 50.398438 L 64.84375 49.398438 L 64.84375 45.320313 L 63.484375 43.960938 L 63.484375 41.242188 L 62.484375 40.246094 L 62.128906 39.886719 L 62.128906 37.167969 L 60.765625 35.808594 L 60.765625 33.089844 L 59.769531 32.171875 L 58.410156 32.171875 L 57.410156 33.089844 L 57.410156 34.449219 L 54.691406 37.167969 L 54.691406 38.527344 L 53.335938 39.886719 L 53.335938 41.242188 L 51.972656 42.605469 L 51.617188 42.964844 L 50.699219 43.960938 L 50.253906 44.324219 L 49.816406 43.960938 L 48.898438 42.964844 L 48.535156 42.605469 L 48.535156 41.242188 L 47.179688 39.886719 L 46.179688 38.964844 L 45.816406 38.527344 L 46.179688 38.085938 L 47.179688 37.167969 L 47.179688 34.449219 L 48.535156 33.089844 L 48.535156 30.375 L 49.898438 29.011719 L 49.898438 26.296875 L 51.253906 24.9375 L 51.175781 23.578125 L 51.617188 23.21875 L 52.054688 23.578125 L 52.976563 24.578125 L 53.335938 24.9375 L 54.332031 25.9375 L 54.695313 26.296875 L 54.695313 27.65625 L 55.695313 28.652344 L 56.054688 29.011719 L 57.050781 30.011719 L 57.414063 30.375 L 58.410156 31.289063 L 59.769531 31.289063 L 61.128906 31.371094 L 65.207031 31.371094 L 66.566406 30.011719 L 67.921875 30.011719 L 72 34.089844 L 73.359375 34.089844 L 74.71875 35.449219 L 76.078125 35.449219 L 76.4375 35.808594 L 77.433594 36.808594 L 78.796875 36.808594 L 79.109375 37.167969 L 80.15625 38.167969 L 81.199219 37.167969 L 81.511719 36.808594 L 82.871094 35.449219 L 84.230469 35.449219 L 85.230469 34.449219 L 85.230469 31.730469 L 83.871094 30.375 L 83.871094 27.65625 L 82.511719 26.296875 L 82.511719 23.578125 L 81.152344 22.21875 L 81.152344 20.859375 L 79.792969 19.5 L 79.792969 16.785156 L 78.433594 15.425781 L 78.433594 12.707031 L 77.433594 11.546875 L 77.074219 11.347656 L 5.410156 11.347656 L 5.410156 69.421875 "
       id="path17" />
    <path
       style=" stroke:none;fill-rule:nonzero;fill:rgb(100%,100%,100%);fill-opacity:1;"
       d="M 5.410156 81.011719 L 5.609375 80.652344 L 6.773438 79.65625 L 10.847656 79.65625 L 11.203125 79.292969 L 12.207031 78.296875 L 17.636719 78.296875 L 18.640625 79.292969 L 18.996094 79.65625 L 19.996094 80.652344 L 20.363281 81.011719 L 21.71875 81.011719 L 22.71875 82.011719 L 23.078125 82.375 L 24.078125 83.371094 L 24.4375 83.730469 L 25.429688 84.730469 L 25.429688 87.449219 L 26.796875 88.808594 L 26.796875 92.882813 L 28.15625 94.242188 L 28.15625 98.320313 L 29.511719 99.679688 L 29.511719 103.753906 L 30.867188 105.113281 L 30.867188 109.191406 L 31.230469 109.503906 L 32.230469 110.550781 L 31.230469 111.597656 L 30.867188 111.910156 L 28.515625 114.265625 L 5.410156 114.265625 L 5.410156 81.011719 "
       id="path19" />
    <path
       style=" stroke:none;fill-rule:nonzero;fill:rgb(59.214783%,59.214783%,59.214783%);fill-opacity:1;"
       d="M 34.304688 11.347656 L 34.304688 14.066406 L 35.667969 15.425781 L 35.667969 19.5 L 37.023438 20.859375 L 37.023438 34.449219 L 36.667969 34.8125 L 35.667969 35.808594 L 34.304688 37.167969 L 34.304688 38.527344 L 33.949219 38.886719 L 29.875 38.886719 L 29.511719 38.527344 L 28.515625 37.527344 L 26.796875 35.808594 L 25.796875 34.8125 L 25.429688 34.449219 L 25.429688 33.089844 L 24.078125 31.730469 L 23.078125 30.734375 L 21.355469 29.011719 L 21.355469 27.65625 L 21.71875 27.292969 L 22.71875 26.296875 L 22.71875 22.21875 L 21.355469 20.859375 L 21.355469 18.144531 L 20.363281 17.144531 L 19.996094 16.785156 L 19.996094 12.707031 L 18.996094 11.546875 L 18.640625 11.347656 L 34.304688 11.347656 "
       id="path21" />
    <path
       style=" stroke:none;fill-rule:nonzero;fill:rgb(100%,100%,100%);fill-opacity:1;"
       d="M 112.40625 145.882813 L 112.40625 133.652344 L 112.765625 133.292969 L 113.761719 132.292969 L 113.761719 103.753906 L 114.128906 103.394531 L 115.121094 102.398438 L 115.121094 99.679688 L 114.128906 98.679688 L 111.410156 98.679688 L 111.097656 98.320313 L 110.046875 97.320313 L 109.003906 98.320313 L 108.691406 98.679688 L 107.328125 98.679688 L 105.972656 100.039063 L 104.609375 100.039063 L 103.617188 101.039063 L 103.253906 101.398438 L 101.898438 101.398438 L 100.898438 102.398438 L 100.898438 103.753906 L 100.535156 104.117188 L 99.535156 105.113281 L 99.535156 107.832031 L 98.179688 109.191406 L 98.179688 110.550781 L 96.816406 111.910156 L 96.816406 114.625 L 95.460938 115.984375 L 95.460938 118.703125 L 94.097656 120.0625 L 94.097656 121.421875 L 92.742188 122.78125 L 92.742188 125.5 L 92.378906 125.859375 L 91.023438 125.859375 L 89.667969 124.5 L 88.304688 124.5 L 86.949219 123.140625 L 85.585938 123.140625 L 84.230469 121.78125 L 82.867188 121.78125 L 81.511719 120.421875 L 80.152344 120.421875 L 79.792969 120.0625 L 78.792969 119.066406 L 77.429688 119.066406 L 75.71875 117.34375 L 74.714844 116.34375 L 73.355469 116.34375 L 72 114.988281 L 70.636719 114.988281 L 70.28125 114.625 L 69.28125 113.628906 L 67.917969 113.628906 L 67.558594 113.269531 L 66.566406 112.351563 L 66.199219 111.910156 L 66.566406 111.46875 L 67.558594 110.550781 L 67.558594 109.191406 L 73 103.753906 L 73 102.398438 L 73.355469 102.035156 L 74.355469 101.039063 L 74.714844 100.675781 L 75.71875 99.679688 L 75.71875 96.960938 L 74.355469 95.601563 L 74.355469 94.242188 L 73 92.882813 L 73 91.523438 L 71.636719 90.167969 L 71.636719 88.808594 L 70.28125 87.449219 L 70.28125 86.089844 L 73.355469 83.011719 L 74.714844 83.011719 L 77.074219 80.652344 L 77.429688 80.292969 L 80.152344 77.574219 L 81.511719 77.574219 L 82.511719 76.578125 L 85.585938 73.5 L 86.949219 73.5 L 89.304688 71.140625 L 89.667969 70.828125 L 90.660156 69.78125 L 89.667969 68.734375 L 89.304688 68.421875 L 88.304688 67.425781 L 87.949219 67.066406 L 87.949219 65.707031 L 86.585938 64.34375 L 85.585938 63.347656 L 85.273438 62.988281 L 84.230469 61.988281 L 83.179688 62.988281 L 82.867188 63.347656 L 81.511719 64.707031 L 80.152344 64.707031 L 77.792969 67.066406 L 77.429688 67.425781 L 76.074219 67.425781 L 75.074219 68.421875 L 74.714844 68.785156 L 73.355469 68.785156 L 72 70.144531 L 71 71.140625 L 70.636719 71.5 L 69.28125 71.5 L 66.566406 74.21875 L 65.203125 74.21875 L 62.484375 76.9375 L 61.128906 76.886719 L 60.128906 77.9375 L 61.128906 78.984375 L 61.484375 79.292969 L 62.847656 80.652344 L 62.847656 83.371094 L 58.410156 87.808594 L 57.046875 87.808594 L 56.054688 88.808594 L 55.691406 89.167969 L 46.535156 98.320313 L 46.535156 99.679688 L 46.179688 100.039063 L 45.179688 101.039063 L 45.179688 105.113281 L 43.824219 106.472656 L 43.824219 109.191406 L 44.816406 110.191406 L 46.179688 110.191406 L 47.535156 111.550781 L 48.898438 111.550781 L 50.617188 113.269531 L 51.617188 114.265625 L 52.972656 114.265625 L 53.335938 114.625 L 54.328125 115.625 L 54.691406 115.984375 L 54.691406 117.34375 L 53.335938 118.703125 L 53.335938 128.214844 L 52.972656 128.578125 L 51.972656 129.574219 L 51.972656 135.011719 L 50.617188 136.371094 L 50.617188 137.730469 L 49.253906 139.085938 L 49.253906 140.449219 L 48.898438 140.808594 L 47.898438 141.804688 L 47.898438 143.164063 L 46.535156 144.523438 L 46.535156 145.882813 L 112.40625 145.882813 "
       id="path23" />
    <path
       style=" stroke:none;fill-rule:nonzero;fill:rgb(100%,100%,100%);fill-opacity:1;"
       d="M 94.785156 11.347656 L 95.097656 11.546875 L 96.097656 12.707031 L 96.097656 15.425781 L 97.460938 16.785156 L 97.460938 20.859375 L 98.816406 22.21875 L 98.816406 24.9375 L 99.179688 25.296875 L 100.171875 26.296875 L 100.171875 27.65625 L 100.535156 28.015625 L 101.535156 29.011719 L 101.898438 29.375 L 107.328125 29.375 L 108.332031 30.375 L 108.332031 31.730469 L 106.972656 33.089844 L 106.972656 34.449219 L 111.410156 38.886719 L 112.765625 38.886719 L 113.761719 39.886719 L 114.128906 40.246094 L 115.042969 41.242188 L 115.488281 41.605469 L 115.921875 41.242188 L 115.847656 39.886719 L 115.847656 20.859375 L 116.84375 19.863281 L 117.15625 19.5 L 118.203125 18.503906 L 119.25 19.5 L 119.5625 19.863281 L 120.5625 20.859375 L 120.5625 22.21875 L 121.921875 23.578125 L 121.921875 26.296875 L 123.28125 27.65625 L 123.28125 30.375 L 123.640625 30.734375 L 124.640625 31.730469 L 124.640625 33.089844 L 126 34.449219 L 126 37.167969 L 126.359375 37.527344 L 127.355469 38.527344 L 128.714844 39.886719 L 128.714844 50.757813 L 130.074219 52.117188 L 130.074219 56.191406 L 129.074219 57.191406 L 127.714844 57.191406 L 126.359375 58.550781 L 125 58.550781 L 123.28125 60.269531 L 123.28125 61.628906 L 120.921875 63.988281 L 120.5625 64.34375 L 119.5625 65.34375 L 114.128906 65.34375 L 113.128906 64.34375 L 112.769531 63.988281 L 108.691406 63.988281 L 107.695313 62.988281 L 107.332031 62.625 L 104.613281 62.625 L 103.617188 61.628906 L 103.617188 58.910156 L 104.613281 57.910156 L 104.976563 57.550781 L 104.976563 56.191406 L 105.972656 55.195313 L 106.332031 54.832031 L 106.332031 52.117188 L 107.332031 51.117188 L 107.695313 50.757813 L 107.695313 49.398438 L 106.332031 48.039063 L 105.972656 47.679688 L 104.976563 46.679688 L 104.613281 46.320313 L 103.617188 45.320313 L 101.898438 43.601563 L 100.539063 43.601563 L 100.175781 43.960938 L 100.175781 45.320313 L 99.179688 46.320313 L 95.101563 50.398438 L 93.742188 50.398438 L 93.382813 50.757813 L 92.382813 51.753906 L 91.027344 51.753906 L 90.027344 50.757813 L 90.027344 35.808594 L 88.667969 34.449219 L 88.667969 33.089844 L 90.027344 31.730469 L 91.027344 30.734375 L 91.386719 30.375 L 91.386719 24.9375 L 92.746094 23.578125 L 92.746094 12.707031 L 92.695313 11.347656 L 94.789063 11.347656 "
       id="path25" />
    <path
       style=" stroke:none;fill-rule:nonzero;fill:rgb(100%,100%,100%);fill-opacity:1;"
       d="M 139.949219 70.144531 L 139.171875 71.140625 L 138.585938 71.5 L 137.222656 71.5 L 135.867188 72.859375 L 133.148438 72.859375 L 132.15625 73.859375 L 131.792969 74.21875 L 130.429688 74.21875 L 129.429688 75.21875 L 128.074219 76.578125 L 128.074219 77.9375 L 126.71875 79.292969 L 126.71875 80.652344 L 125.355469 82.011719 L 125.355469 83.371094 L 123.996094 84.730469 L 123.996094 86.089844 L 122.636719 87.449219 L 122.636719 90.167969 L 121.28125 91.523438 L 121.28125 92.882813 L 119.917969 94.242188 L 119.917969 95.601563 L 118.566406 96.960938 L 118.566406 99.679688 L 119.5625 100.675781 L 120.917969 100.675781 L 122.277344 102.035156 L 125 102.035156 L 126.355469 103.394531 L 129.074219 103.394531 L 130.429688 104.753906 L 133.148438 104.753906 L 134.511719 106.113281 L 135.867188 106.113281 L 136.230469 106.472656 L 137.222656 107.472656 L 139.949219 107.472656 L 139.949219 70.144531 "
       id="path27" />
    <path
       style=" stroke:none;fill-rule:nonzero;fill:rgb(100%,100%,100%);fill-opacity:1;"
       d="M 139.949219 39.523438 L 137.222656 39.523438 L 135.867188 38.167969 L 134.511719 38.167969 L 133.511719 37.167969 L 133.511719 18.144531 L 133.148438 17.78125 L 132.15625 16.785156 L 132.15625 11.347656 L 139.949219 11.347656 L 139.949219 39.523438 "
       id="path29" />
    <path
       style="fill:none;stroke-width:2.498;stroke-linecap:round;stroke-linejoin:round;stroke:rgb(12.940979%,11.764526%,11.764526%);stroke-opacity:1;stroke-miterlimit:4;"
       d="M 10.523438 60.199219 L 10.523438 60.199219 M 38.449219 72.804688 L 38.449219 72.804688 M 73.269531 67.925781 L 73.269531 67.925781 M 34.160156 72.398438 L 34.160156 72.398438 M 65.894531 40.484375 L 65.894531 40.484375 M 28.859375 32.980469 L 28.859375 32.980469 M 122.335938 73.851563 L 122.335938 73.851563 M 88.386719 23.917969 L 88.386719 23.917969 M 67.472656 38.644531 L 67.472656 38.644531 M 131.199219 31.484375 L 131.199219 31.484375 M 68.730469 39.570313 L 68.730469 39.570313 M 134.566406 45.53125 L 134.566406 45.53125 M 63.625 57.988281 L 63.625 57.988281 M 101.53125 51.339844 L 101.53125 51.339844 M 130.304688 68.675781 L 130.304688 68.675781 M 72.777344 57.558594 L 72.777344 57.558594 M 69.816406 39.539063 L 69.816406 39.539063 M 49.332031 35.925781 L 49.332031 35.925781 M 87.429688 44.304688 L 87.429688 44.304688 M 100.886719 23.355469 L 100.886719 23.355469 M 25.367188 17.007813 L 25.367188 17.007813 M 109.628906 70.488281 L 109.628906 70.488281 M 96.574219 56.054688 L 96.574219 56.054688 M 115.011719 36.300781 L 115.011719 36.300781 M 38.367188 76.679688 L 38.367188 76.679688 M 18.890625 130.84375 L 18.890625 130.84375 M 48.011719 86.617188 L 48.011719 86.617188 M 86.054688 84.632813 L 86.054688 84.632813 M 118.136719 125.691406 L 118.136719 125.691406 M 42.136719 127.324219 L 42.136719 127.324219 M 36.117188 92.734375 L 36.117188 92.734375 M 81.199219 115.316406 L 81.199219 115.316406 "
       id="path31" />
    <path
       style="fill:none;stroke-width:2.498;stroke-linecap:round;stroke-linejoin:round;stroke:rgb(92.155457%,9.803772%,13.725281%);stroke-opacity:1;stroke-miterlimit:4;"
       d="M 16.167969 19.804688 L 16.167969 19.804688 M 111.511719 56.175781 L 111.511719 56.175781 M 59.535156 42.371094 L 59.535156 42.371094 M 136.449219 31.21875 L 136.449219 31.21875 M 26.578125 44.304688 L 26.578125 44.304688 M 122.96875 46.257813 L 122.96875 46.257813 M 118.511719 36.304688 L 118.511719 36.304688 M 42.324219 40.242188 L 42.324219 40.242188 M 5.785156 56.496094 L 5.785156 56.496094 M 5.597656 58.796875 L 5.597656 58.796875 M 109.613281 42.375 L 109.613281 42.375 M 64.34375 22.097656 L 64.34375 22.097656 M 98.855469 33.917969 L 98.855469 33.917969 M 92.78125 44.539063 L 92.78125 44.539063 M 44.734375 70.164063 L 44.734375 70.164063 M 96.28125 24.664063 L 96.28125 24.664063 M 23.566406 37.207031 L 23.566406 37.207031 M 113.261719 57.019531 L 113.261719 57.019531 M 45 12.25 L 45 12.25 M 76.347656 28.128906 L 76.347656 28.128906 M 44.625 34.371094 L 44.625 34.371094 M 76.160156 47.941406 L 76.160156 47.941406 M 74.960938 70.609375 L 74.960938 70.609375 M 17.226563 37.191406 L 17.226563 37.191406 M 116.046875 48.039063 L 116.046875 48.039063 M 64.398438 138.539063 L 64.398438 138.539063 M 76.730469 123.757813 L 76.730469 123.757813 M 108.066406 125.21875 L 108.066406 125.21875 M 58.574219 97.898438 L 58.574219 97.898438 M 134.746094 79.546875 L 134.746094 79.546875 M 18.984375 96.996094 L 18.984375 96.996094 M 63.816406 130.035156 L 63.816406 130.035156 "
       id="path33" />
    <path
       style=" stroke:none;fill-rule:nonzero;fill:rgb(12.940979%,11.764526%,11.764526%);fill-opacity:1;"
       d="M 150.964844 150.121094 C 150.808594 150.308594 150.683594 150.527344 150.558594 150.527344 C 150.449219 150.527344 150.402344 150.386719 150.371094 150.277344 C 150.339844 150.136719 150.136719 149.324219 150.136719 149.214844 C 150.136719 149.214844 150.542969 148.480469 150.714844 148.480469 C 150.855469 148.480469 150.886719 148.589844 151.042969 148.589844 C 151.183594 148.589844 151.246094 148.464844 151.246094 148.355469 C 151.246094 148.214844 151.105469 148.152344 150.996094 148.152344 C 150.683594 148.152344 150.402344 148.511719 150.089844 149.011719 L 150.027344 148.667969 C 149.917969 148.152344 149.824219 148.152344 149.699219 148.152344 C 149.496094 148.152344 149.105469 148.292969 148.949219 148.339844 L 148.964844 148.433594 C 149.152344 148.386719 149.246094 148.371094 149.292969 148.371094 C 149.464844 148.371094 149.480469 148.449219 149.542969 148.636719 C 149.542969 148.667969 149.746094 149.464844 149.746094 149.527344 C 149.199219 150.308594 149.042969 150.511719 148.949219 150.511719 C 148.839844 150.511719 148.730469 150.402344 148.605469 150.402344 C 148.464844 150.402344 148.402344 150.511719 148.402344 150.605469 C 148.402344 150.746094 148.496094 150.855469 148.683594 150.855469 C 148.871094 150.855469 148.949219 150.792969 149.042969 150.683594 C 149.261719 150.449219 149.511719 150.136719 149.792969 149.730469 L 149.980469 150.449219 C 150.058594 150.777344 150.136719 150.855469 150.324219 150.855469 C 150.449219 150.855469 150.621094 150.855469 151.058594 150.167969 Z M 150.964844 150.121094 "
       id="path35" />
    <g
       clip-path="url(#clip1)"
       clip-rule="nonzero"
       id="g39">
      <path
         style=" stroke:none;fill-rule:nonzero;fill:rgb(12.940979%,11.764526%,11.764526%);fill-opacity:1;"
         d="M 151.425781 152.292969 L 152.535156 152.292969 L 152.535156 152.230469 C 152.332031 152.230469 152.191406 152.230469 152.191406 152.105469 C 152.191406 152.042969 152.238281 151.886719 152.269531 151.808594 L 152.832031 149.730469 C 152.847656 149.667969 152.878906 149.589844 152.847656 149.589844 C 152.816406 149.589844 152.253906 149.714844 152.066406 149.746094 L 152.066406 149.808594 L 152.300781 149.792969 C 152.332031 149.792969 152.441406 149.792969 152.441406 149.917969 C 152.441406 149.949219 152.425781 150.011719 152.425781 150.058594 L 151.863281 152.027344 C 151.816406 152.199219 151.660156 152.214844 151.425781 152.230469 Z M 151.425781 152.292969 "
         id="path37" />
    </g>
    <path
       style=" stroke:none;fill-rule:nonzero;fill:rgb(12.940979%,11.764526%,11.764526%);fill-opacity:1;"
       d="M 2.5625 1.96875 C 2.40625 2.15625 2.28125 2.375 2.15625 2.375 C 2.046875 2.375 2 2.234375 1.96875 2.125 C 1.9375 1.984375 1.734375 1.171875 1.734375 1.0625 C 1.734375 1.0625 2.140625 0.328125 2.3125 0.328125 C 2.453125 0.328125 2.484375 0.4375 2.640625 0.4375 C 2.78125 0.4375 2.84375 0.3125 2.84375 0.203125 C 2.84375 0.0625 2.703125 0 2.59375 0 C 2.28125 0 2 0.359375 1.6875 0.859375 L 1.625 0.515625 C 1.515625 0 1.421875 0 1.296875 0 C 1.09375 0 0.703125 0.140625 0.546875 0.1875 L 0.5625 0.28125 C 0.75 0.234375 0.84375 0.21875 0.890625 0.21875 C 1.0625 0.21875 1.078125 0.296875 1.140625 0.484375 C 1.140625 0.515625 1.34375 1.3125 1.34375 1.375 C 0.796875 2.15625 0.640625 2.359375 0.546875 2.359375 C 0.4375 2.359375 0.328125 2.25 0.203125 2.25 C 0.0625 2.25 0 2.359375 0 2.453125 C 0 2.59375 0.09375 2.703125 0.28125 2.703125 C 0.46875 2.703125 0.546875 2.640625 0.640625 2.53125 C 0.859375 2.296875 1.109375 1.984375 1.390625 1.578125 L 1.578125 2.296875 C 1.65625 2.625 1.734375 2.703125 1.921875 2.703125 C 2.046875 2.703125 2.21875 2.703125 2.65625 2.015625 Z M 2.5625 1.96875 "
       id="path41" />
    <path
       style=" stroke:none;fill-rule:nonzero;fill:rgb(12.940979%,11.764526%,11.764526%);fill-opacity:1;"
       d="M 4.414063 3.578125 C 4.351563 3.734375 4.289063 3.84375 4.023438 3.84375 L 3.257813 3.84375 L 3.257813 3.8125 L 4.039063 3.046875 C 4.523438 2.546875 4.632813 2.375 4.632813 2.109375 C 4.632813 1.796875 4.398438 1.4375 3.976563 1.4375 C 3.882813 1.4375 3.351563 1.453125 3.132813 2.078125 L 3.226563 2.109375 C 3.273438 2 3.429688 1.734375 3.789063 1.734375 C 4.101563 1.734375 4.289063 1.96875 4.289063 2.21875 C 4.289063 2.34375 4.273438 2.578125 3.710938 3.171875 L 2.867188 4.078125 L 2.867188 4.140625 L 4.289063 4.140625 L 4.492188 3.609375 Z M 4.414063 3.578125 "
       id="path43" />
  </g>
</svg>
