<?xml version="1.0" encoding="UTF-8" standalone="no"?>
<svg
   xmlns:dc="http://purl.org/dc/elements/1.1/"
   xmlns:cc="http://creativecommons.org/ns#"
   xmlns:rdf="http://www.w3.org/1999/02/22-rdf-syntax-ns#"
   xmlns:svg="http://www.w3.org/2000/svg"
   xmlns="http://www.w3.org/2000/svg"
   xmlns:sodipodi="http://sodipodi.sourceforge.net/DTD/sodipodi-0.dtd"
   xmlns:inkscape="http://www.inkscape.org/namespaces/inkscape"
   width="172.830627pt"
   height="166.36293pt"
   viewBox="0 0 172.830627 166.36293"
   version="1.2"
   id="svg206"
   sodipodi:docname="augmented_feature_space.svg"
   inkscape:version="0.92.4 (5da689c313, 2019-01-14)">
  <metadata
     id="metadata210">
    <rdf:RDF>
      <cc:Work
         rdf:about="">
        <dc:format>image/svg+xml</dc:format>
        <dc:type
           rdf:resource="http://purl.org/dc/dcmitype/StillImage" />
        <dc:title></dc:title>
      </cc:Work>
    </rdf:RDF>
  </metadata>
  <sodipodi:namedview
     pagecolor="#ffffff"
     bordercolor="#666666"
     borderopacity="1"
     objecttolerance="10"
     gridtolerance="10"
     guidetolerance="10"
     inkscape:pageopacity="0"
     inkscape:pageshadow="2"
     inkscape:window-width="661"
     inkscape:window-height="480"
     id="namedview208"
     showgrid="false"
     inkscape:zoom="1.0639389"
     inkscape:cx="115.22042"
     inkscape:cy="110.90862"
     inkscape:window-x="0"
     inkscape:window-y="0"
     inkscape:window-maximized="0"
     inkscape:current-layer="svg206" />
  <defs
     id="defs11">
    <clipPath
       id="clip1">
      <path
         d="M 19 0 L 172.832031 0 L 172.832031 166.363281 L 19 166.363281 Z M 19 0 "
         id="path2" />
    </clipPath>
    <clipPath
       id="clip2">
      <path
         d="M 18 21 L 172.832031 21 L 172.832031 166.363281 L 18 166.363281 Z M 18 21 "
         id="path5" />
    </clipPath>
    <clipPath
       id="clip3">
      <path
         d="M 19 0 L 172.832031 0 L 172.832031 166.363281 L 19 166.363281 Z M 19 0 "
         id="path8" />
    </clipPath>
  </defs>
  <g
     id="surface40">
    <path
       style="fill:none;stroke-width:0.5;stroke-linecap:round;stroke-linejoin:round;stroke:rgb(0%,0%,0%);stroke-opacity:1;stroke-miterlimit:4;"
       d="M 50.21875 63.011719 L 96.71875 75.90625 "
       id="path13" />
    <path
       style="fill:none;stroke-width:0.5;stroke-linecap:butt;stroke-linejoin:miter;stroke:rgb(0%,0%,0%);stroke-opacity:1;stroke-miterlimit:4;"
       d="M 74.21875 104.261719 L 98.21875 79.15625 "
       id="path15" />
    <g
       clip-path="url(#clip1)"
       clip-rule="nonzero"
       id="g19">
      <path
         style="fill:none;stroke-width:0.25;stroke-linecap:round;stroke-linejoin:round;stroke:rgb(0%,0%,0%);stroke-opacity:1;stroke-miterlimit:4;"
         d="M 33.214844 128.65625 L 83.640625 77.234375 M 33.214844 128.65625 L 19.679688 43.238281 M 80.945313 0.125 L 19.679688 43.238281 M 80.945313 0.125 L 83.640625 77.234375 M 122.582031 166.234375 L 161.554688 102.730469 M 122.582031 166.234375 L 127.78125 76.640625 M 172.703125 21.140625 L 127.78125 76.640625 M 172.703125 21.140625 L 161.554688 102.730469 M 33.214844 128.65625 L 19.679688 43.238281 M 33.214844 128.65625 L 122.582031 166.234375 M 127.78125 76.640625 L 122.582031 166.234375 M 127.78125 76.640625 L 19.679688 43.238281 M 83.640625 77.234375 L 80.945313 0.125 M 83.640625 77.234375 L 161.554688 102.730469 M 172.703125 21.140625 L 161.554688 102.730469 M 172.703125 21.140625 L 80.945313 0.125 M 33.214844 128.65625 L 122.582031 166.234375 M 33.214844 128.65625 L 83.640625 77.234375 M 161.554688 102.730469 L 83.640625 77.234375 M 161.554688 102.730469 L 122.582031 166.234375 M 19.679688 43.238281 L 127.78125 76.640625 M 19.679688 43.238281 L 80.945313 0.125 M 172.703125 21.140625 L 80.945313 0.125 M 172.703125 21.140625 L 127.78125 76.640625 "
         id="path17" />
    </g>
    <path
       style=" stroke:none;fill-rule:nonzero;fill:rgb(92.155457%,9.803772%,13.725281%);fill-opacity:1;"
       d="M 106.492188 88.222656 L 102.785156 76.445313 L 104.539063 79.816406 L 106.492188 88.222656 "
       id="path21" />
    <path
       style=" stroke:none;fill-rule:nonzero;fill:rgb(92.155457%,9.803772%,13.725281%);fill-opacity:1;"
       d="M 106.492188 88.222656 L 100.792969 73.132813 L 102.785156 76.445313 L 106.492188 88.222656 "
       id="path23" />
    <path
       style=" stroke:none;fill-rule:nonzero;fill:rgb(92.155457%,9.803772%,13.725281%);fill-opacity:1;"
       d="M 106.492188 88.222656 L 98.738281 70.171875 L 100.792969 73.132813 L 106.492188 88.222656 "
       id="path25" />
    <path
       style="fill:none;stroke-width:0.387;stroke-linecap:round;stroke-linejoin:round;stroke:rgb(0%,0%,0%);stroke-opacity:1;stroke-miterlimit:4;"
       d="M 100.792969 73.132813 L 102.785156 76.445313 "
       id="path27" />
    <path
       style=" stroke:none;fill-rule:nonzero;fill:rgb(92.155457%,9.803772%,13.725281%);fill-opacity:1;"
       d="M 106.492188 88.222656 L 104.539063 79.816406 L 105.894531 82.949219 L 106.492188 88.222656 "
       id="path29" />
    <path
       style="fill-rule:nonzero;fill:rgb(92.155457%,9.803772%,13.725281%);fill-opacity:1;stroke-width:0.387;stroke-linecap:round;stroke-linejoin:round;stroke:rgb(12.940979%,11.764526%,11.764526%);stroke-opacity:1;stroke-miterlimit:4;"
       d="M 102.785156 76.445313 L 104.539063 79.816406 "
       id="path31" />
    <path
       style=" stroke:none;fill-rule:nonzero;fill:rgb(92.155457%,9.803772%,13.725281%);fill-opacity:1;"
       d="M 106.492188 88.222656 L 96.796875 67.832031 L 98.738281 70.171875 L 106.492188 88.222656 "
       id="path33" />
    <path
       style="fill:none;stroke-width:0.387;stroke-linecap:round;stroke-linejoin:round;stroke:rgb(0%,0%,0%);stroke-opacity:1;stroke-miterlimit:4;"
       d="M 98.738281 70.171875 L 100.792969 73.132813 "
       id="path35" />
    <path
       style=" stroke:none;fill-rule:nonzero;fill:rgb(92.155457%,9.803772%,13.725281%);fill-opacity:1;"
       d="M 106.492188 88.222656 L 105.894531 82.949219 L 106.71875 85.550781 L 106.492188 88.222656 "
       id="path37" />
    <path
       style="fill:none;stroke-width:0.387;stroke-linecap:round;stroke-linejoin:round;stroke:rgb(0%,0%,0%);stroke-opacity:1;stroke-miterlimit:4;"
       d="M 104.539063 79.816406 L 105.894531 82.949219 "
       id="path39" />
    <path
       style=" stroke:none;fill-rule:nonzero;fill:rgb(92.155457%,9.803772%,13.725281%);fill-opacity:1;"
       d="M 106.492188 88.222656 L 95.15625 66.335938 L 96.796875 67.832031 L 106.492188 88.222656 "
       id="path41" />
    <path
       style="fill:none;stroke-width:0.387;stroke-linecap:round;stroke-linejoin:round;stroke:rgb(0%,0%,0%);stroke-opacity:1;stroke-miterlimit:4;"
       d="M 96.796875 67.832031 L 98.738281 70.171875 "
       id="path43" />
    <path
       style=" stroke:none;fill-rule:nonzero;fill:rgb(92.155457%,9.803772%,13.725281%);fill-opacity:1;"
       d="M 106.492188 88.222656 L 106.71875 85.550781 L 106.933594 87.375 L 106.492188 88.222656 "
       id="path45" />
    <path
       style="fill:none;stroke-width:0.387;stroke-linecap:round;stroke-linejoin:round;stroke:rgb(0%,0%,0%);stroke-opacity:1;stroke-miterlimit:4;"
       d="M 106.71875 85.550781 L 106.933594 87.375 M 105.894531 82.949219 L 106.71875 85.550781 "
       id="path47" />
    <path
       style=" stroke:none;fill-rule:nonzero;fill:rgb(92.155457%,9.803772%,13.725281%);fill-opacity:1;"
       d="M 106.492188 88.222656 L 93.972656 65.851563 L 95.15625 66.335938 L 106.492188 88.222656 "
       id="path49" />
    <path
       style="fill:none;stroke-width:0.387;stroke-linecap:round;stroke-linejoin:round;stroke:rgb(0%,0%,0%);stroke-opacity:1;stroke-miterlimit:4;"
       d="M 95.15625 66.335938 L 96.796875 67.832031 "
       id="path51" />
    <path
       style="fill:none;stroke-width:1.5;stroke-linecap:round;stroke-linejoin:round;stroke:rgb(92.155457%,9.803772%,13.725281%);stroke-opacity:1;stroke-dasharray:2.5,2.5;stroke-miterlimit:4;"
       d="M 63.363281 12.496094 L 69.929688 58.765625 "
       id="path53" />
    <path
       style=" stroke:none;fill-rule:nonzero;fill:rgb(92.155457%,9.803772%,13.725281%);fill-opacity:1;"
       d="M 106.492188 88.222656 L 93.382813 66.460938 L 93.972656 65.851563 L 106.492188 88.222656 "
       id="path55" />
    <path
       style="fill:none;stroke-width:0.387;stroke-linecap:round;stroke-linejoin:round;stroke:rgb(0%,0%,0%);stroke-opacity:1;stroke-miterlimit:4;"
       d="M 93.972656 65.851563 L 95.15625 66.335938 "
       id="path57" />
    <path
       style="fill:none;stroke-width:1.933;stroke-linecap:round;stroke-linejoin:round;stroke:rgb(0%,0%,0%);stroke-opacity:1;stroke-miterlimit:4;"
       d="M 100.21875 77.011719 L 100.21875 77.011719 "
       id="path59" />
    <path
       style=" stroke:none;fill-rule:nonzero;fill:rgb(92.155457%,9.803772%,13.725281%);fill-opacity:1;"
       d="M 106.492188 88.222656 L 93.457031 68.136719 L 93.382813 66.460938 L 106.492188 88.222656 "
       id="path61" />
    <path
       style="fill:none;stroke-width:0.387;stroke-linecap:round;stroke-linejoin:round;stroke:rgb(0%,0%,0%);stroke-opacity:1;stroke-miterlimit:4;"
       d="M 93.382813 66.460938 L 93.972656 65.851563 "
       id="path63" />
    <path
       style=" stroke:none;fill-rule:nonzero;fill:rgb(92.155457%,9.803772%,13.725281%);fill-opacity:1;"
       d="M 106.492188 88.222656 L 94.21875 70.734375 L 93.457031 68.136719 L 106.492188 88.222656 "
       id="path65" />
    <path
       style="fill:none;stroke-width:0.387;stroke-linecap:round;stroke-linejoin:round;stroke:rgb(0%,0%,0%);stroke-opacity:1;stroke-miterlimit:4;"
       d="M 93.382813 66.460938 L 93.457031 68.136719 "
       id="path67" />
    <path
       style=" stroke:none;fill-rule:nonzero;fill:rgb(92.155457%,9.803772%,13.725281%);fill-opacity:1;"
       d="M 106.492188 88.222656 L 95.597656 74.011719 L 94.21875 70.734375 L 106.492188 88.222656 "
       id="path69" />
    <path
       style="fill:none;stroke-width:0.387;stroke-linecap:round;stroke-linejoin:round;stroke:rgb(0%,0%,0%);stroke-opacity:1;stroke-miterlimit:4;"
       d="M 93.457031 68.136719 L 94.21875 70.734375 "
       id="path71" />
    <path
       style=" stroke:none;fill-rule:nonzero;fill:rgb(92.155457%,9.803772%,13.725281%);fill-opacity:1;"
       d="M 106.492188 88.222656 L 97.457031 77.617188 L 95.597656 74.011719 L 106.492188 88.222656 "
       id="path73" />
    <path
       style="fill:none;stroke-width:0.966;stroke-linecap:round;stroke-linejoin:round;stroke:rgb(0%,0%,0%);stroke-opacity:1;stroke-miterlimit:4;"
       d="M 100.21875 77.011719 L 136.640625 58.101563 "
       id="path75" />
    <path
       style=" stroke:none;fill-rule:nonzero;fill:rgb(0%,0%,0%);fill-opacity:1;"
       d="M 138.207031 56.171875 C 136.566406 56.480469 135.4375 56.5625 134.0625 56.695313 L 136.3125 61.023438 C 136.617188 60.617188 137.929688 59.101563 139.125 57.9375 C 140.402344 56.691406 141.617188 55.664063 142.449219 55.089844 C 141.5 55.441406 139.960938 55.839844 138.207031 56.171875 "
       id="path77" />
    <path
       style="fill:none;stroke-width:0.387;stroke-linecap:round;stroke-linejoin:round;stroke:rgb(0%,0%,0%);stroke-opacity:1;stroke-miterlimit:4;"
       d="M 94.21875 70.734375 L 95.597656 74.011719 "
       id="path79" />
    <path
       style=" stroke:none;fill-rule:nonzero;fill:rgb(92.155457%,9.803772%,13.725281%);fill-opacity:1;"
       d="M 106.492188 88.222656 L 99.597656 81.171875 L 97.457031 77.617188 L 106.492188 88.222656 "
       id="path81" />
    <path
       style="fill-rule:nonzero;fill:rgb(92.155457%,9.803772%,13.725281%);fill-opacity:1;stroke-width:0.387;stroke-linecap:round;stroke-linejoin:round;stroke:rgb(0%,0%,0%);stroke-opacity:1;stroke-miterlimit:4;"
       d="M 95.597656 74.011719 L 97.457031 77.617188 "
       id="path83" />
    <path
       style=" stroke:none;fill-rule:nonzero;fill:rgb(92.155457%,9.803772%,13.725281%);fill-opacity:1;"
       d="M 106.492188 88.222656 L 101.789063 84.28125 L 99.597656 81.171875 L 106.492188 88.222656 "
       id="path85" />
    <path
       style="fill:none;stroke-width:0.387;stroke-linecap:round;stroke-linejoin:round;stroke:rgb(0%,0%,0%);stroke-opacity:1;stroke-miterlimit:4;"
       d="M 97.457031 77.617188 L 99.597656 81.171875 "
       id="path87" />
    <path
       style=" stroke:none;fill-rule:nonzero;fill:rgb(92.155457%,9.803772%,13.725281%);fill-opacity:1;"
       d="M 106.492188 88.222656 L 103.800781 86.628906 L 101.789063 84.28125 L 106.492188 88.222656 "
       id="path89" />
    <path
       style="fill:none;stroke-width:0.387;stroke-linecap:round;stroke-linejoin:round;stroke:rgb(0%,0%,0%);stroke-opacity:1;stroke-miterlimit:4;"
       d="M 99.597656 81.171875 L 101.789063 84.28125 "
       id="path91" />
    <path
       style=" stroke:none;fill-rule:nonzero;fill:rgb(92.155457%,9.803772%,13.725281%);fill-opacity:1;"
       d="M 106.492188 88.222656 L 105.417969 87.976563 L 103.800781 86.628906 L 106.492188 88.222656 "
       id="path93" />
    <path
       style="fill:none;stroke-width:0.387;stroke-linecap:round;stroke-linejoin:round;stroke:rgb(0%,0%,0%);stroke-opacity:1;stroke-miterlimit:4;"
       d="M 106.492188 88.222656 L 105.417969 87.976563 L 103.800781 86.628906 M 106.492188 88.222656 L 106.933594 87.375 M 101.789063 84.28125 L 103.800781 86.628906 "
       id="path95" />
    <g
       clip-path="url(#clip2)"
       clip-rule="nonzero"
       id="g99">
      <path
         style="fill:none;stroke-width:0.25;stroke-linecap:round;stroke-linejoin:round;stroke:rgb(0%,0%,0%);stroke-opacity:1;stroke-miterlimit:4;"
         d="M 122.582031 166.234375 L 161.554688 102.730469 M 122.582031 166.234375 L 127.78125 76.640625 M 172.703125 21.140625 L 127.78125 76.640625 M 172.703125 21.140625 L 161.554688 102.730469 M 33.214844 128.65625 L 18.398438 34.859375 "
         id="path97" />
    </g>
    <path
       style=" stroke:none;fill-rule:nonzero;fill:rgb(0%,0%,0%);fill-opacity:1;"
       d="M 17.863281 34.019531 C 17.773438 34.683594 17.660156 35.121094 17.539063 35.660156 L 19.464844 35.355469 C 19.351563 35.1875 18.941406 34.5 18.648438 33.898438 C 18.339844 33.253906 18.101563 32.664063 17.992188 32.273438 C 18.003906 32.679688 17.960938 33.3125 17.863281 34.019531 "
       id="path101" />
    <g
       clip-path="url(#clip3)"
       clip-rule="nonzero"
       id="g105">
      <path
         style="fill:none;stroke-width:0.25;stroke-linecap:round;stroke-linejoin:round;stroke:rgb(0%,0%,0%);stroke-opacity:1;stroke-miterlimit:4;"
         d="M 33.214844 128.65625 L 122.582031 166.234375 M 127.78125 76.640625 L 122.582031 166.234375 M 127.78125 76.640625 L 19.679688 43.238281 L 127.78125 76.640625 M 19.679688 43.238281 L 80.945313 0.125 M 172.703125 21.140625 L 80.945313 0.125 M 172.703125 21.140625 L 127.78125 76.640625 "
         id="path103" />
    </g>
    <path
       style=" stroke:none;fill-rule:nonzero;fill:rgb(12.940979%,11.764526%,11.764526%);fill-opacity:1;"
       d="M 152.609375 89.316406 C 152.71875 89.285156 152.78125 89.269531 152.90625 89.269531 C 153.421875 89.269531 153.546875 89.660156 153.78125 90.472656 C 153.9375 90.972656 154.3125 92.535156 154.3125 92.878906 C 154.3125 93.128906 153.9375 93.566406 153.703125 93.832031 C 153.40625 94.191406 153.28125 94.269531 153.140625 94.269531 C 152.984375 94.269531 152.859375 94.019531 152.59375 94.019531 C 152.40625 94.019531 152.25 94.175781 152.25 94.363281 C 152.25 94.738281 152.640625 94.769531 152.71875 94.769531 C 153.78125 94.769531 156.296875 90.566406 156.296875 89.503906 C 156.296875 89.175781 156.125 88.941406 155.796875 88.941406 C 155.5625 88.941406 155.453125 89.128906 155.453125 89.253906 C 155.453125 89.675781 155.9375 89.566406 155.9375 89.941406 C 155.9375 90.410156 155.234375 91.628906 154.84375 92.269531 L 154.671875 91.222656 C 154.546875 90.550781 154.015625 88.925781 153.90625 88.941406 C 153.734375 88.941406 153.03125 89.082031 152.609375 89.160156 Z M 152.609375 89.316406 "
       id="path107" />
    <path
       style=" stroke:none;fill-rule:nonzero;fill:rgb(12.940979%,11.764526%,11.764526%);fill-opacity:1;"
       d="M 156.667969 94.410156 L 157.777344 94.410156 L 157.777344 94.347656 C 157.574219 94.347656 157.433594 94.347656 157.433594 94.222656 C 157.433594 94.160156 157.480469 94.003906 157.511719 93.925781 L 158.074219 91.847656 C 158.089844 91.785156 158.121094 91.707031 158.089844 91.707031 C 158.058594 91.707031 157.496094 91.832031 157.308594 91.863281 L 157.308594 91.925781 L 157.542969 91.910156 C 157.574219 91.910156 157.683594 91.910156 157.683594 92.035156 C 157.683594 92.066406 157.667969 92.128906 157.667969 92.175781 L 157.105469 94.144531 C 157.058594 94.316406 156.902344 94.332031 156.667969 94.347656 Z M 156.667969 94.410156 "
       id="path109" />
    <path
       style=" stroke:none;fill-rule:nonzero;fill:rgb(12.940979%,11.764526%,11.764526%);fill-opacity:1;"
       d="M 125.609375 47.066406 C 125.71875 47.035156 125.78125 47.019531 125.90625 47.019531 C 126.421875 47.019531 126.546875 47.410156 126.78125 48.222656 C 126.9375 48.722656 127.3125 50.285156 127.3125 50.628906 C 127.3125 50.878906 126.9375 51.316406 126.703125 51.582031 C 126.40625 51.941406 126.28125 52.019531 126.140625 52.019531 C 125.984375 52.019531 125.859375 51.769531 125.59375 51.769531 C 125.40625 51.769531 125.25 51.925781 125.25 52.113281 C 125.25 52.488281 125.640625 52.519531 125.71875 52.519531 C 126.78125 52.519531 129.296875 48.316406 129.296875 47.253906 C 129.296875 46.925781 129.125 46.691406 128.796875 46.691406 C 128.5625 46.691406 128.453125 46.878906 128.453125 47.003906 C 128.453125 47.425781 128.9375 47.316406 128.9375 47.691406 C 128.9375 48.160156 128.234375 49.378906 127.84375 50.019531 L 127.671875 48.972656 C 127.546875 48.300781 127.015625 46.675781 126.90625 46.691406 C 126.734375 46.691406 126.03125 46.832031 125.609375 46.910156 Z M 125.609375 47.066406 "
       id="path111" />
    <path
       style=" stroke:none;fill-rule:nonzero;fill:rgb(12.940979%,11.764526%,11.764526%);fill-opacity:1;"
       d="M 131.058594 51.597656 C 130.996094 51.753906 130.933594 51.863281 130.667969 51.863281 L 129.902344 51.863281 L 129.902344 51.832031 L 130.683594 51.066406 C 131.167969 50.566406 131.277344 50.394531 131.277344 50.128906 C 131.277344 49.816406 131.042969 49.457031 130.621094 49.457031 C 130.527344 49.457031 129.996094 49.472656 129.777344 50.097656 L 129.871094 50.128906 C 129.917969 50.019531 130.074219 49.753906 130.433594 49.753906 C 130.746094 49.753906 130.933594 49.988281 130.933594 50.238281 C 130.933594 50.363281 130.917969 50.597656 130.355469 51.191406 L 129.511719 52.097656 L 129.511719 52.160156 L 130.933594 52.160156 L 131.136719 51.628906 Z M 131.058594 51.597656 "
       id="path113" />
    <path
       style=" stroke:none;fill-rule:nonzero;fill:rgb(12.940979%,11.764526%,11.764526%);fill-opacity:1;"
       d="M 15.609375 24.816406 C 15.71875 24.785156 15.78125 24.769531 15.90625 24.769531 C 16.421875 24.769531 16.546875 25.160156 16.78125 25.972656 C 16.9375 26.472656 17.3125 28.035156 17.3125 28.378906 C 17.3125 28.628906 16.9375 29.066406 16.703125 29.332031 C 16.40625 29.691406 16.28125 29.769531 16.140625 29.769531 C 15.984375 29.769531 15.859375 29.519531 15.59375 29.519531 C 15.40625 29.519531 15.25 29.675781 15.25 29.863281 C 15.25 30.238281 15.640625 30.269531 15.71875 30.269531 C 16.78125 30.269531 19.296875 26.066406 19.296875 25.003906 C 19.296875 24.675781 19.125 24.441406 18.796875 24.441406 C 18.5625 24.441406 18.453125 24.628906 18.453125 24.753906 C 18.453125 25.175781 18.9375 25.066406 18.9375 25.441406 C 18.9375 25.910156 18.234375 27.128906 17.84375 27.769531 L 17.671875 26.722656 C 17.546875 26.050781 17.015625 24.425781 16.90625 24.441406 C 16.734375 24.441406 16.03125 24.582031 15.609375 24.660156 Z M 15.609375 24.816406 "
       id="path115" />
    <path
       style=" stroke:none;fill-rule:nonzero;fill:rgb(12.940979%,11.764526%,11.764526%);fill-opacity:1;"
       d="M 19.902344 29.285156 C 19.902344 28.894531 20.199219 27.316406 20.792969 27.316406 C 21.136719 27.316406 21.136719 27.722656 21.136719 27.847656 C 21.136719 28.550781 20.792969 29.832031 20.261719 29.832031 C 20.121094 29.832031 19.902344 29.753906 19.902344 29.285156 Z M 21.449219 28.207031 C 21.449219 27.816406 21.339844 27.207031 20.808594 27.207031 C 20.261719 27.207031 19.589844 28.035156 19.589844 29.113281 C 19.589844 29.519531 19.824219 29.941406 20.230469 29.941406 C 20.902344 29.941406 21.449219 29.003906 21.449219 28.207031 Z M 21.449219 28.207031 "
       id="path117" />
    <path
       style=" stroke:none;fill-rule:nonzero;fill:rgb(0%,0%,0%);fill-opacity:1;"
       d="M 128.25 68.925781 C 127.984375 69.285156 127.703125 69.660156 127.5 69.660156 C 127.453125 69.660156 127.359375 69.644531 127.359375 69.503906 C 127.359375 69.113281 127.578125 68.441406 127.71875 67.941406 L 128.46875 65.472656 L 127.296875 65.535156 L 127.125 66.113281 L 127.09375 66.113281 C 127.0625 65.847656 126.9375 65.410156 126.3125 65.410156 C 125.03125 65.410156 123.46875 67.488281 123.46875 69.019531 C 123.46875 69.378906 123.578125 70.394531 124.609375 70.394531 C 125.484375 70.394531 126.015625 69.519531 126.296875 69.050781 L 126.3125 69.050781 C 126.234375 69.347656 126.171875 69.535156 126.171875 69.707031 C 126.171875 70.253906 126.6875 70.394531 126.875 70.394531 C 127.515625 70.394531 128.125 69.628906 128.46875 69.082031 Z M 125.21875 69.644531 C 125.078125 69.644531 124.765625 69.535156 124.765625 69.050781 C 124.765625 68.363281 125.59375 65.847656 126.484375 65.847656 C 126.578125 65.847656 126.875 65.910156 126.875 66.363281 C 126.875 67.128906 126.140625 69.644531 125.21875 69.644531 Z M 125.21875 69.644531 "
       id="path119" />
    <path
       style="fill:none;stroke-width:0.5;stroke-linecap:round;stroke-linejoin:round;stroke:rgb(0%,0%,0%);stroke-opacity:1;stroke-miterlimit:4;"
       d="M 100.75 77.003906 L 147.25 89.71875 "
       id="path121" />
    <path
       style=" stroke:none;fill-rule:nonzero;fill:rgb(0%,0%,0%);fill-opacity:1;"
       d="M 148.523438 89.539063 C 147.792969 89.078125 147.335938 88.714844 146.765625 88.28125 L 146.101563 90.714844 C 146.359375 90.671875 147.390625 90.554688 148.253906 90.53125 C 149.175781 90.507813 149.996094 90.542969 150.515625 90.617188 C 150.03125 90.417969 149.304688 90.027344 148.523438 89.539063 "
       id="path123" />
    <path
       style="fill:none;stroke-width:0.5;stroke-linecap:butt;stroke-linejoin:miter;stroke:rgb(0%,0%,0%);stroke-opacity:1;stroke-miterlimit:4;"
       d="M 100.78125 76.28125 L 121.40625 54.8125 "
       id="path125" />
    <path
       style=" stroke:none;fill-rule:nonzero;fill:rgb(0%,0%,0%);fill-opacity:1;"
       d="M 121.855469 53.605469 C 121.101563 54.03125 120.5625 54.257813 119.910156 54.554688 L 121.730469 56.300781 C 121.8125 56.050781 122.203125 55.089844 122.597656 54.320313 C 123.015625 53.5 123.441406 52.792969 123.753906 52.375 C 123.347656 52.703125 122.660156 53.152344 121.855469 53.605469 "
       id="path127" />
    <path
       style=" stroke:none;fill-rule:nonzero;fill:rgb(12.940979%,11.764526%,11.764526%);fill-opacity:1;"
       d="M 0.359375 41.066406 C 0.46875 41.035156 0.53125 41.019531 0.65625 41.019531 C 1.171875 41.019531 1.296875 41.410156 1.53125 42.222656 C 1.6875 42.722656 2.0625 44.285156 2.0625 44.628906 C 2.0625 44.878906 1.6875 45.316406 1.453125 45.582031 C 1.15625 45.941406 1.03125 46.019531 0.890625 46.019531 C 0.734375 46.019531 0.609375 45.769531 0.34375 45.769531 C 0.15625 45.769531 0 45.925781 0 46.113281 C 0 46.488281 0.390625 46.519531 0.46875 46.519531 C 1.53125 46.519531 4.046875 42.316406 4.046875 41.253906 C 4.046875 40.925781 3.875 40.691406 3.546875 40.691406 C 3.3125 40.691406 3.203125 40.878906 3.203125 41.003906 C 3.203125 41.425781 3.6875 41.316406 3.6875 41.691406 C 3.6875 42.160156 2.984375 43.378906 2.59375 44.019531 L 2.421875 42.972656 C 2.296875 42.300781 1.765625 40.675781 1.65625 40.691406 C 1.484375 40.691406 0.78125 40.832031 0.359375 40.910156 Z M 0.359375 41.066406 "
       id="path129" />
    <path
       style=" stroke:none;fill-rule:nonzero;fill:rgb(12.940979%,11.764526%,11.764526%);fill-opacity:1;"
       d="M 4.652344 45.535156 C 4.652344 45.144531 4.949219 43.566406 5.542969 43.566406 C 5.886719 43.566406 5.886719 43.972656 5.886719 44.097656 C 5.886719 44.800781 5.542969 46.082031 5.011719 46.082031 C 4.871094 46.082031 4.652344 46.003906 4.652344 45.535156 Z M 6.199219 44.457031 C 6.199219 44.066406 6.089844 43.457031 5.558594 43.457031 C 5.011719 43.457031 4.339844 44.285156 4.339844 45.363281 C 4.339844 45.769531 4.574219 46.191406 4.980469 46.191406 C 5.652344 46.191406 6.199219 45.253906 6.199219 44.457031 Z M 6.199219 44.457031 "
       id="path131" />
    <path
       style=" stroke:none;fill-rule:nonzero;fill:rgb(12.940979%,11.764526%,11.764526%);fill-opacity:1;"
       d="M 11.527344 41.191406 L 6.996094 41.191406 L 6.996094 41.785156 L 11.527344 41.785156 Z M 11.527344 42.988281 L 6.996094 42.988281 L 6.996094 43.582031 L 11.527344 43.582031 Z M 11.527344 42.988281 "
       id="path133" />
    <path
       style=" stroke:none;fill-rule:nonzero;fill:rgb(12.940979%,11.764526%,11.764526%);fill-opacity:1;"
       d="M 12.726563 44.660156 L 15.242188 44.660156 L 15.242188 44.519531 C 14.789063 44.535156 14.460938 44.503906 14.460938 44.222656 C 14.460938 44.082031 14.585938 43.753906 14.632813 43.566406 L 15.914063 38.894531 C 15.960938 38.753906 16.007813 38.582031 15.929688 38.582031 C 15.867188 38.582031 14.617188 38.847656 14.195313 38.925781 L 14.195313 39.050781 L 14.695313 39.035156 C 14.789063 39.035156 15.039063 39.035156 15.039063 39.316406 C 15.039063 39.394531 15.007813 39.519531 14.976563 39.613281 L 13.742188 44.050781 C 13.617188 44.457031 13.257813 44.472656 12.726563 44.535156 Z M 12.726563 44.660156 "
       id="path135" />
    <path
       style=" stroke:none;fill-rule:nonzero;fill:rgb(86.273193%,14.901733%,13.725281%);fill-opacity:1;"
       d="M 72.015625 20.019531 C 73.8125 20.019531 74.21875 20.472656 74.21875 21.019531 C 74.21875 21.535156 73.859375 22.628906 72.265625 22.691406 C 71.796875 22.722656 71.484375 23.050781 71.484375 23.144531 C 71.484375 23.191406 71.515625 23.191406 71.53125 23.191406 C 71.828125 23.238281 72.03125 23.269531 72.609375 24.519531 C 73.046875 25.472656 73.296875 25.863281 73.8125 25.863281 C 74.921875 25.863281 76 24.753906 76 24.550781 C 76 24.488281 75.9375 24.488281 75.890625 24.488281 C 75.734375 24.488281 75.390625 24.660156 75.25 24.863281 C 75.078125 25.097656 74.875 25.347656 74.421875 25.347656 C 73.984375 25.347656 73.671875 24.722656 73.375 24.066406 C 73.09375 23.457031 72.96875 23.222656 72.765625 23.003906 C 74.21875 22.457031 75 21.503906 75 20.644531 C 75 19.519531 73.5 19.519531 72.046875 19.519531 C 71.046875 19.519531 70.453125 19.519531 69.59375 19.941406 C 68.484375 20.503906 68.40625 21.191406 68.40625 21.191406 C 68.40625 21.222656 68.421875 21.269531 68.5 21.269531 C 68.65625 21.269531 69.109375 21.050781 69.1875 20.816406 C 69.3125 20.472656 69.4375 20.066406 70.765625 20.019531 C 70.671875 21.066406 70.5 22.925781 69.375 25.628906 C 69.3125 25.769531 69.3125 25.785156 69.3125 25.800781 C 69.3125 25.847656 69.375 25.863281 69.40625 25.863281 C 69.59375 25.863281 69.953125 25.644531 70.078125 25.472656 C 70.078125 25.457031 70.265625 25.035156 70.546875 24.253906 C 71 23.003906 71.359375 21.550781 71.515625 20.019531 Z M 72.015625 20.019531 "
       id="path137" />
    <path
       style=" stroke:none;fill-rule:nonzero;fill:rgb(86.273193%,14.901733%,13.725281%);fill-opacity:1;"
       d="M 76.332031 27.160156 L 77.722656 27.160156 L 77.722656 27.082031 C 77.472656 27.097656 77.285156 27.082031 77.285156 26.925781 C 77.285156 26.847656 77.363281 26.660156 77.378906 26.550781 L 78.097656 23.957031 C 78.128906 23.878906 78.144531 23.785156 78.113281 23.785156 C 78.066406 23.785156 77.378906 23.925781 77.144531 23.972656 L 77.144531 24.050781 L 77.425781 24.035156 C 77.472656 24.035156 77.613281 24.035156 77.613281 24.191406 C 77.613281 24.238281 77.597656 24.300781 77.582031 24.363281 L 76.894531 26.816406 C 76.816406 27.050781 76.628906 27.066406 76.332031 27.097656 Z M 76.332031 27.160156 "
       id="path139" />
    <path
       style=" stroke:none;fill-rule:nonzero;fill:rgb(12.940979%,11.764526%,11.764526%);fill-opacity:1;"
       d="M 55.515625 23.269531 C 57.3125 23.269531 57.71875 23.722656 57.71875 24.269531 C 57.71875 24.785156 57.359375 25.878906 55.765625 25.941406 C 55.296875 25.972656 54.984375 26.300781 54.984375 26.394531 C 54.984375 26.441406 55.015625 26.441406 55.03125 26.441406 C 55.328125 26.488281 55.53125 26.519531 56.109375 27.769531 C 56.546875 28.722656 56.796875 29.113281 57.3125 29.113281 C 58.421875 29.113281 59.5 28.003906 59.5 27.800781 C 59.5 27.738281 59.4375 27.738281 59.390625 27.738281 C 59.234375 27.738281 58.890625 27.910156 58.75 28.113281 C 58.578125 28.347656 58.375 28.597656 57.921875 28.597656 C 57.484375 28.597656 57.171875 27.972656 56.875 27.316406 C 56.59375 26.707031 56.46875 26.472656 56.265625 26.253906 C 57.71875 25.707031 58.5 24.753906 58.5 23.894531 C 58.5 22.769531 57 22.769531 55.546875 22.769531 C 54.546875 22.769531 53.953125 22.769531 53.09375 23.191406 C 51.984375 23.753906 51.90625 24.441406 51.90625 24.441406 C 51.90625 24.472656 51.921875 24.519531 52 24.519531 C 52.15625 24.519531 52.609375 24.300781 52.6875 24.066406 C 52.8125 23.722656 52.9375 23.316406 54.265625 23.269531 C 54.171875 24.316406 54 26.175781 52.875 28.878906 C 52.8125 29.019531 52.8125 29.035156 52.8125 29.050781 C 52.8125 29.097656 52.875 29.113281 52.90625 29.113281 C 53.09375 29.113281 53.453125 28.894531 53.578125 28.722656 C 53.578125 28.707031 53.765625 28.285156 54.046875 27.503906 C 54.5 26.253906 54.859375 24.800781 55.015625 23.269531 Z M 55.515625 23.269531 "
       id="path141" />
    <path
       style=" stroke:none;fill-rule:nonzero;fill:rgb(12.940979%,11.764526%,11.764526%);fill-opacity:1;"
       d="M 61.785156 29.644531 C 61.691406 29.847656 61.597656 29.988281 61.238281 29.988281 L 60.191406 29.988281 L 60.191406 29.957031 L 61.253906 28.910156 C 61.925781 28.222656 62.066406 27.972656 62.066406 27.613281 C 62.066406 27.191406 61.753906 26.691406 61.175781 26.691406 C 61.035156 26.691406 60.316406 26.707031 60.019531 27.566406 L 60.144531 27.613281 C 60.207031 27.472656 60.425781 27.097656 60.925781 27.097656 C 61.347656 27.097656 61.597656 27.425781 61.597656 27.769531 C 61.597656 27.941406 61.566406 28.269531 60.800781 29.082031 L 59.644531 30.316406 L 59.644531 30.410156 L 61.597656 30.410156 L 61.878906 29.691406 Z M 61.785156 29.644531 "
       id="path143" />
    <path
       style=" stroke:none;fill-rule:nonzero;fill:rgb(12.940979%,11.764526%,11.764526%);fill-opacity:1;"
       d="M 6.109375 87.816406 C 6.21875 87.785156 6.28125 87.769531 6.40625 87.769531 C 6.921875 87.769531 7.046875 88.160156 7.28125 88.972656 C 7.4375 89.472656 7.8125 91.035156 7.8125 91.378906 C 7.8125 91.628906 7.4375 92.066406 7.203125 92.332031 C 6.90625 92.691406 6.78125 92.769531 6.640625 92.769531 C 6.484375 92.769531 6.359375 92.519531 6.09375 92.519531 C 5.90625 92.519531 5.75 92.675781 5.75 92.863281 C 5.75 93.238281 6.140625 93.269531 6.21875 93.269531 C 7.28125 93.269531 9.796875 89.066406 9.796875 88.003906 C 9.796875 87.675781 9.625 87.441406 9.296875 87.441406 C 9.0625 87.441406 8.953125 87.628906 8.953125 87.753906 C 8.953125 88.175781 9.4375 88.066406 9.4375 88.441406 C 9.4375 88.910156 8.734375 90.128906 8.34375 90.769531 L 8.171875 89.722656 C 8.046875 89.050781 7.515625 87.425781 7.40625 87.441406 C 7.234375 87.441406 6.53125 87.582031 6.109375 87.660156 Z M 6.109375 87.816406 "
       id="path145" />
    <path
       style=" stroke:none;fill-rule:nonzero;fill:rgb(12.940979%,11.764526%,11.764526%);fill-opacity:1;"
       d="M 10.402344 92.285156 C 10.402344 91.894531 10.699219 90.316406 11.292969 90.316406 C 11.636719 90.316406 11.636719 90.722656 11.636719 90.847656 C 11.636719 91.550781 11.292969 92.832031 10.761719 92.832031 C 10.621094 92.832031 10.402344 92.753906 10.402344 92.285156 Z M 11.949219 91.207031 C 11.949219 90.816406 11.839844 90.207031 11.308594 90.207031 C 10.761719 90.207031 10.089844 91.035156 10.089844 92.113281 C 10.089844 92.519531 10.324219 92.941406 10.730469 92.941406 C 11.402344 92.941406 11.949219 92.003906 11.949219 91.207031 Z M 11.949219 91.207031 "
       id="path147" />
    <path
       style=" stroke:none;fill-rule:nonzero;fill:rgb(12.940979%,11.764526%,11.764526%);fill-opacity:1;"
       d="M 17.277344 87.941406 L 12.746094 87.941406 L 12.746094 88.535156 L 17.277344 88.535156 Z M 17.277344 89.738281 L 12.746094 89.738281 L 12.746094 90.332031 L 17.277344 90.332031 Z M 17.277344 89.738281 "
       id="path149" />
    <path
       style=" stroke:none;fill-rule:nonzero;fill:rgb(12.940979%,11.764526%,11.764526%);fill-opacity:1;"
       d="M 19.039063 90.003906 C 19.039063 89.128906 19.679688 85.582031 21.023438 85.582031 C 21.804688 85.582031 21.804688 86.503906 21.804688 86.769531 C 21.804688 88.347656 21.023438 91.222656 19.820313 91.222656 C 19.539063 91.222656 19.039063 91.050781 19.039063 90.003906 Z M 22.507813 87.582031 C 22.507813 86.691406 22.273438 85.332031 21.070313 85.332031 C 19.820313 85.332031 18.320313 87.175781 18.320313 89.613281 C 18.320313 90.550781 18.835938 91.472656 19.773438 91.472656 C 21.289063 91.472656 22.507813 89.363281 22.507813 87.582031 Z M 22.507813 87.582031 "
       id="path151" />
    <path
       style="fill:none;stroke-width:0.387;stroke-linecap:round;stroke-linejoin:round;stroke:rgb(0%,0%,0%);stroke-opacity:1;stroke-miterlimit:4;"
       d="M 27.46875 89.65625 L 30.21875 90.90625 "
       id="path153" />
    <path
       style=" stroke:none;fill-rule:nonzero;fill:rgb(12.940979%,11.764526%,11.764526%);fill-opacity:1;"
       d="M 66.148438 162.515625 C 66.179688 162.40625 66.195313 162.34375 66.257813 162.234375 C 66.507813 161.78125 66.914063 161.875 67.726563 162.0625 C 68.242188 162.171875 69.789063 162.609375 70.085938 162.78125 C 70.304688 162.90625 70.507813 163.453125 70.617188 163.78125 C 70.789063 164.21875 70.804688 164.375 70.726563 164.5 C 70.648438 164.625 70.367188 164.609375 70.242188 164.84375 C 70.148438 165 70.210938 165.21875 70.367188 165.3125 C 70.695313 165.5 70.914063 165.171875 70.960938 165.109375 C 71.476563 164.1875 69.054688 159.921875 68.132813 159.40625 C 67.851563 159.234375 67.554688 159.265625 67.398438 159.5625 C 67.273438 159.765625 67.382813 159.953125 67.492188 160.015625 C 67.867188 160.21875 68.007813 159.75 68.335938 159.921875 C 68.742188 160.15625 69.460938 161.375 69.820313 162.03125 L 68.820313 161.65625 C 68.179688 161.4375 66.507813 161.109375 66.460938 161.203125 C 66.382813 161.34375 66.164063 162.03125 66.007813 162.4375 Z M 66.148438 162.515625 "
       id="path155" />
    <path
       style=" stroke:none;fill-rule:nonzero;fill:rgb(12.940979%,11.764526%,11.764526%);fill-opacity:1;"
       d="M 72.574219 161.496094 L 73.121094 160.527344 L 73.074219 160.496094 C 72.980469 160.667969 72.917969 160.792969 72.808594 160.730469 C 72.746094 160.699219 72.621094 160.574219 72.574219 160.527344 L 71.042969 158.996094 C 70.996094 158.949219 70.933594 158.902344 70.917969 158.917969 C 70.902344 158.949219 70.730469 159.511719 70.683594 159.683594 L 70.746094 159.714844 L 70.839844 159.496094 C 70.855469 159.464844 70.902344 159.371094 71.011719 159.433594 C 71.027344 159.449219 71.089844 159.496094 71.136719 159.527344 L 72.558594 160.980469 C 72.699219 161.105469 72.636719 161.261719 72.527344 161.464844 Z M 72.574219 161.496094 "
       id="path157" />
    <path
       style=" stroke:none;fill-rule:nonzero;fill:rgb(12.940979%,11.764526%,11.764526%);fill-opacity:1;"
       d="M 71.753906 152.859375 L 69.535156 156.796875 L 70.050781 157.078125 L 72.269531 153.140625 Z M 73.316406 153.734375 L 71.097656 157.671875 L 71.613281 157.96875 L 73.832031 154.03125 Z M 73.316406 153.734375 "
       id="path159" />
    <path
       style=" stroke:none;fill-rule:nonzero;fill:rgb(12.940979%,11.764526%,11.764526%);fill-opacity:1;"
       d="M 74.414063 152.335938 C 73.648438 151.898438 70.882813 149.601563 71.539063 148.429688 C 71.929688 147.742188 72.742188 148.195313 72.960938 148.335938 C 74.335938 149.117188 76.460938 151.210938 75.867188 152.257813 C 75.726563 152.492188 75.320313 152.851563 74.414063 152.335938 Z M 74.023438 148.117188 C 73.242188 147.679688 71.929688 147.226563 71.335938 148.273438 C 70.726563 149.367188 71.601563 151.570313 73.726563 152.757813 C 74.539063 153.226563 75.585938 153.242188 76.054688 152.414063 C 76.789063 151.101563 75.570313 149.007813 74.023438 148.117188 Z M 74.023438 148.117188 "
       id="path161" />
    <path
       style=" stroke:none;fill-rule:nonzero;fill:rgb(12.940979%,11.764526%,11.764526%);fill-opacity:1;"
       d="M 148.015625 130.675781 C 148.140625 130.675781 148.203125 130.691406 148.328125 130.738281 C 148.796875 130.941406 148.75 131.347656 148.640625 132.191406 C 148.578125 132.707031 148.3125 134.300781 148.171875 134.613281 C 148.0625 134.847656 147.546875 135.097656 147.234375 135.238281 C 146.8125 135.457031 146.671875 135.488281 146.53125 135.425781 C 146.390625 135.363281 146.390625 135.082031 146.140625 134.972656 C 145.96875 134.894531 145.765625 134.972656 145.6875 135.144531 C 145.53125 135.488281 145.890625 135.675781 145.96875 135.707031 C 146.9375 136.128906 150.921875 133.269531 151.34375 132.300781 C 151.46875 132.003906 151.40625 131.722656 151.09375 131.597656 C 150.890625 131.503906 150.703125 131.628906 150.65625 131.738281 C 150.484375 132.128906 150.984375 132.222656 150.84375 132.566406 C 150.65625 132.988281 149.515625 133.832031 148.890625 134.253906 L 149.15625 133.238281 C 149.3125 132.566406 149.46875 130.863281 149.359375 130.847656 C 149.203125 130.769531 148.5 130.613281 148.078125 130.535156 Z M 148.015625 130.675781 "
       id="path163" />
    <path
       style=" stroke:none;fill-rule:nonzero;fill:rgb(12.940979%,11.764526%,11.764526%);fill-opacity:1;"
       d="M 151.226563 137 C 151.101563 137.109375 151.007813 137.1875 150.773438 137.09375 L 150.070313 136.78125 L 150.070313 136.75 L 151.101563 136.359375 C 151.742188 136.078125 151.898438 135.96875 152.007813 135.734375 C 152.132813 135.4375 152.070313 135.015625 151.679688 134.84375 C 151.585938 134.8125 151.085938 134.625 150.632813 135.109375 L 150.726563 135.171875 C 150.804688 135.09375 151.054688 134.921875 151.382813 135.0625 C 151.664063 135.1875 151.742188 135.453125 151.648438 135.6875 C 151.601563 135.796875 151.492188 136.015625 150.742188 136.34375 L 149.617188 136.828125 L 149.585938 136.890625 L 150.882813 137.453125 L 151.289063 137.0625 Z M 151.226563 137 "
       id="path165" />
    <path
       style=" stroke:none;fill-rule:nonzero;fill:rgb(12.940979%,11.764526%,11.764526%);fill-opacity:1;"
       d="M 158.222656 135.214844 L 154.066406 133.417969 L 153.832031 133.964844 L 157.988281 135.761719 Z M 157.519531 136.871094 L 153.363281 135.074219 L 153.113281 135.621094 L 157.269531 137.417969 Z M 157.519531 136.871094 "
       id="path167" />
    <path
       style=" stroke:none;fill-rule:nonzero;fill:rgb(12.940979%,11.764526%,11.764526%);fill-opacity:1;"
       d="M 159.03125 137.800781 C 159.375 137.003906 161.359375 134.019531 162.59375 134.550781 C 163.3125 134.863281 162.953125 135.707031 162.84375 135.941406 C 162.21875 137.394531 160.359375 139.722656 159.265625 139.238281 C 159 139.128906 158.609375 138.769531 159.03125 137.800781 Z M 163.15625 136.972656 C 163.515625 136.160156 163.859375 134.816406 162.75 134.332031 C 161.609375 133.832031 159.5 134.925781 158.53125 137.160156 C 158.15625 138.035156 158.25 139.082031 159.109375 139.457031 C 160.5 140.066406 162.453125 138.613281 163.15625 136.972656 Z M 163.15625 136.972656 "
       id="path169" />
    <path
       style="fill:none;stroke-width:0.387;stroke-linecap:round;stroke-linejoin:round;stroke:rgb(0%,0%,0%);stroke-opacity:1;stroke-miterlimit:4;"
       d="M 141.125 129.1875 L 143.875 130.4375 M 76.847656 146.421875 L 78.585938 143.949219 "
       id="path171" />
    <path
       style=" stroke:none;fill-rule:nonzero;fill:rgb(12.940979%,11.764526%,11.764526%);fill-opacity:1;"
       d="M 68.328125 32.847656 C 68.265625 32.488281 68.609375 32.441406 68.71875 32.425781 C 69.25 32.347656 70.609375 32.738281 70.703125 33.410156 C 70.75 33.691406 70.5 33.722656 70.359375 33.753906 C 69.609375 33.847656 68.40625 33.410156 68.328125 32.847656 Z M 69.015625 34.566406 C 68.6875 34.363281 68.53125 34.269531 68.515625 34.144531 C 68.5 34.082031 68.546875 34.035156 68.640625 34.019531 C 68.734375 34.003906 71.359375 34.378906 72.4375 34.488281 L 72.453125 34.441406 C 72.359375 34.160156 72.265625 33.847656 72.1875 33.566406 L 72.09375 33.582031 C 72.140625 33.894531 72.125 33.957031 71.984375 33.972656 C 71.890625 33.988281 71.734375 33.957031 71.5625 33.941406 L 70.59375 33.816406 L 70.5625 33.800781 C 70.703125 33.769531 70.875 33.691406 70.828125 33.363281 C 70.734375 32.644531 69.515625 31.785156 68.625 31.910156 C 68.3125 31.957031 67.9375 32.144531 68 32.644531 C 68.046875 32.925781 68.1875 33.238281 68.921875 33.582031 L 68.90625 33.597656 C 68.671875 33.582031 68.546875 33.566406 68.40625 33.582031 C 68.28125 33.597656 68.125 33.675781 68.15625 33.910156 C 68.1875 34.113281 68.53125 34.441406 68.96875 34.644531 Z M 69.015625 34.566406 "
       id="path173" />
    <path
       style=" stroke:none;fill-rule:nonzero;fill:rgb(12.940979%,11.764526%,11.764526%);fill-opacity:1;"
       d="M 70.003906 35.570313 C 70.566406 35.726563 71.082031 36.070313 71.113281 36.382813 C 71.144531 36.539063 71.035156 36.617188 70.910156 36.632813 C 70.863281 36.648438 70.144531 36.710938 69.722656 35.523438 Z M 69.332031 36.914063 C 69.035156 36.648438 68.800781 36.429688 68.753906 36.101563 C 68.722656 35.851563 68.816406 35.539063 69.222656 35.476563 C 69.332031 35.460938 69.441406 35.476563 69.582031 35.492188 L 69.628906 35.648438 C 69.910156 36.601563 70.472656 37.101563 70.941406 37.023438 C 71.207031 36.992188 71.300781 36.789063 71.253906 36.492188 C 71.144531 35.648438 70.035156 34.851563 69.191406 34.960938 C 68.816406 35.007813 68.363281 35.273438 68.457031 35.898438 C 68.535156 36.492188 69.160156 36.960938 69.253906 37.007813 Z M 69.332031 36.914063 "
       id="path175" />
    <path
       style=" stroke:none;fill-rule:nonzero;fill:rgb(12.940979%,11.764526%,11.764526%);fill-opacity:1;"
       d="M 69.664063 39.503906 C 69.398438 39.347656 69.117188 39.097656 69.070313 38.722656 C 69.023438 38.363281 69.257813 38.160156 69.695313 38.097656 C 70.273438 38.019531 71.382813 38.269531 71.492188 39.050781 C 71.492188 39.160156 71.507813 39.285156 71.429688 39.300781 C 71.320313 39.316406 71.273438 39.222656 71.117188 39.253906 C 70.976563 39.269531 70.914063 39.363281 70.929688 39.503906 C 70.945313 39.660156 71.054688 39.769531 71.226563 39.738281 C 71.414063 39.722656 71.679688 39.550781 71.617188 39.035156 C 71.492188 38.160156 70.492188 37.472656 69.632813 37.582031 C 68.851563 37.691406 68.773438 38.207031 68.820313 38.582031 C 68.914063 39.222656 69.414063 39.503906 69.617188 39.628906 Z M 69.664063 39.503906 "
       id="path177" />
    <path
       style=" stroke:none;fill-rule:nonzero;fill:rgb(12.940979%,11.764526%,11.764526%);fill-opacity:1;"
       d="M 69.980469 41.378906 C 69.605469 41.191406 69.449219 41.019531 69.433594 40.957031 C 69.433594 40.910156 69.480469 40.878906 69.527344 40.863281 C 69.589844 40.863281 69.839844 40.894531 69.917969 40.894531 L 71.902344 41.160156 L 71.902344 41.128906 C 71.839844 40.894531 71.667969 40.441406 71.636719 40.207031 L 71.542969 40.222656 C 71.589844 40.550781 71.574219 40.597656 71.449219 40.613281 C 71.277344 40.644531 69.746094 40.378906 69.464844 40.410156 C 69.355469 40.425781 69.089844 40.472656 69.121094 40.753906 C 69.167969 41.066406 69.527344 41.285156 69.917969 41.472656 Z M 72.886719 41.238281 C 73.011719 41.222656 73.199219 41.097656 73.167969 40.894531 C 73.152344 40.753906 73.027344 40.628906 72.808594 40.660156 C 72.605469 40.675781 72.511719 40.832031 72.527344 40.988281 C 72.558594 41.175781 72.761719 41.253906 72.886719 41.238281 Z M 72.886719 41.238281 "
       id="path179" />
    <path
       style=" stroke:none;fill-rule:nonzero;fill:rgb(12.940979%,11.764526%,11.764526%);fill-opacity:1;"
       d="M 70.222656 41.90625 L 69.269531 41.921875 L 69.285156 42.015625 C 69.347656 42.046875 69.410156 42.0625 69.425781 42.15625 C 69.457031 42.328125 69.378906 42.578125 69.394531 42.75 C 69.441406 43.078125 69.660156 43.609375 70.316406 43.53125 C 70.816406 43.453125 71.253906 42.640625 71.628906 42.59375 C 71.925781 42.5625 71.988281 42.734375 72.003906 42.875 C 72.066406 43.265625 71.738281 43.453125 71.394531 43.53125 L 71.410156 43.625 L 72.253906 43.640625 L 72.238281 43.546875 C 72.191406 43.515625 72.128906 43.5 72.113281 43.390625 C 72.082031 43.21875 72.160156 43.078125 72.128906 42.8125 C 72.035156 42.1875 71.582031 42.171875 71.394531 42.203125 C 70.925781 42.265625 70.441406 43.046875 70.066406 43.09375 C 69.863281 43.125 69.566406 43.046875 69.519531 42.71875 C 69.457031 42.25 69.988281 42.09375 70.238281 42 Z M 70.222656 41.90625 "
       id="path181" />
    <path
       style=" stroke:none;fill-rule:nonzero;fill:rgb(12.940979%,11.764526%,11.764526%);fill-opacity:1;"
       d="M 70.527344 45.34375 C 70.152344 45.15625 69.996094 44.984375 69.980469 44.921875 C 69.980469 44.875 70.027344 44.84375 70.074219 44.828125 C 70.136719 44.828125 70.386719 44.859375 70.464844 44.859375 L 72.449219 45.125 L 72.449219 45.09375 C 72.386719 44.859375 72.214844 44.40625 72.183594 44.171875 L 72.089844 44.1875 C 72.136719 44.515625 72.121094 44.5625 71.996094 44.578125 C 71.824219 44.609375 70.292969 44.34375 70.011719 44.375 C 69.902344 44.390625 69.636719 44.4375 69.667969 44.71875 C 69.714844 45.03125 70.074219 45.25 70.464844 45.4375 Z M 73.433594 45.203125 C 73.558594 45.1875 73.746094 45.0625 73.714844 44.859375 C 73.699219 44.71875 73.574219 44.59375 73.355469 44.625 C 73.152344 44.640625 73.058594 44.796875 73.074219 44.953125 C 73.105469 45.140625 73.308594 45.21875 73.433594 45.203125 Z M 73.433594 45.203125 "
       id="path183" />
    <path
       style=" stroke:none;fill-rule:nonzero;fill:rgb(12.940979%,11.764526%,11.764526%);fill-opacity:1;"
       d="M 72.753906 47.324219 C 72.628906 46.449219 71.566406 45.699219 70.691406 45.824219 C 70.191406 45.886719 69.878906 46.230469 69.957031 46.839844 C 70.082031 47.761719 71.269531 48.417969 72.019531 48.324219 C 72.410156 48.261719 72.847656 48.011719 72.753906 47.324219 Z M 72.628906 47.308594 C 72.660156 47.589844 72.425781 47.746094 72.113281 47.792969 C 71.472656 47.886719 70.191406 47.574219 70.097656 46.886719 C 70.050781 46.589844 70.253906 46.417969 70.597656 46.371094 C 71.285156 46.261719 72.535156 46.636719 72.628906 47.308594 Z M 72.628906 47.308594 "
       id="path185" />
    <path
       style=" stroke:none;fill-rule:nonzero;fill:rgb(12.940979%,11.764526%,11.764526%);fill-opacity:1;"
       d="M 71.367188 51.390625 C 71.054688 51.1875 70.851563 51.09375 70.835938 50.96875 C 70.835938 50.953125 70.820313 50.875 70.914063 50.859375 C 71.101563 50.828125 72.617188 51.109375 72.882813 51.0625 C 73.132813 51.03125 73.242188 50.875 73.210938 50.609375 C 73.132813 50.109375 72.242188 49.671875 71.773438 49.453125 L 71.773438 49.4375 L 73.070313 49.65625 L 73.070313 49.640625 C 72.960938 49.3125 72.851563 49.015625 72.757813 48.703125 L 72.664063 48.703125 C 72.710938 49.03125 72.664063 49.109375 72.570313 49.125 C 72.445313 49.140625 70.992188 48.921875 70.304688 48.828125 L 70.367188 49.28125 C 71.210938 49.421875 71.476563 49.453125 71.914063 49.671875 C 72.289063 49.828125 72.851563 50.15625 72.898438 50.4375 C 72.914063 50.546875 72.820313 50.59375 72.710938 50.609375 C 72.476563 50.640625 70.960938 50.390625 70.820313 50.40625 C 70.648438 50.4375 70.476563 50.46875 70.523438 50.75 C 70.554688 51.0625 70.851563 51.234375 71.304688 51.484375 Z M 71.367188 51.390625 "
       id="path187" />
    <path
       style=" stroke:none;fill-rule:nonzero;fill:rgb(12.940979%,11.764526%,11.764526%);fill-opacity:1;"
       d="M 63.175781 34.925781 C 62.675781 34.988281 61.347656 34.597656 61.238281 33.769531 C 61.207031 33.503906 61.363281 33.488281 61.394531 33.488281 C 62.019531 33.394531 63.550781 33.753906 63.644531 34.410156 C 63.691406 34.785156 63.363281 34.894531 63.175781 34.925781 Z M 64.957031 32.988281 C 65.003906 33.332031 64.972656 33.378906 64.832031 33.394531 C 64.738281 33.410156 64.597656 33.378906 64.410156 33.347656 L 61.332031 32.972656 L 61.300781 32.972656 C 61.175781 32.988281 61.050781 33.472656 61.097656 33.785156 C 61.222656 34.707031 62.378906 35.550781 63.332031 35.410156 C 63.769531 35.347656 63.988281 35.019531 63.941406 34.613281 C 63.863281 34.066406 63.285156 33.769531 62.941406 33.613281 L 62.941406 33.597656 C 63.644531 33.722656 64.785156 33.832031 65.285156 33.910156 L 65.316406 33.863281 C 65.207031 33.566406 65.128906 33.253906 65.050781 32.972656 Z M 64.957031 32.988281 "
       id="path189" />
    <path
       style=" stroke:none;fill-rule:nonzero;fill:rgb(12.940979%,11.764526%,11.764526%);fill-opacity:1;"
       d="M 64.316406 37.382813 C 64.191406 36.507813 63.128906 35.757813 62.253906 35.882813 C 61.753906 35.945313 61.441406 36.289063 61.519531 36.898438 C 61.644531 37.820313 62.832031 38.476563 63.582031 38.382813 C 63.972656 38.320313 64.410156 38.070313 64.316406 37.382813 Z M 64.191406 37.367188 C 64.222656 37.648438 63.988281 37.804688 63.675781 37.851563 C 63.035156 37.945313 61.753906 37.632813 61.660156 36.945313 C 61.613281 36.648438 61.816406 36.476563 62.160156 36.429688 C 62.847656 36.320313 64.097656 36.695313 64.191406 37.367188 Z M 64.191406 37.367188 "
       id="path191" />
    <path
       style=" stroke:none;fill-rule:nonzero;fill:rgb(12.940979%,11.764526%,11.764526%);fill-opacity:1;"
       d="M 62.929688 41.449219 C 62.632813 41.277344 62.414063 41.152344 62.398438 41.042969 C 62.382813 40.964844 62.445313 40.949219 62.476563 40.949219 C 62.554688 40.933594 62.835938 40.980469 62.960938 40.996094 L 64.789063 41.214844 L 64.726563 40.777344 C 64.070313 40.636719 63.679688 40.558594 63.195313 40.324219 C 62.867188 40.167969 62.257813 39.871094 62.210938 39.605469 C 62.195313 39.496094 62.320313 39.464844 62.398438 39.464844 L 64.632813 39.699219 L 64.632813 39.683594 C 64.523438 39.386719 64.429688 39.105469 64.367188 38.808594 L 64.289063 38.824219 C 64.320313 39.074219 64.335938 39.183594 64.148438 39.214844 C 63.992188 39.230469 62.429688 38.980469 62.164063 39.027344 C 61.914063 39.058594 61.835938 39.183594 61.867188 39.402344 C 61.945313 39.933594 62.757813 40.261719 63.460938 40.574219 L 63.460938 40.589844 C 62.960938 40.527344 62.445313 40.480469 62.351563 40.496094 C 62.257813 40.496094 62.039063 40.542969 62.085938 40.808594 C 62.117188 41.105469 62.304688 41.246094 62.882813 41.527344 Z M 62.929688 41.449219 "
       id="path193" />
    <path
       style=" stroke:none;fill-rule:nonzero;fill:rgb(12.940979%,11.764526%,11.764526%);fill-opacity:1;"
       d="M 63.339844 44.421875 C 63.027344 44.21875 62.824219 44.125 62.808594 44 C 62.808594 43.984375 62.792969 43.90625 62.886719 43.890625 C 63.074219 43.859375 64.589844 44.140625 64.855469 44.09375 C 65.105469 44.0625 65.214844 43.90625 65.183594 43.640625 C 65.105469 43.140625 64.214844 42.703125 63.746094 42.484375 L 63.746094 42.46875 L 65.042969 42.6875 L 65.042969 42.671875 C 64.933594 42.34375 64.824219 42.046875 64.730469 41.734375 L 64.636719 41.734375 C 64.683594 42.0625 64.636719 42.140625 64.542969 42.15625 C 64.417969 42.171875 62.964844 41.953125 62.277344 41.859375 L 62.339844 42.3125 C 63.183594 42.453125 63.449219 42.484375 63.886719 42.703125 C 64.261719 42.859375 64.824219 43.1875 64.871094 43.46875 C 64.886719 43.578125 64.792969 43.625 64.683594 43.640625 C 64.449219 43.671875 62.933594 43.421875 62.792969 43.4375 C 62.621094 43.46875 62.449219 43.5 62.496094 43.78125 C 62.527344 44.09375 62.824219 44.265625 63.277344 44.515625 Z M 63.339844 44.421875 "
       id="path195" />
    <path
       style=" stroke:none;fill-rule:nonzero;fill:rgb(12.940979%,11.764526%,11.764526%);fill-opacity:1;"
       d="M 63.03125 45.691406 C 62.96875 45.332031 63.3125 45.285156 63.421875 45.269531 C 63.953125 45.191406 65.3125 45.582031 65.40625 46.253906 C 65.453125 46.535156 65.203125 46.566406 65.0625 46.597656 C 64.3125 46.691406 63.109375 46.253906 63.03125 45.691406 Z M 63.71875 47.410156 C 63.390625 47.207031 63.234375 47.113281 63.21875 46.988281 C 63.203125 46.925781 63.25 46.878906 63.34375 46.863281 C 63.4375 46.847656 66.0625 47.222656 67.140625 47.332031 L 67.15625 47.285156 C 67.0625 47.003906 66.96875 46.691406 66.890625 46.410156 L 66.796875 46.425781 C 66.84375 46.738281 66.828125 46.800781 66.6875 46.816406 C 66.59375 46.832031 66.4375 46.800781 66.265625 46.785156 L 65.296875 46.660156 L 65.265625 46.644531 C 65.40625 46.613281 65.578125 46.535156 65.53125 46.207031 C 65.4375 45.488281 64.21875 44.628906 63.328125 44.753906 C 63.015625 44.800781 62.640625 44.988281 62.703125 45.488281 C 62.75 45.769531 62.890625 46.082031 63.625 46.425781 L 63.609375 46.441406 C 63.375 46.425781 63.25 46.410156 63.109375 46.425781 C 62.984375 46.441406 62.828125 46.519531 62.859375 46.753906 C 62.890625 46.957031 63.234375 47.285156 63.671875 47.488281 Z M 63.71875 47.410156 "
       id="path197" />
    <path
       style=" stroke:none;fill-rule:nonzero;fill:rgb(12.940979%,11.764526%,11.764526%);fill-opacity:1;"
       d="M 64.109375 50.382813 C 63.8125 50.164063 63.65625 50.070313 63.640625 49.976563 C 63.640625 49.929688 63.65625 49.898438 63.703125 49.882813 C 63.890625 49.851563 65.984375 50.117188 66.046875 50.132813 L 66.0625 50.085938 L 65.984375 49.726563 L 65.96875 49.710938 L 65.703125 49.695313 C 65.859375 49.648438 65.96875 49.429688 65.9375 49.164063 C 65.828125 48.367188 64.609375 47.632813 63.734375 47.742188 C 63.5625 47.773438 63.03125 47.867188 63.109375 48.460938 C 63.15625 48.804688 63.375 49.085938 64.171875 49.492188 L 64.171875 49.507813 C 63.796875 49.460938 63.671875 49.445313 63.53125 49.460938 C 63.421875 49.476563 63.265625 49.507813 63.296875 49.757813 C 63.328125 50.023438 63.578125 50.195313 64.0625 50.476563 Z M 63.8125 48.242188 C 64.328125 48.179688 65.71875 48.507813 65.8125 49.210938 C 65.84375 49.382813 65.765625 49.570313 65.46875 49.617188 C 64.890625 49.695313 63.53125 49.289063 63.4375 48.648438 C 63.421875 48.492188 63.5 48.289063 63.8125 48.242188 Z M 63.8125 48.242188 "
       id="path199" />
    <path
       style=" stroke:none;fill-rule:nonzero;fill:rgb(12.940979%,11.764526%,11.764526%);fill-opacity:1;"
       d="M 63.582031 51.414063 C 64.410156 51.539063 64.675781 51.601563 65.144531 51.757813 C 65.253906 51.789063 65.957031 52.054688 65.972656 52.242188 C 66.003906 52.382813 65.785156 52.335938 65.816406 52.585938 C 65.832031 52.648438 65.863281 52.867188 66.175781 52.820313 C 66.363281 52.804688 66.410156 52.648438 66.394531 52.507813 C 66.347656 52.132813 65.597656 51.757813 65.175781 51.617188 L 65.050781 51.601563 L 65.066406 51.570313 L 66.285156 51.710938 L 66.285156 51.695313 C 66.222656 51.414063 66.097656 51.101563 66.019531 50.789063 L 65.910156 50.804688 C 65.925781 50.867188 65.957031 50.929688 65.972656 51.007813 C 65.988281 51.195313 65.910156 51.226563 65.832031 51.226563 C 65.769531 51.242188 65.550781 51.242188 65.332031 51.210938 L 63.519531 50.960938 Z M 63.582031 51.414063 "
       id="path201" />
    <path
       style=" stroke:none;fill-rule:nonzero;fill:rgb(12.940979%,11.764526%,11.764526%);fill-opacity:1;"
       d="M 66.214844 52.773438 C 66.230469 52.835938 66.246094 52.882813 66.261719 52.976563 C 66.308594 53.320313 66.058594 53.429688 65.542969 53.648438 C 65.230469 53.804688 64.230469 54.195313 63.996094 54.226563 C 63.839844 54.242188 63.511719 54.039063 63.308594 53.914063 C 63.042969 53.757813 62.996094 53.679688 62.980469 53.585938 C 62.964844 53.476563 63.105469 53.367188 63.089844 53.179688 C 63.074219 53.054688 62.964844 52.976563 62.839844 52.992188 C 62.589844 53.039063 62.605469 53.289063 62.605469 53.335938 C 62.714844 54.039063 65.699219 55.320313 66.417969 55.226563 C 66.621094 55.195313 66.746094 55.070313 66.714844 54.851563 C 66.699219 54.695313 66.558594 54.632813 66.496094 54.648438 C 66.214844 54.679688 66.324219 55.007813 66.089844 55.039063 C 65.761719 55.085938 64.902344 54.710938 64.464844 54.507813 L 65.121094 54.304688 C 65.558594 54.164063 66.574219 53.664063 66.542969 53.585938 C 66.527344 53.476563 66.371094 53.039063 66.308594 52.757813 Z M 66.214844 52.773438 "
       id="path203" />
  </g>
</svg>
