<?xml version="1.0" encoding="UTF-8" standalone="no"?>
<svg
   xmlns:dc="http://purl.org/dc/elements/1.1/"
   xmlns:cc="http://creativecommons.org/ns#"
   xmlns:rdf="http://www.w3.org/1999/02/22-rdf-syntax-ns#"
   xmlns:svg="http://www.w3.org/2000/svg"
   xmlns="http://www.w3.org/2000/svg"
   xmlns:sodipodi="http://sodipodi.sourceforge.net/DTD/sodipodi-0.dtd"
   xmlns:inkscape="http://www.inkscape.org/namespaces/inkscape"
   width="83.294746pt"
   height="95.218445pt"
   viewBox="0 0 83.294746 95.218445"
   version="1.2"
   id="svg142"
   sodipodi:docname="fixed_increment_07.svg"
   inkscape:version="0.92.4 (5da689c313, 2019-01-14)">
  <metadata
     id="metadata146">
    <rdf:RDF>
      <cc:Work
         rdf:about="">
        <dc:format>image/svg+xml</dc:format>
        <dc:type
           rdf:resource="http://purl.org/dc/dcmitype/StillImage" />
        <dc:title></dc:title>
      </cc:Work>
    </rdf:RDF>
  </metadata>
  <sodipodi:namedview
     pagecolor="#ffffff"
     bordercolor="#666666"
     borderopacity="1"
     objecttolerance="10"
     gridtolerance="10"
     guidetolerance="10"
     inkscape:pageopacity="0"
     inkscape:pageshadow="2"
     inkscape:window-width="661"
     inkscape:window-height="480"
     id="namedview144"
     showgrid="false"
     inkscape:zoom="1.8588835"
     inkscape:cx="55.529831"
     inkscape:cy="63.478963"
     inkscape:window-x="0"
     inkscape:window-y="0"
     inkscape:window-maximized="0"
     inkscape:current-layer="svg142" />
  <defs
     id="defs11">
    <clipPath
       id="clip1">
      <path
         d="M 0 9 L 79 9 L 79 95.21875 L 0 95.21875 Z M 0 9 "
         id="path2" />
    </clipPath>
    <clipPath
       id="clip2">
      <path
         d="M 0 20 L 79 20 L 79 95.21875 L 0 95.21875 Z M 0 20 "
         id="path5" />
    </clipPath>
    <clipPath
       id="clip3">
      <path
         d="M 81 20 L 83.292969 20 L 83.292969 23 L 81 23 Z M 81 20 "
         id="path8" />
    </clipPath>
  </defs>
  <g
     id="surface48">
    <path
       style=" stroke:none;fill-rule:nonzero;fill:rgb(0%,0%,0%);fill-opacity:1;"
       d="M 42.425781 0.109375 L 42.363281 0 L 38.316406 0 L 37.441406 1.46875 L 37.582031 1.5625 C 37.957031 1.125 38.253906 0.78125 39.019531 0.78125 L 41.425781 0.78125 L 41.441406 0.8125 L 37.488281 7.28125 L 38.238281 7.28125 Z M 42.425781 0.109375 "
       id="path13" />
    <g
       clip-path="url(#clip1)"
       clip-rule="nonzero"
       id="g17">
      <path
         style="fill:none;stroke-width:0.166;stroke-linecap:round;stroke-linejoin:round;stroke:rgb(0%,0%,0%);stroke-opacity:1;stroke-miterlimit:4;"
         d="M 7.023438 75.855469 L 0.0820313 32.042969 L 31.507813 9.925781 L 32.890625 49.480469 L 7.023438 75.855469 M 52.867188 95.132813 L 72.855469 62.558594 L 78.578125 20.707031 L 55.535156 49.175781 L 52.867188 95.132813 M 7.023438 75.855469 L 0.0820313 32.042969 L 55.535156 49.175781 L 52.867188 95.132813 L 7.023438 75.855469 M 32.890625 49.480469 L 72.855469 62.558594 L 78.578125 20.707031 L 31.507813 9.925781 L 32.890625 49.480469 "
         id="path15" />
    </g>
    <path
       style=" stroke:none;fill-rule:nonzero;fill:rgb(18.823242%,18.823242%,18.823242%);fill-opacity:1;"
       d="M 40.621094 47.554688 L 39.277344 48.894531 L 37.277344 51.597656 L 40.621094 47.554688 "
       id="path19" />
    <path
       style="fill:none;stroke-width:0.166;stroke-linecap:round;stroke-linejoin:round;stroke:rgb(0%,0%,0%);stroke-opacity:1;stroke-miterlimit:4;"
       d="M 40.621094 47.554688 L 39.277344 48.894531 "
       id="path21" />
    <path
       style=" stroke:none;fill-rule:nonzero;fill:rgb(18.823242%,18.823242%,18.823242%);fill-opacity:1;"
       d="M 42.042969 46.378906 L 40.621094 47.554688 L 37.277344 51.597656 L 42.042969 46.378906 "
       id="path23" />
    <path
       style="fill:none;stroke-width:0.166;stroke-linecap:round;stroke-linejoin:round;stroke:rgb(0%,0%,0%);stroke-opacity:1;stroke-miterlimit:4;"
       d="M 42.042969 46.378906 L 40.621094 47.554688 "
       id="path25" />
    <path
       style=" stroke:none;fill-rule:nonzero;fill:rgb(18.823242%,18.823242%,18.823242%);fill-opacity:1;"
       d="M 39.277344 48.894531 L 38.128906 50.28125 L 37.277344 51.597656 L 39.277344 48.894531 "
       id="path27" />
    <path
       style="fill:none;stroke-width:0.166;stroke-linecap:round;stroke-linejoin:round;stroke:rgb(0%,0%,0%);stroke-opacity:1;stroke-miterlimit:4;"
       d="M 39.277344 48.894531 L 38.128906 50.28125 L 37.277344 51.597656 "
       id="path29" />
    <path
       style=" stroke:none;fill-rule:nonzero;fill:rgb(18.823242%,18.823242%,18.823242%);fill-opacity:1;"
       d="M 43.417969 45.480469 L 42.042969 46.378906 L 37.277344 51.597656 L 43.417969 45.480469 "
       id="path31" />
    <path
       style="fill:none;stroke-width:0.166;stroke-linecap:round;stroke-linejoin:round;stroke:rgb(0%,0%,0%);stroke-opacity:1;stroke-miterlimit:4;"
       d="M 43.417969 45.480469 L 42.042969 46.378906 "
       id="path33" />
    <path
       style=" stroke:none;fill-rule:nonzero;fill:rgb(18.823242%,18.823242%,18.823242%);fill-opacity:1;"
       d="M 44.617188 44.941406 L 43.417969 45.480469 L 37.277344 51.597656 L 44.617188 44.941406 "
       id="path35" />
    <path
       style="fill:none;stroke-width:0.166;stroke-linecap:round;stroke-linejoin:round;stroke:rgb(0%,0%,0%);stroke-opacity:1;stroke-miterlimit:4;"
       d="M 44.617188 44.941406 L 43.417969 45.480469 "
       id="path37" />
    <path
       style=" stroke:none;fill-rule:nonzero;fill:rgb(18.823242%,18.823242%,18.823242%);fill-opacity:1;"
       d="M 45.527344 44.824219 L 44.617188 44.941406 L 37.277344 51.597656 L 45.527344 44.824219 "
       id="path39" />
    <path
       style="fill:none;stroke-width:0.166;stroke-linecap:round;stroke-linejoin:round;stroke:rgb(0%,0%,0%);stroke-opacity:1;stroke-miterlimit:4;"
       d="M 45.527344 44.824219 L 44.617188 44.941406 "
       id="path41" />
    <path
       style=" stroke:none;fill-rule:nonzero;fill:rgb(18.823242%,18.823242%,18.823242%);fill-opacity:1;"
       d="M 46.050781 45.148438 L 45.527344 44.824219 L 37.277344 51.597656 L 46.050781 45.148438 "
       id="path43" />
    <path
       style="fill:none;stroke-width:0.166;stroke-linecap:round;stroke-linejoin:round;stroke:rgb(0%,0%,0%);stroke-opacity:1;stroke-miterlimit:4;"
       d="M 46.050781 45.148438 L 45.527344 44.824219 "
       id="path45" />
    <path
       style=" stroke:none;fill-rule:nonzero;fill:rgb(18.823242%,18.823242%,18.823242%);fill-opacity:1;"
       d="M 46.125 45.902344 L 46.050781 45.148438 L 37.277344 51.597656 L 46.125 45.902344 "
       id="path47" />
    <path
       style="fill:none;stroke-width:0.166;stroke-linecap:round;stroke-linejoin:round;stroke:rgb(0%,0%,0%);stroke-opacity:1;stroke-miterlimit:4;"
       d="M 46.125 45.902344 L 46.050781 45.148438 "
       id="path49" />
    <path
       style=" stroke:none;fill-rule:nonzero;fill:rgb(18.823242%,18.823242%,18.823242%);fill-opacity:1;"
       d="M 45.722656 47.015625 L 46.125 45.902344 L 37.277344 51.597656 L 45.722656 47.015625 "
       id="path51" />
    <path
       style="fill:none;stroke-width:0.166;stroke-linecap:round;stroke-linejoin:round;stroke:rgb(0%,0%,0%);stroke-opacity:1;stroke-miterlimit:4;"
       d="M 45.722656 47.015625 L 46.125 45.902344 "
       id="path53" />
    <path
       style=" stroke:none;fill-rule:nonzero;fill:rgb(18.823242%,18.823242%,18.823242%);fill-opacity:1;"
       d="M 44.878906 48.386719 L 45.722656 47.015625 L 37.277344 51.597656 L 44.878906 48.386719 "
       id="path55" />
    <path
       style="fill:none;stroke-width:0.166;stroke-linecap:round;stroke-linejoin:round;stroke:rgb(0%,0%,0%);stroke-opacity:1;stroke-miterlimit:4;"
       d="M 44.878906 48.386719 L 45.722656 47.015625 "
       id="path57" />
    <path
       style=" stroke:none;fill-rule:nonzero;fill:rgb(18.823242%,18.823242%,18.823242%);fill-opacity:1;"
       d="M 43.667969 49.875 L 44.878906 48.386719 L 37.277344 51.597656 L 43.667969 49.875 "
       id="path59" />
    <path
       style="fill:none;stroke-width:0.166;stroke-linecap:round;stroke-linejoin:round;stroke:rgb(0%,0%,0%);stroke-opacity:1;stroke-miterlimit:4;"
       d="M 43.667969 49.875 L 44.878906 48.386719 "
       id="path61" />
    <path
       style=" stroke:none;fill-rule:nonzero;fill:rgb(18.823242%,18.823242%,18.823242%);fill-opacity:1;"
       d="M 42.226563 51.316406 L 43.667969 49.875 L 37.277344 51.597656 L 42.226563 51.316406 "
       id="path63" />
    <path
       style="fill:none;stroke-width:0.166;stroke-linecap:round;stroke-linejoin:round;stroke:rgb(0%,0%,0%);stroke-opacity:1;stroke-miterlimit:4;"
       d="M 42.226563 51.316406 L 43.667969 49.875 "
       id="path65" />
    <path
       style="fill:none;stroke-width:0.332;stroke-linecap:round;stroke-linejoin:round;stroke:rgb(9.01947%,9.01947%,9.01947%);stroke-opacity:1;stroke-miterlimit:4;"
       d="M 42.859375 50.683594 L 52.398438 59.269531 "
       id="path67" />
    <path
       style=" stroke:none;fill-rule:nonzero;fill:rgb(18.823242%,18.823242%,18.823242%);fill-opacity:1;"
       d="M 40.699219 52.554688 L 42.226563 51.316406 L 37.277344 51.597656 L 40.699219 52.554688 "
       id="path69" />
    <path
       style="fill:none;stroke-width:0.166;stroke-linecap:round;stroke-linejoin:round;stroke:rgb(0%,0%,0%);stroke-opacity:1;stroke-miterlimit:4;"
       d="M 40.699219 52.554688 L 42.226563 51.316406 "
       id="path71" />
    <path
       style=" stroke:none;fill-rule:nonzero;fill:rgb(18.823242%,18.823242%,18.823242%);fill-opacity:1;"
       d="M 39.261719 53.460938 L 40.699219 52.554688 L 37.277344 51.597656 L 39.261719 53.460938 "
       id="path73" />
    <path
       style="fill:none;stroke-width:0.166;stroke-linecap:round;stroke-linejoin:round;stroke:rgb(0%,0%,0%);stroke-opacity:1;stroke-miterlimit:4;"
       d="M 39.261719 53.460938 L 40.699219 52.554688 "
       id="path75" />
    <path
       style=" stroke:none;fill-rule:nonzero;fill:rgb(18.823242%,18.823242%,18.823242%);fill-opacity:1;"
       d="M 38.058594 53.945313 L 39.261719 53.460938 L 37.277344 51.597656 L 38.058594 53.945313 "
       id="path77" />
    <path
       style="fill:none;stroke-width:0.166;stroke-linecap:round;stroke-linejoin:round;stroke:rgb(0%,0%,0%);stroke-opacity:1;stroke-miterlimit:4;"
       d="M 38.058594 53.945313 L 39.261719 53.460938 "
       id="path79" />
    <path
       style=" stroke:none;fill-rule:nonzero;fill:rgb(18.823242%,18.823242%,18.823242%);fill-opacity:1;"
       d="M 37.207031 53.964844 L 38.058594 53.945313 L 37.277344 51.597656 L 37.207031 53.964844 "
       id="path81" />
    <path
       style="fill:none;stroke-width:0.166;stroke-linecap:round;stroke-linejoin:round;stroke:rgb(0%,0%,0%);stroke-opacity:1;stroke-miterlimit:4;"
       d="M 37.207031 53.964844 L 38.058594 53.945313 "
       id="path83" />
    <path
       style=" stroke:none;fill-rule:nonzero;fill:rgb(18.823242%,18.823242%,18.823242%);fill-opacity:1;"
       d="M 36.78125 53.542969 L 37.207031 53.964844 L 37.277344 51.597656 L 36.78125 53.542969 "
       id="path85" />
    <path
       style="fill:none;stroke-width:0.166;stroke-linecap:round;stroke-linejoin:round;stroke:rgb(0%,0%,0%);stroke-opacity:1;stroke-miterlimit:4;"
       d="M 36.78125 53.542969 L 37.207031 53.964844 "
       id="path87" />
    <path
       style=" stroke:none;fill-rule:nonzero;fill:rgb(18.823242%,18.823242%,18.823242%);fill-opacity:1;"
       d="M 37.277344 51.597656 L 36.8125 52.722656 L 36.78125 53.542969 L 37.277344 51.597656 "
       id="path89" />
    <path
       style="fill:none;stroke-width:0.166;stroke-linecap:round;stroke-linejoin:round;stroke:rgb(0%,0%,0%);stroke-opacity:1;stroke-miterlimit:4;"
       d="M 37.277344 51.597656 L 36.8125 52.722656 L 36.78125 53.542969 "
       id="path91" />
    <path
       style="fill:none;stroke-width:0.332;stroke-linecap:round;stroke-linejoin:round;stroke:rgb(36.862183%,36.862183%,36.862183%);stroke-opacity:1;stroke-miterlimit:4;"
       d="M 43.148438 50.394531 L 54.519531 57.0625 "
       id="path93" />
    <path
       style="fill:none;stroke-width:0.332;stroke-linecap:round;stroke-linejoin:round;stroke:rgb(18.823242%,18.823242%,18.823242%);stroke-opacity:1;stroke-miterlimit:4;"
       d="M 43.449219 50.09375 L 56.699219 54.789063 "
       id="path95" />
    <path
       style="fill:none;stroke-width:1.2;stroke-linecap:round;stroke-linejoin:round;stroke:rgb(49.803162%,0%,0%);stroke-opacity:1;stroke-dasharray:2.492,2.492;stroke-miterlimit:4;"
       d="M 60.574219 16.582031 L 54.121094 48.742188 "
       id="path97" />
    <path
       style="fill:none;stroke-width:0.332;stroke-linecap:round;stroke-linejoin:round;stroke:rgb(18.823242%,18.823242%,18.823242%);stroke-opacity:1;stroke-miterlimit:4;"
       d="M 43.898438 49.589844 L 57.726563 50.828125 "
       id="path99" />
    <path
       style="fill:none;stroke-width:0.332;stroke-linecap:round;stroke-linejoin:round;stroke:rgb(29.019165%,29.019165%,29.019165%);stroke-opacity:1;stroke-miterlimit:4;"
       d="M 44.355469 49.03125 L 59.375 47.328125 "
       id="path101" />
    <path
       style="fill:none;stroke-width:0.332;stroke-linecap:round;stroke-linejoin:round;stroke:rgb(49.803162%,49.803162%,49.803162%);stroke-opacity:1;stroke-miterlimit:4;"
       d="M 44.882813 48.378906 L 61.035156 43.808594 "
       id="path103" />
    <path
       style="fill:none;stroke-width:0.332;stroke-linecap:round;stroke-linejoin:round;stroke:rgb(59.214783%,59.214783%,59.214783%);stroke-opacity:1;stroke-miterlimit:4;"
       d="M 45.347656 47.625 L 62.726563 39.964844 "
       id="path105" />
    <path
       style="fill:none;stroke-width:0.831;stroke-linecap:round;stroke-linejoin:round;stroke:rgb(0%,0%,0%);stroke-opacity:1;stroke-miterlimit:4;"
       d="M 41.394531 49.367188 L 41.394531 49.367188 "
       id="path107" />
    <path
       style="fill:none;stroke-width:1.2;stroke-linecap:round;stroke-linejoin:round;stroke:rgb(0%,0%,0%);stroke-opacity:1;stroke-miterlimit:4;"
       d="M 70.378906 30.835938 L 70.730469 18.910156 "
       id="path109" />
    <path
       style="fill:none;stroke-width:2.4;stroke-linecap:round;stroke-linejoin:round;stroke:rgb(0%,0%,0%);stroke-opacity:1;stroke-miterlimit:4;"
       d="M 55.164063 19.246094 L 55.164063 19.246094 "
       id="path111" />
    <path
       style="fill:none;stroke-width:2.4;stroke-linecap:round;stroke-linejoin:round;stroke:rgb(94.116211%,34.117126%,27.058411%);stroke-opacity:1;stroke-miterlimit:4;"
       d="M 62.472656 19.628906 L 62.472656 19.628906 M 69.839844 20.015625 L 69.839844 20.015625 "
       id="path113" />
    <path
       style="fill:none;stroke-width:2.4;stroke-linecap:round;stroke-linejoin:round;stroke:rgb(0%,0%,0%);stroke-opacity:1;stroke-miterlimit:4;"
       d="M 52.832031 21.453125 L 52.832031 21.453125 "
       id="path115" />
    <path
       style="fill:none;stroke-width:2.4;stroke-linecap:round;stroke-linejoin:round;stroke:rgb(94.116211%,34.117126%,27.058411%);stroke-opacity:1;stroke-miterlimit:4;"
       d="M 64.160156 22.789063 L 64.160156 22.789063 M 70.441406 22.886719 L 70.441406 22.886719 "
       id="path117" />
    <path
       style="fill:none;stroke-width:2.4;stroke-linecap:round;stroke-linejoin:round;stroke:rgb(0%,0%,0%);stroke-opacity:1;stroke-miterlimit:4;"
       d="M 56.726563 23.863281 L 56.726563 23.863281 M 46.597656 24.308594 L 46.597656 24.308594 "
       id="path119" />
    <path
       style="fill:none;stroke-width:2.4;stroke-linecap:round;stroke-linejoin:round;stroke:rgb(94.116211%,34.117126%,27.058411%);stroke-opacity:1;stroke-miterlimit:4;"
       d="M 72.097656 24.707031 L 72.097656 24.707031 "
       id="path121" />
    <path
       style="fill:none;stroke-width:2.492;stroke-linecap:round;stroke-linejoin:round;stroke:rgb(0%,0%,0%);stroke-opacity:1;stroke-miterlimit:4;"
       d="M 58.441406 28.925781 L 58.441406 28.925781 "
       id="path123" />
    <path
       style="fill:none;stroke-width:4.8;stroke-linecap:round;stroke-linejoin:round;stroke:rgb(0%,0%,0%);stroke-opacity:1;stroke-miterlimit:4;"
       d="M 58.441406 28.925781 L 58.441406 28.925781 "
       id="path125" />
    <g
       clip-path="url(#clip2)"
       clip-rule="nonzero"
       id="g129">
      <path
         style="fill:none;stroke-width:0.166;stroke-linecap:round;stroke-linejoin:round;stroke:rgb(0%,0%,0%);stroke-opacity:1;stroke-miterlimit:4;"
         d="M 52.867188 95.132813 L 72.855469 62.558594 L 78.578125 20.707031 L 55.535156 49.175781 L 52.867188 95.132813 M 7.023438 75.855469 L 0.0820313 32.042969 L 55.535156 49.175781 L 52.867188 95.132813 L 7.023438 75.855469 "
         id="path127" />
    </g>
    <path
       style=" stroke:none;fill-rule:nonzero;fill:rgb(12.940979%,11.764526%,11.764526%);fill-opacity:1;"
       d="M 41.117188 30.148438 C 42.554688 30.148438 42.867188 30.507813 42.867188 30.960938 C 42.867188 31.351563 42.585938 32.242188 41.304688 32.289063 C 40.929688 32.304688 40.679688 32.570313 40.679688 32.648438 C 40.679688 32.695313 40.710938 32.695313 40.726563 32.695313 C 40.960938 32.726563 41.117188 32.757813 41.585938 33.757813 C 41.929688 34.507813 42.132813 34.820313 42.554688 34.820313 C 43.429688 34.820313 44.289063 33.929688 44.289063 33.773438 C 44.289063 33.726563 44.242188 33.726563 44.210938 33.726563 C 44.085938 33.726563 43.804688 33.867188 43.695313 34.023438 C 43.554688 34.210938 43.398438 34.414063 43.039063 34.414063 C 42.679688 34.414063 42.429688 33.914063 42.195313 33.382813 C 41.960938 32.914063 41.867188 32.726563 41.710938 32.539063 C 42.867188 32.101563 43.492188 31.335938 43.492188 30.648438 C 43.492188 29.742188 42.289063 29.742188 41.132813 29.742188 C 40.335938 29.742188 39.851563 29.742188 39.179688 30.085938 C 38.289063 30.539063 38.226563 31.085938 38.226563 31.085938 C 38.226563 31.117188 38.226563 31.148438 38.289063 31.148438 C 38.429688 31.148438 38.789063 30.976563 38.851563 30.789063 C 38.945313 30.507813 39.054688 30.195313 40.101563 30.148438 C 40.023438 30.992188 39.898438 32.476563 38.992188 34.648438 C 38.945313 34.757813 38.945313 34.757813 38.945313 34.773438 C 38.945313 34.820313 38.992188 34.820313 39.023438 34.820313 C 39.179688 34.820313 39.460938 34.664063 39.554688 34.523438 C 39.554688 34.492188 39.710938 34.164063 39.929688 33.539063 C 40.289063 32.539063 40.585938 31.367188 40.710938 30.148438 Z M 41.117188 30.148438 "
       id="path131" />
    <path
       style=" stroke:none;fill-rule:nonzero;fill:rgb(12.940979%,11.764526%,11.764526%);fill-opacity:1;"
       d="M 44.53125 36.464844 L 45.53125 36.464844 L 45.53125 36.417969 C 45.359375 36.417969 45.234375 36.402344 45.234375 36.292969 C 45.234375 36.230469 45.28125 36.105469 45.296875 36.027344 L 45.8125 34.167969 C 45.828125 34.105469 45.84375 34.042969 45.8125 34.042969 C 45.78125 34.042969 45.28125 34.136719 45.125 34.167969 L 45.125 34.230469 L 45.328125 34.214844 C 45.359375 34.214844 45.453125 34.214844 45.453125 34.339844 C 45.453125 34.355469 45.4375 34.417969 45.4375 34.449219 L 44.9375 36.214844 C 44.890625 36.386719 44.75 36.386719 44.53125 36.417969 Z M 44.53125 36.464844 "
       id="path133" />
    <path
       style=" stroke:none;fill-rule:nonzero;fill:rgb(86.273193%,14.901733%,13.725281%);fill-opacity:1;"
       d="M 78.425781 16.59375 C 79.863281 16.59375 80.175781 16.953125 80.175781 17.40625 C 80.175781 17.796875 79.894531 18.6875 78.613281 18.734375 C 78.238281 18.75 77.988281 19.015625 77.988281 19.09375 C 77.988281 19.140625 78.019531 19.140625 78.035156 19.140625 C 78.269531 19.171875 78.425781 19.203125 78.894531 20.203125 C 79.238281 20.953125 79.441406 21.265625 79.863281 21.265625 C 80.738281 21.265625 81.597656 20.375 81.597656 20.21875 C 81.597656 20.171875 81.550781 20.171875 81.519531 20.171875 C 81.394531 20.171875 81.113281 20.3125 81.003906 20.46875 C 80.863281 20.65625 80.707031 20.859375 80.347656 20.859375 C 79.988281 20.859375 79.738281 20.359375 79.503906 19.828125 C 79.269531 19.359375 79.175781 19.171875 79.019531 18.984375 C 80.175781 18.546875 80.800781 17.78125 80.800781 17.09375 C 80.800781 16.1875 79.597656 16.1875 78.441406 16.1875 C 77.644531 16.1875 77.160156 16.1875 76.488281 16.53125 C 75.597656 16.984375 75.535156 17.53125 75.535156 17.53125 C 75.535156 17.5625 75.535156 17.59375 75.597656 17.59375 C 75.738281 17.59375 76.097656 17.421875 76.160156 17.234375 C 76.253906 16.953125 76.363281 16.640625 77.410156 16.59375 C 77.332031 17.4375 77.207031 18.921875 76.300781 21.09375 C 76.253906 21.203125 76.253906 21.203125 76.253906 21.21875 C 76.253906 21.265625 76.300781 21.265625 76.332031 21.265625 C 76.488281 21.265625 76.769531 21.109375 76.863281 20.96875 C 76.863281 20.9375 77.019531 20.609375 77.238281 19.984375 C 77.597656 18.984375 77.894531 17.8125 78.019531 16.59375 Z M 78.425781 16.59375 "
       id="path135" />
    <g
       clip-path="url(#clip3)"
       clip-rule="nonzero"
       id="g139">
      <path
         style=" stroke:none;fill-rule:nonzero;fill:rgb(86.273193%,14.901733%,13.725281%);fill-opacity:1;"
         d="M 83.105469 22.410156 C 83.042969 22.535156 82.980469 22.644531 82.746094 22.644531 L 82.074219 22.644531 L 82.074219 22.613281 L 82.761719 21.925781 C 83.199219 21.488281 83.292969 21.316406 83.292969 21.082031 C 83.292969 20.816406 83.089844 20.488281 82.714844 20.488281 C 82.621094 20.488281 82.152344 20.488281 81.949219 21.050781 L 82.027344 21.082031 C 82.074219 20.988281 82.214844 20.738281 82.542969 20.738281 C 82.824219 20.738281 82.980469 20.957031 82.980469 21.175781 C 82.980469 21.300781 82.964844 21.503906 82.464844 22.050781 L 81.714844 22.847656 L 81.714844 22.910156 L 82.980469 22.910156 L 83.167969 22.441406 Z M 83.105469 22.410156 "
         id="path137" />
    </g>
  </g>
</svg>
