<?xml version="1.0" encoding="UTF-8" standalone="no"?>
<svg
   xmlns:dc="http://purl.org/dc/elements/1.1/"
   xmlns:cc="http://creativecommons.org/ns#"
   xmlns:rdf="http://www.w3.org/1999/02/22-rdf-syntax-ns#"
   xmlns:svg="http://www.w3.org/2000/svg"
   xmlns="http://www.w3.org/2000/svg"
   xmlns:sodipodi="http://sodipodi.sourceforge.net/DTD/sodipodi-0.dtd"
   xmlns:inkscape="http://www.inkscape.org/namespaces/inkscape"
   width="78.662102pt"
   height="95.328674pt"
   viewBox="0 0 78.662102 95.328674"
   version="1.2"
   id="svg129"
   sodipodi:docname="fixed_increment_03.svg"
   inkscape:version="0.92.4 (5da689c313, 2019-01-14)">
  <metadata
     id="metadata133">
    <rdf:RDF>
      <cc:Work
         rdf:about="">
        <dc:format>image/svg+xml</dc:format>
        <dc:type
           rdf:resource="http://purl.org/dc/dcmitype/StillImage" />
        <dc:title></dc:title>
      </cc:Work>
    </rdf:RDF>
  </metadata>
  <sodipodi:namedview
     pagecolor="#ffffff"
     bordercolor="#666666"
     borderopacity="1"
     objecttolerance="10"
     gridtolerance="10"
     guidetolerance="10"
     inkscape:pageopacity="0"
     inkscape:pageshadow="2"
     inkscape:window-width="661"
     inkscape:window-height="480"
     id="namedview131"
     showgrid="false"
     inkscape:zoom="1.8567341"
     inkscape:cx="52.441401"
     inkscape:cy="63.55245"
     inkscape:window-x="0"
     inkscape:window-y="0"
     inkscape:window-maximized="0"
     inkscape:current-layer="svg129" />
  <defs
     id="defs8">
    <clipPath
       id="clip1">
      <path
         d="M 0 9 L 78.660156 9 L 78.660156 95.328125 L 0 95.328125 Z M 0 9 "
         id="path2" />
    </clipPath>
    <clipPath
       id="clip2">
      <path
         d="M 0 20 L 78.660156 20 L 78.660156 95.328125 L 0 95.328125 Z M 0 20 "
         id="path5" />
    </clipPath>
  </defs>
  <g
     id="surface42">
    <path
       style=" stroke:none;fill-rule:nonzero;fill:rgb(0%,0%,0%);fill-opacity:1;"
       d="M 38.550781 1.171875 C 38.707031 0.953125 39.097656 0.453125 39.769531 0.453125 C 40.175781 0.453125 40.707031 0.703125 40.707031 1.4375 C 40.707031 2.59375 39.207031 3.078125 38.128906 3.21875 L 38.144531 3.40625 C 39.191406 3.328125 40.144531 3.71875 40.144531 5.234375 C 40.144531 6.59375 39.128906 6.96875 38.753906 6.96875 C 38.144531 6.96875 37.800781 6.3125 37.300781 6.3125 C 36.894531 6.3125 36.785156 6.515625 36.785156 6.734375 C 36.785156 7.21875 37.378906 7.375 38.019531 7.375 C 40.019531 7.375 41.003906 5.84375 41.003906 4.640625 C 41.003906 3.453125 40.253906 3.125 39.972656 3 L 39.972656 2.96875 C 41.113281 2.546875 41.644531 2.171875 41.644531 1.34375 C 41.644531 0.453125 40.878906 0 40.066406 0 C 39.457031 0 38.644531 0.46875 38.378906 1.125 Z M 38.550781 1.171875 "
       id="path10" />
    <g
       clip-path="url(#clip1)"
       clip-rule="nonzero"
       id="g14">
      <path
         style="fill:none;stroke-width:0.166;stroke-linecap:round;stroke-linejoin:round;stroke:rgb(0%,0%,0%);stroke-opacity:1;stroke-miterlimit:4;"
         d="M 7.027344 75.96875 L 0.0820313 32.152344 L 31.507813 10.035156 L 32.890625 49.59375 L 7.027344 75.96875 M 52.867188 95.246094 L 72.859375 62.671875 L 78.578125 20.820313 L 55.535156 49.289063 L 52.867188 95.246094 M 7.027344 75.96875 L 0.0820313 32.152344 L 55.535156 49.289063 L 52.867188 95.246094 L 7.027344 75.96875 M 32.890625 49.59375 L 72.859375 62.671875 L 78.578125 20.820313 L 31.507813 10.035156 L 32.890625 49.59375 "
         id="path12" />
    </g>
    <path
       style="fill:none;stroke-width:1.2;stroke-linecap:round;stroke-linejoin:round;stroke:rgb(49.803162%,0%,0%);stroke-opacity:1;stroke-dasharray:2.492,2.492;stroke-miterlimit:4;"
       d="M 32.171875 10.1875 L 32.066406 42.035156 "
       id="path16" />
    <path
       style="fill:none;stroke-width:1.2;stroke-linecap:round;stroke-linejoin:round;stroke:rgb(0%,0%,0%);stroke-opacity:1;stroke-miterlimit:4;"
       d="M 38.4375 11.625 L 33.972656 42.625 "
       id="path18" />
    <path
       style=" stroke:none;fill-rule:nonzero;fill:rgb(78.038025%,12.940979%,14.901733%);fill-opacity:1;"
       d="M 42.335938 49.773438 L 42.488281 51.75 L 42.480469 54.945313 L 42.335938 49.773438 "
       id="path20" />
    <path
       style="fill:none;stroke-width:0.166;stroke-linecap:round;stroke-linejoin:round;stroke:rgb(0%,0%,0%);stroke-opacity:1;stroke-miterlimit:4;"
       d="M 42.335938 49.773438 L 42.488281 51.75 "
       id="path22" />
    <path
       style=" stroke:none;fill-rule:nonzero;fill:rgb(78.038025%,12.940979%,14.901733%);fill-opacity:1;"
       d="M 42.09375 47.769531 L 42.335938 49.773438 L 42.480469 54.945313 L 42.09375 47.769531 "
       id="path24" />
    <path
       style="fill:none;stroke-width:0.166;stroke-linecap:round;stroke-linejoin:round;stroke:rgb(0%,0%,0%);stroke-opacity:1;stroke-miterlimit:4;"
       d="M 42.09375 47.769531 L 42.335938 49.773438 "
       id="path26" />
    <path
       style=" stroke:none;fill-rule:nonzero;fill:rgb(78.038025%,12.940979%,14.901733%);fill-opacity:1;"
       d="M 41.785156 45.914063 L 42.09375 47.769531 L 42.480469 54.945313 L 41.785156 45.914063 "
       id="path28" />
    <path
       style="fill:none;stroke-width:0.166;stroke-linecap:round;stroke-linejoin:round;stroke:rgb(0%,0%,0%);stroke-opacity:1;stroke-miterlimit:4;"
       d="M 41.785156 45.914063 L 42.09375 47.769531 "
       id="path30" />
    <path
       style=" stroke:none;fill-rule:nonzero;fill:rgb(78.038025%,12.940979%,14.901733%);fill-opacity:1;"
       d="M 42.488281 51.75 L 42.539063 53.53125 L 42.480469 54.945313 L 42.488281 51.75 "
       id="path32" />
    <path
       style="fill:none;stroke-width:0.166;stroke-linecap:round;stroke-linejoin:round;stroke:rgb(0%,0%,0%);stroke-opacity:1;stroke-miterlimit:4;"
       d="M 42.488281 51.75 L 42.539063 53.53125 L 42.480469 54.945313 "
       id="path34" />
    <path
       style=" stroke:none;fill-rule:nonzero;fill:rgb(78.038025%,12.940979%,14.901733%);fill-opacity:1;"
       d="M 41.433594 44.382813 L 41.785156 45.914063 L 42.480469 54.945313 L 41.433594 44.382813 "
       id="path36" />
    <path
       style="fill:none;stroke-width:0.166;stroke-linecap:round;stroke-linejoin:round;stroke:rgb(0%,0%,0%);stroke-opacity:1;stroke-miterlimit:4;"
       d="M 41.433594 44.382813 L 41.785156 45.914063 "
       id="path38" />
    <path
       style=" stroke:none;fill-rule:nonzero;fill:rgb(78.038025%,12.940979%,14.901733%);fill-opacity:1;"
       d="M 41.078125 43.320313 L 41.433594 44.382813 L 42.480469 54.945313 L 41.078125 43.320313 "
       id="path40" />
    <path
       style="fill:none;stroke-width:0.166;stroke-linecap:round;stroke-linejoin:round;stroke:rgb(0%,0%,0%);stroke-opacity:1;stroke-miterlimit:4;"
       d="M 41.078125 43.320313 L 41.433594 44.382813 "
       id="path42" />
    <path
       style=" stroke:none;fill-rule:nonzero;fill:rgb(78.038025%,12.940979%,14.901733%);fill-opacity:1;"
       d="M 40.742188 42.832031 L 41.078125 43.320313 L 42.480469 54.945313 L 40.742188 42.832031 "
       id="path44" />
    <path
       style="fill:none;stroke-width:0.166;stroke-linecap:round;stroke-linejoin:round;stroke:rgb(0%,0%,0%);stroke-opacity:1;stroke-miterlimit:4;"
       d="M 40.742188 42.832031 L 41.078125 43.320313 "
       id="path46" />
    <path
       style=" stroke:none;fill-rule:nonzero;fill:rgb(78.038025%,12.940979%,14.901733%);fill-opacity:1;"
       d="M 40.460938 42.992188 L 40.742188 42.832031 L 42.480469 54.945313 L 40.460938 42.992188 "
       id="path48" />
    <path
       style="fill:none;stroke-width:0.166;stroke-linecap:round;stroke-linejoin:round;stroke:rgb(0%,0%,0%);stroke-opacity:1;stroke-miterlimit:4;"
       d="M 40.460938 42.992188 L 40.742188 42.832031 "
       id="path50" />
    <path
       style=" stroke:none;fill-rule:nonzero;fill:rgb(78.038025%,12.940979%,14.901733%);fill-opacity:1;"
       d="M 40.269531 43.800781 L 40.460938 42.992188 L 42.480469 54.945313 L 40.269531 43.800781 "
       id="path52" />
    <path
       style="fill:none;stroke-width:0.166;stroke-linecap:round;stroke-linejoin:round;stroke:rgb(0%,0%,0%);stroke-opacity:1;stroke-miterlimit:4;"
       d="M 40.269531 43.800781 L 40.460938 42.992188 "
       id="path54" />
    <path
       style=" stroke:none;fill-rule:nonzero;fill:rgb(78.038025%,12.940979%,14.901733%);fill-opacity:1;"
       d="M 40.1875 45.199219 L 40.269531 43.800781 L 42.480469 54.945313 L 40.1875 45.199219 "
       id="path56" />
    <path
       style="fill:none;stroke-width:0.166;stroke-linecap:round;stroke-linejoin:round;stroke:rgb(0%,0%,0%);stroke-opacity:1;stroke-miterlimit:4;"
       d="M 40.1875 45.199219 L 40.269531 43.800781 "
       id="path58" />
    <path
       style=" stroke:none;fill-rule:nonzero;fill:rgb(78.038025%,12.940979%,14.901733%);fill-opacity:1;"
       d="M 40.226563 47.050781 L 40.1875 45.199219 L 42.480469 54.945313 L 40.226563 47.050781 "
       id="path60" />
    <path
       style="fill:none;stroke-width:0.166;stroke-linecap:round;stroke-linejoin:round;stroke:rgb(0%,0%,0%);stroke-opacity:1;stroke-miterlimit:4;"
       d="M 40.226563 47.050781 L 40.1875 45.199219 "
       id="path62" />
    <path
       style=" stroke:none;fill-rule:nonzero;fill:rgb(78.038025%,12.940979%,14.901733%);fill-opacity:1;"
       d="M 40.382813 49.164063 L 40.226563 47.050781 L 42.480469 54.945313 L 40.382813 49.164063 "
       id="path64" />
    <path
       style="fill:none;stroke-width:0.166;stroke-linecap:round;stroke-linejoin:round;stroke:rgb(0%,0%,0%);stroke-opacity:1;stroke-miterlimit:4;"
       d="M 40.382813 49.164063 L 40.226563 47.050781 "
       id="path66" />
    <path
       style=" stroke:none;fill-rule:nonzero;fill:rgb(78.038025%,12.940979%,14.901733%);fill-opacity:1;"
       d="M 40.644531 51.3125 L 40.382813 49.164063 L 42.480469 54.945313 L 40.644531 51.3125 "
       id="path68" />
    <path
       style="fill:none;stroke-width:0.166;stroke-linecap:round;stroke-linejoin:round;stroke:rgb(0%,0%,0%);stroke-opacity:1;stroke-miterlimit:4;"
       d="M 40.644531 51.3125 L 40.382813 49.164063 "
       id="path70" />
    <path
       style=" stroke:none;fill-rule:nonzero;fill:rgb(78.038025%,12.940979%,14.901733%);fill-opacity:1;"
       d="M 40.980469 53.265625 L 40.644531 51.3125 L 42.480469 54.945313 L 40.980469 53.265625 "
       id="path72" />
    <path
       style="fill:none;stroke-width:0.166;stroke-linecap:round;stroke-linejoin:round;stroke:rgb(0%,0%,0%);stroke-opacity:1;stroke-miterlimit:4;"
       d="M 40.980469 53.265625 L 40.644531 51.3125 "
       id="path74" />
    <path
       style=" stroke:none;fill-rule:nonzero;fill:rgb(78.038025%,12.940979%,14.901733%);fill-opacity:1;"
       d="M 41.351563 54.816406 L 40.980469 53.265625 L 42.480469 54.945313 L 41.351563 54.816406 "
       id="path76" />
    <path
       style="fill:none;stroke-width:0.166;stroke-linecap:round;stroke-linejoin:round;stroke:rgb(0%,0%,0%);stroke-opacity:1;stroke-miterlimit:4;"
       d="M 41.351563 54.816406 L 40.980469 53.265625 "
       id="path78" />
    <path
       style=" stroke:none;fill-rule:nonzero;fill:rgb(78.038025%,12.940979%,14.901733%);fill-opacity:1;"
       d="M 41.722656 55.808594 L 41.351563 54.816406 L 42.480469 54.945313 L 41.722656 55.808594 "
       id="path80" />
    <path
       style="fill:none;stroke-width:0.166;stroke-linecap:round;stroke-linejoin:round;stroke:rgb(0%,0%,0%);stroke-opacity:1;stroke-miterlimit:4;"
       d="M 41.722656 55.808594 L 41.351563 54.816406 "
       id="path82" />
    <path
       style=" stroke:none;fill-rule:nonzero;fill:rgb(78.038025%,12.940979%,14.901733%);fill-opacity:1;"
       d="M 42.054688 56.160156 L 41.722656 55.808594 L 42.480469 54.945313 L 42.054688 56.160156 "
       id="path84" />
    <path
       style="fill:none;stroke-width:0.166;stroke-linecap:round;stroke-linejoin:round;stroke:rgb(0%,0%,0%);stroke-opacity:1;stroke-miterlimit:4;"
       d="M 42.054688 56.160156 L 41.722656 55.808594 "
       id="path86" />
    <path
       style=" stroke:none;fill-rule:nonzero;fill:rgb(78.038025%,12.940979%,14.901733%);fill-opacity:1;"
       d="M 42.480469 54.945313 L 42.3125 55.855469 L 42.054688 56.160156 L 42.480469 54.945313 "
       id="path88" />
    <path
       style="fill:none;stroke-width:0.166;stroke-linecap:round;stroke-linejoin:round;stroke:rgb(0%,0%,0%);stroke-opacity:1;stroke-miterlimit:4;"
       d="M 42.480469 54.945313 L 42.3125 55.855469 L 42.054688 56.160156 "
       id="path90" />
    <path
       style="fill:none;stroke-width:0.332;stroke-linecap:round;stroke-linejoin:round;stroke:rgb(29.019165%,29.019165%,29.019165%);stroke-opacity:1;stroke-miterlimit:4;"
       d="M 41.394531 49.480469 L 59.378906 47.4375 "
       id="path92" />
    <path
       style="fill:none;stroke-width:0.332;stroke-linecap:round;stroke-linejoin:round;stroke:rgb(49.803162%,49.803162%,49.803162%);stroke-opacity:1;stroke-miterlimit:4;"
       d="M 41.394531 49.480469 L 61.039063 43.917969 "
       id="path94" />
    <path
       style="fill:none;stroke-width:0.332;stroke-linecap:round;stroke-linejoin:round;stroke:rgb(59.214783%,59.214783%,59.214783%);stroke-opacity:1;stroke-miterlimit:4;"
       d="M 41.394531 49.480469 L 62.726563 40.078125 "
       id="path96" />
    <path
       style="fill:none;stroke-width:0.831;stroke-linecap:round;stroke-linejoin:round;stroke:rgb(0%,0%,0%);stroke-opacity:1;stroke-miterlimit:4;"
       d="M 41.394531 49.480469 L 41.394531 49.480469 "
       id="path98" />
    <path
       style="fill:none;stroke-width:2.492;stroke-linecap:round;stroke-linejoin:round;stroke:rgb(0%,0%,0%);stroke-opacity:1;stroke-miterlimit:4;"
       d="M 55.164063 19.355469 L 55.164063 19.355469 "
       id="path100" />
    <path
       style="fill:none;stroke-width:4.8;stroke-linecap:round;stroke-linejoin:round;stroke:rgb(0%,0%,0%);stroke-opacity:1;stroke-miterlimit:4;"
       d="M 55.164063 19.355469 L 55.164063 19.355469 "
       id="path102" />
    <path
       style="fill:none;stroke-width:2.4;stroke-linecap:round;stroke-linejoin:round;stroke:rgb(94.116211%,34.117126%,27.058411%);stroke-opacity:1;stroke-miterlimit:4;"
       d="M 62.472656 19.742188 L 62.472656 19.742188 M 69.84375 20.128906 L 69.84375 20.128906 "
       id="path104" />
    <path
       style="fill:none;stroke-width:2.4;stroke-linecap:round;stroke-linejoin:round;stroke:rgb(0%,0%,0%);stroke-opacity:1;stroke-miterlimit:4;"
       d="M 52.835938 21.566406 L 52.835938 21.566406 "
       id="path106" />
    <path
       style="fill:none;stroke-width:2.4;stroke-linecap:round;stroke-linejoin:round;stroke:rgb(94.116211%,34.117126%,27.058411%);stroke-opacity:1;stroke-miterlimit:4;"
       d="M 64.160156 22.902344 L 64.160156 22.902344 M 70.441406 22.996094 L 70.441406 22.996094 "
       id="path108" />
    <path
       style="fill:none;stroke-width:2.4;stroke-linecap:round;stroke-linejoin:round;stroke:rgb(0%,0%,0%);stroke-opacity:1;stroke-miterlimit:4;"
       d="M 56.726563 23.972656 L 56.726563 23.972656 M 46.597656 24.417969 L 46.597656 24.417969 "
       id="path110" />
    <path
       style="fill:none;stroke-width:2.4;stroke-linecap:round;stroke-linejoin:round;stroke:rgb(94.116211%,34.117126%,27.058411%);stroke-opacity:1;stroke-miterlimit:4;"
       d="M 72.097656 24.820313 L 72.097656 24.820313 "
       id="path112" />
    <path
       style="fill:none;stroke-width:2.4;stroke-linecap:round;stroke-linejoin:round;stroke:rgb(0%,0%,0%);stroke-opacity:1;stroke-miterlimit:4;"
       d="M 58.445313 29.035156 L 58.445313 29.035156 "
       id="path114" />
    <g
       clip-path="url(#clip2)"
       clip-rule="nonzero"
       id="g118">
      <path
         style="fill:none;stroke-width:0.166;stroke-linecap:round;stroke-linejoin:round;stroke:rgb(0%,0%,0%);stroke-opacity:1;stroke-miterlimit:4;"
         d="M 52.867188 95.246094 L 72.859375 62.671875 L 78.578125 20.820313 L 55.535156 49.289063 L 52.867188 95.246094 M 7.027344 75.96875 L 0.0820313 32.152344 L 55.535156 49.289063 L 52.867188 95.246094 L 7.027344 75.96875 "
         id="path116" />
    </g>
    <path
       style=" stroke:none;fill-rule:nonzero;fill:rgb(12.940979%,11.764526%,11.764526%);fill-opacity:1;"
       d="M 21.4375 26.136719 C 22.875 26.136719 23.1875 26.496094 23.1875 26.949219 C 23.1875 27.339844 22.90625 28.230469 21.625 28.277344 C 21.25 28.292969 21 28.558594 21 28.636719 C 21 28.683594 21.03125 28.683594 21.046875 28.683594 C 21.28125 28.714844 21.4375 28.746094 21.90625 29.746094 C 22.25 30.496094 22.453125 30.808594 22.875 30.808594 C 23.75 30.808594 24.609375 29.917969 24.609375 29.761719 C 24.609375 29.714844 24.5625 29.714844 24.53125 29.714844 C 24.40625 29.714844 24.125 29.855469 24.015625 30.011719 C 23.875 30.199219 23.71875 30.402344 23.359375 30.402344 C 23 30.402344 22.75 29.902344 22.515625 29.371094 C 22.28125 28.902344 22.1875 28.714844 22.03125 28.527344 C 23.1875 28.089844 23.8125 27.324219 23.8125 26.636719 C 23.8125 25.730469 22.609375 25.730469 21.453125 25.730469 C 20.65625 25.730469 20.171875 25.730469 19.5 26.074219 C 18.609375 26.527344 18.546875 27.074219 18.546875 27.074219 C 18.546875 27.105469 18.546875 27.136719 18.609375 27.136719 C 18.75 27.136719 19.109375 26.964844 19.171875 26.777344 C 19.265625 26.496094 19.375 26.183594 20.421875 26.136719 C 20.34375 26.980469 20.21875 28.464844 19.3125 30.636719 C 19.265625 30.746094 19.265625 30.746094 19.265625 30.761719 C 19.265625 30.808594 19.3125 30.808594 19.34375 30.808594 C 19.5 30.808594 19.78125 30.652344 19.875 30.511719 C 19.875 30.480469 20.03125 30.152344 20.25 29.527344 C 20.609375 28.527344 20.90625 27.355469 21.03125 26.136719 Z M 21.4375 26.136719 "
       id="path120" />
    <path
       style=" stroke:none;fill-rule:nonzero;fill:rgb(12.940979%,11.764526%,11.764526%);fill-opacity:1;"
       d="M 24.855469 32.453125 L 25.855469 32.453125 L 25.855469 32.40625 C 25.683594 32.40625 25.558594 32.390625 25.558594 32.28125 C 25.558594 32.21875 25.605469 32.09375 25.621094 32.015625 L 26.136719 30.15625 C 26.152344 30.09375 26.167969 30.03125 26.136719 30.03125 C 26.105469 30.03125 25.605469 30.125 25.449219 30.15625 L 25.449219 30.21875 L 25.652344 30.203125 C 25.683594 30.203125 25.777344 30.203125 25.777344 30.328125 C 25.777344 30.34375 25.761719 30.40625 25.761719 30.4375 L 25.261719 32.203125 C 25.214844 32.375 25.074219 32.375 24.855469 32.40625 Z M 24.855469 32.453125 "
       id="path122" />
    <path
       style=" stroke:none;fill-rule:nonzero;fill:rgb(86.273193%,14.901733%,13.725281%);fill-opacity:1;"
       d="M 47.4375 31.335938 C 48.875 31.335938 49.1875 31.695313 49.1875 32.148438 C 49.1875 32.539063 48.90625 33.429688 47.625 33.476563 C 47.25 33.492188 47 33.757813 47 33.835938 C 47 33.882813 47.03125 33.882813 47.046875 33.882813 C 47.28125 33.914063 47.4375 33.945313 47.90625 34.945313 C 48.25 35.695313 48.453125 36.007813 48.875 36.007813 C 49.75 36.007813 50.609375 35.117188 50.609375 34.960938 C 50.609375 34.914063 50.5625 34.914063 50.53125 34.914063 C 50.40625 34.914063 50.125 35.054688 50.015625 35.210938 C 49.875 35.398438 49.71875 35.601563 49.359375 35.601563 C 49 35.601563 48.75 35.101563 48.515625 34.570313 C 48.28125 34.101563 48.1875 33.914063 48.03125 33.726563 C 49.1875 33.289063 49.8125 32.523438 49.8125 31.835938 C 49.8125 30.929688 48.609375 30.929688 47.453125 30.929688 C 46.65625 30.929688 46.171875 30.929688 45.5 31.273438 C 44.609375 31.726563 44.546875 32.273438 44.546875 32.273438 C 44.546875 32.304688 44.546875 32.335938 44.609375 32.335938 C 44.75 32.335938 45.109375 32.164063 45.171875 31.976563 C 45.265625 31.695313 45.375 31.382813 46.421875 31.335938 C 46.34375 32.179688 46.21875 33.664063 45.3125 35.835938 C 45.265625 35.945313 45.265625 35.945313 45.265625 35.960938 C 45.265625 36.007813 45.3125 36.007813 45.34375 36.007813 C 45.5 36.007813 45.78125 35.851563 45.875 35.710938 C 45.875 35.679688 46.03125 35.351563 46.25 34.726563 C 46.609375 33.726563 46.90625 32.554688 47.03125 31.335938 Z M 47.4375 31.335938 "
       id="path124" />
    <path
       style=" stroke:none;fill-rule:nonzero;fill:rgb(86.273193%,14.901733%,13.725281%);fill-opacity:1;"
       d="M 52.121094 37.152344 C 52.058594 37.277344 51.996094 37.386719 51.761719 37.386719 L 51.089844 37.386719 L 51.089844 37.355469 L 51.777344 36.667969 C 52.214844 36.230469 52.308594 36.058594 52.308594 35.824219 C 52.308594 35.558594 52.105469 35.230469 51.730469 35.230469 C 51.636719 35.230469 51.167969 35.230469 50.964844 35.792969 L 51.042969 35.824219 C 51.089844 35.730469 51.230469 35.480469 51.558594 35.480469 C 51.839844 35.480469 51.996094 35.699219 51.996094 35.917969 C 51.996094 36.042969 51.980469 36.246094 51.480469 36.792969 L 50.730469 37.589844 L 50.730469 37.652344 L 51.996094 37.652344 L 52.183594 37.183594 Z M 52.121094 37.152344 "
       id="path126" />
  </g>
</svg>
