<?xml version="1.0" encoding="UTF-8" standalone="no"?>
<svg
   xmlns:dc="http://purl.org/dc/elements/1.1/"
   xmlns:cc="http://creativecommons.org/ns#"
   xmlns:rdf="http://www.w3.org/1999/02/22-rdf-syntax-ns#"
   xmlns:svg="http://www.w3.org/2000/svg"
   xmlns="http://www.w3.org/2000/svg"
   xmlns:sodipodi="http://sodipodi.sourceforge.net/DTD/sodipodi-0.dtd"
   xmlns:inkscape="http://www.inkscape.org/namespaces/inkscape"
   width="78.662102pt"
   height="96.038109pt"
   viewBox="0 0 78.662102 96.038109"
   version="1.2"
   id="svg133"
   sodipodi:docname="fixed_increment_06.svg"
   inkscape:version="0.92.4 (5da689c313, 2019-01-14)">
  <metadata
     id="metadata137">
    <rdf:RDF>
      <cc:Work
         rdf:about="">
        <dc:format>image/svg+xml</dc:format>
        <dc:type
           rdf:resource="http://purl.org/dc/dcmitype/StillImage" />
        <dc:title></dc:title>
      </cc:Work>
    </rdf:RDF>
  </metadata>
  <sodipodi:namedview
     pagecolor="#ffffff"
     bordercolor="#666666"
     borderopacity="1"
     objecttolerance="10"
     gridtolerance="10"
     guidetolerance="10"
     inkscape:pageopacity="0"
     inkscape:pageshadow="2"
     inkscape:window-width="661"
     inkscape:window-height="480"
     id="namedview135"
     showgrid="false"
     inkscape:zoom="1.8430184"
     inkscape:cx="52.441401"
     inkscape:cy="64.025406"
     inkscape:window-x="0"
     inkscape:window-y="0"
     inkscape:window-maximized="0"
     inkscape:current-layer="svg133" />
  <defs
     id="defs8">
    <clipPath
       id="clip1">
      <path
         d="M 0 10 L 78.660156 10 L 78.660156 96.039063 L 0 96.039063 Z M 0 10 "
         id="path2" />
    </clipPath>
    <clipPath
       id="clip2">
      <path
         d="M 0 21 L 78.660156 21 L 78.660156 96.039063 L 0 96.039063 Z M 0 21 "
         id="path5" />
    </clipPath>
  </defs>
  <g
     id="surface40">
    <path
       style=" stroke:none;fill-rule:nonzero;fill:rgb(0%,0%,0%);fill-opacity:1;"
       d="M 42.238281 0 C 38.957031 0.203125 36.957031 2.921875 36.957031 5.140625 C 36.957031 6.90625 38.019531 7.484375 38.894531 7.484375 C 40.738281 7.484375 41.613281 5.65625 41.613281 4.5625 C 41.613281 3.03125 40.519531 2.578125 39.785156 2.578125 C 39.613281 2.578125 39.441406 2.609375 39.285156 2.640625 C 39.128906 2.671875 38.972656 2.734375 38.816406 2.8125 L 38.785156 2.78125 C 39.035156 2.25 40.347656 0.421875 42.253906 0.171875 Z M 39.378906 2.96875 C 40.191406 2.96875 40.644531 3.484375 40.644531 4.375 C 40.644531 5.34375 40.066406 7.203125 38.832031 7.203125 C 37.769531 7.203125 37.769531 5.984375 37.769531 5.71875 C 37.769531 5.53125 37.878906 2.96875 39.378906 2.96875 Z M 39.378906 2.96875 "
       id="path10" />
    <g
       clip-path="url(#clip1)"
       clip-rule="nonzero"
       id="g14">
      <path
         style="fill:none;stroke-width:0.166;stroke-linecap:round;stroke-linejoin:round;stroke:rgb(0%,0%,0%);stroke-opacity:1;stroke-miterlimit:4;"
         d="M 7.023438 76.675781 L 0.0820313 32.859375 L 31.507813 10.742188 L 32.890625 50.300781 L 7.023438 76.675781 M 52.867188 95.953125 L 72.859375 63.378906 L 78.578125 21.527344 L 55.535156 49.996094 L 52.867188 95.953125 M 7.023438 76.675781 L 0.0820313 32.859375 L 55.535156 49.996094 L 52.867188 95.953125 L 7.023438 76.675781 M 32.890625 50.300781 L 72.859375 63.378906 L 78.578125 21.527344 L 31.507813 10.742188 L 32.890625 50.300781 "
         id="path12" />
    </g>
    <path
       style=" stroke:none;fill-rule:nonzero;fill:rgb(18.823242%,18.823242%,18.823242%);fill-opacity:1;"
       d="M 40.96875 49.070313 L 39.960938 50.679688 L 38.414063 53.628906 L 40.96875 49.070313 "
       id="path16" />
    <path
       style="fill:none;stroke-width:0.166;stroke-linecap:round;stroke-linejoin:round;stroke:rgb(0%,0%,0%);stroke-opacity:1;stroke-miterlimit:4;"
       d="M 40.96875 49.070313 L 39.960938 50.679688 "
       id="path18" />
    <path
       style=" stroke:none;fill-rule:nonzero;fill:rgb(18.823242%,18.823242%,18.823242%);fill-opacity:1;"
       d="M 42.023438 47.566406 L 40.96875 49.070313 L 38.414063 53.628906 L 42.023438 47.566406 "
       id="path20" />
    <path
       style="fill:none;stroke-width:0.166;stroke-linecap:round;stroke-linejoin:round;stroke:rgb(0%,0%,0%);stroke-opacity:1;stroke-miterlimit:4;"
       d="M 42.023438 47.566406 L 40.96875 49.070313 "
       id="path22" />
    <path
       style=" stroke:none;fill-rule:nonzero;fill:rgb(18.823242%,18.823242%,18.823242%);fill-opacity:1;"
       d="M 39.960938 50.679688 L 39.082031 52.242188 L 38.414063 53.628906 L 39.960938 50.679688 "
       id="path24" />
    <path
       style="fill:none;stroke-width:0.166;stroke-linecap:round;stroke-linejoin:round;stroke:rgb(0%,0%,0%);stroke-opacity:1;stroke-miterlimit:4;"
       d="M 39.960938 50.679688 L 39.082031 52.242188 L 38.414063 53.628906 "
       id="path26" />
    <path
       style=" stroke:none;fill-rule:nonzero;fill:rgb(18.823242%,18.823242%,18.823242%);fill-opacity:1;"
       d="M 43.027344 46.296875 L 42.023438 47.566406 L 38.414063 53.628906 L 43.027344 46.296875 "
       id="path28" />
    <path
       style="fill:none;stroke-width:0.166;stroke-linecap:round;stroke-linejoin:round;stroke:rgb(0%,0%,0%);stroke-opacity:1;stroke-miterlimit:4;"
       d="M 43.027344 46.296875 L 42.023438 47.566406 "
       id="path30" />
    <path
       style=" stroke:none;fill-rule:nonzero;fill:rgb(18.823242%,18.823242%,18.823242%);fill-opacity:1;"
       d="M 43.886719 45.378906 L 43.027344 46.296875 L 38.414063 53.628906 L 43.886719 45.378906 "
       id="path32" />
    <path
       style="fill:none;stroke-width:0.166;stroke-linecap:round;stroke-linejoin:round;stroke:rgb(0%,0%,0%);stroke-opacity:1;stroke-miterlimit:4;"
       d="M 43.886719 45.378906 L 43.027344 46.296875 "
       id="path34" />
    <path
       style=" stroke:none;fill-rule:nonzero;fill:rgb(18.823242%,18.823242%,18.823242%);fill-opacity:1;"
       d="M 44.527344 44.910156 L 43.886719 45.378906 L 38.414063 53.628906 L 44.527344 44.910156 "
       id="path36" />
    <path
       style="fill:none;stroke-width:0.166;stroke-linecap:round;stroke-linejoin:round;stroke:rgb(0%,0%,0%);stroke-opacity:1;stroke-miterlimit:4;"
       d="M 44.527344 44.910156 L 43.886719 45.378906 "
       id="path38" />
    <path
       style=" stroke:none;fill-rule:nonzero;fill:rgb(18.823242%,18.823242%,18.823242%);fill-opacity:1;"
       d="M 44.871094 44.949219 L 44.527344 44.910156 L 38.414063 53.628906 L 44.871094 44.949219 "
       id="path40" />
    <path
       style="fill:none;stroke-width:0.166;stroke-linecap:round;stroke-linejoin:round;stroke:rgb(0%,0%,0%);stroke-opacity:1;stroke-miterlimit:4;"
       d="M 44.871094 44.949219 L 44.527344 44.910156 "
       id="path42" />
    <path
       style=" stroke:none;fill-rule:nonzero;fill:rgb(18.823242%,18.823242%,18.823242%);fill-opacity:1;"
       d="M 44.878906 45.511719 L 44.871094 44.949219 L 38.414063 53.628906 L 44.878906 45.511719 "
       id="path44" />
    <path
       style="fill:none;stroke-width:0.166;stroke-linecap:round;stroke-linejoin:round;stroke:rgb(0%,0%,0%);stroke-opacity:1;stroke-miterlimit:4;"
       d="M 44.878906 45.511719 L 44.871094 44.949219 "
       id="path46" />
    <path
       style=" stroke:none;fill-rule:nonzero;fill:rgb(18.823242%,18.823242%,18.823242%);fill-opacity:1;"
       d="M 44.535156 46.554688 L 44.878906 45.511719 L 38.414063 53.628906 L 44.535156 46.554688 "
       id="path48" />
    <path
       style="fill:none;stroke-width:0.166;stroke-linecap:round;stroke-linejoin:round;stroke:rgb(0%,0%,0%);stroke-opacity:1;stroke-miterlimit:4;"
       d="M 44.535156 46.554688 L 44.878906 45.511719 "
       id="path50" />
    <path
       style=" stroke:none;fill-rule:nonzero;fill:rgb(18.823242%,18.823242%,18.823242%);fill-opacity:1;"
       d="M 43.867188 47.984375 L 44.535156 46.554688 L 38.414063 53.628906 L 43.867188 47.984375 "
       id="path52" />
    <path
       style="fill:none;stroke-width:0.166;stroke-linecap:round;stroke-linejoin:round;stroke:rgb(0%,0%,0%);stroke-opacity:1;stroke-miterlimit:4;"
       d="M 43.867188 47.984375 L 44.535156 46.554688 "
       id="path54" />
    <path
       style=" stroke:none;fill-rule:nonzero;fill:rgb(18.823242%,18.823242%,18.823242%);fill-opacity:1;"
       d="M 42.941406 49.65625 L 43.867188 47.984375 L 38.414063 53.628906 L 42.941406 49.65625 "
       id="path56" />
    <path
       style="fill:none;stroke-width:0.166;stroke-linecap:round;stroke-linejoin:round;stroke:rgb(0%,0%,0%);stroke-opacity:1;stroke-miterlimit:4;"
       d="M 42.941406 49.65625 L 43.867188 47.984375 "
       id="path58" />
    <path
       style=" stroke:none;fill-rule:nonzero;fill:rgb(18.823242%,18.823242%,18.823242%);fill-opacity:1;"
       d="M 41.855469 51.386719 L 42.941406 49.65625 L 38.414063 53.628906 L 41.855469 51.386719 "
       id="path60" />
    <path
       style="fill:none;stroke-width:0.166;stroke-linecap:round;stroke-linejoin:round;stroke:rgb(0%,0%,0%);stroke-opacity:1;stroke-miterlimit:4;"
       d="M 41.855469 51.386719 L 42.941406 49.65625 "
       id="path62" />
    <path
       style=" stroke:none;fill-rule:nonzero;fill:rgb(18.823242%,18.823242%,18.823242%);fill-opacity:1;"
       d="M 40.722656 52.988281 L 41.855469 51.386719 L 38.414063 53.628906 L 40.722656 52.988281 "
       id="path64" />
    <path
       style="fill:none;stroke-width:0.166;stroke-linecap:round;stroke-linejoin:round;stroke:rgb(0%,0%,0%);stroke-opacity:1;stroke-miterlimit:4;"
       d="M 40.722656 52.988281 L 41.855469 51.386719 "
       id="path66" />
    <path
       style=" stroke:none;fill-rule:nonzero;fill:rgb(18.823242%,18.823242%,18.823242%);fill-opacity:1;"
       d="M 39.671875 54.292969 L 40.722656 52.988281 L 38.414063 53.628906 L 39.671875 54.292969 "
       id="path68" />
    <path
       style="fill:none;stroke-width:0.166;stroke-linecap:round;stroke-linejoin:round;stroke:rgb(0%,0%,0%);stroke-opacity:1;stroke-miterlimit:4;"
       d="M 39.671875 54.292969 L 40.722656 52.988281 "
       id="path70" />
    <path
       style=" stroke:none;fill-rule:nonzero;fill:rgb(18.823242%,18.823242%,18.823242%);fill-opacity:1;"
       d="M 38.8125 55.167969 L 39.671875 54.292969 L 38.414063 53.628906 L 38.8125 55.167969 "
       id="path72" />
    <path
       style="fill:none;stroke-width:0.166;stroke-linecap:round;stroke-linejoin:round;stroke:rgb(0%,0%,0%);stroke-opacity:1;stroke-miterlimit:4;"
       d="M 38.8125 55.167969 L 39.671875 54.292969 "
       id="path74" />
    <path
       style=" stroke:none;fill-rule:nonzero;fill:rgb(18.823242%,18.823242%,18.823242%);fill-opacity:1;"
       d="M 38.222656 55.53125 L 38.8125 55.167969 L 38.414063 53.628906 L 38.222656 55.53125 "
       id="path76" />
    <path
       style="fill:none;stroke-width:0.166;stroke-linecap:round;stroke-linejoin:round;stroke:rgb(0%,0%,0%);stroke-opacity:1;stroke-miterlimit:4;"
       d="M 38.222656 55.53125 L 38.8125 55.167969 "
       id="path78" />
    <path
       style=" stroke:none;fill-rule:nonzero;fill:rgb(18.823242%,18.823242%,18.823242%);fill-opacity:1;"
       d="M 37.953125 55.367188 L 38.222656 55.53125 L 38.414063 53.628906 L 37.953125 55.367188 "
       id="path80" />
    <path
       style="fill:none;stroke-width:0.166;stroke-linecap:round;stroke-linejoin:round;stroke:rgb(0%,0%,0%);stroke-opacity:1;stroke-miterlimit:4;"
       d="M 37.953125 55.367188 L 38.222656 55.53125 "
       id="path82" />
    <path
       style=" stroke:none;fill-rule:nonzero;fill:rgb(18.823242%,18.823242%,18.823242%);fill-opacity:1;"
       d="M 38.414063 53.628906 L 38.027344 54.707031 L 37.953125 55.367188 L 38.414063 53.628906 "
       id="path84" />
    <path
       style="fill:none;stroke-width:0.166;stroke-linecap:round;stroke-linejoin:round;stroke:rgb(0%,0%,0%);stroke-opacity:1;stroke-miterlimit:4;"
       d="M 38.414063 53.628906 L 38.027344 54.707031 L 37.953125 55.367188 "
       id="path86" />
    <path
       style="fill:none;stroke-width:1.2;stroke-linecap:round;stroke-linejoin:round;stroke:rgb(49.803162%,0%,0%);stroke-opacity:1;stroke-dasharray:2.492,2.492;stroke-miterlimit:4;"
       d="M 43.550781 46.292969 L 53.535156 15.789063 "
       id="path88" />
    <path
       style="fill:none;stroke-width:0.332;stroke-linecap:round;stroke-linejoin:round;stroke:rgb(18.823242%,18.823242%,18.823242%);stroke-opacity:1;stroke-miterlimit:4;"
       d="M 42.28125 50.703125 L 54.519531 57.878906 M 42.386719 50.535156 L 56.699219 55.609375 "
       id="path90" />
    <path
       style="fill:none;stroke-width:1.2;stroke-linecap:round;stroke-linejoin:round;stroke:rgb(0%,0%,0%);stroke-opacity:1;stroke-miterlimit:4;"
       d="M 60.574219 17.402344 L 54.121094 49.558594 "
       id="path92" />
    <path
       style="fill:none;stroke-width:0.332;stroke-linecap:round;stroke-linejoin:round;stroke:rgb(18.823242%,18.823242%,18.823242%);stroke-opacity:1;stroke-miterlimit:4;"
       d="M 42.542969 50.289063 L 57.726563 51.644531 "
       id="path94" />
    <path
       style="fill:none;stroke-width:0.332;stroke-linecap:round;stroke-linejoin:round;stroke:rgb(29.019165%,29.019165%,29.019165%);stroke-opacity:1;stroke-miterlimit:4;"
       d="M 42.703125 50.035156 L 59.378906 48.144531 "
       id="path96" />
    <path
       style="fill:none;stroke-width:0.332;stroke-linecap:round;stroke-linejoin:round;stroke:rgb(49.803162%,49.803162%,49.803162%);stroke-opacity:1;stroke-miterlimit:4;"
       d="M 42.871094 49.769531 L 61.039063 44.625 "
       id="path98" />
    <path
       style="fill:none;stroke-width:0.332;stroke-linecap:round;stroke-linejoin:round;stroke:rgb(59.214783%,59.214783%,59.214783%);stroke-opacity:1;stroke-miterlimit:4;"
       d="M 43.050781 49.457031 L 62.726563 40.785156 "
       id="path100" />
    <path
       style="fill:none;stroke-width:0.831;stroke-linecap:round;stroke-linejoin:round;stroke:rgb(0%,0%,0%);stroke-opacity:1;stroke-miterlimit:4;"
       d="M 41.394531 50.1875 L 41.394531 50.1875 "
       id="path102" />
    <path
       style="fill:none;stroke-width:2.4;stroke-linecap:round;stroke-linejoin:round;stroke:rgb(0%,0%,0%);stroke-opacity:1;stroke-miterlimit:4;"
       d="M 55.164063 20.0625 L 55.164063 20.0625 "
       id="path104" />
    <path
       style="fill:none;stroke-width:2.4;stroke-linecap:round;stroke-linejoin:round;stroke:rgb(94.116211%,34.117126%,27.058411%);stroke-opacity:1;stroke-miterlimit:4;"
       d="M 62.472656 20.449219 L 62.472656 20.449219 M 69.84375 20.835938 L 69.84375 20.835938 "
       id="path106" />
    <path
       style="fill:none;stroke-width:2.4;stroke-linecap:round;stroke-linejoin:round;stroke:rgb(0%,0%,0%);stroke-opacity:1;stroke-miterlimit:4;"
       d="M 52.835938 22.273438 L 52.835938 22.273438 "
       id="path108" />
    <path
       style="fill:none;stroke-width:2.4;stroke-linecap:round;stroke-linejoin:round;stroke:rgb(94.116211%,34.117126%,27.058411%);stroke-opacity:1;stroke-miterlimit:4;"
       d="M 64.160156 23.609375 L 64.160156 23.609375 M 70.441406 23.703125 L 70.441406 23.703125 "
       id="path110" />
    <path
       style="fill:none;stroke-width:2.4;stroke-linecap:round;stroke-linejoin:round;stroke:rgb(0%,0%,0%);stroke-opacity:1;stroke-miterlimit:4;"
       d="M 56.726563 24.679688 L 56.726563 24.679688 M 46.597656 25.125 L 46.597656 25.125 "
       id="path112" />
    <path
       style="fill:none;stroke-width:2.4;stroke-linecap:round;stroke-linejoin:round;stroke:rgb(94.116211%,34.117126%,27.058411%);stroke-opacity:1;stroke-miterlimit:4;"
       d="M 72.097656 25.527344 L 72.097656 25.527344 "
       id="path114" />
    <path
       style="fill:none;stroke-width:2.492;stroke-linecap:round;stroke-linejoin:round;stroke:rgb(0%,0%,0%);stroke-opacity:1;stroke-miterlimit:4;"
       d="M 58.445313 29.742188 L 58.445313 29.742188 "
       id="path116" />
    <path
       style="fill:none;stroke-width:4.8;stroke-linecap:round;stroke-linejoin:round;stroke:rgb(0%,0%,0%);stroke-opacity:1;stroke-miterlimit:4;"
       d="M 58.445313 29.742188 L 58.445313 29.742188 "
       id="path118" />
    <g
       clip-path="url(#clip2)"
       clip-rule="nonzero"
       id="g122">
      <path
         style="fill:none;stroke-width:0.166;stroke-linecap:round;stroke-linejoin:round;stroke:rgb(0%,0%,0%);stroke-opacity:1;stroke-miterlimit:4;"
         d="M 52.867188 95.953125 L 72.859375 63.378906 L 78.578125 21.527344 L 55.535156 49.996094 L 52.867188 95.953125 M 7.023438 76.675781 L 0.0820313 32.859375 L 55.535156 49.996094 L 52.867188 95.953125 L 7.023438 76.675781 "
         id="path120" />
    </g>
    <path
       style=" stroke:none;fill-rule:nonzero;fill:rgb(12.940979%,11.764526%,11.764526%);fill-opacity:1;"
       d="M 40.839844 26.609375 C 42.277344 26.609375 42.589844 26.96875 42.589844 27.421875 C 42.589844 27.8125 42.308594 28.703125 41.027344 28.75 C 40.652344 28.765625 40.402344 29.03125 40.402344 29.109375 C 40.402344 29.15625 40.433594 29.15625 40.449219 29.15625 C 40.683594 29.1875 40.839844 29.21875 41.308594 30.21875 C 41.652344 30.96875 41.855469 31.28125 42.277344 31.28125 C 43.152344 31.28125 44.011719 30.390625 44.011719 30.234375 C 44.011719 30.1875 43.964844 30.1875 43.933594 30.1875 C 43.808594 30.1875 43.527344 30.328125 43.417969 30.484375 C 43.277344 30.671875 43.121094 30.875 42.761719 30.875 C 42.402344 30.875 42.152344 30.375 41.917969 29.84375 C 41.683594 29.375 41.589844 29.1875 41.433594 29 C 42.589844 28.5625 43.214844 27.796875 43.214844 27.109375 C 43.214844 26.203125 42.011719 26.203125 40.855469 26.203125 C 40.058594 26.203125 39.574219 26.203125 38.902344 26.546875 C 38.011719 27 37.949219 27.546875 37.949219 27.546875 C 37.949219 27.578125 37.949219 27.609375 38.011719 27.609375 C 38.152344 27.609375 38.511719 27.4375 38.574219 27.25 C 38.667969 26.96875 38.777344 26.65625 39.824219 26.609375 C 39.746094 27.453125 39.621094 28.9375 38.714844 31.109375 C 38.667969 31.21875 38.667969 31.21875 38.667969 31.234375 C 38.667969 31.28125 38.714844 31.28125 38.746094 31.28125 C 38.902344 31.28125 39.183594 31.125 39.277344 30.984375 C 39.277344 30.953125 39.433594 30.625 39.652344 30 C 40.011719 29 40.308594 27.828125 40.433594 26.609375 Z M 40.839844 26.609375 "
       id="path124" />
    <path
       style=" stroke:none;fill-rule:nonzero;fill:rgb(12.940979%,11.764526%,11.764526%);fill-opacity:1;"
       d="M 44.253906 32.921875 L 45.253906 32.921875 L 45.253906 32.875 C 45.082031 32.875 44.957031 32.859375 44.957031 32.75 C 44.957031 32.6875 45.003906 32.5625 45.019531 32.484375 L 45.535156 30.625 C 45.550781 30.5625 45.566406 30.5 45.535156 30.5 C 45.503906 30.5 45.003906 30.59375 44.847656 30.625 L 44.847656 30.6875 L 45.050781 30.671875 C 45.082031 30.671875 45.175781 30.671875 45.175781 30.796875 C 45.175781 30.8125 45.160156 30.875 45.160156 30.90625 L 44.660156 32.671875 C 44.613281 32.84375 44.472656 32.84375 44.253906 32.875 Z M 44.253906 32.921875 "
       id="path126" />
    <path
       style=" stroke:none;fill-rule:nonzero;fill:rgb(86.273193%,14.901733%,13.725281%);fill-opacity:1;"
       d="M 65.839844 25.808594 C 67.277344 25.808594 67.589844 26.167969 67.589844 26.621094 C 67.589844 27.011719 67.308594 27.902344 66.027344 27.949219 C 65.652344 27.964844 65.402344 28.230469 65.402344 28.308594 C 65.402344 28.355469 65.433594 28.355469 65.449219 28.355469 C 65.683594 28.386719 65.839844 28.417969 66.308594 29.417969 C 66.652344 30.167969 66.855469 30.480469 67.277344 30.480469 C 68.152344 30.480469 69.011719 29.589844 69.011719 29.433594 C 69.011719 29.386719 68.964844 29.386719 68.933594 29.386719 C 68.808594 29.386719 68.527344 29.527344 68.417969 29.683594 C 68.277344 29.871094 68.121094 30.074219 67.761719 30.074219 C 67.402344 30.074219 67.152344 29.574219 66.917969 29.042969 C 66.683594 28.574219 66.589844 28.386719 66.433594 28.199219 C 67.589844 27.761719 68.214844 26.996094 68.214844 26.308594 C 68.214844 25.402344 67.011719 25.402344 65.855469 25.402344 C 65.058594 25.402344 64.574219 25.402344 63.902344 25.746094 C 63.011719 26.199219 62.949219 26.746094 62.949219 26.746094 C 62.949219 26.777344 62.949219 26.808594 63.011719 26.808594 C 63.152344 26.808594 63.511719 26.636719 63.574219 26.449219 C 63.667969 26.167969 63.777344 25.855469 64.824219 25.808594 C 64.746094 26.652344 64.621094 28.136719 63.714844 30.308594 C 63.667969 30.417969 63.667969 30.417969 63.667969 30.433594 C 63.667969 30.480469 63.714844 30.480469 63.746094 30.480469 C 63.902344 30.480469 64.183594 30.324219 64.277344 30.183594 C 64.277344 30.152344 64.433594 29.824219 64.652344 29.199219 C 65.011719 28.199219 65.308594 27.027344 65.433594 25.808594 Z M 65.839844 25.808594 "
       id="path128" />
    <path
       style=" stroke:none;fill-rule:nonzero;fill:rgb(86.273193%,14.901733%,13.725281%);fill-opacity:1;"
       d="M 70.519531 31.625 C 70.457031 31.75 70.394531 31.859375 70.160156 31.859375 L 69.488281 31.859375 L 69.488281 31.828125 L 70.175781 31.140625 C 70.613281 30.703125 70.707031 30.53125 70.707031 30.296875 C 70.707031 30.03125 70.503906 29.703125 70.128906 29.703125 C 70.035156 29.703125 69.566406 29.703125 69.363281 30.265625 L 69.441406 30.296875 C 69.488281 30.203125 69.628906 29.953125 69.957031 29.953125 C 70.238281 29.953125 70.394531 30.171875 70.394531 30.390625 C 70.394531 30.515625 70.378906 30.71875 69.878906 31.265625 L 69.128906 32.0625 L 69.128906 32.125 L 70.394531 32.125 L 70.582031 31.65625 Z M 70.519531 31.625 "
       id="path130" />
  </g>
</svg>
