<?xml version="1.0" encoding="UTF-8" standalone="no"?>
<svg
   xmlns:dc="http://purl.org/dc/elements/1.1/"
   xmlns:cc="http://creativecommons.org/ns#"
   xmlns:rdf="http://www.w3.org/1999/02/22-rdf-syntax-ns#"
   xmlns:svg="http://www.w3.org/2000/svg"
   xmlns="http://www.w3.org/2000/svg"
   xmlns:sodipodi="http://sodipodi.sourceforge.net/DTD/sodipodi-0.dtd"
   xmlns:inkscape="http://www.inkscape.org/namespaces/inkscape"
   width="162.853683pt"
   height="163.709244pt"
   viewBox="0 0 162.853683 163.709244"
   version="1.2"
   id="svg160"
   sodipodi:docname="solution_space_margin.svg"
   inkscape:version="0.92.4 (5da689c313, 2019-01-14)">
  <metadata
     id="metadata164">
    <rdf:RDF>
      <cc:Work
         rdf:about="">
        <dc:format>image/svg+xml</dc:format>
        <dc:type
           rdf:resource="http://purl.org/dc/dcmitype/StillImage" />
        <dc:title></dc:title>
      </cc:Work>
    </rdf:RDF>
  </metadata>
  <sodipodi:namedview
     pagecolor="#ffffff"
     bordercolor="#666666"
     borderopacity="1"
     objecttolerance="10"
     gridtolerance="10"
     guidetolerance="10"
     inkscape:pageopacity="0"
     inkscape:pageshadow="2"
     inkscape:window-width="661"
     inkscape:window-height="480"
     id="namedview162"
     showgrid="false"
     inkscape:zoom="1.0811851"
     inkscape:cx="108.56912"
     inkscape:cy="109.1395"
     inkscape:window-x="0"
     inkscape:window-y="0"
     inkscape:window-maximized="0"
     inkscape:current-layer="svg160" />
  <defs
     id="defs11">
    <clipPath
       id="clip1">
      <path
         d="M 0 26 L 138 26 L 138 163.710938 L 0 163.710938 Z M 0 26 "
         id="path2" />
    </clipPath>
    <clipPath
       id="clip2">
      <path
         d="M 68 26 L 69 26 L 69 163.710938 L 68 163.710938 Z M 68 26 "
         id="path5" />
    </clipPath>
    <clipPath
       id="clip3">
      <path
         d="M 158 29 L 162.855469 29 L 162.855469 37 L 158 37 Z M 158 29 "
         id="path8" />
    </clipPath>
  </defs>
  <g
     id="surface46">
    <path
       style=" stroke:none;fill-rule:nonzero;fill:rgb(79.214478%,79.214478%,79.214478%);fill-opacity:1;"
       d="M 137.375 44.609375 L 137.71875 26.191406 L 89.390625 26.332031 L 75.679688 81.171875 L 77.964844 84.21875 L 137.375 44.609375 "
       id="path13" />
    <path
       style=" stroke:none;fill-rule:nonzero;fill:rgb(74.900818%,74.900818%,74.900818%);fill-opacity:1;"
       d="M 77.964844 84.21875 L 137.375 44.609375 L 77.964844 84.21875 "
       id="path15" />
    <path
       style="fill-rule:nonzero;fill:rgb(92.155457%,9.803772%,13.725281%);fill-opacity:1;stroke-width:1.249;stroke-linecap:round;stroke-linejoin:round;stroke:rgb(92.155457%,9.803772%,13.725281%);stroke-opacity:1;stroke-miterlimit:4;"
       d="M 68.824219 94.882813 L 123.664063 108.589844 "
       id="path17" />
    <path
       style=" stroke:none;fill-rule:nonzero;fill:rgb(92.155457%,9.803772%,13.725281%);fill-opacity:1;"
       d="M 125.886719 108.222656 C 124.589844 107.449219 123.777344 106.832031 122.761719 106.097656 L 121.695313 110.378906 C 122.144531 110.289063 123.941406 110.042969 125.449219 109.972656 C 127.0625 109.894531 128.5 109.921875 129.410156 110.03125 C 128.554688 109.703125 127.273438 109.050781 125.886719 108.222656 "
       id="path19" />
    <path
       style="fill-rule:nonzero;fill:rgb(92.155457%,9.803772%,13.725281%);fill-opacity:1;stroke-width:1.249;stroke-linecap:round;stroke-linejoin:round;stroke:rgb(92.155457%,9.803772%,13.725281%);stroke-opacity:1;stroke-miterlimit:4;"
       d="M 68.824219 94.882813 L 79.792969 86.65625 "
       id="path21" />
    <path
       style=" stroke:none;fill-rule:nonzero;fill:rgb(92.155457%,9.803772%,13.725281%);fill-opacity:1;"
       d="M 80.90625 84.699219 C 79.488281 85.214844 78.496094 85.457031 77.289063 85.78125 L 79.933594 89.308594 C 80.148438 88.902344 81.09375 87.355469 81.988281 86.140625 C 82.945313 84.835938 83.875 83.738281 84.535156 83.101563 C 83.738281 83.558594 82.421875 84.144531 80.90625 84.699219 "
       id="path23" />
    <path
       style="fill-rule:nonzero;fill:rgb(92.155457%,9.803772%,13.725281%);fill-opacity:1;stroke-width:1.249;stroke-linecap:round;stroke-linejoin:round;stroke:rgb(92.155457%,9.803772%,13.725281%);stroke-opacity:1;stroke-miterlimit:4;"
       d="M 68.824219 94.882813 L 41.40625 53.75 "
       id="path25" />
    <path
       style=" stroke:none;fill-rule:nonzero;fill:rgb(92.155457%,9.803772%,13.725281%);fill-opacity:1;"
       d="M 39.515625 52.53125 C 39.953125 53.976563 40.140625 54.980469 40.398438 56.203125 L 44.066406 53.757813 C 43.671875 53.519531 42.179688 52.492188 41.015625 51.53125 C 39.769531 50.503906 38.722656 49.511719 38.125 48.820313 C 38.535156 49.640625 39.046875 50.984375 39.515625 52.53125 "
       id="path27" />
    <path
       style="fill:none;stroke-width:0.548;stroke-linecap:round;stroke-linejoin:round;stroke:rgb(0%,0%,0%);stroke-opacity:1;stroke-miterlimit:4;"
       d="M 68.691406 95.417969 L 85.960938 26.332031 M 68.679688 94.976563 L 137.375 49.179688 "
       id="path29" />
    <g
       clip-path="url(#clip1)"
       clip-rule="nonzero"
       id="g33">
      <path
         style="fill:none;stroke-width:0.548;stroke-linecap:round;stroke-linejoin:round;stroke:rgb(0%,0%,0%);stroke-opacity:1;stroke-dasharray:3.122,3.122;stroke-miterlimit:4;"
         d="M 61.386719 62.109375 L 110.289063 127.316406 M 89.390625 26.332031 L 55.117188 163.429688 M 0.277344 136.011719 L 137.375 44.609375 "
         id="path31" />
    </g>
    <path
       style=" stroke:none;fill-rule:nonzero;fill:rgb(0%,0%,0%);fill-opacity:1;"
       d="M 95.011719 37.714844 L 94.839844 39.105469 L 94.980469 39.105469 C 95.027344 39.011719 95.058594 38.933594 95.183594 38.933594 C 95.449219 38.933594 95.792969 39.089844 96.058594 39.089844 C 96.542969 39.089844 97.355469 38.871094 97.355469 37.917969 C 97.355469 37.183594 96.292969 36.402344 96.292969 35.855469 C 96.292969 35.417969 96.574219 35.339844 96.761719 35.339844 C 97.324219 35.339844 97.542969 35.855469 97.574219 36.355469 L 97.714844 36.355469 L 97.902344 35.136719 L 97.777344 35.136719 C 97.730469 35.199219 97.683594 35.292969 97.527344 35.292969 C 97.261719 35.292969 97.089844 35.136719 96.699219 35.136719 C 95.777344 35.136719 95.652344 35.839844 95.652344 36.121094 C 95.652344 36.792969 96.683594 37.621094 96.683594 38.199219 C 96.683594 38.496094 96.558594 38.902344 96.058594 38.902344 C 95.355469 38.902344 95.214844 38.105469 95.152344 37.714844 Z M 95.011719 37.714844 "
       id="path35" />
    <path
       style=" stroke:none;fill-rule:nonzero;fill:rgb(0%,0%,0%);fill-opacity:1;"
       d="M 100.898438 35.136719 C 99.632813 35.136719 98.335938 36.542969 98.335938 37.839844 C 98.335938 38.558594 98.726563 39.089844 99.664063 39.089844 C 100.992188 39.089844 102.195313 37.511719 102.195313 36.433594 C 102.195313 35.855469 101.914063 35.136719 100.898438 35.136719 Z M 100.851563 35.324219 C 101.257813 35.324219 101.460938 35.714844 101.460938 36.167969 C 101.460938 37.105469 100.757813 38.902344 99.773438 38.902344 C 99.335938 38.902344 99.070313 38.589844 99.070313 38.089844 C 99.070313 37.058594 99.867188 35.324219 100.851563 35.324219 Z M 100.851563 35.324219 "
       id="path37" />
    <path
       style=" stroke:none;fill-rule:nonzero;fill:rgb(0%,0%,0%);fill-opacity:1;"
       d="M 104.457031 37.917969 C 104.035156 38.464844 103.847656 38.714844 103.628906 38.714844 C 103.503906 38.714844 103.503906 38.589844 103.503906 38.542969 C 103.503906 38.449219 103.566406 38.214844 103.597656 38.136719 L 104.910156 33.074219 L 104.863281 33.027344 C 104.410156 33.136719 103.957031 33.214844 103.503906 33.261719 L 103.503906 33.402344 C 103.722656 33.402344 104.097656 33.402344 104.097656 33.621094 C 104.097656 33.808594 102.832031 38.371094 102.832031 38.542969 C 102.832031 38.792969 102.863281 39.089844 103.253906 39.089844 C 103.785156 39.089844 104.128906 38.667969 104.582031 37.996094 Z M 104.457031 37.917969 "
       id="path39" />
    <path
       style=" stroke:none;fill-rule:nonzero;fill:rgb(0%,0%,0%);fill-opacity:1;"
       d="M 108.933594 37.980469 C 108.621094 38.355469 108.371094 38.667969 108.214844 38.667969 C 108.121094 38.667969 108.105469 38.574219 108.105469 38.527344 C 108.105469 38.386719 108.214844 38.011719 108.277344 37.839844 L 108.964844 35.230469 L 108.324219 35.230469 C 107.980469 36.152344 107.777344 36.714844 107.355469 37.355469 C 107.058594 37.808594 106.511719 38.636719 106.136719 38.636719 C 105.949219 38.636719 105.917969 38.449219 105.949219 38.339844 L 106.746094 35.167969 L 106.714844 35.136719 C 106.277344 35.246094 105.839844 35.324219 105.402344 35.386719 L 105.402344 35.496094 C 105.761719 35.496094 105.933594 35.496094 105.933594 35.761719 C 105.933594 35.996094 105.261719 38.199219 105.261719 38.574219 C 105.261719 38.964844 105.433594 39.089844 105.746094 39.089844 C 106.542969 39.089844 107.183594 37.996094 107.777344 37.011719 L 107.808594 37.011719 C 107.605469 37.730469 107.433594 38.464844 107.433594 38.621094 C 107.433594 38.746094 107.449219 39.074219 107.839844 39.074219 C 108.277344 39.074219 108.496094 38.839844 109.058594 38.058594 Z M 108.933594 37.980469 "
       id="path41" />
    <path
       style=" stroke:none;fill-rule:nonzero;fill:rgb(0%,0%,0%);fill-opacity:1;"
       d="M 111.851563 35.261719 L 111.164063 35.261719 L 111.398438 34.355469 C 111.429688 34.292969 111.398438 34.214844 111.335938 34.230469 C 111.257813 34.214844 111.226563 34.292969 111.195313 34.324219 C 110.945313 34.636719 110.523438 35.027344 110.242188 35.183594 C 110.101563 35.261719 109.851563 35.324219 109.804688 35.402344 C 109.773438 35.433594 109.773438 35.480469 109.773438 35.542969 L 110.429688 35.542969 L 109.804688 37.933594 C 109.757813 38.074219 109.601563 38.605469 109.601563 38.746094 C 109.601563 39.011719 109.835938 39.089844 110.023438 39.089844 C 110.476563 39.089844 110.804688 38.714844 111.257813 38.042969 L 111.148438 37.980469 C 110.929688 38.246094 110.617188 38.667969 110.445313 38.667969 C 110.351563 38.667969 110.304688 38.589844 110.304688 38.511719 C 110.304688 38.496094 110.304688 38.464844 110.320313 38.449219 L 111.085938 35.542969 L 111.820313 35.542969 Z M 111.851563 35.261719 "
       id="path43" />
    <path
       style=" stroke:none;fill-rule:nonzero;fill:rgb(0%,0%,0%);fill-opacity:1;"
       d="M 113.640625 37.996094 C 113.28125 38.511719 113.03125 38.683594 112.921875 38.683594 C 112.84375 38.683594 112.78125 38.605469 112.78125 38.542969 C 112.78125 38.449219 112.890625 38.089844 112.921875 37.980469 L 113.6875 35.167969 L 113.671875 35.136719 C 113.328125 35.199219 112.609375 35.339844 112.265625 35.355469 L 112.265625 35.496094 C 112.75 35.496094 112.828125 35.542969 112.828125 35.730469 C 112.828125 35.980469 112.125 38.136719 112.125 38.542969 C 112.125 38.714844 112.125 39.089844 112.546875 39.089844 C 113.03125 39.089844 113.421875 38.605469 113.75 38.089844 Z M 114.015625 33.761719 C 114.015625 33.574219 113.859375 33.277344 113.578125 33.277344 C 113.359375 33.277344 113.15625 33.449219 113.15625 33.761719 C 113.15625 34.058594 113.359375 34.214844 113.578125 34.214844 C 113.875 34.214844 114.015625 33.933594 114.015625 33.761719 Z M 114.015625 33.761719 "
       id="path45" />
    <path
       style=" stroke:none;fill-rule:nonzero;fill:rgb(0%,0%,0%);fill-opacity:1;"
       d="M 116.929688 35.136719 C 115.664063 35.136719 114.367188 36.542969 114.367188 37.839844 C 114.367188 38.558594 114.757813 39.089844 115.695313 39.089844 C 117.023438 39.089844 118.226563 37.511719 118.226563 36.433594 C 118.226563 35.855469 117.945313 35.136719 116.929688 35.136719 Z M 116.882813 35.324219 C 117.289063 35.324219 117.492188 35.714844 117.492188 36.167969 C 117.492188 37.105469 116.789063 38.902344 115.804688 38.902344 C 115.367188 38.902344 115.101563 38.589844 115.101563 38.089844 C 115.101563 37.058594 115.898438 35.324219 116.882813 35.324219 Z M 116.882813 35.324219 "
       id="path47" />
    <path
       style=" stroke:none;fill-rule:nonzero;fill:rgb(0%,0%,0%);fill-opacity:1;"
       d="M 122.519531 37.980469 C 122.191406 38.386719 121.972656 38.667969 121.800781 38.667969 C 121.785156 38.667969 121.660156 38.652344 121.660156 38.511719 C 121.660156 38.246094 122.363281 36.089844 122.363281 35.714844 C 122.363281 35.355469 122.160156 35.136719 121.769531 35.136719 C 121.035156 35.136719 120.238281 36.355469 119.816406 37.011719 L 119.800781 36.980469 L 120.363281 35.167969 L 120.332031 35.136719 C 119.863281 35.246094 119.394531 35.324219 118.925781 35.417969 L 118.925781 35.558594 C 119.394531 35.558594 119.488281 35.652344 119.488281 35.777344 C 119.488281 35.964844 118.894531 38.011719 118.628906 38.996094 L 119.285156 38.996094 C 119.644531 37.808594 119.753906 37.433594 120.160156 36.824219 C 120.472656 36.339844 121.019531 35.589844 121.441406 35.589844 C 121.597656 35.589844 121.660156 35.714844 121.660156 35.871094 C 121.660156 36.214844 121.003906 38.355469 121.003906 38.558594 C 121.003906 38.808594 121.035156 39.074219 121.425781 39.074219 C 121.894531 39.074219 122.207031 38.667969 122.644531 38.089844 Z M 122.519531 37.980469 "
       id="path49" />
    <path
       style=" stroke:none;fill-rule:nonzero;fill:rgb(0%,0%,0%);fill-opacity:1;"
       d="M 98.4375 49.609375 C 98.796875 48.453125 98.90625 48.046875 99.25 47.421875 C 99.3125 47.296875 99.84375 46.328125 100.109375 46.328125 C 100.3125 46.328125 100.1875 46.640625 100.5625 46.640625 C 100.65625 46.640625 100.96875 46.640625 100.96875 46.1875 C 100.96875 45.890625 100.75 45.75 100.546875 45.75 C 100 45.75 99.34375 46.78125 99.046875 47.359375 L 98.984375 47.53125 L 98.96875 47.515625 L 99.390625 45.78125 L 99.359375 45.75 C 98.96875 45.8125 98.453125 45.9375 98.015625 46 L 98.015625 46.140625 C 98.109375 46.125 98.203125 46.09375 98.296875 46.09375 C 98.578125 46.09375 98.609375 46.234375 98.609375 46.359375 C 98.609375 46.4375 98.5625 46.734375 98.46875 47.0625 L 97.765625 49.609375 Z M 98.4375 49.609375 "
       id="path51" />
    <path
       style=" stroke:none;fill-rule:nonzero;fill:rgb(0%,0%,0%);fill-opacity:1;"
       d="M 102.105469 47.40625 C 102.433594 46.625 103.027344 45.953125 103.496094 45.953125 C 103.714844 45.953125 103.792969 46.125 103.792969 46.3125 C 103.792969 46.375 103.761719 47.421875 101.949219 47.796875 Z M 103.902344 48.65625 C 103.464844 49.015625 103.105469 49.3125 102.636719 49.3125 C 102.261719 49.3125 101.808594 49.109375 101.808594 48.515625 C 101.808594 48.34375 101.855469 48.171875 101.902344 47.984375 L 102.136719 47.953125 C 103.558594 47.75 104.371094 47.046875 104.371094 46.34375 C 104.371094 45.96875 104.105469 45.75 103.652344 45.75 C 102.433594 45.75 101.042969 47.21875 101.042969 48.46875 C 101.042969 49.03125 101.324219 49.703125 102.246094 49.703125 C 103.121094 49.703125 103.917969 48.90625 104.011719 48.765625 Z M 103.902344 48.65625 "
       id="path53" />
    <path
       style=" stroke:none;fill-rule:nonzero;fill:rgb(0%,0%,0%);fill-opacity:1;"
       d="M 108.785156 46.078125 L 108.253906 46.078125 C 108.191406 46.078125 108.113281 46 107.957031 45.921875 C 107.800781 45.84375 107.582031 45.75 107.222656 45.75 C 106.519531 45.75 105.503906 46.265625 105.503906 47.25 C 105.503906 47.84375 105.878906 48.046875 106.191406 48.1875 C 105.894531 48.390625 105.519531 48.65625 105.519531 48.921875 C 105.519531 49.078125 105.644531 49.1875 105.753906 49.265625 C 105.019531 49.75 104.722656 49.9375 104.722656 50.4375 C 104.722656 50.921875 105.191406 51.40625 106.144531 51.40625 C 107.347656 51.40625 108.019531 50.875 108.019531 50.140625 C 108.019531 48.921875 106.160156 49.0625 106.160156 48.609375 C 106.160156 48.484375 106.347656 48.25 106.472656 48.25 C 106.597656 48.25 106.707031 48.296875 106.832031 48.296875 C 107.597656 48.296875 108.425781 47.578125 108.425781 46.921875 C 108.425781 46.75 108.394531 46.578125 108.347656 46.40625 L 108.785156 46.40625 Z M 107.503906 50.390625 C 107.503906 50.828125 107.066406 51.21875 106.285156 51.21875 C 106.160156 51.21875 105.207031 51.1875 105.207031 50.375 C 105.207031 50.171875 105.207031 49.9375 105.566406 49.625 C 105.597656 49.59375 105.894531 49.359375 105.941406 49.359375 C 106.019531 49.359375 106.863281 49.6875 107.019531 49.765625 C 107.191406 49.84375 107.503906 50 107.503906 50.390625 Z M 107.738281 46.546875 C 107.738281 47.265625 107.300781 48.109375 106.722656 48.109375 C 106.332031 48.109375 106.175781 47.8125 106.175781 47.421875 C 106.175781 46.84375 106.566406 45.953125 107.238281 45.953125 C 107.597656 45.953125 107.738281 46.203125 107.738281 46.546875 Z M 107.738281 46.546875 "
       id="path55" />
    <path
       style=" stroke:none;fill-rule:nonzero;fill:rgb(0%,0%,0%);fill-opacity:1;"
       d="M 110.964844 48.609375 C 110.605469 49.125 110.355469 49.296875 110.246094 49.296875 C 110.167969 49.296875 110.105469 49.21875 110.105469 49.15625 C 110.105469 49.0625 110.214844 48.703125 110.246094 48.59375 L 111.011719 45.78125 L 110.996094 45.75 C 110.652344 45.8125 109.933594 45.953125 109.589844 45.96875 L 109.589844 46.109375 C 110.074219 46.109375 110.152344 46.15625 110.152344 46.34375 C 110.152344 46.59375 109.449219 48.75 109.449219 49.15625 C 109.449219 49.328125 109.449219 49.703125 109.871094 49.703125 C 110.355469 49.703125 110.746094 49.21875 111.074219 48.703125 Z M 111.339844 44.375 C 111.339844 44.1875 111.183594 43.890625 110.902344 43.890625 C 110.683594 43.890625 110.480469 44.0625 110.480469 44.375 C 110.480469 44.671875 110.683594 44.828125 110.902344 44.828125 C 111.199219 44.828125 111.339844 44.546875 111.339844 44.375 Z M 111.339844 44.375 "
       id="path57" />
    <path
       style=" stroke:none;fill-rule:nonzero;fill:rgb(0%,0%,0%);fill-opacity:1;"
       d="M 114.257813 45.75 C 112.992188 45.75 111.695313 47.15625 111.695313 48.453125 C 111.695313 49.171875 112.085938 49.703125 113.023438 49.703125 C 114.351563 49.703125 115.554688 48.125 115.554688 47.046875 C 115.554688 46.46875 115.273438 45.75 114.257813 45.75 Z M 114.210938 45.9375 C 114.617188 45.9375 114.820313 46.328125 114.820313 46.78125 C 114.820313 47.71875 114.117188 49.515625 113.132813 49.515625 C 112.695313 49.515625 112.429688 49.203125 112.429688 48.703125 C 112.429688 47.671875 113.226563 45.9375 114.210938 45.9375 Z M 114.210938 45.9375 "
       id="path59" />
    <path
       style=" stroke:none;fill-rule:nonzero;fill:rgb(0%,0%,0%);fill-opacity:1;"
       d="M 119.847656 48.59375 C 119.519531 49 119.300781 49.28125 119.128906 49.28125 C 119.113281 49.28125 118.988281 49.265625 118.988281 49.125 C 118.988281 48.859375 119.691406 46.703125 119.691406 46.328125 C 119.691406 45.96875 119.488281 45.75 119.097656 45.75 C 118.363281 45.75 117.566406 46.96875 117.144531 47.625 L 117.128906 47.59375 L 117.691406 45.78125 L 117.660156 45.75 C 117.191406 45.859375 116.722656 45.9375 116.253906 46.03125 L 116.253906 46.171875 C 116.722656 46.171875 116.816406 46.265625 116.816406 46.390625 C 116.816406 46.578125 116.222656 48.625 115.957031 49.609375 L 116.613281 49.609375 C 116.972656 48.421875 117.082031 48.046875 117.488281 47.4375 C 117.800781 46.953125 118.347656 46.203125 118.769531 46.203125 C 118.925781 46.203125 118.988281 46.328125 118.988281 46.484375 C 118.988281 46.828125 118.332031 48.96875 118.332031 49.171875 C 118.332031 49.421875 118.363281 49.6875 118.753906 49.6875 C 119.222656 49.6875 119.535156 49.28125 119.972656 48.703125 Z M 119.847656 48.59375 "
       id="path61" />
    <path
       style="fill:none;stroke-width:0.274;stroke-linecap:round;stroke-linejoin:round;stroke:rgb(0%,0%,0%);stroke-opacity:1;stroke-miterlimit:4;"
       d="M 13.984375 94.882813 L 13.984375 94.023438 M 41.40625 94.882813 L 41.40625 94.023438 M 96.246094 94.882813 L 96.246094 94.023438 M 123.664063 94.882813 L 123.664063 94.023438 "
       id="path63" />
    <path
       style="fill:none;stroke-width:0.137;stroke-linecap:round;stroke-linejoin:round;stroke:rgb(0%,0%,0%);stroke-opacity:1;stroke-miterlimit:4;"
       d="M 19.46875 94.882813 L 19.46875 94.367188 M 24.953125 94.882813 L 24.953125 94.367188 M 30.4375 94.882813 L 30.4375 94.367188 M 35.921875 94.882813 L 35.921875 94.367188 M 46.890625 94.882813 L 46.890625 94.367188 M 52.375 94.882813 L 52.375 94.367188 M 57.859375 94.882813 L 57.859375 94.367188 M 63.339844 94.882813 L 63.339844 94.367188 M 74.308594 94.882813 L 74.308594 94.367188 M 79.792969 94.882813 L 79.792969 94.367188 M 85.277344 94.882813 L 85.277344 94.367188 M 90.761719 94.882813 L 90.761719 94.367188 M 101.730469 94.882813 L 101.730469 94.367188 M 107.210938 94.882813 L 107.210938 94.367188 M 112.699219 94.882813 L 112.699219 94.367188 M 118.179688 94.882813 L 118.179688 94.367188 M 8.5 94.882813 L 8.5 94.367188 M 3.019531 94.882813 L 3.019531 94.367188 M 129.148438 94.882813 L 129.148438 94.367188 M 134.632813 94.882813 L 134.632813 94.367188 "
       id="path65" />
    <path
       style="fill:none;stroke-width:0.274;stroke-linecap:round;stroke-linejoin:round;stroke:rgb(0%,0%,0%);stroke-opacity:1;stroke-miterlimit:4;"
       d="M 0.277344 94.882813 L 137.375 94.882813 "
       id="path67" />
    <path
       style=" stroke:none;fill-rule:nonzero;fill:rgb(0%,0%,0%);fill-opacity:1;"
       d="M 138.023438 94.601563 C 137.570313 94.464844 137.273438 94.335938 136.910156 94.191406 L 136.910156 95.574219 C 137.039063 95.511719 137.570313 95.300781 138.023438 95.164063 C 138.507813 95.019531 138.949219 94.917969 139.234375 94.882813 C 138.949219 94.847656 138.507813 94.746094 138.023438 94.601563 "
       id="path69" />
    <path
       style="fill:none;stroke-width:0.274;stroke-linecap:round;stroke-linejoin:round;stroke:rgb(0%,0%,0%);stroke-opacity:1;stroke-miterlimit:4;"
       d="M 68.824219 149.71875 L 69.683594 149.71875 M 68.824219 122.300781 L 69.683594 122.300781 M 68.824219 67.460938 L 69.683594 67.460938 M 68.824219 40.042969 L 69.683594 40.042969 "
       id="path71" />
    <path
       style="fill:none;stroke-width:0.137;stroke-linecap:round;stroke-linejoin:round;stroke:rgb(0%,0%,0%);stroke-opacity:1;stroke-miterlimit:4;"
       d="M 68.824219 144.238281 L 69.339844 144.238281 M 68.824219 138.753906 L 69.339844 138.753906 M 68.824219 133.269531 L 69.339844 133.269531 M 68.824219 127.785156 L 69.339844 127.785156 M 68.824219 116.816406 L 69.339844 116.816406 M 68.824219 111.332031 L 69.339844 111.332031 M 68.824219 105.847656 L 69.339844 105.847656 M 68.824219 100.363281 L 69.339844 100.363281 M 68.824219 89.398438 L 69.339844 89.398438 M 68.824219 83.914063 L 69.339844 83.914063 M 68.824219 78.429688 L 69.339844 78.429688 M 68.824219 72.945313 L 69.339844 72.945313 M 68.824219 61.976563 L 69.339844 61.976563 M 68.824219 56.492188 L 69.339844 56.492188 M 68.824219 51.007813 L 69.339844 51.007813 M 68.824219 45.523438 L 69.339844 45.523438 M 68.824219 155.203125 L 69.339844 155.203125 M 68.824219 160.6875 L 69.339844 160.6875 M 68.824219 34.558594 L 69.339844 34.558594 M 68.824219 29.074219 L 69.339844 29.074219 "
       id="path73" />
    <g
       clip-path="url(#clip2)"
       clip-rule="nonzero"
       id="g77">
      <path
         style="fill:none;stroke-width:0.274;stroke-linecap:round;stroke-linejoin:round;stroke:rgb(0%,0%,0%);stroke-opacity:1;stroke-miterlimit:4;"
         d="M 68.824219 163.429688 L 68.824219 26.332031 "
         id="path75" />
    </g>
    <path
       style=" stroke:none;fill-rule:nonzero;fill:rgb(0%,0%,0%);fill-opacity:1;"
       d="M 68.542969 25.683594 C 68.40625 26.136719 68.28125 26.429688 68.136719 26.796875 L 69.519531 26.796875 C 69.457031 26.664063 69.246094 26.136719 69.109375 25.683594 C 68.960938 25.199219 68.863281 24.757813 68.828125 24.472656 C 68.789063 24.757813 68.691406 25.199219 68.542969 25.683594 "
       id="path79" />
    <path
       style=" stroke:none;fill-rule:nonzero;fill:rgb(0%,0%,0%);fill-opacity:1;"
       d="M 39.949219 63.40625 C 40.386719 63.40625 40.496094 63.40625 40.886719 65.125 C 40.964844 65.53125 41.386719 67.546875 41.386719 68.09375 C 41.386719 68.734375 40.667969 69.4375 40.371094 69.4375 C 40.214844 69.4375 39.980469 69.296875 39.902344 69.234375 C 39.808594 69.171875 39.480469 69.046875 39.339844 69.046875 C 38.886719 69.046875 38.730469 69.453125 38.730469 69.65625 C 38.730469 69.96875 38.980469 70.328125 39.402344 70.328125 C 40.511719 70.328125 41.496094 69.25 42.652344 67.359375 C 42.746094 67.1875 44.199219 64.859375 44.199219 63.53125 C 44.199219 63.171875 43.855469 62.84375 43.496094 62.84375 C 43.136719 62.84375 42.855469 63.1875 42.855469 63.46875 C 42.855469 64.1875 43.480469 64.015625 43.480469 64.515625 C 43.480469 64.921875 43.011719 65.8125 42.527344 66.765625 L 42.496094 66.765625 L 42.371094 65.953125 C 42.199219 65.015625 41.839844 63.375 41.621094 62.84375 C 41.214844 62.953125 40.605469 63.046875 39.949219 63.109375 Z M 39.949219 63.40625 "
       id="path81" />
    <path
       style=" stroke:none;fill-rule:nonzero;fill:rgb(0%,0%,0%);fill-opacity:1;"
       d="M 45.09375 69.28125 L 46.828125 69.28125 L 46.828125 69.1875 C 46.515625 69.1875 46.296875 69.171875 46.296875 68.984375 C 46.296875 68.875 46.375 68.65625 46.40625 68.53125 L 47.296875 65.28125 C 47.328125 65.1875 47.359375 65.0625 47.3125 65.0625 C 47.265625 65.0625 46.390625 65.25 46.09375 65.296875 L 46.09375 65.390625 L 46.453125 65.375 C 46.515625 65.375 46.6875 65.375 46.6875 65.578125 C 46.6875 65.625 46.671875 65.71875 46.65625 65.78125 L 45.78125 68.859375 C 45.703125 69.140625 45.453125 69.15625 45.09375 69.1875 Z M 45.09375 69.28125 "
       id="path83" />
    <path
       style=" stroke:none;fill-rule:nonzero;fill:rgb(0%,0%,0%);fill-opacity:1;"
       d="M 87.40625 84.011719 C 87.84375 84.011719 87.953125 84.011719 88.34375 85.730469 C 88.421875 86.136719 88.84375 88.152344 88.84375 88.699219 C 88.84375 89.339844 88.125 90.042969 87.828125 90.042969 C 87.671875 90.042969 87.4375 89.902344 87.359375 89.839844 C 87.265625 89.777344 86.9375 89.652344 86.796875 89.652344 C 86.34375 89.652344 86.1875 90.058594 86.1875 90.261719 C 86.1875 90.574219 86.4375 90.933594 86.859375 90.933594 C 87.96875 90.933594 88.953125 89.855469 90.109375 87.964844 C 90.203125 87.792969 91.65625 85.464844 91.65625 84.136719 C 91.65625 83.777344 91.3125 83.449219 90.953125 83.449219 C 90.59375 83.449219 90.3125 83.792969 90.3125 84.074219 C 90.3125 84.792969 90.9375 84.621094 90.9375 85.121094 C 90.9375 85.527344 90.46875 86.417969 89.984375 87.371094 L 89.953125 87.371094 L 89.828125 86.558594 C 89.65625 85.621094 89.296875 83.980469 89.078125 83.449219 C 88.671875 83.558594 88.0625 83.652344 87.40625 83.714844 Z M 87.40625 84.011719 "
       id="path85" />
    <path
       style=" stroke:none;fill-rule:nonzero;fill:rgb(0%,0%,0%);fill-opacity:1;"
       d="M 94.738281 89.011719 C 94.628906 89.246094 94.535156 89.417969 94.113281 89.417969 L 92.925781 89.417969 L 92.925781 89.386719 L 94.128906 88.183594 C 94.910156 87.402344 95.066406 87.121094 95.066406 86.699219 C 95.066406 86.230469 94.707031 85.667969 94.050781 85.667969 C 93.894531 85.667969 93.082031 85.683594 92.738281 86.667969 L 92.863281 86.699219 C 92.957031 86.542969 93.191406 86.121094 93.753906 86.121094 C 94.238281 86.121094 94.519531 86.496094 94.519531 86.886719 C 94.519531 87.089844 94.503906 87.449219 93.628906 88.386719 L 92.316406 89.777344 L 92.316406 89.886719 L 94.535156 89.886719 L 94.847656 89.058594 Z M 94.738281 89.011719 "
       id="path87" />
    <path
       style=" stroke:none;fill-rule:nonzero;fill:rgb(0%,0%,0%);fill-opacity:1;"
       d="M 109.261719 108.679688 C 109.699219 108.679688 109.808594 108.679688 110.199219 110.398438 C 110.277344 110.804688 110.699219 112.820313 110.699219 113.367188 C 110.699219 114.007813 109.980469 114.710938 109.683594 114.710938 C 109.527344 114.710938 109.292969 114.570313 109.214844 114.507813 C 109.121094 114.445313 108.792969 114.320313 108.652344 114.320313 C 108.199219 114.320313 108.042969 114.726563 108.042969 114.929688 C 108.042969 115.242188 108.292969 115.601563 108.714844 115.601563 C 109.824219 115.601563 110.808594 114.523438 111.964844 112.632813 C 112.058594 112.460938 113.511719 110.132813 113.511719 108.804688 C 113.511719 108.445313 113.167969 108.117188 112.808594 108.117188 C 112.449219 108.117188 112.167969 108.460938 112.167969 108.742188 C 112.167969 109.460938 112.792969 109.289063 112.792969 109.789063 C 112.792969 110.195313 112.324219 111.085938 111.839844 112.039063 L 111.808594 112.039063 L 111.683594 111.226563 C 111.511719 110.289063 111.152344 108.648438 110.933594 108.117188 C 110.527344 108.226563 109.917969 108.320313 109.261719 108.382813 Z M 109.261719 108.679688 "
       id="path89" />
    <path
       style=" stroke:none;fill-rule:nonzero;fill:rgb(0%,0%,0%);fill-opacity:1;"
       d="M 115.203125 111.003906 C 115.296875 110.878906 115.515625 110.582031 115.90625 110.582031 C 116.15625 110.582031 116.453125 110.738281 116.453125 111.160156 C 116.453125 111.832031 115.59375 112.113281 114.96875 112.191406 L 114.96875 112.300781 C 115.578125 112.253906 116.125 112.488281 116.125 113.363281 C 116.125 114.144531 115.53125 114.363281 115.328125 114.363281 C 114.96875 114.363281 114.765625 113.988281 114.484375 113.988281 C 114.25 113.988281 114.1875 114.097656 114.1875 114.222656 C 114.1875 114.503906 114.53125 114.597656 114.90625 114.597656 C 116.0625 114.597656 116.625 113.707031 116.625 113.019531 C 116.625 112.332031 116.1875 112.144531 116.03125 112.066406 L 116.03125 112.050781 C 116.6875 111.800781 117 111.582031 117 111.113281 C 117 110.582031 116.546875 110.332031 116.09375 110.332031 C 115.734375 110.332031 115.265625 110.597656 115.109375 110.972656 Z M 115.203125 111.003906 "
       id="path91" />
    <path
       style=" stroke:none;fill-rule:nonzero;fill:rgb(0%,0%,0%);fill-opacity:1;"
       d="M 146.789063 95.210938 C 146.273438 95.710938 146.054688 95.992188 145.882813 95.992188 C 145.789063 95.992188 145.726563 95.914063 145.726563 95.835938 C 145.726563 95.492188 146.757813 91.664063 146.789063 91.523438 L 146.710938 91.492188 L 146.023438 91.570313 L 145.992188 91.601563 L 145.882813 92.101563 L 145.867188 92.101563 C 145.820313 91.789063 145.460938 91.492188 144.976563 91.492188 C 143.476563 91.492188 141.757813 93.585938 141.757813 95.242188 C 141.757813 95.570313 141.789063 96.570313 142.914063 96.570313 C 143.585938 96.570313 144.195313 96.226563 145.117188 94.867188 L 145.148438 94.882813 C 144.960938 95.570313 144.914063 95.820313 144.914063 96.070313 C 144.914063 96.257813 144.914063 96.554688 145.382813 96.554688 C 145.867188 96.554688 146.242188 96.148438 146.914063 95.320313 Z M 142.710938 95.226563 C 142.710938 94.210938 143.710938 91.742188 145.023438 91.742188 C 145.351563 91.742188 145.664063 91.945313 145.664063 92.492188 C 145.664063 93.585938 144.570313 96.023438 143.382813 96.023438 C 143.070313 96.023438 142.710938 95.820313 142.710938 95.226563 Z M 142.710938 95.226563 "
       id="path93" />
    <path
       style=" stroke:none;fill-rule:nonzero;fill:rgb(0%,0%,0%);fill-opacity:1;"
       d="M 147.503906 97.691406 L 149.238281 97.691406 L 149.238281 97.597656 C 148.925781 97.597656 148.707031 97.582031 148.707031 97.394531 C 148.707031 97.285156 148.785156 97.066406 148.816406 96.941406 L 149.707031 93.691406 C 149.738281 93.597656 149.769531 93.472656 149.722656 93.472656 C 149.675781 93.472656 148.800781 93.660156 148.503906 93.707031 L 148.503906 93.800781 L 148.863281 93.785156 C 148.925781 93.785156 149.097656 93.785156 149.097656 93.988281 C 149.097656 94.035156 149.082031 94.128906 149.066406 94.191406 L 148.191406 97.269531 C 148.113281 97.550781 147.863281 97.566406 147.503906 97.597656 Z M 147.503906 97.691406 "
       id="path95" />
    <path
       style=" stroke:none;fill-rule:nonzero;fill:rgb(0%,0%,0%);fill-opacity:1;"
       d="M 70.296875 21.214844 C 69.78125 21.714844 69.5625 21.996094 69.390625 21.996094 C 69.296875 21.996094 69.234375 21.917969 69.234375 21.839844 C 69.234375 21.496094 70.265625 17.667969 70.296875 17.527344 L 70.21875 17.496094 L 69.53125 17.574219 L 69.5 17.605469 L 69.390625 18.105469 L 69.375 18.105469 C 69.328125 17.792969 68.96875 17.496094 68.484375 17.496094 C 66.984375 17.496094 65.265625 19.589844 65.265625 21.246094 C 65.265625 21.574219 65.296875 22.574219 66.421875 22.574219 C 67.09375 22.574219 67.703125 22.230469 68.625 20.871094 L 68.65625 20.886719 C 68.46875 21.574219 68.421875 21.824219 68.421875 22.074219 C 68.421875 22.261719 68.421875 22.558594 68.890625 22.558594 C 69.375 22.558594 69.75 22.152344 70.421875 21.324219 Z M 66.21875 21.230469 C 66.21875 20.214844 67.21875 17.746094 68.53125 17.746094 C 68.859375 17.746094 69.171875 17.949219 69.171875 18.496094 C 69.171875 19.589844 68.078125 22.027344 66.890625 22.027344 C 66.578125 22.027344 66.21875 21.824219 66.21875 21.230469 Z M 66.21875 21.230469 "
       id="path97" />
    <path
       style=" stroke:none;fill-rule:nonzero;fill:rgb(0%,0%,0%);fill-opacity:1;"
       d="M 73.199219 22.824219 C 73.089844 23.058594 72.996094 23.230469 72.574219 23.230469 L 71.386719 23.230469 L 71.386719 23.199219 L 72.589844 21.996094 C 73.371094 21.214844 73.527344 20.933594 73.527344 20.511719 C 73.527344 20.042969 73.167969 19.480469 72.511719 19.480469 C 72.355469 19.480469 71.542969 19.496094 71.199219 20.480469 L 71.324219 20.511719 C 71.417969 20.355469 71.652344 19.933594 72.214844 19.933594 C 72.699219 19.933594 72.980469 20.308594 72.980469 20.699219 C 72.980469 20.902344 72.964844 21.261719 72.089844 22.199219 L 70.777344 23.589844 L 70.777344 23.699219 L 72.996094 23.699219 L 73.308594 22.871094 Z M 73.199219 22.824219 "
       id="path99" />
    <path
       style=" stroke:none;fill-rule:nonzero;fill:rgb(12.940979%,11.764526%,11.764526%);fill-opacity:1;"
       d="M 112.578125 138.449219 C 112.078125 138.824219 110.390625 139.214844 109.765625 138.402344 C 109.546875 138.105469 109.6875 137.996094 109.75 137.964844 C 110.359375 137.480469 112.25 136.964844 112.75 137.621094 C 113.046875 137.996094 112.765625 138.308594 112.578125 138.449219 Z M 113.328125 135.261719 C 113.578125 135.621094 113.59375 135.683594 113.453125 135.792969 C 113.359375 135.855469 113.171875 135.917969 112.96875 135.996094 L 109.375 137.464844 L 109.34375 137.480469 C 109.21875 137.574219 109.375 138.167969 109.609375 138.480469 C 110.3125 139.402344 112.09375 139.621094 113.046875 138.902344 C 113.46875 138.574219 113.546875 138.058594 113.234375 137.636719 C 112.828125 137.105469 111.96875 137.136719 111.515625 137.183594 L 111.515625 137.167969 C 112.34375 136.855469 113.65625 136.292969 114.25 136.058594 L 114.25 135.996094 C 113.953125 135.730469 113.703125 135.449219 113.421875 135.183594 Z M 113.328125 135.261719 "
       id="path101" />
    <path
       style=" stroke:none;fill-rule:nonzero;fill:rgb(12.940979%,11.764526%,11.764526%);fill-opacity:1;"
       d="M 116.65625 139.335938 L 110.84375 140.195313 L 111.171875 140.632813 L 116.984375 139.773438 Z M 116.65625 139.335938 "
       id="path103" />
    <path
       style=" stroke:none;fill-rule:nonzero;fill:rgb(12.940979%,11.764526%,11.764526%);fill-opacity:1;"
       d="M 117.527344 139.902344 C 117.621094 139.839844 117.746094 139.746094 117.652344 139.621094 C 117.542969 139.480469 117.417969 139.574219 117.324219 139.636719 L 111.777344 143.855469 C 111.683594 143.933594 111.558594 144.027344 111.667969 144.167969 C 111.761719 144.292969 111.886719 144.199219 111.980469 144.121094 Z M 117.527344 139.902344 "
       id="path105" />
    <path
       style=" stroke:none;fill-rule:nonzero;fill:rgb(12.940979%,11.764526%,11.764526%);fill-opacity:1;"
       d="M 118.820313 141.601563 C 118.914063 141.539063 119.039063 141.445313 118.945313 141.320313 C 118.835938 141.179688 118.710938 141.273438 118.617188 141.335938 L 113.070313 145.554688 C 112.976563 145.632813 112.851563 145.726563 112.960938 145.867188 C 113.054688 145.992188 113.179688 145.898438 113.273438 145.820313 Z M 118.820313 141.601563 "
       id="path107" />
    <path
       style=" stroke:none;fill-rule:nonzero;fill:rgb(12.940979%,11.764526%,11.764526%);fill-opacity:1;"
       d="M 117.617188 143.808594 C 117.789063 144.027344 117.835938 144.089844 117.085938 144.980469 C 116.898438 145.183594 116.007813 146.214844 115.710938 146.449219 C 115.367188 146.699219 114.695313 146.589844 114.585938 146.433594 C 114.523438 146.355469 114.507813 146.183594 114.507813 146.121094 C 114.507813 146.027344 114.445313 145.824219 114.382813 145.730469 C 114.195313 145.496094 113.914063 145.589844 113.804688 145.667969 C 113.648438 145.792969 113.554688 146.058594 113.726563 146.277344 C 114.179688 146.886719 115.148438 146.964844 116.617188 146.808594 C 116.742188 146.792969 118.570313 146.636719 119.273438 146.105469 C 119.476563 145.949219 119.507813 145.652344 119.367188 145.449219 C 119.226563 145.261719 118.914063 145.246094 118.757813 145.355469 C 118.382813 145.652344 118.726563 145.902344 118.445313 146.105469 C 118.242188 146.277344 117.585938 146.402344 116.882813 146.511719 L 116.867188 146.496094 L 117.257813 146.105469 C 117.679688 145.636719 118.398438 144.777344 118.601563 144.449219 C 118.367188 144.277344 118.085938 143.996094 117.773438 143.683594 Z M 117.617188 143.808594 "
       id="path109" />
    <path
       style=" stroke:none;fill-rule:nonzero;fill:rgb(12.940979%,11.764526%,11.764526%);fill-opacity:1;"
       d="M 117.371094 150.527344 C 117.183594 150.574219 117.027344 150.574219 116.824219 150.308594 L 116.261719 149.574219 L 116.292969 149.558594 L 117.621094 149.730469 C 118.496094 149.855469 118.746094 149.824219 119.027344 149.605469 C 119.324219 149.386719 119.511719 148.886719 119.183594 148.464844 C 119.105469 148.371094 118.699219 147.855469 117.917969 148.121094 L 117.949219 148.199219 C 118.089844 148.199219 118.496094 148.136719 118.761719 148.496094 C 118.996094 148.792969 118.902344 149.167969 118.652344 149.355469 C 118.511719 149.449219 118.277344 149.605469 117.246094 149.511719 L 115.714844 149.355469 L 115.652344 149.402344 L 116.730469 150.808594 L 117.386719 150.621094 Z M 117.371094 150.527344 "
       id="path111" />
    <path
       style=" stroke:none;fill-rule:nonzero;fill:rgb(12.940979%,11.764526%,11.764526%);fill-opacity:1;"
       d="M 123.640625 147.945313 C 123.734375 147.882813 123.859375 147.789063 123.765625 147.664063 C 123.65625 147.523438 123.53125 147.617188 123.4375 147.679688 L 117.890625 151.898438 C 117.796875 151.976563 117.671875 152.070313 117.78125 152.210938 C 117.875 152.335938 118 152.242188 118.09375 152.164063 Z M 123.640625 147.945313 "
       id="path113" />
    <path
       style=" stroke:none;fill-rule:nonzero;fill:rgb(12.940979%,11.764526%,11.764526%);fill-opacity:1;"
       d="M 124.933594 149.644531 C 125.027344 149.582031 125.152344 149.488281 125.058594 149.363281 C 124.949219 149.222656 124.824219 149.316406 124.730469 149.378906 L 119.183594 153.597656 C 119.089844 153.675781 118.964844 153.769531 119.074219 153.910156 C 119.167969 154.035156 119.292969 153.941406 119.386719 153.863281 Z M 124.933594 149.644531 "
       id="path115" />
    <path
       style=" stroke:none;fill-rule:nonzero;fill:rgb(12.940979%,11.764526%,11.764526%);fill-opacity:1;"
       d="M 97.738281 127.394531 L 102.484375 133.792969 "
       id="path117" />
    <path
       style=" stroke:none;fill-rule:nonzero;fill:rgb(12.940979%,11.764526%,11.764526%);fill-opacity:1;"
       d="M 146.835938 41.195313 C 147.179688 41.726563 147.429688 43.429688 146.554688 43.992188 C 146.257813 44.179688 146.148438 44.023438 146.117188 43.960938 C 145.695313 43.304688 145.335938 41.382813 146.023438 40.945313 C 146.429688 40.695313 146.710938 40.992188 146.835938 41.195313 Z M 143.726563 40.179688 C 144.101563 39.960938 144.164063 39.960938 144.257813 40.101563 C 144.320313 40.195313 144.367188 40.382813 144.414063 40.585938 L 145.570313 44.304688 L 145.585938 44.335938 C 145.679688 44.476563 146.304688 44.351563 146.632813 44.148438 C 147.601563 43.523438 147.960938 41.757813 147.320313 40.757813 C 147.039063 40.289063 146.523438 40.195313 146.070313 40.476563 C 145.507813 40.835938 145.476563 41.695313 145.492188 42.148438 L 145.476563 42.132813 C 145.226563 41.304688 144.789063 39.945313 144.601563 39.335938 L 144.523438 39.304688 C 144.242188 39.585938 143.945313 39.835938 143.664063 40.070313 Z M 143.726563 40.179688 "
       id="path119" />
    <path
       style=" stroke:none;fill-rule:nonzero;fill:rgb(12.940979%,11.764526%,11.764526%);fill-opacity:1;"
       d="M 148.078125 37.214844 L 148.453125 43.074219 L 148.90625 42.777344 L 148.53125 36.917969 Z M 148.078125 37.214844 "
       id="path121" />
    <path
       style=" stroke:none;fill-rule:nonzero;fill:rgb(12.940979%,11.764526%,11.764526%);fill-opacity:1;"
       d="M 148.710938 36.378906 C 148.648438 36.300781 148.570313 36.160156 148.429688 36.238281 C 148.289063 36.332031 148.367188 36.457031 148.429688 36.550781 L 152.164063 42.441406 C 152.242188 42.550781 152.304688 42.660156 152.445313 42.566406 C 152.585938 42.488281 152.507813 42.363281 152.445313 42.269531 Z M 148.710938 36.378906 "
       id="path123" />
    <path
       style=" stroke:none;fill-rule:nonzero;fill:rgb(12.940979%,11.764526%,11.764526%);fill-opacity:1;"
       d="M 150.511719 35.234375 C 150.449219 35.15625 150.371094 35.015625 150.230469 35.09375 C 150.089844 35.1875 150.167969 35.3125 150.230469 35.40625 L 153.964844 41.296875 C 154.042969 41.40625 154.105469 41.515625 154.246094 41.421875 C 154.386719 41.34375 154.308594 41.21875 154.246094 41.125 Z M 150.511719 35.234375 "
       id="path125" />
    <path
       style=" stroke:none;fill-rule:nonzero;fill:rgb(12.940979%,11.764526%,11.764526%);fill-opacity:1;"
       d="M 152.585938 36.617188 C 152.820313 36.476563 152.882813 36.429688 153.742188 37.242188 C 153.914063 37.445313 154.867188 38.429688 155.070313 38.757813 C 155.289063 39.101563 155.132813 39.757813 154.960938 39.867188 C 154.882813 39.914063 154.710938 39.929688 154.632813 39.898438 C 154.554688 39.914063 154.335938 39.945313 154.242188 40.007813 C 153.992188 40.164063 154.070313 40.445313 154.148438 40.570313 C 154.257813 40.742188 154.507813 40.867188 154.757813 40.710938 C 155.382813 40.304688 155.554688 39.351563 155.507813 37.882813 C 155.507813 37.742188 155.492188 35.898438 155.023438 35.164063 C 154.882813 34.945313 154.585938 34.898438 154.367188 35.023438 C 154.179688 35.148438 154.148438 35.445313 154.242188 35.601563 C 154.507813 36.023438 154.789063 35.695313 154.976563 35.976563 C 155.117188 36.210938 155.164063 36.867188 155.242188 37.570313 L 155.226563 37.585938 L 154.851563 37.179688 C 154.429688 36.710938 153.617188 35.914063 153.320313 35.695313 C 153.132813 35.914063 152.835938 36.164063 152.476563 36.445313 Z M 152.585938 36.617188 "
       id="path127" />
    <path
       style=" stroke:none;fill-rule:nonzero;fill:rgb(12.940979%,11.764526%,11.764526%);fill-opacity:1;"
       d="M 158.179688 38.929688 L 159.351563 38.195313 L 159.304688 38.132813 C 159.101563 38.273438 158.929688 38.367188 158.851563 38.226563 C 158.804688 38.164063 158.773438 37.960938 158.726563 37.851563 L 157.945313 35.289063 C 157.929688 35.210938 157.882813 35.117188 157.867188 35.132813 C 157.820313 35.164063 157.320313 35.632813 157.148438 35.820313 L 157.179688 35.882813 L 157.429688 35.710938 C 157.460938 35.679688 157.585938 35.601563 157.664063 35.742188 C 157.695313 35.773438 157.710938 35.851563 157.726563 35.914063 L 158.460938 38.335938 C 158.523438 38.585938 158.382813 38.695313 158.148438 38.882813 Z M 158.179688 38.929688 "
       id="path129" />
    <path
       style=" stroke:none;fill-rule:nonzero;fill:rgb(12.940979%,11.764526%,11.764526%);fill-opacity:1;"
       d="M 157.238281 30.964844 C 157.175781 30.886719 157.097656 30.746094 156.957031 30.824219 C 156.816406 30.917969 156.894531 31.042969 156.957031 31.136719 L 160.691406 37.027344 C 160.769531 37.136719 160.832031 37.246094 160.972656 37.152344 C 161.113281 37.074219 161.035156 36.949219 160.972656 36.855469 Z M 157.238281 30.964844 "
       id="path131" />
    <g
       clip-path="url(#clip3)"
       clip-rule="nonzero"
       id="g135">
      <path
         style=" stroke:none;fill-rule:nonzero;fill:rgb(12.940979%,11.764526%,11.764526%);fill-opacity:1;"
         d="M 159.039063 29.816406 C 158.976563 29.738281 158.898438 29.597656 158.757813 29.675781 C 158.617188 29.769531 158.695313 29.894531 158.757813 29.988281 L 162.492188 35.878906 C 162.570313 35.988281 162.632813 36.097656 162.773438 36.003906 C 162.914063 35.925781 162.835938 35.800781 162.773438 35.707031 Z M 159.039063 29.816406 "
         id="path133" />
    </g>
    <path
       style=" stroke:none;fill-rule:nonzero;fill:rgb(12.940979%,11.764526%,11.764526%);fill-opacity:1;"
       d="M 90.507813 16.628906 C 91.101563 16.816406 92.414063 17.925781 92.117188 18.910156 C 92.023438 19.253906 91.851563 19.207031 91.789063 19.191406 C 91.039063 18.972656 89.507813 17.769531 89.742188 16.972656 C 89.867188 16.519531 90.289063 16.566406 90.507813 16.628906 Z M 87.492188 17.910156 C 87.632813 17.488281 87.664063 17.441406 87.835938 17.503906 C 87.945313 17.535156 88.101563 17.644531 88.273438 17.769531 L 91.601563 19.800781 L 91.632813 19.800781 C 91.773438 19.847656 92.179688 19.363281 92.289063 18.988281 C 92.617188 17.878906 91.710938 16.316406 90.570313 15.972656 C 90.054688 15.832031 89.617188 16.066406 89.460938 16.582031 C 89.273438 17.222656 89.804688 17.894531 90.117188 18.222656 L 90.101563 18.238281 C 89.351563 17.753906 88.117188 17.035156 87.570313 16.691406 L 87.523438 16.722656 C 87.492188 17.128906 87.429688 17.503906 87.367188 17.863281 Z M 87.492188 17.910156 "
       id="path137" />
    <path
       style=" stroke:none;fill-rule:nonzero;fill:rgb(12.940979%,11.764526%,11.764526%);fill-opacity:1;"
       d="M 88.800781 12.816406 L 92.941406 16.988281 L 93.097656 16.457031 L 88.957031 12.300781 Z M 88.800781 12.816406 "
       id="path139" />
    <path
       style=" stroke:none;fill-rule:nonzero;fill:rgb(12.940979%,11.764526%,11.764526%);fill-opacity:1;"
       d="M 88.734375 11.769531 C 88.625 11.738281 88.484375 11.691406 88.453125 11.847656 C 88.390625 12.003906 88.515625 12.050781 88.640625 12.082031 L 95.328125 14.050781 C 95.4375 14.082031 95.578125 14.128906 95.640625 13.972656 C 95.671875 13.816406 95.53125 13.769531 95.421875 13.738281 Z M 88.734375 11.769531 "
       id="path141" />
    <path
       style=" stroke:none;fill-rule:nonzero;fill:rgb(12.940979%,11.764526%,11.764526%);fill-opacity:1;"
       d="M 89.339844 9.722656 C 89.230469 9.691406 89.089844 9.644531 89.058594 9.800781 C 88.996094 9.957031 89.121094 10.003906 89.246094 10.035156 L 95.933594 12.003906 C 96.042969 12.035156 96.183594 12.082031 96.246094 11.925781 C 96.277344 11.769531 96.136719 11.722656 96.027344 11.691406 Z M 89.339844 9.722656 "
       id="path143" />
    <path
       style=" stroke:none;fill-rule:nonzero;fill:rgb(12.940979%,11.764526%,11.764526%);fill-opacity:1;"
       d="M 91.820313 9.386719 C 91.898438 9.121094 91.914063 9.042969 93.085938 9.121094 C 93.351563 9.152344 94.726563 9.261719 95.085938 9.371094 C 95.492188 9.480469 95.804688 10.089844 95.757813 10.277344 C 95.726563 10.371094 95.585938 10.480469 95.523438 10.511719 C 95.460938 10.589844 95.320313 10.746094 95.289063 10.855469 C 95.210938 11.136719 95.460938 11.308594 95.585938 11.355469 C 95.789063 11.402344 96.054688 11.339844 96.132813 11.058594 C 96.351563 10.339844 95.851563 9.511719 94.851563 8.417969 C 94.757813 8.324219 93.539063 6.964844 92.695313 6.714844 C 92.445313 6.636719 92.179688 6.777344 92.117188 7.011719 C 92.039063 7.246094 92.210938 7.480469 92.398438 7.542969 C 92.867188 7.683594 92.851563 7.246094 93.179688 7.355469 C 93.429688 7.417969 93.929688 7.886719 94.445313 8.386719 L 94.445313 8.402344 L 93.898438 8.324219 C 93.257813 8.261719 92.148438 8.199219 91.757813 8.214844 C 91.757813 8.511719 91.710938 8.902344 91.632813 9.339844 Z M 91.820313 9.386719 "
       id="path145" />
    <path
       style=" stroke:none;fill-rule:nonzero;fill:rgb(12.940979%,11.764526%,11.764526%);fill-opacity:1;"
       d="M 95.011719 6.050781 C 94.949219 5.957031 94.761719 5.722656 94.839844 5.425781 C 94.902344 5.238281 95.089844 5.035156 95.402344 5.128906 C 95.933594 5.285156 95.933594 6.019531 95.855469 6.519531 L 95.949219 6.519531 C 96.042969 6.050781 96.339844 5.675781 97.011719 5.878906 C 97.621094 6.050781 97.652344 6.550781 97.605469 6.722656 C 97.527344 6.988281 97.199219 7.050781 97.136719 7.285156 C 97.074219 7.457031 97.152344 7.519531 97.246094 7.550781 C 97.464844 7.613281 97.605469 7.394531 97.699219 7.113281 C 97.949219 6.222656 97.417969 5.566406 96.871094 5.410156 C 96.355469 5.253906 96.105469 5.535156 96.011719 5.660156 L 95.996094 5.660156 C 95.964844 5.082031 95.855469 4.800781 95.496094 4.691406 C 95.089844 4.582031 94.808594 4.863281 94.699219 5.222656 C 94.621094 5.488281 94.714844 5.910156 94.964844 6.113281 Z M 95.011719 6.050781 "
       id="path147" />
    <path
       style=" stroke:none;fill-rule:nonzero;fill:rgb(12.940979%,11.764526%,11.764526%);fill-opacity:1;"
       d="M 91.59375 2.082031 C 91.484375 2.050781 91.34375 2.003906 91.3125 2.160156 C 91.25 2.316406 91.375 2.363281 91.5 2.394531 L 98.1875 4.363281 C 98.296875 4.394531 98.4375 4.441406 98.5 4.285156 C 98.53125 4.128906 98.390625 4.082031 98.28125 4.050781 Z M 91.59375 2.082031 "
       id="path149" />
    <path
       style=" stroke:none;fill-rule:nonzero;fill:rgb(12.940979%,11.764526%,11.764526%);fill-opacity:1;"
       d="M 92.195313 0.03125 C 92.085938 0 91.945313 -0.046875 91.914063 0.109375 C 91.851563 0.265625 91.976563 0.3125 92.101563 0.34375 L 98.789063 2.3125 C 98.898438 2.34375 99.039063 2.390625 99.101563 2.234375 C 99.132813 2.078125 98.992188 2.03125 98.882813 2 Z M 92.195313 0.03125 "
       id="path151" />
    <path
       style=" stroke:none;fill-rule:nonzero;fill:rgb(12.940979%,11.764526%,11.764526%);fill-opacity:1;"
       d="M 87.042969 23.0625 C 86.480469 22.890625 86.292969 23.140625 86.136719 23.640625 L 86.199219 23.65625 C 86.386719 23.34375 86.589844 23.296875 86.933594 23.390625 L 87.730469 23.640625 C 88.074219 23.75 88.277344 23.734375 88.464844 23.390625 C 88.449219 23.796875 88.636719 23.90625 88.964844 24.015625 L 89.761719 24.25 C 90.089844 24.359375 90.246094 24.515625 90.214844 24.875 L 90.277344 24.890625 C 90.433594 24.390625 90.417969 24.078125 89.824219 23.90625 L 88.980469 23.640625 C 88.683594 23.546875 88.558594 23.421875 88.558594 23.0625 C 88.386719 23.359375 88.199219 23.40625 87.902344 23.3125 Z M 87.042969 23.0625 "
       id="path153" />
    <path
       style=" stroke:none;fill-rule:nonzero;fill:rgb(12.940979%,11.764526%,11.764526%);fill-opacity:1;"
       d="M 139.894531 44.21875 C 139.566406 43.71875 139.253906 43.78125 138.816406 44.0625 L 138.847656 44.125 C 139.191406 44 139.394531 44.09375 139.582031 44.375 L 140.035156 45.09375 C 140.238281 45.390625 140.378906 45.515625 140.753906 45.390625 C 140.488281 45.671875 140.550781 45.875 140.738281 46.15625 L 141.191406 46.875 C 141.378906 47.15625 141.394531 47.375 141.128906 47.625 L 141.175781 47.6875 C 141.613281 47.40625 141.800781 47.171875 141.472656 46.65625 L 140.988281 45.90625 C 140.816406 45.640625 140.816406 45.46875 141.035156 45.203125 C 140.707031 45.3125 140.550781 45.21875 140.378906 44.96875 Z M 139.894531 44.21875 "
       id="path155" />
    <path
       style=" stroke:none;fill-rule:nonzero;fill:rgb(12.940979%,11.764526%,11.764526%);fill-opacity:1;"
       d="M 111.515625 131.21875 C 112.6875 130.203125 112.40625 129.359375 111.625 128.265625 L 111.515625 128.359375 C 111.890625 129.25 111.6875 129.78125 111 130.375 L 109.390625 131.78125 C 108.6875 132.390625 108.421875 132.859375 108.859375 133.84375 L 108.828125 133.859375 C 108.0625 133.171875 107.578125 133.359375 106.890625 133.96875 L 105.265625 135.375 C 104.59375 135.96875 104.078125 136.0625 103.390625 135.453125 L 103.28125 135.546875 C 104.0625 136.640625 104.71875 137.140625 105.875 136.125 L 107.59375 134.640625 C 108.21875 134.09375 108.65625 134 109.359375 134.578125 C 109.015625 133.6875 109.171875 133.25 109.796875 132.71875 Z M 111.515625 131.21875 "
       id="path157" />
  </g>
</svg>
