<?xml version="1.0" encoding="UTF-8" standalone="no"?>
<svg
   xmlns:dc="http://purl.org/dc/elements/1.1/"
   xmlns:cc="http://creativecommons.org/ns#"
   xmlns:rdf="http://www.w3.org/1999/02/22-rdf-syntax-ns#"
   xmlns:svg="http://www.w3.org/2000/svg"
   xmlns="http://www.w3.org/2000/svg"
   xmlns:sodipodi="http://sodipodi.sourceforge.net/DTD/sodipodi-0.dtd"
   xmlns:inkscape="http://www.inkscape.org/namespaces/inkscape"
   width="149.241806pt"
   height="147.229614pt"
   viewBox="0 0 149.241806 147.229614"
   version="1.2"
   id="svg104"
   sodipodi:docname="solution_space.svg"
   inkscape:version="0.92.4 (5da689c313, 2019-01-14)">
  <metadata
     id="metadata108">
    <rdf:RDF>
      <cc:Work
         rdf:about="">
        <dc:format>image/svg+xml</dc:format>
        <dc:type
           rdf:resource="http://purl.org/dc/dcmitype/StillImage" />
        <dc:title></dc:title>
      </cc:Work>
    </rdf:RDF>
  </metadata>
  <sodipodi:namedview
     pagecolor="#ffffff"
     bordercolor="#666666"
     borderopacity="1"
     objecttolerance="10"
     gridtolerance="10"
     guidetolerance="10"
     inkscape:pageopacity="0"
     inkscape:pageshadow="2"
     inkscape:window-width="661"
     inkscape:window-height="480"
     id="namedview106"
     showgrid="false"
     inkscape:zoom="1.2022038"
     inkscape:cx="99.494537"
     inkscape:cy="98.153076"
     inkscape:window-x="0"
     inkscape:window-y="0"
     inkscape:window-maximized="0"
     inkscape:current-layer="svg104" />
  <defs
     id="defs11">
    <clipPath
       id="clip1">
      <path
         d="M 68 9 L 69 9 L 69 147.230469 L 68 147.230469 Z M 68 9 "
         id="path2" />
    </clipPath>
    <clipPath
       id="clip2">
      <path
         d="M 51 79 L 69 79 L 69 147.230469 L 51 147.230469 Z M 51 79 "
         id="path5" />
    </clipPath>
    <clipPath
       id="clip3">
      <path
         d="M 147 77 L 149.242188 77 L 149.242188 82 L 147 82 Z M 147 77 "
         id="path8" />
    </clipPath>
  </defs>
  <g
     id="surface46">
    <path
       style=" stroke:none;fill-rule:nonzero;fill:rgb(79.214478%,79.214478%,79.214478%);fill-opacity:1;"
       d="M 68.945313 78.324219 L 137.378906 32.703125 L 137.164063 9.851563 L 85.964844 9.851563 L 68.421875 80.027344 "
       id="path13" />
    <path
       style="fill:none;stroke-width:0.274;stroke-linecap:round;stroke-linejoin:round;stroke:rgb(0%,0%,0%);stroke-opacity:1;stroke-miterlimit:4;"
       d="M 13.988281 78.402344 L 13.988281 77.546875 M 41.40625 78.402344 L 41.40625 77.546875 M 96.246094 78.402344 L 96.246094 77.546875 M 123.667969 78.402344 L 123.667969 77.546875 "
       id="path15" />
    <path
       style="fill:none;stroke-width:0.137;stroke-linecap:round;stroke-linejoin:round;stroke:rgb(0%,0%,0%);stroke-opacity:1;stroke-miterlimit:4;"
       d="M 19.472656 78.402344 L 19.472656 77.890625 M 24.957031 78.402344 L 24.957031 77.890625 M 30.441406 78.402344 L 30.441406 77.890625 M 35.925781 78.402344 L 35.925781 77.890625 M 46.890625 78.402344 L 46.890625 77.890625 M 52.375 78.402344 L 52.375 77.890625 M 57.859375 78.402344 L 57.859375 77.890625 M 63.34375 78.402344 L 63.34375 77.890625 M 74.3125 78.402344 L 74.3125 77.890625 M 79.796875 78.402344 L 79.796875 77.890625 M 85.28125 78.402344 L 85.28125 77.890625 M 90.765625 78.402344 L 90.765625 77.890625 M 101.730469 78.402344 L 101.730469 77.890625 M 107.214844 78.402344 L 107.214844 77.890625 M 112.699219 78.402344 L 112.699219 77.890625 M 118.183594 78.402344 L 118.183594 77.890625 M 8.503906 78.402344 L 8.503906 77.890625 M 3.019531 78.402344 L 3.019531 77.890625 M 129.152344 78.402344 L 129.152344 77.890625 M 134.636719 78.402344 L 134.636719 77.890625 "
       id="path17" />
    <path
       style="fill:none;stroke-width:0.274;stroke-linecap:round;stroke-linejoin:round;stroke:rgb(0%,0%,0%);stroke-opacity:1;stroke-miterlimit:4;"
       d="M 0.277344 78.402344 L 137.378906 78.402344 "
       id="path19" />
    <path
       style=" stroke:none;fill-rule:nonzero;fill:rgb(0%,0%,0%);fill-opacity:1;"
       d="M 138.027344 78.121094 C 137.570313 77.984375 137.277344 77.859375 136.914063 77.710938 L 136.914063 79.097656 C 137.042969 79.035156 137.570313 78.824219 138.027344 78.6875 C 138.511719 78.539063 138.949219 78.441406 139.234375 78.40625 C 138.949219 78.367188 138.511719 78.269531 138.027344 78.121094 "
       id="path21" />
    <path
       style="fill:none;stroke-width:0.274;stroke-linecap:round;stroke-linejoin:round;stroke:rgb(0%,0%,0%);stroke-opacity:1;stroke-miterlimit:4;"
       d="M 68.828125 133.242188 L 69.683594 133.242188 M 68.828125 105.824219 L 69.683594 105.824219 M 68.828125 50.984375 L 69.683594 50.984375 M 68.828125 23.5625 L 69.683594 23.5625 "
       id="path23" />
    <path
       style="fill:none;stroke-width:0.137;stroke-linecap:round;stroke-linejoin:round;stroke:rgb(0%,0%,0%);stroke-opacity:1;stroke-miterlimit:4;"
       d="M 68.828125 127.757813 L 69.34375 127.757813 M 68.828125 122.273438 L 69.34375 122.273438 M 68.828125 116.789063 L 69.34375 116.789063 M 68.828125 111.308594 L 69.34375 111.308594 M 68.828125 100.339844 L 69.34375 100.339844 M 68.828125 94.855469 L 69.34375 94.855469 M 68.828125 89.371094 L 69.34375 89.371094 M 68.828125 83.886719 L 69.34375 83.886719 M 68.828125 72.917969 L 69.34375 72.917969 M 68.828125 67.433594 L 69.34375 67.433594 M 68.828125 61.949219 L 69.34375 61.949219 M 68.828125 56.46875 L 69.34375 56.46875 M 68.828125 45.5 L 69.34375 45.5 M 68.828125 40.015625 L 69.34375 40.015625 M 68.828125 34.53125 L 69.34375 34.53125 M 68.828125 29.046875 L 69.34375 29.046875 M 68.828125 138.726563 L 69.34375 138.726563 M 68.828125 144.210938 L 69.34375 144.210938 M 68.828125 18.078125 L 69.34375 18.078125 M 68.828125 12.59375 L 69.34375 12.59375 "
       id="path25" />
    <g
       clip-path="url(#clip1)"
       clip-rule="nonzero"
       id="g29">
      <path
         style="fill:none;stroke-width:0.274;stroke-linecap:round;stroke-linejoin:round;stroke:rgb(0%,0%,0%);stroke-opacity:1;stroke-miterlimit:4;"
         d="M 68.828125 146.953125 L 68.828125 9.851563 "
         id="path27" />
    </g>
    <path
       style=" stroke:none;fill-rule:nonzero;fill:rgb(0%,0%,0%);fill-opacity:1;"
       d="M 68.546875 9.207031 C 68.410156 9.660156 68.285156 9.953125 68.136719 10.316406 L 69.519531 10.316406 C 69.460938 10.1875 69.25 9.660156 69.113281 9.207031 C 68.964844 8.722656 68.867188 8.28125 68.828125 7.996094 C 68.792969 8.28125 68.695313 8.722656 68.546875 9.207031 "
       id="path31" />
    <path
       style="fill:none;stroke-width:1.249;stroke-linecap:round;stroke-linejoin:round;stroke:rgb(92.155457%,9.803772%,13.725281%);stroke-opacity:1;stroke-miterlimit:4;"
       d="M 68.828125 78.402344 L 123.667969 92.113281 "
       id="path33" />
    <path
       style=" stroke:none;fill-rule:nonzero;fill:rgb(92.155457%,9.803772%,13.725281%);fill-opacity:1;"
       d="M 125.886719 91.746094 C 124.59375 90.972656 123.777344 90.355469 122.765625 89.621094 L 121.695313 93.898438 C 122.148438 93.808594 123.941406 93.566406 125.449219 93.492188 C 127.066406 93.414063 128.503906 93.445313 129.414063 93.554688 C 128.558594 93.222656 127.277344 92.574219 125.886719 91.746094 "
       id="path35" />
    <path
       style="fill-rule:nonzero;fill:rgb(92.155457%,9.803772%,13.725281%);fill-opacity:1;stroke-width:0.548;stroke-linecap:round;stroke-linejoin:round;stroke:rgb(92.155457%,9.803772%,13.725281%);stroke-opacity:1;stroke-miterlimit:4;"
       d="M 68.828125 78.402344 L 79.796875 70.175781 "
       id="path37" />
    <path
       style=" stroke:none;fill-rule:nonzero;fill:rgb(92.155457%,9.803772%,13.725281%);fill-opacity:1;"
       d="M 80.492188 68.953125 C 79.605469 69.277344 78.980469 69.429688 78.222656 69.628906 L 79.882813 71.84375 C 80.019531 71.589844 80.609375 70.617188 81.171875 69.855469 C 81.773438 69.039063 82.355469 68.351563 82.769531 67.949219 C 82.269531 68.234375 81.445313 68.605469 80.492188 68.953125 "
       id="path39" />
    <path
       style="fill:none;stroke-width:1.249;stroke-linecap:round;stroke-linejoin:round;stroke:rgb(92.155457%,9.803772%,13.725281%);stroke-opacity:1;stroke-miterlimit:4;"
       d="M 68.828125 78.402344 L 41.40625 37.273438 "
       id="path41" />
    <path
       style=" stroke:none;fill-rule:nonzero;fill:rgb(92.155457%,9.803772%,13.725281%);fill-opacity:1;"
       d="M 39.519531 36.054688 C 39.957031 37.496094 40.144531 38.5 40.398438 39.726563 L 44.070313 37.277344 C 43.675781 37.042969 42.183594 36.015625 41.019531 35.054688 C 39.769531 34.027344 38.726563 33.035156 38.125 32.34375 C 38.535156 33.160156 39.050781 34.507813 39.519531 36.054688 "
       id="path43" />
    <g
       clip-path="url(#clip2)"
       clip-rule="nonzero"
       id="g47">
      <path
         style="fill:none;stroke-width:0.548;stroke-linecap:round;stroke-linejoin:round;stroke:rgb(0%,0%,0%);stroke-opacity:1;stroke-dasharray:3.122,3.122;stroke-miterlimit:4;"
         d="M 51.691406 146.953125 L 68.421875 80.027344 "
         id="path45" />
    </g>
    <path
       style="fill:none;stroke-width:0.548;stroke-linecap:round;stroke-linejoin:round;stroke:rgb(0%,0%,0%);stroke-opacity:1;stroke-dasharray:3.122,3.122;stroke-miterlimit:4;"
       d="M 0.277344 124.101563 L 68.945313 78.324219 "
       id="path49" />
    <path
       style="fill:none;stroke-width:0.548;stroke-linecap:round;stroke-linejoin:round;stroke:rgb(0%,0%,0%);stroke-opacity:1;stroke-miterlimit:4;"
       d="M 85.964844 9.851563 L 68.421875 80.027344 M 68.945313 78.324219 L 137.378906 32.703125 "
       id="path51" />
    <path
       style=" stroke:none;fill-rule:nonzero;fill:rgb(0%,0%,0%);fill-opacity:1;"
       d="M 93.570313 23.652344 L 93.398438 25.042969 L 93.539063 25.042969 C 93.585938 24.949219 93.617188 24.871094 93.742188 24.871094 C 94.007813 24.871094 94.351563 25.027344 94.617188 25.027344 C 95.101563 25.027344 95.914063 24.808594 95.914063 23.855469 C 95.914063 23.121094 94.851563 22.339844 94.851563 21.792969 C 94.851563 21.355469 95.132813 21.277344 95.320313 21.277344 C 95.882813 21.277344 96.101563 21.792969 96.132813 22.292969 L 96.273438 22.292969 L 96.460938 21.074219 L 96.335938 21.074219 C 96.289063 21.136719 96.242188 21.230469 96.085938 21.230469 C 95.820313 21.230469 95.648438 21.074219 95.257813 21.074219 C 94.335938 21.074219 94.210938 21.777344 94.210938 22.058594 C 94.210938 22.730469 95.242188 23.558594 95.242188 24.136719 C 95.242188 24.433594 95.117188 24.839844 94.617188 24.839844 C 93.914063 24.839844 93.773438 24.042969 93.710938 23.652344 Z M 93.570313 23.652344 "
       id="path53" />
    <path
       style=" stroke:none;fill-rule:nonzero;fill:rgb(0%,0%,0%);fill-opacity:1;"
       d="M 99.457031 21.074219 C 98.191406 21.074219 96.894531 22.480469 96.894531 23.777344 C 96.894531 24.496094 97.285156 25.027344 98.222656 25.027344 C 99.550781 25.027344 100.753906 23.449219 100.753906 22.371094 C 100.753906 21.792969 100.472656 21.074219 99.457031 21.074219 Z M 99.410156 21.261719 C 99.816406 21.261719 100.019531 21.652344 100.019531 22.105469 C 100.019531 23.042969 99.316406 24.839844 98.332031 24.839844 C 97.894531 24.839844 97.628906 24.527344 97.628906 24.027344 C 97.628906 22.996094 98.425781 21.261719 99.410156 21.261719 Z M 99.410156 21.261719 "
       id="path55" />
    <path
       style=" stroke:none;fill-rule:nonzero;fill:rgb(0%,0%,0%);fill-opacity:1;"
       d="M 103.015625 23.855469 C 102.59375 24.402344 102.40625 24.652344 102.1875 24.652344 C 102.0625 24.652344 102.0625 24.527344 102.0625 24.480469 C 102.0625 24.386719 102.125 24.152344 102.15625 24.074219 L 103.46875 19.011719 L 103.421875 18.964844 C 102.96875 19.074219 102.515625 19.152344 102.0625 19.199219 L 102.0625 19.339844 C 102.28125 19.339844 102.65625 19.339844 102.65625 19.558594 C 102.65625 19.746094 101.390625 24.308594 101.390625 24.480469 C 101.390625 24.730469 101.421875 25.027344 101.8125 25.027344 C 102.34375 25.027344 102.6875 24.605469 103.140625 23.933594 Z M 103.015625 23.855469 "
       id="path57" />
    <path
       style=" stroke:none;fill-rule:nonzero;fill:rgb(0%,0%,0%);fill-opacity:1;"
       d="M 107.492188 23.917969 C 107.179688 24.292969 106.929688 24.605469 106.773438 24.605469 C 106.679688 24.605469 106.664063 24.511719 106.664063 24.464844 C 106.664063 24.324219 106.773438 23.949219 106.835938 23.777344 L 107.523438 21.167969 L 106.882813 21.167969 C 106.539063 22.089844 106.335938 22.652344 105.914063 23.292969 C 105.617188 23.746094 105.070313 24.574219 104.695313 24.574219 C 104.507813 24.574219 104.476563 24.386719 104.507813 24.277344 L 105.304688 21.105469 L 105.273438 21.074219 C 104.835938 21.183594 104.398438 21.261719 103.960938 21.324219 L 103.960938 21.433594 C 104.320313 21.433594 104.492188 21.433594 104.492188 21.699219 C 104.492188 21.933594 103.820313 24.136719 103.820313 24.511719 C 103.820313 24.902344 103.992188 25.027344 104.304688 25.027344 C 105.101563 25.027344 105.742188 23.933594 106.335938 22.949219 L 106.367188 22.949219 C 106.164063 23.667969 105.992188 24.402344 105.992188 24.558594 C 105.992188 24.683594 106.007813 25.011719 106.398438 25.011719 C 106.835938 25.011719 107.054688 24.777344 107.617188 23.996094 Z M 107.492188 23.917969 "
       id="path59" />
    <path
       style=" stroke:none;fill-rule:nonzero;fill:rgb(0%,0%,0%);fill-opacity:1;"
       d="M 110.410156 21.199219 L 109.722656 21.199219 L 109.957031 20.292969 C 109.988281 20.230469 109.957031 20.152344 109.894531 20.167969 C 109.816406 20.152344 109.785156 20.230469 109.753906 20.261719 C 109.503906 20.574219 109.082031 20.964844 108.800781 21.121094 C 108.660156 21.199219 108.410156 21.261719 108.363281 21.339844 C 108.332031 21.371094 108.332031 21.417969 108.332031 21.480469 L 108.988281 21.480469 L 108.363281 23.871094 C 108.316406 24.011719 108.160156 24.542969 108.160156 24.683594 C 108.160156 24.949219 108.394531 25.027344 108.582031 25.027344 C 109.035156 25.027344 109.363281 24.652344 109.816406 23.980469 L 109.707031 23.917969 C 109.488281 24.183594 109.175781 24.605469 109.003906 24.605469 C 108.910156 24.605469 108.863281 24.527344 108.863281 24.449219 C 108.863281 24.433594 108.863281 24.402344 108.878906 24.386719 L 109.644531 21.480469 L 110.378906 21.480469 Z M 110.410156 21.199219 "
       id="path61" />
    <path
       style=" stroke:none;fill-rule:nonzero;fill:rgb(0%,0%,0%);fill-opacity:1;"
       d="M 112.199219 23.933594 C 111.839844 24.449219 111.589844 24.621094 111.480469 24.621094 C 111.402344 24.621094 111.339844 24.542969 111.339844 24.480469 C 111.339844 24.386719 111.449219 24.027344 111.480469 23.917969 L 112.246094 21.105469 L 112.230469 21.074219 C 111.886719 21.136719 111.167969 21.277344 110.824219 21.292969 L 110.824219 21.433594 C 111.308594 21.433594 111.386719 21.480469 111.386719 21.667969 C 111.386719 21.917969 110.683594 24.074219 110.683594 24.480469 C 110.683594 24.652344 110.683594 25.027344 111.105469 25.027344 C 111.589844 25.027344 111.980469 24.542969 112.308594 24.027344 Z M 112.574219 19.699219 C 112.574219 19.511719 112.417969 19.214844 112.136719 19.214844 C 111.917969 19.214844 111.714844 19.386719 111.714844 19.699219 C 111.714844 19.996094 111.917969 20.152344 112.136719 20.152344 C 112.433594 20.152344 112.574219 19.871094 112.574219 19.699219 Z M 112.574219 19.699219 "
       id="path63" />
    <path
       style=" stroke:none;fill-rule:nonzero;fill:rgb(0%,0%,0%);fill-opacity:1;"
       d="M 115.488281 21.074219 C 114.222656 21.074219 112.925781 22.480469 112.925781 23.777344 C 112.925781 24.496094 113.316406 25.027344 114.253906 25.027344 C 115.582031 25.027344 116.785156 23.449219 116.785156 22.371094 C 116.785156 21.792969 116.503906 21.074219 115.488281 21.074219 Z M 115.441406 21.261719 C 115.847656 21.261719 116.050781 21.652344 116.050781 22.105469 C 116.050781 23.042969 115.347656 24.839844 114.363281 24.839844 C 113.925781 24.839844 113.660156 24.527344 113.660156 24.027344 C 113.660156 22.996094 114.457031 21.261719 115.441406 21.261719 Z M 115.441406 21.261719 "
       id="path65" />
    <path
       style=" stroke:none;fill-rule:nonzero;fill:rgb(0%,0%,0%);fill-opacity:1;"
       d="M 121.078125 23.917969 C 120.75 24.324219 120.53125 24.605469 120.359375 24.605469 C 120.34375 24.605469 120.21875 24.589844 120.21875 24.449219 C 120.21875 24.183594 120.921875 22.027344 120.921875 21.652344 C 120.921875 21.292969 120.71875 21.074219 120.328125 21.074219 C 119.59375 21.074219 118.796875 22.292969 118.375 22.949219 L 118.359375 22.917969 L 118.921875 21.105469 L 118.890625 21.074219 C 118.421875 21.183594 117.953125 21.261719 117.484375 21.355469 L 117.484375 21.496094 C 117.953125 21.496094 118.046875 21.589844 118.046875 21.714844 C 118.046875 21.902344 117.453125 23.949219 117.1875 24.933594 L 117.84375 24.933594 C 118.203125 23.746094 118.3125 23.371094 118.71875 22.761719 C 119.03125 22.277344 119.578125 21.527344 120 21.527344 C 120.15625 21.527344 120.21875 21.652344 120.21875 21.808594 C 120.21875 22.152344 119.5625 24.292969 119.5625 24.496094 C 119.5625 24.746094 119.59375 25.011719 119.984375 25.011719 C 120.453125 25.011719 120.765625 24.605469 121.203125 24.027344 Z M 121.078125 23.917969 "
       id="path67" />
    <path
       style=" stroke:none;fill-rule:nonzero;fill:rgb(0%,0%,0%);fill-opacity:1;"
       d="M 96.996094 35.550781 C 97.355469 34.394531 97.464844 33.988281 97.808594 33.363281 C 97.871094 33.238281 98.402344 32.269531 98.667969 32.269531 C 98.871094 32.269531 98.746094 32.582031 99.121094 32.582031 C 99.214844 32.582031 99.527344 32.582031 99.527344 32.128906 C 99.527344 31.832031 99.308594 31.691406 99.105469 31.691406 C 98.558594 31.691406 97.902344 32.722656 97.605469 33.300781 L 97.542969 33.472656 L 97.527344 33.457031 L 97.949219 31.722656 L 97.917969 31.691406 C 97.527344 31.753906 97.011719 31.878906 96.574219 31.941406 L 96.574219 32.082031 C 96.667969 32.066406 96.761719 32.035156 96.855469 32.035156 C 97.136719 32.035156 97.167969 32.175781 97.167969 32.300781 C 97.167969 32.378906 97.121094 32.675781 97.027344 33.003906 L 96.324219 35.550781 Z M 96.996094 35.550781 "
       id="path69" />
    <path
       style=" stroke:none;fill-rule:nonzero;fill:rgb(0%,0%,0%);fill-opacity:1;"
       d="M 100.664063 33.347656 C 100.992188 32.566406 101.585938 31.894531 102.054688 31.894531 C 102.273438 31.894531 102.351563 32.066406 102.351563 32.253906 C 102.351563 32.316406 102.320313 33.363281 100.507813 33.738281 Z M 102.460938 34.597656 C 102.023438 34.957031 101.664063 35.253906 101.195313 35.253906 C 100.820313 35.253906 100.367188 35.050781 100.367188 34.457031 C 100.367188 34.285156 100.414063 34.113281 100.460938 33.925781 L 100.695313 33.894531 C 102.117188 33.691406 102.929688 32.988281 102.929688 32.285156 C 102.929688 31.910156 102.664063 31.691406 102.210938 31.691406 C 100.992188 31.691406 99.601563 33.160156 99.601563 34.410156 C 99.601563 34.972656 99.882813 35.644531 100.804688 35.644531 C 101.679688 35.644531 102.476563 34.847656 102.570313 34.707031 Z M 102.460938 34.597656 "
       id="path71" />
    <path
       style=" stroke:none;fill-rule:nonzero;fill:rgb(0%,0%,0%);fill-opacity:1;"
       d="M 107.339844 32.019531 L 106.808594 32.019531 C 106.746094 32.019531 106.667969 31.941406 106.511719 31.863281 C 106.355469 31.785156 106.136719 31.691406 105.777344 31.691406 C 105.074219 31.691406 104.058594 32.207031 104.058594 33.191406 C 104.058594 33.785156 104.433594 33.988281 104.746094 34.128906 C 104.449219 34.332031 104.074219 34.597656 104.074219 34.863281 C 104.074219 35.019531 104.199219 35.128906 104.308594 35.207031 C 103.574219 35.691406 103.277344 35.878906 103.277344 36.378906 C 103.277344 36.863281 103.746094 37.347656 104.699219 37.347656 C 105.902344 37.347656 106.574219 36.816406 106.574219 36.082031 C 106.574219 34.863281 104.714844 35.003906 104.714844 34.550781 C 104.714844 34.425781 104.902344 34.191406 105.027344 34.191406 C 105.152344 34.191406 105.261719 34.238281 105.386719 34.238281 C 106.152344 34.238281 106.980469 33.519531 106.980469 32.863281 C 106.980469 32.691406 106.949219 32.519531 106.902344 32.347656 L 107.339844 32.347656 Z M 106.058594 36.332031 C 106.058594 36.769531 105.621094 37.160156 104.839844 37.160156 C 104.714844 37.160156 103.761719 37.128906 103.761719 36.316406 C 103.761719 36.113281 103.761719 35.878906 104.121094 35.566406 C 104.152344 35.535156 104.449219 35.300781 104.496094 35.300781 C 104.574219 35.300781 105.417969 35.628906 105.574219 35.707031 C 105.746094 35.785156 106.058594 35.941406 106.058594 36.332031 Z M 106.292969 32.488281 C 106.292969 33.207031 105.855469 34.050781 105.277344 34.050781 C 104.886719 34.050781 104.730469 33.753906 104.730469 33.363281 C 104.730469 32.785156 105.121094 31.894531 105.792969 31.894531 C 106.152344 31.894531 106.292969 32.144531 106.292969 32.488281 Z M 106.292969 32.488281 "
       id="path73" />
    <path
       style=" stroke:none;fill-rule:nonzero;fill:rgb(0%,0%,0%);fill-opacity:1;"
       d="M 109.523438 34.550781 C 109.164063 35.066406 108.914063 35.238281 108.804688 35.238281 C 108.726563 35.238281 108.664063 35.160156 108.664063 35.097656 C 108.664063 35.003906 108.773438 34.644531 108.804688 34.535156 L 109.570313 31.722656 L 109.554688 31.691406 C 109.210938 31.753906 108.492188 31.894531 108.148438 31.910156 L 108.148438 32.050781 C 108.632813 32.050781 108.710938 32.097656 108.710938 32.285156 C 108.710938 32.535156 108.007813 34.691406 108.007813 35.097656 C 108.007813 35.269531 108.007813 35.644531 108.429688 35.644531 C 108.914063 35.644531 109.304688 35.160156 109.632813 34.644531 Z M 109.898438 30.316406 C 109.898438 30.128906 109.742188 29.832031 109.460938 29.832031 C 109.242188 29.832031 109.039063 30.003906 109.039063 30.316406 C 109.039063 30.613281 109.242188 30.769531 109.460938 30.769531 C 109.757813 30.769531 109.898438 30.488281 109.898438 30.316406 Z M 109.898438 30.316406 "
       id="path75" />
    <path
       style=" stroke:none;fill-rule:nonzero;fill:rgb(0%,0%,0%);fill-opacity:1;"
       d="M 112.816406 31.691406 C 111.550781 31.691406 110.253906 33.097656 110.253906 34.394531 C 110.253906 35.113281 110.644531 35.644531 111.582031 35.644531 C 112.910156 35.644531 114.113281 34.066406 114.113281 32.988281 C 114.113281 32.410156 113.832031 31.691406 112.816406 31.691406 Z M 112.769531 31.878906 C 113.175781 31.878906 113.378906 32.269531 113.378906 32.722656 C 113.378906 33.660156 112.675781 35.457031 111.691406 35.457031 C 111.253906 35.457031 110.988281 35.144531 110.988281 34.644531 C 110.988281 33.613281 111.785156 31.878906 112.769531 31.878906 Z M 112.769531 31.878906 "
       id="path77" />
    <path
       style=" stroke:none;fill-rule:nonzero;fill:rgb(0%,0%,0%);fill-opacity:1;"
       d="M 118.40625 34.535156 C 118.078125 34.941406 117.859375 35.222656 117.6875 35.222656 C 117.671875 35.222656 117.546875 35.207031 117.546875 35.066406 C 117.546875 34.800781 118.25 32.644531 118.25 32.269531 C 118.25 31.910156 118.046875 31.691406 117.65625 31.691406 C 116.921875 31.691406 116.125 32.910156 115.703125 33.566406 L 115.6875 33.535156 L 116.25 31.722656 L 116.21875 31.691406 C 115.75 31.800781 115.28125 31.878906 114.8125 31.972656 L 114.8125 32.113281 C 115.28125 32.113281 115.375 32.207031 115.375 32.332031 C 115.375 32.519531 114.78125 34.566406 114.515625 35.550781 L 115.171875 35.550781 C 115.53125 34.363281 115.640625 33.988281 116.046875 33.378906 C 116.359375 32.894531 116.90625 32.144531 117.328125 32.144531 C 117.484375 32.144531 117.546875 32.269531 117.546875 32.425781 C 117.546875 32.769531 116.890625 34.910156 116.890625 35.113281 C 116.890625 35.363281 116.921875 35.628906 117.3125 35.628906 C 117.78125 35.628906 118.09375 35.222656 118.53125 34.644531 Z M 118.40625 34.535156 "
       id="path79" />
    <path
       style=" stroke:none;fill-rule:nonzero;fill:rgb(0%,0%,0%);fill-opacity:1;"
       d="M 70.417969 3.71875 C 69.902344 4.21875 69.683594 4.5 69.511719 4.5 C 69.417969 4.5 69.355469 4.421875 69.355469 4.34375 C 69.355469 4 70.386719 0.171875 70.417969 0.03125 L 70.339844 0 L 69.652344 0.078125 L 69.621094 0.109375 L 69.511719 0.609375 L 69.496094 0.609375 C 69.449219 0.296875 69.089844 0 68.605469 0 C 67.105469 0 65.386719 2.09375 65.386719 3.75 C 65.386719 4.078125 65.417969 5.078125 66.542969 5.078125 C 67.214844 5.078125 67.824219 4.734375 68.746094 3.375 L 68.777344 3.390625 C 68.589844 4.078125 68.542969 4.328125 68.542969 4.578125 C 68.542969 4.765625 68.542969 5.0625 69.011719 5.0625 C 69.496094 5.0625 69.871094 4.65625 70.542969 3.828125 Z M 66.339844 3.734375 C 66.339844 2.71875 67.339844 0.25 68.652344 0.25 C 68.980469 0.25 69.292969 0.453125 69.292969 1 C 69.292969 2.09375 68.199219 4.53125 67.011719 4.53125 C 66.699219 4.53125 66.339844 4.328125 66.339844 3.734375 Z M 66.339844 3.734375 "
       id="path81" />
    <path
       style=" stroke:none;fill-rule:nonzero;fill:rgb(0%,0%,0%);fill-opacity:1;"
       d="M 73.316406 5.328125 C 73.207031 5.5625 73.113281 5.734375 72.691406 5.734375 L 71.503906 5.734375 L 71.503906 5.703125 L 72.707031 4.5 C 73.488281 3.71875 73.644531 3.4375 73.644531 3.015625 C 73.644531 2.546875 73.285156 1.984375 72.628906 1.984375 C 72.472656 1.984375 71.660156 2 71.316406 2.984375 L 71.441406 3.015625 C 71.535156 2.859375 71.769531 2.4375 72.332031 2.4375 C 72.816406 2.4375 73.097656 2.8125 73.097656 3.203125 C 73.097656 3.40625 73.082031 3.765625 72.207031 4.703125 L 70.894531 6.09375 L 70.894531 6.203125 L 73.113281 6.203125 L 73.425781 5.375 Z M 73.316406 5.328125 "
       id="path83" />
    <path
       style=" stroke:none;fill-rule:nonzero;fill:rgb(0%,0%,0%);fill-opacity:1;"
       d="M 146.285156 79.273438 C 145.769531 79.773438 145.550781 80.054688 145.378906 80.054688 C 145.285156 80.054688 145.222656 79.976563 145.222656 79.898438 C 145.222656 79.554688 146.253906 75.726563 146.285156 75.585938 L 146.207031 75.554688 L 145.519531 75.632813 L 145.488281 75.664063 L 145.378906 76.164063 L 145.363281 76.164063 C 145.316406 75.851563 144.957031 75.554688 144.472656 75.554688 C 142.972656 75.554688 141.253906 77.648438 141.253906 79.304688 C 141.253906 79.632813 141.285156 80.632813 142.410156 80.632813 C 143.082031 80.632813 143.691406 80.289063 144.613281 78.929688 L 144.644531 78.945313 C 144.457031 79.632813 144.410156 79.882813 144.410156 80.132813 C 144.410156 80.320313 144.410156 80.617188 144.878906 80.617188 C 145.363281 80.617188 145.738281 80.210938 146.410156 79.382813 Z M 142.207031 79.289063 C 142.207031 78.273438 143.207031 75.804688 144.519531 75.804688 C 144.847656 75.804688 145.160156 76.007813 145.160156 76.554688 C 145.160156 77.648438 144.066406 80.085938 142.878906 80.085938 C 142.566406 80.085938 142.207031 79.882813 142.207031 79.289063 Z M 142.207031 79.289063 "
       id="path85" />
    <g
       clip-path="url(#clip3)"
       clip-rule="nonzero"
       id="g89">
      <path
         style=" stroke:none;fill-rule:nonzero;fill:rgb(0%,0%,0%);fill-opacity:1;"
         d="M 147 81.757813 L 148.734375 81.757813 L 148.734375 81.664063 C 148.421875 81.664063 148.203125 81.648438 148.203125 81.460938 C 148.203125 81.351563 148.28125 81.132813 148.3125 81.007813 L 149.203125 77.757813 C 149.234375 77.664063 149.265625 77.539063 149.21875 77.539063 C 149.171875 77.539063 148.296875 77.726563 148 77.773438 L 148 77.867188 L 148.359375 77.851563 C 148.421875 77.851563 148.59375 77.851563 148.59375 78.054688 C 148.59375 78.101563 148.578125 78.195313 148.5625 78.257813 L 147.6875 81.335938 C 147.609375 81.617188 147.359375 81.632813 147 81.664063 Z M 147 81.757813 "
         id="path87" />
    </g>
    <path
       style=" stroke:none;fill-rule:nonzero;fill:rgb(0%,0%,0%);fill-opacity:1;"
       d="M 36.632813 41.851563 C 37.070313 41.851563 37.179688 41.851563 37.570313 43.570313 C 37.648438 43.976563 38.070313 45.992188 38.070313 46.539063 C 38.070313 47.179688 37.351563 47.882813 37.054688 47.882813 C 36.898438 47.882813 36.664063 47.742188 36.585938 47.679688 C 36.492188 47.617188 36.164063 47.492188 36.023438 47.492188 C 35.570313 47.492188 35.414063 47.898438 35.414063 48.101563 C 35.414063 48.414063 35.664063 48.773438 36.085938 48.773438 C 37.195313 48.773438 38.179688 47.695313 39.335938 45.804688 C 39.429688 45.632813 40.882813 43.304688 40.882813 41.976563 C 40.882813 41.617188 40.539063 41.289063 40.179688 41.289063 C 39.820313 41.289063 39.539063 41.632813 39.539063 41.914063 C 39.539063 42.632813 40.164063 42.460938 40.164063 42.960938 C 40.164063 43.367188 39.695313 44.257813 39.210938 45.210938 L 39.179688 45.210938 L 39.054688 44.398438 C 38.882813 43.460938 38.523438 41.820313 38.304688 41.289063 C 37.898438 41.398438 37.289063 41.492188 36.632813 41.554688 Z M 36.632813 41.851563 "
       id="path91" />
    <path
       style=" stroke:none;fill-rule:nonzero;fill:rgb(0%,0%,0%);fill-opacity:1;"
       d="M 41.78125 47.726563 L 43.515625 47.726563 L 43.515625 47.632813 C 43.203125 47.632813 42.984375 47.617188 42.984375 47.429688 C 42.984375 47.320313 43.0625 47.101563 43.09375 46.976563 L 43.984375 43.726563 C 44.015625 43.632813 44.046875 43.507813 44 43.507813 C 43.953125 43.507813 43.078125 43.695313 42.78125 43.742188 L 42.78125 43.835938 L 43.140625 43.820313 C 43.203125 43.820313 43.375 43.820313 43.375 44.023438 C 43.375 44.070313 43.359375 44.164063 43.34375 44.226563 L 42.46875 47.304688 C 42.390625 47.585938 42.140625 47.601563 41.78125 47.632813 Z M 41.78125 47.726563 "
       id="path93" />
    <path
       style=" stroke:none;fill-rule:nonzero;fill:rgb(0%,0%,0%);fill-opacity:1;"
       d="M 84.089844 69.328125 C 84.527344 69.328125 84.636719 69.328125 85.027344 71.046875 C 85.105469 71.453125 85.527344 73.46875 85.527344 74.015625 C 85.527344 74.65625 84.808594 75.359375 84.511719 75.359375 C 84.355469 75.359375 84.121094 75.21875 84.042969 75.15625 C 83.949219 75.09375 83.621094 74.96875 83.480469 74.96875 C 83.027344 74.96875 82.871094 75.375 82.871094 75.578125 C 82.871094 75.890625 83.121094 76.25 83.542969 76.25 C 84.652344 76.25 85.636719 75.171875 86.792969 73.28125 C 86.886719 73.109375 88.339844 70.78125 88.339844 69.453125 C 88.339844 69.09375 87.996094 68.765625 87.636719 68.765625 C 87.277344 68.765625 86.996094 69.109375 86.996094 69.390625 C 86.996094 70.109375 87.621094 69.9375 87.621094 70.4375 C 87.621094 70.84375 87.152344 71.734375 86.667969 72.6875 L 86.636719 72.6875 L 86.511719 71.875 C 86.339844 70.9375 85.980469 69.296875 85.761719 68.765625 C 85.355469 68.875 84.746094 68.96875 84.089844 69.03125 Z M 84.089844 69.328125 "
       id="path95" />
    <path
       style=" stroke:none;fill-rule:nonzero;fill:rgb(0%,0%,0%);fill-opacity:1;"
       d="M 91.425781 74.328125 C 91.316406 74.5625 91.222656 74.734375 90.800781 74.734375 L 89.613281 74.734375 L 89.613281 74.703125 L 90.816406 73.5 C 91.597656 72.71875 91.753906 72.4375 91.753906 72.015625 C 91.753906 71.546875 91.394531 70.984375 90.738281 70.984375 C 90.582031 70.984375 89.769531 71 89.425781 71.984375 L 89.550781 72.015625 C 89.644531 71.859375 89.878906 71.4375 90.441406 71.4375 C 90.925781 71.4375 91.207031 71.8125 91.207031 72.203125 C 91.207031 72.40625 91.191406 72.765625 90.316406 73.703125 L 89.003906 75.09375 L 89.003906 75.203125 L 91.222656 75.203125 L 91.535156 74.375 Z M 91.425781 74.328125 "
       id="path97" />
    <path
       style=" stroke:none;fill-rule:nonzero;fill:rgb(0%,0%,0%);fill-opacity:1;"
       d="M 105.632813 91.183594 C 106.070313 91.183594 106.179688 91.183594 106.570313 92.902344 C 106.648438 93.308594 107.070313 95.324219 107.070313 95.871094 C 107.070313 96.511719 106.351563 97.214844 106.054688 97.214844 C 105.898438 97.214844 105.664063 97.074219 105.585938 97.011719 C 105.492188 96.949219 105.164063 96.824219 105.023438 96.824219 C 104.570313 96.824219 104.414063 97.230469 104.414063 97.433594 C 104.414063 97.746094 104.664063 98.105469 105.085938 98.105469 C 106.195313 98.105469 107.179688 97.027344 108.335938 95.136719 C 108.429688 94.964844 109.882813 92.636719 109.882813 91.308594 C 109.882813 90.949219 109.539063 90.621094 109.179688 90.621094 C 108.820313 90.621094 108.539063 90.964844 108.539063 91.246094 C 108.539063 91.964844 109.164063 91.792969 109.164063 92.292969 C 109.164063 92.699219 108.695313 93.589844 108.210938 94.542969 L 108.179688 94.542969 L 108.054688 93.730469 C 107.882813 92.792969 107.523438 91.152344 107.304688 90.621094 C 106.898438 90.730469 106.289063 90.824219 105.632813 90.886719 Z M 105.632813 91.183594 "
       id="path99" />
    <path
       style=" stroke:none;fill-rule:nonzero;fill:rgb(0%,0%,0%);fill-opacity:1;"
       d="M 111.578125 93.511719 C 111.671875 93.386719 111.890625 93.089844 112.28125 93.089844 C 112.53125 93.089844 112.828125 93.246094 112.828125 93.667969 C 112.828125 94.339844 111.96875 94.621094 111.34375 94.699219 L 111.34375 94.808594 C 111.953125 94.761719 112.5 94.996094 112.5 95.871094 C 112.5 96.652344 111.90625 96.871094 111.703125 96.871094 C 111.34375 96.871094 111.140625 96.496094 110.859375 96.496094 C 110.625 96.496094 110.5625 96.605469 110.5625 96.730469 C 110.5625 97.011719 110.90625 97.105469 111.28125 97.105469 C 112.4375 97.105469 113 96.214844 113 95.527344 C 113 94.839844 112.5625 94.652344 112.40625 94.574219 L 112.40625 94.558594 C 113.0625 94.308594 113.375 94.089844 113.375 93.621094 C 113.375 93.089844 112.921875 92.839844 112.46875 92.839844 C 112.109375 92.839844 111.640625 93.105469 111.484375 93.480469 Z M 111.578125 93.511719 "
       id="path101" />
  </g>
</svg>
