<?xml version="1.0" encoding="UTF-8" standalone="no"?>
<svg
   xmlns:dc="http://purl.org/dc/elements/1.1/"
   xmlns:cc="http://creativecommons.org/ns#"
   xmlns:rdf="http://www.w3.org/1999/02/22-rdf-syntax-ns#"
   xmlns:svg="http://www.w3.org/2000/svg"
   xmlns="http://www.w3.org/2000/svg"
   xmlns:sodipodi="http://sodipodi.sourceforge.net/DTD/sodipodi-0.dtd"
   xmlns:inkscape="http://www.inkscape.org/namespaces/inkscape"
   width="198.375732pt"
   height="159.550003pt"
   viewBox="0 0 198.375732 159.550003"
   version="1.2"
   id="svg177"
   sodipodi:docname="svm.svg"
   inkscape:version="0.92.4 (5da689c313, 2019-01-14)">
  <metadata
     id="metadata181">
    <rdf:RDF>
      <cc:Work
         rdf:about="">
        <dc:format>image/svg+xml</dc:format>
        <dc:type
           rdf:resource="http://purl.org/dc/dcmitype/StillImage" />
        <dc:title></dc:title>
      </cc:Work>
    </rdf:RDF>
  </metadata>
  <sodipodi:namedview
     pagecolor="#ffffff"
     bordercolor="#666666"
     borderopacity="1"
     objecttolerance="10"
     gridtolerance="10"
     guidetolerance="10"
     inkscape:pageopacity="0"
     inkscape:pageshadow="2"
     inkscape:window-width="661"
     inkscape:window-height="480"
     id="namedview179"
     showgrid="false"
     inkscape:zoom="1.1093701"
     inkscape:cx="132.25049"
     inkscape:cy="106.36667"
     inkscape:window-x="0"
     inkscape:window-y="0"
     inkscape:window-maximized="0"
     inkscape:current-layer="svg177" />
  <defs
     id="defs8">
    <clipPath
       id="clip1">
      <path
         d="M 0 59 L 164 59 L 164 159.550781 L 0 159.550781 Z M 0 59 "
         id="path2" />
    </clipPath>
    <clipPath
       id="clip2">
      <path
         d="M 196 152 L 198.375 152 L 198.375 157 L 196 157 Z M 196 152 "
         id="path5" />
    </clipPath>
  </defs>
  <g
     id="surface36">
    <path
       style="fill:none;stroke-width:1;stroke-linecap:round;stroke-linejoin:round;stroke:rgb(0%,0%,0%);stroke-opacity:1;stroke-miterlimit:4;"
       d="M 171.851563 142.003906 L 8.519531 42.003906 "
       id="path10" />
    <path
       style="fill:none;stroke-width:0.567;stroke-linecap:round;stroke-linejoin:round;stroke:rgb(0%,0%,0%);stroke-opacity:1;stroke-miterlimit:4;"
       d="M 12.488281 152.945313 L 183.171875 152.945313 "
       id="path12" />
    <path
       style=" stroke:none;fill-rule:nonzero;fill:rgb(0%,0%,0%);fill-opacity:1;"
       d="M 184.511719 152.359375 C 183.574219 152.078125 182.964844 151.816406 182.210938 151.515625 L 182.214844 154.378906 C 182.484375 154.25 183.574219 153.8125 184.511719 153.527344 C 185.515625 153.222656 186.425781 153.015625 187.015625 152.9375 C 186.425781 152.867188 185.515625 152.660156 184.511719 152.359375 "
       id="path14" />
    <path
       style="fill:none;stroke-width:0.567;stroke-linecap:round;stroke-linejoin:round;stroke:rgb(0%,0%,0%);stroke-opacity:1;stroke-miterlimit:4;"
       d="M 12.238281 44.945313 L 14.007813 44.945313 M 12.238281 153.320313 L 12.238281 14.574219 "
       id="path16" />
    <path
       style=" stroke:none;fill-rule:nonzero;fill:rgb(0%,0%,0%);fill-opacity:1;"
       d="M 11.65625 13.234375 C 11.371094 14.171875 11.113281 14.78125 10.808594 15.53125 L 13.667969 15.53125 C 13.542969 15.261719 13.105469 14.171875 12.824219 13.234375 C 12.519531 12.230469 12.3125 11.320313 12.238281 10.730469 C 12.164063 11.320313 11.957031 12.230469 11.65625 13.234375 "
       id="path18" />
    <g
       clip-path="url(#clip1)"
       clip-rule="nonzero"
       id="g22">
      <path
         style="fill:none;stroke-width:0.5;stroke-linecap:round;stroke-linejoin:round;stroke:rgb(49.803162%,49.803162%,49.803162%);stroke-opacity:1;stroke-miterlimit:4;"
         d="M 163.585938 159.296875 L 0.253906 59.296875 "
         id="path20" />
    </g>
    <path
       style=" stroke:none;fill-rule:nonzero;fill:rgb(12.940979%,11.764526%,11.764526%);fill-opacity:1;"
       d="M 190.773438 149.167969 C 190.914063 149.121094 190.992188 149.121094 191.179688 149.121094 C 191.851563 149.121094 192.007813 149.636719 192.335938 150.730469 C 192.539063 151.371094 193.039063 153.480469 193.039063 153.933594 C 193.039063 154.246094 192.539063 154.839844 192.242188 155.183594 C 191.835938 155.667969 191.679688 155.777344 191.492188 155.777344 C 191.273438 155.777344 191.117188 155.433594 190.757813 155.433594 C 190.507813 155.433594 190.304688 155.652344 190.304688 155.902344 C 190.304688 156.402344 190.820313 156.433594 190.914063 156.433594 C 192.335938 156.433594 195.695313 150.839844 195.695313 149.417969 C 195.695313 148.980469 195.460938 148.667969 195.007813 148.667969 C 194.695313 148.667969 194.570313 148.917969 194.570313 149.089844 C 194.570313 149.652344 195.210938 149.511719 195.210938 150.011719 C 195.210938 150.636719 194.273438 152.261719 193.757813 153.105469 L 193.507813 151.714844 C 193.351563 150.808594 192.648438 148.667969 192.492188 148.667969 C 192.273438 148.667969 191.335938 148.871094 190.773438 148.964844 Z M 190.773438 149.167969 "
       id="path24" />
    <g
       clip-path="url(#clip2)"
       clip-rule="nonzero"
       id="g28">
      <path
         style=" stroke:none;fill-rule:nonzero;fill:rgb(12.940979%,11.764526%,11.764526%);fill-opacity:1;"
         d="M 196.210938 156.964844 L 197.882813 156.964844 L 197.882813 156.871094 C 197.585938 156.886719 197.367188 156.855469 197.367188 156.683594 C 197.367188 156.574219 197.445313 156.355469 197.476563 156.246094 L 198.335938 153.121094 C 198.367188 153.027344 198.398438 152.902344 198.351563 152.902344 C 198.289063 152.902344 197.460938 153.089844 197.179688 153.136719 L 197.179688 153.230469 L 197.523438 153.214844 C 197.570313 153.214844 197.757813 153.214844 197.757813 153.402344 C 197.757813 153.449219 197.726563 153.542969 197.710938 153.605469 L 196.882813 156.558594 C 196.804688 156.824219 196.554688 156.839844 196.210938 156.886719 Z M 196.210938 156.964844 "
         id="path26" />
    </g>
    <path
       style=" stroke:none;fill-rule:nonzero;fill:rgb(12.940979%,11.764526%,11.764526%);fill-opacity:1;"
       d="M 8.105469 0.5 C 8.246094 0.453125 8.324219 0.453125 8.511719 0.453125 C 9.183594 0.453125 9.339844 0.96875 9.667969 2.0625 C 9.871094 2.703125 10.371094 4.8125 10.371094 5.265625 C 10.371094 5.578125 9.871094 6.171875 9.574219 6.515625 C 9.167969 7 9.011719 7.109375 8.824219 7.109375 C 8.605469 7.109375 8.449219 6.765625 8.089844 6.765625 C 7.839844 6.765625 7.636719 6.984375 7.636719 7.234375 C 7.636719 7.734375 8.152344 7.765625 8.246094 7.765625 C 9.667969 7.765625 13.027344 2.171875 13.027344 0.75 C 13.027344 0.3125 12.792969 0 12.339844 0 C 12.027344 0 11.902344 0.25 11.902344 0.421875 C 11.902344 0.984375 12.542969 0.84375 12.542969 1.34375 C 12.542969 1.96875 11.605469 3.59375 11.089844 4.4375 L 10.839844 3.046875 C 10.683594 2.140625 9.980469 0 9.824219 0 C 9.605469 0 8.667969 0.203125 8.105469 0.296875 Z M 8.105469 0.5 "
       id="path30" />
    <path
       style=" stroke:none;fill-rule:nonzero;fill:rgb(12.940979%,11.764526%,11.764526%);fill-opacity:1;"
       d="M 15.652344 7.46875 C 15.542969 7.671875 15.449219 7.84375 15.058594 7.84375 L 13.917969 7.84375 L 13.917969 7.8125 L 15.058594 6.65625 C 15.808594 5.921875 15.964844 5.640625 15.964844 5.25 C 15.964844 4.796875 15.621094 4.234375 14.980469 4.234375 C 14.839844 4.234375 14.042969 4.265625 13.730469 5.203125 L 13.855469 5.25 C 13.933594 5.09375 14.167969 4.671875 14.699219 4.671875 C 15.167969 4.671875 15.449219 5.03125 15.449219 5.40625 C 15.449219 5.609375 15.417969 5.953125 14.574219 6.84375 L 13.324219 8.1875 L 13.324219 8.296875 L 15.449219 8.296875 L 15.746094 7.5 Z M 15.652344 7.46875 "
       id="path32" />
    <path
       style=" stroke:none;fill-rule:nonzero;fill:rgb(12.940979%,11.764526%,11.764526%);fill-opacity:1;"
       d="M 88.789063 105.847656 C 91.195313 105.847656 91.710938 106.472656 91.710938 107.191406 C 91.710938 107.863281 91.257813 109.347656 89.117188 109.425781 C 88.492188 109.457031 88.085938 109.894531 88.085938 110.019531 C 88.085938 110.097656 88.132813 110.097656 88.148438 110.097656 C 88.539063 110.144531 88.804688 110.191406 89.570313 111.863281 C 90.164063 113.128906 90.492188 113.644531 91.195313 113.644531 C 92.648438 113.644531 94.101563 112.160156 94.101563 111.894531 C 94.101563 111.816406 94.007813 111.816406 93.960938 111.816406 C 93.742188 111.816406 93.289063 112.050781 93.101563 112.316406 C 92.867188 112.628906 92.601563 112.972656 91.992188 112.972656 C 91.414063 112.972656 90.992188 112.113281 90.601563 111.253906 C 90.210938 110.457031 90.054688 110.144531 89.804688 109.832031 C 91.726563 109.113281 92.757813 107.847656 92.757813 106.675781 C 92.757813 105.175781 90.757813 105.175781 88.820313 105.175781 C 87.507813 105.175781 86.695313 105.175781 85.570313 105.753906 C 84.085938 106.503906 83.976563 107.410156 83.976563 107.425781 C 83.976563 107.457031 83.992188 107.519531 84.101563 107.519531 C 84.320313 107.519531 84.914063 107.238281 85.023438 106.925781 C 85.179688 106.472656 85.351563 105.925781 87.117188 105.847656 C 86.992188 107.253906 86.757813 109.738281 85.273438 113.347656 C 85.195313 113.519531 85.195313 113.550781 85.195313 113.566406 C 85.195313 113.628906 85.273438 113.644531 85.304688 113.644531 C 85.570313 113.644531 86.039063 113.363281 86.195313 113.144531 C 86.210938 113.097656 86.460938 112.550781 86.835938 111.503906 C 87.429688 109.832031 87.914063 107.894531 88.132813 105.847656 Z M 88.789063 105.847656 "
       id="path34" />
    <path
       style=" stroke:none;fill-rule:nonzero;fill:rgb(12.940979%,11.764526%,11.764526%);fill-opacity:1;"
       d="M 96.621094 115.550781 C 96.511719 115.753906 96.417969 115.925781 96.027344 115.925781 L 94.886719 115.925781 L 94.886719 115.894531 L 96.027344 114.738281 C 96.777344 114.003906 96.933594 113.722656 96.933594 113.332031 C 96.933594 112.878906 96.589844 112.316406 95.949219 112.316406 C 95.808594 112.316406 95.011719 112.347656 94.699219 113.285156 L 94.824219 113.332031 C 94.902344 113.175781 95.136719 112.753906 95.667969 112.753906 C 96.136719 112.753906 96.417969 113.113281 96.417969 113.488281 C 96.417969 113.691406 96.386719 114.035156 95.542969 114.925781 L 94.292969 116.269531 L 94.292969 116.378906 L 96.417969 116.378906 L 96.714844 115.582031 Z M 96.621094 115.550781 "
       id="path36" />
    <path
       style=" stroke:none;fill-rule:nonzero;fill:rgb(0%,0%,0%);fill-opacity:1;"
       d="M 36.8125 84.8125 C 38.566406 84.8125 39.992188 83.386719 39.992188 81.628906 C 39.992188 79.871094 38.566406 78.449219 36.8125 78.449219 C 35.054688 78.449219 33.628906 79.871094 33.628906 81.628906 C 33.628906 83.386719 35.054688 84.8125 36.8125 84.8125 "
       id="path38" />
    <path
       style="fill-rule:nonzero;fill:rgb(74.116516%,72.940063%,72.940063%);fill-opacity:1;stroke-width:0.25;stroke-linecap:butt;stroke-linejoin:miter;stroke:rgb(0%,0%,0%);stroke-opacity:1;stroke-miterlimit:4;"
       d="M 44.3125 118.53125 C 45.773438 118.53125 46.964844 117.34375 46.964844 115.878906 C 46.964844 114.414063 45.773438 113.226563 44.3125 113.226563 C 42.847656 113.226563 41.660156 114.414063 41.660156 115.878906 C 41.660156 117.34375 42.847656 118.53125 44.3125 118.53125 Z M 44.3125 118.53125 "
       id="path40" />
    <path
       style="fill-rule:nonzero;fill:rgb(100%,78.038025%,78.038025%);fill-opacity:1;stroke-width:0.25;stroke-linecap:butt;stroke-linejoin:miter;stroke:rgb(100%,0%,0%);stroke-opacity:1;stroke-miterlimit:4;"
       d="M 66.5625 32.03125 C 68.023438 32.03125 69.214844 30.84375 69.214844 29.378906 C 69.214844 27.914063 68.023438 26.726563 66.5625 26.726563 C 65.097656 26.726563 63.910156 27.914063 63.910156 29.378906 C 63.910156 30.84375 65.097656 32.03125 66.5625 32.03125 Z M 66.5625 32.03125 "
       id="path42" />
    <path
       style=" stroke:none;fill-rule:nonzero;fill:rgb(12.940979%,11.764526%,11.764526%);fill-opacity:1;"
       d="M 113.324219 98.269531 C 112.089844 97.519531 109.996094 98.128906 109.230469 99.378906 C 108.808594 100.097656 108.855469 100.847656 109.777344 101.394531 C 111.074219 102.191406 113.199219 101.347656 113.839844 100.285156 C 114.183594 99.722656 114.339844 98.878906 113.324219 98.269531 Z M 113.167969 98.410156 C 113.589844 98.660156 113.558594 99.144531 113.277344 99.597656 C 112.730469 100.503906 110.964844 101.878906 109.980469 101.285156 C 109.558594 101.035156 109.496094 100.566406 109.792969 100.082031 C 110.402344 99.066406 112.199219 97.832031 113.167969 98.410156 Z M 113.167969 98.410156 "
       id="path44" />
    <path
       style=" stroke:none;fill-rule:nonzero;fill:rgb(12.940979%,11.764526%,11.764526%);fill-opacity:1;"
       d="M 117.449219 102.261719 C 116.839844 103.277344 115.105469 104.402344 114.074219 103.761719 C 113.855469 103.636719 113.683594 103.417969 113.824219 103.183594 C 114.027344 102.855469 115.074219 101.886719 115.605469 101.464844 C 116.183594 101.027344 116.933594 100.933594 117.324219 101.167969 C 117.886719 101.511719 117.605469 102.011719 117.449219 102.261719 Z M 115.152344 99.808594 L 115.371094 99.902344 C 115.558594 100.027344 115.652344 100.214844 115.558594 100.386719 C 115.449219 100.558594 112.652344 103.214844 111.855469 104.027344 C 111.605469 104.277344 111.417969 104.480469 110.964844 104.199219 L 110.886719 104.324219 L 112.636719 105.386719 L 112.714844 105.261719 C 112.496094 105.136719 112.167969 104.933594 112.339844 104.652344 C 112.449219 104.480469 113.246094 103.683594 113.496094 103.449219 C 113.636719 103.667969 113.777344 103.808594 113.980469 103.933594 C 115.167969 104.652344 117.402344 104.058594 118.199219 102.746094 C 118.574219 102.121094 118.636719 101.464844 117.871094 101.011719 C 117.167969 100.589844 116.308594 100.902344 115.917969 101.089844 L 115.902344 101.058594 L 116.621094 100.386719 C 116.699219 100.308594 116.683594 100.292969 116.667969 100.277344 L 115.230469 99.667969 Z M 115.152344 99.808594 "
       id="path46" />
    <path
       style=" stroke:none;fill-rule:nonzero;fill:rgb(12.940979%,11.764526%,11.764526%);fill-opacity:1;"
       d="M 121.621094 103.410156 L 120.933594 102.988281 L 121.714844 102.269531 C 121.746094 102.207031 121.792969 102.128906 121.714844 102.113281 C 121.652344 102.035156 121.558594 102.097656 121.527344 102.113281 C 121.089844 102.285156 120.449219 102.410156 120.089844 102.378906 C 119.886719 102.363281 119.605469 102.300781 119.511719 102.332031 C 119.449219 102.363281 119.433594 102.410156 119.417969 102.457031 L 120.042969 102.832031 L 118.011719 104.832031 C 117.902344 104.957031 117.417969 105.363281 117.355469 105.488281 C 117.183594 105.753906 117.371094 105.988281 117.527344 106.082031 C 117.980469 106.347656 118.558594 106.175781 119.371094 105.785156 L 119.308594 105.660156 C 118.933594 105.816406 118.386719 106.019531 118.214844 105.910156 C 118.121094 105.863281 118.121094 105.769531 118.167969 105.691406 C 118.183594 105.660156 118.199219 105.644531 118.214844 105.628906 L 120.683594 103.222656 L 121.402344 103.660156 Z M 121.621094 103.410156 "
       id="path48" />
    <path
       style=" stroke:none;fill-rule:nonzero;fill:rgb(12.940979%,11.764526%,11.764526%);fill-opacity:1;"
       d="M 121.75 107.160156 C 121.09375 107.441406 120.734375 107.457031 120.640625 107.410156 C 120.5625 107.347656 120.53125 107.253906 120.578125 107.191406 C 120.640625 107.097656 120.9375 106.816406 121.0625 106.722656 L 123.46875 104.394531 L 123.453125 104.378906 C 123.09375 104.238281 122.296875 103.941406 121.953125 103.769531 L 121.875 103.910156 C 122.34375 104.191406 122.390625 104.253906 122.28125 104.441406 C 122.125 104.691406 120.1875 106.394531 119.9375 106.800781 C 119.84375 106.957031 119.609375 107.332031 120 107.582031 C 120.484375 107.863281 121.140625 107.628906 121.78125 107.332031 Z M 124.609375 103.222656 C 124.71875 103.035156 124.75 102.660156 124.46875 102.488281 C 124.265625 102.363281 123.96875 102.410156 123.78125 102.707031 C 123.609375 103.003906 123.703125 103.285156 123.921875 103.410156 C 124.203125 103.582031 124.515625 103.378906 124.609375 103.222656 Z M 124.609375 103.222656 "
       id="path50" />
    <path
       style=" stroke:none;fill-rule:nonzero;fill:rgb(12.940979%,11.764526%,11.764526%);fill-opacity:1;"
       d="M 128.144531 110.984375 C 127.566406 111.1875 127.160156 111.328125 127.003906 111.234375 C 126.894531 111.15625 126.894531 111.125 126.988281 110.96875 C 127.066406 110.859375 129.144531 108.96875 129.316406 108.6875 C 129.519531 108.34375 129.457031 108.015625 129.160156 107.828125 C 128.597656 107.484375 127.441406 107.8125 126.253906 108.4375 L 126.238281 108.40625 C 126.566406 108.140625 127.191406 107.546875 127.269531 107.4375 C 127.488281 107.078125 127.410156 106.765625 127.097656 106.578125 C 126.378906 106.140625 124.691406 106.921875 124.191406 107.1875 L 124.175781 107.171875 L 125.691406 105.734375 L 125.675781 105.71875 C 125.160156 105.546875 124.660156 105.34375 124.128906 105.15625 L 124.050781 105.28125 C 124.472656 105.546875 124.597656 105.625 124.488281 105.8125 C 124.363281 106 122.207031 108 121.738281 108.484375 L 122.378906 108.875 C 123.316406 108.015625 123.832031 107.5625 124.488281 107.25 C 124.925781 107.046875 126.113281 106.578125 126.472656 106.8125 C 126.566406 106.859375 126.675781 106.921875 126.535156 107.140625 C 126.441406 107.3125 124.566406 109.0625 123.847656 109.765625 L 124.488281 110.15625 C 125.316406 109.328125 125.785156 108.875 126.597656 108.484375 C 127.128906 108.21875 128.191406 107.84375 128.535156 108.046875 C 128.644531 108.109375 128.675781 108.21875 128.597656 108.359375 C 128.488281 108.53125 126.378906 110.515625 126.238281 110.75 C 126.175781 110.859375 125.988281 111.171875 126.347656 111.375 C 126.832031 111.671875 127.550781 111.4375 128.128906 111.1875 L 128.207031 111.171875 Z M 128.144531 110.984375 "
       id="path52" />
    <path
       style=" stroke:none;fill-rule:nonzero;fill:rgb(12.940979%,11.764526%,11.764526%);fill-opacity:1;"
       d="M 132.339844 113.625 C 131.730469 113.765625 131.417969 113.875 131.308594 113.796875 C 131.230469 113.765625 131.230469 113.671875 131.261719 113.609375 C 131.417969 113.359375 133.964844 110.890625 134.058594 110.8125 L 134.011719 110.75 L 133.449219 110.484375 L 133.417969 110.5 L 133.105469 110.828125 L 133.074219 110.8125 C 133.199219 110.5625 133.042969 110.171875 132.683594 109.953125 C 131.542969 109.265625 129.261719 110.0625 128.496094 111.34375 C 128.355469 111.578125 127.917969 112.359375 128.777344 112.875 C 129.277344 113.171875 129.902344 113.203125 131.246094 112.578125 L 131.261719 112.609375 C 130.792969 113.046875 130.652344 113.203125 130.527344 113.40625 C 130.433594 113.546875 130.308594 113.765625 130.667969 113.984375 C 131.027344 114.203125 131.511719 114.0625 132.402344 113.765625 Z M 129.246094 111.75 C 129.714844 110.984375 131.605469 109.5625 132.621094 110.171875 C 132.871094 110.328125 132.996094 110.625 132.746094 111.03125 C 132.246094 111.859375 130.277344 113.203125 129.371094 112.65625 C 129.152344 112.515625 128.980469 112.203125 129.246094 111.75 Z M 129.246094 111.75 "
       id="path54" />
    <path
       style=" stroke:none;fill-rule:nonzero;fill:rgb(12.940979%,11.764526%,11.764526%);fill-opacity:1;"
       d="M 134.683594 114.851563 C 133.933594 115.148438 133.589844 115.289063 133.386719 115.164063 C 133.261719 115.085938 133.339844 114.960938 133.371094 114.914063 C 133.433594 114.820313 133.636719 114.617188 133.699219 114.554688 L 137.980469 110.382813 L 137.964844 110.304688 C 137.464844 110.148438 136.964844 109.945313 136.496094 109.726563 L 136.417969 109.867188 C 136.636719 110.007813 136.996094 110.226563 136.871094 110.445313 C 136.746094 110.632813 132.808594 114.335938 132.699219 114.507813 C 132.558594 114.742188 132.417969 115.070313 132.792969 115.289063 C 133.324219 115.617188 133.902344 115.398438 134.746094 115.023438 Z M 134.683594 114.851563 "
       id="path56" />
    <path
       style=" stroke:none;fill-rule:nonzero;fill:rgb(12.940979%,11.764526%,11.764526%);fill-opacity:1;"
       d="M 141.203125 118.875 C 140.625 119.078125 140.25 119.21875 140.078125 119.125 C 140 119.078125 139.984375 118.96875 140.046875 118.875 C 140.15625 118.6875 142.1875 116.921875 142.359375 116.625 C 142.703125 116.0625 142.328125 115.78125 142.140625 115.671875 C 141.375 115.203125 139.703125 115.96875 139.1875 116.25 L 139.171875 116.21875 L 142.453125 113.0625 L 142.4375 113.015625 C 141.921875 112.84375 141.421875 112.640625 140.953125 112.421875 L 140.875 112.5625 L 141.09375 112.6875 C 141.375 112.859375 141.375 113.03125 141.328125 113.125 C 141.234375 113.25 140.8125 113.65625 140.5 113.953125 L 136.765625 117.5625 L 137.40625 117.953125 C 138.34375 117.046875 138.765625 116.65625 139.5 116.3125 C 139.796875 116.15625 141.109375 115.625 141.546875 115.890625 C 141.671875 115.96875 141.75 116.140625 141.65625 116.28125 C 141.59375 116.390625 139.40625 118.421875 139.265625 118.625 C 139.125 118.875 139.140625 119.109375 139.40625 119.265625 C 139.96875 119.609375 140.671875 119.296875 141.25 119.046875 Z M 141.203125 118.875 "
       id="path58" />
    <path
       style=" stroke:none;fill-rule:nonzero;fill:rgb(12.940979%,11.764526%,11.764526%);fill-opacity:1;"
       d="M 143.09375 116.710938 C 143.203125 116.742188 143.28125 116.757813 143.40625 116.835938 C 143.890625 117.132813 143.765625 117.570313 143.53125 118.492188 C 143.390625 119.054688 142.84375 120.773438 142.65625 121.085938 C 142.515625 121.320313 141.90625 121.523438 141.53125 121.632813 C 141.046875 121.820313 140.890625 121.820313 140.75 121.742188 C 140.59375 121.648438 140.625 121.335938 140.375 121.195313 C 140.203125 121.085938 139.953125 121.132813 139.859375 121.304688 C 139.640625 121.664063 139.984375 121.914063 140.0625 121.960938 C 141.078125 122.570313 145.890625 120.039063 146.515625 119.007813 C 146.6875 118.695313 146.65625 118.382813 146.328125 118.195313 C 146.109375 118.070313 145.890625 118.179688 145.8125 118.289063 C 145.578125 118.695313 146.109375 118.882813 145.890625 119.226563 C 145.609375 119.679688 144.25 120.414063 143.53125 120.804688 L 143.953125 119.710938 C 144.234375 119.007813 144.640625 117.164063 144.53125 117.117188 C 144.375 117.023438 143.625 116.742188 143.1875 116.554688 Z M 143.09375 116.710938 "
       id="path60" />
    <path
       style=" stroke:none;fill-rule:nonzero;fill:rgb(12.940979%,11.764526%,11.764526%);fill-opacity:1;"
       d="M 149.550781 121.644531 C 148.941406 122.660156 147.207031 123.785156 146.175781 123.144531 C 145.957031 123.019531 145.785156 122.800781 145.925781 122.566406 C 146.128906 122.238281 147.175781 121.269531 147.707031 120.847656 C 148.285156 120.410156 149.035156 120.316406 149.425781 120.550781 C 149.988281 120.894531 149.707031 121.394531 149.550781 121.644531 Z M 147.253906 119.191406 L 147.472656 119.285156 C 147.660156 119.410156 147.753906 119.597656 147.660156 119.769531 C 147.550781 119.941406 144.753906 122.597656 143.957031 123.410156 C 143.707031 123.660156 143.519531 123.863281 143.066406 123.582031 L 142.988281 123.707031 L 144.738281 124.769531 L 144.816406 124.644531 C 144.597656 124.519531 144.269531 124.316406 144.441406 124.035156 C 144.550781 123.863281 145.347656 123.066406 145.597656 122.832031 C 145.738281 123.050781 145.878906 123.191406 146.082031 123.316406 C 147.269531 124.035156 149.503906 123.441406 150.300781 122.128906 C 150.675781 121.503906 150.738281 120.847656 149.972656 120.394531 C 149.269531 119.972656 148.410156 120.285156 148.019531 120.472656 L 148.003906 120.441406 L 148.722656 119.769531 C 148.800781 119.691406 148.785156 119.675781 148.769531 119.660156 L 147.332031 119.050781 Z M 147.253906 119.191406 "
       id="path62" />
    <path
       style=" stroke:none;fill-rule:nonzero;fill:rgb(12.940979%,11.764526%,11.764526%);fill-opacity:1;"
       d="M 151.5625 123.558594 C 152.359375 122.996094 153.328125 122.683594 153.796875 122.964844 C 154.015625 123.089844 153.984375 123.308594 153.875 123.480469 C 153.84375 123.542969 153.1875 124.558594 151.203125 123.839844 Z M 152.59375 125.839844 C 151.96875 125.933594 151.421875 126.011719 150.953125 125.730469 C 150.59375 125.511719 150.28125 125.058594 150.625 124.480469 C 150.734375 124.292969 150.890625 124.152344 151.03125 123.996094 L 151.296875 124.121094 C 152.796875 124.761719 154.015625 124.542969 154.4375 123.855469 C 154.65625 123.480469 154.515625 123.136719 154.078125 122.871094 C 152.875 122.152344 150.640625 122.746094 149.90625 123.980469 C 149.578125 124.511719 149.4375 125.355469 150.34375 125.902344 C 151.203125 126.417969 152.46875 126.089844 152.640625 126.027344 Z M 152.59375 125.839844 "
       id="path64" />
    <path
       style=" stroke:none;fill-rule:nonzero;fill:rgb(12.940979%,11.764526%,11.764526%);fill-opacity:1;"
       d="M 153.800781 127.855469 C 154.847656 126.933594 155.207031 126.605469 155.894531 126.199219 C 156.050781 126.089844 157.128906 125.464844 157.394531 125.621094 C 157.613281 125.761719 157.285156 125.964844 157.660156 126.199219 C 157.753906 126.261719 158.066406 126.433594 158.332031 125.996094 C 158.503906 125.699219 158.363281 125.464844 158.160156 125.339844 C 157.628906 125.027344 156.363281 125.621094 155.738281 126.027344 L 155.582031 126.152344 L 155.566406 126.105469 L 157.019531 124.667969 L 157.003906 124.636719 C 156.582031 124.449219 156.003906 124.277344 155.535156 124.058594 L 155.441406 124.214844 C 155.550781 124.261719 155.660156 124.292969 155.753906 124.339844 C 156.019531 124.496094 155.988281 124.667969 155.910156 124.777344 C 155.863281 124.855469 155.628906 125.105469 155.363281 125.386719 L 153.160156 127.464844 Z M 153.800781 127.855469 "
       id="path66" />
    <path
       style=" stroke:none;fill-rule:nonzero;fill:rgb(12.940979%,11.764526%,11.764526%);fill-opacity:1;"
       d="M 160.960938 128.535156 C 160.351563 129.550781 158.617188 130.675781 157.585938 130.035156 C 157.367188 129.910156 157.195313 129.691406 157.335938 129.457031 C 157.539063 129.128906 158.585938 128.160156 159.117188 127.738281 C 159.695313 127.300781 160.445313 127.207031 160.835938 127.441406 C 161.398438 127.785156 161.117188 128.285156 160.960938 128.535156 Z M 158.664063 126.082031 L 158.882813 126.175781 C 159.070313 126.300781 159.164063 126.488281 159.070313 126.660156 C 158.960938 126.832031 156.164063 129.488281 155.367188 130.300781 C 155.117188 130.550781 154.929688 130.753906 154.476563 130.472656 L 154.398438 130.597656 L 156.148438 131.660156 L 156.226563 131.535156 C 156.007813 131.410156 155.679688 131.207031 155.851563 130.925781 C 155.960938 130.753906 156.757813 129.957031 157.007813 129.722656 C 157.148438 129.941406 157.289063 130.082031 157.492188 130.207031 C 158.679688 130.925781 160.914063 130.332031 161.710938 129.019531 C 162.085938 128.394531 162.148438 127.738281 161.382813 127.285156 C 160.679688 126.863281 159.820313 127.175781 159.429688 127.363281 L 159.414063 127.332031 L 160.132813 126.660156 C 160.210938 126.582031 160.195313 126.566406 160.179688 126.550781 L 158.742188 125.941406 Z M 158.664063 126.082031 "
       id="path68" />
    <path
       style=" stroke:none;fill-rule:nonzero;fill:rgb(12.940979%,11.764526%,11.764526%);fill-opacity:1;"
       d="M 162.972656 131.933594 C 162.222656 132.230469 161.878906 132.371094 161.675781 132.246094 C 161.550781 132.167969 161.628906 132.042969 161.660156 131.996094 C 161.722656 131.902344 161.925781 131.699219 161.988281 131.636719 L 166.269531 127.464844 L 166.253906 127.386719 C 165.753906 127.230469 165.253906 127.027344 164.785156 126.808594 L 164.707031 126.949219 C 164.925781 127.089844 165.285156 127.308594 165.160156 127.527344 C 165.035156 127.714844 161.097656 131.417969 160.988281 131.589844 C 160.847656 131.824219 160.707031 132.152344 161.082031 132.371094 C 161.613281 132.699219 162.191406 132.480469 163.035156 132.105469 Z M 162.972656 131.933594 "
       id="path70" />
    <path
       style=" stroke:none;fill-rule:nonzero;fill:rgb(12.940979%,11.764526%,11.764526%);fill-opacity:1;"
       d="M 167.292969 134.730469 C 166.683594 134.871094 166.371094 134.980469 166.261719 134.902344 C 166.183594 134.871094 166.183594 134.777344 166.214844 134.714844 C 166.371094 134.464844 168.917969 131.996094 169.011719 131.917969 L 168.964844 131.855469 L 168.402344 131.589844 L 168.371094 131.605469 L 168.058594 131.933594 L 168.027344 131.917969 C 168.152344 131.667969 167.996094 131.277344 167.636719 131.058594 C 166.496094 130.371094 164.214844 131.167969 163.449219 132.449219 C 163.308594 132.683594 162.871094 133.464844 163.730469 133.980469 C 164.230469 134.277344 164.855469 134.308594 166.199219 133.683594 L 166.214844 133.714844 C 165.746094 134.152344 165.605469 134.308594 165.480469 134.511719 C 165.386719 134.652344 165.261719 134.871094 165.621094 135.089844 C 165.980469 135.308594 166.464844 135.167969 167.355469 134.871094 Z M 164.199219 132.855469 C 164.667969 132.089844 166.558594 130.667969 167.574219 131.277344 C 167.824219 131.433594 167.949219 131.730469 167.699219 132.136719 C 167.199219 132.964844 165.230469 134.308594 164.324219 133.761719 C 164.105469 133.621094 163.933594 133.308594 164.199219 132.855469 Z M 164.199219 132.855469 "
       id="path72" />
    <path
       style=" stroke:none;fill-rule:nonzero;fill:rgb(12.940979%,11.764526%,11.764526%);fill-opacity:1;"
       d="M 171.585938 137.21875 C 171.023438 137.421875 170.632813 137.578125 170.460938 137.46875 C 170.445313 137.46875 170.351563 137.375 170.429688 137.25 C 170.585938 137 172.539063 135.296875 172.757813 134.921875 C 172.976563 134.546875 172.898438 134.25 172.523438 134.015625 C 171.804688 133.578125 170.304688 134.296875 169.507813 134.671875 L 169.492188 134.640625 L 171.117188 133.171875 L 171.117188 133.15625 C 170.601563 132.984375 170.085938 132.78125 169.570313 132.59375 L 169.492188 132.71875 C 169.945313 133 169.992188 133.140625 169.914063 133.265625 C 169.804688 133.453125 168.007813 135.109375 167.164063 135.921875 L 167.804688 136.296875 C 168.851563 135.359375 169.195313 135.0625 169.945313 134.703125 C 170.539063 134.390625 171.523438 133.984375 171.929688 134.234375 C 172.085938 134.328125 172.085938 134.484375 171.976563 134.640625 C 171.773438 134.96875 169.882813 136.703125 169.773438 136.90625 C 169.617188 137.15625 169.460938 137.421875 169.851563 137.65625 C 170.320313 137.9375 170.851563 137.703125 171.632813 137.40625 Z M 171.585938 137.21875 "
       id="path74" />
    <path
       style=" stroke:none;fill-rule:nonzero;fill:rgb(12.940979%,11.764526%,11.764526%);fill-opacity:1;"
       d="M 173.914063 137.054688 C 174.710938 136.492188 175.679688 136.179688 176.148438 136.460938 C 176.367188 136.585938 176.335938 136.804688 176.226563 136.976563 C 176.195313 137.039063 175.539063 138.054688 173.554688 137.335938 Z M 174.945313 139.335938 C 174.320313 139.429688 173.773438 139.507813 173.304688 139.226563 C 172.945313 139.007813 172.632813 138.554688 172.976563 137.976563 C 173.085938 137.789063 173.242188 137.648438 173.382813 137.492188 L 173.648438 137.617188 C 175.148438 138.257813 176.367188 138.039063 176.789063 137.351563 C 177.007813 136.976563 176.867188 136.632813 176.429688 136.367188 C 175.226563 135.648438 172.992188 136.242188 172.257813 137.476563 C 171.929688 138.007813 171.789063 138.851563 172.695313 139.398438 C 173.554688 139.914063 174.820313 139.585938 174.992188 139.523438 Z M 174.945313 139.335938 "
       id="path76" />
    <path
       style="fill:none;stroke-width:0.5;stroke-linecap:round;stroke-linejoin:round;stroke:rgb(49.803162%,49.803162%,49.803162%);stroke-opacity:1;stroke-miterlimit:4;"
       d="M 180.851563 125.003906 L 17.519531 25.003906 "
       id="path78" />
    <path
       style=" stroke:none;fill-rule:nonzero;fill:rgb(100%,0%,0%);fill-opacity:1;"
       d="M 68.0625 58.8125 C 69.816406 58.8125 71.242188 57.386719 71.242188 55.628906 C 71.242188 53.871094 69.816406 52.449219 68.0625 52.449219 C 66.304688 52.449219 64.878906 53.871094 64.878906 55.628906 C 64.878906 57.386719 66.304688 58.8125 68.0625 58.8125 "
       id="path80" />
    <path
       style="fill-rule:nonzero;fill:rgb(100%,78.038025%,78.038025%);fill-opacity:1;stroke-width:0.25;stroke-linecap:butt;stroke-linejoin:miter;stroke:rgb(100%,0%,0%);stroke-opacity:1;stroke-miterlimit:4;"
       d="M 132.0625 69.53125 C 133.523438 69.53125 134.714844 68.34375 134.714844 66.878906 C 134.714844 65.414063 133.523438 64.226563 132.0625 64.226563 C 130.597656 64.226563 129.410156 65.414063 129.410156 66.878906 C 129.410156 68.34375 130.597656 69.53125 132.0625 69.53125 Z M 132.0625 69.53125 "
       id="path82" />
    <path
       style="fill-rule:nonzero;fill:rgb(100%,78.038025%,78.038025%);fill-opacity:1;stroke-width:0.25;stroke-linecap:butt;stroke-linejoin:miter;stroke:rgb(100%,0%,0%);stroke-opacity:1;stroke-miterlimit:4;"
       d="M 115.8125 45.78125 C 117.273438 45.78125 118.464844 44.59375 118.464844 43.128906 C 118.464844 41.664063 117.273438 40.476563 115.8125 40.476563 C 114.347656 40.476563 113.160156 41.664063 113.160156 43.128906 C 113.160156 44.59375 114.347656 45.78125 115.8125 45.78125 Z M 115.8125 45.78125 "
       id="path84" />
    <path
       style="fill-rule:nonzero;fill:rgb(100%,78.038025%,78.038025%);fill-opacity:1;stroke-width:0.25;stroke-linecap:butt;stroke-linejoin:miter;stroke:rgb(100%,0%,0%);stroke-opacity:1;stroke-miterlimit:4;"
       d="M 106.8125 67.53125 C 108.273438 67.53125 109.464844 66.34375 109.464844 64.878906 C 109.464844 63.414063 108.273438 62.226563 106.8125 62.226563 C 105.347656 62.226563 104.160156 63.414063 104.160156 64.878906 C 104.160156 66.34375 105.347656 67.53125 106.8125 67.53125 Z M 106.8125 67.53125 "
       id="path86" />
    <path
       style="fill-rule:nonzero;fill:rgb(100%,78.038025%,78.038025%);fill-opacity:1;stroke-width:0.25;stroke-linecap:butt;stroke-linejoin:miter;stroke:rgb(100%,0%,0%);stroke-opacity:1;stroke-miterlimit:4;"
       d="M 168.0625 105.03125 C 169.523438 105.03125 170.714844 103.84375 170.714844 102.378906 C 170.714844 100.914063 169.523438 99.726563 168.0625 99.726563 C 166.597656 99.726563 165.410156 100.914063 165.410156 102.378906 C 165.410156 103.84375 166.597656 105.03125 168.0625 105.03125 Z M 168.0625 105.03125 "
       id="path88" />
    <path
       style="fill-rule:nonzero;fill:rgb(100%,78.038025%,78.038025%);fill-opacity:1;stroke-width:0.25;stroke-linecap:butt;stroke-linejoin:miter;stroke:rgb(100%,0%,0%);stroke-opacity:1;stroke-miterlimit:4;"
       d="M 83.5625 13.78125 C 85.023438 13.78125 86.214844 12.59375 86.214844 11.128906 C 86.214844 9.664063 85.023438 8.476563 83.5625 8.476563 C 82.097656 8.476563 80.910156 9.664063 80.910156 11.128906 C 80.910156 12.59375 82.097656 13.78125 83.5625 13.78125 Z M 83.5625 13.78125 "
       id="path90" />
    <path
       style="fill-rule:nonzero;fill:rgb(100%,78.038025%,78.038025%);fill-opacity:1;stroke-width:0.25;stroke-linecap:butt;stroke-linejoin:miter;stroke:rgb(100%,0%,0%);stroke-opacity:1;stroke-miterlimit:4;"
       d="M 153.3125 34.78125 C 154.773438 34.78125 155.964844 33.59375 155.964844 32.128906 C 155.964844 30.664063 154.773438 29.476563 153.3125 29.476563 C 151.847656 29.476563 150.660156 30.664063 150.660156 32.128906 C 150.660156 33.59375 151.847656 34.78125 153.3125 34.78125 Z M 153.3125 34.78125 "
       id="path92" />
    <path
       style=" stroke:none;fill-rule:nonzero;fill:rgb(0%,0%,0%);fill-opacity:1;"
       d="M 119.0625 135.3125 C 120.816406 135.3125 122.242188 133.886719 122.242188 132.128906 C 122.242188 130.371094 120.816406 128.949219 119.0625 128.949219 C 117.304688 128.949219 115.878906 130.371094 115.878906 132.128906 C 115.878906 133.886719 117.304688 135.3125 119.0625 135.3125 "
       id="path94" />
    <path
       style="fill-rule:nonzero;fill:rgb(74.116516%,72.940063%,72.940063%);fill-opacity:1;stroke-width:0.25;stroke-linecap:butt;stroke-linejoin:miter;stroke:rgb(0%,0%,0%);stroke-opacity:1;stroke-miterlimit:4;"
       d="M 80.8125 128.53125 C 82.273438 128.53125 83.464844 127.34375 83.464844 125.878906 C 83.464844 124.414063 82.273438 123.226563 80.8125 123.226563 C 79.347656 123.226563 78.160156 124.414063 78.160156 125.878906 C 78.160156 127.34375 79.347656 128.53125 80.8125 128.53125 Z M 80.8125 128.53125 "
       id="path96" />
    <path
       style="fill-rule:nonzero;fill:rgb(74.116516%,72.940063%,72.940063%);fill-opacity:1;stroke-width:0.25;stroke-linecap:butt;stroke-linejoin:miter;stroke:rgb(0%,0%,0%);stroke-opacity:1;stroke-miterlimit:4;"
       d="M 35.5625 139.53125 C 37.023438 139.53125 38.214844 138.34375 38.214844 136.878906 C 38.214844 135.414063 37.023438 134.226563 35.5625 134.226563 C 34.097656 134.226563 32.910156 135.414063 32.910156 136.878906 C 32.910156 138.34375 34.097656 139.53125 35.5625 139.53125 Z M 35.5625 139.53125 "
       id="path98" />
    <path
       style="fill-rule:nonzero;fill:rgb(74.116516%,72.940063%,72.940063%);fill-opacity:1;stroke-width:0.25;stroke-linecap:butt;stroke-linejoin:miter;stroke:rgb(0%,0%,0%);stroke-opacity:1;stroke-miterlimit:4;"
       d="M 67.8125 144.78125 C 69.273438 144.78125 70.464844 143.59375 70.464844 142.128906 C 70.464844 140.664063 69.273438 139.476563 67.8125 139.476563 C 66.347656 139.476563 65.160156 140.664063 65.160156 142.128906 C 65.160156 143.59375 66.347656 144.78125 67.8125 144.78125 Z M 67.8125 144.78125 "
       id="path100" />
    <path
       style="fill-rule:nonzero;fill:rgb(74.116516%,72.940063%,72.940063%);fill-opacity:1;stroke-width:0.25;stroke-linecap:butt;stroke-linejoin:miter;stroke:rgb(0%,0%,0%);stroke-opacity:1;stroke-miterlimit:4;"
       d="M 19.0625 110.53125 C 20.523438 110.53125 21.714844 109.34375 21.714844 107.878906 C 21.714844 106.414063 20.523438 105.226563 19.0625 105.226563 C 17.597656 105.226563 16.410156 106.414063 16.410156 107.878906 C 16.410156 109.34375 17.597656 110.53125 19.0625 110.53125 Z M 19.0625 110.53125 "
       id="path102" />
    <path
       style=" stroke:none;fill-rule:nonzero;fill:rgb(12.940979%,11.764526%,11.764526%);fill-opacity:1;"
       d="M 72.554688 75.675781 C 72.648438 75.910156 72.695313 76.066406 72.648438 76.128906 C 72.632813 76.175781 72.617188 76.191406 72.554688 76.144531 C 72.523438 76.128906 71.773438 75.285156 71.648438 75.207031 C 71.507813 75.128906 71.367188 75.160156 71.289063 75.285156 C 71.148438 75.503906 71.304688 75.957031 71.539063 76.441406 C 71.429688 76.316406 71.179688 76.066406 71.148438 76.035156 C 70.992188 75.957031 70.867188 75.972656 70.789063 76.113281 C 70.617188 76.394531 70.945313 77.066406 71.054688 77.253906 L 71.039063 77.269531 L 70.476563 76.660156 L 70.445313 76.675781 C 70.382813 76.878906 70.304688 77.066406 70.226563 77.285156 L 70.289063 77.316406 C 70.382813 77.144531 70.414063 77.097656 70.492188 77.144531 C 70.570313 77.191406 71.367188 78.050781 71.570313 78.238281 L 71.710938 77.988281 C 71.382813 77.613281 71.195313 77.394531 71.070313 77.144531 C 70.992188 76.972656 70.789063 76.503906 70.882813 76.332031 C 70.898438 76.316406 70.929688 76.253906 71.023438 76.316406 C 71.101563 76.347656 71.804688 77.113281 72.070313 77.410156 L 72.226563 77.128906 C 71.898438 76.800781 71.710938 76.628906 71.554688 76.285156 C 71.460938 76.082031 71.289063 75.660156 71.382813 75.519531 C 71.414063 75.472656 71.460938 75.457031 71.523438 75.488281 C 71.585938 75.535156 72.367188 76.378906 72.460938 76.441406 C 72.507813 76.457031 72.632813 76.535156 72.726563 76.394531 C 72.835938 76.207031 72.757813 75.925781 72.664063 75.691406 L 72.632813 75.660156 Z M 72.554688 75.675781 "
       id="path104" />
    <path
       style=" stroke:none;fill-rule:nonzero;fill:rgb(12.940979%,11.764526%,11.764526%);fill-opacity:1;"
       d="M 73.625 74 C 73.65625 74.234375 73.71875 74.375 73.6875 74.421875 C 73.671875 74.453125 73.640625 74.453125 73.609375 74.4375 C 73.5 74.375 72.53125 73.359375 72.5 73.3125 L 72.46875 73.34375 L 72.375 73.5625 L 72.375 73.578125 L 72.5 73.703125 C 72.390625 73.65625 72.234375 73.71875 72.140625 73.859375 C 71.875 74.3125 72.1875 75.234375 72.703125 75.546875 C 72.796875 75.609375 73.125 75.78125 73.328125 75.421875 C 73.453125 75.234375 73.453125 74.96875 73.203125 74.4375 C 73.390625 74.625 73.453125 74.6875 73.53125 74.734375 C 73.59375 74.765625 73.6875 74.828125 73.78125 74.6875 C 73.875 74.53125 73.796875 74.328125 73.671875 73.984375 Z M 72.859375 75.25 C 72.546875 75.0625 71.984375 74.296875 72.234375 73.890625 C 72.28125 73.796875 72.421875 73.734375 72.578125 73.828125 C 72.90625 74.03125 73.4375 74.828125 73.21875 75.1875 C 73.171875 75.28125 73.046875 75.359375 72.859375 75.25 Z M 72.859375 75.25 "
       id="path106" />
    <path
       style=" stroke:none;fill-rule:nonzero;fill:rgb(12.940979%,11.764526%,11.764526%);fill-opacity:1;"
       d="M 74.519531 72.507813 C 74.566406 72.648438 74.660156 72.789063 74.613281 72.851563 C 74.566406 72.945313 74.472656 72.898438 74.394531 72.882813 C 74.300781 72.867188 73.769531 72.695313 73.707031 72.664063 C 73.707031 72.664063 73.425781 72.164063 73.488281 72.070313 C 73.535156 71.992188 73.628906 71.992188 73.675781 71.914063 C 73.722656 71.835938 73.660156 71.773438 73.597656 71.726563 C 73.519531 71.679688 73.425781 71.742188 73.394531 71.804688 C 73.285156 71.976563 73.410156 72.257813 73.582031 72.617188 L 73.363281 72.539063 C 73.019531 72.414063 72.988281 72.476563 72.941406 72.554688 C 72.878906 72.664063 72.816406 72.929688 72.800781 73.039063 L 72.863281 73.054688 C 72.894531 72.929688 72.925781 72.882813 72.941406 72.851563 C 73.003906 72.757813 73.035156 72.773438 73.175781 72.789063 C 73.191406 72.804688 73.707031 72.960938 73.753906 72.976563 C 74.003906 73.554688 74.082031 73.726563 74.050781 73.773438 C 74.003906 73.851563 73.894531 73.867188 73.847656 73.929688 C 73.800781 74.007813 73.847656 74.101563 73.894531 74.132813 C 73.972656 74.179688 74.082031 74.179688 74.160156 74.054688 C 74.222656 73.945313 74.207031 73.867188 74.175781 73.773438 C 74.128906 73.585938 74.019531 73.351563 73.878906 73.039063 L 74.363281 73.195313 C 74.566406 73.226563 74.660156 73.226563 74.722656 73.132813 C 74.769531 73.054688 74.832031 72.960938 74.582031 72.476563 Z M 74.519531 72.507813 "
       id="path108" />
    <path
       style=" stroke:none;fill-rule:nonzero;fill:rgb(12.940979%,11.764526%,11.764526%);fill-opacity:1;"
       d="M 75.046875 71.582031 C 75.171875 71.863281 75.171875 71.988281 75.15625 72.019531 C 75.140625 72.050781 75.109375 72.066406 75.078125 72.050781 C 75.03125 72.035156 74.921875 71.910156 74.875 71.847656 L 73.953125 70.894531 L 73.9375 70.894531 C 73.890625 71.050781 73.75 71.378906 73.703125 71.488281 L 73.765625 71.519531 C 73.875 71.332031 73.90625 71.332031 73.96875 71.363281 C 74.0625 71.425781 74.765625 72.207031 74.921875 72.300781 C 74.984375 72.347656 75.140625 72.441406 75.234375 72.285156 C 75.34375 72.097656 75.25 71.816406 75.125 71.582031 Z M 73.484375 70.441406 C 73.40625 70.394531 73.265625 70.394531 73.1875 70.503906 C 73.140625 70.582031 73.140625 70.691406 73.265625 70.753906 C 73.390625 70.832031 73.5 70.800781 73.546875 70.722656 C 73.625 70.613281 73.546875 70.472656 73.484375 70.441406 Z M 73.484375 70.441406 "
       id="path110" />
    <path
       style=" stroke:none;fill-rule:nonzero;fill:rgb(12.940979%,11.764526%,11.764526%);fill-opacity:1;"
       d="M 76.574219 69.019531 C 76.667969 69.253906 76.714844 69.410156 76.667969 69.472656 C 76.652344 69.519531 76.636719 69.535156 76.574219 69.488281 C 76.542969 69.472656 75.792969 68.628906 75.667969 68.550781 C 75.527344 68.472656 75.386719 68.503906 75.308594 68.628906 C 75.167969 68.847656 75.324219 69.300781 75.558594 69.785156 C 75.449219 69.660156 75.199219 69.410156 75.167969 69.378906 C 75.011719 69.300781 74.886719 69.316406 74.808594 69.457031 C 74.636719 69.738281 74.964844 70.410156 75.074219 70.597656 L 75.058594 70.613281 L 74.496094 70.003906 L 74.464844 70.019531 C 74.402344 70.222656 74.324219 70.410156 74.246094 70.628906 L 74.308594 70.660156 C 74.402344 70.488281 74.433594 70.441406 74.511719 70.488281 C 74.589844 70.535156 75.386719 71.394531 75.589844 71.582031 L 75.730469 71.332031 C 75.402344 70.957031 75.214844 70.738281 75.089844 70.488281 C 75.011719 70.316406 74.808594 69.847656 74.902344 69.675781 C 74.917969 69.660156 74.949219 69.597656 75.042969 69.660156 C 75.121094 69.691406 75.824219 70.457031 76.089844 70.753906 L 76.246094 70.472656 C 75.917969 70.144531 75.730469 69.972656 75.574219 69.628906 C 75.480469 69.425781 75.308594 69.003906 75.402344 68.863281 C 75.433594 68.816406 75.480469 68.800781 75.542969 68.832031 C 75.605469 68.878906 76.386719 69.722656 76.480469 69.785156 C 76.527344 69.800781 76.652344 69.878906 76.746094 69.738281 C 76.855469 69.550781 76.777344 69.269531 76.683594 69.035156 L 76.652344 69.003906 Z M 76.574219 69.019531 "
       id="path112" />
    <path
       style=" stroke:none;fill-rule:nonzero;fill:rgb(12.940979%,11.764526%,11.764526%);fill-opacity:1;"
       d="M 77.601563 67.332031 C 77.679688 67.550781 77.742188 67.722656 77.695313 67.785156 C 77.679688 67.832031 77.648438 67.800781 77.632813 67.800781 C 77.585938 67.769531 77.445313 67.628906 77.398438 67.550781 L 76.539063 66.675781 L 76.382813 66.925781 C 76.679688 67.285156 76.835938 67.488281 76.992188 67.800781 C 77.101563 68.035156 77.289063 68.441406 77.210938 68.582031 C 77.164063 68.644531 77.085938 68.628906 77.054688 68.582031 L 75.992188 67.535156 L 75.960938 67.550781 C 75.914063 67.738281 75.835938 67.910156 75.757813 68.097656 L 75.820313 68.128906 C 75.898438 68.003906 75.945313 67.925781 76.039063 67.988281 C 76.132813 68.035156 76.820313 68.832031 76.992188 68.925781 C 77.132813 69.003906 77.226563 68.972656 77.304688 68.863281 C 77.492188 68.550781 77.210938 68.035156 76.945313 67.566406 L 76.960938 67.550781 C 77.195313 67.800781 77.429688 68.050781 77.507813 68.082031 C 77.554688 68.113281 77.679688 68.191406 77.773438 68.019531 C 77.882813 67.847656 77.851563 67.722656 77.664063 67.316406 Z M 77.601563 67.332031 "
       id="path114" />
    <path
       style=" stroke:none;fill-rule:nonzero;fill:rgb(12.940979%,11.764526%,11.764526%);fill-opacity:1;"
       d="M 79.105469 64.839844 C 79.199219 65.074219 79.246094 65.230469 79.199219 65.292969 C 79.183594 65.339844 79.167969 65.355469 79.105469 65.308594 C 79.074219 65.292969 78.324219 64.449219 78.199219 64.371094 C 78.058594 64.292969 77.917969 64.324219 77.839844 64.449219 C 77.699219 64.667969 77.855469 65.121094 78.089844 65.605469 C 77.980469 65.480469 77.730469 65.230469 77.699219 65.199219 C 77.542969 65.121094 77.417969 65.136719 77.339844 65.277344 C 77.167969 65.558594 77.496094 66.230469 77.605469 66.417969 L 77.589844 66.433594 L 77.027344 65.824219 L 76.996094 65.839844 C 76.933594 66.042969 76.855469 66.230469 76.777344 66.449219 L 76.839844 66.480469 C 76.933594 66.308594 76.964844 66.261719 77.042969 66.308594 C 77.121094 66.355469 77.917969 67.214844 78.121094 67.402344 L 78.261719 67.152344 C 77.933594 66.777344 77.746094 66.558594 77.621094 66.308594 C 77.542969 66.136719 77.339844 65.667969 77.433594 65.496094 C 77.449219 65.480469 77.480469 65.417969 77.574219 65.480469 C 77.652344 65.511719 78.355469 66.277344 78.621094 66.574219 L 78.777344 66.292969 C 78.449219 65.964844 78.261719 65.792969 78.105469 65.449219 C 78.011719 65.246094 77.839844 64.824219 77.933594 64.683594 C 77.964844 64.636719 78.011719 64.621094 78.074219 64.652344 C 78.136719 64.699219 78.917969 65.542969 79.011719 65.605469 C 79.058594 65.621094 79.183594 65.699219 79.277344 65.558594 C 79.386719 65.371094 79.308594 65.089844 79.214844 64.855469 L 79.183594 64.824219 Z M 79.105469 64.839844 "
       id="path116" />
    <path
       style=" stroke:none;fill-rule:nonzero;fill:rgb(12.940979%,11.764526%,11.764526%);fill-opacity:1;"
       d="M 78.800781 78.871094 C 78.894531 79.105469 78.941406 79.261719 78.894531 79.324219 C 78.878906 79.371094 78.863281 79.386719 78.800781 79.339844 C 78.769531 79.324219 78.019531 78.480469 77.894531 78.402344 C 77.753906 78.324219 77.613281 78.355469 77.535156 78.480469 C 77.394531 78.699219 77.550781 79.152344 77.785156 79.636719 C 77.675781 79.511719 77.425781 79.261719 77.394531 79.230469 C 77.238281 79.152344 77.113281 79.167969 77.035156 79.308594 C 76.863281 79.589844 77.191406 80.261719 77.300781 80.449219 L 77.285156 80.464844 L 76.722656 79.855469 L 76.691406 79.871094 C 76.628906 80.074219 76.550781 80.261719 76.472656 80.480469 L 76.535156 80.511719 C 76.628906 80.339844 76.660156 80.292969 76.738281 80.339844 C 76.816406 80.386719 77.613281 81.246094 77.816406 81.433594 L 77.957031 81.183594 C 77.628906 80.808594 77.441406 80.589844 77.316406 80.339844 C 77.238281 80.167969 77.035156 79.699219 77.128906 79.527344 C 77.144531 79.511719 77.175781 79.449219 77.269531 79.511719 C 77.347656 79.542969 78.050781 80.308594 78.316406 80.605469 L 78.472656 80.324219 C 78.144531 79.996094 77.957031 79.824219 77.800781 79.480469 C 77.707031 79.277344 77.535156 78.855469 77.628906 78.714844 C 77.660156 78.667969 77.707031 78.652344 77.769531 78.683594 C 77.832031 78.730469 78.613281 79.574219 78.707031 79.636719 C 78.753906 79.652344 78.878906 79.730469 78.972656 79.589844 C 79.082031 79.402344 79.003906 79.121094 78.910156 78.886719 L 78.878906 78.855469 Z M 78.800781 78.871094 "
       id="path118" />
    <path
       style=" stroke:none;fill-rule:nonzero;fill:rgb(12.940979%,11.764526%,11.764526%);fill-opacity:1;"
       d="M 79.875 77.195313 C 79.90625 77.429688 79.96875 77.570313 79.9375 77.617188 C 79.921875 77.648438 79.890625 77.648438 79.859375 77.632813 C 79.75 77.570313 78.78125 76.554688 78.75 76.507813 L 78.71875 76.539063 L 78.625 76.757813 L 78.625 76.773438 L 78.75 76.898438 C 78.640625 76.851563 78.484375 76.914063 78.390625 77.054688 C 78.125 77.507813 78.4375 78.429688 78.953125 78.742188 C 79.046875 78.804688 79.375 78.976563 79.578125 78.617188 C 79.703125 78.429688 79.703125 78.164063 79.453125 77.632813 C 79.640625 77.820313 79.703125 77.882813 79.78125 77.929688 C 79.84375 77.960938 79.9375 78.023438 80.03125 77.882813 C 80.125 77.726563 80.046875 77.523438 79.921875 77.179688 Z M 79.109375 78.445313 C 78.796875 78.257813 78.234375 77.492188 78.484375 77.085938 C 78.53125 76.992188 78.671875 76.929688 78.828125 77.023438 C 79.15625 77.226563 79.6875 78.023438 79.46875 78.382813 C 79.421875 78.476563 79.296875 78.554688 79.109375 78.445313 Z M 79.109375 78.445313 "
       id="path120" />
    <path
       style=" stroke:none;fill-rule:nonzero;fill:rgb(12.940979%,11.764526%,11.764526%);fill-opacity:1;"
       d="M 80.5625 76.875 C 80.1875 76.46875 80.0625 76.3125 79.890625 76.046875 C 79.859375 75.984375 79.609375 75.546875 79.671875 75.453125 C 79.71875 75.359375 79.8125 75.5 79.90625 75.34375 C 79.9375 75.3125 80 75.1875 79.8125 75.078125 C 79.703125 75.015625 79.59375 75.0625 79.546875 75.140625 C 79.421875 75.359375 79.671875 75.84375 79.828125 76.109375 L 79.875 76.171875 L 79.296875 75.609375 L 79.265625 75.609375 C 79.203125 75.78125 79.140625 76 79.046875 76.1875 L 79.109375 76.21875 C 79.125 76.171875 79.125 76.140625 79.15625 76.109375 C 79.21875 76 79.28125 76.015625 79.34375 76.046875 C 79.359375 76.0625 79.46875 76.15625 79.578125 76.265625 L 80.40625 77.140625 Z M 80.5625 76.875 "
       id="path122" />
    <path
       style=" stroke:none;fill-rule:nonzero;fill:rgb(12.940979%,11.764526%,11.764526%);fill-opacity:1;"
       d="M 80.710938 73.496094 L 80.570313 73.714844 C 80.554688 73.746094 80.507813 73.761719 80.460938 73.792969 C 80.382813 73.839844 80.289063 73.902344 80.210938 74.058594 C 80.039063 74.339844 80.007813 74.839844 80.398438 75.074219 C 80.617188 75.214844 80.804688 75.105469 80.929688 75.027344 C 80.929688 75.183594 80.945313 75.417969 81.054688 75.480469 C 81.117188 75.511719 81.195313 75.480469 81.242188 75.464844 C 81.242188 75.855469 81.273438 76.011719 81.460938 76.121094 C 81.648438 76.246094 81.945313 76.167969 82.179688 75.792969 C 82.460938 75.324219 82.414063 74.933594 82.117188 74.761719 C 81.648438 74.480469 81.257813 75.246094 81.085938 75.136719 C 81.039063 75.105469 80.992188 74.964844 81.007813 74.933594 C 81.039063 74.871094 81.085938 74.855469 81.117188 74.808594 C 81.289063 74.496094 81.210938 74.011719 80.945313 73.855469 C 80.882813 73.824219 80.820313 73.777344 80.742188 73.761719 L 80.851563 73.574219 Z M 82.101563 75.042969 C 82.273438 75.152344 82.320313 75.386719 82.132813 75.699219 C 82.101563 75.746094 81.851563 76.121094 81.539063 75.917969 C 81.460938 75.871094 81.367188 75.824219 81.351563 75.621094 C 81.335938 75.605469 81.320313 75.417969 81.335938 75.386719 C 81.351563 75.371094 81.679688 75.105469 81.742188 75.089844 C 81.804688 75.042969 81.929688 74.949219 82.101563 75.042969 Z M 80.648438 74.027344 C 80.929688 74.199219 81.148438 74.574219 81.007813 74.808594 C 80.914063 74.949219 80.773438 74.933594 80.617188 74.839844 C 80.398438 74.699219 80.132813 74.355469 80.289063 74.089844 C 80.367188 73.949219 80.507813 73.949219 80.648438 74.027344 Z M 80.648438 74.027344 "
       id="path124" />
    <path
       style=" stroke:none;fill-rule:nonzero;fill:rgb(12.940979%,11.764526%,11.764526%);fill-opacity:1;"
       d="M 82.214844 73.253906 C 82.339844 73.535156 82.339844 73.660156 82.324219 73.691406 C 82.308594 73.722656 82.277344 73.738281 82.246094 73.722656 C 82.199219 73.707031 82.089844 73.582031 82.042969 73.519531 L 81.121094 72.566406 L 81.105469 72.566406 C 81.058594 72.722656 80.917969 73.050781 80.871094 73.160156 L 80.933594 73.191406 C 81.042969 73.003906 81.074219 73.003906 81.136719 73.035156 C 81.230469 73.097656 81.933594 73.878906 82.089844 73.972656 C 82.152344 74.019531 82.308594 74.113281 82.402344 73.957031 C 82.511719 73.769531 82.417969 73.488281 82.292969 73.253906 Z M 80.652344 72.113281 C 80.574219 72.066406 80.433594 72.066406 80.355469 72.175781 C 80.308594 72.253906 80.308594 72.363281 80.433594 72.425781 C 80.558594 72.503906 80.667969 72.472656 80.714844 72.394531 C 80.792969 72.285156 80.714844 72.144531 80.652344 72.113281 Z M 80.652344 72.113281 "
       id="path126" />
    <path
       style=" stroke:none;fill-rule:nonzero;fill:rgb(12.940979%,11.764526%,11.764526%);fill-opacity:1;"
       d="M 83.277344 71.472656 C 83.371094 71.722656 83.417969 71.863281 83.371094 71.925781 C 83.371094 71.941406 83.339844 71.972656 83.292969 71.941406 C 83.183594 71.878906 82.496094 71.097656 82.355469 71.003906 C 82.199219 70.925781 82.074219 70.957031 81.980469 71.128906 C 81.808594 71.410156 82.105469 71.988281 82.261719 72.316406 L 82.261719 72.300781 L 81.667969 71.660156 L 81.652344 71.675781 C 81.589844 71.878906 81.496094 72.082031 81.417969 72.300781 L 81.480469 72.332031 C 81.589844 72.144531 81.652344 72.113281 81.714844 72.144531 C 81.777344 72.191406 82.433594 72.910156 82.761719 73.253906 L 82.917969 72.988281 C 82.527344 72.582031 82.417969 72.425781 82.277344 72.144531 C 82.152344 71.894531 81.980469 71.503906 82.074219 71.332031 C 82.121094 71.269531 82.199219 71.285156 82.246094 71.316406 C 82.402344 71.410156 83.074219 72.175781 83.152344 72.222656 C 83.261719 72.285156 83.355469 72.332031 83.449219 72.160156 C 83.574219 71.972656 83.480469 71.769531 83.355469 71.457031 Z M 83.277344 71.472656 "
       id="path128" />
    <path
       style=" stroke:none;fill-rule:nonzero;fill:rgb(12.940979%,11.764526%,11.764526%);fill-opacity:1;"
       d="M 84.015625 68.765625 C 84.3125 68.953125 84.84375 69.703125 84.5625 70.171875 C 84.453125 70.328125 84.359375 70.28125 84.34375 70.265625 C 83.984375 70.046875 83.359375 69.21875 83.59375 68.84375 C 83.71875 68.625 83.921875 68.703125 84.015625 68.765625 Z M 82.296875 69.03125 C 82.4375 68.828125 82.453125 68.8125 82.546875 68.859375 C 82.578125 68.875 82.65625 68.984375 82.734375 69.0625 L 84.171875 70.5625 L 84.1875 70.5625 C 84.265625 70.609375 84.53125 70.421875 84.640625 70.25 C 84.953125 69.71875 84.71875 68.78125 84.171875 68.453125 C 83.921875 68.296875 83.640625 68.375 83.5 68.609375 C 83.3125 68.921875 83.5 69.328125 83.609375 69.546875 L 83.609375 69.5625 C 83.28125 69.203125 82.75 68.65625 82.515625 68.40625 L 82.484375 68.421875 C 82.421875 68.625 82.34375 68.8125 82.234375 69 Z M 82.296875 69.03125 "
       id="path130" />
    <path
       style="fill:none;stroke-width:0.5;stroke-linecap:butt;stroke-linejoin:miter;stroke:rgb(0%,0%,0%);stroke-opacity:1;stroke-miterlimit:4;"
       d="M 74.3125 78.878906 L 81.0625 67.628906 "
       id="path132" />
    <path
       style=" stroke:none;fill-rule:nonzero;fill:rgb(0%,0%,0%);fill-opacity:1;"
       d="M 81.226563 66.351563 C 80.585938 66.929688 80.113281 67.273438 79.542969 67.707031 L 81.707031 69.003906 C 81.730469 68.742188 81.898438 67.71875 82.109375 66.882813 C 82.335938 65.984375 82.59375 65.203125 82.804688 64.722656 C 82.480469 65.136719 81.910156 65.730469 81.226563 66.351563 "
       id="path134" />
    <path
       style=" stroke:none;fill-rule:nonzero;fill:rgb(0%,0%,0%);fill-opacity:1;"
       d="M 74.144531 80.15625 C 74.785156 79.578125 75.257813 79.234375 75.828125 78.804688 L 73.664063 77.503906 C 73.640625 77.765625 73.472656 78.789063 73.261719 79.628906 C 73.035156 80.523438 72.78125 81.304688 72.566406 81.785156 C 72.890625 81.371094 73.460938 80.777344 74.144531 80.15625 "
       id="path136" />
    <path
       style=" stroke:none;fill-rule:nonzero;fill:rgb(12.940979%,11.764526%,11.764526%);fill-opacity:1;"
       d="M 62.804688 92.175781 C 62.898438 92.410156 62.945313 92.566406 62.898438 92.628906 C 62.882813 92.675781 62.867188 92.691406 62.804688 92.644531 C 62.773438 92.628906 62.023438 91.785156 61.898438 91.707031 C 61.757813 91.628906 61.617188 91.660156 61.539063 91.785156 C 61.398438 92.003906 61.554688 92.457031 61.789063 92.941406 C 61.679688 92.816406 61.429688 92.566406 61.398438 92.535156 C 61.242188 92.457031 61.117188 92.472656 61.039063 92.613281 C 60.867188 92.894531 61.195313 93.566406 61.304688 93.753906 L 61.289063 93.769531 L 60.726563 93.160156 L 60.695313 93.175781 C 60.632813 93.378906 60.554688 93.566406 60.476563 93.785156 L 60.539063 93.816406 C 60.632813 93.644531 60.664063 93.597656 60.742188 93.644531 C 60.820313 93.691406 61.617188 94.550781 61.820313 94.738281 L 61.960938 94.488281 C 61.632813 94.113281 61.445313 93.894531 61.320313 93.644531 C 61.242188 93.472656 61.039063 93.003906 61.132813 92.832031 C 61.148438 92.816406 61.179688 92.753906 61.273438 92.816406 C 61.351563 92.847656 62.054688 93.613281 62.320313 93.910156 L 62.476563 93.628906 C 62.148438 93.300781 61.960938 93.128906 61.804688 92.785156 C 61.710938 92.582031 61.539063 92.160156 61.632813 92.019531 C 61.664063 91.972656 61.710938 91.957031 61.773438 91.988281 C 61.835938 92.035156 62.617188 92.878906 62.710938 92.941406 C 62.757813 92.957031 62.882813 93.035156 62.976563 92.894531 C 63.085938 92.707031 63.007813 92.425781 62.914063 92.191406 L 62.882813 92.160156 Z M 62.804688 92.175781 "
       id="path138" />
    <path
       style=" stroke:none;fill-rule:nonzero;fill:rgb(12.940979%,11.764526%,11.764526%);fill-opacity:1;"
       d="M 63.875 90.5 C 63.90625 90.734375 63.96875 90.875 63.9375 90.921875 C 63.921875 90.953125 63.890625 90.953125 63.859375 90.9375 C 63.75 90.875 62.78125 89.859375 62.75 89.8125 L 62.71875 89.84375 L 62.625 90.0625 L 62.625 90.078125 L 62.75 90.203125 C 62.640625 90.15625 62.484375 90.21875 62.390625 90.359375 C 62.125 90.8125 62.4375 91.734375 62.953125 92.046875 C 63.046875 92.109375 63.375 92.28125 63.578125 91.921875 C 63.703125 91.734375 63.703125 91.46875 63.453125 90.9375 C 63.640625 91.125 63.703125 91.1875 63.78125 91.234375 C 63.84375 91.265625 63.9375 91.328125 64.03125 91.1875 C 64.125 91.03125 64.046875 90.828125 63.921875 90.484375 Z M 63.109375 91.75 C 62.796875 91.5625 62.234375 90.796875 62.484375 90.390625 C 62.53125 90.296875 62.671875 90.234375 62.828125 90.328125 C 63.15625 90.53125 63.6875 91.328125 63.46875 91.6875 C 63.421875 91.78125 63.296875 91.859375 63.109375 91.75 Z M 63.109375 91.75 "
       id="path140" />
    <path
       style=" stroke:none;fill-rule:nonzero;fill:rgb(12.940979%,11.764526%,11.764526%);fill-opacity:1;"
       d="M 64.769531 89.007813 C 64.816406 89.148438 64.910156 89.289063 64.863281 89.351563 C 64.816406 89.445313 64.722656 89.398438 64.644531 89.382813 C 64.550781 89.367188 64.019531 89.195313 63.957031 89.164063 C 63.957031 89.164063 63.675781 88.664063 63.738281 88.570313 C 63.785156 88.492188 63.878906 88.492188 63.925781 88.414063 C 63.972656 88.335938 63.910156 88.273438 63.847656 88.226563 C 63.769531 88.179688 63.675781 88.242188 63.644531 88.304688 C 63.535156 88.476563 63.660156 88.757813 63.832031 89.117188 L 63.613281 89.039063 C 63.269531 88.914063 63.238281 88.976563 63.191406 89.054688 C 63.128906 89.164063 63.066406 89.429688 63.050781 89.539063 L 63.113281 89.554688 C 63.144531 89.429688 63.175781 89.382813 63.191406 89.351563 C 63.253906 89.257813 63.285156 89.273438 63.425781 89.289063 C 63.441406 89.304688 63.957031 89.460938 64.003906 89.476563 C 64.253906 90.054688 64.332031 90.226563 64.300781 90.273438 C 64.253906 90.351563 64.144531 90.367188 64.097656 90.429688 C 64.050781 90.507813 64.097656 90.601563 64.144531 90.632813 C 64.222656 90.679688 64.332031 90.679688 64.410156 90.554688 C 64.472656 90.445313 64.457031 90.367188 64.425781 90.273438 C 64.378906 90.085938 64.269531 89.851563 64.128906 89.539063 L 64.613281 89.695313 C 64.816406 89.726563 64.910156 89.726563 64.972656 89.632813 C 65.019531 89.554688 65.082031 89.460938 64.832031 88.976563 Z M 64.769531 89.007813 "
       id="path142" />
    <path
       style=" stroke:none;fill-rule:nonzero;fill:rgb(12.940979%,11.764526%,11.764526%);fill-opacity:1;"
       d="M 65.296875 88.082031 C 65.421875 88.363281 65.421875 88.488281 65.40625 88.519531 C 65.390625 88.550781 65.359375 88.566406 65.328125 88.550781 C 65.28125 88.535156 65.171875 88.410156 65.125 88.347656 L 64.203125 87.394531 L 64.1875 87.394531 C 64.140625 87.550781 64 87.878906 63.953125 87.988281 L 64.015625 88.019531 C 64.125 87.832031 64.15625 87.832031 64.21875 87.863281 C 64.3125 87.925781 65.015625 88.707031 65.171875 88.800781 C 65.234375 88.847656 65.390625 88.941406 65.484375 88.785156 C 65.59375 88.597656 65.5 88.316406 65.375 88.082031 Z M 63.734375 86.941406 C 63.65625 86.894531 63.515625 86.894531 63.4375 87.003906 C 63.390625 87.082031 63.390625 87.191406 63.515625 87.253906 C 63.640625 87.332031 63.75 87.300781 63.796875 87.222656 C 63.875 87.113281 63.796875 86.972656 63.734375 86.941406 Z M 63.734375 86.941406 "
       id="path144" />
    <path
       style=" stroke:none;fill-rule:nonzero;fill:rgb(12.940979%,11.764526%,11.764526%);fill-opacity:1;"
       d="M 66.824219 85.519531 C 66.917969 85.753906 66.964844 85.910156 66.917969 85.972656 C 66.902344 86.019531 66.886719 86.035156 66.824219 85.988281 C 66.792969 85.972656 66.042969 85.128906 65.917969 85.050781 C 65.777344 84.972656 65.636719 85.003906 65.558594 85.128906 C 65.417969 85.347656 65.574219 85.800781 65.808594 86.285156 C 65.699219 86.160156 65.449219 85.910156 65.417969 85.878906 C 65.261719 85.800781 65.136719 85.816406 65.058594 85.957031 C 64.886719 86.238281 65.214844 86.910156 65.324219 87.097656 L 65.308594 87.113281 L 64.746094 86.503906 L 64.714844 86.519531 C 64.652344 86.722656 64.574219 86.910156 64.496094 87.128906 L 64.558594 87.160156 C 64.652344 86.988281 64.683594 86.941406 64.761719 86.988281 C 64.839844 87.035156 65.636719 87.894531 65.839844 88.082031 L 65.980469 87.832031 C 65.652344 87.457031 65.464844 87.238281 65.339844 86.988281 C 65.261719 86.816406 65.058594 86.347656 65.152344 86.175781 C 65.167969 86.160156 65.199219 86.097656 65.292969 86.160156 C 65.371094 86.191406 66.074219 86.957031 66.339844 87.253906 L 66.496094 86.972656 C 66.167969 86.644531 65.980469 86.472656 65.824219 86.128906 C 65.730469 85.925781 65.558594 85.503906 65.652344 85.363281 C 65.683594 85.316406 65.730469 85.300781 65.792969 85.332031 C 65.855469 85.378906 66.636719 86.222656 66.730469 86.285156 C 66.777344 86.300781 66.902344 86.378906 66.996094 86.238281 C 67.105469 86.050781 67.027344 85.769531 66.933594 85.535156 L 66.902344 85.503906 Z M 66.824219 85.519531 "
       id="path146" />
    <path
       style=" stroke:none;fill-rule:nonzero;fill:rgb(12.940979%,11.764526%,11.764526%);fill-opacity:1;"
       d="M 67.851563 83.832031 C 67.929688 84.050781 67.992188 84.222656 67.945313 84.285156 C 67.929688 84.332031 67.898438 84.300781 67.882813 84.300781 C 67.835938 84.269531 67.695313 84.128906 67.648438 84.050781 L 66.789063 83.175781 L 66.632813 83.425781 C 66.929688 83.785156 67.085938 83.988281 67.242188 84.300781 C 67.351563 84.535156 67.539063 84.941406 67.460938 85.082031 C 67.414063 85.144531 67.335938 85.128906 67.304688 85.082031 L 66.242188 84.035156 L 66.210938 84.050781 C 66.164063 84.238281 66.085938 84.410156 66.007813 84.597656 L 66.070313 84.628906 C 66.148438 84.503906 66.195313 84.425781 66.289063 84.488281 C 66.382813 84.535156 67.070313 85.332031 67.242188 85.425781 C 67.382813 85.503906 67.476563 85.472656 67.554688 85.363281 C 67.742188 85.050781 67.460938 84.535156 67.195313 84.066406 L 67.210938 84.050781 C 67.445313 84.300781 67.679688 84.550781 67.757813 84.582031 C 67.804688 84.613281 67.929688 84.691406 68.023438 84.519531 C 68.132813 84.347656 68.101563 84.222656 67.914063 83.816406 Z M 67.851563 83.832031 "
       id="path148" />
    <path
       style=" stroke:none;fill-rule:nonzero;fill:rgb(12.940979%,11.764526%,11.764526%);fill-opacity:1;"
       d="M 69.355469 81.339844 C 69.449219 81.574219 69.496094 81.730469 69.449219 81.792969 C 69.433594 81.839844 69.417969 81.855469 69.355469 81.808594 C 69.324219 81.792969 68.574219 80.949219 68.449219 80.871094 C 68.308594 80.792969 68.167969 80.824219 68.089844 80.949219 C 67.949219 81.167969 68.105469 81.621094 68.339844 82.105469 C 68.230469 81.980469 67.980469 81.730469 67.949219 81.699219 C 67.792969 81.621094 67.667969 81.636719 67.589844 81.777344 C 67.417969 82.058594 67.746094 82.730469 67.855469 82.917969 L 67.839844 82.933594 L 67.277344 82.324219 L 67.246094 82.339844 C 67.183594 82.542969 67.105469 82.730469 67.027344 82.949219 L 67.089844 82.980469 C 67.183594 82.808594 67.214844 82.761719 67.292969 82.808594 C 67.371094 82.855469 68.167969 83.714844 68.371094 83.902344 L 68.511719 83.652344 C 68.183594 83.277344 67.996094 83.058594 67.871094 82.808594 C 67.792969 82.636719 67.589844 82.167969 67.683594 81.996094 C 67.699219 81.980469 67.730469 81.917969 67.824219 81.980469 C 67.902344 82.011719 68.605469 82.777344 68.871094 83.074219 L 69.027344 82.792969 C 68.699219 82.464844 68.511719 82.292969 68.355469 81.949219 C 68.261719 81.746094 68.089844 81.324219 68.183594 81.183594 C 68.214844 81.136719 68.261719 81.121094 68.324219 81.152344 C 68.386719 81.199219 69.167969 82.042969 69.261719 82.105469 C 69.308594 82.121094 69.433594 82.199219 69.527344 82.058594 C 69.636719 81.871094 69.558594 81.589844 69.464844 81.355469 L 69.433594 81.324219 Z M 69.355469 81.339844 "
       id="path150" />
    <path
       style=" stroke:none;fill-rule:nonzero;fill:rgb(12.940979%,11.764526%,11.764526%);fill-opacity:1;"
       d="M 69.050781 95.371094 C 69.144531 95.605469 69.191406 95.761719 69.144531 95.824219 C 69.128906 95.871094 69.113281 95.886719 69.050781 95.839844 C 69.019531 95.824219 68.269531 94.980469 68.144531 94.902344 C 68.003906 94.824219 67.863281 94.855469 67.785156 94.980469 C 67.644531 95.199219 67.800781 95.652344 68.035156 96.136719 C 67.925781 96.011719 67.675781 95.761719 67.644531 95.730469 C 67.488281 95.652344 67.363281 95.667969 67.285156 95.808594 C 67.113281 96.089844 67.441406 96.761719 67.550781 96.949219 L 67.535156 96.964844 L 66.972656 96.355469 L 66.941406 96.371094 C 66.878906 96.574219 66.800781 96.761719 66.722656 96.980469 L 66.785156 97.011719 C 66.878906 96.839844 66.910156 96.792969 66.988281 96.839844 C 67.066406 96.886719 67.863281 97.746094 68.066406 97.933594 L 68.207031 97.683594 C 67.878906 97.308594 67.691406 97.089844 67.566406 96.839844 C 67.488281 96.667969 67.285156 96.199219 67.378906 96.027344 C 67.394531 96.011719 67.425781 95.949219 67.519531 96.011719 C 67.597656 96.042969 68.300781 96.808594 68.566406 97.105469 L 68.722656 96.824219 C 68.394531 96.496094 68.207031 96.324219 68.050781 95.980469 C 67.957031 95.777344 67.785156 95.355469 67.878906 95.214844 C 67.910156 95.167969 67.957031 95.152344 68.019531 95.183594 C 68.082031 95.230469 68.863281 96.074219 68.957031 96.136719 C 69.003906 96.152344 69.128906 96.230469 69.222656 96.089844 C 69.332031 95.902344 69.253906 95.621094 69.160156 95.386719 L 69.128906 95.355469 Z M 69.050781 95.371094 "
       id="path152" />
    <path
       style=" stroke:none;fill-rule:nonzero;fill:rgb(12.940979%,11.764526%,11.764526%);fill-opacity:1;"
       d="M 70.125 93.695313 C 70.15625 93.929688 70.21875 94.070313 70.1875 94.117188 C 70.171875 94.148438 70.140625 94.148438 70.109375 94.132813 C 70 94.070313 69.03125 93.054688 69 93.007813 L 68.96875 93.039063 L 68.875 93.257813 L 68.875 93.273438 L 69 93.398438 C 68.890625 93.351563 68.734375 93.414063 68.640625 93.554688 C 68.375 94.007813 68.6875 94.929688 69.203125 95.242188 C 69.296875 95.304688 69.625 95.476563 69.828125 95.117188 C 69.953125 94.929688 69.953125 94.664063 69.703125 94.132813 C 69.890625 94.320313 69.953125 94.382813 70.03125 94.429688 C 70.09375 94.460938 70.1875 94.523438 70.28125 94.382813 C 70.375 94.226563 70.296875 94.023438 70.171875 93.679688 Z M 69.359375 94.945313 C 69.046875 94.757813 68.484375 93.992188 68.734375 93.585938 C 68.78125 93.492188 68.921875 93.429688 69.078125 93.523438 C 69.40625 93.726563 69.9375 94.523438 69.71875 94.882813 C 69.671875 94.976563 69.546875 95.054688 69.359375 94.945313 Z M 69.359375 94.945313 "
       id="path154" />
    <path
       style=" stroke:none;fill-rule:nonzero;fill:rgb(12.940979%,11.764526%,11.764526%);fill-opacity:1;"
       d="M 70.8125 93.375 C 70.4375 92.96875 70.3125 92.8125 70.140625 92.546875 C 70.109375 92.484375 69.859375 92.046875 69.921875 91.953125 C 69.96875 91.859375 70.0625 92 70.15625 91.84375 C 70.1875 91.8125 70.25 91.6875 70.0625 91.578125 C 69.953125 91.515625 69.84375 91.5625 69.796875 91.640625 C 69.671875 91.859375 69.921875 92.34375 70.078125 92.609375 L 70.125 92.671875 L 69.546875 92.109375 L 69.515625 92.109375 C 69.453125 92.28125 69.390625 92.5 69.296875 92.6875 L 69.359375 92.71875 C 69.375 92.671875 69.375 92.640625 69.40625 92.609375 C 69.46875 92.5 69.53125 92.515625 69.59375 92.546875 C 69.609375 92.5625 69.71875 92.65625 69.828125 92.765625 L 70.65625 93.640625 Z M 70.8125 93.375 "
       id="path156" />
    <path
       style=" stroke:none;fill-rule:nonzero;fill:rgb(12.940979%,11.764526%,11.764526%);fill-opacity:1;"
       d="M 70.960938 89.996094 L 70.820313 90.214844 C 70.804688 90.246094 70.757813 90.261719 70.710938 90.292969 C 70.632813 90.339844 70.539063 90.402344 70.460938 90.558594 C 70.289063 90.839844 70.257813 91.339844 70.648438 91.574219 C 70.867188 91.714844 71.054688 91.605469 71.179688 91.527344 C 71.179688 91.683594 71.195313 91.917969 71.304688 91.980469 C 71.367188 92.011719 71.445313 91.980469 71.492188 91.964844 C 71.492188 92.355469 71.523438 92.511719 71.710938 92.621094 C 71.898438 92.746094 72.195313 92.667969 72.429688 92.292969 C 72.710938 91.824219 72.664063 91.433594 72.367188 91.261719 C 71.898438 90.980469 71.507813 91.746094 71.335938 91.636719 C 71.289063 91.605469 71.242188 91.464844 71.257813 91.433594 C 71.289063 91.371094 71.335938 91.355469 71.367188 91.308594 C 71.539063 90.996094 71.460938 90.511719 71.195313 90.355469 C 71.132813 90.324219 71.070313 90.277344 70.992188 90.261719 L 71.101563 90.074219 Z M 72.351563 91.542969 C 72.523438 91.652344 72.570313 91.886719 72.382813 92.199219 C 72.351563 92.246094 72.101563 92.621094 71.789063 92.417969 C 71.710938 92.371094 71.617188 92.324219 71.601563 92.121094 C 71.585938 92.105469 71.570313 91.917969 71.585938 91.886719 C 71.601563 91.871094 71.929688 91.605469 71.992188 91.589844 C 72.054688 91.542969 72.179688 91.449219 72.351563 91.542969 Z M 70.898438 90.527344 C 71.179688 90.699219 71.398438 91.074219 71.257813 91.308594 C 71.164063 91.449219 71.023438 91.433594 70.867188 91.339844 C 70.648438 91.199219 70.382813 90.855469 70.539063 90.589844 C 70.617188 90.449219 70.757813 90.449219 70.898438 90.527344 Z M 70.898438 90.527344 "
       id="path158" />
    <path
       style=" stroke:none;fill-rule:nonzero;fill:rgb(12.940979%,11.764526%,11.764526%);fill-opacity:1;"
       d="M 72.464844 89.753906 C 72.589844 90.035156 72.589844 90.160156 72.574219 90.191406 C 72.558594 90.222656 72.527344 90.238281 72.496094 90.222656 C 72.449219 90.207031 72.339844 90.082031 72.292969 90.019531 L 71.371094 89.066406 L 71.355469 89.066406 C 71.308594 89.222656 71.167969 89.550781 71.121094 89.660156 L 71.183594 89.691406 C 71.292969 89.503906 71.324219 89.503906 71.386719 89.535156 C 71.480469 89.597656 72.183594 90.378906 72.339844 90.472656 C 72.402344 90.519531 72.558594 90.613281 72.652344 90.457031 C 72.761719 90.269531 72.667969 89.988281 72.542969 89.753906 Z M 70.902344 88.613281 C 70.824219 88.566406 70.683594 88.566406 70.605469 88.675781 C 70.558594 88.753906 70.558594 88.863281 70.683594 88.925781 C 70.808594 89.003906 70.917969 88.972656 70.964844 88.894531 C 71.042969 88.785156 70.964844 88.644531 70.902344 88.613281 Z M 70.902344 88.613281 "
       id="path160" />
    <path
       style=" stroke:none;fill-rule:nonzero;fill:rgb(12.940979%,11.764526%,11.764526%);fill-opacity:1;"
       d="M 73.527344 87.972656 C 73.621094 88.222656 73.667969 88.363281 73.621094 88.425781 C 73.621094 88.441406 73.589844 88.472656 73.542969 88.441406 C 73.433594 88.378906 72.746094 87.597656 72.605469 87.503906 C 72.449219 87.425781 72.324219 87.457031 72.230469 87.628906 C 72.058594 87.910156 72.355469 88.488281 72.511719 88.816406 L 72.511719 88.800781 L 71.917969 88.160156 L 71.902344 88.175781 C 71.839844 88.378906 71.746094 88.582031 71.667969 88.800781 L 71.730469 88.832031 C 71.839844 88.644531 71.902344 88.613281 71.964844 88.644531 C 72.027344 88.691406 72.683594 89.410156 73.011719 89.753906 L 73.167969 89.488281 C 72.777344 89.082031 72.667969 88.925781 72.527344 88.644531 C 72.402344 88.394531 72.230469 88.003906 72.324219 87.832031 C 72.371094 87.769531 72.449219 87.785156 72.496094 87.816406 C 72.652344 87.910156 73.324219 88.675781 73.402344 88.722656 C 73.511719 88.785156 73.605469 88.832031 73.699219 88.660156 C 73.824219 88.472656 73.730469 88.269531 73.605469 87.957031 Z M 73.527344 87.972656 "
       id="path162" />
    <path
       style=" stroke:none;fill-rule:nonzero;fill:rgb(12.940979%,11.764526%,11.764526%);fill-opacity:1;"
       d="M 74.265625 85.265625 C 74.5625 85.453125 75.09375 86.203125 74.8125 86.671875 C 74.703125 86.828125 74.609375 86.78125 74.59375 86.765625 C 74.234375 86.546875 73.609375 85.71875 73.84375 85.34375 C 73.96875 85.125 74.171875 85.203125 74.265625 85.265625 Z M 72.546875 85.53125 C 72.6875 85.328125 72.703125 85.3125 72.796875 85.359375 C 72.828125 85.375 72.90625 85.484375 72.984375 85.5625 L 74.421875 87.0625 L 74.4375 87.0625 C 74.515625 87.109375 74.78125 86.921875 74.890625 86.75 C 75.203125 86.21875 74.96875 85.28125 74.421875 84.953125 C 74.171875 84.796875 73.890625 84.875 73.75 85.109375 C 73.5625 85.421875 73.75 85.828125 73.859375 86.046875 L 73.859375 86.0625 C 73.53125 85.703125 73 85.15625 72.765625 84.90625 L 72.734375 84.921875 C 72.671875 85.125 72.59375 85.3125 72.484375 85.5 Z M 72.546875 85.53125 "
       id="path164" />
    <path
       style="fill:none;stroke-width:0.5;stroke-linecap:butt;stroke-linejoin:miter;stroke:rgb(0%,0%,0%);stroke-opacity:1;stroke-miterlimit:4;"
       d="M 64.5625 95.378906 L 71.3125 84.128906 "
       id="path166" />
    <path
       style=" stroke:none;fill-rule:nonzero;fill:rgb(0%,0%,0%);fill-opacity:1;"
       d="M 71.476563 82.851563 C 70.835938 83.429688 70.363281 83.773438 69.792969 84.207031 L 71.957031 85.503906 C 71.980469 85.242188 72.148438 84.21875 72.359375 83.382813 C 72.585938 82.484375 72.84375 81.703125 73.054688 81.222656 C 72.730469 81.636719 72.160156 82.230469 71.476563 82.851563 "
       id="path168" />
    <path
       style=" stroke:none;fill-rule:nonzero;fill:rgb(0%,0%,0%);fill-opacity:1;"
       d="M 64.394531 96.65625 C 65.035156 96.078125 65.507813 95.734375 66.078125 95.304688 L 63.914063 94.003906 C 63.890625 94.265625 63.722656 95.289063 63.511719 96.128906 C 63.285156 97.023438 63.03125 97.804688 62.816406 98.285156 C 63.140625 97.871094 63.710938 97.277344 64.394531 96.65625 "
       id="path170" />
    <path
       style=" stroke:none;fill-rule:nonzero;fill:rgb(86.273193%,14.901733%,13.725281%);fill-opacity:1;"
       d="M 101.621094 76.183594 C 104.027344 76.183594 104.542969 76.808594 104.542969 77.527344 C 104.542969 78.199219 104.089844 79.683594 101.949219 79.761719 C 101.324219 79.792969 100.917969 80.230469 100.917969 80.355469 C 100.917969 80.433594 100.964844 80.433594 100.980469 80.433594 C 101.371094 80.480469 101.636719 80.527344 102.402344 82.199219 C 102.996094 83.464844 103.324219 83.980469 104.027344 83.980469 C 105.480469 83.980469 106.933594 82.496094 106.933594 82.230469 C 106.933594 82.152344 106.839844 82.152344 106.792969 82.152344 C 106.574219 82.152344 106.121094 82.386719 105.933594 82.652344 C 105.699219 82.964844 105.433594 83.308594 104.824219 83.308594 C 104.246094 83.308594 103.824219 82.449219 103.433594 81.589844 C 103.042969 80.792969 102.886719 80.480469 102.636719 80.167969 C 104.558594 79.449219 105.589844 78.183594 105.589844 77.011719 C 105.589844 75.511719 103.589844 75.511719 101.652344 75.511719 C 100.339844 75.511719 99.527344 75.511719 98.402344 76.089844 C 96.917969 76.839844 96.808594 77.746094 96.808594 77.761719 C 96.808594 77.792969 96.824219 77.855469 96.933594 77.855469 C 97.152344 77.855469 97.746094 77.574219 97.855469 77.261719 C 98.011719 76.808594 98.183594 76.261719 99.949219 76.183594 C 99.824219 77.589844 99.589844 80.074219 98.105469 83.683594 C 98.027344 83.855469 98.027344 83.886719 98.027344 83.902344 C 98.027344 83.964844 98.105469 83.980469 98.136719 83.980469 C 98.402344 83.980469 98.871094 83.699219 99.027344 83.480469 C 99.042969 83.433594 99.292969 82.886719 99.667969 81.839844 C 100.261719 80.167969 100.746094 78.230469 100.964844 76.183594 Z M 101.621094 76.183594 "
       id="path172" />
    <path
       style=" stroke:none;fill-rule:nonzero;fill:rgb(86.273193%,14.901733%,13.725281%);fill-opacity:1;"
       d="M 107.34375 86.714844 L 109.015625 86.714844 L 109.015625 86.621094 C 108.71875 86.636719 108.5 86.605469 108.5 86.433594 C 108.5 86.324219 108.578125 86.105469 108.609375 85.996094 L 109.46875 82.871094 C 109.5 82.777344 109.53125 82.652344 109.484375 82.652344 C 109.421875 82.652344 108.59375 82.839844 108.3125 82.886719 L 108.3125 82.980469 L 108.65625 82.964844 C 108.703125 82.964844 108.890625 82.964844 108.890625 83.152344 C 108.890625 83.199219 108.859375 83.292969 108.84375 83.355469 L 108.015625 86.308594 C 107.9375 86.574219 107.6875 86.589844 107.34375 86.636719 Z M 107.34375 86.714844 "
       id="path174" />
  </g>
</svg>
