<?xml version="1.0" encoding="UTF-8" standalone="no"?>
<!DOCTYPE svg PUBLIC "-//W3C//DTD SVG 1.1//EN"
 "http://www.w3.org/Graphics/SVG/1.1/DTD/svg11.dtd">
<!-- Generated by graphviz version 2.40.1 (20161225.0304)
 -->
<!-- Title: Tree Pages: 1 -->
<svg width="1602pt" height="790pt"
 viewBox="0.00 0.00 1602.00 790.00" xmlns="http://www.w3.org/2000/svg" xmlns:xlink="http://www.w3.org/1999/xlink">
<g id="graph0" class="graph" transform="scale(1 1) rotate(0) translate(4 786)">
<title>Tree</title>
<polygon fill="#ffffff" stroke="transparent" points="-4,4 -4,-786 1598,-786 1598,4 -4,4"/>
<!-- 0 -->
<g id="node1" class="node">
<title>0</title>
<path fill="#f4ccae" stroke="#000000" d="M1059,-782C1059,-782 903,-782 903,-782 897,-782 891,-776 891,-770 891,-770 891,-711 891,-711 891,-705 897,-699 903,-699 903,-699 1059,-699 1059,-699 1065,-699 1071,-705 1071,-711 1071,-711 1071,-770 1071,-770 1071,-776 1065,-782 1059,-782"/>
<text text-anchor="start" x="899" y="-766.8" font-family="Helvetica,sans-Serif" font-size="14.00" fill="#000000">perimeter_worst ≤ 105.15</text>
<text text-anchor="start" x="943" y="-751.8" font-family="Helvetica,sans-Serif" font-size="14.00" fill="#000000">gini = 0.467</text>
<text text-anchor="start" x="933" y="-736.8" font-family="Helvetica,sans-Serif" font-size="14.00" fill="#000000">samples = 398</text>
<text text-anchor="start" x="923" y="-721.8" font-family="Helvetica,sans-Serif" font-size="14.00" fill="#000000">value = [250, 148]</text>
<text text-anchor="start" x="951" y="-706.8" font-family="Helvetica,sans-Serif" font-size="14.00" fill="#000000">class = B</text>
</g>
<!-- 1 -->
<g id="node2" class="node">
<title>1</title>
<path fill="#e68742" stroke="#000000" d="M876.5,-663C876.5,-663 691.5,-663 691.5,-663 685.5,-663 679.5,-657 679.5,-651 679.5,-651 679.5,-592 679.5,-592 679.5,-586 685.5,-580 691.5,-580 691.5,-580 876.5,-580 876.5,-580 882.5,-580 888.5,-586 888.5,-592 888.5,-592 888.5,-651 888.5,-651 888.5,-657 882.5,-663 876.5,-663"/>
<text text-anchor="start" x="687.5" y="-647.8" font-family="Helvetica,sans-Serif" font-size="14.00" fill="#000000">concave points_worst ≤ 0.181</text>
<text text-anchor="start" x="746" y="-632.8" font-family="Helvetica,sans-Serif" font-size="14.00" fill="#000000">gini = 0.081</text>
<text text-anchor="start" x="736" y="-617.8" font-family="Helvetica,sans-Serif" font-size="14.00" fill="#000000">samples = 238</text>
<text text-anchor="start" x="730" y="-602.8" font-family="Helvetica,sans-Serif" font-size="14.00" fill="#000000">value = [228, 10]</text>
<text text-anchor="start" x="754" y="-587.8" font-family="Helvetica,sans-Serif" font-size="14.00" fill="#000000">class = B</text>
</g>
<!-- 0&#45;&gt;1 -->
<g id="edge1" class="edge">
<title>0&#45;&gt;1</title>
<path fill="none" stroke="#000000" d="M912.099,-698.8796C895.753,-689.0056 878.2081,-678.4075 861.5076,-668.3193"/>
<polygon fill="#000000" stroke="#000000" points="863.2314,-665.2716 852.8621,-663.0969 859.612,-671.2633 863.2314,-665.2716"/>
<text text-anchor="middle" x="858.8532" y="-683.6685" font-family="Helvetica,sans-Serif" font-size="14.00" fill="#000000">True</text>
</g>
<!-- 18 -->
<g id="node19" class="node">
<title>18</title>
<path fill="#59ade9" stroke="#000000" d="M1128,-663C1128,-663 940,-663 940,-663 934,-663 928,-657 928,-651 928,-651 928,-592 928,-592 928,-586 934,-580 940,-580 940,-580 1128,-580 1128,-580 1134,-580 1140,-586 1140,-592 1140,-592 1140,-651 1140,-651 1140,-657 1134,-663 1128,-663"/>
<text text-anchor="start" x="936" y="-647.8" font-family="Helvetica,sans-Serif" font-size="14.00" fill="#000000">concave points_mean ≤ 0.047</text>
<text text-anchor="start" x="996" y="-632.8" font-family="Helvetica,sans-Serif" font-size="14.00" fill="#000000">gini = 0.237</text>
<text text-anchor="start" x="986" y="-617.8" font-family="Helvetica,sans-Serif" font-size="14.00" fill="#000000">samples = 160</text>
<text text-anchor="start" x="980" y="-602.8" font-family="Helvetica,sans-Serif" font-size="14.00" fill="#000000">value = [22, 138]</text>
<text text-anchor="start" x="1003" y="-587.8" font-family="Helvetica,sans-Serif" font-size="14.00" fill="#000000">class = M</text>
</g>
<!-- 0&#45;&gt;18 -->
<g id="edge18" class="edge">
<title>0&#45;&gt;18</title>
<path fill="none" stroke="#000000" d="M999.5368,-698.8796C1003.3074,-690.4136 1007.315,-681.4153 1011.2133,-672.6626"/>
<polygon fill="#000000" stroke="#000000" points="1014.5127,-673.857 1015.3841,-663.2981 1008.1183,-671.009 1014.5127,-673.857"/>
<text text-anchor="middle" x="1024.3403" y="-682.9387" font-family="Helvetica,sans-Serif" font-size="14.00" fill="#000000">False</text>
</g>
<!-- 2 -->
<g id="node3" class="node">
<title>2</title>
<path fill="#e6843e" stroke="#000000" d="M663.5,-544C663.5,-544 478.5,-544 478.5,-544 472.5,-544 466.5,-538 466.5,-532 466.5,-532 466.5,-473 466.5,-473 466.5,-467 472.5,-461 478.5,-461 478.5,-461 663.5,-461 663.5,-461 669.5,-461 675.5,-467 675.5,-473 675.5,-473 675.5,-532 675.5,-532 675.5,-538 669.5,-544 663.5,-544"/>
<text text-anchor="start" x="474.5" y="-528.8" font-family="Helvetica,sans-Serif" font-size="14.00" fill="#000000">concave points_worst ≤ 0.133</text>
<text text-anchor="start" x="537.5" y="-513.8" font-family="Helvetica,sans-Serif" font-size="14.00" fill="#000000">gini = 0.05</text>
<text text-anchor="start" x="523" y="-498.8" font-family="Helvetica,sans-Serif" font-size="14.00" fill="#000000">samples = 234</text>
<text text-anchor="start" x="521" y="-483.8" font-family="Helvetica,sans-Serif" font-size="14.00" fill="#000000">value = [228, 6]</text>
<text text-anchor="start" x="541" y="-468.8" font-family="Helvetica,sans-Serif" font-size="14.00" fill="#000000">class = B</text>
</g>
<!-- 1&#45;&gt;2 -->
<g id="edge2" class="edge">
<title>1&#45;&gt;2</title>
<path fill="none" stroke="#000000" d="M709.5029,-579.8796C691.6672,-569.915 672.5114,-559.2129 654.3059,-549.0418"/>
<polygon fill="#000000" stroke="#000000" points="655.892,-545.9188 645.455,-544.0969 652.4779,-552.0298 655.892,-545.9188"/>
</g>
<!-- 17 -->
<g id="node18" class="node">
<title>17</title>
<path fill="#399de5" stroke="#000000" d="M821.5,-536.5C821.5,-536.5 746.5,-536.5 746.5,-536.5 740.5,-536.5 734.5,-530.5 734.5,-524.5 734.5,-524.5 734.5,-480.5 734.5,-480.5 734.5,-474.5 740.5,-468.5 746.5,-468.5 746.5,-468.5 821.5,-468.5 821.5,-468.5 827.5,-468.5 833.5,-474.5 833.5,-480.5 833.5,-480.5 833.5,-524.5 833.5,-524.5 833.5,-530.5 827.5,-536.5 821.5,-536.5"/>
<text text-anchor="start" x="754.5" y="-521.3" font-family="Helvetica,sans-Serif" font-size="14.00" fill="#000000">gini = 0.0</text>
<text text-anchor="start" x="744.5" y="-506.3" font-family="Helvetica,sans-Serif" font-size="14.00" fill="#000000">samples = 4</text>
<text text-anchor="start" x="742.5" y="-491.3" font-family="Helvetica,sans-Serif" font-size="14.00" fill="#000000">value = [0, 4]</text>
<text text-anchor="start" x="753" y="-476.3" font-family="Helvetica,sans-Serif" font-size="14.00" fill="#000000">class = M</text>
</g>
<!-- 1&#45;&gt;17 -->
<g id="edge17" class="edge">
<title>1&#45;&gt;17</title>
<path fill="none" stroke="#000000" d="M784,-579.8796C784,-569.2134 784,-557.7021 784,-546.9015"/>
<polygon fill="#000000" stroke="#000000" points="787.5001,-546.8149 784,-536.8149 780.5001,-546.815 787.5001,-546.8149"/>
</g>
<!-- 3 -->
<g id="node4" class="node">
<title>3</title>
<path fill="#e5823b" stroke="#000000" d="M438,-425C438,-425 332,-425 332,-425 326,-425 320,-419 320,-413 320,-413 320,-354 320,-354 320,-348 326,-342 332,-342 332,-342 438,-342 438,-342 444,-342 450,-348 450,-354 450,-354 450,-413 450,-413 450,-419 444,-425 438,-425"/>
<text text-anchor="start" x="328" y="-409.8" font-family="Helvetica,sans-Serif" font-size="14.00" fill="#000000">area_se ≤ 48.975</text>
<text text-anchor="start" x="347" y="-394.8" font-family="Helvetica,sans-Serif" font-size="14.00" fill="#000000">gini = 0.018</text>
<text text-anchor="start" x="337" y="-379.8" font-family="Helvetica,sans-Serif" font-size="14.00" fill="#000000">samples = 221</text>
<text text-anchor="start" x="335" y="-364.8" font-family="Helvetica,sans-Serif" font-size="14.00" fill="#000000">value = [219, 2]</text>
<text text-anchor="start" x="355" y="-349.8" font-family="Helvetica,sans-Serif" font-size="14.00" fill="#000000">class = B</text>
</g>
<!-- 2&#45;&gt;3 -->
<g id="edge3" class="edge">
<title>2&#45;&gt;3</title>
<path fill="none" stroke="#000000" d="M505.9462,-460.8796C490.6546,-451.0962 474.2516,-440.6019 458.614,-430.5971"/>
<polygon fill="#000000" stroke="#000000" points="460.3268,-427.538 450.017,-425.0969 456.5543,-433.4345 460.3268,-427.538"/>
</g>
<!-- 12 -->
<g id="node13" class="node">
<title>12</title>
<path fill="#f1b991" stroke="#000000" d="M641,-425C641,-425 501,-425 501,-425 495,-425 489,-419 489,-413 489,-413 489,-354 489,-354 489,-348 495,-342 501,-342 501,-342 641,-342 641,-342 647,-342 653,-348 653,-354 653,-354 653,-413 653,-413 653,-419 647,-425 641,-425"/>
<text text-anchor="start" x="497" y="-409.8" font-family="Helvetica,sans-Serif" font-size="14.00" fill="#000000">texture_worst ≤ 26.215</text>
<text text-anchor="start" x="533" y="-394.8" font-family="Helvetica,sans-Serif" font-size="14.00" fill="#000000">gini = 0.426</text>
<text text-anchor="start" x="527" y="-379.8" font-family="Helvetica,sans-Serif" font-size="14.00" fill="#000000">samples = 13</text>
<text text-anchor="start" x="529.5" y="-364.8" font-family="Helvetica,sans-Serif" font-size="14.00" fill="#000000">value = [9, 4]</text>
<text text-anchor="start" x="541" y="-349.8" font-family="Helvetica,sans-Serif" font-size="14.00" fill="#000000">class = B</text>
</g>
<!-- 2&#45;&gt;12 -->
<g id="edge12" class="edge">
<title>2&#45;&gt;12</title>
<path fill="none" stroke="#000000" d="M571,-460.8796C571,-452.6838 571,-443.9891 571,-435.5013"/>
<polygon fill="#000000" stroke="#000000" points="574.5001,-435.298 571,-425.2981 567.5001,-435.2981 574.5001,-435.298"/>
</g>
<!-- 4 -->
<g id="node5" class="node">
<title>4</title>
<path fill="#e5823a" stroke="#000000" d="M267.5,-306C267.5,-306 136.5,-306 136.5,-306 130.5,-306 124.5,-300 124.5,-294 124.5,-294 124.5,-235 124.5,-235 124.5,-229 130.5,-223 136.5,-223 136.5,-223 267.5,-223 267.5,-223 273.5,-223 279.5,-229 279.5,-235 279.5,-235 279.5,-294 279.5,-294 279.5,-300 273.5,-306 267.5,-306"/>
<text text-anchor="start" x="132.5" y="-290.8" font-family="Helvetica,sans-Serif" font-size="14.00" fill="#000000">texture_worst ≤ 33.35</text>
<text text-anchor="start" x="164" y="-275.8" font-family="Helvetica,sans-Serif" font-size="14.00" fill="#000000">gini = 0.009</text>
<text text-anchor="start" x="154" y="-260.8" font-family="Helvetica,sans-Serif" font-size="14.00" fill="#000000">samples = 219</text>
<text text-anchor="start" x="152" y="-245.8" font-family="Helvetica,sans-Serif" font-size="14.00" fill="#000000">value = [218, 1]</text>
<text text-anchor="start" x="172" y="-230.8" font-family="Helvetica,sans-Serif" font-size="14.00" fill="#000000">class = B</text>
</g>
<!-- 3&#45;&gt;4 -->
<g id="edge4" class="edge">
<title>3&#45;&gt;4</title>
<path fill="none" stroke="#000000" d="M320.9955,-341.8796C305.9505,-332.0962 289.8121,-321.6019 274.4267,-311.5971"/>
<polygon fill="#000000" stroke="#000000" points="276.2598,-308.6143 265.9684,-306.0969 272.4437,-314.4827 276.2598,-308.6143"/>
</g>
<!-- 9 -->
<g id="node10" class="node">
<title>9</title>
<path fill="#ffffff" stroke="#000000" d="M460.5,-306C460.5,-306 309.5,-306 309.5,-306 303.5,-306 297.5,-300 297.5,-294 297.5,-294 297.5,-235 297.5,-235 297.5,-229 303.5,-223 309.5,-223 309.5,-223 460.5,-223 460.5,-223 466.5,-223 472.5,-229 472.5,-235 472.5,-235 472.5,-294 472.5,-294 472.5,-300 466.5,-306 460.5,-306"/>
<text text-anchor="start" x="305.5" y="-290.8" font-family="Helvetica,sans-Serif" font-size="14.00" fill="#000000">concavity_mean ≤ 0.029</text>
<text text-anchor="start" x="355.5" y="-275.8" font-family="Helvetica,sans-Serif" font-size="14.00" fill="#000000">gini = 0.5</text>
<text text-anchor="start" x="345.5" y="-260.8" font-family="Helvetica,sans-Serif" font-size="14.00" fill="#000000">samples = 2</text>
<text text-anchor="start" x="343.5" y="-245.8" font-family="Helvetica,sans-Serif" font-size="14.00" fill="#000000">value = [1, 1]</text>
<text text-anchor="start" x="355" y="-230.8" font-family="Helvetica,sans-Serif" font-size="14.00" fill="#000000">class = B</text>
</g>
<!-- 3&#45;&gt;9 -->
<g id="edge9" class="edge">
<title>3&#45;&gt;9</title>
<path fill="none" stroke="#000000" d="M385,-341.8796C385,-333.6838 385,-324.9891 385,-316.5013"/>
<polygon fill="#000000" stroke="#000000" points="388.5001,-316.298 385,-306.2981 381.5001,-316.2981 388.5001,-316.298"/>
</g>
<!-- 5 -->
<g id="node6" class="node">
<title>5</title>
<path fill="#e58139" stroke="#000000" d="M104,-179.5C104,-179.5 12,-179.5 12,-179.5 6,-179.5 0,-173.5 0,-167.5 0,-167.5 0,-123.5 0,-123.5 0,-117.5 6,-111.5 12,-111.5 12,-111.5 104,-111.5 104,-111.5 110,-111.5 116,-117.5 116,-123.5 116,-123.5 116,-167.5 116,-167.5 116,-173.5 110,-179.5 104,-179.5"/>
<text text-anchor="start" x="28.5" y="-164.3" font-family="Helvetica,sans-Serif" font-size="14.00" fill="#000000">gini = 0.0</text>
<text text-anchor="start" x="10" y="-149.3" font-family="Helvetica,sans-Serif" font-size="14.00" fill="#000000">samples = 206</text>
<text text-anchor="start" x="8" y="-134.3" font-family="Helvetica,sans-Serif" font-size="14.00" fill="#000000">value = [206, 0]</text>
<text text-anchor="start" x="28" y="-119.3" font-family="Helvetica,sans-Serif" font-size="14.00" fill="#000000">class = B</text>
</g>
<!-- 4&#45;&gt;5 -->
<g id="edge5" class="edge">
<title>4&#45;&gt;5</title>
<path fill="none" stroke="#000000" d="M151.6358,-222.8796C137.2651,-211.0038 121.6267,-198.0804 107.3192,-186.2568"/>
<polygon fill="#000000" stroke="#000000" points="109.462,-183.4872 99.524,-179.8149 105.0029,-188.8831 109.462,-183.4872"/>
</g>
<!-- 6 -->
<g id="node7" class="node">
<title>6</title>
<path fill="#e78c49" stroke="#000000" d="M277.5,-187C277.5,-187 146.5,-187 146.5,-187 140.5,-187 134.5,-181 134.5,-175 134.5,-175 134.5,-116 134.5,-116 134.5,-110 140.5,-104 146.5,-104 146.5,-104 277.5,-104 277.5,-104 283.5,-104 289.5,-110 289.5,-116 289.5,-116 289.5,-175 289.5,-175 289.5,-181 283.5,-187 277.5,-187"/>
<text text-anchor="start" x="142.5" y="-171.8" font-family="Helvetica,sans-Serif" font-size="14.00" fill="#000000">texture_worst ≤ 33.56</text>
<text text-anchor="start" x="174" y="-156.8" font-family="Helvetica,sans-Serif" font-size="14.00" fill="#000000">gini = 0.142</text>
<text text-anchor="start" x="168" y="-141.8" font-family="Helvetica,sans-Serif" font-size="14.00" fill="#000000">samples = 13</text>
<text text-anchor="start" x="166.5" y="-126.8" font-family="Helvetica,sans-Serif" font-size="14.00" fill="#000000">value = [12, 1]</text>
<text text-anchor="start" x="182" y="-111.8" font-family="Helvetica,sans-Serif" font-size="14.00" fill="#000000">class = B</text>
</g>
<!-- 4&#45;&gt;6 -->
<g id="edge6" class="edge">
<title>4&#45;&gt;6</title>
<path fill="none" stroke="#000000" d="M205.4975,-222.8796C206.1862,-214.6838 206.9169,-205.9891 207.6301,-197.5013"/>
<polygon fill="#000000" stroke="#000000" points="211.1378,-197.5561 208.4876,-187.2981 204.1624,-196.9698 211.1378,-197.5561"/>
</g>
<!-- 7 -->
<g id="node8" class="node">
<title>7</title>
<path fill="#399de5" stroke="#000000" d="M189.5,-68C189.5,-68 114.5,-68 114.5,-68 108.5,-68 102.5,-62 102.5,-56 102.5,-56 102.5,-12 102.5,-12 102.5,-6 108.5,0 114.5,0 114.5,0 189.5,0 189.5,0 195.5,0 201.5,-6 201.5,-12 201.5,-12 201.5,-56 201.5,-56 201.5,-62 195.5,-68 189.5,-68"/>
<text text-anchor="start" x="122.5" y="-52.8" font-family="Helvetica,sans-Serif" font-size="14.00" fill="#000000">gini = 0.0</text>
<text text-anchor="start" x="112.5" y="-37.8" font-family="Helvetica,sans-Serif" font-size="14.00" fill="#000000">samples = 1</text>
<text text-anchor="start" x="110.5" y="-22.8" font-family="Helvetica,sans-Serif" font-size="14.00" fill="#000000">value = [0, 1]</text>
<text text-anchor="start" x="121" y="-7.8" font-family="Helvetica,sans-Serif" font-size="14.00" fill="#000000">class = M</text>
</g>
<!-- 6&#45;&gt;7 -->
<g id="edge7" class="edge">
<title>6&#45;&gt;7</title>
<path fill="none" stroke="#000000" d="M189.6582,-103.9815C184.9598,-95.2504 179.9929,-86.0202 175.2617,-77.2281"/>
<polygon fill="#000000" stroke="#000000" points="178.2586,-75.4111 170.4379,-68.2637 172.0944,-78.7282 178.2586,-75.4111"/>
</g>
<!-- 8 -->
<g id="node9" class="node">
<title>8</title>
<path fill="#e58139" stroke="#000000" d="M314.5,-68C314.5,-68 231.5,-68 231.5,-68 225.5,-68 219.5,-62 219.5,-56 219.5,-56 219.5,-12 219.5,-12 219.5,-6 225.5,0 231.5,0 231.5,0 314.5,0 314.5,0 320.5,0 326.5,-6 326.5,-12 326.5,-12 326.5,-56 326.5,-56 326.5,-62 320.5,-68 314.5,-68"/>
<text text-anchor="start" x="243.5" y="-52.8" font-family="Helvetica,sans-Serif" font-size="14.00" fill="#000000">gini = 0.0</text>
<text text-anchor="start" x="229" y="-37.8" font-family="Helvetica,sans-Serif" font-size="14.00" fill="#000000">samples = 12</text>
<text text-anchor="start" x="227.5" y="-22.8" font-family="Helvetica,sans-Serif" font-size="14.00" fill="#000000">value = [12, 0]</text>
<text text-anchor="start" x="243" y="-7.8" font-family="Helvetica,sans-Serif" font-size="14.00" fill="#000000">class = B</text>
</g>
<!-- 6&#45;&gt;8 -->
<g id="edge8" class="edge">
<title>6&#45;&gt;8</title>
<path fill="none" stroke="#000000" d="M234.7141,-103.9815C239.4908,-95.2504 244.5405,-86.0202 249.3506,-77.2281"/>
<polygon fill="#000000" stroke="#000000" points="252.5258,-78.7165 254.2549,-68.2637 246.3847,-75.3568 252.5258,-78.7165"/>
</g>
<!-- 10 -->
<g id="node11" class="node">
<title>10</title>
<path fill="#399de5" stroke="#000000" d="M413.5,-179.5C413.5,-179.5 338.5,-179.5 338.5,-179.5 332.5,-179.5 326.5,-173.5 326.5,-167.5 326.5,-167.5 326.5,-123.5 326.5,-123.5 326.5,-117.5 332.5,-111.5 338.5,-111.5 338.5,-111.5 413.5,-111.5 413.5,-111.5 419.5,-111.5 425.5,-117.5 425.5,-123.5 425.5,-123.5 425.5,-167.5 425.5,-167.5 425.5,-173.5 419.5,-179.5 413.5,-179.5"/>
<text text-anchor="start" x="346.5" y="-164.3" font-family="Helvetica,sans-Serif" font-size="14.00" fill="#000000">gini = 0.0</text>
<text text-anchor="start" x="336.5" y="-149.3" font-family="Helvetica,sans-Serif" font-size="14.00" fill="#000000">samples = 1</text>
<text text-anchor="start" x="334.5" y="-134.3" font-family="Helvetica,sans-Serif" font-size="14.00" fill="#000000">value = [0, 1]</text>
<text text-anchor="start" x="345" y="-119.3" font-family="Helvetica,sans-Serif" font-size="14.00" fill="#000000">class = M</text>
</g>
<!-- 9&#45;&gt;10 -->
<g id="edge10" class="edge">
<title>9&#45;&gt;10</title>
<path fill="none" stroke="#000000" d="M381.8522,-222.8796C381.0455,-212.2134 380.1749,-200.7021 379.3581,-189.9015"/>
<polygon fill="#000000" stroke="#000000" points="382.8395,-189.5225 378.5952,-179.8149 375.8595,-190.0504 382.8395,-189.5225"/>
</g>
<!-- 11 -->
<g id="node12" class="node">
<title>11</title>
<path fill="#e58139" stroke="#000000" d="M530.5,-179.5C530.5,-179.5 455.5,-179.5 455.5,-179.5 449.5,-179.5 443.5,-173.5 443.5,-167.5 443.5,-167.5 443.5,-123.5 443.5,-123.5 443.5,-117.5 449.5,-111.5 455.5,-111.5 455.5,-111.5 530.5,-111.5 530.5,-111.5 536.5,-111.5 542.5,-117.5 542.5,-123.5 542.5,-123.5 542.5,-167.5 542.5,-167.5 542.5,-173.5 536.5,-179.5 530.5,-179.5"/>
<text text-anchor="start" x="463.5" y="-164.3" font-family="Helvetica,sans-Serif" font-size="14.00" fill="#000000">gini = 0.0</text>
<text text-anchor="start" x="453.5" y="-149.3" font-family="Helvetica,sans-Serif" font-size="14.00" fill="#000000">samples = 1</text>
<text text-anchor="start" x="451.5" y="-134.3" font-family="Helvetica,sans-Serif" font-size="14.00" fill="#000000">value = [1, 0]</text>
<text text-anchor="start" x="463" y="-119.3" font-family="Helvetica,sans-Serif" font-size="14.00" fill="#000000">class = B</text>
</g>
<!-- 9&#45;&gt;11 -->
<g id="edge11" class="edge">
<title>9&#45;&gt;11</title>
<path fill="none" stroke="#000000" d="M422.7732,-222.8796C433.2518,-211.3337 444.6291,-198.7976 455.1141,-187.2446"/>
<polygon fill="#000000" stroke="#000000" points="457.7282,-189.5722 461.857,-179.8149 452.5447,-184.8678 457.7282,-189.5722"/>
</g>
<!-- 13 -->
<g id="node14" class="node">
<title>13</title>
<path fill="#e58139" stroke="#000000" d="M577.5,-298.5C577.5,-298.5 502.5,-298.5 502.5,-298.5 496.5,-298.5 490.5,-292.5 490.5,-286.5 490.5,-286.5 490.5,-242.5 490.5,-242.5 490.5,-236.5 496.5,-230.5 502.5,-230.5 502.5,-230.5 577.5,-230.5 577.5,-230.5 583.5,-230.5 589.5,-236.5 589.5,-242.5 589.5,-242.5 589.5,-286.5 589.5,-286.5 589.5,-292.5 583.5,-298.5 577.5,-298.5"/>
<text text-anchor="start" x="510.5" y="-283.3" font-family="Helvetica,sans-Serif" font-size="14.00" fill="#000000">gini = 0.0</text>
<text text-anchor="start" x="500.5" y="-268.3" font-family="Helvetica,sans-Serif" font-size="14.00" fill="#000000">samples = 8</text>
<text text-anchor="start" x="498.5" y="-253.3" font-family="Helvetica,sans-Serif" font-size="14.00" fill="#000000">value = [8, 0]</text>
<text text-anchor="start" x="510" y="-238.3" font-family="Helvetica,sans-Serif" font-size="14.00" fill="#000000">class = B</text>
</g>
<!-- 12&#45;&gt;13 -->
<g id="edge13" class="edge">
<title>12&#45;&gt;13</title>
<path fill="none" stroke="#000000" d="M560.1577,-341.8796C557.3505,-331.1034 554.3185,-319.4647 551.4798,-308.5677"/>
<polygon fill="#000000" stroke="#000000" points="554.8471,-307.6096 548.9392,-298.8149 548.0732,-309.3743 554.8471,-307.6096"/>
</g>
<!-- 14 -->
<g id="node15" class="node">
<title>14</title>
<path fill="#6ab6ec" stroke="#000000" d="M794,-306C794,-306 620,-306 620,-306 614,-306 608,-300 608,-294 608,-294 608,-235 608,-235 608,-229 614,-223 620,-223 620,-223 794,-223 794,-223 800,-223 806,-229 806,-235 806,-235 806,-294 806,-294 806,-300 800,-306 794,-306"/>
<text text-anchor="start" x="616" y="-290.8" font-family="Helvetica,sans-Serif" font-size="14.00" fill="#000000">compactness_worst ≤ 0.263</text>
<text text-anchor="start" x="673.5" y="-275.8" font-family="Helvetica,sans-Serif" font-size="14.00" fill="#000000">gini = 0.32</text>
<text text-anchor="start" x="667.5" y="-260.8" font-family="Helvetica,sans-Serif" font-size="14.00" fill="#000000">samples = 5</text>
<text text-anchor="start" x="665.5" y="-245.8" font-family="Helvetica,sans-Serif" font-size="14.00" fill="#000000">value = [1, 4]</text>
<text text-anchor="start" x="676" y="-230.8" font-family="Helvetica,sans-Serif" font-size="14.00" fill="#000000">class = M</text>
</g>
<!-- 12&#45;&gt;14 -->
<g id="edge14" class="edge">
<title>12&#45;&gt;14</title>
<path fill="none" stroke="#000000" d="M618.5662,-341.8796C629.1679,-332.6031 640.5002,-322.6874 651.3933,-313.1559"/>
<polygon fill="#000000" stroke="#000000" points="654.0098,-315.5172 659.2308,-306.2981 649.4002,-310.2491 654.0098,-315.5172"/>
</g>
<!-- 15 -->
<g id="node16" class="node">
<title>15</title>
<path fill="#e58139" stroke="#000000" d="M696.5,-179.5C696.5,-179.5 621.5,-179.5 621.5,-179.5 615.5,-179.5 609.5,-173.5 609.5,-167.5 609.5,-167.5 609.5,-123.5 609.5,-123.5 609.5,-117.5 615.5,-111.5 621.5,-111.5 621.5,-111.5 696.5,-111.5 696.5,-111.5 702.5,-111.5 708.5,-117.5 708.5,-123.5 708.5,-123.5 708.5,-167.5 708.5,-167.5 708.5,-173.5 702.5,-179.5 696.5,-179.5"/>
<text text-anchor="start" x="629.5" y="-164.3" font-family="Helvetica,sans-Serif" font-size="14.00" fill="#000000">gini = 0.0</text>
<text text-anchor="start" x="619.5" y="-149.3" font-family="Helvetica,sans-Serif" font-size="14.00" fill="#000000">samples = 1</text>
<text text-anchor="start" x="617.5" y="-134.3" font-family="Helvetica,sans-Serif" font-size="14.00" fill="#000000">value = [1, 0]</text>
<text text-anchor="start" x="629" y="-119.3" font-family="Helvetica,sans-Serif" font-size="14.00" fill="#000000">class = B</text>
</g>
<!-- 14&#45;&gt;15 -->
<g id="edge15" class="edge">
<title>14&#45;&gt;15</title>
<path fill="none" stroke="#000000" d="M690.2119,-222.8796C685.8209,-211.9935 681.0748,-200.227 676.6408,-189.2344"/>
<polygon fill="#000000" stroke="#000000" points="679.828,-187.7796 672.8413,-179.8149 673.3362,-190.3982 679.828,-187.7796"/>
</g>
<!-- 16 -->
<g id="node17" class="node">
<title>16</title>
<path fill="#399de5" stroke="#000000" d="M813.5,-179.5C813.5,-179.5 738.5,-179.5 738.5,-179.5 732.5,-179.5 726.5,-173.5 726.5,-167.5 726.5,-167.5 726.5,-123.5 726.5,-123.5 726.5,-117.5 732.5,-111.5 738.5,-111.5 738.5,-111.5 813.5,-111.5 813.5,-111.5 819.5,-111.5 825.5,-117.5 825.5,-123.5 825.5,-123.5 825.5,-167.5 825.5,-167.5 825.5,-173.5 819.5,-179.5 813.5,-179.5"/>
<text text-anchor="start" x="746.5" y="-164.3" font-family="Helvetica,sans-Serif" font-size="14.00" fill="#000000">gini = 0.0</text>
<text text-anchor="start" x="736.5" y="-149.3" font-family="Helvetica,sans-Serif" font-size="14.00" fill="#000000">samples = 4</text>
<text text-anchor="start" x="734.5" y="-134.3" font-family="Helvetica,sans-Serif" font-size="14.00" fill="#000000">value = [0, 4]</text>
<text text-anchor="start" x="745" y="-119.3" font-family="Helvetica,sans-Serif" font-size="14.00" fill="#000000">class = M</text>
</g>
<!-- 14&#45;&gt;16 -->
<g id="edge16" class="edge">
<title>14&#45;&gt;16</title>
<path fill="none" stroke="#000000" d="M731.1329,-222.8796C737.5725,-211.7735 744.5434,-199.7513 751.0271,-188.5691"/>
<polygon fill="#000000" stroke="#000000" points="754.1148,-190.2215 756.1031,-179.8149 748.0591,-186.7102 754.1148,-190.2215"/>
</g>
<!-- 19 -->
<g id="node20" class="node">
<title>19</title>
<path fill="#f5d0b5" stroke="#000000" d="M1096.5,-544C1096.5,-544 971.5,-544 971.5,-544 965.5,-544 959.5,-538 959.5,-532 959.5,-532 959.5,-473 959.5,-473 959.5,-467 965.5,-461 971.5,-461 971.5,-461 1096.5,-461 1096.5,-461 1102.5,-461 1108.5,-467 1108.5,-473 1108.5,-473 1108.5,-532 1108.5,-532 1108.5,-538 1102.5,-544 1096.5,-544"/>
<text text-anchor="start" x="967.5" y="-528.8" font-family="Helvetica,sans-Serif" font-size="14.00" fill="#000000">area_worst ≤ 957.45</text>
<text text-anchor="start" x="996" y="-513.8" font-family="Helvetica,sans-Serif" font-size="14.00" fill="#000000">gini = 0.473</text>
<text text-anchor="start" x="990" y="-498.8" font-family="Helvetica,sans-Serif" font-size="14.00" fill="#000000">samples = 26</text>
<text text-anchor="start" x="984" y="-483.8" font-family="Helvetica,sans-Serif" font-size="14.00" fill="#000000">value = [16, 10]</text>
<text text-anchor="start" x="1004" y="-468.8" font-family="Helvetica,sans-Serif" font-size="14.00" fill="#000000">class = B</text>
</g>
<!-- 18&#45;&gt;19 -->
<g id="edge19" class="edge">
<title>18&#45;&gt;19</title>
<path fill="none" stroke="#000000" d="M1034,-579.8796C1034,-571.6838 1034,-562.9891 1034,-554.5013"/>
<polygon fill="#000000" stroke="#000000" points="1037.5001,-554.298 1034,-544.2981 1030.5001,-554.2981 1037.5001,-554.298"/>
</g>
<!-- 26 -->
<g id="node27" class="node">
<title>26</title>
<path fill="#42a2e6" stroke="#000000" d="M1424,-544C1424,-544 1284,-544 1284,-544 1278,-544 1272,-538 1272,-532 1272,-532 1272,-473 1272,-473 1272,-467 1278,-461 1284,-461 1284,-461 1424,-461 1424,-461 1430,-461 1436,-467 1436,-473 1436,-473 1436,-532 1436,-532 1436,-538 1430,-544 1424,-544"/>
<text text-anchor="start" x="1280" y="-528.8" font-family="Helvetica,sans-Serif" font-size="14.00" fill="#000000">texture_worst ≤ 20.645</text>
<text text-anchor="start" x="1316" y="-513.8" font-family="Helvetica,sans-Serif" font-size="14.00" fill="#000000">gini = 0.086</text>
<text text-anchor="start" x="1306" y="-498.8" font-family="Helvetica,sans-Serif" font-size="14.00" fill="#000000">samples = 134</text>
<text text-anchor="start" x="1304" y="-483.8" font-family="Helvetica,sans-Serif" font-size="14.00" fill="#000000">value = [6, 128]</text>
<text text-anchor="start" x="1323" y="-468.8" font-family="Helvetica,sans-Serif" font-size="14.00" fill="#000000">class = M</text>
</g>
<!-- 18&#45;&gt;26 -->
<g id="edge26" class="edge">
<title>18&#45;&gt;26</title>
<path fill="none" stroke="#000000" d="M1140.1109,-582.04C1179.6924,-567.3206 1224.2558,-550.7486 1262.4203,-536.5562"/>
<polygon fill="#000000" stroke="#000000" points="1263.8255,-539.7679 1271.9784,-533.0018 1261.3855,-533.2069 1263.8255,-539.7679"/>
</g>
<!-- 20 -->
<g id="node21" class="node">
<title>20</title>
<path fill="#e99355" stroke="#000000" d="M972.5,-425C972.5,-425 849.5,-425 849.5,-425 843.5,-425 837.5,-419 837.5,-413 837.5,-413 837.5,-354 837.5,-354 837.5,-348 843.5,-342 849.5,-342 849.5,-342 972.5,-342 972.5,-342 978.5,-342 984.5,-348 984.5,-354 984.5,-354 984.5,-413 984.5,-413 984.5,-419 978.5,-425 972.5,-425"/>
<text text-anchor="start" x="845.5" y="-409.8" font-family="Helvetica,sans-Serif" font-size="14.00" fill="#000000">texture_worst ≤ 33.5</text>
<text text-anchor="start" x="873" y="-394.8" font-family="Helvetica,sans-Serif" font-size="14.00" fill="#000000">gini = 0.219</text>
<text text-anchor="start" x="867" y="-379.8" font-family="Helvetica,sans-Serif" font-size="14.00" fill="#000000">samples = 16</text>
<text text-anchor="start" x="865.5" y="-364.8" font-family="Helvetica,sans-Serif" font-size="14.00" fill="#000000">value = [14, 2]</text>
<text text-anchor="start" x="881" y="-349.8" font-family="Helvetica,sans-Serif" font-size="14.00" fill="#000000">class = B</text>
</g>
<!-- 19&#45;&gt;20 -->
<g id="edge20" class="edge">
<title>19&#45;&gt;20</title>
<path fill="none" stroke="#000000" d="M990.9806,-460.8796C981.4853,-451.6931 971.3422,-441.8798 961.5785,-432.4336"/>
<polygon fill="#000000" stroke="#000000" points="963.8237,-429.7359 954.203,-425.2981 958.9564,-434.7668 963.8237,-429.7359"/>
</g>
<!-- 23 -->
<g id="node24" class="node">
<title>23</title>
<path fill="#6ab6ec" stroke="#000000" d="M1217.5,-425C1217.5,-425 1014.5,-425 1014.5,-425 1008.5,-425 1002.5,-419 1002.5,-413 1002.5,-413 1002.5,-354 1002.5,-354 1002.5,-348 1008.5,-342 1014.5,-342 1014.5,-342 1217.5,-342 1217.5,-342 1223.5,-342 1229.5,-348 1229.5,-354 1229.5,-354 1229.5,-413 1229.5,-413 1229.5,-419 1223.5,-425 1217.5,-425"/>
<text text-anchor="start" x="1010.5" y="-409.8" font-family="Helvetica,sans-Serif" font-size="14.00" fill="#000000">fractal_dimension_mean ≤ 0.053</text>
<text text-anchor="start" x="1082.5" y="-394.8" font-family="Helvetica,sans-Serif" font-size="14.00" fill="#000000">gini = 0.32</text>
<text text-anchor="start" x="1072" y="-379.8" font-family="Helvetica,sans-Serif" font-size="14.00" fill="#000000">samples = 10</text>
<text text-anchor="start" x="1074.5" y="-364.8" font-family="Helvetica,sans-Serif" font-size="14.00" fill="#000000">value = [2, 8]</text>
<text text-anchor="start" x="1085" y="-349.8" font-family="Helvetica,sans-Serif" font-size="14.00" fill="#000000">class = M</text>
</g>
<!-- 19&#45;&gt;23 -->
<g id="edge23" class="edge">
<title>19&#45;&gt;23</title>
<path fill="none" stroke="#000000" d="M1062.6796,-460.8796C1068.7615,-452.0534 1075.2422,-442.6485 1081.5141,-433.5466"/>
<polygon fill="#000000" stroke="#000000" points="1084.4059,-435.5184 1087.198,-425.2981 1078.6418,-431.5465 1084.4059,-435.5184"/>
</g>
<!-- 21 -->
<g id="node22" class="node">
<title>21</title>
<path fill="#e58139" stroke="#000000" d="M919.5,-298.5C919.5,-298.5 836.5,-298.5 836.5,-298.5 830.5,-298.5 824.5,-292.5 824.5,-286.5 824.5,-286.5 824.5,-242.5 824.5,-242.5 824.5,-236.5 830.5,-230.5 836.5,-230.5 836.5,-230.5 919.5,-230.5 919.5,-230.5 925.5,-230.5 931.5,-236.5 931.5,-242.5 931.5,-242.5 931.5,-286.5 931.5,-286.5 931.5,-292.5 925.5,-298.5 919.5,-298.5"/>
<text text-anchor="start" x="848.5" y="-283.3" font-family="Helvetica,sans-Serif" font-size="14.00" fill="#000000">gini = 0.0</text>
<text text-anchor="start" x="834" y="-268.3" font-family="Helvetica,sans-Serif" font-size="14.00" fill="#000000">samples = 14</text>
<text text-anchor="start" x="832.5" y="-253.3" font-family="Helvetica,sans-Serif" font-size="14.00" fill="#000000">value = [14, 0]</text>
<text text-anchor="start" x="848" y="-238.3" font-family="Helvetica,sans-Serif" font-size="14.00" fill="#000000">class = B</text>
</g>
<!-- 20&#45;&gt;21 -->
<g id="edge21" class="edge">
<title>20&#45;&gt;21</title>
<path fill="none" stroke="#000000" d="M899.4582,-341.8796C896.4699,-331.1034 893.2423,-319.4647 890.2205,-308.5677"/>
<polygon fill="#000000" stroke="#000000" points="893.561,-307.516 887.5159,-298.8149 886.8155,-309.3866 893.561,-307.516"/>
</g>
<!-- 22 -->
<g id="node23" class="node">
<title>22</title>
<path fill="#399de5" stroke="#000000" d="M1036.5,-298.5C1036.5,-298.5 961.5,-298.5 961.5,-298.5 955.5,-298.5 949.5,-292.5 949.5,-286.5 949.5,-286.5 949.5,-242.5 949.5,-242.5 949.5,-236.5 955.5,-230.5 961.5,-230.5 961.5,-230.5 1036.5,-230.5 1036.5,-230.5 1042.5,-230.5 1048.5,-236.5 1048.5,-242.5 1048.5,-242.5 1048.5,-286.5 1048.5,-286.5 1048.5,-292.5 1042.5,-298.5 1036.5,-298.5"/>
<text text-anchor="start" x="969.5" y="-283.3" font-family="Helvetica,sans-Serif" font-size="14.00" fill="#000000">gini = 0.0</text>
<text text-anchor="start" x="959.5" y="-268.3" font-family="Helvetica,sans-Serif" font-size="14.00" fill="#000000">samples = 2</text>
<text text-anchor="start" x="957.5" y="-253.3" font-family="Helvetica,sans-Serif" font-size="14.00" fill="#000000">value = [0, 2]</text>
<text text-anchor="start" x="968" y="-238.3" font-family="Helvetica,sans-Serif" font-size="14.00" fill="#000000">class = M</text>
</g>
<!-- 20&#45;&gt;22 -->
<g id="edge22" class="edge">
<title>20&#45;&gt;22</title>
<path fill="none" stroke="#000000" d="M941.7781,-341.8796C950.1536,-330.5536 959.2338,-318.2748 967.6411,-306.9058"/>
<polygon fill="#000000" stroke="#000000" points="970.4925,-308.9364 973.6242,-298.8149 964.8643,-304.7743 970.4925,-308.9364"/>
</g>
<!-- 24 -->
<g id="node25" class="node">
<title>24</title>
<path fill="#e58139" stroke="#000000" d="M1153.5,-298.5C1153.5,-298.5 1078.5,-298.5 1078.5,-298.5 1072.5,-298.5 1066.5,-292.5 1066.5,-286.5 1066.5,-286.5 1066.5,-242.5 1066.5,-242.5 1066.5,-236.5 1072.5,-230.5 1078.5,-230.5 1078.5,-230.5 1153.5,-230.5 1153.5,-230.5 1159.5,-230.5 1165.5,-236.5 1165.5,-242.5 1165.5,-242.5 1165.5,-286.5 1165.5,-286.5 1165.5,-292.5 1159.5,-298.5 1153.5,-298.5"/>
<text text-anchor="start" x="1086.5" y="-283.3" font-family="Helvetica,sans-Serif" font-size="14.00" fill="#000000">gini = 0.0</text>
<text text-anchor="start" x="1076.5" y="-268.3" font-family="Helvetica,sans-Serif" font-size="14.00" fill="#000000">samples = 2</text>
<text text-anchor="start" x="1074.5" y="-253.3" font-family="Helvetica,sans-Serif" font-size="14.00" fill="#000000">value = [2, 0]</text>
<text text-anchor="start" x="1086" y="-238.3" font-family="Helvetica,sans-Serif" font-size="14.00" fill="#000000">class = B</text>
</g>
<!-- 23&#45;&gt;24 -->
<g id="edge24" class="edge">
<title>23&#45;&gt;24</title>
<path fill="none" stroke="#000000" d="M1116,-341.8796C1116,-331.2134 1116,-319.7021 1116,-308.9015"/>
<polygon fill="#000000" stroke="#000000" points="1119.5001,-308.8149 1116,-298.8149 1112.5001,-308.815 1119.5001,-308.8149"/>
</g>
<!-- 25 -->
<g id="node26" class="node">
<title>25</title>
<path fill="#399de5" stroke="#000000" d="M1270.5,-298.5C1270.5,-298.5 1195.5,-298.5 1195.5,-298.5 1189.5,-298.5 1183.5,-292.5 1183.5,-286.5 1183.5,-286.5 1183.5,-242.5 1183.5,-242.5 1183.5,-236.5 1189.5,-230.5 1195.5,-230.5 1195.5,-230.5 1270.5,-230.5 1270.5,-230.5 1276.5,-230.5 1282.5,-236.5 1282.5,-242.5 1282.5,-242.5 1282.5,-286.5 1282.5,-286.5 1282.5,-292.5 1276.5,-298.5 1270.5,-298.5"/>
<text text-anchor="start" x="1203.5" y="-283.3" font-family="Helvetica,sans-Serif" font-size="14.00" fill="#000000">gini = 0.0</text>
<text text-anchor="start" x="1193.5" y="-268.3" font-family="Helvetica,sans-Serif" font-size="14.00" fill="#000000">samples = 8</text>
<text text-anchor="start" x="1191.5" y="-253.3" font-family="Helvetica,sans-Serif" font-size="14.00" fill="#000000">value = [0, 8]</text>
<text text-anchor="start" x="1202" y="-238.3" font-family="Helvetica,sans-Serif" font-size="14.00" fill="#000000">class = M</text>
</g>
<!-- 23&#45;&gt;25 -->
<g id="edge25" class="edge">
<title>23&#45;&gt;25</title>
<path fill="none" stroke="#000000" d="M1156.9209,-341.8796C1168.2728,-330.3337 1180.5982,-317.7976 1191.957,-306.2446"/>
<polygon fill="#000000" stroke="#000000" points="1194.7466,-308.3995 1199.2618,-298.8149 1189.7551,-303.4919 1194.7466,-308.3995"/>
</g>
<!-- 27 -->
<g id="node28" class="node">
<title>27</title>
<path fill="#e3f1fb" stroke="#000000" d="M1448,-425C1448,-425 1260,-425 1260,-425 1254,-425 1248,-419 1248,-413 1248,-413 1248,-354 1248,-354 1248,-348 1254,-342 1260,-342 1260,-342 1448,-342 1448,-342 1454,-342 1460,-348 1460,-354 1460,-354 1460,-413 1460,-413 1460,-419 1454,-425 1448,-425"/>
<text text-anchor="start" x="1256" y="-409.8" font-family="Helvetica,sans-Serif" font-size="14.00" fill="#000000">concave points_mean ≤ 0.075</text>
<text text-anchor="start" x="1316" y="-394.8" font-family="Helvetica,sans-Serif" font-size="14.00" fill="#000000">gini = 0.497</text>
<text text-anchor="start" x="1310" y="-379.8" font-family="Helvetica,sans-Serif" font-size="14.00" fill="#000000">samples = 13</text>
<text text-anchor="start" x="1312.5" y="-364.8" font-family="Helvetica,sans-Serif" font-size="14.00" fill="#000000">value = [6, 7]</text>
<text text-anchor="start" x="1323" y="-349.8" font-family="Helvetica,sans-Serif" font-size="14.00" fill="#000000">class = M</text>
</g>
<!-- 26&#45;&gt;27 -->
<g id="edge27" class="edge">
<title>26&#45;&gt;27</title>
<path fill="none" stroke="#000000" d="M1354,-460.8796C1354,-452.6838 1354,-443.9891 1354,-435.5013"/>
<polygon fill="#000000" stroke="#000000" points="1357.5001,-435.298 1354,-425.2981 1350.5001,-435.2981 1357.5001,-435.298"/>
</g>
<!-- 30 -->
<g id="node31" class="node">
<title>30</title>
<path fill="#399de5" stroke="#000000" d="M1582,-417.5C1582,-417.5 1490,-417.5 1490,-417.5 1484,-417.5 1478,-411.5 1478,-405.5 1478,-405.5 1478,-361.5 1478,-361.5 1478,-355.5 1484,-349.5 1490,-349.5 1490,-349.5 1582,-349.5 1582,-349.5 1588,-349.5 1594,-355.5 1594,-361.5 1594,-361.5 1594,-405.5 1594,-405.5 1594,-411.5 1588,-417.5 1582,-417.5"/>
<text text-anchor="start" x="1506.5" y="-402.3" font-family="Helvetica,sans-Serif" font-size="14.00" fill="#000000">gini = 0.0</text>
<text text-anchor="start" x="1488" y="-387.3" font-family="Helvetica,sans-Serif" font-size="14.00" fill="#000000">samples = 121</text>
<text text-anchor="start" x="1486" y="-372.3" font-family="Helvetica,sans-Serif" font-size="14.00" fill="#000000">value = [0, 121]</text>
<text text-anchor="start" x="1505" y="-357.3" font-family="Helvetica,sans-Serif" font-size="14.00" fill="#000000">class = M</text>
</g>
<!-- 26&#45;&gt;30 -->
<g id="edge30" class="edge">
<title>26&#45;&gt;30</title>
<path fill="none" stroke="#000000" d="M1417.6548,-460.8796C1436.4111,-448.6158 1456.8761,-435.2348 1475.433,-423.1015"/>
<polygon fill="#000000" stroke="#000000" points="1477.3575,-426.025 1483.8118,-417.623 1473.5267,-420.1662 1477.3575,-426.025"/>
</g>
<!-- 28 -->
<g id="node29" class="node">
<title>28</title>
<path fill="#e58139" stroke="#000000" d="M1389.5,-298.5C1389.5,-298.5 1314.5,-298.5 1314.5,-298.5 1308.5,-298.5 1302.5,-292.5 1302.5,-286.5 1302.5,-286.5 1302.5,-242.5 1302.5,-242.5 1302.5,-236.5 1308.5,-230.5 1314.5,-230.5 1314.5,-230.5 1389.5,-230.5 1389.5,-230.5 1395.5,-230.5 1401.5,-236.5 1401.5,-242.5 1401.5,-242.5 1401.5,-286.5 1401.5,-286.5 1401.5,-292.5 1395.5,-298.5 1389.5,-298.5"/>
<text text-anchor="start" x="1322.5" y="-283.3" font-family="Helvetica,sans-Serif" font-size="14.00" fill="#000000">gini = 0.0</text>
<text text-anchor="start" x="1312.5" y="-268.3" font-family="Helvetica,sans-Serif" font-size="14.00" fill="#000000">samples = 6</text>
<text text-anchor="start" x="1310.5" y="-253.3" font-family="Helvetica,sans-Serif" font-size="14.00" fill="#000000">value = [6, 0]</text>
<text text-anchor="start" x="1322" y="-238.3" font-family="Helvetica,sans-Serif" font-size="14.00" fill="#000000">class = B</text>
</g>
<!-- 27&#45;&gt;28 -->
<g id="edge28" class="edge">
<title>27&#45;&gt;28</title>
<path fill="none" stroke="#000000" d="M1353.3005,-341.8796C1353.1212,-331.2134 1352.9278,-319.7021 1352.7462,-308.9015"/>
<polygon fill="#000000" stroke="#000000" points="1356.2444,-308.7547 1352.5767,-298.8149 1349.2454,-308.8724 1356.2444,-308.7547"/>
</g>
<!-- 29 -->
<g id="node30" class="node">
<title>29</title>
<path fill="#399de5" stroke="#000000" d="M1506.5,-298.5C1506.5,-298.5 1431.5,-298.5 1431.5,-298.5 1425.5,-298.5 1419.5,-292.5 1419.5,-286.5 1419.5,-286.5 1419.5,-242.5 1419.5,-242.5 1419.5,-236.5 1425.5,-230.5 1431.5,-230.5 1431.5,-230.5 1506.5,-230.5 1506.5,-230.5 1512.5,-230.5 1518.5,-236.5 1518.5,-242.5 1518.5,-242.5 1518.5,-286.5 1518.5,-286.5 1518.5,-292.5 1512.5,-298.5 1506.5,-298.5"/>
<text text-anchor="start" x="1439.5" y="-283.3" font-family="Helvetica,sans-Serif" font-size="14.00" fill="#000000">gini = 0.0</text>
<text text-anchor="start" x="1429.5" y="-268.3" font-family="Helvetica,sans-Serif" font-size="14.00" fill="#000000">samples = 7</text>
<text text-anchor="start" x="1427.5" y="-253.3" font-family="Helvetica,sans-Serif" font-size="14.00" fill="#000000">value = [0, 7]</text>
<text text-anchor="start" x="1438" y="-238.3" font-family="Helvetica,sans-Serif" font-size="14.00" fill="#000000">class = M</text>
</g>
<!-- 27&#45;&gt;29 -->
<g id="edge29" class="edge">
<title>27&#45;&gt;29</title>
<path fill="none" stroke="#000000" d="M1394.2214,-341.8796C1405.3792,-330.3337 1417.4939,-317.7976 1428.6586,-306.2446"/>
<polygon fill="#000000" stroke="#000000" points="1431.4061,-308.4381 1435.8385,-298.8149 1426.3725,-303.5736 1431.4061,-308.4381"/>
</g>
</g>
</svg>
