<?xml version="1.0" encoding="UTF-8" standalone="no"?>
<svg
   xmlns:dc="http://purl.org/dc/elements/1.1/"
   xmlns:cc="http://creativecommons.org/ns#"
   xmlns:rdf="http://www.w3.org/1999/02/22-rdf-syntax-ns#"
   xmlns:svg="http://www.w3.org/2000/svg"
   xmlns="http://www.w3.org/2000/svg"
   xmlns:sodipodi="http://sodipodi.sourceforge.net/DTD/sodipodi-0.dtd"
   xmlns:inkscape="http://www.inkscape.org/namespaces/inkscape"
   width="188.067764pt"
   height="107.430786pt"
   viewBox="0 0 188.067764 107.430786"
   version="1.2"
   id="svg225"
   sodipodi:docname="learning_rate_02.svg"
   inkscape:version="0.92.4 (5da689c313, 2019-01-14)">
  <metadata
     id="metadata229">
    <rdf:RDF>
      <cc:Work
         rdf:about="">
        <dc:format>image/svg+xml</dc:format>
        <dc:type
           rdf:resource="http://purl.org/dc/dcmitype/StillImage" />
        <dc:title></dc:title>
      </cc:Work>
    </rdf:RDF>
  </metadata>
  <sodipodi:namedview
     pagecolor="#ffffff"
     bordercolor="#666666"
     borderopacity="1"
     objecttolerance="10"
     gridtolerance="10"
     guidetolerance="10"
     inkscape:pageopacity="0"
     inkscape:pageshadow="2"
     inkscape:window-width="661"
     inkscape:window-height="480"
     id="namedview227"
     showgrid="false"
     inkscape:zoom="1.2522082"
     inkscape:cx="125.37851"
     inkscape:cy="71.620524"
     inkscape:window-x="0"
     inkscape:window-y="0"
     inkscape:window-maximized="0"
     inkscape:current-layer="svg225" />
  <defs
     id="defs68">
    <clipPath
       id="clip1">
      <path
         d="M 35 102 L 39 102 L 39 107.429688 L 35 107.429688 Z M 35 102 "
         id="path2" />
    </clipPath>
    <clipPath
       id="clip2">
      <path
         d="M 39 102 L 43 102 L 43 107.429688 L 39 107.429688 Z M 39 102 "
         id="path5" />
    </clipPath>
    <clipPath
       id="clip3">
      <path
         d="M 43 102 L 47 102 L 47 107.429688 L 43 107.429688 Z M 43 102 "
         id="path8" />
    </clipPath>
    <clipPath
       id="clip4">
      <path
         d="M 46 102 L 51 102 L 51 107.429688 L 46 107.429688 Z M 46 102 "
         id="path11" />
    </clipPath>
    <clipPath
       id="clip5">
      <path
         d="M 67 102 L 72 102 L 72 107.429688 L 67 107.429688 Z M 67 102 "
         id="path14" />
    </clipPath>
    <clipPath
       id="clip6">
      <path
         d="M 71 102 L 75 102 L 75 107.429688 L 71 107.429688 Z M 71 102 "
         id="path17" />
    </clipPath>
    <clipPath
       id="clip7">
      <path
         d="M 75 102 L 79 102 L 79 107.429688 L 75 107.429688 Z M 75 102 "
         id="path20" />
    </clipPath>
    <clipPath
       id="clip8">
      <path
         d="M 78 102 L 82 102 L 82 107.429688 L 78 107.429688 Z M 78 102 "
         id="path23" />
    </clipPath>
    <clipPath
       id="clip9">
      <path
         d="M 99 102 L 104 102 L 104 107.429688 L 99 107.429688 Z M 99 102 "
         id="path26" />
    </clipPath>
    <clipPath
       id="clip10">
      <path
         d="M 103 102 L 107 102 L 107 107.429688 L 103 107.429688 Z M 103 102 "
         id="path29" />
    </clipPath>
    <clipPath
       id="clip11">
      <path
         d="M 107 102 L 111 102 L 111 107.429688 L 107 107.429688 Z M 107 102 "
         id="path32" />
    </clipPath>
    <clipPath
       id="clip12">
      <path
         d="M 110 102 L 114 102 L 114 107.429688 L 110 107.429688 Z M 110 102 "
         id="path35" />
    </clipPath>
    <clipPath
       id="clip13">
      <path
         d="M 131 102 L 136 102 L 136 107.429688 L 131 107.429688 Z M 131 102 "
         id="path38" />
    </clipPath>
    <clipPath
       id="clip14">
      <path
         d="M 135 102 L 139 102 L 139 107.429688 L 135 107.429688 Z M 135 102 "
         id="path41" />
    </clipPath>
    <clipPath
       id="clip15">
      <path
         d="M 138 102 L 143 102 L 143 107.429688 L 138 107.429688 Z M 138 102 "
         id="path44" />
    </clipPath>
    <clipPath
       id="clip16">
      <path
         d="M 142 102 L 146 102 L 146 107.429688 L 142 107.429688 Z M 142 102 "
         id="path47" />
    </clipPath>
    <clipPath
       id="clip17">
      <path
         d="M 162 102 L 165 102 L 165 107.429688 L 162 107.429688 Z M 162 102 "
         id="path50" />
    </clipPath>
    <clipPath
       id="clip18">
      <path
         d="M 165 102 L 169 102 L 169 107.429688 L 165 107.429688 Z M 165 102 "
         id="path53" />
    </clipPath>
    <clipPath
       id="clip19">
      <path
         d="M 169 102 L 173 102 L 173 107.429688 L 169 107.429688 Z M 169 102 "
         id="path56" />
    </clipPath>
    <clipPath
       id="clip20">
      <path
         d="M 172 102 L 177 102 L 177 107.429688 L 172 107.429688 Z M 172 102 "
         id="path59" />
    </clipPath>
    <clipPath
       id="clip21">
      <path
         d="M 176 102 L 180 102 L 180 107.429688 L 176 107.429688 Z M 176 102 "
         id="path62" />
    </clipPath>
    <clipPath
       id="clip22">
      <path
         d="M 187 95 L 188.066406 95 L 188.066406 99 L 187 99 Z M 187 95 "
         id="path65" />
    </clipPath>
  </defs>
  <g
     id="surface42">
    <g
       clip-path="url(#clip1)"
       clip-rule="nonzero"
       id="g72">
      <path
         style=" stroke:none;fill-rule:nonzero;fill:rgb(12.940979%,11.764526%,11.764526%);fill-opacity:1;"
         d="M 38.507813 106.382813 C 38.398438 106.648438 38.273438 106.835938 37.804688 106.835938 L 36.429688 106.835938 L 36.429688 106.804688 L 37.820313 105.414063 C 38.710938 104.523438 38.882813 104.195313 38.882813 103.710938 C 38.882813 103.179688 38.492188 102.507813 37.726563 102.507813 C 37.539063 102.507813 36.601563 102.539063 36.210938 103.664063 L 36.367188 103.710938 C 36.460938 103.539063 36.742188 103.039063 37.382813 103.039063 C 37.945313 103.039063 38.273438 103.476563 38.273438 103.914063 C 38.273438 104.148438 38.242188 104.570313 37.226563 105.648438 L 35.726563 107.257813 L 35.726563 107.382813 L 38.273438 107.382813 L 38.632813 106.429688 Z M 38.507813 106.382813 "
         id="path70" />
    </g>
    <g
       clip-path="url(#clip2)"
       clip-rule="nonzero"
       id="g76">
      <path
         style=" stroke:none;fill-rule:nonzero;fill:rgb(12.940979%,11.764526%,11.764526%);fill-opacity:1;"
         d="M 40.03125 106.257813 C 40.03125 105.554688 40.546875 102.710938 41.625 102.710938 C 42.25 102.710938 42.25 103.445313 42.25 103.664063 C 42.25 104.929688 41.625 107.226563 40.65625 107.226563 C 40.4375 107.226563 40.03125 107.101563 40.03125 106.257813 Z M 42.8125 104.320313 C 42.8125 103.601563 42.625 102.507813 41.65625 102.507813 C 40.65625 102.507813 39.46875 103.992188 39.46875 105.945313 C 39.46875 106.695313 39.875 107.429688 40.625 107.429688 C 41.828125 107.429688 42.8125 105.742188 42.8125 104.320313 Z M 42.8125 104.320313 "
         id="path74" />
    </g>
    <g
       clip-path="url(#clip3)"
       clip-rule="nonzero"
       id="g80">
      <path
         style=" stroke:none;fill-rule:nonzero;fill:rgb(12.940979%,11.764526%,11.764526%);fill-opacity:1;"
         d="M 43.628906 106.257813 C 43.628906 105.554688 44.144531 102.710938 45.222656 102.710938 C 45.847656 102.710938 45.847656 103.445313 45.847656 103.664063 C 45.847656 104.929688 45.222656 107.226563 44.253906 107.226563 C 44.035156 107.226563 43.628906 107.101563 43.628906 106.257813 Z M 46.410156 104.320313 C 46.410156 103.601563 46.222656 102.507813 45.253906 102.507813 C 44.253906 102.507813 43.066406 103.992188 43.066406 105.945313 C 43.066406 106.695313 43.472656 107.429688 44.222656 107.429688 C 45.425781 107.429688 46.410156 105.742188 46.410156 104.320313 Z M 46.410156 104.320313 "
         id="path78" />
    </g>
    <g
       clip-path="url(#clip4)"
       clip-rule="nonzero"
       id="g84">
      <path
         style=" stroke:none;fill-rule:nonzero;fill:rgb(12.940979%,11.764526%,11.764526%);fill-opacity:1;"
         d="M 47.230469 106.257813 C 47.230469 105.554688 47.746094 102.710938 48.824219 102.710938 C 49.449219 102.710938 49.449219 103.445313 49.449219 103.664063 C 49.449219 104.929688 48.824219 107.226563 47.855469 107.226563 C 47.636719 107.226563 47.230469 107.101563 47.230469 106.257813 Z M 50.011719 104.320313 C 50.011719 103.601563 49.824219 102.507813 48.855469 102.507813 C 47.855469 102.507813 46.667969 103.992188 46.667969 105.945313 C 46.667969 106.695313 47.074219 107.429688 47.824219 107.429688 C 49.027344 107.429688 50.011719 105.742188 50.011719 104.320313 Z M 50.011719 104.320313 "
         id="path82" />
    </g>
    <g
       clip-path="url(#clip5)"
       clip-rule="nonzero"
       id="g88">
      <path
         style=" stroke:none;fill-rule:nonzero;fill:rgb(12.940979%,11.764526%,11.764526%);fill-opacity:1;"
         d="M 69.601563 105.648438 L 68.070313 105.648438 L 68.070313 105.617188 L 70.257813 103.320313 L 70.289063 103.320313 Z M 70.867188 105.648438 L 70.179688 105.648438 L 71.054688 102.507813 L 70.757813 102.507813 L 67.757813 105.617188 L 67.601563 106.101563 L 69.492188 106.101563 L 69.148438 107.382813 L 69.710938 107.382813 L 70.039063 106.117188 L 70.757813 106.117188 Z M 70.867188 105.648438 "
         id="path86" />
    </g>
    <g
       clip-path="url(#clip6)"
       clip-rule="nonzero"
       id="g92">
      <path
         style=" stroke:none;fill-rule:nonzero;fill:rgb(12.940979%,11.764526%,11.764526%);fill-opacity:1;"
         d="M 71.996094 106.257813 C 71.996094 105.554688 72.511719 102.710938 73.589844 102.710938 C 74.214844 102.710938 74.214844 103.445313 74.214844 103.664063 C 74.214844 104.929688 73.589844 107.226563 72.621094 107.226563 C 72.402344 107.226563 71.996094 107.101563 71.996094 106.257813 Z M 74.777344 104.320313 C 74.777344 103.601563 74.589844 102.507813 73.621094 102.507813 C 72.621094 102.507813 71.433594 103.992188 71.433594 105.945313 C 71.433594 106.695313 71.839844 107.429688 72.589844 107.429688 C 73.792969 107.429688 74.777344 105.742188 74.777344 104.320313 Z M 74.777344 104.320313 "
         id="path90" />
    </g>
    <g
       clip-path="url(#clip7)"
       clip-rule="nonzero"
       id="g96">
      <path
         style=" stroke:none;fill-rule:nonzero;fill:rgb(12.940979%,11.764526%,11.764526%);fill-opacity:1;"
         d="M 75.597656 106.257813 C 75.597656 105.554688 76.113281 102.710938 77.191406 102.710938 C 77.816406 102.710938 77.816406 103.445313 77.816406 103.664063 C 77.816406 104.929688 77.191406 107.226563 76.222656 107.226563 C 76.003906 107.226563 75.597656 107.101563 75.597656 106.257813 Z M 78.378906 104.320313 C 78.378906 103.601563 78.191406 102.507813 77.222656 102.507813 C 76.222656 102.507813 75.035156 103.992188 75.035156 105.945313 C 75.035156 106.695313 75.441406 107.429688 76.191406 107.429688 C 77.394531 107.429688 78.378906 105.742188 78.378906 104.320313 Z M 78.378906 104.320313 "
         id="path94" />
    </g>
    <g
       clip-path="url(#clip8)"
       clip-rule="nonzero"
       id="g100">
      <path
         style=" stroke:none;fill-rule:nonzero;fill:rgb(12.940979%,11.764526%,11.764526%);fill-opacity:1;"
         d="M 79.195313 106.257813 C 79.195313 105.554688 79.710938 102.710938 80.789063 102.710938 C 81.414063 102.710938 81.414063 103.445313 81.414063 103.664063 C 81.414063 104.929688 80.789063 107.226563 79.820313 107.226563 C 79.601563 107.226563 79.195313 107.101563 79.195313 106.257813 Z M 81.976563 104.320313 C 81.976563 103.601563 81.789063 102.507813 80.820313 102.507813 C 79.820313 102.507813 78.632813 103.992188 78.632813 105.945313 C 78.632813 106.695313 79.039063 107.429688 79.789063 107.429688 C 80.992188 107.429688 81.976563 105.742188 81.976563 104.320313 Z M 81.976563 104.320313 "
         id="path98" />
    </g>
    <g
       clip-path="url(#clip9)"
       clip-rule="nonzero"
       id="g104">
      <path
         style=" stroke:none;fill-rule:nonzero;fill:rgb(12.940979%,11.764526%,11.764526%);fill-opacity:1;"
         d="M 103.320313 102.445313 C 101.117188 102.585938 99.789063 104.382813 99.789063 105.867188 C 99.789063 107.054688 100.492188 107.429688 101.085938 107.429688 C 102.304688 107.429688 102.898438 106.210938 102.898438 105.492188 C 102.898438 104.460938 102.164063 104.164063 101.679688 104.164063 C 101.554688 104.164063 101.445313 104.179688 101.335938 104.210938 C 101.226563 104.226563 101.132813 104.257813 101.039063 104.320313 L 101.007813 104.304688 C 101.179688 103.945313 102.054688 102.726563 103.320313 102.554688 Z M 101.398438 104.429688 C 101.945313 104.429688 102.242188 104.773438 102.242188 105.351563 C 102.242188 106.007813 101.867188 107.242188 101.039063 107.242188 C 100.335938 107.242188 100.335938 106.445313 100.335938 106.257813 C 100.335938 106.132813 100.398438 104.429688 101.398438 104.429688 Z M 101.398438 104.429688 "
         id="path102" />
    </g>
    <g
       clip-path="url(#clip10)"
       clip-rule="nonzero"
       id="g108">
      <path
         style=" stroke:none;fill-rule:nonzero;fill:rgb(12.940979%,11.764526%,11.764526%);fill-opacity:1;"
         d="M 103.96875 106.257813 C 103.96875 105.554688 104.484375 102.710938 105.5625 102.710938 C 106.1875 102.710938 106.1875 103.445313 106.1875 103.664063 C 106.1875 104.929688 105.5625 107.226563 104.59375 107.226563 C 104.375 107.226563 103.96875 107.101563 103.96875 106.257813 Z M 106.75 104.320313 C 106.75 103.601563 106.5625 102.507813 105.59375 102.507813 C 104.59375 102.507813 103.40625 103.992188 103.40625 105.945313 C 103.40625 106.695313 103.8125 107.429688 104.5625 107.429688 C 105.765625 107.429688 106.75 105.742188 106.75 104.320313 Z M 106.75 104.320313 "
         id="path106" />
    </g>
    <g
       clip-path="url(#clip11)"
       clip-rule="nonzero"
       id="g112">
      <path
         style=" stroke:none;fill-rule:nonzero;fill:rgb(12.940979%,11.764526%,11.764526%);fill-opacity:1;"
         d="M 107.566406 106.257813 C 107.566406 105.554688 108.082031 102.710938 109.160156 102.710938 C 109.785156 102.710938 109.785156 103.445313 109.785156 103.664063 C 109.785156 104.929688 109.160156 107.226563 108.191406 107.226563 C 107.972656 107.226563 107.566406 107.101563 107.566406 106.257813 Z M 110.347656 104.320313 C 110.347656 103.601563 110.160156 102.507813 109.191406 102.507813 C 108.191406 102.507813 107.003906 103.992188 107.003906 105.945313 C 107.003906 106.695313 107.410156 107.429688 108.160156 107.429688 C 109.363281 107.429688 110.347656 105.742188 110.347656 104.320313 Z M 110.347656 104.320313 "
         id="path110" />
    </g>
    <g
       clip-path="url(#clip12)"
       clip-rule="nonzero"
       id="g116">
      <path
         style=" stroke:none;fill-rule:nonzero;fill:rgb(12.940979%,11.764526%,11.764526%);fill-opacity:1;"
         d="M 111.167969 106.257813 C 111.167969 105.554688 111.683594 102.710938 112.761719 102.710938 C 113.386719 102.710938 113.386719 103.445313 113.386719 103.664063 C 113.386719 104.929688 112.761719 107.226563 111.792969 107.226563 C 111.574219 107.226563 111.167969 107.101563 111.167969 106.257813 Z M 113.949219 104.320313 C 113.949219 103.601563 113.761719 102.507813 112.792969 102.507813 C 111.792969 102.507813 110.605469 103.992188 110.605469 105.945313 C 110.605469 106.695313 111.011719 107.429688 111.761719 107.429688 C 112.964844 107.429688 113.949219 105.742188 113.949219 104.320313 Z M 113.949219 104.320313 "
         id="path114" />
    </g>
    <g
       clip-path="url(#clip13)"
       clip-rule="nonzero"
       id="g120">
      <path
         style=" stroke:none;fill-rule:nonzero;fill:rgb(12.940979%,11.764526%,11.764526%);fill-opacity:1;"
         d="M 131.757813 106.257813 C 131.757813 106.460938 131.914063 107.429688 133.195313 107.429688 C 134.164063 107.429688 134.742188 106.789063 134.742188 106.179688 C 134.742188 105.617188 134.445313 105.164063 133.914063 104.632813 C 134.304688 104.507813 135.085938 104.242188 135.085938 103.539063 C 135.085938 102.757813 134.304688 102.507813 133.835938 102.507813 C 133.164063 102.507813 132.539063 102.867188 132.539063 103.601563 C 132.539063 103.976563 132.726563 104.320313 133.164063 104.789063 C 132.992188 104.835938 131.757813 105.210938 131.757813 106.257813 Z M 132.242188 106.273438 C 132.242188 105.351563 133.132813 104.960938 133.320313 104.898438 C 134.023438 105.632813 134.195313 105.820313 134.195313 106.273438 C 134.195313 106.976563 133.632813 107.273438 133.242188 107.273438 C 132.632813 107.273438 132.242188 106.835938 132.242188 106.273438 Z M 133.101563 103.476563 C 133.101563 102.992188 133.367188 102.679688 133.835938 102.679688 C 134.414063 102.679688 134.601563 103.179688 134.601563 103.523438 C 134.601563 104.117188 134.179688 104.320313 133.773438 104.507813 C 133.101563 103.882813 133.101563 103.664063 133.101563 103.476563 Z M 133.101563 103.476563 "
         id="path118" />
    </g>
    <g
       clip-path="url(#clip14)"
       clip-rule="nonzero"
       id="g124">
      <path
         style=" stroke:none;fill-rule:nonzero;fill:rgb(12.940979%,11.764526%,11.764526%);fill-opacity:1;"
         d="M 135.933594 106.257813 C 135.933594 105.554688 136.449219 102.710938 137.527344 102.710938 C 138.152344 102.710938 138.152344 103.445313 138.152344 103.664063 C 138.152344 104.929688 137.527344 107.226563 136.558594 107.226563 C 136.339844 107.226563 135.933594 107.101563 135.933594 106.257813 Z M 138.714844 104.320313 C 138.714844 103.601563 138.527344 102.507813 137.558594 102.507813 C 136.558594 102.507813 135.371094 103.992188 135.371094 105.945313 C 135.371094 106.695313 135.777344 107.429688 136.527344 107.429688 C 137.730469 107.429688 138.714844 105.742188 138.714844 104.320313 Z M 138.714844 104.320313 "
         id="path122" />
    </g>
    <g
       clip-path="url(#clip15)"
       clip-rule="nonzero"
       id="g128">
      <path
         style=" stroke:none;fill-rule:nonzero;fill:rgb(12.940979%,11.764526%,11.764526%);fill-opacity:1;"
         d="M 139.535156 106.257813 C 139.535156 105.554688 140.050781 102.710938 141.128906 102.710938 C 141.753906 102.710938 141.753906 103.445313 141.753906 103.664063 C 141.753906 104.929688 141.128906 107.226563 140.160156 107.226563 C 139.941406 107.226563 139.535156 107.101563 139.535156 106.257813 Z M 142.316406 104.320313 C 142.316406 103.601563 142.128906 102.507813 141.160156 102.507813 C 140.160156 102.507813 138.972656 103.992188 138.972656 105.945313 C 138.972656 106.695313 139.378906 107.429688 140.128906 107.429688 C 141.332031 107.429688 142.316406 105.742188 142.316406 104.320313 Z M 142.316406 104.320313 "
         id="path126" />
    </g>
    <g
       clip-path="url(#clip16)"
       clip-rule="nonzero"
       id="g132">
      <path
         style=" stroke:none;fill-rule:nonzero;fill:rgb(12.940979%,11.764526%,11.764526%);fill-opacity:1;"
         d="M 143.132813 106.257813 C 143.132813 105.554688 143.648438 102.710938 144.726563 102.710938 C 145.351563 102.710938 145.351563 103.445313 145.351563 103.664063 C 145.351563 104.929688 144.726563 107.226563 143.757813 107.226563 C 143.539063 107.226563 143.132813 107.101563 143.132813 106.257813 Z M 145.914063 104.320313 C 145.914063 103.601563 145.726563 102.507813 144.757813 102.507813 C 143.757813 102.507813 142.570313 103.992188 142.570313 105.945313 C 142.570313 106.695313 142.976563 107.429688 143.726563 107.429688 C 144.929688 107.429688 145.914063 105.742188 145.914063 104.320313 Z M 145.914063 104.320313 "
         id="path130" />
    </g>
    <g
       clip-path="url(#clip17)"
       clip-rule="nonzero"
       id="g136">
      <path
         style=" stroke:none;fill-rule:nonzero;fill:rgb(12.940979%,11.764526%,11.764526%);fill-opacity:1;"
         d="M 162.066406 107.382813 L 164.066406 107.382813 L 164.066406 107.273438 C 163.707031 107.289063 163.457031 107.257813 163.457031 107.039063 C 163.457031 106.914063 163.550781 106.648438 163.582031 106.507813 L 164.613281 102.773438 C 164.644531 102.664063 164.675781 102.507813 164.628906 102.507813 C 164.566406 102.507813 163.566406 102.726563 163.222656 102.789063 L 163.222656 102.898438 L 163.644531 102.882813 C 163.707031 102.882813 163.910156 102.882813 163.910156 103.117188 C 163.910156 103.164063 163.878906 103.273438 163.863281 103.351563 L 162.863281 106.898438 C 162.769531 107.210938 162.488281 107.242188 162.066406 107.289063 Z M 162.066406 107.382813 "
         id="path134" />
    </g>
    <g
       clip-path="url(#clip18)"
       clip-rule="nonzero"
       id="g140">
      <path
         style=" stroke:none;fill-rule:nonzero;fill:rgb(12.940979%,11.764526%,11.764526%);fill-opacity:1;"
         d="M 166.101563 106.257813 C 166.101563 105.554688 166.617188 102.710938 167.695313 102.710938 C 168.320313 102.710938 168.320313 103.445313 168.320313 103.664063 C 168.320313 104.929688 167.695313 107.226563 166.726563 107.226563 C 166.507813 107.226563 166.101563 107.101563 166.101563 106.257813 Z M 168.882813 104.320313 C 168.882813 103.601563 168.695313 102.507813 167.726563 102.507813 C 166.726563 102.507813 165.539063 103.992188 165.539063 105.945313 C 165.539063 106.695313 165.945313 107.429688 166.695313 107.429688 C 167.898438 107.429688 168.882813 105.742188 168.882813 104.320313 Z M 168.882813 104.320313 "
         id="path138" />
    </g>
    <g
       clip-path="url(#clip19)"
       clip-rule="nonzero"
       id="g144">
      <path
         style=" stroke:none;fill-rule:nonzero;fill:rgb(12.940979%,11.764526%,11.764526%);fill-opacity:1;"
         d="M 169.703125 106.257813 C 169.703125 105.554688 170.21875 102.710938 171.296875 102.710938 C 171.921875 102.710938 171.921875 103.445313 171.921875 103.664063 C 171.921875 104.929688 171.296875 107.226563 170.328125 107.226563 C 170.109375 107.226563 169.703125 107.101563 169.703125 106.257813 Z M 172.484375 104.320313 C 172.484375 103.601563 172.296875 102.507813 171.328125 102.507813 C 170.328125 102.507813 169.140625 103.992188 169.140625 105.945313 C 169.140625 106.695313 169.546875 107.429688 170.296875 107.429688 C 171.5 107.429688 172.484375 105.742188 172.484375 104.320313 Z M 172.484375 104.320313 "
         id="path142" />
    </g>
    <g
       clip-path="url(#clip20)"
       clip-rule="nonzero"
       id="g148">
      <path
         style=" stroke:none;fill-rule:nonzero;fill:rgb(12.940979%,11.764526%,11.764526%);fill-opacity:1;"
         d="M 173.304688 106.257813 C 173.304688 105.554688 173.820313 102.710938 174.898438 102.710938 C 175.523438 102.710938 175.523438 103.445313 175.523438 103.664063 C 175.523438 104.929688 174.898438 107.226563 173.929688 107.226563 C 173.710938 107.226563 173.304688 107.101563 173.304688 106.257813 Z M 176.085938 104.320313 C 176.085938 103.601563 175.898438 102.507813 174.929688 102.507813 C 173.929688 102.507813 172.742188 103.992188 172.742188 105.945313 C 172.742188 106.695313 173.148438 107.429688 173.898438 107.429688 C 175.101563 107.429688 176.085938 105.742188 176.085938 104.320313 Z M 176.085938 104.320313 "
         id="path146" />
    </g>
    <g
       clip-path="url(#clip21)"
       clip-rule="nonzero"
       id="g152">
      <path
         style=" stroke:none;fill-rule:nonzero;fill:rgb(12.940979%,11.764526%,11.764526%);fill-opacity:1;"
         d="M 176.902344 106.257813 C 176.902344 105.554688 177.417969 102.710938 178.496094 102.710938 C 179.121094 102.710938 179.121094 103.445313 179.121094 103.664063 C 179.121094 104.929688 178.496094 107.226563 177.527344 107.226563 C 177.308594 107.226563 176.902344 107.101563 176.902344 106.257813 Z M 179.683594 104.320313 C 179.683594 103.601563 179.496094 102.507813 178.527344 102.507813 C 177.527344 102.507813 176.339844 103.992188 176.339844 105.945313 C 176.339844 106.695313 176.746094 107.429688 177.496094 107.429688 C 178.699219 107.429688 179.683594 105.742188 179.683594 104.320313 Z M 179.683594 104.320313 "
         id="path150" />
    </g>
    <path
       style="fill:none;stroke-width:0.6;stroke-linecap:round;stroke-linejoin:round;stroke:rgb(12.940979%,11.764526%,11.764526%);stroke-opacity:1;stroke-miterlimit:4;"
       d="M 11.070313 99.6875 L 174.703125 99.6875 "
       id="path154" />
    <path
       style=" stroke:none;fill-rule:nonzero;fill:rgb(12.940979%,11.764526%,11.764526%);fill-opacity:1;"
       d="M 176.121094 99.074219 C 175.128906 98.773438 174.484375 98.496094 173.6875 98.175781 L 173.6875 101.203125 C 173.972656 101.066406 175.128906 100.609375 176.121094 100.308594 C 177.179688 99.988281 178.144531 99.769531 178.769531 99.691406 C 178.144531 99.613281 177.179688 99.394531 176.121094 99.074219 "
       id="path156" />
    <path
       style=" stroke:none;fill-rule:nonzero;fill:rgb(12.940979%,11.764526%,11.764526%);fill-opacity:1;"
       d="M 0.5625 80.414063 C 0.5625 79.710938 1.078125 76.867188 2.15625 76.867188 C 2.78125 76.867188 2.78125 77.601563 2.78125 77.820313 C 2.78125 79.085938 2.15625 81.382813 1.1875 81.382813 C 0.96875 81.382813 0.5625 81.257813 0.5625 80.414063 Z M 3.34375 78.476563 C 3.34375 77.757813 3.15625 76.664063 2.1875 76.664063 C 1.1875 76.664063 0 78.148438 0 80.101563 C 0 80.851563 0.40625 81.585938 1.15625 81.585938 C 2.359375 81.585938 3.34375 79.898438 3.34375 78.476563 Z M 3.34375 78.476563 "
       id="path158" />
    <path
       style=" stroke:none;fill-rule:nonzero;fill:rgb(12.940979%,11.764526%,11.764526%);fill-opacity:1;"
       d="M 3.960938 81.617188 C 4.101563 81.617188 4.367188 81.492188 4.367188 81.226563 C 4.367188 81.007813 4.179688 80.820313 3.960938 80.820313 C 3.742188 80.820313 3.554688 80.992188 3.554688 81.226563 C 3.554688 81.507813 3.804688 81.617188 3.960938 81.617188 Z M 3.960938 81.617188 "
       id="path160" />
    <path
       style=" stroke:none;fill-rule:nonzero;fill:rgb(12.940979%,11.764526%,11.764526%);fill-opacity:1;"
       d="M 8.039063 80.539063 C 7.929688 80.804688 7.804688 80.992188 7.335938 80.992188 L 5.960938 80.992188 L 5.960938 80.960938 L 7.351563 79.570313 C 8.242188 78.679688 8.414063 78.351563 8.414063 77.867188 C 8.414063 77.335938 8.023438 76.664063 7.257813 76.664063 C 7.070313 76.664063 6.132813 76.695313 5.742188 77.820313 L 5.898438 77.867188 C 5.992188 77.695313 6.273438 77.195313 6.914063 77.195313 C 7.476563 77.195313 7.804688 77.632813 7.804688 78.070313 C 7.804688 78.304688 7.773438 78.726563 6.757813 79.804688 L 5.257813 81.414063 L 5.257813 81.539063 L 7.804688 81.539063 L 8.164063 80.585938 Z M 8.039063 80.539063 "
       id="path162" />
    <path
       style=" stroke:none;fill-rule:nonzero;fill:rgb(12.940979%,11.764526%,11.764526%);fill-opacity:1;"
       d="M 0.5625 59.671875 C 0.5625 58.96875 1.078125 56.125 2.15625 56.125 C 2.78125 56.125 2.78125 56.859375 2.78125 57.078125 C 2.78125 58.34375 2.15625 60.640625 1.1875 60.640625 C 0.96875 60.640625 0.5625 60.515625 0.5625 59.671875 Z M 3.34375 57.734375 C 3.34375 57.015625 3.15625 55.921875 2.1875 55.921875 C 1.1875 55.921875 0 57.40625 0 59.359375 C 0 60.109375 0.40625 60.84375 1.15625 60.84375 C 2.359375 60.84375 3.34375 59.15625 3.34375 57.734375 Z M 3.34375 57.734375 "
       id="path164" />
    <path
       style=" stroke:none;fill-rule:nonzero;fill:rgb(12.940979%,11.764526%,11.764526%);fill-opacity:1;"
       d="M 3.960938 60.875 C 4.101563 60.875 4.367188 60.75 4.367188 60.484375 C 4.367188 60.265625 4.179688 60.078125 3.960938 60.078125 C 3.742188 60.078125 3.554688 60.25 3.554688 60.484375 C 3.554688 60.765625 3.804688 60.875 3.960938 60.875 Z M 3.960938 60.875 "
       id="path166" />
    <path
       style=" stroke:none;fill-rule:nonzero;fill:rgb(12.940979%,11.764526%,11.764526%);fill-opacity:1;"
       d="M 7.164063 59.0625 L 5.632813 59.0625 L 5.632813 59.03125 L 7.820313 56.734375 L 7.851563 56.734375 Z M 8.429688 59.0625 L 7.742188 59.0625 L 8.617188 55.921875 L 8.320313 55.921875 L 5.320313 59.03125 L 5.164063 59.515625 L 7.054688 59.515625 L 6.710938 60.796875 L 7.273438 60.796875 L 7.601563 59.53125 L 8.320313 59.53125 Z M 8.429688 59.0625 "
       id="path168" />
    <path
       style=" stroke:none;fill-rule:nonzero;fill:rgb(12.940979%,11.764526%,11.764526%);fill-opacity:1;"
       d="M 0.5625 38.925781 C 0.5625 38.222656 1.078125 35.378906 2.15625 35.378906 C 2.78125 35.378906 2.78125 36.113281 2.78125 36.332031 C 2.78125 37.597656 2.15625 39.894531 1.1875 39.894531 C 0.96875 39.894531 0.5625 39.769531 0.5625 38.925781 Z M 3.34375 36.988281 C 3.34375 36.269531 3.15625 35.175781 2.1875 35.175781 C 1.1875 35.175781 0 36.660156 0 38.613281 C 0 39.363281 0.40625 40.097656 1.15625 40.097656 C 2.359375 40.097656 3.34375 38.410156 3.34375 36.988281 Z M 3.34375 36.988281 "
       id="path170" />
    <path
       style=" stroke:none;fill-rule:nonzero;fill:rgb(12.940979%,11.764526%,11.764526%);fill-opacity:1;"
       d="M 3.960938 40.128906 C 4.101563 40.128906 4.367188 40.003906 4.367188 39.738281 C 4.367188 39.519531 4.179688 39.332031 3.960938 39.332031 C 3.742188 39.332031 3.554688 39.503906 3.554688 39.738281 C 3.554688 40.019531 3.804688 40.128906 3.960938 40.128906 Z M 3.960938 40.128906 "
       id="path172" />
    <path
       style=" stroke:none;fill-rule:nonzero;fill:rgb(12.940979%,11.764526%,11.764526%);fill-opacity:1;"
       d="M 8.914063 35.113281 C 6.710938 35.253906 5.382813 37.050781 5.382813 38.535156 C 5.382813 39.722656 6.085938 40.097656 6.679688 40.097656 C 7.898438 40.097656 8.492188 38.878906 8.492188 38.160156 C 8.492188 37.128906 7.757813 36.832031 7.273438 36.832031 C 7.148438 36.832031 7.039063 36.847656 6.929688 36.878906 C 6.820313 36.894531 6.726563 36.925781 6.632813 36.988281 L 6.601563 36.972656 C 6.773438 36.613281 7.648438 35.394531 8.914063 35.222656 Z M 6.992188 37.097656 C 7.539063 37.097656 7.835938 37.441406 7.835938 38.019531 C 7.835938 38.675781 7.460938 39.910156 6.632813 39.910156 C 5.929688 39.910156 5.929688 39.113281 5.929688 38.925781 C 5.929688 38.800781 5.992188 37.097656 6.992188 37.097656 Z M 6.992188 37.097656 "
       id="path174" />
    <path
       style=" stroke:none;fill-rule:nonzero;fill:rgb(12.940979%,11.764526%,11.764526%);fill-opacity:1;"
       d="M 0.5625 18.179688 C 0.5625 17.476563 1.078125 14.632813 2.15625 14.632813 C 2.78125 14.632813 2.78125 15.367188 2.78125 15.585938 C 2.78125 16.851563 2.15625 19.148438 1.1875 19.148438 C 0.96875 19.148438 0.5625 19.023438 0.5625 18.179688 Z M 3.34375 16.242188 C 3.34375 15.523438 3.15625 14.429688 2.1875 14.429688 C 1.1875 14.429688 0 15.914063 0 17.867188 C 0 18.617188 0.40625 19.351563 1.15625 19.351563 C 2.359375 19.351563 3.34375 17.664063 3.34375 16.242188 Z M 3.34375 16.242188 "
       id="path176" />
    <path
       style=" stroke:none;fill-rule:nonzero;fill:rgb(12.940979%,11.764526%,11.764526%);fill-opacity:1;"
       d="M 3.960938 19.382813 C 4.101563 19.382813 4.367188 19.257813 4.367188 18.992188 C 4.367188 18.773438 4.179688 18.585938 3.960938 18.585938 C 3.742188 18.585938 3.554688 18.757813 3.554688 18.992188 C 3.554688 19.273438 3.804688 19.382813 3.960938 19.382813 Z M 3.960938 19.382813 "
       id="path178" />
    <path
       style=" stroke:none;fill-rule:nonzero;fill:rgb(12.940979%,11.764526%,11.764526%);fill-opacity:1;"
       d="M 5.382813 18.179688 C 5.382813 18.382813 5.539063 19.351563 6.820313 19.351563 C 7.789063 19.351563 8.367188 18.710938 8.367188 18.101563 C 8.367188 17.539063 8.070313 17.085938 7.539063 16.554688 C 7.929688 16.429688 8.710938 16.164063 8.710938 15.460938 C 8.710938 14.679688 7.929688 14.429688 7.460938 14.429688 C 6.789063 14.429688 6.164063 14.789063 6.164063 15.523438 C 6.164063 15.898438 6.351563 16.242188 6.789063 16.710938 C 6.617188 16.757813 5.382813 17.132813 5.382813 18.179688 Z M 5.867188 18.195313 C 5.867188 17.273438 6.757813 16.882813 6.945313 16.820313 C 7.648438 17.554688 7.820313 17.742188 7.820313 18.195313 C 7.820313 18.898438 7.257813 19.195313 6.867188 19.195313 C 6.257813 19.195313 5.867188 18.757813 5.867188 18.195313 Z M 6.726563 15.398438 C 6.726563 14.914063 6.992188 14.601563 7.460938 14.601563 C 8.039063 14.601563 8.226563 15.101563 8.226563 15.445313 C 8.226563 16.039063 7.804688 16.242188 7.398438 16.429688 C 6.726563 15.804688 6.726563 15.585938 6.726563 15.398438 Z M 6.726563 15.398438 "
       id="path180" />
    <path
       style="fill:none;stroke-width:0.6;stroke-linecap:round;stroke-linejoin:round;stroke:rgb(12.940979%,11.764526%,11.764526%);stroke-opacity:1;stroke-miterlimit:4;"
       d="M 10.867188 99.6875 L 10.867188 11.085938 "
       id="path182" />
    <path
       style=" stroke:none;fill-rule:nonzero;fill:rgb(12.940979%,11.764526%,11.764526%);fill-opacity:1;"
       d="M 10.25 9.667969 C 9.949219 10.660156 9.675781 11.304688 9.355469 12.101563 L 12.382813 12.101563 C 12.246094 11.816406 11.785156 10.660156 11.488281 9.667969 C 11.167969 8.605469 10.945313 7.644531 10.867188 7.019531 C 10.789063 7.644531 10.570313 8.605469 10.25 9.667969 "
       id="path184" />
    <path
       style="fill:none;stroke-width:1.2;stroke-linecap:round;stroke-linejoin:round;stroke:rgb(12.940979%,11.764526%,11.764526%);stroke-opacity:1;stroke-miterlimit:4;"
       d="M 12.464844 16.707031 L 12.660156 23.105469 L 12.835938 27.925781 L 13.234375 36.339844 L 13.605469 42.140625 L 13.957031 46.460938 L 14.738281 53.546875 L 15.179688 56.511719 L 15.589844 58.796875 L 16.414063 62.488281 L 17.1875 65.148438 L 17.996094 67.363281 L 18.882813 69.332031 L 20.644531 72.265625 L 22.257813 74.226563 L 24.117188 75.945313 L 25.886719 77.21875 L 29.175781 78.992188 L 32.230469 80.191406 L 35.640625 81.210938 L 38.734375 81.9375 L 45.386719 83.101563 L 51.792969 83.890625 L 58.609375 84.519531 L 65.167969 84.988281 L 71.476563 85.351563 L 78.195313 85.671875 L 84.660156 85.933594 L 91.53125 86.164063 L 98.152344 86.351563 L 104.519531 86.519531 L 111.296875 86.667969 L 117.820313 86.796875 L 124.09375 86.914063 L 130.773438 87.019531 L 137.203125 87.113281 L 144.039063 87.203125 L 150.621094 87.285156 L 156.953125 87.355469 L 163.695313 87.425781 L 170.179688 87.484375 L 170.707031 87.488281 "
       id="path186" />
    <path
       style="fill:none;stroke-width:1.2;stroke-linecap:round;stroke-linejoin:round;stroke:rgb(92.155457%,9.803772%,13.725281%);stroke-opacity:1;stroke-miterlimit:4;"
       d="M 29.082031 99.6875 L 29.175781 99.636719 L 32.230469 98.4375 L 35.640625 97.421875 L 38.734375 96.691406 L 45.386719 95.53125 L 51.792969 94.738281 L 58.609375 94.109375 L 65.167969 93.640625 L 71.476563 93.277344 L 78.195313 92.957031 L 84.660156 92.699219 L 91.53125 92.46875 L 98.152344 92.273438 L 104.519531 92.113281 L 111.296875 91.960938 L 117.820313 91.828125 L 124.09375 91.71875 L 130.773438 91.609375 L 137.203125 91.515625 L 144.039063 91.425781 L 150.621094 91.347656 L 156.953125 91.273438 L 163.695313 91.207031 L 170.179688 91.144531 L 170.707031 91.132813 "
       id="path188" />
    <path
       style="fill:none;stroke-width:1.2;stroke-linecap:round;stroke-linejoin:round;stroke:rgb(49.803162%,49.803162%,49.803162%);stroke-opacity:1;stroke-miterlimit:4;"
       d="M 12.464844 89.316406 L 170.707031 89.316406 "
       id="path190" />
    <path
       style=" stroke:none;fill-rule:nonzero;fill:rgb(12.940979%,11.764526%,11.764526%);fill-opacity:1;"
       d="M 185.695313 100.597656 C 185.398438 100.988281 185.179688 101.269531 185.007813 101.269531 C 184.992188 101.269531 184.882813 101.238281 184.882813 101.113281 C 184.882813 100.863281 185.554688 98.785156 185.554688 98.425781 C 185.554688 98.082031 185.351563 97.878906 184.976563 97.878906 C 184.273438 97.878906 183.507813 99.050781 183.101563 99.660156 L 183.085938 99.644531 L 183.632813 97.894531 L 183.601563 97.878906 C 183.148438 97.972656 182.695313 98.050781 182.242188 98.128906 L 182.242188 98.269531 C 182.695313 98.269531 182.773438 98.363281 182.773438 98.488281 C 182.773438 98.660156 182.210938 100.628906 181.960938 101.582031 L 182.585938 101.582031 C 182.929688 100.441406 183.039063 100.082031 183.429688 99.503906 C 183.726563 99.019531 184.257813 98.300781 184.664063 98.300781 C 184.820313 98.300781 184.867188 98.425781 184.867188 98.566406 C 184.867188 98.910156 184.242188 100.957031 184.242188 101.160156 C 184.242188 101.410156 184.257813 101.660156 184.648438 101.660156 C 185.101563 101.660156 185.398438 101.269531 185.820313 100.707031 Z M 185.695313 100.597656 "
       id="path192" />
    <g
       clip-path="url(#clip22)"
       clip-rule="nonzero"
       id="g196">
      <path
         style=" stroke:none;fill-rule:nonzero;fill:rgb(12.940979%,11.764526%,11.764526%);fill-opacity:1;"
         d="M 187.316406 98.050781 C 187.660156 97.300781 188.066406 96.394531 188.066406 96.238281 C 188.066406 96.097656 187.972656 95.988281 187.785156 95.988281 C 187.613281 95.988281 187.394531 96.113281 187.332031 96.332031 C 187.269531 96.597656 187.191406 97.582031 187.144531 98.050781 Z M 187.316406 98.050781 "
         id="path194" />
    </g>
    <path
       style=" stroke:none;fill-rule:nonzero;fill:rgb(12.940979%,11.764526%,11.764526%);fill-opacity:1;"
       d="M 14.214844 0 L 10.042969 0 L 10.042969 0.125 C 10.464844 0.15625 10.683594 0.203125 10.683594 0.5 C 10.683594 0.59375 10.621094 0.921875 10.589844 1.015625 L 9.558594 4.734375 C 9.417969 5.25 9.292969 5.28125 8.871094 5.34375 L 8.871094 5.484375 L 13.136719 5.484375 L 13.667969 4.125 L 13.527344 4.0625 C 12.933594 4.890625 12.574219 5.203125 10.949219 5.203125 C 10.730469 5.203125 10.371094 5.1875 10.371094 4.921875 C 10.371094 4.8125 10.402344 4.671875 10.933594 2.734375 C 12.308594 2.765625 12.308594 2.765625 12.308594 3.1875 C 12.308594 3.3125 12.277344 3.453125 12.246094 3.578125 L 12.417969 3.625 L 12.996094 1.671875 L 12.839844 1.640625 C 12.746094 1.8125 12.683594 1.984375 12.605469 2.09375 C 12.417969 2.359375 12.371094 2.4375 11.011719 2.453125 L 11.574219 0.484375 C 11.621094 0.328125 11.636719 0.265625 12.246094 0.265625 C 13.824219 0.265625 13.839844 0.453125 13.777344 1.265625 L 13.949219 1.28125 Z M 14.214844 0 "
       id="path198" />
    <path
       style=" stroke:none;fill-rule:nonzero;fill:rgb(12.940979%,11.764526%,11.764526%);fill-opacity:1;"
       d="M 70.613281 76.199219 L 66.441406 76.199219 L 66.441406 76.324219 C 66.863281 76.355469 67.082031 76.402344 67.082031 76.699219 C 67.082031 76.792969 67.019531 77.121094 66.988281 77.214844 L 65.957031 80.933594 C 65.816406 81.449219 65.691406 81.480469 65.269531 81.542969 L 65.269531 81.683594 L 69.535156 81.683594 L 70.066406 80.324219 L 69.925781 80.261719 C 69.332031 81.089844 68.972656 81.402344 67.347656 81.402344 C 67.128906 81.402344 66.769531 81.386719 66.769531 81.121094 C 66.769531 81.011719 66.800781 80.871094 67.332031 78.933594 C 68.707031 78.964844 68.707031 78.964844 68.707031 79.386719 C 68.707031 79.511719 68.675781 79.652344 68.644531 79.777344 L 68.816406 79.824219 L 69.394531 77.871094 L 69.238281 77.839844 C 69.144531 78.011719 69.082031 78.183594 69.003906 78.292969 C 68.816406 78.558594 68.769531 78.636719 67.410156 78.652344 L 67.972656 76.683594 C 68.019531 76.527344 68.035156 76.464844 68.644531 76.464844 C 70.222656 76.464844 70.238281 76.652344 70.175781 77.464844 L 70.347656 77.480469 Z M 70.613281 76.199219 "
       id="path200" />
    <path
       style=" stroke:none;fill-rule:nonzero;fill:rgb(12.940979%,11.764526%,11.764526%);fill-opacity:1;"
       d="M 72.371094 80.65625 L 71.839844 80.65625 L 72.027344 79.984375 C 72.042969 79.9375 72.027344 79.875 71.980469 79.890625 C 71.917969 79.875 71.902344 79.9375 71.871094 79.96875 C 71.683594 80.1875 71.371094 80.484375 71.152344 80.609375 C 71.042969 80.65625 70.855469 80.703125 70.808594 80.765625 C 70.792969 80.796875 70.792969 80.828125 70.792969 80.875 L 71.292969 80.875 L 70.808594 82.6875 C 70.792969 82.796875 70.667969 83.1875 70.667969 83.296875 C 70.667969 83.484375 70.839844 83.5625 70.980469 83.5625 C 71.324219 83.5625 71.574219 83.265625 71.917969 82.765625 L 71.824219 82.71875 C 71.667969 82.921875 71.433594 83.234375 71.308594 83.234375 C 71.230469 83.234375 71.199219 83.1875 71.199219 83.125 C 71.199219 83.109375 71.199219 83.09375 71.199219 83.0625 L 71.777344 80.875 L 72.339844 80.875 Z M 72.371094 80.65625 "
       id="path202" />
    <path
       style=" stroke:none;fill-rule:nonzero;fill:rgb(12.940979%,11.764526%,11.764526%);fill-opacity:1;"
       d="M 73.253906 81.828125 C 73.503906 81.234375 73.941406 80.734375 74.300781 80.734375 C 74.472656 80.734375 74.535156 80.859375 74.535156 80.984375 C 74.535156 81.046875 74.503906 81.84375 73.144531 82.109375 Z M 74.613281 82.765625 C 74.285156 83.03125 74.003906 83.265625 73.644531 83.265625 C 73.378906 83.265625 73.035156 83.109375 73.035156 82.65625 C 73.035156 82.53125 73.066406 82.390625 73.097656 82.265625 L 73.285156 82.234375 C 74.347656 82.078125 74.972656 81.546875 74.972656 81.03125 C 74.972656 80.734375 74.769531 80.578125 74.425781 80.578125 C 73.503906 80.578125 72.457031 81.6875 72.457031 82.625 C 72.457031 83.046875 72.675781 83.5625 73.363281 83.5625 C 74.019531 83.5625 74.613281 82.953125 74.691406 82.84375 Z M 74.613281 82.765625 "
       id="path204" />
    <path
       style=" stroke:none;fill-rule:nonzero;fill:rgb(12.940979%,11.764526%,11.764526%);fill-opacity:1;"
       d="M 75.417969 82.515625 L 75.292969 83.5625 L 75.402344 83.5625 C 75.433594 83.5 75.464844 83.4375 75.558594 83.4375 C 75.746094 83.4375 76.011719 83.5625 76.199219 83.5625 C 76.574219 83.5625 77.183594 83.390625 77.183594 82.671875 C 77.183594 82.109375 76.386719 81.53125 76.386719 81.109375 C 76.386719 80.78125 76.589844 80.734375 76.746094 80.734375 C 77.167969 80.734375 77.324219 81.109375 77.355469 81.484375 L 77.464844 81.484375 L 77.589844 80.5625 L 77.511719 80.5625 C 77.464844 80.625 77.433594 80.6875 77.324219 80.6875 C 77.121094 80.6875 76.996094 80.578125 76.699219 80.578125 C 75.996094 80.578125 75.902344 81.109375 75.902344 81.3125 C 75.902344 81.8125 76.683594 82.453125 76.683594 82.890625 C 76.683594 83.109375 76.574219 83.421875 76.214844 83.421875 C 75.683594 83.421875 75.574219 82.8125 75.527344 82.515625 Z M 75.417969 82.515625 "
       id="path206" />
    <path
       style=" stroke:none;fill-rule:nonzero;fill:rgb(12.940979%,11.764526%,11.764526%);fill-opacity:1;"
       d="M 79.703125 80.65625 L 79.171875 80.65625 L 79.359375 79.984375 C 79.375 79.9375 79.359375 79.875 79.3125 79.890625 C 79.25 79.875 79.234375 79.9375 79.203125 79.96875 C 79.015625 80.1875 78.703125 80.484375 78.484375 80.609375 C 78.375 80.65625 78.1875 80.703125 78.140625 80.765625 C 78.125 80.796875 78.125 80.828125 78.125 80.875 L 78.625 80.875 L 78.140625 82.6875 C 78.125 82.796875 78 83.1875 78 83.296875 C 78 83.484375 78.171875 83.5625 78.3125 83.5625 C 78.65625 83.5625 78.90625 83.265625 79.25 82.765625 L 79.15625 82.71875 C 79 82.921875 78.765625 83.234375 78.640625 83.234375 C 78.5625 83.234375 78.53125 83.1875 78.53125 83.125 C 78.53125 83.109375 78.53125 83.09375 78.53125 83.0625 L 79.109375 80.875 L 79.671875 80.875 Z M 79.703125 80.65625 "
       id="path208" />
    <path
       style=" stroke:none;fill-rule:nonzero;fill:rgb(100%,0%,0%);fill-opacity:1;"
       d="M 145.613281 92.101563 L 141.441406 92.101563 L 141.441406 92.226563 C 141.863281 92.257813 142.082031 92.304688 142.082031 92.601563 C 142.082031 92.695313 142.019531 93.023438 141.988281 93.117188 L 140.957031 96.835938 C 140.816406 97.351563 140.691406 97.382813 140.269531 97.445313 L 140.269531 97.585938 L 144.535156 97.585938 L 145.066406 96.226563 L 144.925781 96.164063 C 144.332031 96.992188 143.972656 97.304688 142.347656 97.304688 C 142.128906 97.304688 141.769531 97.289063 141.769531 97.023438 C 141.769531 96.914063 141.800781 96.773438 142.332031 94.835938 C 143.707031 94.867188 143.707031 94.867188 143.707031 95.289063 C 143.707031 95.414063 143.675781 95.554688 143.644531 95.679688 L 143.816406 95.726563 L 144.394531 93.773438 L 144.238281 93.742188 C 144.144531 93.914063 144.082031 94.085938 144.003906 94.195313 C 143.816406 94.460938 143.769531 94.539063 142.410156 94.554688 L 142.972656 92.585938 C 143.019531 92.429688 143.035156 92.367188 143.644531 92.367188 C 145.222656 92.367188 145.238281 92.554688 145.175781 93.367188 L 145.347656 93.382813 Z M 145.613281 92.101563 "
       id="path210" />
    <path
       style=" stroke:none;fill-rule:nonzero;fill:rgb(100%,0%,0%);fill-opacity:1;"
       d="M 147.371094 96.554688 L 146.839844 96.554688 L 147.027344 95.882813 C 147.042969 95.835938 147.027344 95.773438 146.980469 95.789063 C 146.917969 95.773438 146.902344 95.835938 146.871094 95.867188 C 146.683594 96.085938 146.371094 96.382813 146.152344 96.507813 C 146.042969 96.554688 145.855469 96.601563 145.808594 96.664063 C 145.792969 96.695313 145.792969 96.726563 145.792969 96.773438 L 146.292969 96.773438 L 145.808594 98.585938 C 145.792969 98.695313 145.667969 99.085938 145.667969 99.195313 C 145.667969 99.382813 145.839844 99.460938 145.980469 99.460938 C 146.324219 99.460938 146.574219 99.164063 146.917969 98.664063 L 146.824219 98.617188 C 146.667969 98.820313 146.433594 99.132813 146.308594 99.132813 C 146.230469 99.132813 146.199219 99.085938 146.199219 99.023438 C 146.199219 99.007813 146.199219 98.992188 146.199219 98.960938 L 146.777344 96.773438 L 147.339844 96.773438 Z M 147.371094 96.554688 "
       id="path212" />
    <path
       style=" stroke:none;fill-rule:nonzero;fill:rgb(100%,0%,0%);fill-opacity:1;"
       d="M 148.050781 99.382813 C 148.316406 98.507813 148.410156 98.210938 148.660156 97.742188 C 148.722656 97.632813 149.113281 96.898438 149.316406 96.898438 C 149.472656 96.898438 149.378906 97.148438 149.660156 97.148438 C 149.738281 97.148438 149.972656 97.148438 149.972656 96.804688 C 149.972656 96.570313 149.800781 96.476563 149.660156 96.476563 C 149.238281 96.476563 148.738281 97.242188 148.519531 97.679688 L 148.472656 97.820313 L 148.457031 97.804688 L 148.769531 96.492188 L 148.753906 96.476563 C 148.457031 96.523438 148.066406 96.601563 147.738281 96.648438 L 147.738281 96.757813 C 147.800781 96.757813 147.878906 96.726563 147.957031 96.726563 C 148.160156 96.726563 148.191406 96.835938 148.191406 96.929688 C 148.191406 96.992188 148.144531 97.210938 148.082031 97.460938 L 147.550781 99.382813 Z M 148.050781 99.382813 "
       id="path214" />
    <path
       style=" stroke:none;fill-rule:nonzero;fill:rgb(100%,0%,0%);fill-opacity:1;"
       d="M 152.882813 98.664063 C 152.585938 98.945313 152.445313 99.117188 152.351563 99.117188 C 152.304688 99.117188 152.257813 99.070313 152.257813 99.023438 C 152.257813 98.820313 152.867188 96.570313 152.882813 96.492188 L 152.835938 96.476563 L 152.445313 96.523438 L 152.414063 96.539063 L 152.351563 96.835938 L 152.335938 96.835938 C 152.320313 96.648438 152.101563 96.476563 151.820313 96.476563 C 150.945313 96.476563 149.929688 97.710938 149.929688 98.679688 C 149.929688 98.867188 149.945313 99.460938 150.617188 99.460938 C 151.007813 99.460938 151.351563 99.257813 151.898438 98.445313 L 151.914063 98.460938 C 151.804688 98.867188 151.773438 99.007813 151.773438 99.164063 C 151.773438 99.273438 151.773438 99.445313 152.054688 99.445313 C 152.335938 99.445313 152.570313 99.210938 152.960938 98.726563 Z M 150.492188 98.664063 C 150.492188 98.070313 151.085938 96.617188 151.851563 96.617188 C 152.039063 96.617188 152.226563 96.742188 152.226563 97.054688 C 152.226563 97.710938 151.585938 99.132813 150.882813 99.132813 C 150.710938 99.132813 150.492188 99.007813 150.492188 98.664063 Z M 150.492188 98.664063 "
       id="path216" />
    <path
       style=" stroke:none;fill-rule:nonzero;fill:rgb(100%,0%,0%);fill-opacity:1;"
       d="M 154.589844 98.632813 C 154.308594 99.007813 154.121094 99.148438 154.042969 99.148438 C 153.980469 99.148438 153.933594 99.085938 153.933594 99.039063 C 153.933594 98.960938 154.011719 98.710938 154.042969 98.617188 L 154.621094 96.492188 L 154.605469 96.476563 C 154.339844 96.523438 153.792969 96.632813 153.542969 96.632813 L 153.542969 96.742188 C 153.917969 96.742188 153.964844 96.773438 153.964844 96.914063 C 153.964844 97.101563 153.449219 98.742188 153.449219 99.039063 C 153.449219 99.164063 153.449219 99.460938 153.761719 99.460938 C 154.121094 99.460938 154.417969 99.085938 154.667969 98.710938 Z M 154.855469 95.429688 C 154.855469 95.289063 154.746094 95.070313 154.527344 95.070313 C 154.371094 95.070313 154.214844 95.195313 154.214844 95.429688 C 154.214844 95.664063 154.371094 95.773438 154.542969 95.773438 C 154.761719 95.773438 154.855469 95.570313 154.855469 95.429688 Z M 154.855469 95.429688 "
       id="path218" />
    <path
       style=" stroke:none;fill-rule:nonzero;fill:rgb(100%,0%,0%);fill-opacity:1;"
       d="M 157.988281 98.617188 C 157.753906 98.914063 157.582031 99.132813 157.457031 99.132813 C 157.441406 99.132813 157.347656 99.117188 157.347656 99.023438 C 157.347656 98.820313 157.878906 97.195313 157.878906 96.914063 C 157.878906 96.632813 157.722656 96.476563 157.410156 96.476563 C 156.863281 96.476563 156.269531 97.398438 155.957031 97.882813 L 155.941406 97.867188 L 156.363281 96.492188 L 156.347656 96.476563 C 155.988281 96.554688 155.628906 96.617188 155.269531 96.679688 L 155.269531 96.789063 C 155.628906 96.789063 155.691406 96.851563 155.691406 96.960938 C 155.691406 97.101563 155.253906 98.632813 155.050781 99.382813 L 155.550781 99.382813 C 155.816406 98.492188 155.894531 98.195313 156.207031 97.742188 C 156.441406 97.382813 156.863281 96.804688 157.175781 96.804688 C 157.300781 96.804688 157.332031 96.898438 157.332031 97.023438 C 157.332031 97.289063 156.847656 98.898438 156.847656 99.054688 C 156.847656 99.242188 156.863281 99.445313 157.160156 99.445313 C 157.519531 99.445313 157.753906 99.132813 158.082031 98.695313 Z M 157.988281 98.617188 "
       id="path220" />
    <path
       style=" stroke:none;fill-rule:nonzero;fill:rgb(12.940979%,11.764526%,11.764526%);fill-opacity:1;"
       d="M 8.5 89.496094 C 8.015625 89.964844 7.796875 90.246094 7.625 90.246094 C 7.546875 90.246094 7.484375 90.183594 7.484375 90.105469 C 7.484375 89.761719 8.46875 86.089844 8.5 85.949219 L 8.421875 85.917969 L 7.765625 85.996094 L 7.734375 86.027344 L 7.625 86.511719 L 7.609375 86.511719 C 7.578125 86.199219 7.21875 85.917969 6.75 85.917969 C 5.3125 85.917969 3.671875 87.933594 3.671875 89.527344 C 3.671875 89.839844 3.703125 90.808594 4.78125 90.808594 C 5.421875 90.808594 6 90.480469 6.890625 89.167969 L 6.921875 89.183594 C 6.75 89.839844 6.6875 90.074219 6.6875 90.324219 C 6.6875 90.511719 6.6875 90.792969 7.140625 90.792969 C 7.609375 90.792969 7.96875 90.402344 8.625 89.605469 Z M 4.578125 89.511719 C 4.578125 88.527344 5.546875 86.152344 6.8125 86.152344 C 7.125 86.152344 7.421875 86.371094 7.421875 86.886719 C 7.421875 87.933594 6.359375 90.277344 5.21875 90.277344 C 4.9375 90.277344 4.578125 90.074219 4.578125 89.511719 Z M 4.578125 89.511719 "
       id="path222" />
  </g>
</svg>
