<?xml version="1.0" encoding="UTF-8" standalone="no"?>
<svg
   xmlns:dc="http://purl.org/dc/elements/1.1/"
   xmlns:cc="http://creativecommons.org/ns#"
   xmlns:rdf="http://www.w3.org/1999/02/22-rdf-syntax-ns#"
   xmlns:svg="http://www.w3.org/2000/svg"
   xmlns="http://www.w3.org/2000/svg"
   xmlns:sodipodi="http://sodipodi.sourceforge.net/DTD/sodipodi-0.dtd"
   xmlns:inkscape="http://www.inkscape.org/namespaces/inkscape"
   width="185.917267pt"
   height="126.531586pt"
   viewBox="0 0 185.917267 126.531586"
   version="1.2"
   id="svg211"
   sodipodi:docname="learning_rate.svg"
   inkscape:version="0.92.4 (5da689c313, 2019-01-14)">
  <metadata
     id="metadata215">
    <rdf:RDF>
      <cc:Work
         rdf:about="">
        <dc:format>image/svg+xml</dc:format>
        <dc:type
           rdf:resource="http://purl.org/dc/dcmitype/StillImage" />
        <dc:title></dc:title>
      </cc:Work>
    </rdf:RDF>
  </metadata>
  <sodipodi:namedview
     pagecolor="#ffffff"
     bordercolor="#666666"
     borderopacity="1"
     objecttolerance="10"
     gridtolerance="10"
     guidetolerance="10"
     inkscape:pageopacity="0"
     inkscape:pageshadow="2"
     inkscape:window-width="661"
     inkscape:window-height="480"
     id="namedview213"
     showgrid="false"
     inkscape:zoom="1.2666925"
     inkscape:cx="123.94484"
     inkscape:cy="84.35439"
     inkscape:window-x="0"
     inkscape:window-y="0"
     inkscape:window-maximized="0"
     inkscape:current-layer="svg211" />
  <defs
     id="defs68">
    <clipPath
       id="clip1">
      <path
         d="M 34 121 L 38 121 L 38 126.53125 L 34 126.53125 Z M 34 121 "
         id="path2" />
    </clipPath>
    <clipPath
       id="clip2">
      <path
         d="M 37 121 L 42 121 L 42 126.53125 L 37 126.53125 Z M 37 121 "
         id="path5" />
    </clipPath>
    <clipPath
       id="clip3">
      <path
         d="M 41 121 L 45 121 L 45 126.53125 L 41 126.53125 Z M 41 121 "
         id="path8" />
    </clipPath>
    <clipPath
       id="clip4">
      <path
         d="M 45 121 L 49 121 L 49 126.53125 L 45 126.53125 Z M 45 121 "
         id="path11" />
    </clipPath>
    <clipPath
       id="clip5">
      <path
         d="M 66 121 L 70 121 L 70 126.53125 L 66 126.53125 Z M 66 121 "
         id="path14" />
    </clipPath>
    <clipPath
       id="clip6">
      <path
         d="M 69 121 L 74 121 L 74 126.53125 L 69 126.53125 Z M 69 121 "
         id="path17" />
    </clipPath>
    <clipPath
       id="clip7">
      <path
         d="M 73 121 L 77 121 L 77 126.53125 L 73 126.53125 Z M 73 121 "
         id="path20" />
    </clipPath>
    <clipPath
       id="clip8">
      <path
         d="M 77 121 L 81 121 L 81 126.53125 L 77 126.53125 Z M 77 121 "
         id="path23" />
    </clipPath>
    <clipPath
       id="clip9">
      <path
         d="M 98 121 L 103 121 L 103 126.53125 L 98 126.53125 Z M 98 121 "
         id="path26" />
    </clipPath>
    <clipPath
       id="clip10">
      <path
         d="M 102 121 L 106 121 L 106 126.53125 L 102 126.53125 Z M 102 121 "
         id="path29" />
    </clipPath>
    <clipPath
       id="clip11">
      <path
         d="M 106 121 L 110 121 L 110 126.53125 L 106 126.53125 Z M 106 121 "
         id="path32" />
    </clipPath>
    <clipPath
       id="clip12">
      <path
         d="M 109 121 L 114 121 L 114 126.53125 L 109 126.53125 Z M 109 121 "
         id="path35" />
    </clipPath>
    <clipPath
       id="clip13">
      <path
         d="M 130 121 L 134 121 L 134 126.53125 L 130 126.53125 Z M 130 121 "
         id="path38" />
    </clipPath>
    <clipPath
       id="clip14">
      <path
         d="M 133 121 L 138 121 L 138 126.53125 L 133 126.53125 Z M 133 121 "
         id="path41" />
    </clipPath>
    <clipPath
       id="clip15">
      <path
         d="M 137 121 L 141 121 L 141 126.53125 L 137 126.53125 Z M 137 121 "
         id="path44" />
    </clipPath>
    <clipPath
       id="clip16">
      <path
         d="M 141 121 L 145 121 L 145 126.53125 L 141 126.53125 Z M 141 121 "
         id="path47" />
    </clipPath>
    <clipPath
       id="clip17">
      <path
         d="M 161 121 L 165 121 L 165 126.53125 L 161 126.53125 Z M 161 121 "
         id="path50" />
    </clipPath>
    <clipPath
       id="clip18">
      <path
         d="M 164 121 L 169 121 L 169 126.53125 L 164 126.53125 Z M 164 121 "
         id="path53" />
    </clipPath>
    <clipPath
       id="clip19">
      <path
         d="M 168 121 L 172 121 L 172 126.53125 L 168 126.53125 Z M 168 121 "
         id="path56" />
    </clipPath>
    <clipPath
       id="clip20">
      <path
         d="M 172 121 L 176 121 L 176 126.53125 L 172 126.53125 Z M 172 121 "
         id="path59" />
    </clipPath>
    <clipPath
       id="clip21">
      <path
         d="M 175 121 L 180 121 L 180 126.53125 L 175 126.53125 Z M 175 121 "
         id="path62" />
    </clipPath>
    <clipPath
       id="clip22">
      <path
         d="M 184 115 L 185.917969 115 L 185.917969 118 L 184 118 Z M 184 115 "
         id="path65" />
    </clipPath>
  </defs>
  <g
     id="surface36">
    <g
       clip-path="url(#clip1)"
       clip-rule="nonzero"
       id="g72">
      <path
         style=" stroke:none;fill-rule:nonzero;fill:rgb(12.940979%,11.764526%,11.764526%);fill-opacity:1;"
         d="M 37.007813 125.484375 C 36.898438 125.75 36.773438 125.9375 36.304688 125.9375 L 34.929688 125.9375 L 34.929688 125.90625 L 36.320313 124.515625 C 37.210938 123.625 37.382813 123.296875 37.382813 122.8125 C 37.382813 122.28125 36.992188 121.609375 36.226563 121.609375 C 36.039063 121.609375 35.101563 121.640625 34.710938 122.765625 L 34.867188 122.8125 C 34.960938 122.640625 35.242188 122.140625 35.882813 122.140625 C 36.445313 122.140625 36.773438 122.578125 36.773438 123.015625 C 36.773438 123.25 36.742188 123.671875 35.726563 124.75 L 34.226563 126.359375 L 34.226563 126.484375 L 36.773438 126.484375 L 37.132813 125.53125 Z M 37.007813 125.484375 "
         id="path70" />
    </g>
    <g
       clip-path="url(#clip2)"
       clip-rule="nonzero"
       id="g76">
      <path
         style=" stroke:none;fill-rule:nonzero;fill:rgb(12.940979%,11.764526%,11.764526%);fill-opacity:1;"
         d="M 38.53125 125.359375 C 38.53125 124.65625 39.046875 121.8125 40.125 121.8125 C 40.75 121.8125 40.75 122.546875 40.75 122.765625 C 40.75 124.03125 40.125 126.328125 39.15625 126.328125 C 38.9375 126.328125 38.53125 126.203125 38.53125 125.359375 Z M 41.3125 123.421875 C 41.3125 122.703125 41.125 121.609375 40.15625 121.609375 C 39.15625 121.609375 37.96875 123.09375 37.96875 125.046875 C 37.96875 125.796875 38.375 126.53125 39.125 126.53125 C 40.328125 126.53125 41.3125 124.84375 41.3125 123.421875 Z M 41.3125 123.421875 "
         id="path74" />
    </g>
    <g
       clip-path="url(#clip3)"
       clip-rule="nonzero"
       id="g80">
      <path
         style=" stroke:none;fill-rule:nonzero;fill:rgb(12.940979%,11.764526%,11.764526%);fill-opacity:1;"
         d="M 42.128906 125.359375 C 42.128906 124.65625 42.644531 121.8125 43.722656 121.8125 C 44.347656 121.8125 44.347656 122.546875 44.347656 122.765625 C 44.347656 124.03125 43.722656 126.328125 42.753906 126.328125 C 42.535156 126.328125 42.128906 126.203125 42.128906 125.359375 Z M 44.910156 123.421875 C 44.910156 122.703125 44.722656 121.609375 43.753906 121.609375 C 42.753906 121.609375 41.566406 123.09375 41.566406 125.046875 C 41.566406 125.796875 41.972656 126.53125 42.722656 126.53125 C 43.925781 126.53125 44.910156 124.84375 44.910156 123.421875 Z M 44.910156 123.421875 "
         id="path78" />
    </g>
    <g
       clip-path="url(#clip4)"
       clip-rule="nonzero"
       id="g84">
      <path
         style=" stroke:none;fill-rule:nonzero;fill:rgb(12.940979%,11.764526%,11.764526%);fill-opacity:1;"
         d="M 45.730469 125.359375 C 45.730469 124.65625 46.246094 121.8125 47.324219 121.8125 C 47.949219 121.8125 47.949219 122.546875 47.949219 122.765625 C 47.949219 124.03125 47.324219 126.328125 46.355469 126.328125 C 46.136719 126.328125 45.730469 126.203125 45.730469 125.359375 Z M 48.511719 123.421875 C 48.511719 122.703125 48.324219 121.609375 47.355469 121.609375 C 46.355469 121.609375 45.167969 123.09375 45.167969 125.046875 C 45.167969 125.796875 45.574219 126.53125 46.324219 126.53125 C 47.527344 126.53125 48.511719 124.84375 48.511719 123.421875 Z M 48.511719 123.421875 "
         id="path82" />
    </g>
    <g
       clip-path="url(#clip5)"
       clip-rule="nonzero"
       id="g88">
      <path
         style=" stroke:none;fill-rule:nonzero;fill:rgb(12.940979%,11.764526%,11.764526%);fill-opacity:1;"
         d="M 68.101563 124.75 L 66.570313 124.75 L 66.570313 124.71875 L 68.757813 122.421875 L 68.789063 122.421875 Z M 69.367188 124.75 L 68.679688 124.75 L 69.554688 121.609375 L 69.257813 121.609375 L 66.257813 124.71875 L 66.101563 125.203125 L 67.992188 125.203125 L 67.648438 126.484375 L 68.210938 126.484375 L 68.539063 125.21875 L 69.257813 125.21875 Z M 69.367188 124.75 "
         id="path86" />
    </g>
    <g
       clip-path="url(#clip6)"
       clip-rule="nonzero"
       id="g92">
      <path
         style=" stroke:none;fill-rule:nonzero;fill:rgb(12.940979%,11.764526%,11.764526%);fill-opacity:1;"
         d="M 70.496094 125.359375 C 70.496094 124.65625 71.011719 121.8125 72.089844 121.8125 C 72.714844 121.8125 72.714844 122.546875 72.714844 122.765625 C 72.714844 124.03125 72.089844 126.328125 71.121094 126.328125 C 70.902344 126.328125 70.496094 126.203125 70.496094 125.359375 Z M 73.277344 123.421875 C 73.277344 122.703125 73.089844 121.609375 72.121094 121.609375 C 71.121094 121.609375 69.933594 123.09375 69.933594 125.046875 C 69.933594 125.796875 70.339844 126.53125 71.089844 126.53125 C 72.292969 126.53125 73.277344 124.84375 73.277344 123.421875 Z M 73.277344 123.421875 "
         id="path90" />
    </g>
    <g
       clip-path="url(#clip7)"
       clip-rule="nonzero"
       id="g96">
      <path
         style=" stroke:none;fill-rule:nonzero;fill:rgb(12.940979%,11.764526%,11.764526%);fill-opacity:1;"
         d="M 74.097656 125.359375 C 74.097656 124.65625 74.613281 121.8125 75.691406 121.8125 C 76.316406 121.8125 76.316406 122.546875 76.316406 122.765625 C 76.316406 124.03125 75.691406 126.328125 74.722656 126.328125 C 74.503906 126.328125 74.097656 126.203125 74.097656 125.359375 Z M 76.878906 123.421875 C 76.878906 122.703125 76.691406 121.609375 75.722656 121.609375 C 74.722656 121.609375 73.535156 123.09375 73.535156 125.046875 C 73.535156 125.796875 73.941406 126.53125 74.691406 126.53125 C 75.894531 126.53125 76.878906 124.84375 76.878906 123.421875 Z M 76.878906 123.421875 "
         id="path94" />
    </g>
    <g
       clip-path="url(#clip8)"
       clip-rule="nonzero"
       id="g100">
      <path
         style=" stroke:none;fill-rule:nonzero;fill:rgb(12.940979%,11.764526%,11.764526%);fill-opacity:1;"
         d="M 77.695313 125.359375 C 77.695313 124.65625 78.210938 121.8125 79.289063 121.8125 C 79.914063 121.8125 79.914063 122.546875 79.914063 122.765625 C 79.914063 124.03125 79.289063 126.328125 78.320313 126.328125 C 78.101563 126.328125 77.695313 126.203125 77.695313 125.359375 Z M 80.476563 123.421875 C 80.476563 122.703125 80.289063 121.609375 79.320313 121.609375 C 78.320313 121.609375 77.132813 123.09375 77.132813 125.046875 C 77.132813 125.796875 77.539063 126.53125 78.289063 126.53125 C 79.492188 126.53125 80.476563 124.84375 80.476563 123.421875 Z M 80.476563 123.421875 "
         id="path98" />
    </g>
    <g
       clip-path="url(#clip9)"
       clip-rule="nonzero"
       id="g104">
      <path
         style=" stroke:none;fill-rule:nonzero;fill:rgb(12.940979%,11.764526%,11.764526%);fill-opacity:1;"
         d="M 102.421875 121.546875 C 100.21875 121.6875 98.890625 123.484375 98.890625 124.96875 C 98.890625 126.15625 99.59375 126.53125 100.1875 126.53125 C 101.40625 126.53125 102 125.3125 102 124.59375 C 102 123.5625 101.265625 123.265625 100.78125 123.265625 C 100.65625 123.265625 100.546875 123.28125 100.4375 123.3125 C 100.328125 123.328125 100.234375 123.359375 100.140625 123.421875 L 100.109375 123.40625 C 100.28125 123.046875 101.15625 121.828125 102.421875 121.65625 Z M 100.5 123.53125 C 101.046875 123.53125 101.34375 123.875 101.34375 124.453125 C 101.34375 125.109375 100.96875 126.34375 100.140625 126.34375 C 99.4375 126.34375 99.4375 125.546875 99.4375 125.359375 C 99.4375 125.234375 99.5 123.53125 100.5 123.53125 Z M 100.5 123.53125 "
         id="path102" />
    </g>
    <g
       clip-path="url(#clip10)"
       clip-rule="nonzero"
       id="g108">
      <path
         style=" stroke:none;fill-rule:nonzero;fill:rgb(12.940979%,11.764526%,11.764526%);fill-opacity:1;"
         d="M 103.066406 125.359375 C 103.066406 124.65625 103.582031 121.8125 104.660156 121.8125 C 105.285156 121.8125 105.285156 122.546875 105.285156 122.765625 C 105.285156 124.03125 104.660156 126.328125 103.691406 126.328125 C 103.472656 126.328125 103.066406 126.203125 103.066406 125.359375 Z M 105.847656 123.421875 C 105.847656 122.703125 105.660156 121.609375 104.691406 121.609375 C 103.691406 121.609375 102.503906 123.09375 102.503906 125.046875 C 102.503906 125.796875 102.910156 126.53125 103.660156 126.53125 C 104.863281 126.53125 105.847656 124.84375 105.847656 123.421875 Z M 105.847656 123.421875 "
         id="path106" />
    </g>
    <g
       clip-path="url(#clip11)"
       clip-rule="nonzero"
       id="g112">
      <path
         style=" stroke:none;fill-rule:nonzero;fill:rgb(12.940979%,11.764526%,11.764526%);fill-opacity:1;"
         d="M 106.667969 125.359375 C 106.667969 124.65625 107.183594 121.8125 108.261719 121.8125 C 108.886719 121.8125 108.886719 122.546875 108.886719 122.765625 C 108.886719 124.03125 108.261719 126.328125 107.292969 126.328125 C 107.074219 126.328125 106.667969 126.203125 106.667969 125.359375 Z M 109.449219 123.421875 C 109.449219 122.703125 109.261719 121.609375 108.292969 121.609375 C 107.292969 121.609375 106.105469 123.09375 106.105469 125.046875 C 106.105469 125.796875 106.511719 126.53125 107.261719 126.53125 C 108.464844 126.53125 109.449219 124.84375 109.449219 123.421875 Z M 109.449219 123.421875 "
         id="path110" />
    </g>
    <g
       clip-path="url(#clip12)"
       clip-rule="nonzero"
       id="g116">
      <path
         style=" stroke:none;fill-rule:nonzero;fill:rgb(12.940979%,11.764526%,11.764526%);fill-opacity:1;"
         d="M 110.265625 125.359375 C 110.265625 124.65625 110.78125 121.8125 111.859375 121.8125 C 112.484375 121.8125 112.484375 122.546875 112.484375 122.765625 C 112.484375 124.03125 111.859375 126.328125 110.890625 126.328125 C 110.671875 126.328125 110.265625 126.203125 110.265625 125.359375 Z M 113.046875 123.421875 C 113.046875 122.703125 112.859375 121.609375 111.890625 121.609375 C 110.890625 121.609375 109.703125 123.09375 109.703125 125.046875 C 109.703125 125.796875 110.109375 126.53125 110.859375 126.53125 C 112.0625 126.53125 113.046875 124.84375 113.046875 123.421875 Z M 113.046875 123.421875 "
         id="path114" />
    </g>
    <g
       clip-path="url(#clip13)"
       clip-rule="nonzero"
       id="g120">
      <path
         style=" stroke:none;fill-rule:nonzero;fill:rgb(12.940979%,11.764526%,11.764526%);fill-opacity:1;"
         d="M 130.257813 125.359375 C 130.257813 125.5625 130.414063 126.53125 131.695313 126.53125 C 132.664063 126.53125 133.242188 125.890625 133.242188 125.28125 C 133.242188 124.71875 132.945313 124.265625 132.414063 123.734375 C 132.804688 123.609375 133.585938 123.34375 133.585938 122.640625 C 133.585938 121.859375 132.804688 121.609375 132.335938 121.609375 C 131.664063 121.609375 131.039063 121.96875 131.039063 122.703125 C 131.039063 123.078125 131.226563 123.421875 131.664063 123.890625 C 131.492188 123.9375 130.257813 124.3125 130.257813 125.359375 Z M 130.742188 125.375 C 130.742188 124.453125 131.632813 124.0625 131.820313 124 C 132.523438 124.734375 132.695313 124.921875 132.695313 125.375 C 132.695313 126.078125 132.132813 126.375 131.742188 126.375 C 131.132813 126.375 130.742188 125.9375 130.742188 125.375 Z M 131.601563 122.578125 C 131.601563 122.09375 131.867188 121.78125 132.335938 121.78125 C 132.914063 121.78125 133.101563 122.28125 133.101563 122.625 C 133.101563 123.21875 132.679688 123.421875 132.273438 123.609375 C 131.601563 122.984375 131.601563 122.765625 131.601563 122.578125 Z M 131.601563 122.578125 "
         id="path118" />
    </g>
    <g
       clip-path="url(#clip14)"
       clip-rule="nonzero"
       id="g124">
      <path
         style=" stroke:none;fill-rule:nonzero;fill:rgb(12.940979%,11.764526%,11.764526%);fill-opacity:1;"
         d="M 134.433594 125.359375 C 134.433594 124.65625 134.949219 121.8125 136.027344 121.8125 C 136.652344 121.8125 136.652344 122.546875 136.652344 122.765625 C 136.652344 124.03125 136.027344 126.328125 135.058594 126.328125 C 134.839844 126.328125 134.433594 126.203125 134.433594 125.359375 Z M 137.214844 123.421875 C 137.214844 122.703125 137.027344 121.609375 136.058594 121.609375 C 135.058594 121.609375 133.871094 123.09375 133.871094 125.046875 C 133.871094 125.796875 134.277344 126.53125 135.027344 126.53125 C 136.230469 126.53125 137.214844 124.84375 137.214844 123.421875 Z M 137.214844 123.421875 "
         id="path122" />
    </g>
    <g
       clip-path="url(#clip15)"
       clip-rule="nonzero"
       id="g128">
      <path
         style=" stroke:none;fill-rule:nonzero;fill:rgb(12.940979%,11.764526%,11.764526%);fill-opacity:1;"
         d="M 138.035156 125.359375 C 138.035156 124.65625 138.550781 121.8125 139.628906 121.8125 C 140.253906 121.8125 140.253906 122.546875 140.253906 122.765625 C 140.253906 124.03125 139.628906 126.328125 138.660156 126.328125 C 138.441406 126.328125 138.035156 126.203125 138.035156 125.359375 Z M 140.816406 123.421875 C 140.816406 122.703125 140.628906 121.609375 139.660156 121.609375 C 138.660156 121.609375 137.472656 123.09375 137.472656 125.046875 C 137.472656 125.796875 137.878906 126.53125 138.628906 126.53125 C 139.832031 126.53125 140.816406 124.84375 140.816406 123.421875 Z M 140.816406 123.421875 "
         id="path126" />
    </g>
    <g
       clip-path="url(#clip16)"
       clip-rule="nonzero"
       id="g132">
      <path
         style=" stroke:none;fill-rule:nonzero;fill:rgb(12.940979%,11.764526%,11.764526%);fill-opacity:1;"
         d="M 141.632813 125.359375 C 141.632813 124.65625 142.148438 121.8125 143.226563 121.8125 C 143.851563 121.8125 143.851563 122.546875 143.851563 122.765625 C 143.851563 124.03125 143.226563 126.328125 142.257813 126.328125 C 142.039063 126.328125 141.632813 126.203125 141.632813 125.359375 Z M 144.414063 123.421875 C 144.414063 122.703125 144.226563 121.609375 143.257813 121.609375 C 142.257813 121.609375 141.070313 123.09375 141.070313 125.046875 C 141.070313 125.796875 141.476563 126.53125 142.226563 126.53125 C 143.429688 126.53125 144.414063 124.84375 144.414063 123.421875 Z M 144.414063 123.421875 "
         id="path130" />
    </g>
    <g
       clip-path="url(#clip17)"
       clip-rule="nonzero"
       id="g136">
      <path
         style=" stroke:none;fill-rule:nonzero;fill:rgb(12.940979%,11.764526%,11.764526%);fill-opacity:1;"
         d="M 161.464844 126.484375 L 163.464844 126.484375 L 163.464844 126.375 C 163.105469 126.390625 162.855469 126.359375 162.855469 126.140625 C 162.855469 126.015625 162.949219 125.75 162.980469 125.609375 L 164.011719 121.875 C 164.042969 121.765625 164.074219 121.609375 164.027344 121.609375 C 163.964844 121.609375 162.964844 121.828125 162.621094 121.890625 L 162.621094 122 L 163.042969 121.984375 C 163.105469 121.984375 163.308594 121.984375 163.308594 122.21875 C 163.308594 122.265625 163.277344 122.375 163.261719 122.453125 L 162.261719 126 C 162.167969 126.3125 161.886719 126.34375 161.464844 126.390625 Z M 161.464844 126.484375 "
         id="path134" />
    </g>
    <g
       clip-path="url(#clip18)"
       clip-rule="nonzero"
       id="g140">
      <path
         style=" stroke:none;fill-rule:nonzero;fill:rgb(12.940979%,11.764526%,11.764526%);fill-opacity:1;"
         d="M 165.503906 125.359375 C 165.503906 124.65625 166.019531 121.8125 167.097656 121.8125 C 167.722656 121.8125 167.722656 122.546875 167.722656 122.765625 C 167.722656 124.03125 167.097656 126.328125 166.128906 126.328125 C 165.910156 126.328125 165.503906 126.203125 165.503906 125.359375 Z M 168.285156 123.421875 C 168.285156 122.703125 168.097656 121.609375 167.128906 121.609375 C 166.128906 121.609375 164.941406 123.09375 164.941406 125.046875 C 164.941406 125.796875 165.347656 126.53125 166.097656 126.53125 C 167.300781 126.53125 168.285156 124.84375 168.285156 123.421875 Z M 168.285156 123.421875 "
         id="path138" />
    </g>
    <g
       clip-path="url(#clip19)"
       clip-rule="nonzero"
       id="g144">
      <path
         style=" stroke:none;fill-rule:nonzero;fill:rgb(12.940979%,11.764526%,11.764526%);fill-opacity:1;"
         d="M 169.101563 125.359375 C 169.101563 124.65625 169.617188 121.8125 170.695313 121.8125 C 171.320313 121.8125 171.320313 122.546875 171.320313 122.765625 C 171.320313 124.03125 170.695313 126.328125 169.726563 126.328125 C 169.507813 126.328125 169.101563 126.203125 169.101563 125.359375 Z M 171.882813 123.421875 C 171.882813 122.703125 171.695313 121.609375 170.726563 121.609375 C 169.726563 121.609375 168.539063 123.09375 168.539063 125.046875 C 168.539063 125.796875 168.945313 126.53125 169.695313 126.53125 C 170.898438 126.53125 171.882813 124.84375 171.882813 123.421875 Z M 171.882813 123.421875 "
         id="path142" />
    </g>
    <g
       clip-path="url(#clip20)"
       clip-rule="nonzero"
       id="g148">
      <path
         style=" stroke:none;fill-rule:nonzero;fill:rgb(12.940979%,11.764526%,11.764526%);fill-opacity:1;"
         d="M 172.703125 125.359375 C 172.703125 124.65625 173.21875 121.8125 174.296875 121.8125 C 174.921875 121.8125 174.921875 122.546875 174.921875 122.765625 C 174.921875 124.03125 174.296875 126.328125 173.328125 126.328125 C 173.109375 126.328125 172.703125 126.203125 172.703125 125.359375 Z M 175.484375 123.421875 C 175.484375 122.703125 175.296875 121.609375 174.328125 121.609375 C 173.328125 121.609375 172.140625 123.09375 172.140625 125.046875 C 172.140625 125.796875 172.546875 126.53125 173.296875 126.53125 C 174.5 126.53125 175.484375 124.84375 175.484375 123.421875 Z M 175.484375 123.421875 "
         id="path146" />
    </g>
    <g
       clip-path="url(#clip21)"
       clip-rule="nonzero"
       id="g152">
      <path
         style=" stroke:none;fill-rule:nonzero;fill:rgb(12.940979%,11.764526%,11.764526%);fill-opacity:1;"
         d="M 176.304688 125.359375 C 176.304688 124.65625 176.820313 121.8125 177.898438 121.8125 C 178.523438 121.8125 178.523438 122.546875 178.523438 122.765625 C 178.523438 124.03125 177.898438 126.328125 176.929688 126.328125 C 176.710938 126.328125 176.304688 126.203125 176.304688 125.359375 Z M 179.085938 123.421875 C 179.085938 122.703125 178.898438 121.609375 177.929688 121.609375 C 176.929688 121.609375 175.742188 123.09375 175.742188 125.046875 C 175.742188 125.796875 176.148438 126.53125 176.898438 126.53125 C 178.101563 126.53125 179.085938 124.84375 179.085938 123.421875 Z M 179.085938 123.421875 "
         id="path150" />
    </g>
    <path
       style="fill:none;stroke-width:0.6;stroke-linecap:round;stroke-linejoin:round;stroke:rgb(12.940979%,11.764526%,11.764526%);stroke-opacity:1;stroke-miterlimit:4;"
       d="M 9.566406 118.789063 L 173.199219 118.789063 "
       id="path154" />
    <path
       style=" stroke:none;fill-rule:nonzero;fill:rgb(12.940979%,11.764526%,11.764526%);fill-opacity:1;"
       d="M 174.617188 118.171875 C 173.625 117.875 172.980469 117.597656 172.183594 117.277344 L 172.183594 120.304688 C 172.46875 120.167969 173.625 119.710938 174.617188 119.410156 C 175.679688 119.089844 176.640625 118.871094 177.265625 118.792969 C 176.640625 118.710938 175.679688 118.492188 174.617188 118.171875 "
       id="path156" />
    <path
       style=" stroke:none;fill-rule:nonzero;fill:rgb(12.940979%,11.764526%,11.764526%);fill-opacity:1;"
       d="M 0.5625 99.515625 C 0.5625 98.8125 1.078125 95.96875 2.15625 95.96875 C 2.78125 95.96875 2.78125 96.703125 2.78125 96.921875 C 2.78125 98.1875 2.15625 100.484375 1.1875 100.484375 C 0.96875 100.484375 0.5625 100.359375 0.5625 99.515625 Z M 3.34375 97.578125 C 3.34375 96.859375 3.15625 95.765625 2.1875 95.765625 C 1.1875 95.765625 0 97.25 0 99.203125 C 0 99.953125 0.40625 100.6875 1.15625 100.6875 C 2.359375 100.6875 3.34375 99 3.34375 97.578125 Z M 3.34375 97.578125 "
       id="path158" />
    <path
       style=" stroke:none;fill-rule:nonzero;fill:rgb(12.940979%,11.764526%,11.764526%);fill-opacity:1;"
       d="M 3.960938 100.71875 C 4.101563 100.71875 4.367188 100.59375 4.367188 100.328125 C 4.367188 100.109375 4.179688 99.921875 3.960938 99.921875 C 3.742188 99.921875 3.554688 100.09375 3.554688 100.328125 C 3.554688 100.609375 3.804688 100.71875 3.960938 100.71875 Z M 3.960938 100.71875 "
       id="path160" />
    <path
       style=" stroke:none;fill-rule:nonzero;fill:rgb(12.940979%,11.764526%,11.764526%);fill-opacity:1;"
       d="M 8.039063 99.640625 C 7.929688 99.90625 7.804688 100.09375 7.335938 100.09375 L 5.960938 100.09375 L 5.960938 100.0625 L 7.351563 98.671875 C 8.242188 97.78125 8.414063 97.453125 8.414063 96.96875 C 8.414063 96.4375 8.023438 95.765625 7.257813 95.765625 C 7.070313 95.765625 6.132813 95.796875 5.742188 96.921875 L 5.898438 96.96875 C 5.992188 96.796875 6.273438 96.296875 6.914063 96.296875 C 7.476563 96.296875 7.804688 96.734375 7.804688 97.171875 C 7.804688 97.40625 7.773438 97.828125 6.757813 98.90625 L 5.257813 100.515625 L 5.257813 100.640625 L 7.804688 100.640625 L 8.164063 99.6875 Z M 8.039063 99.640625 "
       id="path162" />
    <path
       style=" stroke:none;fill-rule:nonzero;fill:rgb(12.940979%,11.764526%,11.764526%);fill-opacity:1;"
       d="M 0.5625 78.773438 C 0.5625 78.070313 1.078125 75.226563 2.15625 75.226563 C 2.78125 75.226563 2.78125 75.960938 2.78125 76.179688 C 2.78125 77.445313 2.15625 79.742188 1.1875 79.742188 C 0.96875 79.742188 0.5625 79.617188 0.5625 78.773438 Z M 3.34375 76.835938 C 3.34375 76.117188 3.15625 75.023438 2.1875 75.023438 C 1.1875 75.023438 0 76.507813 0 78.460938 C 0 79.210938 0.40625 79.945313 1.15625 79.945313 C 2.359375 79.945313 3.34375 78.257813 3.34375 76.835938 Z M 3.34375 76.835938 "
       id="path164" />
    <path
       style=" stroke:none;fill-rule:nonzero;fill:rgb(12.940979%,11.764526%,11.764526%);fill-opacity:1;"
       d="M 3.960938 79.976563 C 4.101563 79.976563 4.367188 79.851563 4.367188 79.585938 C 4.367188 79.367188 4.179688 79.179688 3.960938 79.179688 C 3.742188 79.179688 3.554688 79.351563 3.554688 79.585938 C 3.554688 79.867188 3.804688 79.976563 3.960938 79.976563 Z M 3.960938 79.976563 "
       id="path166" />
    <path
       style=" stroke:none;fill-rule:nonzero;fill:rgb(12.940979%,11.764526%,11.764526%);fill-opacity:1;"
       d="M 7.164063 78.164063 L 5.632813 78.164063 L 5.632813 78.132813 L 7.820313 75.835938 L 7.851563 75.835938 Z M 8.429688 78.164063 L 7.742188 78.164063 L 8.617188 75.023438 L 8.320313 75.023438 L 5.320313 78.132813 L 5.164063 78.617188 L 7.054688 78.617188 L 6.710938 79.898438 L 7.273438 79.898438 L 7.601563 78.632813 L 8.320313 78.632813 Z M 8.429688 78.164063 "
       id="path168" />
    <path
       style=" stroke:none;fill-rule:nonzero;fill:rgb(12.940979%,11.764526%,11.764526%);fill-opacity:1;"
       d="M 0.5625 58.027344 C 0.5625 57.324219 1.078125 54.480469 2.15625 54.480469 C 2.78125 54.480469 2.78125 55.214844 2.78125 55.433594 C 2.78125 56.699219 2.15625 58.996094 1.1875 58.996094 C 0.96875 58.996094 0.5625 58.871094 0.5625 58.027344 Z M 3.34375 56.089844 C 3.34375 55.371094 3.15625 54.277344 2.1875 54.277344 C 1.1875 54.277344 0 55.761719 0 57.714844 C 0 58.464844 0.40625 59.199219 1.15625 59.199219 C 2.359375 59.199219 3.34375 57.511719 3.34375 56.089844 Z M 3.34375 56.089844 "
       id="path170" />
    <path
       style=" stroke:none;fill-rule:nonzero;fill:rgb(12.940979%,11.764526%,11.764526%);fill-opacity:1;"
       d="M 3.960938 59.230469 C 4.101563 59.230469 4.367188 59.105469 4.367188 58.839844 C 4.367188 58.621094 4.179688 58.433594 3.960938 58.433594 C 3.742188 58.433594 3.554688 58.605469 3.554688 58.839844 C 3.554688 59.121094 3.804688 59.230469 3.960938 59.230469 Z M 3.960938 59.230469 "
       id="path172" />
    <path
       style=" stroke:none;fill-rule:nonzero;fill:rgb(12.940979%,11.764526%,11.764526%);fill-opacity:1;"
       d="M 8.914063 54.214844 C 6.710938 54.355469 5.382813 56.152344 5.382813 57.636719 C 5.382813 58.824219 6.085938 59.199219 6.679688 59.199219 C 7.898438 59.199219 8.492188 57.980469 8.492188 57.261719 C 8.492188 56.230469 7.757813 55.933594 7.273438 55.933594 C 7.148438 55.933594 7.039063 55.949219 6.929688 55.980469 C 6.820313 55.996094 6.726563 56.027344 6.632813 56.089844 L 6.601563 56.074219 C 6.773438 55.714844 7.648438 54.496094 8.914063 54.324219 Z M 6.992188 56.199219 C 7.539063 56.199219 7.835938 56.542969 7.835938 57.121094 C 7.835938 57.777344 7.460938 59.011719 6.632813 59.011719 C 5.929688 59.011719 5.929688 58.214844 5.929688 58.027344 C 5.929688 57.902344 5.992188 56.199219 6.992188 56.199219 Z M 6.992188 56.199219 "
       id="path174" />
    <path
       style=" stroke:none;fill-rule:nonzero;fill:rgb(12.940979%,11.764526%,11.764526%);fill-opacity:1;"
       d="M 0.5625 37.28125 C 0.5625 36.578125 1.078125 33.734375 2.15625 33.734375 C 2.78125 33.734375 2.78125 34.46875 2.78125 34.6875 C 2.78125 35.953125 2.15625 38.25 1.1875 38.25 C 0.96875 38.25 0.5625 38.125 0.5625 37.28125 Z M 3.34375 35.34375 C 3.34375 34.625 3.15625 33.53125 2.1875 33.53125 C 1.1875 33.53125 0 35.015625 0 36.96875 C 0 37.71875 0.40625 38.453125 1.15625 38.453125 C 2.359375 38.453125 3.34375 36.765625 3.34375 35.34375 Z M 3.34375 35.34375 "
       id="path176" />
    <path
       style=" stroke:none;fill-rule:nonzero;fill:rgb(12.940979%,11.764526%,11.764526%);fill-opacity:1;"
       d="M 3.960938 38.484375 C 4.101563 38.484375 4.367188 38.359375 4.367188 38.09375 C 4.367188 37.875 4.179688 37.6875 3.960938 37.6875 C 3.742188 37.6875 3.554688 37.859375 3.554688 38.09375 C 3.554688 38.375 3.804688 38.484375 3.960938 38.484375 Z M 3.960938 38.484375 "
       id="path178" />
    <path
       style=" stroke:none;fill-rule:nonzero;fill:rgb(12.940979%,11.764526%,11.764526%);fill-opacity:1;"
       d="M 5.382813 37.28125 C 5.382813 37.484375 5.539063 38.453125 6.820313 38.453125 C 7.789063 38.453125 8.367188 37.8125 8.367188 37.203125 C 8.367188 36.640625 8.070313 36.1875 7.539063 35.65625 C 7.929688 35.53125 8.710938 35.265625 8.710938 34.5625 C 8.710938 33.78125 7.929688 33.53125 7.460938 33.53125 C 6.789063 33.53125 6.164063 33.890625 6.164063 34.625 C 6.164063 35 6.351563 35.34375 6.789063 35.8125 C 6.617188 35.859375 5.382813 36.234375 5.382813 37.28125 Z M 5.867188 37.296875 C 5.867188 36.375 6.757813 35.984375 6.945313 35.921875 C 7.648438 36.65625 7.820313 36.84375 7.820313 37.296875 C 7.820313 38 7.257813 38.296875 6.867188 38.296875 C 6.257813 38.296875 5.867188 37.859375 5.867188 37.296875 Z M 6.726563 34.5 C 6.726563 34.015625 6.992188 33.703125 7.460938 33.703125 C 8.039063 33.703125 8.226563 34.203125 8.226563 34.546875 C 8.226563 35.140625 7.804688 35.34375 7.398438 35.53125 C 6.726563 34.90625 6.726563 34.6875 6.726563 34.5 Z M 6.726563 34.5 "
       id="path180" />
    <path
       style=" stroke:none;fill-rule:nonzero;fill:rgb(12.940979%,11.764526%,11.764526%);fill-opacity:1;"
       d="M 4.625 17.660156 L 6.625 17.660156 L 6.625 17.550781 C 6.265625 17.566406 6.015625 17.535156 6.015625 17.316406 C 6.015625 17.191406 6.109375 16.925781 6.140625 16.785156 L 7.171875 13.050781 C 7.203125 12.941406 7.234375 12.785156 7.1875 12.785156 C 7.125 12.785156 6.125 13.003906 5.78125 13.066406 L 5.78125 13.175781 L 6.203125 13.160156 C 6.265625 13.160156 6.46875 13.160156 6.46875 13.394531 C 6.46875 13.441406 6.4375 13.550781 6.421875 13.628906 L 5.421875 17.175781 C 5.328125 17.488281 5.046875 17.519531 4.625 17.566406 Z M 4.625 17.660156 "
       id="path182" />
    <path
       style="fill:none;stroke-width:0.6;stroke-linecap:round;stroke-linejoin:round;stroke:rgb(12.940979%,11.764526%,11.764526%);stroke-opacity:1;stroke-miterlimit:4;"
       d="M 9.363281 118.789063 L 9.363281 11.144531 "
       id="path184" />
    <path
       style=" stroke:none;fill-rule:nonzero;fill:rgb(12.940979%,11.764526%,11.764526%);fill-opacity:1;"
       d="M 8.75 9.726563 C 8.449219 10.71875 8.171875 11.367188 7.851563 12.160156 L 10.878906 12.160156 C 10.746094 11.875 10.285156 10.71875 9.984375 9.726563 C 9.664063 8.667969 9.445313 7.703125 9.367188 7.078125 C 9.289063 7.703125 9.070313 8.667969 8.75 9.726563 "
       id="path186" />
    <path
       style="fill:none;stroke-width:1.2;stroke-linecap:round;stroke-linejoin:round;stroke:rgb(12.940979%,11.764526%,11.764526%);stroke-opacity:1;stroke-miterlimit:4;"
       d="M 13.003906 15.0625 L 13.308594 19.234375 L 14.085938 27.757813 L 14.90625 34.734375 L 15.667969 39.917969 L 17.382813 48.800781 L 19 54.898438 L 20.78125 60.050781 L 24.382813 67.511719 L 27.605469 72.214844 L 31.074219 76.054688 L 34.351563 78.917969 L 37.925781 81.460938 L 44.523438 85.09375 L 51.277344 87.882813 L 57.777344 90 L 64.6875 91.824219 L 71.34375 93.285156 L 77.75 94.484375 L 84.5625 95.585938 L 91.125 96.515625 L 97.433594 97.308594 L 104.152344 98.0625 L 110.617188 98.71875 L 117.488281 99.351563 L 124.109375 99.90625 L 130.476563 100.394531 L 137.253906 100.875 L 143.777344 101.304688 L 150.050781 101.683594 L 156.730469 102.066406 L 163.15625 102.410156 L 169.207031 102.710938 "
       id="path188" />
    <path
       style="fill:none;stroke-width:1.2;stroke-linecap:round;stroke-linejoin:round;stroke:rgb(38.822937%,38.822937%,38.822937%);stroke-opacity:1;stroke-miterlimit:4;"
       d="M 10.960938 55.515625 L 11.335938 57.648438 L 11.734375 59.445313 L 12.453125 61.921875 L 13.308594 64.085938 L 14.085938 65.621094 L 15.78125 68.101563 L 17.382813 69.8125 L 20.738281 72.351563 L 22.632813 73.414063 L 24.382813 74.246094 L 27.757813 75.5625 L 30.921875 76.554688 L 37.207031 78.09375 L 43.648438 79.289063 L 50.5 80.292969 L 57.097656 81.085938 L 63.441406 81.734375 L 70.195313 82.332031 L 76.699219 82.832031 L 83.605469 83.308594 L 90.265625 83.71875 L 96.667969 84.078125 L 103.484375 84.425781 L 110.042969 84.730469 L 116.351563 85.003906 L 123.070313 85.277344 L 129.53125 85.519531 L 136.40625 85.761719 L 143.027344 85.976563 L 149.394531 86.179688 L 156.171875 86.375 L 162.695313 86.558594 L 168.96875 86.726563 L 169.207031 86.726563 "
       id="path190" />
    <path
       style="fill:none;stroke-width:1.2;stroke-linecap:round;stroke-linejoin:round;stroke:rgb(69.018555%,69.018555%,69.018555%);stroke-opacity:1;stroke-miterlimit:4;"
       d="M 10.960938 71.074219 L 11.335938 71.96875 L 11.734375 72.726563 L 12.453125 73.765625 L 13.308594 74.675781 L 14.085938 75.316406 L 15.78125 76.359375 L 17.382813 77.082031 L 20.738281 78.144531 L 22.632813 78.59375 L 24.382813 78.9375 L 27.757813 79.496094 L 30.921875 79.910156 L 37.207031 80.554688 L 43.648438 81.058594 L 50.5 81.480469 L 57.097656 81.8125 L 63.441406 82.085938 L 70.195313 82.335938 L 76.699219 82.546875 L 83.605469 82.75 L 90.265625 82.917969 L 96.667969 83.070313 L 103.484375 83.214844 L 110.042969 83.34375 L 116.351563 83.460938 L 123.070313 83.574219 L 129.53125 83.675781 L 136.40625 83.777344 L 143.027344 83.871094 L 149.394531 83.953125 L 156.171875 84.035156 L 162.695313 84.113281 L 168.96875 84.183594 L 169.207031 84.183594 "
       id="path192" />
    <path
       style=" stroke:none;fill-rule:nonzero;fill:rgb(12.940979%,11.764526%,11.764526%);fill-opacity:1;"
       d="M 183.546875 119.699219 C 183.25 120.089844 183.03125 120.371094 182.859375 120.371094 C 182.84375 120.371094 182.734375 120.339844 182.734375 120.214844 C 182.734375 119.964844 183.40625 117.886719 183.40625 117.527344 C 183.40625 117.183594 183.203125 116.980469 182.828125 116.980469 C 182.125 116.980469 181.359375 118.152344 180.953125 118.761719 L 180.9375 118.746094 L 181.484375 116.996094 L 181.453125 116.980469 C 181 117.074219 180.546875 117.152344 180.09375 117.230469 L 180.09375 117.371094 C 180.546875 117.371094 180.625 117.464844 180.625 117.589844 C 180.625 117.761719 180.0625 119.730469 179.8125 120.683594 L 180.4375 120.683594 C 180.78125 119.542969 180.890625 119.183594 181.28125 118.605469 C 181.578125 118.121094 182.109375 117.402344 182.515625 117.402344 C 182.671875 117.402344 182.71875 117.527344 182.71875 117.667969 C 182.71875 118.011719 182.09375 120.058594 182.09375 120.261719 C 182.09375 120.511719 182.109375 120.761719 182.5 120.761719 C 182.953125 120.761719 183.25 120.371094 183.671875 119.808594 Z M 183.546875 119.699219 "
       id="path194" />
    <g
       clip-path="url(#clip22)"
       clip-rule="nonzero"
       id="g198">
      <path
         style=" stroke:none;fill-rule:nonzero;fill:rgb(12.940979%,11.764526%,11.764526%);fill-opacity:1;"
         d="M 185.167969 117.152344 C 185.511719 116.402344 185.917969 115.496094 185.917969 115.339844 C 185.917969 115.199219 185.824219 115.089844 185.636719 115.089844 C 185.464844 115.089844 185.246094 115.214844 185.183594 115.433594 C 185.121094 115.699219 185.042969 116.683594 184.996094 117.152344 Z M 185.167969 117.152344 "
         id="path196" />
    </g>
    <path
       style=" stroke:none;fill-rule:nonzero;fill:rgb(12.940979%,11.764526%,11.764526%);fill-opacity:1;"
       d="M 10.714844 0 L 6.542969 0 L 6.542969 0.125 C 6.964844 0.15625 7.183594 0.203125 7.183594 0.5 C 7.183594 0.59375 7.121094 0.921875 7.089844 1.015625 L 6.058594 4.734375 C 5.917969 5.25 5.792969 5.28125 5.371094 5.34375 L 5.371094 5.484375 L 9.636719 5.484375 L 10.167969 4.125 L 10.027344 4.0625 C 9.433594 4.890625 9.074219 5.203125 7.449219 5.203125 C 7.230469 5.203125 6.871094 5.1875 6.871094 4.921875 C 6.871094 4.8125 6.902344 4.671875 7.433594 2.734375 C 8.808594 2.765625 8.808594 2.765625 8.808594 3.1875 C 8.808594 3.3125 8.777344 3.453125 8.746094 3.578125 L 8.917969 3.625 L 9.496094 1.671875 L 9.339844 1.640625 C 9.246094 1.8125 9.183594 1.984375 9.105469 2.09375 C 8.917969 2.359375 8.871094 2.4375 7.511719 2.453125 L 8.074219 0.484375 C 8.121094 0.328125 8.136719 0.265625 8.746094 0.265625 C 10.324219 0.265625 10.339844 0.453125 10.277344 1.265625 L 10.449219 1.28125 Z M 10.714844 0 "
       id="path200" />
    <path
       style=" stroke:none;fill-rule:nonzero;fill:rgb(12.940979%,11.764526%,11.764526%);fill-opacity:1;"
       d="M 12.296875 5.320313 L 11.8125 5.320313 L 11.984375 4.695313 C 11.984375 4.648438 11.984375 4.601563 11.9375 4.601563 C 11.890625 4.601563 11.859375 4.648438 11.828125 4.679688 C 11.671875 4.882813 11.375 5.164063 11.1875 5.257813 C 11.078125 5.320313 10.90625 5.351563 10.875 5.414063 C 10.859375 5.445313 10.859375 5.476563 10.859375 5.507813 L 11.3125 5.507813 L 10.875 7.164063 C 10.859375 7.257813 10.734375 7.617188 10.734375 7.710938 C 10.734375 7.882813 10.90625 7.945313 11.03125 7.945313 C 11.34375 7.945313 11.578125 7.679688 11.875 7.226563 L 11.796875 7.179688 C 11.65625 7.367188 11.4375 7.648438 11.3125 7.648438 C 11.25 7.648438 11.21875 7.601563 11.21875 7.554688 C 11.21875 7.539063 11.21875 7.523438 11.234375 7.507813 L 11.75 5.507813 L 12.265625 5.507813 Z M 12.296875 5.320313 "
       id="path202" />
    <path
       style=" stroke:none;fill-rule:nonzero;fill:rgb(12.940979%,11.764526%,11.764526%);fill-opacity:1;"
       d="M 13.089844 6.367188 C 13.324219 5.835938 13.730469 5.367188 14.042969 5.367188 C 14.199219 5.367188 14.261719 5.492188 14.261719 5.617188 C 14.261719 5.664063 14.230469 6.382813 12.996094 6.632813 Z M 14.324219 7.226563 C 14.027344 7.476563 13.777344 7.679688 13.449219 7.679688 C 13.199219 7.679688 12.886719 7.539063 12.886719 7.132813 C 12.886719 7.007813 12.917969 6.898438 12.949219 6.773438 L 13.121094 6.742188 C 14.089844 6.601563 14.652344 6.117188 14.652344 5.648438 C 14.652344 5.382813 14.464844 5.242188 14.167969 5.242188 C 13.324219 5.242188 12.371094 6.242188 12.371094 7.101563 C 12.371094 7.476563 12.558594 7.945313 13.199219 7.945313 C 13.792969 7.945313 14.339844 7.398438 14.402344 7.304688 Z M 14.324219 7.226563 "
       id="path204" />
    <path
       style=" stroke:none;fill-rule:nonzero;fill:rgb(12.940979%,11.764526%,11.764526%);fill-opacity:1;"
       d="M 15.066406 7.007813 L 14.941406 7.960938 L 15.035156 7.960938 C 15.082031 7.898438 15.097656 7.835938 15.191406 7.835938 C 15.363281 7.835938 15.597656 7.945313 15.785156 7.945313 C 16.113281 7.945313 16.675781 7.804688 16.675781 7.148438 C 16.675781 6.632813 15.941406 6.101563 15.941406 5.726563 C 15.941406 5.429688 16.128906 5.367188 16.269531 5.367188 C 16.660156 5.367188 16.800781 5.726563 16.832031 6.070313 L 16.925781 6.070313 L 17.050781 5.226563 L 16.957031 5.226563 C 16.925781 5.273438 16.894531 5.335938 16.785156 5.335938 C 16.613281 5.335938 16.488281 5.242188 16.222656 5.242188 C 15.582031 5.242188 15.503906 5.710938 15.503906 5.898438 C 15.503906 6.367188 16.222656 6.945313 16.222656 7.335938 C 16.222656 7.539063 16.113281 7.820313 15.785156 7.820313 C 15.300781 7.820313 15.207031 7.273438 15.160156 7.007813 Z M 15.066406 7.007813 "
       id="path206" />
    <path
       style=" stroke:none;fill-rule:nonzero;fill:rgb(12.940979%,11.764526%,11.764526%);fill-opacity:1;"
       d="M 18.964844 5.320313 L 18.480469 5.320313 L 18.652344 4.695313 C 18.652344 4.648438 18.652344 4.601563 18.605469 4.601563 C 18.558594 4.601563 18.527344 4.648438 18.496094 4.679688 C 18.339844 4.882813 18.042969 5.164063 17.855469 5.257813 C 17.746094 5.320313 17.574219 5.351563 17.542969 5.414063 C 17.527344 5.445313 17.527344 5.476563 17.527344 5.507813 L 17.980469 5.507813 L 17.542969 7.164063 C 17.527344 7.257813 17.402344 7.617188 17.402344 7.710938 C 17.402344 7.882813 17.574219 7.945313 17.699219 7.945313 C 18.011719 7.945313 18.246094 7.679688 18.542969 7.226563 L 18.464844 7.179688 C 18.324219 7.367188 18.105469 7.648438 17.980469 7.648438 C 17.917969 7.648438 17.886719 7.601563 17.886719 7.554688 C 17.886719 7.539063 17.886719 7.523438 17.902344 7.507813 L 18.417969 5.507813 L 18.933594 5.507813 Z M 18.964844 5.320313 "
       id="path208" />
  </g>
</svg>
