<?xml version="1.0" encoding="UTF-8" standalone="no"?>
<svg
   xmlns:dc="http://purl.org/dc/elements/1.1/"
   xmlns:cc="http://creativecommons.org/ns#"
   xmlns:rdf="http://www.w3.org/1999/02/22-rdf-syntax-ns#"
   xmlns:svg="http://www.w3.org/2000/svg"
   xmlns="http://www.w3.org/2000/svg"
   xmlns:sodipodi="http://sodipodi.sourceforge.net/DTD/sodipodi-0.dtd"
   xmlns:inkscape="http://www.inkscape.org/namespaces/inkscape"
   width="230.745636pt"
   height="93.191406pt"
   viewBox="0 0 230.745636 93.191406"
   version="1.2"
   id="svg209"
   sodipodi:docname="leave_one_out_estimates.svg"
   inkscape:version="0.92.4 (5da689c313, 2019-01-14)">
  <metadata
     id="metadata213">
    <rdf:RDF>
      <cc:Work
         rdf:about="">
        <dc:format>image/svg+xml</dc:format>
        <dc:type
           rdf:resource="http://purl.org/dc/dcmitype/StillImage" />
        <dc:title></dc:title>
      </cc:Work>
    </rdf:RDF>
  </metadata>
  <sodipodi:namedview
     pagecolor="#ffffff"
     bordercolor="#666666"
     borderopacity="1"
     objecttolerance="10"
     gridtolerance="10"
     guidetolerance="10"
     inkscape:pageopacity="0"
     inkscape:pageshadow="2"
     inkscape:window-width="661"
     inkscape:window-height="480"
     id="namedview211"
     showgrid="false"
     inkscape:zoom="1.0206044"
     inkscape:cx="153.83042"
     inkscape:cy="62.127604"
     inkscape:window-x="0"
     inkscape:window-y="0"
     inkscape:window-maximized="0"
     inkscape:current-layer="svg209" />
  <defs
     id="defs8">
    <clipPath
       id="clip1">
      <path
         d="M 228 66 L 230.746094 66 L 230.746094 73 L 228 73 Z M 228 66 "
         id="path2" />
    </clipPath>
    <clipPath
       id="clip2">
      <path
         d="M 74 90 L 149 90 L 149 93.191406 L 74 93.191406 Z M 74 90 "
         id="path5" />
    </clipPath>
  </defs>
  <g
     id="surface36">
    <path
       style="fill:none;stroke-width:0.3;stroke-linecap:butt;stroke-linejoin:miter;stroke:rgb(12.940979%,11.764526%,11.764526%);stroke-opacity:1;stroke-miterlimit:4;"
       d="M 31.972656 4.066406 L 31.972656 69.265625 L 185.574219 69.265625 "
       id="path10" />
    <path
       style=" stroke:none;fill-rule:nonzero;fill:rgb(12.940979%,11.764526%,11.764526%);fill-opacity:1;"
       d="M 186.992188 68.652344 C 186 68.351563 185.355469 68.078125 184.558594 67.757813 L 184.558594 70.785156 C 184.84375 70.648438 186 70.1875 186.992188 69.890625 C 188.054688 69.566406 189.015625 69.347656 189.640625 69.269531 C 189.015625 69.191406 188.054688 68.972656 186.992188 68.652344 "
       id="path12" />
    <path
       style=" stroke:none;fill-rule:nonzero;fill:rgb(12.940979%,11.764526%,11.764526%);fill-opacity:1;"
       d="M 31.359375 2.648438 C 31.058594 3.640625 30.785156 4.285156 30.464844 5.082031 L 33.492188 5.082031 C 33.355469 4.796875 32.894531 3.640625 32.597656 2.648438 C 32.277344 1.589844 32.054688 0.625 31.976563 0 C 31.902344 0.625 31.679688 1.589844 31.359375 2.648438 "
       id="path14" />
    <path
       style="fill:none;stroke-width:0.3;stroke-linecap:butt;stroke-linejoin:miter;stroke:rgb(12.940979%,11.764526%,11.764526%);stroke-opacity:1;stroke-miterlimit:4;"
       d="M 45.175781 69.265625 L 45.175781 73.667969 M 178.011719 69.265625 L 178.011719 73.667969 M 67.316406 69.265625 L 67.316406 73.667969 M 89.453125 69.265625 L 89.453125 73.667969 M 111.59375 69.265625 L 111.59375 73.667969 M 133.734375 69.265625 L 133.734375 73.667969 M 155.871094 69.265625 L 155.871094 73.667969 "
       id="path16" />
    <path
       style=" stroke:none;fill-rule:nonzero;fill:rgb(100%,100%,100%);fill-opacity:1;"
       d="M 34.632813 66.46875 L 39.316406 66.46875 L 39.316406 73.867188 L 34.632813 73.867188 Z M 34.632813 66.46875 "
       id="path18" />
    <path
       style=" stroke:none;fill-rule:nonzero;fill:rgb(12.940979%,11.764526%,11.764526%);fill-opacity:1;"
       d="M 45.050781 77.347656 L 45.003906 77.269531 L 42.300781 77.269531 L 41.722656 78.253906 L 41.816406 78.316406 C 42.066406 78.019531 42.253906 77.800781 42.769531 77.800781 L 44.378906 77.800781 L 44.394531 77.816406 L 41.738281 82.128906 L 42.253906 82.128906 Z M 45.050781 77.347656 "
       id="path20" />
    <path
       style=" stroke:none;fill-rule:nonzero;fill:rgb(12.940979%,11.764526%,11.764526%);fill-opacity:1;"
       d="M 45.570313 80.941406 C 45.570313 80.238281 46.085938 77.394531 47.164063 77.394531 C 47.789063 77.394531 47.789063 78.128906 47.789063 78.347656 C 47.789063 79.613281 47.164063 81.910156 46.195313 81.910156 C 45.976563 81.910156 45.570313 81.785156 45.570313 80.941406 Z M 48.351563 79.003906 C 48.351563 78.285156 48.164063 77.191406 47.195313 77.191406 C 46.195313 77.191406 45.007813 78.675781 45.007813 80.628906 C 45.007813 81.378906 45.414063 82.113281 46.164063 82.113281 C 47.367188 82.113281 48.351563 80.425781 48.351563 79.003906 Z M 48.351563 79.003906 "
       id="path22" />
    <path
       style=" stroke:none;fill-rule:nonzero;fill:rgb(12.940979%,11.764526%,11.764526%);fill-opacity:1;"
       d="M 67.28125 77.347656 L 67.234375 77.269531 L 64.53125 77.269531 L 63.953125 78.253906 L 64.046875 78.316406 C 64.296875 78.019531 64.484375 77.800781 65 77.800781 L 66.609375 77.800781 L 66.625 77.816406 L 63.96875 82.128906 L 64.484375 82.128906 Z M 67.28125 77.347656 "
       id="path24" />
    <path
       style=" stroke:none;fill-rule:nonzero;fill:rgb(12.940979%,11.764526%,11.764526%);fill-opacity:1;"
       d="M 68.726563 77.785156 L 70.382813 77.785156 L 70.539063 77.269531 L 68.695313 77.269531 L 67.945313 78.832031 L 67.945313 78.941406 C 68.789063 79.128906 69.523438 79.285156 69.523438 80.394531 C 69.523438 81.019531 69.007813 81.816406 68.304688 81.816406 C 67.914063 81.816406 67.726563 81.425781 67.398438 81.425781 C 67.273438 81.425781 67.117188 81.503906 67.117188 81.707031 C 67.117188 81.910156 67.335938 82.113281 67.851563 82.113281 C 69.257813 82.113281 70.023438 81.003906 70.023438 80.082031 C 70.023438 79.113281 69.382813 78.597656 68.445313 78.410156 Z M 68.726563 77.785156 "
       id="path26" />
    <path
       style=" stroke:none;fill-rule:nonzero;fill:rgb(12.940979%,11.764526%,11.764526%);fill-opacity:1;"
       d="M 85.859375 80.941406 C 85.859375 81.144531 86.015625 82.113281 87.296875 82.113281 C 88.265625 82.113281 88.84375 81.472656 88.84375 80.863281 C 88.84375 80.300781 88.546875 79.847656 88.015625 79.316406 C 88.40625 79.191406 89.1875 78.925781 89.1875 78.222656 C 89.1875 77.441406 88.40625 77.191406 87.9375 77.191406 C 87.265625 77.191406 86.640625 77.550781 86.640625 78.285156 C 86.640625 78.660156 86.828125 79.003906 87.265625 79.472656 C 87.09375 79.519531 85.859375 79.894531 85.859375 80.941406 Z M 86.34375 80.957031 C 86.34375 80.035156 87.234375 79.644531 87.421875 79.582031 C 88.125 80.316406 88.296875 80.503906 88.296875 80.957031 C 88.296875 81.660156 87.734375 81.957031 87.34375 81.957031 C 86.734375 81.957031 86.34375 81.519531 86.34375 80.957031 Z M 87.203125 78.160156 C 87.203125 77.675781 87.46875 77.363281 87.9375 77.363281 C 88.515625 77.363281 88.703125 77.863281 88.703125 78.207031 C 88.703125 78.800781 88.28125 79.003906 87.875 79.191406 C 87.203125 78.566406 87.203125 78.347656 87.203125 78.160156 Z M 87.203125 78.160156 "
       id="path28" />
    <path
       style=" stroke:none;fill-rule:nonzero;fill:rgb(12.940979%,11.764526%,11.764526%);fill-opacity:1;"
       d="M 90.039063 80.941406 C 90.039063 80.238281 90.554688 77.394531 91.632813 77.394531 C 92.257813 77.394531 92.257813 78.128906 92.257813 78.347656 C 92.257813 79.613281 91.632813 81.910156 90.664063 81.910156 C 90.445313 81.910156 90.039063 81.785156 90.039063 80.941406 Z M 92.820313 79.003906 C 92.820313 78.285156 92.632813 77.191406 91.664063 77.191406 C 90.664063 77.191406 89.476563 78.675781 89.476563 80.628906 C 89.476563 81.378906 89.882813 82.113281 90.632813 82.113281 C 91.835938 82.113281 92.820313 80.425781 92.820313 79.003906 Z M 92.820313 79.003906 "
       id="path30" />
    <path
       style=" stroke:none;fill-rule:nonzero;fill:rgb(12.940979%,11.764526%,11.764526%);fill-opacity:1;"
       d="M 108.09375 80.941406 C 108.09375 81.144531 108.25 82.113281 109.53125 82.113281 C 110.5 82.113281 111.078125 81.472656 111.078125 80.863281 C 111.078125 80.300781 110.78125 79.847656 110.25 79.316406 C 110.640625 79.191406 111.421875 78.925781 111.421875 78.222656 C 111.421875 77.441406 110.640625 77.191406 110.171875 77.191406 C 109.5 77.191406 108.875 77.550781 108.875 78.285156 C 108.875 78.660156 109.0625 79.003906 109.5 79.472656 C 109.328125 79.519531 108.09375 79.894531 108.09375 80.941406 Z M 108.578125 80.957031 C 108.578125 80.035156 109.46875 79.644531 109.65625 79.582031 C 110.359375 80.316406 110.53125 80.503906 110.53125 80.957031 C 110.53125 81.660156 109.96875 81.957031 109.578125 81.957031 C 108.96875 81.957031 108.578125 81.519531 108.578125 80.957031 Z M 109.4375 78.160156 C 109.4375 77.675781 109.703125 77.363281 110.171875 77.363281 C 110.75 77.363281 110.9375 77.863281 110.9375 78.207031 C 110.9375 78.800781 110.515625 79.003906 110.109375 79.191406 C 109.4375 78.566406 109.4375 78.347656 109.4375 78.160156 Z M 109.4375 78.160156 "
       id="path32" />
    <path
       style=" stroke:none;fill-rule:nonzero;fill:rgb(12.940979%,11.764526%,11.764526%);fill-opacity:1;"
       d="M 113.191406 77.785156 L 114.847656 77.785156 L 115.003906 77.269531 L 113.160156 77.269531 L 112.410156 78.832031 L 112.410156 78.941406 C 113.253906 79.128906 113.988281 79.285156 113.988281 80.394531 C 113.988281 81.019531 113.472656 81.816406 112.769531 81.816406 C 112.378906 81.816406 112.191406 81.425781 111.863281 81.425781 C 111.738281 81.425781 111.582031 81.503906 111.582031 81.707031 C 111.582031 81.910156 111.800781 82.113281 112.316406 82.113281 C 113.722656 82.113281 114.488281 81.003906 114.488281 80.082031 C 114.488281 79.113281 113.847656 78.597656 112.910156 78.410156 Z M 113.191406 77.785156 "
       id="path34" />
    <path
       style=" stroke:none;fill-rule:nonzero;fill:rgb(12.940979%,11.764526%,11.764526%);fill-opacity:1;"
       d="M 130.28125 82.191406 C 132.4375 81.925781 133.65625 80.253906 133.65625 78.800781 C 133.65625 77.722656 133.078125 77.191406 132.328125 77.191406 C 131.5 77.191406 130.609375 78.097656 130.609375 79.082031 C 130.609375 79.941406 131.078125 80.410156 131.6875 80.410156 C 132.015625 80.410156 132.328125 80.285156 132.609375 80.097656 L 132.640625 80.113281 C 132.5625 80.410156 131.59375 81.832031 130.28125 82.066406 Z M 131.234375 79.097656 C 131.234375 78.425781 131.59375 77.378906 132.40625 77.378906 C 133.109375 77.378906 133.109375 78.160156 133.109375 78.441406 C 133.109375 78.644531 133 79.378906 132.8125 79.660156 C 132.609375 79.957031 132.21875 80.082031 131.984375 80.082031 C 131.265625 80.082031 131.234375 79.332031 131.234375 79.097656 Z M 131.234375 79.097656 "
       id="path36" />
    <path
       style=" stroke:none;fill-rule:nonzero;fill:rgb(12.940979%,11.764526%,11.764526%);fill-opacity:1;"
       d="M 134.503906 80.941406 C 134.503906 80.238281 135.019531 77.394531 136.097656 77.394531 C 136.722656 77.394531 136.722656 78.128906 136.722656 78.347656 C 136.722656 79.613281 136.097656 81.910156 135.128906 81.910156 C 134.910156 81.910156 134.503906 81.785156 134.503906 80.941406 Z M 137.285156 79.003906 C 137.285156 78.285156 137.097656 77.191406 136.128906 77.191406 C 135.128906 77.191406 133.941406 78.675781 133.941406 80.628906 C 133.941406 81.378906 134.347656 82.113281 135.097656 82.113281 C 136.300781 82.113281 137.285156 80.425781 137.285156 79.003906 Z M 137.285156 79.003906 "
       id="path38" />
    <path
       style=" stroke:none;fill-rule:nonzero;fill:rgb(12.940979%,11.764526%,11.764526%);fill-opacity:1;"
       d="M 152.511719 82.191406 C 154.667969 81.925781 155.886719 80.253906 155.886719 78.800781 C 155.886719 77.722656 155.308594 77.191406 154.558594 77.191406 C 153.730469 77.191406 152.839844 78.097656 152.839844 79.082031 C 152.839844 79.941406 153.308594 80.410156 153.917969 80.410156 C 154.246094 80.410156 154.558594 80.285156 154.839844 80.097656 L 154.871094 80.113281 C 154.792969 80.410156 153.824219 81.832031 152.511719 82.066406 Z M 153.464844 79.097656 C 153.464844 78.425781 153.824219 77.378906 154.636719 77.378906 C 155.339844 77.378906 155.339844 78.160156 155.339844 78.441406 C 155.339844 78.644531 155.230469 79.378906 155.042969 79.660156 C 154.839844 79.957031 154.449219 80.082031 154.214844 80.082031 C 153.496094 80.082031 153.464844 79.332031 153.464844 79.097656 Z M 153.464844 79.097656 "
       id="path40" />
    <path
       style=" stroke:none;fill-rule:nonzero;fill:rgb(12.940979%,11.764526%,11.764526%);fill-opacity:1;"
       d="M 157.660156 77.785156 L 159.316406 77.785156 L 159.472656 77.269531 L 157.628906 77.269531 L 156.878906 78.832031 L 156.878906 78.941406 C 157.722656 79.128906 158.457031 79.285156 158.457031 80.394531 C 158.457031 81.019531 157.941406 81.816406 157.238281 81.816406 C 156.847656 81.816406 156.660156 81.425781 156.332031 81.425781 C 156.207031 81.425781 156.050781 81.503906 156.050781 81.707031 C 156.050781 81.910156 156.269531 82.113281 156.785156 82.113281 C 158.191406 82.113281 158.957031 81.003906 158.957031 80.082031 C 158.957031 79.113281 158.316406 78.597656 157.378906 78.410156 Z M 157.660156 77.785156 "
       id="path42" />
    <path
       style=" stroke:none;fill-rule:nonzero;fill:rgb(12.940979%,11.764526%,11.764526%);fill-opacity:1;"
       d="M 173.132813 82.066406 L 175.132813 82.066406 L 175.132813 81.957031 C 174.773438 81.972656 174.523438 81.941406 174.523438 81.722656 C 174.523438 81.597656 174.617188 81.332031 174.648438 81.191406 L 175.679688 77.457031 C 175.710938 77.347656 175.742188 77.191406 175.695313 77.191406 C 175.632813 77.191406 174.632813 77.410156 174.289063 77.472656 L 174.289063 77.582031 L 174.710938 77.566406 C 174.773438 77.566406 174.976563 77.566406 174.976563 77.800781 C 174.976563 77.847656 174.945313 77.957031 174.929688 78.035156 L 173.929688 81.582031 C 173.835938 81.894531 173.554688 81.925781 173.132813 81.972656 Z M 173.132813 82.066406 "
       id="path44" />
    <path
       style=" stroke:none;fill-rule:nonzero;fill:rgb(12.940979%,11.764526%,11.764526%);fill-opacity:1;"
       d="M 177.171875 80.941406 C 177.171875 80.238281 177.6875 77.394531 178.765625 77.394531 C 179.390625 77.394531 179.390625 78.128906 179.390625 78.347656 C 179.390625 79.613281 178.765625 81.910156 177.796875 81.910156 C 177.578125 81.910156 177.171875 81.785156 177.171875 80.941406 Z M 179.953125 79.003906 C 179.953125 78.285156 179.765625 77.191406 178.796875 77.191406 C 177.796875 77.191406 176.609375 78.675781 176.609375 80.628906 C 176.609375 81.378906 177.015625 82.113281 177.765625 82.113281 C 178.96875 82.113281 179.953125 80.425781 179.953125 79.003906 Z M 179.953125 79.003906 "
       id="path46" />
    <path
       style=" stroke:none;fill-rule:nonzero;fill:rgb(12.940979%,11.764526%,11.764526%);fill-opacity:1;"
       d="M 180.773438 80.941406 C 180.773438 80.238281 181.289063 77.394531 182.367188 77.394531 C 182.992188 77.394531 182.992188 78.128906 182.992188 78.347656 C 182.992188 79.613281 182.367188 81.910156 181.398438 81.910156 C 181.179688 81.910156 180.773438 81.785156 180.773438 80.941406 Z M 183.554688 79.003906 C 183.554688 78.285156 183.367188 77.191406 182.398438 77.191406 C 181.398438 77.191406 180.210938 78.675781 180.210938 80.628906 C 180.210938 81.378906 180.617188 82.113281 181.367188 82.113281 C 182.570313 82.113281 183.554688 80.425781 183.554688 79.003906 Z M 183.554688 79.003906 "
       id="path48" />
    <path
       style=" stroke:none;fill-rule:nonzero;fill:rgb(12.940979%,11.764526%,11.764526%);fill-opacity:1;"
       d="M 195.429688 70.070313 C 195.101563 70.398438 194.960938 70.570313 194.851563 70.570313 C 194.789063 70.570313 194.757813 70.523438 194.757813 70.476563 C 194.757813 70.257813 195.414063 67.804688 195.429688 67.710938 L 195.382813 67.695313 L 194.945313 67.742188 L 194.929688 67.757813 L 194.851563 68.085938 L 194.835938 68.085938 C 194.820313 67.882813 194.585938 67.695313 194.273438 67.695313 C 193.304688 67.695313 192.210938 69.039063 192.210938 70.101563 C 192.210938 70.304688 192.226563 70.945313 192.945313 70.945313 C 193.382813 70.945313 193.757813 70.726563 194.367188 69.851563 L 194.382813 69.867188 C 194.257813 70.304688 194.226563 70.460938 194.226563 70.632813 C 194.226563 70.757813 194.226563 70.945313 194.523438 70.945313 C 194.835938 70.945313 195.085938 70.679688 195.507813 70.148438 Z M 192.820313 70.085938 C 192.820313 69.429688 193.460938 67.851563 194.304688 67.851563 C 194.507813 67.851563 194.710938 67.992188 194.710938 68.335938 C 194.710938 69.039063 194.007813 70.585938 193.242188 70.585938 C 193.054688 70.585938 192.820313 70.460938 192.820313 70.085938 Z M 192.820313 70.085938 "
       id="path50" />
    <path
       style=" stroke:none;fill-rule:nonzero;fill:rgb(12.940979%,11.764526%,11.764526%);fill-opacity:1;"
       d="M 198.199219 70.101563 C 197.949219 70.398438 197.605469 70.679688 197.167969 70.679688 C 196.730469 70.679688 196.511719 70.367188 196.511719 69.804688 C 196.511719 69.117188 197.011719 67.835938 197.949219 67.835938 C 198.089844 67.835938 198.230469 67.882813 198.230469 67.992188 C 198.230469 68.101563 198.121094 68.148438 198.121094 68.335938 C 198.121094 68.507813 198.230469 68.601563 198.402344 68.601563 C 198.589844 68.601563 198.746094 68.476563 198.746094 68.273438 C 198.746094 68.054688 198.558594 67.695313 197.964844 67.695313 C 196.886719 67.695313 195.902344 68.789063 195.902344 69.804688 C 195.902344 70.773438 196.496094 70.945313 196.964844 70.945313 C 197.714844 70.945313 198.136719 70.398438 198.324219 70.179688 Z M 198.199219 70.101563 "
       id="path52" />
    <path
       style=" stroke:none;fill-rule:nonzero;fill:rgb(12.940979%,11.764526%,11.764526%);fill-opacity:1;"
       d="M 201.398438 70.101563 C 201.148438 70.398438 200.804688 70.679688 200.367188 70.679688 C 199.929688 70.679688 199.710938 70.367188 199.710938 69.804688 C 199.710938 69.117188 200.210938 67.835938 201.148438 67.835938 C 201.289063 67.835938 201.429688 67.882813 201.429688 67.992188 C 201.429688 68.101563 201.320313 68.148438 201.320313 68.335938 C 201.320313 68.507813 201.429688 68.601563 201.601563 68.601563 C 201.789063 68.601563 201.945313 68.476563 201.945313 68.273438 C 201.945313 68.054688 201.757813 67.695313 201.164063 67.695313 C 200.085938 67.695313 199.101563 68.789063 199.101563 69.804688 C 199.101563 70.773438 199.695313 70.945313 200.164063 70.945313 C 200.914063 70.945313 201.335938 70.398438 201.523438 70.179688 Z M 201.398438 70.101563 "
       id="path54" />
    <path
       style=" stroke:none;fill-rule:nonzero;fill:rgb(12.940979%,11.764526%,11.764526%);fill-opacity:1;"
       d="M 205.40625 70.023438 C 205.140625 70.335938 204.9375 70.585938 204.8125 70.585938 C 204.734375 70.585938 204.71875 70.507813 204.71875 70.476563 C 204.71875 70.367188 204.8125 70.054688 204.859375 69.914063 L 205.421875 67.757813 L 204.890625 67.757813 C 204.609375 68.523438 204.453125 68.976563 204.109375 69.507813 C 203.859375 69.882813 203.40625 70.570313 203.09375 70.570313 C 202.9375 70.570313 202.921875 70.414063 202.9375 70.320313 L 203.59375 67.710938 L 203.578125 67.695313 C 203.21875 67.773438 202.859375 67.835938 202.5 67.882813 L 202.5 67.992188 C 202.796875 67.992188 202.921875 67.992188 202.921875 68.195313 C 202.921875 68.382813 202.375 70.210938 202.375 70.523438 C 202.375 70.835938 202.515625 70.945313 202.78125 70.945313 C 203.421875 70.945313 203.953125 70.039063 204.453125 69.226563 L 204.46875 69.226563 C 204.296875 69.820313 204.15625 70.429688 204.15625 70.554688 C 204.15625 70.664063 204.171875 70.929688 204.5 70.929688 C 204.859375 70.929688 205.046875 70.742188 205.5 70.085938 Z M 205.40625 70.023438 "
       id="path56" />
    <path
       style=" stroke:none;fill-rule:nonzero;fill:rgb(12.940979%,11.764526%,11.764526%);fill-opacity:1;"
       d="M 206.554688 70.867188 C 206.851563 69.914063 206.945313 69.585938 207.226563 69.070313 C 207.273438 68.960938 207.710938 68.164063 207.929688 68.164063 C 208.101563 68.164063 207.992188 68.414063 208.304688 68.414063 C 208.382813 68.414063 208.648438 68.414063 208.648438 68.039063 C 208.648438 67.804688 208.460938 67.695313 208.304688 67.695313 C 207.851563 67.695313 207.304688 68.539063 207.070313 69.007813 L 207.007813 69.148438 L 206.992188 69.132813 L 207.335938 67.710938 L 207.320313 67.695313 C 206.992188 67.742188 206.570313 67.835938 206.210938 67.882813 L 206.210938 68.007813 C 206.289063 67.992188 206.367188 67.976563 206.445313 67.976563 C 206.664063 67.976563 206.695313 68.085938 206.695313 68.195313 C 206.695313 68.257813 206.664063 68.492188 206.585938 68.757813 L 206.007813 70.867188 Z M 206.554688 70.867188 "
       id="path58" />
    <path
       style=" stroke:none;fill-rule:nonzero;fill:rgb(12.940979%,11.764526%,11.764526%);fill-opacity:1;"
       d="M 211.824219 70.070313 C 211.496094 70.398438 211.355469 70.570313 211.246094 70.570313 C 211.183594 70.570313 211.152344 70.523438 211.152344 70.476563 C 211.152344 70.257813 211.808594 67.804688 211.824219 67.710938 L 211.777344 67.695313 L 211.339844 67.742188 L 211.324219 67.757813 L 211.246094 68.085938 L 211.230469 68.085938 C 211.214844 67.882813 210.980469 67.695313 210.667969 67.695313 C 209.699219 67.695313 208.605469 69.039063 208.605469 70.101563 C 208.605469 70.304688 208.621094 70.945313 209.339844 70.945313 C 209.777344 70.945313 210.152344 70.726563 210.761719 69.851563 L 210.777344 69.867188 C 210.652344 70.304688 210.621094 70.460938 210.621094 70.632813 C 210.621094 70.757813 210.621094 70.945313 210.917969 70.945313 C 211.230469 70.945313 211.480469 70.679688 211.902344 70.148438 Z M 209.214844 70.085938 C 209.214844 69.429688 209.855469 67.851563 210.699219 67.851563 C 210.902344 67.851563 211.105469 67.992188 211.105469 68.335938 C 211.105469 69.039063 210.402344 70.585938 209.636719 70.585938 C 209.449219 70.585938 209.214844 70.460938 209.214844 70.085938 Z M 209.214844 70.085938 "
       id="path60" />
    <path
       style=" stroke:none;fill-rule:nonzero;fill:rgb(12.940979%,11.764526%,11.764526%);fill-opacity:1;"
       d="M 214.59375 70.101563 C 214.34375 70.398438 214 70.679688 213.5625 70.679688 C 213.125 70.679688 212.90625 70.367188 212.90625 69.804688 C 212.90625 69.117188 213.40625 67.835938 214.34375 67.835938 C 214.484375 67.835938 214.625 67.882813 214.625 67.992188 C 214.625 68.101563 214.515625 68.148438 214.515625 68.335938 C 214.515625 68.507813 214.625 68.601563 214.796875 68.601563 C 214.984375 68.601563 215.140625 68.476563 215.140625 68.273438 C 215.140625 68.054688 214.953125 67.695313 214.359375 67.695313 C 213.28125 67.695313 212.296875 68.789063 212.296875 69.804688 C 212.296875 70.773438 212.890625 70.945313 213.359375 70.945313 C 214.109375 70.945313 214.53125 70.398438 214.71875 70.179688 Z M 214.59375 70.101563 "
       id="path62" />
    <path
       style=" stroke:none;fill-rule:nonzero;fill:rgb(12.940979%,11.764526%,11.764526%);fill-opacity:1;"
       d="M 215.386719 67.992188 C 215.464844 67.960938 215.527344 67.960938 215.636719 67.960938 C 216.042969 67.960938 216.136719 68.273438 216.324219 68.929688 C 216.449219 69.304688 216.761719 70.570313 216.761719 70.851563 C 216.761719 71.039063 216.449219 71.398438 216.277344 71.601563 C 216.027344 71.882813 215.933594 71.960938 215.824219 71.960938 C 215.683594 71.960938 215.589844 71.757813 215.371094 71.757813 C 215.230469 71.757813 215.105469 71.882813 215.105469 72.023438 C 215.105469 72.335938 215.417969 72.351563 215.464844 72.351563 C 216.324219 72.351563 218.339844 68.992188 218.339844 68.132813 C 218.339844 67.882813 218.199219 67.695313 217.933594 67.695313 C 217.746094 67.695313 217.667969 67.835938 217.667969 67.945313 C 217.667969 68.273438 218.058594 68.195313 218.058594 68.492188 C 218.058594 68.867188 217.496094 69.851563 217.183594 70.351563 L 217.027344 69.507813 C 216.933594 68.976563 216.511719 67.679688 216.417969 67.695313 C 216.292969 67.695313 215.730469 67.804688 215.386719 67.867188 Z M 215.386719 67.992188 "
       id="path64" />
    <path
       style=" stroke:none;fill-rule:nonzero;fill:rgb(12.940979%,11.764526%,11.764526%);fill-opacity:1;"
       d="M 221.414063 72.132813 C 221.070313 71.242188 221.070313 70.601563 221.070313 70.132813 C 221.070313 69.664063 221.195313 68.695313 221.476563 67.882813 C 221.835938 66.898438 222.195313 66.523438 222.539063 66.164063 L 222.445313 66.054688 C 221.132813 67.164063 220.570313 68.289063 220.570313 69.476563 C 220.570313 69.945313 220.570313 70.992188 221.289063 72.164063 Z M 221.414063 72.132813 "
       id="path66" />
    <path
       style=" stroke:none;fill-rule:nonzero;fill:rgb(12.940979%,11.764526%,11.764526%);fill-opacity:1;"
       d="M 226.046875 69.882813 C 226.046875 70.492188 226.328125 70.867188 226.9375 70.867188 C 227.765625 70.867188 228.359375 69.820313 228.359375 68.992188 C 228.359375 68.210938 227.71875 68.195313 227.578125 68.195313 C 226.8125 68.195313 226.046875 69.085938 226.046875 69.882813 Z M 226.59375 70.117188 C 226.59375 69.742188 227 68.429688 227.65625 68.429688 C 227.953125 68.429688 228.1875 68.664063 228.1875 69.039063 C 228.1875 69.554688 227.71875 70.648438 227.046875 70.648438 C 226.59375 70.648438 226.59375 70.273438 226.59375 70.117188 Z M 227.375 65.992188 L 227.09375 65.992188 C 226.90625 66.179688 226.578125 66.492188 225.953125 66.492188 C 225.703125 66.492188 225.53125 66.445313 225.4375 66.367188 L 225.296875 66.242188 C 225.1875 66.164063 225 66.101563 224.796875 66.101563 C 224 66.101563 223.234375 67.007813 223.234375 67.820313 C 223.234375 68.476563 223.703125 68.789063 224.09375 68.789063 C 225.09375 68.789063 225.578125 67.507813 225.578125 66.976563 C 225.578125 66.820313 225.546875 66.710938 225.53125 66.601563 C 225.640625 66.632813 225.71875 66.664063 226 66.664063 C 226.375 66.664063 226.5625 66.570313 226.75 66.460938 L 226.765625 66.476563 L 224.25 70.960938 L 224.59375 70.960938 Z M 224.234375 68.539063 C 223.78125 68.539063 223.78125 68.179688 223.78125 68.023438 C 223.78125 67.367188 224.375 66.320313 224.828125 66.320313 C 224.96875 66.320313 224.9375 66.445313 225.328125 66.539063 C 225.359375 66.679688 225.390625 66.773438 225.390625 66.898438 C 225.390625 67.664063 224.828125 68.539063 224.234375 68.539063 Z M 224.234375 68.539063 "
       id="path68" />
    <g
       clip-path="url(#clip1)"
       clip-rule="nonzero"
       id="g72">
      <path
         style=" stroke:none;fill-rule:nonzero;fill:rgb(12.940979%,11.764526%,11.764526%);fill-opacity:1;"
         d="M 228.871094 72.164063 C 229.949219 71.304688 230.746094 70.117188 230.746094 68.742188 C 230.746094 67.820313 230.558594 66.898438 230.042969 66.054688 L 229.902344 66.085938 C 230.089844 66.476563 230.246094 67.195313 230.246094 67.960938 C 230.246094 68.601563 230.136719 69.460938 229.839844 70.335938 C 229.511719 71.289063 229.105469 71.726563 228.777344 72.054688 Z M 228.871094 72.164063 "
         id="path70" />
    </g>
    <path
       style="fill:none;stroke-width:0.6;stroke-linecap:butt;stroke-linejoin:miter;stroke:rgb(0%,0%,0%);stroke-opacity:1;stroke-miterlimit:4;"
       d="M 89.375 16.066406 C 68.980469 16.066406 59.613281 43.332031 39.390625 57.492188 M 89.375 16.066406 C 115.574219 16.066406 123.574219 61.066406 159.773438 65.46875 "
       id="path74" />
    <path
       style="fill:none;stroke-width:0.6;stroke-linecap:butt;stroke-linejoin:miter;stroke:rgb(100%,0%,0%);stroke-opacity:1;stroke-miterlimit:4;"
       d="M 109.601563 25.332031 C 137.175781 25.332031 149.242188 48.925781 177.804688 59.78125 C 177.980469 59.847656 178.15625 59.914063 178.332031 59.980469 M 109.601563 25.332031 C 81.523438 25.332031 69.523438 49.796875 39.808594 60.363281 "
       id="path76" />
    <path
       style=" stroke:none;fill-rule:nonzero;fill:rgb(12.940979%,11.764526%,11.764526%);fill-opacity:1;"
       d="M 88.109375 7.761719 L 88.421875 6.089844 L 88.234375 6.089844 C 88.203125 6.167969 88.140625 6.277344 87.90625 6.277344 C 87.703125 6.277344 87.203125 6.074219 86.59375 6.074219 C 84.671875 6.074219 83.1875 7.933594 83.1875 9.542969 C 83.1875 11.230469 84.40625 11.824219 85.375 11.824219 C 86.609375 11.824219 87.359375 10.933594 87.671875 10.574219 L 87.53125 10.449219 C 87.125 10.839844 86.53125 11.433594 85.578125 11.433594 C 84.578125 11.433594 84.125 10.746094 84.125 9.636719 C 84.125 8.402344 84.984375 6.371094 86.65625 6.371094 C 87.859375 6.371094 87.9375 7.496094 87.953125 7.730469 Z M 88.109375 7.761719 "
       id="path78" />
    <path
       style=" stroke:none;fill-rule:nonzero;fill:rgb(12.940979%,11.764526%,11.764526%);fill-opacity:1;"
       d="M 88.492188 13.46875 L 89.992188 13.46875 L 89.992188 13.390625 C 89.726563 13.390625 89.539063 13.375 89.539063 13.203125 C 89.539063 13.125 89.601563 12.921875 89.632813 12.8125 L 90.398438 10.015625 C 90.429688 9.921875 90.460938 9.8125 90.414063 9.8125 C 90.367188 9.8125 89.617188 9.96875 89.367188 10.015625 L 89.367188 10.09375 L 89.679688 10.09375 C 89.726563 10.09375 89.882813 10.09375 89.882813 10.265625 C 89.882813 10.3125 89.851563 10.375 89.835938 10.4375 L 89.101563 13.09375 C 89.023438 13.34375 88.804688 13.359375 88.492188 13.390625 Z M 88.492188 13.46875 "
       id="path80" />
    <path
       style=" stroke:none;fill-rule:nonzero;fill:rgb(100%,0%,0%);fill-opacity:1;"
       d="M 118.707031 19.160156 L 119.019531 17.488281 L 118.832031 17.488281 C 118.800781 17.566406 118.738281 17.675781 118.503906 17.675781 C 118.300781 17.675781 117.800781 17.472656 117.191406 17.472656 C 115.269531 17.472656 113.785156 19.332031 113.785156 20.941406 C 113.785156 22.628906 115.003906 23.222656 115.972656 23.222656 C 117.207031 23.222656 117.957031 22.332031 118.269531 21.972656 L 118.128906 21.847656 C 117.722656 22.238281 117.128906 22.832031 116.175781 22.832031 C 115.175781 22.832031 114.722656 22.144531 114.722656 21.035156 C 114.722656 19.800781 115.582031 17.769531 117.253906 17.769531 C 118.457031 17.769531 118.535156 18.894531 118.550781 19.128906 Z M 118.707031 19.160156 "
       id="path82" />
    <path
       style=" stroke:none;fill-rule:nonzero;fill:rgb(100%,0%,0%);fill-opacity:1;"
       d="M 120.980469 24.117188 C 120.902344 24.304688 120.808594 24.460938 120.449219 24.460938 L 119.417969 24.460938 L 119.417969 24.429688 L 120.464844 23.398438 C 121.136719 22.726563 121.261719 22.476563 121.261719 22.117188 C 121.261719 21.710938 120.964844 21.210938 120.386719 21.210938 C 120.261719 21.210938 119.542969 21.226563 119.261719 22.070313 L 119.371094 22.117188 C 119.449219 21.976563 119.652344 21.601563 120.136719 21.601563 C 120.558594 21.601563 120.808594 21.929688 120.808594 22.273438 C 120.808594 22.445313 120.777344 22.757813 120.027344 23.570313 L 118.886719 24.773438 L 118.886719 24.867188 L 120.808594 24.867188 L 121.074219 24.148438 Z M 120.980469 24.117188 "
       id="path84" />
    <path
       style=" stroke:none;fill-rule:nonzero;fill:rgb(12.940979%,11.764526%,11.764526%);fill-opacity:1;"
       d="M 2.671875 51.253906 C 3.53125 51.253906 4.859375 51.910156 4.859375 52.785156 C 4.859375 52.972656 4.78125 53.144531 4.59375 53.144531 C 4.3125 53.144531 3.34375 52.863281 2.875 52.675781 C 2.390625 52.488281 2.0625 52.066406 2.0625 51.738281 C 2.0625 51.269531 2.46875 51.253906 2.671875 51.253906 Z M 2.015625 53.582031 L 2.015625 53.425781 C 2 53.253906 2.09375 53.113281 2.21875 53.113281 C 2.375 53.113281 5.046875 53.847656 5.859375 54.050781 C 6.09375 54.097656 6.28125 54.144531 6.28125 54.535156 L 6.40625 54.535156 L 6.40625 53.050781 L 6.296875 53.050781 C 6.296875 53.238281 6.296875 53.519531 6.0625 53.519531 C 5.921875 53.519531 5.125 53.316406 4.875 53.253906 C 4.96875 53.082031 5 52.941406 5 52.753906 C 5 51.769531 3.8125 50.613281 2.6875 50.613281 C 2.171875 50.613281 1.75 50.832031 1.75 51.472656 C 1.75 52.050781 2.265625 52.472656 2.515625 52.644531 L 2.515625 52.660156 L 1.84375 52.457031 C 1.765625 52.425781 1.75 52.457031 1.75 52.488281 L 1.90625 53.597656 Z M 2.015625 53.582031 "
       id="path86" />
    <path
       style=" stroke:none;fill-rule:nonzero;fill:rgb(12.940979%,11.764526%,11.764526%);fill-opacity:1;"
       d="M 4.921875 49.511719 C 3.96875 49.214844 3.640625 49.121094 3.125 48.839844 C 3.015625 48.792969 2.21875 48.355469 2.21875 48.136719 C 2.21875 47.964844 2.46875 48.074219 2.46875 47.761719 C 2.46875 47.683594 2.46875 47.417969 2.09375 47.417969 C 1.859375 47.417969 1.75 47.605469 1.75 47.761719 C 1.75 48.214844 2.59375 48.761719 3.0625 48.996094 L 3.203125 49.058594 L 3.1875 49.074219 L 1.765625 48.730469 L 1.75 48.746094 C 1.796875 49.074219 1.890625 49.496094 1.9375 49.855469 L 2.0625 49.855469 C 2.046875 49.777344 2.03125 49.699219 2.03125 49.621094 C 2.03125 49.402344 2.140625 49.371094 2.25 49.371094 C 2.3125 49.371094 2.546875 49.402344 2.8125 49.480469 L 4.921875 50.058594 Z M 4.921875 49.511719 "
       id="path88" />
    <path
       style=" stroke:none;fill-rule:nonzero;fill:rgb(12.940979%,11.764526%,11.764526%);fill-opacity:1;"
       d="M 1.75 45.542969 C 1.75 46.589844 2.90625 47.667969 3.96875 47.667969 C 4.5625 47.667969 5 47.339844 5 46.574219 C 5 45.464844 3.703125 44.480469 2.8125 44.480469 C 2.34375 44.480469 1.75 44.714844 1.75 45.542969 Z M 1.890625 45.589844 C 1.890625 45.246094 2.21875 45.089844 2.59375 45.089844 C 3.359375 45.089844 4.84375 45.652344 4.84375 46.480469 C 4.84375 46.839844 4.59375 47.058594 4.1875 47.058594 C 3.328125 47.058594 1.890625 46.402344 1.890625 45.589844 Z M 1.890625 45.589844 "
       id="path90" />
    <path
       style=" stroke:none;fill-rule:nonzero;fill:rgb(12.940979%,11.764526%,11.764526%);fill-opacity:1;"
       d="M 2.703125 41.457031 C 3.3125 41.457031 4.828125 42.144531 4.828125 43.128906 C 4.828125 43.472656 4.640625 43.472656 4.59375 43.472656 C 3.84375 43.472656 2.09375 42.769531 2.09375 41.988281 C 2.09375 41.535156 2.484375 41.457031 2.703125 41.457031 Z M 0.296875 43.457031 C 0.296875 43.050781 0.328125 42.988281 0.5 42.988281 C 0.59375 42.988281 0.78125 43.050781 0.984375 43.113281 L 4.59375 44.082031 L 4.625 44.082031 C 4.78125 44.082031 5 43.535156 5 43.144531 C 5 42.050781 3.75 40.847656 2.609375 40.847656 C 2.09375 40.847656 1.75 41.207031 1.75 41.707031 C 1.75 42.347656 2.421875 42.800781 2.796875 43.050781 L 2.78125 43.050781 C 1.96875 42.816406 0.625 42.488281 0.03125 42.316406 L 0 42.363281 C 0.078125 42.738281 0.125 43.097656 0.171875 43.457031 Z M 0.296875 43.457031 "
       id="path92" />
    <path
       style=" stroke:none;fill-rule:nonzero;fill:rgb(12.940979%,11.764526%,11.764526%);fill-opacity:1;"
       d="M 4.125 37.308594 C 4.453125 37.636719 4.625 37.777344 4.625 37.886719 C 4.625 37.949219 4.578125 37.980469 4.53125 37.980469 C 4.3125 37.980469 1.859375 37.324219 1.765625 37.308594 L 1.75 37.355469 L 1.796875 37.792969 L 1.8125 37.808594 L 2.140625 37.886719 L 2.140625 37.902344 C 1.9375 37.917969 1.75 38.152344 1.75 38.464844 C 1.75 39.433594 3.09375 40.527344 4.15625 40.527344 C 4.359375 40.527344 5 40.511719 5 39.792969 C 5 39.355469 4.78125 38.980469 3.90625 38.371094 L 3.921875 38.355469 C 4.359375 38.480469 4.515625 38.511719 4.6875 38.511719 C 4.8125 38.511719 5 38.511719 5 38.214844 C 5 37.902344 4.734375 37.652344 4.203125 37.230469 Z M 4.140625 39.917969 C 3.484375 39.917969 1.90625 39.277344 1.90625 38.433594 C 1.90625 38.230469 2.046875 38.027344 2.390625 38.027344 C 3.09375 38.027344 4.640625 38.730469 4.640625 39.496094 C 4.640625 39.683594 4.515625 39.917969 4.140625 39.917969 Z M 4.140625 39.917969 "
       id="path94" />
    <path
       style=" stroke:none;fill-rule:nonzero;fill:rgb(12.940979%,11.764526%,11.764526%);fill-opacity:1;"
       d="M 2.703125 34.257813 C 3.3125 34.257813 4.828125 34.945313 4.828125 35.929688 C 4.828125 36.273438 4.640625 36.273438 4.59375 36.273438 C 3.84375 36.273438 2.09375 35.570313 2.09375 34.789063 C 2.09375 34.335938 2.484375 34.257813 2.703125 34.257813 Z M 0.296875 36.257813 C 0.296875 35.851563 0.328125 35.789063 0.5 35.789063 C 0.59375 35.789063 0.78125 35.851563 0.984375 35.914063 L 4.59375 36.882813 L 4.625 36.882813 C 4.78125 36.882813 5 36.335938 5 35.945313 C 5 34.851563 3.75 33.648438 2.609375 33.648438 C 2.09375 33.648438 1.75 34.007813 1.75 34.507813 C 1.75 35.148438 2.421875 35.601563 2.796875 35.851563 L 2.78125 35.851563 C 1.96875 35.617188 0.625 35.289063 0.03125 35.117188 L 0 35.164063 C 0.078125 35.539063 0.125 35.898438 0.171875 36.257813 Z M 0.296875 36.257813 "
       id="path96" />
    <path
       style=" stroke:none;fill-rule:nonzero;fill:rgb(12.940979%,11.764526%,11.764526%);fill-opacity:1;"
       d="M 4.09375 31.859375 C 4.515625 32.15625 4.65625 32.359375 4.65625 32.4375 C 4.65625 32.515625 4.609375 32.5625 4.546875 32.5625 C 4.46875 32.5625 4.1875 32.46875 4.078125 32.4375 L 1.765625 31.8125 L 1.75 31.828125 C 1.796875 32.109375 1.90625 32.71875 1.921875 32.984375 L 2.046875 32.984375 C 2.046875 32.59375 2.078125 32.53125 2.234375 32.53125 C 2.421875 32.53125 4.21875 33.09375 4.546875 33.09375 C 4.6875 33.09375 5 33.09375 5 32.765625 C 5 32.359375 4.609375 32.046875 4.1875 31.765625 Z M 0.609375 31.546875 C 0.453125 31.546875 0.21875 31.671875 0.21875 31.90625 C 0.21875 32.078125 0.34375 32.25 0.59375 32.25 C 0.859375 32.25 0.96875 32.078125 0.96875 31.90625 C 0.96875 31.671875 0.75 31.546875 0.609375 31.546875 Z M 0.609375 31.546875 "
       id="path98" />
    <path
       style=" stroke:none;fill-rule:nonzero;fill:rgb(12.940979%,11.764526%,11.764526%);fill-opacity:1;"
       d="M 4.03125 29.8125 C 4.484375 30.15625 4.6875 30.3125 4.6875 30.5 C 4.6875 30.609375 4.59375 30.609375 4.546875 30.609375 C 4.46875 30.609375 4.28125 30.546875 4.203125 30.53125 L 0.03125 29.4375 L 0 29.484375 C 0.09375 29.859375 0.15625 30.234375 0.203125 30.609375 L 0.3125 30.609375 C 0.296875 30.421875 0.296875 30.109375 0.484375 30.109375 C 0.640625 30.109375 4.40625 31.15625 4.546875 31.15625 C 4.75 31.15625 5 31.125 5 30.8125 C 5 30.359375 4.65625 30.078125 4.09375 29.71875 Z M 4.03125 29.8125 "
       id="path100" />
    <path
       style=" stroke:none;fill-rule:nonzero;fill:rgb(12.940979%,11.764526%,11.764526%);fill-opacity:1;"
       d="M 4.09375 27.855469 C 4.515625 28.152344 4.65625 28.355469 4.65625 28.433594 C 4.65625 28.511719 4.609375 28.558594 4.546875 28.558594 C 4.46875 28.558594 4.1875 28.464844 4.078125 28.433594 L 1.765625 27.808594 L 1.75 27.824219 C 1.796875 28.105469 1.90625 28.714844 1.921875 28.980469 L 2.046875 28.980469 C 2.046875 28.589844 2.078125 28.527344 2.234375 28.527344 C 2.421875 28.527344 4.21875 29.089844 4.546875 29.089844 C 4.6875 29.089844 5 29.089844 5 28.761719 C 5 28.355469 4.609375 28.042969 4.1875 27.761719 Z M 0.609375 27.542969 C 0.453125 27.542969 0.21875 27.667969 0.21875 27.902344 C 0.21875 28.074219 0.34375 28.246094 0.59375 28.246094 C 0.859375 28.246094 0.96875 28.074219 0.96875 27.902344 C 0.96875 27.667969 0.75 27.542969 0.609375 27.542969 Z M 0.609375 27.542969 "
       id="path102" />
    <path
       style=" stroke:none;fill-rule:nonzero;fill:rgb(12.940979%,11.764526%,11.764526%);fill-opacity:1;"
       d="M 1.84375 25.324219 L 1.84375 25.886719 L 1.09375 25.699219 C 1.046875 25.683594 0.96875 25.699219 0.984375 25.746094 C 0.96875 25.808594 1.046875 25.839844 1.078125 25.871094 C 1.328125 26.058594 1.65625 26.417969 1.78125 26.652344 C 1.84375 26.777344 1.890625 26.980469 1.953125 27.011719 C 1.984375 27.042969 2.03125 27.042969 2.0625 27.027344 L 2.0625 26.496094 L 4.046875 27.011719 C 4.171875 27.042969 4.609375 27.183594 4.71875 27.183594 C 4.921875 27.183594 5 26.980469 5 26.839844 C 5 26.464844 4.6875 26.183594 4.125 25.808594 L 4.078125 25.902344 C 4.3125 26.089844 4.640625 26.339844 4.640625 26.480469 C 4.640625 26.558594 4.59375 26.605469 4.53125 26.605469 C 4.5 26.605469 4.484375 26.605469 4.46875 26.589844 L 2.0625 25.964844 L 2.0625 25.355469 Z M 1.84375 25.324219 "
       id="path104" />
    <path
       style=" stroke:none;fill-rule:nonzero;fill:rgb(12.940979%,11.764526%,11.764526%);fill-opacity:1;"
       d="M 2.046875 25.339844 C 2.015625 25.261719 2.015625 25.199219 2.015625 25.089844 C 2.015625 24.683594 2.328125 24.589844 2.984375 24.402344 C 3.359375 24.277344 4.625 23.964844 4.90625 23.964844 C 5.09375 23.964844 5.453125 24.277344 5.65625 24.449219 C 5.9375 24.699219 6.015625 24.792969 6.015625 24.902344 C 6.015625 25.042969 5.8125 25.136719 5.8125 25.355469 C 5.8125 25.496094 5.9375 25.621094 6.078125 25.621094 C 6.390625 25.621094 6.40625 25.308594 6.40625 25.261719 C 6.40625 24.402344 3.046875 22.386719 2.1875 22.386719 C 1.9375 22.386719 1.75 22.527344 1.75 22.792969 C 1.75 22.980469 1.890625 23.058594 2 23.058594 C 2.328125 23.058594 2.25 22.667969 2.546875 22.667969 C 2.921875 22.667969 3.90625 23.230469 4.40625 23.542969 L 3.5625 23.699219 C 3.03125 23.792969 1.734375 24.214844 1.75 24.308594 C 1.75 24.433594 1.859375 24.996094 1.921875 25.339844 Z M 2.046875 25.339844 "
       id="path106" />
    <path
       style=" stroke:none;fill-rule:nonzero;fill:rgb(12.940979%,11.764526%,11.764526%);fill-opacity:1;"
       d="M 4.125 17.105469 C 4.453125 17.433594 4.625 17.574219 4.625 17.683594 C 4.625 17.746094 4.578125 17.777344 4.53125 17.777344 C 4.3125 17.777344 1.859375 17.121094 1.765625 17.105469 L 1.75 17.152344 L 1.796875 17.589844 L 1.8125 17.605469 L 2.140625 17.683594 L 2.140625 17.699219 C 1.9375 17.714844 1.75 17.949219 1.75 18.261719 C 1.75 19.230469 3.09375 20.324219 4.15625 20.324219 C 4.359375 20.324219 5 20.308594 5 19.589844 C 5 19.152344 4.78125 18.777344 3.90625 18.167969 L 3.921875 18.152344 C 4.359375 18.277344 4.515625 18.308594 4.6875 18.308594 C 4.8125 18.308594 5 18.308594 5 18.011719 C 5 17.699219 4.734375 17.449219 4.203125 17.027344 Z M 4.140625 19.714844 C 3.484375 19.714844 1.90625 19.074219 1.90625 18.230469 C 1.90625 18.027344 2.046875 17.824219 2.390625 17.824219 C 3.09375 17.824219 4.640625 18.527344 4.640625 19.292969 C 4.640625 19.480469 4.515625 19.714844 4.140625 19.714844 Z M 4.140625 19.714844 "
       id="path108" />
    <path
       style=" stroke:none;fill-rule:nonzero;fill:rgb(12.940979%,11.764526%,11.764526%);fill-opacity:1;"
       d="M 11.230469 52.671875 C 11.683594 53.015625 11.886719 53.171875 11.886719 53.359375 C 11.886719 53.46875 11.792969 53.46875 11.746094 53.46875 C 11.667969 53.46875 11.480469 53.40625 11.402344 53.390625 L 7.230469 52.296875 L 7.199219 52.34375 C 7.292969 52.71875 7.355469 53.09375 7.402344 53.46875 L 7.511719 53.46875 C 7.496094 53.28125 7.496094 52.96875 7.683594 52.96875 C 7.839844 52.96875 11.605469 54.015625 11.746094 54.015625 C 11.949219 54.015625 12.199219 53.984375 12.199219 53.671875 C 12.199219 53.21875 11.855469 52.9375 11.292969 52.578125 Z M 11.230469 52.671875 "
       id="path110" />
    <path
       style=" stroke:none;fill-rule:nonzero;fill:rgb(12.940979%,11.764526%,11.764526%);fill-opacity:1;"
       d="M 10.308594 51.214844 C 9.667969 50.949219 9.105469 50.464844 9.105469 50.074219 C 9.105469 49.886719 9.246094 49.808594 9.402344 49.808594 C 9.449219 49.808594 10.324219 49.855469 10.621094 51.339844 Z M 11.339844 49.730469 C 11.636719 50.089844 11.871094 50.386719 11.871094 50.777344 C 11.871094 51.089844 11.714844 51.464844 11.214844 51.464844 C 11.074219 51.464844 10.933594 51.417969 10.777344 51.386719 L 10.746094 51.183594 C 10.589844 50.011719 9.996094 49.339844 9.433594 49.339844 C 9.121094 49.339844 8.949219 49.558594 8.949219 49.933594 C 8.949219 50.949219 10.152344 52.089844 11.183594 52.089844 C 11.636719 52.089844 12.199219 51.855469 12.199219 51.105469 C 12.199219 50.371094 11.542969 49.730469 11.417969 49.636719 Z M 11.339844 49.730469 "
       id="path112" />
    <path
       style=" stroke:none;fill-rule:nonzero;fill:rgb(12.940979%,11.764526%,11.764526%);fill-opacity:1;"
       d="M 11.324219 45.769531 C 11.652344 46.097656 11.824219 46.238281 11.824219 46.347656 C 11.824219 46.410156 11.777344 46.441406 11.730469 46.441406 C 11.511719 46.441406 9.058594 45.785156 8.964844 45.769531 L 8.949219 45.816406 L 8.996094 46.253906 L 9.011719 46.269531 L 9.339844 46.347656 L 9.339844 46.363281 C 9.136719 46.378906 8.949219 46.613281 8.949219 46.925781 C 8.949219 47.894531 10.292969 48.988281 11.355469 48.988281 C 11.558594 48.988281 12.199219 48.972656 12.199219 48.253906 C 12.199219 47.816406 11.980469 47.441406 11.105469 46.832031 L 11.121094 46.816406 C 11.558594 46.941406 11.714844 46.972656 11.886719 46.972656 C 12.011719 46.972656 12.199219 46.972656 12.199219 46.675781 C 12.199219 46.363281 11.933594 46.113281 11.402344 45.691406 Z M 11.339844 48.378906 C 10.683594 48.378906 9.105469 47.738281 9.105469 46.894531 C 9.105469 46.691406 9.246094 46.488281 9.589844 46.488281 C 10.292969 46.488281 11.839844 47.191406 11.839844 47.957031 C 11.839844 48.144531 11.714844 48.378906 11.339844 48.378906 Z M 11.339844 48.378906 "
       id="path114" />
    <path
       style=" stroke:none;fill-rule:nonzero;fill:rgb(12.940979%,11.764526%,11.764526%);fill-opacity:1;"
       d="M 9.214844 45.355469 C 9.167969 44.824219 9.277344 44.808594 9.933594 44.699219 C 10.355469 44.621094 11.511719 44.527344 12.027344 44.527344 C 12.152344 44.527344 12.246094 44.527344 12.246094 44.464844 C 12.246094 44.355469 12.105469 44.230469 11.589844 43.761719 C 11.339844 43.511719 10.058594 42.449219 9.402344 42.449219 C 9.136719 42.449219 8.949219 42.621094 8.949219 42.855469 C 8.949219 42.996094 9.042969 43.105469 9.152344 43.105469 C 9.542969 43.105469 9.464844 42.808594 9.746094 42.808594 C 10.105469 42.808594 10.964844 43.386719 11.386719 43.792969 L 11.621094 44.027344 C 10.636719 44.074219 10.042969 44.121094 9.089844 44.324219 C 8.933594 44.371094 8.949219 44.371094 8.949219 44.449219 C 8.949219 44.480469 9.042969 44.839844 9.121094 45.355469 Z M 9.214844 45.355469 "
       id="path116" />
    <path
       style=" stroke:none;fill-rule:nonzero;fill:rgb(12.940979%,11.764526%,11.764526%);fill-opacity:1;"
       d="M 10.308594 41.222656 C 9.667969 40.957031 9.105469 40.472656 9.105469 40.082031 C 9.105469 39.894531 9.246094 39.816406 9.402344 39.816406 C 9.449219 39.816406 10.324219 39.863281 10.621094 41.347656 Z M 11.339844 39.738281 C 11.636719 40.097656 11.871094 40.394531 11.871094 40.785156 C 11.871094 41.097656 11.714844 41.472656 11.214844 41.472656 C 11.074219 41.472656 10.933594 41.425781 10.777344 41.394531 L 10.746094 41.191406 C 10.589844 40.019531 9.996094 39.347656 9.433594 39.347656 C 9.121094 39.347656 8.949219 39.566406 8.949219 39.941406 C 8.949219 40.957031 10.152344 42.097656 11.183594 42.097656 C 11.636719 42.097656 12.199219 41.863281 12.199219 41.113281 C 12.199219 40.378906 11.542969 39.738281 11.417969 39.644531 Z M 11.339844 39.738281 "
       id="path118" />
    <path
       style=" stroke:none;fill-rule:nonzero;fill:rgb(12.940979%,11.764526%,11.764526%);fill-opacity:1;"
       d="M 10.277344 37.089844 L 10.277344 38.667969 L 10.730469 38.761719 L 10.730469 37.183594 Z M 10.277344 37.089844 "
       id="path120" />
    <path
       style=" stroke:none;fill-rule:nonzero;fill:rgb(12.940979%,11.764526%,11.764526%);fill-opacity:1;"
       d="M 8.949219 34.410156 C 8.949219 35.457031 10.105469 36.535156 11.167969 36.535156 C 11.761719 36.535156 12.199219 36.207031 12.199219 35.441406 C 12.199219 34.332031 10.902344 33.347656 10.011719 33.347656 C 9.542969 33.347656 8.949219 33.582031 8.949219 34.410156 Z M 9.089844 34.457031 C 9.089844 34.113281 9.417969 33.957031 9.792969 33.957031 C 10.558594 33.957031 12.042969 34.519531 12.042969 35.347656 C 12.042969 35.707031 11.792969 35.925781 11.386719 35.925781 C 10.527344 35.925781 9.089844 35.269531 9.089844 34.457031 Z M 9.089844 34.457031 "
       id="path122" />
    <path
       style=" stroke:none;fill-rule:nonzero;fill:rgb(12.940979%,11.764526%,11.764526%);fill-opacity:1;"
       d="M 11.277344 29.808594 C 11.621094 30.074219 11.839844 30.261719 11.839844 30.402344 C 11.839844 30.417969 11.839844 30.511719 11.730469 30.511719 C 11.511719 30.511719 9.730469 29.933594 9.417969 29.933594 C 9.121094 29.933594 8.949219 30.105469 8.949219 30.433594 C 8.949219 31.027344 9.949219 31.699219 10.480469 32.027344 L 10.464844 32.042969 L 8.964844 31.589844 L 8.949219 31.605469 C 9.027344 31.996094 9.089844 32.386719 9.167969 32.777344 L 9.277344 32.777344 C 9.277344 32.386719 9.355469 32.308594 9.464844 32.308594 C 9.621094 32.308594 11.308594 32.792969 12.121094 33.027344 L 12.121094 32.480469 C 11.136719 32.183594 10.824219 32.089844 10.339844 31.761719 C 9.933594 31.496094 9.308594 31.042969 9.308594 30.699219 C 9.308594 30.558594 9.417969 30.527344 9.542969 30.527344 C 9.824219 30.527344 11.589844 31.058594 11.761719 31.058594 C 11.964844 31.058594 12.183594 31.042969 12.183594 30.714844 C 12.183594 30.324219 11.855469 30.074219 11.371094 29.699219 Z M 11.277344 29.808594 "
       id="path124" />
    <path
       style=" stroke:none;fill-rule:nonzero;fill:rgb(12.940979%,11.764526%,11.764526%);fill-opacity:1;"
       d="M 10.308594 28.429688 C 9.667969 28.164063 9.105469 27.679688 9.105469 27.289063 C 9.105469 27.101563 9.246094 27.023438 9.402344 27.023438 C 9.449219 27.023438 10.324219 27.070313 10.621094 28.554688 Z M 11.339844 26.945313 C 11.636719 27.304688 11.871094 27.601563 11.871094 27.992188 C 11.871094 28.304688 11.714844 28.679688 11.214844 28.679688 C 11.074219 28.679688 10.933594 28.632813 10.777344 28.601563 L 10.746094 28.398438 C 10.589844 27.226563 9.996094 26.554688 9.433594 26.554688 C 9.121094 26.554688 8.949219 26.773438 8.949219 27.148438 C 8.949219 28.164063 10.152344 29.304688 11.183594 29.304688 C 11.636719 29.304688 12.199219 29.070313 12.199219 28.320313 C 12.199219 27.585938 11.542969 26.945313 11.417969 26.851563 Z M 11.339844 26.945313 "
       id="path126" />
    <path
       style=" stroke:none;fill-rule:nonzero;fill:rgb(12.940979%,11.764526%,11.764526%);fill-opacity:1;"
       d="M 10.277344 24.292969 L 10.277344 25.871094 L 10.730469 25.964844 L 10.730469 24.386719 Z M 10.277344 24.292969 "
       id="path128" />
    <path
       style=" stroke:none;fill-rule:nonzero;fill:rgb(12.940979%,11.764526%,11.764526%);fill-opacity:1;"
       d="M 8.949219 21.617188 C 8.949219 22.664063 10.105469 23.742188 11.167969 23.742188 C 11.761719 23.742188 12.199219 23.414063 12.199219 22.648438 C 12.199219 21.539063 10.902344 20.554688 10.011719 20.554688 C 9.542969 20.554688 8.949219 20.789063 8.949219 21.617188 Z M 9.089844 21.664063 C 9.089844 21.320313 9.417969 21.164063 9.792969 21.164063 C 10.558594 21.164063 12.042969 21.726563 12.042969 22.554688 C 12.042969 22.914063 11.792969 23.132813 11.386719 23.132813 C 10.527344 23.132813 9.089844 22.476563 9.089844 21.664063 Z M 9.089844 21.664063 "
       id="path130" />
    <path
       style=" stroke:none;fill-rule:nonzero;fill:rgb(12.940979%,11.764526%,11.764526%);fill-opacity:1;"
       d="M 11.277344 17 C 11.589844 17.265625 11.839844 17.46875 11.839844 17.59375 C 11.839844 17.671875 11.761719 17.6875 11.730469 17.6875 C 11.621094 17.6875 11.308594 17.59375 11.167969 17.546875 L 9.011719 16.984375 L 9.011719 17.515625 C 9.777344 17.796875 10.230469 17.953125 10.761719 18.296875 C 11.136719 18.546875 11.824219 19 11.824219 19.3125 C 11.824219 19.46875 11.667969 19.484375 11.574219 19.46875 L 8.964844 18.8125 L 8.949219 18.828125 C 9.027344 19.1875 9.089844 19.546875 9.136719 19.90625 L 9.246094 19.90625 C 9.246094 19.609375 9.246094 19.484375 9.449219 19.484375 C 9.636719 19.484375 11.464844 20.03125 11.777344 20.03125 C 12.089844 20.03125 12.199219 19.890625 12.199219 19.625 C 12.199219 18.984375 11.292969 18.453125 10.480469 17.953125 L 10.480469 17.9375 C 11.074219 18.109375 11.683594 18.25 11.808594 18.25 C 11.917969 18.25 12.183594 18.234375 12.183594 17.90625 C 12.183594 17.546875 11.996094 17.359375 11.339844 16.90625 Z M 11.277344 17 "
       id="path132" />
    <path
       style=" stroke:none;fill-rule:nonzero;fill:rgb(12.940979%,11.764526%,11.764526%);fill-opacity:1;"
       d="M 9.042969 14.601563 L 9.042969 15.164063 L 8.292969 14.976563 C 8.246094 14.960938 8.167969 14.976563 8.183594 15.023438 C 8.167969 15.085938 8.246094 15.117188 8.277344 15.148438 C 8.527344 15.335938 8.855469 15.695313 8.980469 15.929688 C 9.042969 16.054688 9.089844 16.257813 9.152344 16.289063 C 9.183594 16.320313 9.230469 16.320313 9.261719 16.304688 L 9.261719 15.773438 L 11.246094 16.289063 C 11.371094 16.320313 11.808594 16.460938 11.917969 16.460938 C 12.121094 16.460938 12.199219 16.257813 12.199219 16.117188 C 12.199219 15.742188 11.886719 15.460938 11.324219 15.085938 L 11.277344 15.179688 C 11.511719 15.367188 11.839844 15.617188 11.839844 15.757813 C 11.839844 15.835938 11.792969 15.882813 11.730469 15.882813 C 11.699219 15.882813 11.683594 15.882813 11.667969 15.867188 L 9.261719 15.242188 L 9.261719 14.632813 Z M 9.042969 14.601563 "
       id="path134" />
    <path
       style=" stroke:none;fill-rule:nonzero;fill:rgb(12.940979%,11.764526%,11.764526%);fill-opacity:1;"
       d="M 19.320313 57.914063 C 18.367188 57.617188 18.039063 57.523438 17.523438 57.242188 C 17.414063 57.195313 16.617188 56.757813 16.617188 56.539063 C 16.617188 56.367188 16.867188 56.476563 16.867188 56.164063 C 16.867188 56.085938 16.867188 55.820313 16.492188 55.820313 C 16.257813 55.820313 16.148438 56.007813 16.148438 56.164063 C 16.148438 56.617188 16.992188 57.164063 17.460938 57.398438 L 17.601563 57.460938 L 17.585938 57.476563 L 16.164063 57.132813 L 16.148438 57.148438 C 16.195313 57.476563 16.289063 57.898438 16.335938 58.257813 L 16.460938 58.257813 C 16.445313 58.179688 16.429688 58.101563 16.429688 58.023438 C 16.429688 57.804688 16.539063 57.773438 16.648438 57.773438 C 16.710938 57.773438 16.945313 57.804688 17.210938 57.882813 L 19.320313 58.460938 Z M 19.320313 57.914063 "
       id="path136" />
    <path
       style=" stroke:none;fill-rule:nonzero;fill:rgb(12.940979%,11.764526%,11.764526%);fill-opacity:1;"
       d="M 17.507813 55.160156 C 16.867188 54.894531 16.304688 54.410156 16.304688 54.019531 C 16.304688 53.832031 16.445313 53.753906 16.601563 53.753906 C 16.648438 53.753906 17.523438 53.800781 17.820313 55.285156 Z M 18.539063 53.675781 C 18.835938 54.035156 19.070313 54.332031 19.070313 54.722656 C 19.070313 55.035156 18.914063 55.410156 18.414063 55.410156 C 18.273438 55.410156 18.132813 55.363281 17.976563 55.332031 L 17.945313 55.128906 C 17.789063 53.957031 17.195313 53.285156 16.632813 53.285156 C 16.320313 53.285156 16.148438 53.503906 16.148438 53.878906 C 16.148438 54.894531 17.351563 56.035156 18.382813 56.035156 C 18.835938 56.035156 19.398438 55.800781 19.398438 55.050781 C 19.398438 54.316406 18.742188 53.675781 18.617188 53.582031 Z M 18.539063 53.675781 "
       id="path138" />
    <path
       style=" stroke:none;fill-rule:nonzero;fill:rgb(12.940979%,11.764526%,11.764526%);fill-opacity:1;"
       d="M 17.070313 50.320313 C 17.929688 50.320313 19.257813 50.976563 19.257813 51.851563 C 19.257813 52.039063 19.179688 52.210938 18.992188 52.210938 C 18.710938 52.210938 17.742188 51.929688 17.273438 51.742188 C 16.789063 51.554688 16.460938 51.132813 16.460938 50.804688 C 16.460938 50.335938 16.867188 50.320313 17.070313 50.320313 Z M 16.414063 52.648438 L 16.414063 52.492188 C 16.398438 52.320313 16.492188 52.179688 16.617188 52.179688 C 16.773438 52.179688 19.445313 52.914063 20.257813 53.117188 C 20.492188 53.164063 20.679688 53.210938 20.679688 53.601563 L 20.804688 53.601563 L 20.804688 52.117188 L 20.695313 52.117188 C 20.695313 52.304688 20.695313 52.585938 20.460938 52.585938 C 20.320313 52.585938 19.523438 52.382813 19.273438 52.320313 C 19.367188 52.148438 19.398438 52.007813 19.398438 51.820313 C 19.398438 50.835938 18.210938 49.679688 17.085938 49.679688 C 16.570313 49.679688 16.148438 49.898438 16.148438 50.539063 C 16.148438 51.117188 16.664063 51.539063 16.914063 51.710938 L 16.914063 51.726563 L 16.242188 51.523438 C 16.164063 51.492188 16.148438 51.523438 16.148438 51.554688 L 16.304688 52.664063 Z M 16.414063 52.648438 "
       id="path140" />
    <path
       style=" stroke:none;fill-rule:nonzero;fill:rgb(12.940979%,11.764526%,11.764526%);fill-opacity:1;"
       d="M 18.429688 47.816406 C 18.882813 48.160156 19.085938 48.316406 19.085938 48.503906 C 19.085938 48.613281 18.992188 48.613281 18.945313 48.613281 C 18.867188 48.613281 18.679688 48.550781 18.601563 48.535156 L 14.429688 47.441406 L 14.398438 47.488281 C 14.492188 47.863281 14.554688 48.238281 14.601563 48.613281 L 14.710938 48.613281 C 14.695313 48.425781 14.695313 48.113281 14.882813 48.113281 C 15.039063 48.113281 18.804688 49.160156 18.945313 49.160156 C 19.148438 49.160156 19.398438 49.128906 19.398438 48.816406 C 19.398438 48.363281 19.054688 48.082031 18.492188 47.722656 Z M 18.429688 47.816406 "
       id="path142" />
    <path
       style=" stroke:none;fill-rule:nonzero;fill:rgb(12.940979%,11.764526%,11.764526%);fill-opacity:1;"
       d="M 18.492188 45.859375 C 18.914063 46.15625 19.054688 46.359375 19.054688 46.4375 C 19.054688 46.515625 19.007813 46.5625 18.945313 46.5625 C 18.867188 46.5625 18.585938 46.46875 18.476563 46.4375 L 16.164063 45.8125 L 16.148438 45.828125 C 16.195313 46.109375 16.304688 46.71875 16.320313 46.984375 L 16.445313 46.984375 C 16.445313 46.59375 16.476563 46.53125 16.632813 46.53125 C 16.820313 46.53125 18.617188 47.09375 18.945313 47.09375 C 19.085938 47.09375 19.398438 47.09375 19.398438 46.765625 C 19.398438 46.359375 19.007813 46.046875 18.585938 45.765625 Z M 15.007813 45.546875 C 14.851563 45.546875 14.617188 45.671875 14.617188 45.90625 C 14.617188 46.078125 14.742188 46.25 14.992188 46.25 C 15.257813 46.25 15.367188 46.078125 15.367188 45.90625 C 15.367188 45.671875 15.148438 45.546875 15.007813 45.546875 Z M 15.007813 45.546875 "
       id="path144" />
    <path
       style=" stroke:none;fill-rule:nonzero;fill:rgb(12.940979%,11.764526%,11.764526%);fill-opacity:1;"
       d="M 18.554688 42.9375 C 18.851563 43.1875 19.132813 43.53125 19.132813 43.96875 C 19.132813 44.40625 18.820313 44.625 18.257813 44.625 C 17.570313 44.625 16.289063 44.125 16.289063 43.1875 C 16.289063 43.046875 16.335938 42.90625 16.445313 42.90625 C 16.554688 42.90625 16.601563 43.015625 16.789063 43.015625 C 16.960938 43.015625 17.054688 42.90625 17.054688 42.734375 C 17.054688 42.546875 16.929688 42.390625 16.726563 42.390625 C 16.507813 42.390625 16.148438 42.578125 16.148438 43.171875 C 16.148438 44.25 17.242188 45.234375 18.257813 45.234375 C 19.226563 45.234375 19.398438 44.640625 19.398438 44.171875 C 19.398438 43.421875 18.851563 43 18.632813 42.8125 Z M 18.554688 42.9375 "
       id="path146" />
    <path
       style=" stroke:none;fill-rule:nonzero;fill:rgb(12.940979%,11.764526%,11.764526%);fill-opacity:1;"
       d="M 18.523438 38.914063 C 18.851563 39.242188 19.023438 39.382813 19.023438 39.492188 C 19.023438 39.554688 18.976563 39.585938 18.929688 39.585938 C 18.710938 39.585938 16.257813 38.929688 16.164063 38.914063 L 16.148438 38.960938 L 16.195313 39.398438 L 16.210938 39.414063 L 16.539063 39.492188 L 16.539063 39.507813 C 16.335938 39.523438 16.148438 39.757813 16.148438 40.070313 C 16.148438 41.039063 17.492188 42.132813 18.554688 42.132813 C 18.757813 42.132813 19.398438 42.117188 19.398438 41.398438 C 19.398438 40.960938 19.179688 40.585938 18.304688 39.976563 L 18.320313 39.960938 C 18.757813 40.085938 18.914063 40.117188 19.085938 40.117188 C 19.210938 40.117188 19.398438 40.117188 19.398438 39.820313 C 19.398438 39.507813 19.132813 39.257813 18.601563 38.835938 Z M 18.539063 41.523438 C 17.882813 41.523438 16.304688 40.882813 16.304688 40.039063 C 16.304688 39.835938 16.445313 39.632813 16.789063 39.632813 C 17.492188 39.632813 19.039063 40.335938 19.039063 41.101563 C 19.039063 41.289063 18.914063 41.523438 18.539063 41.523438 Z M 18.539063 41.523438 "
       id="path148" />
    <path
       style=" stroke:none;fill-rule:nonzero;fill:rgb(12.940979%,11.764526%,11.764526%);fill-opacity:1;"
       d="M 16.242188 36.53125 L 16.242188 37.09375 L 15.492188 36.90625 C 15.445313 36.890625 15.367188 36.90625 15.382813 36.953125 C 15.367188 37.015625 15.445313 37.046875 15.476563 37.078125 C 15.726563 37.265625 16.054688 37.625 16.179688 37.859375 C 16.242188 37.984375 16.289063 38.1875 16.351563 38.21875 C 16.382813 38.25 16.429688 38.25 16.460938 38.234375 L 16.460938 37.703125 L 18.445313 38.21875 C 18.570313 38.25 19.007813 38.390625 19.117188 38.390625 C 19.320313 38.390625 19.398438 38.1875 19.398438 38.046875 C 19.398438 37.671875 19.085938 37.390625 18.523438 37.015625 L 18.476563 37.109375 C 18.710938 37.296875 19.039063 37.546875 19.039063 37.6875 C 19.039063 37.765625 18.992188 37.8125 18.929688 37.8125 C 18.898438 37.8125 18.882813 37.8125 18.867188 37.796875 L 16.460938 37.171875 L 16.460938 36.5625 Z M 16.242188 36.53125 "
       id="path150" />
    <path
       style=" stroke:none;fill-rule:nonzero;fill:rgb(12.940979%,11.764526%,11.764526%);fill-opacity:1;"
       d="M 18.492188 35.0625 C 18.914063 35.359375 19.054688 35.5625 19.054688 35.640625 C 19.054688 35.71875 19.007813 35.765625 18.945313 35.765625 C 18.867188 35.765625 18.585938 35.671875 18.476563 35.640625 L 16.164063 35.015625 L 16.148438 35.03125 C 16.195313 35.3125 16.304688 35.921875 16.320313 36.1875 L 16.445313 36.1875 C 16.445313 35.796875 16.476563 35.734375 16.632813 35.734375 C 16.820313 35.734375 18.617188 36.296875 18.945313 36.296875 C 19.085938 36.296875 19.398438 36.296875 19.398438 35.96875 C 19.398438 35.5625 19.007813 35.25 18.585938 34.96875 Z M 15.007813 34.75 C 14.851563 34.75 14.617188 34.875 14.617188 35.109375 C 14.617188 35.28125 14.742188 35.453125 14.992188 35.453125 C 15.257813 35.453125 15.367188 35.28125 15.367188 35.109375 C 15.367188 34.875 15.148438 34.75 15.007813 34.75 Z M 15.007813 34.75 "
       id="path152" />
    <path
       style=" stroke:none;fill-rule:nonzero;fill:rgb(12.940979%,11.764526%,11.764526%);fill-opacity:1;"
       d="M 16.148438 32.339844 C 16.148438 33.386719 17.304688 34.464844 18.367188 34.464844 C 18.960938 34.464844 19.398438 34.136719 19.398438 33.371094 C 19.398438 32.261719 18.101563 31.277344 17.210938 31.277344 C 16.742188 31.277344 16.148438 31.511719 16.148438 32.339844 Z M 16.289063 32.386719 C 16.289063 32.042969 16.617188 31.886719 16.992188 31.886719 C 17.757813 31.886719 19.242188 32.449219 19.242188 33.277344 C 19.242188 33.636719 18.992188 33.855469 18.585938 33.855469 C 17.726563 33.855469 16.289063 33.199219 16.289063 32.386719 Z M 16.289063 32.386719 "
       id="path154" />
    <path
       style=" stroke:none;fill-rule:nonzero;fill:rgb(12.940979%,11.764526%,11.764526%);fill-opacity:1;"
       d="M 18.476563 27.742188 C 18.820313 28.007813 19.039063 28.195313 19.039063 28.335938 C 19.039063 28.351563 19.039063 28.445313 18.929688 28.445313 C 18.710938 28.445313 16.929688 27.867188 16.617188 27.867188 C 16.320313 27.867188 16.148438 28.039063 16.148438 28.367188 C 16.148438 28.960938 17.148438 29.632813 17.679688 29.960938 L 17.664063 29.976563 L 16.164063 29.523438 L 16.148438 29.539063 C 16.226563 29.929688 16.289063 30.320313 16.367188 30.710938 L 16.476563 30.710938 C 16.476563 30.320313 16.554688 30.242188 16.664063 30.242188 C 16.820313 30.242188 18.507813 30.726563 19.320313 30.960938 L 19.320313 30.414063 C 18.335938 30.117188 18.023438 30.023438 17.539063 29.695313 C 17.132813 29.429688 16.507813 28.976563 16.507813 28.632813 C 16.507813 28.492188 16.617188 28.460938 16.742188 28.460938 C 17.023438 28.460938 18.789063 28.992188 18.960938 28.992188 C 19.164063 28.992188 19.382813 28.976563 19.382813 28.648438 C 19.382813 28.257813 19.054688 28.007813 18.570313 27.632813 Z M 18.476563 27.742188 "
       id="path156" />
    <path
       style=" stroke:none;fill-rule:nonzero;fill:rgb(12.940979%,11.764526%,11.764526%);fill-opacity:1;"
       d="M 18.476563 22.308594 C 18.820313 22.574219 19.039063 22.746094 19.039063 22.886719 C 19.039063 22.949219 18.992188 23.011719 18.914063 23.011719 C 18.757813 23.011719 16.914063 22.417969 16.664063 22.417969 C 16.195313 22.417969 16.148438 22.761719 16.148438 22.917969 C 16.148438 23.558594 17.257813 24.292969 17.617188 24.527344 L 17.601563 24.542969 L 14.429688 23.683594 L 14.398438 23.714844 C 14.492188 24.089844 14.554688 24.480469 14.601563 24.855469 L 14.710938 24.855469 L 14.695313 24.667969 C 14.710938 24.433594 14.804688 24.371094 14.882813 24.371094 C 14.992188 24.371094 15.414063 24.480469 15.710938 24.558594 L 19.320313 25.511719 L 19.320313 24.980469 C 18.414063 24.730469 18.023438 24.636719 17.523438 24.308594 C 17.320313 24.167969 16.507813 23.558594 16.507813 23.199219 C 16.507813 23.074219 16.585938 22.980469 16.710938 22.980469 C 16.804688 22.980469 18.867188 23.574219 19.054688 23.574219 C 19.242188 23.574219 19.382813 23.480469 19.382813 23.246094 C 19.382813 22.777344 18.945313 22.464844 18.570313 22.214844 Z M 18.476563 22.308594 "
       id="path158" />
    <path
       style=" stroke:none;fill-rule:nonzero;fill:rgb(12.940979%,11.764526%,11.764526%);fill-opacity:1;"
       d="M 18.523438 18.710938 C 18.851563 19.039063 19.023438 19.179688 19.023438 19.289063 C 19.023438 19.351563 18.976563 19.382813 18.929688 19.382813 C 18.710938 19.382813 16.257813 18.726563 16.164063 18.710938 L 16.148438 18.757813 L 16.195313 19.195313 L 16.210938 19.210938 L 16.539063 19.289063 L 16.539063 19.304688 C 16.335938 19.320313 16.148438 19.554688 16.148438 19.867188 C 16.148438 20.835938 17.492188 21.929688 18.554688 21.929688 C 18.757813 21.929688 19.398438 21.914063 19.398438 21.195313 C 19.398438 20.757813 19.179688 20.382813 18.304688 19.773438 L 18.320313 19.757813 C 18.757813 19.882813 18.914063 19.914063 19.085938 19.914063 C 19.210938 19.914063 19.398438 19.914063 19.398438 19.617188 C 19.398438 19.304688 19.132813 19.054688 18.601563 18.632813 Z M 18.539063 21.320313 C 17.882813 21.320313 16.304688 20.679688 16.304688 19.835938 C 16.304688 19.632813 16.445313 19.429688 16.789063 19.429688 C 17.492188 19.429688 19.039063 20.132813 19.039063 20.898438 C 19.039063 21.085938 18.914063 21.320313 18.539063 21.320313 Z M 18.539063 21.320313 "
       id="path160" />
    <path
       style=" stroke:none;fill-rule:nonzero;fill:rgb(12.940979%,11.764526%,11.764526%);fill-opacity:1;"
       d="M 18.273438 18.1875 L 19.414063 18.34375 L 19.414063 18.21875 C 19.335938 18.171875 19.257813 18.15625 19.257813 18.046875 C 19.257813 17.84375 19.398438 17.546875 19.398438 17.34375 C 19.398438 16.9375 19.226563 16.265625 18.429688 16.265625 C 17.820313 16.265625 17.179688 17.140625 16.726563 17.140625 C 16.367188 17.140625 16.304688 16.90625 16.304688 16.75 C 16.304688 16.28125 16.726563 16.109375 17.132813 16.078125 L 17.132813 15.953125 L 16.132813 15.8125 L 16.132813 15.921875 C 16.195313 15.953125 16.273438 16 16.273438 16.125 C 16.273438 16.328125 16.148438 16.484375 16.148438 16.796875 C 16.148438 17.5625 16.726563 17.671875 16.945313 17.671875 C 17.492188 17.671875 18.195313 16.8125 18.664063 16.8125 C 18.898438 16.8125 19.242188 16.921875 19.242188 17.328125 C 19.242188 17.90625 18.585938 18.03125 18.273438 18.078125 Z M 18.273438 18.1875 "
       id="path162" />
    <path
       style=" stroke:none;fill-rule:nonzero;fill:rgb(12.940979%,11.764526%,11.764526%);fill-opacity:1;"
       d="M 18.523438 10.507813 C 18.851563 10.835938 19.023438 10.976563 19.023438 11.085938 C 19.023438 11.148438 18.976563 11.179688 18.929688 11.179688 C 18.710938 11.179688 16.257813 10.523438 16.164063 10.507813 L 16.148438 10.554688 L 16.195313 10.992188 L 16.210938 11.007813 L 16.539063 11.085938 L 16.539063 11.101563 C 16.335938 11.117188 16.148438 11.351563 16.148438 11.664063 C 16.148438 12.632813 17.492188 13.726563 18.554688 13.726563 C 18.757813 13.726563 19.398438 13.710938 19.398438 12.992188 C 19.398438 12.554688 19.179688 12.179688 18.304688 11.570313 L 18.320313 11.554688 C 18.757813 11.679688 18.914063 11.710938 19.085938 11.710938 C 19.210938 11.710938 19.398438 11.710938 19.398438 11.414063 C 19.398438 11.101563 19.132813 10.851563 18.601563 10.429688 Z M 18.539063 13.117188 C 17.882813 13.117188 16.304688 12.476563 16.304688 11.632813 C 16.304688 11.429688 16.445313 11.226563 16.789063 11.226563 C 17.492188 11.226563 19.039063 11.929688 19.039063 12.695313 C 19.039063 12.882813 18.914063 13.117188 18.539063 13.117188 Z M 18.539063 13.117188 "
       id="path164" />
    <path
       style=" stroke:none;fill-rule:nonzero;fill:rgb(12.940979%,11.764526%,11.764526%);fill-opacity:1;"
       d="M 24.273438 60.480469 C 25.132813 60.480469 26.460938 61.136719 26.460938 62.011719 C 26.460938 62.199219 26.382813 62.371094 26.195313 62.371094 C 25.914063 62.371094 24.945313 62.089844 24.476563 61.902344 C 23.992188 61.714844 23.664063 61.292969 23.664063 60.964844 C 23.664063 60.496094 24.070313 60.480469 24.273438 60.480469 Z M 23.617188 62.808594 L 23.617188 62.652344 C 23.601563 62.480469 23.695313 62.339844 23.820313 62.339844 C 23.976563 62.339844 26.648438 63.074219 27.460938 63.277344 C 27.695313 63.324219 27.882813 63.371094 27.882813 63.761719 L 28.007813 63.761719 L 28.007813 62.277344 L 27.898438 62.277344 C 27.898438 62.464844 27.898438 62.746094 27.664063 62.746094 C 27.523438 62.746094 26.726563 62.542969 26.476563 62.480469 C 26.570313 62.308594 26.601563 62.167969 26.601563 61.980469 C 26.601563 60.996094 25.414063 59.839844 24.289063 59.839844 C 23.773438 59.839844 23.351563 60.058594 23.351563 60.699219 C 23.351563 61.277344 23.867188 61.699219 24.117188 61.871094 L 24.117188 61.886719 L 23.445313 61.683594 C 23.367188 61.652344 23.351563 61.683594 23.351563 61.714844 L 23.507813 62.824219 Z M 23.617188 62.808594 "
       id="path166" />
    <path
       style=" stroke:none;fill-rule:nonzero;fill:rgb(12.940979%,11.764526%,11.764526%);fill-opacity:1;"
       d="M 25.726563 56.269531 C 26.054688 56.597656 26.226563 56.738281 26.226563 56.847656 C 26.226563 56.910156 26.179688 56.941406 26.132813 56.941406 C 25.914063 56.941406 23.460938 56.285156 23.367188 56.269531 L 23.351563 56.316406 L 23.398438 56.753906 L 23.414063 56.769531 L 23.742188 56.847656 L 23.742188 56.863281 C 23.539063 56.878906 23.351563 57.113281 23.351563 57.425781 C 23.351563 58.394531 24.695313 59.488281 25.757813 59.488281 C 25.960938 59.488281 26.601563 59.472656 26.601563 58.753906 C 26.601563 58.316406 26.382813 57.941406 25.507813 57.332031 L 25.523438 57.316406 C 25.960938 57.441406 26.117188 57.472656 26.289063 57.472656 C 26.414063 57.472656 26.601563 57.472656 26.601563 57.175781 C 26.601563 56.863281 26.335938 56.613281 25.804688 56.191406 Z M 25.742188 58.878906 C 25.085938 58.878906 23.507813 58.238281 23.507813 57.394531 C 23.507813 57.191406 23.648438 56.988281 23.992188 56.988281 C 24.695313 56.988281 26.242188 57.691406 26.242188 58.457031 C 26.242188 58.644531 26.117188 58.878906 25.742188 58.878906 Z M 25.742188 58.878906 "
       id="path168" />
    <path
       style=" stroke:none;fill-rule:nonzero;fill:rgb(12.940979%,11.764526%,11.764526%);fill-opacity:1;"
       d="M 26.523438 55.140625 C 25.570313 54.84375 25.242188 54.75 24.726563 54.46875 C 24.617188 54.421875 23.820313 53.984375 23.820313 53.765625 C 23.820313 53.59375 24.070313 53.703125 24.070313 53.390625 C 24.070313 53.3125 24.070313 53.046875 23.695313 53.046875 C 23.460938 53.046875 23.351563 53.234375 23.351563 53.390625 C 23.351563 53.84375 24.195313 54.390625 24.664063 54.625 L 24.804688 54.6875 L 24.789063 54.703125 L 23.367188 54.359375 L 23.351563 54.375 C 23.398438 54.703125 23.492188 55.125 23.539063 55.484375 L 23.664063 55.484375 C 23.648438 55.40625 23.632813 55.328125 23.632813 55.25 C 23.632813 55.03125 23.742188 55 23.851563 55 C 23.914063 55 24.148438 55.03125 24.414063 55.109375 L 26.523438 55.6875 Z M 26.523438 55.140625 "
       id="path170" />
    <path
       style=" stroke:none;fill-rule:nonzero;fill:rgb(12.940979%,11.764526%,11.764526%);fill-opacity:1;"
       d="M 23.445313 51.089844 L 23.445313 51.652344 L 22.695313 51.464844 C 22.648438 51.449219 22.570313 51.464844 22.585938 51.511719 C 22.570313 51.574219 22.648438 51.605469 22.679688 51.636719 C 22.929688 51.824219 23.257813 52.183594 23.382813 52.417969 C 23.445313 52.542969 23.492188 52.746094 23.554688 52.777344 C 23.585938 52.808594 23.632813 52.808594 23.664063 52.792969 L 23.664063 52.261719 L 25.648438 52.777344 C 25.773438 52.808594 26.210938 52.949219 26.320313 52.949219 C 26.523438 52.949219 26.601563 52.746094 26.601563 52.605469 C 26.601563 52.230469 26.289063 51.949219 25.726563 51.574219 L 25.679688 51.667969 C 25.914063 51.855469 26.242188 52.105469 26.242188 52.246094 C 26.242188 52.324219 26.195313 52.371094 26.132813 52.371094 C 26.101563 52.371094 26.085938 52.371094 26.070313 52.355469 L 23.664063 51.730469 L 23.664063 51.121094 Z M 23.445313 51.089844 "
       id="path172" />
    <path
       style=" stroke:none;fill-rule:nonzero;fill:rgb(12.940979%,11.764526%,11.764526%);fill-opacity:1;"
       d="M 25.695313 49.617188 C 26.117188 49.914063 26.257813 50.117188 26.257813 50.195313 C 26.257813 50.273438 26.210938 50.320313 26.148438 50.320313 C 26.070313 50.320313 25.789063 50.226563 25.679688 50.195313 L 23.367188 49.570313 L 23.351563 49.585938 C 23.398438 49.867188 23.507813 50.476563 23.523438 50.742188 L 23.648438 50.742188 C 23.648438 50.351563 23.679688 50.289063 23.835938 50.289063 C 24.023438 50.289063 25.820313 50.851563 26.148438 50.851563 C 26.289063 50.851563 26.601563 50.851563 26.601563 50.523438 C 26.601563 50.117188 26.210938 49.804688 25.789063 49.523438 Z M 22.210938 49.304688 C 22.054688 49.304688 21.820313 49.429688 21.820313 49.664063 C 21.820313 49.835938 21.945313 50.007813 22.195313 50.007813 C 22.460938 50.007813 22.570313 49.835938 22.570313 49.664063 C 22.570313 49.429688 22.351563 49.304688 22.210938 49.304688 Z M 22.210938 49.304688 "
       id="path174" />
    <path
       style=" stroke:none;fill-rule:nonzero;fill:rgb(12.940979%,11.764526%,11.764526%);fill-opacity:1;"
       d="M 25.757813 46.695313 C 26.054688 46.945313 26.335938 47.289063 26.335938 47.726563 C 26.335938 48.164063 26.023438 48.382813 25.460938 48.382813 C 24.773438 48.382813 23.492188 47.882813 23.492188 46.945313 C 23.492188 46.804688 23.539063 46.664063 23.648438 46.664063 C 23.757813 46.664063 23.804688 46.773438 23.992188 46.773438 C 24.164063 46.773438 24.257813 46.664063 24.257813 46.492188 C 24.257813 46.304688 24.132813 46.148438 23.929688 46.148438 C 23.710938 46.148438 23.351563 46.335938 23.351563 46.929688 C 23.351563 48.007813 24.445313 48.992188 25.460938 48.992188 C 26.429688 48.992188 26.601563 48.398438 26.601563 47.929688 C 26.601563 47.179688 26.054688 46.757813 25.835938 46.570313 Z M 25.757813 46.695313 "
       id="path176" />
    <path
       style=" stroke:none;fill-rule:nonzero;fill:rgb(12.940979%,11.764526%,11.764526%);fill-opacity:1;"
       d="M 25.679688 42.6875 C 25.992188 42.953125 26.242188 43.15625 26.242188 43.28125 C 26.242188 43.359375 26.164063 43.375 26.132813 43.375 C 26.023438 43.375 25.710938 43.28125 25.570313 43.234375 L 23.414063 42.671875 L 23.414063 43.203125 C 24.179688 43.484375 24.632813 43.640625 25.164063 43.984375 C 25.539063 44.234375 26.226563 44.6875 26.226563 45 C 26.226563 45.15625 26.070313 45.171875 25.976563 45.15625 L 23.367188 44.5 L 23.351563 44.515625 C 23.429688 44.875 23.492188 45.234375 23.539063 45.59375 L 23.648438 45.59375 C 23.648438 45.296875 23.648438 45.171875 23.851563 45.171875 C 24.039063 45.171875 25.867188 45.71875 26.179688 45.71875 C 26.492188 45.71875 26.601563 45.578125 26.601563 45.3125 C 26.601563 44.671875 25.695313 44.140625 24.882813 43.640625 L 24.882813 43.625 C 25.476563 43.796875 26.085938 43.9375 26.210938 43.9375 C 26.320313 43.9375 26.585938 43.921875 26.585938 43.59375 C 26.585938 43.234375 26.398438 43.046875 25.742188 42.59375 Z M 25.679688 42.6875 "
       id="path178" />
    <path
       style=" stroke:none;fill-rule:nonzero;fill:rgb(12.940979%,11.764526%,11.764526%);fill-opacity:1;"
       d="M 25.632813 40.773438 C 26.085938 41.117188 26.289063 41.273438 26.289063 41.460938 C 26.289063 41.570313 26.195313 41.570313 26.148438 41.570313 C 26.070313 41.570313 25.882813 41.507813 25.804688 41.492188 L 21.632813 40.398438 L 21.601563 40.445313 C 21.695313 40.820313 21.757813 41.195313 21.804688 41.570313 L 21.914063 41.570313 C 21.898438 41.382813 21.898438 41.070313 22.085938 41.070313 C 22.242188 41.070313 26.007813 42.117188 26.148438 42.117188 C 26.351563 42.117188 26.601563 42.085938 26.601563 41.773438 C 26.601563 41.320313 26.257813 41.039063 25.695313 40.679688 Z M 25.632813 40.773438 "
       id="path180" />
    <path
       style=" stroke:none;fill-rule:nonzero;fill:rgb(12.940979%,11.764526%,11.764526%);fill-opacity:1;"
       d="M 25.726563 37.070313 C 26.054688 37.398438 26.226563 37.539063 26.226563 37.648438 C 26.226563 37.710938 26.179688 37.742188 26.132813 37.742188 C 25.914063 37.742188 23.460938 37.085938 23.367188 37.070313 L 23.351563 37.117188 L 23.398438 37.554688 L 23.414063 37.570313 L 23.742188 37.648438 L 23.742188 37.664063 C 23.539063 37.679688 23.351563 37.914063 23.351563 38.226563 C 23.351563 39.195313 24.695313 40.289063 25.757813 40.289063 C 25.960938 40.289063 26.601563 40.273438 26.601563 39.554688 C 26.601563 39.117188 26.382813 38.742188 25.507813 38.132813 L 25.523438 38.117188 C 25.960938 38.242188 26.117188 38.273438 26.289063 38.273438 C 26.414063 38.273438 26.601563 38.273438 26.601563 37.976563 C 26.601563 37.664063 26.335938 37.414063 25.804688 36.992188 Z M 25.742188 39.679688 C 25.085938 39.679688 23.507813 39.039063 23.507813 38.195313 C 23.507813 37.992188 23.648438 37.789063 23.992188 37.789063 C 24.695313 37.789063 26.242188 38.492188 26.242188 39.257813 C 26.242188 39.445313 26.117188 39.679688 25.742188 39.679688 Z M 25.742188 39.679688 "
       id="path182" />
    <path
       style=" stroke:none;fill-rule:nonzero;fill:rgb(12.940979%,11.764526%,11.764526%);fill-opacity:1;"
       d="M 26.523438 35.9375 C 25.570313 35.640625 25.242188 35.546875 24.726563 35.265625 C 24.617188 35.21875 23.820313 34.78125 23.820313 34.5625 C 23.820313 34.390625 24.070313 34.5 24.070313 34.1875 C 24.070313 34.109375 24.070313 33.84375 23.695313 33.84375 C 23.460938 33.84375 23.351563 34.03125 23.351563 34.1875 C 23.351563 34.640625 24.195313 35.1875 24.664063 35.421875 L 24.804688 35.484375 L 24.789063 35.5 L 23.367188 35.15625 L 23.351563 35.171875 C 23.398438 35.5 23.492188 35.921875 23.539063 36.28125 L 23.664063 36.28125 C 23.648438 36.203125 23.632813 36.125 23.632813 36.046875 C 23.632813 35.828125 23.742188 35.796875 23.851563 35.796875 C 23.914063 35.796875 24.148438 35.828125 24.414063 35.90625 L 26.523438 36.484375 Z M 26.523438 35.9375 "
       id="path184" />
    <path
       style=" stroke:none;fill-rule:nonzero;fill:rgb(12.940979%,11.764526%,11.764526%);fill-opacity:1;"
       d="M 25.726563 28.867188 C 26.054688 29.195313 26.226563 29.335938 26.226563 29.445313 C 26.226563 29.507813 26.179688 29.539063 26.132813 29.539063 C 25.914063 29.539063 23.460938 28.882813 23.367188 28.867188 L 23.351563 28.914063 L 23.398438 29.351563 L 23.414063 29.367188 L 23.742188 29.445313 L 23.742188 29.460938 C 23.539063 29.476563 23.351563 29.710938 23.351563 30.023438 C 23.351563 30.992188 24.695313 32.085938 25.757813 32.085938 C 25.960938 32.085938 26.601563 32.070313 26.601563 31.351563 C 26.601563 30.914063 26.382813 30.539063 25.507813 29.929688 L 25.523438 29.914063 C 25.960938 30.039063 26.117188 30.070313 26.289063 30.070313 C 26.414063 30.070313 26.601563 30.070313 26.601563 29.773438 C 26.601563 29.460938 26.335938 29.210938 25.804688 28.789063 Z M 25.742188 31.476563 C 25.085938 31.476563 23.507813 30.835938 23.507813 29.992188 C 23.507813 29.789063 23.648438 29.585938 23.992188 29.585938 C 24.695313 29.585938 26.242188 30.289063 26.242188 31.054688 C 26.242188 31.242188 26.117188 31.476563 25.742188 31.476563 Z M 25.742188 31.476563 "
       id="path186" />
    <path
       style=" stroke:none;fill-rule:nonzero;fill:rgb(12.940979%,11.764526%,11.764526%);fill-opacity:1;"
       d="M 25.757813 26.097656 C 26.054688 26.347656 26.335938 26.691406 26.335938 27.128906 C 26.335938 27.566406 26.023438 27.785156 25.460938 27.785156 C 24.773438 27.785156 23.492188 27.285156 23.492188 26.347656 C 23.492188 26.207031 23.539063 26.066406 23.648438 26.066406 C 23.757813 26.066406 23.804688 26.175781 23.992188 26.175781 C 24.164063 26.175781 24.257813 26.066406 24.257813 25.894531 C 24.257813 25.707031 24.132813 25.550781 23.929688 25.550781 C 23.710938 25.550781 23.351563 25.738281 23.351563 26.332031 C 23.351563 27.410156 24.445313 28.394531 25.460938 28.394531 C 26.429688 28.394531 26.601563 27.800781 26.601563 27.332031 C 26.601563 26.582031 26.054688 26.160156 25.835938 25.972656 Z M 25.757813 26.097656 "
       id="path188" />
    <path
       style=" stroke:none;fill-rule:nonzero;fill:rgb(12.940979%,11.764526%,11.764526%);fill-opacity:1;"
       d="M 25.757813 22.898438 C 26.054688 23.148438 26.335938 23.492188 26.335938 23.929688 C 26.335938 24.367188 26.023438 24.585938 25.460938 24.585938 C 24.773438 24.585938 23.492188 24.085938 23.492188 23.148438 C 23.492188 23.007813 23.539063 22.867188 23.648438 22.867188 C 23.757813 22.867188 23.804688 22.976563 23.992188 22.976563 C 24.164063 22.976563 24.257813 22.867188 24.257813 22.695313 C 24.257813 22.507813 24.132813 22.351563 23.929688 22.351563 C 23.710938 22.351563 23.351563 22.539063 23.351563 23.132813 C 23.351563 24.210938 24.445313 25.195313 25.460938 25.195313 C 26.429688 25.195313 26.601563 24.601563 26.601563 24.132813 C 26.601563 23.382813 26.054688 22.960938 25.835938 22.773438 Z M 25.757813 22.898438 "
       id="path190" />
    <path
       style=" stroke:none;fill-rule:nonzero;fill:rgb(12.940979%,11.764526%,11.764526%);fill-opacity:1;"
       d="M 25.679688 18.890625 C 25.992188 19.15625 26.242188 19.359375 26.242188 19.484375 C 26.242188 19.5625 26.164063 19.578125 26.132813 19.578125 C 26.023438 19.578125 25.710938 19.484375 25.570313 19.4375 L 23.414063 18.875 L 23.414063 19.40625 C 24.179688 19.6875 24.632813 19.84375 25.164063 20.1875 C 25.539063 20.4375 26.226563 20.890625 26.226563 21.203125 C 26.226563 21.359375 26.070313 21.375 25.976563 21.359375 L 23.367188 20.703125 L 23.351563 20.71875 C 23.429688 21.078125 23.492188 21.4375 23.539063 21.796875 L 23.648438 21.796875 C 23.648438 21.5 23.648438 21.375 23.851563 21.375 C 24.039063 21.375 25.867188 21.921875 26.179688 21.921875 C 26.492188 21.921875 26.601563 21.78125 26.601563 21.515625 C 26.601563 20.875 25.695313 20.34375 24.882813 19.84375 L 24.882813 19.828125 C 25.476563 20 26.085938 20.140625 26.210938 20.140625 C 26.320313 20.140625 26.585938 20.125 26.585938 19.796875 C 26.585938 19.4375 26.398438 19.25 25.742188 18.796875 Z M 25.679688 18.890625 "
       id="path192" />
    <path
       style=" stroke:none;fill-rule:nonzero;fill:rgb(12.940979%,11.764526%,11.764526%);fill-opacity:1;"
       d="M 26.523438 17.742188 C 25.570313 17.445313 25.242188 17.351563 24.726563 17.070313 C 24.617188 17.023438 23.820313 16.585938 23.820313 16.367188 C 23.820313 16.195313 24.070313 16.304688 24.070313 15.992188 C 24.070313 15.914063 24.070313 15.648438 23.695313 15.648438 C 23.460938 15.648438 23.351563 15.835938 23.351563 15.992188 C 23.351563 16.445313 24.195313 16.992188 24.664063 17.226563 L 24.804688 17.289063 L 24.789063 17.304688 L 23.367188 16.960938 L 23.351563 16.976563 C 23.398438 17.304688 23.492188 17.726563 23.539063 18.085938 L 23.664063 18.085938 C 23.648438 18.007813 23.632813 17.929688 23.632813 17.851563 C 23.632813 17.632813 23.742188 17.601563 23.851563 17.601563 C 23.914063 17.601563 24.148438 17.632813 24.414063 17.710938 L 26.523438 18.289063 Z M 26.523438 17.742188 "
       id="path194" />
    <path
       style=" stroke:none;fill-rule:nonzero;fill:rgb(12.940979%,11.764526%,11.764526%);fill-opacity:1;"
       d="M 25.726563 12.472656 C 26.054688 12.800781 26.226563 12.941406 26.226563 13.050781 C 26.226563 13.113281 26.179688 13.144531 26.132813 13.144531 C 25.914063 13.144531 23.460938 12.488281 23.367188 12.472656 L 23.351563 12.519531 L 23.398438 12.957031 L 23.414063 12.972656 L 23.742188 13.050781 L 23.742188 13.066406 C 23.539063 13.082031 23.351563 13.316406 23.351563 13.628906 C 23.351563 14.597656 24.695313 15.691406 25.757813 15.691406 C 25.960938 15.691406 26.601563 15.675781 26.601563 14.957031 C 26.601563 14.519531 26.382813 14.144531 25.507813 13.535156 L 25.523438 13.519531 C 25.960938 13.644531 26.117188 13.675781 26.289063 13.675781 C 26.414063 13.675781 26.601563 13.675781 26.601563 13.378906 C 26.601563 13.066406 26.335938 12.816406 25.804688 12.394531 Z M 25.742188 15.082031 C 25.085938 15.082031 23.507813 14.441406 23.507813 13.597656 C 23.507813 13.394531 23.648438 13.191406 23.992188 13.191406 C 24.695313 13.191406 26.242188 13.894531 26.242188 14.660156 C 26.242188 14.847656 26.117188 15.082031 25.742188 15.082031 Z M 25.742188 15.082031 "
       id="path196" />
    <path
       style=" stroke:none;fill-rule:nonzero;fill:rgb(12.940979%,11.764526%,11.764526%);fill-opacity:1;"
       d="M 25.757813 9.703125 C 26.054688 9.953125 26.335938 10.296875 26.335938 10.734375 C 26.335938 11.171875 26.023438 11.390625 25.460938 11.390625 C 24.773438 11.390625 23.492188 10.890625 23.492188 9.953125 C 23.492188 9.8125 23.539063 9.671875 23.648438 9.671875 C 23.757813 9.671875 23.804688 9.78125 23.992188 9.78125 C 24.164063 9.78125 24.257813 9.671875 24.257813 9.5 C 24.257813 9.3125 24.132813 9.15625 23.929688 9.15625 C 23.710938 9.15625 23.351563 9.34375 23.351563 9.9375 C 23.351563 11.015625 24.445313 12 25.460938 12 C 26.429688 12 26.601563 11.40625 26.601563 10.9375 C 26.601563 10.1875 26.054688 9.765625 25.835938 9.578125 Z M 25.757813 9.703125 "
       id="path198" />
    <path
       style=" stroke:none;fill-rule:nonzero;fill:rgb(12.940979%,11.764526%,11.764526%);fill-opacity:1;"
       d="M 23.648438 8.910156 C 23.617188 8.832031 23.617188 8.769531 23.617188 8.660156 C 23.617188 8.253906 23.929688 8.160156 24.585938 7.972656 C 24.960938 7.847656 26.226563 7.535156 26.507813 7.535156 C 26.695313 7.535156 27.054688 7.847656 27.257813 8.019531 C 27.539063 8.269531 27.617188 8.363281 27.617188 8.472656 C 27.617188 8.613281 27.414063 8.707031 27.414063 8.925781 C 27.414063 9.066406 27.539063 9.191406 27.679688 9.191406 C 27.992188 9.191406 28.007813 8.878906 28.007813 8.832031 C 28.007813 7.972656 24.648438 5.957031 23.789063 5.957031 C 23.539063 5.957031 23.351563 6.097656 23.351563 6.363281 C 23.351563 6.550781 23.492188 6.628906 23.601563 6.628906 C 23.929688 6.628906 23.851563 6.238281 24.148438 6.238281 C 24.523438 6.238281 25.507813 6.800781 26.007813 7.113281 L 25.164063 7.269531 C 24.632813 7.363281 23.335938 7.785156 23.351563 7.878906 C 23.351563 8.003906 23.460938 8.566406 23.523438 8.910156 Z M 23.648438 8.910156 "
       id="path200" />
    <path
       style="fill:none;stroke-width:3;stroke-linecap:butt;stroke-linejoin:miter;stroke:rgb(12.940979%,11.764526%,11.764526%);stroke-opacity:1;stroke-miterlimit:4;"
       d="M 62.398438 87.304688 L 117.140625 87.304688 "
       id="path202" />
    <g
       clip-path="url(#clip2)"
       clip-rule="nonzero"
       id="g206">
      <path
         style="fill:none;stroke-width:3;stroke-linecap:butt;stroke-linejoin:miter;stroke:rgb(100%,0%,0%);stroke-opacity:1;stroke-miterlimit:4;"
         d="M 76.304688 91.691406 L 147.46875 91.691406 "
         id="path204" />
    </g>
  </g>
</svg>
