<?xml version="1.0" encoding="UTF-8" standalone="no"?>
<svg
   xmlns:dc="http://purl.org/dc/elements/1.1/"
   xmlns:cc="http://creativecommons.org/ns#"
   xmlns:rdf="http://www.w3.org/1999/02/22-rdf-syntax-ns#"
   xmlns:svg="http://www.w3.org/2000/svg"
   xmlns="http://www.w3.org/2000/svg"
   xmlns:sodipodi="http://sodipodi.sourceforge.net/DTD/sodipodi-0.dtd"
   xmlns:inkscape="http://www.inkscape.org/namespaces/inkscape"
   width="240.127945pt"
   height="124.868835pt"
   viewBox="0 0 240.127945 124.868835"
   version="1.2"
   id="svg182"
   sodipodi:docname="power_law.svg"
   inkscape:version="0.92.4 (5da689c313, 2019-01-14)">
  <metadata
     id="metadata186">
    <rdf:RDF>
      <cc:Work
         rdf:about="">
        <dc:format>image/svg+xml</dc:format>
        <dc:type
           rdf:resource="http://purl.org/dc/dcmitype/StillImage" />
        <dc:title></dc:title>
      </cc:Work>
    </rdf:RDF>
  </metadata>
  <sodipodi:namedview
     pagecolor="#ffffff"
     bordercolor="#666666"
     borderopacity="1"
     objecttolerance="10"
     gridtolerance="10"
     guidetolerance="10"
     inkscape:pageopacity="0"
     inkscape:pageshadow="2"
     inkscape:window-width="661"
     inkscape:window-height="480"
     id="namedview184"
     showgrid="false"
     inkscape:zoom="0.98072717"
     inkscape:cx="160.0853"
     inkscape:cy="83.24589"
     inkscape:window-x="0"
     inkscape:window-y="0"
     inkscape:window-maximized="0"
     inkscape:current-layer="svg182" />
  <defs
     id="defs11">
    <clipPath
       id="clip1">
      <path
         d="M 223 119 L 228 119 L 228 124.867188 L 223 124.867188 Z M 223 119 "
         id="path2" />
    </clipPath>
    <clipPath
       id="clip2">
      <path
         d="M 227 117 L 231 117 L 231 124.867188 L 227 124.867188 Z M 227 117 "
         id="path5" />
    </clipPath>
    <clipPath
       id="clip3">
      <path
         d="M 237 117 L 240.128906 117 L 240.128906 124.867188 L 237 124.867188 Z M 237 117 "
         id="path8" />
    </clipPath>
  </defs>
  <g
     id="surface44">
    <path
       style="fill:none;stroke-width:1.2;stroke-linecap:butt;stroke-linejoin:miter;stroke:rgb(69.018555%,69.018555%,69.018555%);stroke-opacity:1;stroke-miterlimit:4;"
       d="M 99.253906 47.332031 L 99.253906 69.832031 M 99.230469 69.921875 L 130.730469 69.921875 "
       id="path13" />
    <path
       style="fill:none;stroke-width:0.6;stroke-linecap:round;stroke-linejoin:round;stroke:rgb(12.940979%,11.764526%,11.764526%);stroke-opacity:1;stroke-miterlimit:4;"
       d="M 64.792969 121.234375 L 210.425781 121.234375 "
       id="path15" />
    <path
       style=" stroke:none;fill-rule:nonzero;fill:rgb(12.940979%,11.764526%,11.764526%);fill-opacity:1;"
       d="M 211.839844 120.621094 C 210.847656 120.320313 210.203125 120.042969 209.410156 119.726563 L 209.410156 122.75 C 209.691406 122.617188 210.847656 122.15625 211.839844 121.855469 C 212.902344 121.535156 213.867188 121.316406 214.492188 121.238281 C 213.867188 121.160156 212.902344 120.941406 211.839844 120.621094 "
       id="path17" />
    <path
       style="fill:none;stroke-width:0.6;stroke-linecap:round;stroke-linejoin:round;stroke:rgb(12.940979%,11.764526%,11.764526%);stroke-opacity:1;stroke-miterlimit:4;"
       d="M 64.585938 121.234375 L 64.585938 13.59375 "
       id="path19" />
    <path
       style=" stroke:none;fill-rule:nonzero;fill:rgb(12.940979%,11.764526%,11.764526%);fill-opacity:1;"
       d="M 63.972656 12.175781 C 63.671875 13.167969 63.394531 13.8125 63.078125 14.609375 L 66.101563 14.609375 C 65.96875 14.324219 65.507813 13.167969 65.207031 12.175781 C 64.886719 11.113281 64.667969 10.152344 64.589844 9.527344 C 64.511719 10.152344 64.292969 11.113281 63.972656 12.175781 "
       id="path21" />
    <path
       style=" stroke:none;fill-rule:nonzero;fill:rgb(12.940979%,11.764526%,11.764526%);fill-opacity:1;"
       d="M 218.832031 122.101563 C 218.410156 122.632813 218.238281 122.867188 218.035156 122.867188 C 217.894531 122.867188 217.894531 122.742188 217.894531 122.695313 C 217.894531 122.601563 217.972656 122.382813 217.988281 122.304688 L 219.253906 117.429688 L 219.207031 117.398438 C 218.769531 117.492188 218.332031 117.570313 217.894531 117.617188 L 217.894531 117.757813 C 218.113281 117.742188 218.472656 117.742188 218.472656 117.960938 C 218.472656 118.132813 217.253906 122.523438 217.253906 122.710938 C 217.253906 122.945313 217.285156 123.226563 217.660156 123.226563 C 218.175781 123.226563 218.503906 122.820313 218.941406 122.179688 Z M 218.832031 122.101563 "
       id="path23" />
    <path
       style=" stroke:none;fill-rule:nonzero;fill:rgb(12.940979%,11.764526%,11.764526%);fill-opacity:1;"
       d="M 221.945313 119.429688 C 220.710938 119.429688 219.476563 120.773438 219.476563 122.007813 C 219.476563 122.710938 219.851563 123.226563 220.742188 123.226563 C 222.023438 123.226563 223.179688 121.710938 223.179688 120.664063 C 223.179688 120.117188 222.914063 119.429688 221.945313 119.429688 Z M 221.882813 119.601563 C 222.289063 119.601563 222.476563 119.976563 222.476563 120.414063 C 222.476563 121.304688 221.804688 123.054688 220.851563 123.054688 C 220.429688 123.054688 220.179688 122.742188 220.179688 122.273438 C 220.179688 121.273438 220.945313 119.601563 221.882813 119.601563 Z M 221.882813 119.601563 "
       id="path25" />
    <g
       clip-path="url(#clip1)"
       clip-rule="nonzero"
       id="g29">
      <path
         style=" stroke:none;fill-rule:nonzero;fill:rgb(12.940979%,11.764526%,11.764526%);fill-opacity:1;"
         d="M 227.414063 119.726563 L 226.898438 119.726563 C 226.835938 119.726563 226.773438 119.648438 226.617188 119.570313 C 226.476563 119.507813 226.257813 119.429688 225.914063 119.429688 C 225.226563 119.429688 224.257813 119.914063 224.257813 120.851563 C 224.257813 121.429688 224.617188 121.632813 224.914063 121.773438 C 224.632813 121.960938 224.273438 122.210938 224.273438 122.460938 C 224.273438 122.632813 224.398438 122.726563 224.492188 122.804688 C 223.789063 123.273438 223.507813 123.445313 223.507813 123.929688 C 223.507813 124.398438 223.960938 124.867188 224.867188 124.867188 C 226.023438 124.867188 226.679688 124.351563 226.679688 123.632813 C 226.679688 122.476563 224.898438 122.617188 224.898438 122.164063 C 224.898438 122.054688 225.070313 121.835938 225.195313 121.835938 C 225.304688 121.835938 225.414063 121.867188 225.523438 121.867188 C 226.273438 121.867188 227.070313 121.179688 227.070313 120.554688 C 227.070313 120.382813 227.039063 120.210938 226.992188 120.054688 L 227.414063 120.054688 Z M 226.179688 123.882813 C 226.179688 124.304688 225.757813 124.679688 225.007813 124.679688 C 224.882813 124.679688 223.976563 124.648438 223.976563 123.867188 C 223.976563 123.664063 223.976563 123.445313 224.320313 123.148438 C 224.351563 123.117188 224.632813 122.898438 224.679688 122.898438 C 224.742188 122.898438 225.570313 123.210938 225.710938 123.289063 C 225.867188 123.367188 226.179688 123.507813 226.179688 123.882813 Z M 226.398438 120.179688 C 226.398438 120.882813 225.976563 121.679688 225.429688 121.679688 C 225.054688 121.679688 224.914063 121.414063 224.914063 121.039063 C 224.914063 120.460938 225.273438 119.617188 225.929688 119.617188 C 226.273438 119.617188 226.398438 119.851563 226.398438 120.179688 Z M 226.398438 120.179688 "
         id="path27" />
    </g>
    <g
       clip-path="url(#clip2)"
       clip-rule="nonzero"
       id="g33">
      <path
         style=" stroke:none;fill-rule:nonzero;fill:rgb(12.940979%,11.764526%,11.764526%);fill-opacity:1;"
         d="M 229.957031 118.085938 C 230.003906 117.851563 230.128906 117.789063 230.347656 117.789063 L 230.878906 117.789063 L 230.925781 117.554688 L 229.472656 117.554688 L 227.816406 124.414063 L 229.394531 124.414063 L 229.457031 124.195313 L 228.988281 124.195313 C 228.847656 124.195313 228.582031 124.179688 228.582031 123.945313 C 228.582031 123.929688 228.597656 123.835938 228.613281 123.773438 Z M 229.957031 118.085938 "
         id="path31" />
    </g>
    <path
       style=" stroke:none;fill-rule:nonzero;fill:rgb(12.940979%,11.764526%,11.764526%);fill-opacity:1;"
       d="M 234.769531 122.148438 C 234.472656 122.539063 234.253906 122.820313 234.082031 122.820313 C 234.066406 122.820313 233.957031 122.789063 233.957031 122.664063 C 233.957031 122.414063 234.628906 120.335938 234.628906 119.976563 C 234.628906 119.632813 234.425781 119.429688 234.050781 119.429688 C 233.347656 119.429688 232.582031 120.601563 232.175781 121.210938 L 232.160156 121.195313 L 232.707031 119.445313 L 232.675781 119.429688 C 232.222656 119.523438 231.769531 119.601563 231.316406 119.679688 L 231.316406 119.820313 C 231.769531 119.820313 231.847656 119.914063 231.847656 120.039063 C 231.847656 120.210938 231.285156 122.179688 231.035156 123.132813 L 231.660156 123.132813 C 232.003906 121.992188 232.113281 121.632813 232.503906 121.054688 C 232.800781 120.570313 233.332031 119.851563 233.738281 119.851563 C 233.894531 119.851563 233.941406 119.976563 233.941406 120.117188 C 233.941406 120.460938 233.316406 122.507813 233.316406 122.710938 C 233.316406 122.960938 233.332031 123.210938 233.722656 123.210938 C 234.175781 123.210938 234.472656 122.820313 234.894531 122.257813 Z M 234.769531 122.148438 "
       id="path35" />
    <path
       style=" stroke:none;fill-rule:nonzero;fill:rgb(12.940979%,11.764526%,11.764526%);fill-opacity:1;"
       d="M 236.394531 119.601563 C 236.738281 118.851563 237.144531 117.945313 237.144531 117.789063 C 237.144531 117.648438 237.050781 117.539063 236.863281 117.539063 C 236.691406 117.539063 236.472656 117.664063 236.410156 117.882813 C 236.347656 118.148438 236.269531 119.132813 236.222656 119.601563 Z M 236.394531 119.601563 "
       id="path37" />
    <g
       clip-path="url(#clip3)"
       clip-rule="nonzero"
       id="g41">
      <path
         style=" stroke:none;fill-rule:nonzero;fill:rgb(12.940979%,11.764526%,11.764526%);fill-opacity:1;"
         d="M 237.972656 123.882813 C 237.941406 124.039063 237.910156 124.195313 237.597656 124.195313 L 237.066406 124.195313 L 237.003906 124.414063 L 238.472656 124.414063 L 240.128906 117.554688 L 238.535156 117.554688 L 238.472656 117.789063 L 238.957031 117.789063 C 239.066406 117.789063 239.363281 117.789063 239.363281 118.023438 C 239.363281 118.054688 239.347656 118.132813 239.332031 118.195313 Z M 237.972656 123.882813 "
         id="path39" />
    </g>
    <path
       style=" stroke:none;fill-rule:nonzero;fill:rgb(12.940979%,11.764526%,11.764526%);fill-opacity:1;"
       d="M 58.679688 4.703125 C 58.257813 5.234375 58.085938 5.46875 57.882813 5.46875 C 57.742188 5.46875 57.742188 5.34375 57.742188 5.296875 C 57.742188 5.203125 57.820313 4.984375 57.835938 4.90625 L 59.101563 0.03125 L 59.054688 0 C 58.617188 0.09375 58.179688 0.171875 57.742188 0.21875 L 57.742188 0.359375 C 57.960938 0.34375 58.320313 0.34375 58.320313 0.5625 C 58.320313 0.734375 57.101563 5.125 57.101563 5.3125 C 57.101563 5.546875 57.132813 5.828125 57.507813 5.828125 C 58.023438 5.828125 58.351563 5.421875 58.789063 4.78125 Z M 58.679688 4.703125 "
       id="path43" />
    <path
       style=" stroke:none;fill-rule:nonzero;fill:rgb(12.940979%,11.764526%,11.764526%);fill-opacity:1;"
       d="M 61.792969 2.03125 C 60.558594 2.03125 59.324219 3.375 59.324219 4.609375 C 59.324219 5.3125 59.699219 5.828125 60.589844 5.828125 C 61.871094 5.828125 63.027344 4.3125 63.027344 3.265625 C 63.027344 2.71875 62.761719 2.03125 61.792969 2.03125 Z M 61.730469 2.203125 C 62.136719 2.203125 62.324219 2.578125 62.324219 3.015625 C 62.324219 3.90625 61.652344 5.65625 60.699219 5.65625 C 60.277344 5.65625 60.027344 5.34375 60.027344 4.875 C 60.027344 3.875 60.792969 2.203125 61.730469 2.203125 Z M 61.730469 2.203125 "
       id="path45" />
    <path
       style=" stroke:none;fill-rule:nonzero;fill:rgb(12.940979%,11.764526%,11.764526%);fill-opacity:1;"
       d="M 67.261719 2.328125 L 66.746094 2.328125 C 66.683594 2.328125 66.621094 2.25 66.464844 2.171875 C 66.324219 2.109375 66.105469 2.03125 65.761719 2.03125 C 65.074219 2.03125 64.105469 2.515625 64.105469 3.453125 C 64.105469 4.03125 64.464844 4.234375 64.761719 4.375 C 64.480469 4.5625 64.121094 4.8125 64.121094 5.0625 C 64.121094 5.234375 64.246094 5.328125 64.339844 5.40625 C 63.636719 5.875 63.355469 6.046875 63.355469 6.53125 C 63.355469 7 63.808594 7.46875 64.714844 7.46875 C 65.871094 7.46875 66.527344 6.953125 66.527344 6.234375 C 66.527344 5.078125 64.746094 5.21875 64.746094 4.765625 C 64.746094 4.65625 64.917969 4.4375 65.042969 4.4375 C 65.152344 4.4375 65.261719 4.46875 65.371094 4.46875 C 66.121094 4.46875 66.917969 3.78125 66.917969 3.15625 C 66.917969 2.984375 66.886719 2.8125 66.839844 2.65625 L 67.261719 2.65625 Z M 66.027344 6.484375 C 66.027344 6.90625 65.605469 7.28125 64.855469 7.28125 C 64.730469 7.28125 63.824219 7.25 63.824219 6.46875 C 63.824219 6.265625 63.824219 6.046875 64.167969 5.75 C 64.199219 5.71875 64.480469 5.5 64.527344 5.5 C 64.589844 5.5 65.417969 5.8125 65.558594 5.890625 C 65.714844 5.96875 66.027344 6.109375 66.027344 6.484375 Z M 66.246094 2.78125 C 66.246094 3.484375 65.824219 4.28125 65.277344 4.28125 C 64.902344 4.28125 64.761719 4.015625 64.761719 3.640625 C 64.761719 3.0625 65.121094 2.21875 65.777344 2.21875 C 66.121094 2.21875 66.246094 2.453125 66.246094 2.78125 Z M 66.246094 2.78125 "
       id="path47" />
    <path
       style=" stroke:none;fill-rule:nonzero;fill:rgb(12.940979%,11.764526%,11.764526%);fill-opacity:1;"
       d="M 69.804688 0.6875 C 69.851563 0.453125 69.976563 0.390625 70.195313 0.390625 L 70.726563 0.390625 L 70.773438 0.15625 L 69.320313 0.15625 L 67.664063 7.015625 L 69.242188 7.015625 L 69.304688 6.796875 L 68.835938 6.796875 C 68.695313 6.796875 68.429688 6.78125 68.429688 6.546875 C 68.429688 6.53125 68.445313 6.4375 68.460938 6.375 Z M 69.804688 0.6875 "
       id="path49" />
    <path
       style=" stroke:none;fill-rule:nonzero;fill:rgb(12.940979%,11.764526%,11.764526%);fill-opacity:1;"
       d="M 76.085938 0.25 L 71.914063 0.25 L 71.914063 0.375 C 72.335938 0.40625 72.554688 0.453125 72.554688 0.75 C 72.554688 0.84375 72.492188 1.171875 72.460938 1.265625 L 71.429688 4.984375 C 71.289063 5.5 71.164063 5.53125 70.742188 5.59375 L 70.742188 5.734375 L 75.007813 5.734375 L 75.539063 4.375 L 75.398438 4.3125 C 74.804688 5.140625 74.445313 5.453125 72.820313 5.453125 C 72.601563 5.453125 72.242188 5.4375 72.242188 5.171875 C 72.242188 5.0625 72.273438 4.921875 72.804688 2.984375 C 74.179688 3.015625 74.179688 3.015625 74.179688 3.4375 C 74.179688 3.5625 74.148438 3.703125 74.117188 3.828125 L 74.289063 3.875 L 74.867188 1.921875 L 74.710938 1.890625 C 74.617188 2.0625 74.554688 2.234375 74.476563 2.34375 C 74.289063 2.609375 74.242188 2.6875 72.882813 2.703125 L 73.445313 0.734375 C 73.492188 0.578125 73.507813 0.515625 74.117188 0.515625 C 75.695313 0.515625 75.710938 0.703125 75.648438 1.515625 L 75.820313 1.53125 Z M 76.085938 0.25 "
       id="path51" />
    <path
       style=" stroke:none;fill-rule:nonzero;fill:rgb(12.940979%,11.764526%,11.764526%);fill-opacity:1;"
       d="M 76.953125 6.484375 C 76.921875 6.640625 76.890625 6.796875 76.578125 6.796875 L 76.046875 6.796875 L 75.984375 7.015625 L 77.453125 7.015625 L 79.109375 0.15625 L 77.515625 0.15625 L 77.453125 0.390625 L 77.9375 0.390625 C 78.046875 0.390625 78.34375 0.390625 78.34375 0.625 C 78.34375 0.65625 78.328125 0.734375 78.3125 0.796875 Z M 76.953125 6.484375 "
       id="path53" />
    <path
       style=" stroke:none;fill-rule:nonzero;fill:rgb(12.940979%,11.764526%,11.764526%);fill-opacity:1;"
       d="M 1.578125 21.101563 C 1.15625 21.632813 0.984375 21.867188 0.78125 21.867188 C 0.640625 21.867188 0.640625 21.742188 0.640625 21.695313 C 0.640625 21.601563 0.71875 21.382813 0.734375 21.304688 L 2 16.429688 L 1.953125 16.398438 C 1.515625 16.492188 1.078125 16.570313 0.640625 16.617188 L 0.640625 16.757813 C 0.859375 16.742188 1.21875 16.742188 1.21875 16.960938 C 1.21875 17.132813 0 21.523438 0 21.710938 C 0 21.945313 0.03125 22.226563 0.40625 22.226563 C 0.921875 22.226563 1.25 21.820313 1.6875 21.179688 Z M 1.578125 21.101563 "
       id="path55" />
    <path
       style=" stroke:none;fill-rule:nonzero;fill:rgb(12.940979%,11.764526%,11.764526%);fill-opacity:1;"
       d="M 4.695313 18.429688 C 3.460938 18.429688 2.226563 19.773438 2.226563 21.007813 C 2.226563 21.710938 2.601563 22.226563 3.492188 22.226563 C 4.773438 22.226563 5.929688 20.710938 5.929688 19.664063 C 5.929688 19.117188 5.664063 18.429688 4.695313 18.429688 Z M 4.632813 18.601563 C 5.039063 18.601563 5.226563 18.976563 5.226563 19.414063 C 5.226563 20.304688 4.554688 22.054688 3.601563 22.054688 C 3.179688 22.054688 2.929688 21.742188 2.929688 21.273438 C 2.929688 20.273438 3.695313 18.601563 4.632813 18.601563 Z M 4.632813 18.601563 "
       id="path57" />
    <path
       style=" stroke:none;fill-rule:nonzero;fill:rgb(12.940979%,11.764526%,11.764526%);fill-opacity:1;"
       d="M 10.160156 18.726563 L 9.644531 18.726563 C 9.582031 18.726563 9.519531 18.648438 9.363281 18.570313 C 9.222656 18.507813 9.003906 18.429688 8.660156 18.429688 C 7.972656 18.429688 7.003906 18.914063 7.003906 19.851563 C 7.003906 20.429688 7.363281 20.632813 7.660156 20.773438 C 7.378906 20.960938 7.019531 21.210938 7.019531 21.460938 C 7.019531 21.632813 7.144531 21.726563 7.238281 21.804688 C 6.535156 22.273438 6.253906 22.445313 6.253906 22.929688 C 6.253906 23.398438 6.707031 23.867188 7.613281 23.867188 C 8.769531 23.867188 9.425781 23.351563 9.425781 22.632813 C 9.425781 21.476563 7.644531 21.617188 7.644531 21.164063 C 7.644531 21.054688 7.816406 20.835938 7.941406 20.835938 C 8.050781 20.835938 8.160156 20.867188 8.269531 20.867188 C 9.019531 20.867188 9.816406 20.179688 9.816406 19.554688 C 9.816406 19.382813 9.785156 19.210938 9.738281 19.054688 L 10.160156 19.054688 Z M 8.925781 22.882813 C 8.925781 23.304688 8.503906 23.679688 7.753906 23.679688 C 7.628906 23.679688 6.722656 23.648438 6.722656 22.867188 C 6.722656 22.664063 6.722656 22.445313 7.066406 22.148438 C 7.097656 22.117188 7.378906 21.898438 7.425781 21.898438 C 7.488281 21.898438 8.316406 22.210938 8.457031 22.289063 C 8.613281 22.367188 8.925781 22.507813 8.925781 22.882813 Z M 9.144531 19.179688 C 9.144531 19.882813 8.722656 20.679688 8.175781 20.679688 C 7.800781 20.679688 7.660156 20.414063 7.660156 20.039063 C 7.660156 19.460938 8.019531 18.617188 8.675781 18.617188 C 9.019531 18.617188 9.144531 18.851563 9.144531 19.179688 Z M 9.144531 19.179688 "
       id="path59" />
    <path
       style=" stroke:none;fill-rule:nonzero;fill:rgb(12.940979%,11.764526%,11.764526%);fill-opacity:1;"
       d="M 12.703125 17.085938 C 12.75 16.851563 12.875 16.789063 13.09375 16.789063 L 13.625 16.789063 L 13.671875 16.554688 L 12.21875 16.554688 L 10.5625 23.414063 L 12.140625 23.414063 L 12.203125 23.195313 L 11.734375 23.195313 C 11.59375 23.195313 11.328125 23.179688 11.328125 22.945313 C 11.328125 22.929688 11.34375 22.835938 11.359375 22.773438 Z M 12.703125 17.085938 "
       id="path61" />
    <path
       style=" stroke:none;fill-rule:nonzero;fill:rgb(12.940979%,11.764526%,11.764526%);fill-opacity:1;"
       d="M 16.925781 19.554688 C 16.925781 20.257813 16.128906 22.039063 14.972656 22.039063 C 14.582031 22.039063 14.582031 21.820313 14.582031 21.757813 C 14.582031 20.867188 15.378906 18.835938 16.300781 18.835938 C 16.832031 18.835938 16.925781 19.289063 16.925781 19.554688 Z M 14.582031 16.726563 C 15.066406 16.742188 15.128906 16.773438 15.128906 16.976563 C 15.128906 17.085938 15.050781 17.304688 15.003906 17.539063 L 13.847656 21.742188 L 13.847656 21.773438 C 13.847656 21.960938 14.503906 22.226563 14.941406 22.226563 C 16.238281 22.226563 17.628906 20.773438 17.628906 19.445313 C 17.628906 18.835938 17.222656 18.429688 16.628906 18.429688 C 15.878906 18.429688 15.347656 19.210938 15.066406 19.648438 L 15.050781 19.632813 C 15.347656 18.679688 15.722656 17.117188 15.910156 16.429688 L 15.863281 16.398438 C 15.441406 16.476563 15.003906 16.539063 14.582031 16.585938 Z M 14.582031 16.726563 "
       id="path63" />
    <path
       style=" stroke:none;fill-rule:nonzero;fill:rgb(12.940979%,11.764526%,11.764526%);fill-opacity:1;"
       d="M 20.421875 19.726563 L 18.578125 19.726563 L 18.578125 20.289063 L 20.421875 20.289063 L 20.421875 22.132813 L 20.984375 22.132813 L 20.984375 20.289063 L 22.8125 20.289063 L 22.8125 19.726563 L 20.984375 19.726563 L 20.984375 17.882813 L 20.421875 17.882813 Z M 20.421875 19.726563 "
       id="path65" />
    <path
       style=" stroke:none;fill-rule:nonzero;fill:rgb(12.940979%,11.764526%,11.764526%);fill-opacity:1;"
       d="M 26.464844 21.242188 C 26.167969 21.570313 25.777344 21.929688 25.261719 21.929688 C 24.761719 21.929688 24.496094 21.539063 24.496094 20.898438 C 24.496094 20.085938 25.089844 18.601563 26.167969 18.601563 C 26.324219 18.601563 26.496094 18.648438 26.496094 18.773438 C 26.496094 18.914063 26.371094 18.960938 26.371094 19.179688 C 26.371094 19.382813 26.496094 19.492188 26.699219 19.492188 C 26.917969 19.492188 27.105469 19.335938 27.105469 19.101563 C 27.105469 18.851563 26.886719 18.429688 26.183594 18.429688 C 24.933594 18.429688 23.777344 19.710938 23.777344 20.898438 C 23.777344 22.007813 24.480469 22.226563 25.027344 22.226563 C 25.902344 22.226563 26.386719 21.601563 26.605469 21.320313 Z M 26.464844 21.242188 "
       id="path67" />
    <path
       style=" stroke:none;fill-rule:nonzero;fill:rgb(12.940979%,11.764526%,11.764526%);fill-opacity:1;"
       d="M 28.320313 22.882813 C 28.289063 23.039063 28.257813 23.195313 27.945313 23.195313 L 27.414063 23.195313 L 27.351563 23.414063 L 28.820313 23.414063 L 30.476563 16.554688 L 28.882813 16.554688 L 28.820313 16.789063 L 29.304688 16.789063 C 29.414063 16.789063 29.710938 16.789063 29.710938 17.023438 C 29.710938 17.054688 29.695313 17.132813 29.679688 17.195313 Z M 28.320313 22.882813 "
       id="path69" />
    <path
       style=" stroke:none;fill-rule:nonzero;fill:rgb(12.940979%,11.764526%,11.764526%);fill-opacity:1;"
       d="M 34.652344 18.820313 C 34.542969 18.976563 34.355469 19.117188 34.214844 19.179688 C 33.933594 19.289063 33.714844 19.304688 33.558594 19.242188 L 32.277344 18.898438 C 31.667969 18.726563 31.089844 18.914063 30.652344 19.507813 L 31.011719 19.726563 C 31.121094 19.601563 31.402344 19.054688 32.199219 19.289063 L 33.464844 19.648438 C 33.949219 19.789063 34.636719 19.570313 34.964844 19.023438 Z M 34.652344 20.085938 C 34.542969 20.242188 34.355469 20.382813 34.214844 20.445313 C 33.933594 20.554688 33.714844 20.570313 33.558594 20.523438 L 32.277344 20.164063 C 31.667969 19.992188 31.089844 20.179688 30.652344 20.773438 L 31.011719 20.992188 C 31.121094 20.867188 31.402344 20.320313 32.199219 20.554688 L 33.464844 20.914063 C 33.949219 21.054688 34.636719 20.851563 34.964844 20.289063 Z M 34.652344 20.085938 "
       id="path71" />
    <path
       style=" stroke:none;fill-rule:nonzero;fill:rgb(12.940979%,11.764526%,11.764526%);fill-opacity:1;"
       d="M 37.058594 21.101563 C 36.636719 21.632813 36.464844 21.867188 36.261719 21.867188 C 36.121094 21.867188 36.121094 21.742188 36.121094 21.695313 C 36.121094 21.601563 36.199219 21.382813 36.214844 21.304688 L 37.480469 16.429688 L 37.433594 16.398438 C 36.996094 16.492188 36.558594 16.570313 36.121094 16.617188 L 36.121094 16.757813 C 36.339844 16.742188 36.699219 16.742188 36.699219 16.960938 C 36.699219 17.132813 35.480469 21.523438 35.480469 21.710938 C 35.480469 21.945313 35.511719 22.226563 35.886719 22.226563 C 36.402344 22.226563 36.730469 21.820313 37.167969 21.179688 Z M 37.058594 21.101563 "
       id="path73" />
    <path
       style=" stroke:none;fill-rule:nonzero;fill:rgb(12.940979%,11.764526%,11.764526%);fill-opacity:1;"
       d="M 40.175781 18.429688 C 38.941406 18.429688 37.707031 19.773438 37.707031 21.007813 C 37.707031 21.710938 38.082031 22.226563 38.972656 22.226563 C 40.253906 22.226563 41.410156 20.710938 41.410156 19.664063 C 41.410156 19.117188 41.144531 18.429688 40.175781 18.429688 Z M 40.113281 18.601563 C 40.519531 18.601563 40.707031 18.976563 40.707031 19.414063 C 40.707031 20.304688 40.035156 22.054688 39.082031 22.054688 C 38.660156 22.054688 38.410156 21.742188 38.410156 21.273438 C 38.410156 20.273438 39.175781 18.601563 40.113281 18.601563 Z M 40.113281 18.601563 "
       id="path75" />
    <path
       style=" stroke:none;fill-rule:nonzero;fill:rgb(12.940979%,11.764526%,11.764526%);fill-opacity:1;"
       d="M 45.640625 18.726563 L 45.125 18.726563 C 45.0625 18.726563 45 18.648438 44.84375 18.570313 C 44.703125 18.507813 44.484375 18.429688 44.140625 18.429688 C 43.453125 18.429688 42.484375 18.914063 42.484375 19.851563 C 42.484375 20.429688 42.84375 20.632813 43.140625 20.773438 C 42.859375 20.960938 42.5 21.210938 42.5 21.460938 C 42.5 21.632813 42.625 21.726563 42.71875 21.804688 C 42.015625 22.273438 41.734375 22.445313 41.734375 22.929688 C 41.734375 23.398438 42.1875 23.867188 43.09375 23.867188 C 44.25 23.867188 44.90625 23.351563 44.90625 22.632813 C 44.90625 21.476563 43.125 21.617188 43.125 21.164063 C 43.125 21.054688 43.296875 20.835938 43.421875 20.835938 C 43.53125 20.835938 43.640625 20.867188 43.75 20.867188 C 44.5 20.867188 45.296875 20.179688 45.296875 19.554688 C 45.296875 19.382813 45.265625 19.210938 45.21875 19.054688 L 45.640625 19.054688 Z M 44.40625 22.882813 C 44.40625 23.304688 43.984375 23.679688 43.234375 23.679688 C 43.109375 23.679688 42.203125 23.648438 42.203125 22.867188 C 42.203125 22.664063 42.203125 22.445313 42.546875 22.148438 C 42.578125 22.117188 42.859375 21.898438 42.90625 21.898438 C 42.96875 21.898438 43.796875 22.210938 43.9375 22.289063 C 44.09375 22.367188 44.40625 22.507813 44.40625 22.882813 Z M 44.625 19.179688 C 44.625 19.882813 44.203125 20.679688 43.65625 20.679688 C 43.28125 20.679688 43.140625 20.414063 43.140625 20.039063 C 43.140625 19.460938 43.5 18.617188 44.15625 18.617188 C 44.5 18.617188 44.625 18.851563 44.625 19.179688 Z M 44.625 19.179688 "
       id="path77" />
    <path
       style=" stroke:none;fill-rule:nonzero;fill:rgb(12.940979%,11.764526%,11.764526%);fill-opacity:1;"
       d="M 48.1875 17.085938 C 48.234375 16.851563 48.359375 16.789063 48.578125 16.789063 L 49.109375 16.789063 L 49.15625 16.554688 L 47.703125 16.554688 L 46.046875 23.414063 L 47.625 23.414063 L 47.6875 23.195313 L 47.21875 23.195313 C 47.078125 23.195313 46.8125 23.179688 46.8125 22.945313 C 46.8125 22.929688 46.828125 22.835938 46.84375 22.773438 Z M 48.1875 17.085938 "
       id="path79" />
    <path
       style=" stroke:none;fill-rule:nonzero;fill:rgb(12.940979%,11.764526%,11.764526%);fill-opacity:1;"
       d="M 52.5 20.960938 C 52.359375 21.273438 52.21875 21.492188 51.671875 21.492188 L 50.078125 21.492188 L 50.078125 21.445313 L 51.6875 19.835938 C 52.734375 18.789063 52.9375 18.414063 52.9375 17.851563 C 52.9375 17.226563 52.46875 16.445313 51.578125 16.445313 C 51.375 16.445313 50.265625 16.476563 49.8125 17.789063 L 49.984375 17.851563 C 50.109375 17.648438 50.421875 17.070313 51.1875 17.070313 C 51.828125 17.070313 52.21875 17.570313 52.21875 18.085938 C 52.21875 18.367188 52.1875 18.851563 51 20.101563 L 49.234375 21.992188 L 49.234375 22.132813 L 52.21875 22.132813 L 52.640625 21.023438 Z M 52.5 20.960938 "
       id="path81" />
    <path
       style=" stroke:none;fill-rule:nonzero;fill:rgb(12.940979%,11.764526%,11.764526%);fill-opacity:1;"
       d="M 56.605469 19.554688 C 56.605469 20.257813 55.808594 22.039063 54.652344 22.039063 C 54.261719 22.039063 54.261719 21.820313 54.261719 21.757813 C 54.261719 20.867188 55.058594 18.835938 55.980469 18.835938 C 56.511719 18.835938 56.605469 19.289063 56.605469 19.554688 Z M 54.261719 16.726563 C 54.746094 16.742188 54.808594 16.773438 54.808594 16.976563 C 54.808594 17.085938 54.730469 17.304688 54.683594 17.539063 L 53.527344 21.742188 L 53.527344 21.773438 C 53.527344 21.960938 54.183594 22.226563 54.621094 22.226563 C 55.917969 22.226563 57.308594 20.773438 57.308594 19.445313 C 57.308594 18.835938 56.902344 18.429688 56.308594 18.429688 C 55.558594 18.429688 55.027344 19.210938 54.746094 19.648438 L 54.730469 19.632813 C 55.027344 18.679688 55.402344 17.117188 55.589844 16.429688 L 55.542969 16.398438 C 55.121094 16.476563 54.683594 16.539063 54.261719 16.585938 Z M 54.261719 16.726563 "
       id="path83" />
    <path
       style=" stroke:none;fill-rule:nonzero;fill:rgb(12.940979%,11.764526%,11.764526%);fill-opacity:1;"
       d="M 58.601563 22.882813 C 58.570313 23.039063 58.539063 23.195313 58.226563 23.195313 L 57.695313 23.195313 L 57.632813 23.414063 L 59.101563 23.414063 L 60.757813 16.554688 L 59.164063 16.554688 L 59.101563 16.789063 L 59.585938 16.789063 C 59.695313 16.789063 59.992188 16.789063 59.992188 17.023438 C 59.992188 17.054688 59.976563 17.132813 59.960938 17.195313 Z M 58.601563 22.882813 "
       id="path85" />
    <path
       style="fill:none;stroke-width:1.2;stroke-linecap:round;stroke-linejoin:round;stroke:rgb(12.940979%,11.764526%,11.764526%);stroke-opacity:1;stroke-miterlimit:4;"
       d="M 81.578125 34.191406 L 196.433594 116.273438 "
       id="path87" />
    <path
       style="fill:none;stroke-width:1.2;stroke-linecap:round;stroke-linejoin:round;stroke:rgb(100%,0%,0%);stroke-opacity:1;stroke-miterlimit:4;"
       d="M 82.15625 29.933594 L 215.957031 29.933594 "
       id="path89" />
    <path
       style="fill:none;stroke-width:1.2;stroke-linecap:round;stroke-linejoin:round;stroke:rgb(12.940979%,11.764526%,11.764526%);stroke-opacity:1;stroke-dasharray:2.4,2.4;stroke-miterlimit:4;"
       d="M 65.292969 22.601563 L 81.617188 34.265625 "
       id="path91" />
    <path
       style=" stroke:none;fill-rule:nonzero;fill:rgb(12.940979%,11.764526%,11.764526%);fill-opacity:1;"
       d="M 156.675781 81.402344 C 156.253906 81.933594 156.082031 82.167969 155.878906 82.167969 C 155.738281 82.167969 155.738281 82.042969 155.738281 81.996094 C 155.738281 81.902344 155.816406 81.683594 155.832031 81.605469 L 157.097656 76.730469 L 157.050781 76.699219 C 156.613281 76.792969 156.175781 76.871094 155.738281 76.917969 L 155.738281 77.058594 C 155.957031 77.042969 156.316406 77.042969 156.316406 77.261719 C 156.316406 77.433594 155.097656 81.824219 155.097656 82.011719 C 155.097656 82.246094 155.128906 82.527344 155.503906 82.527344 C 156.019531 82.527344 156.347656 82.121094 156.785156 81.480469 Z M 156.675781 81.402344 "
       id="path93" />
    <path
       style=" stroke:none;fill-rule:nonzero;fill:rgb(12.940979%,11.764526%,11.764526%);fill-opacity:1;"
       d="M 159.792969 78.730469 C 158.558594 78.730469 157.324219 80.074219 157.324219 81.308594 C 157.324219 82.011719 157.699219 82.527344 158.589844 82.527344 C 159.871094 82.527344 161.027344 81.011719 161.027344 79.964844 C 161.027344 79.417969 160.761719 78.730469 159.792969 78.730469 Z M 159.730469 78.902344 C 160.136719 78.902344 160.324219 79.277344 160.324219 79.714844 C 160.324219 80.605469 159.652344 82.355469 158.699219 82.355469 C 158.277344 82.355469 158.027344 82.042969 158.027344 81.574219 C 158.027344 80.574219 158.792969 78.902344 159.730469 78.902344 Z M 159.730469 78.902344 "
       id="path95" />
    <path
       style=" stroke:none;fill-rule:nonzero;fill:rgb(12.940979%,11.764526%,11.764526%);fill-opacity:1;"
       d="M 165.257813 79.027344 L 164.742188 79.027344 C 164.679688 79.027344 164.617188 78.949219 164.460938 78.871094 C 164.320313 78.808594 164.101563 78.730469 163.757813 78.730469 C 163.070313 78.730469 162.101563 79.214844 162.101563 80.152344 C 162.101563 80.730469 162.460938 80.933594 162.757813 81.074219 C 162.476563 81.261719 162.117188 81.511719 162.117188 81.761719 C 162.117188 81.933594 162.242188 82.027344 162.335938 82.105469 C 161.632813 82.574219 161.351563 82.746094 161.351563 83.230469 C 161.351563 83.699219 161.804688 84.167969 162.710938 84.167969 C 163.867188 84.167969 164.523438 83.652344 164.523438 82.933594 C 164.523438 81.777344 162.742188 81.917969 162.742188 81.464844 C 162.742188 81.355469 162.914063 81.136719 163.039063 81.136719 C 163.148438 81.136719 163.257813 81.167969 163.367188 81.167969 C 164.117188 81.167969 164.914063 80.480469 164.914063 79.855469 C 164.914063 79.683594 164.882813 79.511719 164.835938 79.355469 L 165.257813 79.355469 Z M 164.023438 83.183594 C 164.023438 83.605469 163.601563 83.980469 162.851563 83.980469 C 162.726563 83.980469 161.820313 83.949219 161.820313 83.167969 C 161.820313 82.964844 161.820313 82.746094 162.164063 82.449219 C 162.195313 82.417969 162.476563 82.199219 162.523438 82.199219 C 162.585938 82.199219 163.414063 82.511719 163.554688 82.589844 C 163.710938 82.667969 164.023438 82.808594 164.023438 83.183594 Z M 164.242188 79.480469 C 164.242188 80.183594 163.820313 80.980469 163.273438 80.980469 C 162.898438 80.980469 162.757813 80.714844 162.757813 80.339844 C 162.757813 79.761719 163.117188 78.917969 163.773438 78.917969 C 164.117188 78.917969 164.242188 79.152344 164.242188 79.480469 Z M 164.242188 79.480469 "
       id="path97" />
    <path
       style=" stroke:none;fill-rule:nonzero;fill:rgb(12.940979%,11.764526%,11.764526%);fill-opacity:1;"
       d="M 167.804688 77.386719 C 167.851563 77.152344 167.976563 77.089844 168.195313 77.089844 L 168.726563 77.089844 L 168.773438 76.855469 L 167.320313 76.855469 L 165.664063 83.714844 L 167.242188 83.714844 L 167.304688 83.496094 L 166.835938 83.496094 C 166.695313 83.496094 166.429688 83.480469 166.429688 83.246094 C 166.429688 83.230469 166.445313 83.136719 166.460938 83.074219 Z M 167.804688 77.386719 "
       id="path99" />
    <path
       style=" stroke:none;fill-rule:nonzero;fill:rgb(12.940979%,11.764526%,11.764526%);fill-opacity:1;"
       d="M 174.085938 76.949219 L 169.914063 76.949219 L 169.914063 77.074219 C 170.335938 77.105469 170.554688 77.152344 170.554688 77.449219 C 170.554688 77.542969 170.492188 77.871094 170.460938 77.964844 L 169.429688 81.683594 C 169.289063 82.199219 169.164063 82.230469 168.742188 82.292969 L 168.742188 82.433594 L 173.007813 82.433594 L 173.539063 81.074219 L 173.398438 81.011719 C 172.804688 81.839844 172.445313 82.152344 170.820313 82.152344 C 170.601563 82.152344 170.242188 82.136719 170.242188 81.871094 C 170.242188 81.761719 170.273438 81.621094 170.804688 79.683594 C 172.179688 79.714844 172.179688 79.714844 172.179688 80.136719 C 172.179688 80.261719 172.148438 80.402344 172.117188 80.527344 L 172.289063 80.574219 L 172.867188 78.621094 L 172.710938 78.589844 C 172.617188 78.761719 172.554688 78.933594 172.476563 79.042969 C 172.289063 79.308594 172.242188 79.386719 170.882813 79.402344 L 171.445313 77.433594 C 171.492188 77.277344 171.507813 77.214844 172.117188 77.214844 C 173.695313 77.214844 173.710938 77.402344 173.648438 78.214844 L 173.820313 78.230469 Z M 174.085938 76.949219 "
       id="path101" />
    <path
       style=" stroke:none;fill-rule:nonzero;fill:rgb(12.940979%,11.764526%,11.764526%);fill-opacity:1;"
       d="M 175.671875 81.671875 L 175.1875 81.671875 L 175.359375 81.046875 C 175.359375 81 175.359375 80.953125 175.3125 80.953125 C 175.265625 80.953125 175.234375 81 175.203125 81.03125 C 175.046875 81.234375 174.75 81.515625 174.5625 81.609375 C 174.453125 81.671875 174.28125 81.703125 174.25 81.765625 C 174.234375 81.796875 174.234375 81.828125 174.234375 81.859375 L 174.6875 81.859375 L 174.25 83.515625 C 174.234375 83.609375 174.109375 83.96875 174.109375 84.0625 C 174.109375 84.234375 174.28125 84.296875 174.40625 84.296875 C 174.71875 84.296875 174.953125 84.03125 175.25 83.578125 L 175.171875 83.53125 C 175.03125 83.71875 174.8125 84 174.6875 84 C 174.625 84 174.59375 83.953125 174.59375 83.90625 C 174.59375 83.890625 174.59375 83.875 174.609375 83.859375 L 175.125 81.859375 L 175.640625 81.859375 Z M 175.671875 81.671875 "
       id="path103" />
    <path
       style=" stroke:none;fill-rule:nonzero;fill:rgb(12.940979%,11.764526%,11.764526%);fill-opacity:1;"
       d="M 176.464844 82.71875 C 176.699219 82.1875 177.105469 81.71875 177.417969 81.71875 C 177.574219 81.71875 177.636719 81.84375 177.636719 81.96875 C 177.636719 82.015625 177.605469 82.734375 176.371094 82.984375 Z M 177.699219 83.578125 C 177.402344 83.828125 177.152344 84.03125 176.824219 84.03125 C 176.574219 84.03125 176.261719 83.890625 176.261719 83.484375 C 176.261719 83.359375 176.292969 83.25 176.324219 83.125 L 176.496094 83.09375 C 177.464844 82.953125 178.027344 82.46875 178.027344 82 C 178.027344 81.734375 177.839844 81.59375 177.542969 81.59375 C 176.699219 81.59375 175.746094 82.59375 175.746094 83.453125 C 175.746094 83.828125 175.933594 84.296875 176.574219 84.296875 C 177.167969 84.296875 177.714844 83.75 177.777344 83.65625 Z M 177.699219 83.578125 "
       id="path105" />
    <path
       style=" stroke:none;fill-rule:nonzero;fill:rgb(12.940979%,11.764526%,11.764526%);fill-opacity:1;"
       d="M 178.441406 83.359375 L 178.316406 84.3125 L 178.410156 84.3125 C 178.457031 84.25 178.472656 84.1875 178.566406 84.1875 C 178.738281 84.1875 178.972656 84.296875 179.160156 84.296875 C 179.488281 84.296875 180.050781 84.15625 180.050781 83.5 C 180.050781 82.984375 179.316406 82.453125 179.316406 82.078125 C 179.316406 81.78125 179.503906 81.71875 179.644531 81.71875 C 180.035156 81.71875 180.175781 82.078125 180.207031 82.421875 L 180.300781 82.421875 L 180.425781 81.578125 L 180.332031 81.578125 C 180.300781 81.625 180.269531 81.6875 180.160156 81.6875 C 179.988281 81.6875 179.863281 81.59375 179.597656 81.59375 C 178.957031 81.59375 178.878906 82.0625 178.878906 82.25 C 178.878906 82.71875 179.597656 83.296875 179.597656 83.6875 C 179.597656 83.890625 179.488281 84.171875 179.160156 84.171875 C 178.675781 84.171875 178.582031 83.625 178.535156 83.359375 Z M 178.441406 83.359375 "
       id="path107" />
    <path
       style=" stroke:none;fill-rule:nonzero;fill:rgb(12.940979%,11.764526%,11.764526%);fill-opacity:1;"
       d="M 182.339844 81.671875 L 181.855469 81.671875 L 182.027344 81.046875 C 182.027344 81 182.027344 80.953125 181.980469 80.953125 C 181.933594 80.953125 181.902344 81 181.871094 81.03125 C 181.714844 81.234375 181.417969 81.515625 181.230469 81.609375 C 181.121094 81.671875 180.949219 81.703125 180.917969 81.765625 C 180.902344 81.796875 180.902344 81.828125 180.902344 81.859375 L 181.355469 81.859375 L 180.917969 83.515625 C 180.902344 83.609375 180.777344 83.96875 180.777344 84.0625 C 180.777344 84.234375 180.949219 84.296875 181.074219 84.296875 C 181.386719 84.296875 181.621094 84.03125 181.917969 83.578125 L 181.839844 83.53125 C 181.699219 83.71875 181.480469 84 181.355469 84 C 181.292969 84 181.261719 83.953125 181.261719 83.90625 C 181.261719 83.890625 181.261719 83.875 181.277344 83.859375 L 181.792969 81.859375 L 182.308594 81.859375 Z M 182.339844 81.671875 "
       id="path109" />
    <path
       style=" stroke:none;fill-rule:nonzero;fill:rgb(12.940979%,11.764526%,11.764526%);fill-opacity:1;"
       d="M 187.371094 79.683594 L 185.011719 79.683594 L 184.855469 80.355469 L 187.230469 80.355469 Z M 187.371094 79.683594 "
       id="path111" />
    <path
       style=" stroke:none;fill-rule:nonzero;fill:rgb(12.940979%,11.764526%,11.764526%);fill-opacity:1;"
       d="M 193.25 76.949219 L 189.078125 76.949219 L 189.078125 77.074219 C 189.5 77.105469 189.71875 77.152344 189.71875 77.449219 C 189.71875 77.542969 189.65625 77.871094 189.625 77.964844 L 188.59375 81.683594 C 188.453125 82.199219 188.328125 82.230469 187.90625 82.292969 L 187.90625 82.433594 L 192.171875 82.433594 L 192.703125 81.074219 L 192.5625 81.011719 C 191.96875 81.839844 191.609375 82.152344 189.984375 82.152344 C 189.765625 82.152344 189.40625 82.136719 189.40625 81.871094 C 189.40625 81.761719 189.4375 81.621094 189.96875 79.683594 C 191.34375 79.714844 191.34375 79.714844 191.34375 80.136719 C 191.34375 80.261719 191.3125 80.402344 191.28125 80.527344 L 191.453125 80.574219 L 192.03125 78.621094 L 191.875 78.589844 C 191.78125 78.761719 191.71875 78.933594 191.640625 79.042969 C 191.453125 79.308594 191.40625 79.386719 190.046875 79.402344 L 190.609375 77.433594 C 190.65625 77.277344 190.671875 77.214844 191.28125 77.214844 C 192.859375 77.214844 192.875 77.402344 192.8125 78.214844 L 192.984375 78.230469 Z M 193.25 76.949219 "
       id="path113" />
    <path
       style=" stroke:none;fill-rule:nonzero;fill:rgb(12.940979%,11.764526%,11.764526%);fill-opacity:1;"
       d="M 194.835938 81.671875 L 194.351563 81.671875 L 194.523438 81.046875 C 194.523438 81 194.523438 80.953125 194.476563 80.953125 C 194.429688 80.953125 194.398438 81 194.367188 81.03125 C 194.210938 81.234375 193.914063 81.515625 193.726563 81.609375 C 193.617188 81.671875 193.445313 81.703125 193.414063 81.765625 C 193.398438 81.796875 193.398438 81.828125 193.398438 81.859375 L 193.851563 81.859375 L 193.414063 83.515625 C 193.398438 83.609375 193.273438 83.96875 193.273438 84.0625 C 193.273438 84.234375 193.445313 84.296875 193.570313 84.296875 C 193.882813 84.296875 194.117188 84.03125 194.414063 83.578125 L 194.335938 83.53125 C 194.195313 83.71875 193.976563 84 193.851563 84 C 193.789063 84 193.757813 83.953125 193.757813 83.90625 C 193.757813 83.890625 193.757813 83.875 193.773438 83.859375 L 194.289063 81.859375 L 194.804688 81.859375 Z M 194.835938 81.671875 "
       id="path115" />
    <path
       style=" stroke:none;fill-rule:nonzero;fill:rgb(12.940979%,11.764526%,11.764526%);fill-opacity:1;"
       d="M 195.441406 84.234375 C 195.691406 83.4375 195.785156 83.171875 196.003906 82.734375 C 196.050781 82.640625 196.410156 81.984375 196.597656 81.984375 C 196.738281 81.984375 196.660156 82.1875 196.910156 82.1875 C 196.972656 82.1875 197.191406 82.1875 197.191406 81.875 C 197.191406 81.671875 197.050781 81.59375 196.910156 81.59375 C 196.535156 81.59375 196.066406 82.296875 195.878906 82.6875 L 195.832031 82.8125 L 195.816406 82.796875 L 196.113281 81.59375 L 196.097656 81.59375 C 195.816406 81.625 195.472656 81.703125 195.160156 81.75 L 195.160156 81.859375 C 195.222656 81.84375 195.285156 81.828125 195.363281 81.828125 C 195.550781 81.828125 195.582031 81.921875 195.582031 82 C 195.582031 82.0625 195.535156 82.265625 195.472656 82.484375 L 194.988281 84.234375 Z M 195.441406 84.234375 "
       id="path117" />
    <path
       style=" stroke:none;fill-rule:nonzero;fill:rgb(12.940979%,11.764526%,11.764526%);fill-opacity:1;"
       d="M 199.835938 83.578125 C 199.570313 83.84375 199.445313 83.984375 199.351563 83.984375 C 199.304688 83.984375 199.273438 83.953125 199.273438 83.90625 C 199.273438 83.71875 199.820313 81.671875 199.851563 81.609375 L 199.804688 81.59375 L 199.429688 81.625 L 199.414063 81.640625 L 199.351563 81.90625 C 199.335938 81.75 199.132813 81.59375 198.867188 81.59375 C 198.070313 81.59375 197.164063 82.703125 197.164063 83.59375 C 197.164063 83.765625 197.179688 84.296875 197.773438 84.296875 C 198.132813 84.296875 198.445313 84.125 198.945313 83.390625 L 198.960938 83.40625 C 198.867188 83.765625 198.835938 83.890625 198.835938 84.03125 C 198.835938 84.140625 198.835938 84.296875 199.085938 84.296875 C 199.351563 84.296875 199.554688 84.078125 199.914063 83.640625 Z M 197.664063 83.578125 C 197.664063 83.046875 198.195313 81.71875 198.898438 81.71875 C 199.070313 81.71875 199.242188 81.828125 199.242188 82.125 C 199.242188 82.703125 198.664063 84 198.023438 84 C 197.851563 84 197.664063 83.890625 197.664063 83.578125 Z M 197.664063 83.578125 "
       id="path119" />
    <path
       style=" stroke:none;fill-rule:nonzero;fill:rgb(12.940979%,11.764526%,11.764526%);fill-opacity:1;"
       d="M 201.382813 83.546875 C 201.148438 83.890625 200.960938 84.015625 200.898438 84.015625 C 200.835938 84.015625 200.804688 83.96875 200.804688 83.921875 C 200.804688 83.859375 200.867188 83.609375 200.898438 83.53125 L 201.429688 81.59375 L 201.398438 81.59375 C 201.164063 81.625 200.679688 81.71875 200.445313 81.734375 L 200.445313 81.828125 C 200.773438 81.828125 200.820313 81.859375 200.820313 81.984375 C 200.820313 82.15625 200.351563 83.640625 200.351563 83.921875 C 200.351563 84.03125 200.351563 84.296875 200.632813 84.296875 C 200.960938 84.296875 201.226563 83.96875 201.460938 83.609375 Z M 201.632813 80.640625 C 201.632813 80.515625 201.539063 80.3125 201.335938 80.3125 C 201.195313 80.3125 201.054688 80.421875 201.054688 80.640625 C 201.054688 80.84375 201.195313 80.953125 201.351563 80.953125 C 201.539063 80.953125 201.632813 80.765625 201.632813 80.640625 Z M 201.632813 80.640625 "
       id="path121" />
    <path
       style=" stroke:none;fill-rule:nonzero;fill:rgb(12.940979%,11.764526%,11.764526%);fill-opacity:1;"
       d="M 204.488281 83.53125 C 204.253906 83.8125 204.113281 84 203.988281 84 C 203.972656 84 203.894531 84 203.894531 83.90625 C 203.894531 83.71875 204.378906 82.25 204.378906 81.984375 C 204.378906 81.734375 204.238281 81.59375 203.957031 81.59375 C 203.457031 81.59375 202.910156 82.421875 202.628906 82.859375 L 202.613281 82.859375 L 203.003906 81.59375 L 202.988281 81.59375 C 202.660156 81.65625 202.332031 81.71875 202.003906 81.78125 L 202.003906 81.875 C 202.332031 81.875 202.394531 81.9375 202.394531 82.03125 C 202.394531 82.15625 201.988281 83.5625 201.800781 84.234375 L 202.253906 84.234375 C 202.503906 83.421875 202.582031 83.15625 202.863281 82.75 C 203.066406 82.40625 203.457031 81.890625 203.738281 81.890625 C 203.847656 81.890625 203.894531 81.984375 203.894531 82.09375 C 203.894531 82.328125 203.441406 83.796875 203.441406 83.9375 C 203.441406 84.109375 203.457031 84.28125 203.738281 84.28125 C 204.050781 84.28125 204.269531 84.015625 204.566406 83.609375 Z M 204.488281 83.53125 "
       id="path123" />
    <path
       style=" stroke:none;fill-rule:nonzero;fill:rgb(12.940979%,11.764526%,11.764526%);fill-opacity:1;"
       d="M 205.785156 83.183594 C 205.753906 83.339844 205.722656 83.496094 205.410156 83.496094 L 204.878906 83.496094 L 204.816406 83.714844 L 206.285156 83.714844 L 207.941406 76.855469 L 206.347656 76.855469 L 206.285156 77.089844 L 206.769531 77.089844 C 206.878906 77.089844 207.175781 77.089844 207.175781 77.324219 C 207.175781 77.355469 207.160156 77.433594 207.144531 77.496094 Z M 205.785156 83.183594 "
       id="path125" />
    <path
       style=" stroke:none;fill-rule:nonzero;fill:rgb(100%,0%,0%);fill-opacity:1;"
       d="M 106.578125 23.804688 C 106.15625 24.335938 105.984375 24.570313 105.78125 24.570313 C 105.640625 24.570313 105.640625 24.445313 105.640625 24.398438 C 105.640625 24.304688 105.71875 24.085938 105.734375 24.007813 L 107 19.132813 L 106.953125 19.101563 C 106.515625 19.195313 106.078125 19.273438 105.640625 19.320313 L 105.640625 19.460938 C 105.859375 19.445313 106.21875 19.445313 106.21875 19.664063 C 106.21875 19.835938 105 24.226563 105 24.414063 C 105 24.648438 105.03125 24.929688 105.40625 24.929688 C 105.921875 24.929688 106.25 24.523438 106.6875 23.882813 Z M 106.578125 23.804688 "
       id="path127" />
    <path
       style=" stroke:none;fill-rule:nonzero;fill:rgb(100%,0%,0%);fill-opacity:1;"
       d="M 109.695313 21.132813 C 108.460938 21.132813 107.226563 22.476563 107.226563 23.710938 C 107.226563 24.414063 107.601563 24.929688 108.492188 24.929688 C 109.773438 24.929688 110.929688 23.414063 110.929688 22.367188 C 110.929688 21.820313 110.664063 21.132813 109.695313 21.132813 Z M 109.632813 21.304688 C 110.039063 21.304688 110.226563 21.679688 110.226563 22.117188 C 110.226563 23.007813 109.554688 24.757813 108.601563 24.757813 C 108.179688 24.757813 107.929688 24.445313 107.929688 23.976563 C 107.929688 22.976563 108.695313 21.304688 109.632813 21.304688 Z M 109.632813 21.304688 "
       id="path129" />
    <path
       style=" stroke:none;fill-rule:nonzero;fill:rgb(100%,0%,0%);fill-opacity:1;"
       d="M 115.160156 21.429688 L 114.644531 21.429688 C 114.582031 21.429688 114.519531 21.351563 114.363281 21.273438 C 114.222656 21.210938 114.003906 21.132813 113.660156 21.132813 C 112.972656 21.132813 112.003906 21.617188 112.003906 22.554688 C 112.003906 23.132813 112.363281 23.335938 112.660156 23.476563 C 112.378906 23.664063 112.019531 23.914063 112.019531 24.164063 C 112.019531 24.335938 112.144531 24.429688 112.238281 24.507813 C 111.535156 24.976563 111.253906 25.148438 111.253906 25.632813 C 111.253906 26.101563 111.707031 26.570313 112.613281 26.570313 C 113.769531 26.570313 114.425781 26.054688 114.425781 25.335938 C 114.425781 24.179688 112.644531 24.320313 112.644531 23.867188 C 112.644531 23.757813 112.816406 23.539063 112.941406 23.539063 C 113.050781 23.539063 113.160156 23.570313 113.269531 23.570313 C 114.019531 23.570313 114.816406 22.882813 114.816406 22.257813 C 114.816406 22.085938 114.785156 21.914063 114.738281 21.757813 L 115.160156 21.757813 Z M 113.925781 25.585938 C 113.925781 26.007813 113.503906 26.382813 112.753906 26.382813 C 112.628906 26.382813 111.722656 26.351563 111.722656 25.570313 C 111.722656 25.367188 111.722656 25.148438 112.066406 24.851563 C 112.097656 24.820313 112.378906 24.601563 112.425781 24.601563 C 112.488281 24.601563 113.316406 24.914063 113.457031 24.992188 C 113.613281 25.070313 113.925781 25.210938 113.925781 25.585938 Z M 114.144531 21.882813 C 114.144531 22.585938 113.722656 23.382813 113.175781 23.382813 C 112.800781 23.382813 112.660156 23.117188 112.660156 22.742188 C 112.660156 22.164063 113.019531 21.320313 113.675781 21.320313 C 114.019531 21.320313 114.144531 21.554688 114.144531 21.882813 Z M 114.144531 21.882813 "
       id="path131" />
    <path
       style=" stroke:none;fill-rule:nonzero;fill:rgb(100%,0%,0%);fill-opacity:1;"
       d="M 117.703125 19.789063 C 117.75 19.554688 117.875 19.492188 118.09375 19.492188 L 118.625 19.492188 L 118.671875 19.257813 L 117.21875 19.257813 L 115.5625 26.117188 L 117.140625 26.117188 L 117.203125 25.898438 L 116.734375 25.898438 C 116.59375 25.898438 116.328125 25.882813 116.328125 25.648438 C 116.328125 25.632813 116.34375 25.539063 116.359375 25.476563 Z M 117.703125 19.789063 "
       id="path133" />
    <path
       style=" stroke:none;fill-rule:nonzero;fill:rgb(100%,0%,0%);fill-opacity:1;"
       d="M 123.988281 19.351563 L 119.816406 19.351563 L 119.816406 19.476563 C 120.238281 19.507813 120.457031 19.554688 120.457031 19.851563 C 120.457031 19.945313 120.394531 20.273438 120.363281 20.367188 L 119.332031 24.085938 C 119.191406 24.601563 119.066406 24.632813 118.644531 24.695313 L 118.644531 24.835938 L 122.910156 24.835938 L 123.441406 23.476563 L 123.300781 23.414063 C 122.707031 24.242188 122.347656 24.554688 120.722656 24.554688 C 120.503906 24.554688 120.144531 24.539063 120.144531 24.273438 C 120.144531 24.164063 120.175781 24.023438 120.707031 22.085938 C 122.082031 22.117188 122.082031 22.117188 122.082031 22.539063 C 122.082031 22.664063 122.050781 22.804688 122.019531 22.929688 L 122.191406 22.976563 L 122.769531 21.023438 L 122.613281 20.992188 C 122.519531 21.164063 122.457031 21.335938 122.378906 21.445313 C 122.191406 21.710938 122.144531 21.789063 120.785156 21.804688 L 121.347656 19.835938 C 121.394531 19.679688 121.410156 19.617188 122.019531 19.617188 C 123.597656 19.617188 123.613281 19.804688 123.550781 20.617188 L 123.722656 20.632813 Z M 123.988281 19.351563 "
       id="path135" />
    <path
       style=" stroke:none;fill-rule:nonzero;fill:rgb(100%,0%,0%);fill-opacity:1;"
       d="M 125.570313 24.070313 L 125.085938 24.070313 L 125.257813 23.445313 C 125.257813 23.398438 125.257813 23.351563 125.210938 23.351563 C 125.164063 23.351563 125.132813 23.398438 125.101563 23.429688 C 124.945313 23.632813 124.648438 23.914063 124.460938 24.007813 C 124.351563 24.070313 124.179688 24.101563 124.148438 24.164063 C 124.132813 24.195313 124.132813 24.226563 124.132813 24.257813 L 124.585938 24.257813 L 124.148438 25.914063 C 124.132813 26.007813 124.007813 26.367188 124.007813 26.460938 C 124.007813 26.632813 124.179688 26.695313 124.304688 26.695313 C 124.617188 26.695313 124.851563 26.429688 125.148438 25.976563 L 125.070313 25.929688 C 124.929688 26.117188 124.710938 26.398438 124.585938 26.398438 C 124.523438 26.398438 124.492188 26.351563 124.492188 26.304688 C 124.492188 26.289063 124.492188 26.273438 124.507813 26.257813 L 125.023438 24.257813 L 125.539063 24.257813 Z M 125.570313 24.070313 "
       id="path137" />
    <path
       style=" stroke:none;fill-rule:nonzero;fill:rgb(100%,0%,0%);fill-opacity:1;"
       d="M 126.363281 25.117188 C 126.597656 24.585938 127.003906 24.117188 127.316406 24.117188 C 127.472656 24.117188 127.535156 24.242188 127.535156 24.367188 C 127.535156 24.414063 127.503906 25.132813 126.269531 25.382813 Z M 127.597656 25.976563 C 127.300781 26.226563 127.050781 26.429688 126.722656 26.429688 C 126.472656 26.429688 126.160156 26.289063 126.160156 25.882813 C 126.160156 25.757813 126.191406 25.648438 126.222656 25.523438 L 126.394531 25.492188 C 127.363281 25.351563 127.925781 24.867188 127.925781 24.398438 C 127.925781 24.132813 127.738281 23.992188 127.441406 23.992188 C 126.597656 23.992188 125.644531 24.992188 125.644531 25.851563 C 125.644531 26.226563 125.832031 26.695313 126.472656 26.695313 C 127.066406 26.695313 127.613281 26.148438 127.675781 26.054688 Z M 127.597656 25.976563 "
       id="path139" />
    <path
       style=" stroke:none;fill-rule:nonzero;fill:rgb(100%,0%,0%);fill-opacity:1;"
       d="M 128.339844 25.757813 L 128.214844 26.710938 L 128.308594 26.710938 C 128.355469 26.648438 128.371094 26.585938 128.464844 26.585938 C 128.636719 26.585938 128.871094 26.695313 129.058594 26.695313 C 129.386719 26.695313 129.949219 26.554688 129.949219 25.898438 C 129.949219 25.382813 129.214844 24.851563 129.214844 24.476563 C 129.214844 24.179688 129.402344 24.117188 129.542969 24.117188 C 129.933594 24.117188 130.074219 24.476563 130.105469 24.820313 L 130.199219 24.820313 L 130.324219 23.976563 L 130.230469 23.976563 C 130.199219 24.023438 130.167969 24.085938 130.058594 24.085938 C 129.886719 24.085938 129.761719 23.992188 129.496094 23.992188 C 128.855469 23.992188 128.777344 24.460938 128.777344 24.648438 C 128.777344 25.117188 129.496094 25.695313 129.496094 26.085938 C 129.496094 26.289063 129.386719 26.570313 129.058594 26.570313 C 128.574219 26.570313 128.480469 26.023438 128.433594 25.757813 Z M 128.339844 25.757813 "
       id="path141" />
    <path
       style=" stroke:none;fill-rule:nonzero;fill:rgb(100%,0%,0%);fill-opacity:1;"
       d="M 132.238281 24.070313 L 131.753906 24.070313 L 131.925781 23.445313 C 131.925781 23.398438 131.925781 23.351563 131.878906 23.351563 C 131.832031 23.351563 131.800781 23.398438 131.769531 23.429688 C 131.613281 23.632813 131.316406 23.914063 131.128906 24.007813 C 131.019531 24.070313 130.847656 24.101563 130.816406 24.164063 C 130.800781 24.195313 130.800781 24.226563 130.800781 24.257813 L 131.253906 24.257813 L 130.816406 25.914063 C 130.800781 26.007813 130.675781 26.367188 130.675781 26.460938 C 130.675781 26.632813 130.847656 26.695313 130.972656 26.695313 C 131.285156 26.695313 131.519531 26.429688 131.816406 25.976563 L 131.738281 25.929688 C 131.597656 26.117188 131.378906 26.398438 131.253906 26.398438 C 131.191406 26.398438 131.160156 26.351563 131.160156 26.304688 C 131.160156 26.289063 131.160156 26.273438 131.175781 26.257813 L 131.691406 24.257813 L 132.207031 24.257813 Z M 132.238281 24.070313 "
       id="path143" />
    <path
       style=" stroke:none;fill-rule:nonzero;fill:rgb(100%,0%,0%);fill-opacity:1;"
       d="M 136.789063 22.429688 L 134.945313 22.429688 L 134.945313 22.992188 L 136.789063 22.992188 L 136.789063 24.835938 L 137.351563 24.835938 L 137.351563 22.992188 L 139.179688 22.992188 L 139.179688 22.429688 L 137.351563 22.429688 L 137.351563 20.585938 L 136.789063 20.585938 Z M 136.789063 22.429688 "
       id="path145" />
    <path
       style=" stroke:none;fill-rule:nonzero;fill:rgb(100%,0%,0%);fill-opacity:1;"
       d="M 145.222656 19.351563 L 141.050781 19.351563 L 141.050781 19.476563 C 141.472656 19.507813 141.691406 19.554688 141.691406 19.851563 C 141.691406 19.945313 141.628906 20.273438 141.597656 20.367188 L 140.566406 24.085938 C 140.425781 24.601563 140.300781 24.632813 139.878906 24.695313 L 139.878906 24.835938 L 144.144531 24.835938 L 144.675781 23.476563 L 144.535156 23.414063 C 143.941406 24.242188 143.582031 24.554688 141.957031 24.554688 C 141.738281 24.554688 141.378906 24.539063 141.378906 24.273438 C 141.378906 24.164063 141.410156 24.023438 141.941406 22.085938 C 143.316406 22.117188 143.316406 22.117188 143.316406 22.539063 C 143.316406 22.664063 143.285156 22.804688 143.253906 22.929688 L 143.425781 22.976563 L 144.003906 21.023438 L 143.847656 20.992188 C 143.753906 21.164063 143.691406 21.335938 143.613281 21.445313 C 143.425781 21.710938 143.378906 21.789063 142.019531 21.804688 L 142.582031 19.835938 C 142.628906 19.679688 142.644531 19.617188 143.253906 19.617188 C 144.832031 19.617188 144.847656 19.804688 144.785156 20.617188 L 144.957031 20.632813 Z M 145.222656 19.351563 "
       id="path147" />
    <path
       style=" stroke:none;fill-rule:nonzero;fill:rgb(100%,0%,0%);fill-opacity:1;"
       d="M 146.808594 24.070313 L 146.324219 24.070313 L 146.496094 23.445313 C 146.496094 23.398438 146.496094 23.351563 146.449219 23.351563 C 146.402344 23.351563 146.371094 23.398438 146.339844 23.429688 C 146.183594 23.632813 145.886719 23.914063 145.699219 24.007813 C 145.589844 24.070313 145.417969 24.101563 145.386719 24.164063 C 145.371094 24.195313 145.371094 24.226563 145.371094 24.257813 L 145.824219 24.257813 L 145.386719 25.914063 C 145.371094 26.007813 145.246094 26.367188 145.246094 26.460938 C 145.246094 26.632813 145.417969 26.695313 145.542969 26.695313 C 145.855469 26.695313 146.089844 26.429688 146.386719 25.976563 L 146.308594 25.929688 C 146.167969 26.117188 145.949219 26.398438 145.824219 26.398438 C 145.761719 26.398438 145.730469 26.351563 145.730469 26.304688 C 145.730469 26.289063 145.730469 26.273438 145.746094 26.257813 L 146.261719 24.257813 L 146.777344 24.257813 Z M 146.808594 24.070313 "
       id="path149" />
    <path
       style=" stroke:none;fill-rule:nonzero;fill:rgb(100%,0%,0%);fill-opacity:1;"
       d="M 147.414063 26.632813 C 147.664063 25.835938 147.757813 25.570313 147.976563 25.132813 C 148.023438 25.039063 148.382813 24.382813 148.570313 24.382813 C 148.710938 24.382813 148.632813 24.585938 148.882813 24.585938 C 148.945313 24.585938 149.164063 24.585938 149.164063 24.273438 C 149.164063 24.070313 149.023438 23.992188 148.882813 23.992188 C 148.507813 23.992188 148.039063 24.695313 147.851563 25.085938 L 147.804688 25.210938 L 147.789063 25.195313 L 148.085938 23.992188 L 148.070313 23.992188 C 147.789063 24.023438 147.445313 24.101563 147.132813 24.148438 L 147.132813 24.257813 C 147.195313 24.242188 147.257813 24.226563 147.335938 24.226563 C 147.523438 24.226563 147.554688 24.320313 147.554688 24.398438 C 147.554688 24.460938 147.507813 24.664063 147.445313 24.882813 L 146.960938 26.632813 Z M 147.414063 26.632813 "
       id="path151" />
    <path
       style=" stroke:none;fill-rule:nonzero;fill:rgb(100%,0%,0%);fill-opacity:1;"
       d="M 151.808594 25.976563 C 151.542969 26.242188 151.417969 26.382813 151.324219 26.382813 C 151.277344 26.382813 151.246094 26.351563 151.246094 26.304688 C 151.246094 26.117188 151.792969 24.070313 151.824219 24.007813 L 151.777344 23.992188 L 151.402344 24.023438 L 151.386719 24.039063 L 151.324219 24.304688 C 151.308594 24.148438 151.105469 23.992188 150.839844 23.992188 C 150.042969 23.992188 149.136719 25.101563 149.136719 25.992188 C 149.136719 26.164063 149.152344 26.695313 149.746094 26.695313 C 150.105469 26.695313 150.417969 26.523438 150.917969 25.789063 L 150.933594 25.804688 C 150.839844 26.164063 150.808594 26.289063 150.808594 26.429688 C 150.808594 26.539063 150.808594 26.695313 151.058594 26.695313 C 151.324219 26.695313 151.527344 26.476563 151.886719 26.039063 Z M 149.636719 25.976563 C 149.636719 25.445313 150.167969 24.117188 150.871094 24.117188 C 151.042969 24.117188 151.214844 24.226563 151.214844 24.523438 C 151.214844 25.101563 150.636719 26.398438 149.996094 26.398438 C 149.824219 26.398438 149.636719 26.289063 149.636719 25.976563 Z M 149.636719 25.976563 "
       id="path153" />
    <path
       style=" stroke:none;fill-rule:nonzero;fill:rgb(100%,0%,0%);fill-opacity:1;"
       d="M 153.355469 25.945313 C 153.121094 26.289063 152.933594 26.414063 152.871094 26.414063 C 152.808594 26.414063 152.777344 26.367188 152.777344 26.320313 C 152.777344 26.257813 152.839844 26.007813 152.871094 25.929688 L 153.402344 23.992188 L 153.371094 23.992188 C 153.136719 24.023438 152.652344 24.117188 152.417969 24.132813 L 152.417969 24.226563 C 152.746094 24.226563 152.792969 24.257813 152.792969 24.382813 C 152.792969 24.554688 152.324219 26.039063 152.324219 26.320313 C 152.324219 26.429688 152.324219 26.695313 152.605469 26.695313 C 152.933594 26.695313 153.199219 26.367188 153.433594 26.007813 Z M 153.605469 23.039063 C 153.605469 22.914063 153.511719 22.710938 153.308594 22.710938 C 153.167969 22.710938 153.027344 22.820313 153.027344 23.039063 C 153.027344 23.242188 153.167969 23.351563 153.324219 23.351563 C 153.511719 23.351563 153.605469 23.164063 153.605469 23.039063 Z M 153.605469 23.039063 "
       id="path155" />
    <path
       style=" stroke:none;fill-rule:nonzero;fill:rgb(100%,0%,0%);fill-opacity:1;"
       d="M 156.460938 25.929688 C 156.226563 26.210938 156.085938 26.398438 155.960938 26.398438 C 155.945313 26.398438 155.867188 26.398438 155.867188 26.304688 C 155.867188 26.117188 156.351563 24.648438 156.351563 24.382813 C 156.351563 24.132813 156.210938 23.992188 155.929688 23.992188 C 155.429688 23.992188 154.882813 24.820313 154.601563 25.257813 L 154.585938 25.257813 L 154.976563 23.992188 L 154.960938 23.992188 C 154.632813 24.054688 154.304688 24.117188 153.976563 24.179688 L 153.976563 24.273438 C 154.304688 24.273438 154.367188 24.335938 154.367188 24.429688 C 154.367188 24.554688 153.960938 25.960938 153.773438 26.632813 L 154.226563 26.632813 C 154.476563 25.820313 154.554688 25.554688 154.835938 25.148438 C 155.039063 24.804688 155.429688 24.289063 155.710938 24.289063 C 155.820313 24.289063 155.867188 24.382813 155.867188 24.492188 C 155.867188 24.726563 155.414063 26.195313 155.414063 26.335938 C 155.414063 26.507813 155.429688 26.679688 155.710938 26.679688 C 156.023438 26.679688 156.242188 26.414063 156.539063 26.007813 Z M 156.460938 25.929688 "
       id="path157" />
    <path
       style=" stroke:none;fill-rule:nonzero;fill:rgb(100%,0%,0%);fill-opacity:1;"
       d="M 157.757813 25.585938 C 157.726563 25.742188 157.695313 25.898438 157.382813 25.898438 L 156.851563 25.898438 L 156.789063 26.117188 L 158.257813 26.117188 L 159.914063 19.257813 L 158.320313 19.257813 L 158.257813 19.492188 L 158.742188 19.492188 C 158.851563 19.492188 159.148438 19.492188 159.148438 19.726563 C 159.148438 19.757813 159.132813 19.835938 159.117188 19.898438 Z M 157.757813 25.585938 "
       id="path159" />
    <path
       style=" stroke:none;fill-rule:nonzero;fill:rgb(100%,0%,0%);fill-opacity:1;"
       d="M 164.089844 21.523438 C 163.980469 21.679688 163.792969 21.820313 163.652344 21.882813 C 163.371094 21.992188 163.152344 22.007813 162.996094 21.945313 L 161.714844 21.601563 C 161.105469 21.429688 160.527344 21.617188 160.089844 22.210938 L 160.449219 22.429688 C 160.558594 22.304688 160.839844 21.757813 161.636719 21.992188 L 162.902344 22.351563 C 163.386719 22.492188 164.074219 22.273438 164.402344 21.726563 Z M 164.089844 22.789063 C 163.980469 22.945313 163.792969 23.085938 163.652344 23.148438 C 163.371094 23.257813 163.152344 23.273438 162.996094 23.226563 L 161.714844 22.867188 C 161.105469 22.695313 160.527344 22.882813 160.089844 23.476563 L 160.449219 23.695313 C 160.558594 23.570313 160.839844 23.023438 161.636719 23.257813 L 162.902344 23.617188 C 163.386719 23.757813 164.074219 23.554688 164.402344 22.992188 Z M 164.089844 22.789063 "
       id="path161" />
    <path
       style=" stroke:none;fill-rule:nonzero;fill:rgb(100%,0%,0%);fill-opacity:1;"
       d="M 166.496094 23.804688 C 166.074219 24.335938 165.902344 24.570313 165.699219 24.570313 C 165.558594 24.570313 165.558594 24.445313 165.558594 24.398438 C 165.558594 24.304688 165.636719 24.085938 165.652344 24.007813 L 166.917969 19.132813 L 166.871094 19.101563 C 166.433594 19.195313 165.996094 19.273438 165.558594 19.320313 L 165.558594 19.460938 C 165.777344 19.445313 166.136719 19.445313 166.136719 19.664063 C 166.136719 19.835938 164.917969 24.226563 164.917969 24.414063 C 164.917969 24.648438 164.949219 24.929688 165.324219 24.929688 C 165.839844 24.929688 166.167969 24.523438 166.605469 23.882813 Z M 166.496094 23.804688 "
       id="path163" />
    <path
       style=" stroke:none;fill-rule:nonzero;fill:rgb(100%,0%,0%);fill-opacity:1;"
       d="M 169.613281 21.132813 C 168.378906 21.132813 167.144531 22.476563 167.144531 23.710938 C 167.144531 24.414063 167.519531 24.929688 168.410156 24.929688 C 169.691406 24.929688 170.847656 23.414063 170.847656 22.367188 C 170.847656 21.820313 170.582031 21.132813 169.613281 21.132813 Z M 169.550781 21.304688 C 169.957031 21.304688 170.144531 21.679688 170.144531 22.117188 C 170.144531 23.007813 169.472656 24.757813 168.519531 24.757813 C 168.097656 24.757813 167.847656 24.445313 167.847656 23.976563 C 167.847656 22.976563 168.613281 21.304688 169.550781 21.304688 Z M 169.550781 21.304688 "
       id="path165" />
    <path
       style=" stroke:none;fill-rule:nonzero;fill:rgb(100%,0%,0%);fill-opacity:1;"
       d="M 175.078125 21.429688 L 174.5625 21.429688 C 174.5 21.429688 174.4375 21.351563 174.28125 21.273438 C 174.140625 21.210938 173.921875 21.132813 173.578125 21.132813 C 172.890625 21.132813 171.921875 21.617188 171.921875 22.554688 C 171.921875 23.132813 172.28125 23.335938 172.578125 23.476563 C 172.296875 23.664063 171.9375 23.914063 171.9375 24.164063 C 171.9375 24.335938 172.0625 24.429688 172.15625 24.507813 C 171.453125 24.976563 171.171875 25.148438 171.171875 25.632813 C 171.171875 26.101563 171.625 26.570313 172.53125 26.570313 C 173.6875 26.570313 174.34375 26.054688 174.34375 25.335938 C 174.34375 24.179688 172.5625 24.320313 172.5625 23.867188 C 172.5625 23.757813 172.734375 23.539063 172.859375 23.539063 C 172.96875 23.539063 173.078125 23.570313 173.1875 23.570313 C 173.9375 23.570313 174.734375 22.882813 174.734375 22.257813 C 174.734375 22.085938 174.703125 21.914063 174.65625 21.757813 L 175.078125 21.757813 Z M 173.84375 25.585938 C 173.84375 26.007813 173.421875 26.382813 172.671875 26.382813 C 172.546875 26.382813 171.640625 26.351563 171.640625 25.570313 C 171.640625 25.367188 171.640625 25.148438 171.984375 24.851563 C 172.015625 24.820313 172.296875 24.601563 172.34375 24.601563 C 172.40625 24.601563 173.234375 24.914063 173.375 24.992188 C 173.53125 25.070313 173.84375 25.210938 173.84375 25.585938 Z M 174.0625 21.882813 C 174.0625 22.585938 173.640625 23.382813 173.09375 23.382813 C 172.71875 23.382813 172.578125 23.117188 172.578125 22.742188 C 172.578125 22.164063 172.9375 21.320313 173.59375 21.320313 C 173.9375 21.320313 174.0625 21.554688 174.0625 21.882813 Z M 174.0625 21.882813 "
       id="path167" />
    <path
       style=" stroke:none;fill-rule:nonzero;fill:rgb(100%,0%,0%);fill-opacity:1;"
       d="M 177.625 19.789063 C 177.671875 19.554688 177.796875 19.492188 178.015625 19.492188 L 178.546875 19.492188 L 178.59375 19.257813 L 177.140625 19.257813 L 175.484375 26.117188 L 177.0625 26.117188 L 177.125 25.898438 L 176.65625 25.898438 C 176.515625 25.898438 176.25 25.882813 176.25 25.648438 C 176.25 25.632813 176.265625 25.539063 176.28125 25.476563 Z M 177.625 19.789063 "
       id="path169" />
    <path
       style=" stroke:none;fill-rule:nonzero;fill:rgb(100%,0%,0%);fill-opacity:1;"
       d="M 181.9375 23.664063 C 181.796875 23.976563 181.65625 24.195313 181.109375 24.195313 L 179.515625 24.195313 L 179.515625 24.148438 L 181.125 22.539063 C 182.171875 21.492188 182.375 21.117188 182.375 20.554688 C 182.375 19.929688 181.90625 19.148438 181.015625 19.148438 C 180.8125 19.148438 179.703125 19.179688 179.25 20.492188 L 179.421875 20.554688 C 179.546875 20.351563 179.859375 19.773438 180.625 19.773438 C 181.265625 19.773438 181.65625 20.273438 181.65625 20.789063 C 181.65625 21.070313 181.625 21.554688 180.4375 22.804688 L 178.671875 24.695313 L 178.671875 24.835938 L 181.65625 24.835938 L 182.078125 23.726563 Z M 181.9375 23.664063 "
       id="path171" />
    <path
       style=" stroke:none;fill-rule:nonzero;fill:rgb(100%,0%,0%);fill-opacity:1;"
       d="M 186.683594 23.914063 C 186.292969 24.273438 186.136719 24.492188 186.011719 24.492188 C 185.933594 24.492188 185.886719 24.445313 185.886719 24.382813 C 185.886719 24.117188 186.667969 21.257813 186.683594 21.148438 L 186.621094 21.132813 L 186.121094 21.195313 L 186.089844 21.210938 L 186.011719 21.585938 L 185.996094 21.585938 C 185.964844 21.351563 185.683594 21.132813 185.324219 21.132813 C 184.199219 21.132813 182.917969 22.695313 182.917969 23.929688 C 182.917969 24.179688 182.949219 24.929688 183.792969 24.929688 C 184.292969 24.929688 184.730469 24.679688 185.433594 23.648438 L 185.449219 23.664063 C 185.308594 24.179688 185.277344 24.367188 185.277344 24.554688 C 185.277344 24.695313 185.277344 24.914063 185.621094 24.914063 C 185.996094 24.914063 186.277344 24.617188 186.777344 23.992188 Z M 183.621094 23.914063 C 183.621094 23.164063 184.386719 21.320313 185.371094 21.320313 C 185.605469 21.320313 185.839844 21.476563 185.839844 21.882813 C 185.839844 22.695313 185.027344 24.523438 184.136719 24.523438 C 183.902344 24.523438 183.621094 24.367188 183.621094 23.914063 Z M 183.621094 23.914063 "
       id="path173" />
    <path
       style=" stroke:none;fill-rule:nonzero;fill:rgb(100%,0%,0%);fill-opacity:1;"
       d="M 188.042969 25.585938 C 188.011719 25.742188 187.980469 25.898438 187.667969 25.898438 L 187.136719 25.898438 L 187.074219 26.117188 L 188.542969 26.117188 L 190.199219 19.257813 L 188.605469 19.257813 L 188.542969 19.492188 L 189.027344 19.492188 C 189.136719 19.492188 189.433594 19.492188 189.433594 19.726563 C 189.433594 19.757813 189.417969 19.835938 189.402344 19.898438 Z M 188.042969 25.585938 "
       id="path175" />
    <path
       style=" stroke:none;fill-rule:nonzero;fill:rgb(12.940979%,11.764526%,11.764526%);fill-opacity:1;"
       d="M 111.160156 77.132813 L 113.503906 77.132813 L 113.503906 77.007813 C 113.097656 77.007813 112.785156 76.992188 112.785156 76.726563 C 112.785156 76.601563 112.894531 76.289063 112.941406 76.117188 L 114.144531 71.757813 C 114.191406 71.617188 114.222656 71.445313 114.160156 71.445313 C 114.097656 71.445313 112.925781 71.695313 112.535156 71.773438 L 112.535156 71.898438 L 113.003906 71.882813 C 113.082031 71.882813 113.332031 71.882813 113.332031 72.148438 C 113.332031 72.210938 113.285156 72.335938 113.269531 72.429688 L 112.113281 76.554688 C 112.003906 76.945313 111.660156 76.960938 111.160156 77.007813 Z M 111.160156 77.132813 "
       id="path177" />
    <path
       style=" stroke:none;fill-rule:nonzero;fill:rgb(12.940979%,11.764526%,11.764526%);fill-opacity:1;"
       d="M 96.042969 57.339844 L 95.496094 58.839844 C 95.449219 58.511719 95.339844 58.167969 95.183594 57.902344 C 94.980469 57.589844 94.667969 57.308594 94.261719 57.246094 C 93.917969 57.183594 93.417969 57.277344 93.152344 57.464844 C 92.558594 57.871094 92.324219 58.308594 92.246094 58.917969 C 92.121094 59.855469 92.277344 60.417969 92.496094 60.808594 C 92.667969 61.089844 92.902344 61.292969 93.214844 61.433594 C 93.777344 61.683594 94.183594 61.589844 94.574219 61.464844 C 95.324219 61.214844 95.496094 60.636719 95.652344 60.386719 C 95.855469 60.933594 95.980469 61.230469 96.183594 61.417969 C 96.339844 61.574219 96.527344 61.636719 96.746094 61.449219 C 96.980469 61.261719 97.058594 60.933594 97.074219 60.777344 L 97.089844 60.277344 L 96.933594 60.277344 C 96.917969 60.386719 96.902344 60.667969 96.730469 60.839844 C 96.464844 61.089844 96.246094 60.871094 96.167969 60.808594 C 96.011719 60.636719 95.886719 60.402344 95.824219 60.011719 L 96.792969 57.339844 Z M 95.027344 60.246094 C 94.917969 60.511719 94.699219 60.933594 94.527344 61.074219 C 94.339844 61.230469 94.152344 61.308594 94.011719 61.292969 C 93.777344 61.277344 93.667969 61.230469 93.480469 61.042969 C 93.277344 60.839844 93.199219 60.574219 93.152344 60.339844 C 93.074219 59.855469 93.042969 59.386719 93.105469 58.933594 C 93.152344 58.480469 93.261719 58.121094 93.464844 57.855469 C 93.652344 57.621094 93.808594 57.480469 94.308594 57.621094 C 94.542969 57.699219 94.777344 57.917969 94.902344 58.136719 C 95.121094 58.480469 95.214844 59.136719 95.277344 59.558594 Z M 95.027344 60.246094 "
       id="path179" />
  </g>
</svg>
