<?xml version="1.0" encoding="UTF-8" standalone="no"?>
<svg
   xmlns:dc="http://purl.org/dc/elements/1.1/"
   xmlns:cc="http://creativecommons.org/ns#"
   xmlns:rdf="http://www.w3.org/1999/02/22-rdf-syntax-ns#"
   xmlns:svg="http://www.w3.org/2000/svg"
   xmlns="http://www.w3.org/2000/svg"
   xmlns:sodipodi="http://sodipodi.sourceforge.net/DTD/sodipodi-0.dtd"
   xmlns:inkscape="http://www.inkscape.org/namespaces/inkscape"
   width="200.53862pt"
   height="205.70314pt"
   viewBox="0 0 200.53862 205.70314"
   version="1.2"
   id="svg262"
   sodipodi:docname="active_learning.svg"
   inkscape:version="0.92.4 (5da689c313, 2019-01-14)">
  <metadata
     id="metadata266">
    <rdf:RDF>
      <cc:Work
         rdf:about="">
        <dc:format>image/svg+xml</dc:format>
        <dc:type
           rdf:resource="http://purl.org/dc/dcmitype/StillImage" />
        <dc:title></dc:title>
      </cc:Work>
    </rdf:RDF>
  </metadata>
  <sodipodi:namedview
     pagecolor="#ffffff"
     bordercolor="#666666"
     borderopacity="1"
     objecttolerance="10"
     gridtolerance="10"
     guidetolerance="10"
     inkscape:pageopacity="0"
     inkscape:pageshadow="2"
     inkscape:window-width="661"
     inkscape:window-height="480"
     id="namedview264"
     showgrid="false"
     inkscape:zoom="0.86046329"
     inkscape:cx="133.69241"
     inkscape:cy="137.13543"
     inkscape:window-x="0"
     inkscape:window-y="0"
     inkscape:window-maximized="0"
     inkscape:current-layer="svg262" />
  <defs
     id="defs53">
    <clipPath
       id="clip1">
      <path
         d="M 198 197 L 200.539063 197 L 200.539063 202 L 198 202 Z M 198 197 "
         id="path2" />
    </clipPath>
    <clipPath
       id="clip2">
      <path
         d="M 33 200 L 39 200 L 39 205.703125 L 33 205.703125 Z M 33 200 "
         id="path5" />
    </clipPath>
    <clipPath
       id="clip3">
      <path
         d="M 47 200 L 51 200 L 51 205.703125 L 47 205.703125 Z M 47 200 "
         id="path8" />
    </clipPath>
    <clipPath
       id="clip4">
      <path
         d="M 50 204 L 52 204 L 52 205.703125 L 50 205.703125 Z M 50 204 "
         id="path11" />
    </clipPath>
    <clipPath
       id="clip5">
      <path
         d="M 52 200 L 57 200 L 57 205.703125 L 52 205.703125 Z M 52 200 "
         id="path14" />
    </clipPath>
    <clipPath
       id="clip6">
      <path
         d="M 56 200 L 61 200 L 61 205.703125 L 56 205.703125 Z M 56 200 "
         id="path17" />
    </clipPath>
    <clipPath
       id="clip7">
      <path
         d="M 60 200 L 65 200 L 65 205.703125 L 60 205.703125 Z M 60 200 "
         id="path20" />
    </clipPath>
    <clipPath
       id="clip8">
      <path
         d="M 64 200 L 68 200 L 68 205.703125 L 64 205.703125 Z M 64 200 "
         id="path23" />
    </clipPath>
    <clipPath
       id="clip9">
      <path
         d="M 68 200 L 71 200 L 71 205.703125 L 68 205.703125 Z M 68 200 "
         id="path26" />
    </clipPath>
    <clipPath
       id="clip10">
      <path
         d="M 138 200 L 144 200 L 144 205.703125 L 138 205.703125 Z M 138 200 "
         id="path29" />
    </clipPath>
    <clipPath
       id="clip11">
      <path
         d="M 152 200 L 156 200 L 156 205.703125 L 152 205.703125 Z M 152 200 "
         id="path32" />
    </clipPath>
    <clipPath
       id="clip12">
      <path
         d="M 155 204 L 157 204 L 157 205.703125 L 155 205.703125 Z M 155 204 "
         id="path35" />
    </clipPath>
    <clipPath
       id="clip13">
      <path
         d="M 157 200 L 162 200 L 162 205.703125 L 157 205.703125 Z M 157 200 "
         id="path38" />
    </clipPath>
    <clipPath
       id="clip14">
      <path
         d="M 161 200 L 165 200 L 165 205.703125 L 161 205.703125 Z M 161 200 "
         id="path41" />
    </clipPath>
    <clipPath
       id="clip15">
      <path
         d="M 165 200 L 169 200 L 169 205.703125 L 165 205.703125 Z M 165 200 "
         id="path44" />
    </clipPath>
    <clipPath
       id="clip16">
      <path
         d="M 169 200 L 173 200 L 173 205.703125 L 169 205.703125 Z M 169 200 "
         id="path47" />
    </clipPath>
    <clipPath
       id="clip17">
      <path
         d="M 172 200 L 177 200 L 177 205.703125 L 172 205.703125 Z M 172 200 "
         id="path50" />
    </clipPath>
  </defs>
  <g
     id="surface36">
    <path
       style="fill:none;stroke-width:0.541;stroke-linecap:round;stroke-linejoin:round;stroke:rgb(12.940979%,11.764526%,11.764526%);stroke-opacity:1;stroke-miterlimit:4;"
       d="M 159.765625 198.066406 L 154.617188 184.039063 L 152.003906 181.324219 L 144.117188 177.847656 L 144.269531 176.652344 L 146.425781 174.363281 L 146.929688 171.65625 L 147.691406 170.867188 L 149.035156 170.121094 L 148.21875 168.328125 L 147.023438 167.082031 L 148.949219 165.960938 L 150.347656 164.777344 L 149.625 163.644531 L 149.660156 161.039063 L 150.199219 160.417969 L 147.746094 156.207031 L 148.222656 155.683594 L 148.652344 154.863281 L 147.328125 152.929688 L 147.148438 152.394531 L 149.769531 150.710938 L 150.042969 150.335938 L 148.542969 146.78125 L 152.074219 142.320313 L 152.023438 141.960938 L 152.796875 135.972656 L 147 134.894531 L 141.824219 129.511719 "
       id="path55" />
    <path
       style="fill:none;stroke-width:0.27;stroke-linecap:round;stroke-linejoin:round;stroke:rgb(12.940979%,11.764526%,11.764526%);stroke-opacity:1;stroke-miterlimit:4;"
       d="M 106.648438 115.683594 L 106.648438 198.066406 L 189.03125 198.066406 "
       id="path57" />
    <path
       style=" stroke:none;fill-rule:nonzero;fill:rgb(12.940979%,11.764526%,11.764526%);fill-opacity:1;"
       d="M 190.308594 197.511719 C 189.414063 197.242188 188.835938 196.992188 188.117188 196.707031 L 188.117188 199.433594 C 188.375 199.3125 189.414063 198.898438 190.308594 198.625 C 191.265625 198.339844 192.132813 198.140625 192.699219 198.070313 C 192.132813 198 191.265625 197.800781 190.308594 197.511719 "
       id="path59" />
    <path
       style=" stroke:none;fill-rule:nonzero;fill:rgb(12.940979%,11.764526%,11.764526%);fill-opacity:1;"
       d="M 106.09375 114.40625 C 105.824219 115.300781 105.574219 115.882813 105.289063 116.597656 L 108.015625 116.597656 C 107.894531 116.34375 107.480469 115.300781 107.210938 114.40625 C 106.917969 113.449219 106.722656 112.582031 106.652344 112.019531 C 106.582031 112.582031 106.382813 113.449219 106.09375 114.40625 "
       id="path61" />
    <path
       style="fill:none;stroke-width:0.541;stroke-linecap:round;stroke-linejoin:round;stroke:rgb(12.940979%,11.764526%,11.764526%);stroke-opacity:1;stroke-miterlimit:4;"
       d="M 141.824219 129.511719 L 142.003906 116.972656 "
       id="path63" />
    <path
       style="fill:none;stroke-width:1.655;stroke-linecap:round;stroke-linejoin:round;stroke:rgb(12.940979%,11.764526%,11.764526%);stroke-opacity:1;stroke-miterlimit:4;"
       d="M 123.8125 128.726563 L 123.8125 128.726563 M 118.320313 180.902344 L 118.320313 180.902344 M 145.09375 155.160156 L 145.09375 155.160156 M 141.148438 135.507813 L 141.148438 135.507813 M 139.257813 175.324219 L 139.257813 175.324219 M 134.496094 166.765625 L 134.496094 166.765625 M 146.8125 182.621094 L 146.8125 182.621094 M 145.910156 144.066406 L 145.910156 144.066406 M 144 171.472656 L 144 171.472656 M 146.488281 154.527344 L 146.488281 154.527344 M 147.347656 168.257813 L 147.347656 168.257813 M 145.953125 168.890625 L 145.953125 168.890625 M 147.820313 158.300781 L 147.820313 158.300781 M 144.964844 163.976563 L 144.964844 163.976563 M 144.191406 164.027344 L 144.191406 164.027344 M 143.550781 152.199219 L 143.550781 152.199219 M 146.640625 162.367188 L 146.640625 162.367188 M 147.273438 165.886719 L 147.273438 165.886719 M 147.667969 150.460938 L 147.667969 150.460938 M 145.695313 140.632813 L 145.695313 140.632813 M 133.53125 174.265625 L 133.53125 174.265625 M 135.828125 128.898438 L 135.828125 128.898438 M 145.785156 153.863281 L 145.785156 153.863281 M 144.394531 166.316406 L 144.394531 166.316406 "
       id="path65" />
    <path
       style="fill:none;stroke-width:1.655;stroke-linecap:round;stroke-linejoin:round;stroke:rgb(92.155457%,9.803772%,13.725281%);stroke-opacity:1;stroke-miterlimit:4;"
       d="M 171.871094 129.414063 L 171.871094 129.414063 M 175.300781 184.335938 L 175.300781 184.335938 M 158.484375 142.285156 L 158.484375 142.285156 M 160.199219 169.746094 L 160.199219 169.746094 M 150.671875 152.625 L 150.671875 152.625 M 155.5625 152.367188 L 155.5625 152.367188 M 147.839844 129.070313 L 147.839844 129.070313 M 149.730469 172.535156 L 149.730469 172.535156 M 153.503906 176.183594 L 153.503906 176.183594 M 151.789063 148.722656 L 151.789063 148.722656 M 152.648438 162.453125 L 152.648438 162.453125 M 159.652344 177.90625 L 159.652344 177.90625 M 149.453125 176.617188 L 149.453125 176.617188 M 148.742188 167.621094 L 148.742188 167.621094 M 153.148438 150.292969 L 153.148438 150.292969 M 149.121094 152.726563 L 149.121094 152.726563 M 158.910156 149.152344 L 158.910156 149.152344 M 151.550781 156.589844 L 151.550781 156.589844 M 148.183594 167.453125 L 148.183594 167.453125 M 150.15625 156.457031 L 150.15625 156.457031 M 150.425781 172.21875 L 150.425781 172.21875 M 149.53125 157.304688 L 149.53125 157.304688 "
       id="path67" />
    <path
       style="fill:none;stroke-width:0.541;stroke-linecap:round;stroke-linejoin:round;stroke:rgb(12.940979%,11.764526%,11.764526%);stroke-opacity:1;stroke-miterlimit:4;"
       d="M 64.417969 198.140625 L 59.972656 178.9375 L 56.699219 173.171875 L 52.167969 167.125 L 39.671875 159.992188 L 39.648438 159.730469 L 40.121094 157.847656 L 48.890625 151.378906 L 50.429688 147.621094 L 50.488281 145.738281 L 50.421875 145.289063 L 35.496094 133.574219 L 30.28125 115.757813 "
       id="path69" />
    <path
       style="fill:none;stroke-width:0.27;stroke-linecap:round;stroke-linejoin:round;stroke:rgb(12.940979%,11.764526%,11.764526%);stroke-opacity:1;stroke-miterlimit:4;"
       d="M 2.261719 115.757813 L 2.261719 198.140625 L 84.644531 198.140625 "
       id="path71" />
    <path
       style=" stroke:none;fill-rule:nonzero;fill:rgb(12.940979%,11.764526%,11.764526%);fill-opacity:1;"
       d="M 85.921875 197.585938 C 85.03125 197.316406 84.449219 197.066406 83.730469 196.777344 L 83.730469 199.507813 C 83.988281 199.386719 85.03125 198.96875 85.921875 198.699219 C 86.878906 198.410156 87.75 198.214844 88.3125 198.144531 C 87.75 198.070313 86.878906 197.875 85.921875 197.585938 "
       id="path73" />
    <path
       style=" stroke:none;fill-rule:nonzero;fill:rgb(12.940979%,11.764526%,11.764526%);fill-opacity:1;"
       d="M 1.710938 114.480469 C 1.441406 115.375 1.191406 115.953125 0.902344 116.671875 L 3.628906 116.671875 C 3.507813 116.414063 3.09375 115.375 2.824219 114.480469 C 2.535156 113.523438 2.335938 112.65625 2.265625 112.09375 C 2.195313 112.65625 2 113.523438 1.710938 114.480469 "
       id="path75" />
    <path
       style="fill:none;stroke-width:1.655;stroke-linecap:round;stroke-linejoin:round;stroke:rgb(12.940979%,11.764526%,11.764526%);stroke-opacity:1;stroke-miterlimit:4;"
       d="M 23.753906 166.753906 L 23.753906 166.753906 M 26.769531 172.96875 L 26.769531 172.96875 M 28.066406 166.972656 L 28.066406 166.972656 M 40.996094 167.59375 L 40.996094 167.59375 M 16.636719 160.234375 L 16.636719 160.234375 M 35.070313 167.359375 L 35.070313 167.359375 M 18.324219 146.644531 L 18.324219 146.644531 M 26.332031 166.6875 L 26.332031 166.6875 M 17.894531 155.703125 L 17.894531 155.703125 M 26.488281 157.609375 L 26.488281 157.609375 M 32.070313 158.691406 L 32.070313 158.691406 M 42.671875 151.550781 L 42.671875 151.550781 M 9.375 152.898438 L 9.375 152.898438 M 34.4375 154.128906 L 34.4375 154.128906 M 20.816406 146.1875 L 20.816406 146.1875 "
       id="path77" />
    <path
       style="fill:none;stroke-width:1.655;stroke-linecap:round;stroke-linejoin:round;stroke:rgb(92.155457%,9.803772%,13.725281%);stroke-opacity:1;stroke-miterlimit:4;"
       d="M 64.40625 156.328125 L 64.40625 156.328125 M 57.941406 152.003906 L 57.941406 152.003906 M 54.664063 136.277344 L 54.664063 136.277344 M 58.902344 152.855469 L 58.902344 152.855469 M 68.335938 146.339844 L 68.335938 146.339844 M 53.207031 155.863281 L 53.207031 155.863281 M 46.890625 157.273438 L 46.890625 157.273438 M 57.984375 154.066406 L 57.984375 154.066406 M 61.429688 153.566406 L 61.429688 153.566406 M 72.039063 160.410156 L 72.039063 160.410156 M 59.945313 156.828125 L 59.945313 156.828125 M 55.746094 156.535156 L 55.746094 156.535156 M 59.632813 149.089844 L 59.632813 149.089844 M 70.128906 154.898438 L 70.128906 154.898438 M 66.195313 157.117188 L 66.195313 157.117188 "
       id="path79" />
    <path
       style=" stroke:none;fill-rule:nonzero;fill:rgb(12.940979%,11.764526%,11.764526%);fill-opacity:1;"
       d="M 51.46875 7.867188 C 51.199219 8.761719 50.949219 9.34375 50.660156 10.058594 L 53.386719 10.058594 C 53.265625 9.804688 52.851563 8.761719 52.582031 7.867188 C 52.292969 6.910156 52.09375 6.042969 52.023438 5.480469 C 51.953125 6.042969 51.757813 6.910156 51.46875 7.867188 "
       id="path81" />
    <path
       style="fill:none;stroke-width:0.27;stroke-linecap:round;stroke-linejoin:round;stroke:rgb(12.940979%,11.764526%,11.764526%);stroke-opacity:1;stroke-miterlimit:4;"
       d="M 52.023438 9.144531 L 52.023438 91.527344 L 134.40625 91.527344 "
       id="path83" />
    <path
       style=" stroke:none;fill-rule:nonzero;fill:rgb(12.940979%,11.764526%,11.764526%);fill-opacity:1;"
       d="M 135.683594 90.972656 C 134.789063 90.703125 134.207031 90.453125 133.488281 90.167969 L 133.488281 92.894531 C 133.746094 92.773438 134.789063 92.359375 135.683594 92.089844 C 136.640625 91.800781 137.507813 91.601563 138.070313 91.53125 C 137.507813 91.460938 136.640625 91.261719 135.683594 90.972656 "
       id="path85" />
    <path
       style="fill:none;stroke-width:0.541;stroke-linecap:round;stroke-linejoin:round;stroke:rgb(12.940979%,11.764526%,11.764526%);stroke-opacity:1;stroke-miterlimit:4;"
       d="M 77.371094 54.835938 L 79.484375 55.277344 L 81.59375 54.835938 L 83.160156 53.503906 L 83.707031 52.726563 L 84.261719 51.394531 L 84.261719 49.28125 L 83.707031 47.945313 L 83.160156 47.167969 L 81.59375 45.839844 L 79.484375 45.394531 L 77.371094 45.839844 L 75.804688 47.167969 L 75.257813 47.945313 L 74.707031 49.28125 L 74.707031 51.394531 L 75.257813 52.726563 L 75.804688 53.503906 L 77.371094 54.835938 "
       id="path87" />
    <path
       style="fill:none;stroke-width:0.541;stroke-linecap:round;stroke-linejoin:round;stroke:rgb(92.155457%,12.940979%,16.862488%);stroke-opacity:1;stroke-miterlimit:4;"
       d="M 104.832031 54.835938 L 106.945313 55.277344 L 109.054688 54.835938 L 110.621094 53.503906 L 111.167969 52.726563 L 111.722656 51.394531 L 111.722656 49.28125 L 111.167969 47.945313 L 110.621094 47.167969 L 109.054688 45.839844 L 106.945313 45.394531 L 104.832031 45.839844 L 103.265625 47.167969 L 102.71875 47.945313 L 102.167969 49.28125 L 102.167969 51.394531 L 102.71875 52.726563 L 103.265625 53.503906 L 104.832031 54.835938 "
       id="path89" />
    <path
       style="fill:none;stroke-width:0.541;stroke-linecap:round;stroke-linejoin:round;stroke:rgb(12.940979%,11.764526%,11.764526%);stroke-opacity:1;stroke-miterlimit:4;"
       d="M 93.214844 9.144531 L 93.214844 91.527344 "
       id="path91" />
    <path
       style=" stroke:none;fill-rule:nonzero;fill:rgb(12.940979%,11.764526%,11.764526%);fill-opacity:1;"
       d="M 143.601563 92.011719 C 143.398438 92.246094 143.242188 92.527344 143.085938 92.527344 C 142.929688 92.527344 142.882813 92.339844 142.851563 92.214844 C 142.804688 92.027344 142.554688 90.996094 142.554688 90.855469 C 142.554688 90.855469 143.070313 89.933594 143.289063 89.933594 C 143.445313 89.933594 143.507813 90.074219 143.679688 90.074219 C 143.867188 90.074219 143.945313 89.917969 143.945313 89.792969 C 143.945313 89.605469 143.773438 89.511719 143.632813 89.511719 C 143.242188 89.511719 142.882813 89.980469 142.492188 90.589844 L 142.398438 90.183594 C 142.273438 89.511719 142.148438 89.511719 141.992188 89.511719 C 141.742188 89.511719 141.242188 89.699219 141.039063 89.761719 L 141.070313 89.871094 C 141.320313 89.824219 141.414063 89.792969 141.492188 89.792969 C 141.695313 89.792969 141.726563 89.902344 141.789063 90.136719 C 141.804688 90.167969 142.054688 91.183594 142.054688 91.246094 C 141.367188 92.246094 141.179688 92.496094 141.054688 92.496094 C 140.914063 92.496094 140.773438 92.355469 140.601563 92.355469 C 140.445313 92.355469 140.351563 92.496094 140.351563 92.605469 C 140.351563 92.792969 140.476563 92.933594 140.726563 92.933594 C 140.960938 92.933594 141.054688 92.855469 141.179688 92.714844 C 141.429688 92.433594 141.757813 92.027344 142.117188 91.527344 L 142.335938 92.433594 C 142.445313 92.839844 142.554688 92.933594 142.773438 92.933594 C 142.945313 92.933594 143.164063 92.933594 143.710938 92.074219 Z M 143.601563 92.011719 "
       id="path93" />
    <path
       style=" stroke:none;fill-rule:nonzero;fill:rgb(12.940979%,11.764526%,11.764526%);fill-opacity:1;"
       d="M 144.152344 94.480469 L 145.511719 94.480469 L 145.511719 94.402344 C 145.277344 94.417969 145.105469 94.402344 145.105469 94.246094 C 145.105469 94.167969 145.167969 93.980469 145.183594 93.886719 L 145.886719 91.355469 C 145.902344 91.277344 145.933594 91.183594 145.886719 91.183594 C 145.855469 91.183594 145.167969 91.324219 144.949219 91.371094 L 144.949219 91.449219 L 145.230469 91.433594 C 145.261719 91.433594 145.402344 91.433594 145.402344 91.589844 C 145.402344 91.621094 145.386719 91.699219 145.371094 91.746094 L 144.699219 94.152344 C 144.636719 94.371094 144.449219 94.386719 144.152344 94.417969 Z M 144.152344 94.480469 "
       id="path95" />
    <path
       style=" stroke:none;fill-rule:nonzero;fill:rgb(12.940979%,11.764526%,11.764526%);fill-opacity:1;"
       d="M 53.550781 2.5 C 53.347656 2.734375 53.191406 3.015625 53.035156 3.015625 C 52.878906 3.015625 52.832031 2.828125 52.800781 2.703125 C 52.753906 2.515625 52.503906 1.484375 52.503906 1.34375 C 52.503906 1.34375 53.019531 0.421875 53.238281 0.421875 C 53.394531 0.421875 53.457031 0.5625 53.628906 0.5625 C 53.816406 0.5625 53.894531 0.40625 53.894531 0.28125 C 53.894531 0.09375 53.722656 0 53.582031 0 C 53.191406 0 52.832031 0.46875 52.441406 1.078125 L 52.347656 0.671875 C 52.222656 0 52.097656 0 51.941406 0 C 51.691406 0 51.191406 0.1875 50.988281 0.25 L 51.019531 0.359375 C 51.269531 0.3125 51.363281 0.28125 51.441406 0.28125 C 51.644531 0.28125 51.675781 0.390625 51.738281 0.625 C 51.753906 0.65625 52.003906 1.671875 52.003906 1.734375 C 51.316406 2.734375 51.128906 2.984375 51.003906 2.984375 C 50.863281 2.984375 50.722656 2.84375 50.550781 2.84375 C 50.394531 2.84375 50.300781 2.984375 50.300781 3.09375 C 50.300781 3.28125 50.425781 3.421875 50.675781 3.421875 C 50.910156 3.421875 51.003906 3.34375 51.128906 3.203125 C 51.378906 2.921875 51.707031 2.515625 52.066406 2.015625 L 52.285156 2.921875 C 52.394531 3.328125 52.503906 3.421875 52.722656 3.421875 C 52.894531 3.421875 53.113281 3.421875 53.660156 2.5625 Z M 53.550781 2.5 "
       id="path97" />
    <path
       style=" stroke:none;fill-rule:nonzero;fill:rgb(12.940979%,11.764526%,11.764526%);fill-opacity:1;"
       d="M 55.816406 4.292969 C 55.722656 4.464844 55.660156 4.589844 55.332031 4.589844 L 54.410156 4.589844 L 54.410156 4.574219 L 55.347656 3.636719 C 55.941406 3.027344 56.066406 2.808594 56.066406 2.480469 C 56.066406 2.121094 55.800781 1.667969 55.269531 1.667969 C 55.160156 1.667969 54.519531 1.683594 54.253906 2.449219 L 54.363281 2.480469 C 54.425781 2.355469 54.613281 2.027344 55.050781 2.027344 C 55.425781 2.027344 55.644531 2.324219 55.644531 2.621094 C 55.644531 2.777344 55.628906 3.058594 54.941406 3.792969 L 53.925781 4.886719 L 53.925781 4.964844 L 55.660156 4.964844 L 55.894531 4.324219 Z M 55.816406 4.292969 "
       id="path99" />
    <path
       style=" stroke:none;fill-rule:nonzero;fill:rgb(12.940979%,11.764526%,11.764526%);fill-opacity:1;"
       d="M 93.304688 198.5625 C 93.101563 198.796875 92.945313 199.078125 92.789063 199.078125 C 92.632813 199.078125 92.585938 198.890625 92.554688 198.765625 C 92.507813 198.578125 92.257813 197.546875 92.257813 197.40625 C 92.257813 197.40625 92.773438 196.484375 92.992188 196.484375 C 93.148438 196.484375 93.210938 196.625 93.382813 196.625 C 93.570313 196.625 93.648438 196.46875 93.648438 196.34375 C 93.648438 196.15625 93.476563 196.0625 93.335938 196.0625 C 92.945313 196.0625 92.585938 196.53125 92.195313 197.140625 L 92.101563 196.734375 C 91.976563 196.0625 91.851563 196.0625 91.695313 196.0625 C 91.445313 196.0625 90.945313 196.25 90.742188 196.3125 L 90.773438 196.421875 C 91.023438 196.375 91.117188 196.34375 91.195313 196.34375 C 91.398438 196.34375 91.429688 196.453125 91.492188 196.6875 C 91.507813 196.71875 91.757813 197.734375 91.757813 197.796875 C 91.070313 198.796875 90.882813 199.046875 90.757813 199.046875 C 90.617188 199.046875 90.476563 198.90625 90.304688 198.90625 C 90.148438 198.90625 90.054688 199.046875 90.054688 199.15625 C 90.054688 199.34375 90.179688 199.484375 90.429688 199.484375 C 90.664063 199.484375 90.757813 199.40625 90.882813 199.265625 C 91.132813 198.984375 91.460938 198.578125 91.820313 198.078125 L 92.039063 198.984375 C 92.148438 199.390625 92.257813 199.484375 92.476563 199.484375 C 92.648438 199.484375 92.867188 199.484375 93.414063 198.625 Z M 93.304688 198.5625 "
       id="path101" />
    <path
       style=" stroke:none;fill-rule:nonzero;fill:rgb(12.940979%,11.764526%,11.764526%);fill-opacity:1;"
       d="M 93.851563 201.027344 L 95.210938 201.027344 L 95.210938 200.949219 C 94.976563 200.964844 94.804688 200.949219 94.804688 200.792969 C 94.804688 200.714844 94.867188 200.527344 94.882813 200.433594 L 95.585938 197.902344 C 95.601563 197.824219 95.632813 197.730469 95.585938 197.730469 C 95.554688 197.730469 94.867188 197.871094 94.648438 197.917969 L 94.648438 197.996094 L 94.929688 197.980469 C 94.960938 197.980469 95.101563 197.980469 95.101563 198.136719 C 95.101563 198.167969 95.085938 198.246094 95.070313 198.292969 L 94.398438 200.699219 C 94.335938 200.917969 94.148438 200.933594 93.851563 200.964844 Z M 93.851563 201.027344 "
       id="path103" />
    <path
       style=" stroke:none;fill-rule:nonzero;fill:rgb(12.940979%,11.764526%,11.764526%);fill-opacity:1;"
       d="M 3.25 109.050781 C 3.046875 109.285156 2.890625 109.566406 2.734375 109.566406 C 2.578125 109.566406 2.53125 109.378906 2.5 109.253906 C 2.453125 109.066406 2.203125 108.035156 2.203125 107.894531 C 2.203125 107.894531 2.71875 106.972656 2.9375 106.972656 C 3.09375 106.972656 3.15625 107.113281 3.328125 107.113281 C 3.515625 107.113281 3.59375 106.957031 3.59375 106.832031 C 3.59375 106.644531 3.421875 106.550781 3.28125 106.550781 C 2.890625 106.550781 2.53125 107.019531 2.140625 107.628906 L 2.046875 107.222656 C 1.921875 106.550781 1.796875 106.550781 1.640625 106.550781 C 1.390625 106.550781 0.890625 106.738281 0.6875 106.800781 L 0.71875 106.910156 C 0.96875 106.863281 1.0625 106.832031 1.140625 106.832031 C 1.34375 106.832031 1.375 106.941406 1.4375 107.175781 C 1.453125 107.207031 1.703125 108.222656 1.703125 108.285156 C 1.015625 109.285156 0.828125 109.535156 0.703125 109.535156 C 0.5625 109.535156 0.421875 109.394531 0.25 109.394531 C 0.09375 109.394531 0 109.535156 0 109.644531 C 0 109.832031 0.125 109.972656 0.375 109.972656 C 0.609375 109.972656 0.703125 109.894531 0.828125 109.753906 C 1.078125 109.472656 1.40625 109.066406 1.765625 108.566406 L 1.984375 109.472656 C 2.09375 109.878906 2.203125 109.972656 2.421875 109.972656 C 2.59375 109.972656 2.8125 109.972656 3.359375 109.113281 Z M 3.25 109.050781 "
       id="path105" />
    <path
       style=" stroke:none;fill-rule:nonzero;fill:rgb(12.940979%,11.764526%,11.764526%);fill-opacity:1;"
       d="M 5.519531 110.84375 C 5.425781 111.015625 5.363281 111.140625 5.035156 111.140625 L 4.113281 111.140625 L 4.113281 111.125 L 5.050781 110.1875 C 5.644531 109.578125 5.769531 109.359375 5.769531 109.03125 C 5.769531 108.671875 5.503906 108.21875 4.972656 108.21875 C 4.863281 108.21875 4.222656 108.234375 3.957031 109 L 4.066406 109.03125 C 4.128906 108.90625 4.316406 108.578125 4.753906 108.578125 C 5.128906 108.578125 5.347656 108.875 5.347656 109.171875 C 5.347656 109.328125 5.332031 109.609375 4.644531 110.34375 L 3.628906 111.4375 L 3.628906 111.515625 L 5.363281 111.515625 L 5.597656 110.875 Z M 5.519531 110.84375 "
       id="path107" />
    <path
       style=" stroke:none;fill-rule:nonzero;fill:rgb(12.940979%,11.764526%,11.764526%);fill-opacity:1;"
       d="M 198.230469 198.5625 C 198.027344 198.796875 197.871094 199.078125 197.714844 199.078125 C 197.558594 199.078125 197.511719 198.890625 197.480469 198.765625 C 197.433594 198.578125 197.183594 197.546875 197.183594 197.40625 C 197.183594 197.40625 197.699219 196.484375 197.917969 196.484375 C 198.074219 196.484375 198.136719 196.625 198.308594 196.625 C 198.496094 196.625 198.574219 196.46875 198.574219 196.34375 C 198.574219 196.15625 198.402344 196.0625 198.261719 196.0625 C 197.871094 196.0625 197.511719 196.53125 197.121094 197.140625 L 197.027344 196.734375 C 196.902344 196.0625 196.777344 196.0625 196.621094 196.0625 C 196.371094 196.0625 195.871094 196.25 195.667969 196.3125 L 195.699219 196.421875 C 195.949219 196.375 196.042969 196.34375 196.121094 196.34375 C 196.324219 196.34375 196.355469 196.453125 196.417969 196.6875 C 196.433594 196.71875 196.683594 197.734375 196.683594 197.796875 C 195.996094 198.796875 195.808594 199.046875 195.683594 199.046875 C 195.542969 199.046875 195.402344 198.90625 195.230469 198.90625 C 195.074219 198.90625 194.980469 199.046875 194.980469 199.15625 C 194.980469 199.34375 195.105469 199.484375 195.355469 199.484375 C 195.589844 199.484375 195.683594 199.40625 195.808594 199.265625 C 196.058594 198.984375 196.386719 198.578125 196.746094 198.078125 L 196.964844 198.984375 C 197.074219 199.390625 197.183594 199.484375 197.402344 199.484375 C 197.574219 199.484375 197.792969 199.484375 198.339844 198.625 Z M 198.230469 198.5625 "
       id="path109" />
    <g
       clip-path="url(#clip1)"
       clip-rule="nonzero"
       id="g113">
      <path
         style=" stroke:none;fill-rule:nonzero;fill:rgb(12.940979%,11.764526%,11.764526%);fill-opacity:1;"
         d="M 198.78125 201.027344 L 200.140625 201.027344 L 200.140625 200.949219 C 199.90625 200.964844 199.734375 200.949219 199.734375 200.792969 C 199.734375 200.714844 199.796875 200.527344 199.8125 200.433594 L 200.515625 197.902344 C 200.53125 197.824219 200.5625 197.730469 200.515625 197.730469 C 200.484375 197.730469 199.796875 197.871094 199.578125 197.917969 L 199.578125 197.996094 L 199.859375 197.980469 C 199.890625 197.980469 200.03125 197.980469 200.03125 198.136719 C 200.03125 198.167969 200.015625 198.246094 200 198.292969 L 199.328125 200.699219 C 199.265625 200.917969 199.078125 200.933594 198.78125 200.964844 Z M 198.78125 201.027344 "
         id="path111" />
    </g>
    <path
       style=" stroke:none;fill-rule:nonzero;fill:rgb(12.940979%,11.764526%,11.764526%);fill-opacity:1;"
       d="M 108.175781 109.050781 C 107.972656 109.285156 107.816406 109.566406 107.660156 109.566406 C 107.503906 109.566406 107.457031 109.378906 107.425781 109.253906 C 107.378906 109.066406 107.128906 108.035156 107.128906 107.894531 C 107.128906 107.894531 107.644531 106.972656 107.863281 106.972656 C 108.019531 106.972656 108.082031 107.113281 108.253906 107.113281 C 108.441406 107.113281 108.519531 106.957031 108.519531 106.832031 C 108.519531 106.644531 108.347656 106.550781 108.207031 106.550781 C 107.816406 106.550781 107.457031 107.019531 107.066406 107.628906 L 106.972656 107.222656 C 106.847656 106.550781 106.722656 106.550781 106.566406 106.550781 C 106.316406 106.550781 105.816406 106.738281 105.613281 106.800781 L 105.644531 106.910156 C 105.894531 106.863281 105.988281 106.832031 106.066406 106.832031 C 106.269531 106.832031 106.300781 106.941406 106.363281 107.175781 C 106.378906 107.207031 106.628906 108.222656 106.628906 108.285156 C 105.941406 109.285156 105.753906 109.535156 105.628906 109.535156 C 105.488281 109.535156 105.347656 109.394531 105.175781 109.394531 C 105.019531 109.394531 104.925781 109.535156 104.925781 109.644531 C 104.925781 109.832031 105.050781 109.972656 105.300781 109.972656 C 105.535156 109.972656 105.628906 109.894531 105.753906 109.753906 C 106.003906 109.472656 106.332031 109.066406 106.691406 108.566406 L 106.910156 109.472656 C 107.019531 109.878906 107.128906 109.972656 107.347656 109.972656 C 107.519531 109.972656 107.738281 109.972656 108.285156 109.113281 Z M 108.175781 109.050781 "
       id="path115" />
    <path
       style=" stroke:none;fill-rule:nonzero;fill:rgb(12.940979%,11.764526%,11.764526%);fill-opacity:1;"
       d="M 110.445313 110.84375 C 110.351563 111.015625 110.289063 111.140625 109.960938 111.140625 L 109.039063 111.140625 L 109.039063 111.125 L 109.976563 110.1875 C 110.570313 109.578125 110.695313 109.359375 110.695313 109.03125 C 110.695313 108.671875 110.429688 108.21875 109.898438 108.21875 C 109.789063 108.21875 109.148438 108.234375 108.882813 109 L 108.992188 109.03125 C 109.054688 108.90625 109.242188 108.578125 109.679688 108.578125 C 110.054688 108.578125 110.273438 108.875 110.273438 109.171875 C 110.273438 109.328125 110.257813 109.609375 109.570313 110.34375 L 108.554688 111.4375 L 108.554688 111.515625 L 110.289063 111.515625 L 110.523438 110.875 Z M 110.445313 110.84375 "
       id="path117" />
    <path
       style=" stroke:none;fill-rule:nonzero;fill:rgb(12.940979%,11.764526%,11.764526%);fill-opacity:1;"
       d="M 86.128906 93.582031 L 82.363281 93.582031 L 82.363281 93.707031 C 82.753906 93.738281 82.957031 93.769531 82.957031 94.035156 C 82.957031 94.128906 82.894531 94.425781 82.863281 94.503906 L 81.941406 97.847656 C 81.816406 98.316406 81.691406 98.347656 81.332031 98.410156 L 81.332031 98.535156 L 85.160156 98.535156 L 85.628906 97.300781 L 85.519531 97.253906 C 84.972656 98.003906 84.644531 98.285156 83.191406 98.285156 C 82.988281 98.285156 82.660156 98.269531 82.660156 98.035156 C 82.660156 97.941406 82.691406 97.800781 83.175781 96.050781 C 84.410156 96.082031 84.410156 96.082031 84.410156 96.457031 C 84.410156 96.582031 84.394531 96.707031 84.363281 96.816406 L 84.519531 96.847656 L 85.035156 95.097656 L 84.894531 95.066406 C 84.816406 95.238281 84.753906 95.378906 84.675781 95.488281 C 84.519531 95.722656 84.472656 95.785156 83.253906 95.800781 L 83.753906 94.035156 C 83.800781 93.878906 83.816406 93.832031 84.363281 93.832031 C 85.785156 93.832031 85.800781 93.988281 85.738281 94.738281 L 85.894531 94.738281 Z M 86.128906 93.582031 "
       id="path119" />
    <path
       style=" stroke:none;fill-rule:nonzero;fill:rgb(12.940979%,11.764526%,11.764526%);fill-opacity:1;"
       d="M 85.925781 100.15625 L 87.285156 100.15625 C 87.910156 100.15625 88.582031 99.859375 88.582031 99.1875 C 88.582031 98.703125 88.238281 98.5625 87.988281 98.453125 L 87.988281 98.4375 C 88.441406 98.34375 88.816406 98.140625 88.816406 97.703125 C 88.816406 97.140625 88.363281 96.96875 87.847656 96.96875 L 86.597656 96.96875 L 86.597656 97.046875 C 86.816406 97.0625 86.972656 97.078125 86.972656 97.265625 C 86.972656 97.34375 86.941406 97.453125 86.910156 97.5625 L 86.316406 99.71875 C 86.222656 100.015625 86.160156 100.03125 85.925781 100.078125 Z M 86.785156 99.796875 C 86.785156 99.703125 87.050781 98.859375 87.113281 98.546875 C 87.441406 98.546875 87.675781 98.546875 87.800781 98.625 C 87.941406 98.71875 88.050781 98.890625 88.050781 99.140625 C 88.050781 99.625 87.785156 100.015625 87.097656 100.015625 C 86.957031 100.015625 86.785156 99.96875 86.785156 99.796875 Z M 87.488281 97.25 C 87.503906 97.1875 87.519531 97.125 87.785156 97.125 C 88.144531 97.125 88.332031 97.296875 88.332031 97.625 C 88.332031 98.390625 87.628906 98.40625 87.160156 98.390625 Z M 87.488281 97.25 "
       id="path121" />
    <path
       style=" stroke:none;fill-rule:nonzero;fill:rgb(12.940979%,11.764526%,11.764526%);fill-opacity:1;"
       d="M 95.292969 95.613281 L 91.480469 95.613281 L 91.480469 96.113281 L 95.292969 96.113281 Z M 95.292969 97.128906 L 91.480469 97.128906 L 91.480469 97.628906 L 95.292969 97.628906 Z M 95.292969 97.128906 "
       id="path123" />
    <path
       style=" stroke:none;fill-rule:nonzero;fill:rgb(12.940979%,11.764526%,11.764526%);fill-opacity:1;"
       d="M 98.671875 97.347656 C 98.671875 96.613281 99.21875 93.628906 100.34375 93.628906 C 101 93.628906 101 94.394531 101 94.628906 C 101 95.957031 100.34375 98.378906 99.328125 98.378906 C 99.09375 98.378906 98.671875 98.238281 98.671875 97.347656 Z M 101.59375 95.300781 C 101.59375 94.566406 101.390625 93.410156 100.375 93.410156 C 99.328125 93.410156 98.078125 94.972656 98.078125 97.019531 C 98.078125 97.800781 98.5 98.582031 99.296875 98.582031 C 100.5625 98.582031 101.59375 96.800781 101.59375 95.300781 Z M 101.59375 95.300781 "
       id="path125" />
    <path
       style=" stroke:none;fill-rule:nonzero;fill:rgb(12.940979%,11.764526%,11.764526%);fill-opacity:1;"
       d="M 102.242188 98.613281 C 102.398438 98.613281 102.664063 98.488281 102.664063 98.207031 C 102.664063 97.972656 102.460938 97.769531 102.242188 97.769531 C 102.007813 97.769531 101.820313 97.972656 101.820313 98.207031 C 101.820313 98.503906 102.085938 98.613281 102.242188 98.613281 Z M 102.242188 98.613281 "
       id="path127" />
    <path
       style=" stroke:none;fill-rule:nonzero;fill:rgb(12.940979%,11.764526%,11.764526%);fill-opacity:1;"
       d="M 104.351563 97.347656 C 104.351563 96.613281 104.898438 93.628906 106.023438 93.628906 C 106.679688 93.628906 106.679688 94.394531 106.679688 94.628906 C 106.679688 95.957031 106.023438 98.378906 105.007813 98.378906 C 104.773438 98.378906 104.351563 98.238281 104.351563 97.347656 Z M 107.273438 95.300781 C 107.273438 94.566406 107.070313 93.410156 106.054688 93.410156 C 105.007813 93.410156 103.757813 94.972656 103.757813 97.019531 C 103.757813 97.800781 104.179688 98.582031 104.976563 98.582031 C 106.242188 98.582031 107.273438 96.800781 107.273438 95.300781 Z M 107.273438 95.300781 "
       id="path129" />
    <path
       style=" stroke:none;fill-rule:nonzero;fill:rgb(12.940979%,11.764526%,11.764526%);fill-opacity:1;"
       d="M 110.328125 97.488281 C 110.203125 97.753906 110.078125 97.957031 109.578125 97.957031 L 108.140625 97.957031 L 108.140625 97.925781 L 109.59375 96.472656 C 110.53125 95.519531 110.71875 95.191406 110.71875 94.675781 C 110.71875 94.113281 110.296875 93.410156 109.5 93.410156 C 109.3125 93.410156 108.3125 93.441406 107.90625 94.628906 L 108.0625 94.675781 C 108.171875 94.488281 108.453125 93.972656 109.140625 93.972656 C 109.71875 93.972656 110.078125 94.425781 110.078125 94.894531 C 110.078125 95.144531 110.046875 95.582031 108.984375 96.707031 L 107.390625 98.410156 L 107.390625 98.535156 L 110.078125 98.535156 L 110.453125 97.535156 Z M 110.328125 97.488281 "
       id="path131" />
    <path
       style=" stroke:none;fill-rule:nonzero;fill:rgb(12.940979%,11.764526%,11.764526%);fill-opacity:1;"
       d="M 114.113281 97.488281 C 113.988281 97.753906 113.863281 97.957031 113.363281 97.957031 L 111.925781 97.957031 L 111.925781 97.925781 L 113.378906 96.472656 C 114.316406 95.519531 114.503906 95.191406 114.503906 94.675781 C 114.503906 94.113281 114.082031 93.410156 113.285156 93.410156 C 113.097656 93.410156 112.097656 93.441406 111.691406 94.628906 L 111.847656 94.675781 C 111.957031 94.488281 112.238281 93.972656 112.925781 93.972656 C 113.503906 93.972656 113.863281 94.425781 113.863281 94.894531 C 113.863281 95.144531 113.832031 95.582031 112.769531 96.707031 L 111.175781 98.410156 L 111.175781 98.535156 L 113.863281 98.535156 L 114.238281 97.535156 Z M 114.113281 97.488281 "
       id="path133" />
    <path
       style=" stroke:none;fill-rule:nonzero;fill:rgb(12.940979%,11.764526%,11.764526%);fill-opacity:1;"
       d="M 118.929688 93.566406 L 118.898438 93.488281 L 116.054688 93.488281 L 115.429688 94.519531 L 115.539063 94.582031 C 115.804688 94.285156 116.007813 94.035156 116.554688 94.035156 L 118.226563 94.035156 L 118.242188 94.066406 L 115.460938 98.597656 L 115.992188 98.597656 Z M 118.929688 93.566406 "
       id="path135" />
    <path
       style=" stroke:none;fill-rule:nonzero;fill:rgb(12.940979%,11.764526%,11.764526%);fill-opacity:1;"
       d="M 120.449219 94.019531 L 122.199219 94.019531 L 122.371094 93.488281 L 120.433594 93.488281 L 119.652344 95.144531 L 119.652344 95.253906 C 120.527344 95.441406 121.308594 95.613281 121.308594 96.769531 C 121.308594 97.425781 120.746094 98.269531 120.011719 98.269531 C 119.605469 98.269531 119.417969 97.847656 119.074219 97.847656 C 118.917969 97.847656 118.761719 97.941406 118.761719 98.160156 C 118.761719 98.378906 118.996094 98.582031 119.542969 98.582031 C 121.011719 98.582031 121.824219 97.425781 121.824219 96.457031 C 121.824219 95.441406 121.152344 94.894531 120.167969 94.691406 Z M 120.449219 94.019531 "
       id="path137" />
    <g
       clip-path="url(#clip2)"
       clip-rule="nonzero"
       id="g141">
      <path
         style=" stroke:none;fill-rule:nonzero;fill:rgb(12.940979%,11.764526%,11.764526%);fill-opacity:1;"
         d="M 38.261719 200.671875 L 34.496094 200.671875 L 34.496094 200.796875 C 34.886719 200.828125 35.089844 200.859375 35.089844 201.125 C 35.089844 201.21875 35.027344 201.515625 34.996094 201.59375 L 34.074219 204.9375 C 33.949219 205.40625 33.824219 205.4375 33.464844 205.5 L 33.464844 205.625 L 37.292969 205.625 L 37.761719 204.390625 L 37.652344 204.34375 C 37.105469 205.09375 36.777344 205.375 35.324219 205.375 C 35.121094 205.375 34.792969 205.359375 34.792969 205.125 C 34.792969 205.03125 34.824219 204.890625 35.308594 203.140625 C 36.542969 203.171875 36.542969 203.171875 36.542969 203.546875 C 36.542969 203.671875 36.527344 203.796875 36.496094 203.90625 L 36.652344 203.9375 L 37.167969 202.1875 L 37.027344 202.15625 C 36.949219 202.328125 36.886719 202.46875 36.808594 202.578125 C 36.652344 202.8125 36.605469 202.875 35.386719 202.890625 L 35.886719 201.125 C 35.933594 200.96875 35.949219 200.921875 36.496094 200.921875 C 37.917969 200.921875 37.933594 201.078125 37.871094 201.828125 L 38.027344 201.828125 Z M 38.261719 200.671875 "
         id="path139" />
    </g>
    <path
       style=" stroke:none;fill-rule:nonzero;fill:rgb(12.940979%,11.764526%,11.764526%);fill-opacity:1;"
       d="M 44.453125 202.703125 L 40.640625 202.703125 L 40.640625 203.203125 L 44.453125 203.203125 Z M 44.453125 204.21875 L 40.640625 204.21875 L 40.640625 204.71875 L 44.453125 204.71875 Z M 44.453125 204.21875 "
       id="path143" />
    <g
       clip-path="url(#clip3)"
       clip-rule="nonzero"
       id="g147">
      <path
         style=" stroke:none;fill-rule:nonzero;fill:rgb(12.940979%,11.764526%,11.764526%);fill-opacity:1;"
         d="M 47.832031 204.4375 C 47.832031 203.703125 48.378906 200.71875 49.503906 200.71875 C 50.160156 200.71875 50.160156 201.484375 50.160156 201.71875 C 50.160156 203.046875 49.503906 205.46875 48.488281 205.46875 C 48.253906 205.46875 47.832031 205.328125 47.832031 204.4375 Z M 50.753906 202.390625 C 50.753906 201.65625 50.550781 200.5 49.535156 200.5 C 48.488281 200.5 47.238281 202.0625 47.238281 204.109375 C 47.238281 204.890625 47.660156 205.671875 48.457031 205.671875 C 49.722656 205.671875 50.753906 203.890625 50.753906 202.390625 Z M 50.753906 202.390625 "
         id="path145" />
    </g>
    <g
       clip-path="url(#clip4)"
       clip-rule="nonzero"
       id="g151">
      <path
         style=" stroke:none;fill-rule:nonzero;fill:rgb(12.940979%,11.764526%,11.764526%);fill-opacity:1;"
         d="M 51.402344 205.703125 C 51.558594 205.703125 51.824219 205.578125 51.824219 205.296875 C 51.824219 205.0625 51.621094 204.859375 51.402344 204.859375 C 51.167969 204.859375 50.980469 205.0625 50.980469 205.296875 C 50.980469 205.59375 51.246094 205.703125 51.402344 205.703125 Z M 51.402344 205.703125 "
         id="path149" />
    </g>
    <g
       clip-path="url(#clip5)"
       clip-rule="nonzero"
       id="g155">
      <path
         style=" stroke:none;fill-rule:nonzero;fill:rgb(12.940979%,11.764526%,11.764526%);fill-opacity:1;"
         d="M 53.511719 204.4375 C 53.511719 203.703125 54.058594 200.71875 55.183594 200.71875 C 55.839844 200.71875 55.839844 201.484375 55.839844 201.71875 C 55.839844 203.046875 55.183594 205.46875 54.167969 205.46875 C 53.933594 205.46875 53.511719 205.328125 53.511719 204.4375 Z M 56.433594 202.390625 C 56.433594 201.65625 56.230469 200.5 55.214844 200.5 C 54.167969 200.5 52.917969 202.0625 52.917969 204.109375 C 52.917969 204.890625 53.339844 205.671875 54.136719 205.671875 C 55.402344 205.671875 56.433594 203.890625 56.433594 202.390625 Z M 56.433594 202.390625 "
         id="path153" />
    </g>
    <g
       clip-path="url(#clip6)"
       clip-rule="nonzero"
       id="g159">
      <path
         style=" stroke:none;fill-rule:nonzero;fill:rgb(12.940979%,11.764526%,11.764526%);fill-opacity:1;"
         d="M 58.25 201.109375 L 60 201.109375 L 60.171875 200.578125 L 58.234375 200.578125 L 57.453125 202.234375 L 57.453125 202.34375 C 58.328125 202.53125 59.109375 202.703125 59.109375 203.859375 C 59.109375 204.515625 58.546875 205.359375 57.8125 205.359375 C 57.40625 205.359375 57.21875 204.9375 56.875 204.9375 C 56.71875 204.9375 56.5625 205.03125 56.5625 205.25 C 56.5625 205.46875 56.796875 205.671875 57.34375 205.671875 C 58.8125 205.671875 59.625 204.515625 59.625 203.546875 C 59.625 202.53125 58.953125 201.984375 57.96875 201.78125 Z M 58.25 201.109375 "
         id="path157" />
    </g>
    <g
       clip-path="url(#clip7)"
       clip-rule="nonzero"
       id="g163">
      <path
         style=" stroke:none;fill-rule:nonzero;fill:rgb(12.940979%,11.764526%,11.764526%);fill-opacity:1;"
         d="M 61.085938 204.4375 C 61.085938 203.703125 61.632813 200.71875 62.757813 200.71875 C 63.414063 200.71875 63.414063 201.484375 63.414063 201.71875 C 63.414063 203.046875 62.757813 205.46875 61.742188 205.46875 C 61.507813 205.46875 61.085938 205.328125 61.085938 204.4375 Z M 64.007813 202.390625 C 64.007813 201.65625 63.804688 200.5 62.789063 200.5 C 61.742188 200.5 60.492188 202.0625 60.492188 204.109375 C 60.492188 204.890625 60.914063 205.671875 61.710938 205.671875 C 62.976563 205.671875 64.007813 203.890625 64.007813 202.390625 Z M 64.007813 202.390625 "
         id="path161" />
    </g>
    <g
       clip-path="url(#clip8)"
       clip-rule="nonzero"
       id="g167">
      <path
         style=" stroke:none;fill-rule:nonzero;fill:rgb(12.940979%,11.764526%,11.764526%);fill-opacity:1;"
         d="M 64.871094 204.4375 C 64.871094 203.703125 65.417969 200.71875 66.542969 200.71875 C 67.199219 200.71875 67.199219 201.484375 67.199219 201.71875 C 67.199219 203.046875 66.542969 205.46875 65.527344 205.46875 C 65.292969 205.46875 64.871094 205.328125 64.871094 204.4375 Z M 67.792969 202.390625 C 67.792969 201.65625 67.589844 200.5 66.574219 200.5 C 65.527344 200.5 64.277344 202.0625 64.277344 204.109375 C 64.277344 204.890625 64.699219 205.671875 65.496094 205.671875 C 66.761719 205.671875 67.792969 203.890625 67.792969 202.390625 Z M 67.792969 202.390625 "
         id="path165" />
    </g>
    <g
       clip-path="url(#clip9)"
       clip-rule="nonzero"
       id="g171">
      <path
         style=" stroke:none;fill-rule:nonzero;fill:rgb(12.940979%,11.764526%,11.764526%);fill-opacity:1;"
         d="M 68.1875 205.625 L 70.296875 205.625 L 70.296875 205.515625 C 69.921875 205.515625 69.640625 205.5 69.640625 205.265625 C 69.640625 205.140625 69.75 204.859375 69.78125 204.703125 L 70.859375 200.78125 C 70.90625 200.65625 70.9375 200.5 70.875 200.5 C 70.828125 200.5 69.765625 200.734375 69.40625 200.796875 L 69.40625 200.90625 L 69.84375 200.890625 C 69.90625 200.890625 70.125 200.890625 70.125 201.125 C 70.125 201.1875 70.09375 201.296875 70.078125 201.375 L 69.03125 205.109375 C 68.9375 205.453125 68.625 205.46875 68.1875 205.515625 Z M 68.1875 205.625 "
         id="path169" />
    </g>
    <g
       clip-path="url(#clip10)"
       clip-rule="nonzero"
       id="g175">
      <path
         style=" stroke:none;fill-rule:nonzero;fill:rgb(12.940979%,11.764526%,11.764526%);fill-opacity:1;"
         d="M 143.191406 200.671875 L 139.425781 200.671875 L 139.425781 200.796875 C 139.816406 200.828125 140.019531 200.859375 140.019531 201.125 C 140.019531 201.21875 139.957031 201.515625 139.925781 201.59375 L 139.003906 204.9375 C 138.878906 205.40625 138.753906 205.4375 138.394531 205.5 L 138.394531 205.625 L 142.222656 205.625 L 142.691406 204.390625 L 142.582031 204.34375 C 142.035156 205.09375 141.707031 205.375 140.253906 205.375 C 140.050781 205.375 139.722656 205.359375 139.722656 205.125 C 139.722656 205.03125 139.753906 204.890625 140.238281 203.140625 C 141.472656 203.171875 141.472656 203.171875 141.472656 203.546875 C 141.472656 203.671875 141.457031 203.796875 141.425781 203.90625 L 141.582031 203.9375 L 142.097656 202.1875 L 141.957031 202.15625 C 141.878906 202.328125 141.816406 202.46875 141.738281 202.578125 C 141.582031 202.8125 141.535156 202.875 140.316406 202.890625 L 140.816406 201.125 C 140.863281 200.96875 140.878906 200.921875 141.425781 200.921875 C 142.847656 200.921875 142.863281 201.078125 142.800781 201.828125 L 142.957031 201.828125 Z M 143.191406 200.671875 "
         id="path173" />
    </g>
    <path
       style=" stroke:none;fill-rule:nonzero;fill:rgb(12.940979%,11.764526%,11.764526%);fill-opacity:1;"
       d="M 149.378906 202.703125 L 145.566406 202.703125 L 145.566406 203.203125 L 149.378906 203.203125 Z M 149.378906 204.21875 L 145.566406 204.21875 L 145.566406 204.71875 L 149.378906 204.71875 Z M 149.378906 204.21875 "
       id="path177" />
    <g
       clip-path="url(#clip11)"
       clip-rule="nonzero"
       id="g181">
      <path
         style=" stroke:none;fill-rule:nonzero;fill:rgb(12.940979%,11.764526%,11.764526%);fill-opacity:1;"
         d="M 152.757813 204.4375 C 152.757813 203.703125 153.304688 200.71875 154.429688 200.71875 C 155.085938 200.71875 155.085938 201.484375 155.085938 201.71875 C 155.085938 203.046875 154.429688 205.46875 153.414063 205.46875 C 153.179688 205.46875 152.757813 205.328125 152.757813 204.4375 Z M 155.679688 202.390625 C 155.679688 201.65625 155.476563 200.5 154.460938 200.5 C 153.414063 200.5 152.164063 202.0625 152.164063 204.109375 C 152.164063 204.890625 152.585938 205.671875 153.382813 205.671875 C 154.648438 205.671875 155.679688 203.890625 155.679688 202.390625 Z M 155.679688 202.390625 "
         id="path179" />
    </g>
    <g
       clip-path="url(#clip12)"
       clip-rule="nonzero"
       id="g185">
      <path
         style=" stroke:none;fill-rule:nonzero;fill:rgb(12.940979%,11.764526%,11.764526%);fill-opacity:1;"
         d="M 156.328125 205.703125 C 156.484375 205.703125 156.75 205.578125 156.75 205.296875 C 156.75 205.0625 156.546875 204.859375 156.328125 204.859375 C 156.09375 204.859375 155.90625 205.0625 155.90625 205.296875 C 155.90625 205.59375 156.171875 205.703125 156.328125 205.703125 Z M 156.328125 205.703125 "
         id="path183" />
    </g>
    <g
       clip-path="url(#clip13)"
       clip-rule="nonzero"
       id="g189">
      <path
         style=" stroke:none;fill-rule:nonzero;fill:rgb(12.940979%,11.764526%,11.764526%);fill-opacity:1;"
         d="M 158.4375 204.4375 C 158.4375 203.703125 158.984375 200.71875 160.109375 200.71875 C 160.765625 200.71875 160.765625 201.484375 160.765625 201.71875 C 160.765625 203.046875 160.109375 205.46875 159.09375 205.46875 C 158.859375 205.46875 158.4375 205.328125 158.4375 204.4375 Z M 161.359375 202.390625 C 161.359375 201.65625 161.15625 200.5 160.140625 200.5 C 159.09375 200.5 157.84375 202.0625 157.84375 204.109375 C 157.84375 204.890625 158.265625 205.671875 159.0625 205.671875 C 160.328125 205.671875 161.359375 203.890625 161.359375 202.390625 Z M 161.359375 202.390625 "
         id="path187" />
    </g>
    <g
       clip-path="url(#clip14)"
       clip-rule="nonzero"
       id="g193">
      <path
         style=" stroke:none;fill-rule:nonzero;fill:rgb(12.940979%,11.764526%,11.764526%);fill-opacity:1;"
         d="M 164.414063 204.578125 C 164.289063 204.84375 164.164063 205.046875 163.664063 205.046875 L 162.226563 205.046875 L 162.226563 205.015625 L 163.679688 203.5625 C 164.617188 202.609375 164.804688 202.28125 164.804688 201.765625 C 164.804688 201.203125 164.382813 200.5 163.585938 200.5 C 163.398438 200.5 162.398438 200.53125 161.992188 201.71875 L 162.148438 201.765625 C 162.257813 201.578125 162.539063 201.0625 163.226563 201.0625 C 163.804688 201.0625 164.164063 201.515625 164.164063 201.984375 C 164.164063 202.234375 164.132813 202.671875 163.070313 203.796875 L 161.476563 205.5 L 161.476563 205.625 L 164.164063 205.625 L 164.539063 204.625 Z M 164.414063 204.578125 "
         id="path191" />
    </g>
    <g
       clip-path="url(#clip15)"
       clip-rule="nonzero"
       id="g197">
      <path
         style=" stroke:none;fill-rule:nonzero;fill:rgb(12.940979%,11.764526%,11.764526%);fill-opacity:1;"
         d="M 167.261719 203.796875 L 165.667969 203.796875 L 165.667969 203.765625 L 167.964844 201.359375 L 167.996094 201.359375 Z M 168.605469 203.796875 L 167.886719 203.796875 L 168.792969 200.5 L 168.480469 200.5 L 165.324219 203.765625 L 165.167969 204.28125 L 167.167969 204.28125 L 166.792969 205.625 L 167.386719 205.625 L 167.730469 204.296875 L 168.496094 204.296875 Z M 168.605469 203.796875 "
         id="path195" />
    </g>
    <g
       clip-path="url(#clip16)"
       clip-rule="nonzero"
       id="g201">
      <path
         style=" stroke:none;fill-rule:nonzero;fill:rgb(12.940979%,11.764526%,11.764526%);fill-opacity:1;"
         d="M 171.984375 204.578125 C 171.859375 204.84375 171.734375 205.046875 171.234375 205.046875 L 169.796875 205.046875 L 169.796875 205.015625 L 171.25 203.5625 C 172.1875 202.609375 172.375 202.28125 172.375 201.765625 C 172.375 201.203125 171.953125 200.5 171.15625 200.5 C 170.96875 200.5 169.96875 200.53125 169.5625 201.71875 L 169.71875 201.765625 C 169.828125 201.578125 170.109375 201.0625 170.796875 201.0625 C 171.375 201.0625 171.734375 201.515625 171.734375 201.984375 C 171.734375 202.234375 171.703125 202.671875 170.640625 203.796875 L 169.046875 205.5 L 169.046875 205.625 L 171.734375 205.625 L 172.109375 204.625 Z M 171.984375 204.578125 "
         id="path199" />
    </g>
    <g
       clip-path="url(#clip17)"
       clip-rule="nonzero"
       id="g205">
      <path
         style=" stroke:none;fill-rule:nonzero;fill:rgb(12.940979%,11.764526%,11.764526%);fill-opacity:1;"
         d="M 175.769531 204.578125 C 175.644531 204.84375 175.519531 205.046875 175.019531 205.046875 L 173.582031 205.046875 L 173.582031 205.015625 L 175.035156 203.5625 C 175.972656 202.609375 176.160156 202.28125 176.160156 201.765625 C 176.160156 201.203125 175.738281 200.5 174.941406 200.5 C 174.753906 200.5 173.753906 200.53125 173.347656 201.71875 L 173.503906 201.765625 C 173.613281 201.578125 173.894531 201.0625 174.582031 201.0625 C 175.160156 201.0625 175.519531 201.515625 175.519531 201.984375 C 175.519531 202.234375 175.488281 202.671875 174.425781 203.796875 L 172.832031 205.5 L 172.832031 205.625 L 175.519531 205.625 L 175.894531 204.625 Z M 175.769531 204.578125 "
         id="path203" />
    </g>
    <path
       style=" stroke:none;fill-rule:nonzero;fill:rgb(12.940979%,11.764526%,11.764526%);fill-opacity:1;"
       d="M 39.210938 118.5 C 38.898438 118.9375 38.679688 119.09375 38.585938 119.09375 C 38.523438 119.09375 38.460938 119.03125 38.460938 118.96875 C 38.460938 118.875 38.554688 118.578125 38.585938 118.46875 L 39.257813 116.03125 L 39.226563 116.015625 C 38.929688 116.078125 38.304688 116.1875 38.023438 116.203125 L 38.023438 116.328125 C 38.429688 116.328125 38.492188 116.359375 38.492188 116.53125 C 38.492188 116.734375 37.898438 118.609375 37.898438 118.96875 C 37.898438 119.109375 37.898438 119.4375 38.257813 119.4375 C 38.679688 119.4375 39.007813 119.03125 39.304688 118.578125 Z M 39.523438 114.8125 C 39.523438 114.65625 39.398438 114.40625 39.148438 114.40625 C 38.960938 114.40625 38.789063 114.546875 38.789063 114.8125 C 38.789063 115.078125 38.960938 115.203125 39.148438 115.203125 C 39.398438 115.203125 39.523438 114.96875 39.523438 114.8125 Z M 39.523438 114.8125 "
       id="path207" />
    <path
       style=" stroke:none;fill-rule:nonzero;fill:rgb(12.940979%,11.764526%,11.764526%);fill-opacity:1;"
       d="M 40.253906 119.4375 C 40.410156 119.4375 40.675781 119.3125 40.675781 119.03125 C 40.675781 118.796875 40.472656 118.59375 40.253906 118.59375 C 40.019531 118.59375 39.832031 118.796875 39.832031 119.03125 C 39.832031 119.328125 40.097656 119.4375 40.253906 119.4375 Z M 40.253906 119.4375 "
       id="path209" />
    <path
       style=" stroke:none;fill-rule:nonzero;fill:rgb(12.940979%,11.764526%,11.764526%);fill-opacity:1;"
       d="M 43.207031 118.5 C 42.894531 118.9375 42.675781 119.09375 42.582031 119.09375 C 42.519531 119.09375 42.457031 119.03125 42.457031 118.96875 C 42.457031 118.875 42.550781 118.578125 42.582031 118.46875 L 43.253906 116.03125 L 43.222656 116.015625 C 42.925781 116.078125 42.300781 116.1875 42.019531 116.203125 L 42.019531 116.328125 C 42.425781 116.328125 42.488281 116.359375 42.488281 116.53125 C 42.488281 116.734375 41.894531 118.609375 41.894531 118.96875 C 41.894531 119.109375 41.894531 119.4375 42.253906 119.4375 C 42.675781 119.4375 43.003906 119.03125 43.300781 118.578125 Z M 43.519531 114.8125 C 43.519531 114.65625 43.394531 114.40625 43.144531 114.40625 C 42.957031 114.40625 42.785156 114.546875 42.785156 114.8125 C 42.785156 115.078125 42.957031 115.203125 43.144531 115.203125 C 43.394531 115.203125 43.519531 114.96875 43.519531 114.8125 Z M 43.519531 114.8125 "
       id="path211" />
    <path
       style=" stroke:none;fill-rule:nonzero;fill:rgb(12.940979%,11.764526%,11.764526%);fill-opacity:1;"
       d="M 44.25 119.4375 C 44.40625 119.4375 44.671875 119.3125 44.671875 119.03125 C 44.671875 118.796875 44.46875 118.59375 44.25 118.59375 C 44.015625 118.59375 43.828125 118.796875 43.828125 119.03125 C 43.828125 119.328125 44.09375 119.4375 44.25 119.4375 Z M 44.25 119.4375 "
       id="path213" />
    <path
       style=" stroke:none;fill-rule:nonzero;fill:rgb(12.940979%,11.764526%,11.764526%);fill-opacity:1;"
       d="M 46.753906 119.078125 C 46.285156 119.078125 46.285156 118.640625 46.285156 118.515625 C 46.285156 117.828125 47.019531 116.1875 47.863281 116.1875 C 48.222656 116.1875 48.222656 116.53125 48.222656 116.703125 C 48.222656 117.640625 47.472656 119.078125 46.753906 119.078125 Z M 49.035156 118.515625 C 48.707031 118.875 48.550781 119.0625 48.410156 119.0625 C 48.332031 119.0625 48.269531 119 48.269531 118.890625 C 48.269531 118.765625 49.191406 115.546875 49.519531 114.21875 L 49.472656 114.1875 C 49.082031 114.265625 48.707031 114.3125 48.316406 114.359375 L 48.316406 114.484375 C 48.738281 114.5 48.785156 114.53125 48.785156 114.703125 C 48.785156 114.8125 48.738281 115 48.675781 115.21875 L 48.347656 116.421875 L 48.332031 116.4375 C 48.300781 116.265625 48.253906 116.015625 47.816406 116.015625 C 46.925781 116.015625 45.628906 117.40625 45.628906 118.546875 C 45.628906 118.9375 45.785156 119.4375 46.425781 119.4375 C 46.800781 119.4375 47.222656 119.3125 47.769531 118.484375 L 47.785156 118.5 C 47.722656 118.765625 47.691406 118.9375 47.691406 119.109375 C 47.691406 119.265625 47.753906 119.453125 48.050781 119.453125 C 48.300781 119.453125 48.800781 119.109375 49.113281 118.59375 Z M 49.035156 118.515625 "
       id="path215" />
    <path
       style=" stroke:none;fill-rule:nonzero;fill:rgb(12.940979%,11.764526%,11.764526%);fill-opacity:1;"
       d="M 49.929688 119.4375 C 50.085938 119.4375 50.351563 119.3125 50.351563 119.03125 C 50.351563 118.796875 50.148438 118.59375 49.929688 118.59375 C 49.695313 118.59375 49.507813 118.796875 49.507813 119.03125 C 49.507813 119.328125 49.773438 119.4375 49.929688 119.4375 Z M 49.929688 119.4375 "
       id="path217" />
    <path
       style=" stroke:none;fill-rule:nonzero;fill:rgb(12.940979%,11.764526%,11.764526%);fill-opacity:1;"
       d="M 53.355469 118.25 L 53.214844 119.453125 L 53.339844 119.453125 C 53.371094 119.375 53.402344 119.296875 53.511719 119.296875 C 53.730469 119.296875 54.042969 119.4375 54.261719 119.4375 C 54.683594 119.4375 55.386719 119.25 55.386719 118.421875 C 55.386719 117.78125 54.464844 117.109375 54.464844 116.625 C 54.464844 116.265625 54.714844 116.1875 54.871094 116.1875 C 55.371094 116.1875 55.558594 116.625 55.589844 117.0625 L 55.714844 117.0625 L 55.871094 116.015625 L 55.761719 116.015625 C 55.714844 116.078125 55.667969 116.140625 55.542969 116.140625 C 55.324219 116.140625 55.167969 116.015625 54.824219 116.015625 C 54.027344 116.015625 53.917969 116.625 53.917969 116.859375 C 53.917969 117.4375 54.824219 118.171875 54.824219 118.671875 C 54.824219 118.921875 54.699219 119.28125 54.277344 119.28125 C 53.652344 119.28125 53.542969 118.59375 53.480469 118.25 Z M 53.355469 118.25 "
       id="path219" />
    <path
       style=" stroke:none;fill-rule:nonzero;fill:rgb(12.940979%,11.764526%,11.764526%);fill-opacity:1;"
       d="M 59.550781 118.53125 C 59.207031 118.859375 59.066406 119.046875 58.941406 119.046875 C 58.878906 119.046875 58.832031 119 58.832031 118.953125 C 58.832031 118.71875 59.535156 116.125 59.566406 116.046875 L 59.503906 116.015625 L 59.050781 116.078125 L 59.019531 116.09375 L 58.941406 116.421875 L 58.925781 116.421875 C 58.910156 116.21875 58.660156 116.015625 58.332031 116.015625 C 57.316406 116.015625 56.160156 117.4375 56.160156 118.546875 C 56.160156 118.765625 56.191406 119.4375 56.941406 119.4375 C 57.394531 119.4375 57.800781 119.21875 58.425781 118.296875 L 58.441406 118.3125 C 58.316406 118.765625 58.285156 118.9375 58.285156 119.109375 C 58.285156 119.234375 58.285156 119.4375 58.597656 119.4375 C 58.925781 119.4375 59.191406 119.15625 59.644531 118.59375 Z M 56.800781 118.53125 C 56.800781 117.84375 57.488281 116.1875 58.363281 116.1875 C 58.582031 116.1875 58.800781 116.328125 58.800781 116.6875 C 58.800781 117.4375 58.050781 119.078125 57.253906 119.078125 C 57.050781 119.078125 56.800781 118.9375 56.800781 118.53125 Z M 56.800781 118.53125 "
       id="path221" />
    <path
       style=" stroke:none;fill-rule:nonzero;fill:rgb(12.940979%,11.764526%,11.764526%);fill-opacity:1;"
       d="M 65.042969 118.46875 C 64.761719 118.828125 64.558594 119.078125 64.417969 119.078125 C 64.324219 119.078125 64.308594 119.046875 64.308594 118.921875 C 64.308594 118.8125 64.917969 116.78125 64.917969 116.53125 C 64.917969 116.21875 64.746094 116.015625 64.464844 116.015625 C 63.964844 116.015625 63.355469 116.6875 62.824219 117.5625 L 62.808594 117.546875 C 62.917969 117.25 63.089844 116.609375 63.089844 116.515625 C 63.089844 116.1875 62.933594 116.015625 62.636719 116.015625 C 62.011719 116.015625 61.230469 117.1875 60.996094 117.5625 L 60.980469 117.546875 L 61.402344 116.03125 L 61.386719 116.015625 C 60.980469 116.09375 60.589844 116.171875 60.167969 116.25 L 60.167969 116.375 C 60.542969 116.375 60.652344 116.390625 60.652344 116.5625 C 60.652344 116.71875 60.042969 118.859375 59.917969 119.359375 L 60.480469 119.359375 C 60.761719 118.4375 60.917969 117.9375 61.214844 117.484375 C 61.417969 117.171875 61.996094 116.40625 62.339844 116.40625 C 62.402344 116.40625 62.511719 116.40625 62.511719 116.609375 C 62.511719 116.765625 61.980469 118.625 61.792969 119.359375 L 62.355469 119.359375 C 62.574219 118.5 62.699219 118.03125 63.074219 117.453125 C 63.308594 117.078125 63.855469 116.40625 64.152344 116.40625 C 64.246094 116.40625 64.324219 116.46875 64.324219 116.578125 C 64.324219 116.734375 63.730469 118.859375 63.730469 119.0625 C 63.730469 119.15625 63.730469 119.421875 64.042969 119.421875 C 64.464844 119.421875 64.855469 119 65.121094 118.609375 L 65.152344 118.5625 Z M 65.042969 118.46875 "
       id="path223" />
    <path
       style=" stroke:none;fill-rule:nonzero;fill:rgb(12.940979%,11.764526%,11.764526%);fill-opacity:1;"
       d="M 68.164063 116.984375 C 68.164063 117.890625 67.476563 119.296875 66.554688 119.296875 C 66.367188 119.296875 66.179688 119.21875 66.179688 119.015625 C 66.179688 118.71875 66.476563 117.6875 66.664063 117.203125 C 66.867188 116.6875 67.304688 116.34375 67.664063 116.34375 C 68.148438 116.34375 68.164063 116.78125 68.164063 116.984375 Z M 65.710938 116.3125 L 65.882813 116.296875 C 66.054688 116.296875 66.210938 116.375 66.210938 116.515625 C 66.210938 116.671875 65.429688 119.5 65.226563 120.34375 C 65.164063 120.59375 65.117188 120.796875 64.726563 120.796875 L 64.726563 120.90625 L 66.273438 120.90625 L 66.273438 120.796875 C 66.070313 120.796875 65.789063 120.796875 65.789063 120.5625 C 65.789063 120.40625 66.007813 119.578125 66.070313 119.3125 C 66.242188 119.40625 66.398438 119.4375 66.585938 119.4375 C 67.632813 119.4375 68.835938 118.1875 68.835938 117.015625 C 68.835938 116.46875 68.617188 116.015625 67.945313 116.015625 C 67.320313 116.015625 66.882813 116.578125 66.710938 116.828125 L 66.695313 116.828125 L 66.898438 116.109375 C 66.929688 116.03125 66.898438 116.015625 66.867188 116.015625 L 65.695313 116.1875 Z M 65.710938 116.3125 "
       id="path225" />
    <path
       style=" stroke:none;fill-rule:nonzero;fill:rgb(12.940979%,11.764526%,11.764526%);fill-opacity:1;"
       d="M 70.808594 118.421875 C 70.433594 118.90625 70.277344 119.109375 70.089844 119.109375 C 69.964844 119.109375 69.964844 119.015625 69.964844 118.96875 C 69.964844 118.875 70.027344 118.671875 70.042969 118.609375 L 71.183594 114.21875 L 71.152344 114.1875 C 70.761719 114.28125 70.355469 114.34375 69.964844 114.390625 L 69.964844 114.515625 C 70.167969 114.5 70.480469 114.5 70.480469 114.703125 C 70.480469 114.859375 69.386719 118.8125 69.386719 118.96875 C 69.386719 119.1875 69.417969 119.4375 69.746094 119.4375 C 70.214844 119.4375 70.511719 119.078125 70.902344 118.5 Z M 70.808594 118.421875 "
       id="path227" />
    <path
       style=" stroke:none;fill-rule:nonzero;fill:rgb(12.940979%,11.764526%,11.764526%);fill-opacity:1;"
       d="M 72.335938 117.453125 C 72.617188 116.78125 73.132813 116.1875 73.539063 116.1875 C 73.726563 116.1875 73.804688 116.328125 73.804688 116.5 C 73.804688 116.5625 73.757813 117.46875 72.195313 117.78125 Z M 73.898438 118.53125 C 73.507813 118.84375 73.195313 119.109375 72.789063 119.109375 C 72.460938 119.109375 72.070313 118.921875 72.070313 118.40625 C 72.070313 118.265625 72.117188 118.109375 72.148438 117.953125 L 72.367188 117.921875 C 73.585938 117.75 74.304688 117.125 74.304688 116.53125 C 74.304688 116.203125 74.070313 116.015625 73.679688 116.015625 C 72.617188 116.015625 71.414063 117.296875 71.414063 118.375 C 71.414063 118.859375 71.664063 119.4375 72.445313 119.4375 C 73.210938 119.4375 73.898438 118.75 73.976563 118.625 Z M 73.898438 118.53125 "
       id="path229" />
    <path
       style=" stroke:none;fill-rule:nonzero;fill:rgb(12.940979%,11.764526%,11.764526%);fill-opacity:1;"
       d="M 74.808594 118.25 L 74.667969 119.453125 L 74.792969 119.453125 C 74.824219 119.375 74.855469 119.296875 74.964844 119.296875 C 75.183594 119.296875 75.496094 119.4375 75.714844 119.4375 C 76.136719 119.4375 76.839844 119.25 76.839844 118.421875 C 76.839844 117.78125 75.917969 117.109375 75.917969 116.625 C 75.917969 116.265625 76.167969 116.1875 76.324219 116.1875 C 76.824219 116.1875 77.011719 116.625 77.042969 117.0625 L 77.167969 117.0625 L 77.324219 116.015625 L 77.214844 116.015625 C 77.167969 116.078125 77.121094 116.140625 76.996094 116.140625 C 76.777344 116.140625 76.621094 116.015625 76.277344 116.015625 C 75.480469 116.015625 75.371094 116.625 75.371094 116.859375 C 75.371094 117.4375 76.277344 118.171875 76.277344 118.671875 C 76.277344 118.921875 76.152344 119.28125 75.730469 119.28125 C 75.105469 119.28125 74.996094 118.59375 74.933594 118.25 Z M 74.808594 118.25 "
       id="path231" />
    <path
       style=" stroke:none;fill-rule:nonzero;fill:rgb(12.940979%,11.764526%,11.764526%);fill-opacity:1;"
       d="M 127.847656 114.742188 C 127.503906 115.070313 127.363281 115.257813 127.238281 115.257813 C 127.175781 115.257813 127.128906 115.210938 127.128906 115.164063 C 127.128906 114.929688 127.832031 112.335938 127.863281 112.257813 L 127.800781 112.226563 L 127.347656 112.289063 L 127.316406 112.304688 L 127.238281 112.632813 L 127.222656 112.632813 C 127.207031 112.429688 126.957031 112.226563 126.628906 112.226563 C 125.613281 112.226563 124.457031 113.648438 124.457031 114.757813 C 124.457031 114.976563 124.488281 115.648438 125.238281 115.648438 C 125.691406 115.648438 126.097656 115.429688 126.722656 114.507813 L 126.738281 114.523438 C 126.613281 114.976563 126.582031 115.148438 126.582031 115.320313 C 126.582031 115.445313 126.582031 115.648438 126.894531 115.648438 C 127.222656 115.648438 127.488281 115.367188 127.941406 114.804688 Z M 125.097656 114.742188 C 125.097656 114.054688 125.785156 112.398438 126.660156 112.398438 C 126.878906 112.398438 127.097656 112.539063 127.097656 112.898438 C 127.097656 113.648438 126.347656 115.289063 125.550781 115.289063 C 125.347656 115.289063 125.097656 115.148438 125.097656 114.742188 Z M 125.097656 114.742188 "
       id="path233" />
    <path
       style=" stroke:none;fill-rule:nonzero;fill:rgb(12.940979%,11.764526%,11.764526%);fill-opacity:1;"
       d="M 130.773438 114.773438 C 130.492188 115.070313 130.132813 115.382813 129.679688 115.382813 C 129.226563 115.382813 128.992188 115.039063 128.992188 114.460938 C 128.992188 113.726563 129.523438 112.382813 130.507813 112.382813 C 130.648438 112.382813 130.789063 112.429688 130.789063 112.539063 C 130.789063 112.664063 130.679688 112.710938 130.679688 112.914063 C 130.679688 113.085938 130.789063 113.195313 130.976563 113.195313 C 131.164063 113.195313 131.335938 113.054688 131.335938 112.835938 C 131.335938 112.601563 131.148438 112.226563 130.507813 112.226563 C 129.382813 112.226563 128.351563 113.382813 128.351563 114.460938 C 128.351563 115.460938 128.976563 115.648438 129.460938 115.648438 C 130.257813 115.648438 130.695313 115.085938 130.898438 114.835938 Z M 130.773438 114.773438 "
       id="path235" />
    <path
       style=" stroke:none;fill-rule:nonzero;fill:rgb(12.940979%,11.764526%,11.764526%);fill-opacity:1;"
       d="M 133.726563 112.320313 L 133.117188 112.320313 L 133.320313 111.539063 C 133.335938 111.492188 133.320313 111.414063 133.273438 111.429688 C 133.210938 111.414063 133.179688 111.492188 133.148438 111.523438 C 132.929688 111.789063 132.570313 112.132813 132.320313 112.257813 C 132.195313 112.320313 131.976563 112.382813 131.929688 112.445313 C 131.914063 112.492188 131.914063 112.523438 131.914063 112.570313 L 132.476563 112.570313 L 131.929688 114.648438 C 131.898438 114.773438 131.757813 115.242188 131.757813 115.351563 C 131.757813 115.570313 131.976563 115.648438 132.117188 115.648438 C 132.507813 115.648438 132.804688 115.320313 133.195313 114.742188 L 133.101563 114.679688 C 132.914063 114.929688 132.648438 115.289063 132.492188 115.289063 C 132.414063 115.289063 132.367188 115.226563 132.367188 115.148438 C 132.367188 115.132813 132.367188 115.117188 132.382813 115.085938 L 133.039063 112.570313 L 133.679688 112.570313 Z M 133.726563 112.320313 "
       id="path237" />
    <path
       style=" stroke:none;fill-rule:nonzero;fill:rgb(12.940979%,11.764526%,11.764526%);fill-opacity:1;"
       d="M 135.269531 114.710938 C 134.957031 115.148438 134.738281 115.304688 134.644531 115.304688 C 134.582031 115.304688 134.519531 115.242188 134.519531 115.179688 C 134.519531 115.085938 134.613281 114.789063 134.644531 114.679688 L 135.316406 112.242188 L 135.285156 112.226563 C 134.988281 112.289063 134.363281 112.398438 134.082031 112.414063 L 134.082031 112.539063 C 134.488281 112.539063 134.550781 112.570313 134.550781 112.742188 C 134.550781 112.945313 133.957031 114.820313 133.957031 115.179688 C 133.957031 115.320313 133.957031 115.648438 134.316406 115.648438 C 134.738281 115.648438 135.066406 115.242188 135.363281 114.789063 Z M 135.582031 111.023438 C 135.582031 110.867188 135.457031 110.617188 135.207031 110.617188 C 135.019531 110.617188 134.847656 110.757813 134.847656 111.023438 C 134.847656 111.289063 135.019531 111.414063 135.207031 111.414063 C 135.457031 111.414063 135.582031 111.179688 135.582031 111.023438 Z M 135.582031 111.023438 "
       id="path239" />
    <path
       style=" stroke:none;fill-rule:nonzero;fill:rgb(12.940979%,11.764526%,11.764526%);fill-opacity:1;"
       d="M 135.84375 112.523438 C 136.40625 112.460938 136.421875 112.585938 136.546875 113.273438 C 136.625 113.710938 136.71875 114.929688 136.71875 115.476563 C 136.71875 115.601563 136.71875 115.710938 136.78125 115.710938 C 136.90625 115.710938 137.03125 115.554688 137.53125 115.023438 C 137.78125 114.757813 138.921875 113.398438 138.921875 112.710938 C 138.921875 112.429688 138.734375 112.226563 138.484375 112.226563 C 138.328125 112.226563 138.21875 112.335938 138.21875 112.445313 C 138.21875 112.851563 138.53125 112.773438 138.53125 113.070313 C 138.53125 113.445313 137.921875 114.351563 137.484375 114.804688 L 137.25 115.039063 C 137.203125 114.007813 137.15625 113.382813 136.9375 112.382813 C 136.890625 112.226563 136.890625 112.226563 136.8125 112.226563 C 136.765625 112.226563 136.40625 112.335938 135.84375 112.414063 Z M 135.84375 112.523438 "
       id="path241" />
    <path
       style=" stroke:none;fill-rule:nonzero;fill:rgb(12.940979%,11.764526%,11.764526%);fill-opacity:1;"
       d="M 140.207031 113.664063 C 140.488281 112.992188 141.003906 112.398438 141.410156 112.398438 C 141.597656 112.398438 141.675781 112.539063 141.675781 112.710938 C 141.675781 112.773438 141.628906 113.679688 140.066406 113.992188 Z M 141.769531 114.742188 C 141.378906 115.054688 141.066406 115.320313 140.660156 115.320313 C 140.332031 115.320313 139.941406 115.132813 139.941406 114.617188 C 139.941406 114.476563 139.988281 114.320313 140.019531 114.164063 L 140.238281 114.132813 C 141.457031 113.960938 142.175781 113.335938 142.175781 112.742188 C 142.175781 112.414063 141.941406 112.226563 141.550781 112.226563 C 140.488281 112.226563 139.285156 113.507813 139.285156 114.585938 C 139.285156 115.070313 139.535156 115.648438 140.316406 115.648438 C 141.082031 115.648438 141.769531 114.960938 141.847656 114.835938 Z M 141.769531 114.742188 "
       id="path243" />
    <path
       style=" stroke:none;fill-rule:nonzero;fill:rgb(12.940979%,11.764526%,11.764526%);fill-opacity:1;"
       d="M 146.039063 114.632813 C 145.664063 115.117188 145.507813 115.320313 145.320313 115.320313 C 145.195313 115.320313 145.195313 115.226563 145.195313 115.179688 C 145.195313 115.085938 145.257813 114.882813 145.273438 114.820313 L 146.414063 110.429688 L 146.382813 110.398438 C 145.992188 110.492188 145.585938 110.554688 145.195313 110.601563 L 145.195313 110.726563 C 145.398438 110.710938 145.710938 110.710938 145.710938 110.914063 C 145.710938 111.070313 144.617188 115.023438 144.617188 115.179688 C 144.617188 115.398438 144.648438 115.648438 144.976563 115.648438 C 145.445313 115.648438 145.742188 115.289063 146.132813 114.710938 Z M 146.039063 114.632813 "
       id="path245" />
    <path
       style=" stroke:none;fill-rule:nonzero;fill:rgb(12.940979%,11.764526%,11.764526%);fill-opacity:1;"
       d="M 147.566406 113.664063 C 147.847656 112.992188 148.363281 112.398438 148.769531 112.398438 C 148.957031 112.398438 149.035156 112.539063 149.035156 112.710938 C 149.035156 112.773438 148.988281 113.679688 147.425781 113.992188 Z M 149.128906 114.742188 C 148.738281 115.054688 148.425781 115.320313 148.019531 115.320313 C 147.691406 115.320313 147.300781 115.132813 147.300781 114.617188 C 147.300781 114.476563 147.347656 114.320313 147.378906 114.164063 L 147.597656 114.132813 C 148.816406 113.960938 149.535156 113.335938 149.535156 112.742188 C 149.535156 112.414063 149.300781 112.226563 148.910156 112.226563 C 147.847656 112.226563 146.644531 113.507813 146.644531 114.585938 C 146.644531 115.070313 146.894531 115.648438 147.675781 115.648438 C 148.441406 115.648438 149.128906 114.960938 149.207031 114.835938 Z M 149.128906 114.742188 "
       id="path247" />
    <path
       style=" stroke:none;fill-rule:nonzero;fill:rgb(12.940979%,11.764526%,11.764526%);fill-opacity:1;"
       d="M 153.289063 114.742188 C 152.945313 115.070313 152.804688 115.257813 152.679688 115.257813 C 152.617188 115.257813 152.570313 115.210938 152.570313 115.164063 C 152.570313 114.929688 153.273438 112.335938 153.304688 112.257813 L 153.242188 112.226563 L 152.789063 112.289063 L 152.757813 112.304688 L 152.679688 112.632813 L 152.664063 112.632813 C 152.648438 112.429688 152.398438 112.226563 152.070313 112.226563 C 151.054688 112.226563 149.898438 113.648438 149.898438 114.757813 C 149.898438 114.976563 149.929688 115.648438 150.679688 115.648438 C 151.132813 115.648438 151.539063 115.429688 152.164063 114.507813 L 152.179688 114.523438 C 152.054688 114.976563 152.023438 115.148438 152.023438 115.320313 C 152.023438 115.445313 152.023438 115.648438 152.335938 115.648438 C 152.664063 115.648438 152.929688 115.367188 153.382813 114.804688 Z M 150.539063 114.742188 C 150.539063 114.054688 151.226563 112.398438 152.101563 112.398438 C 152.320313 112.398438 152.539063 112.539063 152.539063 112.898438 C 152.539063 113.648438 151.789063 115.289063 150.992188 115.289063 C 150.789063 115.289063 150.539063 115.148438 150.539063 114.742188 Z M 150.539063 114.742188 "
       id="path249" />
    <path
       style=" stroke:none;fill-rule:nonzero;fill:rgb(12.940979%,11.764526%,11.764526%);fill-opacity:1;"
       d="M 154.480469 115.570313 C 154.792969 114.554688 154.886719 114.226563 155.183594 113.679688 C 155.246094 113.554688 155.699219 112.726563 155.933594 112.726563 C 156.105469 112.726563 155.996094 112.992188 156.324219 112.992188 C 156.402344 112.992188 156.683594 112.992188 156.683594 112.601563 C 156.683594 112.335938 156.496094 112.226563 156.324219 112.226563 C 155.839844 112.226563 155.261719 113.117188 155.011719 113.617188 L 154.949219 113.773438 L 154.933594 113.757813 L 155.308594 112.242188 L 155.292969 112.226563 C 154.949219 112.289063 154.496094 112.382813 154.105469 112.429688 L 154.105469 112.554688 C 154.199219 112.539063 154.277344 112.523438 154.355469 112.523438 C 154.589844 112.523438 154.636719 112.648438 154.636719 112.757813 C 154.636719 112.820313 154.589844 113.070313 154.511719 113.351563 L 153.902344 115.570313 Z M 154.480469 115.570313 "
       id="path251" />
    <path
       style=" stroke:none;fill-rule:nonzero;fill:rgb(12.940979%,11.764526%,11.764526%);fill-opacity:1;"
       d="M 159.988281 114.679688 C 159.707031 115.039063 159.519531 115.289063 159.363281 115.289063 C 159.347656 115.289063 159.253906 115.273438 159.253906 115.148438 C 159.253906 114.929688 159.847656 113.054688 159.847656 112.726563 C 159.847656 112.414063 159.675781 112.226563 159.332031 112.226563 C 158.707031 112.226563 158.003906 113.289063 157.644531 113.835938 L 157.628906 113.820313 L 158.113281 112.242188 L 158.097656 112.226563 C 157.691406 112.304688 157.269531 112.382813 156.863281 112.460938 L 156.863281 112.585938 C 157.269531 112.585938 157.347656 112.664063 157.347656 112.789063 C 157.347656 112.945313 156.847656 114.710938 156.613281 115.570313 L 157.175781 115.570313 C 157.488281 114.539063 157.582031 114.210938 157.941406 113.695313 C 158.207031 113.273438 158.691406 112.617188 159.050781 112.617188 C 159.191406 112.617188 159.238281 112.726563 159.238281 112.851563 C 159.238281 113.164063 158.675781 115.007813 158.675781 115.195313 C 158.675781 115.414063 158.691406 115.632813 159.035156 115.632813 C 159.457031 115.632813 159.722656 115.289063 160.097656 114.789063 Z M 159.988281 114.679688 "
       id="path253" />
    <path
       style=" stroke:none;fill-rule:nonzero;fill:rgb(12.940979%,11.764526%,11.764526%);fill-opacity:1;"
       d="M 161.976563 114.710938 C 161.664063 115.148438 161.445313 115.304688 161.351563 115.304688 C 161.289063 115.304688 161.226563 115.242188 161.226563 115.179688 C 161.226563 115.085938 161.320313 114.789063 161.351563 114.679688 L 162.023438 112.242188 L 161.992188 112.226563 C 161.695313 112.289063 161.070313 112.398438 160.789063 112.414063 L 160.789063 112.539063 C 161.195313 112.539063 161.257813 112.570313 161.257813 112.742188 C 161.257813 112.945313 160.664063 114.820313 160.664063 115.179688 C 160.664063 115.320313 160.664063 115.648438 161.023438 115.648438 C 161.445313 115.648438 161.773438 115.242188 162.070313 114.789063 Z M 162.289063 111.023438 C 162.289063 110.867188 162.164063 110.617188 161.914063 110.617188 C 161.726563 110.617188 161.554688 110.757813 161.554688 111.023438 C 161.554688 111.289063 161.726563 111.414063 161.914063 111.414063 C 162.164063 111.414063 162.289063 111.179688 162.289063 111.023438 Z M 162.289063 111.023438 "
       id="path255" />
    <path
       style=" stroke:none;fill-rule:nonzero;fill:rgb(12.940979%,11.764526%,11.764526%);fill-opacity:1;"
       d="M 165.878906 114.679688 C 165.597656 115.039063 165.410156 115.289063 165.253906 115.289063 C 165.238281 115.289063 165.144531 115.273438 165.144531 115.148438 C 165.144531 114.929688 165.738281 113.054688 165.738281 112.726563 C 165.738281 112.414063 165.566406 112.226563 165.222656 112.226563 C 164.597656 112.226563 163.894531 113.289063 163.535156 113.835938 L 163.519531 113.820313 L 164.003906 112.242188 L 163.988281 112.226563 C 163.582031 112.304688 163.160156 112.382813 162.753906 112.460938 L 162.753906 112.585938 C 163.160156 112.585938 163.238281 112.664063 163.238281 112.789063 C 163.238281 112.945313 162.738281 114.710938 162.503906 115.570313 L 163.066406 115.570313 C 163.378906 114.539063 163.472656 114.210938 163.832031 113.695313 C 164.097656 113.273438 164.582031 112.617188 164.941406 112.617188 C 165.082031 112.617188 165.128906 112.726563 165.128906 112.851563 C 165.128906 113.164063 164.566406 115.007813 164.566406 115.195313 C 164.566406 115.414063 164.582031 115.632813 164.925781 115.632813 C 165.347656 115.632813 165.613281 115.289063 165.988281 114.789063 Z M 165.878906 114.679688 "
       id="path257" />
    <path
       style=" stroke:none;fill-rule:nonzero;fill:rgb(12.940979%,11.764526%,11.764526%);fill-opacity:1;"
       d="M 169.757813 112.507813 L 169.289063 112.507813 C 169.242188 112.507813 169.179688 112.429688 169.039063 112.367188 C 168.914063 112.289063 168.710938 112.226563 168.414063 112.226563 C 167.789063 112.226563 166.914063 112.664063 166.914063 113.523438 C 166.914063 114.039063 167.226563 114.226563 167.507813 114.335938 C 167.242188 114.523438 166.929688 114.742188 166.929688 114.976563 C 166.929688 115.117188 167.039063 115.210938 167.132813 115.273438 C 166.492188 115.695313 166.242188 115.851563 166.242188 116.289063 C 166.242188 116.710938 166.648438 117.132813 167.460938 117.132813 C 168.507813 117.132813 169.101563 116.664063 169.101563 116.023438 C 169.101563 114.976563 167.476563 115.101563 167.476563 114.695313 C 167.476563 114.601563 167.648438 114.398438 167.757813 114.398438 C 167.851563 114.398438 167.960938 114.429688 168.054688 114.429688 C 168.726563 114.429688 169.445313 113.804688 169.445313 113.242188 C 169.445313 113.085938 169.429688 112.945313 169.382813 112.789063 L 169.757813 112.789063 Z M 168.648438 116.242188 C 168.648438 116.617188 168.273438 116.960938 167.585938 116.960938 C 167.476563 116.960938 166.664063 116.929688 166.664063 116.226563 C 166.664063 116.054688 166.664063 115.851563 166.960938 115.585938 C 166.992188 115.570313 167.242188 115.351563 167.289063 115.351563 C 167.351563 115.351563 168.085938 115.632813 168.226563 115.710938 C 168.367188 115.773438 168.648438 115.898438 168.648438 116.242188 Z M 168.851563 112.914063 C 168.851563 113.539063 168.460938 114.273438 167.960938 114.273438 C 167.632813 114.273438 167.492188 114.023438 167.492188 113.679688 C 167.492188 113.164063 167.835938 112.398438 168.414063 112.398438 C 168.726563 112.398438 168.851563 112.617188 168.851563 112.914063 Z M 168.851563 112.914063 "
       id="path259" />
  </g>
</svg>
