<?xml version="1.0" encoding="UTF-8" standalone="no"?>
<svg
   xmlns:dc="http://purl.org/dc/elements/1.1/"
   xmlns:cc="http://creativecommons.org/ns#"
   xmlns:rdf="http://www.w3.org/1999/02/22-rdf-syntax-ns#"
   xmlns:svg="http://www.w3.org/2000/svg"
   xmlns="http://www.w3.org/2000/svg"
   xmlns:sodipodi="http://sodipodi.sourceforge.net/DTD/sodipodi-0.dtd"
   xmlns:inkscape="http://www.inkscape.org/namespaces/inkscape"
   width="207.062927pt"
   height="75.424255pt"
   viewBox="0 0 207.062927 75.424255"
   version="1.2"
   id="svg106"
   sodipodi:docname="parameter_log_likelihood.svg"
   inkscape:version="0.92.4 (5da689c313, 2019-01-14)">
  <metadata
     id="metadata110">
    <rdf:RDF>
      <cc:Work
         rdf:about="">
        <dc:format>image/svg+xml</dc:format>
        <dc:type
           rdf:resource="http://purl.org/dc/dcmitype/StillImage" />
        <dc:title></dc:title>
      </cc:Work>
    </rdf:RDF>
  </metadata>
  <sodipodi:namedview
     pagecolor="#ffffff"
     bordercolor="#666666"
     borderopacity="1"
     objecttolerance="10"
     gridtolerance="10"
     guidetolerance="10"
     inkscape:pageopacity="0"
     inkscape:pageshadow="2"
     inkscape:window-width="661"
     inkscape:window-height="480"
     id="namedview108"
     showgrid="false"
     inkscape:zoom="1.1373354"
     inkscape:cx="138.04195"
     inkscape:cy="50.282837"
     inkscape:window-x="0"
     inkscape:window-y="0"
     inkscape:window-maximized="0"
     inkscape:current-layer="svg106" />
  <defs
     id="defs11">
    <clipPath
       id="clip1">
      <path
         d="M 16 12 L 18 12 L 18 75.425781 L 16 75.425781 Z M 16 12 "
         id="path2" />
    </clipPath>
    <clipPath
       id="clip2">
      <path
         d="M 16 10 L 17 10 L 17 75.425781 L 16 75.425781 Z M 16 10 "
         id="path5" />
    </clipPath>
    <clipPath
       id="clip3">
      <path
         d="M 202 51 L 207.0625 51 L 207.0625 59 L 202 59 Z M 202 51 "
         id="path8" />
    </clipPath>
  </defs>
  <g
     id="surface54">
    <path
       style=" stroke:none;fill-rule:nonzero;fill:rgb(0%,0%,0%);fill-opacity:1;"
       d="M 39.929688 66.890625 L 42.164063 66.890625 L 42.164063 66.765625 C 41.757813 66.78125 41.476563 66.75 41.476563 66.5 C 41.476563 66.375 41.585938 66.078125 41.617188 65.921875 L 42.757813 61.765625 C 42.804688 61.640625 42.835938 61.484375 42.773438 61.484375 C 42.710938 61.484375 41.601563 61.71875 41.226563 61.78125 L 41.226563 61.90625 L 41.679688 61.890625 C 41.757813 61.890625 41.992188 61.890625 41.992188 62.140625 C 41.992188 62.203125 41.960938 62.328125 41.929688 62.40625 L 40.820313 66.34375 C 40.726563 66.703125 40.398438 66.734375 39.929688 66.78125 Z M 39.929688 66.890625 "
       id="path13" />
    <path
       style=" stroke:none;fill-rule:nonzero;fill:rgb(0%,0%,0%);fill-opacity:1;"
       d="M 69 65.78125 C 68.859375 66.0625 68.734375 66.28125 68.203125 66.28125 L 66.6875 66.28125 L 66.6875 66.25 L 68.21875 64.703125 C 69.21875 63.71875 69.40625 63.359375 69.40625 62.8125 C 69.40625 62.21875 68.96875 61.484375 68.109375 61.484375 C 67.921875 61.484375 66.875 61.515625 66.4375 62.765625 L 66.609375 62.8125 C 66.71875 62.625 67.015625 62.0625 67.734375 62.0625 C 68.359375 62.0625 68.71875 62.546875 68.71875 63.046875 C 68.71875 63.3125 68.6875 63.765625 67.578125 64.96875 L 65.890625 66.75 L 65.890625 66.890625 L 68.734375 66.890625 L 69.140625 65.828125 Z M 69 65.78125 "
       id="path15" />
    <path
       style=" stroke:none;fill-rule:nonzero;fill:rgb(0%,0%,0%);fill-opacity:1;"
       d="M 92.675781 62.359375 C 92.800781 62.1875 93.082031 61.8125 93.582031 61.8125 C 93.878906 61.8125 94.285156 62.015625 94.285156 62.546875 C 94.285156 63.40625 93.160156 63.765625 92.363281 63.875 L 92.378906 64 C 93.144531 63.953125 93.847656 64.25 93.847656 65.359375 C 93.847656 66.375 93.097656 66.640625 92.832031 66.640625 C 92.378906 66.640625 92.113281 66.15625 91.753906 66.15625 C 91.457031 66.15625 91.378906 66.3125 91.378906 66.46875 C 91.378906 66.828125 91.816406 66.953125 92.285156 66.953125 C 93.769531 66.953125 94.488281 65.8125 94.488281 64.921875 C 94.488281 64.046875 93.941406 63.796875 93.738281 63.703125 L 93.738281 63.6875 C 94.566406 63.375 94.972656 63.09375 94.972656 62.484375 C 94.972656 61.8125 94.394531 61.484375 93.800781 61.484375 C 93.347656 61.484375 92.753906 61.828125 92.550781 62.3125 Z M 92.675781 62.359375 "
       id="path17" />
    <path
       style=" stroke:none;fill-rule:nonzero;fill:rgb(0%,0%,0%);fill-opacity:1;"
       d="M 118.933594 64.96875 L 117.230469 64.96875 L 117.230469 64.9375 L 119.667969 62.390625 L 119.699219 62.390625 Z M 120.339844 64.96875 L 119.574219 64.96875 L 120.542969 61.484375 L 120.214844 61.484375 L 116.886719 64.9375 L 116.730469 65.46875 L 118.824219 65.46875 L 118.433594 66.890625 L 119.058594 66.890625 L 119.433594 65.484375 L 120.230469 65.484375 Z M 120.339844 64.96875 "
       id="path19" />
    <path
       style=" stroke:none;fill-rule:nonzero;fill:rgb(0%,0%,0%);fill-opacity:1;"
       d="M 144.078125 62.125 L 145.921875 62.125 L 146.09375 61.5625 L 144.046875 61.5625 L 143.21875 63.3125 L 143.21875 63.421875 C 144.140625 63.625 144.96875 63.796875 144.96875 65.03125 C 144.96875 65.71875 144.390625 66.609375 143.609375 66.609375 C 143.171875 66.609375 142.96875 66.171875 142.609375 66.171875 C 142.453125 66.171875 142.296875 66.265625 142.296875 66.5 C 142.296875 66.71875 142.53125 66.953125 143.109375 66.953125 C 144.671875 66.953125 145.53125 65.71875 145.53125 64.6875 C 145.53125 63.625 144.796875 63.046875 143.765625 62.828125 Z M 144.078125 62.125 "
       id="path21" />
    <path
       style=" stroke:none;fill-rule:nonzero;fill:rgb(0%,0%,0%);fill-opacity:1;"
       d="M 171.789063 61.40625 C 169.351563 61.5625 167.867188 63.5625 167.867188 65.203125 C 167.867188 66.515625 168.664063 66.953125 169.320313 66.953125 C 170.679688 66.953125 171.320313 65.59375 171.320313 64.78125 C 171.320313 63.65625 170.507813 63.3125 169.976563 63.3125 C 169.835938 63.3125 169.726563 63.328125 169.601563 63.359375 C 169.476563 63.390625 169.367188 63.421875 169.257813 63.484375 L 169.226563 63.46875 C 169.414063 63.0625 170.398438 61.71875 171.804688 61.53125 Z M 169.664063 63.609375 C 170.273438 63.609375 170.601563 63.984375 170.601563 64.640625 C 170.601563 65.359375 170.179688 66.734375 169.257813 66.734375 C 168.476563 66.734375 168.476563 65.84375 168.476563 65.640625 C 168.476563 65.5 168.554688 63.609375 169.664063 63.609375 Z M 169.664063 63.609375 "
       id="path23" />
    <path
       style=" stroke:none;fill-rule:nonzero;fill:rgb(0%,0%,0%);fill-opacity:1;"
       d="M 196.585938 61.640625 L 196.539063 61.5625 L 193.539063 61.5625 L 192.882813 62.65625 L 193.007813 62.71875 C 193.273438 62.40625 193.492188 62.140625 194.070313 62.140625 L 195.835938 62.140625 L 195.851563 62.171875 L 192.914063 66.953125 L 193.476563 66.953125 Z M 196.585938 61.640625 "
       id="path25" />
    <path
       style="fill:none;stroke-width:0.415;stroke-linecap:round;stroke-linejoin:round;stroke:rgb(0%,0%,0%);stroke-opacity:1;stroke-miterlimit:4;"
       d="M 41.953125 56.210938 L 41.953125 54.878906 M 67.304688 56.210938 L 67.304688 54.878906 M 92.65625 56.210938 L 92.65625 54.878906 M 118.007813 56.210938 L 118.007813 54.878906 M 143.359375 56.210938 L 143.359375 54.878906 M 168.710938 56.210938 L 168.710938 54.878906 M 194.0625 56.210938 L 194.0625 54.878906 "
       id="path27" />
    <path
       style="fill:none;stroke-width:0.208;stroke-linecap:round;stroke-linejoin:round;stroke:rgb(0%,0%,0%);stroke-opacity:1;stroke-miterlimit:4;"
       d="M 21.671875 56.210938 L 21.671875 55.410156 M 26.742188 56.210938 L 26.742188 55.410156 M 31.8125 56.210938 L 31.8125 55.410156 M 36.882813 56.210938 L 36.882813 55.410156 M 47.023438 56.210938 L 47.023438 55.410156 M 52.09375 56.210938 L 52.09375 55.410156 M 57.164063 56.210938 L 57.164063 55.410156 M 62.234375 56.210938 L 62.234375 55.410156 M 72.375 56.210938 L 72.375 55.410156 M 77.445313 56.210938 L 77.445313 55.410156 M 82.515625 56.210938 L 82.515625 55.410156 M 87.585938 56.210938 L 87.585938 55.410156 M 97.726563 56.210938 L 97.726563 55.410156 M 102.796875 56.210938 L 102.796875 55.410156 M 107.867188 56.210938 L 107.867188 55.410156 M 112.9375 56.210938 L 112.9375 55.410156 M 123.078125 56.210938 L 123.078125 55.410156 M 128.148438 56.210938 L 128.148438 55.410156 M 133.21875 56.210938 L 133.21875 55.410156 M 138.289063 56.210938 L 138.289063 55.410156 M 148.429688 56.210938 L 148.429688 55.410156 M 153.5 56.210938 L 153.5 55.410156 M 158.570313 56.210938 L 158.570313 55.410156 M 163.640625 56.210938 L 163.640625 55.410156 M 173.78125 56.210938 L 173.78125 55.410156 M 178.851563 56.210938 L 178.851563 55.410156 M 183.921875 56.210938 L 183.921875 55.410156 M 188.992188 56.210938 L 188.992188 55.410156 "
       id="path29" />
    <path
       style="fill:none;stroke-width:0.415;stroke-linecap:round;stroke-linejoin:round;stroke:rgb(0%,0%,0%);stroke-opacity:1;stroke-miterlimit:4;"
       d="M 16.964844 56.210938 L 198.5 56.210938 "
       id="path31" />
    <path
       style=" stroke:none;fill-rule:nonzero;fill:rgb(0%,0%,0%);fill-opacity:1;"
       d="M 199.480469 55.785156 C 198.792969 55.578125 198.347656 55.390625 197.796875 55.167969 L 197.796875 57.261719 C 197.992188 57.167969 198.792969 56.851563 199.480469 56.644531 C 200.214844 56.421875 200.882813 56.269531 201.316406 56.214844 C 200.882813 56.160156 200.214844 56.007813 199.480469 55.785156 "
       id="path33" />
    <path
       style="fill:none;stroke-width:0.415;stroke-linecap:round;stroke-linejoin:round;stroke:rgb(0%,0%,0%);stroke-opacity:1;stroke-miterlimit:4;"
       d="M 16.601563 69.761719 L 17.765625 69.761719 "
       id="path35" />
    <path
       style=" stroke:none;fill-rule:nonzero;fill:rgb(0%,0%,0%);fill-opacity:1;"
       d="M 1.859375 70.59375 L 0.109375 70.59375 L 0 71.109375 L 1.765625 71.109375 Z M 1.859375 70.59375 "
       id="path37" />
    <path
       style=" stroke:none;fill-rule:nonzero;fill:rgb(0%,0%,0%);fill-opacity:1;"
       d="M 2.664063 72.640625 L 4.898438 72.640625 L 4.898438 72.515625 C 4.492188 72.53125 4.210938 72.5 4.210938 72.25 C 4.210938 72.125 4.320313 71.828125 4.351563 71.671875 L 5.492188 67.515625 C 5.539063 67.390625 5.570313 67.234375 5.507813 67.234375 C 5.445313 67.234375 4.335938 67.46875 3.960938 67.53125 L 3.960938 67.65625 L 4.414063 67.640625 C 4.492188 67.640625 4.726563 67.640625 4.726563 67.890625 C 4.726563 67.953125 4.695313 68.078125 4.664063 68.15625 L 3.554688 72.09375 C 3.460938 72.453125 3.132813 72.484375 2.664063 72.53125 Z M 2.664063 72.640625 "
       id="path39" />
    <path
       style=" stroke:none;fill-rule:nonzero;fill:rgb(0%,0%,0%);fill-opacity:1;"
       d="M 7.164063 71.390625 C 7.164063 70.609375 7.742188 67.453125 8.929688 67.453125 C 9.617188 67.453125 9.617188 68.265625 9.617188 68.515625 C 9.617188 69.90625 8.929688 72.46875 7.851563 72.46875 C 7.601563 72.46875 7.164063 72.328125 7.164063 71.390625 Z M 10.242188 69.234375 C 10.242188 68.453125 10.039063 67.234375 8.976563 67.234375 C 7.851563 67.234375 6.523438 68.875 6.523438 71.046875 C 6.523438 71.875 6.992188 72.703125 7.820313 72.703125 C 9.164063 72.703125 10.242188 70.8125 10.242188 69.234375 Z M 10.242188 69.234375 "
       id="path41" />
    <path
       style=" stroke:none;fill-rule:nonzero;fill:rgb(0%,0%,0%);fill-opacity:1;"
       d="M 11.164063 71.390625 C 11.164063 70.609375 11.742188 67.453125 12.929688 67.453125 C 13.617188 67.453125 13.617188 68.265625 13.617188 68.515625 C 13.617188 69.90625 12.929688 72.46875 11.851563 72.46875 C 11.601563 72.46875 11.164063 72.328125 11.164063 71.390625 Z M 14.242188 69.234375 C 14.242188 68.453125 14.039063 67.234375 12.976563 67.234375 C 11.851563 67.234375 10.523438 68.875 10.523438 71.046875 C 10.523438 71.875 10.992188 72.703125 11.820313 72.703125 C 13.164063 72.703125 14.242188 70.8125 14.242188 69.234375 Z M 14.242188 69.234375 "
       id="path43" />
    <path
       style="fill:none;stroke-width:0.415;stroke-linecap:round;stroke-linejoin:round;stroke:rgb(0%,0%,0%);stroke-opacity:1;stroke-miterlimit:4;"
       d="M 16.601563 42.667969 L 17.765625 42.667969 "
       id="path45" />
    <path
       style=" stroke:none;fill-rule:nonzero;fill:rgb(0%,0%,0%);fill-opacity:1;"
       d="M 5.859375 43.496094 L 4.109375 43.496094 L 4 44.011719 L 5.765625 44.011719 Z M 5.859375 43.496094 "
       id="path47" />
    <path
       style=" stroke:none;fill-rule:nonzero;fill:rgb(0%,0%,0%);fill-opacity:1;"
       d="M 10.429688 40.058594 C 7.992188 40.214844 6.507813 42.214844 6.507813 43.855469 C 6.507813 45.167969 7.304688 45.605469 7.960938 45.605469 C 9.320313 45.605469 9.960938 44.246094 9.960938 43.433594 C 9.960938 42.308594 9.148438 41.964844 8.617188 41.964844 C 8.476563 41.964844 8.367188 41.980469 8.242188 42.011719 C 8.117188 42.042969 8.007813 42.074219 7.898438 42.136719 L 7.867188 42.121094 C 8.054688 41.714844 9.039063 40.371094 10.445313 40.183594 Z M 8.304688 42.261719 C 8.914063 42.261719 9.242188 42.636719 9.242188 43.292969 C 9.242188 44.011719 8.820313 45.386719 7.898438 45.386719 C 7.117188 45.386719 7.117188 44.496094 7.117188 44.292969 C 7.117188 44.152344 7.195313 42.261719 8.304688 42.261719 Z M 8.304688 42.261719 "
       id="path49" />
    <path
       style=" stroke:none;fill-rule:nonzero;fill:rgb(0%,0%,0%);fill-opacity:1;"
       d="M 11.164063 44.292969 C 11.164063 43.511719 11.742188 40.355469 12.929688 40.355469 C 13.617188 40.355469 13.617188 41.167969 13.617188 41.417969 C 13.617188 42.808594 12.929688 45.371094 11.851563 45.371094 C 11.601563 45.371094 11.164063 45.230469 11.164063 44.292969 Z M 14.242188 42.136719 C 14.242188 41.355469 14.039063 40.136719 12.976563 40.136719 C 11.851563 40.136719 10.523438 41.777344 10.523438 43.949219 C 10.523438 44.777344 10.992188 45.605469 11.820313 45.605469 C 13.164063 45.605469 14.242188 43.714844 14.242188 42.136719 Z M 14.242188 42.136719 "
       id="path51" />
    <path
       style="fill:none;stroke-width:0.415;stroke-linecap:round;stroke-linejoin:round;stroke:rgb(0%,0%,0%);stroke-opacity:1;stroke-miterlimit:4;"
       d="M 16.601563 29.117188 L 17.765625 29.117188 "
       id="path53" />
    <path
       style=" stroke:none;fill-rule:nonzero;fill:rgb(0%,0%,0%);fill-opacity:1;"
       d="M 5.859375 29.949219 L 4.109375 29.949219 L 4 30.464844 L 5.765625 30.464844 Z M 5.859375 29.949219 "
       id="path55" />
    <path
       style=" stroke:none;fill-rule:nonzero;fill:rgb(0%,0%,0%);fill-opacity:1;"
       d="M 8.492188 30.074219 L 6.789063 30.074219 L 6.789063 30.042969 L 9.226563 27.496094 L 9.257813 27.496094 Z M 9.898438 30.074219 L 9.132813 30.074219 L 10.101563 26.589844 L 9.773438 26.589844 L 6.445313 30.042969 L 6.289063 30.574219 L 8.382813 30.574219 L 7.992188 31.996094 L 8.617188 31.996094 L 8.992188 30.589844 L 9.789063 30.589844 Z M 9.898438 30.074219 "
       id="path57" />
    <path
       style=" stroke:none;fill-rule:nonzero;fill:rgb(0%,0%,0%);fill-opacity:1;"
       d="M 11.164063 30.746094 C 11.164063 29.964844 11.742188 26.808594 12.929688 26.808594 C 13.617188 26.808594 13.617188 27.621094 13.617188 27.871094 C 13.617188 29.261719 12.929688 31.824219 11.851563 31.824219 C 11.601563 31.824219 11.164063 31.683594 11.164063 30.746094 Z M 14.242188 28.589844 C 14.242188 27.808594 14.039063 26.589844 12.976563 26.589844 C 11.851563 26.589844 10.523438 28.230469 10.523438 30.402344 C 10.523438 31.230469 10.992188 32.058594 11.820313 32.058594 C 13.164063 32.058594 14.242188 30.167969 14.242188 28.589844 Z M 14.242188 28.589844 "
       id="path59" />
    <path
       style="fill:none;stroke-width:0.415;stroke-linecap:round;stroke-linejoin:round;stroke:rgb(0%,0%,0%);stroke-opacity:1;stroke-miterlimit:4;"
       d="M 16.601563 15.570313 L 17.765625 15.570313 "
       id="path61" />
    <path
       style=" stroke:none;fill-rule:nonzero;fill:rgb(0%,0%,0%);fill-opacity:1;"
       d="M 5.859375 16.402344 L 4.109375 16.402344 L 4 16.917969 L 5.765625 16.917969 Z M 5.859375 16.402344 "
       id="path63" />
    <path
       style=" stroke:none;fill-rule:nonzero;fill:rgb(0%,0%,0%);fill-opacity:1;"
       d="M 9.476563 17.339844 C 9.335938 17.621094 9.210938 17.839844 8.679688 17.839844 L 7.164063 17.839844 L 7.164063 17.808594 L 8.695313 16.261719 C 9.695313 15.277344 9.882813 14.917969 9.882813 14.371094 C 9.882813 13.777344 9.445313 13.042969 8.585938 13.042969 C 8.398438 13.042969 7.351563 13.074219 6.914063 14.324219 L 7.085938 14.371094 C 7.195313 14.183594 7.492188 13.621094 8.210938 13.621094 C 8.835938 13.621094 9.195313 14.105469 9.195313 14.605469 C 9.195313 14.871094 9.164063 15.324219 8.054688 16.527344 L 6.367188 18.308594 L 6.367188 18.449219 L 9.210938 18.449219 L 9.617188 17.386719 Z M 9.476563 17.339844 "
       id="path65" />
    <path
       style=" stroke:none;fill-rule:nonzero;fill:rgb(0%,0%,0%);fill-opacity:1;"
       d="M 11.164063 17.199219 C 11.164063 16.417969 11.742188 13.261719 12.929688 13.261719 C 13.617188 13.261719 13.617188 14.074219 13.617188 14.324219 C 13.617188 15.714844 12.929688 18.277344 11.851563 18.277344 C 11.601563 18.277344 11.164063 18.136719 11.164063 17.199219 Z M 14.242188 15.042969 C 14.242188 14.261719 14.039063 13.042969 12.976563 13.042969 C 11.851563 13.042969 10.523438 14.683594 10.523438 16.855469 C 10.523438 17.683594 10.992188 18.511719 11.820313 18.511719 C 13.164063 18.511719 14.242188 16.621094 14.242188 15.042969 Z M 14.242188 15.042969 "
       id="path67" />
    <g
       clip-path="url(#clip1)"
       clip-rule="nonzero"
       id="g71">
      <path
         style="fill:none;stroke-width:0.208;stroke-linecap:round;stroke-linejoin:round;stroke:rgb(0%,0%,0%);stroke-opacity:1;stroke-miterlimit:4;"
         d="M 16.601563 67.050781 L 17.300781 67.050781 M 16.601563 64.34375 L 17.300781 64.34375 M 16.601563 61.632813 L 17.300781 61.632813 M 16.601563 58.921875 L 17.300781 58.921875 M 16.601563 53.503906 L 17.300781 53.503906 M 16.601563 50.792969 L 17.300781 50.792969 M 16.601563 48.085938 L 17.300781 48.085938 M 16.601563 45.375 L 17.300781 45.375 M 16.601563 39.957031 L 17.300781 39.957031 M 16.601563 37.246094 L 17.300781 37.246094 M 16.601563 34.535156 L 17.300781 34.535156 M 16.601563 31.828125 L 17.300781 31.828125 M 16.601563 26.40625 L 17.300781 26.40625 M 16.601563 23.699219 L 17.300781 23.699219 M 16.601563 20.988281 L 17.300781 20.988281 M 16.601563 18.28125 L 17.300781 18.28125 M 16.601563 72.46875 L 17.300781 72.46875 M 16.601563 75.179688 L 17.300781 75.179688 M 16.601563 12.859375 L 17.300781 12.859375 "
         id="path69" />
    </g>
    <g
       clip-path="url(#clip2)"
       clip-rule="nonzero"
       id="g75">
      <path
         style="fill:none;stroke-width:0.415;stroke-linecap:round;stroke-linejoin:round;stroke:rgb(0%,0%,0%);stroke-opacity:1;stroke-miterlimit:4;"
         d="M 16.601563 75.214844 L 16.601563 11.132813 "
         id="path73" />
    </g>
    <path
       style="fill:none;stroke-width:0.831;stroke-linecap:round;stroke-linejoin:round;stroke:rgb(0%,0%,0%);stroke-opacity:1;stroke-miterlimit:4;"
       d="M 16.601563 52.351563 L 36.320313 35.050781 L 46.179688 28.246094 L 56.039063 22.671875 L 65.894531 18.324219 L 70.824219 16.613281 L 75.753906 15.207031 L 80.683594 14.109375 L 83.148438 13.675781 L 85.613281 13.320313 L 88.078125 13.039063 L 89.308594 12.929688 L 90.542969 12.835938 L 91.777344 12.765625 L 92.390625 12.734375 L 93.007813 12.710938 L 93.625 12.691406 L 94.242188 12.679688 L 94.855469 12.667969 L 95.472656 12.660156 L 96.089844 12.660156 L 96.703125 12.664063 L 97.9375 12.6875 L 98.550781 12.707031 L 99.167969 12.730469 L 100.402344 12.792969 L 101.632813 12.875 L 102.867188 12.976563 L 105.332031 13.234375 L 107.796875 13.566406 L 110.261719 13.976563 L 115.191406 15.03125 L 120.121094 16.394531 L 125.050781 18.0625 L 134.910156 22.320313 L 144.765625 27.808594 L 154.625 34.527344 L 174.34375 51.648438 L 194.0625 73.691406 "
       id="path77" />
    <g
       clip-path="url(#clip3)"
       clip-rule="nonzero"
       id="g81">
      <path
         style=" stroke:none;fill-rule:nonzero;fill:rgb(12.940979%,11.764526%,11.764526%);fill-opacity:1;"
         d="M 207.0625 53.78125 C 207.0625 52.625 206.625 51.734375 205.8125 51.734375 C 204.375 51.734375 202.890625 54.390625 202.890625 56.53125 C 202.890625 57.453125 203.203125 58.578125 204.15625 58.578125 C 205.546875 58.578125 207.0625 55.984375 207.0625 53.78125 Z M 203.96875 55 C 204.40625 53.046875 205.21875 52 205.78125 52 C 206.375 52 206.375 53.015625 206.375 53.203125 C 206.375 53.71875 206.234375 54.421875 206.078125 55 Z M 206 55.3125 C 205.46875 57.515625 204.671875 58.3125 204.171875 58.3125 C 203.671875 58.3125 203.59375 57.671875 203.59375 57.109375 C 203.59375 56.546875 203.734375 55.84375 203.875 55.3125 Z M 206 55.3125 "
         id="path79" />
    </g>
    <path
       style="fill-rule:nonzero;fill:rgb(0%,0%,0%);fill-opacity:1;stroke-width:0.8;stroke-linecap:butt;stroke-linejoin:miter;stroke:rgb(0%,0%,0%);stroke-opacity:1;stroke-miterlimit:4;"
       d="M 16.601563 9.683594 L 15.816406 12.121094 C 15.816406 12.121094 16.195313 11.488281 16.425781 11.363281 L 16.773438 11.414063 C 17.003906 11.542969 17.382813 12.179688 17.382813 12.179688 L 16.601563 9.683594 "
       id="path83" />
    <path
       style=" stroke:none;fill-rule:nonzero;fill:rgb(12.940979%,11.764526%,11.764526%);fill-opacity:1;"
       d="M 12.125 5.5625 C 11.65625 6.171875 11.453125 6.4375 11.21875 6.4375 C 11.0625 6.4375 11.0625 6.3125 11.0625 6.25 C 11.0625 6.140625 11.140625 5.890625 11.171875 5.796875 L 12.609375 0.25 L 12.5625 0.203125 C 12.0625 0.3125 11.5625 0.40625 11.0625 0.453125 L 11.0625 0.609375 C 11.3125 0.59375 11.71875 0.59375 11.71875 0.84375 C 11.71875 1.046875 10.328125 6.0625 10.328125 6.265625 C 10.328125 6.53125 10.375 6.859375 10.796875 6.859375 C 11.390625 6.859375 11.765625 6.390625 12.25 5.65625 Z M 12.125 5.5625 "
       id="path85" />
    <path
       style=" stroke:none;fill-rule:nonzero;fill:rgb(12.940979%,11.764526%,11.764526%);fill-opacity:1;"
       d="M 14.136719 8.421875 C 13.667969 7.25 13.667969 6.40625 13.667969 5.765625 C 13.667969 5.15625 13.839844 3.859375 14.214844 2.78125 C 14.683594 1.46875 15.167969 0.953125 15.621094 0.46875 L 15.496094 0.328125 C 13.761719 1.8125 13.011719 3.3125 13.011719 4.890625 C 13.011719 5.515625 13.011719 6.90625 13.964844 8.484375 Z M 14.136719 8.421875 "
       id="path87" />
    <path
       style=" stroke:none;fill-rule:nonzero;fill:rgb(12.940979%,11.764526%,11.764526%);fill-opacity:1;"
       d="M 19.914063 2.046875 C 19.914063 0.890625 19.476563 0 18.664063 0 C 17.226563 0 15.742188 2.65625 15.742188 4.796875 C 15.742188 5.71875 16.054688 6.84375 17.007813 6.84375 C 18.398438 6.84375 19.914063 4.25 19.914063 2.046875 Z M 16.820313 3.265625 C 17.257813 1.3125 18.070313 0.265625 18.632813 0.265625 C 19.226563 0.265625 19.226563 1.28125 19.226563 1.46875 C 19.226563 1.984375 19.085938 2.6875 18.929688 3.265625 Z M 18.851563 3.578125 C 18.320313 5.78125 17.523438 6.578125 17.023438 6.578125 C 16.523438 6.578125 16.445313 5.9375 16.445313 5.375 C 16.445313 4.8125 16.585938 4.109375 16.726563 3.578125 Z M 18.851563 3.578125 "
       id="path89" />
    <path
       style=" stroke:none;fill-rule:nonzero;fill:rgb(12.940979%,11.764526%,11.764526%);fill-opacity:1;"
       d="M 21.800781 8.484375 C 23.222656 7.328125 24.285156 5.75 24.285156 3.921875 C 24.285156 2.6875 24.035156 1.453125 23.347656 0.328125 L 23.160156 0.375 C 23.410156 0.90625 23.628906 1.859375 23.628906 2.890625 C 23.628906 3.734375 23.472656 4.875 23.082031 6.046875 C 22.644531 7.3125 22.097656 7.890625 21.675781 8.328125 Z M 21.800781 8.484375 "
       id="path91" />
    <path
       style=" stroke:none;fill-rule:nonzero;fill:rgb(12.940979%,11.764526%,11.764526%);fill-opacity:1;"
       d="M 97.746094 34.472656 C 97.746094 33.316406 97.308594 32.425781 96.496094 32.425781 C 95.058594 32.425781 93.574219 35.082031 93.574219 37.222656 C 93.574219 38.144531 93.886719 39.269531 94.839844 39.269531 C 96.230469 39.269531 97.746094 36.675781 97.746094 34.472656 Z M 94.652344 35.691406 C 95.089844 33.738281 95.902344 32.691406 96.464844 32.691406 C 97.058594 32.691406 97.058594 33.707031 97.058594 33.894531 C 97.058594 34.410156 96.917969 35.113281 96.761719 35.691406 Z M 96.683594 36.003906 C 96.152344 38.207031 95.355469 39.003906 94.855469 39.003906 C 94.355469 39.003906 94.277344 38.363281 94.277344 37.800781 C 94.277344 37.238281 94.417969 36.535156 94.558594 36.003906 Z M 96.683594 36.003906 "
       id="path93" />
    <path
       style=" stroke:none;fill-rule:nonzero;fill:rgb(0%,0%,0%);fill-opacity:1;"
       d="M 96.886719 53.375 C 97.289063 52.050781 97.65625 51.191406 98.082031 50.128906 L 94.046875 50.128906 C 94.226563 50.511719 94.839844 52.050781 95.238281 53.375 C 95.667969 54.789063 95.960938 56.074219 96.0625 56.90625 C 96.167969 56.074219 96.460938 54.789063 96.886719 53.375 "
       id="path95" />
    <path
       style=" stroke:none;fill-rule:nonzero;fill:rgb(0%,0%,0%);fill-opacity:1;"
       d="M 4.800781 57.171875 L 3.050781 57.171875 L 2.941406 57.6875 L 4.707031 57.6875 Z M 4.800781 57.171875 "
       id="path97" />
    <path
       style=" stroke:none;fill-rule:nonzero;fill:rgb(0%,0%,0%);fill-opacity:1;"
       d="M 5.449219 57.96875 C 5.449219 58.203125 5.621094 59.28125 7.058594 59.28125 C 8.121094 59.28125 8.761719 58.5625 8.761719 57.875 C 8.761719 57.25 8.449219 56.765625 7.839844 56.15625 C 8.292969 56.015625 9.152344 55.734375 9.152344 54.953125 C 9.152344 54.078125 8.292969 53.8125 7.761719 53.8125 C 7.011719 53.8125 6.324219 54.203125 6.324219 55.03125 C 6.324219 55.4375 6.527344 55.8125 7.011719 56.34375 C 6.824219 56.390625 5.449219 56.796875 5.449219 57.96875 Z M 5.996094 57.984375 C 5.996094 56.96875 6.980469 56.53125 7.183594 56.46875 C 7.964844 57.265625 8.167969 57.46875 8.167969 58 C 8.167969 58.765625 7.542969 59.09375 7.105469 59.09375 C 6.417969 59.09375 5.996094 58.625 5.996094 57.984375 Z M 6.949219 54.875 C 6.949219 54.34375 7.246094 54 7.761719 54 C 8.402344 54 8.621094 54.546875 8.621094 54.9375 C 8.621094 55.59375 8.136719 55.8125 7.699219 56.03125 C 6.949219 55.34375 6.949219 55.09375 6.949219 54.875 Z M 6.949219 54.875 "
       id="path99" />
    <path
       style=" stroke:none;fill-rule:nonzero;fill:rgb(0%,0%,0%);fill-opacity:1;"
       d="M 10.105469 57.96875 C 10.105469 57.1875 10.683594 54.03125 11.871094 54.03125 C 12.558594 54.03125 12.558594 54.84375 12.558594 55.09375 C 12.558594 56.484375 11.871094 59.046875 10.792969 59.046875 C 10.542969 59.046875 10.105469 58.90625 10.105469 57.96875 Z M 13.183594 55.8125 C 13.183594 55.03125 12.980469 53.8125 11.917969 53.8125 C 10.792969 53.8125 9.464844 55.453125 9.464844 57.625 C 9.464844 58.453125 9.933594 59.28125 10.761719 59.28125 C 12.105469 59.28125 13.183594 57.390625 13.183594 55.8125 Z M 13.183594 55.8125 "
       id="path101" />
    <path
       style=" stroke:none;fill-rule:nonzero;fill:rgb(0%,0%,0%);fill-opacity:1;"
       d="M 98.292969 30.707031 L 96.886719 28.847656 L 96.199219 28.847656 L 94.808594 30.707031 L 95.183594 30.707031 L 96.542969 29.566406 L 97.902344 30.707031 Z M 98.292969 30.707031 "
       id="path103" />
  </g>
</svg>
