<?xml version="1.0" encoding="UTF-8" standalone="no"?>
<svg
   xmlns:dc="http://purl.org/dc/elements/1.1/"
   xmlns:cc="http://creativecommons.org/ns#"
   xmlns:rdf="http://www.w3.org/1999/02/22-rdf-syntax-ns#"
   xmlns:svg="http://www.w3.org/2000/svg"
   xmlns="http://www.w3.org/2000/svg"
   xmlns:sodipodi="http://sodipodi.sourceforge.net/DTD/sodipodi-0.dtd"
   xmlns:inkscape="http://www.inkscape.org/namespaces/inkscape"
   width="292.779755pt"
   height="128.465637pt"
   viewBox="0 0 292.779755 128.465637"
   version="1.2"
   id="svg232"
   sodipodi:docname="three_layer_decision_space.svg"
   inkscape:version="0.92.4 (5da689c313, 2019-01-14)">
  <metadata
     id="metadata236">
    <rdf:RDF>
      <cc:Work
         rdf:about="">
        <dc:format>image/svg+xml</dc:format>
        <dc:type
           rdf:resource="http://purl.org/dc/dcmitype/StillImage" />
        <dc:title></dc:title>
      </cc:Work>
    </rdf:RDF>
  </metadata>
  <sodipodi:namedview
     pagecolor="#ffffff"
     bordercolor="#666666"
     borderopacity="1"
     objecttolerance="10"
     gridtolerance="10"
     guidetolerance="10"
     inkscape:pageopacity="0"
     inkscape:pageshadow="2"
     inkscape:window-width="640"
     inkscape:window-height="480"
     id="namedview234"
     showgrid="false"
     inkscape:zoom="0.88120847"
     inkscape:cx="195.1865"
     inkscape:cy="85.643758"
     inkscape:window-x="0"
     inkscape:window-y="0"
     inkscape:window-maximized="0"
     inkscape:current-layer="svg232" />
  <defs
     id="defs5">
    <clipPath
       id="clip1">
      <path
         d="M 290 124 L 292.78125 124 L 292.78125 128.464844 L 290 128.464844 Z M 290 124 "
         id="path2" />
    </clipPath>
  </defs>
  <g
     id="surface28">
    <path
       style="fill:none;stroke-width:0.318;stroke-linecap:round;stroke-linejoin:round;stroke:rgb(0%,0%,0%);stroke-opacity:1;stroke-miterlimit:4;"
       d="M 162.589844 124.410156 L 279.140625 124.410156 "
       id="path7" />
    <path
       style=" stroke:none;fill-rule:nonzero;fill:rgb(0%,0%,0%);fill-opacity:1;"
       d="M 280.644531 123.757813 C 279.589844 123.441406 278.90625 123.148438 278.0625 122.808594 L 278.0625 126.019531 C 278.363281 125.871094 279.589844 125.390625 280.644531 125.070313 C 281.769531 124.730469 282.792969 124.496094 283.457031 124.414063 C 282.792969 124.332031 281.769531 124.097656 280.644531 123.757813 "
       id="path9" />
    <path
       style="fill:none;stroke-width:0.318;stroke-linecap:round;stroke-linejoin:round;stroke:rgb(0%,0%,0%);stroke-opacity:1;stroke-miterlimit:4;"
       d="M 162.589844 124.410156 L 162.589844 11.519531 "
       id="path11" />
    <path
       style=" stroke:none;fill-rule:nonzero;fill:rgb(0%,0%,0%);fill-opacity:1;"
       d="M 161.9375 10.015625 C 161.621094 11.070313 161.328125 11.753906 160.988281 12.597656 L 164.199219 12.597656 C 164.058594 12.296875 163.570313 11.070313 163.25 10.015625 C 162.910156 8.890625 162.679688 7.867188 162.59375 7.203125 C 162.511719 7.867188 162.277344 8.890625 161.9375 10.015625 "
       id="path13" />
    <path
       style="fill:none;stroke-width:0.318;stroke-linecap:round;stroke-linejoin:round;stroke:rgb(0%,0%,0%);stroke-opacity:1;stroke-miterlimit:4;"
       d="M 162.589844 17.996094 L 269.003906 17.996094 M 269.003906 124.410156 L 269.003906 17.996094 "
       id="path15" />
    <path
       style=" stroke:none;fill-rule:nonzero;fill:rgb(79.214478%,79.214478%,79.214478%);fill-opacity:1;"
       d="M 164.636719 20.042969 L 266.957031 20.042969 L 266.957031 122.363281 L 164.636719 122.363281 Z M 164.636719 20.042969 "
       id="path17" />
    <path
       style=" stroke:none;fill-rule:nonzero;fill:rgb(100%,100%,100%);fill-opacity:1;"
       d="M 234.191406 20.042969 L 233.136719 27.351563 L 231.683594 34.660156 L 230.414063 39.789063 L 229.765625 41.96875 L 227.257813 49.277344 L 224.066406 56.585938 L 223.105469 58.535156 L 220.175781 63.894531 L 211.421875 78.511719 L 208.488281 83.871094 L 207.527344 85.820313 L 204.335938 93.128906 L 201.828125 100.4375 L 201.179688 102.617188 L 199.910156 107.746094 L 198.460938 115.054688 L 197.402344 122.363281 L 266.957031 122.363281 L 266.957031 20.042969 L 234.191406 20.042969 "
       id="path19" />
    <path
       style="fill:none;stroke-width:0.3;stroke-linecap:round;stroke-linejoin:round;stroke:rgb(0%,0%,0%);stroke-opacity:1;stroke-miterlimit:4;"
       d="M 234.191406 20.042969 L 233.136719 27.351563 L 231.683594 34.660156 L 230.414063 39.789063 L 229.765625 41.96875 L 227.257813 49.277344 L 224.066406 56.585938 L 223.105469 58.535156 L 220.175781 63.894531 L 211.421875 78.511719 L 208.488281 83.871094 L 207.527344 85.820313 L 204.335938 93.128906 L 201.828125 100.4375 L 201.179688 102.617188 L 199.910156 107.746094 L 198.460938 115.054688 L 197.402344 122.363281 "
       id="path21" />
    <path
       style=" stroke:none;fill-rule:nonzero;fill:rgb(0%,0%,0%);fill-opacity:1;"
       d="M 12.777344 26.441406 L 11.902344 26.441406 L 12.214844 25.332031 C 12.230469 25.253906 12.214844 25.144531 12.136719 25.175781 C 12.042969 25.144531 11.996094 25.253906 11.949219 25.300781 C 11.652344 25.675781 11.136719 26.160156 10.777344 26.347656 C 10.589844 26.441406 10.292969 26.519531 10.214844 26.613281 C 10.183594 26.675781 10.183594 26.722656 10.199219 26.785156 L 10.996094 26.785156 L 10.214844 29.753906 C 10.183594 29.925781 9.980469 30.597656 9.980469 30.753906 C 9.980469 31.082031 10.277344 31.191406 10.496094 31.191406 C 11.058594 31.191406 11.480469 30.707031 12.027344 29.878906 L 11.886719 29.800781 C 11.621094 30.144531 11.230469 30.660156 11.027344 30.660156 C 10.902344 30.660156 10.855469 30.566406 10.855469 30.472656 C 10.855469 30.441406 10.855469 30.425781 10.855469 30.378906 L 11.808594 26.785156 L 12.714844 26.785156 Z M 12.777344 26.441406 "
       id="path23" />
    <path
       style=" stroke:none;fill-rule:nonzero;fill:rgb(0%,0%,0%);fill-opacity:1;"
       d="M 17.589844 29.800781 C 17.183594 30.316406 16.917969 30.660156 16.714844 30.660156 C 16.621094 30.660156 16.542969 30.582031 16.542969 30.457031 C 16.542969 30.222656 17.417969 27.457031 17.417969 27.082031 C 17.417969 26.378906 16.917969 26.300781 16.683594 26.300781 C 15.699219 26.300781 14.605469 27.972656 14.261719 28.503906 L 14.246094 28.488281 L 15.527344 23.753906 L 15.464844 23.691406 C 14.902344 23.816406 14.339844 23.925781 13.777344 23.988281 L 13.777344 24.160156 L 14.058594 24.144531 C 14.402344 24.160156 14.496094 24.300781 14.496094 24.425781 C 14.496094 24.582031 14.324219 25.207031 14.199219 25.660156 L 12.777344 31.066406 L 13.589844 31.066406 C 13.949219 29.707031 14.105469 29.113281 14.589844 28.378906 C 14.808594 28.082031 15.714844 26.863281 16.261719 26.863281 C 16.433594 26.863281 16.574219 26.957031 16.574219 27.144531 C 16.574219 27.285156 15.683594 30.378906 15.683594 30.660156 C 15.683594 30.957031 15.824219 31.160156 16.167969 31.160156 C 16.886719 31.160156 17.339844 30.488281 17.730469 29.925781 Z M 17.589844 29.800781 "
       id="path25" />
    <path
       style=" stroke:none;fill-rule:nonzero;fill:rgb(0%,0%,0%);fill-opacity:1;"
       d="M 19.289063 31.066406 C 19.726563 29.628906 19.882813 29.144531 20.289063 28.363281 C 20.367188 28.207031 21.023438 27.003906 21.351563 27.003906 C 21.617188 27.003906 21.460938 27.394531 21.914063 27.394531 C 22.039063 27.394531 22.429688 27.394531 22.429688 26.832031 C 22.429688 26.472656 22.148438 26.300781 21.914063 26.300781 C 21.226563 26.300781 20.398438 27.566406 20.054688 28.285156 L 19.960938 28.503906 L 19.945313 28.472656 L 20.476563 26.332031 L 20.445313 26.300781 C 19.945313 26.378906 19.320313 26.519531 18.757813 26.597656 L 18.757813 26.785156 C 18.882813 26.753906 19.007813 26.722656 19.117188 26.722656 C 19.460938 26.722656 19.507813 26.894531 19.507813 27.050781 C 19.507813 27.144531 19.445313 27.519531 19.335938 27.910156 L 18.460938 31.066406 Z M 19.289063 31.066406 "
       id="path27" />
    <path
       style=" stroke:none;fill-rule:nonzero;fill:rgb(0%,0%,0%);fill-opacity:1;"
       d="M 23.816406 28.347656 C 24.222656 27.378906 24.957031 26.550781 25.535156 26.550781 C 25.800781 26.550781 25.910156 26.753906 25.910156 26.988281 C 25.910156 27.066406 25.863281 28.363281 23.628906 28.816406 Z M 26.035156 29.894531 C 25.503906 30.332031 25.050781 30.707031 24.457031 30.707031 C 24.003906 30.707031 23.457031 30.457031 23.457031 29.722656 C 23.457031 29.503906 23.503906 29.285156 23.550781 29.050781 L 23.863281 29.019531 C 25.613281 28.769531 26.628906 27.894531 26.628906 27.035156 C 26.628906 26.566406 26.285156 26.300781 25.738281 26.300781 C 24.222656 26.300781 22.503906 28.113281 22.503906 29.660156 C 22.503906 30.347656 22.863281 31.191406 23.988281 31.191406 C 25.066406 31.191406 26.050781 30.191406 26.175781 30.019531 Z M 26.035156 29.894531 "
       id="path29" />
    <path
       style=" stroke:none;fill-rule:nonzero;fill:rgb(0%,0%,0%);fill-opacity:1;"
       d="M 28.613281 28.347656 C 29.019531 27.378906 29.753906 26.550781 30.332031 26.550781 C 30.597656 26.550781 30.707031 26.753906 30.707031 26.988281 C 30.707031 27.066406 30.660156 28.363281 28.425781 28.816406 Z M 30.832031 29.894531 C 30.300781 30.332031 29.847656 30.707031 29.253906 30.707031 C 28.800781 30.707031 28.253906 30.457031 28.253906 29.722656 C 28.253906 29.503906 28.300781 29.285156 28.347656 29.050781 L 28.660156 29.019531 C 30.410156 28.769531 31.425781 27.894531 31.425781 27.035156 C 31.425781 26.566406 31.082031 26.300781 30.535156 26.300781 C 29.019531 26.300781 27.300781 28.113281 27.300781 29.660156 C 27.300781 30.347656 27.660156 31.191406 28.785156 31.191406 C 29.863281 31.191406 30.847656 30.191406 30.972656 30.019531 Z M 30.832031 29.894531 "
       id="path31" />
    <path
       style=" stroke:none;fill-rule:nonzero;fill:rgb(0%,0%,0%);fill-opacity:1;"
       d="M 36.9375 29.738281 C 36.40625 30.425781 36.171875 30.722656 35.90625 30.722656 C 35.75 30.722656 35.75 30.566406 35.75 30.503906 C 35.75 30.378906 35.828125 30.097656 35.84375 30.003906 L 37.484375 23.753906 L 37.421875 23.691406 C 36.859375 23.816406 36.296875 23.925781 35.75 23.988281 L 35.75 24.160156 C 36.03125 24.144531 36.484375 24.144531 36.484375 24.425781 C 36.484375 24.660156 34.90625 30.285156 34.90625 30.519531 C 34.90625 30.816406 34.953125 31.191406 35.421875 31.191406 C 36.09375 31.191406 36.515625 30.660156 37.078125 29.832031 Z M 36.9375 29.738281 "
       id="path33" />
    <path
       style=" stroke:none;fill-rule:nonzero;fill:rgb(0%,0%,0%);fill-opacity:1;"
       d="M 42.484375 29.878906 C 42 30.347656 41.78125 30.628906 41.609375 30.628906 C 41.53125 30.628906 41.46875 30.566406 41.46875 30.488281 C 41.46875 30.144531 42.453125 26.472656 42.484375 26.332031 L 42.40625 26.300781 L 41.75 26.378906 L 41.71875 26.410156 L 41.609375 26.894531 L 41.59375 26.894531 C 41.5625 26.582031 41.203125 26.300781 40.734375 26.300781 C 39.296875 26.300781 37.65625 28.316406 37.65625 29.910156 C 37.65625 30.222656 37.6875 31.191406 38.765625 31.191406 C 39.40625 31.191406 39.984375 30.863281 40.875 29.550781 L 40.90625 29.566406 C 40.734375 30.222656 40.671875 30.457031 40.671875 30.707031 C 40.671875 30.894531 40.671875 31.175781 41.125 31.175781 C 41.59375 31.175781 41.953125 30.785156 42.609375 29.988281 Z M 38.5625 29.894531 C 38.5625 28.910156 39.53125 26.535156 40.796875 26.535156 C 41.109375 26.535156 41.40625 26.753906 41.40625 27.269531 C 41.40625 28.316406 40.34375 30.660156 39.203125 30.660156 C 38.921875 30.660156 38.5625 30.457031 38.5625 29.894531 Z M 38.5625 29.894531 "
       id="path35" />
    <path
       style=" stroke:none;fill-rule:nonzero;fill:rgb(0%,0%,0%);fill-opacity:1;"
       d="M 43.027344 26.753906 C 43.167969 26.722656 43.230469 26.707031 43.402344 26.707031 C 44.011719 26.707031 44.152344 27.175781 44.449219 28.144531 C 44.636719 28.738281 45.089844 30.628906 45.089844 31.035156 C 45.089844 31.332031 44.636719 31.847656 44.355469 32.160156 C 43.996094 32.597656 43.855469 32.691406 43.683594 32.691406 C 43.480469 32.691406 43.339844 32.394531 43.027344 32.394531 C 42.792969 32.394531 42.605469 32.582031 42.605469 32.800781 C 42.605469 33.253906 43.074219 33.285156 43.167969 33.285156 C 44.449219 33.285156 47.464844 28.253906 47.464844 26.972656 C 47.464844 26.582031 47.261719 26.300781 46.855469 26.300781 C 46.574219 26.300781 46.449219 26.535156 46.449219 26.675781 C 46.449219 27.175781 47.042969 27.066406 47.042969 27.503906 C 47.042969 28.082031 46.183594 29.535156 45.714844 30.285156 L 45.511719 29.035156 C 45.371094 28.222656 44.730469 26.300781 44.589844 26.300781 C 44.386719 26.300781 43.558594 26.472656 43.027344 26.566406 Z M 43.027344 26.753906 "
       id="path37" />
    <path
       style=" stroke:none;fill-rule:nonzero;fill:rgb(0%,0%,0%);fill-opacity:1;"
       d="M 49.304688 28.347656 C 49.710938 27.378906 50.445313 26.550781 51.023438 26.550781 C 51.289063 26.550781 51.398438 26.753906 51.398438 26.988281 C 51.398438 27.066406 51.351563 28.363281 49.117188 28.816406 Z M 51.523438 29.894531 C 50.992188 30.332031 50.539063 30.707031 49.945313 30.707031 C 49.492188 30.707031 48.945313 30.457031 48.945313 29.722656 C 48.945313 29.503906 48.992188 29.285156 49.039063 29.050781 L 49.351563 29.019531 C 51.101563 28.769531 52.117188 27.894531 52.117188 27.035156 C 52.117188 26.566406 51.773438 26.300781 51.226563 26.300781 C 49.710938 26.300781 47.992188 28.113281 47.992188 29.660156 C 47.992188 30.347656 48.351563 31.191406 49.476563 31.191406 C 50.554688 31.191406 51.539063 30.191406 51.664063 30.019531 Z M 51.523438 29.894531 "
       id="path39" />
    <path
       style=" stroke:none;fill-rule:nonzero;fill:rgb(0%,0%,0%);fill-opacity:1;"
       d="M 53.773438 31.066406 C 54.210938 29.628906 54.367188 29.144531 54.773438 28.363281 C 54.851563 28.207031 55.507813 27.003906 55.835938 27.003906 C 56.101563 27.003906 55.945313 27.394531 56.398438 27.394531 C 56.523438 27.394531 56.914063 27.394531 56.914063 26.832031 C 56.914063 26.472656 56.632813 26.300781 56.398438 26.300781 C 55.710938 26.300781 54.882813 27.566406 54.539063 28.285156 L 54.445313 28.503906 L 54.429688 28.472656 L 54.960938 26.332031 L 54.929688 26.300781 C 54.429688 26.378906 53.804688 26.519531 53.242188 26.597656 L 53.242188 26.785156 C 53.367188 26.753906 53.492188 26.722656 53.601563 26.722656 C 53.945313 26.722656 53.992188 26.894531 53.992188 27.050781 C 53.992188 27.144531 53.929688 27.519531 53.820313 27.910156 L 52.945313 31.066406 Z M 53.773438 31.066406 "
       id="path41" />
    <path
       style=" stroke:none;fill-rule:nonzero;fill:rgb(0%,0%,0%);fill-opacity:1;"
       d="M 16.40625 67.976563 L 11.613281 66.246094 L 13.894531 70.804688 L 13.972656 68.339844 L 16.40625 67.976563 "
       id="path43" />
    <path
       style="fill:none;stroke-width:0.991;stroke-linecap:round;stroke-linejoin:round;stroke:rgb(0%,0%,0%);stroke-opacity:1;stroke-miterlimit:4;"
       d="M 37.53125 89.285156 L 13.640625 68.046875 "
       id="path45" />
    <path
       style=" stroke:none;fill-rule:nonzero;fill:rgb(0%,0%,0%);fill-opacity:1;"
       d="M 42.941406 72.617188 L 39.226563 68.316406 L 36.683594 73.402344 L 39.613281 71.445313 L 42.941406 72.617188 "
       id="path47" />
    <path
       style="fill:none;stroke-width:3.372;stroke-linecap:round;stroke-linejoin:round;stroke:rgb(0%,0%,0%);stroke-opacity:1;stroke-dasharray:4.721,6.07;stroke-miterlimit:4;"
       d="M 41.523438 86.710938 L 39.613281 71.445313 "
       id="path49" />
    <path
       style=" stroke:none;fill-rule:nonzero;fill:rgb(0%,0%,0%);fill-opacity:1;"
       d="M 64.140625 71.609375 L 65.828125 66.804688 L 61.289063 69.117188 L 63.753906 69.175781 L 64.140625 71.609375 "
       id="path51" />
    <path
       style="fill:none;stroke-width:0.794;stroke-linecap:round;stroke-linejoin:round;stroke:rgb(0%,0%,0%);stroke-opacity:1;stroke-miterlimit:4;"
       d="M 46.636719 88.738281 L 64.070313 68.8125 "
       id="path53" />
    <path
       style=" stroke:none;fill-rule:nonzero;fill:rgb(0%,0%,0%);fill-opacity:1;"
       d="M 92.675781 68.921875 L 95.960938 65.023438 L 90.894531 65.582031 L 93.175781 66.507813 L 92.675781 68.921875 "
       id="path55" />
    <path
       style="fill:none;stroke-width:1.785;stroke-linecap:round;stroke-linejoin:round;stroke:rgb(0%,0%,0%);stroke-opacity:1;stroke-miterlimit:4;"
       d="M 48.246094 90.472656 L 93.4375 66.367188 "
       id="path57" />
    <path
       style=" stroke:none;fill-rule:nonzero;fill:rgb(0%,0%,0%);fill-opacity:1;"
       d="M 123.261719 67.472656 L 127.109375 64.128906 L 122.019531 63.890625 L 124.132813 65.160156 L 123.261719 67.472656 "
       id="path59" />
    <path
       style="fill:none;stroke-width:1.19;stroke-linecap:round;stroke-linejoin:round;stroke:rgb(0%,0%,0%);stroke-opacity:1;stroke-dasharray:2.539,3.888;stroke-miterlimit:4;"
       d="M 48.554688 91.453125 L 124.519531 65.03125 "
       id="path61" />
    <path
       style=" stroke:none;fill-rule:nonzero;fill:rgb(0%,0%,0%);fill-opacity:1;"
       d="M 17.949219 63.894531 L 12.859375 64.128906 L 16.707031 67.472656 L 15.835938 65.164063 L 17.949219 63.894531 "
       id="path63" />
    <path
       style="fill:none;stroke-width:1.586;stroke-linecap:round;stroke-linejoin:round;stroke:rgb(0%,0%,0%);stroke-opacity:1;stroke-miterlimit:4;"
       d="M 91.34375 91.429688 L 15.523438 65.054688 "
       id="path65" />
    <path
       style=" stroke:none;fill-rule:nonzero;fill:rgb(0%,0%,0%);fill-opacity:1;"
       d="M 49.074219 65.582031 L 44.007813 65.023438 L 47.292969 68.921875 L 46.792969 66.507813 L 49.074219 65.582031 "
       id="path67" />
    <path
       style="fill:none;stroke-width:0.595;stroke-linecap:round;stroke-linejoin:round;stroke:rgb(0%,0%,0%);stroke-opacity:1;stroke-miterlimit:4;"
       d="M 91.917969 90.578125 L 46.332031 66.265625 "
       id="path69" />
    <path
       style=" stroke:none;fill-rule:nonzero;fill:rgb(0%,0%,0%);fill-opacity:1;"
       d="M 78.679688 69.117188 L 74.140625 66.804688 L 75.828125 71.609375 L 76.214844 69.175781 L 78.679688 69.113281 "
       id="path71" />
    <path
       style="fill:none;stroke-width:0.396;stroke-linecap:round;stroke-linejoin:round;stroke:rgb(0%,0%,0%);stroke-opacity:1;stroke-miterlimit:4;"
       d="M 93.382813 88.792969 L 75.847656 68.757813 "
       id="path73" />
    <path
       style=" stroke:none;fill-rule:nonzero;fill:rgb(0%,0%,0%);fill-opacity:1;"
       d="M 102.035156 73.246094 L 100.742188 68.316406 L 98.28125 72.773438 L 100.355469 71.445313 L 102.035156 73.246094 "
       id="path75" />
    <path
       style="fill:none;stroke-width:1.586;stroke-linecap:round;stroke-linejoin:round;stroke:rgb(0%,0%,0%);stroke-opacity:1;stroke-dasharray:2.935,4.284;stroke-miterlimit:4;"
       d="M 98.402344 87.042969 L 100.394531 71.113281 "
       id="path77" />
    <path
       style=" stroke:none;fill-rule:nonzero;fill:rgb(0%,0%,0%);fill-opacity:1;"
       d="M 126.074219 70.804688 L 128.355469 66.246094 L 123.558594 67.976563 L 125.996094 68.339844 L 126.074219 70.804688 "
       id="path79" />
    <path
       style="fill:none;stroke-width:0.794;stroke-linecap:round;stroke-linejoin:round;stroke:rgb(0%,0%,0%);stroke-opacity:1;stroke-dasharray:2.143,3.492;stroke-miterlimit:4;"
       d="M 102.410156 89.308594 L 126.355469 68.019531 "
       id="path81" />
    <path
       style=" stroke:none;fill-rule:nonzero;fill:rgb(0%,0%,0%);fill-opacity:1;"
       d="M 61.1875 37.609375 L 64.34375 33.332031 L 59.03125 33.289063 L 61.519531 34.742188 L 61.1875 37.605469 "
       id="path83" />
    <path
       style="fill:none;stroke-width:2.578;stroke-linecap:round;stroke-linejoin:round;stroke:rgb(0%,0%,0%);stroke-opacity:1;stroke-miterlimit:4;"
       d="M 12.972656 59.019531 L 61.652344 34.679688 "
       id="path85" />
    <path
       style=" stroke:none;fill-rule:nonzero;fill:rgb(0%,0%,0%);fill-opacity:1;"
       d="M 63.515625 39.65625 L 65.523438 34.972656 L 60.839844 36.980469 L 63.292969 37.203125 L 63.515625 39.65625 "
       id="path87" />
    <path
       style="fill:none;stroke-width:0.595;stroke-linecap:round;stroke-linejoin:round;stroke:rgb(0%,0%,0%);stroke-opacity:1;stroke-miterlimit:4;"
       d="M 42.980469 57.515625 L 63.660156 36.835938 "
       id="path89" />
    <path
       style=" stroke:none;fill-rule:nonzero;fill:rgb(0%,0%,0%);fill-opacity:1;"
       d="M 71.878906 41.554688 L 69.984375 36.820313 L 68.089844 41.554688 L 69.984375 39.976563 L 71.878906 41.554688 "
       id="path91" />
    <path
       style="fill:none;stroke-width:1.19;stroke-linecap:round;stroke-linejoin:round;stroke:rgb(0%,0%,0%);stroke-opacity:1;stroke-dasharray:2.539,3.888;stroke-miterlimit:4;"
       d="M 69.984375 55.523438 L 69.984375 39.570313 "
       id="path93" />
    <path
       style=" stroke:none;fill-rule:nonzero;fill:rgb(0%,0%,0%);fill-opacity:1;"
       d="M 79.128906 36.980469 L 74.445313 34.972656 L 76.453125 39.65625 L 76.675781 37.203125 L 79.128906 36.976563 "
       id="path95" />
    <path
       style="fill:none;stroke-width:0.991;stroke-linecap:round;stroke-linejoin:round;stroke:rgb(0%,0%,0%);stroke-opacity:1;stroke-dasharray:2.34,3.689;stroke-miterlimit:4;"
       d="M 96.933594 57.464844 L 76.359375 36.890625 "
       id="path97" />
    <path
       style=" stroke:none;fill-rule:nonzero;fill:rgb(0%,0%,0%);fill-opacity:1;"
       d="M 81.019531 33.128906 L 75.628906 33.332031 L 78.695313 37.773438 L 78.449219 34.746094 L 81.019531 33.128906 "
       id="path99" />
    <path
       style="fill:none;stroke-width:2.777;stroke-linecap:round;stroke-linejoin:round;stroke:rgb(0%,0%,0%);stroke-opacity:1;stroke-miterlimit:4;"
       d="M 126.960938 59.003906 L 78.347656 34.695313 "
       id="path101" />
    <path
       style=" stroke:none;fill-rule:nonzero;fill:rgb(100%,100%,100%);fill-opacity:1;"
       d="M 42.386719 93.597656 L 48.695313 93.597656 L 48.6875 93.28125 L 48.664063 92.96875 L 48.625 92.65625 L 48.570313 92.347656 L 48.5 92.039063 L 48.414063 91.738281 L 48.3125 91.441406 L 48.199219 91.148438 L 48.070313 90.859375 L 47.925781 90.582031 L 47.769531 90.308594 L 47.597656 90.042969 L 47.414063 89.785156 L 47.21875 89.542969 L 46.789063 89.082031 L 46.320313 88.664063 L 46.066406 88.476563 L 45.808594 88.296875 L 45.539063 88.132813 L 45.261719 87.980469 L 44.980469 87.847656 L 44.691406 87.726563 L 44.394531 87.617188 L 44.09375 87.519531 L 43.789063 87.441406 L 43.480469 87.382813 L 43.167969 87.335938 L 42.855469 87.304688 L 42.542969 87.285156 L 42.226563 87.285156 L 41.914063 87.304688 L 41.601563 87.335938 L 41.289063 87.382813 L 40.980469 87.445313 L 40.675781 87.519531 L 40.375 87.617188 L 40.078125 87.726563 L 39.789063 87.847656 L 39.507813 87.980469 L 39.230469 88.132813 L 38.960938 88.296875 L 38.703125 88.476563 L 38.210938 88.867188 L 37.761719 89.308594 L 37.355469 89.789063 L 37.171875 90.042969 L 37.003906 90.308594 L 36.84375 90.582031 L 36.699219 90.859375 L 36.570313 91.148438 L 36.457031 91.441406 L 36.355469 91.738281 L 36.273438 92.042969 L 36.203125 92.347656 L 36.148438 92.65625 L 36.109375 92.96875 L 36.085938 93.285156 L 36.078125 93.597656 L 36.085938 93.914063 L 42.386719 93.597656 "
       id="path103" />
    <path
       style=" stroke:none;fill-rule:nonzero;fill:rgb(100%,100%,100%);fill-opacity:1;"
       d="M 42.386719 93.597656 L 36.085938 93.914063 L 36.109375 94.226563 L 36.148438 94.539063 L 36.203125 94.847656 L 36.273438 95.15625 L 36.359375 95.457031 L 36.457031 95.753906 L 36.574219 96.046875 L 36.703125 96.335938 L 36.847656 96.613281 L 37.003906 96.886719 L 37.175781 97.152344 L 37.355469 97.40625 L 37.761719 97.890625 L 38.210938 98.328125 L 38.703125 98.71875 L 38.964844 98.898438 L 39.230469 99.0625 L 39.507813 99.210938 L 39.792969 99.347656 L 40.082031 99.472656 L 40.378906 99.578125 L 40.679688 99.667969 L 40.984375 99.746094 L 41.292969 99.808594 L 41.601563 99.855469 L 41.914063 99.890625 L 42.230469 99.898438 L 42.542969 99.898438 L 42.859375 99.882813 L 43.171875 99.851563 L 43.480469 99.804688 L 43.789063 99.742188 L 44.09375 99.664063 L 44.394531 99.574219 L 44.691406 99.464844 L 44.980469 99.34375 L 45.265625 99.207031 L 45.542969 99.054688 L 45.808594 98.890625 L 46.070313 98.714844 L 46.320313 98.523438 L 46.792969 98.109375 L 47.21875 97.648438 L 47.414063 97.402344 L 47.597656 97.144531 L 47.769531 96.882813 L 47.925781 96.609375 L 48.070313 96.328125 L 48.199219 96.042969 L 48.3125 95.75 L 48.414063 95.453125 L 48.5 95.148438 L 48.570313 94.84375 L 48.625 94.53125 L 48.664063 94.21875 L 48.6875 93.90625 L 48.695313 93.59375 L 48.6875 93.277344 L 48.660156 92.964844 L 42.386719 93.59375 "
       id="path105" />
    <path
       style=" stroke:none;fill-rule:nonzero;fill:rgb(100%,100%,100%);fill-opacity:1;"
       d="M 97.582031 93.597656 L 103.890625 93.597656 L 103.882813 93.28125 L 103.859375 92.96875 L 103.820313 92.65625 L 103.765625 92.347656 L 103.695313 92.039063 L 103.609375 91.738281 L 103.511719 91.441406 L 103.394531 91.148438 L 103.265625 90.859375 L 103.125 90.582031 L 102.964844 90.308594 L 102.796875 90.042969 L 102.613281 89.785156 L 102.417969 89.542969 L 101.988281 89.082031 L 101.515625 88.664063 L 101.265625 88.476563 L 101.007813 88.296875 L 100.738281 88.132813 L 100.460938 87.980469 L 100.179688 87.847656 L 99.886719 87.726563 L 99.59375 87.617188 L 99.292969 87.519531 L 98.988281 87.441406 L 98.679688 87.382813 L 98.367188 87.335938 L 98.054688 87.304688 L 97.738281 87.285156 L 97.425781 87.285156 L 97.109375 87.304688 L 96.796875 87.335938 L 96.488281 87.382813 L 96.179688 87.445313 L 95.875 87.519531 L 95.574219 87.617188 L 95.277344 87.726563 L 94.988281 87.847656 L 94.703125 87.980469 L 94.429688 88.132813 L 94.160156 88.296875 L 93.898438 88.476563 L 93.410156 88.867188 L 92.957031 89.308594 L 92.554688 89.789063 L 92.371094 90.042969 L 92.199219 90.308594 L 92.042969 90.582031 L 91.898438 90.859375 L 91.769531 91.148438 L 91.65625 91.441406 L 91.554688 91.738281 L 91.46875 92.042969 L 91.398438 92.347656 L 91.34375 92.65625 L 91.304688 92.96875 L 91.28125 93.285156 L 91.273438 93.597656 L 91.28125 93.914063 L 97.582031 93.597656 "
       id="path107" />
    <path
       style=" stroke:none;fill-rule:nonzero;fill:rgb(100%,100%,100%);fill-opacity:1;"
       d="M 97.582031 93.597656 L 91.28125 93.914063 L 91.304688 94.226563 L 91.34375 94.539063 L 91.398438 94.847656 L 91.46875 95.15625 L 91.554688 95.457031 L 91.65625 95.753906 L 91.769531 96.046875 L 91.898438 96.335938 L 92.042969 96.613281 L 92.199219 96.886719 L 92.371094 97.152344 L 92.554688 97.40625 L 92.960938 97.890625 L 93.410156 98.328125 L 93.902344 98.71875 L 94.160156 98.898438 L 94.429688 99.0625 L 94.707031 99.210938 L 94.988281 99.347656 L 95.28125 99.472656 L 95.574219 99.578125 L 95.875 99.667969 L 96.179688 99.746094 L 96.488281 99.808594 L 96.800781 99.855469 L 97.113281 99.890625 L 97.425781 99.898438 L 97.742188 99.898438 L 98.054688 99.882813 L 98.367188 99.851563 L 98.679688 99.804688 L 98.988281 99.742188 L 99.292969 99.664063 L 99.59375 99.574219 L 99.890625 99.464844 L 100.179688 99.34375 L 100.464844 99.207031 L 100.738281 99.054688 L 101.007813 98.890625 L 101.265625 98.714844 L 101.519531 98.523438 L 101.988281 98.109375 L 102.417969 97.648438 L 102.613281 97.402344 L 102.796875 97.144531 L 102.96875 96.882813 L 103.125 96.609375 L 103.269531 96.328125 L 103.398438 96.042969 L 103.511719 95.75 L 103.613281 95.453125 L 103.695313 95.148438 L 103.765625 94.84375 L 103.820313 94.53125 L 103.859375 94.21875 L 103.882813 93.90625 L 103.890625 93.59375 L 103.882813 93.277344 L 103.859375 92.964844 L 97.582031 93.59375 "
       id="path109" />
    <path
       style="fill:none;stroke-width:0.674;stroke-linecap:round;stroke-linejoin:round;stroke:rgb(49.803162%,49.803162%,49.803162%);stroke-opacity:1;stroke-miterlimit:4;"
       d="M 37.828125 93.597656 L 46.941406 93.597656 M 42.386719 98.15625 L 42.386719 89.042969 "
       id="path111" />
    <path
       style="fill:none;stroke-width:1.2;stroke-linecap:round;stroke-linejoin:round;stroke:rgb(0%,0%,0%);stroke-opacity:1;stroke-miterlimit:4;"
       d="M 38.882813 97.101563 L 45.890625 90.09375 "
       id="path113" />
    <path
       style="fill:none;stroke-width:1.18;stroke-linecap:round;stroke-linejoin:round;stroke:rgb(0%,0%,0%);stroke-opacity:1;stroke-miterlimit:4;"
       d="M 48.695313 93.597656 L 48.6875 93.28125 L 48.664063 92.96875 L 48.625 92.65625 L 48.570313 92.347656 L 48.5 92.039063 L 48.414063 91.738281 L 48.3125 91.441406 L 48.199219 91.148438 L 48.070313 90.859375 L 47.925781 90.582031 L 47.769531 90.308594 L 47.597656 90.042969 L 47.414063 89.789063 L 47.21875 89.542969 L 46.789063 89.082031 L 46.320313 88.664063 L 46.066406 88.476563 L 45.808594 88.296875 L 45.539063 88.132813 L 45.261719 87.980469 L 44.980469 87.847656 L 44.691406 87.726563 L 44.394531 87.617188 L 44.09375 87.523438 L 43.789063 87.441406 L 43.480469 87.382813 L 43.167969 87.332031 L 42.855469 87.304688 L 42.542969 87.285156 L 42.226563 87.285156 L 41.914063 87.304688 L 41.601563 87.332031 L 41.289063 87.382813 L 40.980469 87.445313 L 40.675781 87.523438 L 40.375 87.617188 L 40.078125 87.726563 L 39.789063 87.847656 L 39.507813 87.980469 L 39.230469 88.132813 L 38.960938 88.296875 L 38.703125 88.476563 L 38.210938 88.867188 L 37.761719 89.308594 L 37.355469 89.789063 L 37.171875 90.042969 L 37.003906 90.308594 L 36.84375 90.582031 L 36.699219 90.859375 L 36.570313 91.148438 L 36.457031 91.441406 L 36.355469 91.738281 L 36.273438 92.042969 L 36.203125 92.347656 L 36.148438 92.65625 L 36.109375 92.96875 L 36.085938 93.285156 L 36.078125 93.597656 L 36.085938 93.914063 L 36.109375 94.226563 L 36.148438 94.539063 L 36.203125 94.847656 L 36.273438 95.15625 L 36.359375 95.457031 L 36.457031 95.753906 L 36.574219 96.046875 L 36.703125 96.335938 L 36.847656 96.617188 L 37.003906 96.886719 L 37.175781 97.152344 L 37.355469 97.40625 L 37.761719 97.890625 L 38.210938 98.328125 L 38.703125 98.71875 L 38.964844 98.898438 L 39.230469 99.0625 L 39.507813 99.210938 L 39.792969 99.347656 L 40.082031 99.472656 L 40.378906 99.578125 L 40.679688 99.671875 L 40.984375 99.746094 L 41.292969 99.8125 L 41.601563 99.855469 L 41.914063 99.890625 L 42.230469 99.902344 L 42.542969 99.902344 L 42.859375 99.882813 L 43.171875 99.851563 L 43.480469 99.804688 L 43.789063 99.742188 L 44.09375 99.664063 L 44.394531 99.574219 L 44.691406 99.464844 L 44.980469 99.34375 L 45.265625 99.207031 L 45.542969 99.054688 L 45.808594 98.890625 L 46.070313 98.714844 L 46.320313 98.523438 L 46.792969 98.109375 L 47.21875 97.648438 L 47.414063 97.402344 L 47.597656 97.144531 L 47.769531 96.882813 L 47.925781 96.609375 L 48.070313 96.328125 L 48.199219 96.042969 L 48.3125 95.75 L 48.414063 95.453125 L 48.5 95.148438 L 48.570313 94.84375 L 48.625 94.53125 L 48.664063 94.21875 L 48.6875 93.90625 L 48.695313 93.59375 L 48.6875 93.277344 L 48.660156 92.964844 "
       id="path115" />
    <path
       style="fill:none;stroke-width:0.674;stroke-linecap:round;stroke-linejoin:round;stroke:rgb(49.803162%,49.803162%,49.803162%);stroke-opacity:1;stroke-miterlimit:4;"
       d="M 93.027344 93.597656 L 102.140625 93.597656 M 97.582031 98.15625 L 97.582031 89.042969 "
       id="path117" />
    <path
       style="fill:none;stroke-width:1.2;stroke-linecap:round;stroke-linejoin:round;stroke:rgb(0%,0%,0%);stroke-opacity:1;stroke-miterlimit:4;"
       d="M 94.078125 97.101563 L 101.089844 90.09375 "
       id="path119" />
    <path
       style="fill:none;stroke-width:1.18;stroke-linecap:round;stroke-linejoin:round;stroke:rgb(0%,0%,0%);stroke-opacity:1;stroke-miterlimit:4;"
       d="M 103.890625 93.597656 L 103.882813 93.28125 L 103.859375 92.96875 L 103.820313 92.65625 L 103.765625 92.347656 L 103.695313 92.039063 L 103.609375 91.738281 L 103.511719 91.441406 L 103.394531 91.148438 L 103.265625 90.859375 L 103.125 90.582031 L 102.964844 90.308594 L 102.796875 90.042969 L 102.613281 89.789063 L 102.417969 89.542969 L 101.988281 89.082031 L 101.515625 88.664063 L 101.265625 88.476563 L 101.007813 88.296875 L 100.738281 88.132813 L 100.460938 87.980469 L 100.179688 87.847656 L 99.886719 87.726563 L 99.59375 87.617188 L 99.292969 87.523438 L 98.988281 87.441406 L 98.679688 87.382813 L 98.367188 87.332031 L 98.054688 87.304688 L 97.738281 87.285156 L 97.425781 87.285156 L 97.109375 87.304688 L 96.796875 87.332031 L 96.488281 87.382813 L 96.179688 87.445313 L 95.875 87.523438 L 95.574219 87.617188 L 95.277344 87.726563 L 94.988281 87.847656 L 94.703125 87.980469 L 94.429688 88.132813 L 94.160156 88.296875 L 93.898438 88.476563 L 93.410156 88.867188 L 92.957031 89.308594 L 92.554688 89.789063 L 92.371094 90.042969 L 92.199219 90.308594 L 92.042969 90.582031 L 91.898438 90.859375 L 91.769531 91.148438 L 91.65625 91.441406 L 91.554688 91.738281 L 91.46875 92.042969 L 91.398438 92.347656 L 91.34375 92.65625 L 91.304688 92.96875 L 91.28125 93.285156 L 91.273438 93.597656 L 91.28125 93.914063 L 91.304688 94.226563 L 91.34375 94.539063 L 91.398438 94.847656 L 91.46875 95.15625 L 91.554688 95.457031 L 91.65625 95.753906 L 91.769531 96.046875 L 91.898438 96.335938 L 92.042969 96.617188 L 92.199219 96.886719 L 92.371094 97.152344 L 92.554688 97.40625 L 92.960938 97.890625 L 93.410156 98.328125 L 93.902344 98.71875 L 94.160156 98.898438 L 94.429688 99.0625 L 94.707031 99.210938 L 94.988281 99.347656 L 95.28125 99.472656 L 95.574219 99.578125 L 95.875 99.671875 L 96.179688 99.746094 L 96.488281 99.8125 L 96.800781 99.855469 L 97.113281 99.890625 L 97.425781 99.902344 L 97.742188 99.902344 L 98.054688 99.882813 L 98.367188 99.851563 L 98.679688 99.804688 L 98.988281 99.742188 L 99.292969 99.664063 L 99.59375 99.574219 L 99.890625 99.464844 L 100.179688 99.34375 L 100.464844 99.207031 L 100.738281 99.054688 L 101.007813 98.890625 L 101.265625 98.714844 L 101.519531 98.523438 L 101.988281 98.109375 L 102.417969 97.648438 L 102.613281 97.402344 L 102.796875 97.144531 L 102.96875 96.882813 L 103.125 96.609375 L 103.269531 96.328125 L 103.398438 96.042969 L 103.511719 95.75 L 103.613281 95.453125 L 103.695313 95.148438 L 103.765625 94.84375 L 103.820313 94.53125 L 103.859375 94.21875 L 103.882813 93.90625 L 103.890625 93.59375 L 103.882813 93.277344 L 103.859375 92.964844 "
       id="path121" />
    <path
       style=" stroke:none;fill-rule:nonzero;fill:rgb(100%,100%,100%);fill-opacity:1;"
       d="M 6.898438 62.054688 L 13.207031 62.054688 L 13.199219 61.742188 L 13.175781 61.425781 L 13.136719 61.113281 L 13.082031 60.804688 L 13.011719 60.5 L 12.929688 60.195313 L 12.828125 59.898438 L 12.714844 59.605469 L 12.585938 59.316406 L 12.441406 59.039063 L 12.28125 58.765625 L 12.113281 58.5 L 11.929688 58.242188 L 11.730469 58 L 11.304688 57.539063 L 10.832031 57.121094 L 10.582031 56.933594 L 10.320313 56.753906 L 10.054688 56.589844 L 9.777344 56.4375 L 9.492188 56.304688 L 9.203125 56.183594 L 8.910156 56.074219 L 8.609375 55.984375 L 8.304688 55.902344 L 7.996094 55.839844 L 7.683594 55.792969 L 7.371094 55.761719 L 7.058594 55.746094 L 6.742188 55.746094 L 6.429688 55.761719 L 6.113281 55.792969 L 5.804688 55.839844 L 5.496094 55.902344 L 5.191406 55.984375 L 4.890625 56.074219 L 4.59375 56.183594 L 4.304688 56.304688 L 4.019531 56.4375 L 3.746094 56.589844 L 3.476563 56.753906 L 3.21875 56.929688 L 2.726563 57.320313 L 2.273438 57.761719 L 1.871094 58.242188 L 1.6875 58.496094 L 1.515625 58.761719 L 1.359375 59.039063 L 1.214844 59.316406 L 1.085938 59.601563 L 0.972656 59.894531 L 0.871094 60.191406 L 0.785156 60.496094 L 0.714844 60.800781 L 0.660156 61.113281 L 0.625 61.425781 L 0.597656 61.738281 L 0.589844 62.050781 L 0.597656 62.367188 L 6.898438 62.050781 "
       id="path123" />
    <path
       style=" stroke:none;fill-rule:nonzero;fill:rgb(100%,100%,100%);fill-opacity:1;"
       d="M 6.898438 62.054688 L 0.597656 62.371094 L 0.625 62.683594 L 0.660156 62.996094 L 0.71875 63.304688 L 0.785156 63.613281 L 0.871094 63.914063 L 0.972656 64.214844 L 1.085938 64.507813 L 1.21875 64.792969 L 1.359375 65.070313 L 1.519531 65.347656 L 1.6875 65.609375 L 1.871094 65.863281 L 2.277344 66.347656 L 2.726563 66.785156 L 3.21875 67.179688 L 3.476563 67.355469 L 3.746094 67.519531 L 4.023438 67.667969 L 4.304688 67.804688 L 4.597656 67.929688 L 4.890625 68.035156 L 5.191406 68.128906 L 5.496094 68.207031 L 5.804688 68.269531 L 6.117188 68.316406 L 6.429688 68.34375 L 6.742188 68.363281 L 7.058594 68.363281 L 7.375 68.34375 L 7.6875 68.316406 L 7.996094 68.269531 L 8.304688 68.203125 L 8.609375 68.128906 L 8.910156 68.035156 L 9.207031 67.925781 L 9.496094 67.804688 L 9.777344 67.667969 L 10.054688 67.519531 L 10.324219 67.355469 L 10.585938 67.175781 L 10.835938 66.988281 L 11.304688 66.570313 L 11.734375 66.109375 L 11.929688 65.863281 L 12.113281 65.609375 L 12.285156 65.34375 L 12.441406 65.070313 L 12.585938 64.789063 L 12.714844 64.503906 L 12.828125 64.210938 L 12.929688 63.914063 L 13.015625 63.609375 L 13.085938 63.304688 L 13.136719 62.992188 L 13.175781 62.683594 L 13.199219 62.367188 L 13.207031 62.054688 L 13.199219 61.738281 L 13.175781 61.425781 L 6.898438 62.054688 "
       id="path125" />
    <path
       style=" stroke:none;fill-rule:nonzero;fill:rgb(100%,100%,100%);fill-opacity:1;"
       d="M 38.441406 62.054688 L 44.75 62.054688 L 44.742188 61.742188 L 44.71875 61.425781 L 44.679688 61.113281 L 44.625 60.804688 L 44.554688 60.5 L 44.46875 60.195313 L 44.371094 59.898438 L 44.253906 59.605469 L 44.125 59.316406 L 43.980469 59.039063 L 43.824219 58.765625 L 43.652344 58.5 L 43.472656 58.242188 L 43.273438 58 L 42.847656 57.539063 L 42.375 57.121094 L 42.125 56.933594 L 41.863281 56.753906 L 41.597656 56.589844 L 41.320313 56.4375 L 41.035156 56.304688 L 40.746094 56.183594 L 40.449219 56.074219 L 40.148438 55.984375 L 39.847656 55.902344 L 39.535156 55.839844 L 39.226563 55.792969 L 38.914063 55.761719 L 38.597656 55.746094 L 38.285156 55.746094 L 37.96875 55.761719 L 37.65625 55.792969 L 37.347656 55.839844 L 37.039063 55.902344 L 36.734375 55.984375 L 36.433594 56.074219 L 36.136719 56.183594 L 35.847656 56.304688 L 35.5625 56.4375 L 35.285156 56.589844 L 35.019531 56.753906 L 34.757813 56.929688 L 34.265625 57.320313 L 33.816406 57.761719 L 33.414063 58.242188 L 33.230469 58.496094 L 33.058594 58.761719 L 32.902344 59.039063 L 32.757813 59.316406 L 32.628906 59.601563 L 32.515625 59.894531 L 32.414063 60.191406 L 32.328125 60.496094 L 32.257813 60.800781 L 32.203125 61.113281 L 32.164063 61.425781 L 32.140625 61.738281 L 32.132813 62.050781 L 32.140625 62.367188 L 38.441406 62.050781 "
       id="path127" />
    <path
       style=" stroke:none;fill-rule:nonzero;fill:rgb(100%,100%,100%);fill-opacity:1;"
       d="M 38.441406 62.054688 L 32.140625 62.371094 L 32.164063 62.683594 L 32.203125 62.996094 L 32.257813 63.304688 L 32.328125 63.613281 L 32.414063 63.914063 L 32.515625 64.214844 L 32.628906 64.507813 L 32.757813 64.792969 L 32.902344 65.070313 L 33.058594 65.347656 L 33.230469 65.609375 L 33.414063 65.863281 L 33.816406 66.347656 L 34.269531 66.785156 L 34.761719 67.179688 L 35.019531 67.355469 L 35.289063 67.519531 L 35.566406 67.667969 L 35.847656 67.804688 L 36.140625 67.929688 L 36.433594 68.035156 L 36.734375 68.128906 L 37.039063 68.207031 L 37.347656 68.269531 L 37.660156 68.316406 L 37.972656 68.34375 L 38.285156 68.363281 L 38.601563 68.363281 L 38.914063 68.34375 L 39.226563 68.316406 L 39.539063 68.269531 L 39.847656 68.203125 L 40.152344 68.128906 L 40.453125 68.035156 L 40.75 67.925781 L 41.039063 67.804688 L 41.320313 67.667969 L 41.597656 67.519531 L 41.867188 67.355469 L 42.125 67.175781 L 42.378906 66.988281 L 42.847656 66.570313 L 43.277344 66.109375 L 43.472656 65.863281 L 43.65625 65.609375 L 43.824219 65.34375 L 43.984375 65.070313 L 44.128906 64.789063 L 44.257813 64.503906 L 44.371094 64.210938 L 44.472656 63.914063 L 44.554688 63.609375 L 44.625 63.304688 L 44.679688 62.992188 L 44.71875 62.683594 L 44.742188 62.367188 L 44.75 62.054688 L 44.742188 61.738281 L 44.71875 61.425781 L 38.441406 62.054688 "
       id="path129" />
    <path
       style=" stroke:none;fill-rule:nonzero;fill:rgb(100%,100%,100%);fill-opacity:1;"
       d="M 69.984375 62.054688 L 76.292969 62.054688 L 76.285156 61.742188 L 76.261719 61.425781 L 76.222656 61.113281 L 76.167969 60.804688 L 76.097656 60.5 L 76.011719 60.195313 L 75.910156 59.898438 L 75.796875 59.605469 L 75.667969 59.316406 L 75.523438 59.039063 L 75.367188 58.765625 L 75.195313 58.5 L 75.011719 58.242188 L 74.816406 58 L 74.390625 57.539063 L 73.917969 57.121094 L 73.667969 56.933594 L 73.40625 56.753906 L 73.136719 56.589844 L 72.863281 56.4375 L 72.578125 56.304688 L 72.289063 56.183594 L 71.992188 56.074219 L 71.691406 55.984375 L 71.386719 55.902344 L 71.078125 55.839844 L 70.769531 55.792969 L 70.453125 55.761719 L 70.140625 55.746094 L 69.828125 55.746094 L 69.511719 55.761719 L 69.199219 55.792969 L 68.886719 55.839844 L 68.578125 55.902344 L 68.273438 55.984375 L 67.976563 56.074219 L 67.679688 56.183594 L 67.390625 56.304688 L 67.105469 56.4375 L 66.828125 56.589844 L 66.5625 56.753906 L 66.300781 56.929688 L 65.808594 57.320313 L 65.359375 57.761719 L 64.953125 58.242188 L 64.773438 58.496094 L 64.601563 58.761719 L 64.445313 59.039063 L 64.300781 59.316406 L 64.171875 59.601563 L 64.054688 59.894531 L 63.957031 60.191406 L 63.871094 60.496094 L 63.800781 60.800781 L 63.746094 61.113281 L 63.707031 61.425781 L 63.683594 61.738281 L 63.675781 62.050781 L 63.683594 62.367188 L 69.984375 62.050781 "
       id="path131" />
    <path
       style=" stroke:none;fill-rule:nonzero;fill:rgb(100%,100%,100%);fill-opacity:1;"
       d="M 69.984375 62.054688 L 63.683594 62.371094 L 63.707031 62.683594 L 63.746094 62.996094 L 63.800781 63.304688 L 63.871094 63.613281 L 63.957031 63.914063 L 64.058594 64.214844 L 64.171875 64.507813 L 64.300781 64.792969 L 64.445313 65.070313 L 64.601563 65.347656 L 64.773438 65.609375 L 64.957031 65.863281 L 65.359375 66.347656 L 65.8125 66.785156 L 66.304688 67.179688 L 66.5625 67.355469 L 66.832031 67.519531 L 67.105469 67.667969 L 67.390625 67.804688 L 67.679688 67.929688 L 67.976563 68.035156 L 68.277344 68.128906 L 68.582031 68.207031 L 68.890625 68.269531 L 69.199219 68.316406 L 69.515625 68.34375 L 69.828125 68.363281 L 70.144531 68.363281 L 70.457031 68.34375 L 70.769531 68.316406 L 71.082031 68.269531 L 71.390625 68.203125 L 71.695313 68.128906 L 71.996094 68.035156 L 72.289063 67.925781 L 72.578125 67.804688 L 72.863281 67.667969 L 73.140625 67.519531 L 73.40625 67.355469 L 73.667969 67.175781 L 73.917969 66.988281 L 74.390625 66.570313 L 74.816406 66.109375 L 75.015625 65.863281 L 75.199219 65.609375 L 75.367188 65.34375 L 75.523438 65.070313 L 75.667969 64.789063 L 75.796875 64.503906 L 75.914063 64.210938 L 76.011719 63.914063 L 76.097656 63.609375 L 76.167969 63.304688 L 76.222656 62.992188 L 76.261719 62.683594 L 76.285156 62.367188 L 76.292969 62.054688 L 76.285156 61.738281 L 76.261719 61.425781 L 69.984375 62.054688 "
       id="path133" />
    <path
       style=" stroke:none;fill-rule:nonzero;fill:rgb(100%,100%,100%);fill-opacity:1;"
       d="M 101.527344 62.054688 L 107.835938 62.054688 L 107.828125 61.742188 L 107.804688 61.425781 L 107.765625 61.113281 L 107.710938 60.804688 L 107.640625 60.5 L 107.554688 60.195313 L 107.453125 59.898438 L 107.339844 59.605469 L 107.210938 59.316406 L 107.066406 59.039063 L 106.910156 58.765625 L 106.738281 58.5 L 106.554688 58.242188 L 106.359375 58 L 105.929688 57.539063 L 105.460938 57.121094 L 105.210938 56.933594 L 104.949219 56.753906 L 104.679688 56.589844 L 104.402344 56.4375 L 104.121094 56.304688 L 103.832031 56.183594 L 103.535156 56.074219 L 103.234375 55.984375 L 102.929688 55.902344 L 102.621094 55.839844 L 102.3125 55.792969 L 102 55.761719 L 101.683594 55.746094 L 101.367188 55.746094 L 101.054688 55.761719 L 100.742188 55.792969 L 100.429688 55.839844 L 100.121094 55.902344 L 99.816406 55.984375 L 99.515625 56.074219 L 99.222656 56.183594 L 98.933594 56.304688 L 98.648438 56.4375 L 98.371094 56.589844 L 98.105469 56.753906 L 97.84375 56.929688 L 97.351563 57.320313 L 96.902344 57.761719 L 96.5 58.242188 L 96.3125 58.496094 L 96.144531 58.761719 L 95.984375 59.039063 L 95.84375 59.316406 L 95.714844 59.601563 L 95.597656 59.894531 L 95.5 60.191406 L 95.414063 60.496094 L 95.34375 60.800781 L 95.289063 61.113281 L 95.25 61.425781 L 95.226563 61.738281 L 95.21875 62.050781 L 95.226563 62.367188 L 101.527344 62.050781 "
       id="path135" />
    <path
       style=" stroke:none;fill-rule:nonzero;fill:rgb(100%,100%,100%);fill-opacity:1;"
       d="M 101.527344 62.054688 L 95.226563 62.371094 L 95.25 62.683594 L 95.289063 62.996094 L 95.34375 63.304688 L 95.414063 63.613281 L 95.5 63.914063 L 95.597656 64.214844 L 95.714844 64.507813 L 95.84375 64.792969 L 95.988281 65.070313 L 96.144531 65.347656 L 96.316406 65.609375 L 96.5 65.863281 L 96.902344 66.347656 L 97.351563 66.785156 L 97.84375 67.179688 L 98.105469 67.355469 L 98.375 67.519531 L 98.648438 67.667969 L 98.933594 67.804688 L 99.222656 67.929688 L 99.519531 68.035156 L 99.820313 68.128906 L 100.125 68.207031 L 100.433594 68.269531 L 100.742188 68.316406 L 101.054688 68.34375 L 101.371094 68.363281 L 101.683594 68.363281 L 102 68.34375 L 102.3125 68.316406 L 102.625 68.269531 L 102.933594 68.203125 L 103.238281 68.128906 L 103.535156 68.035156 L 103.832031 67.925781 L 104.121094 67.804688 L 104.40625 67.667969 L 104.683594 67.519531 L 104.949219 67.355469 L 105.210938 67.175781 L 105.460938 66.988281 L 105.933594 66.570313 L 106.359375 66.109375 L 106.554688 65.863281 L 106.738281 65.609375 L 106.910156 65.34375 L 107.066406 65.070313 L 107.210938 64.789063 L 107.339844 64.503906 L 107.453125 64.210938 L 107.554688 63.914063 L 107.640625 63.609375 L 107.710938 63.304688 L 107.765625 62.992188 L 107.804688 62.683594 L 107.828125 62.367188 L 107.835938 62.054688 L 107.828125 61.738281 L 107.804688 61.425781 L 101.527344 62.054688 "
       id="path137" />
    <path
       style=" stroke:none;fill-rule:nonzero;fill:rgb(100%,100%,100%);fill-opacity:1;"
       d="M 133.070313 62.054688 L 139.378906 62.054688 L 139.367188 61.742188 L 139.347656 61.425781 L 139.308594 61.113281 L 139.253906 60.804688 L 139.183594 60.5 L 139.097656 60.195313 L 138.996094 59.898438 L 138.882813 59.605469 L 138.753906 59.316406 L 138.609375 59.039063 L 138.453125 58.765625 L 138.28125 58.5 L 138.097656 58.242188 L 137.902344 58 L 137.472656 57.539063 L 137.003906 57.121094 L 136.75 56.933594 L 136.492188 56.753906 L 136.222656 56.589844 L 135.945313 56.4375 L 135.664063 56.304688 L 135.375 56.183594 L 135.078125 56.074219 L 134.777344 55.984375 L 134.472656 55.902344 L 134.164063 55.839844 L 133.851563 55.792969 L 133.539063 55.761719 L 133.226563 55.746094 L 132.910156 55.746094 L 132.597656 55.761719 L 132.285156 55.792969 L 131.972656 55.839844 L 131.664063 55.902344 L 131.359375 55.984375 L 131.058594 56.074219 L 130.765625 56.183594 L 130.472656 56.304688 L 130.191406 56.4375 L 129.914063 56.589844 L 129.644531 56.753906 L 129.386719 56.929688 L 128.894531 57.320313 L 128.445313 57.761719 L 128.039063 58.242188 L 127.855469 58.496094 L 127.6875 58.761719 L 127.527344 59.039063 L 127.386719 59.316406 L 127.253906 59.601563 L 127.140625 59.894531 L 127.039063 60.191406 L 126.953125 60.496094 L 126.886719 60.800781 L 126.832031 61.113281 L 126.792969 61.425781 L 126.769531 61.738281 L 126.761719 62.050781 L 126.769531 62.367188 L 133.070313 62.050781 "
       id="path139" />
    <path
       style=" stroke:none;fill-rule:nonzero;fill:rgb(100%,100%,100%);fill-opacity:1;"
       d="M 133.070313 62.054688 L 126.769531 62.371094 L 126.792969 62.683594 L 126.832031 62.996094 L 126.886719 63.304688 L 126.957031 63.613281 L 127.042969 63.914063 L 127.140625 64.214844 L 127.257813 64.507813 L 127.386719 64.792969 L 127.527344 65.070313 L 127.6875 65.347656 L 127.855469 65.609375 L 128.042969 65.863281 L 128.445313 66.347656 L 128.894531 66.785156 L 129.386719 67.179688 L 129.648438 67.355469 L 129.917969 67.519531 L 130.191406 67.667969 L 130.476563 67.804688 L 130.765625 67.929688 L 131.0625 68.035156 L 131.359375 68.128906 L 131.667969 68.207031 L 131.976563 68.269531 L 132.285156 68.316406 L 132.597656 68.34375 L 132.914063 68.363281 L 133.226563 68.363281 L 133.542969 68.34375 L 133.855469 68.316406 L 134.167969 68.269531 L 134.472656 68.203125 L 134.777344 68.128906 L 135.078125 68.035156 L 135.375 67.925781 L 135.664063 67.804688 L 135.949219 67.667969 L 136.222656 67.519531 L 136.492188 67.355469 L 136.753906 67.175781 L 137.003906 66.988281 L 137.476563 66.570313 L 137.902344 66.109375 L 138.097656 65.863281 L 138.28125 65.609375 L 138.453125 65.34375 L 138.609375 65.070313 L 138.753906 64.789063 L 138.882813 64.503906 L 138.996094 64.210938 L 139.097656 63.914063 L 139.183594 63.609375 L 139.253906 63.304688 L 139.308594 62.992188 L 139.347656 62.683594 L 139.371094 62.367188 L 139.378906 62.054688 L 139.367188 61.738281 L 139.347656 61.425781 L 133.070313 62.054688 "
       id="path141" />
    <path
       style="fill:none;stroke-width:0.674;stroke-linecap:round;stroke-linejoin:round;stroke:rgb(49.803162%,49.803162%,49.803162%);stroke-opacity:1;stroke-miterlimit:4;"
       d="M 2.167969 62.054688 L 11.632813 62.054688 M 6.898438 64.421875 L 6.898438 59.691406 "
       id="path143" />
    <path
       style="fill:none;stroke-width:1.2;stroke-linecap:round;stroke-linejoin:round;stroke:rgb(0%,0%,0%);stroke-opacity:1;stroke-miterlimit:4;"
       d="M 2.300781 63.910156 L 2.683594 63.832031 L 3.066406 63.742188 L 3.449219 63.644531 L 3.835938 63.523438 L 4.21875 63.386719 L 4.601563 63.238281 L 4.984375 63.074219 L 5.367188 62.886719 L 5.75 62.691406 L 6.132813 62.488281 L 6.515625 62.273438 L 7.28125 61.835938 L 7.667969 61.621094 L 8.050781 61.414063 L 8.433594 61.21875 L 8.816406 61.039063 L 9.199219 60.867188 L 9.582031 60.71875 L 9.964844 60.582031 L 10.347656 60.46875 L 10.730469 60.363281 L 11.117188 60.277344 L 11.5 60.199219 "
       id="path145" />
    <path
       style="fill:none;stroke-width:1.18;stroke-linecap:round;stroke-linejoin:round;stroke:rgb(0%,0%,0%);stroke-opacity:1;stroke-miterlimit:4;"
       d="M 13.207031 62.054688 L 13.199219 61.742188 L 13.175781 61.425781 L 13.136719 61.113281 L 13.082031 60.804688 L 13.011719 60.5 L 12.929688 60.195313 L 12.828125 59.898438 L 12.714844 59.605469 L 12.585938 59.316406 L 12.441406 59.039063 L 12.28125 58.765625 L 12.113281 58.5 L 11.929688 58.246094 L 11.730469 58 L 11.304688 57.539063 L 10.832031 57.121094 L 10.582031 56.929688 L 10.320313 56.75 L 10.054688 56.585938 L 9.777344 56.4375 L 9.492188 56.300781 L 9.203125 56.179688 L 8.910156 56.070313 L 8.609375 55.980469 L 8.304688 55.902344 L 7.996094 55.839844 L 7.683594 55.792969 L 7.371094 55.761719 L 7.058594 55.746094 L 6.742188 55.746094 L 6.429688 55.761719 L 6.113281 55.792969 L 5.804688 55.839844 L 5.496094 55.902344 L 5.191406 55.980469 L 4.890625 56.070313 L 4.59375 56.179688 L 4.304688 56.300781 L 4.019531 56.4375 L 3.746094 56.589844 L 3.476563 56.753906 L 3.21875 56.929688 L 2.726563 57.320313 L 2.273438 57.761719 L 1.871094 58.242188 L 1.6875 58.496094 L 1.515625 58.761719 L 1.359375 59.035156 L 1.214844 59.316406 L 1.085938 59.601563 L 0.972656 59.894531 L 0.871094 60.191406 L 0.785156 60.496094 L 0.714844 60.800781 L 0.660156 61.113281 L 0.625 61.425781 L 0.597656 61.738281 L 0.589844 62.050781 L 0.597656 62.367188 L 0.625 62.679688 L 0.660156 62.992188 L 0.71875 63.300781 L 0.785156 63.609375 L 0.871094 63.910156 L 0.972656 64.210938 L 1.085938 64.503906 L 1.21875 64.789063 L 1.359375 65.070313 L 1.519531 65.34375 L 1.6875 65.605469 L 1.871094 65.859375 L 2.277344 66.34375 L 2.726563 66.78125 L 3.21875 67.175781 L 3.476563 67.351563 L 3.746094 67.515625 L 4.023438 67.664063 L 4.304688 67.800781 L 4.597656 67.925781 L 4.890625 68.03125 L 5.191406 68.125 L 5.496094 68.207031 L 5.804688 68.265625 L 6.117188 68.3125 L 6.429688 68.34375 L 6.742188 68.363281 L 7.058594 68.363281 L 7.375 68.34375 L 7.6875 68.3125 L 7.996094 68.265625 L 8.304688 68.199219 L 8.609375 68.125 L 8.910156 68.03125 L 9.207031 67.921875 L 9.496094 67.800781 L 9.777344 67.664063 L 10.054688 67.515625 L 10.324219 67.351563 L 10.585938 67.171875 L 10.835938 66.984375 L 11.304688 66.566406 L 11.734375 66.105469 L 11.929688 65.859375 L 12.113281 65.605469 L 12.285156 65.339844 L 12.441406 65.066406 L 12.585938 64.785156 L 12.714844 64.5 L 12.828125 64.207031 L 12.929688 63.910156 L 13.015625 63.605469 L 13.085938 63.300781 L 13.136719 62.988281 L 13.175781 62.679688 L 13.199219 62.363281 L 13.207031 62.050781 L 13.199219 61.734375 L 13.175781 61.421875 "
       id="path147" />
    <path
       style="fill:none;stroke-width:0.674;stroke-linecap:round;stroke-linejoin:round;stroke:rgb(49.803162%,49.803162%,49.803162%);stroke-opacity:1;stroke-miterlimit:4;"
       d="M 33.710938 62.054688 L 43.175781 62.054688 M 38.441406 64.421875 L 38.441406 59.691406 "
       id="path149" />
    <path
       style="fill:none;stroke-width:1.2;stroke-linecap:round;stroke-linejoin:round;stroke:rgb(0%,0%,0%);stroke-opacity:1;stroke-miterlimit:4;"
       d="M 33.84375 63.910156 L 34.226563 63.832031 L 34.609375 63.742188 L 34.992188 63.644531 L 35.375 63.523438 L 35.757813 63.386719 L 36.144531 63.238281 L 36.527344 63.074219 L 36.910156 62.886719 L 37.292969 62.691406 L 37.675781 62.488281 L 38.058594 62.273438 L 38.824219 61.835938 L 39.210938 61.621094 L 39.59375 61.414063 L 39.976563 61.21875 L 40.359375 61.039063 L 40.742188 60.867188 L 41.125 60.71875 L 41.507813 60.582031 L 41.890625 60.46875 L 42.273438 60.363281 L 42.65625 60.277344 L 43.042969 60.199219 "
       id="path151" />
    <path
       style="fill:none;stroke-width:1.18;stroke-linecap:round;stroke-linejoin:round;stroke:rgb(0%,0%,0%);stroke-opacity:1;stroke-miterlimit:4;"
       d="M 44.75 62.054688 L 44.742188 61.742188 L 44.71875 61.425781 L 44.679688 61.113281 L 44.625 60.804688 L 44.554688 60.5 L 44.46875 60.195313 L 44.371094 59.898438 L 44.253906 59.605469 L 44.125 59.316406 L 43.980469 59.039063 L 43.824219 58.765625 L 43.652344 58.5 L 43.472656 58.246094 L 43.273438 58 L 42.847656 57.539063 L 42.375 57.121094 L 42.125 56.929688 L 41.863281 56.75 L 41.597656 56.585938 L 41.320313 56.4375 L 41.035156 56.300781 L 40.746094 56.179688 L 40.449219 56.070313 L 40.148438 55.980469 L 39.847656 55.902344 L 39.535156 55.839844 L 39.226563 55.792969 L 38.914063 55.761719 L 38.597656 55.746094 L 38.285156 55.746094 L 37.96875 55.761719 L 37.65625 55.792969 L 37.347656 55.839844 L 37.039063 55.902344 L 36.734375 55.980469 L 36.433594 56.070313 L 36.136719 56.179688 L 35.847656 56.300781 L 35.5625 56.4375 L 35.285156 56.589844 L 35.019531 56.753906 L 34.757813 56.929688 L 34.265625 57.320313 L 33.816406 57.761719 L 33.414063 58.242188 L 33.230469 58.496094 L 33.058594 58.761719 L 32.902344 59.035156 L 32.757813 59.316406 L 32.628906 59.601563 L 32.515625 59.894531 L 32.414063 60.191406 L 32.328125 60.496094 L 32.257813 60.800781 L 32.203125 61.113281 L 32.164063 61.425781 L 32.140625 61.738281 L 32.132813 62.050781 L 32.140625 62.367188 L 32.164063 62.679688 L 32.203125 62.992188 L 32.257813 63.300781 L 32.328125 63.609375 L 32.414063 63.910156 L 32.515625 64.210938 L 32.628906 64.503906 L 32.757813 64.789063 L 32.902344 65.070313 L 33.058594 65.34375 L 33.230469 65.605469 L 33.414063 65.859375 L 33.816406 66.34375 L 34.269531 66.78125 L 34.761719 67.175781 L 35.019531 67.351563 L 35.289063 67.515625 L 35.566406 67.664063 L 35.847656 67.800781 L 36.140625 67.925781 L 36.433594 68.03125 L 36.734375 68.125 L 37.039063 68.207031 L 37.347656 68.265625 L 37.660156 68.3125 L 37.972656 68.34375 L 38.285156 68.363281 L 38.601563 68.363281 L 38.914063 68.34375 L 39.226563 68.3125 L 39.539063 68.265625 L 39.847656 68.199219 L 40.152344 68.125 L 40.453125 68.03125 L 40.75 67.921875 L 41.039063 67.800781 L 41.320313 67.664063 L 41.597656 67.515625 L 41.867188 67.351563 L 42.125 67.171875 L 42.378906 66.984375 L 42.847656 66.566406 L 43.277344 66.105469 L 43.472656 65.859375 L 43.65625 65.605469 L 43.824219 65.339844 L 43.984375 65.066406 L 44.128906 64.785156 L 44.257813 64.5 L 44.371094 64.207031 L 44.472656 63.910156 L 44.554688 63.605469 L 44.625 63.300781 L 44.679688 62.988281 L 44.71875 62.679688 L 44.742188 62.363281 L 44.75 62.050781 L 44.742188 61.734375 L 44.71875 61.421875 "
       id="path153" />
    <path
       style="fill:none;stroke-width:0.674;stroke-linecap:round;stroke-linejoin:round;stroke:rgb(49.803162%,49.803162%,49.803162%);stroke-opacity:1;stroke-miterlimit:4;"
       d="M 65.253906 62.054688 L 74.714844 62.054688 M 69.984375 64.421875 L 69.984375 59.691406 "
       id="path155" />
    <path
       style="fill:none;stroke-width:1.2;stroke-linecap:round;stroke-linejoin:round;stroke:rgb(0%,0%,0%);stroke-opacity:1;stroke-miterlimit:4;"
       d="M 65.382813 63.910156 L 65.765625 63.832031 L 66.152344 63.742188 L 66.535156 63.644531 L 66.917969 63.523438 L 67.300781 63.386719 L 67.683594 63.238281 L 68.066406 63.074219 L 68.449219 62.886719 L 68.835938 62.691406 L 69.21875 62.488281 L 69.601563 62.273438 L 70.367188 61.835938 L 70.75 61.621094 L 71.132813 61.414063 L 71.515625 61.21875 L 71.902344 61.039063 L 72.285156 60.867188 L 72.667969 60.71875 L 73.050781 60.582031 L 73.433594 60.46875 L 73.816406 60.363281 L 74.203125 60.277344 L 74.585938 60.199219 "
       id="path157" />
    <path
       style="fill:none;stroke-width:1.18;stroke-linecap:round;stroke-linejoin:round;stroke:rgb(0%,0%,0%);stroke-opacity:1;stroke-miterlimit:4;"
       d="M 76.292969 62.054688 L 76.285156 61.742188 L 76.261719 61.425781 L 76.222656 61.113281 L 76.167969 60.804688 L 76.097656 60.5 L 76.011719 60.195313 L 75.910156 59.898438 L 75.796875 59.605469 L 75.667969 59.316406 L 75.523438 59.039063 L 75.367188 58.765625 L 75.195313 58.5 L 75.011719 58.246094 L 74.816406 58 L 74.390625 57.539063 L 73.917969 57.121094 L 73.667969 56.929688 L 73.40625 56.75 L 73.136719 56.585938 L 72.863281 56.4375 L 72.578125 56.300781 L 72.289063 56.179688 L 71.992188 56.070313 L 71.691406 55.980469 L 71.386719 55.902344 L 71.078125 55.839844 L 70.769531 55.792969 L 70.453125 55.761719 L 70.140625 55.746094 L 69.828125 55.746094 L 69.511719 55.761719 L 69.199219 55.792969 L 68.886719 55.839844 L 68.578125 55.902344 L 68.273438 55.980469 L 67.976563 56.070313 L 67.679688 56.179688 L 67.390625 56.300781 L 67.105469 56.4375 L 66.828125 56.589844 L 66.5625 56.753906 L 66.300781 56.929688 L 65.808594 57.320313 L 65.359375 57.761719 L 64.953125 58.242188 L 64.773438 58.496094 L 64.601563 58.761719 L 64.445313 59.035156 L 64.300781 59.316406 L 64.171875 59.601563 L 64.054688 59.894531 L 63.957031 60.191406 L 63.871094 60.496094 L 63.800781 60.800781 L 63.746094 61.113281 L 63.707031 61.425781 L 63.683594 61.738281 L 63.675781 62.050781 L 63.683594 62.367188 L 63.707031 62.679688 L 63.746094 62.992188 L 63.800781 63.300781 L 63.871094 63.609375 L 63.957031 63.910156 L 64.058594 64.210938 L 64.171875 64.503906 L 64.300781 64.789063 L 64.445313 65.070313 L 64.601563 65.34375 L 64.773438 65.605469 L 64.957031 65.859375 L 65.359375 66.34375 L 65.8125 66.78125 L 66.304688 67.175781 L 66.5625 67.351563 L 66.832031 67.515625 L 67.105469 67.664063 L 67.390625 67.800781 L 67.679688 67.925781 L 67.976563 68.03125 L 68.277344 68.125 L 68.582031 68.207031 L 68.890625 68.265625 L 69.199219 68.3125 L 69.515625 68.34375 L 69.828125 68.363281 L 70.144531 68.363281 L 70.457031 68.34375 L 70.769531 68.3125 L 71.082031 68.265625 L 71.390625 68.199219 L 71.695313 68.125 L 71.996094 68.03125 L 72.289063 67.921875 L 72.578125 67.800781 L 72.863281 67.664063 L 73.140625 67.515625 L 73.40625 67.351563 L 73.667969 67.171875 L 73.917969 66.984375 L 74.390625 66.566406 L 74.816406 66.105469 L 75.015625 65.859375 L 75.199219 65.605469 L 75.367188 65.339844 L 75.523438 65.066406 L 75.667969 64.785156 L 75.796875 64.5 L 75.914063 64.207031 L 76.011719 63.910156 L 76.097656 63.605469 L 76.167969 63.300781 L 76.222656 62.988281 L 76.261719 62.679688 L 76.285156 62.363281 L 76.292969 62.050781 L 76.285156 61.734375 L 76.261719 61.421875 "
       id="path159" />
    <path
       style="fill:none;stroke-width:0.674;stroke-linecap:round;stroke-linejoin:round;stroke:rgb(49.803162%,49.803162%,49.803162%);stroke-opacity:1;stroke-miterlimit:4;"
       d="M 96.796875 62.054688 L 106.257813 62.054688 M 101.527344 64.421875 L 101.527344 59.691406 "
       id="path161" />
    <path
       style="fill:none;stroke-width:1.2;stroke-linecap:round;stroke-linejoin:round;stroke:rgb(0%,0%,0%);stroke-opacity:1;stroke-miterlimit:4;"
       d="M 96.925781 63.910156 L 97.3125 63.832031 L 97.695313 63.742188 L 98.078125 63.644531 L 98.460938 63.523438 L 98.84375 63.386719 L 99.226563 63.238281 L 99.609375 63.074219 L 99.992188 62.886719 L 100.378906 62.691406 L 100.761719 62.488281 L 101.144531 62.273438 L 101.910156 61.835938 L 102.292969 61.621094 L 102.675781 61.414063 L 103.058594 61.21875 L 103.441406 61.039063 L 103.824219 60.867188 L 104.210938 60.71875 L 104.59375 60.582031 L 104.976563 60.46875 L 105.359375 60.363281 L 105.742188 60.277344 L 106.128906 60.199219 "
       id="path163" />
    <path
       style="fill:none;stroke-width:1.18;stroke-linecap:round;stroke-linejoin:round;stroke:rgb(0%,0%,0%);stroke-opacity:1;stroke-miterlimit:4;"
       d="M 107.835938 62.054688 L 107.828125 61.742188 L 107.804688 61.425781 L 107.765625 61.113281 L 107.710938 60.804688 L 107.640625 60.5 L 107.554688 60.195313 L 107.453125 59.898438 L 107.339844 59.605469 L 107.210938 59.316406 L 107.066406 59.039063 L 106.910156 58.765625 L 106.738281 58.5 L 106.554688 58.246094 L 106.359375 58 L 105.929688 57.539063 L 105.460938 57.121094 L 105.210938 56.929688 L 104.949219 56.75 L 104.679688 56.585938 L 104.402344 56.4375 L 104.121094 56.300781 L 103.832031 56.179688 L 103.535156 56.070313 L 103.234375 55.980469 L 102.929688 55.902344 L 102.621094 55.839844 L 102.3125 55.792969 L 102 55.761719 L 101.683594 55.746094 L 101.367188 55.746094 L 101.054688 55.761719 L 100.742188 55.792969 L 100.429688 55.839844 L 100.121094 55.902344 L 99.816406 55.980469 L 99.515625 56.070313 L 99.222656 56.179688 L 98.933594 56.300781 L 98.648438 56.4375 L 98.371094 56.589844 L 98.105469 56.753906 L 97.84375 56.929688 L 97.351563 57.320313 L 96.902344 57.761719 L 96.5 58.242188 L 96.3125 58.496094 L 96.144531 58.761719 L 95.984375 59.035156 L 95.84375 59.316406 L 95.714844 59.601563 L 95.597656 59.894531 L 95.5 60.191406 L 95.414063 60.496094 L 95.34375 60.800781 L 95.289063 61.113281 L 95.25 61.425781 L 95.226563 61.738281 L 95.21875 62.050781 L 95.226563 62.367188 L 95.25 62.679688 L 95.289063 62.992188 L 95.34375 63.300781 L 95.414063 63.609375 L 95.5 63.910156 L 95.597656 64.210938 L 95.714844 64.503906 L 95.84375 64.789063 L 95.988281 65.070313 L 96.144531 65.34375 L 96.316406 65.605469 L 96.5 65.859375 L 96.902344 66.34375 L 97.351563 66.78125 L 97.84375 67.175781 L 98.105469 67.351563 L 98.375 67.515625 L 98.648438 67.664063 L 98.933594 67.800781 L 99.222656 67.925781 L 99.519531 68.03125 L 99.820313 68.125 L 100.125 68.207031 L 100.433594 68.265625 L 100.742188 68.3125 L 101.054688 68.34375 L 101.371094 68.363281 L 101.683594 68.363281 L 102 68.34375 L 102.3125 68.3125 L 102.625 68.265625 L 102.933594 68.199219 L 103.238281 68.125 L 103.535156 68.03125 L 103.832031 67.921875 L 104.121094 67.800781 L 104.40625 67.664063 L 104.683594 67.515625 L 104.949219 67.351563 L 105.210938 67.171875 L 105.460938 66.984375 L 105.933594 66.566406 L 106.359375 66.105469 L 106.554688 65.859375 L 106.738281 65.605469 L 106.910156 65.339844 L 107.066406 65.066406 L 107.210938 64.785156 L 107.339844 64.5 L 107.453125 64.207031 L 107.554688 63.910156 L 107.640625 63.605469 L 107.710938 63.300781 L 107.765625 62.988281 L 107.804688 62.679688 L 107.828125 62.363281 L 107.835938 62.050781 L 107.828125 61.734375 L 107.804688 61.421875 "
       id="path165" />
    <path
       style="fill:none;stroke-width:0.674;stroke-linecap:round;stroke-linejoin:round;stroke:rgb(49.803162%,49.803162%,49.803162%);stroke-opacity:1;stroke-miterlimit:4;"
       d="M 128.335938 62.054688 L 137.800781 62.054688 M 133.070313 64.421875 L 133.070313 59.691406 "
       id="path167" />
    <path
       style="fill:none;stroke-width:1.2;stroke-linecap:round;stroke-linejoin:round;stroke:rgb(0%,0%,0%);stroke-opacity:1;stroke-miterlimit:4;"
       d="M 128.46875 63.910156 L 128.851563 63.832031 L 129.234375 63.742188 L 129.621094 63.644531 L 130.003906 63.523438 L 130.386719 63.386719 L 130.769531 63.238281 L 131.152344 63.074219 L 131.535156 62.886719 L 131.917969 62.691406 L 132.300781 62.488281 L 132.6875 62.273438 L 133.453125 61.835938 L 133.835938 61.621094 L 134.21875 61.414063 L 134.601563 61.21875 L 134.984375 61.039063 L 135.367188 60.867188 L 135.753906 60.71875 L 136.136719 60.582031 L 136.519531 60.46875 L 136.902344 60.363281 L 137.285156 60.277344 L 137.667969 60.199219 "
       id="path169" />
    <path
       style="fill:none;stroke-width:1.18;stroke-linecap:round;stroke-linejoin:round;stroke:rgb(0%,0%,0%);stroke-opacity:1;stroke-miterlimit:4;"
       d="M 139.378906 62.054688 L 139.367188 61.742188 L 139.347656 61.425781 L 139.308594 61.113281 L 139.253906 60.804688 L 139.183594 60.5 L 139.097656 60.195313 L 138.996094 59.898438 L 138.882813 59.605469 L 138.753906 59.316406 L 138.609375 59.039063 L 138.453125 58.765625 L 138.28125 58.5 L 138.097656 58.246094 L 137.902344 58 L 137.472656 57.539063 L 137.003906 57.121094 L 136.75 56.929688 L 136.492188 56.75 L 136.222656 56.585938 L 135.945313 56.4375 L 135.664063 56.300781 L 135.375 56.179688 L 135.078125 56.070313 L 134.777344 55.980469 L 134.472656 55.902344 L 134.164063 55.839844 L 133.851563 55.792969 L 133.539063 55.761719 L 133.226563 55.746094 L 132.910156 55.746094 L 132.597656 55.761719 L 132.285156 55.792969 L 131.972656 55.839844 L 131.664063 55.902344 L 131.359375 55.980469 L 131.058594 56.070313 L 130.765625 56.179688 L 130.472656 56.300781 L 130.191406 56.4375 L 129.914063 56.589844 L 129.644531 56.753906 L 129.386719 56.929688 L 128.894531 57.320313 L 128.445313 57.761719 L 128.039063 58.242188 L 127.855469 58.496094 L 127.6875 58.761719 L 127.527344 59.035156 L 127.386719 59.316406 L 127.253906 59.601563 L 127.140625 59.894531 L 127.039063 60.191406 L 126.953125 60.496094 L 126.886719 60.800781 L 126.832031 61.113281 L 126.792969 61.425781 L 126.769531 61.738281 L 126.761719 62.050781 L 126.769531 62.367188 L 126.792969 62.679688 L 126.832031 62.992188 L 126.886719 63.300781 L 126.957031 63.609375 L 127.042969 63.910156 L 127.140625 64.210938 L 127.257813 64.503906 L 127.386719 64.789063 L 127.527344 65.070313 L 127.6875 65.34375 L 127.855469 65.605469 L 128.042969 65.859375 L 128.445313 66.34375 L 128.894531 66.78125 L 129.386719 67.175781 L 129.648438 67.351563 L 129.917969 67.515625 L 130.191406 67.664063 L 130.476563 67.800781 L 130.765625 67.925781 L 131.0625 68.03125 L 131.359375 68.125 L 131.667969 68.207031 L 131.976563 68.265625 L 132.285156 68.3125 L 132.597656 68.34375 L 132.914063 68.363281 L 133.226563 68.363281 L 133.542969 68.34375 L 133.855469 68.3125 L 134.167969 68.265625 L 134.472656 68.199219 L 134.777344 68.125 L 135.078125 68.03125 L 135.375 67.921875 L 135.664063 67.800781 L 135.949219 67.664063 L 136.222656 67.515625 L 136.492188 67.351563 L 136.753906 67.171875 L 137.003906 66.984375 L 137.476563 66.566406 L 137.902344 66.105469 L 138.097656 65.859375 L 138.28125 65.605469 L 138.453125 65.339844 L 138.609375 65.066406 L 138.753906 64.785156 L 138.882813 64.5 L 138.996094 64.207031 L 139.097656 63.910156 L 139.183594 63.605469 L 139.253906 63.300781 L 139.308594 62.988281 L 139.347656 62.679688 L 139.371094 62.363281 L 139.378906 62.050781 L 139.367188 61.734375 L 139.347656 61.421875 "
       id="path171" />
    <path
       style=" stroke:none;fill-rule:nonzero;fill:rgb(100%,100%,100%);fill-opacity:1;"
       d="M 69.984375 30.511719 L 76.292969 30.511719 L 76.285156 30.199219 L 76.261719 29.882813 L 76.222656 29.574219 L 76.167969 29.261719 L 76.097656 28.957031 L 76.011719 28.652344 L 75.910156 28.355469 L 75.796875 28.0625 L 75.667969 27.777344 L 75.523438 27.496094 L 75.367188 27.21875 L 75.195313 26.953125 L 75.011719 26.699219 L 74.816406 26.453125 L 74.390625 25.992188 L 73.917969 25.578125 L 73.667969 25.390625 L 73.40625 25.214844 L 73.136719 25.050781 L 72.863281 24.898438 L 72.578125 24.761719 L 72.289063 24.640625 L 71.992188 24.53125 L 71.691406 24.441406 L 71.386719 24.363281 L 71.078125 24.300781 L 70.769531 24.253906 L 70.453125 24.222656 L 70.140625 24.207031 L 69.828125 24.207031 L 69.511719 24.222656 L 69.199219 24.253906 L 68.886719 24.300781 L 68.578125 24.363281 L 68.273438 24.441406 L 67.976563 24.53125 L 67.679688 24.640625 L 67.390625 24.761719 L 67.105469 24.898438 L 66.828125 25.050781 L 66.5625 25.214844 L 66.300781 25.390625 L 65.808594 25.785156 L 65.359375 26.222656 L 64.953125 26.703125 L 64.773438 26.957031 L 64.601563 27.21875 L 64.445313 27.492188 L 64.300781 27.773438 L 64.171875 28.058594 L 64.054688 28.351563 L 63.957031 28.652344 L 63.871094 28.953125 L 63.800781 29.261719 L 63.746094 29.570313 L 63.707031 29.882813 L 63.683594 30.195313 L 63.675781 30.511719 L 63.683594 30.824219 L 69.984375 30.507813 "
       id="path173" />
    <path
       style=" stroke:none;fill-rule:nonzero;fill:rgb(100%,100%,100%);fill-opacity:1;"
       d="M 69.984375 30.511719 L 63.683594 30.828125 L 63.707031 31.140625 L 63.746094 31.453125 L 63.800781 31.765625 L 63.871094 32.070313 L 63.957031 32.375 L 64.058594 32.671875 L 64.171875 32.964844 L 64.300781 33.25 L 64.445313 33.527344 L 64.601563 33.804688 L 64.773438 34.0625 L 64.957031 34.320313 L 65.359375 34.800781 L 65.8125 35.238281 L 66.304688 35.632813 L 66.5625 35.808594 L 66.832031 35.972656 L 67.105469 36.128906 L 67.390625 36.261719 L 67.679688 36.382813 L 67.976563 36.488281 L 68.277344 36.582031 L 68.582031 36.660156 L 68.890625 36.722656 L 69.199219 36.769531 L 69.515625 36.800781 L 69.828125 36.820313 L 70.144531 36.820313 L 70.457031 36.800781 L 70.769531 36.769531 L 71.082031 36.722656 L 71.390625 36.660156 L 71.695313 36.582031 L 71.996094 36.488281 L 72.289063 36.378906 L 72.578125 36.257813 L 72.863281 36.121094 L 73.140625 35.972656 L 73.40625 35.808594 L 73.667969 35.628906 L 73.917969 35.441406 L 74.390625 35.023438 L 74.816406 34.5625 L 75.015625 34.316406 L 75.199219 34.0625 L 75.367188 33.796875 L 75.523438 33.523438 L 75.667969 33.246094 L 75.796875 32.957031 L 75.914063 32.664063 L 76.011719 32.367188 L 76.097656 32.0625 L 76.167969 31.757813 L 76.222656 31.449219 L 76.261719 31.136719 L 76.285156 30.820313 L 76.292969 30.507813 L 76.285156 30.191406 L 76.261719 29.878906 L 69.984375 30.507813 "
       id="path175" />
    <path
       style="fill:none;stroke-width:0.674;stroke-linecap:round;stroke-linejoin:round;stroke:rgb(49.803162%,49.803162%,49.803162%);stroke-opacity:1;stroke-miterlimit:4;"
       d="M 65.253906 30.511719 L 74.714844 30.511719 M 69.984375 32.878906 L 69.984375 28.148438 "
       id="path177" />
    <path
       style="fill:none;stroke-width:1.2;stroke-linecap:round;stroke-linejoin:round;stroke:rgb(0%,0%,0%);stroke-opacity:1;stroke-miterlimit:4;"
       d="M 65.382813 32.371094 L 65.765625 32.289063 L 66.152344 32.199219 L 66.535156 32.101563 L 66.917969 31.980469 L 67.300781 31.84375 L 67.683594 31.695313 L 68.066406 31.527344 L 68.449219 31.34375 L 68.835938 31.148438 L 69.21875 30.941406 L 69.601563 30.726563 L 70.367188 30.289063 L 71.132813 29.867188 L 71.515625 29.675781 L 71.902344 29.492188 L 72.285156 29.324219 L 72.667969 29.175781 L 73.050781 29.039063 L 73.433594 28.921875 L 73.816406 28.824219 L 74.203125 28.734375 L 74.585938 28.65625 "
       id="path179" />
    <path
       style="fill:none;stroke-width:1.18;stroke-linecap:round;stroke-linejoin:round;stroke:rgb(0%,0%,0%);stroke-opacity:1;stroke-miterlimit:4;"
       d="M 76.292969 30.511719 L 76.285156 30.199219 L 76.261719 29.882813 L 76.222656 29.574219 L 76.167969 29.261719 L 76.097656 28.957031 L 76.011719 28.652344 L 75.910156 28.355469 L 75.796875 28.0625 L 75.667969 27.777344 L 75.523438 27.496094 L 75.367188 27.21875 L 75.195313 26.953125 L 75.011719 26.699219 L 74.816406 26.453125 L 74.390625 25.992188 L 73.917969 25.578125 L 73.667969 25.390625 L 73.40625 25.214844 L 73.136719 25.050781 L 72.863281 24.898438 L 72.578125 24.761719 L 72.289063 24.640625 L 71.992188 24.53125 L 71.691406 24.441406 L 71.386719 24.363281 L 71.078125 24.300781 L 70.769531 24.253906 L 70.453125 24.222656 L 70.140625 24.207031 L 69.828125 24.207031 L 69.511719 24.222656 L 69.199219 24.253906 L 68.886719 24.300781 L 68.578125 24.363281 L 68.273438 24.441406 L 67.976563 24.53125 L 67.679688 24.640625 L 67.390625 24.761719 L 67.105469 24.898438 L 66.828125 25.050781 L 66.5625 25.214844 L 66.300781 25.390625 L 65.808594 25.785156 L 65.359375 26.222656 L 64.953125 26.703125 L 64.773438 26.957031 L 64.601563 27.21875 L 64.445313 27.492188 L 64.300781 27.773438 L 64.171875 28.058594 L 64.054688 28.351563 L 63.957031 28.652344 L 63.871094 28.953125 L 63.800781 29.261719 L 63.746094 29.570313 L 63.707031 29.882813 L 63.683594 30.195313 L 63.675781 30.511719 L 63.683594 30.824219 L 63.707031 31.136719 L 63.746094 31.449219 L 63.800781 31.761719 L 63.871094 32.066406 L 63.957031 32.371094 L 64.058594 32.667969 L 64.171875 32.960938 L 64.300781 33.246094 L 64.445313 33.527344 L 64.601563 33.800781 L 64.773438 34.0625 L 64.957031 34.320313 L 65.359375 34.800781 L 65.8125 35.238281 L 66.304688 35.632813 L 66.5625 35.808594 L 66.832031 35.972656 L 67.105469 36.125 L 67.390625 36.261719 L 67.679688 36.382813 L 67.976563 36.488281 L 68.277344 36.582031 L 68.582031 36.660156 L 68.890625 36.722656 L 69.199219 36.769531 L 69.515625 36.800781 L 69.828125 36.820313 L 70.144531 36.820313 L 70.457031 36.800781 L 70.769531 36.769531 L 71.082031 36.722656 L 71.390625 36.660156 L 71.695313 36.582031 L 71.996094 36.488281 L 72.289063 36.378906 L 72.578125 36.257813 L 72.863281 36.121094 L 73.140625 35.972656 L 73.40625 35.808594 L 73.667969 35.628906 L 73.917969 35.441406 L 74.390625 35.023438 L 74.816406 34.5625 L 75.015625 34.316406 L 75.199219 34.0625 L 75.367188 33.796875 L 75.523438 33.523438 L 75.667969 33.246094 L 75.796875 32.957031 L 75.914063 32.664063 L 76.011719 32.367188 L 76.097656 32.0625 L 76.167969 31.757813 L 76.222656 31.449219 L 76.261719 31.136719 L 76.285156 30.820313 L 76.292969 30.507813 L 76.285156 30.191406 L 76.261719 29.878906 "
       id="path181" />
    <path
       style=" stroke:none;fill-rule:nonzero;fill:rgb(12.940979%,11.764526%,11.764526%);fill-opacity:1;"
       d="M 290.117188 125.460938 C 289.820313 125.789063 289.601563 126.195313 289.382813 126.195313 C 289.164063 126.195313 289.085938 125.914063 289.039063 125.742188 C 288.976563 125.476563 288.617188 124.007813 288.617188 123.820313 C 288.617188 123.820313 289.351563 122.507813 289.664063 122.507813 C 289.898438 122.507813 289.976563 122.695313 290.226563 122.695313 C 290.492188 122.695313 290.601563 122.492188 290.601563 122.289063 C 290.601563 122.039063 290.367188 121.898438 290.164063 121.898438 C 289.601563 121.898438 289.085938 122.554688 288.523438 123.445313 L 288.414063 122.851563 C 288.210938 121.898438 288.054688 121.898438 287.820313 121.898438 C 287.460938 121.898438 286.757813 122.164063 286.460938 122.257813 L 286.507813 122.414063 C 286.851563 122.335938 287.007813 122.304688 287.101563 122.304688 C 287.398438 122.304688 287.429688 122.460938 287.539063 122.789063 C 287.539063 122.835938 287.914063 124.273438 287.914063 124.382813 C 286.945313 125.789063 286.664063 126.164063 286.476563 126.164063 C 286.273438 126.164063 286.085938 125.945313 285.851563 125.945313 C 285.617188 125.945313 285.476563 126.148438 285.476563 126.320313 C 285.476563 126.570313 285.648438 126.789063 286.007813 126.789063 C 286.351563 126.789063 286.476563 126.664063 286.664063 126.460938 C 287.023438 126.054688 287.476563 125.476563 287.992188 124.757813 L 288.320313 126.054688 C 288.460938 126.632813 288.617188 126.789063 288.929688 126.789063 C 289.179688 126.789063 289.492188 126.789063 290.257813 125.554688 Z M 290.117188 125.460938 "
       id="path183" />
    <g
       clip-path="url(#clip1)"
       clip-rule="nonzero"
       id="g187">
      <path
         style=" stroke:none;fill-rule:nonzero;fill:rgb(12.940979%,11.764526%,11.764526%);fill-opacity:1;"
         d="M 290.832031 128.464844 L 292.332031 128.464844 L 292.332031 128.386719 C 292.066406 128.386719 291.878906 128.371094 291.878906 128.199219 C 291.878906 128.121094 291.941406 127.917969 291.972656 127.808594 L 292.738281 125.011719 C 292.769531 124.917969 292.800781 124.808594 292.753906 124.808594 C 292.707031 124.808594 291.957031 124.964844 291.707031 125.011719 L 291.707031 125.089844 L 292.019531 125.089844 C 292.066406 125.089844 292.222656 125.089844 292.222656 125.261719 C 292.222656 125.308594 292.191406 125.371094 292.175781 125.433594 L 291.441406 128.089844 C 291.363281 128.339844 291.144531 128.355469 290.832031 128.386719 Z M 290.832031 128.464844 "
         id="path185" />
    </g>
    <path
       style=" stroke:none;fill-rule:nonzero;fill:rgb(12.940979%,11.764526%,11.764526%);fill-opacity:1;"
       d="M 112.910156 61.925781 L 114.035156 61.925781 L 114.035156 63.066406 L 112.910156 63.066406 Z M 112.910156 61.925781 "
       id="path189" />
    <path
       style=" stroke:none;fill-rule:nonzero;fill:rgb(12.940979%,11.764526%,11.764526%);fill-opacity:1;"
       d="M 115.914063 61.925781 L 117.039063 61.925781 L 117.039063 63.066406 L 115.914063 63.066406 Z M 115.914063 61.925781 "
       id="path191" />
    <path
       style=" stroke:none;fill-rule:nonzero;fill:rgb(12.940979%,11.764526%,11.764526%);fill-opacity:1;"
       d="M 118.914063 61.925781 L 120.039063 61.925781 L 120.039063 63.066406 L 118.914063 63.066406 Z M 118.914063 61.925781 "
       id="path193" />
    <path
       style="fill-rule:nonzero;fill:rgb(79.214478%,79.214478%,79.214478%);fill-opacity:1;stroke-width:0.3;stroke-linecap:butt;stroke-linejoin:miter;stroke:rgb(0%,0%,0%);stroke-opacity:1;stroke-miterlimit:4;"
       d="M 212.375 104.117188 C 199.324219 112.667969 220.671875 110.167969 227.074219 115.769531 C 233.472656 121.367188 249.472656 125.769531 253.472656 119.769531 C 257.472656 113.769531 273.074219 90.167969 266.273438 83.769531 C 259.472656 77.367188 230.273438 54.566406 231.472656 75.367188 C 232.671875 96.167969 238.671875 95.367188 229.875 97.769531 C 221.074219 100.167969 212.375 104.117188 212.375 104.117188 Z M 212.375 104.117188 "
       id="path195" />
    <path
       style="fill-rule:nonzero;fill:rgb(100%,100%,100%);fill-opacity:1;stroke-width:0.3;stroke-linecap:butt;stroke-linejoin:miter;stroke:rgb(0%,0%,0%);stroke-opacity:1;stroke-miterlimit:4;"
       d="M 245.222656 91.519531 C 243.167969 95.625 241.773438 98.117188 246.875 100.667969 C 251.972656 103.21875 256.921875 100.21875 258.421875 97.519531 C 259.921875 94.816406 257.972656 88.96875 256.171875 87.769531 C 254.375 86.566406 246.421875 89.117188 245.222656 91.519531 Z M 245.222656 91.519531 "
       id="path197" />
    <path
       style=" stroke:none;fill-rule:nonzero;fill:rgb(12.940979%,11.764526%,11.764526%);fill-opacity:1;"
       d="M 44.21875 110.261719 C 43.921875 110.589844 43.703125 110.996094 43.484375 110.996094 C 43.265625 110.996094 43.1875 110.714844 43.140625 110.542969 C 43.078125 110.277344 42.71875 108.808594 42.71875 108.621094 C 42.71875 108.621094 43.453125 107.308594 43.765625 107.308594 C 44 107.308594 44.078125 107.496094 44.328125 107.496094 C 44.59375 107.496094 44.703125 107.292969 44.703125 107.089844 C 44.703125 106.839844 44.46875 106.699219 44.265625 106.699219 C 43.703125 106.699219 43.1875 107.355469 42.625 108.246094 L 42.515625 107.652344 C 42.3125 106.699219 42.15625 106.699219 41.921875 106.699219 C 41.5625 106.699219 40.859375 106.964844 40.5625 107.058594 L 40.609375 107.214844 C 40.953125 107.136719 41.109375 107.105469 41.203125 107.105469 C 41.5 107.105469 41.53125 107.261719 41.640625 107.589844 C 41.640625 107.636719 42.015625 109.074219 42.015625 109.183594 C 41.046875 110.589844 40.765625 110.964844 40.578125 110.964844 C 40.375 110.964844 40.1875 110.746094 39.953125 110.746094 C 39.71875 110.746094 39.578125 110.949219 39.578125 111.121094 C 39.578125 111.371094 39.75 111.589844 40.109375 111.589844 C 40.453125 111.589844 40.578125 111.464844 40.765625 111.261719 C 41.125 110.855469 41.578125 110.277344 42.09375 109.558594 L 42.421875 110.855469 C 42.5625 111.433594 42.71875 111.589844 43.03125 111.589844 C 43.28125 111.589844 43.59375 111.589844 44.359375 110.355469 Z M 44.21875 110.261719 "
       id="path199" />
    <path
       style=" stroke:none;fill-rule:nonzero;fill:rgb(12.940979%,11.764526%,11.764526%);fill-opacity:1;"
       d="M 44.933594 113.265625 L 46.433594 113.265625 L 46.433594 113.1875 C 46.167969 113.1875 45.980469 113.171875 45.980469 113 C 45.980469 112.921875 46.042969 112.71875 46.074219 112.609375 L 46.839844 109.8125 C 46.871094 109.71875 46.902344 109.609375 46.855469 109.609375 C 46.808594 109.609375 46.058594 109.765625 45.808594 109.8125 L 45.808594 109.890625 L 46.121094 109.890625 C 46.167969 109.890625 46.324219 109.890625 46.324219 110.0625 C 46.324219 110.109375 46.292969 110.171875 46.277344 110.234375 L 45.542969 112.890625 C 45.464844 113.140625 45.246094 113.15625 44.933594 113.1875 Z M 44.933594 113.265625 "
       id="path201" />
    <path
       style=" stroke:none;fill-rule:nonzero;fill:rgb(12.940979%,11.764526%,11.764526%);fill-opacity:1;"
       d="M 99.816406 110.261719 C 99.519531 110.589844 99.300781 110.996094 99.082031 110.996094 C 98.863281 110.996094 98.785156 110.714844 98.738281 110.542969 C 98.675781 110.277344 98.316406 108.808594 98.316406 108.621094 C 98.316406 108.621094 99.050781 107.308594 99.363281 107.308594 C 99.597656 107.308594 99.675781 107.496094 99.925781 107.496094 C 100.191406 107.496094 100.300781 107.292969 100.300781 107.089844 C 100.300781 106.839844 100.066406 106.699219 99.863281 106.699219 C 99.300781 106.699219 98.785156 107.355469 98.222656 108.246094 L 98.113281 107.652344 C 97.910156 106.699219 97.753906 106.699219 97.519531 106.699219 C 97.160156 106.699219 96.457031 106.964844 96.160156 107.058594 L 96.207031 107.214844 C 96.550781 107.136719 96.707031 107.105469 96.800781 107.105469 C 97.097656 107.105469 97.128906 107.261719 97.238281 107.589844 C 97.238281 107.636719 97.613281 109.074219 97.613281 109.183594 C 96.644531 110.589844 96.363281 110.964844 96.175781 110.964844 C 95.972656 110.964844 95.785156 110.746094 95.550781 110.746094 C 95.316406 110.746094 95.175781 110.949219 95.175781 111.121094 C 95.175781 111.371094 95.347656 111.589844 95.707031 111.589844 C 96.050781 111.589844 96.175781 111.464844 96.363281 111.261719 C 96.722656 110.855469 97.175781 110.277344 97.691406 109.558594 L 98.019531 110.855469 C 98.160156 111.433594 98.316406 111.589844 98.628906 111.589844 C 98.878906 111.589844 99.191406 111.589844 99.957031 110.355469 Z M 99.816406 110.261719 "
       id="path203" />
    <path
       style=" stroke:none;fill-rule:nonzero;fill:rgb(12.940979%,11.764526%,11.764526%);fill-opacity:1;"
       d="M 102.425781 112.515625 C 102.347656 112.703125 102.253906 112.859375 101.894531 112.859375 L 100.863281 112.859375 L 100.863281 112.828125 L 101.910156 111.796875 C 102.582031 111.125 102.707031 110.875 102.707031 110.515625 C 102.707031 110.109375 102.410156 109.609375 101.832031 109.609375 C 101.707031 109.609375 100.988281 109.625 100.707031 110.46875 L 100.816406 110.515625 C 100.894531 110.375 101.097656 110 101.582031 110 C 102.003906 110 102.253906 110.328125 102.253906 110.671875 C 102.253906 110.84375 102.222656 111.15625 101.472656 111.96875 L 100.332031 113.171875 L 100.332031 113.265625 L 102.253906 113.265625 L 102.519531 112.546875 Z M 102.425781 112.515625 "
       id="path205" />
    <path
       style=" stroke:none;fill-rule:nonzero;fill:rgb(12.940979%,11.764526%,11.764526%);fill-opacity:1;"
       d="M 251.136719 31.199219 C 253.292969 31.199219 253.761719 31.746094 253.761719 32.402344 C 253.761719 33.011719 253.339844 34.339844 251.417969 34.417969 C 250.855469 34.433594 250.496094 34.839844 250.496094 34.949219 C 250.496094 35.011719 250.542969 35.011719 250.542969 35.011719 C 250.902344 35.058594 251.136719 35.105469 251.839844 36.605469 C 252.355469 37.730469 252.667969 38.199219 253.292969 38.199219 C 254.605469 38.199219 255.902344 36.871094 255.902344 36.621094 C 255.902344 36.558594 255.824219 36.558594 255.777344 36.558594 C 255.589844 36.558594 255.183594 36.761719 255.011719 37.011719 C 254.808594 37.277344 254.558594 37.605469 254.011719 37.605469 C 253.480469 37.605469 253.121094 36.824219 252.761719 36.058594 C 252.417969 35.324219 252.261719 35.042969 252.042969 34.777344 C 253.777344 34.121094 254.699219 32.980469 254.699219 31.933594 C 254.699219 30.589844 252.902344 30.589844 251.167969 30.589844 C 249.980469 30.589844 249.246094 30.589844 248.230469 31.105469 C 246.902344 31.777344 246.808594 32.605469 246.808594 32.605469 C 246.808594 32.636719 246.808594 32.699219 246.902344 32.699219 C 247.105469 32.699219 247.636719 32.433594 247.746094 32.152344 C 247.886719 31.746094 248.042969 31.261719 249.636719 31.199219 C 249.511719 32.464844 249.308594 34.683594 247.964844 37.933594 C 247.886719 38.089844 247.886719 38.121094 247.886719 38.136719 C 247.886719 38.199219 247.964844 38.199219 247.996094 38.199219 C 248.230469 38.199219 248.652344 37.949219 248.792969 37.746094 C 248.808594 37.714844 249.042969 37.214844 249.371094 36.277344 C 249.917969 34.777344 250.339844 33.027344 250.542969 31.199219 Z M 251.136719 31.199219 "
       id="path207" />
    <path
       style=" stroke:none;fill-rule:nonzero;fill:rgb(12.940979%,11.764526%,11.764526%);fill-opacity:1;"
       d="M 256.308594 39.765625 L 257.980469 39.765625 L 257.980469 39.671875 C 257.683594 39.6875 257.464844 39.65625 257.464844 39.484375 C 257.464844 39.375 257.542969 39.15625 257.574219 39.046875 L 258.433594 35.921875 C 258.464844 35.828125 258.496094 35.703125 258.449219 35.703125 C 258.386719 35.703125 257.558594 35.890625 257.277344 35.9375 L 257.277344 36.03125 L 257.621094 36.015625 C 257.667969 36.015625 257.855469 36.015625 257.855469 36.203125 C 257.855469 36.25 257.824219 36.34375 257.808594 36.40625 L 256.980469 39.359375 C 256.902344 39.625 256.652344 39.640625 256.308594 39.6875 Z M 256.308594 39.765625 "
       id="path209" />
    <path
       style=" stroke:none;fill-rule:nonzero;fill:rgb(86.273193%,14.901733%,13.725281%);fill-opacity:1;"
       d="M 201.335938 55.800781 C 203.492188 55.800781 203.960938 56.347656 203.960938 57.003906 C 203.960938 57.613281 203.539063 58.941406 201.617188 59.019531 C 201.054688 59.035156 200.695313 59.441406 200.695313 59.550781 C 200.695313 59.613281 200.742188 59.613281 200.742188 59.613281 C 201.101563 59.660156 201.335938 59.707031 202.039063 61.207031 C 202.554688 62.332031 202.867188 62.800781 203.492188 62.800781 C 204.804688 62.800781 206.101563 61.472656 206.101563 61.222656 C 206.101563 61.160156 206.023438 61.160156 205.976563 61.160156 C 205.789063 61.160156 205.382813 61.363281 205.210938 61.613281 C 205.007813 61.878906 204.757813 62.207031 204.210938 62.207031 C 203.679688 62.207031 203.320313 61.425781 202.960938 60.660156 C 202.617188 59.925781 202.460938 59.644531 202.242188 59.378906 C 203.976563 58.722656 204.898438 57.582031 204.898438 56.535156 C 204.898438 55.191406 203.101563 55.191406 201.367188 55.191406 C 200.179688 55.191406 199.445313 55.191406 198.429688 55.707031 C 197.101563 56.378906 197.007813 57.207031 197.007813 57.207031 C 197.007813 57.238281 197.007813 57.300781 197.101563 57.300781 C 197.304688 57.300781 197.835938 57.035156 197.945313 56.753906 C 198.085938 56.347656 198.242188 55.863281 199.835938 55.800781 C 199.710938 57.066406 199.507813 59.285156 198.164063 62.535156 C 198.085938 62.691406 198.085938 62.722656 198.085938 62.738281 C 198.085938 62.800781 198.164063 62.800781 198.195313 62.800781 C 198.429688 62.800781 198.851563 62.550781 198.992188 62.347656 C 199.007813 62.316406 199.242188 61.816406 199.570313 60.878906 C 200.117188 59.378906 200.539063 57.628906 200.742188 55.800781 Z M 201.335938 55.800781 "
       id="path211" />
    <path
       style=" stroke:none;fill-rule:nonzero;fill:rgb(86.273193%,14.901733%,13.725281%);fill-opacity:1;"
       d="M 208.617188 63.539063 C 208.507813 63.742188 208.414063 63.914063 208.023438 63.914063 L 206.882813 63.914063 L 206.882813 63.882813 L 208.023438 62.726563 C 208.773438 61.992188 208.929688 61.710938 208.929688 61.320313 C 208.929688 60.867188 208.585938 60.304688 207.945313 60.304688 C 207.804688 60.304688 207.007813 60.335938 206.695313 61.273438 L 206.820313 61.320313 C 206.898438 61.164063 207.132813 60.742188 207.664063 60.742188 C 208.132813 60.742188 208.414063 61.101563 208.414063 61.476563 C 208.414063 61.679688 208.382813 62.023438 207.539063 62.914063 L 206.289063 64.257813 L 206.289063 64.367188 L 208.414063 64.367188 L 208.710938 63.570313 Z M 208.617188 63.539063 "
       id="path213" />
    <path
       style=" stroke:none;fill-rule:nonzero;fill:rgb(86.273193%,14.901733%,13.725281%);fill-opacity:1;"
       d="M 244.535156 75.898438 C 246.691406 75.898438 247.160156 76.445313 247.160156 77.101563 C 247.160156 77.710938 246.738281 79.039063 244.816406 79.117188 C 244.253906 79.132813 243.894531 79.539063 243.894531 79.648438 C 243.894531 79.710938 243.941406 79.710938 243.941406 79.710938 C 244.300781 79.757813 244.535156 79.804688 245.238281 81.304688 C 245.753906 82.429688 246.066406 82.898438 246.691406 82.898438 C 248.003906 82.898438 249.300781 81.570313 249.300781 81.320313 C 249.300781 81.257813 249.222656 81.257813 249.175781 81.257813 C 248.988281 81.257813 248.582031 81.460938 248.410156 81.710938 C 248.207031 81.976563 247.957031 82.304688 247.410156 82.304688 C 246.878906 82.304688 246.519531 81.523438 246.160156 80.757813 C 245.816406 80.023438 245.660156 79.742188 245.441406 79.476563 C 247.175781 78.820313 248.097656 77.679688 248.097656 76.632813 C 248.097656 75.289063 246.300781 75.289063 244.566406 75.289063 C 243.378906 75.289063 242.644531 75.289063 241.628906 75.804688 C 240.300781 76.476563 240.207031 77.304688 240.207031 77.304688 C 240.207031 77.335938 240.207031 77.398438 240.300781 77.398438 C 240.503906 77.398438 241.035156 77.132813 241.144531 76.851563 C 241.285156 76.445313 241.441406 75.960938 243.035156 75.898438 C 242.910156 77.164063 242.707031 79.382813 241.363281 82.632813 C 241.285156 82.789063 241.285156 82.820313 241.285156 82.835938 C 241.285156 82.898438 241.363281 82.898438 241.394531 82.898438 C 241.628906 82.898438 242.050781 82.648438 242.191406 82.445313 C 242.207031 82.414063 242.441406 81.914063 242.769531 80.976563 C 243.316406 79.476563 243.738281 77.726563 243.941406 75.898438 Z M 244.535156 75.898438 "
       id="path215" />
    <path
       style=" stroke:none;fill-rule:nonzero;fill:rgb(86.273193%,14.901733%,13.725281%);fill-opacity:1;"
       d="M 251.816406 83.636719 C 251.707031 83.839844 251.613281 84.011719 251.222656 84.011719 L 250.082031 84.011719 L 250.082031 83.980469 L 251.222656 82.824219 C 251.972656 82.089844 252.128906 81.808594 252.128906 81.417969 C 252.128906 80.964844 251.785156 80.402344 251.144531 80.402344 C 251.003906 80.402344 250.207031 80.433594 249.894531 81.371094 L 250.019531 81.417969 C 250.097656 81.261719 250.332031 80.839844 250.863281 80.839844 C 251.332031 80.839844 251.613281 81.199219 251.613281 81.574219 C 251.613281 81.777344 251.582031 82.121094 250.738281 83.011719 L 249.488281 84.355469 L 249.488281 84.464844 L 251.613281 84.464844 L 251.910156 83.667969 Z M 251.816406 83.636719 "
       id="path217" />
    <path
       style=" stroke:none;fill-rule:nonzero;fill:rgb(12.940979%,11.764526%,11.764526%);fill-opacity:1;"
       d="M 250.535156 90.300781 C 252.691406 90.300781 253.160156 90.847656 253.160156 91.503906 C 253.160156 92.113281 252.738281 93.441406 250.816406 93.519531 C 250.253906 93.535156 249.894531 93.941406 249.894531 94.050781 C 249.894531 94.113281 249.941406 94.113281 249.941406 94.113281 C 250.300781 94.160156 250.535156 94.207031 251.238281 95.707031 C 251.753906 96.832031 252.066406 97.300781 252.691406 97.300781 C 254.003906 97.300781 255.300781 95.972656 255.300781 95.722656 C 255.300781 95.660156 255.222656 95.660156 255.175781 95.660156 C 254.988281 95.660156 254.582031 95.863281 254.410156 96.113281 C 254.207031 96.378906 253.957031 96.707031 253.410156 96.707031 C 252.878906 96.707031 252.519531 95.925781 252.160156 95.160156 C 251.816406 94.425781 251.660156 94.144531 251.441406 93.878906 C 253.175781 93.222656 254.097656 92.082031 254.097656 91.035156 C 254.097656 89.691406 252.300781 89.691406 250.566406 89.691406 C 249.378906 89.691406 248.644531 89.691406 247.628906 90.207031 C 246.300781 90.878906 246.207031 91.707031 246.207031 91.707031 C 246.207031 91.738281 246.207031 91.800781 246.300781 91.800781 C 246.503906 91.800781 247.035156 91.535156 247.144531 91.253906 C 247.285156 90.847656 247.441406 90.363281 249.035156 90.300781 C 248.910156 91.566406 248.707031 93.785156 247.363281 97.035156 C 247.285156 97.191406 247.285156 97.222656 247.285156 97.238281 C 247.285156 97.300781 247.363281 97.300781 247.394531 97.300781 C 247.628906 97.300781 248.050781 97.050781 248.191406 96.847656 C 248.207031 96.816406 248.441406 96.316406 248.769531 95.378906 C 249.316406 93.878906 249.738281 92.128906 249.941406 90.300781 Z M 250.535156 90.300781 "
       id="path219" />
    <path
       style=" stroke:none;fill-rule:nonzero;fill:rgb(12.940979%,11.764526%,11.764526%);fill-opacity:1;"
       d="M 255.707031 98.867188 L 257.378906 98.867188 L 257.378906 98.773438 C 257.082031 98.789063 256.863281 98.757813 256.863281 98.585938 C 256.863281 98.476563 256.941406 98.257813 256.972656 98.148438 L 257.832031 95.023438 C 257.863281 94.929688 257.894531 94.804688 257.847656 94.804688 C 257.785156 94.804688 256.957031 94.992188 256.675781 95.039063 L 256.675781 95.132813 L 257.019531 95.117188 C 257.066406 95.117188 257.253906 95.117188 257.253906 95.304688 C 257.253906 95.351563 257.222656 95.445313 257.207031 95.507813 L 256.378906 98.460938 C 256.300781 98.726563 256.050781 98.742188 255.707031 98.789063 Z M 255.707031 98.867188 "
       id="path221" />
    <path
       style=" stroke:none;fill-rule:nonzero;fill:rgb(12.940979%,11.764526%,11.764526%);fill-opacity:1;"
       d="M 165.417969 3.5625 C 165.121094 3.890625 164.902344 4.296875 164.683594 4.296875 C 164.464844 4.296875 164.386719 4.015625 164.339844 3.84375 C 164.277344 3.578125 163.917969 2.109375 163.917969 1.921875 C 163.917969 1.921875 164.652344 0.609375 164.964844 0.609375 C 165.199219 0.609375 165.277344 0.796875 165.527344 0.796875 C 165.792969 0.796875 165.902344 0.59375 165.902344 0.390625 C 165.902344 0.140625 165.667969 0 165.464844 0 C 164.902344 0 164.386719 0.65625 163.824219 1.546875 L 163.714844 0.953125 C 163.511719 0 163.355469 0 163.121094 0 C 162.761719 0 162.058594 0.265625 161.761719 0.359375 L 161.808594 0.515625 C 162.152344 0.4375 162.308594 0.40625 162.402344 0.40625 C 162.699219 0.40625 162.730469 0.5625 162.839844 0.890625 C 162.839844 0.9375 163.214844 2.375 163.214844 2.484375 C 162.246094 3.890625 161.964844 4.265625 161.777344 4.265625 C 161.574219 4.265625 161.386719 4.046875 161.152344 4.046875 C 160.917969 4.046875 160.777344 4.25 160.777344 4.421875 C 160.777344 4.671875 160.949219 4.890625 161.308594 4.890625 C 161.652344 4.890625 161.777344 4.765625 161.964844 4.5625 C 162.324219 4.15625 162.777344 3.578125 163.292969 2.859375 L 163.621094 4.15625 C 163.761719 4.734375 163.917969 4.890625 164.230469 4.890625 C 164.480469 4.890625 164.792969 4.890625 165.558594 3.65625 Z M 165.417969 3.5625 "
       id="path223" />
    <path
       style=" stroke:none;fill-rule:nonzero;fill:rgb(12.940979%,11.764526%,11.764526%);fill-opacity:1;"
       d="M 168.023438 5.816406 C 167.945313 6.003906 167.851563 6.160156 167.492188 6.160156 L 166.460938 6.160156 L 166.460938 6.128906 L 167.507813 5.097656 C 168.179688 4.425781 168.304688 4.175781 168.304688 3.816406 C 168.304688 3.410156 168.007813 2.910156 167.429688 2.910156 C 167.304688 2.910156 166.585938 2.925781 166.304688 3.769531 L 166.414063 3.816406 C 166.492188 3.675781 166.695313 3.300781 167.179688 3.300781 C 167.601563 3.300781 167.851563 3.628906 167.851563 3.972656 C 167.851563 4.144531 167.820313 4.457031 167.070313 5.269531 L 165.929688 6.472656 L 165.929688 6.566406 L 167.851563 6.566406 L 168.117188 5.847656 Z M 168.023438 5.816406 "
       id="path225" />
    <path
       style="fill:none;stroke-width:0.6;stroke-linecap:butt;stroke-linejoin:miter;stroke:rgb(0%,0%,0%);stroke-opacity:1;stroke-miterlimit:4;"
       d="M 69.882813 24.050781 L 69.882813 12.652344 "
       id="path227" />
    <path
       style=" stroke:none;fill-rule:nonzero;fill:rgb(0%,0%,0%);fill-opacity:1;"
       d="M 69.269531 11.234375 C 68.96875 12.226563 68.691406 12.871094 68.375 13.667969 L 71.398438 13.667969 C 71.265625 13.382813 70.804688 12.226563 70.503906 11.234375 C 70.183594 10.171875 69.964844 9.210938 69.886719 8.585938 C 69.808594 9.210938 69.589844 10.171875 69.269531 11.234375 "
       id="path229" />
  </g>
</svg>
