<?xml version="1.0" encoding="UTF-8" standalone="no"?>
<svg
   xmlns:dc="http://purl.org/dc/elements/1.1/"
   xmlns:cc="http://creativecommons.org/ns#"
   xmlns:rdf="http://www.w3.org/1999/02/22-rdf-syntax-ns#"
   xmlns:svg="http://www.w3.org/2000/svg"
   xmlns="http://www.w3.org/2000/svg"
   xmlns:sodipodi="http://sodipodi.sourceforge.net/DTD/sodipodi-0.dtd"
   xmlns:inkscape="http://www.inkscape.org/namespaces/inkscape"
   width="170.784134pt"
   height="170.29689pt"
   viewBox="0 0 170.784134 170.29689"
   version="1.2"
   id="svg148"
   sodipodi:docname="knn_classifier_voronoi.svg"
   inkscape:version="0.92.4 (5da689c313, 2019-01-14)">
  <metadata
     id="metadata152">
    <rdf:RDF>
      <cc:Work
         rdf:about="">
        <dc:format>image/svg+xml</dc:format>
        <dc:type
           rdf:resource="http://purl.org/dc/dcmitype/StillImage" />
        <dc:title></dc:title>
      </cc:Work>
    </rdf:RDF>
  </metadata>
  <sodipodi:namedview
     pagecolor="#ffffff"
     bordercolor="#666666"
     borderopacity="1"
     objecttolerance="10"
     gridtolerance="10"
     guidetolerance="10"
     inkscape:pageopacity="0"
     inkscape:pageshadow="2"
     inkscape:window-width="661"
     inkscape:window-height="480"
     id="namedview150"
     showgrid="false"
     inkscape:zoom="1.0393613"
     inkscape:cx="113.85609"
     inkscape:cy="113.53126"
     inkscape:window-x="0"
     inkscape:window-y="0"
     inkscape:window-maximized="0"
     inkscape:current-layer="svg148" />
  <defs
     id="defs5">
    <clipPath
       id="clip1">
      <path
         d="M 168 166 L 170.785156 166 L 170.785156 170.296875 L 168 170.296875 Z M 168 166 "
         id="path2" />
    </clipPath>
  </defs>
  <g
     id="surface50">
    <path
       style="fill-rule:nonzero;fill:rgb(69.018555%,69.018555%,69.018555%);fill-opacity:1;stroke-width:0.421;stroke-linecap:round;stroke-linejoin:round;stroke:rgb(0%,0%,0%);stroke-opacity:1;stroke-miterlimit:4;"
       d="M 41.496094 143.347656 L 41.875 162.296875 L 19 155.152344 L 32.867188 130.941406 Z M 41.496094 143.347656 "
       id="path7" />
    <path
       style="fill-rule:nonzero;fill:rgb(69.018555%,69.018555%,69.018555%);fill-opacity:1;stroke-width:0.421;stroke-linecap:round;stroke-linejoin:round;stroke:rgb(0%,0%,0%);stroke-opacity:1;stroke-miterlimit:4;"
       d="M 59.640625 116.984375 L 64.078125 127.722656 L 88.078125 125.527344 L 75.980469 109.496094 L 59.640625 116.984375 "
       id="path9" />
    <path
       style="fill-rule:nonzero;fill:rgb(69.018555%,69.018555%,69.018555%);fill-opacity:1;stroke-width:0.421;stroke-linecap:round;stroke-linejoin:round;stroke:rgb(0%,0%,0%);stroke-opacity:1;stroke-miterlimit:4;"
       d="M 83.195313 100.535156 L 75.980469 109.496094 L 88.078125 125.527344 L 90.730469 126.984375 L 96.414063 118.476563 L 97.097656 100.105469 L 83.195313 100.535156 "
       id="path11" />
    <path
       style="fill-rule:nonzero;fill:rgb(69.018555%,69.018555%,69.018555%);fill-opacity:1;stroke-width:0.421;stroke-linecap:round;stroke-linejoin:round;stroke:rgb(0%,0%,0%);stroke-opacity:1;stroke-miterlimit:4;"
       d="M 92.265625 78.328125 L 118.558594 85.574219 L 113.296875 77.941406 L 92.128906 76.316406 L 92.265625 78.328125 "
       id="path13" />
    <path
       style="fill-rule:nonzero;fill:rgb(69.018555%,69.018555%,69.018555%);fill-opacity:1;stroke-width:0.421;stroke-linecap:round;stroke-linejoin:round;stroke:rgb(0%,0%,0%);stroke-opacity:1;stroke-miterlimit:4;"
       d="M 125.898438 47.3125 L 109.988281 68.640625 L 113.296875 77.941406 L 118.558594 85.574219 L 120.136719 87.710938 L 121.691406 87.007813 L 140.578125 45.964844 L 125.898438 47.3125 "
       id="path15" />
    <path
       style="fill-rule:nonzero;fill:rgb(69.018555%,69.018555%,69.018555%);fill-opacity:1;stroke-width:0.421;stroke-linecap:round;stroke-linejoin:round;stroke:rgb(0%,0%,0%);stroke-opacity:1;stroke-miterlimit:4;"
       d="M 88.21875 66.847656 L 92.128906 76.316406 L 113.296875 77.941406 L 109.988281 68.640625 L 97.695313 63.214844 L 88.21875 66.847656 "
       id="path17" />
    <path
       style="fill-rule:nonzero;fill:rgb(69.018555%,69.018555%,69.018555%);fill-opacity:1;stroke-width:0.421;stroke-linecap:round;stroke-linejoin:round;stroke:rgb(0%,0%,0%);stroke-opacity:1;stroke-miterlimit:4;"
       d="M 46.195313 104.273438 L 43.339844 108.542969 L 59.640625 116.984375 L 75.980469 109.496094 L 83.195313 100.535156 L 75.636719 90.316406 L 75.492188 90.1875 L 64.550781 89.804688 L 46.195313 104.273438 "
       id="path19" />
    <path
       style="fill-rule:nonzero;fill:rgb(69.018555%,69.018555%,69.018555%);fill-opacity:1;stroke-width:0.421;stroke-linecap:round;stroke-linejoin:round;stroke:rgb(0%,0%,0%);stroke-opacity:1;stroke-miterlimit:4;"
       d="M 51.632813 66.007813 L 46.195313 104.273438 L 64.550781 89.804688 L 56.453125 63.367188 L 51.632813 66.007813 "
       id="path21" />
    <path
       style="fill-rule:nonzero;fill:rgb(69.018555%,69.018555%,69.018555%);fill-opacity:1;stroke-width:0.421;stroke-linecap:round;stroke-linejoin:round;stroke:rgb(0%,0%,0%);stroke-opacity:1;stroke-miterlimit:4;"
       d="M 63.957031 55.304688 L 56.453125 63.367188 L 64.550781 89.804688 L 75.492188 90.1875 L 77.210938 63.027344 L 67.960938 54.726563 L 63.957031 55.304688 "
       id="path23" />
    <path
       style="fill-rule:nonzero;fill:rgb(69.018555%,69.018555%,69.018555%);fill-opacity:1;stroke-width:0.421;stroke-linecap:round;stroke-linejoin:round;stroke:rgb(0%,0%,0%);stroke-opacity:1;stroke-miterlimit:4;"
       d="M 88.59375 25.308594 L 88.507813 21.796875 L 88.59375 25.308594 L 67.960938 54.726563 L 63.957031 55.304688 L 30.585938 21.796875 L 88.507813 21.796875 "
       id="path25" />
    <path
       style="fill-rule:nonzero;fill:rgb(69.018555%,69.018555%,69.018555%);fill-opacity:1;stroke-width:0.421;stroke-linecap:round;stroke-linejoin:round;stroke:rgb(0%,0%,0%);stroke-opacity:1;stroke-miterlimit:4;"
       d="M 63.957031 55.304688 L 30.585938 21.796875 L 63.957031 55.304688 L 56.453125 63.367188 L 51.632813 66.007813 L 32.226563 68.488281 L 9.070313 50.023438 L 30.585938 21.796875 "
       id="path27" />
    <path
       style="fill-rule:nonzero;fill:rgb(69.018555%,69.018555%,69.018555%);fill-opacity:1;stroke-width:0.5;stroke-linecap:butt;stroke-linejoin:miter;stroke:rgb(0%,0%,0%);stroke-opacity:1;stroke-miterlimit:4;"
       d="M 32.226563 68.488281 L 25.625 110.59375 L 21.5625 110.003906 L 5.007813 109.980469 L 9.070313 50.023438 L 32.226563 68.488281 "
       id="path29" />
    <path
       style="fill-rule:nonzero;fill:rgb(100%,100%,100%);fill-opacity:1;stroke-width:0.421;stroke-linecap:round;stroke-linejoin:round;stroke:rgb(0%,0%,0%);stroke-opacity:1;stroke-miterlimit:4;"
       d="M 32.226563 68.488281 L 25.125 110.15625 L 27.226563 110.953125 L 43.339844 108.542969 L 46.195313 104.273438 L 51.632813 66.007813 L 32.226563 68.488281 "
       id="path31" />
    <path
       style="fill-rule:nonzero;fill:rgb(100%,100%,100%);fill-opacity:1;stroke-width:0.421;stroke-linecap:round;stroke-linejoin:round;stroke:rgb(0%,0%,0%);stroke-opacity:1;stroke-miterlimit:4;"
       d="M 67.960938 54.726563 L 77.210938 63.027344 L 88.21875 66.847656 L 97.695313 63.214844 L 106.824219 42.429688 L 88.59375 25.308594 L 67.960938 54.726563 "
       id="path33" />
    <path
       style="fill-rule:nonzero;fill:rgb(100%,100%,100%);fill-opacity:1;stroke-width:0.421;stroke-linecap:round;stroke-linejoin:round;stroke:rgb(0%,0%,0%);stroke-opacity:1;stroke-miterlimit:4;"
       d="M 92.265625 78.328125 L 92.265625 78.332031 L 98.46875 99.25 L 114.585938 97.132813 L 120.136719 87.710938 L 118.558594 85.574219 L 92.265625 78.328125 "
       id="path35" />
    <path
       style="fill-rule:nonzero;fill:rgb(90.979004%,90.979004%,90.979004%);fill-opacity:1;stroke-width:0.421;stroke-linecap:round;stroke-linejoin:round;stroke:rgb(0%,0%,0%);stroke-opacity:1;stroke-miterlimit:4;"
       d="M 149.566406 118.214844 L 123.226563 114.710938 "
       id="path37" />
    <path
       style="fill-rule:nonzero;fill:rgb(89.01825%,89.01825%,89.01825%);fill-opacity:1;stroke-width:0.421;stroke-linecap:round;stroke-linejoin:round;stroke:rgb(0%,0%,0%);stroke-opacity:1;stroke-miterlimit:4;"
       d="M 116.222656 137.199219 L 148.375 147.722656 "
       id="path39" />
    <path
       style="fill-rule:nonzero;fill:rgb(90.979004%,90.979004%,90.979004%);fill-opacity:1;stroke-width:0.421;stroke-linecap:round;stroke-linejoin:round;stroke:rgb(0%,0%,0%);stroke-opacity:1;stroke-miterlimit:4;"
       d="M 149.566406 90.078125 L 121.691406 87.007813 "
       id="path41" />
    <path
       style="fill-rule:nonzero;fill:rgb(90.979004%,90.979004%,90.979004%);fill-opacity:1;stroke-width:0.421;stroke-linecap:round;stroke-linejoin:round;stroke:rgb(0%,0%,0%);stroke-opacity:1;stroke-miterlimit:4;"
       d="M 149.566406 41.835938 L 140.578125 45.964844 "
       id="path43" />
    <path
       style="fill-rule:nonzero;fill:rgb(100%,100%,100%);fill-opacity:1;stroke-width:0.421;stroke-linecap:round;stroke-linejoin:round;stroke:rgb(0%,0%,0%);stroke-opacity:1;stroke-miterlimit:4;"
       d="M 97.695313 63.214844 L 109.988281 68.640625 L 125.898438 47.3125 L 106.824219 42.429688 L 97.695313 63.214844 "
       id="path45" />
    <path
       style="fill-rule:nonzero;fill:rgb(100%,100%,100%);fill-opacity:1;stroke-width:0.421;stroke-linecap:round;stroke-linejoin:round;stroke:rgb(0%,0%,0%);stroke-opacity:1;stroke-miterlimit:4;"
       d="M 98.46875 99.25 L 97.097656 100.105469 L 96.414063 118.476563 L 117.605469 124.484375 L 123.226563 114.710938 L 114.585938 97.132813 L 98.46875 99.25 "
       id="path47" />
    <path
       style="fill-rule:nonzero;fill:rgb(100%,100%,100%);fill-opacity:1;stroke-width:0.421;stroke-linecap:round;stroke-linejoin:round;stroke:rgb(0%,0%,0%);stroke-opacity:1;stroke-miterlimit:4;"
       d="M 32.867188 130.941406 L 41.496094 143.347656 L 65.167969 137.351563 L 64.078125 127.722656 L 59.640625 116.984375 L 43.339844 108.542969 L 27.226563 110.953125 L 32.867188 130.941406 "
       id="path49" />
    <path
       style="fill-rule:nonzero;fill:rgb(100%,100%,100%);fill-opacity:1;stroke-width:0.421;stroke-linecap:round;stroke-linejoin:round;stroke:rgb(0%,0%,0%);stroke-opacity:1;stroke-miterlimit:4;"
       d="M 90.730469 126.984375 L 93.394531 139.269531 L 115.460938 136.167969 L 117.605469 124.484375 L 96.414063 118.476563 L 90.730469 126.984375 "
       id="path51" />
    <path
       style="fill-rule:nonzero;fill:rgb(90.979004%,90.979004%,90.979004%);fill-opacity:1;stroke-width:0.421;stroke-linecap:round;stroke-linejoin:round;stroke:rgb(0%,0%,0%);stroke-opacity:1;stroke-miterlimit:4;"
       d="M 79.296875 162.296875 L 79.453125 158.78125 "
       id="path53" />
    <path
       style="fill-rule:nonzero;fill:rgb(89.01825%,89.01825%,89.01825%);fill-opacity:1;stroke-width:0.421;stroke-linecap:round;stroke-linejoin:round;stroke:rgb(0%,0%,0%);stroke-opacity:1;stroke-miterlimit:4;"
       d="M 114.453125 162.296875 L 116.265625 137.199219 "
       id="path55" />
    <path
       style="fill-rule:nonzero;fill:rgb(100%,100%,100%);fill-opacity:1;stroke-width:0.421;stroke-linecap:round;stroke-linejoin:round;stroke:rgb(0%,0%,0%);stroke-opacity:1;stroke-miterlimit:4;"
       d="M 75.636719 90.316406 L 83.195313 100.535156 L 97.097656 100.105469 L 98.46875 99.25 L 92.265625 78.332031 L 75.636719 90.316406 "
       id="path57" />
    <path
       style="fill-rule:nonzero;fill:rgb(100%,100%,100%);fill-opacity:1;stroke-width:0.421;stroke-linecap:round;stroke-linejoin:round;stroke:rgb(0%,0%,0%);stroke-opacity:1;stroke-miterlimit:4;"
       d="M 64.078125 127.722656 L 65.167969 137.351563 L 79.453125 158.78125 L 93.394531 139.269531 L 90.730469 126.984375 "
       id="path59" />
    <path
       style="fill-rule:nonzero;fill:rgb(100%,100%,100%);fill-opacity:1;stroke-width:0.421;stroke-linecap:round;stroke-linejoin:round;stroke:rgb(0%,0%,0%);stroke-opacity:1;stroke-miterlimit:4;"
       d="M 88.59375 25.308594 L 106.824219 42.429688 L 125.898438 47.3125 L 140.578125 45.964844 "
       id="path61" />
    <path
       style="fill-rule:nonzero;fill:rgb(100%,100%,100%);fill-opacity:1;stroke-width:0.421;stroke-linecap:round;stroke-linejoin:round;stroke:rgb(0%,0%,0%);stroke-opacity:1;stroke-miterlimit:4;"
       d="M 75.492188 90.1875 L 75.636719 90.316406 L 92.265625 78.332031 L 92.265625 78.328125 L 92.128906 76.316406 L 88.21875 66.847656 L 77.210938 63.027344 L 75.492188 90.1875 "
       id="path63" />
    <path
       style="fill:none;stroke-width:3.5;stroke-linecap:round;stroke-linejoin:round;stroke:rgb(100%,0%,0%);stroke-opacity:1;stroke-miterlimit:4;"
       d="M 67.902344 99.433594 L 67.902344 99.433594 "
       id="path65" />
    <path
       style="fill:none;stroke-width:4;stroke-linecap:round;stroke-linejoin:round;stroke:rgb(0%,0%,0%);stroke-opacity:1;stroke-miterlimit:4;"
       d="M 19.71875 142.417969 L 19.71875 142.417969 "
       id="path67" />
    <path
       style="fill:none;stroke-width:4;stroke-linecap:round;stroke-linejoin:round;stroke:rgb(0%,0%,0%);stroke-opacity:1;stroke-miterlimit:4;"
       d="M 131.109375 130.628906 L 131.109375 130.628906 "
       id="path69" />
    <path
       style="fill:none;stroke-width:3.5;stroke-linecap:round;stroke-linejoin:round;stroke:rgb(100%,0%,0%);stroke-opacity:1;stroke-miterlimit:4;"
       d="M 18.054688 78.21875 L 18.054688 78.21875 "
       id="path71" />
    <path
       style="fill:none;stroke-width:4;stroke-linecap:round;stroke-linejoin:round;stroke:rgb(0%,0%,0%);stroke-opacity:1;stroke-miterlimit:4;"
       d="M 135 101.40625 L 135 101.40625 "
       id="path73" />
    <path
       style="fill:none;stroke-width:4;stroke-linecap:round;stroke-linejoin:round;stroke:rgb(0%,0%,0%);stroke-opacity:1;stroke-miterlimit:4;"
       d="M 106.25 149.976563 L 106.25 149.976563 "
       id="path75" />
    <path
       style="fill:none;stroke-width:3.5;stroke-linecap:round;stroke-linejoin:round;stroke:rgb(100%,0%,0%);stroke-opacity:1;stroke-miterlimit:4;"
       d="M 55.96875 84.296875 L 55.96875 84.296875 "
       id="path77" />
    <path
       style="fill:none;stroke-width:3.5;stroke-linecap:round;stroke-linejoin:round;stroke:rgb(100%,0%,0%);stroke-opacity:1;stroke-miterlimit:4;"
       d="M 101.273438 80.195313 L 101.273438 80.195313 "
       id="path79" />
    <path
       style="fill:none;stroke-width:4;stroke-linecap:round;stroke-linejoin:round;stroke:rgb(0%,0%,0%);stroke-opacity:1;stroke-miterlimit:4;"
       d="M 93.589844 52.5625 L 93.589844 52.5625 "
       id="path81" />
    <path
       style="fill:none;stroke-width:4;stroke-linecap:round;stroke-linejoin:round;stroke:rgb(0%,0%,0%);stroke-opacity:1;stroke-miterlimit:4;"
       d="M 108.316406 59.03125 L 108.316406 59.03125 "
       id="path83" />
    <path
       style="fill:none;stroke-width:4;stroke-linecap:round;stroke-linejoin:round;stroke:rgb(0%,0%,0%);stroke-opacity:1;stroke-miterlimit:4;"
       d="M 100.957031 81.34375 L 100.957031 81.34375 "
       id="path85" />
    <path
       style="fill:none;stroke-width:4;stroke-linecap:round;stroke-linejoin:round;stroke:rgb(0%,0%,0%);stroke-opacity:1;stroke-miterlimit:4;"
       d="M 105.503906 115.90625 L 105.503906 115.90625 "
       id="path87" />
    <path
       style="fill:none;stroke-width:4;stroke-linecap:round;stroke-linejoin:round;stroke:rgb(0%,0%,0%);stroke-opacity:1;stroke-miterlimit:4;"
       d="M 50.074219 133.859375 L 50.074219 133.859375 "
       id="path89" />
    <path
       style="fill:none;stroke-width:4;stroke-linecap:round;stroke-linejoin:round;stroke:rgb(0%,0%,0%);stroke-opacity:1;stroke-miterlimit:4;"
       d="M 102.800781 125.433594 L 102.800781 125.433594 "
       id="path91" />
    <path
       style="fill:none;stroke-width:3.5;stroke-linecap:round;stroke-linejoin:round;stroke:rgb(100%,0%,0%);stroke-opacity:1;stroke-miterlimit:4;"
       d="M 61.265625 29.890625 L 61.265625 29.890625 "
       id="path93" />
    <path
       style="fill:none;stroke-width:3.5;stroke-linecap:round;stroke-linejoin:round;stroke:rgb(100%,0%,0%);stroke-opacity:1;stroke-miterlimit:4;"
       d="M 101.761719 73.878906 L 101.761719 73.878906 "
       id="path95" />
    <path
       style="fill:none;stroke-width:3.5;stroke-linecap:round;stroke-linejoin:round;stroke:rgb(100%,0%,0%);stroke-opacity:1;stroke-miterlimit:4;"
       d="M 68.570313 80.4375 L 68.570313 80.4375 "
       id="path97" />
    <path
       style="fill:none;stroke-width:4;stroke-linecap:round;stroke-linejoin:round;stroke:rgb(0%,0%,0%);stroke-opacity:1;stroke-miterlimit:4;"
       d="M 137.8125 75.851563 L 137.8125 75.851563 "
       id="path99" />
    <path
       style="fill:none;stroke-width:3.5;stroke-linecap:round;stroke-linejoin:round;stroke:rgb(100%,0%,0%);stroke-opacity:1;stroke-miterlimit:4;"
       d="M 29.617188 148.089844 L 29.617188 148.089844 "
       id="path101" />
    <path
       style="fill:none;stroke-width:4;stroke-linecap:round;stroke-linejoin:round;stroke:rgb(0%,0%,0%);stroke-opacity:1;stroke-miterlimit:4;"
       d="M 53.554688 147.609375 L 53.554688 147.609375 "
       id="path103" />
    <path
       style="fill:none;stroke-width:3.5;stroke-linecap:round;stroke-linejoin:round;stroke:rgb(100%,0%,0%);stroke-opacity:1;stroke-miterlimit:4;"
       d="M 78.332031 122.1875 L 78.332031 122.1875 "
       id="path105" />
    <path
       style="fill:none;stroke-width:3.5;stroke-linecap:round;stroke-linejoin:round;stroke:rgb(100%,0%,0%);stroke-opacity:1;stroke-miterlimit:4;"
       d="M 87.539063 115.238281 L 87.539063 115.238281 "
       id="path107" />
    <path
       style="fill:none;stroke-width:3.5;stroke-linecap:round;stroke-linejoin:round;stroke:rgb(100%,0%,0%);stroke-opacity:1;stroke-miterlimit:4;"
       d="M 119.675781 67.503906 L 119.675781 67.503906 "
       id="path109" />
    <path
       style="fill:none;stroke-width:4;stroke-linecap:round;stroke-linejoin:round;stroke:rgb(0%,0%,0%);stroke-opacity:1;stroke-miterlimit:4;"
       d="M 124.339844 151.28125 L 124.339844 151.28125 "
       id="path111" />
    <path
       style="fill:none;stroke-width:4;stroke-linecap:round;stroke-linejoin:round;stroke:rgb(0%,0%,0%);stroke-opacity:1;stroke-miterlimit:4;"
       d="M 86.621094 85.59375 L 86.621094 85.59375 "
       id="path113" />
    <path
       style="fill:none;stroke-width:3.5;stroke-linecap:round;stroke-linejoin:round;stroke:rgb(100%,0%,0%);stroke-opacity:1;stroke-miterlimit:4;"
       d="M 38.554688 52.507813 L 38.554688 52.507813 "
       id="path115" />
    <path
       style="fill:none;stroke-width:4;stroke-linecap:round;stroke-linejoin:round;stroke:rgb(0%,0%,0%);stroke-opacity:1;stroke-miterlimit:4;"
       d="M 42.371094 82.363281 L 42.371094 82.363281 "
       id="path117" />
    <path
       style="fill:none;stroke-width:4;stroke-linecap:round;stroke-linejoin:round;stroke:rgb(0%,0%,0%);stroke-opacity:1;stroke-miterlimit:4;"
       d="M 79.101563 130.578125 L 79.101563 130.578125 "
       id="path119" />
    <path
       style="fill:none;stroke-width:4;stroke-linecap:round;stroke-linejoin:round;stroke:rgb(0%,0%,0%);stroke-opacity:1;stroke-miterlimit:4;"
       d="M 116.105469 28.589844 L 116.105469 28.589844 "
       id="path121" />
    <path
       style="fill:none;stroke-width:4;stroke-linecap:round;stroke-linejoin:round;stroke:rgb(0%,0%,0%);stroke-opacity:1;stroke-miterlimit:4;"
       d="M 83.589844 81.386719 L 83.589844 81.386719 "
       id="path123" />
    <path
       style="fill:none;stroke-width:0.42;stroke-linecap:round;stroke-linejoin:round;stroke:rgb(0%,0%,0%);stroke-opacity:1;stroke-miterlimit:4;"
       d="M 116.265625 137.199219 L 116.265625 137.199219 "
       id="path125" />
    <path
       style="fill:none;stroke-width:1;stroke-linecap:round;stroke-linejoin:round;stroke:rgb(0%,0%,0%);stroke-opacity:1;stroke-miterlimit:4;"
       d="M 2.664063 166.296875 L 2.664063 13.796875 "
       id="path127" />
    <path
       style=" stroke:none;fill-rule:nonzero;fill:rgb(0%,0%,0%);fill-opacity:1;"
       d="M 1.636719 11.433594 C 1.136719 13.085938 0.675781 14.164063 0.144531 15.488281 L 5.1875 15.488281 C 4.964844 15.015625 4.199219 13.085938 3.699219 11.433594 C 3.164063 9.664063 2.796875 8.058594 2.667969 7.019531 C 2.539063 8.058594 2.171875 9.664063 1.636719 11.433594 "
       id="path129" />
    <path
       style="fill:none;stroke-width:1;stroke-linecap:round;stroke-linejoin:round;stroke:rgb(0%,0%,0%);stroke-opacity:1;stroke-miterlimit:4;"
       d="M 3.21875 166.050781 L 155.71875 166.050781 "
       id="path131" />
    <path
       style=" stroke:none;fill-rule:nonzero;fill:rgb(0%,0%,0%);fill-opacity:1;"
       d="M 158.078125 165.023438 C 156.425781 164.523438 155.351563 164.066406 154.023438 163.53125 L 154.023438 168.578125 C 154.5 168.351563 156.425781 167.585938 158.078125 167.085938 C 159.847656 166.550781 161.453125 166.183594 162.496094 166.054688 C 161.453125 165.925781 159.847656 165.558594 158.078125 165.023438 "
       id="path133" />
    <path
       style=" stroke:none;fill-rule:nonzero;fill:rgb(12.940979%,11.764526%,11.764526%);fill-opacity:1;"
       d="M 167.824219 167.46875 C 167.496094 167.828125 167.261719 168.265625 167.011719 168.265625 C 166.761719 168.265625 166.683594 167.96875 166.636719 167.78125 C 166.558594 167.484375 166.152344 165.84375 166.152344 165.625 C 166.152344 165.625 166.964844 164.171875 167.308594 164.171875 C 167.574219 164.171875 167.667969 164.375 167.949219 164.375 C 168.246094 164.375 168.355469 164.15625 168.355469 163.9375 C 168.355469 163.65625 168.089844 163.5 167.871094 163.5 C 167.246094 163.5 166.683594 164.234375 166.058594 165.21875 L 165.917969 164.5625 C 165.714844 163.5 165.527344 163.5 165.261719 163.5 C 164.886719 163.5 164.089844 163.796875 163.761719 163.90625 L 163.808594 164.078125 C 164.199219 163.984375 164.371094 163.953125 164.464844 163.953125 C 164.792969 163.953125 164.839844 164.109375 164.949219 164.484375 C 164.964844 164.546875 165.371094 166.140625 165.371094 166.25 C 164.292969 167.828125 163.980469 168.234375 163.777344 168.234375 C 163.558594 168.234375 163.339844 168 163.074219 168 C 162.808594 168 162.667969 168.21875 162.667969 168.40625 C 162.667969 168.703125 162.871094 168.921875 163.261719 168.921875 C 163.636719 168.921875 163.777344 168.796875 163.980469 168.5625 C 164.386719 168.125 164.886719 167.484375 165.464844 166.6875 L 165.824219 168.125 C 165.980469 168.765625 166.167969 168.921875 166.511719 168.921875 C 166.792969 168.921875 167.136719 168.921875 167.980469 167.5625 Z M 167.824219 167.46875 "
       id="path135" />
    <g
       clip-path="url(#clip1)"
       clip-rule="nonzero"
       id="g139">
      <path
         style=" stroke:none;fill-rule:nonzero;fill:rgb(12.940979%,11.764526%,11.764526%);fill-opacity:1;"
         d="M 168.621094 170.296875 L 170.292969 170.296875 L 170.292969 170.203125 C 169.996094 170.21875 169.777344 170.1875 169.777344 170.015625 C 169.777344 169.90625 169.855469 169.6875 169.886719 169.578125 L 170.746094 166.453125 C 170.777344 166.359375 170.808594 166.234375 170.761719 166.234375 C 170.699219 166.234375 169.871094 166.421875 169.589844 166.46875 L 169.589844 166.5625 L 169.933594 166.546875 C 169.980469 166.546875 170.167969 166.546875 170.167969 166.734375 C 170.167969 166.78125 170.136719 166.875 170.121094 166.9375 L 169.292969 169.890625 C 169.214844 170.15625 168.964844 170.171875 168.621094 170.21875 Z M 168.621094 170.296875 "
         id="path137" />
    </g>
    <path
       style=" stroke:none;fill-rule:nonzero;fill:rgb(12.940979%,11.764526%,11.764526%);fill-opacity:1;"
       d="M 5.15625 3.96875 C 4.828125 4.328125 4.59375 4.765625 4.34375 4.765625 C 4.09375 4.765625 4.015625 4.46875 3.96875 4.28125 C 3.890625 3.984375 3.484375 2.34375 3.484375 2.125 C 3.484375 2.125 4.296875 0.671875 4.640625 0.671875 C 4.90625 0.671875 5 0.875 5.28125 0.875 C 5.578125 0.875 5.6875 0.65625 5.6875 0.4375 C 5.6875 0.15625 5.421875 0 5.203125 0 C 4.578125 0 4.015625 0.734375 3.390625 1.71875 L 3.25 1.0625 C 3.046875 0 2.859375 0 2.59375 0 C 2.21875 0 1.421875 0.296875 1.09375 0.40625 L 1.140625 0.578125 C 1.53125 0.484375 1.703125 0.453125 1.796875 0.453125 C 2.125 0.453125 2.171875 0.609375 2.28125 0.984375 C 2.296875 1.046875 2.703125 2.640625 2.703125 2.75 C 1.625 4.328125 1.3125 4.734375 1.109375 4.734375 C 0.890625 4.734375 0.671875 4.5 0.40625 4.5 C 0.140625 4.5 0 4.71875 0 4.90625 C 0 5.203125 0.203125 5.421875 0.59375 5.421875 C 0.96875 5.421875 1.109375 5.296875 1.3125 5.0625 C 1.71875 4.625 2.21875 3.984375 2.796875 3.1875 L 3.15625 4.625 C 3.3125 5.265625 3.5 5.421875 3.84375 5.421875 C 4.125 5.421875 4.46875 5.421875 5.3125 4.0625 Z M 5.15625 3.96875 "
       id="path141" />
    <path
       style=" stroke:none;fill-rule:nonzero;fill:rgb(12.940979%,11.764526%,11.764526%);fill-opacity:1;"
       d="M 8.0625 5.96875 C 7.953125 6.171875 7.859375 6.34375 7.46875 6.34375 L 6.328125 6.34375 L 6.328125 6.3125 L 7.46875 5.15625 C 8.21875 4.421875 8.375 4.140625 8.375 3.75 C 8.375 3.296875 8.03125 2.734375 7.390625 2.734375 C 7.25 2.734375 6.453125 2.765625 6.140625 3.703125 L 6.265625 3.75 C 6.34375 3.59375 6.578125 3.171875 7.109375 3.171875 C 7.578125 3.171875 7.859375 3.53125 7.859375 3.90625 C 7.859375 4.109375 7.828125 4.453125 6.984375 5.34375 L 5.734375 6.6875 L 5.734375 6.796875 L 7.859375 6.796875 L 8.15625 6 Z M 8.0625 5.96875 "
       id="path143" />
    <path
       style="fill-rule:nonzero;fill:rgb(100%,100%,100%);fill-opacity:1;stroke-width:0.421;stroke-linecap:round;stroke-linejoin:round;stroke:rgb(0%,0%,0%);stroke-opacity:1;stroke-miterlimit:4;"
       d="M 115.558594 136.214844 L 116.308594 137.046875 "
       id="path145" />
  </g>
</svg>
