<?xml version="1.0" encoding="UTF-8" standalone="no"?>
<svg
   xmlns:dc="http://purl.org/dc/elements/1.1/"
   xmlns:cc="http://creativecommons.org/ns#"
   xmlns:rdf="http://www.w3.org/1999/02/22-rdf-syntax-ns#"
   xmlns:svg="http://www.w3.org/2000/svg"
   xmlns="http://www.w3.org/2000/svg"
   xmlns:sodipodi="http://sodipodi.sourceforge.net/DTD/sodipodi-0.dtd"
   xmlns:inkscape="http://www.inkscape.org/namespaces/inkscape"
   width="152.860138pt"
   height="152.293137pt"
   viewBox="0 0 152.860138 152.293137"
   version="1.2"
   id="svg40"
   sodipodi:docname="parzen_largebin.svg"
   inkscape:version="0.92.4 (5da689c313, 2019-01-14)">
  <metadata
     id="metadata44">
    <rdf:RDF>
      <cc:Work
         rdf:about="">
        <dc:format>image/svg+xml</dc:format>
        <dc:type
           rdf:resource="http://purl.org/dc/dcmitype/StillImage" />
        <dc:title></dc:title>
      </cc:Work>
    </rdf:RDF>
  </metadata>
  <sodipodi:namedview
     pagecolor="#ffffff"
     bordercolor="#666666"
     borderopacity="1"
     objecttolerance="10"
     gridtolerance="10"
     guidetolerance="10"
     inkscape:pageopacity="0"
     inkscape:pageshadow="2"
     inkscape:window-width="661"
     inkscape:window-height="480"
     id="namedview42"
     showgrid="false"
     inkscape:zoom="1.1622323"
     inkscape:cx="101.90676"
     inkscape:cy="101.52876"
     inkscape:window-x="0"
     inkscape:window-y="0"
     inkscape:window-maximized="0"
     inkscape:current-layer="svg40" />
  <defs
     id="defs5">
    <clipPath
       id="clip1">
      <path
         d="M 151 149 L 152.859375 149 L 152.859375 152.292969 L 151 152.292969 Z M 151 149 "
         id="path2" />
    </clipPath>
  </defs>
  <g
     id="surface44">
    <path
       style="fill:none;stroke-width:0.25;stroke-linecap:round;stroke-linejoin:round;stroke:rgb(12.940979%,11.764526%,11.764526%);stroke-opacity:1;stroke-miterlimit:4;"
       d="M 1.546875 149.496094 L 142.808594 149.496094 "
       id="path7" />
    <path
       style=" stroke:none;fill-rule:nonzero;fill:rgb(12.940979%,11.764526%,11.764526%);fill-opacity:1;"
       d="M 143.988281 148.984375 C 143.164063 148.734375 142.625 148.503906 141.960938 148.238281 L 141.960938 150.757813 C 142.199219 150.648438 143.164063 150.261719 143.988281 150.015625 C 144.871094 149.746094 145.675781 149.566406 146.195313 149.5 C 145.675781 149.433594 144.871094 149.25 143.988281 148.984375 "
       id="path9" />
    <path
       style="fill:none;stroke-width:0.25;stroke-linecap:round;stroke-linejoin:round;stroke:rgb(12.940979%,11.764526%,11.764526%);stroke-opacity:1;stroke-miterlimit:4;"
       d="M 1.546875 149.496094 L 1.546875 8.234375 "
       id="path11" />
    <path
       style=" stroke:none;fill-rule:nonzero;fill:rgb(12.940979%,11.764526%,11.764526%);fill-opacity:1;"
       d="M 1.035156 7.054688 C 0.785156 7.878906 0.554688 8.417969 0.289063 9.078125 L 2.808594 9.078125 C 2.695313 8.84375 2.3125 7.878906 2.066406 7.054688 C 1.796875 6.167969 1.613281 5.367188 1.550781 4.847656 C 1.484375 5.367188 1.300781 6.167969 1.035156 7.054688 "
       id="path13" />
    <path
       style=" stroke:none;fill-rule:nonzero;fill:rgb(59.214783%,59.214783%,59.214783%);fill-opacity:1;"
       d="M 4.910156 11.597656 L 139.445313 11.597656 L 139.445313 146.132813 L 4.910156 146.132813 Z M 4.910156 11.597656 "
       id="path15" />
    <path
       style=" stroke:none;fill-rule:nonzero;fill:rgb(100%,100%,100%);fill-opacity:1;"
       d="M 4.910156 113.160156 L 11.707031 113.160156 L 12.703125 112.160156 L 13.0625 111.800781 L 15.78125 111.800781 L 17.140625 110.441406 L 18.5 110.441406 L 19.859375 109.082031 L 20.855469 108.082031 L 21.21875 107.722656 L 22.214844 106.722656 L 22.214844 98.570313 L 21.21875 97.570313 L 20.855469 97.210938 L 20.855469 95.851563 L 18.140625 93.132813 L 18.140625 91.773438 L 17.140625 90.777344 L 15.421875 89.058594 L 15.421875 87.699219 L 12.703125 84.980469 L 12.703125 83.621094 L 11.34375 82.261719 L 11.34375 74.109375 L 11.707031 73.75 L 12.703125 72.75 L 12.703125 71.390625 L 14.0625 70.03125 L 14.0625 68.671875 L 14.421875 68.3125 L 18.5 64.238281 L 19.859375 64.238281 L 20.855469 63.238281 L 21.21875 62.875 L 22.574219 62.875 L 23.574219 61.878906 L 23.933594 61.519531 L 25.292969 61.519531 L 26.652344 60.160156 L 28.011719 60.160156 L 29.371094 58.800781 L 33.449219 58.800781 L 34.445313 57.800781 L 34.808594 57.441406 L 38.882813 57.441406 L 40.242188 56.082031 L 41.601563 56.082031 L 45.316406 52.367188 L 45.675781 52.003906 L 46.675781 51.007813 L 48.035156 49.648438 L 48.035156 46.929688 L 48.398438 46.570313 L 49.394531 45.570313 L 49.394531 42.855469 L 50.753906 41.492188 L 50.753906 38.777344 L 52.113281 37.417969 L 52.113281 36.058594 L 53.472656 34.699219 L 53.472656 33.339844 L 57.546875 29.261719 L 57.910156 28.902344 L 58.90625 27.90625 L 59.265625 27.542969 L 60.625 27.542969 L 61.625 26.546875 L 61.984375 26.1875 L 63.34375 26.1875 L 64.703125 24.828125 L 67.421875 24.828125 L 68.78125 23.46875 L 74.214844 23.46875 L 75.574219 22.109375 L 83.726563 22.109375 L 85.449219 23.828125 L 86.445313 24.828125 L 86.804688 25.1875 L 86.804688 29.261719 L 88.164063 30.625 L 88.164063 34.699219 L 89.523438 36.058594 L 89.523438 38.777344 L 90.523438 39.773438 L 90.882813 40.136719 L 90.882813 42.855469 L 92.242188 44.210938 L 92.242188 45.570313 L 93.601563 46.929688 L 93.601563 48.289063 L 94.960938 49.648438 L 94.960938 51.007813 L 97.316406 53.363281 L 97.675781 53.726563 L 97.675781 55.082031 L 98.675781 56.082031 L 99.039063 56.441406 L 100.035156 57.441406 L 104.472656 61.878906 L 105.472656 62.875 L 106.832031 62.875 L 107.191406 63.238281 L 108.191406 64.238281 L 109.546875 64.238281 L 110.90625 65.59375 L 119.058594 65.59375 L 120.058594 64.59375 L 120.417969 64.238281 L 124.496094 64.238281 L 125.855469 62.875 L 127.214844 62.875 L 128.214844 61.878906 L 131.292969 58.800781 L 132.289063 57.800781 L 135.007813 55.082031 L 135.007813 53.726563 L 136.367188 52.367188 L 136.367188 51.007813 L 137.726563 49.648438 L 137.726563 46.929688 L 138.085938 46.570313 L 139.246094 45.570313 L 139.246094 42.855469 L 139.445313 42.492188 L 139.445313 11.597656 L 4.910156 11.597656 L 4.910156 113.160156 "
       id="path17" />
    <path
       style=" stroke:none;fill-rule:nonzero;fill:rgb(100%,100%,100%);fill-opacity:1;"
       d="M 111.90625 146.132813 L 111.90625 113.519531 L 109.1875 110.800781 L 108.191406 109.800781 L 104.113281 109.800781 L 102.753906 111.160156 L 100.035156 111.160156 L 98.675781 112.519531 L 97.316406 112.519531 L 96.320313 113.519531 L 95.957031 113.878906 L 94.601563 113.878906 L 93.601563 114.875 L 93.242188 115.238281 L 86.445313 115.238281 L 86.085938 114.875 L 85.085938 113.878906 L 83.726563 113.878906 L 83.367188 113.519531 L 82.371094 112.519531 L 81.011719 112.519531 L 75.214844 106.722656 L 75.214844 105.363281 L 74.214844 104.367188 L 73.855469 104.003906 L 73.855469 102.648438 L 72.496094 101.289063 L 72.496094 99.929688 L 71.136719 98.570313 L 70.140625 97.570313 L 69.78125 97.210938 L 69.78125 95.851563 L 68.78125 94.855469 L 67.421875 94.855469 L 66.0625 93.492188 L 63.34375 93.492188 L 61.984375 94.855469 L 60.625 94.855469 L 52.832031 102.648438 L 52.832031 104.003906 L 51.472656 105.363281 L 51.472656 106.722656 L 51.113281 107.082031 L 50.117188 108.082031 L 50.117188 110.800781 L 48.757813 112.160156 L 48.757813 124.390625 L 47.398438 125.75 L 47.398438 132.542969 L 46.039063 133.902344 L 46.039063 137.980469 L 44.679688 139.335938 L 44.679688 143.414063 L 43.320313 144.773438 L 43.320313 146.132813 L 111.90625 146.132813 "
       id="path19" />
    <path
       style=" stroke:none;fill-rule:nonzero;fill:rgb(59.214783%,59.214783%,59.214783%);fill-opacity:1;"
       d="M 127.574219 11.597656 L 127.214844 11.796875 L 126.214844 12.957031 L 125.855469 13.316406 L 124.496094 13.316406 L 123.5 14.316406 L 123.136719 14.675781 L 112.265625 14.675781 L 110.90625 16.035156 L 101.394531 16.035156 L 100.035156 17.394531 L 87.804688 17.394531 L 87.445313 17.035156 L 87.445313 15.675781 L 86.085938 14.316406 L 86.085938 11.597656 L 127.574219 11.597656 "
       id="path21" />
    <path
       style=" stroke:none;fill-rule:nonzero;fill:rgb(100%,100%,100%);fill-opacity:1;"
       d="M 139.445313 79.90625 L 138.671875 80.902344 L 138.085938 81.261719 L 135.367188 83.980469 L 134.371094 84.980469 L 134.371094 86.339844 L 134.007813 86.699219 L 133.011719 87.699219 L 132.648438 88.058594 L 131.652344 89.058594 L 131.652344 90.417969 L 130.292969 91.773438 L 130.292969 93.132813 L 128.933594 94.492188 L 128.933594 97.210938 L 128.574219 97.523438 L 127.574219 98.570313 L 128.574219 99.617188 L 128.933594 99.929688 L 128.933594 101.289063 L 129.933594 102.285156 L 130.292969 102.648438 L 131.292969 103.644531 L 131.652344 104.003906 L 132.648438 105.003906 L 134.007813 105.003906 L 135.367188 106.363281 L 136.726563 106.363281 L 138.085938 107.722656 L 139.445313 107.722656 L 139.445313 79.90625 "
       id="path23" />
    <path
       style="fill:none;stroke-width:2.498;stroke-linecap:round;stroke-linejoin:round;stroke:rgb(12.940979%,11.764526%,11.764526%);stroke-opacity:1;stroke-miterlimit:4;"
       d="M 10.019531 60.449219 L 10.019531 60.449219 M 37.949219 73.054688 L 37.949219 73.054688 M 72.765625 68.175781 L 72.765625 68.175781 M 33.660156 72.648438 L 33.660156 72.648438 M 65.390625 40.734375 L 65.390625 40.734375 M 28.363281 33.230469 L 28.363281 33.230469 M 121.835938 74.101563 L 121.835938 74.101563 M 87.886719 24.167969 L 87.886719 24.167969 M 66.976563 38.894531 L 66.976563 38.894531 M 130.699219 31.734375 L 130.699219 31.734375 M 68.230469 39.820313 L 68.230469 39.820313 M 134.066406 45.78125 L 134.066406 45.78125 M 63.121094 58.238281 L 63.121094 58.238281 M 101.027344 51.589844 L 101.027344 51.589844 M 129.800781 68.925781 L 129.800781 68.925781 M 72.28125 57.808594 L 72.28125 57.808594 M 69.320313 39.789063 L 69.320313 39.789063 M 48.828125 36.175781 L 48.828125 36.175781 M 86.929688 44.554688 L 86.929688 44.554688 M 100.386719 23.605469 L 100.386719 23.605469 M 24.863281 17.257813 L 24.863281 17.257813 M 109.132813 70.738281 L 109.132813 70.738281 M 96.078125 56.304688 L 96.078125 56.304688 M 114.507813 36.550781 L 114.507813 36.550781 M 37.867188 76.929688 L 37.867188 76.929688 M 18.390625 131.09375 L 18.390625 131.09375 M 47.507813 86.867188 L 47.507813 86.867188 M 85.554688 84.882813 L 85.554688 84.882813 M 117.636719 125.941406 L 117.636719 125.941406 M 41.636719 127.574219 L 41.636719 127.574219 M 35.621094 92.984375 L 35.621094 92.984375 M 80.695313 115.566406 L 80.695313 115.566406 "
       id="path25" />
    <path
       style="fill:none;stroke-width:2.498;stroke-linecap:round;stroke-linejoin:round;stroke:rgb(92.155457%,9.803772%,13.725281%);stroke-opacity:1;stroke-miterlimit:4;"
       d="M 15.667969 20.054688 L 15.667969 20.054688 M 111.011719 56.425781 L 111.011719 56.425781 M 59.035156 42.621094 L 59.035156 42.621094 M 135.945313 31.46875 L 135.945313 31.46875 M 26.078125 44.554688 L 26.078125 44.554688 M 122.464844 46.507813 L 122.464844 46.507813 M 118.011719 36.554688 L 118.011719 36.554688 M 41.820313 40.492188 L 41.820313 40.492188 M 5.285156 56.746094 L 5.285156 56.746094 M 5.09375 59.046875 L 5.09375 59.046875 M 109.109375 42.625 L 109.109375 42.625 M 63.84375 22.347656 L 63.84375 22.347656 M 98.355469 34.167969 L 98.355469 34.167969 M 92.277344 44.789063 L 92.277344 44.789063 M 44.234375 70.414063 L 44.234375 70.414063 M 95.777344 24.914063 L 95.777344 24.914063 M 23.066406 37.457031 L 23.066406 37.457031 M 112.757813 57.269531 L 112.757813 57.269531 M 44.5 12.5 L 44.5 12.5 M 75.84375 28.378906 L 75.84375 28.378906 M 44.125 34.621094 L 44.125 34.621094 M 75.664063 48.191406 L 75.664063 48.191406 M 74.457031 70.859375 L 74.457031 70.859375 M 16.730469 37.441406 L 16.730469 37.441406 M 115.550781 48.289063 L 115.550781 48.289063 M 63.894531 138.789063 L 63.894531 138.789063 M 76.230469 124.007813 L 76.230469 124.007813 M 107.5625 125.46875 L 107.5625 125.46875 M 58.074219 98.148438 L 58.074219 98.148438 M 134.25 79.796875 L 134.25 79.796875 M 18.484375 97.246094 L 18.484375 97.246094 M 63.3125 130.285156 L 63.3125 130.285156 "
       id="path27" />
    <path
       style=" stroke:none;fill-rule:nonzero;fill:rgb(12.940979%,11.764526%,11.764526%);fill-opacity:1;"
       d="M 150.964844 150.121094 C 150.808594 150.308594 150.683594 150.527344 150.558594 150.527344 C 150.449219 150.527344 150.402344 150.386719 150.371094 150.277344 C 150.339844 150.136719 150.136719 149.324219 150.136719 149.214844 C 150.136719 149.214844 150.542969 148.480469 150.714844 148.480469 C 150.855469 148.480469 150.886719 148.589844 151.042969 148.589844 C 151.183594 148.589844 151.246094 148.464844 151.246094 148.355469 C 151.246094 148.214844 151.105469 148.152344 150.996094 148.152344 C 150.683594 148.152344 150.402344 148.511719 150.089844 149.011719 L 150.027344 148.667969 C 149.917969 148.152344 149.824219 148.152344 149.699219 148.152344 C 149.496094 148.152344 149.105469 148.292969 148.949219 148.339844 L 148.964844 148.433594 C 149.152344 148.386719 149.246094 148.371094 149.292969 148.371094 C 149.464844 148.371094 149.480469 148.449219 149.542969 148.636719 C 149.542969 148.667969 149.746094 149.464844 149.746094 149.527344 C 149.199219 150.308594 149.042969 150.511719 148.949219 150.511719 C 148.839844 150.511719 148.730469 150.402344 148.605469 150.402344 C 148.464844 150.402344 148.402344 150.511719 148.402344 150.605469 C 148.402344 150.746094 148.496094 150.855469 148.683594 150.855469 C 148.871094 150.855469 148.949219 150.792969 149.042969 150.683594 C 149.261719 150.449219 149.511719 150.136719 149.792969 149.730469 L 149.980469 150.449219 C 150.058594 150.777344 150.136719 150.855469 150.324219 150.855469 C 150.449219 150.855469 150.621094 150.855469 151.058594 150.167969 Z M 150.964844 150.121094 "
       id="path29" />
    <g
       clip-path="url(#clip1)"
       clip-rule="nonzero"
       id="g33">
      <path
         style=" stroke:none;fill-rule:nonzero;fill:rgb(12.940979%,11.764526%,11.764526%);fill-opacity:1;"
         d="M 151.425781 152.292969 L 152.535156 152.292969 L 152.535156 152.230469 C 152.332031 152.230469 152.191406 152.230469 152.191406 152.105469 C 152.191406 152.042969 152.238281 151.886719 152.269531 151.808594 L 152.832031 149.730469 C 152.847656 149.667969 152.878906 149.589844 152.847656 149.589844 C 152.816406 149.589844 152.253906 149.714844 152.066406 149.746094 L 152.066406 149.808594 L 152.300781 149.792969 C 152.332031 149.792969 152.441406 149.792969 152.441406 149.917969 C 152.441406 149.949219 152.425781 150.011719 152.425781 150.058594 L 151.863281 152.027344 C 151.816406 152.199219 151.660156 152.214844 151.425781 152.230469 Z M 151.425781 152.292969 "
         id="path31" />
    </g>
    <path
       style=" stroke:none;fill-rule:nonzero;fill:rgb(12.940979%,11.764526%,11.764526%);fill-opacity:1;"
       d="M 2.5625 1.96875 C 2.40625 2.15625 2.28125 2.375 2.15625 2.375 C 2.046875 2.375 2 2.234375 1.96875 2.125 C 1.9375 1.984375 1.734375 1.171875 1.734375 1.0625 C 1.734375 1.0625 2.140625 0.328125 2.3125 0.328125 C 2.453125 0.328125 2.484375 0.4375 2.640625 0.4375 C 2.78125 0.4375 2.84375 0.3125 2.84375 0.203125 C 2.84375 0.0625 2.703125 0 2.59375 0 C 2.28125 0 2 0.359375 1.6875 0.859375 L 1.625 0.515625 C 1.515625 0 1.421875 0 1.296875 0 C 1.09375 0 0.703125 0.140625 0.546875 0.1875 L 0.5625 0.28125 C 0.75 0.234375 0.84375 0.21875 0.890625 0.21875 C 1.0625 0.21875 1.078125 0.296875 1.140625 0.484375 C 1.140625 0.515625 1.34375 1.3125 1.34375 1.375 C 0.796875 2.15625 0.640625 2.359375 0.546875 2.359375 C 0.4375 2.359375 0.328125 2.25 0.203125 2.25 C 0.0625 2.25 0 2.359375 0 2.453125 C 0 2.59375 0.09375 2.703125 0.28125 2.703125 C 0.46875 2.703125 0.546875 2.640625 0.640625 2.53125 C 0.859375 2.296875 1.109375 1.984375 1.390625 1.578125 L 1.578125 2.296875 C 1.65625 2.625 1.734375 2.703125 1.921875 2.703125 C 2.046875 2.703125 2.21875 2.703125 2.65625 2.015625 Z M 2.5625 1.96875 "
       id="path35" />
    <path
       style=" stroke:none;fill-rule:nonzero;fill:rgb(12.940979%,11.764526%,11.764526%);fill-opacity:1;"
       d="M 4.414063 3.578125 C 4.351563 3.734375 4.289063 3.84375 4.023438 3.84375 L 3.257813 3.84375 L 3.257813 3.8125 L 4.039063 3.046875 C 4.523438 2.546875 4.632813 2.375 4.632813 2.109375 C 4.632813 1.796875 4.398438 1.4375 3.976563 1.4375 C 3.882813 1.4375 3.351563 1.453125 3.132813 2.078125 L 3.226563 2.109375 C 3.273438 2 3.429688 1.734375 3.789063 1.734375 C 4.101563 1.734375 4.289063 1.96875 4.289063 2.21875 C 4.289063 2.34375 4.273438 2.578125 3.710938 3.171875 L 2.867188 4.078125 L 2.867188 4.140625 L 4.289063 4.140625 L 4.492188 3.609375 Z M 4.414063 3.578125 "
       id="path37" />
  </g>
</svg>
