<?xml version="1.0" encoding="UTF-8" standalone="no"?>
<svg
   xmlns:dc="http://purl.org/dc/elements/1.1/"
   xmlns:cc="http://creativecommons.org/ns#"
   xmlns:rdf="http://www.w3.org/1999/02/22-rdf-syntax-ns#"
   xmlns:svg="http://www.w3.org/2000/svg"
   xmlns="http://www.w3.org/2000/svg"
   xmlns:sodipodi="http://sodipodi.sourceforge.net/DTD/sodipodi-0.dtd"
   xmlns:inkscape="http://www.inkscape.org/namespaces/inkscape"
   width="197.793427pt"
   height="65.500046pt"
   viewBox="0 0 197.793427 65.500046"
   version="1.2"
   id="svg87"
   sodipodi:docname="estimated_gaussian.svg"
   inkscape:version="0.92.4 (5da689c313, 2019-01-14)">
  <metadata
     id="metadata91">
    <rdf:RDF>
      <cc:Work
         rdf:about="">
        <dc:format>image/svg+xml</dc:format>
        <dc:type
           rdf:resource="http://purl.org/dc/dcmitype/StillImage" />
        <dc:title></dc:title>
      </cc:Work>
    </rdf:RDF>
  </metadata>
  <sodipodi:namedview
     pagecolor="#ffffff"
     bordercolor="#666666"
     borderopacity="1"
     objecttolerance="10"
     gridtolerance="10"
     guidetolerance="10"
     inkscape:pageopacity="0"
     inkscape:pageshadow="2"
     inkscape:window-width="661"
     inkscape:window-height="480"
     id="namedview89"
     showgrid="false"
     inkscape:zoom="1.1906361"
     inkscape:cx="131.86228"
     inkscape:cy="43.666697"
     inkscape:window-x="0"
     inkscape:window-y="0"
     inkscape:window-maximized="0"
     inkscape:current-layer="svg87" />
  <defs
     id="defs26">
    <clipPath
       id="clip1">
      <path
         d="M 27 60 L 31 60 L 31 65.5 L 27 65.5 Z M 27 60 "
         id="path2" />
    </clipPath>
    <clipPath
       id="clip2">
      <path
         d="M 53 60 L 58 60 L 58 65.5 L 53 65.5 Z M 53 60 "
         id="path5" />
    </clipPath>
    <clipPath
       id="clip3">
      <path
         d="M 79 60 L 83 60 L 83 65.5 L 79 65.5 Z M 79 60 "
         id="path8" />
    </clipPath>
    <clipPath
       id="clip4">
      <path
         d="M 104 60 L 109 60 L 109 65.5 L 104 65.5 Z M 104 60 "
         id="path11" />
    </clipPath>
    <clipPath
       id="clip5">
      <path
         d="M 130 60 L 134 60 L 134 65.5 L 130 65.5 Z M 130 60 "
         id="path14" />
    </clipPath>
    <clipPath
       id="clip6">
      <path
         d="M 155 59 L 160 59 L 160 65.5 L 155 65.5 Z M 155 59 "
         id="path17" />
    </clipPath>
    <clipPath
       id="clip7">
      <path
         d="M 180 60 L 185 60 L 185 65.5 L 180 65.5 Z M 180 60 "
         id="path20" />
    </clipPath>
    <clipPath
       id="clip8">
      <path
         d="M 193 51 L 197.792969 51 L 197.792969 57 L 193 57 Z M 193 51 "
         id="path23" />
    </clipPath>
  </defs>
  <g
     id="surface46">
    <path
       style="fill:none;stroke-width:0.374;stroke-linecap:round;stroke-linejoin:round;stroke:rgb(0%,0%,0%);stroke-opacity:1;stroke-miterlimit:4;"
       d="M 30.101563 53.835938 L 30.101563 52.667969 "
       id="path28" />
    <g
       clip-path="url(#clip1)"
       clip-rule="nonzero"
       id="g32">
      <path
         style=" stroke:none;fill-rule:nonzero;fill:rgb(0%,0%,0%);fill-opacity:1;"
         d="M 27.691406 65.4375 L 29.925781 65.4375 L 29.925781 65.3125 C 29.519531 65.328125 29.238281 65.296875 29.238281 65.046875 C 29.238281 64.921875 29.347656 64.625 29.378906 64.46875 L 30.519531 60.3125 C 30.566406 60.1875 30.597656 60.03125 30.535156 60.03125 C 30.472656 60.03125 29.363281 60.265625 28.988281 60.328125 L 28.988281 60.453125 L 29.441406 60.4375 C 29.519531 60.4375 29.753906 60.4375 29.753906 60.6875 C 29.753906 60.75 29.722656 60.875 29.691406 60.953125 L 28.582031 64.890625 C 28.488281 65.25 28.160156 65.28125 27.691406 65.328125 Z M 27.691406 65.4375 "
         id="path30" />
    </g>
    <path
       style="fill:none;stroke-width:0.374;stroke-linecap:round;stroke-linejoin:round;stroke:rgb(0%,0%,0%);stroke-opacity:1;stroke-miterlimit:4;"
       d="M 55.5625 53.835938 L 55.5625 52.667969 "
       id="path34" />
    <g
       clip-path="url(#clip2)"
       clip-rule="nonzero"
       id="g38">
      <path
         style=" stroke:none;fill-rule:nonzero;fill:rgb(0%,0%,0%);fill-opacity:1;"
         d="M 56.761719 64.328125 C 56.621094 64.609375 56.496094 64.828125 55.964844 64.828125 L 54.449219 64.828125 L 54.449219 64.796875 L 55.980469 63.25 C 56.980469 62.265625 57.167969 61.90625 57.167969 61.359375 C 57.167969 60.765625 56.730469 60.03125 55.871094 60.03125 C 55.683594 60.03125 54.636719 60.0625 54.199219 61.3125 L 54.371094 61.359375 C 54.480469 61.171875 54.777344 60.609375 55.496094 60.609375 C 56.121094 60.609375 56.480469 61.09375 56.480469 61.59375 C 56.480469 61.859375 56.449219 62.3125 55.339844 63.515625 L 53.652344 65.296875 L 53.652344 65.4375 L 56.496094 65.4375 L 56.902344 64.375 Z M 56.761719 64.328125 "
         id="path36" />
    </g>
    <path
       style="fill:none;stroke-width:0.374;stroke-linecap:round;stroke-linejoin:round;stroke:rgb(0%,0%,0%);stroke-opacity:1;stroke-miterlimit:4;"
       d="M 81.019531 53.835938 L 81.019531 52.667969 "
       id="path40" />
    <g
       clip-path="url(#clip3)"
       clip-rule="nonzero"
       id="g44">
      <path
         style=" stroke:none;fill-rule:nonzero;fill:rgb(0%,0%,0%);fill-opacity:1;"
         d="M 80.441406 60.90625 C 80.566406 60.734375 80.847656 60.359375 81.347656 60.359375 C 81.644531 60.359375 82.050781 60.5625 82.050781 61.09375 C 82.050781 61.953125 80.925781 62.3125 80.128906 62.421875 L 80.144531 62.546875 C 80.910156 62.5 81.613281 62.796875 81.613281 63.90625 C 81.613281 64.921875 80.863281 65.1875 80.597656 65.1875 C 80.144531 65.1875 79.878906 64.703125 79.519531 64.703125 C 79.222656 64.703125 79.144531 64.859375 79.144531 65.015625 C 79.144531 65.375 79.582031 65.5 80.050781 65.5 C 81.535156 65.5 82.253906 64.359375 82.253906 63.46875 C 82.253906 62.59375 81.707031 62.34375 81.503906 62.25 L 81.503906 62.234375 C 82.332031 61.921875 82.738281 61.640625 82.738281 61.03125 C 82.738281 60.359375 82.160156 60.03125 81.566406 60.03125 C 81.113281 60.03125 80.519531 60.375 80.316406 60.859375 Z M 80.441406 60.90625 "
         id="path42" />
    </g>
    <path
       style="fill:none;stroke-width:0.374;stroke-linecap:round;stroke-linejoin:round;stroke:rgb(0%,0%,0%);stroke-opacity:1;stroke-miterlimit:4;"
       d="M 106.480469 53.835938 L 106.480469 52.667969 "
       id="path46" />
    <g
       clip-path="url(#clip4)"
       clip-rule="nonzero"
       id="g50">
      <path
         style=" stroke:none;fill-rule:nonzero;fill:rgb(0%,0%,0%);fill-opacity:1;"
         d="M 106.695313 63.515625 L 104.992188 63.515625 L 104.992188 63.484375 L 107.429688 60.9375 L 107.460938 60.9375 Z M 108.101563 63.515625 L 107.335938 63.515625 L 108.304688 60.03125 L 107.976563 60.03125 L 104.648438 63.484375 L 104.492188 64.015625 L 106.585938 64.015625 L 106.195313 65.4375 L 106.820313 65.4375 L 107.195313 64.03125 L 107.992188 64.03125 Z M 108.101563 63.515625 "
         id="path48" />
    </g>
    <path
       style="fill:none;stroke-width:0.374;stroke-linecap:round;stroke-linejoin:round;stroke:rgb(0%,0%,0%);stroke-opacity:1;stroke-miterlimit:4;"
       d="M 131.9375 53.835938 L 131.9375 52.667969 "
       id="path52" />
    <g
       clip-path="url(#clip5)"
       clip-rule="nonzero"
       id="g56">
      <path
         style=" stroke:none;fill-rule:nonzero;fill:rgb(0%,0%,0%);fill-opacity:1;"
         d="M 131.839844 60.671875 L 133.683594 60.671875 L 133.855469 60.109375 L 131.808594 60.109375 L 130.980469 61.859375 L 130.980469 61.96875 C 131.902344 62.171875 132.730469 62.34375 132.730469 63.578125 C 132.730469 64.265625 132.152344 65.15625 131.371094 65.15625 C 130.933594 65.15625 130.730469 64.71875 130.371094 64.71875 C 130.214844 64.71875 130.058594 64.8125 130.058594 65.046875 C 130.058594 65.265625 130.292969 65.5 130.871094 65.5 C 132.433594 65.5 133.292969 64.265625 133.292969 63.234375 C 133.292969 62.171875 132.558594 61.59375 131.527344 61.375 Z M 131.839844 60.671875 "
         id="path54" />
    </g>
    <path
       style="fill:none;stroke-width:0.374;stroke-linecap:round;stroke-linejoin:round;stroke:rgb(0%,0%,0%);stroke-opacity:1;stroke-miterlimit:4;"
       d="M 157.394531 53.835938 L 157.394531 52.667969 "
       id="path58" />
    <g
       clip-path="url(#clip6)"
       clip-rule="nonzero"
       id="g62">
      <path
         style=" stroke:none;fill-rule:nonzero;fill:rgb(0%,0%,0%);fill-opacity:1;"
         d="M 159.550781 59.953125 C 157.113281 60.109375 155.628906 62.109375 155.628906 63.75 C 155.628906 65.0625 156.425781 65.5 157.082031 65.5 C 158.441406 65.5 159.082031 64.140625 159.082031 63.328125 C 159.082031 62.203125 158.269531 61.859375 157.738281 61.859375 C 157.597656 61.859375 157.488281 61.875 157.363281 61.90625 C 157.238281 61.9375 157.128906 61.96875 157.019531 62.03125 L 156.988281 62.015625 C 157.175781 61.609375 158.160156 60.265625 159.566406 60.078125 Z M 157.425781 62.15625 C 158.035156 62.15625 158.363281 62.53125 158.363281 63.1875 C 158.363281 63.90625 157.941406 65.28125 157.019531 65.28125 C 156.238281 65.28125 156.238281 64.390625 156.238281 64.1875 C 156.238281 64.046875 156.316406 62.15625 157.425781 62.15625 Z M 157.425781 62.15625 "
         id="path60" />
    </g>
    <path
       style="fill:none;stroke-width:0.374;stroke-linecap:round;stroke-linejoin:round;stroke:rgb(0%,0%,0%);stroke-opacity:1;stroke-miterlimit:4;"
       d="M 182.851563 53.835938 L 182.851563 52.667969 "
       id="path64" />
    <g
       clip-path="url(#clip7)"
       clip-rule="nonzero"
       id="g68">
      <path
         style=" stroke:none;fill-rule:nonzero;fill:rgb(0%,0%,0%);fill-opacity:1;"
         d="M 184.347656 60.1875 L 184.300781 60.109375 L 181.300781 60.109375 L 180.644531 61.203125 L 180.769531 61.265625 C 181.035156 60.953125 181.253906 60.6875 181.832031 60.6875 L 183.597656 60.6875 L 183.613281 60.71875 L 180.675781 65.5 L 181.238281 65.5 Z M 184.347656 60.1875 "
         id="path66" />
    </g>
    <path
       style="fill:none;stroke-width:0.187;stroke-linecap:round;stroke-linejoin:round;stroke:rgb(0%,0%,0%);stroke-opacity:1;stroke-miterlimit:4;"
       d="M 9.738281 53.835938 L 9.738281 53.136719 M 14.828125 53.835938 L 14.828125 53.136719 M 19.921875 53.835938 L 19.921875 53.136719 M 25.011719 53.835938 L 25.011719 53.136719 M 35.195313 53.835938 L 35.195313 53.136719 M 40.289063 53.835938 L 40.289063 53.136719 M 45.378906 53.835938 L 45.378906 53.136719 M 50.46875 53.835938 L 50.46875 53.136719 M 60.652344 53.835938 L 60.652344 53.136719 M 65.746094 53.835938 L 65.746094 53.136719 M 70.835938 53.835938 L 70.835938 53.136719 M 75.929688 53.835938 L 75.929688 53.136719 M 86.109375 53.835938 L 86.109375 53.136719 M 91.203125 53.835938 L 91.203125 53.136719 M 96.296875 53.835938 L 96.296875 53.136719 M 101.386719 53.835938 L 101.386719 53.136719 M 111.570313 53.835938 L 111.570313 53.136719 M 116.664063 53.835938 L 116.664063 53.136719 M 121.753906 53.835938 L 121.753906 53.136719 M 126.84375 53.835938 L 126.84375 53.136719 M 137.027344 53.835938 L 137.027344 53.136719 M 142.117188 53.835938 L 142.117188 53.136719 M 147.210938 53.835938 L 147.210938 53.136719 M 152.304688 53.835938 L 152.304688 53.136719 M 162.488281 53.835938 L 162.488281 53.136719 M 167.578125 53.835938 L 167.578125 53.136719 M 172.671875 53.835938 L 172.671875 53.136719 M 177.761719 53.835938 L 177.761719 53.136719 "
       id="path70" />
    <path
       style="fill:none;stroke-width:0.374;stroke-linecap:round;stroke-linejoin:round;stroke:rgb(0%,0%,0%);stroke-opacity:1;stroke-miterlimit:4;"
       d="M 0.191406 53.835938 L 187.308594 53.835938 "
       id="path72" />
    <path
       style=" stroke:none;fill-rule:nonzero;fill:rgb(0%,0%,0%);fill-opacity:1;"
       d="M 188.191406 53.453125 C 187.574219 53.269531 187.171875 53.097656 186.675781 52.894531 L 186.675781 54.785156 C 186.851563 54.699219 187.574219 54.414063 188.191406 54.226563 C 188.855469 54.027344 189.457031 53.890625 189.84375 53.839844 C 189.457031 53.789063 188.855469 53.65625 188.191406 53.453125 "
       id="path74" />
    <path
       style="fill:none;stroke-width:3.742;stroke-linecap:round;stroke-linejoin:round;stroke:rgb(100%,0%,0%);stroke-opacity:1;stroke-miterlimit:4;"
       d="M 109.949219 53.835938 L 109.949219 53.835938 M 98.886719 53.835938 L 98.886719 53.835938 M 51.933594 53.835938 L 51.933594 53.835938 M 57.570313 53.835938 L 57.570313 53.835938 M 97.820313 53.835938 L 97.820313 53.835938 M 90.164063 53.835938 L 90.164063 53.835938 M 77.707031 53.835938 L 77.707031 53.835938 M 69.191406 53.835938 L 69.191406 53.835938 M 63.4375 53.835938 L 63.4375 53.835938 M 126.160156 53.835938 L 126.160156 53.835938 M 103.910156 53.835938 L 103.910156 53.835938 M 64.5 53.835938 L 64.5 53.835938 "
       id="path76" />
    <path
       style="fill:none;stroke-width:0.748;stroke-linecap:round;stroke-linejoin:round;stroke:rgb(0%,0%,0%);stroke-opacity:1;stroke-dasharray:5.614,5.614;stroke-miterlimit:4;"
       d="M 4.644531 51.488281 L 8.359375 50.492188 L 12.070313 49.167969 L 15.78125 47.464844 L 19.496094 45.320313 L 26.921875 39.5625 L 34.347656 31.859375 L 41.769531 22.761719 L 49.195313 13.480469 L 52.910156 9.292969 L 56.625 5.707031 L 60.335938 2.921875 L 62.191406 1.886719 L 63.121094 1.46875 L 64.046875 1.113281 L 64.976563 0.824219 L 65.902344 0.609375 L 66.367188 0.527344 L 66.832031 0.460938 L 67.296875 0.414063 L 67.527344 0.398438 L 67.761719 0.386719 L 67.992188 0.378906 L 68.222656 0.375 L 68.457031 0.375 L 68.6875 0.382813 L 68.921875 0.390625 L 69.152344 0.40625 L 69.382813 0.425781 L 69.617188 0.449219 L 70.082031 0.507813 L 70.546875 0.582031 L 71.472656 0.792969 L 72.402344 1.066406 L 73.328125 1.410156 L 75.183594 2.300781 L 78.898438 4.820313 L 82.613281 8.199219 L 86.324219 12.238281 L 93.75 21.410156 L 101.175781 30.621094 L 108.601563 38.574219 L 112.3125 41.847656 L 116.023438 44.617188 L 119.738281 46.898438 L 123.449219 48.722656 L 127.164063 50.148438 L 130.875 51.234375 L 134.589844 52.035156 L 138.300781 52.617188 L 142.015625 53.03125 L 143.871094 53.183594 L 145.726563 53.3125 L 147.582031 53.417969 L 149.4375 53.503906 L 151.296875 53.574219 L 153.152344 53.628906 L 155.007813 53.675781 L 156.863281 53.710938 L 158.71875 53.742188 L 160.578125 53.761719 L 162.433594 53.78125 L 166.144531 53.804688 L 168.003906 53.8125 L 169.859375 53.820313 L 173.570313 53.828125 L 175.429688 53.832031 L 180.996094 53.832031 L 182.851563 53.835938 M 4.644531 53.242188 L 6.5 53.101563 L 8.359375 52.925781 L 12.070313 52.472656 L 15.78125 51.832031 L 19.496094 50.953125 L 23.210938 49.78125 L 26.921875 48.246094 L 30.632813 46.292969 L 34.347656 43.878906 L 41.769531 37.546875 L 49.195313 29.359375 L 56.625 20.0625 L 64.046875 11.027344 L 67.761719 7.15625 L 71.472656 4.003906 L 73.328125 2.761719 L 75.183594 1.761719 L 76.113281 1.359375 L 77.042969 1.023438 L 77.96875 0.757813 L 78.433594 0.648438 L 78.898438 0.558594 L 79.363281 0.488281 L 79.59375 0.457031 L 79.828125 0.433594 L 80.058594 0.414063 L 80.292969 0.398438 L 80.523438 0.386719 L 80.757813 0.378906 L 80.988281 0.375 L 81.21875 0.375 L 81.453125 0.382813 L 81.683594 0.394531 L 82.148438 0.425781 L 82.378906 0.449219 L 82.613281 0.480469 L 83.539063 0.636719 L 84.003906 0.742188 L 84.46875 0.863281 L 86.324219 1.523438 L 88.179688 2.449219 L 90.039063 3.625 L 93.75 6.65625 L 101.175781 14.757813 L 108.601563 24.105469 L 116.023438 33.0625 L 123.449219 40.503906 L 127.164063 43.492188 L 130.875 45.980469 L 134.589844 47.992188 L 138.300781 49.585938 L 142.015625 50.808594 L 145.726563 51.722656 L 149.4375 52.394531 L 151.296875 52.652344 L 153.152344 52.871094 L 156.863281 53.207031 L 158.71875 53.332031 L 160.578125 53.433594 L 162.433594 53.515625 L 164.289063 53.582031 L 166.144531 53.636719 L 168.003906 53.679688 L 169.859375 53.714844 L 171.714844 53.746094 L 173.570313 53.765625 L 175.429688 53.78125 L 179.140625 53.804688 L 182.851563 53.820313 "
       id="path78" />
    <path
       style="fill:none;stroke-width:0.748;stroke-linecap:round;stroke-linejoin:round;stroke:rgb(0%,0%,0%);stroke-opacity:1;stroke-dasharray:5.614,5.614;stroke-miterlimit:4;"
       d="M 4.644531 53.71875 L 6.5 53.6875 L 8.359375 53.644531 L 10.214844 53.589844 L 12.070313 53.527344 L 15.78125 53.347656 L 17.640625 53.222656 L 19.496094 53.078125 L 23.210938 52.6875 L 26.921875 52.132813 L 30.632813 51.363281 L 34.347656 50.324219 L 38.058594 48.949219 L 41.769531 47.1875 L 49.195313 42.277344 L 56.625 35.375 L 64.046875 26.769531 L 71.472656 17.378906 L 78.898438 8.738281 L 82.613281 5.253906 L 84.46875 3.8125 L 86.324219 2.601563 L 88.179688 1.640625 L 90.039063 0.941406 L 90.964844 0.695313 L 91.429688 0.597656 L 91.894531 0.515625 L 92.355469 0.453125 L 92.589844 0.429688 L 92.820313 0.410156 L 93.054688 0.394531 L 93.285156 0.382813 L 93.515625 0.375 L 93.980469 0.375 L 94.214844 0.382813 L 94.445313 0.394531 L 94.675781 0.410156 L 95.140625 0.453125 L 95.605469 0.515625 L 96.070313 0.597656 L 96.53125 0.695313 L 97.460938 0.941406 L 99.316406 1.640625 L 101.175781 2.601563 L 104.886719 5.253906 L 108.601563 8.738281 L 116.023438 17.378906 L 123.449219 26.769531 L 130.875 35.375 L 138.300781 42.277344 L 142.015625 44.972656 L 145.726563 47.1875 L 149.4375 48.949219 L 153.152344 50.324219 L 156.863281 51.363281 L 160.578125 52.132813 L 164.289063 52.6875 L 166.144531 52.902344 L 168.003906 53.078125 L 171.714844 53.347656 L 173.570313 53.445313 L 175.429688 53.527344 L 177.285156 53.589844 L 179.140625 53.644531 L 182.851563 53.71875 M 4.644531 53.835938 L 17.640625 53.835938 L 19.496094 53.832031 L 23.210938 53.832031 L 25.066406 53.828125 L 26.921875 53.828125 L 28.777344 53.824219 L 30.632813 53.816406 L 32.488281 53.8125 L 34.347656 53.804688 L 36.203125 53.789063 L 38.058594 53.777344 L 41.769531 53.738281 L 43.628906 53.707031 L 45.484375 53.667969 L 47.339844 53.621094 L 49.195313 53.566406 L 52.910156 53.40625 L 54.765625 53.296875 L 56.625 53.164063 L 60.335938 52.8125 L 62.191406 52.582031 L 64.046875 52.3125 L 67.761719 51.609375 L 71.472656 50.652344 L 75.183594 49.378906 L 78.898438 47.734375 L 82.613281 45.65625 L 86.324219 43.097656 L 93.75 36.480469 L 101.175781 28.074219 L 108.601563 18.714844 L 116.023438 9.859375 L 119.738281 6.171875 L 121.59375 4.609375 L 123.449219 3.265625 L 125.308594 2.15625 L 127.164063 1.304688 L 128.089844 0.980469 L 129.019531 0.726563 L 129.945313 0.535156 L 130.410156 0.46875 L 130.644531 0.445313 L 130.875 0.421875 L 131.105469 0.402344 L 131.339844 0.390625 L 131.570313 0.378906 L 131.804688 0.375 L 132.035156 0.375 L 132.265625 0.378906 L 132.5 0.386719 L 132.730469 0.402344 L 132.964844 0.417969 L 133.195313 0.441406 L 133.660156 0.496094 L 134.125 0.574219 L 134.589844 0.664063 L 135.515625 0.898438 L 136.445313 1.207031 L 138.300781 2.019531 L 140.15625 3.09375 L 142.015625 4.402344 L 145.726563 7.667969 L 153.152344 16.058594 L 160.578125 25.445313 L 168.003906 34.238281 L 175.429688 41.410156 L 182.851563 46.601563 "
       id="path80" />
    <g
       clip-path="url(#clip8)"
       clip-rule="nonzero"
       id="g84">
      <path
         style=" stroke:none;fill-rule:nonzero;fill:rgb(12.940979%,11.764526%,11.764526%);fill-opacity:1;"
         d="M 197.371094 54.835938 C 197.105469 55.117188 196.917969 55.476563 196.714844 55.476563 C 196.527344 55.476563 196.449219 55.242188 196.417969 55.085938 C 196.355469 54.835938 196.027344 53.539063 196.027344 53.367188 C 196.027344 53.367188 196.683594 52.210938 196.964844 52.210938 C 197.183594 52.210938 197.246094 52.367188 197.480469 52.367188 C 197.699219 52.367188 197.792969 52.179688 197.792969 52.007813 C 197.792969 51.789063 197.589844 51.664063 197.402344 51.664063 C 196.902344 51.664063 196.449219 52.257813 195.964844 53.039063 L 195.855469 52.507813 C 195.683594 51.664063 195.542969 51.664063 195.324219 51.664063 C 195.011719 51.664063 194.386719 51.898438 194.121094 51.976563 L 194.167969 52.132813 C 194.464844 52.054688 194.605469 52.023438 194.699219 52.023438 C 194.949219 52.023438 194.996094 52.164063 195.074219 52.460938 C 195.089844 52.507813 195.417969 53.773438 195.417969 53.867188 C 194.542969 55.117188 194.292969 55.445313 194.136719 55.445313 C 193.964844 55.445313 193.792969 55.257813 193.574219 55.257813 C 193.371094 55.257813 193.246094 55.445313 193.246094 55.585938 C 193.246094 55.820313 193.402344 56.007813 193.730469 56.007813 C 194.027344 56.007813 194.136719 55.898438 194.292969 55.710938 C 194.621094 55.367188 195.027344 54.835938 195.480469 54.210938 L 195.777344 55.367188 C 195.902344 55.867188 196.042969 56.007813 196.324219 56.007813 C 196.542969 56.007813 196.824219 56.007813 197.496094 54.914063 Z M 197.371094 54.835938 "
         id="path82" />
    </g>
  </g>
</svg>
