<?xml version="1.0" encoding="UTF-8" standalone="no"?>
<svg
   xmlns:dc="http://purl.org/dc/elements/1.1/"
   xmlns:cc="http://creativecommons.org/ns#"
   xmlns:rdf="http://www.w3.org/1999/02/22-rdf-syntax-ns#"
   xmlns:svg="http://www.w3.org/2000/svg"
   xmlns="http://www.w3.org/2000/svg"
   xmlns:sodipodi="http://sodipodi.sourceforge.net/DTD/sodipodi-0.dtd"
   xmlns:inkscape="http://www.inkscape.org/namespaces/inkscape"
   width="224.559769pt"
   height="74.416321pt"
   viewBox="0 0 224.559769 74.416321"
   version="1.2"
   id="svg149"
   sodipodi:docname="parameter_combined_gaussian.svg"
   inkscape:version="0.92.4 (5da689c313, 2019-01-14)">
  <metadata
     id="metadata153">
    <rdf:RDF>
      <cc:Work
         rdf:about="">
        <dc:format>image/svg+xml</dc:format>
        <dc:type
           rdf:resource="http://purl.org/dc/dcmitype/StillImage" />
        <dc:title></dc:title>
      </cc:Work>
    </rdf:RDF>
  </metadata>
  <sodipodi:namedview
     pagecolor="#ffffff"
     bordercolor="#666666"
     borderopacity="1"
     objecttolerance="10"
     gridtolerance="10"
     guidetolerance="10"
     inkscape:pageopacity="0"
     inkscape:pageshadow="2"
     inkscape:window-width="661"
     inkscape:window-height="480"
     id="namedview151"
     showgrid="false"
     inkscape:zoom="1.0487186"
     inkscape:cx="149.70651"
     inkscape:cy="49.610881"
     inkscape:window-x="0"
     inkscape:window-y="0"
     inkscape:window-maximized="0"
     inkscape:current-layer="svg149" />
  <defs
     id="defs26">
    <clipPath
       id="clip1">
      <path
         d="M 56 68 L 60 68 L 60 74.417969 L 56 74.417969 Z M 56 68 "
         id="path2" />
    </clipPath>
    <clipPath
       id="clip2">
      <path
         d="M 82 68 L 87 68 L 87 74.417969 L 82 74.417969 Z M 82 68 "
         id="path5" />
    </clipPath>
    <clipPath
       id="clip3">
      <path
         d="M 108 68 L 112 68 L 112 74.417969 L 108 74.417969 Z M 108 68 "
         id="path8" />
    </clipPath>
    <clipPath
       id="clip4">
      <path
         d="M 133 68 L 138 68 L 138 74.417969 L 133 74.417969 Z M 133 68 "
         id="path11" />
    </clipPath>
    <clipPath
       id="clip5">
      <path
         d="M 159 69 L 163 69 L 163 74.417969 L 159 74.417969 Z M 159 69 "
         id="path14" />
    </clipPath>
    <clipPath
       id="clip6">
      <path
         d="M 184 68 L 189 68 L 189 74.417969 L 184 74.417969 Z M 184 68 "
         id="path17" />
    </clipPath>
    <clipPath
       id="clip7">
      <path
         d="M 209 69 L 214 69 L 214 74.417969 L 209 74.417969 Z M 209 69 "
         id="path20" />
    </clipPath>
    <clipPath
       id="clip8">
      <path
         d="M 220 59 L 224.558594 59 L 224.558594 67 L 220 67 Z M 220 59 "
         id="path23" />
    </clipPath>
  </defs>
  <g
     id="surface50">
    <g
       clip-path="url(#clip1)"
       clip-rule="nonzero"
       id="g30">
      <path
         style=" stroke:none;fill-rule:nonzero;fill:rgb(0%,0%,0%);fill-opacity:1;"
         d="M 56.757813 74.355469 L 58.992188 74.355469 L 58.992188 74.230469 C 58.585938 74.246094 58.304688 74.214844 58.304688 73.964844 C 58.304688 73.839844 58.414063 73.542969 58.445313 73.386719 L 59.585938 69.230469 C 59.632813 69.105469 59.664063 68.949219 59.601563 68.949219 C 59.539063 68.949219 58.429688 69.183594 58.054688 69.246094 L 58.054688 69.371094 L 58.507813 69.355469 C 58.585938 69.355469 58.820313 69.355469 58.820313 69.605469 C 58.820313 69.667969 58.789063 69.792969 58.757813 69.871094 L 57.648438 73.808594 C 57.554688 74.167969 57.226563 74.199219 56.757813 74.246094 Z M 56.757813 74.355469 "
         id="path28" />
    </g>
    <g
       clip-path="url(#clip2)"
       clip-rule="nonzero"
       id="g34">
      <path
         style=" stroke:none;fill-rule:nonzero;fill:rgb(0%,0%,0%);fill-opacity:1;"
         d="M 85.832031 73.246094 C 85.691406 73.527344 85.566406 73.746094 85.035156 73.746094 L 83.519531 73.746094 L 83.519531 73.714844 L 85.050781 72.167969 C 86.050781 71.183594 86.238281 70.824219 86.238281 70.277344 C 86.238281 69.683594 85.800781 68.949219 84.941406 68.949219 C 84.753906 68.949219 83.707031 68.980469 83.269531 70.230469 L 83.441406 70.277344 C 83.550781 70.089844 83.847656 69.527344 84.566406 69.527344 C 85.191406 69.527344 85.550781 70.011719 85.550781 70.511719 C 85.550781 70.777344 85.519531 71.230469 84.410156 72.433594 L 82.722656 74.214844 L 82.722656 74.355469 L 85.566406 74.355469 L 85.972656 73.292969 Z M 85.832031 73.246094 "
         id="path32" />
    </g>
    <g
       clip-path="url(#clip3)"
       clip-rule="nonzero"
       id="g38">
      <path
         style=" stroke:none;fill-rule:nonzero;fill:rgb(0%,0%,0%);fill-opacity:1;"
         d="M 109.507813 69.824219 C 109.632813 69.652344 109.914063 69.277344 110.414063 69.277344 C 110.710938 69.277344 111.117188 69.480469 111.117188 70.011719 C 111.117188 70.871094 109.992188 71.230469 109.195313 71.339844 L 109.210938 71.464844 C 109.976563 71.417969 110.679688 71.714844 110.679688 72.824219 C 110.679688 73.839844 109.929688 74.105469 109.664063 74.105469 C 109.210938 74.105469 108.945313 73.621094 108.585938 73.621094 C 108.289063 73.621094 108.210938 73.777344 108.210938 73.933594 C 108.210938 74.292969 108.648438 74.417969 109.117188 74.417969 C 110.601563 74.417969 111.320313 73.277344 111.320313 72.386719 C 111.320313 71.511719 110.773438 71.261719 110.570313 71.167969 L 110.570313 71.152344 C 111.398438 70.839844 111.804688 70.558594 111.804688 69.949219 C 111.804688 69.277344 111.226563 68.949219 110.632813 68.949219 C 110.179688 68.949219 109.585938 69.292969 109.382813 69.777344 Z M 109.507813 69.824219 "
         id="path36" />
    </g>
    <g
       clip-path="url(#clip4)"
       clip-rule="nonzero"
       id="g42">
      <path
         style=" stroke:none;fill-rule:nonzero;fill:rgb(0%,0%,0%);fill-opacity:1;"
         d="M 135.761719 72.433594 L 134.058594 72.433594 L 134.058594 72.402344 L 136.496094 69.855469 L 136.527344 69.855469 Z M 137.167969 72.433594 L 136.402344 72.433594 L 137.371094 68.949219 L 137.042969 68.949219 L 133.714844 72.402344 L 133.558594 72.933594 L 135.652344 72.933594 L 135.261719 74.355469 L 135.886719 74.355469 L 136.261719 72.949219 L 137.058594 72.949219 Z M 137.167969 72.433594 "
         id="path40" />
    </g>
    <g
       clip-path="url(#clip5)"
       clip-rule="nonzero"
       id="g46">
      <path
         style=" stroke:none;fill-rule:nonzero;fill:rgb(0%,0%,0%);fill-opacity:1;"
         d="M 160.910156 69.589844 L 162.753906 69.589844 L 162.925781 69.027344 L 160.878906 69.027344 L 160.050781 70.777344 L 160.050781 70.886719 C 160.972656 71.089844 161.800781 71.261719 161.800781 72.496094 C 161.800781 73.183594 161.222656 74.074219 160.441406 74.074219 C 160.003906 74.074219 159.800781 73.636719 159.441406 73.636719 C 159.285156 73.636719 159.128906 73.730469 159.128906 73.964844 C 159.128906 74.183594 159.363281 74.417969 159.941406 74.417969 C 161.503906 74.417969 162.363281 73.183594 162.363281 72.152344 C 162.363281 71.089844 161.628906 70.511719 160.597656 70.292969 Z M 160.910156 69.589844 "
         id="path44" />
    </g>
    <g
       clip-path="url(#clip6)"
       clip-rule="nonzero"
       id="g50">
      <path
         style=" stroke:none;fill-rule:nonzero;fill:rgb(0%,0%,0%);fill-opacity:1;"
         d="M 188.617188 68.871094 C 186.179688 69.027344 184.695313 71.027344 184.695313 72.667969 C 184.695313 73.980469 185.492188 74.417969 186.148438 74.417969 C 187.507813 74.417969 188.148438 73.058594 188.148438 72.246094 C 188.148438 71.121094 187.335938 70.777344 186.804688 70.777344 C 186.664063 70.777344 186.554688 70.792969 186.429688 70.824219 C 186.304688 70.855469 186.195313 70.886719 186.085938 70.949219 L 186.054688 70.933594 C 186.242188 70.527344 187.226563 69.183594 188.632813 68.996094 Z M 186.492188 71.074219 C 187.101563 71.074219 187.429688 71.449219 187.429688 72.105469 C 187.429688 72.824219 187.007813 74.199219 186.085938 74.199219 C 185.304688 74.199219 185.304688 73.308594 185.304688 73.105469 C 185.304688 72.964844 185.382813 71.074219 186.492188 71.074219 Z M 186.492188 71.074219 "
         id="path48" />
    </g>
    <g
       clip-path="url(#clip7)"
       clip-rule="nonzero"
       id="g54">
      <path
         style=" stroke:none;fill-rule:nonzero;fill:rgb(0%,0%,0%);fill-opacity:1;"
         d="M 213.417969 69.105469 L 213.371094 69.027344 L 210.371094 69.027344 L 209.714844 70.121094 L 209.839844 70.183594 C 210.105469 69.871094 210.324219 69.605469 210.902344 69.605469 L 212.667969 69.605469 L 212.683594 69.636719 L 209.746094 74.417969 L 210.308594 74.417969 Z M 213.417969 69.105469 "
         id="path52" />
    </g>
    <path
       style=" stroke:none;fill-rule:nonzero;fill:rgb(12.940979%,11.764526%,11.764526%);fill-opacity:1;"
       d="M 114.578125 41.9375 C 114.578125 40.78125 114.140625 39.890625 113.328125 39.890625 C 111.890625 39.890625 110.40625 42.546875 110.40625 44.6875 C 110.40625 45.609375 110.71875 46.734375 111.671875 46.734375 C 113.0625 46.734375 114.578125 44.140625 114.578125 41.9375 Z M 111.484375 43.15625 C 111.921875 41.203125 112.734375 40.15625 113.296875 40.15625 C 113.890625 40.15625 113.890625 41.171875 113.890625 41.359375 C 113.890625 41.875 113.75 42.578125 113.59375 43.15625 Z M 113.515625 43.46875 C 112.984375 45.671875 112.1875 46.46875 111.6875 46.46875 C 111.1875 46.46875 111.109375 45.828125 111.109375 45.265625 C 111.109375 44.703125 111.25 44 111.390625 43.46875 Z M 113.515625 43.46875 "
       id="path56" />
    <path
       style="fill:none;stroke-width:0.342;stroke-linecap:round;stroke-linejoin:round;stroke:rgb(0%,0%,0%);stroke-opacity:1;stroke-miterlimit:4;"
       d="M 58.78125 64.046875 L 58.78125 62.820313 M 84.296875 64.046875 L 84.296875 62.820313 M 109.808594 64.046875 L 109.808594 62.820313 M 135.324219 64.046875 L 135.324219 62.820313 M 160.835938 64.046875 L 160.835938 62.820313 M 186.351563 64.046875 L 186.351563 62.820313 M 211.863281 64.046875 L 211.863281 62.820313 "
       id="path58" />
    <path
       style="fill:none;stroke-width:0.171;stroke-linecap:round;stroke-linejoin:round;stroke:rgb(0%,0%,0%);stroke-opacity:1;stroke-miterlimit:4;"
       d="M 38.371094 64.046875 L 38.371094 63.3125 M 43.472656 64.046875 L 43.472656 63.3125 M 48.574219 64.046875 L 48.574219 63.3125 M 53.679688 64.046875 L 53.679688 63.3125 M 63.882813 64.046875 L 63.882813 63.3125 M 68.988281 64.046875 L 68.988281 63.3125 M 74.089844 64.046875 L 74.089844 63.3125 M 79.195313 64.046875 L 79.195313 63.3125 M 89.398438 64.046875 L 89.398438 63.3125 M 94.5 64.046875 L 94.5 63.3125 M 99.605469 64.046875 L 99.605469 63.3125 M 104.707031 64.046875 L 104.707031 63.3125 M 114.910156 64.046875 L 114.910156 63.3125 M 120.015625 64.046875 L 120.015625 63.3125 M 125.117188 64.046875 L 125.117188 63.3125 M 130.222656 64.046875 L 130.222656 63.3125 M 140.425781 64.046875 L 140.425781 63.3125 M 145.53125 64.046875 L 145.53125 63.3125 M 150.632813 64.046875 L 150.632813 63.3125 M 155.734375 64.046875 L 155.734375 63.3125 M 165.941406 64.046875 L 165.941406 63.3125 M 171.042969 64.046875 L 171.042969 63.3125 M 176.144531 64.046875 L 176.144531 63.3125 M 181.25 64.046875 L 181.25 63.3125 M 191.453125 64.046875 L 191.453125 63.3125 M 196.558594 64.046875 L 196.558594 63.3125 M 201.660156 64.046875 L 201.660156 63.3125 M 206.761719 64.046875 L 206.761719 63.3125 "
       id="path60" />
    <path
       style="fill:none;stroke-width:0.342;stroke-linecap:round;stroke-linejoin:round;stroke:rgb(0%,0%,0%);stroke-opacity:1;stroke-miterlimit:4;"
       d="M 33.265625 56.617188 L 34.441406 56.617188 M 33.265625 49.191406 L 34.441406 49.191406 "
       id="path62" />
    <path
       style=" stroke:none;fill-rule:nonzero;fill:rgb(0%,0%,0%);fill-opacity:1;"
       d="M 0.59375 57.035156 C 0.59375 56.253906 1.140625 53.097656 2.28125 53.097656 C 2.9375 53.097656 2.9375 53.910156 2.9375 54.160156 C 2.9375 55.550781 2.28125 58.113281 1.265625 58.113281 C 1.015625 58.113281 0.59375 57.972656 0.59375 57.035156 Z M 3.546875 54.878906 C 3.546875 54.097656 3.34375 52.878906 2.328125 52.878906 C 1.265625 52.878906 0 54.519531 0 56.691406 C 0 57.519531 0.4375 58.347656 1.21875 58.347656 C 2.515625 58.347656 3.546875 56.457031 3.546875 54.878906 Z M 3.546875 54.878906 "
       id="path64" />
    <path
       style=" stroke:none;fill-rule:nonzero;fill:rgb(0%,0%,0%);fill-opacity:1;"
       d="M 4.191406 58.378906 C 4.347656 58.378906 4.613281 58.238281 4.613281 57.941406 C 4.613281 57.691406 4.425781 57.488281 4.191406 57.488281 C 3.957031 57.488281 3.769531 57.691406 3.769531 57.941406 C 3.769531 58.238281 4.035156 58.378906 4.191406 58.378906 Z M 4.191406 58.378906 "
       id="path66" />
    <path
       style=" stroke:none;fill-rule:nonzero;fill:rgb(0%,0%,0%);fill-opacity:1;"
       d="M 7.585938 56.363281 L 5.976563 56.363281 L 5.976563 56.332031 L 8.289063 53.785156 L 8.320313 53.785156 Z M 8.945313 56.363281 L 8.210938 56.363281 L 9.132813 52.878906 L 8.820313 52.878906 L 5.632813 56.332031 L 5.476563 56.863281 L 7.492188 56.863281 L 7.117188 58.285156 L 7.710938 58.285156 L 8.070313 56.878906 L 8.835938 56.878906 Z M 8.945313 56.363281 "
       id="path68" />
    <path
       style=" stroke:none;fill-rule:nonzero;fill:rgb(0%,0%,0%);fill-opacity:1;"
       d="M 13.546875 56.128906 L 14.890625 54.097656 L 14.0625 54.097656 L 13.140625 55.566406 L 12.21875 54.097656 L 11.359375 54.097656 L 12.6875 56.128906 L 11.28125 58.285156 L 12.140625 58.285156 L 13.09375 56.707031 L 14.09375 58.285156 L 14.953125 58.285156 Z M 13.546875 56.128906 "
       id="path70" />
    <path
       style=" stroke:none;fill-rule:nonzero;fill:rgb(0%,0%,0%);fill-opacity:1;"
       d="M 17.304688 58.285156 L 19.429688 58.285156 L 19.429688 58.160156 C 19.054688 58.175781 18.773438 58.144531 18.773438 57.894531 C 18.773438 57.769531 18.882813 57.472656 18.914063 57.316406 L 20.007813 53.160156 C 20.054688 53.035156 20.085938 52.878906 20.023438 52.878906 C 19.960938 52.878906 18.898438 53.113281 18.539063 53.175781 L 18.539063 53.300781 L 18.976563 53.285156 C 19.039063 53.285156 19.273438 53.285156 19.273438 53.535156 C 19.273438 53.597656 19.242188 53.722656 19.210938 53.800781 L 18.164063 57.738281 C 18.054688 58.097656 17.757813 58.128906 17.304688 58.175781 Z M 17.304688 58.285156 "
       id="path72" />
    <path
       style=" stroke:none;fill-rule:nonzero;fill:rgb(0%,0%,0%);fill-opacity:1;"
       d="M 21.589844 57.035156 C 21.589844 56.253906 22.136719 53.097656 23.277344 53.097656 C 23.933594 53.097656 23.933594 53.910156 23.933594 54.160156 C 23.933594 55.550781 23.277344 58.113281 22.261719 58.113281 C 22.011719 58.113281 21.589844 57.972656 21.589844 57.035156 Z M 24.542969 54.878906 C 24.542969 54.097656 24.339844 52.878906 23.324219 52.878906 C 22.261719 52.878906 20.996094 54.519531 20.996094 56.691406 C 20.996094 57.519531 21.433594 58.347656 22.214844 58.347656 C 23.511719 58.347656 24.542969 56.457031 24.542969 54.878906 Z M 24.542969 54.878906 "
       id="path74" />
    <path
       style=" stroke:none;fill-rule:nonzero;fill:rgb(0%,0%,0%);fill-opacity:1;"
       d="M 26.71875 53.039063 L 25.046875 53.039063 L 24.9375 53.554688 L 26.625 53.554688 Z M 26.71875 53.039063 "
       id="path76" />
    <path
       style=" stroke:none;fill-rule:nonzero;fill:rgb(0%,0%,0%);fill-opacity:1;"
       d="M 31.214844 49.835938 L 31.167969 49.757813 L 28.292969 49.757813 L 27.683594 50.851563 L 27.792969 50.914063 C 28.042969 50.601563 28.246094 50.335938 28.808594 50.335938 L 30.496094 50.335938 L 30.511719 50.367188 L 27.714844 55.148438 L 28.246094 55.148438 Z M 31.214844 49.835938 "
       id="path78" />
    <path
       style="fill:none;stroke-width:0.342;stroke-linecap:round;stroke-linejoin:round;stroke:rgb(0%,0%,0%);stroke-opacity:1;stroke-miterlimit:4;"
       d="M 33.265625 41.757813 L 34.441406 41.757813 M 33.265625 34.332031 L 34.441406 34.332031 "
       id="path80" />
    <path
       style=" stroke:none;fill-rule:nonzero;fill:rgb(0%,0%,0%);fill-opacity:1;"
       d="M 0.59375 42.179688 C 0.59375 41.398438 1.140625 38.242188 2.28125 38.242188 C 2.9375 38.242188 2.9375 39.054688 2.9375 39.304688 C 2.9375 40.695313 2.28125 43.257813 1.265625 43.257813 C 1.015625 43.257813 0.59375 43.117188 0.59375 42.179688 Z M 3.546875 40.023438 C 3.546875 39.242188 3.34375 38.023438 2.328125 38.023438 C 1.265625 38.023438 0 39.664063 0 41.835938 C 0 42.664063 0.4375 43.492188 1.21875 43.492188 C 2.515625 43.492188 3.546875 41.601563 3.546875 40.023438 Z M 3.546875 40.023438 "
       id="path82" />
    <path
       style=" stroke:none;fill-rule:nonzero;fill:rgb(0%,0%,0%);fill-opacity:1;"
       d="M 4.191406 43.523438 C 4.347656 43.523438 4.613281 43.382813 4.613281 43.085938 C 4.613281 42.835938 4.425781 42.632813 4.191406 42.632813 C 3.957031 42.632813 3.769531 42.835938 3.769531 43.085938 C 3.769531 43.382813 4.035156 43.523438 4.191406 43.523438 Z M 4.191406 43.523438 "
       id="path84" />
    <path
       style=" stroke:none;fill-rule:nonzero;fill:rgb(0%,0%,0%);fill-opacity:1;"
       d="M 5.710938 42.179688 C 5.710938 42.414063 5.867188 43.492188 7.226563 43.492188 C 8.257813 43.492188 8.867188 42.773438 8.867188 42.085938 C 8.867188 41.460938 8.570313 40.976563 7.992188 40.367188 C 8.414063 40.226563 9.242188 39.945313 9.242188 39.164063 C 9.242188 38.289063 8.414063 38.023438 7.914063 38.023438 C 7.195313 38.023438 6.523438 38.414063 6.523438 39.242188 C 6.523438 39.648438 6.726563 40.023438 7.195313 40.554688 C 7.007813 40.601563 5.710938 41.007813 5.710938 42.179688 Z M 6.226563 42.195313 C 6.226563 41.179688 7.164063 40.742188 7.367188 40.679688 C 8.101563 41.476563 8.289063 41.679688 8.289063 42.210938 C 8.289063 42.976563 7.695313 43.304688 7.289063 43.304688 C 6.632813 43.304688 6.226563 42.835938 6.226563 42.195313 Z M 7.132813 39.085938 C 7.132813 38.554688 7.414063 38.210938 7.914063 38.210938 C 8.523438 38.210938 8.726563 38.757813 8.726563 39.148438 C 8.726563 39.804688 8.273438 40.023438 7.851563 40.242188 C 7.132813 39.554688 7.132813 39.304688 7.132813 39.085938 Z M 7.132813 39.085938 "
       id="path86" />
    <path
       style=" stroke:none;fill-rule:nonzero;fill:rgb(0%,0%,0%);fill-opacity:1;"
       d="M 13.546875 41.273438 L 14.890625 39.242188 L 14.0625 39.242188 L 13.140625 40.710938 L 12.21875 39.242188 L 11.359375 39.242188 L 12.6875 41.273438 L 11.28125 43.429688 L 12.140625 43.429688 L 13.09375 41.851563 L 14.09375 43.429688 L 14.953125 43.429688 Z M 13.546875 41.273438 "
       id="path88" />
    <path
       style=" stroke:none;fill-rule:nonzero;fill:rgb(0%,0%,0%);fill-opacity:1;"
       d="M 17.304688 43.429688 L 19.429688 43.429688 L 19.429688 43.304688 C 19.054688 43.320313 18.773438 43.289063 18.773438 43.039063 C 18.773438 42.914063 18.882813 42.617188 18.914063 42.460938 L 20.007813 38.304688 C 20.054688 38.179688 20.085938 38.023438 20.023438 38.023438 C 19.960938 38.023438 18.898438 38.257813 18.539063 38.320313 L 18.539063 38.445313 L 18.976563 38.429688 C 19.039063 38.429688 19.273438 38.429688 19.273438 38.679688 C 19.273438 38.742188 19.242188 38.867188 19.210938 38.945313 L 18.164063 42.882813 C 18.054688 43.242188 17.757813 43.273438 17.304688 43.320313 Z M 17.304688 43.429688 "
       id="path90" />
    <path
       style=" stroke:none;fill-rule:nonzero;fill:rgb(0%,0%,0%);fill-opacity:1;"
       d="M 21.589844 42.179688 C 21.589844 41.398438 22.136719 38.242188 23.277344 38.242188 C 23.933594 38.242188 23.933594 39.054688 23.933594 39.304688 C 23.933594 40.695313 23.277344 43.257813 22.261719 43.257813 C 22.011719 43.257813 21.589844 43.117188 21.589844 42.179688 Z M 24.542969 40.023438 C 24.542969 39.242188 24.339844 38.023438 23.324219 38.023438 C 22.261719 38.023438 20.996094 39.664063 20.996094 41.835938 C 20.996094 42.664063 21.433594 43.492188 22.214844 43.492188 C 23.511719 43.492188 24.542969 41.601563 24.542969 40.023438 Z M 24.542969 40.023438 "
       id="path92" />
    <path
       style=" stroke:none;fill-rule:nonzero;fill:rgb(0%,0%,0%);fill-opacity:1;"
       d="M 26.71875 38.183594 L 25.046875 38.183594 L 24.9375 38.699219 L 26.625 38.699219 Z M 26.71875 38.183594 "
       id="path94" />
    <path
       style=" stroke:none;fill-rule:nonzero;fill:rgb(0%,0%,0%);fill-opacity:1;"
       d="M 31.214844 34.980469 L 31.167969 34.902344 L 28.292969 34.902344 L 27.683594 35.996094 L 27.792969 36.058594 C 28.042969 35.746094 28.246094 35.480469 28.808594 35.480469 L 30.496094 35.480469 L 30.511719 35.511719 L 27.714844 40.292969 L 28.246094 40.292969 Z M 31.214844 34.980469 "
       id="path96" />
    <path
       style="fill:none;stroke-width:0.342;stroke-linecap:round;stroke-linejoin:round;stroke:rgb(0%,0%,0%);stroke-opacity:1;stroke-miterlimit:4;"
       d="M 33.265625 26.902344 L 34.441406 26.902344 M 33.265625 19.472656 L 34.441406 19.472656 "
       id="path98" />
    <path
       style=" stroke:none;fill-rule:nonzero;fill:rgb(0%,0%,0%);fill-opacity:1;"
       d="M 0.125 28.570313 L 2.25 28.570313 L 2.25 28.445313 C 1.875 28.460938 1.59375 28.429688 1.59375 28.179688 C 1.59375 28.054688 1.703125 27.757813 1.734375 27.601563 L 2.828125 23.445313 C 2.875 23.320313 2.90625 23.164063 2.84375 23.164063 C 2.78125 23.164063 1.71875 23.398438 1.359375 23.460938 L 1.359375 23.585938 L 1.796875 23.570313 C 1.859375 23.570313 2.09375 23.570313 2.09375 23.820313 C 2.09375 23.882813 2.0625 24.007813 2.03125 24.085938 L 0.984375 28.023438 C 0.875 28.382813 0.578125 28.414063 0.125 28.460938 Z M 0.125 28.570313 "
       id="path100" />
    <path
       style=" stroke:none;fill-rule:nonzero;fill:rgb(0%,0%,0%);fill-opacity:1;"
       d="M 4.191406 28.664063 C 4.347656 28.664063 4.613281 28.523438 4.613281 28.226563 C 4.613281 27.976563 4.425781 27.773438 4.191406 27.773438 C 3.957031 27.773438 3.769531 27.976563 3.769531 28.226563 C 3.769531 28.523438 4.035156 28.664063 4.191406 28.664063 Z M 4.191406 28.664063 "
       id="path102" />
    <path
       style=" stroke:none;fill-rule:nonzero;fill:rgb(0%,0%,0%);fill-opacity:1;"
       d="M 8.539063 27.460938 C 8.398438 27.742188 8.273438 27.960938 7.773438 27.960938 L 6.320313 27.960938 L 6.320313 27.929688 L 7.789063 26.382813 C 8.742188 25.398438 8.929688 25.039063 8.929688 24.492188 C 8.929688 23.898438 8.507813 23.164063 7.695313 23.164063 C 7.507813 23.164063 6.507813 23.195313 6.085938 24.445313 L 6.242188 24.492188 C 6.351563 24.304688 6.648438 23.742188 7.335938 23.742188 C 7.914063 23.742188 8.273438 24.226563 8.273438 24.726563 C 8.273438 24.992188 8.242188 25.445313 7.179688 26.648438 L 5.570313 28.429688 L 5.570313 28.570313 L 8.273438 28.570313 L 8.664063 27.507813 Z M 8.539063 27.460938 "
       id="path104" />
    <path
       style=" stroke:none;fill-rule:nonzero;fill:rgb(0%,0%,0%);fill-opacity:1;"
       d="M 13.546875 26.414063 L 14.890625 24.382813 L 14.0625 24.382813 L 13.140625 25.851563 L 12.21875 24.382813 L 11.359375 24.382813 L 12.6875 26.414063 L 11.28125 28.570313 L 12.140625 28.570313 L 13.09375 26.992188 L 14.09375 28.570313 L 14.953125 28.570313 Z M 13.546875 26.414063 "
       id="path106" />
    <path
       style=" stroke:none;fill-rule:nonzero;fill:rgb(0%,0%,0%);fill-opacity:1;"
       d="M 17.304688 28.570313 L 19.429688 28.570313 L 19.429688 28.445313 C 19.054688 28.460938 18.773438 28.429688 18.773438 28.179688 C 18.773438 28.054688 18.882813 27.757813 18.914063 27.601563 L 20.007813 23.445313 C 20.054688 23.320313 20.085938 23.164063 20.023438 23.164063 C 19.960938 23.164063 18.898438 23.398438 18.539063 23.460938 L 18.539063 23.585938 L 18.976563 23.570313 C 19.039063 23.570313 19.273438 23.570313 19.273438 23.820313 C 19.273438 23.882813 19.242188 24.007813 19.210938 24.085938 L 18.164063 28.023438 C 18.054688 28.382813 17.757813 28.414063 17.304688 28.460938 Z M 17.304688 28.570313 "
       id="path108" />
    <path
       style=" stroke:none;fill-rule:nonzero;fill:rgb(0%,0%,0%);fill-opacity:1;"
       d="M 21.589844 27.320313 C 21.589844 26.539063 22.136719 23.382813 23.277344 23.382813 C 23.933594 23.382813 23.933594 24.195313 23.933594 24.445313 C 23.933594 25.835938 23.277344 28.398438 22.261719 28.398438 C 22.011719 28.398438 21.589844 28.257813 21.589844 27.320313 Z M 24.542969 25.164063 C 24.542969 24.382813 24.339844 23.164063 23.324219 23.164063 C 22.261719 23.164063 20.996094 24.804688 20.996094 26.976563 C 20.996094 27.804688 21.433594 28.632813 22.214844 28.632813 C 23.511719 28.632813 24.542969 26.742188 24.542969 25.164063 Z M 24.542969 25.164063 "
       id="path110" />
    <path
       style=" stroke:none;fill-rule:nonzero;fill:rgb(0%,0%,0%);fill-opacity:1;"
       d="M 26.71875 23.324219 L 25.046875 23.324219 L 24.9375 23.839844 L 26.625 23.839844 Z M 26.71875 23.324219 "
       id="path112" />
    <path
       style=" stroke:none;fill-rule:nonzero;fill:rgb(0%,0%,0%);fill-opacity:1;"
       d="M 31.214844 20.121094 L 31.167969 20.042969 L 28.292969 20.042969 L 27.683594 21.136719 L 27.792969 21.199219 C 28.042969 20.886719 28.246094 20.621094 28.808594 20.621094 L 30.496094 20.621094 L 30.511719 20.652344 L 27.714844 25.433594 L 28.246094 25.433594 Z M 31.214844 20.121094 "
       id="path114" />
    <path
       style="fill:none;stroke-width:0.171;stroke-linecap:round;stroke-linejoin:round;stroke:rgb(0%,0%,0%);stroke-opacity:1;stroke-miterlimit:4;"
       d="M 33.265625 62.5625 L 33.972656 62.5625 M 33.265625 61.074219 L 33.972656 61.074219 M 33.265625 59.589844 L 33.972656 59.589844 M 33.265625 58.105469 L 33.972656 58.105469 M 33.265625 55.132813 L 33.972656 55.132813 M 33.265625 53.648438 L 33.972656 53.648438 M 33.265625 52.164063 L 33.972656 52.164063 M 33.265625 50.675781 L 33.972656 50.675781 M 33.265625 47.703125 L 33.972656 47.703125 M 33.265625 46.21875 L 33.972656 46.21875 M 33.265625 44.734375 L 33.972656 44.734375 M 33.265625 43.246094 L 33.972656 43.246094 M 33.265625 40.273438 L 33.972656 40.273438 M 33.265625 38.789063 L 33.972656 38.789063 M 33.265625 37.304688 L 33.972656 37.304688 M 33.265625 35.816406 L 33.972656 35.816406 M 33.265625 32.847656 L 33.972656 32.847656 M 33.265625 31.359375 L 33.972656 31.359375 M 33.265625 29.875 L 33.972656 29.875 M 33.265625 28.386719 L 33.972656 28.386719 M 33.265625 25.417969 L 33.972656 25.417969 M 33.265625 23.929688 L 33.972656 23.929688 M 33.265625 22.445313 L 33.972656 22.445313 M 33.265625 20.960938 L 33.972656 20.960938 M 33.265625 17.988281 L 33.972656 17.988281 M 33.265625 16.503906 L 33.972656 16.503906 M 33.265625 15.015625 L 33.972656 15.015625 M 33.265625 13.53125 L 33.972656 13.53125 "
       id="path116" />
    <path
       style="fill:none;stroke-width:0.342;stroke-linecap:round;stroke-linejoin:round;stroke:rgb(0%,0%,0%);stroke-opacity:1;stroke-miterlimit:4;"
       d="M 33.265625 63.921875 L 33.265625 11.125 "
       id="path118" />
    <path
       style=" stroke:none;fill-rule:nonzero;fill:rgb(0%,0%,0%);fill-opacity:1;"
       d="M 32.917969 10.355469 C 32.746094 10.890625 32.589844 11.242188 32.40625 11.671875 L 34.132813 11.671875 C 34.054688 11.519531 33.792969 10.890625 33.621094 10.355469 C 33.441406 9.78125 33.316406 9.257813 33.269531 8.921875 C 33.226563 9.257813 33.101563 9.78125 32.917969 10.355469 "
       id="path120" />
    <path
       style="fill:none;stroke-width:0.342;stroke-linecap:round;stroke-linejoin:round;stroke:rgb(0%,0%,0%);stroke-opacity:1;stroke-miterlimit:4;"
       d="M 32.800781 64.046875 L 216.328125 64.046875 "
       id="path122" />
    <path
       style=" stroke:none;fill-rule:nonzero;fill:rgb(0%,0%,0%);fill-opacity:1;"
       d="M 217.136719 63.699219 C 216.574219 63.527344 216.203125 63.371094 215.75 63.1875 L 215.75 64.914063 C 215.914063 64.835938 216.574219 64.574219 217.136719 64.402344 C 217.742188 64.21875 218.292969 64.09375 218.648438 64.050781 C 218.292969 64.003906 217.742188 63.878906 217.136719 63.699219 "
       id="path124" />
    <path
       style="fill:none;stroke-width:0.684;stroke-linecap:round;stroke-linejoin:round;stroke:rgb(0%,0%,0%);stroke-opacity:1;stroke-miterlimit:4;"
       d="M 33.265625 64.046875 L 79.777344 64.046875 L 80.398438 64.042969 L 81.015625 64.042969 L 81.636719 64.039063 L 82.257813 64.039063 L 82.878906 64.035156 L 83.5 64.027344 L 84.117188 64.023438 L 85.359375 64 L 85.976563 63.980469 L 86.597656 63.957031 L 87.21875 63.925781 L 87.839844 63.882813 L 88.460938 63.832031 L 89.078125 63.757813 L 89.699219 63.671875 L 90.320313 63.558594 L 91.558594 63.234375 L 92.179688 63.011719 L 92.800781 62.738281 L 93.421875 62.40625 L 94.039063 62.003906 L 95.28125 60.933594 L 96.519531 59.449219 L 97.761719 57.4375 L 99 54.816406 L 100.242188 51.511719 L 102.722656 42.824219 L 105.203125 31.964844 L 107.683594 20.75 L 108.921875 15.84375 L 109.542969 13.722656 L 110.164063 11.882813 L 110.785156 10.351563 L 111.40625 9.171875 L 112.023438 8.359375 L 112.644531 7.933594 L 113.265625 7.90625 L 113.882813 8.277344 L 114.503906 9.03125 L 115.125 10.164063 L 115.746094 11.644531 L 116.363281 13.445313 L 117.605469 17.851563 L 120.085938 28.691406 L 122.566406 39.886719 L 125.046875 49.308594 L 126.285156 53.015625 L 127.527344 56.019531 L 128.765625 58.371094 L 130.007813 60.144531 L 131.25 61.4375 L 131.867188 61.9375 L 132.488281 62.351563 L 133.109375 62.695313 L 133.726563 62.976563 L 134.347656 63.207031 L 134.96875 63.390625 L 135.589844 63.539063 L 136.207031 63.65625 L 136.828125 63.746094 L 137.449219 63.820313 L 138.070313 63.878906 L 138.691406 63.921875 L 139.308594 63.953125 L 139.929688 63.976563 L 140.550781 63.996094 L 141.171875 64.011719 L 141.789063 64.019531 L 143.03125 64.035156 L 143.652344 64.039063 L 144.269531 64.039063 L 144.890625 64.042969 L 145.511719 64.042969 L 146.132813 64.046875 L 211.863281 64.046875 "
       id="path126" />
    <g
       clip-path="url(#clip8)"
       clip-rule="nonzero"
       id="g130">
      <path
         style=" stroke:none;fill-rule:nonzero;fill:rgb(12.940979%,11.764526%,11.764526%);fill-opacity:1;"
         d="M 224.558594 61.910156 C 224.558594 60.753906 224.121094 59.863281 223.308594 59.863281 C 221.871094 59.863281 220.386719 62.519531 220.386719 64.660156 C 220.386719 65.582031 220.699219 66.707031 221.652344 66.707031 C 223.042969 66.707031 224.558594 64.113281 224.558594 61.910156 Z M 221.464844 63.128906 C 221.902344 61.175781 222.714844 60.128906 223.277344 60.128906 C 223.871094 60.128906 223.871094 61.144531 223.871094 61.332031 C 223.871094 61.847656 223.730469 62.550781 223.574219 63.128906 Z M 223.496094 63.441406 C 222.964844 65.644531 222.167969 66.441406 221.667969 66.441406 C 221.167969 66.441406 221.089844 65.800781 221.089844 65.238281 C 221.089844 64.675781 221.230469 63.972656 221.371094 63.441406 Z M 223.496094 63.441406 "
         id="path128" />
    </g>
    <path
       style=" stroke:none;fill-rule:nonzero;fill:rgb(0%,0%,0%);fill-opacity:1;"
       d="M 113.71875 61.367188 C 114.121094 60.046875 114.488281 59.1875 114.914063 58.125 L 110.878906 58.125 C 111.058594 58.503906 111.671875 60.046875 112.070313 61.367188 C 112.5 62.785156 112.792969 64.070313 112.894531 64.902344 C 113 64.070313 113.292969 62.785156 113.71875 61.367188 "
       id="path132" />
    <path
       style=" stroke:none;fill-rule:nonzero;fill:rgb(12.940979%,11.764526%,11.764526%);fill-opacity:1;"
       d="M 23.210938 3.75 C 23.210938 4.890625 22.335938 6.671875 21.179688 6.671875 C 20.929688 6.671875 20.695313 6.5625 20.695313 6.3125 C 20.695313 5.9375 21.070313 4.640625 21.320313 4.03125 C 21.570313 3.375 22.117188 2.9375 22.570313 2.9375 C 23.195313 2.9375 23.210938 3.484375 23.210938 3.75 Z M 20.101563 2.890625 L 20.335938 2.875 C 20.554688 2.859375 20.726563 2.984375 20.726563 3.15625 C 20.726563 3.359375 19.757813 6.921875 19.492188 8 C 19.414063 8.296875 19.351563 8.5625 18.851563 8.5625 L 18.851563 8.71875 L 20.820313 8.71875 L 20.820313 8.578125 C 20.570313 8.578125 20.210938 8.578125 20.210938 8.265625 C 20.210938 8.078125 20.476563 7.015625 20.554688 6.6875 C 20.773438 6.8125 20.976563 6.859375 21.210938 6.859375 C 22.539063 6.859375 24.070313 5.265625 24.070313 3.78125 C 24.070313 3.078125 23.789063 2.515625 22.929688 2.515625 C 22.148438 2.515625 21.601563 3.21875 21.367188 3.5625 L 21.351563 3.53125 L 21.601563 2.640625 C 21.648438 2.53125 21.601563 2.515625 21.570313 2.515625 L 20.085938 2.734375 Z M 20.101563 2.890625 "
       id="path134" />
    <path
       style=" stroke:none;fill-rule:nonzero;fill:rgb(12.940979%,11.764526%,11.764526%);fill-opacity:1;"
       d="M 25.902344 8.421875 C 25.433594 7.25 25.433594 6.40625 25.433594 5.765625 C 25.433594 5.15625 25.605469 3.859375 25.980469 2.78125 C 26.449219 1.46875 26.933594 0.953125 27.386719 0.46875 L 27.261719 0.328125 C 25.527344 1.8125 24.777344 3.3125 24.777344 4.890625 C 24.777344 5.515625 24.777344 6.90625 25.730469 8.484375 Z M 25.902344 8.421875 "
       id="path136" />
    <path
       style=" stroke:none;fill-rule:nonzero;fill:rgb(12.940979%,11.764526%,11.764526%);fill-opacity:1;"
       d="M 29.167969 6.75 C 31.417969 6.75 34.652344 5.046875 34.652344 2.4375 C 34.652344 1.265625 33.902344 0.828125 33.621094 0.65625 C 32.855469 0.203125 31.839844 0.203125 31.042969 0.203125 C 30.136719 0.203125 29.464844 0.203125 28.558594 0.65625 C 27.371094 1.25 27.292969 1.984375 27.292969 1.984375 C 27.292969 2.015625 27.308594 2.0625 27.386719 2.0625 C 27.558594 2.0625 28.042969 1.84375 28.121094 1.59375 C 28.246094 1.21875 28.402344 0.796875 29.808594 0.734375 C 29.667969 2.625 29.214844 4.484375 28.496094 6.234375 C 28.011719 6.421875 27.902344 6.640625 27.902344 6.6875 C 27.902344 6.734375 27.917969 6.75 28.105469 6.75 Z M 30.886719 0.734375 C 32.199219 0.734375 33.808594 1.203125 33.808594 2.84375 C 33.808594 4.796875 32.027344 6.21875 29.746094 6.21875 L 29.183594 6.21875 C 29.542969 5.328125 30.355469 3.3125 30.605469 0.734375 Z M 30.886719 0.734375 "
       id="path138" />
    <path
       style=" stroke:none;fill-rule:nonzero;fill:rgb(12.940979%,11.764526%,11.764526%);fill-opacity:1;"
       d="M 36.019531 1.03125 C 36.019531 0.921875 36.019531 0.75 35.847656 0.75 C 35.675781 0.75 35.675781 0.90625 35.675781 1.03125 L 35.675781 8.46875 C 35.675781 8.59375 35.675781 8.75 35.847656 8.75 C 36.019531 8.75 36.019531 8.578125 36.019531 8.46875 Z M 36.019531 1.03125 "
       id="path140" />
    <path
       style=" stroke:none;fill-rule:nonzero;fill:rgb(12.940979%,11.764526%,11.764526%);fill-opacity:1;"
       d="M 41.585938 2.046875 C 41.585938 0.890625 41.148438 0 40.335938 0 C 38.898438 0 37.414063 2.65625 37.414063 4.796875 C 37.414063 5.71875 37.726563 6.84375 38.679688 6.84375 C 40.070313 6.84375 41.585938 4.25 41.585938 2.046875 Z M 38.492188 3.265625 C 38.929688 1.3125 39.742188 0.265625 40.304688 0.265625 C 40.898438 0.265625 40.898438 1.28125 40.898438 1.46875 C 40.898438 1.984375 40.757813 2.6875 40.601563 3.265625 Z M 40.523438 3.578125 C 39.992188 5.78125 39.195313 6.578125 38.695313 6.578125 C 38.195313 6.578125 38.117188 5.9375 38.117188 5.375 C 38.117188 4.8125 38.257813 4.109375 38.398438 3.578125 Z M 40.523438 3.578125 "
       id="path142" />
    <path
       style=" stroke:none;fill-rule:nonzero;fill:rgb(12.940979%,11.764526%,11.764526%);fill-opacity:1;"
       d="M 43.472656 8.484375 C 44.894531 7.328125 45.957031 5.75 45.957031 3.921875 C 45.957031 2.6875 45.707031 1.453125 45.019531 0.328125 L 44.832031 0.375 C 45.082031 0.90625 45.300781 1.859375 45.300781 2.890625 C 45.300781 3.734375 45.144531 4.875 44.753906 6.046875 C 44.316406 7.3125 43.769531 7.890625 43.347656 8.328125 Z M 43.472656 8.484375 "
       id="path144" />
    <path
       style=" stroke:none;fill-rule:nonzero;fill:rgb(0%,0%,0%);fill-opacity:1;"
       d="M 115.386719 38.460938 L 113.980469 36.601563 L 113.292969 36.601563 L 111.902344 38.460938 L 112.277344 38.460938 L 113.636719 37.320313 L 114.996094 38.460938 Z M 115.386719 38.460938 "
       id="path146" />
  </g>
</svg>
