<?xml version="1.0" encoding="UTF-8" standalone="no"?>
<svg
   xmlns:dc="http://purl.org/dc/elements/1.1/"
   xmlns:cc="http://creativecommons.org/ns#"
   xmlns:rdf="http://www.w3.org/1999/02/22-rdf-syntax-ns#"
   xmlns:svg="http://www.w3.org/2000/svg"
   xmlns="http://www.w3.org/2000/svg"
   xmlns:sodipodi="http://sodipodi.sourceforge.net/DTD/sodipodi-0.dtd"
   xmlns:inkscape="http://www.inkscape.org/namespaces/inkscape"
   width="223.411118pt"
   height="155.204346pt"
   viewBox="0 0 223.411118 155.204346"
   version="1.2"
   id="svg121"
   sodipodi:docname="parameter_mu_estimate.svg"
   inkscape:version="0.92.4 (5da689c313, 2019-01-14)">
  <metadata
     id="metadata125">
    <rdf:RDF>
      <cc:Work
         rdf:about="">
        <dc:format>image/svg+xml</dc:format>
        <dc:type
           rdf:resource="http://purl.org/dc/dcmitype/StillImage" />
        <dc:title></dc:title>
      </cc:Work>
    </rdf:RDF>
  </metadata>
  <sodipodi:namedview
     pagecolor="#ffffff"
     bordercolor="#666666"
     borderopacity="1"
     objecttolerance="10"
     gridtolerance="10"
     guidetolerance="10"
     inkscape:pageopacity="0"
     inkscape:pageshadow="2"
     inkscape:window-width="661"
     inkscape:window-height="480"
     id="namedview123"
     showgrid="false"
     inkscape:zoom="1.0541105"
     inkscape:cx="148.94075"
     inkscape:cy="103.46956"
     inkscape:window-x="0"
     inkscape:window-y="0"
     inkscape:window-maximized="0"
     inkscape:current-layer="svg121" />
  <defs
     id="defs8">
    <clipPath
       id="clip1">
      <path
         d="M 218 140 L 223.410156 140 L 223.410156 148 L 218 148 Z M 218 140 "
         id="path2" />
    </clipPath>
    <clipPath
       id="clip2">
      <path
         d="M 106 149 L 110 149 L 110 155.203125 L 106 155.203125 Z M 106 149 "
         id="path5" />
    </clipPath>
  </defs>
  <g
     id="surface34">
    <path
       style="fill:none;stroke-width:0.42;stroke-linecap:round;stroke-linejoin:round;stroke:rgb(0%,0%,0%);stroke-opacity:1;stroke-miterlimit:4;"
       d="M 27.824219 143.140625 L 27.824219 141.828125 M 67.789063 143.140625 L 67.789063 141.828125 M 147.722656 143.140625 L 147.722656 141.828125 M 187.6875 143.140625 L 187.6875 141.828125 "
       id="path10" />
    <path
       style="fill:none;stroke-width:0.21;stroke-linecap:round;stroke-linejoin:round;stroke:rgb(0%,0%,0%);stroke-opacity:1;stroke-miterlimit:4;"
       d="M 35.816406 143.140625 L 35.816406 142.351563 M 43.808594 143.140625 L 43.808594 142.351563 M 51.800781 143.140625 L 51.800781 142.351563 M 59.796875 143.140625 L 59.796875 142.351563 M 75.78125 143.140625 L 75.78125 142.351563 M 83.773438 143.140625 L 83.773438 142.351563 M 91.769531 143.140625 L 91.769531 142.351563 M 99.761719 143.140625 L 99.761719 142.351563 M 115.75 143.140625 L 115.75 142.351563 M 123.742188 143.140625 L 123.742188 142.351563 M 131.734375 143.140625 L 131.734375 142.351563 M 139.726563 143.140625 L 139.726563 142.351563 M 155.714844 143.140625 L 155.714844 142.351563 M 163.707031 143.140625 L 163.707031 142.351563 M 171.699219 143.140625 L 171.699219 142.351563 M 179.695313 143.140625 L 179.695313 142.351563 M 19.828125 143.140625 L 19.828125 142.351563 M 11.835938 143.140625 L 11.835938 142.351563 M 3.839844 143.140625 L 3.839844 142.351563 M 195.679688 143.140625 L 195.679688 142.351563 M 203.671875 143.140625 L 203.671875 142.351563 M 211.667969 143.140625 L 211.667969 142.351563 "
       id="path12" />
    <path
       style="fill:none;stroke-width:0.42;stroke-linecap:round;stroke-linejoin:round;stroke:rgb(0%,0%,0%);stroke-opacity:1;stroke-miterlimit:4;"
       d="M 2.84375 143.140625 L 212.667969 143.140625 "
       id="path14" />
    <path
       style=" stroke:none;fill-rule:nonzero;fill:rgb(0%,0%,0%);fill-opacity:1;"
       d="M 213.65625 142.710938 C 212.964844 142.5 212.511719 142.304688 211.957031 142.082031 L 211.957031 144.199219 C 212.15625 144.105469 212.964844 143.78125 213.65625 143.574219 C 214.402344 143.351563 215.074219 143.195313 215.511719 143.140625 C 215.074219 143.085938 214.402344 142.933594 213.65625 142.710938 "
       id="path16" />
    <path
       style=" stroke:none;fill-rule:nonzero;fill:rgb(0%,0%,0%);fill-opacity:1;"
       d="M 1.851563 143.570313 C 2.546875 143.777344 2.996094 143.972656 3.550781 144.195313 L 3.550781 142.078125 C 3.355469 142.171875 2.546875 142.496094 1.851563 142.703125 C 1.109375 142.929688 0.4375 143.082031 0 143.136719 C 0.4375 143.191406 1.109375 143.34375 1.851563 143.570313 "
       id="path18" />
    <path
       style="fill:none;stroke-width:0.42;stroke-linecap:round;stroke-linejoin:round;stroke:rgb(0%,0%,0%);stroke-opacity:1;stroke-miterlimit:4;"
       d="M 107.753906 114.988281 L 109.066406 114.988281 M 107.753906 86.832031 L 109.066406 86.832031 "
       id="path20" />
    <path
       style=" stroke:none;fill-rule:nonzero;fill:rgb(0%,0%,0%);fill-opacity:1;"
       d="M 102.070313 89.632813 L 104.289063 89.632813 L 104.289063 89.507813 C 103.679688 89.507813 103.523438 89.429688 103.523438 89.039063 L 103.523438 84.242188 L 103.460938 84.226563 L 102.023438 84.945313 L 102.023438 85.070313 C 102.476563 84.882813 102.476563 84.882813 102.570313 84.882813 C 102.835938 84.882813 102.835938 85.101563 102.835938 85.257813 L 102.835938 88.882813 C 102.835938 89.476563 102.539063 89.492188 102.070313 89.507813 Z M 102.070313 89.632813 "
       id="path22" />
    <path
       style="fill:none;stroke-width:0.42;stroke-linecap:round;stroke-linejoin:round;stroke:rgb(0%,0%,0%);stroke-opacity:1;stroke-miterlimit:4;"
       d="M 107.753906 58.679688 L 109.066406 58.679688 M 107.753906 30.523438 L 109.066406 30.523438 "
       id="path24" />
    <path
       style="fill:none;stroke-width:0.21;stroke-linecap:round;stroke-linejoin:round;stroke:rgb(0%,0%,0%);stroke-opacity:1;stroke-miterlimit:4;"
       d="M 107.753906 137.507813 L 108.542969 137.507813 M 107.753906 131.878906 L 108.542969 131.878906 M 107.753906 126.25 L 108.542969 126.25 M 107.753906 120.617188 L 108.542969 120.617188 M 107.753906 109.355469 L 108.542969 109.355469 M 107.753906 103.722656 L 108.542969 103.722656 M 107.753906 98.09375 L 108.542969 98.09375 M 107.753906 92.460938 L 108.542969 92.460938 M 107.753906 81.199219 L 108.542969 81.199219 M 107.753906 75.570313 L 108.542969 75.570313 M 107.753906 69.941406 L 108.542969 69.941406 M 107.753906 64.308594 L 108.542969 64.308594 M 107.753906 53.046875 L 108.542969 53.046875 M 107.753906 47.417969 L 108.542969 47.417969 M 107.753906 41.785156 L 108.542969 41.785156 M 107.753906 36.15625 L 108.542969 36.15625 M 107.753906 24.894531 L 108.542969 24.894531 M 107.753906 19.261719 L 108.542969 19.261719 "
       id="path26" />
    <path
       style="fill:none;stroke-width:0.42;stroke-linecap:round;stroke-linejoin:round;stroke:rgb(0%,0%,0%);stroke-opacity:1;stroke-miterlimit:4;"
       d="M 107.753906 146.226563 L 107.753906 13.140625 "
       id="path28" />
    <path
       style=" stroke:none;fill-rule:nonzero;fill:rgb(0%,0%,0%);fill-opacity:1;"
       d="M 107.324219 12.148438 C 107.117188 12.84375 106.921875 13.292969 106.699219 13.851563 L 108.816406 13.851563 C 108.71875 13.648438 108.398438 12.84375 108.191406 12.148438 C 107.964844 11.40625 107.8125 10.734375 107.757813 10.296875 C 107.703125 10.734375 107.546875 11.40625 107.324219 12.148438 "
       id="path30" />
    <path
       style="fill:none;stroke-width:0.839;stroke-linecap:round;stroke-linejoin:round;stroke:rgb(13.725281%,13.725281%,13.725281%);stroke-opacity:1;stroke-miterlimit:4;"
       d="M 7.839844 143.136719 L 9.921875 143.136719 L 12 143.132813 L 13.042969 143.132813 L 14.082031 143.128906 L 16.164063 143.128906 L 18.246094 143.117188 L 19.285156 143.113281 L 20.328125 143.105469 L 21.367188 143.09375 L 22.410156 143.082031 L 24.492188 143.054688 L 25.53125 143.035156 L 26.574219 143.011719 L 28.65625 142.953125 L 30.738281 142.875 L 32.820313 142.761719 L 34.898438 142.613281 L 36.980469 142.414063 L 39.0625 142.15625 L 41.144531 141.824219 L 43.226563 141.40625 L 45.304688 140.886719 L 49.46875 139.480469 L 53.632813 137.511719 L 57.796875 134.945313 L 66.125 128.375 L 70.285156 124.867188 L 74.449219 121.726563 L 76.53125 120.429688 L 78.613281 119.371094 L 79.652344 118.949219 L 80.695313 118.605469 L 81.214844 118.457031 L 81.734375 118.335938 L 82.253906 118.234375 L 82.777344 118.152344 L 83.035156 118.117188 L 83.296875 118.089844 L 83.554688 118.066406 L 83.816406 118.046875 L 84.078125 118.039063 L 84.335938 118.027344 L 84.855469 118.027344 L 85.378906 118.050781 L 85.636719 118.070313 L 85.898438 118.101563 L 86.9375 118.25 L 87.457031 118.355469 L 87.980469 118.484375 L 89.019531 118.800781 L 91.101563 119.660156 L 93.183594 120.796875 L 95.265625 122.164063 L 99.429688 125.386719 L 107.753906 132.335938 L 111.917969 135.367188 L 116.082031 137.847656 L 120.242188 139.726563 L 122.324219 140.449219 L 124.410156 141.054688 L 126.488281 141.539063 L 128.570313 141.933594 L 130.652344 142.238281 L 132.734375 142.480469 L 134.816406 142.660156 L 136.898438 142.800781 L 138.980469 142.898438 L 141.0625 142.976563 L 143.140625 143.023438 L 144.183594 143.046875 L 145.222656 143.0625 L 147.304688 143.085938 L 148.34375 143.097656 L 149.386719 143.105469 L 150.425781 143.113281 L 151.46875 143.117188 L 153.546875 143.125 L 154.589844 143.128906 L 156.671875 143.128906 L 157.714844 143.132813 L 161.875 143.132813 L 162.917969 143.136719 L 207.671875 143.136719 "
       id="path32" />
    <path
       style="fill:none;stroke-width:0.839;stroke-linecap:round;stroke-linejoin:round;stroke:rgb(59.214783%,59.214783%,59.214783%);stroke-opacity:1;stroke-miterlimit:4;"
       d="M 7.839844 143.140625 L 68.207031 143.140625 L 68.726563 143.136719 L 70.285156 143.136719 L 70.804688 143.132813 L 71.328125 143.132813 L 72.367188 143.125 L 73.410156 143.113281 L 73.929688 143.113281 L 74.96875 143.089844 L 75.492188 143.082031 L 76.53125 143.050781 L 77.050781 143.027344 L 77.570313 142.996094 L 78.089844 142.96875 L 78.613281 142.925781 L 79.652344 142.824219 L 80.695313 142.679688 L 81.734375 142.480469 L 82.777344 142.203125 L 83.816406 141.835938 L 84.855469 141.351563 L 85.898438 140.71875 L 86.9375 139.910156 L 87.980469 138.894531 L 89.019531 137.636719 L 91.101563 134.28125 L 93.183594 129.667969 L 95.265625 123.785156 L 99.429688 109.46875 L 101.511719 102.367188 L 102.550781 99.21875 L 103.589844 96.496094 L 104.632813 94.3125 L 105.152344 93.445313 L 105.671875 92.742188 L 106.195313 92.214844 L 106.453125 92.011719 L 106.714844 91.859375 L 106.972656 91.75 L 107.234375 91.6875 L 107.496094 91.667969 L 107.753906 91.699219 L 108.015625 91.773438 L 108.277344 91.890625 L 108.796875 92.265625 L 109.054688 92.519531 L 109.316406 92.820313 L 109.835938 93.542969 L 110.875 95.46875 L 111.917969 97.964844 L 116.082031 111.550781 L 118.160156 118.890625 L 120.242188 125.554688 L 122.324219 131.09375 L 124.410156 135.34375 L 125.449219 137.003906 L 126.488281 138.375 L 127.53125 139.492188 L 128.570313 140.386719 L 129.613281 141.09375 L 130.652344 141.640625 L 131.695313 142.054688 L 132.734375 142.367188 L 133.777344 142.597656 L 134.816406 142.761719 L 135.335938 142.828125 L 135.855469 142.882813 L 136.375 142.929688 L 136.898438 142.96875 L 137.9375 143.027344 L 138.457031 143.046875 L 138.980469 143.066406 L 140.019531 143.089844 L 141.0625 143.109375 L 141.582031 143.121094 L 143.660156 143.136719 L 144.183594 143.136719 L 144.703125 143.140625 L 207.671875 143.140625 "
       id="path34" />
    <path
       style="fill:none;stroke-width:0.839;stroke-linecap:round;stroke-linejoin:round;stroke:rgb(29.019165%,29.019165%,29.019165%);stroke-opacity:1;stroke-miterlimit:4;"
       d="M 7.839844 143.140625 L 79.132813 143.140625 L 79.652344 143.136719 L 80.695313 143.136719 L 82.253906 143.125 L 82.777344 143.117188 L 83.296875 143.109375 L 84.335938 143.078125 L 84.855469 143.058594 L 85.378906 143.027344 L 85.898438 142.988281 L 86.417969 142.9375 L 86.9375 142.871094 L 87.457031 142.785156 L 87.980469 142.675781 L 88.5 142.535156 L 89.019531 142.363281 L 90.0625 141.875 L 90.582031 141.539063 L 91.101563 141.132813 L 92.144531 140.046875 L 93.183594 138.507813 L 94.226563 136.390625 L 95.265625 133.570313 L 96.304688 129.949219 L 97.347656 125.453125 L 99.429688 113.894531 "
       id="path36" />
    <path
       style="fill:none;stroke-width:0.839;stroke-linecap:round;stroke-linejoin:round;stroke:rgb(63.920593%,24.705505%,24.705505%);stroke-opacity:1;stroke-miterlimit:4;"
       d="M 99.429688 113.894531 L 103.589844 85.851563 L 104.632813 79.917969 L 105.152344 77.414063 L 105.671875 75.285156 L 106.195313 73.570313 L 106.453125 72.878906 L 106.714844 72.304688 L 106.972656 71.851563 L 107.234375 71.519531 L 107.496094 71.308594 L 107.753906 71.222656 L 108.015625 71.265625 L 108.277344 71.425781 L 108.535156 71.71875 L 108.796875 72.128906 L 109.054688 72.660156 L 109.316406 73.308594 L 109.835938 74.945313 L 110.875 79.441406 L 111.917969 85.277344 L 116.082031 113.300781 L 118.160156 125.007813 L 119.203125 129.578125 L 120.242188 133.277344 L 121.285156 136.167969 L 122.324219 138.34375 L 123.367188 139.929688 L 123.886719 140.542969 L 124.410156 141.050781 L 124.929688 141.472656 L 125.449219 141.820313 L 125.96875 142.101563 L 126.488281 142.328125 L 127.011719 142.507813 L 127.53125 142.652344 L 128.050781 142.769531 L 128.570313 142.855469 L 129.089844 142.925781 L 129.613281 142.980469 L 130.132813 143.023438 L 130.652344 143.050781 L 131.171875 143.074219 L 131.695313 143.09375 L 132.734375 143.117188 L 133.253906 143.121094 L 133.777344 143.128906 L 134.816406 143.136719 "
       id="path38" />
    <path
       style="fill:none;stroke-width:0.839;stroke-linecap:round;stroke-linejoin:round;stroke:rgb(29.019165%,29.019165%,29.019165%);stroke-opacity:1;stroke-miterlimit:4;"
       d="M 134.816406 143.136719 L 135.855469 143.136719 L 136.375 143.140625 L 207.671875 143.140625 "
       id="path40" />
    <path
       style="fill:none;stroke-width:0.839;stroke-linecap:round;stroke-linejoin:round;stroke:rgb(43.920898%,43.920898%,43.920898%);stroke-opacity:1;stroke-miterlimit:4;"
       d="M 7.839844 143.140625 L 82.777344 143.140625 L 83.035156 143.136719 L 83.816406 143.136719 L 84.078125 143.132813 L 84.597656 143.132813 L 84.855469 143.128906 L 85.378906 143.121094 L 85.636719 143.113281 L 85.898438 143.101563 "
       id="path42" />
    <path
       style="fill:none;stroke-width:0.839;stroke-linecap:round;stroke-linejoin:round;stroke:rgb(100%,24.705505%,24.705505%);stroke-opacity:1;stroke-miterlimit:4;"
       d="M 85.898438 143.101563 L 86.15625 143.09375 L 86.417969 143.074219 L 86.9375 143.046875 L 87.199219 143.023438 L 87.457031 142.996094 L 87.71875 142.960938 L 87.980469 142.921875 L 88.5 142.8125 L 88.757813 142.742188 L 89.019531 142.660156 L 89.539063 142.441406 L 90.0625 142.136719 L 90.582031 141.71875 L 91.101563 141.152344 L 91.625 140.402344 L 92.144531 139.417969 L 92.664063 138.144531 L 93.183594 136.527344 L 93.703125 134.503906 L 94.226563 132.019531 L 95.265625 125.4375 L 96.304688 116.46875 L 97.347656 105.097656 L 100.46875 63.738281 L 101.511719 52.226563 L 102.03125 47.839844 L 102.289063 46.066406 L 102.550781 44.605469 L 102.8125 43.460938 L 103.070313 42.648438 L 103.332031 42.179688 L 103.589844 42.050781 L 107.753906 78.496094 L 109.835938 105.957031 L 110.875 117.171875 L 111.917969 125.972656 L 112.957031 132.394531 L 113.480469 134.8125 L 114 136.773438 L 114.519531 138.339844 L 115.039063 139.570313 L 115.5625 140.519531 L 116.082031 141.242188 L 116.601563 141.785156 L 117.121094 142.183594 L 117.640625 142.476563 L 118.160156 142.683594 L 118.421875 142.765625 L 118.683594 142.832031 "
       id="path44" />
    <path
       style="fill:none;stroke-width:0.839;stroke-linecap:round;stroke-linejoin:round;stroke:rgb(43.920898%,43.920898%,43.920898%);stroke-opacity:1;stroke-miterlimit:4;"
       d="M 118.683594 142.835938 L 118.941406 142.890625 L 119.203125 142.9375 L 119.722656 143.007813 L 119.984375 143.03125 L 120.242188 143.050781 L 120.503906 143.066406 L 120.761719 143.082031 L 121.285156 143.101563 L 121.542969 143.113281 L 122.066406 143.121094 L 122.324219 143.125 L 122.585938 143.132813 L 124.148438 143.132813 L 124.410156 143.136719 L 207.671875 143.136719 "
       id="path46" />
    <path
       style="fill:none;stroke-width:0.839;stroke-linecap:round;stroke-linejoin:round;stroke:rgb(0%,0%,0%);stroke-opacity:1;stroke-miterlimit:4;"
       d="M 7.839844 143.140625 L 92.40625 143.140625 L 92.664063 143.136719 L 93.183594 143.136719 L 93.445313 143.132813 L 93.703125 143.132813 L 93.964844 143.125 L 94.226563 143.121094 L 94.484375 143.121094 L 94.746094 143.113281 L 95.003906 143.097656 L 95.527344 143.066406 L 95.785156 143.042969 L 96.046875 143.011719 L 96.304688 142.972656 L 96.566406 142.921875 L 96.828125 142.855469 L 97.085938 142.777344 L 97.347656 142.675781 L 97.609375 142.550781 L 97.867188 142.394531 L 98.386719 141.972656 L 98.648438 141.6875 L 98.910156 141.347656 L 99.429688 140.445313 L 99.949219 139.175781 L 100.46875 137.425781 L 100.992188 135.070313 L 101.511719 131.976563 L 102.03125 128.015625 L 102.550781 123.0625 L 103.589844 109.863281 L 104.632813 92.34375 L 105.671875 71.710938 L 106.714844 50.609375 L 107.234375 41.015625 L 107.753906 32.714844 L 108.015625 29.195313 L 108.277344 26.164063 L 108.535156 23.667969 L 108.796875 21.746094 L 109.054688 20.417969 L 109.316406 19.714844 L 109.574219 19.640625 L 109.835938 20.199219 L 110.097656 21.378906 L 110.355469 23.167969 L 110.617188 25.53125 L 110.875 28.441406 L 111.917969 44.5625 L 114 86.21875 L 115.039063 104.894531 L 115.5625 112.742188 L 116.082031 119.46875 L 116.601563 125.082031 L 117.121094 129.644531 L 117.640625 133.257813 L 118.160156 136.054688 L 118.683594 138.160156 L 119.203125 139.710938 L 119.722656 140.828125 L 119.984375 141.257813 L 120.242188 141.613281 L 120.503906 141.910156 L 120.761719 142.152344 L 121.285156 142.515625 L 121.542969 142.648438 L 121.804688 142.753906 L 122.066406 142.839844 L 122.324219 142.90625 L 122.585938 142.960938 L 122.84375 143.003906 L 123.105469 143.035156 L 123.367188 143.0625 L 123.625 143.085938 L 123.886719 143.101563 L 124.148438 143.113281 L 124.410156 143.121094 L 124.667969 143.128906 L 125.191406 143.136719 L 125.449219 143.140625 L 125.710938 143.144531 L 126.488281 143.144531 L 126.75 143.148438 L 207.671875 143.148438 "
       id="path48" />
    <path
       style=" stroke:none;fill-rule:nonzero;fill:rgb(0%,0%,0%);fill-opacity:1;"
       d="M 26.742188 152.691406 L 24.992188 152.691406 L 24.882813 153.207031 L 26.648438 153.207031 Z M 26.742188 152.691406 "
       id="path50" />
    <path
       style=" stroke:none;fill-rule:nonzero;fill:rgb(0%,0%,0%);fill-opacity:1;"
       d="M 29.375 152.816406 L 27.671875 152.816406 L 27.671875 152.785156 L 30.109375 150.238281 L 30.140625 150.238281 Z M 30.78125 152.816406 L 30.015625 152.816406 L 30.984375 149.332031 L 30.65625 149.332031 L 27.328125 152.785156 L 27.171875 153.316406 L 29.265625 153.316406 L 28.875 154.738281 L 29.5 154.738281 L 29.875 153.332031 L 30.671875 153.332031 Z M 30.78125 152.816406 "
       id="path52" />
    <path
       style=" stroke:none;fill-rule:nonzero;fill:rgb(0%,0%,0%);fill-opacity:1;"
       d="M 66.707031 152.691406 L 64.957031 152.691406 L 64.847656 153.207031 L 66.613281 153.207031 Z M 66.707031 152.691406 "
       id="path54" />
    <path
       style=" stroke:none;fill-rule:nonzero;fill:rgb(0%,0%,0%);fill-opacity:1;"
       d="M 70.324219 153.628906 C 70.183594 153.910156 70.058594 154.128906 69.527344 154.128906 L 68.011719 154.128906 L 68.011719 154.097656 L 69.542969 152.550781 C 70.542969 151.566406 70.730469 151.207031 70.730469 150.660156 C 70.730469 150.066406 70.292969 149.332031 69.433594 149.332031 C 69.246094 149.332031 68.199219 149.363281 67.761719 150.613281 L 67.933594 150.660156 C 68.042969 150.472656 68.339844 149.910156 69.058594 149.910156 C 69.683594 149.910156 70.042969 150.394531 70.042969 150.894531 C 70.042969 151.160156 70.011719 151.613281 68.902344 152.816406 L 67.214844 154.597656 L 67.214844 154.738281 L 70.058594 154.738281 L 70.464844 153.675781 Z M 70.324219 153.628906 "
       id="path56" />
    <path
       style=" stroke:none;fill-rule:nonzero;fill:rgb(0%,0%,0%);fill-opacity:1;"
       d="M 148.925781 153.628906 C 148.785156 153.910156 148.660156 154.128906 148.128906 154.128906 L 146.613281 154.128906 L 146.613281 154.097656 L 148.144531 152.550781 C 149.144531 151.566406 149.332031 151.207031 149.332031 150.660156 C 149.332031 150.066406 148.894531 149.332031 148.035156 149.332031 C 147.847656 149.332031 146.800781 149.363281 146.363281 150.613281 L 146.535156 150.660156 C 146.644531 150.472656 146.941406 149.910156 147.660156 149.910156 C 148.285156 149.910156 148.644531 150.394531 148.644531 150.894531 C 148.644531 151.160156 148.613281 151.613281 147.503906 152.816406 L 145.816406 154.597656 L 145.816406 154.738281 L 148.660156 154.738281 L 149.066406 153.675781 Z M 148.925781 153.628906 "
       id="path58" />
    <path
       style=" stroke:none;fill-rule:nonzero;fill:rgb(0%,0%,0%);fill-opacity:1;"
       d="M 187.90625 152.816406 L 186.203125 152.816406 L 186.203125 152.785156 L 188.640625 150.238281 L 188.671875 150.238281 Z M 189.3125 152.816406 L 188.546875 152.816406 L 189.515625 149.332031 L 189.1875 149.332031 L 185.859375 152.785156 L 185.703125 153.316406 L 187.796875 153.316406 L 187.40625 154.738281 L 188.03125 154.738281 L 188.40625 153.332031 L 189.203125 153.332031 Z M 189.3125 152.816406 "
       id="path60" />
    <g
       clip-path="url(#clip1)"
       clip-rule="nonzero"
       id="g64">
      <path
         style=" stroke:none;fill-rule:nonzero;fill:rgb(12.940979%,11.764526%,11.764526%);fill-opacity:1;"
         d="M 222.832031 141.46875 C 222.863281 141.328125 222.863281 141.3125 222.863281 141.28125 C 222.863281 141.171875 222.785156 141 222.566406 141 C 222.285156 141 222.191406 141.25 222.144531 141.421875 L 221.519531 143.984375 C 221.441406 144.265625 220.925781 145 220.207031 145 C 219.488281 145 219.488281 144.328125 219.488281 144.15625 C 219.488281 143.96875 219.503906 143.828125 219.628906 143.34375 L 220.035156 141.71875 C 220.082031 141.546875 220.160156 141.21875 220.160156 141.171875 C 220.160156 141.046875 220.050781 140.90625 219.863281 140.90625 C 219.613281 140.90625 219.488281 141.109375 219.441406 141.296875 L 218.082031 146.734375 C 218.050781 146.875 218.050781 146.890625 218.050781 146.9375 C 218.050781 147.109375 218.191406 147.21875 218.347656 147.21875 C 218.503906 147.21875 218.628906 147.109375 218.707031 147 C 218.738281 146.921875 218.832031 146.546875 219.222656 144.953125 C 219.535156 145.203125 219.957031 145.25 220.175781 145.25 C 220.691406 145.25 221.128906 144.984375 221.472656 144.5625 C 221.597656 145.046875 222.003906 145.25 222.378906 145.25 C 222.582031 145.25 222.878906 145.1875 223.113281 144.6875 C 223.285156 144.328125 223.410156 143.8125 223.410156 143.765625 C 223.410156 143.6875 223.363281 143.65625 223.285156 143.65625 C 223.160156 143.65625 223.160156 143.703125 223.113281 143.90625 C 222.957031 144.5 222.769531 145 222.394531 145 C 222.144531 145 222.097656 144.75 222.097656 144.5625 C 222.097656 144.390625 222.097656 144.375 222.160156 144.125 Z M 222.832031 141.46875 "
         id="path62" />
    </g>
    <path
       style=" stroke:none;fill-rule:nonzero;fill:rgb(0%,0%,0%);fill-opacity:1;"
       d="M 55.179688 129.40625 L 57.179688 129.40625 L 57.179688 129.296875 C 56.820313 129.3125 56.570313 129.28125 56.570313 129.0625 C 56.570313 128.9375 56.664063 128.671875 56.695313 128.53125 L 57.726563 124.796875 C 57.757813 124.6875 57.789063 124.53125 57.742188 124.53125 C 57.679688 124.53125 56.679688 124.75 56.335938 124.8125 L 56.335938 124.921875 L 56.757813 124.90625 C 56.820313 124.90625 57.023438 124.90625 57.023438 125.140625 C 57.023438 125.1875 56.992188 125.296875 56.976563 125.375 L 55.976563 128.921875 C 55.882813 129.234375 55.601563 129.265625 55.179688 129.3125 Z M 55.179688 129.40625 "
       id="path66" />
    <path
       style=" stroke:none;fill-rule:nonzero;fill:rgb(0%,0%,0%);fill-opacity:1;"
       d="M 116.902344 26.128906 C 117.011719 25.972656 117.261719 25.644531 117.714844 25.644531 C 117.996094 25.644531 118.339844 25.816406 118.339844 26.300781 C 118.339844 27.066406 117.339844 27.394531 116.621094 27.488281 L 116.636719 27.613281 C 117.324219 27.550781 117.964844 27.816406 117.964844 28.832031 C 117.964844 29.738281 117.277344 29.988281 117.042969 29.988281 C 116.636719 29.988281 116.402344 29.550781 116.074219 29.550781 C 115.808594 29.550781 115.730469 29.675781 115.730469 29.832031 C 115.730469 30.160156 116.121094 30.253906 116.542969 30.253906 C 117.886719 30.253906 118.542969 29.238281 118.542969 28.441406 C 118.542969 27.644531 118.042969 27.425781 117.855469 27.347656 L 117.855469 27.316406 C 118.605469 27.035156 118.964844 26.785156 118.964844 26.238281 C 118.964844 25.644531 118.449219 25.332031 117.917969 25.332031 C 117.511719 25.332031 116.964844 25.660156 116.792969 26.082031 Z M 116.902344 26.128906 "
       id="path68" />
    <path
       style=" stroke:none;fill-rule:nonzero;fill:rgb(0%,0%,0%);fill-opacity:1;"
       d="M 120.019531 29.082031 C 120.019531 28.378906 120.535156 25.535156 121.613281 25.535156 C 122.238281 25.535156 122.238281 26.269531 122.238281 26.488281 C 122.238281 27.753906 121.613281 30.050781 120.644531 30.050781 C 120.425781 30.050781 120.019531 29.925781 120.019531 29.082031 Z M 122.800781 27.144531 C 122.800781 26.425781 122.613281 25.332031 121.644531 25.332031 C 120.644531 25.332031 119.457031 26.816406 119.457031 28.769531 C 119.457031 29.519531 119.863281 30.253906 120.613281 30.253906 C 121.816406 30.253906 122.800781 28.566406 122.800781 27.144531 Z M 122.800781 27.144531 "
       id="path70" />
    <path
       style=" stroke:none;fill-rule:nonzero;fill:rgb(100%,24.705505%,24.705505%);fill-opacity:1;"
       d="M 94.328125 54.222656 C 94.21875 54.488281 94.09375 54.675781 93.625 54.675781 L 92.25 54.675781 L 92.25 54.644531 L 93.640625 53.253906 C 94.53125 52.363281 94.703125 52.035156 94.703125 51.550781 C 94.703125 51.019531 94.3125 50.347656 93.546875 50.347656 C 93.359375 50.347656 92.421875 50.378906 92.03125 51.503906 L 92.1875 51.550781 C 92.28125 51.378906 92.5625 50.878906 93.203125 50.878906 C 93.765625 50.878906 94.09375 51.316406 94.09375 51.753906 C 94.09375 51.988281 94.0625 52.410156 93.046875 53.488281 L 91.546875 55.097656 L 91.546875 55.222656 L 94.09375 55.222656 L 94.453125 54.269531 Z M 94.328125 54.222656 "
       id="path72" />
    <path
       style=" stroke:none;fill-rule:nonzero;fill:rgb(100%,24.705505%,24.705505%);fill-opacity:1;"
       d="M 95.851563 54.097656 C 95.851563 53.394531 96.367188 50.550781 97.445313 50.550781 C 98.070313 50.550781 98.070313 51.285156 98.070313 51.503906 C 98.070313 52.769531 97.445313 55.066406 96.476563 55.066406 C 96.257813 55.066406 95.851563 54.941406 95.851563 54.097656 Z M 98.632813 52.160156 C 98.632813 51.441406 98.445313 50.347656 97.476563 50.347656 C 96.476563 50.347656 95.289063 51.832031 95.289063 53.785156 C 95.289063 54.535156 95.695313 55.269531 96.445313 55.269531 C 97.648438 55.269531 98.632813 53.582031 98.632813 52.160156 Z M 98.632813 52.160156 "
       id="path74" />
    <path
       style=" stroke:none;fill-rule:nonzero;fill:rgb(29.019165%,29.019165%,29.019165%);fill-opacity:1;"
       d="M 129.605469 129.390625 L 131.261719 129.390625 L 131.417969 128.875 L 129.574219 128.875 L 128.824219 130.4375 L 128.824219 130.546875 C 129.667969 130.734375 130.402344 130.890625 130.402344 132 C 130.402344 132.625 129.886719 133.421875 129.183594 133.421875 C 128.792969 133.421875 128.605469 133.03125 128.277344 133.03125 C 128.152344 133.03125 127.996094 133.109375 127.996094 133.3125 C 127.996094 133.515625 128.214844 133.71875 128.730469 133.71875 C 130.136719 133.71875 130.902344 132.609375 130.902344 131.6875 C 130.902344 130.71875 130.261719 130.203125 129.324219 130.015625 Z M 129.605469 129.390625 "
       id="path76" />
    <path
       style=" stroke:none;fill-rule:nonzero;fill:rgb(63.920593%,24.705505%,24.705505%);fill-opacity:1;"
       d="M 120.78125 92.070313 L 122.78125 92.070313 L 122.78125 91.960938 C 122.421875 91.976563 122.171875 91.945313 122.171875 91.726563 C 122.171875 91.601563 122.265625 91.335938 122.296875 91.195313 L 123.328125 87.460938 C 123.359375 87.351563 123.390625 87.195313 123.34375 87.195313 C 123.28125 87.195313 122.28125 87.414063 121.9375 87.476563 L 121.9375 87.585938 L 122.359375 87.570313 C 122.421875 87.570313 122.625 87.570313 122.625 87.804688 C 122.625 87.851563 122.59375 87.960938 122.578125 88.039063 L 121.578125 91.585938 C 121.484375 91.898438 121.203125 91.929688 120.78125 91.976563 Z M 120.78125 92.070313 "
       id="path78" />
    <path
       style=" stroke:none;fill-rule:nonzero;fill:rgb(63.920593%,24.705505%,24.705505%);fill-opacity:1;"
       d="M 124.816406 90.945313 C 124.816406 90.242188 125.332031 87.398438 126.410156 87.398438 C 127.035156 87.398438 127.035156 88.132813 127.035156 88.351563 C 127.035156 89.617188 126.410156 91.914063 125.441406 91.914063 C 125.222656 91.914063 124.816406 91.789063 124.816406 90.945313 Z M 127.597656 89.007813 C 127.597656 88.289063 127.410156 87.195313 126.441406 87.195313 C 125.441406 87.195313 124.253906 88.679688 124.253906 90.632813 C 124.253906 91.382813 124.660156 92.117188 125.410156 92.117188 C 126.613281 92.117188 127.597656 90.429688 127.597656 89.007813 Z M 127.597656 89.007813 "
       id="path80" />
    <g
       clip-path="url(#clip2)"
       clip-rule="nonzero"
       id="g84">
      <path
         style=" stroke:none;fill-rule:nonzero;fill:rgb(0%,0%,0%);fill-opacity:1;"
         d="M 106.679688 153.890625 C 106.679688 153.109375 107.257813 149.953125 108.445313 149.953125 C 109.132813 149.953125 109.132813 150.765625 109.132813 151.015625 C 109.132813 152.40625 108.445313 154.96875 107.367188 154.96875 C 107.117188 154.96875 106.679688 154.828125 106.679688 153.890625 Z M 109.757813 151.734375 C 109.757813 150.953125 109.554688 149.734375 108.492188 149.734375 C 107.367188 149.734375 106.039063 151.375 106.039063 153.546875 C 106.039063 154.375 106.507813 155.203125 107.335938 155.203125 C 108.679688 155.203125 109.757813 153.3125 109.757813 151.734375 Z M 109.757813 151.734375 "
         id="path82" />
    </g>
    <path
       style=" stroke:none;fill-rule:nonzero;fill:rgb(12.940979%,11.764526%,11.764526%);fill-opacity:1;"
       d="M 83.230469 3.421875 C 83.230469 4.5625 82.355469 6.34375 81.199219 6.34375 C 80.949219 6.34375 80.714844 6.234375 80.714844 5.984375 C 80.714844 5.609375 81.089844 4.3125 81.339844 3.703125 C 81.589844 3.046875 82.136719 2.609375 82.589844 2.609375 C 83.214844 2.609375 83.230469 3.15625 83.230469 3.421875 Z M 80.121094 2.5625 L 80.355469 2.546875 C 80.574219 2.53125 80.746094 2.65625 80.746094 2.828125 C 80.746094 3.03125 79.777344 6.59375 79.511719 7.671875 C 79.433594 7.96875 79.371094 8.234375 78.871094 8.234375 L 78.871094 8.390625 L 80.839844 8.390625 L 80.839844 8.25 C 80.589844 8.25 80.230469 8.25 80.230469 7.9375 C 80.230469 7.75 80.496094 6.6875 80.574219 6.359375 C 80.792969 6.484375 80.996094 6.53125 81.230469 6.53125 C 82.558594 6.53125 84.089844 4.9375 84.089844 3.453125 C 84.089844 2.75 83.808594 2.1875 82.949219 2.1875 C 82.167969 2.1875 81.621094 2.890625 81.386719 3.234375 L 81.371094 3.203125 L 81.621094 2.3125 C 81.667969 2.203125 81.621094 2.1875 81.589844 2.1875 L 80.105469 2.40625 Z M 80.121094 2.5625 "
       id="path86" />
    <path
       style=" stroke:none;fill-rule:nonzero;fill:rgb(12.940979%,11.764526%,11.764526%);fill-opacity:1;"
       d="M 85.921875 8.09375 C 85.453125 6.921875 85.453125 6.078125 85.453125 5.4375 C 85.453125 4.828125 85.625 3.53125 86 2.453125 C 86.46875 1.140625 86.953125 0.625 87.40625 0.140625 L 87.28125 0 C 85.546875 1.484375 84.796875 2.984375 84.796875 4.5625 C 84.796875 5.1875 84.796875 6.578125 85.75 8.15625 Z M 85.921875 8.09375 "
       id="path88" />
    <path
       style=" stroke:none;fill-rule:nonzero;fill:rgb(12.940979%,11.764526%,11.764526%);fill-opacity:1;"
       d="M 92.1875 2.75 C 92.21875 2.609375 92.21875 2.59375 92.21875 2.5625 C 92.21875 2.453125 92.140625 2.28125 91.921875 2.28125 C 91.640625 2.28125 91.546875 2.53125 91.5 2.703125 L 90.875 5.265625 C 90.796875 5.546875 90.28125 6.28125 89.5625 6.28125 C 88.84375 6.28125 88.84375 5.609375 88.84375 5.4375 C 88.84375 5.25 88.859375 5.109375 88.984375 4.625 L 89.390625 3 C 89.4375 2.828125 89.515625 2.5 89.515625 2.453125 C 89.515625 2.328125 89.40625 2.1875 89.21875 2.1875 C 88.96875 2.1875 88.84375 2.390625 88.796875 2.578125 L 87.4375 8.015625 C 87.40625 8.15625 87.40625 8.171875 87.40625 8.21875 C 87.40625 8.390625 87.546875 8.5 87.703125 8.5 C 87.859375 8.5 87.984375 8.390625 88.0625 8.28125 C 88.09375 8.203125 88.1875 7.828125 88.578125 6.234375 C 88.890625 6.484375 89.3125 6.53125 89.53125 6.53125 C 90.046875 6.53125 90.484375 6.265625 90.828125 5.84375 C 90.953125 6.328125 91.359375 6.53125 91.734375 6.53125 C 91.9375 6.53125 92.234375 6.46875 92.46875 5.96875 C 92.640625 5.609375 92.765625 5.09375 92.765625 5.046875 C 92.765625 4.96875 92.71875 4.9375 92.640625 4.9375 C 92.515625 4.9375 92.515625 4.984375 92.46875 5.1875 C 92.3125 5.78125 92.125 6.28125 91.75 6.28125 C 91.5 6.28125 91.453125 6.03125 91.453125 5.84375 C 91.453125 5.671875 91.453125 5.65625 91.515625 5.40625 Z M 92.1875 2.75 "
       id="path90" />
    <path
       style=" stroke:none;fill-rule:nonzero;fill:rgb(12.940979%,11.764526%,11.764526%);fill-opacity:1;"
       d="M 94.363281 0.703125 C 94.363281 0.59375 94.363281 0.421875 94.191406 0.421875 C 94.019531 0.421875 94.019531 0.578125 94.019531 0.703125 L 94.019531 8.140625 C 94.019531 8.265625 94.019531 8.421875 94.191406 8.421875 C 94.363281 8.421875 94.363281 8.25 94.363281 8.140625 Z M 94.363281 0.703125 "
       id="path92" />
    <path
       style=" stroke:none;fill-rule:nonzero;fill:rgb(12.940979%,11.764526%,11.764526%);fill-opacity:1;"
       d="M 99.195313 5.359375 C 98.929688 5.640625 98.742188 6 98.539063 6 C 98.351563 6 98.273438 5.765625 98.242188 5.609375 C 98.179688 5.359375 97.851563 4.0625 97.851563 3.890625 C 97.851563 3.890625 98.507813 2.734375 98.789063 2.734375 C 99.007813 2.734375 99.070313 2.890625 99.304688 2.890625 C 99.523438 2.890625 99.617188 2.703125 99.617188 2.53125 C 99.617188 2.3125 99.414063 2.1875 99.226563 2.1875 C 98.726563 2.1875 98.273438 2.78125 97.789063 3.5625 L 97.679688 3.03125 C 97.507813 2.1875 97.367188 2.1875 97.148438 2.1875 C 96.835938 2.1875 96.210938 2.421875 95.945313 2.5 L 95.992188 2.65625 C 96.289063 2.578125 96.429688 2.546875 96.523438 2.546875 C 96.773438 2.546875 96.820313 2.6875 96.898438 2.984375 C 96.914063 3.03125 97.242188 4.296875 97.242188 4.390625 C 96.367188 5.640625 96.117188 5.96875 95.960938 5.96875 C 95.789063 5.96875 95.617188 5.78125 95.398438 5.78125 C 95.195313 5.78125 95.070313 5.96875 95.070313 6.109375 C 95.070313 6.34375 95.226563 6.53125 95.554688 6.53125 C 95.851563 6.53125 95.960938 6.421875 96.117188 6.234375 C 96.445313 5.890625 96.851563 5.359375 97.304688 4.734375 L 97.601563 5.890625 C 97.726563 6.390625 97.867188 6.53125 98.148438 6.53125 C 98.367188 6.53125 98.648438 6.53125 99.320313 5.4375 Z M 99.195313 5.359375 "
       id="path94" />
    <path
       style=" stroke:none;fill-rule:nonzero;fill:rgb(12.940979%,11.764526%,11.764526%);fill-opacity:1;"
       d="M 99.910156 8.820313 L 101.691406 8.820313 L 101.691406 8.726563 C 101.378906 8.726563 101.144531 8.710938 101.144531 8.507813 C 101.144531 8.414063 101.238281 8.179688 101.269531 8.039063 L 102.175781 4.726563 C 102.207031 4.617188 102.238281 4.492188 102.191406 4.492188 C 102.144531 4.492188 101.253906 4.679688 100.957031 4.726563 L 100.957031 4.835938 L 101.316406 4.820313 C 101.378906 4.820313 101.550781 4.820313 101.550781 5.023438 C 101.550781 5.070313 101.535156 5.164063 101.519531 5.226563 L 100.628906 8.382813 C 100.550781 8.679688 100.285156 8.695313 99.910156 8.726563 Z M 99.910156 8.820313 "
       id="path96" />
    <path
       style=" stroke:none;fill-rule:nonzero;fill:rgb(12.940979%,11.764526%,11.764526%);fill-opacity:1;"
       d="M 102.84375 7.65625 C 103.390625 7.390625 104.09375 6.78125 104.09375 6.140625 C 104.09375 5.734375 103.859375 5.453125 103.53125 5.453125 C 103.453125 5.453125 103.046875 5.5 103.046875 5.90625 C 103.046875 6.328125 103.484375 6.328125 103.484375 6.65625 C 103.484375 7.015625 102.953125 7.375 102.765625 7.5 Z M 102.84375 7.65625 "
       id="path98" />
    <path
       style=" stroke:none;fill-rule:nonzero;fill:rgb(12.940979%,11.764526%,11.764526%);fill-opacity:1;"
       d="M 109.058594 5.359375 C 108.792969 5.640625 108.605469 6 108.402344 6 C 108.214844 6 108.136719 5.765625 108.105469 5.609375 C 108.042969 5.359375 107.714844 4.0625 107.714844 3.890625 C 107.714844 3.890625 108.371094 2.734375 108.652344 2.734375 C 108.871094 2.734375 108.933594 2.890625 109.167969 2.890625 C 109.386719 2.890625 109.480469 2.703125 109.480469 2.53125 C 109.480469 2.3125 109.277344 2.1875 109.089844 2.1875 C 108.589844 2.1875 108.136719 2.78125 107.652344 3.5625 L 107.542969 3.03125 C 107.371094 2.1875 107.230469 2.1875 107.011719 2.1875 C 106.699219 2.1875 106.074219 2.421875 105.808594 2.5 L 105.855469 2.65625 C 106.152344 2.578125 106.292969 2.546875 106.386719 2.546875 C 106.636719 2.546875 106.683594 2.6875 106.761719 2.984375 C 106.777344 3.03125 107.105469 4.296875 107.105469 4.390625 C 106.230469 5.640625 105.980469 5.96875 105.824219 5.96875 C 105.652344 5.96875 105.480469 5.78125 105.261719 5.78125 C 105.058594 5.78125 104.933594 5.96875 104.933594 6.109375 C 104.933594 6.34375 105.089844 6.53125 105.417969 6.53125 C 105.714844 6.53125 105.824219 6.421875 105.980469 6.234375 C 106.308594 5.890625 106.714844 5.359375 107.167969 4.734375 L 107.464844 5.890625 C 107.589844 6.390625 107.730469 6.53125 108.011719 6.53125 C 108.230469 6.53125 108.511719 6.53125 109.183594 5.4375 Z M 109.058594 5.359375 "
       id="path100" />
    <path
       style=" stroke:none;fill-rule:nonzero;fill:rgb(12.940979%,11.764526%,11.764526%);fill-opacity:1;"
       d="M 112.023438 7.929688 C 111.914063 8.164063 111.804688 8.335938 111.382813 8.335938 L 110.179688 8.335938 L 110.179688 8.304688 L 111.398438 7.070313 C 112.195313 6.273438 112.351563 5.992188 112.351563 5.554688 C 112.351563 5.085938 111.992188 4.492188 111.320313 4.492188 C 111.164063 4.492188 110.320313 4.507813 109.976563 5.507813 L 110.101563 5.554688 C 110.195313 5.398438 110.445313 4.960938 111.023438 4.960938 C 111.507813 4.960938 111.804688 5.335938 111.804688 5.742188 C 111.804688 5.945313 111.773438 6.320313 110.882813 7.273438 L 109.539063 8.710938 L 109.539063 8.820313 L 111.804688 8.820313 L 112.132813 7.976563 Z M 112.023438 7.929688 "
       id="path102" />
    <path
       style=" stroke:none;fill-rule:nonzero;fill:rgb(12.940979%,11.764526%,11.764526%);fill-opacity:1;"
       d="M 112.707031 7.65625 C 113.253906 7.390625 113.957031 6.78125 113.957031 6.140625 C 113.957031 5.734375 113.722656 5.453125 113.394531 5.453125 C 113.316406 5.453125 112.910156 5.5 112.910156 5.90625 C 112.910156 6.328125 113.347656 6.328125 113.347656 6.65625 C 113.347656 7.015625 112.816406 7.375 112.628906 7.5 Z M 112.707031 7.65625 "
       id="path104" />
    <path
       style=" stroke:none;fill-rule:nonzero;fill:rgb(12.940979%,11.764526%,11.764526%);fill-opacity:1;"
       d="M 115.84375 6.53125 C 116.046875 6.53125 116.390625 6.359375 116.390625 6.015625 C 116.390625 5.71875 116.140625 5.46875 115.84375 5.46875 C 115.5625 5.46875 115.328125 5.703125 115.328125 6.015625 C 115.328125 6.375 115.640625 6.53125 115.84375 6.53125 Z M 115.84375 6.53125 "
       id="path106" />
    <path
       style=" stroke:none;fill-rule:nonzero;fill:rgb(12.940979%,11.764526%,11.764526%);fill-opacity:1;"
       d="M 118.242188 6.53125 C 118.445313 6.53125 118.789063 6.359375 118.789063 6.015625 C 118.789063 5.71875 118.539063 5.46875 118.242188 5.46875 C 117.960938 5.46875 117.726563 5.703125 117.726563 6.015625 C 117.726563 6.375 118.039063 6.53125 118.242188 6.53125 Z M 118.242188 6.53125 "
       id="path108" />
    <path
       style=" stroke:none;fill-rule:nonzero;fill:rgb(12.940979%,11.764526%,11.764526%);fill-opacity:1;"
       d="M 120.640625 6.53125 C 120.84375 6.53125 121.1875 6.359375 121.1875 6.015625 C 121.1875 5.71875 120.9375 5.46875 120.640625 5.46875 C 120.359375 5.46875 120.125 5.703125 120.125 6.015625 C 120.125 6.375 120.4375 6.53125 120.640625 6.53125 Z M 120.640625 6.53125 "
       id="path110" />
    <path
       style=" stroke:none;fill-rule:nonzero;fill:rgb(12.940979%,11.764526%,11.764526%);fill-opacity:1;"
       d="M 122.308594 7.65625 C 122.855469 7.390625 123.558594 6.78125 123.558594 6.140625 C 123.558594 5.734375 123.324219 5.453125 122.996094 5.453125 C 122.917969 5.453125 122.511719 5.5 122.511719 5.90625 C 122.511719 6.328125 122.949219 6.328125 122.949219 6.65625 C 122.949219 7.015625 122.417969 7.375 122.230469 7.5 Z M 122.308594 7.65625 "
       id="path112" />
    <path
       style=" stroke:none;fill-rule:nonzero;fill:rgb(12.940979%,11.764526%,11.764526%);fill-opacity:1;"
       d="M 128.519531 5.359375 C 128.253906 5.640625 128.066406 6 127.863281 6 C 127.675781 6 127.597656 5.765625 127.566406 5.609375 C 127.503906 5.359375 127.175781 4.0625 127.175781 3.890625 C 127.175781 3.890625 127.832031 2.734375 128.113281 2.734375 C 128.332031 2.734375 128.394531 2.890625 128.628906 2.890625 C 128.847656 2.890625 128.941406 2.703125 128.941406 2.53125 C 128.941406 2.3125 128.738281 2.1875 128.550781 2.1875 C 128.050781 2.1875 127.597656 2.78125 127.113281 3.5625 L 127.003906 3.03125 C 126.832031 2.1875 126.691406 2.1875 126.472656 2.1875 C 126.160156 2.1875 125.535156 2.421875 125.269531 2.5 L 125.316406 2.65625 C 125.613281 2.578125 125.753906 2.546875 125.847656 2.546875 C 126.097656 2.546875 126.144531 2.6875 126.222656 2.984375 C 126.238281 3.03125 126.566406 4.296875 126.566406 4.390625 C 125.691406 5.640625 125.441406 5.96875 125.285156 5.96875 C 125.113281 5.96875 124.941406 5.78125 124.722656 5.78125 C 124.519531 5.78125 124.394531 5.96875 124.394531 6.109375 C 124.394531 6.34375 124.550781 6.53125 124.878906 6.53125 C 125.175781 6.53125 125.285156 6.421875 125.441406 6.234375 C 125.769531 5.890625 126.175781 5.359375 126.628906 4.734375 L 126.925781 5.890625 C 127.050781 6.390625 127.191406 6.53125 127.472656 6.53125 C 127.691406 6.53125 127.972656 6.53125 128.644531 5.4375 Z M 128.519531 5.359375 "
       id="path114" />
    <path
       style=" stroke:none;fill-rule:nonzero;fill:rgb(12.940979%,11.764526%,11.764526%);fill-opacity:1;"
       d="M 131.878906 8.070313 C 131.628906 8.367188 131.472656 8.570313 131.347656 8.570313 C 131.332031 8.570313 131.238281 8.570313 131.238281 8.460938 C 131.238281 8.273438 131.753906 6.695313 131.753906 6.414063 C 131.753906 6.148438 131.613281 5.992188 131.316406 5.992188 C 130.785156 5.992188 130.191406 6.882813 129.894531 7.367188 L 129.878906 7.351563 L 130.285156 6.007813 L 130.269531 5.992188 C 129.925781 6.070313 129.582031 6.132813 129.238281 6.195313 L 129.238281 6.289063 C 129.582031 6.289063 129.644531 6.367188 129.644531 6.460938 C 129.644531 6.601563 129.207031 8.101563 129.019531 8.820313 L 129.488281 8.820313 C 129.753906 7.945313 129.847656 7.679688 130.128906 7.226563 C 130.363281 6.867188 130.769531 6.320313 131.082031 6.320313 C 131.207031 6.320313 131.238281 6.414063 131.238281 6.523438 C 131.238281 6.789063 130.769531 8.351563 130.769531 8.492188 C 130.769531 8.679688 130.769531 8.882813 131.066406 8.882813 C 131.410156 8.882813 131.644531 8.585938 131.957031 8.148438 Z M 131.878906 8.070313 "
       id="path116" />
    <path
       style=" stroke:none;fill-rule:nonzero;fill:rgb(12.940979%,11.764526%,11.764526%);fill-opacity:1;"
       d="M 132.40625 8.15625 C 133.828125 7 134.890625 5.421875 134.890625 3.59375 C 134.890625 2.359375 134.640625 1.125 133.953125 0 L 133.765625 0.046875 C 134.015625 0.578125 134.234375 1.53125 134.234375 2.5625 C 134.234375 3.40625 134.078125 4.546875 133.6875 5.71875 C 133.25 6.984375 132.703125 7.5625 132.28125 8 Z M 132.40625 8.15625 "
       id="path118" />
  </g>
</svg>
