<?xml version="1.0" encoding="UTF-8" standalone="no"?>
<svg
   xmlns:dc="http://purl.org/dc/elements/1.1/"
   xmlns:cc="http://creativecommons.org/ns#"
   xmlns:rdf="http://www.w3.org/1999/02/22-rdf-syntax-ns#"
   xmlns:svg="http://www.w3.org/2000/svg"
   xmlns="http://www.w3.org/2000/svg"
   xmlns:sodipodi="http://sodipodi.sourceforge.net/DTD/sodipodi-0.dtd"
   xmlns:inkscape="http://www.inkscape.org/namespaces/inkscape"
   width="121.411842pt"
   height="120.844147pt"
   viewBox="0 0 121.411842 120.844147"
   version="1.2"
   id="svg195"
   sodipodi:docname="cluster_mid_thresh.svg"
   inkscape:version="0.92.4 (5da689c313, 2019-01-14)">
  <metadata
     id="metadata199">
    <rdf:RDF>
      <cc:Work
         rdf:about="">
        <dc:format>image/svg+xml</dc:format>
        <dc:type
           rdf:resource="http://purl.org/dc/dcmitype/StillImage" />
        <dc:title></dc:title>
      </cc:Work>
    </rdf:RDF>
  </metadata>
  <sodipodi:namedview
     pagecolor="#ffffff"
     bordercolor="#666666"
     borderopacity="1"
     objecttolerance="10"
     gridtolerance="10"
     guidetolerance="10"
     inkscape:pageopacity="0"
     inkscape:pageshadow="2"
     inkscape:window-width="640"
     inkscape:window-height="480"
     id="namedview197"
     showgrid="false"
     inkscape:zoom="1.4646965"
     inkscape:cx="80.941228"
     inkscape:cy="80.562764"
     inkscape:window-x="0"
     inkscape:window-y="0"
     inkscape:window-maximized="0"
     inkscape:current-layer="svg195" />
  <defs
     id="defs32">
    <clipPath
       id="clip1">
      <path
         d="M 24 120 L 26 120 L 26 120.84375 L 24 120.84375 Z M 24 120 "
         id="path2" />
    </clipPath>
    <clipPath
       id="clip2">
      <path
         d="M 26 116 L 29 116 L 29 120.84375 L 26 120.84375 Z M 26 116 "
         id="path5" />
    </clipPath>
    <clipPath
       id="clip3">
      <path
         d="M 45 120 L 47 120 L 47 120.84375 L 45 120.84375 Z M 45 120 "
         id="path8" />
    </clipPath>
    <clipPath
       id="clip4">
      <path
         d="M 46 116 L 50 116 L 50 120.84375 L 46 120.84375 Z M 46 116 "
         id="path11" />
    </clipPath>
    <clipPath
       id="clip5">
      <path
         d="M 66 120 L 67 120 L 67 120.84375 L 66 120.84375 Z M 66 120 "
         id="path14" />
    </clipPath>
    <clipPath
       id="clip6">
      <path
         d="M 67 116 L 71 116 L 71 120.84375 L 67 120.84375 Z M 67 116 "
         id="path17" />
    </clipPath>
    <clipPath
       id="clip7">
      <path
         d="M 86 120 L 88 120 L 88 120.84375 L 86 120.84375 Z M 86 120 "
         id="path20" />
    </clipPath>
    <clipPath
       id="clip8">
      <path
         d="M 88 116 L 92 116 L 92 120.84375 L 88 120.84375 Z M 88 116 "
         id="path23" />
    </clipPath>
    <clipPath
       id="clip9">
      <path
         d="M 108 116 L 111 116 L 111 120.84375 L 108 120.84375 Z M 108 116 "
         id="path26" />
    </clipPath>
    <clipPath
       id="clip10">
      <path
         d="M 119 115 L 121.410156 115 L 121.410156 119 L 119 119 Z M 119 115 "
         id="path29" />
    </clipPath>
  </defs>
  <g
     id="surface34">
    <path
       style="fill:none;stroke-width:0.41;stroke-linecap:round;stroke-linejoin:round;stroke:rgb(0%,0%,0%);stroke-opacity:1;stroke-miterlimit:4;"
       d="M 26.832031 114.453125 L 26.832031 113.808594 "
       id="path34" />
    <g
       clip-path="url(#clip1)"
       clip-rule="nonzero"
       id="g38">
      <path
         style=" stroke:none;fill-rule:nonzero;fill:rgb(0%,0%,0%);fill-opacity:1;"
         d="M 25.035156 120.84375 C 25.160156 120.84375 25.378906 120.75 25.378906 120.515625 C 25.378906 120.328125 25.222656 120.171875 25.035156 120.171875 C 24.847656 120.171875 24.707031 120.328125 24.707031 120.515625 C 24.707031 120.75 24.910156 120.84375 25.035156 120.84375 Z M 25.035156 120.84375 "
         id="path36" />
    </g>
    <g
       clip-path="url(#clip2)"
       clip-rule="nonzero"
       id="g42">
      <path
         style=" stroke:none;fill-rule:nonzero;fill:rgb(0%,0%,0%);fill-opacity:1;"
         d="M 28.519531 119.9375 C 28.410156 120.15625 28.316406 120.3125 27.910156 120.3125 L 26.753906 120.3125 L 26.753906 120.28125 L 27.925781 119.109375 C 28.675781 118.34375 28.832031 118.078125 28.832031 117.65625 C 28.832031 117.203125 28.488281 116.640625 27.847656 116.640625 C 27.691406 116.640625 26.894531 116.671875 26.550781 117.625 L 26.691406 117.65625 C 26.769531 117.515625 27.003906 117.09375 27.550781 117.09375 C 28.019531 117.09375 28.300781 117.453125 28.300781 117.828125 C 28.300781 118.03125 28.285156 118.390625 27.425781 119.3125 L 26.144531 120.671875 L 26.144531 120.78125 L 28.316406 120.78125 L 28.613281 119.96875 Z M 28.519531 119.9375 "
         id="path40" />
    </g>
    <path
       style="fill:none;stroke-width:0.41;stroke-linecap:round;stroke-linejoin:round;stroke:rgb(0%,0%,0%);stroke-opacity:1;stroke-miterlimit:4;"
       d="M 47.476563 114.453125 L 47.476563 113.808594 "
       id="path44" />
    <g
       clip-path="url(#clip3)"
       clip-rule="nonzero"
       id="g48">
      <path
         style=" stroke:none;fill-rule:nonzero;fill:rgb(0%,0%,0%);fill-opacity:1;"
         d="M 45.683594 120.84375 C 45.808594 120.84375 46.027344 120.75 46.027344 120.515625 C 46.027344 120.328125 45.871094 120.171875 45.683594 120.171875 C 45.496094 120.171875 45.355469 120.328125 45.355469 120.515625 C 45.355469 120.75 45.558594 120.84375 45.683594 120.84375 Z M 45.683594 120.84375 "
         id="path46" />
    </g>
    <g
       clip-path="url(#clip4)"
       clip-rule="nonzero"
       id="g52">
      <path
         style=" stroke:none;fill-rule:nonzero;fill:rgb(0%,0%,0%);fill-opacity:1;"
         d="M 48.414063 119.3125 L 47.101563 119.3125 L 47.101563 119.28125 L 48.976563 117.328125 L 48.992188 117.328125 Z M 49.492188 119.3125 L 48.898438 119.3125 L 49.648438 116.640625 L 49.398438 116.640625 L 46.835938 119.28125 L 46.710938 119.6875 L 48.320313 119.6875 L 48.023438 120.78125 L 48.507813 120.78125 L 48.789063 119.703125 L 49.398438 119.703125 Z M 49.492188 119.3125 "
         id="path50" />
    </g>
    <path
       style="fill:none;stroke-width:0.41;stroke-linecap:round;stroke-linejoin:round;stroke:rgb(0%,0%,0%);stroke-opacity:1;stroke-miterlimit:4;"
       d="M 68.125 114.453125 L 68.125 113.808594 "
       id="path54" />
    <g
       clip-path="url(#clip5)"
       clip-rule="nonzero"
       id="g58">
      <path
         style=" stroke:none;fill-rule:nonzero;fill:rgb(0%,0%,0%);fill-opacity:1;"
         d="M 66.328125 120.84375 C 66.453125 120.84375 66.671875 120.75 66.671875 120.515625 C 66.671875 120.328125 66.515625 120.171875 66.328125 120.171875 C 66.140625 120.171875 66 120.328125 66 120.515625 C 66 120.75 66.203125 120.84375 66.328125 120.84375 Z M 66.328125 120.84375 "
         id="path56" />
    </g>
    <g
       clip-path="url(#clip6)"
       clip-rule="nonzero"
       id="g62">
      <path
         style=" stroke:none;fill-rule:nonzero;fill:rgb(0%,0%,0%);fill-opacity:1;"
         d="M 70.546875 116.578125 C 68.671875 116.703125 67.546875 118.234375 67.546875 119.5 C 67.546875 120.5 68.15625 120.828125 68.640625 120.828125 C 69.6875 120.828125 70.1875 119.78125 70.1875 119.171875 C 70.1875 118.296875 69.5625 118.046875 69.140625 118.046875 C 69.046875 118.046875 68.953125 118.0625 68.859375 118.078125 C 68.78125 118.09375 68.6875 118.125 68.609375 118.171875 L 68.578125 118.15625 C 68.71875 117.859375 69.46875 116.8125 70.546875 116.671875 Z M 68.921875 118.265625 C 69.375 118.265625 69.640625 118.5625 69.640625 119.0625 C 69.640625 119.609375 69.3125 120.671875 68.609375 120.671875 C 68.015625 120.671875 68.015625 119.984375 68.015625 119.8125 C 68.015625 119.71875 68.0625 118.265625 68.921875 118.265625 Z M 68.921875 118.265625 "
         id="path60" />
    </g>
    <path
       style="fill:none;stroke-width:0.41;stroke-linecap:round;stroke-linejoin:round;stroke:rgb(0%,0%,0%);stroke-opacity:1;stroke-miterlimit:4;"
       d="M 88.769531 114.453125 L 88.769531 113.808594 "
       id="path64" />
    <g
       clip-path="url(#clip7)"
       clip-rule="nonzero"
       id="g68">
      <path
         style=" stroke:none;fill-rule:nonzero;fill:rgb(0%,0%,0%);fill-opacity:1;"
         d="M 86.976563 120.84375 C 87.101563 120.84375 87.320313 120.75 87.320313 120.515625 C 87.320313 120.328125 87.164063 120.171875 86.976563 120.171875 C 86.789063 120.171875 86.648438 120.328125 86.648438 120.515625 C 86.648438 120.75 86.851563 120.84375 86.976563 120.84375 Z M 86.976563 120.84375 "
         id="path66" />
    </g>
    <g
       clip-path="url(#clip8)"
       clip-rule="nonzero"
       id="g72">
      <path
         style=" stroke:none;fill-rule:nonzero;fill:rgb(0%,0%,0%);fill-opacity:1;"
         d="M 88.191406 119.8125 C 88.191406 120 88.316406 120.828125 89.410156 120.828125 C 90.238281 120.828125 90.722656 120.28125 90.722656 119.75 C 90.722656 119.28125 90.472656 118.90625 90.019531 118.4375 C 90.363281 118.328125 91.019531 118.109375 91.019531 117.515625 C 91.019531 116.84375 90.363281 116.640625 89.957031 116.640625 C 89.378906 116.640625 88.847656 116.9375 88.847656 117.578125 C 88.847656 117.890625 89.003906 118.171875 89.378906 118.578125 C 89.238281 118.625 88.191406 118.9375 88.191406 119.8125 Z M 88.597656 119.84375 C 88.597656 119.0625 89.363281 118.71875 89.519531 118.671875 C 90.113281 119.28125 90.269531 119.453125 90.269531 119.84375 C 90.269531 120.4375 89.785156 120.6875 89.457031 120.6875 C 88.925781 120.6875 88.597656 120.328125 88.597656 119.84375 Z M 89.332031 117.46875 C 89.332031 117.046875 89.566406 116.78125 89.957031 116.78125 C 90.441406 116.78125 90.613281 117.203125 90.613281 117.5 C 90.613281 118 90.238281 118.171875 89.910156 118.34375 C 89.332031 117.8125 89.332031 117.625 89.332031 117.46875 Z M 89.332031 117.46875 "
         id="path70" />
    </g>
    <path
       style="fill:none;stroke-width:0.41;stroke-linecap:round;stroke-linejoin:round;stroke:rgb(0%,0%,0%);stroke-opacity:1;stroke-miterlimit:4;"
       d="M 109.417969 114.453125 L 109.417969 113.808594 "
       id="path74" />
    <g
       clip-path="url(#clip9)"
       clip-rule="nonzero"
       id="g78">
      <path
         style=" stroke:none;fill-rule:nonzero;fill:rgb(0%,0%,0%);fill-opacity:1;"
         d="M 108.183594 120.78125 L 109.902344 120.78125 L 109.902344 120.6875 C 109.589844 120.703125 109.371094 120.671875 109.371094 120.484375 C 109.371094 120.390625 109.449219 120.15625 109.480469 120.046875 L 110.355469 116.859375 C 110.386719 116.765625 110.417969 116.640625 110.371094 116.640625 C 110.324219 116.640625 109.464844 116.828125 109.183594 116.875 L 109.183594 116.96875 L 109.527344 116.953125 C 109.589844 116.953125 109.761719 116.953125 109.761719 117.15625 C 109.761719 117.203125 109.730469 117.28125 109.714844 117.34375 L 108.871094 120.359375 C 108.792969 120.640625 108.542969 120.65625 108.183594 120.703125 Z M 108.183594 120.78125 "
         id="path76" />
    </g>
    <path
       style="fill:none;stroke-width:0.205;stroke-linecap:round;stroke-linejoin:round;stroke:rgb(0%,0%,0%);stroke-opacity:1;stroke-miterlimit:4;"
       d="M 10.3125 114.453125 L 10.3125 114.066406 M 14.441406 114.453125 L 14.441406 114.066406 M 18.570313 114.453125 L 18.570313 114.066406 M 22.703125 114.453125 L 22.703125 114.066406 M 30.960938 114.453125 L 30.960938 114.066406 M 35.089844 114.453125 L 35.089844 114.066406 M 39.21875 114.453125 L 39.21875 114.066406 M 43.347656 114.453125 L 43.347656 114.066406 M 51.605469 114.453125 L 51.605469 114.066406 M 55.734375 114.453125 L 55.734375 114.066406 M 59.867188 114.453125 L 59.867188 114.066406 M 63.996094 114.453125 L 63.996094 114.066406 M 72.253906 114.453125 L 72.253906 114.066406 M 76.382813 114.453125 L 76.382813 114.066406 M 80.511719 114.453125 L 80.511719 114.066406 M 84.640625 114.453125 L 84.640625 114.066406 M 92.898438 114.453125 L 92.898438 114.066406 M 97.027344 114.453125 L 97.027344 114.066406 M 101.15625 114.453125 L 101.15625 114.066406 M 105.289063 114.453125 L 105.289063 114.066406 "
       id="path80" />
    <path
       style="fill:none;stroke-width:0.68;stroke-linecap:round;stroke-linejoin:round;stroke:rgb(0%,0%,0%);stroke-opacity:1;stroke-miterlimit:4;"
       d="M 6.183594 114.453125 L 109.417969 114.453125 "
       id="path82" />
    <path
       style=" stroke:none;fill-rule:nonzero;fill:rgb(0%,0%,0%);fill-opacity:1;"
       d="M 111.023438 113.753906 C 109.898438 113.414063 109.167969 113.105469 108.265625 112.742188 L 108.265625 116.171875 C 108.589844 116.019531 109.898438 115.496094 111.023438 115.15625 C 112.226563 114.792969 113.316406 114.542969 114.023438 114.457031 C 113.316406 114.367188 112.226563 114.117188 111.023438 113.753906 "
       id="path84" />
    <path
       style="fill:none;stroke-width:0.41;stroke-linecap:round;stroke-linejoin:round;stroke:rgb(0%,0%,0%);stroke-opacity:1;stroke-miterlimit:4;"
       d="M 6.183594 114.453125 L 6.828125 114.453125 "
       id="path86" />
    <path
       style=" stroke:none;fill-rule:nonzero;fill:rgb(0%,0%,0%);fill-opacity:1;"
       d="M 2.046875 114.699219 C 2.046875 114.105469 2.484375 111.683594 3.390625 111.683594 C 3.921875 111.683594 3.921875 112.308594 3.921875 112.496094 C 3.921875 113.558594 3.390625 115.527344 2.578125 115.527344 C 2.375 115.527344 2.046875 115.402344 2.046875 114.699219 Z M 4.40625 113.042969 C 4.40625 112.449219 4.234375 111.511719 3.421875 111.511719 C 2.578125 111.511719 1.5625 112.777344 1.5625 114.433594 C 1.5625 115.058594 1.90625 115.699219 2.546875 115.699219 C 3.578125 115.699219 4.40625 114.261719 4.40625 113.042969 Z M 4.40625 113.042969 "
       id="path88" />
    <path
       style="fill:none;stroke-width:0.41;stroke-linecap:round;stroke-linejoin:round;stroke:rgb(0%,0%,0%);stroke-opacity:1;stroke-miterlimit:4;"
       d="M 6.183594 93.804688 L 6.828125 93.804688 "
       id="path90" />
    <path
       style=" stroke:none;fill-rule:nonzero;fill:rgb(0%,0%,0%);fill-opacity:1;"
       d="M 0.328125 95.066406 C 0.453125 95.066406 0.671875 94.972656 0.671875 94.738281 C 0.671875 94.550781 0.515625 94.394531 0.328125 94.394531 C 0.140625 94.394531 0 94.550781 0 94.738281 C 0 94.972656 0.203125 95.066406 0.328125 95.066406 Z M 0.328125 95.066406 "
       id="path92" />
    <path
       style=" stroke:none;fill-rule:nonzero;fill:rgb(0%,0%,0%);fill-opacity:1;"
       d="M 3.8125 94.160156 C 3.703125 94.378906 3.609375 94.535156 3.203125 94.535156 L 2.046875 94.535156 L 2.046875 94.503906 L 3.21875 93.332031 C 3.96875 92.566406 4.125 92.300781 4.125 91.878906 C 4.125 91.425781 3.78125 90.863281 3.140625 90.863281 C 2.984375 90.863281 2.1875 90.894531 1.84375 91.847656 L 1.984375 91.878906 C 2.0625 91.738281 2.296875 91.316406 2.84375 91.316406 C 3.3125 91.316406 3.59375 91.675781 3.59375 92.050781 C 3.59375 92.253906 3.578125 92.613281 2.71875 93.535156 L 1.4375 94.894531 L 1.4375 95.003906 L 3.609375 95.003906 L 3.90625 94.191406 Z M 3.8125 94.160156 "
       id="path94" />
    <path
       style="fill:none;stroke-width:0.41;stroke-linecap:round;stroke-linejoin:round;stroke:rgb(0%,0%,0%);stroke-opacity:1;stroke-miterlimit:4;"
       d="M 6.183594 73.160156 L 6.828125 73.160156 "
       id="path96" />
    <path
       style=" stroke:none;fill-rule:nonzero;fill:rgb(0%,0%,0%);fill-opacity:1;"
       d="M 0.328125 74.421875 C 0.453125 74.421875 0.671875 74.328125 0.671875 74.09375 C 0.671875 73.90625 0.515625 73.75 0.328125 73.75 C 0.140625 73.75 0 73.90625 0 74.09375 C 0 74.328125 0.203125 74.421875 0.328125 74.421875 Z M 0.328125 74.421875 "
       id="path98" />
    <path
       style=" stroke:none;fill-rule:nonzero;fill:rgb(0%,0%,0%);fill-opacity:1;"
       d="M 3.0625 72.890625 L 1.75 72.890625 L 1.75 72.859375 L 3.625 70.90625 L 3.640625 70.90625 Z M 4.140625 72.890625 L 3.546875 72.890625 L 4.296875 70.21875 L 4.046875 70.21875 L 1.484375 72.859375 L 1.359375 73.265625 L 2.96875 73.265625 L 2.671875 74.359375 L 3.15625 74.359375 L 3.4375 73.28125 L 4.046875 73.28125 Z M 4.140625 72.890625 "
       id="path100" />
    <path
       style="fill:none;stroke-width:0.41;stroke-linecap:round;stroke-linejoin:round;stroke:rgb(0%,0%,0%);stroke-opacity:1;stroke-miterlimit:4;"
       d="M 6.183594 52.511719 L 6.828125 52.511719 "
       id="path102" />
    <path
       style=" stroke:none;fill-rule:nonzero;fill:rgb(0%,0%,0%);fill-opacity:1;"
       d="M 0.328125 53.777344 C 0.453125 53.777344 0.671875 53.683594 0.671875 53.449219 C 0.671875 53.261719 0.515625 53.105469 0.328125 53.105469 C 0.140625 53.105469 0 53.261719 0 53.449219 C 0 53.683594 0.203125 53.777344 0.328125 53.777344 Z M 0.328125 53.777344 "
       id="path104" />
    <path
       style=" stroke:none;fill-rule:nonzero;fill:rgb(0%,0%,0%);fill-opacity:1;"
       d="M 4.546875 49.511719 C 2.671875 49.636719 1.546875 51.167969 1.546875 52.433594 C 1.546875 53.433594 2.15625 53.761719 2.640625 53.761719 C 3.6875 53.761719 4.1875 52.714844 4.1875 52.105469 C 4.1875 51.230469 3.5625 50.980469 3.140625 50.980469 C 3.046875 50.980469 2.953125 50.996094 2.859375 51.011719 C 2.78125 51.027344 2.6875 51.058594 2.609375 51.105469 L 2.578125 51.089844 C 2.71875 50.792969 3.46875 49.746094 4.546875 49.605469 Z M 2.921875 51.199219 C 3.375 51.199219 3.640625 51.496094 3.640625 51.996094 C 3.640625 52.542969 3.3125 53.605469 2.609375 53.605469 C 2.015625 53.605469 2.015625 52.917969 2.015625 52.746094 C 2.015625 52.652344 2.0625 51.199219 2.921875 51.199219 Z M 2.921875 51.199219 "
       id="path106" />
    <path
       style="fill:none;stroke-width:0.41;stroke-linecap:round;stroke-linejoin:round;stroke:rgb(0%,0%,0%);stroke-opacity:1;stroke-miterlimit:4;"
       d="M 6.183594 31.867188 L 6.828125 31.867188 "
       id="path108" />
    <path
       style=" stroke:none;fill-rule:nonzero;fill:rgb(0%,0%,0%);fill-opacity:1;"
       d="M 0.328125 33.128906 C 0.453125 33.128906 0.671875 33.035156 0.671875 32.800781 C 0.671875 32.613281 0.515625 32.457031 0.328125 32.457031 C 0.140625 32.457031 0 32.613281 0 32.800781 C 0 33.035156 0.203125 33.128906 0.328125 33.128906 Z M 0.328125 33.128906 "
       id="path110" />
    <path
       style=" stroke:none;fill-rule:nonzero;fill:rgb(0%,0%,0%);fill-opacity:1;"
       d="M 1.546875 32.097656 C 1.546875 32.285156 1.671875 33.113281 2.765625 33.113281 C 3.59375 33.113281 4.078125 32.566406 4.078125 32.035156 C 4.078125 31.566406 3.828125 31.191406 3.375 30.722656 C 3.71875 30.613281 4.375 30.394531 4.375 29.800781 C 4.375 29.128906 3.71875 28.925781 3.3125 28.925781 C 2.734375 28.925781 2.203125 29.222656 2.203125 29.863281 C 2.203125 30.175781 2.359375 30.457031 2.734375 30.863281 C 2.59375 30.910156 1.546875 31.222656 1.546875 32.097656 Z M 1.953125 32.128906 C 1.953125 31.347656 2.71875 31.003906 2.875 30.957031 C 3.46875 31.566406 3.625 31.738281 3.625 32.128906 C 3.625 32.722656 3.140625 32.972656 2.8125 32.972656 C 2.28125 32.972656 1.953125 32.613281 1.953125 32.128906 Z M 2.6875 29.753906 C 2.6875 29.332031 2.921875 29.066406 3.3125 29.066406 C 3.796875 29.066406 3.96875 29.488281 3.96875 29.785156 C 3.96875 30.285156 3.59375 30.457031 3.265625 30.628906 C 2.6875 30.097656 2.6875 29.910156 2.6875 29.753906 Z M 2.6875 29.753906 "
       id="path112" />
    <path
       style="fill:none;stroke-width:0.41;stroke-linecap:round;stroke-linejoin:round;stroke:rgb(0%,0%,0%);stroke-opacity:1;stroke-miterlimit:4;"
       d="M 6.183594 11.21875 L 6.828125 11.21875 "
       id="path114" />
    <path
       style="fill:none;stroke-width:0.205;stroke-linecap:round;stroke-linejoin:round;stroke:rgb(0%,0%,0%);stroke-opacity:1;stroke-miterlimit:4;"
       d="M 6.183594 110.324219 L 6.570313 110.324219 M 6.183594 106.195313 L 6.570313 106.195313 M 6.183594 102.066406 L 6.570313 102.066406 M 6.183594 97.9375 L 6.570313 97.9375 M 6.183594 89.675781 L 6.570313 89.675781 M 6.183594 85.546875 L 6.570313 85.546875 M 6.183594 81.417969 L 6.570313 81.417969 M 6.183594 77.289063 L 6.570313 77.289063 M 6.183594 69.03125 L 6.570313 69.03125 M 6.183594 64.902344 L 6.570313 64.902344 M 6.183594 60.773438 L 6.570313 60.773438 M 6.183594 56.644531 L 6.570313 56.644531 M 6.183594 48.382813 L 6.570313 48.382813 M 6.183594 44.253906 L 6.570313 44.253906 M 6.183594 40.125 L 6.570313 40.125 M 6.183594 35.996094 L 6.570313 35.996094 M 6.183594 27.738281 L 6.570313 27.738281 M 6.183594 23.609375 L 6.570313 23.609375 M 6.183594 19.480469 L 6.570313 19.480469 M 6.183594 15.351563 L 6.570313 15.351563 "
       id="path116" />
    <path
       style="fill:none;stroke-width:0.68;stroke-linecap:round;stroke-linejoin:round;stroke:rgb(0%,0%,0%);stroke-opacity:1;stroke-miterlimit:4;"
       d="M 6.183594 114.453125 L 6.183594 11.21875 "
       id="path118" />
    <path
       style=" stroke:none;fill-rule:nonzero;fill:rgb(0%,0%,0%);fill-opacity:1;"
       d="M 5.488281 9.613281 C 5.148438 10.738281 4.835938 11.46875 4.472656 12.371094 L 7.902344 12.371094 C 7.75 12.046875 7.226563 10.738281 6.890625 9.613281 C 6.523438 8.410156 6.277344 7.320313 6.1875 6.613281 C 6.097656 7.320313 5.851563 8.410156 5.488281 9.613281 "
       id="path120" />
    <path
       style="fill:none;stroke-width:0.819;stroke-linecap:round;stroke-linejoin:round;stroke:rgb(0%,0%,0%);stroke-opacity:1;stroke-miterlimit:4;"
       d="M 72.335938 79.558594 L 77.199219 83.644531 M 72.335938 79.558594 L 68.714844 83.984375 M 72.335938 79.558594 L 79.328125 78.558594 M 72.335938 79.558594 L 63.347656 76.949219 M 72.335938 79.558594 L 76.914063 71.542969 M 72.335938 79.558594 L 69.410156 86.09375 M 72.335938 79.558594 L 79.191406 85.8125 M 77.199219 83.644531 L 72.335938 79.558594 M 77.199219 83.644531 L 83.34375 86.976563 M 77.199219 83.644531 L 85.511719 82.171875 M 77.199219 83.644531 L 68.714844 83.984375 M 77.199219 83.644531 L 76.636719 92.539063 M 77.199219 83.644531 L 79.328125 78.558594 M 77.199219 83.644531 L 75.011719 90.367188 M 77.199219 83.644531 L 84.050781 85.878906 M 77.199219 83.644531 L 87.398438 83.714844 M 77.199219 83.644531 L 69.410156 86.09375 M 77.199219 83.644531 L 79.191406 85.8125 M 88.441406 79.5 L 83.34375 86.976563 M 88.441406 79.5 L 85.925781 78 M 88.441406 79.5 L 85.511719 82.171875 M 88.441406 79.5 L 79.328125 78.558594 M 88.441406 79.5 L 92.730469 82.484375 M 88.441406 79.5 L 84.050781 85.878906 M 88.441406 79.5 L 85.902344 74.1875 M 88.441406 79.5 L 87.398438 83.714844 M 88.441406 79.5 L 93.539063 76.953125 M 83.34375 86.976563 L 77.199219 83.644531 M 83.34375 86.976563 L 88.441406 79.5 M 83.34375 86.976563 L 85.925781 78 M 83.34375 86.976563 L 84.4375 95.167969 M 83.34375 86.976563 L 85.511719 82.171875 M 83.34375 86.976563 L 76.636719 92.539063 M 83.34375 86.976563 L 79.328125 78.558594 M 83.34375 86.976563 L 75.011719 90.367188 M 83.34375 86.976563 L 84.050781 85.878906 M 83.34375 86.976563 L 87.398438 83.714844 M 83.34375 86.976563 L 79.191406 85.8125 M 85.925781 78 L 88.441406 79.5 M 85.925781 78 L 83.34375 86.976563 M 85.925781 78 L 85.511719 82.171875 M 85.925781 78 L 79.328125 78.558594 M 85.925781 78 L 92.730469 82.484375 M 85.925781 78 L 84.050781 85.878906 M 85.925781 78 L 85.902344 74.1875 M 85.925781 78 L 87.398438 83.714844 M 85.925781 78 L 93.539063 76.953125 M 85.925781 78 L 79.191406 85.8125 M 84.4375 95.167969 L 83.34375 86.976563 M 84.4375 95.167969 L 76.636719 92.539063 M 84.4375 95.167969 L 84.050781 85.878906 M 84.4375 95.167969 L 80.898438 102.363281 M 52.957031 93.546875 L 52.867188 87.621094 M 52.957031 93.546875 L 57.261719 101.707031 M 85.511719 82.171875 L 77.199219 83.644531 M 85.511719 82.171875 L 88.441406 79.5 M 85.511719 82.171875 L 83.34375 86.976563 M 85.511719 82.171875 L 85.925781 78 M 85.511719 82.171875 L 79.328125 78.558594 M 85.511719 82.171875 L 92.730469 82.484375 "
       id="path122" />
    <path
       style="fill:none;stroke-width:0.819;stroke-linecap:round;stroke-linejoin:round;stroke:rgb(0%,0%,0%);stroke-opacity:1;stroke-miterlimit:4;"
       d="M 85.511719 82.171875 L 84.050781 85.878906 M 85.511719 82.171875 L 85.902344 74.1875 M 85.511719 82.171875 L 87.398438 83.714844 M 85.511719 82.171875 L 93.539063 76.953125 M 85.511719 82.171875 L 79.191406 85.8125 M 68.714844 83.984375 L 72.335938 79.558594 M 68.714844 83.984375 L 77.199219 83.644531 M 68.714844 83.984375 L 75.011719 90.367188 M 68.714844 83.984375 L 63.347656 76.949219 M 68.714844 83.984375 L 69.410156 86.09375 M 68.714844 83.984375 L 67.570313 90.894531 M 68.714844 83.984375 L 60.90625 80.179688 M 99.066406 72.175781 L 97.621094 69.25 M 99.066406 72.175781 L 105.804688 72.378906 M 99.066406 72.175781 L 100.820313 78.808594 M 99.066406 72.175781 L 97.234375 66.539063 M 99.066406 72.175781 L 93.539063 76.953125 M 97.621094 69.25 L 99.066406 72.175781 M 97.621094 69.25 L 105.804688 72.378906 M 97.621094 69.25 L 100.820313 78.808594 M 97.621094 69.25 L 97.234375 66.539063 M 97.621094 69.25 L 93.539063 76.953125 M 105.804688 72.378906 L 99.066406 72.175781 M 105.804688 72.378906 L 97.621094 69.25 M 105.804688 72.378906 L 100.820313 78.808594 M 105.804688 72.378906 L 108.421875 78.84375 M 74.910156 103.734375 L 73.019531 99.742188 M 74.910156 103.734375 L 80.898438 102.363281 M 74.910156 103.734375 L 69.171875 108.960938 M 76.492188 68.398438 L 83.410156 67.410156 M 76.492188 68.398438 L 76.914063 71.542969 M 76.492188 68.398438 L 82.921875 60.847656 M 52.867188 87.621094 L 52.957031 93.546875 M 52.867188 87.621094 L 48.042969 79.050781 M 52.867188 87.621094 L 43.097656 84.707031 M 52.867188 87.621094 L 43.140625 86.101563 M 76.636719 92.539063 L 77.199219 83.644531 M 76.636719 92.539063 L 83.34375 86.976563 M 76.636719 92.539063 L 84.4375 95.167969 M 76.636719 92.539063 L 73.019531 99.742188 M 76.636719 92.539063 L 75.011719 90.367188 M 76.636719 92.539063 L 84.050781 85.878906 M 76.636719 92.539063 L 69.410156 86.09375 M 76.636719 92.539063 L 67.570313 90.894531 M 76.636719 92.539063 L 79.191406 85.8125 M 100.820313 78.808594 L 99.066406 72.175781 M 100.820313 78.808594 L 97.621094 69.25 M 100.820313 78.808594 L 105.804688 72.378906 M 100.820313 78.808594 L 92.730469 82.484375 M 100.820313 78.808594 L 108.421875 78.84375 M 100.820313 78.808594 L 93.539063 76.953125 M 79.328125 78.558594 L 72.335938 79.558594 M 79.328125 78.558594 L 77.199219 83.644531 M 79.328125 78.558594 L 88.441406 79.5 M 79.328125 78.558594 L 83.34375 86.976563 M 79.328125 78.558594 L 85.925781 78 M 79.328125 78.558594 L 85.511719 82.171875 M 79.328125 78.558594 L 84.050781 85.878906 M 79.328125 78.558594 L 85.902344 74.1875 "
       id="path124" />
    <path
       style="fill:none;stroke-width:0.819;stroke-linecap:round;stroke-linejoin:round;stroke:rgb(0%,0%,0%);stroke-opacity:1;stroke-miterlimit:4;"
       d="M 79.328125 78.558594 L 76.914063 71.542969 M 79.328125 78.558594 L 87.398438 83.714844 M 79.328125 78.558594 L 79.191406 85.8125 M 92.730469 82.484375 L 88.441406 79.5 M 92.730469 82.484375 L 85.925781 78 M 92.730469 82.484375 L 85.511719 82.171875 M 92.730469 82.484375 L 100.820313 78.808594 M 92.730469 82.484375 L 84.050781 85.878906 M 92.730469 82.484375 L 87.398438 83.714844 M 92.730469 82.484375 L 93.539063 76.953125 M 92.730469 82.484375 L 94.144531 89.226563 M 73.019531 99.742188 L 74.910156 103.734375 M 73.019531 99.742188 L 76.636719 92.539063 M 73.019531 99.742188 L 75.011719 90.367188 M 73.019531 99.742188 L 80.898438 102.363281 M 73.019531 99.742188 L 69.171875 108.960938 M 83.410156 67.410156 L 76.492188 68.398438 M 83.410156 67.410156 L 85.902344 74.1875 M 83.410156 67.410156 L 76.914063 71.542969 M 83.410156 67.410156 L 82.921875 60.847656 M 75.011719 90.367188 L 77.199219 83.644531 M 75.011719 90.367188 L 83.34375 86.976563 M 75.011719 90.367188 L 68.714844 83.984375 M 75.011719 90.367188 L 76.636719 92.539063 M 75.011719 90.367188 L 73.019531 99.742188 M 75.011719 90.367188 L 84.050781 85.878906 M 75.011719 90.367188 L 69.410156 86.09375 M 75.011719 90.367188 L 67.570313 90.894531 M 75.011719 90.367188 L 79.191406 85.8125 M 37.109375 113.382813 L 32.96875 105.332031 M 63.347656 76.949219 L 72.335938 79.558594 M 63.347656 76.949219 L 68.714844 83.984375 M 63.347656 76.949219 L 60.90625 80.179688 M 84.050781 85.878906 L 77.199219 83.644531 M 84.050781 85.878906 L 88.441406 79.5 M 84.050781 85.878906 L 83.34375 86.976563 M 84.050781 85.878906 L 85.925781 78 M 84.050781 85.878906 L 84.4375 95.167969 M 84.050781 85.878906 L 85.511719 82.171875 M 84.050781 85.878906 L 76.636719 92.539063 M 84.050781 85.878906 L 79.328125 78.558594 M 84.050781 85.878906 L 92.730469 82.484375 M 84.050781 85.878906 L 75.011719 90.367188 M 84.050781 85.878906 L 87.398438 83.714844 M 84.050781 85.878906 L 79.191406 85.8125 M 85.902344 74.1875 L 88.441406 79.5 M 85.902344 74.1875 L 85.925781 78 M 85.902344 74.1875 L 85.511719 82.171875 M 85.902344 74.1875 L 79.328125 78.558594 M 85.902344 74.1875 L 83.410156 67.410156 M 85.902344 74.1875 L 76.914063 71.542969 M 85.902344 74.1875 L 87.398438 83.714844 M 85.902344 74.1875 L 93.539063 76.953125 M 103.34375 55.460938 L 103.34375 55.460938 M 76.914063 71.542969 L 72.335938 79.558594 "
       id="path126" />
    <path
       style="fill:none;stroke-width:0.819;stroke-linecap:round;stroke-linejoin:round;stroke:rgb(0%,0%,0%);stroke-opacity:1;stroke-miterlimit:4;"
       d="M 76.914063 71.542969 L 76.492188 68.398438 M 76.914063 71.542969 L 79.328125 78.558594 M 76.914063 71.542969 L 83.410156 67.410156 M 76.914063 71.542969 L 85.902344 74.1875 M 76.914063 71.542969 L 76.914063 71.542969 M 82.921875 60.847656 L 76.492188 68.398438 M 82.921875 60.847656 L 83.410156 67.410156 M 82.921875 60.847656 L 82.921875 60.847656 M 108.421875 78.84375 L 105.804688 72.378906 M 108.421875 78.84375 L 100.820313 78.808594 M 108.421875 78.84375 L 108.421875 78.84375 M 87.398438 83.714844 L 77.199219 83.644531 M 87.398438 83.714844 L 88.441406 79.5 M 87.398438 83.714844 L 83.34375 86.976563 M 87.398438 83.714844 L 85.925781 78 M 87.398438 83.714844 L 85.511719 82.171875 M 87.398438 83.714844 L 79.328125 78.558594 M 87.398438 83.714844 L 92.730469 82.484375 M 87.398438 83.714844 L 84.050781 85.878906 M 87.398438 83.714844 L 85.902344 74.1875 M 87.398438 83.714844 L 93.539063 76.953125 M 87.398438 83.714844 L 94.144531 89.226563 M 87.398438 83.714844 L 79.191406 85.8125 M 97.234375 66.539063 L 99.066406 72.175781 M 97.234375 66.539063 L 97.621094 69.25 M 97.234375 66.539063 L 97.234375 66.539063 M 93.539063 76.953125 L 88.441406 79.5 M 93.539063 76.953125 L 85.925781 78 M 93.539063 76.953125 L 85.511719 82.171875 M 93.539063 76.953125 L 99.066406 72.175781 M 93.539063 76.953125 L 97.621094 69.25 M 93.539063 76.953125 L 100.820313 78.808594 M 93.539063 76.953125 L 92.730469 82.484375 M 93.539063 76.953125 L 85.902344 74.1875 M 93.539063 76.953125 L 87.398438 83.714844 M 93.539063 76.953125 L 93.539063 76.953125 M 94.144531 89.226563 L 92.730469 82.484375 M 94.144531 89.226563 L 87.398438 83.714844 M 94.144531 89.226563 L 94.144531 89.226563 M 69.410156 86.09375 L 72.335938 79.558594 M 69.410156 86.09375 L 77.199219 83.644531 M 69.410156 86.09375 L 68.714844 83.984375 M 69.410156 86.09375 L 76.636719 92.539063 M 69.410156 86.09375 L 75.011719 90.367188 M 69.410156 86.09375 L 67.570313 90.894531 M 69.410156 86.09375 L 79.191406 85.8125 M 57.261719 101.707031 L 52.957031 93.546875 M 57.261719 101.707031 L 57.261719 101.707031 M 80.898438 102.363281 L 84.4375 95.167969 M 80.898438 102.363281 L 74.910156 103.734375 M 80.898438 102.363281 L 73.019531 99.742188 M 80.898438 102.363281 L 80.898438 102.363281 M 32.96875 105.332031 L 37.109375 113.382813 M 32.96875 105.332031 L 32.96875 105.332031 M 67.570313 90.894531 L 68.714844 83.984375 M 67.570313 90.894531 L 76.636719 92.539063 M 67.570313 90.894531 L 75.011719 90.367188 M 67.570313 90.894531 L 69.410156 86.09375 M 67.570313 90.894531 L 67.570313 90.894531 M 79.191406 85.8125 L 72.335938 79.558594 M 79.191406 85.8125 L 77.199219 83.644531 M 79.191406 85.8125 L 83.34375 86.976563 M 79.191406 85.8125 L 85.925781 78 "
       id="path128" />
    <path
       style="fill:none;stroke-width:0.819;stroke-linecap:round;stroke-linejoin:round;stroke:rgb(0%,0%,0%);stroke-opacity:1;stroke-miterlimit:4;"
       d="M 79.191406 85.8125 L 85.511719 82.171875 M 79.191406 85.8125 L 76.636719 92.539063 M 79.191406 85.8125 L 79.328125 78.558594 M 79.191406 85.8125 L 75.011719 90.367188 M 79.191406 85.8125 L 84.050781 85.878906 M 79.191406 85.8125 L 87.398438 83.714844 M 79.191406 85.8125 L 69.410156 86.09375 M 79.191406 85.8125 L 79.191406 85.8125 M 60.90625 80.179688 L 68.714844 83.984375 M 60.90625 80.179688 L 63.347656 76.949219 M 60.90625 80.179688 L 60.90625 80.179688 M 69.171875 108.960938 L 74.910156 103.734375 M 69.171875 108.960938 L 73.019531 99.742188 M 69.171875 108.960938 L 69.171875 108.960938 M 38.511719 80.5 L 33.550781 79.023438 M 38.511719 80.5 L 30.859375 76.316406 M 38.511719 80.5 L 31.898438 75.265625 M 38.511719 80.5 L 48.042969 79.050781 M 38.511719 80.5 L 36.621094 73.234375 M 38.511719 80.5 L 44.75 79.648438 M 38.511719 80.5 L 38.558594 81.730469 M 38.511719 80.5 L 41.445313 88.203125 M 38.511719 80.5 L 41.425781 74.761719 M 38.511719 80.5 L 28.984375 81.40625 M 38.511719 80.5 L 43.097656 84.707031 M 38.511719 80.5 L 43.140625 86.101563 M 17.101563 71.214844 L 18.242188 76.550781 M 17.101563 71.214844 L 19.210938 63.332031 M 17.101563 71.214844 L 13.640625 80.128906 M 17.101563 71.214844 L 15.554688 69.742188 M 17.101563 71.214844 L 14.828125 73.671875 M 17.101563 71.214844 L 24.378906 74.660156 M 17.101563 71.214844 L 25.167969 67.304688 M 17.101563 71.214844 L 22.925781 68.109375 M 18.242188 76.550781 L 17.101563 71.214844 M 18.242188 76.550781 L 13.640625 80.128906 M 18.242188 76.550781 L 24.800781 79.238281 M 18.242188 76.550781 L 15.554688 69.742188 M 18.242188 76.550781 L 28.128906 76.15625 M 18.242188 76.550781 L 25.214844 77.664063 M 18.242188 76.550781 L 14.828125 73.671875 M 18.242188 76.550781 L 25.632813 77.289063 M 18.242188 76.550781 L 24.378906 74.660156 M 18.242188 76.550781 L 27.207031 80.375 M 18.242188 76.550781 L 28.019531 74.898438 M 18.242188 76.550781 L 22.925781 68.109375 M 19.210938 63.332031 L 17.101563 71.214844 M 19.210938 63.332031 L 19.964844 59.503906 M 19.210938 63.332031 L 15.554688 69.742188 M 19.210938 63.332031 L 25.167969 67.304688 M 19.210938 63.332031 L 22.925781 68.109375 M 31.007813 64.046875 L 37.328125 67.550781 M 31.007813 64.046875 L 34.300781 62.347656 M 31.007813 64.046875 L 34.367188 62.707031 M 31.007813 64.046875 L 25.167969 67.304688 M 31.007813 64.046875 L 34.964844 66.3125 M 31.007813 64.046875 L 22.925781 68.109375 M 13.640625 80.128906 L 17.101563 71.214844 M 13.640625 80.128906 L 18.242188 76.550781 M 13.640625 80.128906 L 14.828125 73.671875 M 19.964844 59.503906 L 19.210938 63.332031 "
       id="path130" />
    <path
       style="fill:none;stroke-width:0.819;stroke-linecap:round;stroke-linejoin:round;stroke:rgb(0%,0%,0%);stroke-opacity:1;stroke-miterlimit:4;"
       d="M 19.964844 59.503906 L 20.703125 52.78125 M 19.964844 59.503906 L 25.167969 67.304688 M 19.964844 59.503906 L 22.925781 68.109375 M 24.800781 79.238281 L 18.242188 76.550781 M 24.800781 79.238281 L 33.550781 79.023438 M 24.800781 79.238281 L 28.128906 76.15625 M 24.800781 79.238281 L 30.859375 76.316406 M 24.800781 79.238281 L 31.898438 75.265625 M 24.800781 79.238281 L 25.214844 77.664063 M 24.800781 79.238281 L 25.632813 77.289063 M 24.800781 79.238281 L 24.378906 74.660156 M 24.800781 79.238281 L 27.207031 80.375 M 24.800781 79.238281 L 28.917969 74.183594 M 24.800781 79.238281 L 28.984375 81.40625 M 24.800781 79.238281 L 28.019531 74.898438 M 24.800781 79.238281 L 24.632813 84.664063 M 20.703125 52.78125 L 19.964844 59.503906 M 20.703125 52.78125 L 20.703125 52.78125 M 37.328125 67.550781 L 31.007813 64.046875 M 37.328125 67.550781 L 34.300781 62.347656 M 37.328125 67.550781 L 31.898438 75.265625 M 37.328125 67.550781 L 34.367188 62.707031 M 37.328125 67.550781 L 43.066406 71.210938 M 37.328125 67.550781 L 36.621094 73.234375 M 37.328125 67.550781 L 41.425781 74.761719 M 37.328125 67.550781 L 34.964844 66.3125 M 37.328125 67.550781 L 41.246094 68.402344 M 34.300781 62.347656 L 31.007813 64.046875 M 34.300781 62.347656 L 37.328125 67.550781 M 34.300781 62.347656 L 34.367188 62.707031 M 34.300781 62.347656 L 34.964844 66.3125 M 34.300781 62.347656 L 41.246094 68.402344 M 15.554688 69.742188 L 17.101563 71.214844 M 15.554688 69.742188 L 18.242188 76.550781 M 15.554688 69.742188 L 19.210938 63.332031 M 15.554688 69.742188 L 14.828125 73.671875 M 15.554688 69.742188 L 24.378906 74.660156 M 15.554688 69.742188 L 25.167969 67.304688 M 15.554688 69.742188 L 22.925781 68.109375 M 33.550781 79.023438 L 38.511719 80.5 M 33.550781 79.023438 L 24.800781 79.238281 M 33.550781 79.023438 L 28.128906 76.15625 M 33.550781 79.023438 L 30.859375 76.316406 M 33.550781 79.023438 L 31.898438 75.265625 M 33.550781 79.023438 L 25.214844 77.664063 M 33.550781 79.023438 L 25.632813 77.289063 M 33.550781 79.023438 L 36.621094 73.234375 M 33.550781 79.023438 L 24.378906 74.660156 M 33.550781 79.023438 L 38.558594 81.730469 M 33.550781 79.023438 L 27.207031 80.375 M 33.550781 79.023438 L 28.917969 74.183594 M 33.550781 79.023438 L 41.425781 74.761719 M 33.550781 79.023438 L 28.984375 81.40625 M 33.550781 79.023438 L 28.019531 74.898438 M 28.128906 76.15625 L 18.242188 76.550781 M 28.128906 76.15625 L 24.800781 79.238281 M 28.128906 76.15625 L 33.550781 79.023438 M 28.128906 76.15625 L 30.859375 76.316406 M 28.128906 76.15625 L 31.898438 75.265625 M 28.128906 76.15625 L 25.214844 77.664063 M 28.128906 76.15625 L 25.632813 77.289063 "
       id="path132" />
    <path
       style="fill:none;stroke-width:0.819;stroke-linecap:round;stroke-linejoin:round;stroke:rgb(0%,0%,0%);stroke-opacity:1;stroke-miterlimit:4;"
       d="M 28.128906 76.15625 L 36.621094 73.234375 M 28.128906 76.15625 L 24.378906 74.660156 M 28.128906 76.15625 L 25.167969 67.304688 M 28.128906 76.15625 L 27.207031 80.375 M 28.128906 76.15625 L 28.917969 74.183594 M 28.128906 76.15625 L 28.984375 81.40625 M 28.128906 76.15625 L 28.019531 74.898438 M 28.128906 76.15625 L 24.632813 84.664063 M 28.128906 76.15625 L 22.925781 68.109375 M 30.859375 76.316406 L 38.511719 80.5 M 30.859375 76.316406 L 24.800781 79.238281 M 30.859375 76.316406 L 33.550781 79.023438 M 30.859375 76.316406 L 28.128906 76.15625 M 30.859375 76.316406 L 31.898438 75.265625 M 30.859375 76.316406 L 25.214844 77.664063 M 30.859375 76.316406 L 25.632813 77.289063 M 30.859375 76.316406 L 36.621094 73.234375 M 30.859375 76.316406 L 24.378906 74.660156 M 30.859375 76.316406 L 38.558594 81.730469 M 30.859375 76.316406 L 27.207031 80.375 M 30.859375 76.316406 L 28.917969 74.183594 M 30.859375 76.316406 L 28.984375 81.40625 M 30.859375 76.316406 L 28.019531 74.898438 M 31.898438 75.265625 L 38.511719 80.5 M 31.898438 75.265625 L 24.800781 79.238281 M 31.898438 75.265625 L 37.328125 67.550781 M 31.898438 75.265625 L 33.550781 79.023438 M 31.898438 75.265625 L 28.128906 76.15625 M 31.898438 75.265625 L 30.859375 76.316406 M 31.898438 75.265625 L 25.214844 77.664063 M 31.898438 75.265625 L 25.632813 77.289063 M 31.898438 75.265625 L 36.621094 73.234375 M 31.898438 75.265625 L 24.378906 74.660156 M 31.898438 75.265625 L 38.558594 81.730469 M 31.898438 75.265625 L 27.207031 80.375 M 31.898438 75.265625 L 28.917969 74.183594 M 31.898438 75.265625 L 41.425781 74.761719 M 31.898438 75.265625 L 34.964844 66.3125 M 31.898438 75.265625 L 28.984375 81.40625 M 31.898438 75.265625 L 28.019531 74.898438 M 48.042969 79.050781 L 52.867188 87.621094 M 48.042969 79.050781 L 38.511719 80.5 M 48.042969 79.050781 L 43.066406 71.210938 M 48.042969 79.050781 L 44.75 79.648438 M 48.042969 79.050781 L 38.558594 81.730469 M 48.042969 79.050781 L 41.425781 74.761719 M 48.042969 79.050781 L 43.097656 84.707031 M 48.042969 79.050781 L 43.140625 86.101563 M 25.214844 77.664063 L 18.242188 76.550781 M 25.214844 77.664063 L 24.800781 79.238281 M 25.214844 77.664063 L 33.550781 79.023438 M 25.214844 77.664063 L 28.128906 76.15625 M 25.214844 77.664063 L 30.859375 76.316406 M 25.214844 77.664063 L 31.898438 75.265625 M 25.214844 77.664063 L 25.632813 77.289063 M 25.214844 77.664063 L 24.378906 74.660156 M 25.214844 77.664063 L 27.207031 80.375 M 25.214844 77.664063 L 28.917969 74.183594 M 25.214844 77.664063 L 28.984375 81.40625 M 25.214844 77.664063 L 28.019531 74.898438 M 25.214844 77.664063 L 24.632813 84.664063 M 25.214844 77.664063 L 22.925781 68.109375 "
       id="path134" />
    <path
       style="fill:none;stroke-width:0.819;stroke-linecap:round;stroke-linejoin:round;stroke:rgb(0%,0%,0%);stroke-opacity:1;stroke-miterlimit:4;"
       d="M 34.367188 62.707031 L 31.007813 64.046875 M 34.367188 62.707031 L 37.328125 67.550781 M 34.367188 62.707031 L 34.300781 62.347656 M 34.367188 62.707031 L 25.167969 67.304688 M 34.367188 62.707031 L 34.964844 66.3125 M 34.367188 62.707031 L 41.246094 68.402344 M 14.828125 73.671875 L 17.101563 71.214844 M 14.828125 73.671875 L 18.242188 76.550781 M 14.828125 73.671875 L 13.640625 80.128906 M 14.828125 73.671875 L 15.554688 69.742188 M 14.828125 73.671875 L 24.378906 74.660156 M 14.828125 73.671875 L 22.925781 68.109375 M 25.632813 77.289063 L 18.242188 76.550781 M 25.632813 77.289063 L 24.800781 79.238281 M 25.632813 77.289063 L 33.550781 79.023438 M 25.632813 77.289063 L 28.128906 76.15625 M 25.632813 77.289063 L 30.859375 76.316406 M 25.632813 77.289063 L 31.898438 75.265625 M 25.632813 77.289063 L 25.214844 77.664063 M 25.632813 77.289063 L 24.378906 74.660156 M 25.632813 77.289063 L 25.167969 67.304688 M 25.632813 77.289063 L 27.207031 80.375 M 25.632813 77.289063 L 28.917969 74.183594 M 25.632813 77.289063 L 28.984375 81.40625 M 25.632813 77.289063 L 28.019531 74.898438 M 25.632813 77.289063 L 24.632813 84.664063 M 25.632813 77.289063 L 22.925781 68.109375 M 43.066406 71.210938 L 37.328125 67.550781 M 43.066406 71.210938 L 48.042969 79.050781 M 43.066406 71.210938 L 36.621094 73.234375 M 43.066406 71.210938 L 44.75 79.648438 M 43.066406 71.210938 L 41.425781 74.761719 M 43.066406 71.210938 L 34.964844 66.3125 M 43.066406 71.210938 L 41.246094 68.402344 M 36.621094 73.234375 L 38.511719 80.5 M 36.621094 73.234375 L 37.328125 67.550781 M 36.621094 73.234375 L 33.550781 79.023438 M 36.621094 73.234375 L 28.128906 76.15625 M 36.621094 73.234375 L 30.859375 76.316406 M 36.621094 73.234375 L 31.898438 75.265625 M 36.621094 73.234375 L 43.066406 71.210938 M 36.621094 73.234375 L 38.558594 81.730469 M 36.621094 73.234375 L 28.917969 74.183594 M 36.621094 73.234375 L 41.425781 74.761719 M 36.621094 73.234375 L 34.964844 66.3125 M 36.621094 73.234375 L 41.246094 68.402344 M 36.621094 73.234375 L 28.019531 74.898438 M 44.75 79.648438 L 38.511719 80.5 M 44.75 79.648438 L 48.042969 79.050781 M 44.75 79.648438 L 43.066406 71.210938 M 44.75 79.648438 L 38.558594 81.730469 M 44.75 79.648438 L 41.445313 88.203125 M 44.75 79.648438 L 41.425781 74.761719 M 44.75 79.648438 L 43.097656 84.707031 M 44.75 79.648438 L 43.140625 86.101563 M 24.378906 74.660156 L 17.101563 71.214844 M 24.378906 74.660156 L 18.242188 76.550781 M 24.378906 74.660156 L 24.800781 79.238281 M 24.378906 74.660156 L 15.554688 69.742188 M 24.378906 74.660156 L 33.550781 79.023438 M 24.378906 74.660156 L 28.128906 76.15625 "
       id="path136" />
    <path
       style="fill:none;stroke-width:0.819;stroke-linecap:round;stroke-linejoin:round;stroke:rgb(0%,0%,0%);stroke-opacity:1;stroke-miterlimit:4;"
       d="M 24.378906 74.660156 L 30.859375 76.316406 M 24.378906 74.660156 L 31.898438 75.265625 M 24.378906 74.660156 L 25.214844 77.664063 M 24.378906 74.660156 L 14.828125 73.671875 M 24.378906 74.660156 L 25.632813 77.289063 M 24.378906 74.660156 L 25.167969 67.304688 M 24.378906 74.660156 L 27.207031 80.375 M 24.378906 74.660156 L 28.917969 74.183594 M 24.378906 74.660156 L 28.984375 81.40625 M 24.378906 74.660156 L 28.019531 74.898438 M 24.378906 74.660156 L 24.632813 84.664063 M 24.378906 74.660156 L 22.925781 68.109375 M 25.167969 67.304688 L 17.101563 71.214844 M 25.167969 67.304688 L 19.210938 63.332031 M 25.167969 67.304688 L 31.007813 64.046875 M 25.167969 67.304688 L 19.964844 59.503906 M 25.167969 67.304688 L 15.554688 69.742188 M 25.167969 67.304688 L 28.128906 76.15625 M 25.167969 67.304688 L 34.367188 62.707031 M 25.167969 67.304688 L 25.632813 77.289063 M 25.167969 67.304688 L 24.378906 74.660156 M 25.167969 67.304688 L 28.917969 74.183594 M 25.167969 67.304688 L 34.964844 66.3125 M 25.167969 67.304688 L 28.019531 74.898438 M 25.167969 67.304688 L 22.925781 68.109375 M 38.558594 81.730469 L 38.511719 80.5 M 38.558594 81.730469 L 33.550781 79.023438 M 38.558594 81.730469 L 30.859375 76.316406 M 38.558594 81.730469 L 31.898438 75.265625 M 38.558594 81.730469 L 48.042969 79.050781 M 38.558594 81.730469 L 36.621094 73.234375 M 38.558594 81.730469 L 44.75 79.648438 M 38.558594 81.730469 L 41.445313 88.203125 M 38.558594 81.730469 L 41.425781 74.761719 M 38.558594 81.730469 L 28.984375 81.40625 M 38.558594 81.730469 L 43.097656 84.707031 M 38.558594 81.730469 L 43.140625 86.101563 M 41.445313 88.203125 L 38.511719 80.5 M 41.445313 88.203125 L 44.75 79.648438 M 41.445313 88.203125 L 38.558594 81.730469 M 41.445313 88.203125 L 43.097656 84.707031 M 41.445313 88.203125 L 43.140625 86.101563 M 27.207031 80.375 L 18.242188 76.550781 M 27.207031 80.375 L 24.800781 79.238281 M 27.207031 80.375 L 33.550781 79.023438 M 27.207031 80.375 L 28.128906 76.15625 M 27.207031 80.375 L 30.859375 76.316406 M 27.207031 80.375 L 31.898438 75.265625 M 27.207031 80.375 L 25.214844 77.664063 M 27.207031 80.375 L 25.632813 77.289063 M 27.207031 80.375 L 24.378906 74.660156 M 27.207031 80.375 L 28.917969 74.183594 M 27.207031 80.375 L 28.984375 81.40625 M 27.207031 80.375 L 28.019531 74.898438 M 27.207031 80.375 L 24.632813 84.664063 M 28.917969 74.183594 L 24.800781 79.238281 M 28.917969 74.183594 L 33.550781 79.023438 M 28.917969 74.183594 L 28.128906 76.15625 M 28.917969 74.183594 L 30.859375 76.316406 M 28.917969 74.183594 L 31.898438 75.265625 M 28.917969 74.183594 L 25.214844 77.664063 M 28.917969 74.183594 L 25.632813 77.289063 "
       id="path138" />
    <path
       style="fill:none;stroke-width:0.819;stroke-linecap:round;stroke-linejoin:round;stroke:rgb(0%,0%,0%);stroke-opacity:1;stroke-miterlimit:4;"
       d="M 28.917969 74.183594 L 36.621094 73.234375 M 28.917969 74.183594 L 24.378906 74.660156 M 28.917969 74.183594 L 25.167969 67.304688 M 28.917969 74.183594 L 27.207031 80.375 M 28.917969 74.183594 L 34.964844 66.3125 M 28.917969 74.183594 L 28.984375 81.40625 M 28.917969 74.183594 L 28.019531 74.898438 M 28.917969 74.183594 L 22.925781 68.109375 M 41.425781 74.761719 L 38.511719 80.5 M 41.425781 74.761719 L 37.328125 67.550781 M 41.425781 74.761719 L 33.550781 79.023438 M 41.425781 74.761719 L 31.898438 75.265625 M 41.425781 74.761719 L 48.042969 79.050781 M 41.425781 74.761719 L 43.066406 71.210938 M 41.425781 74.761719 L 36.621094 73.234375 M 41.425781 74.761719 L 44.75 79.648438 M 41.425781 74.761719 L 38.558594 81.730469 M 41.425781 74.761719 L 41.246094 68.402344 M 41.425781 74.761719 L 43.097656 84.707031 M 34.964844 66.3125 L 31.007813 64.046875 M 34.964844 66.3125 L 37.328125 67.550781 M 34.964844 66.3125 L 34.300781 62.347656 M 34.964844 66.3125 L 31.898438 75.265625 M 34.964844 66.3125 L 34.367188 62.707031 M 34.964844 66.3125 L 43.066406 71.210938 M 34.964844 66.3125 L 36.621094 73.234375 M 34.964844 66.3125 L 25.167969 67.304688 M 34.964844 66.3125 L 28.917969 74.183594 M 34.964844 66.3125 L 41.246094 68.402344 M 28.984375 81.40625 L 38.511719 80.5 M 28.984375 81.40625 L 24.800781 79.238281 M 28.984375 81.40625 L 33.550781 79.023438 M 28.984375 81.40625 L 28.128906 76.15625 M 28.984375 81.40625 L 30.859375 76.316406 M 28.984375 81.40625 L 31.898438 75.265625 M 28.984375 81.40625 L 25.214844 77.664063 M 28.984375 81.40625 L 25.632813 77.289063 M 28.984375 81.40625 L 24.378906 74.660156 M 28.984375 81.40625 L 38.558594 81.730469 M 28.984375 81.40625 L 27.207031 80.375 M 28.984375 81.40625 L 28.917969 74.183594 M 28.984375 81.40625 L 28.019531 74.898438 M 28.984375 81.40625 L 24.632813 84.664063 M 41.246094 68.402344 L 37.328125 67.550781 M 41.246094 68.402344 L 34.300781 62.347656 M 41.246094 68.402344 L 34.367188 62.707031 M 41.246094 68.402344 L 43.066406 71.210938 M 41.246094 68.402344 L 36.621094 73.234375 M 41.246094 68.402344 L 41.425781 74.761719 M 41.246094 68.402344 L 34.964844 66.3125 M 41.246094 68.402344 L 41.246094 68.402344 M 43.097656 84.707031 L 52.867188 87.621094 M 43.097656 84.707031 L 38.511719 80.5 M 43.097656 84.707031 L 48.042969 79.050781 M 43.097656 84.707031 L 44.75 79.648438 M 43.097656 84.707031 L 38.558594 81.730469 M 43.097656 84.707031 L 41.445313 88.203125 M 43.097656 84.707031 L 41.425781 74.761719 M 43.097656 84.707031 L 43.140625 86.101563 M 28.019531 74.898438 L 18.242188 76.550781 M 28.019531 74.898438 L 24.800781 79.238281 M 28.019531 74.898438 L 33.550781 79.023438 "
       id="path140" />
    <path
       style="fill:none;stroke-width:0.819;stroke-linecap:round;stroke-linejoin:round;stroke:rgb(0%,0%,0%);stroke-opacity:1;stroke-miterlimit:4;"
       d="M 28.019531 74.898438 L 28.128906 76.15625 M 28.019531 74.898438 L 30.859375 76.316406 M 28.019531 74.898438 L 31.898438 75.265625 M 28.019531 74.898438 L 25.214844 77.664063 M 28.019531 74.898438 L 25.632813 77.289063 M 28.019531 74.898438 L 36.621094 73.234375 M 28.019531 74.898438 L 24.378906 74.660156 M 28.019531 74.898438 L 25.167969 67.304688 M 28.019531 74.898438 L 27.207031 80.375 M 28.019531 74.898438 L 28.917969 74.183594 M 28.019531 74.898438 L 28.984375 81.40625 M 28.019531 74.898438 L 22.925781 68.109375 M 43.140625 86.101563 L 52.867188 87.621094 M 43.140625 86.101563 L 38.511719 80.5 M 43.140625 86.101563 L 48.042969 79.050781 M 43.140625 86.101563 L 44.75 79.648438 M 43.140625 86.101563 L 38.558594 81.730469 M 43.140625 86.101563 L 41.445313 88.203125 M 43.140625 86.101563 L 43.097656 84.707031 M 43.140625 86.101563 L 43.140625 86.101563 M 24.632813 84.664063 L 24.800781 79.238281 M 24.632813 84.664063 L 28.128906 76.15625 M 24.632813 84.664063 L 25.214844 77.664063 M 24.632813 84.664063 L 25.632813 77.289063 M 24.632813 84.664063 L 24.378906 74.660156 M 24.632813 84.664063 L 27.207031 80.375 M 24.632813 84.664063 L 28.984375 81.40625 M 24.632813 84.664063 L 24.632813 84.664063 M 22.925781 68.109375 L 17.101563 71.214844 M 22.925781 68.109375 L 18.242188 76.550781 M 22.925781 68.109375 L 19.210938 63.332031 M 22.925781 68.109375 L 31.007813 64.046875 M 22.925781 68.109375 L 19.964844 59.503906 M 22.925781 68.109375 L 15.554688 69.742188 M 22.925781 68.109375 L 28.128906 76.15625 M 22.925781 68.109375 L 25.214844 77.664063 M 22.925781 68.109375 L 14.828125 73.671875 M 22.925781 68.109375 L 25.632813 77.289063 M 22.925781 68.109375 L 24.378906 74.660156 M 22.925781 68.109375 L 25.167969 67.304688 M 22.925781 68.109375 L 28.917969 74.183594 M 22.925781 68.109375 L 28.019531 74.898438 M 22.925781 68.109375 L 22.925781 68.109375 M 29.425781 33.730469 L 22.5625 29.226563 M 29.425781 33.730469 L 24.179688 31.53125 M 29.425781 33.730469 L 34.414063 28.703125 M 29.425781 33.730469 L 28.230469 24.019531 M 29.425781 33.730469 L 26.734375 26 M 29.425781 33.730469 L 22.027344 29.261719 M 29.425781 33.730469 L 37.09375 33.296875 M 45.820313 24.730469 L 51.347656 30.089844 M 45.820313 24.730469 L 52.382813 25.601563 M 45.820313 24.730469 L 46.585938 30.691406 M 45.820313 24.730469 L 50.109375 32.289063 M 45.820313 24.730469 L 48.589844 32.238281 M 45.820313 24.730469 L 45.570313 30.742188 M 45.820313 24.730469 L 46.84375 31.996094 M 45.820313 24.730469 L 47.78125 28.6875 M 45.820313 24.730469 L 41.398438 29.742188 M 45.820313 24.730469 L 52.789063 24.128906 M 45.820313 24.730469 L 39.75 28.097656 M 45.820313 24.730469 L 39.421875 29.847656 M 61.628906 33.640625 L 61.628906 33.640625 "
       id="path142" />
    <path
       style="fill:none;stroke-width:0.819;stroke-linecap:round;stroke-linejoin:round;stroke:rgb(0%,0%,0%);stroke-opacity:1;stroke-miterlimit:4;"
       d="M 61.628906 33.640625 L 53.957031 34.347656 M 61.628906 33.640625 L 68.886719 37.246094 M 61.628906 33.640625 L 63.222656 32.570313 M 61.628906 33.640625 L 51.726563 36.496094 M 61.628906 33.640625 L 60.558594 33.371094 M 61.628906 33.640625 L 61.109375 29.933594 M 61.628906 33.640625 L 62.183594 28.21875 M 61.628906 33.640625 L 55.125 33.449219 M 61.628906 33.640625 L 68.355469 29.460938 M 61.628906 33.640625 L 52.476563 35.277344 M 61.628906 33.640625 L 55.421875 36.445313 M 93.429688 27.996094 L 90.226563 30.855469 M 93.429688 27.996094 L 85.195313 33.4375 M 82.859375 33.421875 L 75.675781 32.308594 M 82.859375 33.421875 L 77.246094 39.234375 M 82.859375 33.421875 L 90.226563 30.855469 M 82.859375 33.421875 L 76.597656 33.839844 M 82.859375 33.421875 L 79.207031 34.867188 M 82.859375 33.421875 L 85.195313 33.4375 M 82.859375 33.421875 L 77 34.035156 M 82.859375 33.421875 L 81.347656 27.292969 M 82.859375 33.421875 L 80.09375 34.28125 M 82.859375 33.421875 L 75.503906 29.277344 M 22.5625 29.226563 L 29.425781 33.730469 M 22.5625 29.226563 L 14.003906 23.902344 M 22.5625 29.226563 L 24.179688 31.53125 M 22.5625 29.226563 L 28.230469 24.019531 M 22.5625 29.226563 L 26.734375 26 M 22.5625 29.226563 L 22.027344 29.261719 M 22.5625 29.226563 L 15.617188 35.371094 M 51.347656 30.089844 L 45.820313 24.730469 M 51.347656 30.089844 L 53.957031 34.347656 M 51.347656 30.089844 L 51.726563 36.496094 M 51.347656 30.089844 L 60.558594 33.371094 M 51.347656 30.089844 L 52.382813 25.601563 M 51.347656 30.089844 L 46.585938 30.691406 M 51.347656 30.089844 L 50.109375 32.289063 M 51.347656 30.089844 L 51.796875 38.46875 M 51.347656 30.089844 L 48.589844 32.238281 M 51.347656 30.089844 L 45.570313 30.742188 M 51.347656 30.089844 L 61.109375 29.933594 M 51.347656 30.089844 L 46.84375 31.996094 M 51.347656 30.089844 L 55.125 33.449219 M 51.347656 30.089844 L 47.78125 28.6875 M 51.347656 30.089844 L 41.398438 29.742188 M 51.347656 30.089844 L 52.476563 35.277344 M 51.347656 30.089844 L 52.789063 24.128906 M 51.347656 30.089844 L 56.1875 24.03125 M 51.347656 30.089844 L 47.050781 37.089844 M 51.347656 30.089844 L 55.421875 36.445313 M 75.675781 32.308594 L 82.859375 33.421875 M 75.675781 32.308594 L 77.246094 39.234375 M 75.675781 32.308594 L 68.886719 37.246094 M 75.675781 32.308594 L 72.820313 27.433594 M 75.675781 32.308594 L 76.597656 33.839844 M 75.675781 32.308594 L 79.207031 34.867188 M 75.675781 32.308594 L 85.195313 33.4375 M 75.675781 32.308594 L 77 34.035156 M 75.675781 32.308594 L 81.347656 27.292969 M 75.675781 32.308594 L 80.09375 34.28125 M 75.675781 32.308594 L 68.355469 29.460938 M 75.675781 32.308594 L 75.503906 29.277344 "
       id="path144" />
    <path
       style="fill:none;stroke-width:0.819;stroke-linecap:round;stroke-linejoin:round;stroke:rgb(0%,0%,0%);stroke-opacity:1;stroke-miterlimit:4;"
       d="M 77.246094 39.234375 L 82.859375 33.421875 M 77.246094 39.234375 L 75.675781 32.308594 M 77.246094 39.234375 L 68.886719 37.246094 M 77.246094 39.234375 L 76.597656 33.839844 M 77.246094 39.234375 L 79.207031 34.867188 M 77.246094 39.234375 L 85.195313 33.4375 M 77.246094 39.234375 L 77 34.035156 M 77.246094 39.234375 L 80.09375 34.28125 M 77.246094 39.234375 L 75.503906 29.277344 M 14.003906 23.902344 L 22.5625 29.226563 M 14.003906 23.902344 L 22.027344 29.261719 M 13.195313 38.035156 L 8.863281 36.0625 M 13.195313 38.035156 L 14.460938 38.691406 M 13.195313 38.035156 L 15.617188 35.371094 M 53.957031 34.347656 L 61.628906 33.640625 M 53.957031 34.347656 L 51.347656 30.089844 M 53.957031 34.347656 L 63.222656 32.570313 M 53.957031 34.347656 L 51.726563 36.496094 M 53.957031 34.347656 L 60.558594 33.371094 M 53.957031 34.347656 L 52.382813 25.601563 M 53.957031 34.347656 L 46.585938 30.691406 M 53.957031 34.347656 L 50.109375 32.289063 M 53.957031 34.347656 L 51.796875 38.46875 M 53.957031 34.347656 L 48.589844 32.238281 M 53.957031 34.347656 L 45.570313 30.742188 M 53.957031 34.347656 L 61.109375 29.933594 M 53.957031 34.347656 L 46.84375 31.996094 M 53.957031 34.347656 L 62.183594 28.21875 M 53.957031 34.347656 L 55.125 33.449219 M 53.957031 34.347656 L 47.78125 28.6875 M 53.957031 34.347656 L 52.476563 35.277344 M 53.957031 34.347656 L 52.789063 24.128906 M 53.957031 34.347656 L 47.050781 37.089844 M 53.957031 34.347656 L 55.421875 36.445313 M 68.886719 37.246094 L 61.628906 33.640625 M 68.886719 37.246094 L 75.675781 32.308594 M 68.886719 37.246094 L 77.246094 39.234375 M 68.886719 37.246094 L 63.222656 32.570313 M 68.886719 37.246094 L 60.558594 33.371094 M 68.886719 37.246094 L 76.597656 33.839844 M 68.886719 37.246094 L 77 34.035156 M 68.886719 37.246094 L 68.355469 29.460938 M 90.226563 30.855469 L 93.429688 27.996094 M 90.226563 30.855469 L 82.859375 33.421875 M 90.226563 30.855469 L 85.195313 33.4375 M 90.226563 30.855469 L 81.347656 27.292969 M 63.222656 32.570313 L 61.628906 33.640625 M 63.222656 32.570313 L 53.957031 34.347656 M 63.222656 32.570313 L 68.886719 37.246094 M 63.222656 32.570313 L 60.558594 33.371094 M 63.222656 32.570313 L 61.109375 29.933594 M 63.222656 32.570313 L 62.183594 28.21875 M 63.222656 32.570313 L 55.125 33.449219 M 63.222656 32.570313 L 68.355469 29.460938 M 63.222656 32.570313 L 55.421875 36.445313 M 24.179688 31.53125 L 29.425781 33.730469 M 24.179688 31.53125 L 22.5625 29.226563 M 24.179688 31.53125 L 28.230469 24.019531 M 24.179688 31.53125 L 26.734375 26 M 24.179688 31.53125 L 22.027344 29.261719 "
       id="path146" />
    <path
       style="fill:none;stroke-width:0.819;stroke-linecap:round;stroke-linejoin:round;stroke:rgb(0%,0%,0%);stroke-opacity:1;stroke-miterlimit:4;"
       d="M 24.179688 31.53125 L 15.617188 35.371094 M 51.726563 36.496094 L 61.628906 33.640625 M 51.726563 36.496094 L 51.347656 30.089844 M 51.726563 36.496094 L 53.957031 34.347656 M 51.726563 36.496094 L 60.558594 33.371094 M 51.726563 36.496094 L 46.585938 30.691406 M 51.726563 36.496094 L 50.109375 32.289063 M 51.726563 36.496094 L 51.796875 38.46875 M 51.726563 36.496094 L 48.589844 32.238281 M 51.726563 36.496094 L 45.570313 30.742188 M 51.726563 36.496094 L 46.84375 31.996094 M 51.726563 36.496094 L 55.125 33.449219 M 51.726563 36.496094 L 47.78125 28.6875 M 51.726563 36.496094 L 52.476563 35.277344 M 51.726563 36.496094 L 45.496094 41.535156 M 51.726563 36.496094 L 47.050781 37.089844 M 51.726563 36.496094 L 55.421875 36.445313 M 34.414063 28.703125 L 29.425781 33.730469 M 34.414063 28.703125 L 28.230469 24.019531 M 34.414063 28.703125 L 26.734375 26 M 34.414063 28.703125 L 41.398438 29.742188 M 34.414063 28.703125 L 37.09375 33.296875 M 34.414063 28.703125 L 39.75 28.097656 M 34.414063 28.703125 L 39.421875 29.847656 M 34.414063 28.703125 L 31.953125 20.398438 M 8.863281 36.0625 L 13.195313 38.035156 M 8.863281 36.0625 L 14.460938 38.691406 M 8.863281 36.0625 L 15.617188 35.371094 M 60.558594 33.371094 L 61.628906 33.640625 M 60.558594 33.371094 L 51.347656 30.089844 M 60.558594 33.371094 L 53.957031 34.347656 M 60.558594 33.371094 L 68.886719 37.246094 M 60.558594 33.371094 L 63.222656 32.570313 M 60.558594 33.371094 L 51.726563 36.496094 M 60.558594 33.371094 L 51.796875 38.46875 M 60.558594 33.371094 L 61.109375 29.933594 M 60.558594 33.371094 L 62.183594 28.21875 M 60.558594 33.371094 L 55.125 33.449219 M 60.558594 33.371094 L 68.355469 29.460938 M 60.558594 33.371094 L 52.476563 35.277344 M 60.558594 33.371094 L 56.1875 24.03125 M 60.558594 33.371094 L 55.421875 36.445313 M 28.230469 24.019531 L 29.425781 33.730469 M 28.230469 24.019531 L 22.5625 29.226563 M 28.230469 24.019531 L 24.179688 31.53125 M 28.230469 24.019531 L 34.414063 28.703125 M 28.230469 24.019531 L 26.734375 26 M 28.230469 24.019531 L 22.027344 29.261719 M 28.230469 24.019531 L 31.953125 20.398438 M 52.382813 25.601563 L 45.820313 24.730469 M 52.382813 25.601563 L 51.347656 30.089844 M 52.382813 25.601563 L 53.957031 34.347656 M 52.382813 25.601563 L 46.585938 30.691406 M 52.382813 25.601563 L 50.109375 32.289063 M 52.382813 25.601563 L 48.589844 32.238281 M 52.382813 25.601563 L 45.570313 30.742188 M 52.382813 25.601563 L 61.109375 29.933594 M 52.382813 25.601563 L 46.84375 31.996094 M 52.382813 25.601563 L 62.183594 28.21875 M 52.382813 25.601563 L 55.125 33.449219 M 52.382813 25.601563 L 47.78125 28.6875 "
       id="path148" />
    <path
       style="fill:none;stroke-width:0.819;stroke-linecap:round;stroke-linejoin:round;stroke:rgb(0%,0%,0%);stroke-opacity:1;stroke-miterlimit:4;"
       d="M 52.382813 25.601563 L 52.476563 35.277344 M 52.382813 25.601563 L 52.789063 24.128906 M 52.382813 25.601563 L 56.1875 24.03125 M 46.585938 30.691406 L 45.820313 24.730469 M 46.585938 30.691406 L 51.347656 30.089844 M 46.585938 30.691406 L 53.957031 34.347656 M 46.585938 30.691406 L 51.726563 36.496094 M 46.585938 30.691406 L 52.382813 25.601563 M 46.585938 30.691406 L 50.109375 32.289063 M 46.585938 30.691406 L 51.796875 38.46875 M 46.585938 30.691406 L 48.589844 32.238281 M 46.585938 30.691406 L 45.570313 30.742188 M 46.585938 30.691406 L 46.84375 31.996094 M 46.585938 30.691406 L 55.125 33.449219 M 46.585938 30.691406 L 47.78125 28.6875 M 46.585938 30.691406 L 41.398438 29.742188 M 46.585938 30.691406 L 37.09375 33.296875 M 46.585938 30.691406 L 52.476563 35.277344 M 46.585938 30.691406 L 52.789063 24.128906 M 46.585938 30.691406 L 39.75 28.097656 M 46.585938 30.691406 L 47.050781 37.089844 M 46.585938 30.691406 L 39.421875 29.847656 M 50.109375 32.289063 L 45.820313 24.730469 M 50.109375 32.289063 L 51.347656 30.089844 M 50.109375 32.289063 L 53.957031 34.347656 M 50.109375 32.289063 L 51.726563 36.496094 M 50.109375 32.289063 L 52.382813 25.601563 M 50.109375 32.289063 L 46.585938 30.691406 M 50.109375 32.289063 L 51.796875 38.46875 M 50.109375 32.289063 L 48.589844 32.238281 M 50.109375 32.289063 L 45.570313 30.742188 M 50.109375 32.289063 L 46.84375 31.996094 M 50.109375 32.289063 L 55.125 33.449219 M 50.109375 32.289063 L 47.78125 28.6875 M 50.109375 32.289063 L 41.398438 29.742188 M 50.109375 32.289063 L 52.476563 35.277344 M 50.109375 32.289063 L 52.789063 24.128906 M 50.109375 32.289063 L 56.1875 24.03125 M 50.109375 32.289063 L 47.050781 37.089844 M 50.109375 32.289063 L 55.421875 36.445313 M 51.796875 38.46875 L 51.347656 30.089844 M 51.796875 38.46875 L 53.957031 34.347656 M 51.796875 38.46875 L 51.726563 36.496094 M 51.796875 38.46875 L 60.558594 33.371094 M 51.796875 38.46875 L 46.585938 30.691406 M 51.796875 38.46875 L 50.109375 32.289063 M 51.796875 38.46875 L 48.589844 32.238281 M 51.796875 38.46875 L 45.570313 30.742188 M 51.796875 38.46875 L 46.84375 31.996094 M 51.796875 38.46875 L 55.125 33.449219 M 51.796875 38.46875 L 52.476563 35.277344 M 51.796875 38.46875 L 45.496094 41.535156 M 51.796875 38.46875 L 47.050781 37.089844 M 51.796875 38.46875 L 55.421875 36.445313 M 72.820313 27.433594 L 75.675781 32.308594 M 72.820313 27.433594 L 76.597656 33.839844 M 72.820313 27.433594 L 79.207031 34.867188 M 72.820313 27.433594 L 77 34.035156 M 72.820313 27.433594 L 81.347656 27.292969 M 72.820313 27.433594 L 80.09375 34.28125 M 72.820313 27.433594 L 68.355469 29.460938 "
       id="path150" />
    <path
       style="fill:none;stroke-width:0.819;stroke-linecap:round;stroke-linejoin:round;stroke:rgb(0%,0%,0%);stroke-opacity:1;stroke-miterlimit:4;"
       d="M 72.820313 27.433594 L 75.503906 29.277344 M 48.589844 32.238281 L 45.820313 24.730469 M 48.589844 32.238281 L 51.347656 30.089844 M 48.589844 32.238281 L 53.957031 34.347656 M 48.589844 32.238281 L 51.726563 36.496094 M 48.589844 32.238281 L 52.382813 25.601563 M 48.589844 32.238281 L 46.585938 30.691406 M 48.589844 32.238281 L 50.109375 32.289063 M 48.589844 32.238281 L 51.796875 38.46875 M 48.589844 32.238281 L 45.570313 30.742188 M 48.589844 32.238281 L 46.84375 31.996094 M 48.589844 32.238281 L 55.125 33.449219 M 48.589844 32.238281 L 47.78125 28.6875 M 48.589844 32.238281 L 41.398438 29.742188 M 48.589844 32.238281 L 52.476563 35.277344 M 48.589844 32.238281 L 45.496094 41.535156 M 48.589844 32.238281 L 52.789063 24.128906 M 48.589844 32.238281 L 39.75 28.097656 M 48.589844 32.238281 L 47.050781 37.089844 M 48.589844 32.238281 L 55.421875 36.445313 M 48.589844 32.238281 L 39.421875 29.847656 M 76.597656 33.839844 L 82.859375 33.421875 M 76.597656 33.839844 L 75.675781 32.308594 M 76.597656 33.839844 L 77.246094 39.234375 M 76.597656 33.839844 L 68.886719 37.246094 M 76.597656 33.839844 L 72.820313 27.433594 M 76.597656 33.839844 L 79.207031 34.867188 M 76.597656 33.839844 L 85.195313 33.4375 M 76.597656 33.839844 L 77 34.035156 M 76.597656 33.839844 L 81.347656 27.292969 M 76.597656 33.839844 L 80.09375 34.28125 M 76.597656 33.839844 L 68.355469 29.460938 M 76.597656 33.839844 L 75.503906 29.277344 M 45.570313 30.742188 L 45.820313 24.730469 M 45.570313 30.742188 L 51.347656 30.089844 M 45.570313 30.742188 L 53.957031 34.347656 M 45.570313 30.742188 L 51.726563 36.496094 M 45.570313 30.742188 L 52.382813 25.601563 M 45.570313 30.742188 L 46.585938 30.691406 M 45.570313 30.742188 L 50.109375 32.289063 M 45.570313 30.742188 L 51.796875 38.46875 M 45.570313 30.742188 L 48.589844 32.238281 M 45.570313 30.742188 L 46.84375 31.996094 M 45.570313 30.742188 L 55.125 33.449219 M 45.570313 30.742188 L 47.78125 28.6875 M 45.570313 30.742188 L 41.398438 29.742188 M 45.570313 30.742188 L 37.09375 33.296875 M 45.570313 30.742188 L 52.476563 35.277344 M 45.570313 30.742188 L 52.789063 24.128906 M 45.570313 30.742188 L 39.75 28.097656 M 45.570313 30.742188 L 47.050781 37.089844 M 45.570313 30.742188 L 39.421875 29.847656 M 61.109375 29.933594 L 61.628906 33.640625 M 61.109375 29.933594 L 51.347656 30.089844 M 61.109375 29.933594 L 53.957031 34.347656 M 61.109375 29.933594 L 63.222656 32.570313 M 61.109375 29.933594 L 60.558594 33.371094 M 61.109375 29.933594 L 52.382813 25.601563 M 61.109375 29.933594 L 62.183594 28.21875 M 61.109375 29.933594 L 55.125 33.449219 M 61.109375 29.933594 L 68.355469 29.460938 M 61.109375 29.933594 L 52.476563 35.277344 "
       id="path152" />
    <path
       style="fill:none;stroke-width:0.819;stroke-linecap:round;stroke-linejoin:round;stroke:rgb(0%,0%,0%);stroke-opacity:1;stroke-miterlimit:4;"
       d="M 61.109375 29.933594 L 52.789063 24.128906 M 61.109375 29.933594 L 56.1875 24.03125 M 61.109375 29.933594 L 55.421875 36.445313 M 46.84375 31.996094 L 45.820313 24.730469 M 46.84375 31.996094 L 51.347656 30.089844 M 46.84375 31.996094 L 53.957031 34.347656 M 46.84375 31.996094 L 51.726563 36.496094 M 46.84375 31.996094 L 52.382813 25.601563 M 46.84375 31.996094 L 46.585938 30.691406 M 46.84375 31.996094 L 50.109375 32.289063 M 46.84375 31.996094 L 51.796875 38.46875 M 46.84375 31.996094 L 48.589844 32.238281 M 46.84375 31.996094 L 45.570313 30.742188 M 46.84375 31.996094 L 55.125 33.449219 M 46.84375 31.996094 L 47.78125 28.6875 M 46.84375 31.996094 L 41.398438 29.742188 M 46.84375 31.996094 L 37.09375 33.296875 M 46.84375 31.996094 L 52.476563 35.277344 M 46.84375 31.996094 L 45.496094 41.535156 M 46.84375 31.996094 L 52.789063 24.128906 M 46.84375 31.996094 L 39.75 28.097656 M 46.84375 31.996094 L 47.050781 37.089844 M 46.84375 31.996094 L 55.421875 36.445313 M 46.84375 31.996094 L 39.421875 29.847656 M 26.734375 26 L 29.425781 33.730469 M 26.734375 26 L 22.5625 29.226563 M 26.734375 26 L 24.179688 31.53125 M 26.734375 26 L 34.414063 28.703125 M 26.734375 26 L 28.230469 24.019531 M 26.734375 26 L 22.027344 29.261719 M 26.734375 26 L 31.953125 20.398438 M 62.183594 28.21875 L 61.628906 33.640625 M 62.183594 28.21875 L 53.957031 34.347656 M 62.183594 28.21875 L 63.222656 32.570313 M 62.183594 28.21875 L 60.558594 33.371094 M 62.183594 28.21875 L 52.382813 25.601563 M 62.183594 28.21875 L 61.109375 29.933594 M 62.183594 28.21875 L 55.125 33.449219 M 62.183594 28.21875 L 68.355469 29.460938 M 62.183594 28.21875 L 52.789063 24.128906 M 62.183594 28.21875 L 56.1875 24.03125 M 79.207031 34.867188 L 82.859375 33.421875 M 79.207031 34.867188 L 75.675781 32.308594 M 79.207031 34.867188 L 77.246094 39.234375 M 79.207031 34.867188 L 72.820313 27.433594 M 79.207031 34.867188 L 76.597656 33.839844 M 79.207031 34.867188 L 85.195313 33.4375 M 79.207031 34.867188 L 77 34.035156 M 79.207031 34.867188 L 81.347656 27.292969 M 79.207031 34.867188 L 80.09375 34.28125 M 79.207031 34.867188 L 75.503906 29.277344 M 55.125 33.449219 L 61.628906 33.640625 M 55.125 33.449219 L 51.347656 30.089844 M 55.125 33.449219 L 53.957031 34.347656 M 55.125 33.449219 L 63.222656 32.570313 M 55.125 33.449219 L 51.726563 36.496094 M 55.125 33.449219 L 60.558594 33.371094 M 55.125 33.449219 L 52.382813 25.601563 M 55.125 33.449219 L 46.585938 30.691406 M 55.125 33.449219 L 50.109375 32.289063 M 55.125 33.449219 L 51.796875 38.46875 M 55.125 33.449219 L 48.589844 32.238281 "
       id="path154" />
    <path
       style="fill:none;stroke-width:0.819;stroke-linecap:round;stroke-linejoin:round;stroke:rgb(0%,0%,0%);stroke-opacity:1;stroke-miterlimit:4;"
       d="M 55.125 33.449219 L 45.570313 30.742188 M 55.125 33.449219 L 61.109375 29.933594 M 55.125 33.449219 L 46.84375 31.996094 M 55.125 33.449219 L 62.183594 28.21875 M 55.125 33.449219 L 47.78125 28.6875 M 55.125 33.449219 L 52.476563 35.277344 M 55.125 33.449219 L 52.789063 24.128906 M 55.125 33.449219 L 56.1875 24.03125 M 55.125 33.449219 L 47.050781 37.089844 M 55.125 33.449219 L 55.421875 36.445313 M 85.195313 33.4375 L 93.429688 27.996094 M 85.195313 33.4375 L 82.859375 33.421875 M 85.195313 33.4375 L 75.675781 32.308594 M 85.195313 33.4375 L 77.246094 39.234375 M 85.195313 33.4375 L 90.226563 30.855469 M 85.195313 33.4375 L 76.597656 33.839844 M 85.195313 33.4375 L 79.207031 34.867188 M 85.195313 33.4375 L 77 34.035156 M 85.195313 33.4375 L 81.347656 27.292969 M 85.195313 33.4375 L 80.09375 34.28125 M 22.027344 29.261719 L 29.425781 33.730469 M 22.027344 29.261719 L 22.5625 29.226563 M 22.027344 29.261719 L 14.003906 23.902344 M 22.027344 29.261719 L 24.179688 31.53125 M 22.027344 29.261719 L 28.230469 24.019531 M 22.027344 29.261719 L 26.734375 26 M 22.027344 29.261719 L 15.617188 35.371094 M 47.78125 28.6875 L 45.820313 24.730469 M 47.78125 28.6875 L 51.347656 30.089844 M 47.78125 28.6875 L 53.957031 34.347656 M 47.78125 28.6875 L 51.726563 36.496094 M 47.78125 28.6875 L 52.382813 25.601563 M 47.78125 28.6875 L 46.585938 30.691406 M 47.78125 28.6875 L 50.109375 32.289063 M 47.78125 28.6875 L 48.589844 32.238281 M 47.78125 28.6875 L 45.570313 30.742188 M 47.78125 28.6875 L 46.84375 31.996094 M 47.78125 28.6875 L 55.125 33.449219 M 47.78125 28.6875 L 41.398438 29.742188 M 47.78125 28.6875 L 52.476563 35.277344 M 47.78125 28.6875 L 52.789063 24.128906 M 47.78125 28.6875 L 56.1875 24.03125 M 47.78125 28.6875 L 39.75 28.097656 M 47.78125 28.6875 L 47.050781 37.089844 M 47.78125 28.6875 L 39.421875 29.847656 M 77 34.035156 L 82.859375 33.421875 M 77 34.035156 L 75.675781 32.308594 M 77 34.035156 L 77.246094 39.234375 M 77 34.035156 L 68.886719 37.246094 M 77 34.035156 L 72.820313 27.433594 M 77 34.035156 L 76.597656 33.839844 M 77 34.035156 L 79.207031 34.867188 M 77 34.035156 L 85.195313 33.4375 M 77 34.035156 L 81.347656 27.292969 M 77 34.035156 L 80.09375 34.28125 M 77 34.035156 L 68.355469 29.460938 M 77 34.035156 L 75.503906 29.277344 M 81.347656 27.292969 L 82.859375 33.421875 M 81.347656 27.292969 L 75.675781 32.308594 M 81.347656 27.292969 L 90.226563 30.855469 M 81.347656 27.292969 L 72.820313 27.433594 M 81.347656 27.292969 L 76.597656 33.839844 "
       id="path156" />
    <path
       style="fill:none;stroke-width:0.819;stroke-linecap:round;stroke-linejoin:round;stroke:rgb(0%,0%,0%);stroke-opacity:1;stroke-miterlimit:4;"
       d="M 81.347656 27.292969 L 79.207031 34.867188 "
       id="path158" />
    <path
       style="fill:none;stroke-width:0.819;stroke-linecap:round;stroke-linejoin:round;stroke:rgb(0%,0%,0%);stroke-opacity:1;stroke-miterlimit:4;"
       d="M 81.347656 27.292969 L 85.195313 33.4375 M 81.347656 27.292969 L 77 34.035156 M 81.347656 27.292969 L 80.09375 34.28125 M 81.347656 27.292969 L 75.503906 29.277344 M 80.09375 34.28125 L 82.859375 33.421875 M 80.09375 34.28125 L 75.675781 32.308594 M 80.09375 34.28125 L 77.246094 39.234375 M 80.09375 34.28125 L 72.820313 27.433594 M 80.09375 34.28125 L 76.597656 33.839844 M 80.09375 34.28125 L 79.207031 34.867188 M 80.09375 34.28125 L 85.195313 33.4375 M 80.09375 34.28125 L 77 34.035156 M 80.09375 34.28125 L 81.347656 27.292969 M 80.09375 34.28125 L 75.503906 29.277344 M 68.355469 29.460938 L 61.628906 33.640625 M 68.355469 29.460938 L 75.675781 32.308594 M 68.355469 29.460938 L 68.886719 37.246094 M 68.355469 29.460938 L 63.222656 32.570313 M 68.355469 29.460938 L 60.558594 33.371094 M 68.355469 29.460938 L 72.820313 27.433594 M 68.355469 29.460938 L 76.597656 33.839844 M 68.355469 29.460938 L 61.109375 29.933594 M 68.355469 29.460938 L 62.183594 28.21875 M 68.355469 29.460938 L 77 34.035156 M 68.355469 29.460938 L 75.503906 29.277344 M 41.398438 29.742188 L 45.820313 24.730469 M 41.398438 29.742188 L 51.347656 30.089844 M 41.398438 29.742188 L 34.414063 28.703125 M 41.398438 29.742188 L 46.585938 30.691406 M 41.398438 29.742188 L 50.109375 32.289063 M 41.398438 29.742188 L 48.589844 32.238281 M 41.398438 29.742188 L 45.570313 30.742188 M 41.398438 29.742188 L 46.84375 31.996094 M 41.398438 29.742188 L 47.78125 28.6875 M 41.398438 29.742188 L 37.09375 33.296875 M 41.398438 29.742188 L 39.75 28.097656 M 41.398438 29.742188 L 47.050781 37.089844 M 41.398438 29.742188 L 39.421875 29.847656 M 37.09375 33.296875 L 29.425781 33.730469 M 37.09375 33.296875 L 34.414063 28.703125 M 37.09375 33.296875 L 46.585938 30.691406 M 37.09375 33.296875 L 45.570313 30.742188 M 37.09375 33.296875 L 46.84375 31.996094 M 37.09375 33.296875 L 41.398438 29.742188 M 37.09375 33.296875 L 39.75 28.097656 M 37.09375 33.296875 L 39.421875 29.847656 M 52.476563 35.277344 L 61.628906 33.640625 M 52.476563 35.277344 L 51.347656 30.089844 M 52.476563 35.277344 L 53.957031 34.347656 M 52.476563 35.277344 L 51.726563 36.496094 M 52.476563 35.277344 L 60.558594 33.371094 M 52.476563 35.277344 L 52.382813 25.601563 M 52.476563 35.277344 L 46.585938 30.691406 M 52.476563 35.277344 L 50.109375 32.289063 M 52.476563 35.277344 L 51.796875 38.46875 M 52.476563 35.277344 L 48.589844 32.238281 M 52.476563 35.277344 L 45.570313 30.742188 M 52.476563 35.277344 L 61.109375 29.933594 M 52.476563 35.277344 L 46.84375 31.996094 M 52.476563 35.277344 L 55.125 33.449219 M 52.476563 35.277344 L 47.78125 28.6875 M 52.476563 35.277344 L 52.476563 35.277344 "
       id="path160" />
    <path
       style="fill:none;stroke-width:0.819;stroke-linecap:round;stroke-linejoin:round;stroke:rgb(0%,0%,0%);stroke-opacity:1;stroke-miterlimit:4;"
       d="M 52.476563 35.277344 L 45.496094 41.535156 M 52.476563 35.277344 L 47.050781 37.089844 M 52.476563 35.277344 L 55.421875 36.445313 M 45.496094 41.535156 L 51.726563 36.496094 M 45.496094 41.535156 L 51.796875 38.46875 M 45.496094 41.535156 L 48.589844 32.238281 M 45.496094 41.535156 L 46.84375 31.996094 M 45.496094 41.535156 L 52.476563 35.277344 M 45.496094 41.535156 L 47.050781 37.089844 M 52.789063 24.128906 L 45.820313 24.730469 M 52.789063 24.128906 L 51.347656 30.089844 M 52.789063 24.128906 L 53.957031 34.347656 M 52.789063 24.128906 L 52.382813 25.601563 M 52.789063 24.128906 L 46.585938 30.691406 M 52.789063 24.128906 L 50.109375 32.289063 M 52.789063 24.128906 L 48.589844 32.238281 M 52.789063 24.128906 L 45.570313 30.742188 M 52.789063 24.128906 L 61.109375 29.933594 M 52.789063 24.128906 L 46.84375 31.996094 M 52.789063 24.128906 L 62.183594 28.21875 M 52.789063 24.128906 L 55.125 33.449219 M 52.789063 24.128906 L 47.78125 28.6875 M 52.789063 24.128906 L 56.1875 24.03125 L 51.347656 30.089844 M 56.1875 24.03125 L 60.558594 33.371094 M 56.1875 24.03125 L 52.382813 25.601563 M 56.1875 24.03125 L 50.109375 32.289063 M 56.1875 24.03125 L 61.109375 29.933594 M 56.1875 24.03125 L 62.183594 28.21875 M 56.1875 24.03125 L 55.125 33.449219 M 56.1875 24.03125 L 47.78125 28.6875 M 56.1875 24.03125 L 52.789063 24.128906 M 56.1875 24.03125 L 56.1875 24.03125 M 39.75 28.097656 L 45.820313 24.730469 M 39.75 28.097656 L 34.414063 28.703125 M 39.75 28.097656 L 46.585938 30.691406 M 39.75 28.097656 L 48.589844 32.238281 M 39.75 28.097656 L 45.570313 30.742188 M 39.75 28.097656 L 46.84375 31.996094 M 39.75 28.097656 L 47.78125 28.6875 M 39.75 28.097656 L 41.398438 29.742188 M 39.75 28.097656 L 37.09375 33.296875 M 39.75 28.097656 L 39.421875 29.847656 M 47.050781 37.089844 L 51.347656 30.089844 M 47.050781 37.089844 L 53.957031 34.347656 M 47.050781 37.089844 L 51.726563 36.496094 M 47.050781 37.089844 L 46.585938 30.691406 M 47.050781 37.089844 L 50.109375 32.289063 M 47.050781 37.089844 L 51.796875 38.46875 M 47.050781 37.089844 L 48.589844 32.238281 M 47.050781 37.089844 L 45.570313 30.742188 M 47.050781 37.089844 L 46.84375 31.996094 M 47.050781 37.089844 L 55.125 33.449219 M 47.050781 37.089844 L 47.78125 28.6875 M 47.050781 37.089844 L 41.398438 29.742188 M 47.050781 37.089844 L 52.476563 35.277344 M 47.050781 37.089844 L 45.496094 41.535156 M 47.050781 37.089844 L 55.421875 36.445313 L 61.628906 33.640625 M 55.421875 36.445313 L 51.347656 30.089844 M 55.421875 36.445313 L 53.957031 34.347656 M 55.421875 36.445313 L 63.222656 32.570313 M 55.421875 36.445313 L 51.726563 36.496094 "
       id="path162" />
    <path
       style="fill:none;stroke-width:0.819;stroke-linecap:round;stroke-linejoin:round;stroke:rgb(0%,0%,0%);stroke-opacity:1;stroke-miterlimit:4;"
       d="M 55.421875 36.445313 L 60.558594 33.371094 M 55.421875 36.445313 L 50.109375 32.289063 M 55.421875 36.445313 L 51.796875 38.46875 M 55.421875 36.445313 L 48.589844 32.238281 M 55.421875 36.445313 L 61.109375 29.933594 M 55.421875 36.445313 L 46.84375 31.996094 M 55.421875 36.445313 L 55.125 33.449219 M 55.421875 36.445313 L 52.476563 35.277344 M 55.421875 36.445313 L 47.050781 37.089844 M 55.421875 36.445313 L 55.421875 36.445313 M 14.460938 38.691406 L 13.195313 38.035156 M 14.460938 38.691406 L 8.863281 36.0625 M 14.460938 38.691406 L 15.617188 35.371094 L 22.5625 29.226563 M 15.617188 35.371094 L 13.195313 38.035156 M 15.617188 35.371094 L 24.179688 31.53125 M 15.617188 35.371094 L 8.863281 36.0625 M 15.617188 35.371094 L 22.027344 29.261719 M 15.617188 35.371094 L 14.460938 38.691406 M 15.617188 35.371094 L 15.617188 35.371094 M 75.503906 29.277344 L 82.859375 33.421875 M 75.503906 29.277344 L 75.675781 32.308594 M 75.503906 29.277344 L 77.246094 39.234375 M 75.503906 29.277344 L 72.820313 27.433594 M 75.503906 29.277344 L 76.597656 33.839844 M 75.503906 29.277344 L 79.207031 34.867188 M 75.503906 29.277344 L 77 34.035156 M 75.503906 29.277344 L 81.347656 27.292969 M 75.503906 29.277344 L 80.09375 34.28125 M 75.503906 29.277344 L 68.355469 29.460938 M 75.503906 29.277344 L 75.503906 29.277344 M 39.421875 29.847656 L 45.820313 24.730469 M 39.421875 29.847656 L 34.414063 28.703125 M 39.421875 29.847656 L 46.585938 30.691406 M 39.421875 29.847656 L 48.589844 32.238281 M 39.421875 29.847656 L 45.570313 30.742188 M 39.421875 29.847656 L 46.84375 31.996094 M 39.421875 29.847656 L 47.78125 28.6875 M 39.421875 29.847656 L 41.398438 29.742188 M 39.421875 29.847656 L 37.09375 33.296875 M 39.421875 29.847656 L 39.75 28.097656 M 39.421875 29.847656 L 39.421875 29.847656 M 31.953125 20.398438 L 34.414063 28.703125 M 31.953125 20.398438 L 28.230469 24.019531 M 31.953125 20.398438 L 26.734375 26 M 31.953125 20.398438 L 31.953125 20.398438 "
       id="path164" />
    <path
       style="fill:none;stroke-width:2.048;stroke-linecap:round;stroke-linejoin:round;stroke:rgb(92.155457%,9.803772%,13.725281%);stroke-opacity:1;stroke-miterlimit:4;"
       d="M 72.335938 79.558594 L 72.335938 79.558594 M 77.199219 83.644531 L 77.199219 83.644531 M 88.441406 79.5 L 88.441406 79.5 M 83.34375 86.976563 L 83.34375 86.976563 M 85.925781 78 L 85.925781 78 M 84.4375 95.167969 L 84.4375 95.167969 M 52.957031 93.546875 L 52.957031 93.546875 M 85.511719 82.171875 L 85.511719 82.171875 M 68.714844 83.984375 L 68.714844 83.984375 M 99.066406 72.175781 L 99.066406 72.175781 M 97.621094 69.25 L 97.621094 69.25 M 105.804688 72.378906 L 105.804688 72.378906 M 74.910156 103.734375 L 74.910156 103.734375 M 76.492188 68.398438 L 76.492188 68.398438 M 52.867188 87.621094 L 52.867188 87.621094 M 76.636719 92.539063 L 76.636719 92.539063 M 100.820313 78.808594 L 100.820313 78.808594 M 79.328125 78.558594 L 79.328125 78.558594 M 92.730469 82.484375 L 92.730469 82.484375 M 73.019531 99.742188 L 73.019531 99.742188 M 83.410156 67.410156 L 83.410156 67.410156 M 75.011719 90.367188 L 75.011719 90.367188 M 37.109375 113.382813 L 37.109375 113.382813 M 63.347656 76.949219 L 63.347656 76.949219 M 84.050781 85.878906 L 84.050781 85.878906 M 85.902344 74.1875 L 85.902344 74.1875 M 103.34375 55.460938 L 103.34375 55.460938 M 76.914063 71.542969 L 76.914063 71.542969 M 82.921875 60.847656 L 82.921875 60.847656 M 108.421875 78.84375 L 108.421875 78.84375 M 87.398438 83.714844 L 87.398438 83.714844 M 97.234375 66.539063 L 97.234375 66.539063 M 93.539063 76.953125 L 93.539063 76.953125 M 94.144531 89.226563 L 94.144531 89.226563 M 69.410156 86.09375 L 69.410156 86.09375 M 57.261719 101.707031 L 57.261719 101.707031 M 80.898438 102.363281 L 80.898438 102.363281 M 32.96875 105.332031 L 32.96875 105.332031 M 67.570313 90.894531 L 67.570313 90.894531 M 79.191406 85.8125 L 79.191406 85.8125 M 60.90625 80.179688 L 60.90625 80.179688 M 69.171875 108.960938 L 69.171875 108.960938 M 38.511719 80.5 L 38.511719 80.5 M 17.101563 71.214844 L 17.101563 71.214844 M 18.242188 76.550781 L 18.242188 76.550781 M 19.210938 63.332031 L 19.210938 63.332031 M 31.007813 64.046875 L 31.007813 64.046875 M 13.640625 80.128906 L 13.640625 80.128906 M 19.964844 59.503906 L 19.964844 59.503906 M 24.800781 79.238281 L 24.800781 79.238281 M 20.703125 52.78125 L 20.703125 52.78125 M 37.328125 67.550781 L 37.328125 67.550781 M 34.300781 62.347656 L 34.300781 62.347656 M 15.554688 69.742188 L 15.554688 69.742188 M 33.550781 79.023438 L 33.550781 79.023438 M 28.128906 76.15625 L 28.128906 76.15625 M 30.859375 76.316406 L 30.859375 76.316406 M 31.898438 75.265625 L 31.898438 75.265625 M 48.042969 79.050781 L 48.042969 79.050781 M 25.214844 77.664063 L 25.214844 77.664063 M 34.367188 62.707031 L 34.367188 62.707031 M 14.828125 73.671875 L 14.828125 73.671875 M 25.632813 77.289063 L 25.632813 77.289063 M 43.066406 71.210938 L 43.066406 71.210938 "
       id="path166" />
    <path
       style="fill:none;stroke-width:2.048;stroke-linecap:round;stroke-linejoin:round;stroke:rgb(92.155457%,9.803772%,13.725281%);stroke-opacity:1;stroke-miterlimit:4;"
       d="M 36.621094 73.234375 L 36.621094 73.234375 M 44.75 79.648438 L 44.75 79.648438 M 24.378906 74.660156 L 24.378906 74.660156 M 25.167969 67.304688 L 25.167969 67.304688 M 38.558594 81.730469 L 38.558594 81.730469 M 41.445313 88.203125 L 41.445313 88.203125 M 27.207031 80.375 L 27.207031 80.375 M 28.917969 74.183594 L 28.917969 74.183594 M 41.425781 74.761719 L 41.425781 74.761719 M 34.964844 66.3125 L 34.964844 66.3125 M 28.984375 81.40625 L 28.984375 81.40625 M 41.246094 68.402344 L 41.246094 68.402344 M 43.097656 84.707031 L 43.097656 84.707031 M 28.019531 74.898438 L 28.019531 74.898438 M 43.140625 86.101563 L 43.140625 86.101563 M 24.632813 84.664063 L 24.632813 84.664063 M 22.925781 68.109375 L 22.925781 68.109375 M 29.425781 33.730469 L 29.425781 33.730469 M 45.820313 24.730469 L 45.820313 24.730469 M 61.628906 33.640625 L 61.628906 33.640625 M 93.429688 27.996094 L 93.429688 27.996094 M 82.859375 33.421875 L 82.859375 33.421875 M 22.5625 29.226563 L 22.5625 29.226563 M 51.347656 30.089844 L 51.347656 30.089844 M 75.675781 32.308594 L 75.675781 32.308594 M 77.246094 39.234375 L 77.246094 39.234375 M 14.003906 23.902344 L 14.003906 23.902344 M 13.195313 38.035156 L 13.195313 38.035156 M 53.957031 34.347656 L 53.957031 34.347656 M 68.886719 37.246094 L 68.886719 37.246094 M 90.226563 30.855469 L 90.226563 30.855469 M 63.222656 32.570313 L 63.222656 32.570313 M 24.179688 31.53125 L 24.179688 31.53125 M 51.726563 36.496094 L 51.726563 36.496094 M 34.414063 28.703125 L 34.414063 28.703125 M 8.863281 36.0625 L 8.863281 36.0625 M 60.558594 33.371094 L 60.558594 33.371094 M 28.230469 24.019531 L 28.230469 24.019531 M 52.382813 25.601563 L 52.382813 25.601563 M 46.585938 30.691406 L 46.585938 30.691406 M 50.109375 32.289063 L 50.109375 32.289063 M 51.796875 38.46875 L 51.796875 38.46875 M 72.820313 27.433594 L 72.820313 27.433594 M 48.589844 32.238281 L 48.589844 32.238281 M 76.597656 33.839844 L 76.597656 33.839844 M 45.570313 30.742188 L 45.570313 30.742188 M 61.109375 29.933594 L 61.109375 29.933594 M 46.84375 31.996094 L 46.84375 31.996094 M 26.734375 26 L 26.734375 26 M 62.183594 28.21875 L 62.183594 28.21875 M 79.207031 34.867188 L 79.207031 34.867188 M 55.125 33.449219 L 55.125 33.449219 M 85.195313 33.4375 L 85.195313 33.4375 M 22.027344 29.261719 L 22.027344 29.261719 M 47.78125 28.6875 L 47.78125 28.6875 M 77 34.035156 L 77 34.035156 M 81.347656 27.292969 L 81.347656 27.292969 M 80.09375 34.28125 L 80.09375 34.28125 M 68.355469 29.460938 L 68.355469 29.460938 M 41.398438 29.742188 L 41.398438 29.742188 M 37.09375 33.296875 L 37.09375 33.296875 M 52.476563 35.277344 L 52.476563 35.277344 M 45.496094 41.535156 L 45.496094 41.535156 M 52.789063 24.128906 L 52.789063 24.128906 "
       id="path168" />
    <path
       style="fill:none;stroke-width:2.048;stroke-linecap:round;stroke-linejoin:round;stroke:rgb(92.155457%,9.803772%,13.725281%);stroke-opacity:1;stroke-miterlimit:4;"
       d="M 56.1875 24.03125 L 56.1875 24.03125 M 39.75 28.097656 L 39.75 28.097656 M 47.050781 37.089844 L 47.050781 37.089844 M 55.421875 36.445313 L 55.421875 36.445313 M 14.460938 38.691406 L 14.460938 38.691406 M 15.617188 35.371094 L 15.617188 35.371094 M 75.503906 29.277344 L 75.503906 29.277344 M 39.421875 29.847656 L 39.421875 29.847656 M 31.953125 20.398438 L 31.953125 20.398438 "
       id="path170" />
    <path
       style=" stroke:none;fill-rule:nonzero;fill:rgb(12.940979%,11.764526%,11.764526%);fill-opacity:1;"
       d="M 118.84375 116.015625 C 118.625 116.265625 118.453125 116.5625 118.28125 116.5625 C 118.125 116.5625 118.0625 116.359375 118.03125 116.234375 C 117.984375 116.03125 117.703125 114.921875 117.703125 114.765625 C 117.703125 114.765625 118.265625 113.78125 118.5 113.78125 C 118.671875 113.78125 118.734375 113.921875 118.9375 113.921875 C 119.125 113.921875 119.203125 113.765625 119.203125 113.625 C 119.203125 113.421875 119.03125 113.328125 118.875 113.328125 C 118.453125 113.328125 118.0625 113.828125 117.640625 114.484375 L 117.546875 114.046875 C 117.40625 113.328125 117.28125 113.328125 117.109375 113.328125 C 116.84375 113.328125 116.3125 113.515625 116.078125 113.59375 L 116.109375 113.71875 C 116.375 113.65625 116.5 113.625 116.5625 113.625 C 116.78125 113.625 116.8125 113.734375 116.890625 114 C 116.90625 114.03125 117.171875 115.125 117.171875 115.1875 C 116.4375 116.265625 116.234375 116.53125 116.09375 116.53125 C 115.953125 116.53125 115.796875 116.390625 115.625 116.390625 C 115.4375 116.390625 115.34375 116.53125 115.34375 116.65625 C 115.34375 116.859375 115.46875 117.015625 115.734375 117.015625 C 116 117.015625 116.09375 116.921875 116.234375 116.765625 C 116.515625 116.46875 116.84375 116.03125 117.25 115.484375 L 117.484375 116.46875 C 117.59375 116.890625 117.71875 117.015625 117.953125 117.015625 C 118.140625 117.015625 118.375 117.015625 118.953125 116.078125 Z M 118.84375 116.015625 "
       id="path172" />
    <g
       clip-path="url(#clip10)"
       clip-rule="nonzero"
       id="g176">
      <path
         style=" stroke:none;fill-rule:nonzero;fill:rgb(12.940979%,11.764526%,11.764526%);fill-opacity:1;"
         d="M 119.449219 118.960938 L 120.964844 118.960938 L 120.964844 118.882813 C 120.699219 118.882813 120.496094 118.867188 120.496094 118.695313 C 120.496094 118.617188 120.574219 118.414063 120.589844 118.304688 L 121.371094 115.476563 C 121.402344 115.398438 121.433594 115.289063 121.386719 115.289063 C 121.339844 115.289063 120.589844 115.445313 120.324219 115.492188 L 120.324219 115.570313 L 120.636719 115.554688 C 120.683594 115.554688 120.839844 115.554688 120.839844 115.742188 C 120.839844 115.773438 120.824219 115.851563 120.808594 115.914063 L 120.058594 118.585938 C 119.996094 118.835938 119.777344 118.851563 119.449219 118.882813 Z M 119.449219 118.960938 "
         id="path174" />
    </g>
    <path
       style=" stroke:none;fill-rule:nonzero;fill:rgb(12.940979%,11.764526%,11.764526%);fill-opacity:1;"
       d="M 8.460938 2.6875 C 8.242188 2.9375 8.070313 3.234375 7.898438 3.234375 C 7.742188 3.234375 7.679688 3.03125 7.648438 2.90625 C 7.601563 2.703125 7.320313 1.59375 7.320313 1.4375 C 7.320313 1.4375 7.882813 0.453125 8.117188 0.453125 C 8.289063 0.453125 8.351563 0.59375 8.554688 0.59375 C 8.742188 0.59375 8.820313 0.4375 8.820313 0.296875 C 8.820313 0.09375 8.648438 0 8.492188 0 C 8.070313 0 7.679688 0.5 7.257813 1.15625 L 7.164063 0.71875 C 7.023438 0 6.898438 0 6.726563 0 C 6.460938 0 5.929688 0.1875 5.695313 0.265625 L 5.726563 0.390625 C 5.992188 0.328125 6.117188 0.296875 6.179688 0.296875 C 6.398438 0.296875 6.429688 0.40625 6.507813 0.671875 C 6.523438 0.703125 6.789063 1.796875 6.789063 1.859375 C 6.054688 2.9375 5.851563 3.203125 5.710938 3.203125 C 5.570313 3.203125 5.414063 3.0625 5.242188 3.0625 C 5.054688 3.0625 4.960938 3.203125 4.960938 3.328125 C 4.960938 3.53125 5.085938 3.6875 5.351563 3.6875 C 5.617188 3.6875 5.710938 3.59375 5.851563 3.4375 C 6.132813 3.140625 6.460938 2.703125 6.867188 2.15625 L 7.101563 3.140625 C 7.210938 3.5625 7.335938 3.6875 7.570313 3.6875 C 7.757813 3.6875 7.992188 3.6875 8.570313 2.75 Z M 8.460938 2.6875 "
       id="path178" />
    <path
       style=" stroke:none;fill-rule:nonzero;fill:rgb(12.940979%,11.764526%,11.764526%);fill-opacity:1;"
       d="M 10.976563 4.882813 C 10.882813 5.070313 10.804688 5.226563 10.445313 5.226563 L 9.414063 5.226563 L 9.414063 5.195313 L 10.445313 4.148438 C 11.132813 3.476563 11.257813 3.226563 11.257813 2.867188 C 11.257813 2.460938 10.960938 1.960938 10.382813 1.960938 C 10.242188 1.960938 9.539063 1.976563 9.242188 2.820313 L 9.351563 2.867188 C 9.429688 2.726563 9.632813 2.351563 10.132813 2.351563 C 10.539063 2.351563 10.789063 2.679688 10.789063 3.023438 C 10.789063 3.195313 10.773438 3.507813 10.007813 4.320313 L 8.867188 5.539063 L 8.867188 5.632813 L 10.804688 5.632813 L 11.070313 4.914063 Z M 10.976563 4.882813 "
       id="path180" />
    <path
       style=" stroke:none;fill-rule:nonzero;fill:rgb(0%,0%,0%);fill-opacity:1;"
       d="M 0.605469 13.339844 L 2.324219 13.339844 L 2.324219 13.246094 C 2.011719 13.261719 1.792969 13.230469 1.792969 13.042969 C 1.792969 12.949219 1.871094 12.714844 1.902344 12.605469 L 2.777344 9.417969 C 2.808594 9.324219 2.839844 9.199219 2.792969 9.199219 C 2.746094 9.199219 1.886719 9.386719 1.605469 9.433594 L 1.605469 9.527344 L 1.949219 9.511719 C 2.011719 9.511719 2.183594 9.511719 2.183594 9.714844 C 2.183594 9.761719 2.152344 9.839844 2.136719 9.902344 L 1.292969 12.917969 C 1.214844 13.199219 0.964844 13.214844 0.605469 13.261719 Z M 0.605469 13.339844 "
       id="path182" />
    <path
       style=" stroke:none;fill-rule:nonzero;fill:rgb(0%,0%,0%);fill-opacity:1;"
       d="M 82.089844 18.421875 C 81.511719 18.421875 81.511719 17.890625 81.511719 17.71875 C 81.511719 16.859375 82.417969 14.796875 83.480469 14.796875 C 83.933594 14.796875 83.933594 15.21875 83.933594 15.4375 C 83.933594 16.625 82.996094 18.421875 82.089844 18.421875 Z M 84.949219 17.71875 C 84.542969 18.1875 84.355469 18.40625 84.167969 18.40625 C 84.074219 18.40625 83.996094 18.328125 83.996094 18.1875 C 83.996094 18.03125 85.152344 13.984375 85.558594 12.328125 L 85.511719 12.28125 C 85.027344 12.390625 84.542969 12.453125 84.058594 12.5 L 84.058594 12.65625 C 84.574219 12.671875 84.636719 12.71875 84.636719 12.9375 C 84.636719 13.078125 84.574219 13.3125 84.496094 13.578125 L 84.089844 15.09375 L 84.074219 15.109375 C 84.042969 14.90625 83.964844 14.578125 83.433594 14.578125 C 82.308594 14.578125 80.683594 16.328125 80.683594 17.765625 C 80.683594 18.265625 80.886719 18.890625 81.667969 18.890625 C 82.152344 18.890625 82.683594 18.71875 83.371094 17.671875 L 83.386719 17.703125 C 83.308594 18.03125 83.277344 18.25 83.277344 18.46875 C 83.277344 18.671875 83.355469 18.90625 83.714844 18.90625 C 84.042969 18.90625 84.652344 18.453125 85.058594 17.8125 Z M 84.949219 17.71875 "
       id="path184" />
    <path
       style=" stroke:none;fill-rule:nonzero;fill:rgb(0%,0%,0%);fill-opacity:1;"
       d="M 85.992188 18.777344 C 85.992188 18.183594 86.429688 15.761719 87.335938 15.761719 C 87.867188 15.761719 87.867188 16.386719 87.867188 16.574219 C 87.867188 17.636719 87.335938 19.605469 86.523438 19.605469 C 86.320313 19.605469 85.992188 19.480469 85.992188 18.777344 Z M 88.351563 17.121094 C 88.351563 16.527344 88.179688 15.589844 87.367188 15.589844 C 86.523438 15.589844 85.507813 16.855469 85.507813 18.511719 C 85.507813 19.136719 85.851563 19.777344 86.492188 19.777344 C 87.523438 19.777344 88.351563 18.339844 88.351563 17.121094 Z M 88.351563 17.121094 "
       id="path186" />
    <path
       style=" stroke:none;fill-rule:nonzero;fill:rgb(0%,0%,0%);fill-opacity:1;"
       d="M 96.351563 15.109375 L 91.554688 15.109375 L 91.554688 15.734375 L 96.351563 15.734375 Z M 96.351563 17.015625 L 91.554688 17.015625 L 91.554688 17.640625 L 96.351563 17.640625 Z M 96.351563 17.015625 "
       id="path188" />
    <path
       style=" stroke:none;fill-rule:nonzero;fill:rgb(0%,0%,0%);fill-opacity:1;"
       d="M 100.332031 18.890625 C 100.535156 18.890625 100.863281 18.71875 100.863281 18.375 C 100.863281 18.078125 100.613281 17.828125 100.332031 17.828125 C 100.050781 17.828125 99.800781 18.0625 99.800781 18.375 C 99.800781 18.734375 100.128906 18.890625 100.332031 18.890625 Z M 100.332031 18.890625 "
       id="path190" />
    <path
       style=" stroke:none;fill-rule:nonzero;fill:rgb(0%,0%,0%);fill-opacity:1;"
       d="M 102.398438 18.78125 L 105.054688 18.78125 L 105.054688 18.640625 C 104.570313 18.640625 104.226563 18.625 104.226563 18.328125 C 104.226563 18.171875 104.351563 17.8125 104.398438 17.625 L 105.757813 12.6875 C 105.804688 12.546875 105.867188 12.34375 105.789063 12.34375 C 105.710938 12.34375 104.382813 12.640625 103.929688 12.703125 L 103.929688 12.859375 L 104.476563 12.828125 C 104.570313 12.828125 104.835938 12.828125 104.835938 13.140625 C 104.835938 13.21875 104.804688 13.34375 104.773438 13.453125 L 103.460938 18.140625 C 103.335938 18.5625 102.960938 18.59375 102.398438 18.640625 Z M 102.398438 18.78125 "
       id="path192" />
  </g>
</svg>
