<?xml version="1.0" encoding="UTF-8" standalone="no"?>
<svg
   xmlns:dc="http://purl.org/dc/elements/1.1/"
   xmlns:cc="http://creativecommons.org/ns#"
   xmlns:rdf="http://www.w3.org/1999/02/22-rdf-syntax-ns#"
   xmlns:svg="http://www.w3.org/2000/svg"
   xmlns="http://www.w3.org/2000/svg"
   xmlns:sodipodi="http://sodipodi.sourceforge.net/DTD/sodipodi-0.dtd"
   xmlns:inkscape="http://www.inkscape.org/namespaces/inkscape"
   width="300.297485pt"
   height="94.929802pt"
   viewBox="0 0 300.297485 94.929802"
   version="1.2"
   id="svg56"
   sodipodi:docname="cluster_normalization.svg"
   inkscape:version="0.92.4 (5da689c313, 2019-01-14)">
  <metadata
     id="metadata60">
    <rdf:RDF>
      <cc:Work
         rdf:about="">
        <dc:format>image/svg+xml</dc:format>
        <dc:type
           rdf:resource="http://purl.org/dc/dcmitype/StillImage" />
        <dc:title></dc:title>
      </cc:Work>
    </rdf:RDF>
  </metadata>
  <sodipodi:namedview
     pagecolor="#ffffff"
     bordercolor="#666666"
     borderopacity="1"
     objecttolerance="10"
     gridtolerance="10"
     guidetolerance="10"
     inkscape:pageopacity="0"
     inkscape:pageshadow="2"
     inkscape:window-width="640"
     inkscape:window-height="480"
     id="namedview58"
     showgrid="false"
     inkscape:zoom="0.85914805"
     inkscape:cx="200.19832"
     inkscape:cy="63.286535"
     inkscape:window-x="0"
     inkscape:window-y="0"
     inkscape:window-maximized="0"
     inkscape:current-layer="svg56" />
  <defs
     id="defs11">
    <clipPath
       id="clip1">
      <path
         d="M 65 13 L 67 13 L 67 94.929688 L 65 94.929688 Z M 65 13 "
         id="path2" />
    </clipPath>
    <clipPath
       id="clip2">
      <path
         d="M 219 13 L 220 13 L 220 94.929688 L 219 94.929688 Z M 219 13 "
         id="path5" />
    </clipPath>
    <clipPath
       id="clip3">
      <path
         d="M 298 54 L 300.296875 54 L 300.296875 59 L 298 59 Z M 298 54 "
         id="path8" />
    </clipPath>
  </defs>
  <g
     id="surface32">
    <path
       style="fill:none;stroke-width:0.58;stroke-linecap:round;stroke-linejoin:round;stroke:rgb(12.940979%,11.764526%,11.764526%);stroke-opacity:1;stroke-miterlimit:4;"
       d="M 0.292969 54.125 L 131.394531 54.125 "
       id="path13" />
    <path
       style=" stroke:none;fill-rule:nonzero;fill:rgb(12.940979%,11.764526%,11.764526%);fill-opacity:1;"
       d="M 133.449219 53.234375 C 132.011719 52.796875 131.078125 52.398438 129.925781 51.9375 L 129.925781 56.324219 C 130.335938 56.128906 132.011719 55.460938 133.449219 55.027344 C 134.992188 54.5625 136.386719 54.242188 137.292969 54.128906 C 136.386719 54.015625 134.992188 53.699219 133.449219 53.234375 "
       id="path15" />
    <g
       clip-path="url(#clip1)"
       clip-rule="nonzero"
       id="g19">
      <path
         style="fill:none;stroke-width:0.58;stroke-linecap:round;stroke-linejoin:round;stroke:rgb(12.940979%,11.764526%,11.764526%);stroke-opacity:1;stroke-miterlimit:4;"
         d="M 65.847656 94.636719 L 65.847656 13.613281 "
         id="path17" />
    </g>
    <path
       style=" stroke:none;fill-rule:nonzero;fill:rgb(12.940979%,11.764526%,11.764526%);fill-opacity:1;"
       d="M 64.953125 11.558594 C 64.519531 12.996094 64.121094 13.929688 63.65625 15.085938 L 68.046875 15.085938 C 67.847656 14.671875 67.183594 12.996094 66.75 11.558594 C 66.28125 10.019531 65.964844 8.621094 65.851563 7.714844 C 65.738281 8.621094 65.417969 10.019531 64.953125 11.558594 "
       id="path21" />
    <path
       style="fill:none;stroke-width:2.643;stroke-linecap:round;stroke-linejoin:round;stroke:rgb(12.940979%,11.764526%,11.764526%);stroke-opacity:1;stroke-miterlimit:4;"
       d="M 8.171875 41.835938 L 8.171875 41.835938 M 39.144531 34.320313 L 39.144531 34.320313 M 16.136719 66.738281 L 16.136719 66.738281 M 14.722656 42.925781 L 14.722656 42.925781 M 42.636719 61.765625 L 42.636719 61.765625 M 27.0625 51.578125 L 27.0625 51.578125 M 3.261719 44.59375 L 3.261719 44.59375 M 12.945313 45.871094 L 12.945313 45.871094 M 23.703125 72.492188 L 23.703125 72.492188 M 43.917969 56.445313 L 43.917969 56.445313 M 7.339844 54.710938 L 7.339844 54.710938 M 15.976563 41.007813 L 15.976563 41.007813 M 130.566406 46.742188 L 130.566406 46.742188 M 108.230469 40.554688 L 108.230469 40.554688 M 114.722656 54.386719 L 114.722656 54.386719 M 93.804688 72.011719 L 93.804688 72.011719 M 116.082031 67 L 116.082031 67 M 110.734375 54.300781 L 110.734375 54.300781 M 113.113281 56.277344 L 113.113281 56.277344 M 98.082031 42.300781 L 98.082031 42.300781 M 89.703125 58.164063 L 89.703125 58.164063 M 98.15625 60.234375 L 98.15625 60.234375 M 126.355469 37.320313 L 126.355469 37.320313 M 126.175781 53.089844 L 126.175781 53.089844 "
       id="path23" />
    <path
       style="fill:none;stroke-width:0.58;stroke-linecap:round;stroke-linejoin:round;stroke:rgb(12.940979%,11.764526%,11.764526%);stroke-opacity:1;stroke-miterlimit:4;"
       d="M 153.789063 54.125 L 284.890625 54.125 "
       id="path25" />
    <path
       style=" stroke:none;fill-rule:nonzero;fill:rgb(12.940979%,11.764526%,11.764526%);fill-opacity:1;"
       d="M 286.945313 53.234375 C 285.507813 52.796875 284.574219 52.398438 283.421875 51.9375 L 283.421875 56.324219 C 283.832031 56.128906 285.507813 55.460938 286.945313 55.027344 C 288.484375 54.5625 289.882813 54.242188 290.789063 54.128906 C 289.882813 54.015625 288.484375 53.699219 286.945313 53.234375 "
       id="path27" />
    <g
       clip-path="url(#clip2)"
       clip-rule="nonzero"
       id="g31">
      <path
         style="fill:none;stroke-width:0.58;stroke-linecap:round;stroke-linejoin:round;stroke:rgb(12.940979%,11.764526%,11.764526%);stroke-opacity:1;stroke-miterlimit:4;"
         d="M 219.34375 94.636719 L 219.34375 13.613281 "
         id="path29" />
    </g>
    <path
       style=" stroke:none;fill-rule:nonzero;fill:rgb(12.940979%,11.764526%,11.764526%);fill-opacity:1;"
       d="M 218.449219 11.558594 C 218.015625 12.996094 217.613281 13.929688 217.152344 15.085938 L 221.542969 15.085938 C 221.34375 14.671875 220.675781 12.996094 220.242188 11.558594 C 219.777344 10.019531 219.460938 8.621094 219.347656 7.714844 C 219.234375 8.621094 218.914063 10.019531 218.449219 11.558594 "
       id="path33" />
    <path
       style="fill:none;stroke-width:2.643;stroke-linecap:round;stroke-linejoin:round;stroke:rgb(12.940979%,11.764526%,11.764526%);stroke-opacity:1;stroke-miterlimit:4;"
       d="M 207.804688 41.835938 L 207.804688 41.835938 M 214 34.320313 L 214 34.320313 M 209.398438 66.738281 L 209.398438 66.738281 M 209.117188 42.925781 L 209.117188 42.925781 M 214.699219 61.765625 L 214.699219 61.765625 M 211.585938 51.578125 L 211.585938 51.578125 M 206.824219 44.59375 L 206.824219 44.59375 M 208.757813 45.871094 L 208.757813 45.871094 M 210.910156 72.492188 L 210.910156 72.492188 M 214.957031 56.445313 L 214.957031 56.445313 M 207.640625 54.710938 L 207.640625 54.710938 M 209.367188 41.007813 L 209.367188 41.007813 M 232.285156 46.742188 L 232.285156 46.742188 M 227.816406 40.554688 L 227.816406 40.554688 M 229.117188 54.386719 L 229.117188 54.386719 M 224.933594 72.011719 L 224.933594 72.011719 M 229.386719 67 L 229.386719 67 M 228.320313 54.300781 L 228.320313 54.300781 M 228.796875 56.277344 L 228.796875 56.277344 M 225.789063 42.300781 L 225.789063 42.300781 M 224.113281 58.164063 L 224.113281 58.164063 M 225.800781 60.234375 L 225.800781 60.234375 M 231.441406 37.320313 L 231.441406 37.320313 M 231.40625 53.089844 L 231.40625 53.089844 "
       id="path35" />
    <path
       style=" stroke:none;fill-rule:nonzero;fill:rgb(12.940979%,11.764526%,11.764526%);fill-opacity:1;"
       d="M 297.496094 55.265625 C 297.199219 55.578125 296.996094 55.96875 296.777344 55.96875 C 296.574219 55.96875 296.496094 55.703125 296.449219 55.53125 C 296.386719 55.28125 296.042969 53.859375 296.042969 53.671875 C 296.042969 53.671875 296.746094 52.40625 297.042969 52.40625 C 297.277344 52.40625 297.355469 52.578125 297.605469 52.578125 C 297.855469 52.578125 297.964844 52.375 297.964844 52.1875 C 297.964844 51.9375 297.730469 51.8125 297.527344 51.8125 C 296.980469 51.8125 296.496094 52.453125 295.949219 53.3125 L 295.839844 52.734375 C 295.652344 51.8125 295.496094 51.8125 295.261719 51.8125 C 294.933594 51.8125 294.246094 52.0625 293.964844 52.15625 L 293.996094 52.3125 C 294.339844 52.234375 294.480469 52.203125 294.574219 52.203125 C 294.855469 52.203125 294.902344 52.34375 294.996094 52.671875 C 295.011719 52.734375 295.355469 54.109375 295.355469 54.203125 C 294.417969 55.578125 294.152344 55.9375 293.964844 55.9375 C 293.777344 55.9375 293.589844 55.734375 293.371094 55.734375 C 293.136719 55.734375 293.011719 55.921875 293.011719 56.09375 C 293.011719 56.34375 293.183594 56.53125 293.527344 56.53125 C 293.839844 56.53125 293.964844 56.421875 294.152344 56.21875 C 294.496094 55.84375 294.949219 55.28125 295.449219 54.578125 L 295.761719 55.84375 C 295.886719 56.390625 296.042969 56.53125 296.355469 56.53125 C 296.589844 56.53125 296.886719 56.53125 297.636719 55.34375 Z M 297.496094 55.265625 "
       id="path37" />
    <g
       clip-path="url(#clip3)"
       clip-rule="nonzero"
       id="g41">
      <path
         style=" stroke:none;fill-rule:nonzero;fill:rgb(12.940979%,11.764526%,11.764526%);fill-opacity:1;"
         d="M 298.210938 58.164063 L 299.835938 58.164063 L 299.835938 58.070313 C 299.539063 58.085938 299.335938 58.070313 299.335938 57.882813 C 299.335938 57.789063 299.414063 57.585938 299.429688 57.460938 L 300.273438 54.460938 C 300.289063 54.367188 300.320313 54.242188 300.273438 54.242188 C 300.226563 54.242188 299.429688 54.414063 299.148438 54.460938 L 299.148438 54.554688 L 299.476563 54.539063 C 299.539063 54.539063 299.710938 54.539063 299.710938 54.726563 C 299.710938 54.773438 299.679688 54.851563 299.664063 54.914063 L 298.867188 57.773438 C 298.789063 58.023438 298.554688 58.054688 298.210938 58.085938 Z M 298.210938 58.164063 "
         id="path39" />
    </g>
    <path
       style=" stroke:none;fill-rule:nonzero;fill:rgb(12.940979%,11.764526%,11.764526%);fill-opacity:1;"
       d="M 143.601563 55.265625 C 143.304688 55.578125 143.101563 55.96875 142.882813 55.96875 C 142.679688 55.96875 142.601563 55.703125 142.554688 55.53125 C 142.492188 55.28125 142.148438 53.859375 142.148438 53.671875 C 142.148438 53.671875 142.851563 52.40625 143.148438 52.40625 C 143.382813 52.40625 143.460938 52.578125 143.710938 52.578125 C 143.960938 52.578125 144.070313 52.375 144.070313 52.1875 C 144.070313 51.9375 143.835938 51.8125 143.632813 51.8125 C 143.085938 51.8125 142.601563 52.453125 142.054688 53.3125 L 141.945313 52.734375 C 141.757813 51.8125 141.601563 51.8125 141.367188 51.8125 C 141.039063 51.8125 140.351563 52.0625 140.070313 52.15625 L 140.101563 52.3125 C 140.445313 52.234375 140.585938 52.203125 140.679688 52.203125 C 140.960938 52.203125 141.007813 52.34375 141.101563 52.671875 C 141.117188 52.734375 141.460938 54.109375 141.460938 54.203125 C 140.523438 55.578125 140.257813 55.9375 140.070313 55.9375 C 139.882813 55.9375 139.695313 55.734375 139.476563 55.734375 C 139.242188 55.734375 139.117188 55.921875 139.117188 56.09375 C 139.117188 56.34375 139.289063 56.53125 139.632813 56.53125 C 139.945313 56.53125 140.070313 56.421875 140.257813 56.21875 C 140.601563 55.84375 141.054688 55.28125 141.554688 54.578125 L 141.867188 55.84375 C 141.992188 56.390625 142.148438 56.53125 142.460938 56.53125 C 142.695313 56.53125 142.992188 56.53125 143.742188 55.34375 Z M 143.601563 55.265625 "
       id="path43" />
    <path
       style=" stroke:none;fill-rule:nonzero;fill:rgb(12.940979%,11.764526%,11.764526%);fill-opacity:1;"
       d="M 144.316406 58.164063 L 145.941406 58.164063 L 145.941406 58.070313 C 145.644531 58.085938 145.441406 58.070313 145.441406 57.882813 C 145.441406 57.789063 145.519531 57.585938 145.535156 57.460938 L 146.378906 54.460938 C 146.394531 54.367188 146.425781 54.242188 146.378906 54.242188 C 146.332031 54.242188 145.535156 54.414063 145.253906 54.460938 L 145.253906 54.554688 L 145.582031 54.539063 C 145.644531 54.539063 145.816406 54.539063 145.816406 54.726563 C 145.816406 54.773438 145.785156 54.851563 145.769531 54.914063 L 144.972656 57.773438 C 144.894531 58.023438 144.660156 58.054688 144.316406 58.085938 Z M 144.316406 58.164063 "
       id="path45" />
    <path
       style=" stroke:none;fill-rule:nonzero;fill:rgb(12.940979%,11.764526%,11.764526%);fill-opacity:1;"
       d="M 221.324219 3.453125 C 221.027344 3.765625 220.824219 4.15625 220.605469 4.15625 C 220.402344 4.15625 220.324219 3.890625 220.277344 3.71875 C 220.214844 3.46875 219.871094 2.046875 219.871094 1.859375 C 219.871094 1.859375 220.574219 0.59375 220.871094 0.59375 C 221.105469 0.59375 221.183594 0.765625 221.433594 0.765625 C 221.683594 0.765625 221.792969 0.5625 221.792969 0.375 C 221.792969 0.125 221.558594 0 221.355469 0 C 220.808594 0 220.324219 0.640625 219.777344 1.5 L 219.667969 0.921875 C 219.480469 0 219.324219 0 219.089844 0 C 218.761719 0 218.074219 0.25 217.792969 0.34375 L 217.824219 0.5 C 218.167969 0.421875 218.308594 0.390625 218.402344 0.390625 C 218.683594 0.390625 218.730469 0.53125 218.824219 0.859375 C 218.839844 0.921875 219.183594 2.296875 219.183594 2.390625 C 218.246094 3.765625 217.980469 4.125 217.792969 4.125 C 217.605469 4.125 217.417969 3.921875 217.199219 3.921875 C 216.964844 3.921875 216.839844 4.109375 216.839844 4.28125 C 216.839844 4.53125 217.011719 4.71875 217.355469 4.71875 C 217.667969 4.71875 217.792969 4.609375 217.980469 4.40625 C 218.324219 4.03125 218.777344 3.46875 219.277344 2.765625 L 219.589844 4.03125 C 219.714844 4.578125 219.871094 4.71875 220.183594 4.71875 C 220.417969 4.71875 220.714844 4.71875 221.464844 3.53125 Z M 221.324219 3.453125 "
       id="path47" />
    <path
       style=" stroke:none;fill-rule:nonzero;fill:rgb(12.940979%,11.764526%,11.764526%);fill-opacity:1;"
       d="M 224.066406 5.535156 C 223.972656 5.753906 223.878906 5.910156 223.503906 5.910156 L 222.394531 5.910156 L 222.394531 5.878906 L 223.503906 4.769531 C 224.222656 4.050781 224.378906 3.785156 224.378906 3.394531 C 224.378906 2.957031 224.050781 2.425781 223.441406 2.425781 C 223.285156 2.425781 222.535156 2.457031 222.222656 3.363281 L 222.332031 3.394531 C 222.425781 3.253906 222.644531 2.847656 223.160156 2.847656 C 223.613281 2.847656 223.878906 3.207031 223.878906 3.566406 C 223.878906 3.753906 223.847656 4.082031 223.035156 4.957031 L 221.816406 6.253906 L 221.816406 6.347656 L 223.878906 6.347656 L 224.175781 5.582031 Z M 224.066406 5.535156 "
       id="path49" />
    <path
       style=" stroke:none;fill-rule:nonzero;fill:rgb(12.940979%,11.764526%,11.764526%);fill-opacity:1;"
       d="M 67.816406 3.453125 C 67.519531 3.765625 67.316406 4.15625 67.097656 4.15625 C 66.894531 4.15625 66.816406 3.890625 66.769531 3.71875 C 66.707031 3.46875 66.363281 2.046875 66.363281 1.859375 C 66.363281 1.859375 67.066406 0.59375 67.363281 0.59375 C 67.597656 0.59375 67.675781 0.765625 67.925781 0.765625 C 68.175781 0.765625 68.285156 0.5625 68.285156 0.375 C 68.285156 0.125 68.050781 0 67.847656 0 C 67.300781 0 66.816406 0.640625 66.269531 1.5 L 66.160156 0.921875 C 65.972656 0 65.816406 0 65.582031 0 C 65.253906 0 64.566406 0.25 64.285156 0.34375 L 64.316406 0.5 C 64.660156 0.421875 64.800781 0.390625 64.894531 0.390625 C 65.175781 0.390625 65.222656 0.53125 65.316406 0.859375 C 65.332031 0.921875 65.675781 2.296875 65.675781 2.390625 C 64.738281 3.765625 64.472656 4.125 64.285156 4.125 C 64.097656 4.125 63.910156 3.921875 63.691406 3.921875 C 63.457031 3.921875 63.332031 4.109375 63.332031 4.28125 C 63.332031 4.53125 63.503906 4.71875 63.847656 4.71875 C 64.160156 4.71875 64.285156 4.609375 64.472656 4.40625 C 64.816406 4.03125 65.269531 3.46875 65.769531 2.765625 L 66.082031 4.03125 C 66.207031 4.578125 66.363281 4.71875 66.675781 4.71875 C 66.910156 4.71875 67.207031 4.71875 67.957031 3.53125 Z M 67.816406 3.453125 "
       id="path51" />
    <path
       style=" stroke:none;fill-rule:nonzero;fill:rgb(12.940979%,11.764526%,11.764526%);fill-opacity:1;"
       d="M 70.5625 5.535156 C 70.46875 5.753906 70.375 5.910156 70 5.910156 L 68.890625 5.910156 L 68.890625 5.878906 L 70 4.769531 C 70.71875 4.050781 70.875 3.785156 70.875 3.394531 C 70.875 2.957031 70.546875 2.425781 69.9375 2.425781 C 69.78125 2.425781 69.03125 2.457031 68.71875 3.363281 L 68.828125 3.394531 C 68.921875 3.253906 69.140625 2.847656 69.65625 2.847656 C 70.109375 2.847656 70.375 3.207031 70.375 3.566406 C 70.375 3.753906 70.34375 4.082031 69.53125 4.957031 L 68.3125 6.253906 L 68.3125 6.347656 L 70.375 6.347656 L 70.671875 5.582031 Z M 70.5625 5.535156 "
       id="path53" />
  </g>
</svg>
