<?xml version="1.0" encoding="UTF-8" standalone="no"?>
<svg
   xmlns:dc="http://purl.org/dc/elements/1.1/"
   xmlns:cc="http://creativecommons.org/ns#"
   xmlns:rdf="http://www.w3.org/1999/02/22-rdf-syntax-ns#"
   xmlns:svg="http://www.w3.org/2000/svg"
   xmlns="http://www.w3.org/2000/svg"
   xmlns:sodipodi="http://sodipodi.sourceforge.net/DTD/sodipodi-0.dtd"
   xmlns:inkscape="http://www.inkscape.org/namespaces/inkscape"
   width="322.022949pt"
   height="44.530449pt"
   viewBox="0 0 322.022949 44.530449"
   version="1.2"
   id="svg94"
   sodipodi:docname="convergence.svg"
   inkscape:version="0.92.4 (5da689c313, 2019-01-14)">
  <metadata
     id="metadata98">
    <rdf:RDF>
      <cc:Work
         rdf:about="">
        <dc:format>image/svg+xml</dc:format>
        <dc:type
           rdf:resource="http://purl.org/dc/dcmitype/StillImage" />
        <dc:title></dc:title>
      </cc:Work>
    </rdf:RDF>
  </metadata>
  <sodipodi:namedview
     pagecolor="#ffffff"
     bordercolor="#666666"
     borderopacity="1"
     objecttolerance="10"
     gridtolerance="10"
     guidetolerance="10"
     inkscape:pageopacity="0"
     inkscape:pageshadow="2"
     inkscape:window-width="661"
     inkscape:window-height="480"
     id="namedview96"
     showgrid="false"
     inkscape:zoom="0.73131434"
     inkscape:cx="214.68197"
     inkscape:cy="29.686966"
     inkscape:window-x="0"
     inkscape:window-y="0"
     inkscape:window-maximized="0"
     inkscape:current-layer="svg94" />
  <defs
     id="defs23">
    <clipPath
       id="clip1">
      <path
         d="M 320 18 L 322.023438 18 L 322.023438 21 L 320 21 Z M 320 18 "
         id="path2" />
    </clipPath>
    <clipPath
       id="clip2">
      <path
         d="M 33 0 L 79 0 L 79 44.53125 L 33 44.53125 Z M 33 0 "
         id="path5" />
    </clipPath>
    <clipPath
       id="clip3">
      <path
         d="M 84 0 L 130 0 L 130 44.53125 L 84 44.53125 Z M 84 0 "
         id="path8" />
    </clipPath>
    <clipPath
       id="clip4">
      <path
         d="M 135 0 L 181 0 L 181 44.53125 L 135 44.53125 Z M 135 0 "
         id="path11" />
    </clipPath>
    <clipPath
       id="clip5">
      <path
         d="M 187 0 L 232 0 L 232 44.53125 L 187 44.53125 Z M 187 0 "
         id="path14" />
    </clipPath>
    <clipPath
       id="clip6">
      <path
         d="M 259 0 L 305 0 L 305 44.53125 L 259 44.53125 Z M 259 0 "
         id="path17" />
    </clipPath>
    <clipPath
       id="clip7">
      <path
         d="M 260 0 L 303 0 L 303 44.53125 L 260 44.53125 Z M 260 0 "
         id="path20" />
    </clipPath>
  </defs>
  <g
     id="surface44">
    <path
       style=" stroke:none;fill-rule:nonzero;fill:rgb(12.940979%,11.764526%,11.764526%);fill-opacity:1;"
       d="M 242.828125 20.078125 C 243.125 20.078125 243.625 19.828125 243.625 19.296875 C 243.625 18.859375 243.25 18.484375 242.828125 18.484375 C 242.390625 18.484375 242.03125 18.84375 242.03125 19.296875 C 242.03125 19.84375 242.515625 20.078125 242.828125 20.078125 Z M 242.828125 20.078125 "
       id="path25" />
    <path
       style=" stroke:none;fill-rule:nonzero;fill:rgb(12.940979%,11.764526%,11.764526%);fill-opacity:1;"
       d="M 246.425781 20.078125 C 246.722656 20.078125 247.222656 19.828125 247.222656 19.296875 C 247.222656 18.859375 246.847656 18.484375 246.425781 18.484375 C 245.988281 18.484375 245.628906 18.84375 245.628906 19.296875 C 245.628906 19.84375 246.113281 20.078125 246.425781 20.078125 Z M 246.425781 20.078125 "
       id="path27" />
    <path
       style=" stroke:none;fill-rule:nonzero;fill:rgb(12.940979%,11.764526%,11.764526%);fill-opacity:1;"
       d="M 250.027344 20.078125 C 250.324219 20.078125 250.824219 19.828125 250.824219 19.296875 C 250.824219 18.859375 250.449219 18.484375 250.027344 18.484375 C 249.589844 18.484375 249.230469 18.84375 249.230469 19.296875 C 249.230469 19.84375 249.714844 20.078125 250.027344 20.078125 Z M 250.027344 20.078125 "
       id="path29" />
    <path
       style=" stroke:none;fill-rule:nonzero;fill:rgb(12.940979%,11.764526%,11.764526%);fill-opacity:1;"
       d="M 314.027344 20.078125 C 314.324219 20.078125 314.824219 19.828125 314.824219 19.296875 C 314.824219 18.859375 314.449219 18.484375 314.027344 18.484375 C 313.589844 18.484375 313.230469 18.84375 313.230469 19.296875 C 313.230469 19.84375 313.714844 20.078125 314.027344 20.078125 Z M 314.027344 20.078125 "
       id="path31" />
    <path
       style=" stroke:none;fill-rule:nonzero;fill:rgb(12.940979%,11.764526%,11.764526%);fill-opacity:1;"
       d="M 317.625 20.078125 C 317.921875 20.078125 318.421875 19.828125 318.421875 19.296875 C 318.421875 18.859375 318.046875 18.484375 317.625 18.484375 C 317.1875 18.484375 316.828125 18.84375 316.828125 19.296875 C 316.828125 19.84375 317.3125 20.078125 317.625 20.078125 Z M 317.625 20.078125 "
       id="path33" />
    <g
       clip-path="url(#clip1)"
       clip-rule="nonzero"
       id="g37">
      <path
         style=" stroke:none;fill-rule:nonzero;fill:rgb(12.940979%,11.764526%,11.764526%);fill-opacity:1;"
         d="M 321.226563 20.078125 C 321.523438 20.078125 322.023438 19.828125 322.023438 19.296875 C 322.023438 18.859375 321.648438 18.484375 321.226563 18.484375 C 320.789063 18.484375 320.429688 18.84375 320.429688 19.296875 C 320.429688 19.84375 320.914063 20.078125 321.226563 20.078125 Z M 321.226563 20.078125 "
         id="path35" />
    </g>
    <path
       style=" stroke:none;fill-rule:nonzero;fill:rgb(12.940979%,11.764526%,11.764526%);fill-opacity:1;"
       d="M 3.359375 23.601563 C 3.109375 24.023438 3.03125 24.179688 2.84375 24.179688 C 2.625 24.179688 2.46875 23.789063 1.859375 22.351563 C 3.015625 21.335938 3.34375 21.070313 3.75 21.054688 L 3.75 20.929688 L 2.21875 20.929688 L 2.21875 21.054688 C 2.4375 21.054688 2.671875 21.054688 2.671875 21.226563 C 2.671875 21.476563 1.59375 22.289063 1.140625 22.648438 L 1.125 22.632813 L 2.125 18.820313 L 2.078125 18.789063 C 1.640625 18.882813 1.203125 18.960938 0.765625 19.007813 L 0.765625 19.148438 C 0.984375 19.132813 1.34375 19.132813 1.34375 19.351563 C 1.328125 19.539063 1.140625 20.164063 1.0625 20.460938 L 0 24.523438 L 0.625 24.523438 L 1.03125 23.007813 L 1.375 22.742188 C 1.46875 22.992188 1.78125 23.726563 1.890625 23.929688 C 2.140625 24.429688 2.28125 24.617188 2.546875 24.617188 C 2.921875 24.617188 3.15625 24.304688 3.484375 23.695313 Z M 3.359375 23.601563 "
       id="path39" />
    <path
       style=" stroke:none;fill-rule:nonzero;fill:rgb(12.940979%,11.764526%,11.764526%);fill-opacity:1;"
       d="M 6.371094 25.617188 C 6.136719 25.898438 5.996094 26.085938 5.871094 26.085938 C 5.855469 26.085938 5.777344 26.085938 5.777344 25.992188 C 5.777344 25.804688 6.261719 24.335938 6.261719 24.070313 C 6.261719 23.820313 6.121094 23.679688 5.839844 23.679688 C 5.339844 23.679688 4.792969 24.507813 4.511719 24.945313 L 4.496094 24.945313 L 4.886719 23.679688 L 4.871094 23.679688 C 4.542969 23.742188 4.214844 23.804688 3.886719 23.867188 L 3.886719 23.960938 C 4.214844 23.960938 4.277344 24.023438 4.277344 24.117188 C 4.277344 24.242188 3.871094 25.648438 3.683594 26.320313 L 4.136719 26.320313 C 4.386719 25.507813 4.464844 25.242188 4.746094 24.835938 C 4.949219 24.492188 5.339844 23.976563 5.621094 23.976563 C 5.730469 23.976563 5.777344 24.070313 5.777344 24.179688 C 5.777344 24.414063 5.324219 25.882813 5.324219 26.023438 C 5.324219 26.195313 5.339844 26.367188 5.621094 26.367188 C 5.933594 26.367188 6.152344 26.101563 6.449219 25.695313 Z M 6.371094 25.617188 "
       id="path41" />
    <path
       style=" stroke:none;fill-rule:nonzero;fill:rgb(12.940979%,11.764526%,11.764526%);fill-opacity:1;"
       d="M 13.65625 21.273438 L 9.421875 21.273438 L 9.421875 21.835938 L 13.65625 21.835938 Z M 13.65625 22.960938 L 9.421875 22.960938 L 9.421875 23.507813 L 13.65625 23.507813 Z M 13.65625 22.960938 "
       id="path43" />
    <path
       style=" stroke:none;fill-rule:nonzero;fill:rgb(12.940979%,11.764526%,11.764526%);fill-opacity:1;"
       d="M 16.753906 21.820313 L 17.785156 21.304688 L 20.410156 26.726563 L 22.035156 16.476563 L 21.660156 16.414063 L 20.285156 25.039063 L 18.160156 20.679688 L 16.582031 21.460938 Z M 16.753906 21.820313 "
       id="path45" />
    <path
       style=" stroke:none;fill-rule:nonzero;fill:rgb(12.940979%,11.764526%,11.764526%);fill-opacity:1;"
       d="M 26.261719 23.539063 C 25.964844 23.929688 25.746094 24.210938 25.574219 24.210938 C 25.558594 24.210938 25.449219 24.179688 25.449219 24.054688 C 25.449219 23.804688 26.121094 21.726563 26.121094 21.367188 C 26.121094 21.023438 25.917969 20.820313 25.542969 20.820313 C 24.839844 20.820313 24.074219 21.992188 23.667969 22.601563 L 23.652344 22.585938 L 24.199219 20.835938 L 24.167969 20.820313 C 23.714844 20.914063 23.261719 20.992188 22.808594 21.070313 L 22.808594 21.210938 C 23.261719 21.210938 23.339844 21.304688 23.339844 21.429688 C 23.339844 21.601563 22.777344 23.570313 22.527344 24.523438 L 23.152344 24.523438 C 23.496094 23.382813 23.605469 23.023438 23.996094 22.445313 C 24.292969 21.960938 24.824219 21.242188 25.230469 21.242188 C 25.386719 21.242188 25.433594 21.367188 25.433594 21.507813 C 25.433594 21.851563 24.808594 23.898438 24.808594 24.101563 C 24.808594 24.351563 24.824219 24.601563 25.214844 24.601563 C 25.667969 24.601563 25.964844 24.210938 26.386719 23.648438 Z M 26.261719 23.539063 "
       id="path47" />
    <g
       clip-path="url(#clip2)"
       clip-rule="nonzero"
       id="g51">
      <path
         style="fill:none;stroke-width:0.3;stroke-linecap:round;stroke-linejoin:round;stroke:rgb(0%,0%,0%);stroke-opacity:1;stroke-miterlimit:10;"
         d="M 33.957031 0.148438 L 78.183594 0.148438 L 78.183594 44.378906 L 33.957031 44.378906 Z M 33.957031 0.148438 "
         id="path49" />
    </g>
    <path
       style="fill:none;stroke-width:0.3;stroke-linecap:round;stroke-linejoin:round;stroke:rgb(100%,0%,0%);stroke-opacity:1;stroke-miterlimit:10;"
       d="M 74.011719 22.261719 C 74.011719 12.359375 65.972656 4.324219 56.070313 4.324219 C 46.167969 4.324219 38.128906 12.359375 38.128906 22.261719 C 38.128906 32.167969 46.167969 40.203125 56.070313 40.203125 C 65.972656 40.203125 74.011719 32.167969 74.011719 22.261719 C 74.011719 21.664063 73.980469 21.066406 73.921875 20.472656 "
       id="path53" />
    <path
       style="fill:none;stroke-width:1.99;stroke-linecap:round;stroke-linejoin:round;stroke:rgb(0%,0%,0%);stroke-opacity:1;stroke-miterlimit:10;"
       d="M 41.902344 32.558594 L 41.902344 32.558594 "
       id="path55" />
    <g
       clip-path="url(#clip3)"
       clip-rule="nonzero"
       id="g59">
      <path
         style="fill:none;stroke-width:0.3;stroke-linecap:round;stroke-linejoin:round;stroke:rgb(0%,0%,0%);stroke-opacity:1;stroke-miterlimit:10;"
         d="M 85.039063 0.148438 L 129.269531 0.148438 L 129.269531 44.378906 L 85.039063 44.378906 Z M 85.039063 0.148438 "
         id="path57" />
    </g>
    <path
       style="fill:none;stroke-width:0.3;stroke-linecap:round;stroke-linejoin:round;stroke:rgb(100%,0%,0%);stroke-opacity:1;stroke-miterlimit:10;"
       d="M 125.09375 22.261719 C 125.09375 12.359375 117.058594 4.324219 107.15625 4.324219 C 97.253906 4.324219 89.214844 12.359375 89.214844 22.261719 C 89.214844 32.167969 97.253906 40.203125 107.15625 40.203125 C 117.058594 40.203125 125.09375 32.167969 125.09375 22.261719 C 125.09375 21.664063 125.066406 21.066406 125.003906 20.472656 "
       id="path61" />
    <path
       style="fill:none;stroke-width:1.99;stroke-linecap:round;stroke-linejoin:round;stroke:rgb(0%,0%,0%);stroke-opacity:1;stroke-miterlimit:10;"
       d="M 92.984375 32.558594 L 92.984375 32.558594 M 118.421875 19.472656 L 118.421875 19.472656 M 106.429688 1.355469 L 106.429688 1.355469 M 113.972656 1.929688 L 113.972656 1.929688 "
       id="path63" />
    <g
       clip-path="url(#clip4)"
       clip-rule="nonzero"
       id="g67">
      <path
         style="fill:none;stroke-width:0.3;stroke-linecap:round;stroke-linejoin:round;stroke:rgb(0%,0%,0%);stroke-opacity:1;stroke-miterlimit:10;"
         d="M 136.125 0.148438 L 180.351563 0.148438 L 180.351563 44.378906 L 136.125 44.378906 Z M 136.125 0.148438 "
         id="path65" />
    </g>
    <path
       style="fill:none;stroke-width:0.3;stroke-linecap:round;stroke-linejoin:round;stroke:rgb(100%,0%,0%);stroke-opacity:1;stroke-miterlimit:10;"
       d="M 172.707031 22.261719 C 172.707031 14.277344 166.226563 7.796875 158.238281 7.796875 C 150.253906 7.796875 143.773438 14.277344 143.773438 22.261719 C 143.773438 30.25 150.253906 36.730469 158.238281 36.730469 C 166.226563 36.730469 172.707031 30.25 172.707031 22.261719 C 172.707031 21.78125 172.683594 21.296875 172.636719 20.816406 "
       id="path69" />
    <path
       style="fill:none;stroke-width:1.99;stroke-linecap:round;stroke-linejoin:round;stroke:rgb(0%,0%,0%);stroke-opacity:1;stroke-miterlimit:10;"
       d="M 144.070313 32.558594 L 144.070313 32.558594 M 169.507813 19.472656 L 169.507813 19.472656 M 157.511719 1.355469 L 157.511719 1.355469 M 165.054688 1.929688 L 165.054688 1.929688 M 144.726563 18.4375 L 144.726563 18.4375 M 155.765625 18.992188 L 155.765625 18.992188 M 139.792969 18.0625 L 139.792969 18.0625 M 138.59375 25.890625 L 138.59375 25.890625 M 173.214844 21.722656 L 173.214844 21.722656 "
       id="path71" />
    <g
       clip-path="url(#clip5)"
       clip-rule="nonzero"
       id="g75">
      <path
         style="fill:none;stroke-width:0.3;stroke-linecap:round;stroke-linejoin:round;stroke:rgb(0%,0%,0%);stroke-opacity:1;stroke-miterlimit:10;"
         d="M 187.210938 0.148438 L 231.4375 0.148438 L 231.4375 44.378906 L 187.210938 44.378906 Z M 187.210938 0.148438 "
         id="path73" />
    </g>
    <path
       style="fill:none;stroke-width:0.3;stroke-linecap:round;stroke-linejoin:round;stroke:rgb(100%,0%,0%);stroke-opacity:1;stroke-miterlimit:10;"
       d="M 221.359375 22.261719 C 221.359375 15.621094 215.964844 10.230469 209.324219 10.230469 C 202.679688 10.230469 197.289063 15.621094 197.289063 22.261719 C 197.289063 28.90625 202.679688 34.296875 209.324219 34.296875 C 215.964844 34.296875 221.359375 28.90625 221.359375 22.261719 C 221.359375 21.863281 221.335938 21.460938 221.296875 21.0625 "
       id="path77" />
    <path
       style="fill:none;stroke-width:1.99;stroke-linecap:round;stroke-linejoin:round;stroke:rgb(0%,0%,0%);stroke-opacity:1;stroke-miterlimit:10;"
       d="M 195.15625 32.558594 L 195.15625 32.558594 M 220.589844 19.472656 L 220.589844 19.472656 M 208.597656 1.355469 L 208.597656 1.355469 M 216.140625 1.929688 L 216.140625 1.929688 M 195.8125 18.4375 L 195.8125 18.4375 M 206.847656 18.992188 L 206.847656 18.992188 M 190.875 18.0625 L 190.875 18.0625 M 189.675781 25.890625 L 189.675781 25.890625 M 224.296875 21.722656 L 224.296875 21.722656 M 225.179688 5.183594 L 225.179688 5.183594 M 212.703125 2.640625 L 212.703125 2.640625 M 220.589844 19.472656 L 220.589844 19.472656 M 205.609375 13.605469 L 205.609375 13.605469 M 194.527344 17.726563 L 194.527344 17.726563 M 227.597656 13.253906 L 227.597656 13.253906 M 208.976563 16.796875 L 208.976563 16.796875 "
       id="path79" />
    <g
       clip-path="url(#clip6)"
       clip-rule="nonzero"
       id="g83">
      <path
         style="fill:none;stroke-width:0.3;stroke-linecap:round;stroke-linejoin:round;stroke:rgb(0%,0%,0%);stroke-opacity:1;stroke-miterlimit:10;"
         d="M 259.90625 0.148438 L 304.132813 0.148438 L 304.132813 44.378906 L 259.90625 44.378906 Z M 259.90625 0.148438 "
         id="path81" />
    </g>
    <path
       style="fill:none;stroke-width:0.3;stroke-linecap:round;stroke-linejoin:round;stroke:rgb(100%,0%,0%);stroke-opacity:1;stroke-miterlimit:10;"
       d="M 290.207031 22.261719 C 290.207031 17.746094 286.539063 14.078125 282.019531 14.078125 C 277.5 14.078125 273.832031 17.746094 273.832031 22.261719 C 273.832031 26.78125 277.5 30.449219 282.019531 30.449219 C 286.539063 30.449219 290.207031 26.78125 290.207031 22.261719 C 290.207031 21.988281 290.191406 21.71875 290.164063 21.445313 "
       id="path85" />
    <g
       clip-path="url(#clip7)"
       clip-rule="nonzero"
       id="g89">
      <path
         style="fill:none;stroke-width:1.99;stroke-linecap:round;stroke-linejoin:round;stroke:rgb(0%,0%,0%);stroke-opacity:1;stroke-miterlimit:10;"
         d="M 267.851563 32.558594 L 267.851563 32.558594 M 286.820313 2.742188 L 286.820313 2.742188 M 281.292969 1.355469 L 281.292969 1.355469 M 288.835938 1.929688 L 288.835938 1.929688 M 268.507813 18.4375 L 268.507813 18.4375 M 279.542969 18.992188 L 279.542969 18.992188 M 263.574219 18.0625 L 263.574219 18.0625 M 262.371094 25.890625 L 262.371094 25.890625 M 296.996094 21.722656 L 296.996094 21.722656 M 297.875 5.183594 L 297.875 5.183594 M 285.398438 2.640625 L 285.398438 2.640625 M 293.289063 19.472656 L 293.289063 19.472656 M 278.304688 13.605469 L 278.304688 13.605469 M 267.222656 17.726563 L 267.222656 17.726563 M 300.292969 13.253906 L 300.292969 13.253906 M 281.671875 16.796875 L 281.671875 16.796875 M 292.542969 38.339844 L 292.542969 38.339844 M 262.882813 41.332031 L 262.882813 41.332031 M 289.726563 21.277344 L 289.726563 21.277344 M 261.265625 16.441406 L 261.265625 16.441406 M 296.015625 43.082031 L 296.015625 43.082031 M 266.675781 12.257813 L 266.675781 12.257813 M 271.371094 41.441406 L 271.371094 41.441406 M 276.671875 36.3125 L 276.671875 36.3125 M 296.347656 28.835938 L 296.347656 28.835938 M 270.203125 19.582031 L 270.203125 19.582031 M 299.335938 16.582031 L 299.335938 16.582031 M 291.816406 3.785156 L 291.816406 3.785156 M 267.550781 21.769531 L 267.550781 21.769531 M 289.6875 5.976563 L 289.6875 5.976563 M 281.105469 1.492188 L 281.105469 1.492188 M 289.175781 33.0625 L 289.175781 33.0625 M 288.375 1.9375 L 288.375 1.9375 M 283.257813 21.804688 L 283.257813 21.804688 M 277.761719 4.019531 L 277.761719 4.019531 M 267.339844 29.015625 L 267.339844 29.015625 M 284.695313 18.710938 L 284.695313 18.710938 M 300.421875 10.433594 L 300.421875 10.433594 M 288.640625 3.128906 L 288.640625 3.128906 M 269.363281 7.648438 L 269.363281 7.648438 M 281.847656 24.886719 L 281.847656 24.886719 M 282.957031 2.671875 L 282.957031 2.671875 M 261.496094 24.394531 L 261.496094 24.394531 M 297.0625 13.136719 L 297.0625 13.136719 M 276.402344 23.457031 L 276.402344 23.457031 M 274.558594 34.859375 L 274.558594 34.859375 M 301.925781 20.433594 L 301.925781 20.433594 M 267.972656 6.839844 L 267.972656 6.839844 M 277.988281 2.722656 L 277.988281 2.722656 M 270.835938 39.933594 L 270.835938 39.933594 M 292.628906 43.121094 L 292.628906 43.121094 M 262.230469 33.28125 L 262.230469 33.28125 M 271.539063 19.230469 L 271.539063 19.230469 M 282.554688 31.613281 L 282.554688 31.613281 M 270.796875 38.363281 L 270.796875 38.363281 M 288.777344 19.476563 L 288.777344 19.476563 M 297.675781 15.90625 L 297.675781 15.90625 M 274.972656 28.144531 L 274.972656 28.144531 M 299.035156 38.996094 L 299.035156 38.996094 M 267.753906 22.304688 L 267.753906 22.304688 M 281.804688 37.273438 L 281.804688 37.273438 M 300.203125 25.898438 L 300.203125 25.898438 M 292.457031 37.679688 L 292.457031 37.679688 M 298.726563 36.140625 L 298.726563 36.140625 "
         id="path87" />
    </g>
    <path
       style="fill:none;stroke-width:1.99;stroke-linecap:round;stroke-linejoin:round;stroke:rgb(0%,0%,0%);stroke-opacity:1;stroke-miterlimit:10;"
       d="M 281.675781 19.449219 L 281.675781 19.449219 M 276.925781 5.527344 L 276.925781 5.527344 M 271.636719 24.609375 L 271.636719 24.609375 M 291.433594 29.578125 L 291.433594 29.578125 M 277.242188 9.707031 L 277.242188 9.707031 M 277.214844 2.433594 L 277.214844 2.433594 M 281.492188 14.234375 L 281.492188 14.234375 M 270.214844 23.652344 L 270.214844 23.652344 M 302.96875 20.488281 L 302.96875 20.488281 M 273.296875 41.28125 L 273.296875 41.28125 M 271.265625 26.332031 L 271.265625 26.332031 M 277.851563 6.136719 L 277.851563 6.136719 M 292.875 7.882813 L 292.875 7.882813 M 261.679688 1.609375 L 261.679688 1.609375 M 281.992188 26.800781 L 281.992188 26.800781 M 273.53125 15.554688 L 273.53125 15.554688 M 265.507813 18.09375 L 265.507813 18.09375 M 299.597656 14.121094 L 299.597656 14.121094 M 287.300781 4.859375 L 287.300781 4.859375 M 290.136719 33.996094 L 290.136719 33.996094 M 287.613281 27.898438 L 287.613281 27.898438 M 277.597656 36.238281 L 277.597656 36.238281 M 277.101563 2.5625 L 277.101563 2.5625 M 303.027344 31.101563 L 303.027344 31.101563 M 287.511719 38.207031 L 287.511719 38.207031 M 302.105469 30.492188 L 302.105469 30.492188 M 266.273438 12.40625 L 266.273438 12.40625 M 289.332031 15.9375 L 289.332031 15.9375 M 261.523438 37.839844 L 261.523438 37.839844 M 293.015625 2.8125 L 293.015625 2.8125 M 277.503906 33.980469 L 277.503906 33.980469 M 263.632813 12.34375 L 263.632813 12.34375 M 293.175781 7.082031 L 293.175781 7.082031 M 289.320313 19.628906 L 289.320313 19.628906 M 276.832031 5.519531 L 276.832031 5.519531 M 289.574219 32.054688 L 289.574219 32.054688 "
       id="path91" />
  </g>
</svg>
