<?xml version="1.0" encoding="UTF-8" standalone="no"?>
<svg
   xmlns:dc="http://purl.org/dc/elements/1.1/"
   xmlns:cc="http://creativecommons.org/ns#"
   xmlns:rdf="http://www.w3.org/1999/02/22-rdf-syntax-ns#"
   xmlns:svg="http://www.w3.org/2000/svg"
   xmlns="http://www.w3.org/2000/svg"
   xmlns:sodipodi="http://sodipodi.sourceforge.net/DTD/sodipodi-0.dtd"
   xmlns:inkscape="http://www.inkscape.org/namespaces/inkscape"
   width="148.53688pt"
   height="147.677979pt"
   viewBox="0 0 148.53688 147.677979"
   version="1.2"
   id="svg54"
   sodipodi:docname="kmeans_iter3.svg"
   inkscape:version="0.92.4 (5da689c313, 2019-01-14)">
  <metadata
     id="metadata58">
    <rdf:RDF>
      <cc:Work
         rdf:about="">
        <dc:format>image/svg+xml</dc:format>
        <dc:type
           rdf:resource="http://purl.org/dc/dcmitype/StillImage" />
        <dc:title></dc:title>
      </cc:Work>
    </rdf:RDF>
  </metadata>
  <sodipodi:namedview
     pagecolor="#ffffff"
     bordercolor="#666666"
     borderopacity="1"
     objecttolerance="10"
     gridtolerance="10"
     guidetolerance="10"
     inkscape:pageopacity="0"
     inkscape:pageshadow="2"
     inkscape:window-width="640"
     inkscape:window-height="480"
     id="namedview56"
     showgrid="false"
     inkscape:zoom="1.1985538"
     inkscape:cx="99.024587"
     inkscape:cy="98.451986"
     inkscape:window-x="0"
     inkscape:window-y="0"
     inkscape:window-maximized="0"
     inkscape:current-layer="svg54" />
  <defs
     id="defs5">
    <clipPath
       id="clip1">
      <path
         d="M 146 144 L 148.535156 144 L 148.535156 147.679688 L 146 147.679688 Z M 146 144 "
         id="path2" />
    </clipPath>
  </defs>
  <g
     id="surface32">
    <path
       style="fill:none;stroke-width:0.825;stroke-linecap:round;stroke-linejoin:round;stroke:rgb(92.155457%,9.803772%,13.725281%);stroke-opacity:1;stroke-miterlimit:4;"
       d="M 70.460938 77.117188 L 103.726563 141.460938 M 70.460938 77.117188 L 12.679688 69.652344 M 70.460938 77.117188 L 103.847656 17.546875 "
       id="path7" />
    <path
       style="fill:none;stroke-width:1.248;stroke-linecap:round;stroke-linejoin:round;stroke:rgb(12.940979%,11.764526%,11.764526%);stroke-opacity:1;stroke-miterlimit:4;"
       d="M 44.976563 54.097656 L 44.976563 54.097656 M 72.859375 58.605469 L 72.859375 58.605469 M 82.21875 59.339844 L 82.21875 59.339844 M 34.386719 51.617188 L 34.386719 51.617188 M 54.007813 46.617188 L 54.007813 46.617188 M 48.671875 42.40625 L 48.671875 42.40625 M 61.597656 68.324219 L 61.597656 68.324219 M 57.945313 41.039063 L 57.945313 41.039063 M 63.335938 49.15625 L 63.335938 49.15625 M 58.011719 30.679688 L 58.011719 30.679688 M 31.65625 45.878906 L 31.65625 45.878906 M 68.882813 64.582031 L 68.882813 64.582031 M 68.304688 47.554688 L 68.304688 47.554688 M 62.835938 26.082031 L 62.835938 26.082031 M 45.121094 56.617188 L 45.121094 56.617188 M 65.230469 59.804688 L 65.230469 59.804688 M 42.28125 59.507813 L 42.28125 59.507813 M 56.679688 45.171875 L 56.679688 45.171875 M 61.417969 54.90625 L 61.417969 54.90625 M 31.390625 58.933594 L 31.390625 58.933594 M 56.714844 46.382813 L 56.714844 46.382813 M 79.796875 40.953125 L 79.796875 40.953125 M 51.402344 60.347656 L 51.402344 60.347656 M 33.417969 81.476563 L 33.417969 81.476563 M 54.871094 30.65625 L 54.871094 30.65625 M 56.195313 64.03125 L 56.195313 64.03125 M 74.308594 34.203125 L 74.308594 34.203125 M 74.058594 50.152344 L 74.058594 50.152344 M 31.175781 48.273438 L 31.175781 48.273438 M 81.597656 54.203125 L 81.597656 54.203125 M 76.734375 117.019531 L 76.734375 117.019531 M 73.089844 88.664063 L 73.089844 88.664063 M 58.9375 83.566406 L 58.9375 83.566406 M 65.601563 111.566406 L 65.601563 111.566406 M 36.519531 99.195313 L 36.519531 99.195313 M 37.542969 113.402344 L 37.542969 113.402344 M 32.785156 96.707031 L 32.785156 96.707031 M 21.566406 101.601563 L 21.566406 101.601563 M 35.554688 103.179688 L 35.554688 103.179688 M 41 135.117188 L 41 135.117188 M 56.320313 118.539063 L 56.320313 118.539063 M 40.253906 93.609375 L 40.253906 93.609375 M 73.527344 92.101563 L 73.527344 92.101563 M 31.375 106.347656 L 31.375 106.347656 M 72.230469 115.246094 L 72.230469 115.246094 M 54.414063 96.066406 L 54.414063 96.066406 M 61.550781 127.753906 L 61.550781 127.753906 M 31.132813 115.054688 L 31.132813 115.054688 M 46.4375 127.570313 L 46.4375 127.570313 M 67.863281 108.546875 L 67.863281 108.546875 M 64.472656 85.1875 L 64.472656 85.1875 M 62.761719 90.316406 L 62.761719 90.316406 M 54.398438 121.152344 L 54.398438 121.152344 M 56.765625 114.113281 L 56.765625 114.113281 M 52.539063 91.585938 L 52.539063 91.585938 M 44.273438 89.765625 L 44.273438 89.765625 M 48.160156 85.238281 L 48.160156 85.238281 M 35.183594 104.015625 L 35.183594 104.015625 M 67.269531 103.394531 L 67.269531 103.394531 M 41.640625 95.945313 L 41.640625 95.945313 M 127.503906 60.226563 L 127.503906 60.226563 M 97.613281 54.582031 L 97.613281 54.582031 M 113.820313 72.097656 L 113.820313 72.097656 M 112.007813 75.601563 L 112.007813 75.601563 "
       id="path9" />
    <path
       style="fill:none;stroke-width:1.248;stroke-linecap:round;stroke-linejoin:round;stroke:rgb(12.940979%,11.764526%,11.764526%);stroke-opacity:1;stroke-miterlimit:4;"
       d="M 104.597656 50.089844 L 104.597656 50.089844 M 100.457031 68.089844 L 100.457031 68.089844 M 108.648438 58.546875 L 108.648438 58.546875 M 106.402344 63.304688 L 106.402344 63.304688 M 104.445313 70.460938 L 104.445313 70.460938 M 104.425781 61.535156 L 104.425781 61.535156 M 121.582031 63.574219 L 121.582031 63.574219 M 100.5625 67.28125 L 100.5625 67.28125 M 110.40625 61.132813 L 110.40625 61.132813 M 104.195313 68.6875 L 104.195313 68.6875 M 108.644531 82.195313 L 108.644531 82.195313 M 111.675781 91.910156 L 111.675781 91.910156 M 116.417969 100.601563 L 116.417969 100.601563 M 73.34375 91.578125 L 73.34375 91.578125 M 118.304688 102.371094 L 118.304688 102.371094 M 89.304688 81.214844 L 89.304688 81.214844 M 106.191406 43.929688 L 106.191406 43.929688 M 87.402344 93.609375 L 87.402344 93.609375 M 94.054688 55.265625 L 94.054688 55.265625 M 117.679688 94.96875 L 117.679688 94.96875 M 131.273438 59.09375 L 131.273438 59.09375 M 104.976563 97.339844 L 104.976563 97.339844 M 116.804688 99.21875 L 116.804688 99.21875 M 96.222656 71.328125 L 96.222656 71.328125 M 115.707031 69.261719 L 115.707031 69.261719 M 122.84375 102.65625 L 122.84375 102.65625 "
       id="path11" />
    <path
       style="fill:none;stroke-width:2.487;stroke-linecap:round;stroke-linejoin:round;stroke:rgb(97.253418%,69.018555%,61.175537%);stroke-opacity:1;stroke-miterlimit:4;"
       d="M 58.011719 30.679688 L 58.011719 30.679688 M 31.390625 58.933594 L 31.390625 58.933594 M 81.597656 54.203125 L 81.597656 54.203125 "
       id="path13" />
    <path
       style="fill:none;stroke-width:2.487;stroke-linecap:round;stroke-linejoin:round;stroke:rgb(95.292664%,41.960144%,34.117126%);stroke-opacity:1;stroke-miterlimit:4;"
       d="M 58.226563 38.136719 L 58.226563 38.136719 M 42.59375 90.332031 L 42.59375 90.332031 M 92.605469 75.027344 L 92.605469 75.027344 "
       id="path15" />
    <path
       style="fill:none;stroke-width:2.487;stroke-linecap:round;stroke-linejoin:round;stroke:rgb(92.155457%,9.803772%,13.725281%);stroke-opacity:1;stroke-miterlimit:4;"
       d="M 56.09375 47.699219 L 56.09375 47.699219 M 49.085938 101.921875 L 49.085938 101.921875 M 103.050781 74.019531 L 103.050781 74.019531 "
       id="path17" />
    <path
       style="fill:none;stroke-width:0.55;stroke-linecap:round;stroke-linejoin:round;stroke:rgb(0%,0%,0%);stroke-opacity:1;stroke-miterlimit:4;"
       d="M 2.28125 10.589844 L 2.28125 144.195313 L 135.886719 144.195313 "
       id="path19" />
    <path
       style=" stroke:none;fill-rule:nonzero;fill:rgb(0%,0%,0%);fill-opacity:1;"
       d="M 137.183594 143.632813 C 136.277344 143.359375 135.683594 143.105469 134.957031 142.8125 L 134.957031 145.585938 C 135.21875 145.460938 136.277344 145.039063 137.183594 144.765625 C 138.160156 144.472656 139.039063 144.269531 139.613281 144.199219 C 139.039063 144.125 138.160156 143.925781 137.183594 143.632813 "
       id="path21" />
    <path
       style=" stroke:none;fill-rule:nonzero;fill:rgb(0%,0%,0%);fill-opacity:1;"
       d="M 1.71875 9.292969 C 1.441406 10.199219 1.191406 10.792969 0.898438 11.519531 L 3.671875 11.519531 C 3.546875 11.257813 3.125 10.199219 2.851563 9.292969 C 2.558594 8.320313 2.355469 7.4375 2.285156 6.863281 C 2.214844 7.4375 2.011719 8.320313 1.71875 9.292969 "
       id="path23" />
    <path
       style=" stroke:none;fill-rule:nonzero;fill:rgb(12.940979%,11.764526%,11.764526%);fill-opacity:1;"
       d="M 146.085938 144.933594 C 145.820313 145.230469 145.632813 145.589844 145.414063 145.589844 C 145.226563 145.589844 145.148438 145.339844 145.117188 145.183594 C 145.054688 144.933594 144.710938 143.589844 144.710938 143.417969 C 144.710938 143.417969 145.398438 142.214844 145.679688 142.214844 C 145.898438 142.214844 145.960938 142.386719 146.195313 142.386719 C 146.445313 142.386719 146.539063 142.199219 146.539063 142.027344 C 146.539063 141.777344 146.320313 141.667969 146.132813 141.667969 C 145.617188 141.667969 145.148438 142.261719 144.632813 143.074219 L 144.523438 142.542969 C 144.351563 141.667969 144.210938 141.667969 143.992188 141.667969 C 143.664063 141.667969 143.023438 141.902344 142.757813 141.996094 L 142.789063 142.136719 C 143.101563 142.058594 143.242188 142.027344 143.335938 142.027344 C 143.601563 142.027344 143.632813 142.167969 143.726563 142.480469 C 143.742188 142.527344 144.070313 143.839844 144.070313 143.933594 C 143.179688 145.230469 142.929688 145.558594 142.757813 145.558594 C 142.585938 145.558594 142.398438 145.371094 142.179688 145.371094 C 141.976563 145.371094 141.851563 145.558594 141.851563 145.714844 C 141.851563 145.949219 142.007813 146.136719 142.335938 146.136719 C 142.648438 146.136719 142.757813 146.027344 142.929688 145.839844 C 143.257813 145.480469 143.679688 144.933594 144.148438 144.292969 L 144.445313 145.480469 C 144.585938 145.996094 144.726563 146.136719 145.007813 146.136719 C 145.242188 146.136719 145.523438 146.136719 146.226563 145.011719 Z M 146.085938 144.933594 "
       id="path25" />
    <g
       clip-path="url(#clip1)"
       clip-rule="nonzero"
       id="g29">
      <path
         style=" stroke:none;fill-rule:nonzero;fill:rgb(12.940979%,11.764526%,11.764526%);fill-opacity:1;"
         d="M 146.761719 147.679688 L 148.136719 147.679688 L 148.136719 147.601563 C 147.886719 147.617188 147.714844 147.601563 147.714844 147.445313 C 147.714844 147.367188 147.777344 147.179688 147.792969 147.085938 L 148.511719 144.507813 C 148.527344 144.429688 148.558594 144.335938 148.511719 144.335938 C 148.480469 144.335938 147.792969 144.476563 147.558594 144.523438 L 147.558594 144.601563 L 147.839844 144.585938 C 147.886719 144.585938 148.027344 144.585938 148.027344 144.742188 C 148.027344 144.789063 148.011719 144.851563 147.996094 144.898438 L 147.308594 147.335938 C 147.246094 147.570313 147.042969 147.585938 146.761719 147.617188 Z M 146.761719 147.679688 "
         id="path27" />
    </g>
    <path
       style=" stroke:none;fill-rule:nonzero;fill:rgb(12.940979%,11.764526%,11.764526%);fill-opacity:1;"
       d="M 4.234375 3.265625 C 3.96875 3.5625 3.78125 3.921875 3.5625 3.921875 C 3.375 3.921875 3.296875 3.671875 3.265625 3.515625 C 3.203125 3.265625 2.859375 1.921875 2.859375 1.75 C 2.859375 1.75 3.546875 0.546875 3.828125 0.546875 C 4.046875 0.546875 4.109375 0.71875 4.34375 0.71875 C 4.59375 0.71875 4.6875 0.53125 4.6875 0.359375 C 4.6875 0.109375 4.46875 0 4.28125 0 C 3.765625 0 3.296875 0.59375 2.78125 1.40625 L 2.671875 0.875 C 2.5 0 2.359375 0 2.140625 0 C 1.8125 0 1.171875 0.234375 0.90625 0.328125 L 0.9375 0.46875 C 1.25 0.390625 1.390625 0.359375 1.484375 0.359375 C 1.75 0.359375 1.78125 0.5 1.875 0.8125 C 1.890625 0.859375 2.21875 2.171875 2.21875 2.265625 C 1.328125 3.5625 1.078125 3.890625 0.90625 3.890625 C 0.734375 3.890625 0.546875 3.703125 0.328125 3.703125 C 0.125 3.703125 0 3.890625 0 4.046875 C 0 4.28125 0.15625 4.46875 0.484375 4.46875 C 0.796875 4.46875 0.90625 4.359375 1.078125 4.171875 C 1.40625 3.8125 1.828125 3.265625 2.296875 2.625 L 2.59375 3.8125 C 2.734375 4.328125 2.875 4.46875 3.15625 4.46875 C 3.390625 4.46875 3.671875 4.46875 4.375 3.34375 Z M 4.234375 3.265625 "
       id="path31" />
    <path
       style=" stroke:none;fill-rule:nonzero;fill:rgb(12.940979%,11.764526%,11.764526%);fill-opacity:1;"
       d="M 6.644531 5.320313 C 6.550781 5.492188 6.472656 5.632813 6.144531 5.632813 L 5.207031 5.632813 L 5.207031 5.601563 L 6.160156 4.648438 C 6.769531 4.039063 6.894531 3.820313 6.894531 3.492188 C 6.894531 3.117188 6.628906 2.664063 6.097656 2.664063 C 5.972656 2.664063 5.316406 2.679688 5.050781 3.445313 L 5.160156 3.492188 C 5.222656 3.367188 5.425781 3.023438 5.863281 3.023438 C 6.238281 3.023438 6.472656 3.320313 6.472656 3.632813 C 6.472656 3.789063 6.457031 4.070313 5.753906 4.820313 L 4.722656 5.929688 L 4.722656 6.007813 L 6.472656 6.007813 L 6.722656 5.351563 Z M 6.644531 5.320313 "
       id="path33" />
    <path
       style=" stroke:none;fill-rule:nonzero;fill:rgb(100%,0%,0%);fill-opacity:1;"
       d="M 106.679688 9.011719 C 106.820313 8.808594 107.164063 8.355469 107.789063 8.355469 C 108.164063 8.355469 108.648438 8.589844 108.648438 9.246094 C 108.648438 10.324219 107.273438 10.746094 106.289063 10.886719 L 106.304688 11.042969 C 107.257813 10.980469 108.132813 11.339844 108.132813 12.730469 C 108.132813 13.980469 107.195313 14.308594 106.867188 14.308594 C 106.304688 14.308594 105.976563 13.714844 105.523438 13.714844 C 105.164063 13.714844 105.054688 13.902344 105.054688 14.105469 C 105.054688 14.558594 105.601563 14.683594 106.195313 14.683594 C 108.023438 14.683594 108.914063 13.292969 108.914063 12.183594 C 108.914063 11.105469 108.242188 10.808594 107.976563 10.683594 L 107.976563 10.652344 C 109.023438 10.261719 109.507813 9.917969 109.507813 9.167969 C 109.507813 8.355469 108.804688 7.933594 108.070313 7.933594 C 107.507813 7.933594 106.757813 8.371094 106.523438 8.964844 Z M 106.679688 9.011719 "
       id="path35" />
    <path
       style=" stroke:none;fill-rule:nonzero;fill:rgb(100%,100%,100%);fill-opacity:1;"
       d="M 56.320313 28.664063 L 63.820313 28.664063 L 63.820313 33.214844 L 56.320313 33.214844 Z M 56.320313 28.664063 "
       id="path37" />
    <path
       style=" stroke:none;fill-rule:nonzero;fill:rgb(100%,100%,100%);fill-opacity:1;"
       d="M 56.921875 36.847656 L 59.628906 36.847656 L 59.628906 39.496094 L 56.921875 39.496094 Z M 56.921875 36.847656 "
       id="path39" />
    <path
       style=" stroke:none;fill-rule:nonzero;fill:rgb(100%,100%,100%);fill-opacity:1;"
       d="M 80.136719 52.832031 L 82.84375 52.832031 L 82.84375 55.476563 L 80.136719 55.476563 Z M 80.136719 52.832031 "
       id="path41" />
    <path
       style=" stroke:none;fill-rule:nonzero;fill:rgb(100%,100%,100%);fill-opacity:1;"
       d="M 30.226563 57.941406 L 32.933594 57.941406 L 32.933594 60.585938 L 30.226563 60.585938 Z M 30.226563 57.941406 "
       id="path43" />
    <path
       style=" stroke:none;fill-rule:nonzero;fill:rgb(100%,100%,100%);fill-opacity:1;"
       d="M 30.0625 57.386719 L 32.769531 57.386719 L 32.769531 60.035156 L 30.0625 60.035156 Z M 30.0625 57.386719 "
       id="path45" />
    <path
       style=" stroke:none;fill-rule:nonzero;fill:rgb(100%,100%,100%);fill-opacity:1;"
       d="M 41.140625 89.039063 L 43.847656 89.039063 L 43.847656 91.683594 L 41.140625 91.683594 Z M 41.140625 89.039063 "
       id="path47" />
    <path
       style=" stroke:none;fill-rule:nonzero;fill:rgb(100%,100%,100%);fill-opacity:1;"
       d="M 91.148438 73.800781 L 93.855469 73.800781 L 93.855469 76.449219 L 91.148438 76.449219 Z M 91.148438 73.800781 "
       id="path49" />
    <path
       style="fill:none;stroke-width:0.822047;stroke-linecap:butt;stroke-linejoin:miter;stroke:rgb(92.155457%,9.803772%,13.725281%);stroke-opacity:1;stroke-miterlimit:4;"
       d="M 81.929688 56.648438 L 83.945313 53.027344 "
       id="path51" />
  </g>
</svg>
