<?xml version="1.0" encoding="UTF-8" standalone="no"?>
<svg
   xmlns:dc="http://purl.org/dc/elements/1.1/"
   xmlns:cc="http://creativecommons.org/ns#"
   xmlns:rdf="http://www.w3.org/1999/02/22-rdf-syntax-ns#"
   xmlns:svg="http://www.w3.org/2000/svg"
   xmlns="http://www.w3.org/2000/svg"
   xmlns:sodipodi="http://sodipodi.sourceforge.net/DTD/sodipodi-0.dtd"
   xmlns:inkscape="http://www.inkscape.org/namespaces/inkscape"
   width="186.97757pt"
   height="136.658447pt"
   viewBox="0 0 186.97757 136.658447"
   version="1.2"
   id="svg138"
   sodipodi:docname="relative_probability.svg"
   inkscape:version="0.92.4 (5da689c313, 2019-01-14)">
  <metadata
     id="metadata142">
    <rdf:RDF>
      <cc:Work
         rdf:about="">
        <dc:format>image/svg+xml</dc:format>
        <dc:type
           rdf:resource="http://purl.org/dc/dcmitype/StillImage" />
        <dc:title></dc:title>
      </cc:Work>
    </rdf:RDF>
  </metadata>
  <sodipodi:namedview
     pagecolor="#ffffff"
     bordercolor="#666666"
     borderopacity="1"
     objecttolerance="10"
     gridtolerance="10"
     guidetolerance="10"
     inkscape:pageopacity="0"
     inkscape:pageshadow="2"
     inkscape:window-width="661"
     inkscape:window-height="480"
     id="namedview140"
     showgrid="false"
     inkscape:zoom="1.2595094"
     inkscape:cx="124.65171"
     inkscape:cy="91.105632"
     inkscape:window-x="0"
     inkscape:window-y="0"
     inkscape:window-maximized="0"
     inkscape:current-layer="svg138" />
  <defs
     id="defs23">
    <clipPath
       id="clip1">
      <path
         d="M 162 130 L 166 130 L 166 136.660156 L 162 136.660156 Z M 162 130 "
         id="path2" />
    </clipPath>
    <clipPath
       id="clip2">
      <path
         d="M 183 126 L 186.976563 126 L 186.976563 130 L 183 130 Z M 183 126 "
         id="path5" />
    </clipPath>
    <clipPath
       id="clip3">
      <path
         d="M 15 130 L 20 130 L 20 136.660156 L 15 136.660156 Z M 15 130 "
         id="path8" />
    </clipPath>
    <clipPath
       id="clip4">
      <path
         d="M 107 131 L 113 131 L 113 136.660156 L 107 136.660156 Z M 107 131 "
         id="path11" />
    </clipPath>
    <clipPath
       id="clip5">
      <path
         d="M 122 130 L 127 130 L 127 136.660156 L 122 136.660156 Z M 122 130 "
         id="path14" />
    </clipPath>
    <clipPath
       id="clip6">
      <path
         d="M 126 135 L 128 135 L 128 136.660156 L 126 136.660156 Z M 126 135 "
         id="path17" />
    </clipPath>
    <clipPath
       id="clip7">
      <path
         d="M 129 130 L 133 130 L 133 136.660156 L 129 136.660156 Z M 129 130 "
         id="path20" />
    </clipPath>
  </defs>
  <g
     id="surface40">
    <path
       style="fill:none;stroke-width:0.304;stroke-linecap:round;stroke-linejoin:round;stroke:rgb(0%,0%,0%);stroke-opacity:1;stroke-miterlimit:4;"
       d="M 162.523438 127.46875 L 162.523438 126.519531 "
       id="path25" />
    <g
       clip-path="url(#clip1)"
       clip-rule="nonzero"
       id="g29">
      <path
         style=" stroke:none;fill-rule:nonzero;fill:rgb(12.940979%,11.764526%,11.764526%);fill-opacity:1;"
         d="M 162.925781 136.566406 L 165.269531 136.566406 L 165.269531 136.441406 C 164.847656 136.441406 164.550781 136.425781 164.550781 136.160156 C 164.550781 136.035156 164.660156 135.722656 164.707031 135.550781 L 165.894531 131.191406 C 165.941406 131.066406 165.988281 130.894531 165.910156 130.894531 C 165.847656 130.894531 164.691406 131.144531 164.285156 131.207031 L 164.285156 131.332031 L 164.769531 131.316406 C 164.847656 131.316406 165.082031 131.316406 165.082031 131.597656 C 165.082031 131.660156 165.050781 131.769531 165.035156 131.863281 L 163.863281 135.988281 C 163.753906 136.378906 163.425781 136.394531 162.925781 136.441406 Z M 162.925781 136.566406 "
         id="path27" />
    </g>
    <path
       style=" stroke:none;fill-rule:nonzero;fill:rgb(12.940979%,11.764526%,11.764526%);fill-opacity:1;"
       d="M 180.402344 128.996094 C 180.167969 129.417969 180.074219 129.574219 179.902344 129.574219 C 179.683594 129.574219 179.511719 129.183594 178.917969 127.746094 C 180.074219 126.730469 180.386719 126.480469 180.808594 126.464844 L 180.808594 126.324219 L 179.261719 126.324219 L 179.261719 126.464844 C 179.496094 126.464844 179.730469 126.464844 179.730469 126.621094 C 179.730469 126.886719 178.652344 127.683594 178.199219 128.042969 L 178.167969 128.027344 L 179.167969 124.230469 L 179.136719 124.183594 C 178.699219 124.292969 178.261719 124.371094 177.824219 124.417969 L 177.824219 124.542969 C 178.042969 124.542969 178.386719 124.542969 178.386719 124.761719 C 178.371094 124.949219 178.199219 125.558594 178.121094 125.871094 L 177.058594 129.917969 L 177.683594 129.917969 L 178.089844 128.402344 L 178.433594 128.136719 C 178.511719 128.386719 178.839844 129.136719 178.933594 129.324219 C 179.183594 129.824219 179.339844 130.011719 179.605469 130.011719 C 179.964844 130.011719 180.214844 129.699219 180.527344 129.089844 Z M 180.402344 128.996094 "
       id="path31" />
    <path
       style=" stroke:none;fill-rule:nonzero;fill:rgb(12.940979%,11.764526%,11.764526%);fill-opacity:1;"
       d="M 183.285156 124.324219 L 180.113281 130.074219 L 180.722656 130.074219 L 183.894531 124.324219 Z M 183.285156 124.324219 "
       id="path33" />
    <g
       clip-path="url(#clip2)"
       clip-rule="nonzero"
       id="g37">
      <path
         style=" stroke:none;fill-rule:nonzero;fill:rgb(12.940979%,11.764526%,11.764526%);fill-opacity:1;"
         d="M 186.851563 128.933594 C 186.539063 129.324219 186.335938 129.605469 186.164063 129.605469 C 186.148438 129.605469 186.023438 129.589844 186.023438 129.449219 C 186.023438 129.199219 186.695313 127.136719 186.695313 126.777344 C 186.695313 126.417969 186.507813 126.214844 186.117188 126.214844 C 185.429688 126.214844 184.648438 127.386719 184.257813 128.011719 L 184.242188 127.980469 L 184.773438 126.230469 L 184.757813 126.214844 C 184.304688 126.308594 183.851563 126.386719 183.398438 126.480469 L 183.398438 126.605469 C 183.851563 126.605469 183.929688 126.699219 183.929688 126.824219 C 183.929688 127.011719 183.367188 128.964844 183.117188 129.917969 L 183.742188 129.917969 C 184.085938 128.777344 184.195313 128.417969 184.570313 127.839844 C 184.882813 127.371094 185.414063 126.652344 185.804688 126.652344 C 185.976563 126.652344 186.023438 126.761719 186.023438 126.917969 C 186.023438 127.246094 185.398438 129.292969 185.398438 129.496094 C 185.398438 129.746094 185.414063 129.996094 185.804688 129.996094 C 186.257813 129.996094 186.554688 129.605469 186.976563 129.042969 Z M 186.851563 128.933594 "
         id="path35" />
    </g>
    <path
       style="fill:none;stroke-width:0.7;stroke-linecap:round;stroke-linejoin:round;stroke:rgb(0%,0%,0%);stroke-opacity:1;stroke-miterlimit:4;"
       d="M 17.726563 127.46875 L 169.636719 127.46875 "
       id="path39" />
    <path
       style=" stroke:none;fill-rule:nonzero;fill:rgb(0%,0%,0%);fill-opacity:1;"
       d="M 171.289063 126.753906 C 170.132813 126.402344 169.382813 126.082031 168.453125 125.707031 L 168.453125 129.238281 C 168.785156 129.078125 170.132813 128.542969 171.289063 128.195313 C 172.527344 127.820313 173.648438 127.5625 174.378906 127.472656 C 173.648438 127.382813 172.527344 127.125 171.289063 126.753906 "
       id="path41" />
    <path
       style=" stroke:none;fill-rule:nonzero;fill:rgb(12.940979%,11.764526%,11.764526%);fill-opacity:1;"
       d="M 3.625 78.328125 C 3.625 77.515625 4.21875 74.203125 5.46875 74.203125 C 6.1875 74.203125 6.1875 75.0625 6.1875 75.3125 C 6.1875 76.78125 5.46875 79.46875 4.34375 79.46875 C 4.078125 79.46875 3.625 79.3125 3.625 78.328125 Z M 6.859375 76.0625 C 6.859375 75.25 6.625 73.96875 5.515625 73.96875 C 4.34375 73.96875 2.953125 75.703125 2.953125 77.96875 C 2.953125 78.828125 3.4375 79.703125 4.3125 79.703125 C 5.71875 79.703125 6.859375 77.734375 6.859375 76.0625 Z M 6.859375 76.0625 "
       id="path43" />
    <path
       style=" stroke:none;fill-rule:nonzero;fill:rgb(12.940979%,11.764526%,11.764526%);fill-opacity:1;"
       d="M 7.574219 79.734375 C 7.746094 79.734375 8.042969 79.59375 8.042969 79.28125 C 8.042969 79.015625 7.824219 78.796875 7.574219 78.796875 C 7.324219 78.796875 7.105469 79.015625 7.105469 79.28125 C 7.105469 79.59375 7.402344 79.734375 7.574219 79.734375 Z M 7.574219 79.734375 "
       id="path45" />
    <path
       style=" stroke:none;fill-rule:nonzero;fill:rgb(12.940979%,11.764526%,11.764526%);fill-opacity:1;"
       d="M 10.984375 74.640625 L 12.90625 74.640625 L 13.109375 74.046875 L 10.953125 74.046875 L 10.078125 75.875 L 10.078125 76 C 11.0625 76.21875 11.921875 76.40625 11.921875 77.6875 C 11.921875 78.421875 11.3125 79.34375 10.484375 79.34375 C 10.03125 79.34375 9.828125 78.890625 9.453125 78.890625 C 9.28125 78.890625 9.109375 78.984375 9.109375 79.234375 C 9.109375 79.46875 9.359375 79.703125 9.96875 79.703125 C 11.609375 79.703125 12.5 78.40625 12.5 77.328125 C 12.5 76.203125 11.75 75.609375 10.65625 75.390625 Z M 10.984375 74.640625 "
       id="path47" />
    <path
       style=" stroke:none;fill-rule:nonzero;fill:rgb(12.940979%,11.764526%,11.764526%);fill-opacity:1;"
       d="M 9.390625 28.820313 L 11.734375 28.820313 L 11.734375 28.695313 C 11.3125 28.695313 11.015625 28.679688 11.015625 28.414063 C 11.015625 28.289063 11.125 27.976563 11.171875 27.804688 L 12.359375 23.445313 C 12.40625 23.320313 12.453125 23.148438 12.375 23.148438 C 12.3125 23.148438 11.15625 23.398438 10.75 23.460938 L 10.75 23.585938 L 11.234375 23.570313 C 11.3125 23.570313 11.546875 23.570313 11.546875 23.851563 C 11.546875 23.914063 11.515625 24.023438 11.5 24.117188 L 10.328125 28.242188 C 10.21875 28.632813 9.890625 28.648438 9.390625 28.695313 Z M 9.390625 28.820313 "
       id="path49" />
    <path
       style=" stroke:none;fill-rule:nonzero;fill:rgb(12.940979%,11.764526%,11.764526%);fill-opacity:1;"
       d="M 7.476563 5.734375 C 7.820313 4.625 7.945313 4.234375 8.257813 3.640625 C 8.320313 3.515625 8.820313 2.578125 9.085938 2.578125 C 9.289063 2.578125 9.164063 2.875 9.523438 2.875 C 9.617188 2.875 9.914063 2.875 9.914063 2.4375 C 9.914063 2.15625 9.710938 2.03125 9.507813 2.03125 C 8.992188 2.03125 8.351563 3.015625 8.070313 3.5625 L 8.007813 3.734375 L 7.992188 3.71875 L 8.398438 2.046875 L 8.367188 2.03125 C 7.992188 2.09375 7.507813 2.203125 7.070313 2.265625 L 7.070313 2.40625 C 7.164063 2.390625 7.257813 2.359375 7.351563 2.359375 C 7.617188 2.359375 7.648438 2.5 7.648438 2.609375 C 7.648438 2.6875 7.601563 2.96875 7.523438 3.28125 L 6.835938 5.734375 Z M 7.476563 5.734375 "
       id="path51" />
    <path
       style=" stroke:none;fill-rule:nonzero;fill:rgb(12.940979%,11.764526%,11.764526%);fill-opacity:1;"
       d="M 10.695313 3.625 C 10.992188 2.875 11.570313 2.234375 12.023438 2.234375 C 12.226563 2.234375 12.320313 2.390625 12.320313 2.5625 C 12.320313 2.625 12.273438 3.640625 10.539063 3.984375 Z M 12.414063 4.8125 C 11.992188 5.15625 11.648438 5.453125 11.195313 5.453125 C 10.835938 5.453125 10.398438 5.25 10.398438 4.6875 C 10.398438 4.515625 10.445313 4.34375 10.492188 4.171875 L 10.726563 4.140625 C 12.085938 3.953125 12.867188 3.265625 12.867188 2.609375 C 12.867188 2.234375 12.617188 2.03125 12.179688 2.03125 C 10.992188 2.03125 9.679688 3.4375 9.679688 4.640625 C 9.679688 5.171875 9.945313 5.828125 10.820313 5.828125 C 11.664063 5.828125 12.429688 5.0625 12.523438 4.921875 Z M 12.414063 4.8125 "
       id="path53" />
    <path
       style=" stroke:none;fill-rule:nonzero;fill:rgb(12.940979%,11.764526%,11.764526%);fill-opacity:1;"
       d="M 15.050781 4.703125 C 14.644531 5.234375 14.472656 5.46875 14.253906 5.46875 C 14.128906 5.46875 14.128906 5.34375 14.128906 5.296875 C 14.128906 5.203125 14.207031 4.984375 14.222656 4.90625 L 15.488281 0.046875 L 15.441406 0 C 15.003906 0.109375 14.566406 0.1875 14.128906 0.234375 L 14.128906 0.359375 C 14.347656 0.359375 14.707031 0.359375 14.707031 0.578125 C 14.707031 0.75 13.488281 5.125 13.488281 5.3125 C 13.488281 5.546875 13.519531 5.828125 13.894531 5.828125 C 14.410156 5.828125 14.738281 5.421875 15.160156 4.78125 Z M 15.050781 4.703125 "
       id="path55" />
    <path
       style=" stroke:none;fill-rule:nonzero;fill:rgb(12.940979%,11.764526%,11.764526%);fill-opacity:1;"
       d="M 19.367188 4.8125 C 18.992188 5.1875 18.820313 5.390625 18.695313 5.390625 C 18.632813 5.390625 18.585938 5.34375 18.585938 5.28125 C 18.585938 5.015625 19.351563 2.15625 19.382813 2.0625 L 19.320313 2.03125 L 18.804688 2.09375 L 18.789063 2.125 L 18.695313 2.484375 L 18.679688 2.484375 C 18.664063 2.25 18.382813 2.03125 18.023438 2.03125 C 16.898438 2.03125 15.617188 3.609375 15.617188 4.84375 C 15.617188 5.078125 15.648438 5.828125 16.476563 5.828125 C 16.992188 5.828125 17.429688 5.578125 18.132813 4.546875 L 18.148438 4.5625 C 18.007813 5.078125 17.960938 5.265625 17.960938 5.453125 C 17.960938 5.59375 17.960938 5.8125 18.320313 5.8125 C 18.679688 5.8125 18.960938 5.515625 19.476563 4.890625 Z M 16.320313 4.8125 C 16.320313 4.0625 17.085938 2.21875 18.054688 2.21875 C 18.304688 2.21875 18.539063 2.375 18.539063 2.78125 C 18.539063 3.609375 17.710938 5.421875 16.820313 5.421875 C 16.601563 5.421875 16.320313 5.265625 16.320313 4.8125 Z M 16.320313 4.8125 "
       id="path57" />
    <path
       style=" stroke:none;fill-rule:nonzero;fill:rgb(12.940979%,11.764526%,11.764526%);fill-opacity:1;"
       d="M 22.160156 2.140625 L 21.488281 2.140625 L 21.722656 1.28125 C 21.738281 1.21875 21.722656 1.140625 21.660156 1.15625 C 21.582031 1.140625 21.550781 1.21875 21.519531 1.25 C 21.285156 1.546875 20.878906 1.921875 20.613281 2.0625 C 20.457031 2.140625 20.222656 2.203125 20.175781 2.28125 C 20.160156 2.3125 20.160156 2.359375 20.160156 2.40625 L 20.785156 2.40625 L 20.175781 4.71875 C 20.144531 4.859375 19.988281 5.359375 19.988281 5.484375 C 19.988281 5.75 20.222656 5.828125 20.394531 5.828125 C 20.832031 5.828125 21.160156 5.453125 21.582031 4.8125 L 21.472656 4.75 C 21.253906 5.015625 20.972656 5.421875 20.800781 5.421875 C 20.707031 5.421875 20.660156 5.34375 20.660156 5.265625 C 20.660156 5.25 20.660156 5.234375 20.675781 5.203125 L 21.410156 2.40625 L 22.113281 2.40625 Z M 22.160156 2.140625 "
       id="path59" />
    <path
       style=" stroke:none;fill-rule:nonzero;fill:rgb(12.940979%,11.764526%,11.764526%);fill-opacity:1;"
       d="M 23.867188 4.78125 C 23.523438 5.265625 23.289063 5.4375 23.179688 5.4375 C 23.101563 5.4375 23.054688 5.359375 23.054688 5.3125 C 23.054688 5.203125 23.148438 4.875 23.179688 4.75 L 23.914063 2.046875 L 23.898438 2.03125 C 23.570313 2.09375 22.867188 2.234375 22.554688 2.25 L 22.554688 2.375 C 23.007813 2.375 23.085938 2.421875 23.085938 2.59375 C 23.085938 2.828125 22.414063 4.90625 22.414063 5.3125 C 22.414063 5.453125 22.414063 5.828125 22.820313 5.828125 C 23.289063 5.828125 23.648438 5.359375 23.976563 4.875 Z M 24.226563 0.703125 C 24.226563 0.53125 24.085938 0.25 23.804688 0.25 C 23.601563 0.25 23.414063 0.40625 23.414063 0.703125 C 23.414063 1 23.601563 1.140625 23.804688 1.140625 C 24.085938 1.140625 24.226563 0.875 24.226563 0.703125 Z M 24.226563 0.703125 "
       id="path61" />
    <path
       style=" stroke:none;fill-rule:nonzero;fill:rgb(12.940979%,11.764526%,11.764526%);fill-opacity:1;"
       d="M 24.515625 2.359375 C 25.140625 2.296875 25.15625 2.421875 25.296875 3.1875 C 25.375 3.671875 25.484375 5.03125 25.484375 5.640625 C 25.484375 5.78125 25.484375 5.890625 25.5625 5.890625 C 25.6875 5.890625 25.84375 5.71875 26.390625 5.125 C 26.671875 4.828125 27.921875 3.328125 27.921875 2.5625 C 27.921875 2.25 27.71875 2.03125 27.4375 2.03125 C 27.265625 2.03125 27.140625 2.15625 27.140625 2.28125 C 27.140625 2.734375 27.484375 2.640625 27.484375 2.96875 C 27.484375 3.390625 26.8125 4.390625 26.34375 4.875 L 26.078125 5.140625 C 26.015625 4 25.96875 3.3125 25.71875 2.203125 C 25.671875 2.03125 25.671875 2.03125 25.578125 2.03125 C 25.546875 2.03125 25.125 2.15625 24.515625 2.25 Z M 24.515625 2.359375 "
       id="path63" />
    <path
       style=" stroke:none;fill-rule:nonzero;fill:rgb(12.940979%,11.764526%,11.764526%);fill-opacity:1;"
       d="M 29.351563 3.625 C 29.648438 2.875 30.226563 2.234375 30.679688 2.234375 C 30.882813 2.234375 30.976563 2.390625 30.976563 2.5625 C 30.976563 2.625 30.929688 3.640625 29.195313 3.984375 Z M 31.070313 4.8125 C 30.648438 5.15625 30.304688 5.453125 29.851563 5.453125 C 29.492188 5.453125 29.054688 5.25 29.054688 4.6875 C 29.054688 4.515625 29.101563 4.34375 29.148438 4.171875 L 29.382813 4.140625 C 30.742188 3.953125 31.523438 3.265625 31.523438 2.609375 C 31.523438 2.234375 31.273438 2.03125 30.835938 2.03125 C 29.648438 2.03125 28.335938 3.4375 28.335938 4.640625 C 28.335938 5.171875 28.601563 5.828125 29.476563 5.828125 C 30.320313 5.828125 31.085938 5.0625 31.179688 4.921875 Z M 31.070313 4.8125 "
       id="path65" />
    <path
       style=" stroke:none;fill-rule:nonzero;fill:rgb(12.940979%,11.764526%,11.764526%);fill-opacity:1;"
       d="M 3.8125 11.503906 C 3.8125 12.503906 3.046875 14.066406 2.03125 14.066406 C 1.8125 14.066406 1.609375 13.972656 1.609375 13.753906 C 1.609375 13.425781 1.9375 12.285156 2.15625 11.738281 C 2.375 11.175781 2.859375 10.785156 3.25 10.785156 C 3.796875 10.785156 3.8125 11.269531 3.8125 11.503906 Z M 1.09375 10.753906 L 1.28125 10.738281 C 1.484375 10.738281 1.640625 10.832031 1.640625 10.988281 C 1.640625 11.160156 0.78125 14.285156 0.5625 15.222656 C 0.484375 15.488281 0.4375 15.707031 0 15.707031 L 0 15.847656 L 1.71875 15.847656 L 1.71875 15.722656 C 1.5 15.722656 1.171875 15.722656 1.171875 15.457031 C 1.171875 15.285156 1.40625 14.363281 1.484375 14.082031 C 1.6875 14.175781 1.84375 14.222656 2.0625 14.222656 C 3.21875 14.222656 4.5625 12.832031 4.5625 11.535156 C 4.5625 10.925781 4.3125 10.425781 3.5625 10.425781 C 2.875 10.425781 2.390625 11.035156 2.1875 11.332031 L 2.171875 11.316406 L 2.40625 10.535156 C 2.4375 10.441406 2.40625 10.425781 2.375 10.425781 L 1.078125 10.613281 Z M 1.09375 10.753906 "
       id="path67" />
    <path
       style=" stroke:none;fill-rule:nonzero;fill:rgb(12.940979%,11.764526%,11.764526%);fill-opacity:1;"
       d="M 5.839844 14.128906 C 6.183594 13.019531 6.308594 12.628906 6.621094 12.035156 C 6.683594 11.910156 7.183594 10.972656 7.449219 10.972656 C 7.652344 10.972656 7.527344 11.269531 7.886719 11.269531 C 7.980469 11.269531 8.277344 11.269531 8.277344 10.832031 C 8.277344 10.550781 8.074219 10.425781 7.871094 10.425781 C 7.355469 10.425781 6.714844 11.410156 6.433594 11.957031 L 6.371094 12.128906 L 6.355469 12.113281 L 6.761719 10.441406 L 6.730469 10.425781 C 6.355469 10.488281 5.871094 10.597656 5.433594 10.660156 L 5.433594 10.800781 C 5.527344 10.785156 5.621094 10.753906 5.714844 10.753906 C 5.980469 10.753906 6.011719 10.894531 6.011719 11.003906 C 6.011719 11.082031 5.964844 11.363281 5.886719 11.675781 L 5.199219 14.128906 Z M 5.839844 14.128906 "
       id="path69" />
    <path
       style=" stroke:none;fill-rule:nonzero;fill:rgb(12.940979%,11.764526%,11.764526%);fill-opacity:1;"
       d="M 10.464844 10.425781 C 9.246094 10.425781 7.996094 11.785156 7.996094 13.019531 C 7.996094 13.707031 8.386719 14.222656 9.277344 14.222656 C 10.558594 14.222656 11.699219 12.707031 11.699219 11.675781 C 11.699219 11.113281 11.449219 10.425781 10.464844 10.425781 Z M 10.417969 10.597656 C 10.808594 10.597656 10.996094 10.972656 10.996094 11.410156 C 10.996094 12.300781 10.339844 14.050781 9.386719 14.050781 C 8.964844 14.050781 8.714844 13.738281 8.714844 13.269531 C 8.714844 12.269531 9.464844 10.597656 10.417969 10.597656 Z M 10.417969 10.597656 "
       id="path71" />
    <path
       style=" stroke:none;fill-rule:nonzero;fill:rgb(12.940979%,11.764526%,11.764526%);fill-opacity:1;"
       d="M 15.226563 11.550781 C 15.226563 12.253906 14.429688 14.035156 13.289063 14.035156 C 12.898438 14.035156 12.898438 13.816406 12.898438 13.753906 C 12.898438 12.863281 13.695313 10.832031 14.617188 10.832031 C 15.148438 10.832031 15.226563 11.285156 15.226563 11.550781 Z M 12.898438 8.738281 C 13.382813 8.738281 13.445313 8.785156 13.445313 8.972656 C 13.445313 9.097656 13.367188 9.300781 13.304688 9.535156 L 12.164063 13.738281 L 12.164063 13.769531 C 12.164063 13.957031 12.820313 14.222656 13.257813 14.222656 C 14.539063 14.222656 15.945313 12.769531 15.945313 11.441406 C 15.945313 10.832031 15.539063 10.425781 14.945313 10.425781 C 14.195313 10.425781 13.664063 11.207031 13.382813 11.644531 L 13.367188 11.644531 C 13.648438 10.691406 14.039063 9.128906 14.226563 8.441406 L 14.179688 8.394531 C 13.742188 8.488281 13.320313 8.535156 12.898438 8.597656 Z M 12.898438 8.738281 "
       id="path73" />
    <path
       style=" stroke:none;fill-rule:nonzero;fill:rgb(12.940979%,11.764526%,11.764526%);fill-opacity:1;"
       d="M 20.0625 13.207031 C 19.6875 13.582031 19.515625 13.785156 19.390625 13.785156 C 19.328125 13.785156 19.28125 13.738281 19.28125 13.675781 C 19.28125 13.410156 20.046875 10.550781 20.078125 10.457031 L 20.015625 10.425781 L 19.5 10.488281 L 19.484375 10.519531 L 19.390625 10.878906 L 19.375 10.878906 C 19.359375 10.644531 19.078125 10.425781 18.71875 10.425781 C 17.59375 10.425781 16.3125 12.003906 16.3125 13.238281 C 16.3125 13.472656 16.34375 14.222656 17.171875 14.222656 C 17.6875 14.222656 18.125 13.972656 18.828125 12.941406 L 18.84375 12.957031 C 18.703125 13.472656 18.65625 13.660156 18.65625 13.847656 C 18.65625 13.988281 18.65625 14.207031 19.015625 14.207031 C 19.375 14.207031 19.65625 13.910156 20.171875 13.285156 Z M 17.015625 13.207031 C 17.015625 12.457031 17.78125 10.613281 18.75 10.613281 C 19 10.613281 19.234375 10.769531 19.234375 11.175781 C 19.234375 12.003906 18.40625 13.816406 17.515625 13.816406 C 17.296875 13.816406 17.015625 13.660156 17.015625 13.207031 Z M 17.015625 13.207031 "
       id="path75" />
    <path
       style=" stroke:none;fill-rule:nonzero;fill:rgb(12.940979%,11.764526%,11.764526%);fill-opacity:1;"
       d="M 23.621094 11.550781 C 23.621094 12.253906 22.824219 14.035156 21.683594 14.035156 C 21.292969 14.035156 21.292969 13.816406 21.292969 13.753906 C 21.292969 12.863281 22.089844 10.832031 23.011719 10.832031 C 23.542969 10.832031 23.621094 11.285156 23.621094 11.550781 Z M 21.292969 8.738281 C 21.777344 8.738281 21.839844 8.785156 21.839844 8.972656 C 21.839844 9.097656 21.761719 9.300781 21.699219 9.535156 L 20.558594 13.738281 L 20.558594 13.769531 C 20.558594 13.957031 21.214844 14.222656 21.652344 14.222656 C 22.933594 14.222656 24.339844 12.769531 24.339844 11.441406 C 24.339844 10.832031 23.933594 10.425781 23.339844 10.425781 C 22.589844 10.425781 22.058594 11.207031 21.777344 11.644531 L 21.761719 11.644531 C 22.042969 10.691406 22.433594 9.128906 22.621094 8.441406 L 22.574219 8.394531 C 22.136719 8.488281 21.714844 8.535156 21.292969 8.597656 Z M 21.292969 8.738281 "
       id="path77" />
    <path
       style=" stroke:none;fill-rule:nonzero;fill:rgb(12.940979%,11.764526%,11.764526%);fill-opacity:1;"
       d="M 26.429688 13.175781 C 26.085938 13.660156 25.851563 13.832031 25.742188 13.832031 C 25.664063 13.832031 25.617188 13.753906 25.617188 13.707031 C 25.617188 13.597656 25.710938 13.269531 25.742188 13.144531 L 26.476563 10.441406 L 26.460938 10.425781 C 26.132813 10.488281 25.429688 10.628906 25.117188 10.644531 L 25.117188 10.769531 C 25.570313 10.769531 25.648438 10.816406 25.648438 10.988281 C 25.648438 11.222656 24.976563 13.300781 24.976563 13.707031 C 24.976563 13.847656 24.976563 14.222656 25.382813 14.222656 C 25.851563 14.222656 26.210938 13.753906 26.539063 13.269531 Z M 26.789063 9.097656 C 26.789063 8.925781 26.648438 8.644531 26.367188 8.644531 C 26.164063 8.644531 25.976563 8.800781 25.976563 9.097656 C 25.976563 9.394531 26.164063 9.535156 26.367188 9.535156 C 26.648438 9.535156 26.789063 9.269531 26.789063 9.097656 Z M 26.789063 9.097656 "
       id="path79" />
    <path
       style=" stroke:none;fill-rule:nonzero;fill:rgb(12.940979%,11.764526%,11.764526%);fill-opacity:1;"
       d="M 28.808594 13.097656 C 28.402344 13.628906 28.230469 13.863281 28.011719 13.863281 C 27.886719 13.863281 27.886719 13.738281 27.886719 13.691406 C 27.886719 13.597656 27.964844 13.378906 27.980469 13.300781 L 29.246094 8.441406 L 29.199219 8.394531 C 28.761719 8.503906 28.324219 8.582031 27.886719 8.628906 L 27.886719 8.753906 C 28.105469 8.753906 28.464844 8.753906 28.464844 8.972656 C 28.464844 9.144531 27.246094 13.519531 27.246094 13.707031 C 27.246094 13.941406 27.277344 14.222656 27.652344 14.222656 C 28.167969 14.222656 28.496094 13.816406 28.917969 13.175781 Z M 28.808594 13.097656 "
       id="path81" />
    <path
       style=" stroke:none;fill-rule:nonzero;fill:rgb(12.940979%,11.764526%,11.764526%);fill-opacity:1;"
       d="M 31.097656 13.175781 C 30.753906 13.660156 30.519531 13.832031 30.410156 13.832031 C 30.332031 13.832031 30.285156 13.753906 30.285156 13.707031 C 30.285156 13.597656 30.378906 13.269531 30.410156 13.144531 L 31.144531 10.441406 L 31.128906 10.425781 C 30.800781 10.488281 30.097656 10.628906 29.785156 10.644531 L 29.785156 10.769531 C 30.238281 10.769531 30.316406 10.816406 30.316406 10.988281 C 30.316406 11.222656 29.644531 13.300781 29.644531 13.707031 C 29.644531 13.847656 29.644531 14.222656 30.050781 14.222656 C 30.519531 14.222656 30.878906 13.753906 31.207031 13.269531 Z M 31.457031 9.097656 C 31.457031 8.925781 31.316406 8.644531 31.035156 8.644531 C 30.832031 8.644531 30.644531 8.800781 30.644531 9.097656 C 30.644531 9.394531 30.832031 9.535156 31.035156 9.535156 C 31.316406 9.535156 31.457031 9.269531 31.457031 9.097656 Z M 31.457031 9.097656 "
       id="path83" />
    <path
       style=" stroke:none;fill-rule:nonzero;fill:rgb(12.940979%,11.764526%,11.764526%);fill-opacity:1;"
       d="M 34.054688 10.535156 L 33.382813 10.535156 L 33.617188 9.675781 C 33.632813 9.613281 33.617188 9.535156 33.554688 9.550781 C 33.476563 9.535156 33.445313 9.613281 33.414063 9.644531 C 33.179688 9.941406 32.773438 10.316406 32.507813 10.457031 C 32.351563 10.535156 32.117188 10.597656 32.070313 10.675781 C 32.054688 10.707031 32.054688 10.753906 32.054688 10.800781 L 32.679688 10.800781 L 32.070313 13.113281 C 32.039063 13.253906 31.882813 13.753906 31.882813 13.878906 C 31.882813 14.144531 32.117188 14.222656 32.289063 14.222656 C 32.726563 14.222656 33.054688 13.847656 33.476563 13.207031 L 33.367188 13.144531 C 33.148438 13.410156 32.867188 13.816406 32.695313 13.816406 C 32.601563 13.816406 32.554688 13.738281 32.554688 13.660156 C 32.554688 13.644531 32.554688 13.628906 32.570313 13.597656 L 33.304688 10.800781 L 34.007813 10.800781 Z M 34.054688 10.535156 "
       id="path85" />
    <path
       style=" stroke:none;fill-rule:nonzero;fill:rgb(12.940979%,11.764526%,11.764526%);fill-opacity:1;"
       d="M 34.03125 10.769531 C 34.125 10.753906 34.1875 10.738281 34.3125 10.738281 C 34.796875 10.738281 34.90625 11.097656 35.125 11.863281 C 35.28125 12.316406 35.625 13.785156 35.625 14.097656 C 35.625 14.332031 35.28125 14.738281 35.0625 14.988281 C 34.78125 15.316406 34.671875 15.394531 34.53125 15.394531 C 34.390625 15.394531 34.28125 15.160156 34.03125 15.160156 C 33.84375 15.160156 33.703125 15.300781 33.703125 15.472656 C 33.703125 15.832031 34.0625 15.863281 34.125 15.863281 C 35.125 15.863281 37.484375 11.941406 37.484375 10.941406 C 37.484375 10.644531 37.3125 10.425781 37 10.425781 C 36.78125 10.425781 36.6875 10.597656 36.6875 10.722656 C 36.6875 11.113281 37.140625 11.019531 37.140625 11.363281 C 37.140625 11.800781 36.484375 12.941406 36.125 13.519531 L 35.953125 12.550781 C 35.84375 11.925781 35.34375 10.425781 35.234375 10.425781 C 35.09375 10.425781 34.4375 10.566406 34.03125 10.628906 Z M 34.03125 10.769531 "
       id="path87" />
    <path
       style="fill:none;stroke-width:0.7;stroke-linecap:round;stroke-linejoin:round;stroke:rgb(0%,0%,0%);stroke-opacity:1;stroke-miterlimit:4;"
       d="M 17.84375 127.605469 L 17.84375 21.824219 "
       id="path89" />
    <path
       style=" stroke:none;fill-rule:nonzero;fill:rgb(0%,0%,0%);fill-opacity:1;"
       d="M 17.125 20.175781 C 16.777344 21.328125 16.457031 22.082031 16.082031 23.011719 L 19.613281 23.011719 C 19.453125 22.679688 18.917969 21.328125 18.570313 20.175781 C 18.195313 18.9375 17.9375 17.8125 17.847656 17.085938 C 17.757813 17.8125 17.5 18.9375 17.125 20.175781 "
       id="path91" />
    <path
       style="fill:none;stroke-width:0.608;stroke-linecap:round;stroke-linejoin:round;stroke:rgb(100%,0%,0%);stroke-opacity:1;stroke-miterlimit:4;"
       d="M 17.84375 126.789063 L 46.78125 126.789063 L 54.011719 126.769531 L 61.246094 126.675781 L 68.480469 126.25 L 75.714844 124.753906 L 82.949219 120.457031 L 90.183594 110.53125 L 97.417969 92.304688 L 104.652344 66.441406 L 111.886719 40.136719 L 119.117188 25.695313 L 126.355469 32.433594 L 133.585938 57.988281 L 140.820313 89.019531 L 148.054688 112.097656 L 155.289063 123.183594 L 162.523438 126.367188 "
       id="path93" />
    <path
       style="fill:none;stroke-width:0.608;stroke-linecap:round;stroke-linejoin:round;stroke:rgb(49.803162%,0%,0%);stroke-opacity:1;stroke-miterlimit:4;"
       d="M 17.84375 126.960938 L 72.820313 126.960938 L 75.714844 126.957031 L 78.609375 126.941406 L 81.503906 126.898438 L 84.394531 126.777344 L 87.289063 126.472656 L 90.183594 125.773438 L 93.078125 124.296875 L 95.972656 121.433594 L 98.863281 116.367188 L 101.757813 108.207031 L 104.652344 96.328125 L 107.542969 80.847656 L 110.4375 63.070313 L 113.332031 45.648438 L 116.226563 32.09375 L 119.117188 25.769531 L 122.011719 28.582031 L 124.90625 40.101563 L 127.800781 57.628906 L 130.695313 77.183594 L 133.585938 95.019531 L 136.480469 108.785156 L 139.375 117.875 L 142.269531 123.015625 L 145.160156 125.5 L 148.054688 126.507813 L 150.949219 126.847656 L 153.84375 126.9375 L 156.734375 126.960938 L 159.628906 126.960938 "
       id="path95" />
    <path
       style="fill:none;stroke-width:0.608;stroke-linecap:round;stroke-linejoin:round;stroke:rgb(0%,0%,0%);stroke-opacity:1;stroke-miterlimit:4;"
       d="M 159.628906 127.46875 L 162.523438 127.46875 M 17.84375 127.46875 L 87.289063 127.46875 L 88.738281 127.464844 M 88.738281 127.320313 L 90.183594 127.3125 L 91.628906 127.292969 L 93.078125 127.253906 L 94.523438 127.167969 L 95.972656 127.003906 L 97.417969 126.691406 L 98.863281 126.140625 L 100.3125 125.1875 L 101.757813 123.621094 L 103.203125 121.171875 L 104.652344 117.511719 L 106.097656 112.308594 L 106.847656 110.492188 L 108.992188 100.324219 L 110.4375 85.480469 L 111.886719 73.25 L 113.332031 60.410156 L 114.777344 48.09375 L 116.226563 37.605469 L 117.671875 30.238281 L 119.117188 27.003906 L 120.566406 28.414063 L 122.011719 34.367188 L 123.460938 44.132813 L 124.90625 56.496094 L 126.355469 70.035156 L 127.800781 83.351563 L 129.246094 95.347656 L 130.695313 105.324219 L 132.140625 113.03125 L 133.585938 118.570313 L 135.035156 122.28125 L 136.480469 124.601563 L 137.929688 125.949219 L 139.375 126.675781 L 140.820313 127.042969 L 142.269531 127.210938 L 143.714844 127.285156 L 145.160156 127.3125 L 146.609375 127.324219 L 148.054688 127.328125 L 161.074219 127.328125 M 161.074219 127.46875 L 162.523438 127.46875 "
       id="path97" />
    <g
       clip-path="url(#clip3)"
       clip-rule="nonzero"
       id="g101">
      <path
         style=" stroke:none;fill-rule:nonzero;fill:rgb(12.940979%,11.764526%,11.764526%);fill-opacity:1;"
         d="M 16.570313 135.253906 C 16.570313 134.441406 17.164063 131.128906 18.414063 131.128906 C 19.132813 131.128906 19.132813 131.988281 19.132813 132.238281 C 19.132813 133.707031 18.414063 136.394531 17.289063 136.394531 C 17.023438 136.394531 16.570313 136.238281 16.570313 135.253906 Z M 19.804688 132.988281 C 19.804688 132.175781 19.570313 130.894531 18.460938 130.894531 C 17.289063 130.894531 15.898438 132.628906 15.898438 134.894531 C 15.898438 135.753906 16.382813 136.628906 17.257813 136.628906 C 18.664063 136.628906 19.804688 134.660156 19.804688 132.988281 Z M 19.804688 132.988281 "
         id="path99" />
    </g>
    <path
       style=" stroke:none;fill-rule:nonzero;fill:rgb(12.940979%,11.764526%,11.764526%);fill-opacity:1;"
       d="M 105.9375 120.824219 L 108.28125 120.824219 L 108.28125 120.699219 C 107.859375 120.699219 107.5625 120.683594 107.5625 120.417969 C 107.5625 120.292969 107.671875 119.980469 107.71875 119.808594 L 108.90625 115.449219 C 108.953125 115.324219 109 115.152344 108.921875 115.152344 C 108.859375 115.152344 107.703125 115.402344 107.296875 115.464844 L 107.296875 115.589844 L 107.78125 115.574219 C 107.859375 115.574219 108.09375 115.574219 108.09375 115.855469 C 108.09375 115.917969 108.0625 116.027344 108.046875 116.121094 L 106.875 120.246094 C 106.765625 120.636719 106.4375 120.652344 105.9375 120.699219 Z M 105.9375 120.824219 "
       id="path103" />
    <path
       style=" stroke:none;fill-rule:nonzero;fill:rgb(12.940979%,11.764526%,11.764526%);fill-opacity:1;"
       d="M 110.667969 119.511719 C 110.667969 118.699219 111.261719 115.386719 112.511719 115.386719 C 113.230469 115.386719 113.230469 116.246094 113.230469 116.496094 C 113.230469 117.964844 112.511719 120.652344 111.386719 120.652344 C 111.121094 120.652344 110.667969 120.496094 110.667969 119.511719 Z M 113.902344 117.246094 C 113.902344 116.433594 113.667969 115.152344 112.558594 115.152344 C 111.386719 115.152344 109.996094 116.886719 109.996094 119.152344 C 109.996094 120.011719 110.480469 120.886719 111.355469 120.886719 C 112.761719 120.886719 113.902344 118.917969 113.902344 117.246094 Z M 113.902344 117.246094 "
       id="path105" />
    <path
       style=" stroke:none;fill-rule:nonzero;fill:rgb(12.940979%,11.764526%,11.764526%);fill-opacity:1;"
       d="M 114.867188 119.511719 C 114.867188 118.699219 115.460938 115.386719 116.710938 115.386719 C 117.429688 115.386719 117.429688 116.246094 117.429688 116.496094 C 117.429688 117.964844 116.710938 120.652344 115.585938 120.652344 C 115.320313 120.652344 114.867188 120.496094 114.867188 119.511719 Z M 118.101563 117.246094 C 118.101563 116.433594 117.867188 115.152344 116.757813 115.152344 C 115.585938 115.152344 114.195313 116.886719 114.195313 119.152344 C 114.195313 120.011719 114.679688 120.886719 115.554688 120.886719 C 116.960938 120.886719 118.101563 118.917969 118.101563 117.246094 Z M 118.101563 117.246094 "
       id="path107" />
    <path
       style=" stroke:none;fill-rule:nonzero;fill:rgb(49.803162%,0%,0%);fill-opacity:1;"
       d="M 94.9375 105.328125 L 96.859375 105.328125 L 97.0625 104.734375 L 94.90625 104.734375 L 94.03125 106.5625 L 94.03125 106.6875 C 95.015625 106.90625 95.875 107.09375 95.875 108.375 C 95.875 109.109375 95.265625 110.03125 94.4375 110.03125 C 93.984375 110.03125 93.78125 109.578125 93.40625 109.578125 C 93.234375 109.578125 93.0625 109.671875 93.0625 109.921875 C 93.0625 110.15625 93.3125 110.390625 93.921875 110.390625 C 95.5625 110.390625 96.453125 109.09375 96.453125 108.015625 C 96.453125 106.890625 95.703125 106.296875 94.609375 106.078125 Z M 94.9375 105.328125 "
       id="path109" />
    <path
       style=" stroke:none;fill-rule:nonzero;fill:rgb(49.803162%,0%,0%);fill-opacity:1;"
       d="M 98.074219 109.015625 C 98.074219 108.203125 98.667969 104.890625 99.917969 104.890625 C 100.636719 104.890625 100.636719 105.75 100.636719 106 C 100.636719 107.46875 99.917969 110.15625 98.792969 110.15625 C 98.527344 110.15625 98.074219 110 98.074219 109.015625 Z M 101.308594 106.75 C 101.308594 105.9375 101.074219 104.65625 99.964844 104.65625 C 98.792969 104.65625 97.402344 106.390625 97.402344 108.65625 C 97.402344 109.515625 97.886719 110.390625 98.761719 110.390625 C 100.167969 110.390625 101.308594 108.421875 101.308594 106.75 Z M 101.308594 106.75 "
       id="path111" />
    <path
       style=" stroke:none;fill-rule:nonzero;fill:rgb(100%,0%,0%);fill-opacity:1;"
       d="M 81.605469 112.65625 C 81.464844 112.96875 81.324219 113.1875 80.777344 113.1875 L 79.183594 113.1875 L 79.183594 113.15625 L 80.792969 111.53125 C 81.824219 110.5 82.042969 110.125 82.042969 109.5625 C 82.042969 108.921875 81.574219 108.15625 80.683594 108.15625 C 80.464844 108.15625 79.371094 108.1875 78.917969 109.5 L 79.089844 109.5625 C 79.214844 109.34375 79.527344 108.765625 80.277344 108.765625 C 80.933594 108.765625 81.324219 109.265625 81.324219 109.796875 C 81.324219 110.0625 81.277344 110.5625 80.105469 111.8125 L 78.339844 113.6875 L 78.339844 113.828125 L 81.324219 113.828125 L 81.746094 112.71875 Z M 81.605469 112.65625 "
       id="path113" />
    <path
       style=" stroke:none;fill-rule:nonzero;fill:rgb(100%,0%,0%);fill-opacity:1;"
       d="M 83.382813 112.515625 C 83.382813 111.703125 83.976563 108.390625 85.226563 108.390625 C 85.945313 108.390625 85.945313 109.25 85.945313 109.5 C 85.945313 110.96875 85.226563 113.65625 84.101563 113.65625 C 83.835938 113.65625 83.382813 113.5 83.382813 112.515625 Z M 86.617188 110.25 C 86.617188 109.4375 86.382813 108.15625 85.273438 108.15625 C 84.101563 108.15625 82.710938 109.890625 82.710938 112.15625 C 82.710938 113.015625 83.195313 113.890625 84.070313 113.890625 C 85.476563 113.890625 86.617188 111.921875 86.617188 110.25 Z M 86.617188 110.25 "
       id="path115" />
    <g
       clip-path="url(#clip4)"
       clip-rule="nonzero"
       id="g119">
      <path
         style=" stroke:none;fill-rule:nonzero;fill:rgb(12.940979%,11.764526%,11.764526%);fill-opacity:1;"
         d="M 108.5 131.222656 C 108.859375 131.269531 109.109375 131.285156 109.109375 131.597656 C 109.109375 131.722656 109.015625 132.050781 108.953125 132.238281 L 107.96875 135.816406 C 107.8125 136.347656 107.703125 136.363281 107.28125 136.425781 L 107.28125 136.566406 L 109.34375 136.566406 L 109.34375 136.425781 C 108.90625 136.378906 108.765625 136.363281 108.765625 136.066406 C 108.765625 135.925781 108.765625 135.925781 108.859375 135.566406 L 109.3125 133.941406 C 109.5 133.988281 109.609375 134.003906 110.203125 134.003906 C 111.875 134.003906 112.359375 132.988281 112.359375 132.363281 C 112.359375 131.097656 110.953125 131.082031 110.59375 131.082031 L 108.5 131.082031 Z M 109.984375 131.566406 C 110.015625 131.472656 110.0625 131.332031 110.3125 131.332031 C 111.234375 131.332031 111.5 131.691406 111.5 132.316406 C 111.5 133.691406 110.375 133.691406 109.765625 133.691406 C 109.65625 133.691406 109.5625 133.675781 109.390625 133.660156 Z M 109.984375 131.566406 "
         id="path117" />
    </g>
    <path
       style=" stroke:none;fill-rule:nonzero;fill:rgb(12.940979%,11.764526%,11.764526%);fill-opacity:1;"
       d="M 119.3125 133.332031 L 115.078125 133.332031 L 115.078125 133.878906 L 119.3125 133.878906 Z M 119.3125 135.003906 L 115.078125 135.003906 L 115.078125 135.566406 L 119.3125 135.566406 Z M 119.3125 135.003906 "
       id="path121" />
    <g
       clip-path="url(#clip5)"
       clip-rule="nonzero"
       id="g125">
      <path
         style=" stroke:none;fill-rule:nonzero;fill:rgb(12.940979%,11.764526%,11.764526%);fill-opacity:1;"
         d="M 123.0625 135.253906 C 123.0625 134.441406 123.65625 131.128906 124.90625 131.128906 C 125.625 131.128906 125.625 131.988281 125.625 132.238281 C 125.625 133.707031 124.90625 136.394531 123.78125 136.394531 C 123.515625 136.394531 123.0625 136.238281 123.0625 135.253906 Z M 126.296875 132.988281 C 126.296875 132.175781 126.0625 130.894531 124.953125 130.894531 C 123.78125 130.894531 122.390625 132.628906 122.390625 134.894531 C 122.390625 135.753906 122.875 136.628906 123.75 136.628906 C 125.15625 136.628906 126.296875 134.660156 126.296875 132.988281 Z M 126.296875 132.988281 "
         id="path123" />
    </g>
    <g
       clip-path="url(#clip6)"
       clip-rule="nonzero"
       id="g129">
      <path
         style=" stroke:none;fill-rule:nonzero;fill:rgb(12.940979%,11.764526%,11.764526%);fill-opacity:1;"
         d="M 127.007813 136.660156 C 127.179688 136.660156 127.476563 136.519531 127.476563 136.207031 C 127.476563 135.941406 127.257813 135.722656 127.007813 135.722656 C 126.757813 135.722656 126.539063 135.941406 126.539063 136.207031 C 126.539063 136.519531 126.835938 136.660156 127.007813 136.660156 Z M 127.007813 136.660156 "
         id="path127" />
    </g>
    <g
       clip-path="url(#clip7)"
       clip-rule="nonzero"
       id="g133">
      <path
         style=" stroke:none;fill-rule:nonzero;fill:rgb(12.940979%,11.764526%,11.764526%);fill-opacity:1;"
         d="M 132.921875 131.066406 L 132.875 130.972656 L 129.734375 130.972656 L 129.046875 132.113281 L 129.171875 132.191406 C 129.453125 131.863281 129.6875 131.597656 130.28125 131.597656 L 132.140625 131.597656 L 132.171875 131.613281 L 129.078125 136.628906 L 129.671875 136.628906 Z M 132.921875 131.066406 "
         id="path131" />
    </g>
    <path
       style="fill:none;stroke-width:0.7;stroke-linecap:round;stroke-linejoin:round;stroke:rgb(0%,0%,0%);stroke-opacity:1;stroke-miterlimit:4;"
       d="M 21 26.023438 L 17.894531 26.023438 M 21 126.769531 L 17.894531 126.769531 M 21 116.695313 L 17.894531 116.695313 M 21 106.621094 L 17.894531 106.621094 M 21 96.546875 L 17.894531 96.546875 M 21 86.472656 L 17.894531 86.472656 M 21 76.398438 L 17.894531 76.398438 M 21 66.320313 L 17.894531 66.320313 M 21 56.246094 L 17.894531 56.246094 M 21 46.171875 L 17.894531 46.171875 M 21 36.097656 L 17.894531 36.097656 M 118.828125 127.273438 L 118.828125 124.167969 "
       id="path135" />
  </g>
</svg>
