<?xml version="1.0" encoding="UTF-8" standalone="no"?>
<svg
   xmlns:dc="http://purl.org/dc/elements/1.1/"
   xmlns:cc="http://creativecommons.org/ns#"
   xmlns:rdf="http://www.w3.org/1999/02/22-rdf-syntax-ns#"
   xmlns:svg="http://www.w3.org/2000/svg"
   xmlns="http://www.w3.org/2000/svg"
   xmlns:sodipodi="http://sodipodi.sourceforge.net/DTD/sodipodi-0.dtd"
   xmlns:inkscape="http://www.inkscape.org/namespaces/inkscape"
   width="327.076324pt"
   height="106.545815pt"
   viewBox="0 0 327.076324 106.545815"
   version="1.2"
   id="svg195"
   sodipodi:docname="convergence_both.svg"
   inkscape:version="0.92.4 (5da689c313, 2019-01-14)">
  <metadata
     id="metadata199">
    <rdf:RDF>
      <cc:Work
         rdf:about="">
        <dc:format>image/svg+xml</dc:format>
        <dc:type
           rdf:resource="http://purl.org/dc/dcmitype/StillImage" />
        <dc:title></dc:title>
      </cc:Work>
    </rdf:RDF>
  </metadata>
  <sodipodi:namedview
     pagecolor="#ffffff"
     bordercolor="#666666"
     borderopacity="1"
     objecttolerance="10"
     gridtolerance="10"
     guidetolerance="10"
     inkscape:pageopacity="0"
     inkscape:pageshadow="2"
     inkscape:window-width="661"
     inkscape:window-height="480"
     id="namedview197"
     showgrid="false"
     inkscape:zoom="0.72001543"
     inkscape:cx="218.05088"
     inkscape:cy="71.030543"
     inkscape:window-x="0"
     inkscape:window-y="0"
     inkscape:window-maximized="0"
     inkscape:current-layer="svg195" />
  <defs
     id="defs26">
    <clipPath
       id="clip1">
      <path
         d="M 325 34 L 327.078125 34 L 327.078125 36 L 325 36 Z M 325 34 "
         id="path2" />
    </clipPath>
    <clipPath
       id="clip2">
      <path
         d="M 325 80 L 327.078125 80 L 327.078125 83 L 325 83 Z M 325 80 "
         id="path5" />
    </clipPath>
    <clipPath
       id="clip3">
      <path
         d="M 38 62 L 84 62 L 84 106.546875 L 38 106.546875 Z M 38 62 "
         id="path8" />
    </clipPath>
    <clipPath
       id="clip4">
      <path
         d="M 89 62 L 135 62 L 135 106.546875 L 89 106.546875 Z M 89 62 "
         id="path11" />
    </clipPath>
    <clipPath
       id="clip5">
      <path
         d="M 141 62 L 186 62 L 186 106.546875 L 141 106.546875 Z M 141 62 "
         id="path14" />
    </clipPath>
    <clipPath
       id="clip6">
      <path
         d="M 192 62 L 237 62 L 237 106.546875 L 192 106.546875 Z M 192 62 "
         id="path17" />
    </clipPath>
    <clipPath
       id="clip7">
      <path
         d="M 264 62 L 310 62 L 310 106.546875 L 264 106.546875 Z M 264 62 "
         id="path20" />
    </clipPath>
    <clipPath
       id="clip8">
      <path
         d="M 265 62 L 308 62 L 308 106.546875 L 265 106.546875 Z M 265 62 "
         id="path23" />
    </clipPath>
  </defs>
  <g
     id="surface46">
    <path
       style=" stroke:none;fill-rule:nonzero;fill:rgb(12.940979%,11.764526%,11.764526%);fill-opacity:1;"
       d="M 58.773438 4.09375 C 58.507813 4.4375 58.320313 4.65625 58.179688 4.65625 C 58.164063 4.65625 58.070313 4.65625 58.070313 4.546875 C 58.070313 4.328125 58.648438 2.546875 58.648438 2.234375 C 58.648438 1.9375 58.476563 1.765625 58.148438 1.765625 C 57.554688 1.765625 56.882813 2.765625 56.554688 3.296875 L 56.539063 3.28125 L 56.992188 1.78125 L 56.976563 1.765625 C 56.585938 1.84375 56.195313 1.90625 55.804688 1.984375 L 55.804688 2.09375 C 56.195313 2.09375 56.273438 2.171875 56.273438 2.28125 C 56.273438 2.4375 55.789063 4.125 55.554688 4.9375 L 56.101563 4.9375 C 56.398438 3.953125 56.492188 3.640625 56.820313 3.15625 C 57.085938 2.75 57.539063 2.125 57.882813 2.125 C 58.023438 2.125 58.054688 2.234375 58.054688 2.359375 C 58.054688 2.640625 57.523438 4.40625 57.523438 4.578125 C 57.523438 4.78125 57.539063 5 57.867188 5 C 58.257813 5 58.507813 4.671875 58.882813 4.1875 Z M 58.773438 4.09375 "
       id="path28" />
    <path
       style=" stroke:none;fill-rule:nonzero;fill:rgb(12.940979%,11.764526%,11.764526%);fill-opacity:1;"
       d="M 65.113281 2.15625 L 61.488281 2.15625 L 61.488281 2.625 L 65.113281 2.625 Z M 65.113281 3.59375 L 61.488281 3.59375 L 61.488281 4.078125 L 65.113281 4.078125 Z M 65.113281 3.59375 "
       id="path30" />
    <path
       style=" stroke:none;fill-rule:nonzero;fill:rgb(12.940979%,11.764526%,11.764526%);fill-opacity:1;"
       d="M 67.882813 4.9375 L 69.882813 4.9375 L 69.882813 4.828125 C 69.523438 4.84375 69.273438 4.8125 69.273438 4.59375 C 69.273438 4.46875 69.367188 4.203125 69.398438 4.0625 L 70.429688 0.328125 C 70.460938 0.21875 70.492188 0.0625 70.445313 0.0625 C 70.382813 0.0625 69.382813 0.28125 69.039063 0.34375 L 69.039063 0.453125 L 69.460938 0.4375 C 69.523438 0.4375 69.726563 0.4375 69.726563 0.671875 C 69.726563 0.71875 69.695313 0.828125 69.679688 0.90625 L 68.679688 4.453125 C 68.585938 4.765625 68.304688 4.796875 67.882813 4.84375 Z M 67.882813 4.9375 "
       id="path32" />
    <path
       style=" stroke:none;fill-rule:nonzero;fill:rgb(12.940979%,11.764526%,11.764526%);fill-opacity:1;"
       d="M 109.175781 4.09375 C 108.910156 4.4375 108.722656 4.65625 108.582031 4.65625 C 108.566406 4.65625 108.472656 4.65625 108.472656 4.546875 C 108.472656 4.328125 109.050781 2.546875 109.050781 2.234375 C 109.050781 1.9375 108.878906 1.765625 108.550781 1.765625 C 107.957031 1.765625 107.285156 2.765625 106.957031 3.296875 L 106.941406 3.28125 L 107.394531 1.78125 L 107.378906 1.765625 C 106.988281 1.84375 106.597656 1.90625 106.207031 1.984375 L 106.207031 2.09375 C 106.597656 2.09375 106.675781 2.171875 106.675781 2.28125 C 106.675781 2.4375 106.191406 4.125 105.957031 4.9375 L 106.503906 4.9375 C 106.800781 3.953125 106.894531 3.640625 107.222656 3.15625 C 107.488281 2.75 107.941406 2.125 108.285156 2.125 C 108.425781 2.125 108.457031 2.234375 108.457031 2.359375 C 108.457031 2.640625 107.925781 4.40625 107.925781 4.578125 C 107.925781 4.78125 107.941406 5 108.269531 5 C 108.660156 5 108.910156 4.671875 109.285156 4.1875 Z M 109.175781 4.09375 "
       id="path34" />
    <path
       style=" stroke:none;fill-rule:nonzero;fill:rgb(12.940979%,11.764526%,11.764526%);fill-opacity:1;"
       d="M 115.511719 2.15625 L 111.886719 2.15625 L 111.886719 2.625 L 115.511719 2.625 Z M 115.511719 3.59375 L 111.886719 3.59375 L 111.886719 4.078125 L 115.511719 4.078125 Z M 115.511719 3.59375 "
       id="path36" />
    <path
       style=" stroke:none;fill-rule:nonzero;fill:rgb(12.940979%,11.764526%,11.764526%);fill-opacity:1;"
       d="M 119.921875 3.203125 L 118.390625 3.203125 L 118.390625 3.171875 L 120.578125 0.875 L 120.609375 0.875 Z M 121.1875 3.203125 L 120.5 3.203125 L 121.375 0.0625 L 121.078125 0.0625 L 118.078125 3.171875 L 117.921875 3.65625 L 119.8125 3.65625 L 119.46875 4.9375 L 120.03125 4.9375 L 120.359375 3.671875 L 121.078125 3.671875 Z M 121.1875 3.203125 "
       id="path38" />
    <path
       style=" stroke:none;fill-rule:nonzero;fill:rgb(12.940979%,11.764526%,11.764526%);fill-opacity:1;"
       d="M 160.175781 4.09375 C 159.910156 4.4375 159.722656 4.65625 159.582031 4.65625 C 159.566406 4.65625 159.472656 4.65625 159.472656 4.546875 C 159.472656 4.328125 160.050781 2.546875 160.050781 2.234375 C 160.050781 1.9375 159.878906 1.765625 159.550781 1.765625 C 158.957031 1.765625 158.285156 2.765625 157.957031 3.296875 L 157.941406 3.28125 L 158.394531 1.78125 L 158.378906 1.765625 C 157.988281 1.84375 157.597656 1.90625 157.207031 1.984375 L 157.207031 2.09375 C 157.597656 2.09375 157.675781 2.171875 157.675781 2.28125 C 157.675781 2.4375 157.191406 4.125 156.957031 4.9375 L 157.503906 4.9375 C 157.800781 3.953125 157.894531 3.640625 158.222656 3.15625 C 158.488281 2.75 158.941406 2.125 159.285156 2.125 C 159.425781 2.125 159.457031 2.234375 159.457031 2.359375 C 159.457031 2.640625 158.925781 4.40625 158.925781 4.578125 C 158.925781 4.78125 158.941406 5 159.269531 5 C 159.660156 5 159.910156 4.671875 160.285156 4.1875 Z M 160.175781 4.09375 "
       id="path40" />
    <path
       style=" stroke:none;fill-rule:nonzero;fill:rgb(12.940979%,11.764526%,11.764526%);fill-opacity:1;"
       d="M 166.511719 2.15625 L 162.886719 2.15625 L 162.886719 2.625 L 166.511719 2.625 Z M 166.511719 3.59375 L 162.886719 3.59375 L 162.886719 4.078125 L 166.511719 4.078125 Z M 166.511719 3.59375 "
       id="path42" />
    <path
       style=" stroke:none;fill-rule:nonzero;fill:rgb(12.940979%,11.764526%,11.764526%);fill-opacity:1;"
       d="M 169.09375 5.0625 C 171.25 4.796875 172.46875 3.125 172.46875 1.671875 C 172.46875 0.59375 171.890625 0.0625 171.140625 0.0625 C 170.3125 0.0625 169.421875 0.96875 169.421875 1.953125 C 169.421875 2.8125 169.890625 3.28125 170.5 3.28125 C 170.828125 3.28125 171.140625 3.15625 171.421875 2.96875 L 171.453125 2.984375 C 171.375 3.28125 170.40625 4.703125 169.09375 4.9375 Z M 170.046875 1.96875 C 170.046875 1.296875 170.40625 0.25 171.21875 0.25 C 171.921875 0.25 171.921875 1.03125 171.921875 1.3125 C 171.921875 1.515625 171.8125 2.25 171.625 2.53125 C 171.421875 2.828125 171.03125 2.953125 170.796875 2.953125 C 170.078125 2.953125 170.046875 2.203125 170.046875 1.96875 Z M 170.046875 1.96875 "
       id="path44" />
    <path
       style=" stroke:none;fill-rule:nonzero;fill:rgb(12.940979%,11.764526%,11.764526%);fill-opacity:1;"
       d="M 209.375 4.09375 C 209.109375 4.4375 208.921875 4.65625 208.78125 4.65625 C 208.765625 4.65625 208.671875 4.65625 208.671875 4.546875 C 208.671875 4.328125 209.25 2.546875 209.25 2.234375 C 209.25 1.9375 209.078125 1.765625 208.75 1.765625 C 208.15625 1.765625 207.484375 2.765625 207.15625 3.296875 L 207.140625 3.28125 L 207.59375 1.78125 L 207.578125 1.765625 C 207.1875 1.84375 206.796875 1.90625 206.40625 1.984375 L 206.40625 2.09375 C 206.796875 2.09375 206.875 2.171875 206.875 2.28125 C 206.875 2.4375 206.390625 4.125 206.15625 4.9375 L 206.703125 4.9375 C 207 3.953125 207.09375 3.640625 207.421875 3.15625 C 207.6875 2.75 208.140625 2.125 208.484375 2.125 C 208.625 2.125 208.65625 2.234375 208.65625 2.359375 C 208.65625 2.640625 208.125 4.40625 208.125 4.578125 C 208.125 4.78125 208.140625 5 208.46875 5 C 208.859375 5 209.109375 4.671875 209.484375 4.1875 Z M 209.375 4.09375 "
       id="path46" />
    <path
       style=" stroke:none;fill-rule:nonzero;fill:rgb(12.940979%,11.764526%,11.764526%);fill-opacity:1;"
       d="M 215.710938 2.15625 L 212.085938 2.15625 L 212.085938 2.625 L 215.710938 2.625 Z M 215.710938 3.59375 L 212.085938 3.59375 L 212.085938 4.078125 L 215.710938 4.078125 Z M 215.710938 3.59375 "
       id="path48" />
    <path
       style=" stroke:none;fill-rule:nonzero;fill:rgb(12.940979%,11.764526%,11.764526%);fill-opacity:1;"
       d="M 218.480469 4.9375 L 220.480469 4.9375 L 220.480469 4.828125 C 220.121094 4.84375 219.871094 4.8125 219.871094 4.59375 C 219.871094 4.46875 219.964844 4.203125 219.996094 4.0625 L 221.027344 0.328125 C 221.058594 0.21875 221.089844 0.0625 221.042969 0.0625 C 220.980469 0.0625 219.980469 0.28125 219.636719 0.34375 L 219.636719 0.453125 L 220.058594 0.4375 C 220.121094 0.4375 220.324219 0.4375 220.324219 0.671875 C 220.324219 0.71875 220.292969 0.828125 220.277344 0.90625 L 219.277344 4.453125 C 219.183594 4.765625 218.902344 4.796875 218.480469 4.84375 Z M 218.480469 4.9375 "
       id="path50" />
    <path
       style=" stroke:none;fill-rule:nonzero;fill:rgb(12.940979%,11.764526%,11.764526%);fill-opacity:1;"
       d="M 225.472656 0 C 223.269531 0.140625 221.941406 1.9375 221.941406 3.421875 C 221.941406 4.609375 222.644531 4.984375 223.238281 4.984375 C 224.457031 4.984375 225.050781 3.765625 225.050781 3.046875 C 225.050781 2.015625 224.316406 1.71875 223.832031 1.71875 C 223.707031 1.71875 223.597656 1.734375 223.488281 1.765625 C 223.378906 1.78125 223.285156 1.8125 223.191406 1.875 L 223.160156 1.859375 C 223.332031 1.5 224.207031 0.28125 225.472656 0.109375 Z M 223.550781 1.984375 C 224.097656 1.984375 224.394531 2.328125 224.394531 2.90625 C 224.394531 3.5625 224.019531 4.796875 223.191406 4.796875 C 222.488281 4.796875 222.488281 4 222.488281 3.8125 C 222.488281 3.6875 222.550781 1.984375 223.550781 1.984375 Z M 223.550781 1.984375 "
       id="path52" />
    <path
       style=" stroke:none;fill-rule:nonzero;fill:rgb(12.940979%,11.764526%,11.764526%);fill-opacity:1;"
       d="M 274.773438 4.09375 C 274.507813 4.4375 274.320313 4.65625 274.179688 4.65625 C 274.164063 4.65625 274.070313 4.65625 274.070313 4.546875 C 274.070313 4.328125 274.648438 2.546875 274.648438 2.234375 C 274.648438 1.9375 274.476563 1.765625 274.148438 1.765625 C 273.554688 1.765625 272.882813 2.765625 272.554688 3.296875 L 272.539063 3.28125 L 272.992188 1.78125 L 272.976563 1.765625 C 272.585938 1.84375 272.195313 1.90625 271.804688 1.984375 L 271.804688 2.09375 C 272.195313 2.09375 272.273438 2.171875 272.273438 2.28125 C 272.273438 2.4375 271.789063 4.125 271.554688 4.9375 L 272.101563 4.9375 C 272.398438 3.953125 272.492188 3.640625 272.820313 3.15625 C 273.085938 2.75 273.539063 2.125 273.882813 2.125 C 274.023438 2.125 274.054688 2.234375 274.054688 2.359375 C 274.054688 2.640625 273.523438 4.40625 273.523438 4.578125 C 273.523438 4.78125 273.539063 5 273.867188 5 C 274.257813 5 274.507813 4.671875 274.882813 4.1875 Z M 274.773438 4.09375 "
       id="path54" />
    <path
       style=" stroke:none;fill-rule:nonzero;fill:rgb(12.940979%,11.764526%,11.764526%);fill-opacity:1;"
       d="M 281.113281 2.15625 L 277.488281 2.15625 L 277.488281 2.625 L 281.113281 2.625 Z M 281.113281 3.59375 L 277.488281 3.59375 L 277.488281 4.078125 L 281.113281 4.078125 Z M 281.113281 3.59375 "
       id="path56" />
    <path
       style=" stroke:none;fill-rule:nonzero;fill:rgb(12.940979%,11.764526%,11.764526%);fill-opacity:1;"
       d="M 283.882813 4.9375 L 285.882813 4.9375 L 285.882813 4.828125 C 285.523438 4.84375 285.273438 4.8125 285.273438 4.59375 C 285.273438 4.46875 285.367188 4.203125 285.398438 4.0625 L 286.429688 0.328125 C 286.460938 0.21875 286.492188 0.0625 286.445313 0.0625 C 286.382813 0.0625 285.382813 0.28125 285.039063 0.34375 L 285.039063 0.453125 L 285.460938 0.4375 C 285.523438 0.4375 285.726563 0.4375 285.726563 0.671875 C 285.726563 0.71875 285.695313 0.828125 285.679688 0.90625 L 284.679688 4.453125 C 284.585938 4.765625 284.304688 4.796875 283.882813 4.84375 Z M 283.882813 4.9375 "
       id="path58" />
    <path
       style=" stroke:none;fill-rule:nonzero;fill:rgb(12.940979%,11.764526%,11.764526%);fill-opacity:1;"
       d="M 287.917969 3.8125 C 287.917969 3.109375 288.433594 0.265625 289.511719 0.265625 C 290.136719 0.265625 290.136719 1 290.136719 1.21875 C 290.136719 2.484375 289.511719 4.78125 288.542969 4.78125 C 288.324219 4.78125 287.917969 4.65625 287.917969 3.8125 Z M 290.699219 1.875 C 290.699219 1.15625 290.511719 0.0625 289.542969 0.0625 C 288.542969 0.0625 287.355469 1.546875 287.355469 3.5 C 287.355469 4.25 287.761719 4.984375 288.511719 4.984375 C 289.714844 4.984375 290.699219 3.296875 290.699219 1.875 Z M 290.699219 1.875 "
       id="path60" />
    <path
       style=" stroke:none;fill-rule:nonzero;fill:rgb(12.940979%,11.764526%,11.764526%);fill-opacity:1;"
       d="M 291.519531 3.8125 C 291.519531 3.109375 292.035156 0.265625 293.113281 0.265625 C 293.738281 0.265625 293.738281 1 293.738281 1.21875 C 293.738281 2.484375 293.113281 4.78125 292.144531 4.78125 C 291.925781 4.78125 291.519531 4.65625 291.519531 3.8125 Z M 294.300781 1.875 C 294.300781 1.15625 294.113281 0.0625 293.144531 0.0625 C 292.144531 0.0625 290.957031 1.546875 290.957031 3.5 C 290.957031 4.25 291.363281 4.984375 292.113281 4.984375 C 293.316406 4.984375 294.300781 3.296875 294.300781 1.875 Z M 294.300781 1.875 "
       id="path62" />
    <path
       style=" stroke:none;fill-rule:nonzero;fill:rgb(12.940979%,11.764526%,11.764526%);fill-opacity:1;"
       d="M 247.878906 35.894531 C 248.175781 35.894531 248.675781 35.644531 248.675781 35.113281 C 248.675781 34.675781 248.300781 34.300781 247.878906 34.300781 C 247.441406 34.300781 247.082031 34.660156 247.082031 35.113281 C 247.082031 35.660156 247.566406 35.894531 247.878906 35.894531 Z M 247.878906 35.894531 "
       id="path64" />
    <path
       style=" stroke:none;fill-rule:nonzero;fill:rgb(12.940979%,11.764526%,11.764526%);fill-opacity:1;"
       d="M 251.480469 35.894531 C 251.777344 35.894531 252.277344 35.644531 252.277344 35.113281 C 252.277344 34.675781 251.902344 34.300781 251.480469 34.300781 C 251.042969 34.300781 250.683594 34.660156 250.683594 35.113281 C 250.683594 35.660156 251.167969 35.894531 251.480469 35.894531 Z M 251.480469 35.894531 "
       id="path66" />
    <path
       style=" stroke:none;fill-rule:nonzero;fill:rgb(12.940979%,11.764526%,11.764526%);fill-opacity:1;"
       d="M 255.078125 35.894531 C 255.375 35.894531 255.875 35.644531 255.875 35.113281 C 255.875 34.675781 255.5 34.300781 255.078125 34.300781 C 254.640625 34.300781 254.28125 34.660156 254.28125 35.113281 C 254.28125 35.660156 254.765625 35.894531 255.078125 35.894531 Z M 255.078125 35.894531 "
       id="path68" />
    <path
       style=" stroke:none;fill-rule:nonzero;fill:rgb(12.940979%,11.764526%,11.764526%);fill-opacity:1;"
       d="M 247.878906 82.09375 C 248.175781 82.09375 248.675781 81.84375 248.675781 81.3125 C 248.675781 80.875 248.300781 80.5 247.878906 80.5 C 247.441406 80.5 247.082031 80.859375 247.082031 81.3125 C 247.082031 81.859375 247.566406 82.09375 247.878906 82.09375 Z M 247.878906 82.09375 "
       id="path70" />
    <path
       style=" stroke:none;fill-rule:nonzero;fill:rgb(12.940979%,11.764526%,11.764526%);fill-opacity:1;"
       d="M 251.480469 82.09375 C 251.777344 82.09375 252.277344 81.84375 252.277344 81.3125 C 252.277344 80.875 251.902344 80.5 251.480469 80.5 C 251.042969 80.5 250.683594 80.859375 250.683594 81.3125 C 250.683594 81.859375 251.167969 82.09375 251.480469 82.09375 Z M 251.480469 82.09375 "
       id="path72" />
    <path
       style=" stroke:none;fill-rule:nonzero;fill:rgb(12.940979%,11.764526%,11.764526%);fill-opacity:1;"
       d="M 255.078125 82.09375 C 255.375 82.09375 255.875 81.84375 255.875 81.3125 C 255.875 80.875 255.5 80.5 255.078125 80.5 C 254.640625 80.5 254.28125 80.859375 254.28125 81.3125 C 254.28125 81.859375 254.765625 82.09375 255.078125 82.09375 Z M 255.078125 82.09375 "
       id="path74" />
    <path
       style=" stroke:none;fill-rule:nonzero;fill:rgb(12.940979%,11.764526%,11.764526%);fill-opacity:1;"
       d="M 319.078125 35.894531 C 319.375 35.894531 319.875 35.644531 319.875 35.113281 C 319.875 34.675781 319.5 34.300781 319.078125 34.300781 C 318.640625 34.300781 318.28125 34.660156 318.28125 35.113281 C 318.28125 35.660156 318.765625 35.894531 319.078125 35.894531 Z M 319.078125 35.894531 "
       id="path76" />
    <path
       style=" stroke:none;fill-rule:nonzero;fill:rgb(12.940979%,11.764526%,11.764526%);fill-opacity:1;"
       d="M 322.679688 35.894531 C 322.976563 35.894531 323.476563 35.644531 323.476563 35.113281 C 323.476563 34.675781 323.101563 34.300781 322.679688 34.300781 C 322.242188 34.300781 321.882813 34.660156 321.882813 35.113281 C 321.882813 35.660156 322.367188 35.894531 322.679688 35.894531 Z M 322.679688 35.894531 "
       id="path78" />
    <g
       clip-path="url(#clip1)"
       clip-rule="nonzero"
       id="g82">
      <path
         style=" stroke:none;fill-rule:nonzero;fill:rgb(12.940979%,11.764526%,11.764526%);fill-opacity:1;"
         d="M 326.28125 35.894531 C 326.578125 35.894531 327.078125 35.644531 327.078125 35.113281 C 327.078125 34.675781 326.703125 34.300781 326.28125 34.300781 C 325.84375 34.300781 325.484375 34.660156 325.484375 35.113281 C 325.484375 35.660156 325.96875 35.894531 326.28125 35.894531 Z M 326.28125 35.894531 "
         id="path80" />
    </g>
    <path
       style=" stroke:none;fill-rule:nonzero;fill:rgb(12.940979%,11.764526%,11.764526%);fill-opacity:1;"
       d="M 319.078125 82.09375 C 319.375 82.09375 319.875 81.84375 319.875 81.3125 C 319.875 80.875 319.5 80.5 319.078125 80.5 C 318.640625 80.5 318.28125 80.859375 318.28125 81.3125 C 318.28125 81.859375 318.765625 82.09375 319.078125 82.09375 Z M 319.078125 82.09375 "
       id="path84" />
    <path
       style=" stroke:none;fill-rule:nonzero;fill:rgb(12.940979%,11.764526%,11.764526%);fill-opacity:1;"
       d="M 322.679688 82.09375 C 322.976563 82.09375 323.476563 81.84375 323.476563 81.3125 C 323.476563 80.875 323.101563 80.5 322.679688 80.5 C 322.242188 80.5 321.882813 80.859375 321.882813 81.3125 C 321.882813 81.859375 322.367188 82.09375 322.679688 82.09375 Z M 322.679688 82.09375 "
       id="path86" />
    <g
       clip-path="url(#clip2)"
       clip-rule="nonzero"
       id="g90">
      <path
         style=" stroke:none;fill-rule:nonzero;fill:rgb(12.940979%,11.764526%,11.764526%);fill-opacity:1;"
         d="M 326.28125 82.09375 C 326.578125 82.09375 327.078125 81.84375 327.078125 81.3125 C 327.078125 80.875 326.703125 80.5 326.28125 80.5 C 325.84375 80.5 325.484375 80.859375 325.484375 81.3125 C 325.484375 81.859375 325.96875 82.09375 326.28125 82.09375 Z M 326.28125 82.09375 "
         id="path88" />
    </g>
    <path
       style=" stroke:none;fill-rule:nonzero;fill:rgb(12.940979%,11.764526%,11.764526%);fill-opacity:1;"
       d="M 5.140625 30.253906 L 3.578125 30.253906 L 3.578125 30.378906 C 3.734375 30.394531 4.109375 30.441406 4.109375 30.675781 C 4.109375 30.910156 3.75 31.535156 3.671875 31.675781 L 1.96875 34.597656 L 1.9375 34.597656 L 1.390625 30.941406 C 1.3125 30.472656 1.59375 30.441406 2.03125 30.378906 L 2.03125 30.253906 L 0 30.253906 L 0 30.378906 C 0.46875 30.441406 0.5 30.488281 0.65625 31.519531 L 1.375 35.894531 L 1.53125 35.894531 L 4.671875 30.722656 C 4.71875 30.628906 4.875 30.378906 5.140625 30.378906 Z M 5.140625 30.253906 "
       id="path92" />
    <path
       style=" stroke:none;fill-rule:nonzero;fill:rgb(12.940979%,11.764526%,11.764526%);fill-opacity:1;"
       d="M 7.257813 36.835938 C 7.023438 37.117188 6.882813 37.304688 6.757813 37.304688 C 6.742188 37.304688 6.664063 37.304688 6.664063 37.210938 C 6.664063 37.023438 7.148438 35.554688 7.148438 35.289063 C 7.148438 35.039063 7.007813 34.898438 6.726563 34.898438 C 6.226563 34.898438 5.679688 35.726563 5.398438 36.164063 L 5.382813 36.164063 L 5.773438 34.898438 L 5.757813 34.898438 C 5.429688 34.960938 5.101563 35.023438 4.773438 35.085938 L 4.773438 35.179688 C 5.101563 35.179688 5.164063 35.242188 5.164063 35.335938 C 5.164063 35.460938 4.757813 36.867188 4.570313 37.539063 L 5.023438 37.539063 C 5.273438 36.726563 5.351563 36.460938 5.632813 36.054688 C 5.835938 35.710938 6.226563 35.195313 6.507813 35.195313 C 6.617188 35.195313 6.664063 35.289063 6.664063 35.398438 C 6.664063 35.632813 6.210938 37.101563 6.210938 37.242188 C 6.210938 37.414063 6.226563 37.585938 6.507813 37.585938 C 6.820313 37.585938 7.039063 37.320313 7.335938 36.914063 Z M 7.257813 36.835938 "
       id="path94" />
    <path
       style=" stroke:none;fill-rule:nonzero;fill:rgb(12.940979%,11.764526%,11.764526%);fill-opacity:1;"
       d="M 14.542969 32.488281 L 10.308594 32.488281 L 10.308594 33.050781 L 14.542969 33.050781 Z M 14.542969 34.175781 L 10.308594 34.175781 L 10.308594 34.722656 L 14.542969 34.722656 Z M 14.542969 34.175781 "
       id="path96" />
    <path
       style=" stroke:none;fill-rule:nonzero;fill:rgb(12.940979%,11.764526%,11.764526%);fill-opacity:1;"
       d="M 15.667969 35.738281 L 18.011719 35.738281 L 18.011719 35.613281 C 17.605469 35.613281 17.292969 35.597656 17.292969 35.332031 C 17.292969 35.207031 17.402344 34.894531 17.449219 34.722656 L 18.652344 30.363281 C 18.699219 30.222656 18.730469 30.050781 18.667969 30.050781 C 18.605469 30.050781 17.433594 30.300781 17.042969 30.378906 L 17.042969 30.503906 L 17.511719 30.488281 C 17.589844 30.488281 17.839844 30.488281 17.839844 30.753906 C 17.839844 30.816406 17.792969 30.941406 17.777344 31.035156 L 16.621094 35.160156 C 16.511719 35.550781 16.167969 35.566406 15.667969 35.613281 Z M 15.667969 35.738281 "
       id="path98" />
    <path
       style=" stroke:none;fill-rule:nonzero;fill:rgb(12.940979%,11.764526%,11.764526%);fill-opacity:1;"
       d="M 22.085938 30.144531 L 18.914063 35.894531 L 19.523438 35.894531 L 22.710938 30.144531 Z M 22.085938 30.144531 "
       id="path100" />
    <path
       style=" stroke:none;fill-rule:nonzero;fill:rgb(12.940979%,11.764526%,11.764526%);fill-opacity:1;"
       d="M 24.179688 33.039063 L 25.210938 32.523438 L 27.835938 37.945313 L 29.460938 27.695313 L 29.085938 27.632813 L 27.710938 36.257813 L 25.585938 31.898438 L 24.007813 32.679688 Z M 24.179688 33.039063 "
       id="path102" />
    <path
       style=" stroke:none;fill-rule:nonzero;fill:rgb(12.940979%,11.764526%,11.764526%);fill-opacity:1;"
       d="M 33.683594 34.753906 C 33.386719 35.144531 33.167969 35.425781 32.996094 35.425781 C 32.980469 35.425781 32.871094 35.394531 32.871094 35.269531 C 32.871094 35.019531 33.542969 32.941406 33.542969 32.582031 C 33.542969 32.238281 33.339844 32.035156 32.964844 32.035156 C 32.261719 32.035156 31.496094 33.207031 31.089844 33.816406 L 31.074219 33.800781 L 31.621094 32.050781 L 31.589844 32.035156 C 31.136719 32.128906 30.683594 32.207031 30.230469 32.285156 L 30.230469 32.425781 C 30.683594 32.425781 30.761719 32.519531 30.761719 32.644531 C 30.761719 32.816406 30.199219 34.785156 29.949219 35.738281 L 30.574219 35.738281 C 30.917969 34.597656 31.027344 34.238281 31.417969 33.660156 C 31.714844 33.175781 32.246094 32.457031 32.652344 32.457031 C 32.808594 32.457031 32.855469 32.582031 32.855469 32.722656 C 32.855469 33.066406 32.230469 35.113281 32.230469 35.316406 C 32.230469 35.566406 32.246094 35.816406 32.636719 35.816406 C 33.089844 35.816406 33.386719 35.425781 33.808594 34.863281 Z M 33.683594 34.753906 "
       id="path104" />
    <path
       style=" stroke:none;fill-rule:nonzero;fill:rgb(12.940979%,11.764526%,11.764526%);fill-opacity:1;"
       d="M 8.414063 85.617188 C 8.164063 86.039063 8.085938 86.195313 7.898438 86.195313 C 7.679688 86.195313 7.523438 85.804688 6.914063 84.367188 C 8.070313 83.351563 8.398438 83.085938 8.804688 83.070313 L 8.804688 82.945313 L 7.273438 82.945313 L 7.273438 83.070313 C 7.492188 83.070313 7.726563 83.070313 7.726563 83.242188 C 7.726563 83.492188 6.648438 84.304688 6.195313 84.664063 L 6.179688 84.648438 L 7.179688 80.835938 L 7.132813 80.804688 C 6.695313 80.898438 6.257813 80.976563 5.820313 81.023438 L 5.820313 81.164063 C 6.039063 81.148438 6.398438 81.148438 6.398438 81.367188 C 6.382813 81.554688 6.195313 82.179688 6.117188 82.476563 L 5.054688 86.539063 L 5.679688 86.539063 L 6.085938 85.023438 L 6.429688 84.757813 C 6.523438 85.007813 6.835938 85.742188 6.945313 85.945313 C 7.195313 86.445313 7.335938 86.632813 7.601563 86.632813 C 7.976563 86.632813 8.210938 86.320313 8.539063 85.710938 Z M 8.414063 85.617188 "
       id="path106" />
    <path
       style=" stroke:none;fill-rule:nonzero;fill:rgb(12.940979%,11.764526%,11.764526%);fill-opacity:1;"
       d="M 11.421875 87.632813 C 11.1875 87.914063 11.046875 88.101563 10.921875 88.101563 C 10.90625 88.101563 10.828125 88.101563 10.828125 88.007813 C 10.828125 87.820313 11.3125 86.351563 11.3125 86.085938 C 11.3125 85.835938 11.171875 85.695313 10.890625 85.695313 C 10.390625 85.695313 9.84375 86.523438 9.5625 86.960938 L 9.546875 86.960938 L 9.9375 85.695313 L 9.921875 85.695313 C 9.59375 85.757813 9.265625 85.820313 8.9375 85.882813 L 8.9375 85.976563 C 9.265625 85.976563 9.328125 86.039063 9.328125 86.132813 C 9.328125 86.257813 8.921875 87.664063 8.734375 88.335938 L 9.1875 88.335938 C 9.4375 87.523438 9.515625 87.257813 9.796875 86.851563 C 10 86.507813 10.390625 85.992188 10.671875 85.992188 C 10.78125 85.992188 10.828125 86.085938 10.828125 86.195313 C 10.828125 86.429688 10.375 87.898438 10.375 88.039063 C 10.375 88.210938 10.390625 88.382813 10.671875 88.382813 C 10.984375 88.382813 11.203125 88.117188 11.5 87.710938 Z M 11.421875 87.632813 "
       id="path108" />
    <path
       style=" stroke:none;fill-rule:nonzero;fill:rgb(12.940979%,11.764526%,11.764526%);fill-opacity:1;"
       d="M 18.710938 83.289063 L 14.476563 83.289063 L 14.476563 83.851563 L 18.710938 83.851563 Z M 18.710938 84.976563 L 14.476563 84.976563 L 14.476563 85.523438 L 18.710938 85.523438 Z M 18.710938 84.976563 "
       id="path110" />
    <path
       style=" stroke:none;fill-rule:nonzero;fill:rgb(12.940979%,11.764526%,11.764526%);fill-opacity:1;"
       d="M 21.808594 83.835938 L 22.839844 83.320313 L 25.464844 88.742188 L 27.089844 78.492188 L 26.714844 78.429688 L 25.339844 87.054688 L 23.214844 82.695313 L 21.636719 83.476563 Z M 21.808594 83.835938 "
       id="path112" />
    <path
       style=" stroke:none;fill-rule:nonzero;fill:rgb(12.940979%,11.764526%,11.764526%);fill-opacity:1;"
       d="M 31.316406 85.554688 C 31.019531 85.945313 30.800781 86.226563 30.628906 86.226563 C 30.613281 86.226563 30.503906 86.195313 30.503906 86.070313 C 30.503906 85.820313 31.175781 83.742188 31.175781 83.382813 C 31.175781 83.039063 30.972656 82.835938 30.597656 82.835938 C 29.894531 82.835938 29.128906 84.007813 28.722656 84.617188 L 28.707031 84.601563 L 29.253906 82.851563 L 29.222656 82.835938 C 28.769531 82.929688 28.316406 83.007813 27.863281 83.085938 L 27.863281 83.226563 C 28.316406 83.226563 28.394531 83.320313 28.394531 83.445313 C 28.394531 83.617188 27.832031 85.585938 27.582031 86.539063 L 28.207031 86.539063 C 28.550781 85.398438 28.660156 85.039063 29.050781 84.460938 C 29.347656 83.976563 29.878906 83.257813 30.285156 83.257813 C 30.441406 83.257813 30.488281 83.382813 30.488281 83.523438 C 30.488281 83.867188 29.863281 85.914063 29.863281 86.117188 C 29.863281 86.367188 29.878906 86.617188 30.269531 86.617188 C 30.722656 86.617188 31.019531 86.226563 31.441406 85.664063 Z M 31.316406 85.554688 "
       id="path114" />
    <path
       style="fill:none;stroke-width:0.6;stroke-linecap:butt;stroke-linejoin:miter;stroke:rgb(12.940979%,11.764526%,11.764526%);stroke-opacity:1;stroke-miterlimit:4;"
       d="M 29.304688 27.75 L 34.90625 27.75 M 27.207031 78.535156 L 32.804688 78.535156 "
       id="path116" />
    <g
       clip-path="url(#clip3)"
       clip-rule="nonzero"
       id="g120">
      <path
         style="fill:none;stroke-width:0.3;stroke-linecap:round;stroke-linejoin:round;stroke:rgb(0%,0%,0%);stroke-opacity:1;stroke-miterlimit:10;"
         d="M 39.011719 62.164063 L 83.238281 62.164063 L 83.238281 106.394531 L 39.011719 106.394531 Z M 39.011719 62.164063 "
         id="path118" />
    </g>
    <path
       style="fill:none;stroke-width:0.3;stroke-linecap:round;stroke-linejoin:round;stroke:rgb(100%,0%,0%);stroke-opacity:1;stroke-miterlimit:10;"
       d="M 79.066406 84.277344 C 79.066406 74.375 71.027344 66.339844 61.125 66.339844 C 51.222656 66.339844 43.183594 74.375 43.183594 84.277344 C 43.183594 94.183594 51.222656 102.21875 61.125 102.21875 C 71.027344 102.21875 79.066406 94.183594 79.066406 84.277344 C 79.066406 83.679688 79.035156 83.082031 78.976563 82.488281 "
       id="path122" />
    <path
       style="fill:none;stroke-width:1.99;stroke-linecap:round;stroke-linejoin:round;stroke:rgb(0%,0%,0%);stroke-opacity:1;stroke-miterlimit:10;"
       d="M 46.957031 94.574219 L 46.957031 94.574219 "
       id="path124" />
    <g
       clip-path="url(#clip4)"
       clip-rule="nonzero"
       id="g128">
      <path
         style="fill:none;stroke-width:0.3;stroke-linecap:round;stroke-linejoin:round;stroke:rgb(0%,0%,0%);stroke-opacity:1;stroke-miterlimit:10;"
         d="M 90.09375 62.164063 L 134.324219 62.164063 L 134.324219 106.394531 L 90.09375 106.394531 Z M 90.09375 62.164063 "
         id="path126" />
    </g>
    <path
       style="fill:none;stroke-width:0.3;stroke-linecap:round;stroke-linejoin:round;stroke:rgb(100%,0%,0%);stroke-opacity:1;stroke-miterlimit:10;"
       d="M 130.148438 84.277344 C 130.148438 74.375 122.113281 66.339844 112.210938 66.339844 C 102.308594 66.339844 94.269531 74.375 94.269531 84.277344 C 94.269531 94.183594 102.308594 102.21875 112.210938 102.21875 C 122.113281 102.21875 130.148438 94.183594 130.148438 84.277344 C 130.148438 83.679688 130.121094 83.082031 130.058594 82.488281 "
       id="path130" />
    <path
       style="fill:none;stroke-width:1.99;stroke-linecap:round;stroke-linejoin:round;stroke:rgb(0%,0%,0%);stroke-opacity:1;stroke-miterlimit:10;"
       d="M 98.039063 94.574219 L 98.039063 94.574219 M 123.476563 81.488281 L 123.476563 81.488281 M 111.484375 63.371094 L 111.484375 63.371094 M 119.027344 63.945313 L 119.027344 63.945313 "
       id="path132" />
    <g
       clip-path="url(#clip5)"
       clip-rule="nonzero"
       id="g136">
      <path
         style="fill:none;stroke-width:0.3;stroke-linecap:round;stroke-linejoin:round;stroke:rgb(0%,0%,0%);stroke-opacity:1;stroke-miterlimit:10;"
         d="M 141.179688 62.164063 L 185.40625 62.164063 L 185.40625 106.394531 L 141.179688 106.394531 Z M 141.179688 62.164063 "
         id="path134" />
    </g>
    <path
       style="fill:none;stroke-width:0.3;stroke-linecap:round;stroke-linejoin:round;stroke:rgb(100%,0%,0%);stroke-opacity:1;stroke-miterlimit:10;"
       d="M 177.761719 84.277344 C 177.761719 76.292969 171.28125 69.8125 163.292969 69.8125 C 155.308594 69.8125 148.828125 76.292969 148.828125 84.277344 C 148.828125 92.265625 155.308594 98.746094 163.292969 98.746094 C 171.28125 98.746094 177.761719 92.265625 177.761719 84.277344 C 177.761719 83.796875 177.738281 83.3125 177.691406 82.832031 "
       id="path138" />
    <path
       style="fill:none;stroke-width:1.99;stroke-linecap:round;stroke-linejoin:round;stroke:rgb(0%,0%,0%);stroke-opacity:1;stroke-miterlimit:10;"
       d="M 149.125 94.574219 L 149.125 94.574219 M 174.5625 81.488281 L 174.5625 81.488281 M 162.566406 63.371094 L 162.566406 63.371094 M 170.109375 63.945313 L 170.109375 63.945313 M 149.78125 80.453125 L 149.78125 80.453125 M 160.820313 81.007813 L 160.820313 81.007813 M 144.847656 80.078125 L 144.847656 80.078125 M 143.648438 87.90625 L 143.648438 87.90625 M 178.269531 83.738281 L 178.269531 83.738281 "
       id="path140" />
    <g
       clip-path="url(#clip6)"
       clip-rule="nonzero"
       id="g144">
      <path
         style="fill:none;stroke-width:0.3;stroke-linecap:round;stroke-linejoin:round;stroke:rgb(0%,0%,0%);stroke-opacity:1;stroke-miterlimit:10;"
         d="M 192.265625 62.164063 L 236.492188 62.164063 L 236.492188 106.394531 L 192.265625 106.394531 Z M 192.265625 62.164063 "
         id="path142" />
    </g>
    <path
       style="fill:none;stroke-width:0.3;stroke-linecap:round;stroke-linejoin:round;stroke:rgb(100%,0%,0%);stroke-opacity:1;stroke-miterlimit:10;"
       d="M 226.414063 84.277344 C 226.414063 77.636719 221.019531 72.246094 214.378906 72.246094 C 207.734375 72.246094 202.34375 77.636719 202.34375 84.277344 C 202.34375 90.921875 207.734375 96.3125 214.378906 96.3125 C 221.019531 96.3125 226.414063 90.921875 226.414063 84.277344 C 226.414063 83.878906 226.390625 83.476563 226.351563 83.078125 "
       id="path146" />
    <path
       style="fill:none;stroke-width:1.99;stroke-linecap:round;stroke-linejoin:round;stroke:rgb(0%,0%,0%);stroke-opacity:1;stroke-miterlimit:10;"
       d="M 200.210938 94.574219 L 200.210938 94.574219 M 225.644531 81.488281 L 225.644531 81.488281 M 213.652344 63.371094 L 213.652344 63.371094 M 221.195313 63.945313 L 221.195313 63.945313 M 200.867188 80.453125 L 200.867188 80.453125 M 211.902344 81.007813 L 211.902344 81.007813 M 195.929688 80.078125 L 195.929688 80.078125 M 194.730469 87.90625 L 194.730469 87.90625 M 229.351563 83.738281 L 229.351563 83.738281 M 230.234375 67.199219 L 230.234375 67.199219 M 217.757813 64.65625 L 217.757813 64.65625 M 225.644531 81.488281 L 225.644531 81.488281 M 210.664063 75.621094 L 210.664063 75.621094 M 199.582031 79.742188 L 199.582031 79.742188 M 232.652344 75.269531 L 232.652344 75.269531 M 214.03125 78.8125 L 214.03125 78.8125 "
       id="path148" />
    <g
       clip-path="url(#clip7)"
       clip-rule="nonzero"
       id="g152">
      <path
         style="fill:none;stroke-width:0.3;stroke-linecap:round;stroke-linejoin:round;stroke:rgb(0%,0%,0%);stroke-opacity:1;stroke-miterlimit:10;"
         d="M 264.960938 62.164063 L 309.1875 62.164063 L 309.1875 106.394531 L 264.960938 106.394531 Z M 264.960938 62.164063 "
         id="path150" />
    </g>
    <path
       style="fill:none;stroke-width:0.3;stroke-linecap:round;stroke-linejoin:round;stroke:rgb(100%,0%,0%);stroke-opacity:1;stroke-miterlimit:10;"
       d="M 295.261719 84.277344 C 295.261719 79.761719 291.59375 76.09375 287.074219 76.09375 C 282.554688 76.09375 278.886719 79.761719 278.886719 84.277344 C 278.886719 88.796875 282.554688 92.464844 287.074219 92.464844 C 291.59375 92.464844 295.261719 88.796875 295.261719 84.277344 C 295.261719 84.003906 295.242188 83.734375 295.21875 83.460938 "
       id="path154" />
    <g
       clip-path="url(#clip8)"
       clip-rule="nonzero"
       id="g158">
      <path
         style="fill:none;stroke-width:1.99;stroke-linecap:round;stroke-linejoin:round;stroke:rgb(0%,0%,0%);stroke-opacity:1;stroke-miterlimit:10;"
         d="M 272.90625 94.574219 L 272.90625 94.574219 M 291.875 64.757813 L 291.875 64.757813 M 286.347656 63.371094 L 286.347656 63.371094 M 293.890625 63.945313 L 293.890625 63.945313 M 273.5625 80.453125 L 273.5625 80.453125 M 284.597656 81.007813 L 284.597656 81.007813 M 268.628906 80.078125 L 268.628906 80.078125 M 267.425781 87.90625 L 267.425781 87.90625 M 302.050781 83.738281 L 302.050781 83.738281 M 302.929688 67.199219 L 302.929688 67.199219 M 290.453125 64.65625 L 290.453125 64.65625 M 298.34375 81.488281 L 298.34375 81.488281 M 283.359375 75.621094 L 283.359375 75.621094 M 272.277344 79.742188 L 272.277344 79.742188 M 305.347656 75.269531 L 305.347656 75.269531 M 286.726563 78.8125 L 286.726563 78.8125 M 297.597656 100.355469 L 297.597656 100.355469 M 267.9375 103.347656 L 267.9375 103.347656 M 294.78125 83.292969 L 294.78125 83.292969 M 266.320313 78.457031 L 266.320313 78.457031 M 301.070313 105.097656 L 301.070313 105.097656 M 271.730469 74.273438 L 271.730469 74.273438 M 276.425781 103.457031 L 276.425781 103.457031 M 281.726563 98.328125 L 281.726563 98.328125 M 301.402344 90.851563 L 301.402344 90.851563 M 275.257813 81.597656 L 275.257813 81.597656 M 304.390625 78.597656 L 304.390625 78.597656 M 296.871094 65.800781 L 296.871094 65.800781 M 272.605469 83.785156 L 272.605469 83.785156 M 294.742188 67.992188 L 294.742188 67.992188 M 286.160156 63.507813 L 286.160156 63.507813 M 294.230469 95.078125 L 294.230469 95.078125 M 293.429688 63.953125 L 293.429688 63.953125 M 288.3125 83.820313 L 288.3125 83.820313 M 282.816406 66.035156 L 282.816406 66.035156 M 272.394531 91.03125 L 272.394531 91.03125 M 289.75 80.726563 L 289.75 80.726563 M 305.476563 72.449219 L 305.476563 72.449219 M 293.695313 65.144531 L 293.695313 65.144531 M 274.417969 69.664063 L 274.417969 69.664063 M 286.902344 86.902344 L 286.902344 86.902344 M 288.011719 64.6875 L 288.011719 64.6875 M 266.550781 86.410156 L 266.550781 86.410156 M 302.117188 75.152344 L 302.117188 75.152344 M 281.457031 85.472656 L 281.457031 85.472656 M 279.613281 96.875 L 279.613281 96.875 M 306.980469 82.449219 L 306.980469 82.449219 M 273.027344 68.855469 L 273.027344 68.855469 M 283.042969 64.738281 L 283.042969 64.738281 M 275.890625 101.949219 L 275.890625 101.949219 M 297.683594 105.136719 L 297.683594 105.136719 M 267.285156 95.296875 L 267.285156 95.296875 M 276.59375 81.246094 L 276.59375 81.246094 M 287.609375 93.628906 L 287.609375 93.628906 M 275.851563 100.378906 L 275.851563 100.378906 M 293.832031 81.492188 L 293.832031 81.492188 M 302.730469 77.921875 L 302.730469 77.921875 M 280.027344 90.160156 L 280.027344 90.160156 M 304.089844 101.011719 L 304.089844 101.011719 M 272.808594 84.320313 L 272.808594 84.320313 M 286.859375 99.289063 L 286.859375 99.289063 M 305.257813 87.914063 L 305.257813 87.914063 M 297.511719 99.695313 L 297.511719 99.695313 M 303.78125 98.15625 L 303.78125 98.15625 "
         id="path156" />
    </g>
    <path
       style="fill:none;stroke-width:1.99;stroke-linecap:round;stroke-linejoin:round;stroke:rgb(0%,0%,0%);stroke-opacity:1;stroke-miterlimit:10;"
       d="M 286.730469 81.464844 L 286.730469 81.464844 M 281.980469 67.542969 L 281.980469 67.542969 M 276.691406 86.625 L 276.691406 86.625 M 296.488281 91.59375 L 296.488281 91.59375 M 282.296875 71.722656 L 282.296875 71.722656 M 282.265625 64.449219 L 282.265625 64.449219 M 286.542969 76.25 L 286.542969 76.25 M 275.265625 85.667969 L 275.265625 85.667969 M 308.019531 82.503906 L 308.019531 82.503906 M 278.347656 103.296875 L 278.347656 103.296875 M 276.316406 88.347656 L 276.316406 88.347656 M 282.902344 68.152344 L 282.902344 68.152344 M 297.925781 69.898438 L 297.925781 69.898438 M 266.730469 63.625 L 266.730469 63.625 M 287.042969 88.816406 L 287.042969 88.816406 M 278.582031 77.570313 L 278.582031 77.570313 M 270.558594 80.109375 L 270.558594 80.109375 M 304.648438 76.136719 L 304.648438 76.136719 M 292.351563 66.875 L 292.351563 66.875 M 295.1875 96.011719 L 295.1875 96.011719 M 292.664063 89.914063 L 292.664063 89.914063 M 282.648438 98.253906 L 282.648438 98.253906 M 282.152344 64.578125 L 282.152344 64.578125 M 308.078125 93.117188 L 308.078125 93.117188 M 292.5625 100.222656 L 292.5625 100.222656 M 307.15625 92.507813 L 307.15625 92.507813 M 271.324219 74.421875 L 271.324219 74.421875 M 294.382813 77.953125 L 294.382813 77.953125 M 266.574219 99.855469 L 266.574219 99.855469 M 298.066406 64.828125 L 298.066406 64.828125 M 282.554688 95.996094 L 282.554688 95.996094 M 268.683594 74.359375 L 268.683594 74.359375 M 298.226563 69.097656 L 298.226563 69.097656 M 294.371094 81.644531 L 294.371094 81.644531 M 281.886719 67.535156 L 281.886719 67.535156 M 294.628906 94.070313 L 294.628906 94.070313 "
       id="path160" />
    <path
       style="fill:none;stroke-width:0.3;stroke-linecap:round;stroke-linejoin:round;stroke:rgb(0%,0%,0%);stroke-opacity:1;stroke-miterlimit:10;"
       d="M 39.011719 11.078125 L 83.238281 11.078125 L 83.238281 55.308594 L 39.011719 55.308594 Z M 39.011719 11.078125 "
       id="path162" />
    <path
       style="fill:none;stroke-width:0.3;stroke-linecap:round;stroke-linejoin:round;stroke:rgb(100%,0%,0%);stroke-opacity:1;stroke-miterlimit:10;"
       d="M 82.390625 33.195313 C 82.390625 21.457031 72.863281 11.929688 61.125 11.929688 C 49.386719 11.929688 39.863281 21.457031 39.863281 33.195313 C 39.863281 44.933594 49.386719 54.457031 61.125 54.457031 C 72.863281 54.457031 82.390625 44.933594 82.390625 33.195313 C 82.390625 32.484375 82.355469 31.777344 82.28125 31.070313 "
       id="path164" />
    <path
       style="fill:none;stroke-width:1.99;stroke-linecap:round;stroke-linejoin:round;stroke:rgb(0%,0%,0%);stroke-opacity:1;stroke-miterlimit:10;"
       d="M 46.957031 43.492188 L 46.957031 43.492188 "
       id="path166" />
    <path
       style="fill:none;stroke-width:0.3;stroke-linecap:round;stroke-linejoin:round;stroke:rgb(0%,0%,0%);stroke-opacity:1;stroke-miterlimit:10;"
       d="M 90.09375 11.078125 L 134.324219 11.078125 L 134.324219 55.308594 L 90.09375 55.308594 Z M 90.09375 11.078125 "
       id="path168" />
    <path
       style="fill:none;stroke-width:0.3;stroke-linecap:round;stroke-linejoin:round;stroke:rgb(100%,0%,0%);stroke-opacity:1;stroke-miterlimit:10;"
       d="M 122.84375 33.195313 C 122.84375 27.324219 118.078125 22.5625 112.210938 22.5625 C 106.339844 22.5625 101.578125 27.324219 101.578125 33.195313 C 101.578125 39.0625 106.339844 43.828125 112.210938 43.828125 C 118.078125 43.828125 122.84375 39.0625 122.84375 33.195313 C 122.84375 32.839844 122.824219 32.484375 122.789063 32.132813 "
       id="path170" />
    <path
       style="fill:none;stroke-width:1.99;stroke-linecap:round;stroke-linejoin:round;stroke:rgb(0%,0%,0%);stroke-opacity:1;stroke-miterlimit:10;"
       d="M 98.039063 43.492188 L 98.039063 43.492188 M 123.476563 30.402344 L 123.476563 30.402344 M 111.484375 12.285156 L 111.484375 12.285156 M 119.027344 12.859375 L 119.027344 12.859375 "
       id="path172" />
    <path
       style="fill:none;stroke-width:0.3;stroke-linecap:round;stroke-linejoin:round;stroke:rgb(0%,0%,0%);stroke-opacity:1;stroke-miterlimit:10;"
       d="M 141.179688 11.078125 L 185.40625 11.078125 L 185.40625 55.308594 L 141.179688 55.308594 Z M 141.179688 11.078125 "
       id="path174" />
    <path
       style="fill:none;stroke-width:0.3;stroke-linecap:round;stroke-linejoin:round;stroke:rgb(100%,0%,0%);stroke-opacity:1;stroke-miterlimit:10;"
       d="M 170.382813 33.195313 C 170.382813 29.28125 167.207031 26.105469 163.292969 26.105469 C 159.382813 26.105469 156.207031 29.28125 156.207031 33.195313 C 156.207031 37.105469 159.382813 40.28125 163.292969 40.28125 C 167.207031 40.28125 170.382813 37.105469 170.382813 33.195313 C 170.382813 32.957031 170.371094 32.722656 170.347656 32.488281 "
       id="path176" />
    <path
       style="fill:none;stroke-width:1.99;stroke-linecap:round;stroke-linejoin:round;stroke:rgb(0%,0%,0%);stroke-opacity:1;stroke-miterlimit:10;"
       d="M 149.125 43.492188 L 149.125 43.492188 M 174.5625 30.402344 L 174.5625 30.402344 M 162.566406 12.285156 L 162.566406 12.285156 M 170.109375 12.859375 L 170.109375 12.859375 M 149.78125 29.371094 L 149.78125 29.371094 M 160.820313 29.921875 L 160.820313 29.921875 M 144.847656 28.992188 L 144.847656 28.992188 M 143.648438 36.820313 L 143.648438 36.820313 M 178.269531 32.652344 L 178.269531 32.652344 "
       id="path178" />
    <path
       style="fill:none;stroke-width:0.3;stroke-linecap:round;stroke-linejoin:round;stroke:rgb(0%,0%,0%);stroke-opacity:1;stroke-miterlimit:10;"
       d="M 192.265625 11.078125 L 236.492188 11.078125 L 236.492188 55.308594 L 192.265625 55.308594 Z M 192.265625 11.078125 "
       id="path180" />
    <path
       style="fill:none;stroke-width:0.3;stroke-linecap:round;stroke-linejoin:round;stroke:rgb(100%,0%,0%);stroke-opacity:1;stroke-miterlimit:10;"
       d="M 219.695313 33.195313 C 219.695313 30.261719 217.3125 27.878906 214.378906 27.878906 C 211.445313 27.878906 209.0625 30.261719 209.0625 33.195313 C 209.0625 36.128906 211.445313 38.511719 214.378906 38.511719 C 217.3125 38.511719 219.695313 36.128906 219.695313 33.195313 C 219.695313 33.015625 219.683594 32.839844 219.664063 32.664063 "
       id="path182" />
    <path
       style="fill:none;stroke-width:1.99;stroke-linecap:round;stroke-linejoin:round;stroke:rgb(0%,0%,0%);stroke-opacity:1;stroke-miterlimit:10;"
       d="M 200.210938 43.492188 L 200.210938 43.492188 M 225.644531 30.402344 L 225.644531 30.402344 M 213.652344 12.285156 L 213.652344 12.285156 M 221.195313 12.859375 L 221.195313 12.859375 M 200.867188 29.371094 L 200.867188 29.371094 M 211.902344 29.921875 L 211.902344 29.921875 M 195.929688 28.992188 L 195.929688 28.992188 M 194.730469 36.820313 L 194.730469 36.820313 M 229.351563 32.652344 L 229.351563 32.652344 M 230.234375 16.117188 L 230.234375 16.117188 M 217.757813 13.570313 L 217.757813 13.570313 M 225.644531 30.402344 L 225.644531 30.402344 M 210.664063 24.539063 L 210.664063 24.539063 M 199.582031 28.660156 L 199.582031 28.660156 M 232.652344 24.183594 L 232.652344 24.183594 M 214.03125 27.730469 L 214.03125 27.730469 "
       id="path184" />
    <path
       style="fill:none;stroke-width:0.3;stroke-linecap:round;stroke-linejoin:round;stroke:rgb(0%,0%,0%);stroke-opacity:1;stroke-miterlimit:10;"
       d="M 264.960938 11.078125 L 309.1875 11.078125 L 309.1875 55.308594 L 264.960938 55.308594 Z M 264.960938 11.078125 "
       id="path186" />
    <path
       style="fill:none;stroke-width:0.3;stroke-linecap:round;stroke-linejoin:round;stroke:rgb(100%,0%,0%);stroke-opacity:1;stroke-miterlimit:10;"
       d="M 289.199219 33.195313 C 289.199219 32.019531 288.25 31.066406 287.074219 31.066406 C 285.898438 31.066406 284.945313 32.019531 284.945313 33.195313 C 284.945313 34.367188 285.898438 35.320313 287.074219 35.320313 C 288.25 35.320313 289.199219 34.367188 289.199219 33.195313 C 289.199219 33.125 289.195313 33.054688 289.1875 32.980469 "
       id="path188" />
    <path
       style="fill:none;stroke-width:1.99;stroke-linecap:round;stroke-linejoin:round;stroke:rgb(0%,0%,0%);stroke-opacity:1;stroke-miterlimit:10;"
       d="M 272.90625 43.492188 L 272.90625 43.492188 M 291.875 13.675781 L 291.875 13.675781 M 286.347656 12.285156 L 286.347656 12.285156 M 293.890625 12.859375 L 293.890625 12.859375 M 273.5625 29.371094 L 273.5625 29.371094 M 284.597656 29.921875 L 284.597656 29.921875 M 268.628906 28.992188 L 268.628906 28.992188 M 267.425781 36.820313 L 267.425781 36.820313 M 302.050781 32.652344 L 302.050781 32.652344 M 302.929688 16.117188 L 302.929688 16.117188 M 290.453125 13.570313 L 290.453125 13.570313 M 298.34375 30.402344 L 298.34375 30.402344 M 283.359375 24.539063 L 283.359375 24.539063 M 272.277344 28.660156 L 272.277344 28.660156 M 305.347656 24.183594 L 305.347656 24.183594 M 286.726563 27.730469 L 286.726563 27.730469 M 297.597656 49.269531 L 297.597656 49.269531 M 267.9375 52.265625 L 267.9375 52.265625 M 294.78125 32.207031 L 294.78125 32.207031 M 266.320313 27.375 L 266.320313 27.375 M 301.070313 54.015625 L 301.070313 54.015625 M 271.730469 23.191406 L 271.730469 23.191406 M 276.425781 52.375 L 276.425781 52.375 M 281.726563 47.242188 L 281.726563 47.242188 M 301.402344 39.765625 L 301.402344 39.765625 M 275.257813 30.515625 L 275.257813 30.515625 M 304.390625 27.515625 L 304.390625 27.515625 M 296.871094 14.714844 L 296.871094 14.714844 M 272.605469 32.699219 L 272.605469 32.699219 M 294.742188 16.910156 L 294.742188 16.910156 M 286.160156 12.421875 L 286.160156 12.421875 M 294.230469 43.992188 L 294.230469 43.992188 M 293.429688 12.867188 L 293.429688 12.867188 M 288.3125 32.734375 L 288.3125 32.734375 M 282.816406 14.953125 L 282.816406 14.953125 M 272.394531 39.949219 L 272.394531 39.949219 M 289.75 29.644531 L 289.75 29.644531 M 305.476563 21.363281 L 305.476563 21.363281 M 293.695313 14.0625 L 293.695313 14.0625 M 274.417969 18.578125 L 274.417969 18.578125 M 286.902344 35.816406 L 286.902344 35.816406 M 288.011719 13.601563 L 288.011719 13.601563 M 266.550781 35.324219 L 266.550781 35.324219 M 302.117188 24.066406 L 302.117188 24.066406 M 281.457031 34.390625 L 281.457031 34.390625 M 279.613281 45.789063 L 279.613281 45.789063 M 306.980469 31.367188 L 306.980469 31.367188 M 273.027344 17.769531 L 273.027344 17.769531 M 283.042969 13.652344 L 283.042969 13.652344 M 275.890625 50.863281 L 275.890625 50.863281 M 297.683594 54.050781 L 297.683594 54.050781 M 267.285156 44.214844 L 267.285156 44.214844 M 276.59375 30.164063 L 276.59375 30.164063 M 287.609375 42.542969 L 287.609375 42.542969 M 275.851563 49.296875 L 275.851563 49.296875 M 293.832031 30.410156 L 293.832031 30.410156 M 302.730469 26.835938 L 302.730469 26.835938 M 280.027344 39.078125 L 280.027344 39.078125 M 304.089844 49.929688 L 304.089844 49.929688 M 272.808594 33.238281 L 272.808594 33.238281 M 286.859375 48.203125 L 286.859375 48.203125 M 305.257813 36.832031 L 305.257813 36.832031 M 297.511719 48.613281 L 297.511719 48.613281 M 303.78125 47.074219 L 303.78125 47.074219 "
       id="path190" />
    <path
       style="fill:none;stroke-width:1.99;stroke-linecap:round;stroke-linejoin:round;stroke:rgb(0%,0%,0%);stroke-opacity:1;stroke-miterlimit:10;"
       d="M 286.730469 30.378906 L 286.730469 30.378906 M 281.980469 16.460938 L 281.980469 16.460938 M 276.691406 35.542969 L 276.691406 35.542969 M 296.488281 40.511719 L 296.488281 40.511719 M 282.296875 20.636719 L 282.296875 20.636719 M 282.265625 13.363281 L 282.265625 13.363281 M 286.542969 25.167969 L 286.542969 25.167969 M 275.265625 34.585938 L 275.265625 34.585938 M 308.019531 31.417969 L 308.019531 31.417969 M 278.347656 52.210938 L 278.347656 52.210938 M 276.316406 37.265625 L 276.316406 37.265625 M 282.902344 17.070313 L 282.902344 17.070313 M 297.925781 18.816406 L 297.925781 18.816406 M 266.730469 12.539063 L 266.730469 12.539063 M 287.042969 37.730469 L 287.042969 37.730469 M 278.582031 26.488281 L 278.582031 26.488281 M 270.558594 29.023438 L 270.558594 29.023438 M 304.648438 25.054688 L 304.648438 25.054688 M 292.351563 15.789063 L 292.351563 15.789063 M 295.1875 44.925781 L 295.1875 44.925781 M 292.664063 38.828125 L 292.664063 38.828125 M 282.648438 47.171875 L 282.648438 47.171875 M 282.152344 13.496094 L 282.152344 13.496094 M 308.078125 42.03125 L 308.078125 42.03125 M 292.5625 49.136719 L 292.5625 49.136719 M 307.15625 41.421875 L 307.15625 41.421875 M 271.328125 23.335938 L 271.328125 23.335938 M 294.386719 26.867188 L 294.386719 26.867188 M 266.578125 48.769531 L 266.578125 48.769531 M 298.070313 13.742188 L 298.070313 13.742188 M 282.558594 44.910156 L 282.558594 44.910156 M 268.6875 23.277344 L 268.6875 23.277344 M 298.230469 18.015625 L 298.230469 18.015625 M 294.375 30.5625 L 294.375 30.5625 M 281.886719 16.449219 L 281.886719 16.449219 M 294.628906 42.988281 L 294.628906 42.988281 "
       id="path192" />
  </g>
</svg>
