<?xml version="1.0" encoding="UTF-8" standalone="no"?>
<svg
   xmlns:dc="http://purl.org/dc/elements/1.1/"
   xmlns:cc="http://creativecommons.org/ns#"
   xmlns:rdf="http://www.w3.org/1999/02/22-rdf-syntax-ns#"
   xmlns:svg="http://www.w3.org/2000/svg"
   xmlns="http://www.w3.org/2000/svg"
   xmlns:sodipodi="http://sodipodi.sourceforge.net/DTD/sodipodi-0.dtd"
   xmlns:inkscape="http://www.inkscape.org/namespaces/inkscape"
   width="198.160217pt"
   height="165.980988pt"
   viewBox="0 0 198.160217 165.980988"
   version="1.2"
   id="svg117"
   sodipodi:docname="kmeans_hill_climb.svg"
   inkscape:version="0.92.4 (5da689c313, 2019-01-14)">
  <metadata
     id="metadata121">
    <rdf:RDF>
      <cc:Work
         rdf:about="">
        <dc:format>image/svg+xml</dc:format>
        <dc:type
           rdf:resource="http://purl.org/dc/dcmitype/StillImage" />
        <dc:title></dc:title>
      </cc:Work>
    </rdf:RDF>
  </metadata>
  <sodipodi:namedview
     pagecolor="#ffffff"
     bordercolor="#666666"
     borderopacity="1"
     objecttolerance="10"
     gridtolerance="10"
     guidetolerance="10"
     inkscape:pageopacity="0"
     inkscape:pageshadow="2"
     inkscape:window-width="640"
     inkscape:window-height="480"
     id="namedview119"
     showgrid="false"
     inkscape:zoom="1.0663872"
     inkscape:cx="132.10681"
     inkscape:cy="110.65399"
     inkscape:window-x="0"
     inkscape:window-y="0"
     inkscape:window-maximized="0"
     inkscape:current-layer="svg117" />
  <defs
     id="defs8">
    <clipPath
       id="clip1">
      <path
         d="M 92 11 L 93 11 L 93 165.980469 L 92 165.980469 Z M 92 11 "
         id="path2" />
    </clipPath>
    <clipPath
       id="clip2">
      <path
         d="M 196 88 L 198.160156 88 L 198.160156 93 L 196 93 Z M 196 88 "
         id="path5" />
    </clipPath>
  </defs>
  <g
     id="surface32">
    <path
       style="fill:none;stroke-width:0.329;stroke-linecap:round;stroke-linejoin:round;stroke:rgb(12.940979%,11.764526%,11.764526%);stroke-opacity:1;stroke-miterlimit:4;"
       d="M 4.730469 88.710938 L 4.730469 87.558594 "
       id="path10" />
    <path
       style=" stroke:none;fill-rule:nonzero;fill:rgb(12.940979%,11.764526%,11.764526%);fill-opacity:1;"
       d="M 3.851563 95.480469 L 2.414063 95.480469 L 2.320313 95.886719 L 3.757813 95.886719 Z M 3.851563 95.480469 "
       id="path12" />
    <path
       style=" stroke:none;fill-rule:nonzero;fill:rgb(12.940979%,11.764526%,11.764526%);fill-opacity:1;"
       d="M 7.605469 92.636719 C 5.605469 92.761719 4.386719 94.417969 4.386719 95.777344 C 4.386719 96.855469 5.027344 97.199219 5.558594 97.199219 C 6.683594 97.199219 7.214844 96.089844 7.214844 95.417969 C 7.214844 94.480469 6.558594 94.214844 6.105469 94.214844 C 5.996094 94.214844 5.902344 94.230469 5.808594 94.246094 C 5.699219 94.277344 5.605469 94.308594 5.511719 94.355469 L 5.496094 94.339844 C 5.652344 94.011719 6.449219 92.902344 7.605469 92.746094 Z M 5.855469 94.449219 C 6.355469 94.449219 6.636719 94.761719 6.636719 95.308594 C 6.636719 95.902344 6.277344 97.027344 5.527344 97.027344 C 4.886719 97.027344 4.886719 96.292969 4.886719 96.121094 C 4.886719 96.011719 4.949219 94.449219 5.855469 94.449219 Z M 5.855469 94.449219 "
       id="path14" />
    <path
       style="fill:none;stroke-width:0.329;stroke-linecap:round;stroke-linejoin:round;stroke:rgb(12.940979%,11.764526%,11.764526%);stroke-opacity:1;stroke-miterlimit:4;"
       d="M 34.039063 88.710938 L 34.039063 87.558594 "
       id="path16" />
    <path
       style=" stroke:none;fill-rule:nonzero;fill:rgb(12.940979%,11.764526%,11.764526%);fill-opacity:1;"
       d="M 33.164063 95.480469 L 31.726563 95.480469 L 31.632813 95.886719 L 33.070313 95.886719 Z M 33.164063 95.480469 "
       id="path18" />
    <path
       style=" stroke:none;fill-rule:nonzero;fill:rgb(12.940979%,11.764526%,11.764526%);fill-opacity:1;"
       d="M 35.320313 95.574219 L 33.914063 95.574219 L 33.914063 95.542969 L 35.914063 93.449219 L 35.945313 93.449219 Z M 36.476563 95.574219 L 35.851563 95.574219 L 36.648438 92.699219 L 36.367188 92.699219 L 33.632813 95.542969 L 33.492188 95.980469 L 35.226563 95.980469 L 34.898438 97.152344 L 35.414063 97.152344 L 35.726563 95.996094 L 36.382813 95.996094 Z M 36.476563 95.574219 "
       id="path20" />
    <path
       style="fill:none;stroke-width:0.329;stroke-linecap:round;stroke-linejoin:round;stroke:rgb(12.940979%,11.764526%,11.764526%);stroke-opacity:1;stroke-miterlimit:4;"
       d="M 63.351563 88.710938 L 63.351563 87.558594 "
       id="path22" />
    <path
       style=" stroke:none;fill-rule:nonzero;fill:rgb(12.940979%,11.764526%,11.764526%);fill-opacity:1;"
       d="M 62.472656 95.480469 L 61.035156 95.480469 L 60.941406 95.886719 L 62.378906 95.886719 Z M 62.472656 95.480469 "
       id="path24" />
    <path
       style=" stroke:none;fill-rule:nonzero;fill:rgb(12.940979%,11.764526%,11.764526%);fill-opacity:1;"
       d="M 65.429688 96.230469 C 65.320313 96.480469 65.226563 96.652344 64.789063 96.652344 L 63.539063 96.652344 L 63.539063 96.621094 L 64.804688 95.355469 C 65.617188 94.542969 65.773438 94.246094 65.773438 93.808594 C 65.773438 93.308594 65.414063 92.699219 64.710938 92.699219 C 64.554688 92.699219 63.679688 92.730469 63.335938 93.761719 L 63.476563 93.808594 C 63.554688 93.636719 63.804688 93.183594 64.398438 93.183594 C 64.914063 93.183594 65.210938 93.574219 65.210938 93.980469 C 65.210938 94.199219 65.179688 94.589844 64.257813 95.574219 L 62.882813 97.042969 L 62.882813 97.152344 L 65.226563 97.152344 L 65.554688 96.277344 Z M 65.429688 96.230469 "
       id="path26" />
    <path
       style="fill:none;stroke-width:0.329;stroke-linecap:round;stroke-linejoin:round;stroke:rgb(12.940979%,11.764526%,11.764526%);stroke-opacity:1;stroke-miterlimit:4;"
       d="M 121.96875 88.710938 L 121.96875 87.558594 "
       id="path28" />
    <path
       style=" stroke:none;fill-rule:nonzero;fill:rgb(12.940979%,11.764526%,11.764526%);fill-opacity:1;"
       d="M 122.953125 96.230469 C 122.84375 96.480469 122.75 96.652344 122.3125 96.652344 L 121.0625 96.652344 L 121.0625 96.621094 L 122.328125 95.355469 C 123.140625 94.542969 123.296875 94.246094 123.296875 93.808594 C 123.296875 93.308594 122.9375 92.699219 122.234375 92.699219 C 122.078125 92.699219 121.203125 92.730469 120.859375 93.761719 L 121 93.808594 C 121.078125 93.636719 121.328125 93.183594 121.921875 93.183594 C 122.4375 93.183594 122.734375 93.574219 122.734375 93.980469 C 122.734375 94.199219 122.703125 94.589844 121.78125 95.574219 L 120.40625 97.042969 L 120.40625 97.152344 L 122.75 97.152344 L 123.078125 96.277344 Z M 122.953125 96.230469 "
       id="path30" />
    <path
       style="fill:none;stroke-width:0.329;stroke-linecap:round;stroke-linejoin:round;stroke:rgb(12.940979%,11.764526%,11.764526%);stroke-opacity:1;stroke-miterlimit:4;"
       d="M 151.28125 88.710938 L 151.28125 87.558594 "
       id="path32" />
    <path
       style=" stroke:none;fill-rule:nonzero;fill:rgb(12.940979%,11.764526%,11.764526%);fill-opacity:1;"
       d="M 151.464844 95.574219 L 150.058594 95.574219 L 150.058594 95.542969 L 152.058594 93.449219 L 152.089844 93.449219 Z M 152.621094 95.574219 L 151.996094 95.574219 L 152.792969 92.699219 L 152.511719 92.699219 L 149.777344 95.542969 L 149.636719 95.980469 L 151.371094 95.980469 L 151.042969 97.152344 L 151.558594 97.152344 L 151.871094 95.996094 L 152.527344 95.996094 Z M 152.621094 95.574219 "
       id="path34" />
    <path
       style="fill:none;stroke-width:0.329;stroke-linecap:round;stroke-linejoin:round;stroke:rgb(12.940979%,11.764526%,11.764526%);stroke-opacity:1;stroke-miterlimit:4;"
       d="M 180.589844 88.710938 L 180.589844 87.558594 "
       id="path36" />
    <path
       style=" stroke:none;fill-rule:nonzero;fill:rgb(12.940979%,11.764526%,11.764526%);fill-opacity:1;"
       d="M 182.371094 92.636719 C 180.371094 92.761719 179.152344 94.417969 179.152344 95.777344 C 179.152344 96.855469 179.792969 97.199219 180.324219 97.199219 C 181.449219 97.199219 181.980469 96.089844 181.980469 95.417969 C 181.980469 94.480469 181.324219 94.214844 180.871094 94.214844 C 180.761719 94.214844 180.667969 94.230469 180.574219 94.246094 C 180.464844 94.277344 180.371094 94.308594 180.277344 94.355469 L 180.261719 94.339844 C 180.417969 94.011719 181.214844 92.902344 182.371094 92.746094 Z M 180.621094 94.449219 C 181.121094 94.449219 181.402344 94.761719 181.402344 95.308594 C 181.402344 95.902344 181.042969 97.027344 180.292969 97.027344 C 179.652344 97.027344 179.652344 96.292969 179.652344 96.121094 C 179.652344 96.011719 179.714844 94.449219 180.621094 94.449219 Z M 180.621094 94.449219 "
       id="path38" />
    <path
       style="fill:none;stroke-width:0.329;stroke-linecap:round;stroke-linejoin:round;stroke:rgb(12.940979%,11.764526%,11.764526%);stroke-opacity:1;stroke-miterlimit:4;"
       d="M 12.058594 88.710938 L 12.058594 88.015625 M 19.382813 88.710938 L 19.382813 88.015625 M 26.714844 88.710938 L 26.714844 88.015625 M 41.367188 88.710938 L 41.367188 88.015625 M 48.695313 88.710938 L 48.695313 88.015625 M 56.023438 88.710938 L 56.023438 88.015625 M 70.675781 88.710938 L 70.675781 88.015625 M 78.003906 88.710938 L 78.003906 88.015625 M 85.332031 88.710938 L 85.332031 88.015625 M 99.988281 88.710938 L 99.988281 88.015625 M 107.316406 88.710938 L 107.316406 88.015625 M 114.644531 88.710938 L 114.644531 88.015625 M 129.296875 88.710938 L 129.296875 88.015625 M 136.625 88.710938 L 136.625 88.015625 M 143.953125 88.710938 L 143.953125 88.015625 M 158.609375 88.710938 L 158.609375 88.015625 M 165.9375 88.710938 L 165.9375 88.015625 M 173.261719 88.710938 L 173.261719 88.015625 "
       id="path40" />
    <path
       style="fill:none;stroke-width:0.657;stroke-linecap:round;stroke-linejoin:round;stroke:rgb(12.940979%,11.764526%,11.764526%);stroke-opacity:1;stroke-miterlimit:4;"
       d="M 0.332031 88.710938 L 184.988281 88.710938 "
       id="path42" />
    <path
       style=" stroke:none;fill-rule:nonzero;fill:rgb(12.940979%,11.764526%,11.764526%);fill-opacity:1;"
       d="M 186.539063 88.035156 C 185.453125 87.710938 184.746094 87.40625 183.875 87.054688 L 183.875 90.371094 C 184.1875 90.222656 185.453125 89.71875 186.539063 89.390625 C 187.703125 89.039063 188.757813 88.800781 189.441406 88.714844 C 188.757813 88.628906 187.703125 88.386719 186.539063 88.035156 "
       id="path44" />
    <path
       style="fill:none;stroke-width:0.329;stroke-linecap:round;stroke-linejoin:round;stroke:rgb(12.940979%,11.764526%,11.764526%);stroke-opacity:1;stroke-miterlimit:4;"
       d="M 92.660156 147.332031 L 93.816406 147.332031 "
       id="path46" />
    <path
       style=" stroke:none;fill-rule:nonzero;fill:rgb(12.940979%,11.764526%,11.764526%);fill-opacity:1;"
       d="M 86.734375 148.507813 L 85.296875 148.507813 L 85.203125 148.914063 L 86.640625 148.914063 Z M 86.734375 148.507813 "
       id="path48" />
    <path
       style=" stroke:none;fill-rule:nonzero;fill:rgb(12.940979%,11.764526%,11.764526%);fill-opacity:1;"
       d="M 88.894531 148.601563 L 87.488281 148.601563 L 87.488281 148.570313 L 89.488281 146.476563 L 89.519531 146.476563 Z M 90.050781 148.601563 L 89.425781 148.601563 L 90.222656 145.726563 L 89.941406 145.726563 L 87.207031 148.570313 L 87.066406 149.007813 L 88.800781 149.007813 L 88.472656 150.179688 L 88.988281 150.179688 L 89.300781 149.023438 L 89.957031 149.023438 Z M 90.050781 148.601563 "
       id="path50" />
    <path
       style="fill:none;stroke-width:0.329;stroke-linecap:round;stroke-linejoin:round;stroke:rgb(12.940979%,11.764526%,11.764526%);stroke-opacity:1;stroke-miterlimit:4;"
       d="M 92.660156 118.019531 L 93.816406 118.019531 "
       id="path52" />
    <path
       style=" stroke:none;fill-rule:nonzero;fill:rgb(12.940979%,11.764526%,11.764526%);fill-opacity:1;"
       d="M 86.734375 119.199219 L 85.296875 119.199219 L 85.203125 119.605469 L 86.640625 119.605469 Z M 86.734375 119.199219 "
       id="path54" />
    <path
       style=" stroke:none;fill-rule:nonzero;fill:rgb(12.940979%,11.764526%,11.764526%);fill-opacity:1;"
       d="M 89.691406 119.949219 C 89.582031 120.199219 89.488281 120.371094 89.050781 120.371094 L 87.800781 120.371094 L 87.800781 120.339844 L 89.066406 119.074219 C 89.878906 118.261719 90.035156 117.964844 90.035156 117.527344 C 90.035156 117.027344 89.675781 116.417969 88.972656 116.417969 C 88.816406 116.417969 87.941406 116.449219 87.597656 117.480469 L 87.738281 117.527344 C 87.816406 117.355469 88.066406 116.902344 88.660156 116.902344 C 89.175781 116.902344 89.472656 117.292969 89.472656 117.699219 C 89.472656 117.917969 89.441406 118.308594 88.519531 119.292969 L 87.144531 120.761719 L 87.144531 120.871094 L 89.488281 120.871094 L 89.816406 119.996094 Z M 89.691406 119.949219 "
       id="path56" />
    <path
       style="fill:none;stroke-width:0.329;stroke-linecap:round;stroke-linejoin:round;stroke:rgb(12.940979%,11.764526%,11.764526%);stroke-opacity:1;stroke-miterlimit:4;"
       d="M 92.660156 59.398438 L 93.816406 59.398438 "
       id="path58" />
    <path
       style=" stroke:none;fill-rule:nonzero;fill:rgb(12.940979%,11.764526%,11.764526%);fill-opacity:1;"
       d="M 89.691406 61.328125 C 89.582031 61.578125 89.488281 61.75 89.050781 61.75 L 87.800781 61.75 L 87.800781 61.71875 L 89.066406 60.453125 C 89.878906 59.640625 90.035156 59.34375 90.035156 58.90625 C 90.035156 58.40625 89.675781 57.796875 88.972656 57.796875 C 88.816406 57.796875 87.941406 57.828125 87.597656 58.859375 L 87.738281 58.90625 C 87.816406 58.734375 88.066406 58.28125 88.660156 58.28125 C 89.175781 58.28125 89.472656 58.671875 89.472656 59.078125 C 89.472656 59.296875 89.441406 59.6875 88.519531 60.671875 L 87.144531 62.140625 L 87.144531 62.25 L 89.488281 62.25 L 89.816406 61.375 Z M 89.691406 61.328125 "
       id="path60" />
    <path
       style="fill:none;stroke-width:0.329;stroke-linecap:round;stroke-linejoin:round;stroke:rgb(12.940979%,11.764526%,11.764526%);stroke-opacity:1;stroke-miterlimit:4;"
       d="M 92.660156 30.089844 L 93.816406 30.089844 "
       id="path62" />
    <path
       style=" stroke:none;fill-rule:nonzero;fill:rgb(12.940979%,11.764526%,11.764526%);fill-opacity:1;"
       d="M 88.894531 31.359375 L 87.488281 31.359375 L 87.488281 31.328125 L 89.488281 29.234375 L 89.519531 29.234375 Z M 90.050781 31.359375 L 89.425781 31.359375 L 90.222656 28.484375 L 89.941406 28.484375 L 87.207031 31.328125 L 87.066406 31.765625 L 88.800781 31.765625 L 88.472656 32.9375 L 88.988281 32.9375 L 89.300781 31.78125 L 89.957031 31.78125 Z M 90.050781 31.359375 "
       id="path64" />
    <path
       style="fill:none;stroke-width:0.329;stroke-linecap:round;stroke-linejoin:round;stroke:rgb(12.940979%,11.764526%,11.764526%);stroke-opacity:1;stroke-miterlimit:4;"
       d="M 92.660156 140.003906 L 93.351563 140.003906 M 92.660156 132.675781 L 93.351563 132.675781 M 92.660156 125.351563 L 93.351563 125.351563 M 92.660156 110.691406 L 93.351563 110.691406 M 92.660156 103.367188 L 93.351563 103.367188 M 92.660156 96.039063 L 93.351563 96.039063 M 92.660156 81.382813 L 93.351563 81.382813 M 92.660156 74.058594 L 93.351563 74.058594 M 92.660156 66.730469 L 93.351563 66.730469 M 92.660156 52.074219 L 93.351563 52.074219 M 92.660156 44.746094 L 93.351563 44.746094 M 92.660156 37.417969 L 93.351563 37.417969 M 92.660156 154.660156 L 93.351563 154.660156 M 92.660156 161.984375 L 93.351563 161.984375 M 92.660156 22.761719 L 93.351563 22.761719 M 92.660156 15.4375 L 93.351563 15.4375 "
       id="path66" />
    <g
       clip-path="url(#clip1)"
       clip-rule="nonzero"
       id="g70">
      <path
         style="fill:none;stroke-width:0.657;stroke-linecap:round;stroke-linejoin:round;stroke:rgb(12.940979%,11.764526%,11.764526%);stroke-opacity:1;stroke-miterlimit:4;"
         d="M 92.660156 165.648438 L 92.660156 11.773438 "
         id="path68" />
    </g>
    <path
       style=" stroke:none;fill-rule:nonzero;fill:rgb(12.940979%,11.764526%,11.764526%);fill-opacity:1;"
       d="M 91.988281 10.21875 C 91.660156 11.308594 91.355469 12.015625 91.007813 12.886719 L 94.324219 12.886719 C 94.175781 12.574219 93.671875 11.308594 93.34375 10.21875 C 92.992188 9.058594 92.75 8.003906 92.664063 7.316406 C 92.578125 8.003906 92.339844 9.058594 91.988281 10.21875 "
       id="path72" />
    <path
       style="fill:none;stroke-width:0.329;stroke-linecap:round;stroke-linejoin:round;stroke:rgb(12.940979%,11.764526%,11.764526%);stroke-opacity:1;stroke-miterlimit:4;"
       d="M 41.113281 82.980469 L 47.179688 84.472656 L 53.246094 85.238281 L 59.308594 85.390625 L 65.371094 84.949219 L 71.4375 83.894531 L 77.5 82.085938 L 79.867188 81.128906 L 83.566406 79.261719 L 87.816406 76.078125 L 89.628906 74.253906 L 91.84375 71.023438 L 93.988281 65.972656 L 94.949219 60.917969 L 95.0625 55.863281 L 94.488281 50.8125 L 93.207031 45.757813 L 90.707031 40.703125 L 89.628906 39.367188 L 84.511719 35.652344 L 83.566406 35.371094 L 77.5 35.382813 L 76.285156 35.652344 L 71.4375 37.234375 L 65.371094 39.867188 L 63.398438 40.703125 L 59.308594 42.339844 L 53.246094 44.375 L 49.152344 45.757813 L 47.179688 46.46875 L 41.113281 49.359375 L 38.753906 50.8125 L 35.050781 53.371094 L 32.375 55.863281 L 28.988281 60.074219 L 28.605469 60.917969 L 26.773438 65.972656 L 26.730469 71.023438 L 28.988281 75.695313 L 29.300781 76.078125 L 35.050781 80.527344 L 36.398438 81.128906 L 41.113281 82.980469 M 113.882813 144.566406 L 119.949219 143.722656 L 123.175781 141.773438 L 126.011719 139.203125 L 128.300781 136.71875 L 131.335938 131.667969 L 132.074219 129.957031 L 134.003906 126.613281 L 137.449219 121.558594 L 138.140625 120.683594 L 141.855469 116.503906 L 144.207031 113.980469 L 146.496094 111.453125 L 150.269531 107.398438 L 151.128906 106.398438 L 155.011719 101.34375 L 156.332031 98.105469 L 156.625 96.289063 L 156.332031 93.308594 L 155.503906 91.238281 L 150.269531 86.234375 L 150.035156 86.183594 L 144.207031 83.8125 L 138.140625 82.695313 L 132.074219 82.410156 L 126.011719 82.875 L 119.949219 84.238281 L 115.117188 86.183594 L 113.882813 86.953125 L 108.800781 91.238281 L 107.820313 92.523438 L 105.539063 96.289063 L 103.570313 101.34375 L 102.371094 106.398438 L 101.753906 110.496094 L 101.65625 111.453125 L 101.269531 116.503906 L 101.292969 121.558594 L 101.753906 126.246094 L 101.796875 126.613281 L 102.671875 131.667969 L 104.460938 136.71875 L 107.820313 140.992188 L 108.609375 141.773438 L 113.882813 144.566406 M 180.589844 76.613281 L 175.78125 76.078125 L 174.527344 75.78125 L 168.460938 74.441406 L 162.398438 73.277344 L 156.332031 72.28125 L 150.269531 71.46875 L 146.097656 71.023438 L 144.207031 70.875 L 138.140625 70.523438 L 132.074219 70.425781 L 126.011719 70.546875 L 119.949219 70.78125 L 113.882813 70.625 L 108.429688 65.972656 L 108.023438 60.917969 L 107.820313 57.472656 L 107.734375 55.863281 L 107.339844 50.8125 L 106.78125 45.757813 L 106.03125 40.703125 L 105.035156 35.652344 L 103.683594 30.597656 L 101.820313 25.542969 L 101.753906 25.394531 L 99.460938 20.492188 L 95.695313 16.046875 L 95.011719 15.4375 M 4.730469 68.464844 L 6.769531 65.972656 L 10.683594 60.917969 L 10.792969 60.777344 L 15.113281 55.863281 L 16.859375 53.90625 L 19.9375 50.8125 L 22.921875 48.25 L 26.5 45.757813 L 28.988281 44.179688 L 35.050781 40.789063 L 35.226563 40.703125 L 41.113281 38.101563 L 47.179688 35.824219 L 47.617188 35.652344 L 53.246094 33.019531 L 57.164063 30.597656 L 59.308594 29.09375 L 64.070313 25.542969 L 65.371094 24.574219 L 70.480469 20.492188 L 71.4375 19.71875 L 76.734375 15.4375 "
       id="path74" />
    <path
       style="fill:none;stroke-width:0.329;stroke-linecap:round;stroke-linejoin:round;stroke:rgb(12.940979%,11.764526%,11.764526%);stroke-opacity:1;stroke-miterlimit:4;"
       d="M 180.589844 96.855469 L 176.03125 101.34375 L 174.527344 103.195313 L 171.890625 106.398438 L 168.460938 110.046875 L 166.789063 111.453125 L 162.398438 114.851563 L 160.171875 116.503906 L 156.332031 119.734375 L 154.359375 121.558594 L 150.269531 125.523438 L 149.199219 126.613281 L 144.921875 131.667969 L 144.207031 132.710938 L 141.910156 136.71875 L 139.410156 141.773438 L 138.140625 144.148438 L 136.621094 146.824219 L 133.011719 151.878906 L 132.074219 153.019531 L 128.714844 156.933594 L 126.011719 159.144531 L 121.960938 161.984375 M 4.730469 87.035156 L 10.792969 88.445313 L 16.859375 89.664063 L 22.921875 90.921875 L 24.484375 91.238281 L 28.988281 92.160156 L 35.050781 93.25 L 41.113281 94.121094 L 47.179688 94.734375 L 53.246094 95.0625 L 59.308594 95.089844 L 65.371094 94.835938 L 71.4375 94.34375 L 77.5 93.761719 L 83.566406 93.546875 L 89.007813 96.289063 L 89.628906 97.640625 L 90.292969 101.34375 L 90.371094 106.398438 L 90.253906 111.453125 L 90.15625 116.503906 L 90.183594 121.558594 L 90.410156 126.613281 L 90.898438 131.667969 L 91.691406 136.71875 L 92.835938 141.773438 L 94.402344 146.824219 L 95.695313 150.117188 L 96.417969 151.878906 L 99.132813 156.933594 L 101.753906 160.046875 L 103.898438 161.984375 M 180.589844 64.777344 L 174.527344 64.492188 L 168.460938 64.144531 L 162.398438 63.753906 L 156.332031 63.351563 L 150.269531 62.972656 L 144.207031 62.65625 L 138.140625 62.417969 L 132.074219 62.222656 L 126.011719 61.878906 L 121.4375 60.917969 L 119.949219 60.25 L 117.078125 55.863281 L 116.167969 50.8125 L 115.519531 45.757813 L 114.90625 40.703125 L 114.238281 35.652344 L 113.882813 33.214844 L 113.480469 30.597656 L 112.609375 25.542969 L 111.617188 20.492188 L 110.539063 15.4375 M 4.730469 51.882813 L 6.097656 50.8125 L 10.792969 46.808594 L 12.046875 45.757813 L 16.859375 42.136719 L 19.101563 40.703125 L 22.921875 38.433594 L 27.996094 35.652344 L 28.988281 35.140625 L 35.050781 32.40625 L 39.675781 30.597656 L 41.113281 30.011719 L 47.179688 26.945313 L 49.296875 25.542969 L 53.246094 22.4375 L 55.5 20.492188 L 59.308594 17.082031 L 60.992188 15.4375 M 180.589844 112.691406 L 176.082031 116.503906 L 174.527344 117.65625 L 168.609375 121.558594 L 168.460938 121.652344 L 162.398438 126.238281 L 161.964844 126.613281 L 156.484375 131.667969 L 156.332031 131.808594 L 151.871094 136.71875 L 150.269531 138.992188 L 148.660156 141.773438 L 146.210938 146.824219 L 144.207031 150.820313 L 143.636719 151.878906 L 140.546875 156.933594 L 138.140625 160.398438 L 137.046875 161.984375 M 4.730469 99.457031 L 10.792969 99.734375 L 16.859375 100.070313 L 22.921875 100.460938 L 28.988281 100.910156 L 34.59375 101.34375 L 35.050781 101.378906 L 41.113281 101.816406 L 47.179688 102.152344 L 53.246094 102.34375 L 59.308594 102.375 L 65.371094 102.320313 L 71.4375 102.378906 L 77.5 103.410156 L 80.804688 106.398438 L 81.863281 111.453125 L 82.210938 116.503906 L 82.40625 121.558594 L 82.628906 126.613281 L 82.980469 131.667969 L 83.503906 136.71875 L 83.566406 137.226563 L 84.195313 141.773438 L 85.050781 146.824219 L 86.058594 151.878906 L 87.195313 156.933594 L 88.429688 161.984375 "
       id="path76" />
    <path
       style="fill:none;stroke-width:0.329;stroke-linecap:round;stroke-linejoin:round;stroke:rgb(12.940979%,11.764526%,11.764526%);stroke-opacity:1;stroke-miterlimit:4;"
       d="M 180.589844 57.503906 L 174.527344 57.386719 L 168.460938 57.222656 L 162.398438 57.015625 L 156.332031 56.78125 L 150.269531 56.535156 L 144.207031 56.292969 L 138.140625 56.023438 L 135.515625 55.863281 L 132.074219 55.566406 L 126.011719 53.796875 L 123.777344 50.8125 L 122.558594 45.757813 L 121.742188 40.703125 L 121.09375 35.652344 L 120.53125 30.597656 L 120.03125 25.542969 L 119.949219 24.664063 L 119.460938 20.492188 L 118.882813 15.4375 M 4.730469 42.15625 L 6.632813 40.703125 L 10.792969 37.792969 L 14.316406 35.652344 L 16.859375 34.207031 L 22.921875 30.929688 L 23.570313 30.597656 L 28.988281 28.066406 L 35.050781 25.613281 L 35.214844 25.542969 L 41.113281 22.613281 L 44.230469 20.492188 L 47.179688 18.050781 L 50.011719 15.4375 M 180.589844 122.667969 L 174.527344 126.382813 L 174.144531 126.613281 L 168.460938 130.585938 L 167.164063 131.667969 L 162.398438 135.929688 L 161.554688 136.71875 L 156.898438 141.773438 L 156.332031 142.535156 L 153.722656 146.824219 L 151.253906 151.878906 L 150.269531 154.046875 L 148.796875 156.933594 L 145.820313 161.984375 M 4.730469 106.703125 L 10.792969 106.800781 L 16.859375 106.949219 L 22.921875 107.144531 L 28.988281 107.378906 L 35.050781 107.640625 L 41.113281 107.90625 L 47.179688 108.128906 L 53.246094 108.285156 L 59.308594 108.40625 L 65.371094 108.652344 L 71.4375 109.90625 L 73.667969 111.453125 L 75.441406 116.503906 L 76.105469 121.558594 L 76.511719 126.613281 L 76.839844 131.667969 L 77.179688 136.71875 L 77.5 141.621094 L 77.515625 141.773438 L 78.089844 146.824219 L 79.332031 156.933594 L 79.902344 161.984375 M 180.589844 53.027344 L 174.527344 52.855469 L 168.460938 52.59375 L 162.398438 52.253906 L 156.332031 51.871094 L 150.269531 51.460938 L 144.207031 51.011719 L 141.875 50.8125 L 138.140625 50.441406 L 132.074219 49.152344 L 128.945313 45.757813 L 127.957031 40.703125 L 127.332031 35.652344 L 126.703125 30.597656 L 126.039063 25.542969 L 126.011719 25.339844 L 125.242188 20.492188 L 124.367188 15.4375 M 4.730469 34.546875 L 10.792969 31 L 11.371094 30.597656 L 16.859375 27.929688 L 22.25 25.542969 L 22.921875 24.554688 L 28.988281 22.335938 L 33.359375 20.492188 L 35.050781 19.210938 L 40.660156 15.4375 M 180.589844 128.808594 L 177.691406 131.667969 L 174.527344 133.542969 L 170.601563 136.71875 L 168.460938 138.59375 L 164.949219 141.773438 L 162.398438 144.222656 L 159.359375 146.824219 L 157.914063 151.878906 L 156.332031 154.886719 L 154.605469 156.933594 L 152.636719 161.984375 M 4.730469 112.539063 L 10.792969 112.585938 L 16.859375 112.667969 L 22.921875 112.78125 L 28.988281 112.921875 L 35.050781 113.070313 L 41.113281 113.214844 L 47.179688 113.339844 L 53.246094 113.433594 L 59.308594 113.539063 L 65.371094 113.359375 L 69.175781 116.503906 L 69.945313 121.558594 L 70.570313 126.613281 L 71.0625 131.667969 L 71.4375 135.355469 L 71.609375 136.71875 L 72.417969 141.773438 L 73.539063 146.824219 L 73.097656 151.878906 L 73.558594 156.933594 L 73.941406 161.984375 "
       id="path78" />
    <path
       style="fill:none;stroke-width:0.493;stroke-linecap:round;stroke-linejoin:round;stroke:rgb(100%,0%,0%);stroke-opacity:1;stroke-miterlimit:4;"
       d="M 151.28125 132.675781 L 123.746094 107.570313 L 123.230469 107.171875 L 123.210938 107.148438 M 48.695313 103.367188 L 54.621094 74.566406 L 58.582031 66.007813 M 34.039063 44.746094 L 59.941406 64.664063 L 61.011719 64.433594 L 61.308594 64.316406 L 61.40625 64.28125 M 136.625 74.058594 L 134.625 92.660156 L 131.308594 98.664063 L 128.476563 101.296875 L 126.738281 103.007813 M 70.675781 132.675781 L 109.832031 122.453125 L 117.269531 119.269531 L 118.492188 116.257813 L 119.332031 114.109375 L 120.054688 112.484375 M 107.316406 44.746094 L 83.992188 51.148438 L 75.964844 56.910156 L 70.074219 60.789063 L 65.535156 62.792969 "
       id="path80" />
    <path
       style="fill:none;stroke-width:0.383;stroke-linecap:round;stroke-linejoin:round;stroke:rgb(100%,0%,0%);stroke-opacity:1;stroke-miterlimit:4;"
       d="M 122.625 59.398438 L 99.890625 82.136719 "
       id="path82" />
    <path
       style="fill:none;stroke-width:0.329;stroke-linecap:round;stroke-linejoin:round;stroke:rgb(100%,0%,0%);stroke-opacity:1;stroke-miterlimit:4;"
       d="M 64.007813 118.019531 L 99.890625 82.136719 "
       id="path84" />
    <path
       style="fill:none;stroke-width:2.783;stroke-linecap:round;stroke-linejoin:round;stroke:rgb(12.940979%,11.764526%,11.764526%);stroke-opacity:1;stroke-miterlimit:4;"
       d="M 151.28125 132.675781 L 151.28125 132.675781 M 123.746094 107.570313 L 123.746094 107.570313 M 123.230469 107.171875 L 123.230469 107.171875 M 123.210938 107.148438 L 123.210938 107.148438 M 48.695313 103.367188 L 48.695313 103.367188 M 54.621094 74.566406 L 54.621094 74.566406 M 58.582031 66.007813 L 58.582031 66.007813 M 34.039063 44.746094 L 34.039063 44.746094 M 59.941406 64.664063 L 59.941406 64.664063 M 61.011719 64.433594 L 61.011719 64.433594 M 61.308594 64.316406 L 61.308594 64.316406 M 61.40625 64.28125 L 61.40625 64.28125 M 136.625 74.058594 L 136.625 74.058594 M 134.625 92.660156 L 134.625 92.660156 M 131.308594 98.664063 L 131.308594 98.664063 M 128.476563 101.296875 L 128.476563 101.296875 M 126.738281 103.007813 L 126.738281 103.007813 M 70.675781 132.675781 L 70.675781 132.675781 M 109.832031 122.453125 L 109.832031 122.453125 M 117.269531 119.269531 L 117.269531 119.269531 M 118.492188 116.257813 L 118.492188 116.257813 M 119.332031 114.109375 L 119.332031 114.109375 M 120.054688 112.484375 L 120.054688 112.484375 M 107.316406 44.746094 L 107.316406 44.746094 M 83.992188 51.148438 L 83.992188 51.148438 M 75.964844 56.910156 L 75.964844 56.910156 M 70.074219 60.789063 L 70.074219 60.789063 M 65.535156 62.792969 L 65.535156 62.792969 M 121.96875 59.398438 L 121.96875 59.398438 M 99.234375 82.136719 L 99.234375 82.136719 M 63.351563 118.019531 L 63.351563 118.019531 M 99.234375 82.136719 L 99.234375 82.136719 "
       id="path86" />
    <path
       style="fill:none;stroke-width:3.287;stroke-linecap:round;stroke-linejoin:round;stroke:rgb(49.803162%,49.803162%,49.803162%);stroke-opacity:1;stroke-miterlimit:4;"
       d="M 61.445313 64.265625 L 61.445313 64.265625 M 123.214844 107.132813 L 123.214844 107.132813 M 99.234375 82.136719 L 99.234375 82.136719 "
       id="path88" />
    <path
       style=" stroke:none;fill-rule:nonzero;fill:rgb(12.940979%,11.764526%,11.764526%);fill-opacity:1;"
       d="M 195.296875 87.25 C 195.328125 87.140625 195.328125 87.125 195.328125 87.09375 C 195.328125 87 195.265625 86.859375 195.09375 86.859375 C 194.859375 86.859375 194.765625 87.0625 194.734375 87.203125 L 194.21875 89.3125 C 194.15625 89.546875 193.734375 90.15625 193.140625 90.15625 C 192.546875 90.15625 192.546875 89.609375 192.546875 89.453125 C 192.546875 89.296875 192.5625 89.1875 192.65625 88.78125 L 193 87.453125 C 193.03125 87.3125 193.109375 87.03125 193.109375 87 C 193.109375 86.890625 193.015625 86.78125 192.859375 86.78125 C 192.640625 86.78125 192.546875 86.953125 192.515625 87.109375 L 191.40625 91.578125 C 191.375 91.6875 191.375 91.703125 191.375 91.734375 C 191.375 91.890625 191.484375 91.96875 191.609375 91.96875 C 191.734375 91.96875 191.84375 91.890625 191.90625 91.796875 C 191.9375 91.734375 192.015625 91.421875 192.328125 90.109375 C 192.59375 90.328125 192.9375 90.359375 193.109375 90.359375 C 193.546875 90.359375 193.890625 90.140625 194.171875 89.78125 C 194.28125 90.1875 194.625 90.359375 194.921875 90.359375 C 195.09375 90.359375 195.34375 90.3125 195.53125 89.890625 C 195.671875 89.609375 195.78125 89.171875 195.78125 89.140625 C 195.78125 89.078125 195.734375 89.046875 195.671875 89.046875 C 195.578125 89.046875 195.5625 89.078125 195.53125 89.25 C 195.40625 89.734375 195.25 90.15625 194.9375 90.15625 C 194.734375 90.15625 194.703125 89.9375 194.703125 89.796875 C 194.703125 89.65625 194.703125 89.640625 194.75 89.421875 Z M 195.296875 87.25 "
       id="path90" />
    <g
       clip-path="url(#clip2)"
       clip-rule="nonzero"
       id="g94">
      <path
         style=" stroke:none;fill-rule:nonzero;fill:rgb(12.940979%,11.764526%,11.764526%);fill-opacity:1;"
         d="M 196.277344 92.238281 L 197.746094 92.238281 L 197.746094 92.160156 C 197.480469 92.160156 197.292969 92.144531 197.292969 91.988281 C 197.292969 91.894531 197.355469 91.707031 197.386719 91.597656 L 198.136719 88.863281 C 198.152344 88.785156 198.183594 88.675781 198.136719 88.675781 C 198.105469 88.675781 197.371094 88.832031 197.121094 88.878906 L 197.121094 88.957031 L 197.417969 88.941406 C 197.464844 88.941406 197.621094 88.941406 197.621094 89.113281 C 197.621094 89.160156 197.605469 89.238281 197.589844 89.285156 L 196.855469 91.878906 C 196.792969 92.113281 196.574219 92.128906 196.277344 92.160156 Z M 196.277344 92.238281 "
         id="path92" />
    </g>
    <path
       style=" stroke:none;fill-rule:nonzero;fill:rgb(12.940979%,11.764526%,11.764526%);fill-opacity:1;"
       d="M 93.617188 0.46875 C 93.648438 0.359375 93.648438 0.34375 93.648438 0.3125 C 93.648438 0.21875 93.585938 0.078125 93.414063 0.078125 C 93.179688 0.078125 93.085938 0.28125 93.054688 0.421875 L 92.539063 2.53125 C 92.476563 2.765625 92.054688 3.375 91.460938 3.375 C 90.867188 3.375 90.867188 2.828125 90.867188 2.671875 C 90.867188 2.515625 90.882813 2.40625 90.976563 2 L 91.320313 0.671875 C 91.351563 0.53125 91.429688 0.25 91.429688 0.21875 C 91.429688 0.109375 91.335938 0 91.179688 0 C 90.960938 0 90.867188 0.171875 90.835938 0.328125 L 89.726563 4.796875 C 89.695313 4.90625 89.695313 4.921875 89.695313 4.953125 C 89.695313 5.109375 89.804688 5.1875 89.929688 5.1875 C 90.054688 5.1875 90.164063 5.109375 90.226563 5.015625 C 90.257813 4.953125 90.335938 4.640625 90.648438 3.328125 C 90.914063 3.546875 91.257813 3.578125 91.429688 3.578125 C 91.867188 3.578125 92.210938 3.359375 92.492188 3 C 92.601563 3.40625 92.945313 3.578125 93.242188 3.578125 C 93.414063 3.578125 93.664063 3.53125 93.851563 3.109375 C 93.992188 2.828125 94.101563 2.390625 94.101563 2.359375 C 94.101563 2.296875 94.054688 2.265625 93.992188 2.265625 C 93.898438 2.265625 93.882813 2.296875 93.851563 2.46875 C 93.726563 2.953125 93.570313 3.375 93.257813 3.375 C 93.054688 3.375 93.023438 3.15625 93.023438 3.015625 C 93.023438 2.875 93.023438 2.859375 93.070313 2.640625 Z M 93.617188 0.46875 "
       id="path96" />
    <path
       style=" stroke:none;fill-rule:nonzero;fill:rgb(12.940979%,11.764526%,11.764526%);fill-opacity:1;"
       d="M 96.4375 4.722656 C 96.34375 4.910156 96.265625 5.050781 95.90625 5.050781 L 94.90625 5.050781 L 94.90625 5.035156 L 95.921875 4.019531 C 96.578125 3.363281 96.703125 3.128906 96.703125 2.769531 C 96.703125 2.378906 96.40625 1.894531 95.859375 1.894531 C 95.71875 1.894531 95.03125 1.925781 94.75 2.738281 L 94.859375 2.769531 C 94.9375 2.644531 95.140625 2.285156 95.609375 2.285156 C 96.015625 2.285156 96.25 2.597656 96.25 2.925781 C 96.25 3.097656 96.234375 3.410156 95.5 4.191406 L 94.390625 5.363281 L 94.390625 5.457031 L 96.265625 5.457031 L 96.53125 4.769531 Z M 96.4375 4.722656 "
       id="path98" />
    <path
       style=" stroke:none;fill-rule:nonzero;fill:rgb(100%,0%,0%);fill-opacity:1;"
       d="M 86.222656 127.976563 C 85.089844 127.902344 84.332031 127.769531 83.402344 127.625 L 84.15625 130.855469 C 84.425781 130.640625 85.546875 129.863281 86.53125 129.296875 C 87.582031 128.691406 88.554688 128.214844 89.203125 127.976563 C 88.515625 128.050781 87.433594 128.054688 86.222656 127.976563 "
       id="path100" />
    <path
       style=" stroke:none;fill-rule:nonzero;fill:rgb(100%,0%,0%);fill-opacity:1;"
       d="M 131.46875 115.585938 C 132.074219 116.546875 132.410156 117.238281 132.835938 118.074219 L 135.011719 115.574219 C 134.679688 115.480469 133.394531 115.027344 132.359375 114.5625 C 131.25 114.066406 130.296875 113.554688 129.722656 113.171875 C 130.183594 113.683594 130.824219 114.558594 131.46875 115.585938 "
       id="path102" />
    <path
       style=" stroke:none;fill-rule:nonzero;fill:rgb(100%,0%,0%);fill-opacity:1;"
       d="M 48.351563 55.054688 C 47.703125 54.121094 47.335938 53.445313 46.867188 52.632813 L 44.8125 55.234375 C 45.148438 55.3125 46.457031 55.699219 47.511719 56.117188 C 48.644531 56.5625 49.621094 57.027344 50.210938 57.382813 C 49.726563 56.894531 49.046875 56.050781 48.351563 55.054688 "
       id="path104" />
    <path
       style=" stroke:none;fill-rule:nonzero;fill:rgb(100%,0%,0%);fill-opacity:1;"
       d="M 50.683594 91.386719 C 50.128906 92.375 49.679688 93 49.148438 93.773438 L 52.386719 94.492188 C 52.308594 94.15625 52.089844 92.808594 52.003906 91.679688 C 51.914063 90.464844 51.90625 89.382813 51.972656 88.695313 C 51.742188 89.347656 51.277344 90.324219 50.683594 91.386719 "
       id="path106" />
    <path
       style=" stroke:none;fill-rule:nonzero;fill:rgb(100%,0%,0%);fill-opacity:1;"
       d="M 98.847656 47.792969 C 99.984375 47.804688 100.746094 47.898438 101.679688 47.992188 L 100.757813 44.808594 C 100.5 45.035156 99.421875 45.871094 98.46875 46.488281 C 97.453125 47.152344 96.503906 47.675781 95.871094 47.949219 C 96.550781 47.839844 97.632813 47.777344 98.847656 47.792969 "
       id="path108" />
    <path
       style=" stroke:none;fill-rule:nonzero;fill:rgb(100%,0%,0%);fill-opacity:1;"
       d="M 136.175781 83.445313 C 136.597656 82.390625 136.957031 81.714844 137.382813 80.875 L 134.078125 80.585938 C 134.199219 80.910156 134.59375 82.214844 134.824219 83.328125 C 135.074219 84.515625 135.222656 85.589844 135.25 86.277344 C 135.394531 85.601563 135.722656 84.574219 136.175781 83.445313 "
       id="path110" />
    <path
       style=" stroke:none;fill-rule:nonzero;fill:rgb(100%,0%,0%);fill-opacity:1;"
       d="M 83.089844 98.160156 C 82.085938 98.6875 81.371094 98.96875 80.503906 99.328125 L 82.824219 101.695313 C 82.945313 101.371094 83.496094 100.125 84.039063 99.128906 C 84.625 98.0625 85.207031 97.152344 85.636719 96.609375 C 85.089844 97.027344 84.167969 97.597656 83.089844 98.160156 "
       id="path112" />
    <path
       style=" stroke:none;fill-rule:nonzero;fill:rgb(100%,0%,0%);fill-opacity:1;"
       d="M 107.445313 75.734375 C 108.433594 75.179688 109.144531 74.882813 110 74.5 L 107.613281 72.195313 C 107.503906 72.523438 106.988281 73.78125 106.46875 74.792969 C 105.914063 75.875 105.355469 76.800781 104.941406 77.351563 C 105.476563 76.917969 106.382813 76.328125 107.445313 75.734375 "
       id="path114" />
  </g>
</svg>
