<?xml version="1.0" encoding="UTF-8" standalone="no"?>
<svg
   xmlns:dc="http://purl.org/dc/elements/1.1/"
   xmlns:cc="http://creativecommons.org/ns#"
   xmlns:rdf="http://www.w3.org/1999/02/22-rdf-syntax-ns#"
   xmlns:svg="http://www.w3.org/2000/svg"
   xmlns="http://www.w3.org/2000/svg"
   xmlns:sodipodi="http://sodipodi.sourceforge.net/DTD/sodipodi-0.dtd"
   xmlns:inkscape="http://www.inkscape.org/namespaces/inkscape"
   width="166.486801pt"
   height="194.327896pt"
   viewBox="0 0 166.486801 194.327896"
   version="1.2"
   id="svg73"
   sodipodi:docname="SSE_clustering.svg"
   inkscape:version="0.92.4 (5da689c313, 2019-01-14)">
  <metadata
     id="metadata77">
    <rdf:RDF>
      <cc:Work
         rdf:about="">
        <dc:format>image/svg+xml</dc:format>
        <dc:type
           rdf:resource="http://purl.org/dc/dcmitype/StillImage" />
        <dc:title></dc:title>
      </cc:Work>
    </rdf:RDF>
  </metadata>
  <sodipodi:namedview
     pagecolor="#ffffff"
     bordercolor="#666666"
     borderopacity="1"
     objecttolerance="10"
     gridtolerance="10"
     guidetolerance="10"
     inkscape:pageopacity="0"
     inkscape:pageshadow="2"
     inkscape:window-width="640"
     inkscape:window-height="480"
     id="namedview75"
     showgrid="false"
     inkscape:zoom="0.91083166"
     inkscape:cx="110.9912"
     inkscape:cy="129.55193"
     inkscape:window-x="0"
     inkscape:window-y="0"
     inkscape:window-maximized="0"
     inkscape:current-layer="svg73" />
  <defs
     id="defs14">
    <clipPath
       id="clip1">
      <path
         d="M 0 64 L 93 64 L 93 194.328125 L 0 194.328125 Z M 0 64 "
         id="path2" />
    </clipPath>
    <clipPath
       id="clip2">
      <path
         d="M 164 157 L 166.488281 157 L 166.488281 164 L 164 164 Z M 164 157 "
         id="path5" />
    </clipPath>
    <clipPath
       id="clip3">
      <path
         d="M 7 7 L 109 7 L 109 61.839844 L 7 61.839844 Z M 7 7 "
         id="path8" />
    </clipPath>
    <clipPath
       id="clip4">
      <path
         d="M 0 61 L 142.332031 61 L 142.332031 61.839844 L 0 61.839844 Z M 0 61 "
         id="path11" />
    </clipPath>
  </defs>
  <g
     id="surface28">
    <path
       style="fill:none;stroke-width:1.76;stroke-linecap:round;stroke-linejoin:round;stroke:rgb(0%,0%,0%);stroke-opacity:1;stroke-miterlimit:4;"
       d="M 64.675781 177.417969 L 64.675781 177.417969 M 53.648438 171.378906 L 53.648438 171.378906 M 71.980469 163.253906 L 71.980469 163.253906 M 55.765625 177.195313 L 55.765625 177.195313 M 49.226563 174.234375 L 49.226563 174.234375 M 39.453125 179.152344 L 39.453125 179.152344 M 31.484375 170.238281 L 31.484375 170.238281 M 35.742188 183.234375 L 35.742188 183.234375 M 19.855469 179.496094 L 19.855469 179.496094 M 26.117188 179.828125 L 26.117188 179.828125 M 76.777344 152.421875 L 76.777344 152.421875 M 33.925781 174.9375 L 33.925781 174.9375 M 47.070313 164.792969 L 47.070313 164.792969 M 46.023438 185.886719 L 46.023438 185.886719 M 61.582031 163.144531 L 61.582031 163.144531 M 55.351563 181.164063 L 55.351563 181.164063 M 53.898438 171.160156 L 53.898438 171.160156 M 60.035156 167.773438 L 60.035156 167.773438 M 73.039063 170.765625 L 73.039063 170.765625 M 54.636719 162.917969 L 54.636719 162.917969 M 60.59375 158.808594 L 60.59375 158.808594 M 58.917969 178.253906 L 58.917969 178.253906 M 45.59375 166.203125 L 45.59375 166.203125 M 48.570313 179.207031 L 48.570313 179.207031 M 20.230469 167.800781 L 20.230469 167.800781 M 46.507813 173.660156 L 46.507813 173.660156 M 44.40625 173.105469 L 44.40625 173.105469 M 54.066406 164.171875 L 54.066406 164.171875 M 48.542969 163.164063 L 48.542969 163.164063 M 42.71875 188.160156 L 42.71875 188.160156 M 68.125 167.40625 L 68.125 167.40625 M 50.199219 166.824219 L 50.199219 166.824219 M 32.855469 164.742188 L 32.855469 164.742188 M 43.765625 158.320313 L 43.765625 158.320313 M 37.953125 167.941406 L 37.953125 167.941406 M 86.402344 166.375 L 86.402344 166.375 M 66.519531 160.144531 L 66.519531 160.144531 M 45.871094 164.019531 L 45.871094 164.019531 M 54.480469 160.734375 L 54.480469 160.734375 M 13.492188 169.867188 L 13.492188 169.867188 M 73.164063 159.136719 L 73.164063 159.136719 M 75.929688 160.78125 L 75.929688 160.78125 M 57.957031 151.886719 L 57.957031 151.886719 M 38.355469 164.074219 L 38.355469 164.074219 M 52.886719 151.09375 L 52.886719 151.09375 M 45.980469 166.003906 L 45.980469 166.003906 M 48.441406 166.21875 L 48.441406 166.21875 M 39.832031 170.328125 L 39.832031 170.328125 M 38.238281 175.351563 L 38.238281 175.351563 M 48.773438 172.542969 L 48.773438 172.542969 M 61.699219 164.847656 L 61.699219 164.847656 M 39.222656 171.945313 L 39.222656 171.945313 M 42.433594 162.367188 L 42.433594 162.367188 M 68.277344 158.367188 L 68.277344 158.367188 M 35.011719 178.746094 L 35.011719 178.746094 M 79.882813 163.214844 L 79.882813 163.214844 M 52.355469 159.96875 L 52.355469 159.96875 M 21.507813 165.023438 L 21.507813 165.023438 M 41.425781 160.644531 L 41.425781 160.644531 M 37.496094 163.15625 L 37.496094 163.15625 M 28.804688 177.195313 L 28.804688 177.195313 M 45.554688 168.757813 L 45.554688 168.757813 M 7.296875 184.820313 L 7.296875 184.820313 M 56.617188 170.125 L 56.617188 170.125 "
       id="path16" />
    <path
       style="fill:none;stroke-width:1.76;stroke-linecap:round;stroke-linejoin:round;stroke:rgb(0%,0%,0%);stroke-opacity:1;stroke-miterlimit:4;"
       d="M 27.390625 172.292969 L 27.390625 172.292969 M 42.324219 158.570313 L 42.324219 158.570313 M 24.613281 185.441406 L 24.613281 185.441406 M 79.121094 159.304688 L 79.121094 159.304688 M 18.902344 173.628906 L 18.902344 173.628906 M 30.136719 183.539063 L 30.136719 183.539063 M 56.960938 174.285156 L 56.960938 174.285156 M 51.949219 176.253906 L 51.949219 176.253906 M 53.953125 156 L 53.953125 156 M 58.230469 164.769531 L 58.230469 164.769531 M 39.621094 162.628906 L 39.621094 162.628906 M 70 162.011719 L 70 162.011719 M 71.765625 169.609375 L 71.765625 169.609375 M 39.433594 173.792969 L 39.433594 173.792969 M 50.242188 166.113281 L 50.242188 166.113281 M 55.648438 174.078125 L 55.648438 174.078125 M 97.476563 146.96875 L 97.476563 146.96875 M 99.9375 145.9375 L 99.9375 145.9375 M 105.539063 150.90625 L 105.539063 150.90625 M 112.046875 156.050781 L 112.046875 156.050781 M 104.558594 145.261719 L 104.558594 145.261719 M 111.882813 155.96875 L 111.882813 155.96875 M 64.179688 96.835938 L 64.179688 96.835938 M 53.152344 90.800781 L 53.152344 90.800781 M 71.484375 82.671875 L 71.484375 82.671875 M 55.269531 96.613281 L 55.269531 96.613281 M 48.730469 93.652344 L 48.730469 93.652344 M 38.960938 98.570313 L 38.960938 98.570313 M 30.988281 89.65625 L 30.988281 89.65625 M 35.246094 102.652344 L 35.246094 102.652344 M 19.359375 98.914063 L 19.359375 98.914063 M 25.621094 99.246094 L 25.621094 99.246094 M 76.28125 71.839844 L 76.28125 71.839844 M 33.429688 94.359375 L 33.429688 94.359375 M 46.574219 84.210938 L 46.574219 84.210938 M 45.527344 105.304688 L 45.527344 105.304688 M 61.085938 82.566406 L 61.085938 82.566406 M 54.859375 100.582031 L 54.859375 100.582031 M 53.40625 90.582031 L 53.40625 90.582031 M 59.539063 87.191406 L 59.539063 87.191406 M 72.546875 90.183594 L 72.546875 90.183594 M 54.144531 82.335938 L 54.144531 82.335938 M 60.097656 78.226563 L 60.097656 78.226563 M 58.421875 97.671875 L 58.421875 97.671875 M 45.097656 85.621094 L 45.097656 85.621094 M 48.074219 98.625 L 48.074219 98.625 M 19.734375 87.21875 L 19.734375 87.21875 M 46.015625 93.078125 L 46.015625 93.078125 M 43.914063 92.523438 L 43.914063 92.523438 M 53.574219 83.589844 L 53.574219 83.589844 M 48.046875 82.582031 L 48.046875 82.582031 M 42.222656 107.578125 L 42.222656 107.578125 M 67.628906 86.824219 L 67.628906 86.824219 M 49.703125 86.246094 L 49.703125 86.246094 M 32.359375 84.160156 L 32.359375 84.160156 M 43.273438 77.738281 L 43.273438 77.738281 M 37.460938 87.359375 L 37.460938 87.359375 M 85.90625 85.792969 L 85.90625 85.792969 M 66.023438 79.5625 L 66.023438 79.5625 M 45.375 83.4375 L 45.375 83.4375 M 53.988281 80.152344 L 53.988281 80.152344 M 13 89.285156 L 13 89.285156 M 72.667969 78.554688 L 72.667969 78.554688 M 75.4375 80.199219 L 75.4375 80.199219 "
       id="path18" />
    <path
       style="fill:none;stroke-width:1.76;stroke-linecap:round;stroke-linejoin:round;stroke:rgb(0%,0%,0%);stroke-opacity:1;stroke-miterlimit:4;"
       d="M 57.460938 71.304688 L 57.460938 71.304688 M 37.859375 83.492188 L 37.859375 83.492188 M 52.390625 70.511719 L 52.390625 70.511719 M 45.484375 85.421875 L 45.484375 85.421875 M 47.945313 85.636719 L 47.945313 85.636719 M 39.335938 89.75 L 39.335938 89.75 M 37.742188 94.769531 L 37.742188 94.769531 M 48.28125 91.960938 L 48.28125 91.960938 M 61.203125 84.265625 L 61.203125 84.265625 M 38.726563 91.363281 L 38.726563 91.363281 M 41.9375 81.785156 L 41.9375 81.785156 M 67.78125 77.785156 L 67.78125 77.785156 M 34.515625 98.164063 L 34.515625 98.164063 M 79.390625 82.632813 L 79.390625 82.632813 M 51.859375 79.386719 L 51.859375 79.386719 M 21.011719 84.441406 L 21.011719 84.441406 M 40.929688 80.0625 L 40.929688 80.0625 M 37 82.574219 L 37 82.574219 M 28.3125 96.613281 L 28.3125 96.613281 M 45.0625 88.175781 L 45.0625 88.175781 M 6.800781 104.238281 L 6.800781 104.238281 M 56.121094 89.542969 L 56.121094 89.542969 M 26.894531 91.710938 L 26.894531 91.710938 M 41.828125 77.988281 L 41.828125 77.988281 M 24.117188 104.859375 L 24.117188 104.859375 M 78.625 78.722656 L 78.625 78.722656 M 18.40625 93.046875 L 18.40625 93.046875 M 29.640625 102.957031 L 29.640625 102.957031 M 56.464844 93.703125 L 56.464844 93.703125 M 51.457031 95.671875 L 51.457031 95.671875 M 53.460938 75.417969 L 53.460938 75.417969 M 57.734375 84.1875 L 57.734375 84.1875 M 39.125 82.050781 L 39.125 82.050781 M 69.503906 81.429688 L 69.503906 81.429688 M 71.273438 89.027344 L 71.273438 89.027344 M 38.941406 93.210938 L 38.941406 93.210938 M 49.75 85.53125 L 49.75 85.53125 M 55.15625 93.5 L 55.15625 93.5 M 96.980469 66.386719 L 96.980469 66.386719 M 99.441406 65.355469 L 99.441406 65.355469 M 105.042969 70.324219 L 105.042969 70.324219 M 111.550781 75.46875 L 111.550781 75.46875 M 104.066406 64.679688 L 104.066406 64.679688 M 111.386719 75.386719 L 111.386719 75.386719 "
       id="path20" />
    <g
       clip-path="url(#clip1)"
       clip-rule="nonzero"
       id="g24">
      <path
         style="fill:none;stroke-width:0.88;stroke-linecap:round;stroke-linejoin:round;stroke:rgb(0%,0%,0%);stroke-opacity:1;stroke-miterlimit:4;"
         d="M 0.464844 95.976563 C 0.464844 92.457031 7.210938 81.898438 13.371094 77.9375 C 19.53125 73.976563 40.613281 69.472656 45.757813 68.285156 C 51.476563 66.964844 58.542969 65.175781 64.675781 65.203125 C 72.730469 65.242188 79.511719 65.476563 83.597656 70.925781 C 86.238281 74.445313 89.316406 75.324219 91.515625 81.484375 C 93.714844 87.644531 91.078125 93.804688 86.238281 98.203125 C 81.398438 102.605469 60.554688 112.777344 48.835938 114.925781 C 36.984375 117.097656 11.90625 114.898438 5.714844 109.644531 C -0.195313 104.625 0.464844 100.890625 0.464844 95.976563 Z M 4.496094 176.726563 C 6.257813 173.644531 10.363281 165.726563 15.351563 161.328125 C 22.59375 154.933594 29.136719 152.085938 38.378906 149.007813 C 47.617188 145.925781 47.585938 147.109375 55.976563 148.125 C 60.066406 148.621094 62.425781 151.640625 62.578125 153.847656 C 62.835938 157.566406 62.441406 159.984375 63.898438 164.847656 C 65.140625 168.996094 67.859375 168.367188 66.976563 177.605469 C 66.675781 180.789063 64.273438 185.425781 61.699219 187.285156 C 53.777344 193.007813 45.511719 193.886719 36.175781 193.886719 C 26.9375 193.886719 21.863281 193.816406 13.738281 192.566406 C 8.015625 191.6875 5.964844 192.714844 3.175781 189.046875 C 0.4375 185.441406 2.738281 179.804688 4.496094 176.726563 Z M 4.496094 176.726563 "
         id="path22" />
    </g>
    <path
       style="fill:none;stroke-width:0.88;stroke-linecap:round;stroke-linejoin:round;stroke:rgb(92.155457%,9.803772%,13.725281%);stroke-opacity:1;stroke-miterlimit:4;"
       d="M 96.96875 58.871094 C 91.691406 62.683594 90.808594 68.257813 95.945313 73.539063 C 102.015625 79.785156 108.066406 84.015625 113.105469 79.699219 C 117.210938 76.175781 116.625 69.578125 112.222656 65.617188 C 112.222656 65.617188 102.929688 54.566406 96.96875 58.871094 Z M 110.097656 145.046875 C 108.324219 143.78125 104.929688 139.140625 95.136719 140.644531 C 83.699219 142.40625 76.21875 143.285156 69.175781 149.445313 C 64.070313 153.917969 64.472656 159.972656 64.335938 159.566406 C 65.253906 162.316406 64.535156 164.8125 67.417969 169.246094 C 69.324219 172.179688 68.25 174.769531 80.617188 173.644531 C 90.296875 172.765625 96.015625 173.207031 105.699219 168.367188 C 110.246094 166.09375 116.058594 160.21875 115.816406 153.40625 C 115.671875 149.300781 110.097656 145.046875 110.097656 145.046875 Z M 110.097656 145.046875 "
       id="path26" />
    <path
       style=" stroke:none;fill-rule:nonzero;fill:rgb(12.940979%,11.764526%,11.764526%);fill-opacity:1;"
       d="M 133.839844 81.667969 L 131.496094 81.667969 L 131.496094 81.824219 C 131.917969 81.855469 132.214844 81.886719 132.214844 82.199219 C 132.214844 82.386719 132.136719 82.652344 132.089844 82.792969 L 130.886719 87.074219 C 130.839844 87.261719 130.746094 87.574219 130.433594 87.574219 C 130.199219 87.574219 130.105469 87.449219 130.105469 87.214844 C 130.105469 87.121094 130.121094 87.042969 130.121094 86.980469 C 130.121094 86.761719 129.917969 86.558594 129.683594 86.558594 C 129.417969 86.558594 129.246094 86.761719 129.246094 87.058594 C 129.246094 87.621094 129.808594 87.871094 130.292969 87.871094 C 131.511719 87.871094 131.871094 86.902344 132.136719 85.933594 L 133.089844 82.496094 C 133.246094 81.902344 133.371094 81.886719 133.839844 81.824219 Z M 133.839844 81.667969 "
       id="path28" />
    <path
       style=" stroke:none;fill-rule:nonzero;fill:rgb(12.940979%,11.764526%,11.764526%);fill-opacity:1;"
       d="M 134.351563 87.472656 C 134.570313 86.925781 134.992188 86.441406 135.335938 86.441406 C 135.476563 86.441406 135.539063 86.566406 135.539063 86.691406 C 135.539063 86.738281 135.507813 87.488281 134.242188 87.738281 Z M 135.617188 88.347656 C 135.304688 88.597656 135.054688 88.816406 134.726563 88.816406 C 134.460938 88.816406 134.132813 88.675781 134.132813 88.253906 C 134.132813 88.128906 134.164063 88.003906 134.195313 87.878906 L 134.367188 87.847656 C 135.367188 87.707031 135.945313 87.207031 135.945313 86.722656 C 135.945313 86.457031 135.757813 86.300781 135.445313 86.300781 C 134.570313 86.300781 133.601563 87.332031 133.601563 88.222656 C 133.601563 88.613281 133.804688 89.082031 134.445313 89.082031 C 135.070313 89.082031 135.617188 88.519531 135.695313 88.425781 Z M 135.617188 88.347656 "
       id="path30" />
    <path
       style=" stroke:none;fill-rule:nonzero;fill:rgb(12.940979%,11.764526%,11.764526%);fill-opacity:1;"
       d="M 143.359375 84.136719 L 138.703125 84.136719 L 138.703125 84.746094 L 143.359375 84.746094 Z M 143.359375 85.980469 L 138.703125 85.980469 L 138.703125 86.589844 L 143.359375 86.589844 Z M 143.359375 85.980469 "
       id="path32" />
    <path
       style=" stroke:none;fill-rule:nonzero;fill:rgb(12.940979%,11.764526%,11.764526%);fill-opacity:1;"
       d="M 148.5625 86.558594 C 148.109375 87.152344 147.90625 87.402344 147.6875 87.402344 C 147.546875 87.402344 147.546875 87.277344 147.546875 87.214844 C 147.546875 87.121094 147.609375 86.871094 147.640625 86.777344 L 149.03125 81.433594 L 148.984375 81.386719 C 148.5 81.496094 148.015625 81.589844 147.546875 81.636719 L 147.546875 81.792969 C 147.78125 81.777344 148.171875 81.777344 148.171875 82.027344 C 148.171875 82.214844 146.828125 87.027344 146.828125 87.230469 C 146.828125 87.480469 146.875 87.808594 147.28125 87.808594 C 147.84375 87.808594 148.203125 87.355469 148.671875 86.652344 Z M 148.5625 86.558594 "
       id="path34" />
    <path
       style=" stroke:none;fill-rule:nonzero;fill:rgb(12.940979%,11.764526%,11.764526%);fill-opacity:1;"
       d="M 153.304688 86.683594 C 152.898438 87.089844 152.710938 87.324219 152.570313 87.324219 C 152.492188 87.324219 152.445313 87.261719 152.445313 87.199219 C 152.445313 86.917969 153.289063 83.761719 153.320313 83.652344 L 153.257813 83.621094 L 152.695313 83.699219 L 152.664063 83.714844 L 152.570313 84.121094 L 152.554688 84.121094 C 152.523438 83.871094 152.210938 83.621094 151.820313 83.621094 C 150.585938 83.621094 149.179688 85.355469 149.179688 86.714844 C 149.179688 86.980469 149.210938 87.808594 150.132813 87.808594 C 150.679688 87.808594 151.179688 87.527344 151.945313 86.402344 L 151.960938 86.417969 C 151.804688 86.980469 151.773438 87.183594 151.773438 87.386719 C 151.773438 87.558594 151.773438 87.792969 152.148438 87.792969 C 152.554688 87.792969 152.867188 87.464844 153.414063 86.777344 Z M 149.960938 86.699219 C 149.960938 85.855469 150.789063 83.824219 151.867188 83.824219 C 152.132813 83.824219 152.398438 84.011719 152.398438 84.449219 C 152.398438 85.355469 151.492188 87.355469 150.507813 87.355469 C 150.257813 87.355469 149.960938 87.183594 149.960938 86.699219 Z M 149.960938 86.699219 "
       id="path36" />
    <path
       style=" stroke:none;fill-rule:nonzero;fill:rgb(12.940979%,11.764526%,11.764526%);fill-opacity:1;"
       d="M 154.769531 87.699219 C 155.144531 86.464844 155.269531 86.058594 155.613281 85.386719 C 155.691406 85.246094 156.253906 84.230469 156.535156 84.230469 C 156.753906 84.230469 156.613281 84.558594 157.019531 84.558594 C 157.113281 84.558594 157.441406 84.558594 157.441406 84.074219 C 157.441406 83.761719 157.222656 83.621094 157.003906 83.621094 C 156.425781 83.621094 155.722656 84.714844 155.410156 85.324219 L 155.347656 85.496094 L 155.332031 85.480469 L 155.785156 83.652344 L 155.753906 83.621094 C 155.332031 83.699219 154.785156 83.808594 154.316406 83.871094 L 154.316406 84.027344 C 154.425781 84.011719 154.519531 83.980469 154.628906 83.980469 C 154.910156 83.980469 154.957031 84.136719 154.957031 84.261719 C 154.957031 84.339844 154.894531 84.667969 154.800781 84.996094 L 154.066406 87.699219 Z M 154.769531 87.699219 "
       id="path38" />
    <path
       style=" stroke:none;fill-rule:nonzero;fill:rgb(12.940979%,11.764526%,11.764526%);fill-opacity:1;"
       d="M 161.253906 83.964844 L 160.691406 83.964844 C 160.628906 83.964844 160.535156 83.871094 160.378906 83.792969 C 160.222656 83.714844 159.988281 83.621094 159.613281 83.621094 C 158.847656 83.621094 157.785156 84.167969 157.785156 85.199219 C 157.785156 85.839844 158.175781 86.058594 158.503906 86.199219 C 158.191406 86.417969 157.800781 86.683594 157.800781 86.964844 C 157.800781 87.152344 157.941406 87.261719 158.050781 87.339844 C 157.269531 87.839844 156.972656 88.042969 156.972656 88.574219 C 156.972656 89.089844 157.457031 89.605469 158.457031 89.605469 C 159.722656 89.605469 160.457031 89.042969 160.457031 88.246094 C 160.457031 86.980469 158.488281 87.121094 158.488281 86.636719 C 158.488281 86.511719 158.691406 86.261719 158.816406 86.261719 C 158.941406 86.261719 159.066406 86.308594 159.191406 86.308594 C 160.003906 86.308594 160.878906 85.542969 160.878906 84.871094 C 160.878906 84.683594 160.847656 84.496094 160.785156 84.324219 L 161.253906 84.324219 Z M 159.894531 88.527344 C 159.894531 88.980469 159.441406 89.402344 158.613281 89.402344 C 158.472656 89.402344 157.472656 89.355469 157.472656 88.496094 C 157.472656 88.292969 157.472656 88.042969 157.847656 87.714844 C 157.878906 87.683594 158.191406 87.433594 158.253906 87.433594 C 158.332031 87.433594 159.222656 87.777344 159.394531 87.871094 C 159.566406 87.949219 159.894531 88.105469 159.894531 88.527344 Z M 160.144531 84.464844 C 160.144531 85.230469 159.675781 86.105469 159.066406 86.105469 C 158.660156 86.105469 158.503906 85.808594 158.503906 85.386719 C 158.503906 84.777344 158.910156 83.824219 159.613281 83.824219 C 160.003906 83.824219 160.144531 84.105469 160.144531 84.464844 Z M 160.144531 84.464844 "
       id="path40" />
    <path
       style=" stroke:none;fill-rule:nonzero;fill:rgb(12.940979%,11.764526%,11.764526%);fill-opacity:1;"
       d="M 162.921875 85.371094 C 163.265625 84.542969 163.890625 83.839844 164.390625 83.839844 C 164.625 83.839844 164.703125 84.011719 164.703125 84.214844 C 164.703125 84.277344 164.671875 85.386719 162.765625 85.777344 Z M 164.828125 86.699219 C 164.359375 87.074219 163.96875 87.386719 163.46875 87.386719 C 163.078125 87.386719 162.609375 87.167969 162.609375 86.542969 C 162.609375 86.355469 162.65625 86.167969 162.703125 85.980469 L 162.953125 85.949219 C 164.453125 85.730469 165.3125 84.980469 165.3125 84.261719 C 165.3125 83.855469 165.03125 83.621094 164.5625 83.621094 C 163.265625 83.621094 161.796875 85.183594 161.796875 86.496094 C 161.796875 87.074219 162.09375 87.808594 163.0625 87.808594 C 163.984375 87.808594 164.828125 86.949219 164.9375 86.808594 Z M 164.828125 86.699219 "
       id="path42" />
    <path
       style=" stroke:none;fill-rule:nonzero;fill:rgb(12.940979%,11.764526%,11.764526%);fill-opacity:1;"
       d="M 133.839844 157.644531 L 131.496094 157.644531 L 131.496094 157.800781 C 131.917969 157.832031 132.214844 157.863281 132.214844 158.175781 C 132.214844 158.363281 132.136719 158.628906 132.089844 158.769531 L 130.886719 163.050781 C 130.839844 163.238281 130.746094 163.550781 130.433594 163.550781 C 130.199219 163.550781 130.105469 163.425781 130.105469 163.191406 C 130.105469 163.097656 130.121094 163.019531 130.121094 162.957031 C 130.121094 162.738281 129.917969 162.535156 129.683594 162.535156 C 129.417969 162.535156 129.246094 162.738281 129.246094 163.035156 C 129.246094 163.597656 129.808594 163.847656 130.292969 163.847656 C 131.511719 163.847656 131.871094 162.878906 132.136719 161.910156 L 133.089844 158.472656 C 133.246094 157.878906 133.371094 157.863281 133.839844 157.800781 Z M 133.839844 157.644531 "
       id="path44" />
    <path
       style=" stroke:none;fill-rule:nonzero;fill:rgb(12.940979%,11.764526%,11.764526%);fill-opacity:1;"
       d="M 134.351563 163.449219 C 134.570313 162.902344 134.992188 162.417969 135.335938 162.417969 C 135.476563 162.417969 135.539063 162.542969 135.539063 162.667969 C 135.539063 162.714844 135.507813 163.464844 134.242188 163.714844 Z M 135.617188 164.324219 C 135.304688 164.574219 135.054688 164.792969 134.726563 164.792969 C 134.460938 164.792969 134.132813 164.652344 134.132813 164.230469 C 134.132813 164.105469 134.164063 163.980469 134.195313 163.855469 L 134.367188 163.824219 C 135.367188 163.683594 135.945313 163.183594 135.945313 162.699219 C 135.945313 162.433594 135.757813 162.277344 135.445313 162.277344 C 134.570313 162.277344 133.601563 163.308594 133.601563 164.199219 C 133.601563 164.589844 133.804688 165.058594 134.445313 165.058594 C 135.070313 165.058594 135.617188 164.496094 135.695313 164.402344 Z M 135.617188 164.324219 "
       id="path46" />
    <path
       style=" stroke:none;fill-rule:nonzero;fill:rgb(12.940979%,11.764526%,11.764526%);fill-opacity:1;"
       d="M 143.359375 160.113281 L 138.703125 160.113281 L 138.703125 160.722656 L 143.359375 160.722656 Z M 143.359375 161.957031 L 138.703125 161.957031 L 138.703125 162.566406 L 143.359375 162.566406 Z M 143.359375 161.957031 "
       id="path48" />
    <path
       style=" stroke:none;fill-rule:nonzero;fill:rgb(12.940979%,11.764526%,11.764526%);fill-opacity:1;"
       d="M 146.78125 162.332031 L 146.59375 163.800781 L 146.75 163.800781 C 146.796875 163.691406 146.84375 163.597656 146.96875 163.597656 C 147.234375 163.597656 147.609375 163.785156 147.890625 163.785156 C 148.40625 163.785156 149.265625 163.550781 149.265625 162.535156 C 149.265625 161.753906 148.140625 160.925781 148.140625 160.347656 C 148.140625 159.894531 148.421875 159.816406 148.625 159.816406 C 149.234375 159.816406 149.453125 160.347656 149.5 160.878906 L 149.640625 160.878906 L 149.828125 159.597656 L 149.703125 159.597656 C 149.65625 159.675781 149.609375 159.753906 149.4375 159.753906 C 149.171875 159.753906 148.984375 159.597656 148.5625 159.597656 C 147.59375 159.597656 147.453125 160.347656 147.453125 160.628906 C 147.453125 161.332031 148.5625 162.222656 148.5625 162.832031 C 148.5625 163.144531 148.40625 163.582031 147.890625 163.582031 C 147.140625 163.582031 147 162.738281 146.9375 162.332031 Z M 146.78125 162.332031 "
       id="path50" />
    <path
       style=" stroke:none;fill-rule:nonzero;fill:rgb(12.940979%,11.764526%,11.764526%);fill-opacity:1;"
       d="M 156.40625 162.597656 C 156.0625 163.035156 155.8125 163.332031 155.640625 163.332031 C 155.53125 163.332031 155.5 163.300781 155.5 163.144531 C 155.5 163.003906 156.25 160.535156 156.25 160.222656 C 156.25 159.847656 156.046875 159.597656 155.703125 159.597656 C 155.09375 159.597656 154.34375 160.410156 153.703125 161.488281 L 153.6875 161.472656 C 153.8125 161.097656 154.03125 160.332031 154.03125 160.207031 C 154.03125 159.816406 153.828125 159.597656 153.484375 159.597656 C 152.703125 159.597656 151.75 161.035156 151.484375 161.488281 L 151.453125 161.472656 L 151.984375 159.628906 L 151.953125 159.597656 C 151.453125 159.707031 150.96875 159.800781 150.46875 159.894531 L 150.46875 160.035156 C 150.921875 160.035156 151.0625 160.050781 151.0625 160.253906 C 151.0625 160.457031 150.3125 163.066406 150.15625 163.675781 L 150.84375 163.675781 C 151.1875 162.550781 151.375 161.941406 151.75 161.378906 C 152 161.019531 152.703125 160.082031 153.109375 160.082031 C 153.203125 160.082031 153.3125 160.082031 153.3125 160.332031 C 153.3125 160.503906 152.671875 162.785156 152.4375 163.675781 L 153.125 163.675781 C 153.40625 162.628906 153.5625 162.050781 154 161.347656 C 154.28125 160.894531 154.953125 160.082031 155.328125 160.082031 C 155.4375 160.082031 155.515625 160.160156 155.515625 160.300781 C 155.515625 160.488281 154.796875 163.050781 154.796875 163.300781 C 154.796875 163.441406 154.796875 163.753906 155.1875 163.753906 C 155.703125 163.753906 156.171875 163.238281 156.5 162.769531 L 156.546875 162.707031 Z M 156.40625 162.597656 "
       id="path52" />
    <path
       style=" stroke:none;fill-rule:nonzero;fill:rgb(12.940979%,11.764526%,11.764526%);fill-opacity:1;"
       d="M 161 162.660156 C 160.59375 163.066406 160.40625 163.300781 160.265625 163.300781 C 160.1875 163.300781 160.140625 163.238281 160.140625 163.175781 C 160.140625 162.894531 160.984375 159.738281 161.015625 159.628906 L 160.953125 159.597656 L 160.390625 159.675781 L 160.359375 159.691406 L 160.265625 160.097656 L 160.25 160.097656 C 160.21875 159.847656 159.90625 159.597656 159.515625 159.597656 C 158.28125 159.597656 156.875 161.332031 156.875 162.691406 C 156.875 162.957031 156.90625 163.785156 157.828125 163.785156 C 158.375 163.785156 158.875 163.503906 159.640625 162.378906 L 159.65625 162.394531 C 159.5 162.957031 159.46875 163.160156 159.46875 163.363281 C 159.46875 163.535156 159.46875 163.769531 159.84375 163.769531 C 160.25 163.769531 160.5625 163.441406 161.109375 162.753906 Z M 157.65625 162.675781 C 157.65625 161.832031 158.484375 159.800781 159.5625 159.800781 C 159.828125 159.800781 160.09375 159.988281 160.09375 160.425781 C 160.09375 161.332031 159.1875 163.332031 158.203125 163.332031 C 157.953125 163.332031 157.65625 163.160156 157.65625 162.675781 Z M 157.65625 162.675781 "
       id="path54" />
    <path
       style=" stroke:none;fill-rule:nonzero;fill:rgb(12.940979%,11.764526%,11.764526%);fill-opacity:1;"
       d="M 163.449219 162.535156 C 162.996094 163.128906 162.792969 163.378906 162.574219 163.378906 C 162.433594 163.378906 162.433594 163.253906 162.433594 163.191406 C 162.433594 163.097656 162.496094 162.847656 162.527344 162.753906 L 163.917969 157.410156 L 163.871094 157.363281 C 163.386719 157.472656 162.902344 157.566406 162.433594 157.613281 L 162.433594 157.769531 C 162.667969 157.753906 163.058594 157.753906 163.058594 158.003906 C 163.058594 158.191406 161.714844 163.003906 161.714844 163.207031 C 161.714844 163.457031 161.761719 163.785156 162.167969 163.785156 C 162.730469 163.785156 163.089844 163.332031 163.558594 162.628906 Z M 163.449219 162.535156 "
       id="path56" />
    <g
       clip-path="url(#clip2)"
       clip-rule="nonzero"
       id="g60">
      <path
         style=" stroke:none;fill-rule:nonzero;fill:rgb(12.940979%,11.764526%,11.764526%);fill-opacity:1;"
         d="M 166.019531 162.535156 C 165.566406 163.128906 165.363281 163.378906 165.144531 163.378906 C 165.003906 163.378906 165.003906 163.253906 165.003906 163.191406 C 165.003906 163.097656 165.066406 162.847656 165.097656 162.753906 L 166.488281 157.410156 L 166.441406 157.363281 C 165.957031 157.472656 165.472656 157.566406 165.003906 157.613281 L 165.003906 157.769531 C 165.238281 157.753906 165.628906 157.753906 165.628906 158.003906 C 165.628906 158.191406 164.285156 163.003906 164.285156 163.207031 C 164.285156 163.457031 164.332031 163.785156 164.738281 163.785156 C 165.300781 163.785156 165.660156 163.332031 166.128906 162.628906 Z M 166.019531 162.535156 "
         id="path58" />
    </g>
    <g
       clip-path="url(#clip3)"
       clip-rule="nonzero"
       id="g64">
      <path
         style="fill:none;stroke-width:1.76;stroke-linecap:round;stroke-linejoin:round;stroke:rgb(0%,0%,0%);stroke-opacity:1;stroke-miterlimit:4;"
         d="M 22.808594 108.492187 L 22.808594 108.492187 M 37.742188 94.769531 L 37.742188 94.769531 M 20.03125 121.640625 L 20.03125 121.640625 M 74.539063 95.503906 L 74.539063 95.503906 M 14.320313 109.828125 L 14.320313 109.828125 M 25.554688 119.738281 L 25.554688 119.738281 M 52.378906 110.484375 L 52.378906 110.484375 M 47.367188 112.453125 L 47.367188 112.453125 M 49.371094 92.199219 L 49.371094 92.199219 M 53.648438 100.96875 L 53.648438 100.96875 M 35.039063 98.828125 L 35.039063 98.828125 M 65.417969 98.210937 L 65.417969 98.210937 M 67.183594 105.808594 L 67.183594 105.808594 M 34.851563 109.992187 L 34.851563 109.992187 M 45.660156 102.3125 L 45.660156 102.3125 M 51.066406 110.277344 L 51.066406 110.277344 M 92.894531 83.167969 L 92.894531 83.167969 M 95.355469 82.136719 L 95.355469 82.136719 M 100.957031 87.105469 L 100.957031 87.105469 M 107.464844 92.25 L 107.464844 92.25 M 99.976563 81.460937 L 99.976563 81.460937 M 107.300781 92.167969 L 107.300781 92.167969 M 59.597656 33.035156 L 59.597656 33.035156 M 48.570313 27 L 48.570313 27 M 66.902344 18.871094 L 66.902344 18.871094 M 50.6875 32.8125 L 50.6875 32.8125 M 44.148438 29.851562 L 44.148438 29.851562 M 34.378906 34.769531 L 34.378906 34.769531 M 26.40625 25.855469 L 26.40625 25.855469 M 30.664063 38.851562 L 30.664063 38.851562 M 14.777344 35.113281 L 14.777344 35.113281 M 21.039063 35.445312 L 21.039063 35.445312 M 71.699219 8.039062 L 71.699219 8.039062 M 28.847656 30.558594 L 28.847656 30.558594 M 41.992188 20.410156 L 41.992188 20.410156 M 40.945313 41.503906 L 40.945313 41.503906 M 56.503906 18.765625 L 56.503906 18.765625 M 50.277344 36.78125 L 50.277344 36.78125 M 48.824219 26.78125 L 48.824219 26.78125 M 54.957031 23.390625 L 54.957031 23.390625 M 67.964844 26.382812 L 67.964844 26.382812 M 49.5625 18.535156 L 49.5625 18.535156 M 55.515625 14.425781 L 55.515625 14.425781 M 53.839844 33.871094 L 53.839844 33.871094 M 40.515625 21.820312 L 40.515625 21.820312 M 43.492188 34.824219 L 43.492188 34.824219 M 15.152344 23.417969 L 15.152344 23.417969 M 41.433594 29.277344 L 41.433594 29.277344 M 39.332031 28.722656 L 39.332031 28.722656 M 48.992188 19.789062 L 48.992188 19.789062 M 43.464844 18.78125 L 43.464844 18.78125 M 37.640625 43.777344 L 37.640625 43.777344 M 63.046875 23.023437 L 63.046875 23.023437 M 45.121094 22.445312 L 45.121094 22.445312 M 27.777344 20.359375 L 27.777344 20.359375 M 38.691406 13.9375 L 38.691406 13.9375 M 32.878906 23.558594 L 32.878906 23.558594 M 81.324219 21.992187 L 81.324219 21.992187 M 61.441406 15.761719 L 61.441406 15.761719 M 40.792969 19.636719 L 40.792969 19.636719 M 49.40625 16.351562 L 49.40625 16.351562 M 8.417969 25.484375 L 8.417969 25.484375 M 68.085938 14.753906 L 68.085938 14.753906 M 70.855469 16.398437 L 70.855469 16.398437 "
         transform="matrix(1,0,0,1,0,0.000000000000028422)"
         id="path62" />
    </g>
    <path
       style="fill:none;stroke-width:1.76;stroke-linecap:round;stroke-linejoin:round;stroke:rgb(0%,0%,0%);stroke-opacity:1;stroke-miterlimit:4;"
       d="M 52.878906 7.503906 L 52.878906 7.503906 M 33.277344 19.691406 L 33.277344 19.691406 M 47.808594 6.710937 L 47.808594 6.710937 M 40.902344 21.621094 L 40.902344 21.621094 M 43.363281 21.835937 L 43.363281 21.835937 M 34.753906 25.949219 L 34.753906 25.949219 M 33.160156 30.96875 L 33.160156 30.96875 M 43.699219 28.160156 L 43.699219 28.160156 M 56.621094 20.464844 L 56.621094 20.464844 M 34.144531 27.5625 L 34.144531 27.5625 M 37.355469 17.984375 L 37.355469 17.984375 M 63.199219 13.984375 L 63.199219 13.984375 M 29.933594 34.363281 L 29.933594 34.363281 M 74.808594 18.832031 L 74.808594 18.832031 M 47.277344 15.585937 L 47.277344 15.585937 M 16.429688 20.640625 L 16.429688 20.640625 M 36.347656 16.261719 L 36.347656 16.261719 M 32.417969 18.773437 L 32.417969 18.773437 M 23.730469 32.8125 L 23.730469 32.8125 M 40.480469 24.375 L 40.480469 24.375 M 2.21875 40.4375 L 2.21875 40.4375 M 51.539063 25.742187 L 51.539063 25.742187 M 22.3125 27.910156 L 22.3125 27.910156 M 37.246094 14.1875 L 37.246094 14.1875 M 19.535156 41.058594 L 19.535156 41.058594 M 74.042969 14.921875 L 74.042969 14.921875 M 13.824219 29.246094 L 13.824219 29.246094 M 25.058594 39.15625 L 25.058594 39.15625 M 51.882813 29.902344 L 51.882813 29.902344 M 46.875 31.871094 L 46.875 31.871094 M 48.878906 11.617187 L 48.878906 11.617187 M 53.152344 20.386719 L 53.152344 20.386719 M 34.542969 18.25 L 34.542969 18.25 M 64.921875 17.628906 L 64.921875 17.628906 M 66.691406 25.226562 L 66.691406 25.226562 M 34.359375 29.410156 L 34.359375 29.410156 M 45.167969 21.730469 L 45.167969 21.730469 M 50.574219 29.699219 L 50.574219 29.699219 M 92.398438 2.585937 L 92.398438 2.585937 M 94.859375 1.554687 L 94.859375 1.554687 M 100.460938 6.523437 L 100.460938 6.523437 M 106.96875 11.667969 L 106.96875 11.667969 M 99.484375 0.878906 L 99.484375 0.878906 M 106.804688 11.585937 L 106.804688 11.585937 "
       transform="matrix(1,0,0,1,0,0.000000000000028422)"
       id="path66" />
    <g
       clip-path="url(#clip4)"
       clip-rule="nonzero"
       id="g70">
      <path
         style=" stroke:none;fill-rule:nonzero;fill:rgb(100%,100%,100%);fill-opacity:1;"
         d="M -9.949219 61.839844 L 142.332031 61.839844 L 142.332031 151.238281 L -9.949219 151.238281 Z M -9.949219 61.839844 "
         id="path68" />
    </g>
  </g>
</svg>
