<?xml version="1.0" encoding="UTF-8" standalone="no"?>
<svg
   xmlns:dc="http://purl.org/dc/elements/1.1/"
   xmlns:cc="http://creativecommons.org/ns#"
   xmlns:rdf="http://www.w3.org/1999/02/22-rdf-syntax-ns#"
   xmlns:svg="http://www.w3.org/2000/svg"
   xmlns="http://www.w3.org/2000/svg"
   xmlns:sodipodi="http://sodipodi.sourceforge.net/DTD/sodipodi-0.dtd"
   xmlns:inkscape="http://www.inkscape.org/namespaces/inkscape"
   width="94.323433pt"
   height="94.323433pt"
   viewBox="0 0 94.323433 94.323433"
   version="1.2"
   id="svg7"
   sodipodi:docname="unclear_clustering.svg"
   inkscape:version="0.92.4 (5da689c313, 2019-01-14)">
  <metadata
     id="metadata13">
    <rdf:RDF>
      <cc:Work
         rdf:about="">
        <dc:format>image/svg+xml</dc:format>
        <dc:type
           rdf:resource="http://purl.org/dc/dcmitype/StillImage" />
        <dc:title></dc:title>
      </cc:Work>
    </rdf:RDF>
  </metadata>
  <defs
     id="defs11" />
  <sodipodi:namedview
     pagecolor="#ffffff"
     bordercolor="#666666"
     borderopacity="1"
     objecttolerance="10"
     gridtolerance="10"
     guidetolerance="10"
     inkscape:pageopacity="0"
     inkscape:pageshadow="2"
     inkscape:window-width="640"
     inkscape:window-height="480"
     id="namedview9"
     showgrid="false"
     inkscape:zoom="1.876522"
     inkscape:cx="62.882289"
     inkscape:cy="62.882289"
     inkscape:window-x="0"
     inkscape:window-y="0"
     inkscape:window-maximized="0"
     inkscape:current-layer="svg7" />
  <g
     id="surface40">
    <path
       style="fill:none;stroke-width:1.893;stroke-linecap:round;stroke-linejoin:round;stroke:rgb(12.940979%,11.764526%,11.764526%);stroke-opacity:1;stroke-miterlimit:4;"
       d="M 4.636719 85.777344 L 4.636719 85.777344 M 4.960938 85.777344 L 4.960938 85.777344 M 10.175781 88.058594 L 10.175781 88.058594 M 5.9375 89.683594 L 5.9375 89.683594 M 7.894531 82.84375 L 7.894531 82.84375 M 3.003906 80.234375 L 3.003906 80.234375 M 5.9375 76.976563 L 5.9375 76.976563 M 11.804688 80.796875 L 11.804688 80.796875 M 15.0625 85.777344 L 15.0625 85.777344 M 14.410156 89.359375 L 14.410156 89.359375 M 14.734375 89.359375 L 14.734375 89.359375 M 19.015625 89.035156 L 19.015625 89.035156 M 14.085938 83.496094 L 14.085938 83.496094 M 12.550781 82.925781 L 12.550781 82.925781 M 8.21875 78.605469 L 8.21875 78.605469 M 16.039063 72.78125 L 16.039063 72.78125 M 11.476563 68.503906 L 11.476563 68.503906 M 6.917969 62.964844 L 6.917969 62.964844 M 6.917969 63.289063 L 6.917969 63.289063 M 17.996094 64.59375 L 17.996094 64.59375 M 17.667969 64.59375 L 17.667969 64.59375 M 11.476563 59.054688 L 11.476563 59.054688 M 25.164063 73.066406 L 25.164063 73.066406 M 25.164063 73.394531 L 25.164063 73.394531 M 23.535156 78.605469 L 23.535156 78.605469 M 28.097656 84.144531 L 28.097656 84.144531 M 34.289063 79.257813 L 34.289063 79.257813 M 34.289063 78.933594 L 34.289063 78.933594 M 25.164063 64.921875 L 25.164063 64.921875 M 18.648438 56.121094 L 18.648438 56.121094 M 6.589844 54.492188 L 6.589844 54.492188 M 35.59375 69.15625 L 35.59375 69.15625 M 38.789063 80.5625 L 38.789063 80.5625 M 36.898438 87.078125 L 36.898438 87.078125 M 31.03125 61.335938 L 31.03125 61.335938 M 25.492188 56.121094 L 25.492188 56.121094 M 9.847656 81.210938 L 9.847656 81.210938 M 34.089844 51.105469 L 34.089844 51.105469 M 32.984375 22.558594 L 32.984375 22.558594 M 13.433594 12.128906 L 13.433594 12.128906 M 49.605469 15.710938 L 49.605469 15.710938 M 55.144531 32.984375 L 55.144531 32.984375 M 59.378906 62.3125 L 59.378906 62.3125 M 62.640625 81.210938 L 62.640625 81.210938 M 83.824219 71.761719 L 83.824219 71.761719 M 68.179688 43.414063 L 68.179688 43.414063 M 68.832031 43.414063 L 68.832031 43.414063 M 69.484375 14.410156 L 69.484375 14.410156 M 36.246094 4.960938 L 36.246094 4.960938 M 85.125 52.863281 L 85.125 52.863281 "
       id="path2" />
    <path
       style="fill:none;stroke-width:0.8;stroke-linecap:round;stroke-linejoin:round;stroke:rgb(56.077576%,56.077576%,56.077576%);stroke-opacity:1;stroke-miterlimit:4;"
       d="M 0.398438 0.398438 L 93.921875 0.398438 L 93.921875 93.921875 L 0.398438 93.921875 Z M 0.398438 0.398438 "
       id="path4" />
  </g>
</svg>
