<?xml version="1.0" encoding="UTF-8" standalone="no"?>
<svg
   xmlns:dc="http://purl.org/dc/elements/1.1/"
   xmlns:cc="http://creativecommons.org/ns#"
   xmlns:rdf="http://www.w3.org/1999/02/22-rdf-syntax-ns#"
   xmlns:svg="http://www.w3.org/2000/svg"
   xmlns="http://www.w3.org/2000/svg"
   xmlns:sodipodi="http://sodipodi.sourceforge.net/DTD/sodipodi-0.dtd"
   xmlns:inkscape="http://www.inkscape.org/namespaces/inkscape"
   width="158.022736pt"
   height="128.764832pt"
   viewBox="0 0 158.022736 128.764832"
   version="1.2"
   id="svg124"
   sodipodi:docname="linear_machines_02.svg"
   inkscape:version="0.92.4 (5da689c313, 2019-01-14)">
  <metadata
     id="metadata128">
    <rdf:RDF>
      <cc:Work
         rdf:about="">
        <dc:format>image/svg+xml</dc:format>
        <dc:type
           rdf:resource="http://purl.org/dc/dcmitype/StillImage" />
        <dc:title></dc:title>
      </cc:Work>
    </rdf:RDF>
  </metadata>
  <sodipodi:namedview
     pagecolor="#ffffff"
     bordercolor="#666666"
     borderopacity="1"
     objecttolerance="10"
     gridtolerance="10"
     guidetolerance="10"
     inkscape:pageopacity="0"
     inkscape:pageshadow="2"
     inkscape:window-width="661"
     inkscape:window-height="480"
     id="namedview126"
     showgrid="false"
     inkscape:zoom="1.3745989"
     inkscape:cx="105.34849"
     inkscape:cy="85.843221"
     inkscape:window-x="0"
     inkscape:window-y="0"
     inkscape:window-maximized="0"
     inkscape:current-layer="svg124" />
  <defs
     id="defs11">
    <clipPath
       id="clip1">
      <path
         d="M 154 7 L 158.023438 7 L 158.023438 12 L 154 12 Z M 154 7 "
         id="path2" />
    </clipPath>
    <clipPath
       id="clip2">
      <path
         d="M 150 124 L 153 124 L 153 128.765625 L 150 128.765625 Z M 150 124 "
         id="path5" />
    </clipPath>
    <clipPath
       id="clip3">
      <path
         d="M 153 124 L 157 124 L 157 128.765625 L 153 128.765625 Z M 153 124 "
         id="path8" />
    </clipPath>
  </defs>
  <g
     id="surface48">
    <path
       style="fill:none;stroke-width:0.802;stroke-linecap:butt;stroke-linejoin:miter;stroke:rgb(0%,0%,0%);stroke-opacity:1;stroke-miterlimit:4;"
       d="M 63.015625 55 L 62.074219 92.46875 L 110.390625 93.253906 L 111.117188 50.195313 Z M 63.015625 55 "
       id="path13" />
    <path
       style=" stroke:none;fill-rule:nonzero;fill:rgb(78.038025%,78.038025%,78.038025%);fill-opacity:1;"
       d="M 31.957031 60.257813 C 31.957031 60.257813 24.519531 58.945313 21.136719 63.253906 C 19.902344 64.484375 23.453125 68.3125 23.453125 70.160156 C 22.835938 73.855469 16.535156 74.804688 18.0625 78.222656 C 20.046875 82.652344 20.371094 79.988281 23.066406 80.546875 C 25.757813 81.109375 26.027344 87.863281 30.0625 88.492188 C 34.097656 89.125 34.0625 85.414063 40.21875 85.109375 C 41.757813 84.800781 43.605469 84.492188 45.144531 84.492188 C 46.683594 84.492188 48.222656 83.570313 48.835938 82.03125 C 50.992188 75.875 46.957031 69.148438 44.375 66.792969 C 41.792969 64.4375 39.351563 62.15625 37.449219 60.792969 C 35.378906 59.304688 33.621094 60.550781 31.957031 60.257813 "
       id="path15" />
    <path
       style=" stroke:none;fill-rule:nonzero;fill:rgb(100%,27.058411%,27.058411%);fill-opacity:1;"
       d="M 123.332031 75.699219 C 124.339844 83.742188 127.1875 82.929688 133.445313 83.613281 C 133.445313 83.613281 140.578125 86.441406 147.035156 83.394531 C 149.84375 82.070313 145.355469 79.1875 146.425781 75.757813 C 147.296875 72.972656 155.660156 69.292969 154.738281 66.523438 C 153.199219 63.136719 147.125 61.660156 143.035156 60.003906 C 138.941406 58.34375 135.652344 58.828125 130.726563 60.367188 C 131.316406 60.183594 126.410156 61.542969 126.410156 61.542969 C 123.195313 61.710938 120.285156 64.066406 119.949219 66.773438 C 119.949219 66.773438 119.949219 66.773438 120.5625 69.238281 C 121.515625 72.566406 122.710938 70.730469 123.332031 75.699219 "
       id="path17" />
    <path
       style=" stroke:none;fill-rule:nonzero;fill:rgb(100%,86.273193%,86.273193%);fill-opacity:1;"
       d="M 100.871094 60.367188 C 99.449219 59.515625 98.410156 58.828125 96.871094 58.523438 C 88.867188 57.597656 81.871094 60.042969 81.871094 60.042969 C 77.640625 60.207031 75.457031 59.949219 74.496094 62.511719 C 73.535156 65.078125 75.285156 66.328125 75.863281 67.753906 C 79.703125 77.257813 70.726563 70.402344 71.320313 84.070313 C 71.628906 84.992188 71.9375 86.222656 72.859375 86.222656 C 79.941406 87.761719 82.015625 83.992188 89.710938 79.683594 C 92.945313 77.871094 100.5625 84.992188 103.640625 82.839844 C 105.796875 81.605469 96.714844 75.757813 97.023438 73.910156 C 97.875 67.53125 106.605469 69.035156 105.488281 63.445313 C 105.179688 61.90625 102.410156 61.292969 100.871094 60.367188 "
       id="path19" />
    <path
       style=" stroke:none;fill-rule:nonzero;fill:rgb(58.03833%,58.03833%,58.03833%);fill-opacity:1;"
       d="M 86.878906 98.054688 C 81.460938 98.394531 76.753906 100.957031 76.414063 103.75 C 75.703125 109.636719 69.40625 113.484375 86.214844 115.085938 C 86.214844 115.085938 88.417969 115.292969 93.960938 113.449219 C 94.882813 113.140625 101.65625 109.136719 98.269531 105.75 C 96.613281 104.09375 95.5 104.210938 94.574219 102.367188 C 94.265625 101.75 86.878906 98.054688 86.878906 98.054688 "
       id="path21" />
    <path
       style="fill:none;stroke-width:0.802;stroke-linecap:butt;stroke-linejoin:miter;stroke:rgb(0%,0%,0%);stroke-opacity:1;stroke-miterlimit:4;"
       d="M 12.0625 109.328125 L 62.074219 92.46875 "
       id="path23" />
    <path
       style=" stroke:none;fill-rule:nonzero;fill:rgb(12.940979%,11.764526%,11.764526%);fill-opacity:1;"
       d="M 31.265625 38.6875 C 33.1875 38.6875 33.609375 39.171875 33.609375 39.765625 C 33.609375 40.296875 33.234375 41.484375 31.53125 41.546875 C 31.03125 41.578125 30.703125 41.921875 30.703125 42.03125 C 30.703125 42.078125 30.734375 42.078125 30.75 42.078125 C 31.0625 42.125 31.28125 42.171875 31.890625 43.5 C 32.359375 44.515625 32.625 44.9375 33.1875 44.9375 C 34.359375 44.9375 35.515625 43.75 35.515625 43.53125 C 35.515625 43.46875 35.453125 43.46875 35.40625 43.46875 C 35.234375 43.46875 34.875 43.65625 34.71875 43.859375 C 34.53125 44.109375 34.328125 44.390625 33.828125 44.390625 C 33.359375 44.390625 33.03125 43.703125 32.71875 43.015625 C 32.40625 42.375 32.28125 42.125 32.078125 41.875 C 33.625 41.296875 34.453125 40.28125 34.453125 39.34375 C 34.453125 38.140625 32.84375 38.140625 31.296875 38.140625 C 30.234375 38.140625 29.59375 38.140625 28.671875 38.609375 C 27.484375 39.203125 27.40625 39.9375 27.40625 39.9375 C 27.40625 39.96875 27.421875 40.015625 27.5 40.015625 C 27.671875 40.015625 28.15625 39.796875 28.25 39.546875 C 28.375 39.171875 28.515625 38.734375 29.921875 38.6875 C 29.828125 39.8125 29.640625 41.796875 28.4375 44.6875 C 28.375 44.828125 28.375 44.859375 28.375 44.875 C 28.375 44.921875 28.4375 44.9375 28.46875 44.9375 C 28.671875 44.9375 29.0625 44.703125 29.1875 44.53125 C 29.203125 44.5 29.390625 44.046875 29.703125 43.21875 C 30.171875 41.875 30.5625 40.3125 30.734375 38.6875 Z M 31.265625 38.6875 "
       id="path25" />
    <path
       style=" stroke:none;fill-rule:nonzero;fill:rgb(12.940979%,11.764526%,11.764526%);fill-opacity:1;"
       d="M 35.84375 47.121094 L 37.1875 47.121094 L 37.1875 47.042969 C 36.953125 47.058594 36.78125 47.042969 36.78125 46.886719 C 36.78125 46.808594 36.84375 46.636719 36.859375 46.542969 L 37.546875 44.042969 C 37.578125 43.964844 37.59375 43.871094 37.5625 43.871094 C 37.515625 43.871094 36.84375 44.011719 36.625 44.042969 L 36.625 44.121094 L 36.90625 44.121094 C 36.9375 44.121094 37.078125 44.121094 37.078125 44.261719 C 37.078125 44.308594 37.0625 44.371094 37.046875 44.433594 L 36.390625 46.792969 C 36.328125 47.011719 36.125 47.027344 35.84375 47.058594 Z M 35.84375 47.121094 "
       id="path27" />
    <path
       style="fill:none;stroke-width:0.802;stroke-linecap:butt;stroke-linejoin:miter;stroke:rgb(0%,0%,0%);stroke-opacity:1;stroke-miterlimit:4;"
       d="M 63.015625 55 L 26.222656 11.445313 M 111.117188 50.195313 L 149.035156 11.445313 M 110.390625 93.253906 L 142.261719 119.488281 "
       id="path29" />
    <path
       style=" stroke:none;fill-rule:nonzero;fill:rgb(100%,38.822937%,38.822937%);fill-opacity:1;"
       d="M 102.664063 34.378906 C 101.546875 27.316406 103.09375 30.269531 103.09375 24.757813 C 103.09375 24.757813 101.507813 19.757813 98.429688 18.988281 C 89.582031 17.832031 85.335938 18.019531 85.335938 18.019531 C 77.9375 18.339844 71.425781 24.644531 70.867188 32.03125 C 70.867188 32.03125 70.34375 38.996094 80.347656 41.304688 C 87.65625 42.84375 91.550781 42.074219 98.863281 40.917969 C 98.863281 40.917969 101.203125 41.128906 102.277344 38.996094 C 103.351563 36.863281 102.664063 34.378906 102.664063 34.378906 "
       id="path31" />
    <path
       style=" stroke:none;fill-rule:nonzero;fill:rgb(0%,0%,0%);fill-opacity:1;"
       d="M 127.453125 45.902344 C 129.375 45.902344 129.796875 46.386719 129.796875 46.980469 C 129.796875 47.511719 129.421875 48.699219 127.71875 48.761719 C 127.21875 48.792969 126.890625 49.136719 126.890625 49.246094 C 126.890625 49.292969 126.921875 49.292969 126.9375 49.292969 C 127.25 49.339844 127.46875 49.386719 128.078125 50.714844 C 128.546875 51.730469 128.8125 52.152344 129.375 52.152344 C 130.546875 52.152344 131.703125 50.964844 131.703125 50.746094 C 131.703125 50.683594 131.640625 50.683594 131.59375 50.683594 C 131.421875 50.683594 131.0625 50.871094 130.90625 51.074219 C 130.71875 51.324219 130.515625 51.605469 130.015625 51.605469 C 129.546875 51.605469 129.21875 50.917969 128.90625 50.230469 C 128.59375 49.589844 128.46875 49.339844 128.265625 49.089844 C 129.8125 48.511719 130.640625 47.496094 130.640625 46.558594 C 130.640625 45.355469 129.03125 45.355469 127.484375 45.355469 C 126.421875 45.355469 125.78125 45.355469 124.859375 45.824219 C 123.671875 46.417969 123.59375 47.152344 123.59375 47.152344 C 123.59375 47.183594 123.609375 47.230469 123.6875 47.230469 C 123.859375 47.230469 124.34375 47.011719 124.4375 46.761719 C 124.5625 46.386719 124.703125 45.949219 126.109375 45.902344 C 126.015625 47.027344 125.828125 49.011719 124.625 51.902344 C 124.5625 52.042969 124.5625 52.074219 124.5625 52.089844 C 124.5625 52.136719 124.625 52.152344 124.65625 52.152344 C 124.859375 52.152344 125.25 51.917969 125.375 51.746094 C 125.390625 51.714844 125.578125 51.261719 125.890625 50.433594 C 126.359375 49.089844 126.75 47.527344 126.921875 45.902344 Z M 127.453125 45.902344 "
       id="path33" />
    <path
       style=" stroke:none;fill-rule:nonzero;fill:rgb(0%,0%,0%);fill-opacity:1;"
       d="M 133.71875 53.664063 C 133.640625 53.835938 133.5625 53.976563 133.25 53.976563 L 132.328125 53.976563 L 132.328125 53.945313 L 133.25 53.023438 C 133.859375 52.429688 133.96875 52.210938 133.96875 51.882813 C 133.96875 51.523438 133.703125 51.085938 133.1875 51.085938 C 133.078125 51.085938 132.4375 51.101563 132.1875 51.851563 L 132.28125 51.882813 C 132.34375 51.773438 132.53125 51.429688 132.96875 51.429688 C 133.34375 51.429688 133.5625 51.726563 133.5625 52.023438 C 133.5625 52.179688 133.53125 52.460938 132.859375 53.179688 L 131.859375 54.257813 L 131.859375 54.335938 L 133.5625 54.335938 L 133.796875 53.695313 Z M 133.71875 53.664063 "
       id="path35" />
    <path
       style=" stroke:none;fill-rule:nonzero;fill:rgb(12.940979%,11.764526%,11.764526%);fill-opacity:1;"
       d="M 68.460938 63.457031 C 70.382813 63.457031 70.804688 63.941406 70.804688 64.535156 C 70.804688 65.066406 70.429688 66.253906 68.726563 66.316406 C 68.226563 66.347656 67.898438 66.691406 67.898438 66.800781 C 67.898438 66.847656 67.929688 66.847656 67.945313 66.847656 C 68.257813 66.894531 68.476563 66.941406 69.085938 68.269531 C 69.554688 69.285156 69.820313 69.707031 70.382813 69.707031 C 71.554688 69.707031 72.710938 68.519531 72.710938 68.300781 C 72.710938 68.238281 72.648438 68.238281 72.601563 68.238281 C 72.429688 68.238281 72.070313 68.425781 71.914063 68.628906 C 71.726563 68.878906 71.523438 69.160156 71.023438 69.160156 C 70.554688 69.160156 70.226563 68.472656 69.914063 67.785156 C 69.601563 67.144531 69.476563 66.894531 69.273438 66.644531 C 70.820313 66.066406 71.648438 65.050781 71.648438 64.113281 C 71.648438 62.910156 70.039063 62.910156 68.492188 62.910156 C 67.429688 62.910156 66.789063 62.910156 65.867188 63.378906 C 64.679688 63.972656 64.601563 64.707031 64.601563 64.707031 C 64.601563 64.738281 64.617188 64.785156 64.695313 64.785156 C 64.867188 64.785156 65.351563 64.566406 65.445313 64.316406 C 65.570313 63.941406 65.710938 63.503906 67.117188 63.457031 C 67.023438 64.582031 66.835938 66.566406 65.632813 69.457031 C 65.570313 69.597656 65.570313 69.628906 65.570313 69.644531 C 65.570313 69.691406 65.632813 69.707031 65.664063 69.707031 C 65.867188 69.707031 66.257813 69.472656 66.382813 69.300781 C 66.398438 69.269531 66.585938 68.816406 66.898438 67.988281 C 67.367188 66.644531 67.757813 65.082031 67.929688 63.457031 Z M 68.460938 63.457031 "
       id="path37" />
    <path
       style=" stroke:none;fill-rule:nonzero;fill:rgb(12.940979%,11.764526%,11.764526%);fill-opacity:1;"
       d="M 73.660156 69.15625 C 73.722656 69.0625 73.894531 68.84375 74.207031 68.84375 C 74.378906 68.84375 74.613281 68.953125 74.613281 69.28125 C 74.613281 69.796875 73.957031 70.015625 73.472656 70.078125 L 73.472656 70.15625 C 73.941406 70.125 74.363281 70.296875 74.363281 70.96875 C 74.363281 71.578125 73.910156 71.734375 73.753906 71.734375 C 73.472656 71.734375 73.316406 71.453125 73.097656 71.453125 C 72.925781 71.453125 72.878906 71.546875 72.878906 71.640625 C 72.878906 71.859375 73.144531 71.921875 73.425781 71.921875 C 74.316406 71.921875 74.753906 71.234375 74.753906 70.703125 C 74.753906 70.171875 74.410156 70.03125 74.285156 69.96875 L 74.285156 69.953125 C 74.800781 69.765625 75.035156 69.609375 75.035156 69.234375 C 75.035156 68.84375 74.691406 68.640625 74.332031 68.640625 C 74.066406 68.640625 73.707031 68.84375 73.582031 69.140625 Z M 73.660156 69.15625 "
       id="path39" />
    <path
       style=" stroke:none;fill-rule:nonzero;fill:rgb(12.940979%,11.764526%,11.764526%);fill-opacity:1;"
       d="M 62.269531 101.492188 C 64.191406 101.492188 64.613281 101.976563 64.613281 102.570313 C 64.613281 103.101563 64.238281 104.289063 62.535156 104.351563 C 62.035156 104.382813 61.707031 104.726563 61.707031 104.835938 C 61.707031 104.882813 61.738281 104.882813 61.753906 104.882813 C 62.066406 104.929688 62.285156 104.976563 62.894531 106.304688 C 63.363281 107.320313 63.628906 107.742188 64.191406 107.742188 C 65.363281 107.742188 66.519531 106.554688 66.519531 106.335938 C 66.519531 106.273438 66.457031 106.273438 66.410156 106.273438 C 66.238281 106.273438 65.878906 106.460938 65.722656 106.664063 C 65.535156 106.914063 65.332031 107.195313 64.832031 107.195313 C 64.363281 107.195313 64.035156 106.507813 63.722656 105.820313 C 63.410156 105.179688 63.285156 104.929688 63.082031 104.679688 C 64.628906 104.101563 65.457031 103.085938 65.457031 102.148438 C 65.457031 100.945313 63.847656 100.945313 62.300781 100.945313 C 61.238281 100.945313 60.597656 100.945313 59.675781 101.414063 C 58.488281 102.007813 58.410156 102.742188 58.410156 102.742188 C 58.410156 102.773438 58.425781 102.820313 58.503906 102.820313 C 58.675781 102.820313 59.160156 102.601563 59.253906 102.351563 C 59.378906 101.976563 59.519531 101.539063 60.925781 101.492188 C 60.832031 102.617188 60.644531 104.601563 59.441406 107.492188 C 59.378906 107.632813 59.378906 107.664063 59.378906 107.679688 C 59.378906 107.726563 59.441406 107.742188 59.472656 107.742188 C 59.675781 107.742188 60.066406 107.507813 60.191406 107.335938 C 60.207031 107.304688 60.394531 106.851563 60.707031 106.023438 C 61.175781 104.679688 61.566406 103.117188 61.738281 101.492188 Z M 62.269531 101.492188 "
       id="path41" />
    <path
       style=" stroke:none;fill-rule:nonzero;fill:rgb(12.940979%,11.764526%,11.764526%);fill-opacity:1;"
       d="M 67.941406 108.773438 L 66.925781 108.773438 L 66.925781 108.757813 L 68.394531 107.226563 L 68.410156 107.226563 Z M 68.800781 108.773438 L 68.332031 108.773438 L 68.925781 106.679688 L 68.722656 106.679688 L 66.707031 108.757813 L 66.613281 109.070313 L 67.878906 109.070313 L 67.644531 109.929688 L 68.019531 109.929688 L 68.238281 109.085938 L 68.722656 109.085938 Z M 68.800781 108.773438 "
       id="path43" />
    <path
       style=" stroke:none;fill-rule:nonzero;fill:rgb(12.940979%,11.764526%,11.764526%);fill-opacity:1;"
       d="M 62.765625 21.773438 C 64.6875 21.773438 65.109375 22.257813 65.109375 22.851563 C 65.109375 23.382813 64.734375 24.570313 63.03125 24.632813 C 62.53125 24.664063 62.203125 25.007813 62.203125 25.117188 C 62.203125 25.164063 62.234375 25.164063 62.25 25.164063 C 62.5625 25.210938 62.78125 25.257813 63.390625 26.585938 C 63.859375 27.601563 64.125 28.023438 64.6875 28.023438 C 65.859375 28.023438 67.015625 26.835938 67.015625 26.617188 C 67.015625 26.554688 66.953125 26.554688 66.90625 26.554688 C 66.734375 26.554688 66.375 26.742188 66.21875 26.945313 C 66.03125 27.195313 65.828125 27.476563 65.328125 27.476563 C 64.859375 27.476563 64.53125 26.789063 64.21875 26.101563 C 63.90625 25.460938 63.78125 25.210938 63.578125 24.960938 C 65.125 24.382813 65.953125 23.367188 65.953125 22.429688 C 65.953125 21.226563 64.34375 21.226563 62.796875 21.226563 C 61.734375 21.226563 61.09375 21.226563 60.171875 21.695313 C 58.984375 22.289063 58.90625 23.023438 58.90625 23.023438 C 58.90625 23.054688 58.921875 23.101563 59 23.101563 C 59.171875 23.101563 59.65625 22.882813 59.75 22.632813 C 59.875 22.257813 60.015625 21.820313 61.421875 21.773438 C 61.328125 22.898438 61.140625 24.882813 59.9375 27.773438 C 59.875 27.914063 59.875 27.945313 59.875 27.960938 C 59.875 28.007813 59.9375 28.023438 59.96875 28.023438 C 60.171875 28.023438 60.5625 27.789063 60.6875 27.617188 C 60.703125 27.585938 60.890625 27.132813 61.203125 26.304688 C 61.671875 24.960938 62.0625 23.398438 62.234375 21.773438 Z M 62.765625 21.773438 "
       id="path45" />
    <path
       style=" stroke:none;fill-rule:nonzero;fill:rgb(12.940979%,11.764526%,11.764526%);fill-opacity:1;"
       d="M 68.25 27.347656 L 69.359375 27.347656 L 69.46875 27.003906 L 68.234375 27.003906 L 67.734375 28.050781 L 67.734375 28.128906 C 68.296875 28.238281 68.796875 28.347656 68.796875 29.082031 C 68.796875 29.503906 68.4375 30.035156 67.96875 30.035156 C 67.703125 30.035156 67.59375 29.769531 67.375 29.769531 C 67.28125 29.769531 67.1875 29.832031 67.1875 29.972656 C 67.1875 30.113281 67.328125 30.238281 67.671875 30.238281 C 68.609375 30.238281 69.125 29.503906 69.125 28.878906 C 69.125 28.238281 68.6875 27.894531 68.0625 27.769531 Z M 68.25 27.347656 "
       id="path47" />
    <path
       style=" stroke:none;fill-rule:nonzero;fill:rgb(12.940979%,11.764526%,11.764526%);fill-opacity:1;"
       d="M 33.875 74.527344 C 34.15625 73.949219 34.265625 73.449219 34.265625 73.324219 C 34.265625 73.089844 34.140625 73.058594 34.0625 73.058594 C 33.671875 73.058594 33.578125 73.996094 33.53125 74.402344 C 33.515625 74.574219 32.9375 75.261719 32.28125 75.261719 C 31.53125 75.261719 31.40625 74.511719 31.40625 74.152344 C 31.40625 73.777344 31.53125 73.027344 32.234375 72.027344 C 32.328125 71.902344 32.328125 71.886719 32.328125 71.855469 C 32.328125 71.777344 32.265625 71.730469 32.203125 71.730469 C 32.15625 71.730469 32.109375 71.746094 32.078125 71.792969 C 31.546875 72.496094 31.078125 73.496094 31.078125 74.558594 C 31.078125 75.496094 31.46875 75.980469 32.15625 75.980469 C 32.734375 75.980469 33.21875 75.589844 33.546875 75.105469 C 33.625 75.527344 33.859375 75.980469 34.484375 75.980469 C 36.171875 75.980469 36.921875 73.308594 36.921875 72.324219 C 36.921875 71.652344 36.5625 71.605469 36.484375 71.605469 C 36.265625 71.605469 36 71.824219 36 72.089844 C 36 72.152344 36 72.246094 36.125 72.355469 C 36.34375 72.542969 36.46875 72.839844 36.46875 73.183594 C 36.46875 74.011719 35.625 75.261719 34.609375 75.261719 C 34.109375 75.261719 33.9375 74.871094 33.875 74.527344 Z M 33.875 74.527344 "
       id="path49" />
    <path
       style=" stroke:none;fill-rule:nonzero;fill:rgb(12.940979%,11.764526%,11.764526%);fill-opacity:1;"
       d="M 37.402344 78.273438 L 39.183594 78.273438 L 39.183594 78.179688 C 38.871094 78.179688 38.636719 78.164063 38.636719 77.960938 C 38.636719 77.867188 38.730469 77.632813 38.761719 77.492188 L 39.667969 74.179688 C 39.699219 74.070313 39.730469 73.945313 39.683594 73.945313 C 39.636719 73.945313 38.746094 74.132813 38.449219 74.179688 L 38.449219 74.289063 L 38.808594 74.273438 C 38.871094 74.273438 39.042969 74.273438 39.042969 74.476563 C 39.042969 74.523438 39.027344 74.617188 39.011719 74.679688 L 38.121094 77.835938 C 38.042969 78.132813 37.777344 78.148438 37.402344 78.179688 Z M 37.402344 78.273438 "
       id="path51" />
    <path
       style=" stroke:none;fill-rule:nonzero;fill:rgb(12.940979%,11.764526%,11.764526%);fill-opacity:1;"
       d="M 87.421875 30.601563 C 87.703125 30.023438 87.8125 29.523438 87.8125 29.398438 C 87.8125 29.164063 87.6875 29.132813 87.609375 29.132813 C 87.21875 29.132813 87.125 30.070313 87.078125 30.476563 C 87.0625 30.648438 86.484375 31.335938 85.828125 31.335938 C 85.078125 31.335938 84.953125 30.585938 84.953125 30.226563 C 84.953125 29.851563 85.078125 29.101563 85.78125 28.101563 C 85.875 27.976563 85.875 27.960938 85.875 27.929688 C 85.875 27.851563 85.8125 27.804688 85.75 27.804688 C 85.703125 27.804688 85.65625 27.820313 85.625 27.867188 C 85.09375 28.570313 84.625 29.570313 84.625 30.632813 C 84.625 31.570313 85.015625 32.054688 85.703125 32.054688 C 86.28125 32.054688 86.765625 31.664063 87.09375 31.179688 C 87.171875 31.601563 87.40625 32.054688 88.03125 32.054688 C 89.71875 32.054688 90.46875 29.382813 90.46875 28.398438 C 90.46875 27.726563 90.109375 27.679688 90.03125 27.679688 C 89.8125 27.679688 89.546875 27.898438 89.546875 28.164063 C 89.546875 28.226563 89.546875 28.320313 89.671875 28.429688 C 89.890625 28.617188 90.015625 28.914063 90.015625 29.257813 C 90.015625 30.085938 89.171875 31.335938 88.15625 31.335938 C 87.65625 31.335938 87.484375 30.945313 87.421875 30.601563 Z M 87.421875 30.601563 "
       id="path53" />
    <path
       style=" stroke:none;fill-rule:nonzero;fill:rgb(12.940979%,11.764526%,11.764526%);fill-opacity:1;"
       d="M 92.164063 30.535156 L 93.632813 30.535156 L 93.773438 30.082031 L 92.132813 30.082031 L 91.476563 31.472656 L 91.476563 31.566406 C 92.210938 31.738281 92.882813 31.878906 92.882813 32.847656 C 92.882813 33.410156 92.414063 34.128906 91.773438 34.128906 C 91.429688 34.128906 91.273438 33.769531 90.992188 33.769531 C 90.867188 33.769531 90.726563 33.847656 90.726563 34.035156 C 90.726563 34.207031 90.914063 34.394531 91.382813 34.394531 C 92.632813 34.394531 93.320313 33.410156 93.320313 32.582031 C 93.320313 31.722656 92.742188 31.269531 91.914063 31.097656 Z M 92.164063 30.535156 "
       id="path55" />
    <path
       style=" stroke:none;fill-rule:nonzero;fill:rgb(12.940979%,11.764526%,11.764526%);fill-opacity:1;"
       d="M 134.554688 70.679688 C 134.835938 70.101563 134.945313 69.601563 134.945313 69.476563 C 134.945313 69.242188 134.820313 69.210938 134.742188 69.210938 C 134.351563 69.210938 134.257813 70.148438 134.210938 70.554688 C 134.195313 70.726563 133.617188 71.414063 132.960938 71.414063 C 132.210938 71.414063 132.085938 70.664063 132.085938 70.304688 C 132.085938 69.929688 132.210938 69.179688 132.914063 68.179688 C 133.007813 68.054688 133.007813 68.039063 133.007813 68.007813 C 133.007813 67.929688 132.945313 67.882813 132.882813 67.882813 C 132.835938 67.882813 132.789063 67.898438 132.757813 67.945313 C 132.226563 68.648438 131.757813 69.648438 131.757813 70.710938 C 131.757813 71.648438 132.148438 72.132813 132.835938 72.132813 C 133.414063 72.132813 133.898438 71.742188 134.226563 71.257813 C 134.304688 71.679688 134.539063 72.132813 135.164063 72.132813 C 136.851563 72.132813 137.601563 69.460938 137.601563 68.476563 C 137.601563 67.804688 137.242188 67.757813 137.164063 67.757813 C 136.945313 67.757813 136.679688 67.976563 136.679688 68.242188 C 136.679688 68.304688 136.679688 68.398438 136.804688 68.507813 C 137.023438 68.695313 137.148438 68.992188 137.148438 69.335938 C 137.148438 70.164063 136.304688 71.414063 135.289063 71.414063 C 134.789063 71.414063 134.617188 71.023438 134.554688 70.679688 Z M 134.554688 70.679688 "
       id="path57" />
    <path
       style=" stroke:none;fill-rule:nonzero;fill:rgb(12.940979%,11.764526%,11.764526%);fill-opacity:1;"
       d="M 140.328125 73.535156 C 140.21875 73.769531 140.109375 73.941406 139.6875 73.941406 L 138.484375 73.941406 L 138.484375 73.910156 L 139.703125 72.675781 C 140.5 71.878906 140.65625 71.597656 140.65625 71.160156 C 140.65625 70.691406 140.296875 70.097656 139.625 70.097656 C 139.46875 70.097656 138.625 70.113281 138.28125 71.113281 L 138.40625 71.160156 C 138.5 71.003906 138.75 70.566406 139.328125 70.566406 C 139.8125 70.566406 140.109375 70.941406 140.109375 71.347656 C 140.109375 71.550781 140.078125 71.925781 139.1875 72.878906 L 137.84375 74.316406 L 137.84375 74.425781 L 140.109375 74.425781 L 140.4375 73.582031 Z M 140.328125 73.535156 "
       id="path59" />
    <path
       style=" stroke:none;fill-rule:nonzero;fill:rgb(12.940979%,11.764526%,11.764526%);fill-opacity:1;"
       d="M 87.101563 70.679688 C 87.382813 70.101563 87.492188 69.601563 87.492188 69.476563 C 87.492188 69.242188 87.367188 69.210938 87.289063 69.210938 C 86.898438 69.210938 86.804688 70.148438 86.757813 70.554688 C 86.742188 70.726563 86.164063 71.414063 85.507813 71.414063 C 84.757813 71.414063 84.632813 70.664063 84.632813 70.304688 C 84.632813 69.929688 84.757813 69.179688 85.460938 68.179688 C 85.554688 68.054688 85.554688 68.039063 85.554688 68.007813 C 85.554688 67.929688 85.492188 67.882813 85.429688 67.882813 C 85.382813 67.882813 85.335938 67.898438 85.304688 67.945313 C 84.773438 68.648438 84.304688 69.648438 84.304688 70.710938 C 84.304688 71.648438 84.695313 72.132813 85.382813 72.132813 C 85.960938 72.132813 86.445313 71.742188 86.773438 71.257813 C 86.851563 71.679688 87.085938 72.132813 87.710938 72.132813 C 89.398438 72.132813 90.148438 69.460938 90.148438 68.476563 C 90.148438 67.804688 89.789063 67.757813 89.710938 67.757813 C 89.492188 67.757813 89.226563 67.976563 89.226563 68.242188 C 89.226563 68.304688 89.226563 68.398438 89.351563 68.507813 C 89.570313 68.695313 89.695313 68.992188 89.695313 69.335938 C 89.695313 70.164063 88.851563 71.414063 87.835938 71.414063 C 87.335938 71.414063 87.164063 71.023438 87.101563 70.679688 Z M 87.101563 70.679688 "
       id="path61" />
    <path
       style=" stroke:none;fill-rule:nonzero;fill:rgb(12.940979%,11.764526%,11.764526%);fill-opacity:1;"
       d="M 91.453125 70.800781 C 91.546875 70.660156 91.765625 70.363281 92.171875 70.363281 C 92.421875 70.363281 92.734375 70.519531 92.734375 70.941406 C 92.734375 71.644531 91.84375 71.925781 91.203125 72.003906 L 91.203125 72.113281 C 91.828125 72.066406 92.390625 72.300781 92.390625 73.207031 C 92.390625 74.003906 91.796875 74.222656 91.578125 74.222656 C 91.21875 74.222656 91 73.847656 90.703125 73.847656 C 90.46875 73.847656 90.40625 73.957031 90.40625 74.097656 C 90.40625 74.378906 90.765625 74.472656 91.140625 74.472656 C 92.328125 74.472656 92.90625 73.566406 92.90625 72.847656 C 92.90625 72.144531 92.46875 71.957031 92.296875 71.878906 L 92.296875 71.863281 C 92.96875 71.613281 93.296875 71.378906 93.296875 70.894531 C 93.296875 70.363281 92.828125 70.097656 92.359375 70.097656 C 91.984375 70.097656 91.515625 70.378906 91.34375 70.753906 Z M 91.453125 70.800781 "
       id="path63" />
    <path
       style=" stroke:none;fill-rule:nonzero;fill:rgb(12.940979%,11.764526%,11.764526%);fill-opacity:1;"
       d="M 84.855469 107.230469 C 85.136719 106.652344 85.246094 106.152344 85.246094 106.027344 C 85.246094 105.792969 85.121094 105.761719 85.042969 105.761719 C 84.652344 105.761719 84.558594 106.699219 84.511719 107.105469 C 84.496094 107.277344 83.917969 107.964844 83.261719 107.964844 C 82.511719 107.964844 82.386719 107.214844 82.386719 106.855469 C 82.386719 106.480469 82.511719 105.730469 83.214844 104.730469 C 83.308594 104.605469 83.308594 104.589844 83.308594 104.558594 C 83.308594 104.480469 83.246094 104.433594 83.183594 104.433594 C 83.136719 104.433594 83.089844 104.449219 83.058594 104.496094 C 82.527344 105.199219 82.058594 106.199219 82.058594 107.261719 C 82.058594 108.199219 82.449219 108.683594 83.136719 108.683594 C 83.714844 108.683594 84.199219 108.292969 84.527344 107.808594 C 84.605469 108.230469 84.839844 108.683594 85.464844 108.683594 C 87.152344 108.683594 87.902344 106.011719 87.902344 105.027344 C 87.902344 104.355469 87.542969 104.308594 87.464844 104.308594 C 87.246094 104.308594 86.980469 104.527344 86.980469 104.792969 C 86.980469 104.855469 86.980469 104.949219 87.105469 105.058594 C 87.324219 105.246094 87.449219 105.542969 87.449219 105.886719 C 87.449219 106.714844 86.605469 107.964844 85.589844 107.964844 C 85.089844 107.964844 84.917969 107.574219 84.855469 107.230469 Z M 84.855469 107.230469 "
       id="path65" />
    <path
       style=" stroke:none;fill-rule:nonzero;fill:rgb(12.940979%,11.764526%,11.764526%);fill-opacity:1;"
       d="M 89.851563 109.433594 L 88.492188 109.433594 L 88.492188 109.417969 L 90.429688 107.371094 L 90.460938 107.371094 Z M 90.976563 109.433594 L 90.367188 109.433594 L 91.132813 106.652344 L 90.882813 106.652344 L 88.210938 109.417969 L 88.070313 109.839844 L 89.757813 109.839844 L 89.445313 110.980469 L 89.945313 110.980469 L 90.242188 109.855469 L 90.882813 109.855469 Z M 90.976563 109.433594 "
       id="path67" />
    <path
       style=" stroke:none;fill-rule:nonzero;fill:rgb(0%,0%,0%);fill-opacity:1;"
       d="M 25.136719 0 L 22.355469 0 L 22.355469 0.1875 C 22.839844 0.234375 23.152344 0.265625 23.152344 0.671875 C 23.152344 0.859375 23.089844 1.140625 23.027344 1.359375 L 22.511719 3.203125 L 19.308594 3.203125 L 19.917969 1.015625 C 20.121094 0.265625 20.652344 0.21875 21.042969 0.1875 L 21.042969 0 L 17.980469 0 L 17.980469 0.1875 C 18.542969 0.234375 18.855469 0.28125 18.855469 0.671875 C 18.855469 0.859375 18.792969 1.140625 18.730469 1.359375 L 17.339844 6.3125 C 17.152344 7.015625 16.980469 7.046875 16.433594 7.15625 L 16.433594 7.328125 L 19.199219 7.328125 L 19.199219 7.15625 C 18.621094 7.0625 18.292969 7.03125 18.433594 6.40625 L 19.167969 3.671875 L 22.371094 3.671875 L 21.636719 6.3125 C 21.433594 7.03125 21.027344 7.078125 20.511719 7.15625 L 20.511719 7.328125 L 23.574219 7.328125 L 23.574219 7.15625 C 22.964844 7.09375 22.558594 7.0625 22.730469 6.40625 L 24.214844 1.015625 C 24.402344 0.3125 24.589844 0.28125 25.136719 0.1875 Z M 25.136719 0 "
       id="path69" />
    <path
       style=" stroke:none;fill-rule:nonzero;fill:rgb(12.940979%,11.764526%,11.764526%);fill-opacity:1;"
       d="M 24.941406 9.734375 L 26.722656 9.734375 L 26.722656 9.640625 C 26.410156 9.640625 26.175781 9.625 26.175781 9.421875 C 26.175781 9.328125 26.269531 9.09375 26.300781 8.953125 L 27.207031 5.640625 C 27.238281 5.53125 27.269531 5.40625 27.222656 5.40625 C 27.175781 5.40625 26.285156 5.59375 25.988281 5.640625 L 25.988281 5.75 L 26.347656 5.734375 C 26.410156 5.734375 26.582031 5.734375 26.582031 5.9375 C 26.582031 5.984375 26.566406 6.078125 26.550781 6.140625 L 25.660156 9.296875 C 25.582031 9.59375 25.316406 9.609375 24.941406 9.640625 Z M 24.941406 9.734375 "
       id="path71" />
    <path
       style=" stroke:none;fill-rule:nonzero;fill:rgb(12.940979%,11.764526%,11.764526%);fill-opacity:1;"
       d="M 29.367188 5.921875 L 30.835938 5.921875 L 30.976563 5.46875 L 29.335938 5.46875 L 28.679688 6.859375 L 28.679688 6.953125 C 29.414063 7.125 30.085938 7.265625 30.085938 8.234375 C 30.085938 8.796875 29.617188 9.515625 28.976563 9.515625 C 28.632813 9.515625 28.476563 9.15625 28.195313 9.15625 C 28.070313 9.15625 27.929688 9.234375 27.929688 9.421875 C 27.929688 9.59375 28.117188 9.78125 28.585938 9.78125 C 29.835938 9.78125 30.523438 8.796875 30.523438 7.96875 C 30.523438 7.109375 29.945313 6.65625 29.117188 6.484375 Z M 29.367188 5.921875 "
       id="path73" />
    <path
       style=" stroke:none;fill-rule:nonzero;fill:rgb(0%,0%,0%);fill-opacity:1;"
       d="M 152.183594 2.003906 L 149.402344 2.003906 L 149.402344 2.191406 C 149.886719 2.238281 150.199219 2.269531 150.199219 2.675781 C 150.199219 2.863281 150.136719 3.144531 150.074219 3.363281 L 149.558594 5.207031 L 146.355469 5.207031 L 146.964844 3.019531 C 147.167969 2.269531 147.699219 2.222656 148.089844 2.191406 L 148.089844 2.003906 L 145.027344 2.003906 L 145.027344 2.191406 C 145.589844 2.238281 145.902344 2.285156 145.902344 2.675781 C 145.902344 2.863281 145.839844 3.144531 145.777344 3.363281 L 144.386719 8.316406 C 144.199219 9.019531 144.027344 9.050781 143.480469 9.160156 L 143.480469 9.332031 L 146.246094 9.332031 L 146.246094 9.160156 C 145.667969 9.066406 145.339844 9.035156 145.480469 8.410156 L 146.214844 5.675781 L 149.417969 5.675781 L 148.683594 8.316406 C 148.480469 9.035156 148.074219 9.082031 147.558594 9.160156 L 147.558594 9.332031 L 150.621094 9.332031 L 150.621094 9.160156 C 150.011719 9.097656 149.605469 9.066406 149.777344 8.410156 L 151.261719 3.019531 C 151.449219 2.316406 151.636719 2.285156 152.183594 2.191406 Z M 152.183594 2.003906 "
       id="path75" />
    <path
       style=" stroke:none;fill-rule:nonzero;fill:rgb(12.940979%,11.764526%,11.764526%);fill-opacity:1;"
       d="M 154.238281 10.847656 C 154.128906 11.082031 154.019531 11.253906 153.597656 11.253906 L 152.394531 11.253906 L 152.394531 11.222656 L 153.613281 9.988281 C 154.410156 9.191406 154.566406 8.910156 154.566406 8.472656 C 154.566406 8.003906 154.207031 7.410156 153.535156 7.410156 C 153.378906 7.410156 152.535156 7.425781 152.191406 8.425781 L 152.316406 8.472656 C 152.410156 8.316406 152.660156 7.878906 153.238281 7.878906 C 153.722656 7.878906 154.019531 8.253906 154.019531 8.660156 C 154.019531 8.863281 153.988281 9.238281 153.097656 10.191406 L 151.753906 11.628906 L 151.753906 11.738281 L 154.019531 11.738281 L 154.347656 10.894531 Z M 154.238281 10.847656 "
       id="path77" />
    <g
       clip-path="url(#clip1)"
       clip-rule="nonzero"
       id="g81">
      <path
         style=" stroke:none;fill-rule:nonzero;fill:rgb(12.940979%,11.764526%,11.764526%);fill-opacity:1;"
         d="M 156.414063 7.925781 L 157.882813 7.925781 L 158.023438 7.472656 L 156.382813 7.472656 L 155.726563 8.863281 L 155.726563 8.957031 C 156.460938 9.128906 157.132813 9.269531 157.132813 10.238281 C 157.132813 10.800781 156.664063 11.519531 156.023438 11.519531 C 155.679688 11.519531 155.523438 11.160156 155.242188 11.160156 C 155.117188 11.160156 154.976563 11.238281 154.976563 11.425781 C 154.976563 11.597656 155.164063 11.785156 155.632813 11.785156 C 156.882813 11.785156 157.570313 10.800781 157.570313 9.972656 C 157.570313 9.113281 156.992188 8.660156 156.164063 8.488281 Z M 156.414063 7.925781 "
         id="path79" />
    </g>
    <path
       style=" stroke:none;fill-rule:nonzero;fill:rgb(0%,0%,0%);fill-opacity:1;"
       d="M 150.578125 119.03125 L 147.796875 119.03125 L 147.796875 119.21875 C 148.28125 119.265625 148.59375 119.296875 148.59375 119.703125 C 148.59375 119.890625 148.53125 120.171875 148.46875 120.390625 L 147.953125 122.234375 L 144.75 122.234375 L 145.359375 120.046875 C 145.5625 119.296875 146.09375 119.25 146.484375 119.21875 L 146.484375 119.03125 L 143.421875 119.03125 L 143.421875 119.21875 C 143.984375 119.265625 144.296875 119.3125 144.296875 119.703125 C 144.296875 119.890625 144.234375 120.171875 144.171875 120.390625 L 142.78125 125.34375 C 142.59375 126.046875 142.421875 126.078125 141.875 126.1875 L 141.875 126.359375 L 144.640625 126.359375 L 144.640625 126.1875 C 144.0625 126.09375 143.734375 126.0625 143.875 125.4375 L 144.609375 122.703125 L 147.8125 122.703125 L 147.078125 125.34375 C 146.875 126.0625 146.46875 126.109375 145.953125 126.1875 L 145.953125 126.359375 L 149.015625 126.359375 L 149.015625 126.1875 C 148.40625 126.125 148 126.09375 148.171875 125.4375 L 149.65625 120.046875 C 149.84375 119.34375 150.03125 119.3125 150.578125 119.21875 Z M 150.578125 119.03125 "
       id="path83" />
    <g
       clip-path="url(#clip2)"
       clip-rule="nonzero"
       id="g87">
      <path
         style=" stroke:none;fill-rule:nonzero;fill:rgb(12.940979%,11.764526%,11.764526%);fill-opacity:1;"
         d="M 152.636719 127.875 C 152.527344 128.109375 152.417969 128.28125 151.996094 128.28125 L 150.792969 128.28125 L 150.792969 128.25 L 152.011719 127.015625 C 152.808594 126.21875 152.964844 125.9375 152.964844 125.5 C 152.964844 125.03125 152.605469 124.4375 151.933594 124.4375 C 151.777344 124.4375 150.933594 124.453125 150.589844 125.453125 L 150.714844 125.5 C 150.808594 125.34375 151.058594 124.90625 151.636719 124.90625 C 152.121094 124.90625 152.417969 125.28125 152.417969 125.6875 C 152.417969 125.890625 152.386719 126.265625 151.496094 127.21875 L 150.152344 128.65625 L 150.152344 128.765625 L 152.417969 128.765625 L 152.746094 127.921875 Z M 152.636719 127.875 "
         id="path85" />
    </g>
    <g
       clip-path="url(#clip3)"
       clip-rule="nonzero"
       id="g91">
      <path
         style=" stroke:none;fill-rule:nonzero;fill:rgb(12.940979%,11.764526%,11.764526%);fill-opacity:1;"
         d="M 155.058594 127.21875 L 153.699219 127.21875 L 153.699219 127.203125 L 155.636719 125.15625 L 155.667969 125.15625 Z M 156.183594 127.21875 L 155.574219 127.21875 L 156.339844 124.4375 L 156.089844 124.4375 L 153.417969 127.203125 L 153.277344 127.625 L 154.964844 127.625 L 154.652344 128.765625 L 155.152344 128.765625 L 155.449219 127.640625 L 156.089844 127.640625 Z M 156.183594 127.21875 "
         id="path89" />
    </g>
    <path
       style=" stroke:none;fill-rule:nonzero;fill:rgb(0%,0%,0%);fill-opacity:1;"
       d="M 8.703125 107.808594 L 5.921875 107.808594 L 5.921875 107.996094 C 6.40625 108.042969 6.71875 108.074219 6.71875 108.480469 C 6.71875 108.667969 6.65625 108.949219 6.59375 109.167969 L 6.078125 111.011719 L 2.875 111.011719 L 3.484375 108.824219 C 3.6875 108.074219 4.21875 108.027344 4.609375 107.996094 L 4.609375 107.808594 L 1.546875 107.808594 L 1.546875 107.996094 C 2.109375 108.042969 2.421875 108.089844 2.421875 108.480469 C 2.421875 108.667969 2.359375 108.949219 2.296875 109.167969 L 0.90625 114.121094 C 0.71875 114.824219 0.546875 114.855469 0 114.964844 L 0 115.136719 L 2.765625 115.136719 L 2.765625 114.964844 C 2.1875 114.871094 1.859375 114.839844 2 114.214844 L 2.734375 111.480469 L 5.9375 111.480469 L 5.203125 114.121094 C 5 114.839844 4.59375 114.886719 4.078125 114.964844 L 4.078125 115.136719 L 7.140625 115.136719 L 7.140625 114.964844 C 6.53125 114.902344 6.125 114.871094 6.296875 114.214844 L 7.78125 108.824219 C 7.96875 108.121094 8.15625 108.089844 8.703125 107.996094 Z M 8.703125 107.808594 "
       id="path93" />
    <path
       style=" stroke:none;fill-rule:nonzero;fill:rgb(12.940979%,11.764526%,11.764526%);fill-opacity:1;"
       d="M 8.507813 117.542969 L 10.289063 117.542969 L 10.289063 117.449219 C 9.976563 117.449219 9.742188 117.433594 9.742188 117.230469 C 9.742188 117.136719 9.835938 116.902344 9.867188 116.761719 L 10.773438 113.449219 C 10.804688 113.339844 10.835938 113.214844 10.789063 113.214844 C 10.742188 113.214844 9.851563 113.402344 9.554688 113.449219 L 9.554688 113.558594 L 9.914063 113.542969 C 9.976563 113.542969 10.148438 113.542969 10.148438 113.746094 C 10.148438 113.792969 10.132813 113.886719 10.117188 113.949219 L 9.226563 117.105469 C 9.148438 117.402344 8.882813 117.417969 8.507813 117.449219 Z M 8.507813 117.542969 "
       id="path95" />
    <path
       style=" stroke:none;fill-rule:nonzero;fill:rgb(12.940979%,11.764526%,11.764526%);fill-opacity:1;"
       d="M 13.183594 115.996094 L 11.824219 115.996094 L 11.824219 115.980469 L 13.761719 113.933594 L 13.792969 113.933594 Z M 14.308594 115.996094 L 13.699219 115.996094 L 14.464844 113.214844 L 14.214844 113.214844 L 11.542969 115.980469 L 11.402344 116.402344 L 13.089844 116.402344 L 12.777344 117.542969 L 13.277344 117.542969 L 13.574219 116.417969 L 14.214844 116.417969 Z M 14.308594 115.996094 "
       id="path97" />
    <path
       style=" stroke:none;fill-rule:nonzero;fill:rgb(0%,0%,0%);fill-opacity:1;"
       d="M 76.835938 42.882813 L 74.054688 42.882813 L 74.054688 43.070313 C 74.539063 43.117188 74.851563 43.148438 74.851563 43.554688 C 74.851563 43.742188 74.789063 44.023438 74.726563 44.242188 L 74.210938 46.085938 L 71.007813 46.085938 L 71.617188 43.898438 C 71.820313 43.148438 72.351563 43.101563 72.742188 43.070313 L 72.742188 42.882813 L 69.679688 42.882813 L 69.679688 43.070313 C 70.242188 43.117188 70.554688 43.164063 70.554688 43.554688 C 70.554688 43.742188 70.492188 44.023438 70.429688 44.242188 L 69.039063 49.195313 C 68.851563 49.898438 68.679688 49.929688 68.132813 50.039063 L 68.132813 50.210938 L 70.898438 50.210938 L 70.898438 50.039063 C 70.320313 49.945313 69.992188 49.914063 70.132813 49.289063 L 70.867188 46.554688 L 74.070313 46.554688 L 73.335938 49.195313 C 73.132813 49.914063 72.726563 49.960938 72.210938 50.039063 L 72.210938 50.210938 L 75.273438 50.210938 L 75.273438 50.039063 C 74.664063 49.976563 74.257813 49.945313 74.429688 49.289063 L 75.914063 43.898438 C 76.101563 43.195313 76.289063 43.164063 76.835938 43.070313 Z M 76.835938 42.882813 "
       id="path99" />
    <path
       style=" stroke:none;fill-rule:nonzero;fill:rgb(12.940979%,11.764526%,11.764526%);fill-opacity:1;"
       d="M 77.46875 48.992188 C 77.5625 48.851563 77.78125 48.554688 78.1875 48.554688 C 78.4375 48.554688 78.75 48.710938 78.75 49.132813 C 78.75 49.835938 77.859375 50.117188 77.21875 50.195313 L 77.21875 50.304688 C 77.84375 50.257813 78.40625 50.492188 78.40625 51.398438 C 78.40625 52.195313 77.8125 52.414063 77.59375 52.414063 C 77.234375 52.414063 77.015625 52.039063 76.71875 52.039063 C 76.484375 52.039063 76.421875 52.148438 76.421875 52.289063 C 76.421875 52.570313 76.78125 52.664063 77.15625 52.664063 C 78.34375 52.664063 78.921875 51.757813 78.921875 51.039063 C 78.921875 50.335938 78.484375 50.148438 78.3125 50.070313 L 78.3125 50.054688 C 78.984375 49.804688 79.3125 49.570313 79.3125 49.085938 C 79.3125 48.554688 78.84375 48.289063 78.375 48.289063 C 78 48.289063 77.53125 48.570313 77.359375 48.945313 Z M 77.46875 48.992188 "
       id="path101" />
    <path
       style=" stroke:none;fill-rule:nonzero;fill:rgb(12.940979%,11.764526%,11.764526%);fill-opacity:1;"
       d="M 81.066406 48.804688 L 82.535156 48.804688 L 82.675781 48.351563 L 81.035156 48.351563 L 80.378906 49.742188 L 80.378906 49.835938 C 81.113281 50.007813 81.785156 50.148438 81.785156 51.117188 C 81.785156 51.679688 81.316406 52.398438 80.675781 52.398438 C 80.332031 52.398438 80.175781 52.039063 79.894531 52.039063 C 79.769531 52.039063 79.628906 52.117188 79.628906 52.304688 C 79.628906 52.476563 79.816406 52.664063 80.285156 52.664063 C 81.535156 52.664063 82.222656 51.679688 82.222656 50.851563 C 82.222656 49.992188 81.644531 49.539063 80.816406 49.367188 Z M 81.066406 48.804688 "
       id="path103" />
    <path
       style=" stroke:none;fill-rule:nonzero;fill:rgb(0%,0%,0%);fill-opacity:1;"
       d="M 55.996094 79.355469 L 53.214844 79.355469 L 53.214844 79.542969 C 53.699219 79.589844 54.011719 79.621094 54.011719 80.027344 C 54.011719 80.214844 53.949219 80.496094 53.886719 80.714844 L 53.371094 82.558594 L 50.167969 82.558594 L 50.777344 80.371094 C 50.980469 79.621094 51.511719 79.574219 51.902344 79.542969 L 51.902344 79.355469 L 48.839844 79.355469 L 48.839844 79.542969 C 49.402344 79.589844 49.714844 79.636719 49.714844 80.027344 C 49.714844 80.214844 49.652344 80.496094 49.589844 80.714844 L 48.199219 85.667969 C 48.011719 86.371094 47.839844 86.402344 47.292969 86.511719 L 47.292969 86.683594 L 50.058594 86.683594 L 50.058594 86.511719 C 49.480469 86.417969 49.152344 86.386719 49.292969 85.761719 L 50.027344 83.027344 L 53.230469 83.027344 L 52.496094 85.667969 C 52.292969 86.386719 51.886719 86.433594 51.371094 86.511719 L 51.371094 86.683594 L 54.433594 86.683594 L 54.433594 86.511719 C 53.824219 86.449219 53.417969 86.417969 53.589844 85.761719 L 55.074219 80.371094 C 55.261719 79.667969 55.449219 79.636719 55.996094 79.542969 Z M 55.996094 79.355469 "
       id="path105" />
    <path
       style=" stroke:none;fill-rule:nonzero;fill:rgb(12.940979%,11.764526%,11.764526%);fill-opacity:1;"
       d="M 55.800781 89.085938 L 57.582031 89.085938 L 57.582031 88.992188 C 57.269531 88.992188 57.035156 88.976563 57.035156 88.773438 C 57.035156 88.679688 57.128906 88.445313 57.160156 88.304688 L 58.066406 84.992188 C 58.097656 84.882813 58.128906 84.757813 58.082031 84.757813 C 58.035156 84.757813 57.144531 84.945313 56.847656 84.992188 L 56.847656 85.101563 L 57.207031 85.085938 C 57.269531 85.085938 57.441406 85.085938 57.441406 85.289063 C 57.441406 85.335938 57.425781 85.429688 57.410156 85.492188 L 56.519531 88.648438 C 56.441406 88.945313 56.175781 88.960938 55.800781 88.992188 Z M 55.800781 89.085938 "
       id="path107" />
    <path
       style=" stroke:none;fill-rule:nonzero;fill:rgb(12.940979%,11.764526%,11.764526%);fill-opacity:1;"
       d="M 59.835938 85.460938 C 59.929688 85.320313 60.148438 85.023438 60.554688 85.023438 C 60.804688 85.023438 61.117188 85.179688 61.117188 85.601563 C 61.117188 86.304688 60.226563 86.585938 59.585938 86.664063 L 59.585938 86.773438 C 60.210938 86.726563 60.773438 86.960938 60.773438 87.867188 C 60.773438 88.664063 60.179688 88.882813 59.960938 88.882813 C 59.601563 88.882813 59.382813 88.507813 59.085938 88.507813 C 58.851563 88.507813 58.789063 88.617188 58.789063 88.757813 C 58.789063 89.039063 59.148438 89.132813 59.523438 89.132813 C 60.710938 89.132813 61.289063 88.226563 61.289063 87.507813 C 61.289063 86.804688 60.851563 86.617188 60.679688 86.539063 L 60.679688 86.523438 C 61.351563 86.273438 61.679688 86.039063 61.679688 85.554688 C 61.679688 85.023438 61.210938 84.757813 60.742188 84.757813 C 60.367188 84.757813 59.898438 85.039063 59.726563 85.414063 Z M 59.835938 85.460938 "
       id="path109" />
    <path
       style=" stroke:none;fill-rule:nonzero;fill:rgb(0%,0%,0%);fill-opacity:1;"
       d="M 103.6875 94.183594 L 100.90625 94.183594 L 100.90625 94.371094 C 101.390625 94.417969 101.703125 94.449219 101.703125 94.855469 C 101.703125 95.042969 101.640625 95.324219 101.578125 95.542969 L 101.0625 97.386719 L 97.859375 97.386719 L 98.46875 95.199219 C 98.671875 94.449219 99.203125 94.402344 99.59375 94.371094 L 99.59375 94.183594 L 96.53125 94.183594 L 96.53125 94.371094 C 97.09375 94.417969 97.40625 94.464844 97.40625 94.855469 C 97.40625 95.042969 97.34375 95.324219 97.28125 95.542969 L 95.890625 100.496094 C 95.703125 101.199219 95.53125 101.230469 94.984375 101.339844 L 94.984375 101.511719 L 97.75 101.511719 L 97.75 101.339844 C 97.171875 101.246094 96.84375 101.214844 96.984375 100.589844 L 97.71875 97.855469 L 100.921875 97.855469 L 100.1875 100.496094 C 99.984375 101.214844 99.578125 101.261719 99.0625 101.339844 L 99.0625 101.511719 L 102.125 101.511719 L 102.125 101.339844 C 101.515625 101.277344 101.109375 101.246094 101.28125 100.589844 L 102.765625 95.199219 C 102.953125 94.496094 103.140625 94.464844 103.6875 94.371094 Z M 103.6875 94.183594 "
       id="path111" />
    <path
       style=" stroke:none;fill-rule:nonzero;fill:rgb(12.940979%,11.764526%,11.764526%);fill-opacity:1;"
       d="M 104.320313 100.292969 C 104.414063 100.152344 104.632813 99.855469 105.039063 99.855469 C 105.289063 99.855469 105.601563 100.011719 105.601563 100.433594 C 105.601563 101.136719 104.710938 101.417969 104.070313 101.496094 L 104.070313 101.605469 C 104.695313 101.558594 105.257813 101.792969 105.257813 102.699219 C 105.257813 103.496094 104.664063 103.714844 104.445313 103.714844 C 104.085938 103.714844 103.867188 103.339844 103.570313 103.339844 C 103.335938 103.339844 103.273438 103.449219 103.273438 103.589844 C 103.273438 103.871094 103.632813 103.964844 104.007813 103.964844 C 105.195313 103.964844 105.773438 103.058594 105.773438 102.339844 C 105.773438 101.636719 105.335938 101.449219 105.164063 101.371094 L 105.164063 101.355469 C 105.835938 101.105469 106.164063 100.871094 106.164063 100.386719 C 106.164063 99.855469 105.695313 99.589844 105.226563 99.589844 C 104.851563 99.589844 104.382813 99.871094 104.210938 100.246094 Z M 104.320313 100.292969 "
       id="path113" />
    <path
       style=" stroke:none;fill-rule:nonzero;fill:rgb(12.940979%,11.764526%,11.764526%);fill-opacity:1;"
       d="M 108.167969 102.371094 L 106.808594 102.371094 L 106.808594 102.355469 L 108.746094 100.308594 L 108.777344 100.308594 Z M 109.292969 102.371094 L 108.683594 102.371094 L 109.449219 99.589844 L 109.199219 99.589844 L 106.527344 102.355469 L 106.386719 102.777344 L 108.074219 102.777344 L 107.761719 103.917969 L 108.261719 103.917969 L 108.558594 102.792969 L 109.199219 102.792969 Z M 109.292969 102.371094 "
       id="path115" />
    <path
       style=" stroke:none;fill-rule:nonzero;fill:rgb(0%,0%,0%);fill-opacity:1;"
       d="M 121.324219 82.5625 L 118.542969 82.5625 L 118.542969 82.75 C 119.027344 82.796875 119.339844 82.828125 119.339844 83.234375 C 119.339844 83.421875 119.277344 83.703125 119.214844 83.921875 L 118.699219 85.765625 L 115.496094 85.765625 L 116.105469 83.578125 C 116.308594 82.828125 116.839844 82.78125 117.230469 82.75 L 117.230469 82.5625 L 114.167969 82.5625 L 114.167969 82.75 C 114.730469 82.796875 115.042969 82.84375 115.042969 83.234375 C 115.042969 83.421875 114.980469 83.703125 114.917969 83.921875 L 113.527344 88.875 C 113.339844 89.578125 113.167969 89.609375 112.621094 89.71875 L 112.621094 89.890625 L 115.386719 89.890625 L 115.386719 89.71875 C 114.808594 89.625 114.480469 89.59375 114.621094 88.96875 L 115.355469 86.234375 L 118.558594 86.234375 L 117.824219 88.875 C 117.621094 89.59375 117.214844 89.640625 116.699219 89.71875 L 116.699219 89.890625 L 119.761719 89.890625 L 119.761719 89.71875 C 119.152344 89.65625 118.746094 89.625 118.917969 88.96875 L 120.402344 83.578125 C 120.589844 82.875 120.777344 82.84375 121.324219 82.75 Z M 121.324219 82.5625 "
       id="path117" />
    <path
       style=" stroke:none;fill-rule:nonzero;fill:rgb(12.940979%,11.764526%,11.764526%);fill-opacity:1;"
       d="M 123.378906 91.402344 C 123.269531 91.636719 123.160156 91.808594 122.738281 91.808594 L 121.535156 91.808594 L 121.535156 91.777344 L 122.753906 90.542969 C 123.550781 89.746094 123.707031 89.464844 123.707031 89.027344 C 123.707031 88.558594 123.347656 87.964844 122.675781 87.964844 C 122.519531 87.964844 121.675781 87.980469 121.332031 88.980469 L 121.457031 89.027344 C 121.550781 88.871094 121.800781 88.433594 122.378906 88.433594 C 122.863281 88.433594 123.160156 88.808594 123.160156 89.214844 C 123.160156 89.417969 123.128906 89.792969 122.238281 90.746094 L 120.894531 92.183594 L 120.894531 92.292969 L 123.160156 92.292969 L 123.488281 91.449219 Z M 123.378906 91.402344 "
       id="path119" />
    <path
       style=" stroke:none;fill-rule:nonzero;fill:rgb(12.940979%,11.764526%,11.764526%);fill-opacity:1;"
       d="M 125.164063 88.667969 C 125.257813 88.527344 125.476563 88.230469 125.882813 88.230469 C 126.132813 88.230469 126.445313 88.386719 126.445313 88.808594 C 126.445313 89.511719 125.554688 89.792969 124.914063 89.871094 L 124.914063 89.980469 C 125.539063 89.933594 126.101563 90.167969 126.101563 91.074219 C 126.101563 91.871094 125.507813 92.089844 125.289063 92.089844 C 124.929688 92.089844 124.710938 91.714844 124.414063 91.714844 C 124.179688 91.714844 124.117188 91.824219 124.117188 91.964844 C 124.117188 92.246094 124.476563 92.339844 124.851563 92.339844 C 126.039063 92.339844 126.617188 91.433594 126.617188 90.714844 C 126.617188 90.011719 126.179688 89.824219 126.007813 89.746094 L 126.007813 89.730469 C 126.679688 89.480469 127.007813 89.246094 127.007813 88.761719 C 127.007813 88.230469 126.539063 87.964844 126.070313 87.964844 C 125.695313 87.964844 125.226563 88.246094 125.054688 88.621094 Z M 125.164063 88.667969 "
       id="path121" />
  </g>
</svg>
