<?xml version="1.0" encoding="UTF-8" standalone="no"?>
<svg
   xmlns:dc="http://purl.org/dc/elements/1.1/"
   xmlns:cc="http://creativecommons.org/ns#"
   xmlns:rdf="http://www.w3.org/1999/02/22-rdf-syntax-ns#"
   xmlns:svg="http://www.w3.org/2000/svg"
   xmlns="http://www.w3.org/2000/svg"
   xmlns:sodipodi="http://sodipodi.sourceforge.net/DTD/sodipodi-0.dtd"
   xmlns:inkscape="http://www.inkscape.org/namespaces/inkscape"
   width="291.000336pt"
   height="128.465622pt"
   viewBox="0 0 291.000336 128.465622"
   version="1.2"
   id="svg114"
   sodipodi:docname="wo_layer_decision_space.svg"
   inkscape:version="0.92.4 (5da689c313, 2019-01-14)">
  <metadata
     id="metadata118">
    <rdf:RDF>
      <cc:Work
         rdf:about="">
        <dc:format>image/svg+xml</dc:format>
        <dc:type
           rdf:resource="http://purl.org/dc/dcmitype/StillImage" />
        <dc:title></dc:title>
      </cc:Work>
    </rdf:RDF>
  </metadata>
  <sodipodi:namedview
     pagecolor="#ffffff"
     bordercolor="#666666"
     borderopacity="1"
     objecttolerance="10"
     gridtolerance="10"
     guidetolerance="10"
     inkscape:pageopacity="0"
     inkscape:pageshadow="2"
     inkscape:window-width="640"
     inkscape:window-height="480"
     id="namedview116"
     showgrid="false"
     inkscape:zoom="0.88659692"
     inkscape:cx="194.00022"
     inkscape:cy="85.643748"
     inkscape:window-x="0"
     inkscape:window-y="0"
     inkscape:window-maximized="0"
     inkscape:current-layer="svg114" />
  <defs
     id="defs5">
    <clipPath
       id="clip1">
      <path
         d="M 289 124 L 291 124 L 291 128.464844 L 289 128.464844 Z M 289 124 "
         id="path2" />
    </clipPath>
  </defs>
  <g
     id="surface28">
    <path
       style=" stroke:none;fill-rule:nonzero;fill:rgb(0%,0%,0%);fill-opacity:1;"
       d="M 2.796875 55.140625 L 1.921875 55.140625 L 2.234375 54.03125 C 2.25 53.953125 2.234375 53.84375 2.15625 53.875 C 2.0625 53.84375 2.015625 53.953125 1.96875 54 C 1.671875 54.375 1.15625 54.859375 0.796875 55.046875 C 0.609375 55.140625 0.3125 55.21875 0.234375 55.3125 C 0.203125 55.375 0.203125 55.421875 0.21875 55.484375 L 1.015625 55.484375 L 0.234375 58.453125 C 0.203125 58.625 0 59.296875 0 59.453125 C 0 59.78125 0.296875 59.890625 0.515625 59.890625 C 1.078125 59.890625 1.5 59.40625 2.046875 58.578125 L 1.90625 58.5 C 1.640625 58.84375 1.25 59.359375 1.046875 59.359375 C 0.921875 59.359375 0.875 59.265625 0.875 59.171875 C 0.875 59.140625 0.875 59.125 0.875 59.078125 L 1.828125 55.484375 L 2.734375 55.484375 Z M 2.796875 55.140625 "
       id="path7" />
    <path
       style=" stroke:none;fill-rule:nonzero;fill:rgb(0%,0%,0%);fill-opacity:1;"
       d="M 2.769531 55.421875 L 2.988281 55.40625 C 3.457031 55.375 3.503906 55.453125 3.628906 56.25 C 3.738281 56.84375 3.832031 57.78125 3.863281 58.5 L 3.910156 59.453125 C 3.910156 59.609375 3.910156 59.953125 4.050781 59.953125 C 4.207031 59.953125 4.285156 59.734375 5.332031 57.875 C 5.816406 57.015625 6.082031 56.5625 6.269531 56.21875 L 6.285156 56.21875 L 6.597656 59.640625 C 6.613281 59.8125 6.613281 59.953125 6.738281 59.953125 C 6.847656 59.953125 6.988281 59.75 7.425781 59.234375 C 7.925781 58.65625 9.597656 56.546875 9.597656 55.609375 C 9.597656 55.296875 9.425781 55 9.019531 55 C 8.707031 55 8.613281 55.203125 8.613281 55.375 C 8.613281 55.734375 9.082031 55.796875 9.082031 56.1875 C 9.082031 56.75 8.238281 57.796875 7.300781 58.96875 L 6.941406 55.09375 C 6.941406 55.0625 6.941406 55.015625 6.863281 55.015625 C 6.800781 55.015625 6.769531 55.0625 6.738281 55.109375 L 4.675781 58.375 L 4.644531 58.375 C 4.644531 58.171875 4.535156 56.703125 4.347656 55.609375 C 4.238281 55.03125 4.207031 55 4.144531 55 C 4.050781 55 3.378906 55.171875 2.769531 55.265625 Z M 2.769531 55.421875 "
       id="path9" />
    <path
       style=" stroke:none;fill-rule:nonzero;fill:rgb(0%,0%,0%);fill-opacity:1;"
       d="M 13.269531 55 C 11.691406 55 10.097656 56.75 10.097656 58.328125 C 10.097656 59.21875 10.582031 59.890625 11.722656 59.890625 C 13.378906 59.890625 14.847656 57.9375 14.847656 56.609375 C 14.847656 55.890625 14.519531 55 13.269531 55 Z M 13.191406 55.234375 C 13.707031 55.234375 13.941406 55.703125 13.941406 56.265625 C 13.941406 57.421875 13.097656 59.65625 11.863281 59.65625 C 11.316406 59.65625 11.003906 59.265625 11.003906 58.65625 C 11.003906 57.375 11.988281 55.234375 13.191406 55.234375 Z M 13.191406 55.234375 "
       id="path11" />
    <path
       style=" stroke:none;fill-rule:nonzero;fill:rgb(0%,0%,0%);fill-opacity:1;"
       d="M 20.367188 58.4375 C 19.835938 59.125 19.601563 59.421875 19.335938 59.421875 C 19.179688 59.421875 19.179688 59.265625 19.179688 59.203125 C 19.179688 59.078125 19.257813 58.796875 19.273438 58.703125 L 20.914063 52.453125 L 20.851563 52.390625 C 20.289063 52.515625 19.726563 52.625 19.179688 52.6875 L 19.179688 52.859375 C 19.460938 52.84375 19.914063 52.84375 19.914063 53.125 C 19.914063 53.359375 18.335938 58.984375 18.335938 59.21875 C 18.335938 59.515625 18.382813 59.890625 18.851563 59.890625 C 19.523438 59.890625 19.945313 59.359375 20.507813 58.53125 Z M 20.367188 58.4375 "
       id="path13" />
    <path
       style=" stroke:none;fill-rule:nonzero;fill:rgb(0%,0%,0%);fill-opacity:1;"
       d="M 25.917969 58.578125 C 25.433594 59.046875 25.214844 59.328125 25.042969 59.328125 C 24.964844 59.328125 24.902344 59.265625 24.902344 59.1875 C 24.902344 58.84375 25.886719 55.171875 25.917969 55.03125 L 25.839844 55 L 25.183594 55.078125 L 25.152344 55.109375 L 25.042969 55.59375 L 25.027344 55.59375 C 24.996094 55.28125 24.636719 55 24.167969 55 C 22.730469 55 21.089844 57.015625 21.089844 58.609375 C 21.089844 58.921875 21.121094 59.890625 22.199219 59.890625 C 22.839844 59.890625 23.417969 59.5625 24.308594 58.25 L 24.339844 58.265625 C 24.167969 58.921875 24.105469 59.15625 24.105469 59.40625 C 24.105469 59.59375 24.105469 59.875 24.558594 59.875 C 25.027344 59.875 25.386719 59.484375 26.042969 58.6875 Z M 21.996094 58.59375 C 21.996094 57.609375 22.964844 55.234375 24.230469 55.234375 C 24.542969 55.234375 24.839844 55.453125 24.839844 55.96875 C 24.839844 57.015625 23.777344 59.359375 22.636719 59.359375 C 22.355469 59.359375 21.996094 59.15625 21.996094 58.59375 Z M 21.996094 58.59375 "
       id="path15" />
    <path
       style=" stroke:none;fill-rule:nonzero;fill:rgb(0%,0%,0%);fill-opacity:1;"
       d="M 26.457031 55.453125 C 26.597656 55.421875 26.660156 55.40625 26.832031 55.40625 C 27.441406 55.40625 27.582031 55.875 27.878906 56.84375 C 28.066406 57.4375 28.519531 59.328125 28.519531 59.734375 C 28.519531 60.03125 28.066406 60.546875 27.785156 60.859375 C 27.425781 61.296875 27.285156 61.390625 27.113281 61.390625 C 26.910156 61.390625 26.769531 61.09375 26.457031 61.09375 C 26.222656 61.09375 26.035156 61.28125 26.035156 61.5 C 26.035156 61.953125 26.503906 61.984375 26.597656 61.984375 C 27.878906 61.984375 30.894531 56.953125 30.894531 55.671875 C 30.894531 55.28125 30.691406 55 30.285156 55 C 30.003906 55 29.878906 55.234375 29.878906 55.375 C 29.878906 55.875 30.472656 55.765625 30.472656 56.203125 C 30.472656 56.78125 29.613281 58.234375 29.144531 58.984375 L 28.941406 57.734375 C 28.800781 56.921875 28.160156 55 28.019531 55 C 27.816406 55 26.988281 55.171875 26.457031 55.265625 Z M 26.457031 55.453125 "
       id="path17" />
    <path
       style=" stroke:none;fill-rule:nonzero;fill:rgb(0%,0%,0%);fill-opacity:1;"
       d="M 32.738281 57.046875 C 33.144531 56.078125 33.878906 55.25 34.457031 55.25 C 34.722656 55.25 34.832031 55.453125 34.832031 55.6875 C 34.832031 55.765625 34.785156 57.0625 32.550781 57.515625 Z M 34.957031 58.59375 C 34.425781 59.03125 33.972656 59.40625 33.378906 59.40625 C 32.925781 59.40625 32.378906 59.15625 32.378906 58.421875 C 32.378906 58.203125 32.425781 57.984375 32.472656 57.75 L 32.785156 57.71875 C 34.535156 57.46875 35.550781 56.59375 35.550781 55.734375 C 35.550781 55.265625 35.207031 55 34.660156 55 C 33.144531 55 31.425781 56.8125 31.425781 58.359375 C 31.425781 59.046875 31.785156 59.890625 32.910156 59.890625 C 33.988281 59.890625 34.972656 58.890625 35.097656 58.71875 Z M 34.957031 58.59375 "
       id="path19" />
    <path
       style=" stroke:none;fill-rule:nonzero;fill:rgb(0%,0%,0%);fill-opacity:1;"
       d="M 37.203125 59.765625 C 37.640625 58.328125 37.796875 57.84375 38.203125 57.0625 C 38.28125 56.90625 38.9375 55.703125 39.265625 55.703125 C 39.53125 55.703125 39.375 56.09375 39.828125 56.09375 C 39.953125 56.09375 40.34375 56.09375 40.34375 55.53125 C 40.34375 55.171875 40.0625 55 39.828125 55 C 39.140625 55 38.3125 56.265625 37.96875 56.984375 L 37.875 57.203125 L 37.859375 57.171875 L 38.390625 55.03125 L 38.359375 55 C 37.859375 55.078125 37.234375 55.21875 36.671875 55.296875 L 36.671875 55.484375 C 36.796875 55.453125 36.921875 55.421875 37.03125 55.421875 C 37.375 55.421875 37.421875 55.59375 37.421875 55.75 C 37.421875 55.84375 37.359375 56.21875 37.25 56.609375 L 36.375 59.765625 Z M 37.203125 59.765625 "
       id="path21" />
    <path
       style="fill:none;stroke-width:3.176;stroke-linecap:round;stroke-linejoin:round;stroke:rgb(0%,0%,0%);stroke-opacity:1;stroke-miterlimit:4;"
       d="M 39.773438 77.972656 L 56.164063 45.195313 "
       id="path23" />
    <path
       style=" stroke:none;fill-rule:nonzero;fill:rgb(0%,0%,0%);fill-opacity:1;"
       d="M 56.386719 41.113281 C 54.503906 43.105469 53.085938 44.304688 51.386719 45.8125 L 58.550781 49.394531 C 58.570313 48.558594 58.847656 45.277344 59.3125 42.574219 C 59.8125 39.683594 60.429688 37.144531 60.984375 35.574219 C 60.058594 36.957031 58.402344 38.976563 56.386719 41.113281 "
       id="path25" />
    <path
       style="fill:none;stroke-width:3.372;stroke-linecap:round;stroke-linejoin:round;stroke:rgb(0%,0%,0%);stroke-opacity:1;stroke-dasharray:4.721,6.07;stroke-miterlimit:4;"
       d="M 88.835938 77.910156 L 72.511719 45.257813 "
       id="path27" />
    <path
       style=" stroke:none;fill-rule:nonzero;fill:rgb(0%,0%,0%);fill-opacity:1;"
       d="M 69.183594 42.46875 C 69.675781 45.339844 69.792969 47.304688 69.992188 49.707031 L 77.597656 45.902344 C 76.898438 45.355469 74.292969 43.03125 72.292969 40.914063 C 70.152344 38.648438 68.390625 36.503906 67.410156 35.035156 C 67.996094 36.703125 68.65625 39.398438 69.183594 42.46875 "
       id="path29" />
    <path
       style=" stroke:none;fill-rule:nonzero;fill:rgb(100%,100%,100%);fill-opacity:1;"
       d="M 33.796875 89.921875 L 46.007813 89.921875 L 46.003906 89.617188 L 45.992188 89.3125 L 45.972656 89.007813 L 45.945313 88.707031 L 45.910156 88.40625 L 45.871094 88.101563 L 45.820313 87.800781 L 45.765625 87.503906 L 45.699219 87.207031 L 45.628906 86.910156 L 45.550781 86.617188 L 45.464844 86.324219 L 45.371094 86.035156 L 45.269531 85.746094 L 45.164063 85.460938 L 45.046875 85.179688 L 44.925781 84.902344 L 44.796875 84.625 L 44.664063 84.351563 L 44.519531 84.082031 L 44.371094 83.816406 L 44.214844 83.554688 L 44.054688 83.296875 L 43.886719 83.042969 L 43.710938 82.796875 L 43.53125 82.550781 L 43.34375 82.308594 L 43.148438 82.074219 L 42.953125 81.84375 L 42.746094 81.617188 L 42.539063 81.398438 L 42.324219 81.183594 L 42.101563 80.972656 L 41.875 80.769531 L 41.644531 80.570313 L 41.410156 80.375 L 40.925781 80.007813 L 40.675781 79.835938 L 40.421875 79.667969 L 40.164063 79.503906 L 39.902344 79.347656 L 39.636719 79.199219 L 39.367188 79.058594 L 39.09375 78.921875 L 38.820313 78.792969 L 38.539063 78.671875 L 38.257813 78.558594 L 37.972656 78.449219 L 37.683594 78.347656 L 37.394531 78.253906 L 37.105469 78.167969 L 36.808594 78.089844 L 36.515625 78.019531 L 36.214844 77.957031 L 35.917969 77.898438 L 35.617188 77.847656 L 35.316406 77.808594 L 35.011719 77.773438 L 34.710938 77.746094 L 34.40625 77.726563 L 34.101563 77.71875 L 33.796875 77.714844 L 33.492188 77.71875 L 33.1875 77.726563 L 32.886719 77.746094 L 32.582031 77.773438 L 32.28125 77.808594 L 31.976563 77.851563 L 31.675781 77.898438 L 31.378906 77.957031 L 31.082031 78.019531 L 30.785156 78.089844 L 30.492188 78.171875 L 30.199219 78.257813 L 29.910156 78.347656 L 29.621094 78.449219 L 29.335938 78.558594 L 29.054688 78.671875 L 28.777344 78.792969 L 28.5 78.921875 L 28.226563 79.058594 L 27.957031 79.199219 L 27.695313 79.347656 L 27.429688 79.503906 L 27.171875 79.667969 L 26.917969 79.835938 L 26.671875 80.011719 L 26.425781 80.191406 L 26.183594 80.378906 L 25.949219 80.570313 L 25.71875 80.769531 L 25.492188 80.972656 L 25.273438 81.183594 L 25.058594 81.398438 L 24.847656 81.621094 L 24.644531 81.84375 L 24.445313 82.074219 L 24.253906 82.3125 L 24.066406 82.550781 L 23.882813 82.796875 L 23.710938 83.046875 L 23.542969 83.300781 L 23.378906 83.558594 L 23.222656 83.820313 L 23.074219 84.085938 L 22.933594 84.351563 L 22.796875 84.625 L 22.667969 84.902344 L 22.546875 85.179688 L 22.433594 85.464844 L 22.324219 85.746094 L 22.222656 86.035156 L 22.132813 86.324219 L 22.046875 86.617188 L 21.964844 86.910156 L 21.894531 87.207031 L 21.832031 87.503906 L 21.773438 87.804688 L 21.726563 88.105469 L 21.683594 88.40625 L 21.648438 88.707031 L 21.625 89.011719 L 21.605469 89.316406 L 21.59375 89.621094 L 21.589844 89.921875 L 21.59375 90.226563 L 21.605469 90.53125 L 33.796875 89.921875 "
       id="path31" />
    <path
       style=" stroke:none;fill-rule:nonzero;fill:rgb(100%,100%,100%);fill-opacity:1;"
       d="M 33.796875 89.921875 L 21.605469 90.53125 L 21.625 90.835938 L 21.648438 91.140625 L 21.683594 91.441406 L 21.726563 91.742188 L 21.773438 92.042969 L 21.832031 92.34375 L 21.894531 92.640625 L 21.96875 92.9375 L 22.046875 93.230469 L 22.132813 93.523438 L 22.226563 93.8125 L 22.328125 94.097656 L 22.433594 94.382813 L 22.550781 94.667969 L 22.671875 94.945313 L 22.800781 95.21875 L 22.933594 95.492188 L 23.078125 95.761719 L 23.226563 96.027344 L 23.382813 96.289063 L 23.542969 96.546875 L 23.710938 96.800781 L 23.886719 97.050781 L 24.066406 97.296875 L 24.253906 97.535156 L 24.449219 97.769531 L 24.644531 98 L 24.851563 98.226563 L 25.058594 98.449219 L 25.273438 98.664063 L 25.496094 98.871094 L 25.722656 99.078125 L 25.953125 99.277344 L 26.1875 99.46875 L 26.429688 99.65625 L 26.671875 99.835938 L 26.921875 100.011719 L 27.175781 100.179688 L 27.433594 100.339844 L 27.695313 100.496094 L 27.960938 100.644531 L 28.230469 100.789063 L 28.503906 100.921875 L 28.78125 101.050781 L 29.058594 101.171875 L 29.339844 101.289063 L 29.625 101.394531 L 29.914063 101.496094 L 30.203125 101.589844 L 30.492188 101.675781 L 30.789063 101.753906 L 31.082031 101.824219 L 31.382813 101.890625 L 31.679688 101.945313 L 31.980469 101.996094 L 32.28125 102.035156 L 32.585938 102.070313 L 32.886719 102.097656 L 33.191406 102.117188 L 33.496094 102.128906 L 34.105469 102.128906 L 34.410156 102.117188 L 34.714844 102.097656 L 35.015625 102.070313 L 35.320313 102.035156 L 35.621094 101.992188 L 35.921875 101.945313 L 36.21875 101.886719 L 36.515625 101.824219 L 36.8125 101.753906 L 37.105469 101.671875 L 37.398438 101.585938 L 37.6875 101.496094 L 37.976563 101.394531 L 38.261719 101.285156 L 38.542969 101.171875 L 38.820313 101.050781 L 39.097656 100.921875 L 39.371094 100.785156 L 39.640625 100.640625 L 39.90625 100.492188 L 40.167969 100.339844 L 40.425781 100.175781 L 40.675781 100.007813 L 40.925781 99.832031 L 41.171875 99.652344 L 41.414063 99.464844 L 41.648438 99.273438 L 41.878906 99.074219 L 42.105469 98.871094 L 42.324219 98.660156 L 42.539063 98.445313 L 42.75 98.222656 L 42.953125 98 L 43.152344 97.765625 L 43.34375 97.53125 L 43.53125 97.292969 L 43.710938 97.046875 L 43.886719 96.796875 L 44.054688 96.542969 L 44.21875 96.285156 L 44.371094 96.023438 L 44.519531 95.757813 L 44.664063 95.488281 L 44.796875 95.214844 L 44.925781 94.941406 L 45.050781 94.660156 L 45.164063 94.378906 L 45.269531 94.09375 L 45.371094 93.808594 L 45.464844 93.515625 L 45.550781 93.226563 L 45.628906 92.929688 L 45.703125 92.636719 L 45.765625 92.339844 L 45.820313 92.039063 L 45.871094 91.738281 L 45.914063 91.4375 L 45.945313 91.132813 L 45.972656 90.832031 L 45.992188 90.527344 L 46.003906 90.222656 L 46.007813 89.917969 L 46.003906 89.613281 L 45.992188 89.308594 L 45.972656 89.007813 L 45.945313 88.703125 L 33.796875 89.921875 "
       id="path33" />
    <path
       style=" stroke:none;fill-rule:nonzero;fill:rgb(100%,100%,100%);fill-opacity:1;"
       d="M 94.84375 89.921875 L 107.050781 89.921875 L 107.046875 89.617188 L 107.035156 89.3125 L 107.015625 89.007813 L 106.992188 88.707031 L 106.957031 88.40625 L 106.914063 88.101563 L 106.867188 87.800781 L 106.808594 87.503906 L 106.746094 87.207031 L 106.675781 86.910156 L 106.59375 86.617188 L 106.507813 86.324219 L 106.414063 86.035156 L 106.316406 85.746094 L 106.207031 85.460938 L 106.09375 85.179688 L 105.972656 84.902344 L 105.84375 84.625 L 105.707031 84.351563 L 105.5625 84.082031 L 105.414063 83.816406 L 105.261719 83.554688 L 105.097656 83.296875 L 104.929688 83.042969 L 104.753906 82.796875 L 104.574219 82.550781 L 104.386719 82.308594 L 104.195313 82.074219 L 103.996094 81.84375 L 103.792969 81.617188 L 103.582031 81.398438 L 103.367188 81.183594 L 103.144531 80.972656 L 102.921875 80.769531 L 102.691406 80.570313 L 102.453125 80.375 L 102.214844 80.191406 L 101.96875 80.007813 L 101.71875 79.835938 L 101.464844 79.667969 L 101.207031 79.503906 L 100.945313 79.347656 L 100.679688 79.199219 L 100.414063 79.058594 L 100.140625 78.921875 L 99.863281 78.792969 L 99.585938 78.671875 L 99.300781 78.558594 L 99.019531 78.449219 L 98.730469 78.347656 L 98.441406 78.253906 L 98.148438 78.167969 L 97.855469 78.089844 L 97.558594 78.019531 L 97.261719 77.957031 L 96.960938 77.898438 L 96.664063 77.847656 L 96.359375 77.808594 L 96.058594 77.773438 L 95.753906 77.746094 L 95.449219 77.726563 L 95.144531 77.71875 L 94.84375 77.714844 L 94.539063 77.71875 L 94.234375 77.726563 L 93.929688 77.746094 L 93.625 77.773438 L 93.324219 77.808594 L 93.023438 77.851563 L 92.722656 77.898438 L 92.421875 77.957031 L 92.125 78.019531 L 91.828125 78.089844 L 91.535156 78.171875 L 91.242188 78.257813 L 90.953125 78.347656 L 90.667969 78.449219 L 90.382813 78.558594 L 90.101563 78.671875 L 89.820313 78.792969 L 89.546875 78.921875 L 89.273438 79.058594 L 89.003906 79.199219 L 88.738281 79.347656 L 88.476563 79.503906 L 88.21875 79.667969 L 87.964844 79.835938 L 87.714844 80.011719 L 87.46875 80.191406 L 87.230469 80.378906 L 86.996094 80.570313 L 86.765625 80.769531 L 86.539063 80.972656 L 86.316406 81.183594 L 86.101563 81.398438 L 85.890625 81.621094 L 85.6875 81.84375 L 85.492188 82.074219 L 85.296875 82.3125 L 85.109375 82.550781 L 84.929688 82.796875 L 84.753906 83.046875 L 84.585938 83.300781 L 84.425781 83.558594 L 84.269531 83.820313 L 84.121094 84.085938 L 83.976563 84.351563 L 83.84375 84.625 L 83.714844 84.902344 L 83.59375 85.179688 L 83.476563 85.464844 L 83.371094 85.746094 L 83.269531 86.035156 L 83.175781 86.324219 L 83.089844 86.617188 L 83.011719 86.910156 L 82.941406 87.207031 L 82.875 87.503906 L 82.820313 87.804688 L 82.769531 88.105469 L 82.730469 88.40625 L 82.695313 88.707031 L 82.667969 89.011719 L 82.648438 89.316406 L 82.636719 89.621094 L 82.632813 89.921875 L 82.636719 90.226563 L 82.648438 90.53125 L 94.84375 89.921875 "
       id="path35" />
    <path
       style=" stroke:none;fill-rule:nonzero;fill:rgb(100%,100%,100%);fill-opacity:1;"
       d="M 94.84375 89.921875 L 82.648438 90.53125 L 82.667969 90.835938 L 82.695313 91.140625 L 82.730469 91.441406 L 82.769531 91.742188 L 82.820313 92.042969 L 82.878906 92.34375 L 82.941406 92.640625 L 83.011719 92.9375 L 83.089844 93.230469 L 83.175781 93.523438 L 83.269531 93.8125 L 83.371094 94.097656 L 83.480469 94.382813 L 83.59375 94.667969 L 83.714844 94.945313 L 83.84375 95.21875 L 83.980469 95.492188 L 84.121094 95.761719 L 84.269531 96.027344 L 84.425781 96.289063 L 84.589844 96.546875 L 84.757813 96.800781 L 84.929688 97.050781 L 85.113281 97.296875 L 85.300781 97.535156 L 85.492188 97.769531 L 85.691406 98 L 85.894531 98.226563 L 86.105469 98.449219 L 86.320313 98.664063 L 86.539063 98.871094 L 86.765625 99.078125 L 86.996094 99.277344 L 87.234375 99.46875 L 87.472656 99.65625 L 87.71875 99.835938 L 87.96875 100.011719 L 88.222656 100.179688 L 88.480469 100.339844 L 88.742188 100.496094 L 89.007813 100.644531 L 89.273438 100.789063 L 89.546875 100.921875 L 89.824219 101.050781 L 90.101563 101.171875 L 90.386719 101.289063 L 90.667969 101.394531 L 90.957031 101.496094 L 91.246094 101.589844 L 91.539063 101.675781 L 91.832031 101.753906 L 92.128906 101.824219 L 92.425781 101.890625 L 92.726563 101.945313 L 93.027344 101.996094 L 93.328125 102.035156 L 93.628906 102.070313 L 93.933594 102.097656 L 94.238281 102.117188 L 94.542969 102.128906 L 95.148438 102.128906 L 95.453125 102.117188 L 95.757813 102.097656 L 96.0625 102.070313 L 96.363281 102.035156 L 96.664063 101.992188 L 96.964844 101.945313 L 97.265625 101.886719 L 97.5625 101.824219 L 97.859375 101.753906 L 98.152344 101.671875 L 98.445313 101.585938 L 98.734375 101.496094 L 99.019531 101.394531 L 99.304688 101.285156 L 99.585938 101.171875 L 99.867188 101.050781 L 100.140625 100.921875 L 100.414063 100.785156 L 100.683594 100.640625 L 100.949219 100.492188 L 101.210938 100.339844 L 101.46875 100.175781 L 101.722656 100.007813 L 101.972656 99.832031 L 102.214844 99.652344 L 102.457031 99.464844 L 102.691406 99.273438 L 102.921875 99.074219 L 103.148438 98.871094 L 103.371094 98.660156 L 103.585938 98.445313 L 104 98 L 104.199219 97.765625 L 104.390625 97.53125 L 104.578125 97.292969 L 104.757813 97.046875 L 104.929688 96.796875 L 105.101563 96.542969 L 105.261719 96.285156 L 105.417969 96.023438 L 105.566406 95.757813 L 105.707031 95.488281 L 105.84375 95.214844 L 105.972656 94.941406 L 106.09375 94.660156 L 106.207031 94.378906 L 106.316406 94.09375 L 106.417969 93.808594 L 106.511719 93.515625 L 106.597656 93.226563 L 106.675781 92.929688 L 106.746094 92.636719 L 106.808594 92.339844 L 106.867188 92.039063 L 106.914063 91.738281 L 106.957031 91.4375 L 106.992188 91.132813 L 107.015625 90.832031 L 107.035156 90.527344 L 107.046875 90.222656 L 107.050781 89.917969 L 107.046875 89.613281 L 107.035156 89.308594 L 107.015625 89.007813 L 106.992188 88.703125 L 94.84375 89.921875 "
       id="path37" />
    <path
       style="fill:none;stroke-width:0.674;stroke-linecap:round;stroke-linejoin:round;stroke:rgb(49.803162%,49.803162%,49.803162%);stroke-opacity:1;stroke-miterlimit:4;"
       d="M 24.980469 89.921875 L 42.617188 89.921875 M 33.796875 98.738281 L 33.796875 81.101563 "
       id="path39" />
    <path
       style="fill:none;stroke-width:1.18;stroke-linecap:round;stroke-linejoin:round;stroke:rgb(0%,0%,0%);stroke-opacity:1;stroke-miterlimit:4;"
       d="M 46.007813 89.921875 L 46.003906 89.617188 L 45.992188 89.3125 L 45.972656 89.007813 L 45.945313 88.707031 L 45.910156 88.40625 L 45.871094 88.101563 L 45.820313 87.800781 L 45.765625 87.503906 L 45.699219 87.207031 L 45.628906 86.910156 L 45.550781 86.617188 L 45.464844 86.324219 L 45.371094 86.035156 L 45.269531 85.746094 L 45.164063 85.460938 L 45.046875 85.179688 L 44.925781 84.902344 L 44.796875 84.625 L 44.664063 84.351563 L 44.519531 84.082031 L 44.371094 83.816406 L 44.214844 83.554688 L 44.054688 83.296875 L 43.886719 83.042969 L 43.710938 82.796875 L 43.53125 82.550781 L 43.34375 82.308594 L 43.148438 82.074219 L 42.953125 81.84375 L 42.746094 81.617188 L 42.539063 81.398438 L 42.324219 81.183594 L 42.101563 80.972656 L 41.875 80.769531 L 41.644531 80.570313 L 41.410156 80.375 L 40.925781 80.007813 L 40.675781 79.835938 L 40.421875 79.667969 L 40.164063 79.503906 L 39.902344 79.347656 L 39.636719 79.199219 L 39.367188 79.058594 L 39.09375 78.921875 L 38.820313 78.792969 L 38.539063 78.671875 L 38.257813 78.558594 L 37.972656 78.449219 L 37.683594 78.347656 L 37.394531 78.253906 L 37.105469 78.167969 L 36.808594 78.089844 L 36.515625 78.019531 L 36.214844 77.957031 L 35.917969 77.898438 L 35.617188 77.847656 L 35.316406 77.808594 L 35.011719 77.773438 L 34.710938 77.746094 L 34.40625 77.726563 L 34.101563 77.71875 L 33.796875 77.714844 L 33.492188 77.71875 L 33.1875 77.726563 L 32.886719 77.746094 L 32.582031 77.773438 L 32.28125 77.808594 L 31.976563 77.851563 L 31.675781 77.898438 L 31.378906 77.957031 L 31.082031 78.019531 L 30.785156 78.089844 L 30.492188 78.171875 L 30.199219 78.257813 L 29.910156 78.347656 L 29.621094 78.449219 L 29.335938 78.558594 L 29.054688 78.671875 L 28.777344 78.792969 L 28.5 78.921875 L 28.226563 79.058594 L 27.957031 79.199219 L 27.695313 79.347656 L 27.429688 79.503906 L 27.171875 79.667969 L 26.917969 79.835938 L 26.671875 80.011719 L 26.425781 80.191406 L 26.183594 80.378906 L 25.949219 80.570313 L 25.71875 80.769531 L 25.492188 80.972656 L 25.273438 81.183594 L 25.058594 81.398438 L 24.847656 81.621094 L 24.644531 81.84375 L 24.445313 82.074219 L 24.253906 82.3125 L 24.066406 82.550781 L 23.882813 82.796875 L 23.710938 83.046875 L 23.542969 83.300781 L 23.378906 83.558594 L 23.222656 83.820313 L 23.074219 84.085938 L 22.933594 84.351563 L 22.796875 84.625 L 22.667969 84.902344 L 22.546875 85.179688 L 22.433594 85.464844 L 22.324219 85.746094 L 22.222656 86.035156 L 22.132813 86.324219 L 22.046875 86.617188 L 21.964844 86.910156 L 21.894531 87.207031 L 21.832031 87.503906 L 21.773438 87.804688 L 21.726563 88.105469 L 21.683594 88.40625 L 21.648438 88.707031 L 21.625 89.011719 L 21.605469 89.316406 L 21.59375 89.621094 L 21.589844 89.921875 L 21.59375 90.226563 L 21.605469 90.53125 "
       id="path41" />
    <path
       style="fill:none;stroke-width:1.18;stroke-linecap:round;stroke-linejoin:round;stroke:rgb(0%,0%,0%);stroke-opacity:1;stroke-miterlimit:4;"
       d="M 21.605469 90.53125 L 21.625 90.835938 L 21.648438 91.140625 L 21.683594 91.441406 L 21.726563 91.742188 L 21.773438 92.042969 L 21.832031 92.34375 L 21.894531 92.640625 L 21.96875 92.9375 L 22.046875 93.230469 L 22.132813 93.523438 L 22.226563 93.8125 L 22.328125 94.097656 L 22.433594 94.382813 L 22.550781 94.667969 L 22.671875 94.945313 L 22.800781 95.21875 L 22.933594 95.492188 L 23.078125 95.761719 L 23.226563 96.027344 L 23.382813 96.289063 L 23.542969 96.546875 L 23.710938 96.800781 L 23.886719 97.050781 L 24.066406 97.296875 L 24.253906 97.535156 L 24.449219 97.769531 L 24.644531 98 L 24.851563 98.226563 L 25.058594 98.449219 L 25.273438 98.664063 L 25.496094 98.871094 L 25.722656 99.078125 L 25.953125 99.277344 L 26.1875 99.46875 L 26.429688 99.65625 L 26.671875 99.835938 L 26.921875 100.011719 L 27.175781 100.179688 L 27.433594 100.339844 L 27.695313 100.496094 L 27.960938 100.644531 L 28.230469 100.789063 L 28.503906 100.921875 L 28.78125 101.050781 L 29.058594 101.171875 L 29.339844 101.289063 L 29.625 101.394531 L 29.914063 101.496094 L 30.203125 101.589844 L 30.492188 101.675781 L 30.789063 101.753906 L 31.082031 101.824219 L 31.382813 101.890625 L 31.679688 101.945313 L 31.980469 101.996094 L 32.28125 102.035156 L 32.585938 102.070313 L 32.886719 102.097656 L 33.191406 102.117188 L 33.496094 102.128906 L 34.105469 102.128906 L 34.410156 102.117188 L 34.714844 102.097656 L 35.015625 102.070313 L 35.320313 102.035156 L 35.621094 101.992188 L 35.921875 101.945313 L 36.21875 101.886719 L 36.515625 101.824219 L 36.8125 101.753906 L 37.105469 101.671875 L 37.398438 101.585938 L 37.6875 101.496094 L 37.976563 101.394531 L 38.261719 101.285156 L 38.542969 101.171875 L 38.820313 101.050781 L 39.097656 100.921875 L 39.371094 100.785156 L 39.640625 100.640625 L 39.90625 100.492188 L 40.167969 100.339844 L 40.425781 100.175781 L 40.675781 100.007813 L 40.925781 99.832031 L 41.171875 99.652344 L 41.414063 99.464844 L 41.648438 99.273438 L 41.878906 99.074219 L 42.105469 98.871094 L 42.324219 98.660156 L 42.539063 98.445313 L 42.75 98.222656 L 42.953125 98 L 43.152344 97.765625 L 43.34375 97.53125 L 43.53125 97.292969 L 43.710938 97.046875 L 43.886719 96.796875 L 44.054688 96.542969 L 44.21875 96.285156 L 44.371094 96.023438 L 44.519531 95.757813 L 44.664063 95.488281 L 44.796875 95.214844 L 44.925781 94.941406 L 45.050781 94.660156 L 45.164063 94.378906 L 45.269531 94.09375 L 45.371094 93.808594 L 45.464844 93.515625 L 45.550781 93.226563 L 45.628906 92.929688 L 45.703125 92.636719 L 45.765625 92.339844 L 45.820313 92.039063 L 45.871094 91.738281 L 45.914063 91.4375 L 45.945313 91.132813 L 45.972656 90.832031 L 45.992188 90.527344 L 46.003906 90.222656 L 46.007813 89.917969 L 46.003906 89.613281 L 45.992188 89.308594 L 45.972656 89.007813 L 45.945313 88.703125 "
       id="path43" />
    <path
       style="fill:none;stroke-width:1.686;stroke-linecap:round;stroke-linejoin:round;stroke:rgb(0%,0%,0%);stroke-opacity:1;stroke-miterlimit:4;"
       d="M 27.015625 96.703125 L 40.582031 83.140625 "
       id="path45" />
    <path
       style="fill:none;stroke-width:0.674;stroke-linecap:round;stroke-linejoin:round;stroke:rgb(49.803162%,49.803162%,49.803162%);stroke-opacity:1;stroke-miterlimit:4;"
       d="M 86.023438 89.921875 L 103.660156 89.921875 M 94.84375 98.738281 L 94.84375 81.101563 "
       id="path47" />
    <path
       style="fill:none;stroke-width:1.18;stroke-linecap:round;stroke-linejoin:round;stroke:rgb(0%,0%,0%);stroke-opacity:1;stroke-miterlimit:4;"
       d="M 107.050781 89.921875 L 107.046875 89.617188 L 107.035156 89.3125 L 107.015625 89.007813 L 106.992188 88.707031 L 106.957031 88.40625 L 106.914063 88.101563 L 106.867188 87.800781 L 106.808594 87.503906 L 106.746094 87.207031 L 106.675781 86.910156 L 106.59375 86.617188 L 106.507813 86.324219 L 106.414063 86.035156 L 106.316406 85.746094 L 106.207031 85.460938 L 106.09375 85.179688 L 105.972656 84.902344 L 105.84375 84.625 L 105.707031 84.351563 L 105.5625 84.082031 L 105.414063 83.816406 L 105.261719 83.554688 L 105.097656 83.296875 L 104.929688 83.042969 L 104.753906 82.796875 L 104.574219 82.550781 L 104.386719 82.308594 L 104.195313 82.074219 L 103.996094 81.84375 L 103.792969 81.617188 L 103.582031 81.398438 L 103.367188 81.183594 L 103.144531 80.972656 L 102.921875 80.769531 L 102.691406 80.570313 L 102.453125 80.375 L 102.214844 80.191406 L 101.96875 80.007813 L 101.71875 79.835938 L 101.464844 79.667969 L 101.207031 79.503906 L 100.945313 79.347656 L 100.679688 79.199219 L 100.414063 79.058594 L 100.140625 78.921875 L 99.863281 78.792969 L 99.585938 78.671875 L 99.300781 78.558594 L 99.019531 78.449219 L 98.730469 78.347656 L 98.441406 78.253906 L 98.148438 78.167969 L 97.855469 78.089844 L 97.558594 78.019531 L 97.261719 77.957031 L 96.960938 77.898438 L 96.664063 77.847656 L 96.359375 77.808594 L 96.058594 77.773438 L 95.753906 77.746094 L 95.449219 77.726563 L 95.144531 77.71875 L 94.84375 77.714844 L 94.539063 77.71875 L 94.234375 77.726563 L 93.929688 77.746094 L 93.625 77.773438 L 93.324219 77.808594 L 93.023438 77.851563 L 92.722656 77.898438 L 92.421875 77.957031 L 92.125 78.019531 L 91.828125 78.089844 L 91.535156 78.171875 L 91.242188 78.257813 L 90.953125 78.347656 L 90.667969 78.449219 L 90.382813 78.558594 L 90.101563 78.671875 L 89.820313 78.792969 L 89.546875 78.921875 L 89.273438 79.058594 L 89.003906 79.199219 L 88.738281 79.347656 L 88.476563 79.503906 L 88.21875 79.667969 L 87.964844 79.835938 L 87.714844 80.011719 L 87.46875 80.191406 L 87.230469 80.378906 L 86.996094 80.570313 L 86.765625 80.769531 L 86.539063 80.972656 L 86.316406 81.183594 L 86.101563 81.398438 L 85.890625 81.621094 L 85.6875 81.84375 L 85.492188 82.074219 L 85.296875 82.3125 L 85.109375 82.550781 L 84.929688 82.796875 L 84.753906 83.046875 L 84.585938 83.300781 L 84.425781 83.558594 L 84.269531 83.820313 L 84.121094 84.085938 L 83.976563 84.351563 L 83.84375 84.625 L 83.714844 84.902344 L 83.59375 85.179688 L 83.476563 85.464844 L 83.371094 85.746094 L 83.269531 86.035156 L 83.175781 86.324219 L 83.089844 86.617188 L 83.011719 86.910156 L 82.941406 87.207031 L 82.875 87.503906 L 82.820313 87.804688 L 82.769531 88.105469 L 82.730469 88.40625 L 82.695313 88.707031 L 82.667969 89.011719 L 82.648438 89.316406 L 82.636719 89.621094 L 82.632813 89.921875 L 82.636719 90.226563 L 82.648438 90.53125 "
       id="path49" />
    <path
       style="fill:none;stroke-width:1.18;stroke-linecap:round;stroke-linejoin:round;stroke:rgb(0%,0%,0%);stroke-opacity:1;stroke-miterlimit:4;"
       d="M 82.648438 90.53125 L 82.667969 90.835938 L 82.695313 91.140625 L 82.730469 91.441406 L 82.769531 91.742188 L 82.820313 92.042969 L 82.878906 92.34375 L 82.941406 92.640625 L 83.011719 92.9375 L 83.089844 93.230469 L 83.175781 93.523438 L 83.269531 93.8125 L 83.371094 94.097656 L 83.480469 94.382813 L 83.59375 94.667969 L 83.714844 94.945313 L 83.84375 95.21875 L 83.980469 95.492188 L 84.121094 95.761719 L 84.269531 96.027344 L 84.425781 96.289063 L 84.589844 96.546875 L 84.757813 96.800781 L 84.929688 97.050781 L 85.113281 97.296875 L 85.300781 97.535156 L 85.492188 97.769531 L 85.691406 98 L 85.894531 98.226563 L 86.105469 98.449219 L 86.320313 98.664063 L 86.539063 98.871094 L 86.765625 99.078125 L 86.996094 99.277344 L 87.234375 99.46875 L 87.472656 99.65625 L 87.71875 99.835938 L 87.96875 100.011719 L 88.222656 100.179688 L 88.480469 100.339844 L 88.742188 100.496094 L 89.007813 100.644531 L 89.273438 100.789063 L 89.546875 100.921875 L 89.824219 101.050781 L 90.101563 101.171875 L 90.386719 101.289063 L 90.667969 101.394531 L 90.957031 101.496094 L 91.246094 101.589844 L 91.539063 101.675781 L 91.832031 101.753906 L 92.128906 101.824219 L 92.425781 101.890625 L 92.726563 101.945313 L 93.027344 101.996094 L 93.328125 102.035156 L 93.628906 102.070313 L 93.933594 102.097656 L 94.238281 102.117188 L 94.542969 102.128906 L 95.148438 102.128906 L 95.453125 102.117188 L 95.757813 102.097656 L 96.0625 102.070313 L 96.363281 102.035156 L 96.664063 101.992188 L 96.964844 101.945313 L 97.265625 101.886719 L 97.5625 101.824219 L 97.859375 101.753906 L 98.152344 101.671875 L 98.445313 101.585938 L 98.734375 101.496094 L 99.019531 101.394531 L 99.304688 101.285156 L 99.585938 101.171875 L 99.867188 101.050781 L 100.140625 100.921875 L 100.414063 100.785156 L 100.683594 100.640625 L 100.949219 100.492188 L 101.210938 100.339844 L 101.46875 100.175781 L 101.722656 100.007813 L 101.972656 99.832031 L 102.214844 99.652344 L 102.457031 99.464844 L 102.691406 99.273438 L 102.921875 99.074219 L 103.148438 98.871094 L 103.371094 98.660156 L 103.585938 98.445313 L 104 98 L 104.199219 97.765625 L 104.390625 97.53125 L 104.578125 97.292969 L 104.757813 97.046875 L 104.929688 96.796875 L 105.101563 96.542969 L 105.261719 96.285156 L 105.417969 96.023438 L 105.566406 95.757813 L 105.707031 95.488281 L 105.84375 95.214844 L 105.972656 94.941406 L 106.09375 94.660156 L 106.207031 94.378906 L 106.316406 94.09375 L 106.417969 93.808594 L 106.511719 93.515625 L 106.597656 93.226563 L 106.675781 92.929688 L 106.746094 92.636719 L 106.808594 92.339844 L 106.867188 92.039063 L 106.914063 91.738281 L 106.957031 91.4375 L 106.992188 91.132813 L 107.015625 90.832031 L 107.035156 90.527344 L 107.046875 90.222656 L 107.050781 89.917969 L 107.046875 89.613281 L 107.035156 89.308594 L 107.015625 89.007813 L 106.992188 88.703125 "
       id="path51" />
    <path
       style="fill:none;stroke-width:1.686;stroke-linecap:round;stroke-linejoin:round;stroke:rgb(0%,0%,0%);stroke-opacity:1;stroke-miterlimit:4;"
       d="M 88.058594 96.703125 L 101.625 83.140625 "
       id="path53" />
    <path
       style=" stroke:none;fill-rule:nonzero;fill:rgb(100%,100%,100%);fill-opacity:1;"
       d="M 64.320313 28.878906 L 76.53125 28.878906 L 76.523438 28.574219 L 76.511719 28.269531 L 76.496094 27.964844 L 76.46875 27.660156 L 76.433594 27.359375 L 76.390625 27.058594 L 76.34375 26.757813 L 76.289063 26.457031 L 76.222656 26.160156 L 76.152344 25.863281 L 76.074219 25.570313 L 75.988281 25.277344 L 75.894531 24.988281 L 75.792969 24.703125 L 75.683594 24.417969 L 75.570313 24.132813 L 75.449219 23.855469 L 75.320313 23.578125 L 75.183594 23.308594 L 75.042969 23.039063 L 74.894531 22.773438 L 74.738281 22.511719 L 74.574219 22.253906 L 74.40625 22 L 74.234375 21.75 L 74.050781 21.503906 L 73.867188 21.265625 L 73.671875 21.03125 L 73.472656 20.796875 L 73.269531 20.574219 L 73.058594 20.351563 L 72.84375 20.136719 L 72.625 19.925781 L 72.398438 19.722656 L 72.167969 19.523438 L 71.933594 19.332031 L 71.691406 19.144531 L 71.445313 18.964844 L 71.199219 18.789063 L 70.945313 18.621094 L 70.6875 18.460938 L 70.425781 18.304688 L 70.160156 18.15625 L 69.890625 18.011719 L 69.617188 17.878906 L 69.339844 17.75 L 69.0625 17.628906 L 68.78125 17.511719 L 68.496094 17.40625 L 68.207031 17.304688 L 67.917969 17.210938 L 67.625 17.125 L 67.332031 17.046875 L 67.035156 16.972656 L 66.738281 16.910156 L 66.4375 16.855469 L 66.140625 16.804688 L 65.835938 16.761719 L 65.535156 16.730469 L 65.230469 16.703125 L 64.929688 16.683594 L 64.625 16.671875 L 64.320313 16.667969 L 64.015625 16.671875 L 63.710938 16.683594 L 63.40625 16.703125 L 63.105469 16.730469 L 62.800781 16.761719 L 62.5 16.804688 L 62.199219 16.855469 L 61.898438 16.910156 L 61.601563 16.976563 L 61.308594 17.046875 L 61.011719 17.125 L 60.722656 17.210938 L 60.429688 17.304688 L 60.144531 17.40625 L 59.859375 17.511719 L 59.578125 17.628906 L 59.296875 17.75 L 59.023438 17.878906 L 58.75 18.011719 L 58.480469 18.15625 L 58.214844 18.304688 L 57.953125 18.460938 L 57.695313 18.621094 L 57.441406 18.789063 L 57.195313 18.964844 L 56.949219 19.144531 L 56.707031 19.332031 L 56.472656 19.527344 L 56.242188 19.722656 L 56.015625 19.929688 L 55.796875 20.136719 L 55.582031 20.351563 L 55.371094 20.574219 L 55.167969 20.800781 L 54.96875 21.03125 L 54.773438 21.265625 L 54.40625 21.75 L 54.230469 22 L 54.0625 22.253906 L 53.902344 22.511719 L 53.746094 22.773438 L 53.597656 23.039063 L 53.457031 23.308594 L 53.320313 23.582031 L 53.191406 23.855469 L 53.070313 24.136719 L 52.957031 24.417969 L 52.847656 24.703125 L 52.746094 24.992188 L 52.65625 25.28125 L 52.570313 25.574219 L 52.488281 25.867188 L 52.417969 26.164063 L 52.355469 26.460938 L 52.296875 26.757813 L 52.25 27.058594 L 52.207031 27.359375 L 52.171875 27.664063 L 52.144531 27.964844 L 52.128906 28.269531 L 52.117188 28.574219 L 52.113281 28.878906 L 52.117188 29.183594 L 52.128906 29.488281 L 64.320313 28.878906 "
       id="path55" />
    <path
       style=" stroke:none;fill-rule:nonzero;fill:rgb(100%,100%,100%);fill-opacity:1;"
       d="M 64.320313 28.878906 L 52.128906 29.488281 L 52.144531 29.792969 L 52.171875 30.09375 L 52.207031 30.394531 L 52.25 30.699219 L 52.296875 31 L 52.355469 31.296875 L 52.417969 31.59375 L 52.492188 31.890625 L 52.570313 32.183594 L 52.65625 32.476563 L 52.75 32.765625 L 52.847656 33.054688 L 52.957031 33.339844 L 53.070313 33.621094 L 53.195313 33.898438 L 53.324219 34.175781 L 53.457031 34.449219 L 53.597656 34.71875 L 53.75 34.984375 L 53.90625 35.246094 L 54.066406 35.503906 L 54.234375 35.757813 L 54.410156 36.003906 L 54.589844 36.25 L 54.777344 36.492188 L 54.96875 36.726563 L 55.167969 36.957031 L 55.371094 37.183594 L 55.582031 37.402344 L 55.796875 37.617188 L 56.019531 37.828125 L 56.246094 38.03125 L 56.472656 38.230469 L 56.710938 38.421875 L 56.949219 38.609375 L 57.195313 38.789063 L 57.445313 38.964844 L 57.699219 39.132813 L 57.957031 39.296875 L 58.21875 39.453125 L 58.484375 39.597656 L 58.753906 39.742188 L 59.023438 39.878906 L 59.300781 40.007813 L 59.582031 40.128906 L 59.863281 40.242188 L 60.148438 40.351563 L 60.433594 40.449219 L 60.722656 40.542969 L 61.015625 40.628906 L 61.308594 40.707031 L 61.605469 40.78125 L 61.902344 40.84375 L 62.203125 40.902344 L 62.503906 40.949219 L 62.804688 40.992188 L 63.105469 41.027344 L 63.410156 41.050781 L 63.714844 41.070313 L 64.019531 41.082031 L 64.324219 41.085938 L 64.628906 41.082031 L 64.929688 41.070313 L 65.234375 41.050781 L 65.539063 41.023438 L 65.839844 40.992188 L 66.140625 40.949219 L 66.445313 40.898438 L 66.742188 40.84375 L 67.039063 40.777344 L 67.335938 40.707031 L 67.628906 40.628906 L 67.921875 40.542969 L 68.210938 40.449219 L 68.5 40.347656 L 68.785156 40.242188 L 69.066406 40.125 L 69.34375 40.003906 L 69.621094 39.875 L 69.890625 39.738281 L 70.160156 39.597656 L 70.425781 39.449219 L 70.6875 39.292969 L 70.945313 39.132813 L 71.199219 38.960938 L 71.449219 38.789063 L 71.695313 38.605469 L 71.933594 38.421875 L 72.171875 38.226563 L 72.402344 38.027344 L 72.625 37.824219 L 72.847656 37.613281 L 73.0625 37.398438 L 73.273438 37.179688 L 73.476563 36.953125 L 73.675781 36.722656 L 73.867188 36.488281 L 74.054688 36.246094 L 74.234375 36 L 74.410156 35.75 L 74.578125 35.5 L 74.738281 35.242188 L 74.894531 34.976563 L 75.042969 34.714844 L 75.1875 34.445313 L 75.320313 34.171875 L 75.449219 33.894531 L 75.570313 33.617188 L 75.6875 33.335938 L 75.792969 33.050781 L 75.894531 32.761719 L 75.988281 32.472656 L 76.074219 32.179688 L 76.152344 31.886719 L 76.222656 31.589844 L 76.289063 31.292969 L 76.34375 30.992188 L 76.394531 30.695313 L 76.433594 30.390625 L 76.46875 30.089844 L 76.496094 29.785156 L 76.515625 29.480469 L 76.523438 29.179688 L 76.53125 28.875 L 76.523438 28.570313 L 76.511719 28.265625 L 76.496094 27.960938 L 76.46875 27.660156 L 64.320313 28.878906 "
       id="path57" />
    <path
       style="fill:none;stroke-width:0.674;stroke-linecap:round;stroke-linejoin:round;stroke:rgb(49.803162%,49.803162%,49.803162%);stroke-opacity:1;stroke-miterlimit:4;"
       d="M 55.164063 28.878906 L 73.476563 28.878906 M 64.320313 33.457031 L 64.320313 24.296875 "
       id="path59" />
    <path
       style="fill:none;stroke-width:1.686;stroke-linecap:round;stroke-linejoin:round;stroke:rgb(0%,0%,0%);stroke-opacity:1;stroke-miterlimit:4;"
       d="M 55.417969 32.46875 L 56.160156 32.324219 L 56.902344 32.148438 L 57.644531 31.949219 L 58.386719 31.71875 L 59.128906 31.460938 L 59.871094 31.167969 L 60.613281 30.847656 L 61.351563 30.496094 L 62.09375 30.117188 L 62.835938 29.714844 L 63.578125 29.300781 L 64.320313 28.878906 L 65.0625 28.453125 L 65.804688 28.039063 L 66.546875 27.640625 L 67.289063 27.261719 L 68.03125 26.910156 L 68.769531 26.585938 L 69.511719 26.292969 L 70.253906 26.035156 L 70.996094 25.804688 L 71.738281 25.605469 L 72.480469 25.433594 L 73.222656 25.285156 "
       id="path61" />
    <path
       style="fill:none;stroke-width:1.18;stroke-linecap:round;stroke-linejoin:round;stroke:rgb(0%,0%,0%);stroke-opacity:1;stroke-miterlimit:4;"
       d="M 76.53125 28.878906 L 76.523438 28.574219 L 76.511719 28.269531 L 76.496094 27.964844 L 76.46875 27.660156 L 76.433594 27.359375 L 76.390625 27.058594 L 76.34375 26.757813 L 76.289063 26.457031 L 76.222656 26.160156 L 76.152344 25.863281 L 76.074219 25.570313 L 75.988281 25.277344 L 75.894531 24.988281 L 75.792969 24.703125 L 75.683594 24.417969 L 75.570313 24.132813 L 75.449219 23.855469 L 75.320313 23.578125 L 75.183594 23.308594 L 75.042969 23.039063 L 74.894531 22.773438 L 74.738281 22.511719 L 74.574219 22.253906 L 74.40625 22 L 74.234375 21.75 L 74.050781 21.503906 L 73.867188 21.265625 L 73.671875 21.03125 L 73.472656 20.796875 L 73.269531 20.574219 L 73.058594 20.351563 L 72.84375 20.136719 L 72.625 19.925781 L 72.398438 19.722656 L 72.167969 19.523438 L 71.933594 19.332031 L 71.691406 19.144531 L 71.445313 18.964844 L 71.199219 18.789063 L 70.945313 18.621094 L 70.6875 18.460938 L 70.425781 18.304688 L 70.160156 18.15625 L 69.890625 18.011719 L 69.617188 17.878906 L 69.339844 17.75 L 69.0625 17.628906 L 68.78125 17.511719 L 68.496094 17.40625 L 68.207031 17.304688 L 67.917969 17.210938 L 67.625 17.125 L 67.332031 17.046875 L 67.035156 16.972656 L 66.738281 16.910156 L 66.4375 16.855469 L 66.140625 16.804688 L 65.835938 16.761719 L 65.535156 16.730469 L 65.230469 16.703125 L 64.929688 16.683594 L 64.625 16.671875 L 64.320313 16.667969 L 64.015625 16.671875 L 63.710938 16.683594 L 63.40625 16.703125 L 63.105469 16.730469 L 62.800781 16.761719 L 62.5 16.804688 L 62.199219 16.855469 L 61.898438 16.910156 L 61.601563 16.976563 L 61.308594 17.046875 L 61.011719 17.125 L 60.722656 17.210938 L 60.429688 17.304688 L 60.144531 17.40625 L 59.859375 17.511719 L 59.578125 17.628906 L 59.296875 17.75 L 59.023438 17.878906 L 58.75 18.011719 L 58.480469 18.15625 L 58.214844 18.304688 L 57.953125 18.460938 L 57.695313 18.621094 L 57.441406 18.789063 L 57.195313 18.964844 L 56.949219 19.144531 L 56.707031 19.332031 L 56.472656 19.527344 L 56.242188 19.722656 L 56.015625 19.929688 L 55.796875 20.136719 L 55.582031 20.351563 L 55.371094 20.574219 L 55.167969 20.800781 L 54.96875 21.03125 L 54.773438 21.265625 L 54.40625 21.75 L 54.230469 22 L 54.0625 22.253906 L 53.902344 22.511719 L 53.746094 22.773438 L 53.597656 23.039063 L 53.457031 23.308594 L 53.320313 23.582031 L 53.191406 23.855469 L 53.070313 24.136719 L 52.957031 24.417969 L 52.847656 24.703125 L 52.746094 24.992188 L 52.65625 25.28125 L 52.570313 25.574219 L 52.488281 25.867188 L 52.417969 26.164063 L 52.355469 26.460938 L 52.296875 26.757813 L 52.25 27.058594 L 52.207031 27.359375 L 52.171875 27.664063 L 52.144531 27.964844 L 52.128906 28.269531 L 52.117188 28.574219 L 52.113281 28.878906 L 52.117188 29.183594 L 52.128906 29.488281 "
       id="path63" />
    <path
       style="fill:none;stroke-width:1.18;stroke-linecap:round;stroke-linejoin:round;stroke:rgb(0%,0%,0%);stroke-opacity:1;stroke-miterlimit:4;"
       d="M 52.128906 29.488281 L 52.144531 29.792969 L 52.171875 30.09375 L 52.207031 30.394531 L 52.25 30.699219 L 52.296875 31 L 52.355469 31.296875 L 52.417969 31.59375 L 52.492188 31.890625 L 52.570313 32.183594 L 52.65625 32.476563 L 52.75 32.765625 L 52.847656 33.054688 L 52.957031 33.339844 L 53.070313 33.621094 L 53.195313 33.898438 L 53.324219 34.175781 L 53.457031 34.449219 L 53.597656 34.71875 L 53.75 34.984375 L 53.90625 35.246094 L 54.066406 35.503906 L 54.234375 35.757813 L 54.410156 36.003906 L 54.589844 36.25 L 54.777344 36.492188 L 54.96875 36.726563 L 55.167969 36.957031 L 55.371094 37.183594 L 55.582031 37.402344 L 55.796875 37.617188 L 56.019531 37.828125 L 56.246094 38.03125 L 56.472656 38.230469 L 56.710938 38.421875 L 56.949219 38.609375 L 57.195313 38.789063 L 57.445313 38.964844 L 57.699219 39.132813 L 57.957031 39.296875 L 58.21875 39.453125 L 58.484375 39.597656 L 58.753906 39.742188 L 59.023438 39.878906 L 59.300781 40.007813 L 59.582031 40.128906 L 59.863281 40.242188 L 60.148438 40.351563 L 60.433594 40.449219 L 60.722656 40.542969 L 61.015625 40.628906 L 61.308594 40.707031 L 61.605469 40.78125 L 61.902344 40.84375 L 62.203125 40.902344 L 62.503906 40.949219 L 62.804688 40.992188 L 63.105469 41.027344 L 63.410156 41.050781 L 63.714844 41.070313 L 64.019531 41.082031 L 64.324219 41.085938 L 64.628906 41.082031 L 64.929688 41.070313 L 65.234375 41.050781 L 65.539063 41.023438 L 65.839844 40.992188 L 66.140625 40.949219 L 66.445313 40.898438 L 66.742188 40.84375 L 67.039063 40.777344 L 67.335938 40.707031 L 67.628906 40.628906 L 67.921875 40.542969 L 68.210938 40.449219 L 68.5 40.347656 L 68.785156 40.242188 L 69.066406 40.125 L 69.34375 40.003906 L 69.621094 39.875 L 69.890625 39.738281 L 70.160156 39.597656 L 70.425781 39.449219 L 70.6875 39.292969 L 70.945313 39.132813 L 71.199219 38.960938 L 71.449219 38.789063 L 71.695313 38.605469 L 71.933594 38.421875 L 72.171875 38.226563 L 72.402344 38.027344 L 72.625 37.824219 L 72.847656 37.613281 L 73.0625 37.398438 L 73.273438 37.179688 L 73.476563 36.953125 L 73.675781 36.722656 L 73.867188 36.488281 L 74.054688 36.246094 L 74.234375 36 L 74.410156 35.75 L 74.578125 35.5 L 74.738281 35.242188 L 74.894531 34.976563 L 75.042969 34.714844 L 75.1875 34.445313 L 75.320313 34.171875 L 75.449219 33.894531 L 75.570313 33.617188 L 75.6875 33.335938 L 75.792969 33.050781 L 75.894531 32.761719 L 75.988281 32.472656 L 76.074219 32.179688 L 76.152344 31.886719 L 76.222656 31.589844 L 76.289063 31.292969 L 76.34375 30.992188 L 76.394531 30.695313 L 76.433594 30.390625 L 76.46875 30.089844 L 76.496094 29.785156 L 76.515625 29.480469 L 76.523438 29.179688 L 76.53125 28.875 L 76.523438 28.570313 L 76.511719 28.265625 L 76.496094 27.960938 L 76.46875 27.660156 "
       id="path65" />
    <path
       style="fill:none;stroke-width:0.306;stroke-linecap:round;stroke-linejoin:round;stroke:rgb(0%,0%,0%);stroke-opacity:1;stroke-miterlimit:4;"
       d="M 160.054688 18.304688 L 266.6875 18.304688 M 266.6875 124.9375 L 266.6875 18.304688 "
       id="path67" />
    <path
       style=" stroke:none;fill-rule:nonzero;fill:rgb(79.214478%,79.214478%,79.214478%);fill-opacity:1;"
       d="M 162.105469 20.355469 L 264.636719 20.355469 L 264.636719 122.890625 L 162.105469 122.890625 Z M 162.105469 20.355469 "
       id="path69" />
    <path
       style=" stroke:none;fill-rule:nonzero;fill:rgb(100%,100%,100%);fill-opacity:1;"
       d="M 162.105469 119.910156 L 174.496094 108.242188 L 176.753906 106.113281 L 182.269531 100.917969 L 184.078125 99.214844 L 190.046875 93.59375 L 191.402344 92.316406 L 197.820313 86.269531 L 198.726563 85.417969 L 205.597656 78.945313 L 206.050781 78.519531 L 220.695313 64.726563 L 221.148438 64.300781 L 228.019531 57.828125 L 228.921875 56.976563 L 235.34375 50.929688 L 236.699219 49.652344 L 242.667969 44.03125 L 244.472656 42.328125 L 249.992188 37.132813 L 252.25 35.003906 L 257.3125 30.234375 L 264.636719 23.335938 L 264.636719 20.355469 L 162.105469 20.355469 L 162.105469 119.910156 "
       id="path71" />
    <path
       style="fill:none;stroke-width:0.3;stroke-linecap:round;stroke-linejoin:round;stroke:rgb(0%,0%,0%);stroke-opacity:1;stroke-miterlimit:4;"
       d="M 162.105469 119.910156 L 174.496094 108.242188 L 176.753906 106.113281 L 182.269531 100.917969 L 184.078125 99.214844 L 190.046875 93.59375 L 191.402344 92.316406 L 197.820313 86.269531 L 198.726563 85.417969 L 205.597656 78.945313 L 206.050781 78.519531 L 220.695313 64.726563 L 221.148438 64.300781 L 228.019531 57.828125 L 228.921875 56.976563 L 235.34375 50.929688 L 236.699219 49.652344 L 242.667969 44.03125 L 244.472656 42.328125 L 249.992188 37.132813 L 252.25 35.003906 L 257.3125 30.234375 L 264.636719 23.335938 "
       id="path73" />
    <path
       style=" stroke:none;fill-rule:nonzero;fill:rgb(12.940979%,11.764526%,11.764526%);fill-opacity:1;"
       d="M 35.738281 112.5625 C 35.441406 112.890625 35.222656 113.296875 35.003906 113.296875 C 34.785156 113.296875 34.707031 113.015625 34.660156 112.84375 C 34.597656 112.578125 34.238281 111.109375 34.238281 110.921875 C 34.238281 110.921875 34.972656 109.609375 35.285156 109.609375 C 35.519531 109.609375 35.597656 109.796875 35.847656 109.796875 C 36.113281 109.796875 36.222656 109.59375 36.222656 109.390625 C 36.222656 109.140625 35.988281 109 35.785156 109 C 35.222656 109 34.707031 109.65625 34.144531 110.546875 L 34.035156 109.953125 C 33.832031 109 33.675781 109 33.441406 109 C 33.082031 109 32.378906 109.265625 32.082031 109.359375 L 32.128906 109.515625 C 32.472656 109.4375 32.628906 109.40625 32.722656 109.40625 C 33.019531 109.40625 33.050781 109.5625 33.160156 109.890625 C 33.160156 109.9375 33.535156 111.375 33.535156 111.484375 C 32.566406 112.890625 32.285156 113.265625 32.097656 113.265625 C 31.894531 113.265625 31.707031 113.046875 31.472656 113.046875 C 31.238281 113.046875 31.097656 113.25 31.097656 113.421875 C 31.097656 113.671875 31.269531 113.890625 31.628906 113.890625 C 31.972656 113.890625 32.097656 113.765625 32.285156 113.5625 C 32.644531 113.15625 33.097656 112.578125 33.613281 111.859375 L 33.941406 113.15625 C 34.082031 113.734375 34.238281 113.890625 34.550781 113.890625 C 34.800781 113.890625 35.113281 113.890625 35.878906 112.65625 Z M 35.738281 112.5625 "
       id="path75" />
    <path
       style=" stroke:none;fill-rule:nonzero;fill:rgb(12.940979%,11.764526%,11.764526%);fill-opacity:1;"
       d="M 36.453125 115.566406 L 37.953125 115.566406 L 37.953125 115.488281 C 37.6875 115.488281 37.5 115.472656 37.5 115.300781 C 37.5 115.222656 37.5625 115.019531 37.59375 114.910156 L 38.359375 112.113281 C 38.390625 112.019531 38.421875 111.910156 38.375 111.910156 C 38.328125 111.910156 37.578125 112.066406 37.328125 112.113281 L 37.328125 112.191406 L 37.640625 112.191406 C 37.6875 112.191406 37.84375 112.191406 37.84375 112.363281 C 37.84375 112.410156 37.8125 112.472656 37.796875 112.535156 L 37.0625 115.191406 C 36.984375 115.441406 36.765625 115.457031 36.453125 115.488281 Z M 36.453125 115.566406 "
       id="path77" />
    <path
       style=" stroke:none;fill-rule:nonzero;fill:rgb(12.940979%,11.764526%,11.764526%);fill-opacity:1;"
       d="M 97.335938 112.5625 C 97.039063 112.890625 96.820313 113.296875 96.601563 113.296875 C 96.382813 113.296875 96.304688 113.015625 96.257813 112.84375 C 96.195313 112.578125 95.835938 111.109375 95.835938 110.921875 C 95.835938 110.921875 96.570313 109.609375 96.882813 109.609375 C 97.117188 109.609375 97.195313 109.796875 97.445313 109.796875 C 97.710938 109.796875 97.820313 109.59375 97.820313 109.390625 C 97.820313 109.140625 97.585938 109 97.382813 109 C 96.820313 109 96.304688 109.65625 95.742188 110.546875 L 95.632813 109.953125 C 95.429688 109 95.273438 109 95.039063 109 C 94.679688 109 93.976563 109.265625 93.679688 109.359375 L 93.726563 109.515625 C 94.070313 109.4375 94.226563 109.40625 94.320313 109.40625 C 94.617188 109.40625 94.648438 109.5625 94.757813 109.890625 C 94.757813 109.9375 95.132813 111.375 95.132813 111.484375 C 94.164063 112.890625 93.882813 113.265625 93.695313 113.265625 C 93.492188 113.265625 93.304688 113.046875 93.070313 113.046875 C 92.835938 113.046875 92.695313 113.25 92.695313 113.421875 C 92.695313 113.671875 92.867188 113.890625 93.226563 113.890625 C 93.570313 113.890625 93.695313 113.765625 93.882813 113.5625 C 94.242188 113.15625 94.695313 112.578125 95.210938 111.859375 L 95.539063 113.15625 C 95.679688 113.734375 95.835938 113.890625 96.148438 113.890625 C 96.398438 113.890625 96.710938 113.890625 97.476563 112.65625 Z M 97.335938 112.5625 "
       id="path79" />
    <path
       style=" stroke:none;fill-rule:nonzero;fill:rgb(12.940979%,11.764526%,11.764526%);fill-opacity:1;"
       d="M 99.945313 114.816406 C 99.867188 115.003906 99.773438 115.160156 99.414063 115.160156 L 98.382813 115.160156 L 98.382813 115.128906 L 99.429688 114.097656 C 100.101563 113.425781 100.226563 113.175781 100.226563 112.816406 C 100.226563 112.410156 99.929688 111.910156 99.351563 111.910156 C 99.226563 111.910156 98.507813 111.925781 98.226563 112.769531 L 98.335938 112.816406 C 98.414063 112.675781 98.617188 112.300781 99.101563 112.300781 C 99.523438 112.300781 99.773438 112.628906 99.773438 112.972656 C 99.773438 113.144531 99.742188 113.457031 98.992188 114.269531 L 97.851563 115.472656 L 97.851563 115.566406 L 99.773438 115.566406 L 100.039063 114.847656 Z M 99.945313 114.816406 "
       id="path81" />
    <path
       style="fill:none;stroke-width:0.318;stroke-linecap:round;stroke-linejoin:round;stroke:rgb(0%,0%,0%);stroke-opacity:1;stroke-miterlimit:4;"
       d="M 160.054688 124.9375 L 276.605469 124.9375 "
       id="path83" />
    <path
       style=" stroke:none;fill-rule:nonzero;fill:rgb(0%,0%,0%);fill-opacity:1;"
       d="M 278.109375 124.285156 C 277.054688 123.96875 276.371094 123.675781 275.527344 123.335938 L 275.527344 126.550781 C 275.828125 126.40625 277.054688 125.917969 278.109375 125.597656 C 279.238281 125.257813 280.257813 125.027344 280.921875 124.945313 C 280.257813 124.859375 279.238281 124.628906 278.109375 124.285156 "
       id="path85" />
    <path
       style="fill:none;stroke-width:0.318;stroke-linecap:round;stroke-linejoin:round;stroke:rgb(0%,0%,0%);stroke-opacity:1;stroke-miterlimit:4;"
       d="M 160.054688 124.9375 L 160.054688 12.050781 "
       id="path87" />
    <path
       style=" stroke:none;fill-rule:nonzero;fill:rgb(0%,0%,0%);fill-opacity:1;"
       d="M 159.402344 10.546875 C 159.085938 11.597656 158.792969 12.28125 158.453125 13.128906 L 161.667969 13.128906 C 161.523438 12.824219 161.035156 11.597656 160.714844 10.546875 C 160.375 9.417969 160.144531 8.394531 160.058594 7.734375 C 159.976563 8.394531 159.742188 9.417969 159.402344 10.546875 "
       id="path89" />
    <path
       style=" stroke:none;fill-rule:nonzero;fill:rgb(12.940979%,11.764526%,11.764526%);fill-opacity:1;"
       d="M 161.9375 3.5625 C 161.640625 3.890625 161.421875 4.296875 161.203125 4.296875 C 160.984375 4.296875 160.90625 4.015625 160.859375 3.84375 C 160.796875 3.578125 160.4375 2.109375 160.4375 1.921875 C 160.4375 1.921875 161.171875 0.609375 161.484375 0.609375 C 161.71875 0.609375 161.796875 0.796875 162.046875 0.796875 C 162.3125 0.796875 162.421875 0.59375 162.421875 0.390625 C 162.421875 0.140625 162.1875 0 161.984375 0 C 161.421875 0 160.90625 0.65625 160.34375 1.546875 L 160.234375 0.953125 C 160.03125 0 159.875 0 159.640625 0 C 159.28125 0 158.578125 0.265625 158.28125 0.359375 L 158.328125 0.515625 C 158.671875 0.4375 158.828125 0.40625 158.921875 0.40625 C 159.21875 0.40625 159.25 0.5625 159.359375 0.890625 C 159.359375 0.9375 159.734375 2.375 159.734375 2.484375 C 158.765625 3.890625 158.484375 4.265625 158.296875 4.265625 C 158.09375 4.265625 157.90625 4.046875 157.671875 4.046875 C 157.4375 4.046875 157.296875 4.25 157.296875 4.421875 C 157.296875 4.671875 157.46875 4.890625 157.828125 4.890625 C 158.171875 4.890625 158.296875 4.765625 158.484375 4.5625 C 158.84375 4.15625 159.296875 3.578125 159.8125 2.859375 L 160.140625 4.15625 C 160.28125 4.734375 160.4375 4.890625 160.75 4.890625 C 161 4.890625 161.3125 4.890625 162.078125 3.65625 Z M 161.9375 3.5625 "
       id="path91" />
    <path
       style=" stroke:none;fill-rule:nonzero;fill:rgb(12.940979%,11.764526%,11.764526%);fill-opacity:1;"
       d="M 164.546875 5.816406 C 164.46875 6.003906 164.375 6.160156 164.015625 6.160156 L 162.984375 6.160156 L 162.984375 6.128906 L 164.03125 5.097656 C 164.703125 4.425781 164.828125 4.175781 164.828125 3.816406 C 164.828125 3.410156 164.53125 2.910156 163.953125 2.910156 C 163.828125 2.910156 163.109375 2.925781 162.828125 3.769531 L 162.9375 3.816406 C 163.015625 3.675781 163.21875 3.300781 163.703125 3.300781 C 164.125 3.300781 164.375 3.628906 164.375 3.972656 C 164.375 4.144531 164.34375 4.457031 163.59375 5.269531 L 162.453125 6.472656 L 162.453125 6.566406 L 164.375 6.566406 L 164.640625 5.847656 Z M 164.546875 5.816406 "
       id="path93" />
    <path
       style=" stroke:none;fill-rule:nonzero;fill:rgb(12.940979%,11.764526%,11.764526%);fill-opacity:1;"
       d="M 191.65625 49.699219 C 193.8125 49.699219 194.28125 50.246094 194.28125 50.902344 C 194.28125 51.511719 193.859375 52.839844 191.9375 52.917969 C 191.375 52.933594 191.015625 53.339844 191.015625 53.449219 C 191.015625 53.511719 191.0625 53.511719 191.0625 53.511719 C 191.421875 53.558594 191.65625 53.605469 192.359375 55.105469 C 192.875 56.230469 193.1875 56.699219 193.8125 56.699219 C 195.125 56.699219 196.421875 55.371094 196.421875 55.121094 C 196.421875 55.058594 196.34375 55.058594 196.296875 55.058594 C 196.109375 55.058594 195.703125 55.261719 195.53125 55.511719 C 195.328125 55.777344 195.078125 56.105469 194.53125 56.105469 C 194 56.105469 193.640625 55.324219 193.28125 54.558594 C 192.9375 53.824219 192.78125 53.542969 192.5625 53.277344 C 194.296875 52.621094 195.21875 51.480469 195.21875 50.433594 C 195.21875 49.089844 193.421875 49.089844 191.6875 49.089844 C 190.5 49.089844 189.765625 49.089844 188.75 49.605469 C 187.421875 50.277344 187.328125 51.105469 187.328125 51.105469 C 187.328125 51.136719 187.328125 51.199219 187.421875 51.199219 C 187.625 51.199219 188.15625 50.933594 188.265625 50.652344 C 188.40625 50.246094 188.5625 49.761719 190.15625 49.699219 C 190.03125 50.964844 189.828125 53.183594 188.484375 56.433594 C 188.40625 56.589844 188.40625 56.621094 188.40625 56.636719 C 188.40625 56.699219 188.484375 56.699219 188.515625 56.699219 C 188.75 56.699219 189.171875 56.449219 189.3125 56.246094 C 189.328125 56.214844 189.5625 55.714844 189.890625 54.777344 C 190.4375 53.277344 190.859375 51.527344 191.0625 49.699219 Z M 191.65625 49.699219 "
       id="path95" />
    <path
       style=" stroke:none;fill-rule:nonzero;fill:rgb(12.940979%,11.764526%,11.764526%);fill-opacity:1;"
       d="M 196.828125 58.265625 L 198.5 58.265625 L 198.5 58.171875 C 198.203125 58.1875 197.984375 58.15625 197.984375 57.984375 C 197.984375 57.875 198.0625 57.65625 198.09375 57.546875 L 198.953125 54.421875 C 198.984375 54.328125 199.015625 54.203125 198.96875 54.203125 C 198.90625 54.203125 198.078125 54.390625 197.796875 54.4375 L 197.796875 54.53125 L 198.140625 54.515625 C 198.1875 54.515625 198.375 54.515625 198.375 54.703125 C 198.375 54.75 198.34375 54.84375 198.328125 54.90625 L 197.5 57.859375 C 197.421875 58.125 197.171875 58.140625 196.828125 58.1875 Z M 196.828125 58.265625 "
       id="path97" />
    <path
       style=" stroke:none;fill-rule:nonzero;fill:rgb(86.273193%,14.901733%,13.725281%);fill-opacity:1;"
       d="M 225.855469 89.898438 C 228.011719 89.898438 228.480469 90.445313 228.480469 91.101563 C 228.480469 91.710938 228.058594 93.039063 226.136719 93.117188 C 225.574219 93.132813 225.214844 93.539063 225.214844 93.648438 C 225.214844 93.710938 225.261719 93.710938 225.261719 93.710938 C 225.621094 93.757813 225.855469 93.804688 226.558594 95.304688 C 227.074219 96.429688 227.386719 96.898438 228.011719 96.898438 C 229.324219 96.898438 230.621094 95.570313 230.621094 95.320313 C 230.621094 95.257813 230.542969 95.257813 230.496094 95.257813 C 230.308594 95.257813 229.902344 95.460938 229.730469 95.710938 C 229.527344 95.976563 229.277344 96.304688 228.730469 96.304688 C 228.199219 96.304688 227.839844 95.523438 227.480469 94.757813 C 227.136719 94.023438 226.980469 93.742188 226.761719 93.476563 C 228.496094 92.820313 229.417969 91.679688 229.417969 90.632813 C 229.417969 89.289063 227.621094 89.289063 225.886719 89.289063 C 224.699219 89.289063 223.964844 89.289063 222.949219 89.804688 C 221.621094 90.476563 221.527344 91.304688 221.527344 91.304688 C 221.527344 91.335938 221.527344 91.398438 221.621094 91.398438 C 221.824219 91.398438 222.355469 91.132813 222.464844 90.851563 C 222.605469 90.445313 222.761719 89.960938 224.355469 89.898438 C 224.230469 91.164063 224.027344 93.382813 222.683594 96.632813 C 222.605469 96.789063 222.605469 96.820313 222.605469 96.835938 C 222.605469 96.898438 222.683594 96.898438 222.714844 96.898438 C 222.949219 96.898438 223.371094 96.648438 223.511719 96.445313 C 223.527344 96.414063 223.761719 95.914063 224.089844 94.976563 C 224.636719 93.476563 225.058594 91.726563 225.261719 89.898438 Z M 225.855469 89.898438 "
       id="path99" />
    <path
       style=" stroke:none;fill-rule:nonzero;fill:rgb(86.273193%,14.901733%,13.725281%);fill-opacity:1;"
       d="M 233.136719 97.636719 C 233.027344 97.839844 232.933594 98.011719 232.542969 98.011719 L 231.402344 98.011719 L 231.402344 97.980469 L 232.542969 96.824219 C 233.292969 96.089844 233.449219 95.808594 233.449219 95.417969 C 233.449219 94.964844 233.105469 94.402344 232.464844 94.402344 C 232.324219 94.402344 231.527344 94.433594 231.214844 95.371094 L 231.339844 95.417969 C 231.417969 95.261719 231.652344 94.839844 232.183594 94.839844 C 232.652344 94.839844 232.933594 95.199219 232.933594 95.574219 C 232.933594 95.777344 232.902344 96.121094 232.058594 97.011719 L 230.808594 98.355469 L 230.808594 98.464844 L 232.933594 98.464844 L 233.230469 97.667969 Z M 233.136719 97.636719 "
       id="path101" />
    <path
       style=" stroke:none;fill-rule:nonzero;fill:rgb(12.940979%,11.764526%,11.764526%);fill-opacity:1;"
       d="M 288.335938 125.460938 C 288.039063 125.789063 287.820313 126.195313 287.601563 126.195313 C 287.382813 126.195313 287.304688 125.914063 287.257813 125.742188 C 287.195313 125.476563 286.835938 124.007813 286.835938 123.820313 C 286.835938 123.820313 287.570313 122.507813 287.882813 122.507813 C 288.117188 122.507813 288.195313 122.695313 288.445313 122.695313 C 288.710938 122.695313 288.820313 122.492188 288.820313 122.289063 C 288.820313 122.039063 288.585938 121.898438 288.382813 121.898438 C 287.820313 121.898438 287.304688 122.554688 286.742188 123.445313 L 286.632813 122.851563 C 286.429688 121.898438 286.273438 121.898438 286.039063 121.898438 C 285.679688 121.898438 284.976563 122.164063 284.679688 122.257813 L 284.726563 122.414063 C 285.070313 122.335938 285.226563 122.304688 285.320313 122.304688 C 285.617188 122.304688 285.648438 122.460938 285.757813 122.789063 C 285.757813 122.835938 286.132813 124.273438 286.132813 124.382813 C 285.164063 125.789063 284.882813 126.164063 284.695313 126.164063 C 284.492188 126.164063 284.304688 125.945313 284.070313 125.945313 C 283.835938 125.945313 283.695313 126.148438 283.695313 126.320313 C 283.695313 126.570313 283.867188 126.789063 284.226563 126.789063 C 284.570313 126.789063 284.695313 126.664063 284.882813 126.460938 C 285.242188 126.054688 285.695313 125.476563 286.210938 124.757813 L 286.539063 126.054688 C 286.679688 126.632813 286.835938 126.789063 287.148438 126.789063 C 287.398438 126.789063 287.710938 126.789063 288.476563 125.554688 Z M 288.335938 125.460938 "
       id="path103" />
    <g
       clip-path="url(#clip1)"
       clip-rule="nonzero"
       id="g107">
      <path
         style=" stroke:none;fill-rule:nonzero;fill:rgb(12.940979%,11.764526%,11.764526%);fill-opacity:1;"
         d="M 289.054688 128.464844 L 290.554688 128.464844 L 290.554688 128.386719 C 290.289063 128.386719 290.101563 128.371094 290.101563 128.199219 C 290.101563 128.121094 290.164063 127.917969 290.195313 127.808594 L 290.960938 125.011719 C 290.992188 124.917969 291.023438 124.808594 290.976563 124.808594 C 290.929688 124.808594 290.179688 124.964844 289.929688 125.011719 L 289.929688 125.089844 L 290.242188 125.089844 C 290.289063 125.089844 290.445313 125.089844 290.445313 125.261719 C 290.445313 125.308594 290.414063 125.371094 290.398438 125.433594 L 289.664063 128.089844 C 289.585938 128.339844 289.367188 128.355469 289.054688 128.386719 Z M 289.054688 128.464844 "
         id="path105" />
    </g>
    <path
       style="fill:none;stroke-width:0.6;stroke-linecap:butt;stroke-linejoin:miter;stroke:rgb(0%,0%,0%);stroke-opacity:1;stroke-miterlimit:4;"
       d="M 63.792969 15.964844 L 63.792969 4.566406 "
       id="path109" />
    <path
       style=" stroke:none;fill-rule:nonzero;fill:rgb(0%,0%,0%);fill-opacity:1;"
       d="M 63.179688 3.148438 C 62.878906 4.140625 62.601563 4.785156 62.285156 5.582031 L 65.308594 5.582031 C 65.175781 5.296875 64.714844 4.140625 64.414063 3.148438 C 64.09375 2.085938 63.875 1.125 63.796875 0.5 C 63.71875 1.125 63.5 2.085938 63.179688 3.148438 "
       id="path111" />
  </g>
</svg>
