<?xml version="1.0" encoding="UTF-8" standalone="no"?>
<svg
   xmlns:dc="http://purl.org/dc/elements/1.1/"
   xmlns:cc="http://creativecommons.org/ns#"
   xmlns:rdf="http://www.w3.org/1999/02/22-rdf-syntax-ns#"
   xmlns:svg="http://www.w3.org/2000/svg"
   xmlns="http://www.w3.org/2000/svg"
   xmlns:sodipodi="http://sodipodi.sourceforge.net/DTD/sodipodi-0.dtd"
   xmlns:inkscape="http://www.inkscape.org/namespaces/inkscape"
   width="176.215607pt"
   height="110.428162pt"
   viewBox="0 0 176.215607 110.428162"
   version="1.2"
   id="svg124"
   sodipodi:docname="activation_function_orig.svg"
   inkscape:version="0.92.4 (5da689c313, 2019-01-14)">
  <metadata
     id="metadata128">
    <rdf:RDF>
      <cc:Work
         rdf:about="">
        <dc:format>image/svg+xml</dc:format>
        <dc:type
           rdf:resource="http://purl.org/dc/dcmitype/StillImage" />
        <dc:title></dc:title>
      </cc:Work>
    </rdf:RDF>
  </metadata>
  <sodipodi:namedview
     pagecolor="#ffffff"
     bordercolor="#666666"
     borderopacity="1"
     objecttolerance="10"
     gridtolerance="10"
     guidetolerance="10"
     inkscape:pageopacity="0"
     inkscape:pageshadow="2"
     inkscape:window-width="640"
     inkscape:window-height="480"
     id="namedview126"
     showgrid="false"
     inkscape:zoom="1.4641155"
     inkscape:cx="117.47707"
     inkscape:cy="73.618774"
     inkscape:window-x="0"
     inkscape:window-y="0"
     inkscape:window-maximized="0"
     inkscape:current-layer="svg124" />
  <defs
     id="defs17">
    <clipPath
       id="clip1">
      <path
         d="M 174 58 L 176.214844 58 L 176.214844 64 L 174 64 Z M 174 58 "
         id="path2" />
    </clipPath>
    <clipPath
       id="clip2">
      <path
         d="M 70 105 L 73 105 L 73 110.429688 L 70 110.429688 Z M 70 105 "
         id="path5" />
    </clipPath>
    <clipPath
       id="clip3">
      <path
         d="M 73 109 L 75 109 L 75 110.429688 L 73 110.429688 Z M 73 109 "
         id="path8" />
    </clipPath>
    <clipPath
       id="clip4">
      <path
         d="M 75 105 L 79 105 L 79 110.429688 L 75 110.429688 Z M 75 105 "
         id="path11" />
    </clipPath>
    <clipPath
       id="clip5">
      <path
         d="M 80 12 L 82 12 L 82 110.429688 L 80 110.429688 Z M 80 12 "
         id="path14" />
    </clipPath>
  </defs>
  <g
     id="surface32">
    <path
       style="fill:none;stroke-width:0.316;stroke-linecap:round;stroke-linejoin:round;stroke:rgb(0%,0%,0%);stroke-opacity:1;stroke-miterlimit:4;"
       d="M 5.636719 61.179688 L 5.636719 60.191406 "
       id="path19" />
    <path
       style=" stroke:none;fill-rule:nonzero;fill:rgb(0%,0%,0%);fill-opacity:1;"
       d="M 1.671875 68.9375 L 0.09375 68.9375 L 0 69.390625 L 1.578125 69.390625 Z M 1.671875 68.9375 "
       id="path21" />
    <path
       style=" stroke:none;fill-rule:nonzero;fill:rgb(0%,0%,0%);fill-opacity:1;"
       d="M 4.039063 69.046875 L 2.507813 69.046875 L 2.507813 69.015625 L 4.695313 66.71875 L 4.726563 66.71875 Z M 5.304688 69.046875 L 4.617188 69.046875 L 5.492188 65.90625 L 5.195313 65.90625 L 2.195313 69.015625 L 2.039063 69.5 L 3.929688 69.5 L 3.585938 70.78125 L 4.148438 70.78125 L 4.476563 69.515625 L 5.195313 69.515625 Z M 5.304688 69.046875 "
       id="path23" />
    <path
       style="fill:none;stroke-width:0.316;stroke-linecap:round;stroke-linejoin:round;stroke:rgb(0%,0%,0%);stroke-opacity:1;stroke-miterlimit:4;"
       d="M 43.296875 61.179688 L 43.296875 60.191406 "
       id="path25" />
    <path
       style=" stroke:none;fill-rule:nonzero;fill:rgb(0%,0%,0%);fill-opacity:1;"
       d="M 39.332031 68.9375 L 37.753906 68.9375 L 37.660156 69.390625 L 39.238281 69.390625 Z M 39.332031 68.9375 "
       id="path27" />
    <path
       style=" stroke:none;fill-rule:nonzero;fill:rgb(0%,0%,0%);fill-opacity:1;"
       d="M 42.574219 69.78125 C 42.464844 70.046875 42.339844 70.234375 41.871094 70.234375 L 40.496094 70.234375 L 40.496094 70.203125 L 41.886719 68.8125 C 42.777344 67.921875 42.949219 67.59375 42.949219 67.109375 C 42.949219 66.578125 42.558594 65.90625 41.792969 65.90625 C 41.605469 65.90625 40.667969 65.9375 40.277344 67.0625 L 40.433594 67.109375 C 40.527344 66.9375 40.808594 66.4375 41.449219 66.4375 C 42.011719 66.4375 42.339844 66.875 42.339844 67.3125 C 42.339844 67.546875 42.308594 67.96875 41.292969 69.046875 L 39.792969 70.65625 L 39.792969 70.78125 L 42.339844 70.78125 L 42.699219 69.828125 Z M 42.574219 69.78125 "
       id="path29" />
    <path
       style="fill:none;stroke-width:0.316;stroke-linecap:round;stroke-linejoin:round;stroke:rgb(0%,0%,0%);stroke-opacity:1;stroke-miterlimit:4;"
       d="M 118.621094 61.179688 L 118.621094 60.191406 "
       id="path31" />
    <path
       style=" stroke:none;fill-rule:nonzero;fill:rgb(0%,0%,0%);fill-opacity:1;"
       d="M 117.894531 69.78125 C 117.785156 70.046875 117.660156 70.234375 117.191406 70.234375 L 115.816406 70.234375 L 115.816406 70.203125 L 117.207031 68.8125 C 118.097656 67.921875 118.269531 67.59375 118.269531 67.109375 C 118.269531 66.578125 117.878906 65.90625 117.113281 65.90625 C 116.925781 65.90625 115.988281 65.9375 115.597656 67.0625 L 115.753906 67.109375 C 115.847656 66.9375 116.128906 66.4375 116.769531 66.4375 C 117.332031 66.4375 117.660156 66.875 117.660156 67.3125 C 117.660156 67.546875 117.628906 67.96875 116.613281 69.046875 L 115.113281 70.65625 L 115.113281 70.78125 L 117.660156 70.78125 L 118.019531 69.828125 Z M 117.894531 69.78125 "
       id="path33" />
    <path
       style="fill:none;stroke-width:0.316;stroke-linecap:round;stroke-linejoin:round;stroke:rgb(0%,0%,0%);stroke-opacity:1;stroke-miterlimit:4;"
       d="M 156.277344 61.179688 L 156.277344 60.191406 "
       id="path35" />
    <path
       style=" stroke:none;fill-rule:nonzero;fill:rgb(0%,0%,0%);fill-opacity:1;"
       d="M 154.679688 69.046875 L 153.148438 69.046875 L 153.148438 69.015625 L 155.335938 66.71875 L 155.367188 66.71875 Z M 155.945313 69.046875 L 155.257813 69.046875 L 156.132813 65.90625 L 155.835938 65.90625 L 152.835938 69.015625 L 152.679688 69.5 L 154.570313 69.5 L 154.226563 70.78125 L 154.789063 70.78125 L 155.117188 69.515625 L 155.835938 69.515625 Z M 155.945313 69.046875 "
       id="path37" />
    <path
       style="fill:none;stroke-width:0.158;stroke-linecap:round;stroke-linejoin:round;stroke:rgb(0%,0%,0%);stroke-opacity:1;stroke-miterlimit:4;"
       d="M 13.167969 61.179688 L 13.167969 60.585938 M 20.703125 61.179688 L 20.703125 60.585938 M 28.234375 61.179688 L 28.234375 60.585938 M 35.765625 61.179688 L 35.765625 60.585938 M 50.828125 61.179688 L 50.828125 60.585938 M 58.359375 61.179688 L 58.359375 60.585938 M 65.894531 61.179688 L 65.894531 60.585938 M 73.425781 61.179688 L 73.425781 60.585938 M 88.488281 61.179688 L 88.488281 60.585938 M 96.023438 61.179688 L 96.023438 60.585938 M 103.554688 61.179688 L 103.554688 60.585938 M 111.085938 61.179688 L 111.085938 60.585938 M 126.148438 61.179688 L 126.148438 60.585938 M 133.683594 61.179688 L 133.683594 60.585938 M 141.214844 61.179688 L 141.214844 60.585938 M 148.746094 61.179688 L 148.746094 60.585938 "
       id="path39" />
    <path
       style=" stroke:none;fill-rule:nonzero;fill:rgb(0%,0%,0%);fill-opacity:1;"
       d="M 169.660156 62.597656 C 169.363281 62.988281 169.144531 63.269531 168.972656 63.269531 C 168.957031 63.269531 168.847656 63.238281 168.847656 63.113281 C 168.847656 62.863281 169.519531 60.785156 169.519531 60.425781 C 169.519531 60.082031 169.316406 59.878906 168.941406 59.878906 C 168.238281 59.878906 167.472656 61.050781 167.066406 61.660156 L 167.050781 61.644531 L 167.597656 59.894531 L 167.566406 59.878906 C 167.113281 59.972656 166.660156 60.050781 166.207031 60.128906 L 166.207031 60.269531 C 166.660156 60.269531 166.738281 60.363281 166.738281 60.488281 C 166.738281 60.660156 166.175781 62.628906 165.925781 63.582031 L 166.550781 63.582031 C 166.894531 62.441406 167.003906 62.082031 167.394531 61.503906 C 167.691406 61.019531 168.222656 60.300781 168.628906 60.300781 C 168.785156 60.300781 168.832031 60.425781 168.832031 60.566406 C 168.832031 60.910156 168.207031 62.957031 168.207031 63.160156 C 168.207031 63.410156 168.222656 63.660156 168.613281 63.660156 C 169.066406 63.660156 169.363281 63.269531 169.785156 62.707031 Z M 169.660156 62.597656 "
       id="path41" />
    <path
       style=" stroke:none;fill-rule:nonzero;fill:rgb(0%,0%,0%);fill-opacity:1;"
       d="M 171.28125 61.457031 C 171.59375 60.722656 172.15625 60.066406 172.609375 60.066406 C 172.828125 60.066406 172.90625 60.222656 172.90625 60.410156 C 172.90625 60.472656 172.859375 61.488281 171.140625 61.832031 Z M 173.015625 62.660156 C 172.59375 63.003906 172.234375 63.300781 171.78125 63.300781 C 171.421875 63.300781 170.984375 63.097656 170.984375 62.535156 C 170.984375 62.363281 171.03125 62.191406 171.078125 62.019531 L 171.3125 61.988281 C 172.671875 61.785156 173.46875 61.113281 173.46875 60.441406 C 173.46875 60.082031 173.203125 59.878906 172.78125 59.878906 C 171.59375 59.878906 170.265625 61.285156 170.265625 62.488281 C 170.265625 63.019531 170.53125 63.675781 171.40625 63.675781 C 172.25 63.675781 173.015625 62.894531 173.109375 62.769531 Z M 173.015625 62.660156 "
       id="path43" />
    <g
       clip-path="url(#clip1)"
       clip-rule="nonzero"
       id="g47">
      <path
         style=" stroke:none;fill-rule:nonzero;fill:rgb(0%,0%,0%);fill-opacity:1;"
         d="M 176.214844 59.988281 L 175.542969 59.988281 L 175.777344 59.113281 C 175.792969 59.050781 175.777344 58.972656 175.730469 58.988281 C 175.652344 58.972656 175.621094 59.050781 175.574219 59.097656 C 175.339844 59.394531 174.933594 59.769531 174.667969 59.910156 C 174.527344 59.988281 174.292969 60.050781 174.230469 60.113281 C 174.214844 60.160156 174.214844 60.207031 174.214844 60.253906 L 174.839844 60.253906 L 174.230469 62.566406 C 174.199219 62.707031 174.042969 63.207031 174.042969 63.332031 C 174.042969 63.597656 174.277344 63.675781 174.449219 63.675781 C 174.886719 63.675781 175.214844 63.300781 175.636719 62.660156 L 175.527344 62.597656 C 175.324219 62.863281 175.027344 63.269531 174.855469 63.269531 C 174.761719 63.269531 174.714844 63.191406 174.714844 63.113281 C 174.714844 63.097656 174.714844 63.082031 174.730469 63.050781 L 175.464844 60.253906 L 176.183594 60.253906 Z M 176.214844 59.988281 "
         id="path45" />
    </g>
    <path
       style="fill:none;stroke-width:0.6;stroke-linecap:round;stroke-linejoin:round;stroke:rgb(0%,0%,0%);stroke-opacity:1;stroke-miterlimit:4;"
       d="M 1.871094 61.179688 L 160.046875 61.179688 "
       id="path49" />
    <path
       style=" stroke:none;fill-rule:nonzero;fill:rgb(0%,0%,0%);fill-opacity:1;"
       d="M 161.460938 60.566406 C 160.46875 60.265625 159.828125 59.988281 159.03125 59.667969 L 159.03125 62.695313 C 159.316406 62.5625 160.46875 62.101563 161.460938 61.800781 C 162.523438 61.480469 163.488281 61.261719 164.109375 61.183594 C 163.488281 61.105469 162.523438 60.886719 161.460938 60.566406 "
       id="path51" />
    <path
       style="fill:none;stroke-width:0.316;stroke-linecap:round;stroke-linejoin:round;stroke:rgb(0%,0%,0%);stroke-opacity:1;stroke-miterlimit:4;"
       d="M 80.957031 107.949219 L 81.945313 107.949219 "
       id="path53" />
    <path
       style=" stroke:none;fill-rule:nonzero;fill:rgb(0%,0%,0%);fill-opacity:1;"
       d="M 69.617188 108.507813 L 68.039063 108.507813 L 67.945313 108.960938 L 69.523438 108.960938 Z M 69.617188 108.507813 "
       id="path55" />
    <g
       clip-path="url(#clip2)"
       clip-rule="nonzero"
       id="g59">
      <path
         style=" stroke:none;fill-rule:nonzero;fill:rgb(0%,0%,0%);fill-opacity:1;"
         d="M 70.34375 110.351563 L 72.34375 110.351563 L 72.34375 110.242188 C 71.984375 110.257813 71.734375 110.226563 71.734375 110.007813 C 71.734375 109.882813 71.828125 109.617188 71.859375 109.476563 L 72.890625 105.742188 C 72.921875 105.632813 72.953125 105.476563 72.90625 105.476563 C 72.84375 105.476563 71.84375 105.695313 71.5 105.757813 L 71.5 105.867188 L 71.921875 105.851563 C 71.984375 105.851563 72.1875 105.851563 72.1875 106.085938 C 72.1875 106.132813 72.15625 106.242188 72.140625 106.320313 L 71.140625 109.867188 C 71.046875 110.179688 70.765625 110.210938 70.34375 110.257813 Z M 70.34375 110.351563 "
         id="path57" />
    </g>
    <g
       clip-path="url(#clip3)"
       clip-rule="nonzero"
       id="g63">
      <path
         style=" stroke:none;fill-rule:nonzero;fill:rgb(0%,0%,0%);fill-opacity:1;"
         d="M 74.175781 110.429688 C 74.316406 110.429688 74.582031 110.304688 74.582031 110.039063 C 74.582031 109.820313 74.394531 109.632813 74.175781 109.632813 C 73.957031 109.632813 73.769531 109.804688 73.769531 110.039063 C 73.769531 110.320313 74.019531 110.429688 74.175781 110.429688 Z M 74.175781 110.429688 "
         id="path61" />
    </g>
    <g
       clip-path="url(#clip4)"
       clip-rule="nonzero"
       id="g67">
      <path
         style=" stroke:none;fill-rule:nonzero;fill:rgb(0%,0%,0%);fill-opacity:1;"
         d="M 77.101563 106.070313 L 78.757813 106.070313 L 78.914063 105.554688 L 77.070313 105.554688 L 76.320313 107.117188 L 76.320313 107.226563 C 77.164063 107.414063 77.898438 107.570313 77.898438 108.679688 C 77.898438 109.304688 77.382813 110.101563 76.679688 110.101563 C 76.289063 110.101563 76.101563 109.710938 75.773438 109.710938 C 75.648438 109.710938 75.492188 109.789063 75.492188 109.992188 C 75.492188 110.195313 75.710938 110.398438 76.226563 110.398438 C 77.632813 110.398438 78.398438 109.289063 78.398438 108.367188 C 78.398438 107.398438 77.757813 106.882813 76.820313 106.695313 Z M 77.101563 106.070313 "
         id="path65" />
    </g>
    <path
       style="fill:none;stroke-width:0.316;stroke-linecap:round;stroke-linejoin:round;stroke:rgb(0%,0%,0%);stroke-opacity:1;stroke-miterlimit:4;"
       d="M 80.957031 92.359375 L 81.945313 92.359375 "
       id="path69" />
    <path
       style=" stroke:none;fill-rule:nonzero;fill:rgb(0%,0%,0%);fill-opacity:1;"
       d="M 75.015625 92.917969 L 73.4375 92.917969 L 73.34375 93.371094 L 74.921875 93.371094 Z M 75.015625 92.917969 "
       id="path71" />
    <path
       style=" stroke:none;fill-rule:nonzero;fill:rgb(0%,0%,0%);fill-opacity:1;"
       d="M 75.742188 94.761719 L 77.742188 94.761719 L 77.742188 94.652344 C 77.382813 94.667969 77.132813 94.636719 77.132813 94.417969 C 77.132813 94.292969 77.226563 94.027344 77.257813 93.886719 L 78.289063 90.152344 C 78.320313 90.042969 78.351563 89.886719 78.304688 89.886719 C 78.242188 89.886719 77.242188 90.105469 76.898438 90.167969 L 76.898438 90.277344 L 77.320313 90.261719 C 77.382813 90.261719 77.585938 90.261719 77.585938 90.496094 C 77.585938 90.542969 77.554688 90.652344 77.539063 90.730469 L 76.539063 94.277344 C 76.445313 94.589844 76.164063 94.621094 75.742188 94.667969 Z M 75.742188 94.761719 "
       id="path73" />
    <path
       style="fill:none;stroke-width:0.316;stroke-linecap:round;stroke-linejoin:round;stroke:rgb(0%,0%,0%);stroke-opacity:1;stroke-miterlimit:4;"
       d="M 80.957031 76.769531 L 81.945313 76.769531 "
       id="path75" />
    <path
       style=" stroke:none;fill-rule:nonzero;fill:rgb(0%,0%,0%);fill-opacity:1;"
       d="M 73.214844 77.328125 L 71.636719 77.328125 L 71.542969 77.78125 L 73.121094 77.78125 Z M 73.214844 77.328125 "
       id="path77" />
    <path
       style=" stroke:none;fill-rule:nonzero;fill:rgb(0%,0%,0%);fill-opacity:1;"
       d="M 74.175781 79.25 C 74.316406 79.25 74.582031 79.125 74.582031 78.859375 C 74.582031 78.640625 74.394531 78.453125 74.175781 78.453125 C 73.957031 78.453125 73.769531 78.625 73.769531 78.859375 C 73.769531 79.140625 74.019531 79.25 74.175781 79.25 Z M 74.175781 79.25 "
       id="path79" />
    <path
       style=" stroke:none;fill-rule:nonzero;fill:rgb(0%,0%,0%);fill-opacity:1;"
       d="M 77.101563 74.890625 L 78.757813 74.890625 L 78.914063 74.375 L 77.070313 74.375 L 76.320313 75.9375 L 76.320313 76.046875 C 77.164063 76.234375 77.898438 76.390625 77.898438 77.5 C 77.898438 78.125 77.382813 78.921875 76.679688 78.921875 C 76.289063 78.921875 76.101563 78.53125 75.773438 78.53125 C 75.648438 78.53125 75.492188 78.609375 75.492188 78.8125 C 75.492188 79.015625 75.710938 79.21875 76.226563 79.21875 C 77.632813 79.21875 78.398438 78.109375 78.398438 77.1875 C 78.398438 76.21875 77.757813 75.703125 76.820313 75.515625 Z M 77.101563 74.890625 "
       id="path81" />
    <path
       style="fill:none;stroke-width:0.316;stroke-linecap:round;stroke-linejoin:round;stroke:rgb(0%,0%,0%);stroke-opacity:1;stroke-miterlimit:4;"
       d="M 80.957031 45.589844 L 81.945313 45.589844 "
       id="path83" />
    <path
       style=" stroke:none;fill-rule:nonzero;fill:rgb(0%,0%,0%);fill-opacity:1;"
       d="M 74.175781 48.070313 C 74.316406 48.070313 74.582031 47.945313 74.582031 47.679688 C 74.582031 47.460938 74.394531 47.273438 74.175781 47.273438 C 73.957031 47.273438 73.769531 47.445313 73.769531 47.679688 C 73.769531 47.960938 74.019531 48.070313 74.175781 48.070313 Z M 74.175781 48.070313 "
       id="path85" />
    <path
       style=" stroke:none;fill-rule:nonzero;fill:rgb(0%,0%,0%);fill-opacity:1;"
       d="M 77.101563 43.710938 L 78.757813 43.710938 L 78.914063 43.195313 L 77.070313 43.195313 L 76.320313 44.757813 L 76.320313 44.867188 C 77.164063 45.054688 77.898438 45.210938 77.898438 46.320313 C 77.898438 46.945313 77.382813 47.742188 76.679688 47.742188 C 76.289063 47.742188 76.101563 47.351563 75.773438 47.351563 C 75.648438 47.351563 75.492188 47.429688 75.492188 47.632813 C 75.492188 47.835938 75.710938 48.039063 76.226563 48.039063 C 77.632813 48.039063 78.398438 46.929688 78.398438 46.007813 C 78.398438 45.039063 77.757813 44.523438 76.820313 44.335938 Z M 77.101563 43.710938 "
       id="path87" />
    <path
       style="fill:none;stroke-width:0.316;stroke-linecap:round;stroke-linejoin:round;stroke:rgb(0%,0%,0%);stroke-opacity:1;stroke-miterlimit:4;"
       d="M 80.957031 30 L 81.945313 30 "
       id="path89" />
    <path
       style=" stroke:none;fill-rule:nonzero;fill:rgb(0%,0%,0%);fill-opacity:1;"
       d="M 75.742188 32.402344 L 77.742188 32.402344 L 77.742188 32.292969 C 77.382813 32.308594 77.132813 32.277344 77.132813 32.058594 C 77.132813 31.933594 77.226563 31.667969 77.257813 31.527344 L 78.289063 27.792969 C 78.320313 27.683594 78.351563 27.527344 78.304688 27.527344 C 78.242188 27.527344 77.242188 27.746094 76.898438 27.808594 L 76.898438 27.917969 L 77.320313 27.902344 C 77.382813 27.902344 77.585938 27.902344 77.585938 28.136719 C 77.585938 28.183594 77.554688 28.292969 77.539063 28.371094 L 76.539063 31.917969 C 76.445313 32.230469 76.164063 32.261719 75.742188 32.308594 Z M 75.742188 32.402344 "
       id="path91" />
    <path
       style="fill:none;stroke-width:0.316;stroke-linecap:round;stroke-linejoin:round;stroke:rgb(0%,0%,0%);stroke-opacity:1;stroke-miterlimit:4;"
       d="M 80.957031 14.410156 L 81.945313 14.410156 "
       id="path93" />
    <path
       style=" stroke:none;fill-rule:nonzero;fill:rgb(0%,0%,0%);fill-opacity:1;"
       d="M 70.34375 16.8125 L 72.34375 16.8125 L 72.34375 16.703125 C 71.984375 16.71875 71.734375 16.6875 71.734375 16.46875 C 71.734375 16.34375 71.828125 16.078125 71.859375 15.9375 L 72.890625 12.203125 C 72.921875 12.09375 72.953125 11.9375 72.90625 11.9375 C 72.84375 11.9375 71.84375 12.15625 71.5 12.21875 L 71.5 12.328125 L 71.921875 12.3125 C 71.984375 12.3125 72.1875 12.3125 72.1875 12.546875 C 72.1875 12.59375 72.15625 12.703125 72.140625 12.78125 L 71.140625 16.328125 C 71.046875 16.640625 70.765625 16.671875 70.34375 16.71875 Z M 70.34375 16.8125 "
       id="path95" />
    <path
       style=" stroke:none;fill-rule:nonzero;fill:rgb(0%,0%,0%);fill-opacity:1;"
       d="M 74.175781 16.890625 C 74.316406 16.890625 74.582031 16.765625 74.582031 16.5 C 74.582031 16.28125 74.394531 16.09375 74.175781 16.09375 C 73.957031 16.09375 73.769531 16.265625 73.769531 16.5 C 73.769531 16.78125 74.019531 16.890625 74.175781 16.890625 Z M 74.175781 16.890625 "
       id="path97" />
    <path
       style=" stroke:none;fill-rule:nonzero;fill:rgb(0%,0%,0%);fill-opacity:1;"
       d="M 77.101563 12.53125 L 78.757813 12.53125 L 78.914063 12.015625 L 77.070313 12.015625 L 76.320313 13.578125 L 76.320313 13.6875 C 77.164063 13.875 77.898438 14.03125 77.898438 15.140625 C 77.898438 15.765625 77.382813 16.5625 76.679688 16.5625 C 76.289063 16.5625 76.101563 16.171875 75.773438 16.171875 C 75.648438 16.171875 75.492188 16.25 75.492188 16.453125 C 75.492188 16.65625 75.710938 16.859375 76.226563 16.859375 C 77.632813 16.859375 78.398438 15.75 78.398438 14.828125 C 78.398438 13.859375 77.757813 13.34375 76.820313 13.15625 Z M 77.101563 12.53125 "
       id="path99" />
    <path
       style="fill:none;stroke-width:0.158;stroke-linecap:round;stroke-linejoin:round;stroke:rgb(0%,0%,0%);stroke-opacity:1;stroke-miterlimit:4;"
       d="M 80.957031 104.832031 L 81.550781 104.832031 M 80.957031 101.714844 L 81.550781 101.714844 M 80.957031 98.59375 L 81.550781 98.59375 M 80.957031 95.476563 L 81.550781 95.476563 M 80.957031 89.242188 L 81.550781 89.242188 M 80.957031 86.125 L 81.550781 86.125 M 80.957031 83.003906 L 81.550781 83.003906 M 80.957031 79.886719 L 81.550781 79.886719 M 80.957031 73.652344 L 81.550781 73.652344 M 80.957031 70.535156 L 81.550781 70.535156 M 80.957031 67.417969 L 81.550781 67.417969 M 80.957031 64.296875 L 81.550781 64.296875 M 80.957031 58.0625 L 81.550781 58.0625 M 80.957031 54.945313 L 81.550781 54.945313 M 80.957031 51.828125 L 81.550781 51.828125 M 80.957031 48.707031 L 81.550781 48.707031 M 80.957031 42.472656 L 81.550781 42.472656 M 80.957031 39.355469 L 81.550781 39.355469 M 80.957031 36.238281 L 81.550781 36.238281 M 80.957031 33.121094 L 81.550781 33.121094 M 80.957031 26.882813 L 81.550781 26.882813 M 80.957031 23.765625 L 81.550781 23.765625 M 80.957031 20.648438 L 81.550781 20.648438 M 80.957031 17.53125 L 81.550781 17.53125 "
       id="path101" />
    <path
       style=" stroke:none;fill-rule:nonzero;fill:rgb(0%,0%,0%);fill-opacity:1;"
       d="M 72.160156 2.375 L 72.910156 2.375 L 72.175781 5.90625 C 72.113281 6.234375 71.894531 7.265625 71.347656 7.265625 C 71.253906 7.265625 71.191406 7.203125 71.191406 7.125 C 71.191406 7.046875 71.269531 7.046875 71.269531 6.890625 C 71.269531 6.6875 71.050781 6.578125 70.925781 6.578125 C 70.628906 6.609375 70.628906 6.921875 70.628906 6.953125 C 70.675781 7.328125 71.019531 7.4375 71.285156 7.4375 C 72.269531 7.4375 72.738281 6.09375 72.972656 5.0625 L 73.582031 2.375 L 74.488281 2.375 L 74.550781 2.109375 L 73.644531 2.109375 C 73.707031 1.671875 73.957031 0.1875 74.660156 0.1875 C 74.769531 0.1875 74.847656 0.21875 74.847656 0.296875 C 74.847656 0.375 74.769531 0.375 74.769531 0.5625 C 74.769531 0.65625 74.816406 0.890625 75.082031 0.890625 C 75.269531 0.890625 75.425781 0.71875 75.425781 0.546875 C 75.425781 0.375 75.300781 0 74.691406 0 C 73.628906 0 73.207031 1.390625 72.988281 2.109375 L 72.222656 2.109375 Z M 72.160156 2.375 "
       id="path103" />
    <path
       style=" stroke:none;fill-rule:nonzero;fill:rgb(0%,0%,0%);fill-opacity:1;"
       d="M 75.542969 7.171875 C 75.136719 6.140625 75.136719 5.40625 75.136719 4.84375 C 75.136719 4.3125 75.277344 3.171875 75.605469 2.21875 C 76.011719 1.078125 76.449219 0.625 76.839844 0.203125 L 76.730469 0.078125 C 75.214844 1.375 74.558594 2.6875 74.558594 4.078125 C 74.558594 4.625 74.558594 5.84375 75.386719 7.21875 Z M 75.542969 7.171875 "
       id="path105" />
    <path
       style=" stroke:none;fill-rule:nonzero;fill:rgb(0%,0%,0%);fill-opacity:1;"
       d="M 80.855469 4.71875 C 80.558594 5.109375 80.339844 5.390625 80.167969 5.390625 C 80.152344 5.390625 80.042969 5.359375 80.042969 5.234375 C 80.042969 4.984375 80.714844 2.90625 80.714844 2.546875 C 80.714844 2.203125 80.511719 2 80.136719 2 C 79.433594 2 78.667969 3.171875 78.261719 3.78125 L 78.246094 3.765625 L 78.792969 2.015625 L 78.761719 2 C 78.308594 2.09375 77.855469 2.171875 77.402344 2.25 L 77.402344 2.390625 C 77.855469 2.390625 77.933594 2.484375 77.933594 2.609375 C 77.933594 2.78125 77.371094 4.75 77.121094 5.703125 L 77.746094 5.703125 C 78.089844 4.5625 78.199219 4.203125 78.589844 3.625 C 78.886719 3.140625 79.417969 2.421875 79.824219 2.421875 C 79.980469 2.421875 80.027344 2.546875 80.027344 2.6875 C 80.027344 3.03125 79.402344 5.078125 79.402344 5.28125 C 79.402344 5.53125 79.417969 5.78125 79.808594 5.78125 C 80.261719 5.78125 80.558594 5.390625 80.980469 4.828125 Z M 80.855469 4.71875 "
       id="path107" />
    <path
       style=" stroke:none;fill-rule:nonzero;fill:rgb(0%,0%,0%);fill-opacity:1;"
       d="M 82.476563 3.578125 C 82.789063 2.84375 83.351563 2.1875 83.804688 2.1875 C 84.023438 2.1875 84.101563 2.34375 84.101563 2.53125 C 84.101563 2.59375 84.054688 3.609375 82.335938 3.953125 Z M 84.210938 4.78125 C 83.789063 5.125 83.429688 5.421875 82.976563 5.421875 C 82.617188 5.421875 82.179688 5.21875 82.179688 4.65625 C 82.179688 4.484375 82.226563 4.3125 82.273438 4.140625 L 82.507813 4.109375 C 83.867188 3.90625 84.664063 3.234375 84.664063 2.5625 C 84.664063 2.203125 84.398438 2 83.976563 2 C 82.789063 2 81.460938 3.40625 81.460938 4.609375 C 81.460938 5.140625 81.726563 5.796875 82.601563 5.796875 C 83.445313 5.796875 84.210938 5.015625 84.304688 4.890625 Z M 84.210938 4.78125 "
       id="path109" />
    <path
       style=" stroke:none;fill-rule:nonzero;fill:rgb(0%,0%,0%);fill-opacity:1;"
       d="M 87.410156 2.109375 L 86.738281 2.109375 L 86.972656 1.234375 C 86.988281 1.171875 86.972656 1.09375 86.925781 1.109375 C 86.847656 1.09375 86.816406 1.171875 86.769531 1.21875 C 86.535156 1.515625 86.128906 1.890625 85.863281 2.03125 C 85.722656 2.109375 85.488281 2.171875 85.425781 2.234375 C 85.410156 2.28125 85.410156 2.328125 85.410156 2.375 L 86.035156 2.375 L 85.425781 4.6875 C 85.394531 4.828125 85.238281 5.328125 85.238281 5.453125 C 85.238281 5.71875 85.472656 5.796875 85.644531 5.796875 C 86.082031 5.796875 86.410156 5.421875 86.832031 4.78125 L 86.722656 4.71875 C 86.519531 4.984375 86.222656 5.390625 86.050781 5.390625 C 85.957031 5.390625 85.910156 5.3125 85.910156 5.234375 C 85.910156 5.21875 85.910156 5.203125 85.925781 5.171875 L 86.660156 2.375 L 87.378906 2.375 Z M 87.410156 2.109375 "
       id="path111" />
    <path
       style=" stroke:none;fill-rule:nonzero;fill:rgb(0%,0%,0%);fill-opacity:1;"
       d="M 87.507813 7.21875 C 88.742188 6.21875 89.679688 4.828125 89.679688 3.234375 C 89.679688 2.140625 89.460938 1.0625 88.851563 0.078125 L 88.695313 0.125 C 88.914063 0.578125 89.101563 1.421875 89.101563 2.3125 C 89.101563 3.0625 88.976563 4.0625 88.632813 5.09375 C 88.242188 6.1875 87.757813 6.703125 87.398438 7.09375 Z M 87.507813 7.21875 "
       id="path113" />
    <g
       clip-path="url(#clip5)"
       clip-rule="nonzero"
       id="g117">
      <path
         style="fill:none;stroke-width:0.6;stroke-linecap:round;stroke-linejoin:round;stroke:rgb(0%,0%,0%);stroke-opacity:1;stroke-miterlimit:4;"
         d="M 80.957031 110.058594 L 80.957031 12.300781 "
         id="path115" />
    </g>
    <path
       style=" stroke:none;fill-rule:nonzero;fill:rgb(0%,0%,0%);fill-opacity:1;"
       d="M 80.34375 10.882813 C 80.042969 11.875 79.765625 12.523438 79.449219 13.316406 L 82.472656 13.316406 C 82.339844 13.03125 81.878906 11.875 81.578125 10.882813 C 81.257813 9.824219 81.039063 8.859375 80.960938 8.234375 C 80.882813 8.859375 80.664063 9.824219 80.34375 10.882813 "
       id="path119" />
    <path
       style="fill:none;stroke-width:1.2;stroke-linecap:round;stroke-linejoin:round;stroke:rgb(0%,0%,0%);stroke-opacity:1;stroke-miterlimit:4;"
       d="M 5.636719 107.730469 L 11.914063 106.140625 L 18.1875 104.222656 L 24.46875 101.929688 L 30.742188 99.210938 L 37.019531 96.035156 L 43.296875 92.359375 L 49.574219 88.183594 L 55.851563 83.507813 L 62.128906 78.382813 L 68.402344 72.878906 L 74.679688 67.101563 L 87.234375 55.257813 L 93.511719 49.484375 L 99.789063 43.976563 L 106.066406 38.851563 L 112.339844 34.179688 L 118.621094 30 L 124.894531 26.324219 L 131.171875 23.148438 L 137.449219 20.433594 L 143.726563 18.140625 L 150.003906 16.222656 L 156.277344 14.628906 "
       id="path121" />
  </g>
</svg>
