<?xml version="1.0" encoding="UTF-8" standalone="no"?>
<svg
   xmlns:dc="http://purl.org/dc/elements/1.1/"
   xmlns:cc="http://creativecommons.org/ns#"
   xmlns:rdf="http://www.w3.org/1999/02/22-rdf-syntax-ns#"
   xmlns:svg="http://www.w3.org/2000/svg"
   xmlns="http://www.w3.org/2000/svg"
   xmlns:sodipodi="http://sodipodi.sourceforge.net/DTD/sodipodi-0.dtd"
   xmlns:inkscape="http://www.inkscape.org/namespaces/inkscape"
   width="176.09491pt"
   height="62.424191pt"
   viewBox="0 0 176.09491 62.424191"
   version="1.2"
   id="svg97"
   sodipodi:docname="activation_function_deriv_02.svg"
   inkscape:version="0.92.4 (5da689c313, 2019-01-14)">
  <metadata
     id="metadata101">
    <rdf:RDF>
      <cc:Work
         rdf:about="">
        <dc:format>image/svg+xml</dc:format>
        <dc:type
           rdf:resource="http://purl.org/dc/dcmitype/StillImage" />
        <dc:title></dc:title>
      </cc:Work>
    </rdf:RDF>
  </metadata>
  <sodipodi:namedview
     pagecolor="#ffffff"
     bordercolor="#666666"
     borderopacity="1"
     objecttolerance="10"
     gridtolerance="10"
     guidetolerance="10"
     inkscape:pageopacity="0"
     inkscape:pageshadow="2"
     inkscape:window-width="640"
     inkscape:window-height="480"
     id="namedview99"
     showgrid="false"
     inkscape:zoom="1.465119"
     inkscape:cx="117.39661"
     inkscape:cy="41.616127"
     inkscape:window-x="0"
     inkscape:window-y="0"
     inkscape:window-maximized="0"
     inkscape:current-layer="svg97" />
  <defs
     id="defs14">
    <clipPath
       id="clip1">
      <path
         d="M 173 34 L 176.09375 34 L 176.09375 40 L 173 40 Z M 173 34 "
         id="path2" />
    </clipPath>
    <clipPath
       id="clip2">
      <path
         d="M 80 54 L 82 54 L 82 62.425781 L 80 62.425781 Z M 80 54 "
         id="path5" />
    </clipPath>
    <clipPath
       id="clip3">
      <path
         d="M 80 11 L 81 11 L 81 62.425781 L 80 62.425781 Z M 80 11 "
         id="path8" />
    </clipPath>
    <clipPath
       id="clip4">
      <path
         d="M 5 13 L 156 13 L 156 62.425781 L 5 62.425781 Z M 5 13 "
         id="path11" />
    </clipPath>
  </defs>
  <g
     id="surface32">
    <path
       style="fill:none;stroke-width:0.314;stroke-linecap:round;stroke-linejoin:round;stroke:rgb(0%,0%,0%);stroke-opacity:1;stroke-miterlimit:4;"
       d="M 5.636719 38.113281 L 5.636719 37.609375 "
       id="path16" />
    <path
       style=" stroke:none;fill-rule:nonzero;fill:rgb(0%,0%,0%);fill-opacity:1;"
       d="M 1.671875 42.984375 L 0.09375 42.984375 L 0 43.4375 L 1.578125 43.4375 Z M 1.671875 42.984375 "
       id="path18" />
    <path
       style=" stroke:none;fill-rule:nonzero;fill:rgb(0%,0%,0%);fill-opacity:1;"
       d="M 4.039063 43.09375 L 2.507813 43.09375 L 2.507813 43.0625 L 4.695313 40.765625 L 4.726563 40.765625 Z M 5.304688 43.09375 L 4.617188 43.09375 L 5.492188 39.953125 L 5.195313 39.953125 L 2.195313 43.0625 L 2.039063 43.546875 L 3.929688 43.546875 L 3.585938 44.828125 L 4.148438 44.828125 L 4.476563 43.5625 L 5.195313 43.5625 Z M 5.304688 43.09375 "
       id="path20" />
    <path
       style="fill:none;stroke-width:0.314;stroke-linecap:round;stroke-linejoin:round;stroke:rgb(0%,0%,0%);stroke-opacity:1;stroke-miterlimit:4;"
       d="M 42.980469 38.113281 L 42.980469 37.609375 "
       id="path22" />
    <path
       style=" stroke:none;fill-rule:nonzero;fill:rgb(0%,0%,0%);fill-opacity:1;"
       d="M 39.019531 42.984375 L 37.441406 42.984375 L 37.347656 43.4375 L 38.925781 43.4375 Z M 39.019531 42.984375 "
       id="path24" />
    <path
       style=" stroke:none;fill-rule:nonzero;fill:rgb(0%,0%,0%);fill-opacity:1;"
       d="M 42.257813 43.828125 C 42.148438 44.09375 42.023438 44.28125 41.554688 44.28125 L 40.179688 44.28125 L 40.179688 44.25 L 41.570313 42.859375 C 42.460938 41.96875 42.632813 41.640625 42.632813 41.15625 C 42.632813 40.625 42.242188 39.953125 41.476563 39.953125 C 41.289063 39.953125 40.351563 39.984375 39.960938 41.109375 L 40.117188 41.15625 C 40.210938 40.984375 40.492188 40.484375 41.132813 40.484375 C 41.695313 40.484375 42.023438 40.921875 42.023438 41.359375 C 42.023438 41.59375 41.992188 42.015625 40.976563 43.09375 L 39.476563 44.703125 L 39.476563 44.828125 L 42.023438 44.828125 L 42.382813 43.875 Z M 42.257813 43.828125 "
       id="path26" />
    <path
       style="fill:none;stroke-width:0.314;stroke-linecap:round;stroke-linejoin:round;stroke:rgb(0%,0%,0%);stroke-opacity:1;stroke-miterlimit:4;"
       d="M 117.675781 38.113281 L 117.675781 37.609375 "
       id="path28" />
    <path
       style=" stroke:none;fill-rule:nonzero;fill:rgb(0%,0%,0%);fill-opacity:1;"
       d="M 116.953125 43.828125 C 116.84375 44.09375 116.71875 44.28125 116.25 44.28125 L 114.875 44.28125 L 114.875 44.25 L 116.265625 42.859375 C 117.15625 41.96875 117.328125 41.640625 117.328125 41.15625 C 117.328125 40.625 116.9375 39.953125 116.171875 39.953125 C 115.984375 39.953125 115.046875 39.984375 114.65625 41.109375 L 114.8125 41.15625 C 114.90625 40.984375 115.1875 40.484375 115.828125 40.484375 C 116.390625 40.484375 116.71875 40.921875 116.71875 41.359375 C 116.71875 41.59375 116.6875 42.015625 115.671875 43.09375 L 114.171875 44.703125 L 114.171875 44.828125 L 116.71875 44.828125 L 117.078125 43.875 Z M 116.953125 43.828125 "
       id="path30" />
    <path
       style="fill:none;stroke-width:0.314;stroke-linecap:round;stroke-linejoin:round;stroke:rgb(0%,0%,0%);stroke-opacity:1;stroke-miterlimit:4;"
       d="M 155.023438 38.113281 L 155.023438 37.609375 "
       id="path32" />
    <path
       style=" stroke:none;fill-rule:nonzero;fill:rgb(0%,0%,0%);fill-opacity:1;"
       d="M 153.425781 43.09375 L 151.894531 43.09375 L 151.894531 43.0625 L 154.082031 40.765625 L 154.113281 40.765625 Z M 154.691406 43.09375 L 154.003906 43.09375 L 154.878906 39.953125 L 154.582031 39.953125 L 151.582031 43.0625 L 151.425781 43.546875 L 153.316406 43.546875 L 152.972656 44.828125 L 153.535156 44.828125 L 153.863281 43.5625 L 154.582031 43.5625 Z M 154.691406 43.09375 "
       id="path34" />
    <path
       style="fill:none;stroke-width:0.157;stroke-linecap:round;stroke-linejoin:round;stroke:rgb(0%,0%,0%);stroke-opacity:1;stroke-miterlimit:4;"
       d="M 13.105469 38.113281 L 13.105469 37.8125 M 20.574219 38.113281 L 20.574219 37.8125 M 28.046875 38.113281 L 28.046875 37.8125 M 35.515625 38.113281 L 35.515625 37.8125 M 50.453125 38.113281 L 50.453125 37.8125 M 57.921875 38.113281 L 57.921875 37.8125 M 65.390625 38.113281 L 65.390625 37.8125 M 72.859375 38.113281 L 72.859375 37.8125 M 87.800781 38.113281 L 87.800781 37.8125 M 95.269531 38.113281 L 95.269531 37.8125 M 102.738281 38.113281 L 102.738281 37.8125 M 110.207031 38.113281 L 110.207031 37.8125 M 125.144531 38.113281 L 125.144531 37.8125 M 132.617188 38.113281 L 132.617188 37.8125 M 140.085938 38.113281 L 140.085938 37.8125 M 147.554688 38.113281 L 147.554688 37.8125 "
       id="path36" />
    <path
       style=" stroke:none;fill-rule:nonzero;fill:rgb(0%,0%,0%);fill-opacity:1;"
       d="M 169.539063 38.359375 C 169.242188 38.75 169.023438 39.03125 168.851563 39.03125 C 168.835938 39.03125 168.726563 39 168.726563 38.875 C 168.726563 38.625 169.398438 36.546875 169.398438 36.1875 C 169.398438 35.84375 169.195313 35.640625 168.820313 35.640625 C 168.117188 35.640625 167.351563 36.8125 166.945313 37.421875 L 166.929688 37.40625 L 167.476563 35.65625 L 167.445313 35.640625 C 166.992188 35.734375 166.539063 35.8125 166.085938 35.890625 L 166.085938 36.03125 C 166.539063 36.03125 166.617188 36.125 166.617188 36.25 C 166.617188 36.421875 166.054688 38.390625 165.804688 39.34375 L 166.429688 39.34375 C 166.773438 38.203125 166.882813 37.84375 167.273438 37.265625 C 167.570313 36.78125 168.101563 36.0625 168.507813 36.0625 C 168.664063 36.0625 168.710938 36.1875 168.710938 36.328125 C 168.710938 36.671875 168.085938 38.71875 168.085938 38.921875 C 168.085938 39.171875 168.101563 39.421875 168.492188 39.421875 C 168.945313 39.421875 169.242188 39.03125 169.664063 38.46875 Z M 169.539063 38.359375 "
       id="path38" />
    <path
       style=" stroke:none;fill-rule:nonzero;fill:rgb(0%,0%,0%);fill-opacity:1;"
       d="M 171.164063 37.21875 C 171.476563 36.484375 172.039063 35.828125 172.492188 35.828125 C 172.710938 35.828125 172.789063 35.984375 172.789063 36.171875 C 172.789063 36.234375 172.742188 37.25 171.023438 37.59375 Z M 172.898438 38.421875 C 172.476563 38.765625 172.117188 39.0625 171.664063 39.0625 C 171.304688 39.0625 170.867188 38.859375 170.867188 38.296875 C 170.867188 38.125 170.914063 37.953125 170.960938 37.78125 L 171.195313 37.75 C 172.554688 37.546875 173.351563 36.875 173.351563 36.203125 C 173.351563 35.84375 173.085938 35.640625 172.664063 35.640625 C 171.476563 35.640625 170.148438 37.046875 170.148438 38.25 C 170.148438 38.78125 170.414063 39.4375 171.289063 39.4375 C 172.132813 39.4375 172.898438 38.65625 172.992188 38.53125 Z M 172.898438 38.421875 "
       id="path40" />
    <g
       clip-path="url(#clip1)"
       clip-rule="nonzero"
       id="g44">
      <path
         style=" stroke:none;fill-rule:nonzero;fill:rgb(0%,0%,0%);fill-opacity:1;"
         d="M 176.09375 35.75 L 175.421875 35.75 L 175.65625 34.875 C 175.671875 34.8125 175.65625 34.734375 175.609375 34.75 C 175.53125 34.734375 175.5 34.8125 175.453125 34.859375 C 175.21875 35.15625 174.8125 35.53125 174.546875 35.671875 C 174.40625 35.75 174.171875 35.8125 174.109375 35.875 C 174.09375 35.921875 174.09375 35.96875 174.09375 36.015625 L 174.71875 36.015625 L 174.109375 38.328125 C 174.078125 38.46875 173.921875 38.96875 173.921875 39.09375 C 173.921875 39.359375 174.15625 39.4375 174.328125 39.4375 C 174.765625 39.4375 175.09375 39.0625 175.515625 38.421875 L 175.40625 38.359375 C 175.203125 38.625 174.90625 39.03125 174.734375 39.03125 C 174.640625 39.03125 174.59375 38.953125 174.59375 38.875 C 174.59375 38.859375 174.59375 38.84375 174.609375 38.8125 L 175.34375 36.015625 L 176.0625 36.015625 Z M 176.09375 35.75 "
         id="path42" />
    </g>
    <path
       style="fill:none;stroke-width:0.6;stroke-linecap:round;stroke-linejoin:round;stroke:rgb(0%,0%,0%);stroke-opacity:1;stroke-miterlimit:4;"
       d="M 1.902344 38.113281 L 158.757813 38.113281 "
       id="path46" />
    <path
       style=" stroke:none;fill-rule:nonzero;fill:rgb(0%,0%,0%);fill-opacity:1;"
       d="M 160.175781 37.496094 C 159.183594 37.199219 158.539063 36.921875 157.742188 36.601563 L 157.742188 39.628906 C 158.027344 39.492188 159.183594 39.03125 160.175781 38.734375 C 161.238281 38.414063 162.199219 38.195313 162.824219 38.117188 C 162.199219 38.035156 161.238281 37.816406 160.175781 37.496094 "
       id="path48" />
    <g
       clip-path="url(#clip2)"
       clip-rule="nonzero"
       id="g52">
      <path
         style="fill:none;stroke-width:0.314;stroke-linecap:round;stroke-linejoin:round;stroke:rgb(0%,0%,0%);stroke-opacity:1;stroke-miterlimit:4;"
         d="M 80.332031 62.265625 L 81.308594 62.265625 M 80.332031 54.214844 L 81.308594 54.214844 "
         id="path50" />
    </g>
    <path
       style=" stroke:none;fill-rule:nonzero;fill:rgb(0%,0%,0%);fill-opacity:1;"
       d="M 72.605469 53.601563 L 71.027344 53.601563 L 70.933594 54.054688 L 72.511719 54.054688 Z M 72.605469 53.601563 "
       id="path54" />
    <path
       style=" stroke:none;fill-rule:nonzero;fill:rgb(0%,0%,0%);fill-opacity:1;"
       d="M 73.566406 55.523438 C 73.707031 55.523438 73.972656 55.398438 73.972656 55.132813 C 73.972656 54.914063 73.785156 54.726563 73.566406 54.726563 C 73.347656 54.726563 73.160156 54.898438 73.160156 55.132813 C 73.160156 55.414063 73.410156 55.523438 73.566406 55.523438 Z M 73.566406 55.523438 "
       id="path56" />
    <path
       style=" stroke:none;fill-rule:nonzero;fill:rgb(0%,0%,0%);fill-opacity:1;"
       d="M 75.128906 55.445313 L 77.128906 55.445313 L 77.128906 55.335938 C 76.769531 55.351563 76.519531 55.320313 76.519531 55.101563 C 76.519531 54.976563 76.613281 54.710938 76.644531 54.570313 L 77.675781 50.835938 C 77.707031 50.726563 77.738281 50.570313 77.691406 50.570313 C 77.628906 50.570313 76.628906 50.789063 76.285156 50.851563 L 76.285156 50.960938 L 76.707031 50.945313 C 76.769531 50.945313 76.972656 50.945313 76.972656 51.179688 C 76.972656 51.226563 76.941406 51.335938 76.925781 51.414063 L 75.925781 54.960938 C 75.832031 55.273438 75.550781 55.304688 75.128906 55.351563 Z M 75.128906 55.445313 "
       id="path58" />
    <path
       style="fill:none;stroke-width:0.314;stroke-linecap:round;stroke-linejoin:round;stroke:rgb(0%,0%,0%);stroke-opacity:1;stroke-miterlimit:4;"
       d="M 80.332031 46.164063 L 81.308594 46.164063 M 80.332031 30.0625 L 81.308594 30.0625 M 80.332031 22.007813 L 81.308594 22.007813 "
       id="path60" />
    <path
       style=" stroke:none;fill-rule:nonzero;fill:rgb(0%,0%,0%);fill-opacity:1;"
       d="M 83.164063 23.316406 C 83.304688 23.316406 83.570313 23.191406 83.570313 22.925781 C 83.570313 22.707031 83.382813 22.519531 83.164063 22.519531 C 82.945313 22.519531 82.757813 22.691406 82.757813 22.925781 C 82.757813 23.207031 83.007813 23.316406 83.164063 23.316406 Z M 83.164063 23.316406 "
       id="path62" />
    <path
       style=" stroke:none;fill-rule:nonzero;fill:rgb(0%,0%,0%);fill-opacity:1;"
       d="M 84.730469 23.238281 L 86.730469 23.238281 L 86.730469 23.128906 C 86.371094 23.144531 86.121094 23.113281 86.121094 22.894531 C 86.121094 22.769531 86.214844 22.503906 86.246094 22.363281 L 87.277344 18.628906 C 87.308594 18.519531 87.339844 18.363281 87.292969 18.363281 C 87.230469 18.363281 86.230469 18.582031 85.886719 18.644531 L 85.886719 18.753906 L 86.308594 18.738281 C 86.371094 18.738281 86.574219 18.738281 86.574219 18.972656 C 86.574219 19.019531 86.542969 19.128906 86.527344 19.207031 L 85.527344 22.753906 C 85.433594 23.066406 85.152344 23.097656 84.730469 23.144531 Z M 84.730469 23.238281 "
       id="path64" />
    <path
       style="fill:none;stroke-width:0.314;stroke-linecap:round;stroke-linejoin:round;stroke:rgb(0%,0%,0%);stroke-opacity:1;stroke-miterlimit:4;"
       d="M 80.332031 13.957031 L 81.308594 13.957031 "
       id="path66" />
    <path
       style="fill:none;stroke-width:0.157;stroke-linecap:round;stroke-linejoin:round;stroke:rgb(0%,0%,0%);stroke-opacity:1;stroke-miterlimit:4;"
       d="M 80.332031 60.65625 L 80.917969 60.65625 M 80.332031 59.046875 L 80.917969 59.046875 M 80.332031 57.4375 L 80.917969 57.4375 M 80.332031 55.824219 L 80.917969 55.824219 M 80.332031 52.605469 L 80.917969 52.605469 M 80.332031 50.996094 L 80.917969 50.996094 M 80.332031 49.386719 L 80.917969 49.386719 M 80.332031 47.773438 L 80.917969 47.773438 M 80.332031 44.554688 L 80.917969 44.554688 M 80.332031 42.945313 L 80.917969 42.945313 M 80.332031 41.332031 L 80.917969 41.332031 M 80.332031 39.722656 L 80.917969 39.722656 M 80.332031 36.503906 L 80.917969 36.503906 M 80.332031 34.890625 L 80.917969 34.890625 M 80.332031 33.28125 L 80.917969 33.28125 M 80.332031 31.671875 L 80.917969 31.671875 M 80.332031 28.449219 L 80.917969 28.449219 M 80.332031 26.839844 L 80.917969 26.839844 M 80.332031 25.230469 L 80.917969 25.230469 M 80.332031 23.617188 L 80.917969 23.617188 M 80.332031 20.398438 L 80.917969 20.398438 M 80.332031 18.789063 L 80.917969 18.789063 M 80.332031 17.179688 L 80.917969 17.179688 M 80.332031 15.566406 L 80.917969 15.566406 "
       id="path68" />
    <path
       style=" stroke:none;fill-rule:nonzero;fill:rgb(0%,0%,0%);fill-opacity:1;"
       d="M 68.683594 2.375 L 69.433594 2.375 L 68.699219 5.90625 C 68.636719 6.234375 68.417969 7.265625 67.871094 7.265625 C 67.777344 7.265625 67.714844 7.203125 67.714844 7.125 C 67.714844 7.046875 67.792969 7.046875 67.792969 6.890625 C 67.792969 6.6875 67.574219 6.578125 67.449219 6.578125 C 67.152344 6.609375 67.152344 6.921875 67.152344 6.953125 C 67.199219 7.328125 67.542969 7.4375 67.808594 7.4375 C 68.792969 7.4375 69.261719 6.09375 69.496094 5.0625 L 70.105469 2.375 L 71.011719 2.375 L 71.074219 2.109375 L 70.167969 2.109375 C 70.230469 1.671875 70.480469 0.1875 71.183594 0.1875 C 71.292969 0.1875 71.371094 0.21875 71.371094 0.296875 C 71.371094 0.375 71.292969 0.375 71.292969 0.5625 C 71.292969 0.65625 71.339844 0.890625 71.605469 0.890625 C 71.792969 0.890625 71.949219 0.71875 71.949219 0.546875 C 71.949219 0.375 71.824219 0 71.214844 0 C 70.152344 0 69.730469 1.390625 69.511719 2.109375 L 68.746094 2.109375 Z M 68.683594 2.375 "
       id="path70" />
    <path
       style=" stroke:none;fill-rule:nonzero;fill:rgb(0%,0%,0%);fill-opacity:1;"
       d="M 74.101563 2.171875 C 74.445313 1.421875 74.851563 0.515625 74.851563 0.359375 C 74.851563 0.21875 74.757813 0.109375 74.570313 0.109375 C 74.398438 0.109375 74.179688 0.234375 74.117188 0.453125 C 74.054688 0.71875 73.976563 1.703125 73.929688 2.171875 Z M 74.101563 2.171875 "
       id="path72" />
    <path
       style=" stroke:none;fill-rule:nonzero;fill:rgb(0%,0%,0%);fill-opacity:1;"
       d="M 75.902344 2.171875 C 76.246094 1.421875 76.652344 0.515625 76.652344 0.359375 C 76.652344 0.21875 76.558594 0.109375 76.371094 0.109375 C 76.199219 0.109375 75.980469 0.234375 75.917969 0.453125 C 75.855469 0.71875 75.777344 1.703125 75.730469 2.171875 Z M 75.902344 2.171875 "
       id="path74" />
    <path
       style=" stroke:none;fill-rule:nonzero;fill:rgb(0%,0%,0%);fill-opacity:1;"
       d="M 77.761719 7.171875 C 77.355469 6.140625 77.355469 5.40625 77.355469 4.84375 C 77.355469 4.3125 77.496094 3.171875 77.824219 2.21875 C 78.230469 1.078125 78.667969 0.625 79.058594 0.203125 L 78.949219 0.078125 C 77.433594 1.375 76.777344 2.6875 76.777344 4.078125 C 76.777344 4.625 76.777344 5.84375 77.605469 7.21875 Z M 77.761719 7.171875 "
       id="path76" />
    <path
       style=" stroke:none;fill-rule:nonzero;fill:rgb(0%,0%,0%);fill-opacity:1;"
       d="M 83.074219 4.71875 C 82.777344 5.109375 82.558594 5.390625 82.386719 5.390625 C 82.371094 5.390625 82.261719 5.359375 82.261719 5.234375 C 82.261719 4.984375 82.933594 2.90625 82.933594 2.546875 C 82.933594 2.203125 82.730469 2 82.355469 2 C 81.652344 2 80.886719 3.171875 80.480469 3.78125 L 80.464844 3.765625 L 81.011719 2.015625 L 80.980469 2 C 80.527344 2.09375 80.074219 2.171875 79.621094 2.25 L 79.621094 2.390625 C 80.074219 2.390625 80.152344 2.484375 80.152344 2.609375 C 80.152344 2.78125 79.589844 4.75 79.339844 5.703125 L 79.964844 5.703125 C 80.308594 4.5625 80.417969 4.203125 80.808594 3.625 C 81.105469 3.140625 81.636719 2.421875 82.042969 2.421875 C 82.199219 2.421875 82.246094 2.546875 82.246094 2.6875 C 82.246094 3.03125 81.621094 5.078125 81.621094 5.28125 C 81.621094 5.53125 81.636719 5.78125 82.027344 5.78125 C 82.480469 5.78125 82.777344 5.390625 83.199219 4.828125 Z M 83.074219 4.71875 "
       id="path78" />
    <path
       style=" stroke:none;fill-rule:nonzero;fill:rgb(0%,0%,0%);fill-opacity:1;"
       d="M 84.695313 3.578125 C 85.007813 2.84375 85.570313 2.1875 86.023438 2.1875 C 86.242188 2.1875 86.320313 2.34375 86.320313 2.53125 C 86.320313 2.59375 86.273438 3.609375 84.554688 3.953125 Z M 86.429688 4.78125 C 86.007813 5.125 85.648438 5.421875 85.195313 5.421875 C 84.835938 5.421875 84.398438 5.21875 84.398438 4.65625 C 84.398438 4.484375 84.445313 4.3125 84.492188 4.140625 L 84.726563 4.109375 C 86.085938 3.90625 86.882813 3.234375 86.882813 2.5625 C 86.882813 2.203125 86.617188 2 86.195313 2 C 85.007813 2 83.679688 3.40625 83.679688 4.609375 C 83.679688 5.140625 83.945313 5.796875 84.820313 5.796875 C 85.664063 5.796875 86.429688 5.015625 86.523438 4.890625 Z M 86.429688 4.78125 "
       id="path80" />
    <path
       style=" stroke:none;fill-rule:nonzero;fill:rgb(0%,0%,0%);fill-opacity:1;"
       d="M 89.628906 2.109375 L 88.957031 2.109375 L 89.191406 1.234375 C 89.207031 1.171875 89.191406 1.09375 89.144531 1.109375 C 89.066406 1.09375 89.035156 1.171875 88.988281 1.21875 C 88.753906 1.515625 88.347656 1.890625 88.082031 2.03125 C 87.941406 2.109375 87.707031 2.171875 87.644531 2.234375 C 87.628906 2.28125 87.628906 2.328125 87.628906 2.375 L 88.253906 2.375 L 87.644531 4.6875 C 87.613281 4.828125 87.457031 5.328125 87.457031 5.453125 C 87.457031 5.71875 87.691406 5.796875 87.863281 5.796875 C 88.300781 5.796875 88.628906 5.421875 89.050781 4.78125 L 88.941406 4.71875 C 88.738281 4.984375 88.441406 5.390625 88.269531 5.390625 C 88.175781 5.390625 88.128906 5.3125 88.128906 5.234375 C 88.128906 5.21875 88.128906 5.203125 88.144531 5.171875 L 88.878906 2.375 L 89.597656 2.375 Z M 89.628906 2.109375 "
       id="path82" />
    <path
       style=" stroke:none;fill-rule:nonzero;fill:rgb(0%,0%,0%);fill-opacity:1;"
       d="M 89.730469 7.21875 C 90.964844 6.21875 91.902344 4.828125 91.902344 3.234375 C 91.902344 2.140625 91.683594 1.0625 91.074219 0.078125 L 90.917969 0.125 C 91.136719 0.578125 91.324219 1.421875 91.324219 2.3125 C 91.324219 3.0625 91.199219 4.0625 90.855469 5.09375 C 90.464844 6.1875 89.980469 6.703125 89.621094 7.09375 Z M 89.730469 7.21875 "
       id="path84" />
    <g
       clip-path="url(#clip3)"
       clip-rule="nonzero"
       id="g88">
      <path
         style="fill:none;stroke-width:0.6;stroke-linecap:round;stroke-linejoin:round;stroke:rgb(0%,0%,0%);stroke-opacity:1;stroke-miterlimit:4;"
         d="M 80.332031 61.730469 L 80.332031 12.09375 "
         id="path86" />
    </g>
    <path
       style=" stroke:none;fill-rule:nonzero;fill:rgb(0%,0%,0%);fill-opacity:1;"
       d="M 79.714844 10.679688 C 79.414063 11.671875 79.140625 12.316406 78.820313 13.109375 L 81.847656 13.109375 C 81.710938 12.824219 81.25 11.671875 80.953125 10.679688 C 80.632813 9.617188 80.410156 8.652344 80.332031 8.027344 C 80.253906 8.652344 80.035156 9.617188 79.714844 10.679688 "
       id="path90" />
    <g
       clip-path="url(#clip4)"
       clip-rule="nonzero"
       id="g94">
      <path
         style="fill:none;stroke-width:1.2;stroke-linecap:round;stroke-linejoin:round;stroke:rgb(0%,0%,0%);stroke-opacity:1;stroke-miterlimit:4;"
         d="M 5.636719 25.128906 L 11.863281 22.949219 L 18.085938 20.679688 L 24.308594 18.472656 L 30.535156 16.519531 L 33.644531 15.71875 L 35.203125 15.378906 L 36.757813 15.085938 L 38.3125 14.84375 L 39.871094 14.660156 L 40.648438 14.589844 L 41.039063 14.5625 L 41.425781 14.535156 L 41.816406 14.515625 L 42.203125 14.496094 L 42.398438 14.488281 L 42.789063 14.480469 L 42.980469 14.476563 L 43.761719 14.476563 L 44.152344 14.484375 L 44.539063 14.496094 L 44.929688 14.511719 L 45.320313 14.53125 L 46.097656 14.585938 L 46.875 14.660156 L 47.652344 14.757813 L 49.207031 15.015625 L 50.765625 15.359375 L 52.320313 15.796875 L 55.433594 16.949219 L 58.542969 18.488281 L 61.65625 20.410156 L 67.878906 25.328125 L 74.105469 31.402344 L 86.554688 44.824219 L 92.78125 50.894531 L 95.890625 53.523438 L 99.003906 55.816406 L 102.117188 57.738281 L 105.226563 59.277344 L 108.339844 60.429688 L 109.894531 60.863281 L 111.453125 61.210938 L 113.007813 61.46875 L 113.785156 61.5625 L 114.5625 61.640625 L 115.34375 61.695313 L 115.730469 61.714844 L 116.121094 61.730469 L 116.3125 61.734375 L 116.507813 61.742188 L 116.703125 61.746094 L 117.675781 61.746094 L 118.066406 61.738281 L 118.457031 61.726563 L 118.84375 61.710938 L 119.234375 61.6875 L 120.011719 61.636719 L 120.789063 61.566406 L 122.34375 61.382813 L 123.902344 61.140625 L 127.011719 60.507813 L 130.125 59.707031 L 136.347656 57.753906 L 142.574219 55.542969 L 148.800781 53.277344 L 155.023438 51.09375 "
         id="path92" />
    </g>
  </g>
</svg>
