<?xml version="1.0" encoding="UTF-8" standalone="no"?>
<svg
   xmlns:dc="http://purl.org/dc/elements/1.1/"
   xmlns:cc="http://creativecommons.org/ns#"
   xmlns:rdf="http://www.w3.org/1999/02/22-rdf-syntax-ns#"
   xmlns:svg="http://www.w3.org/2000/svg"
   xmlns="http://www.w3.org/2000/svg"
   xmlns:sodipodi="http://sodipodi.sourceforge.net/DTD/sodipodi-0.dtd"
   xmlns:inkscape="http://www.inkscape.org/namespaces/inkscape"
   width="183.435791pt"
   height="108.487122pt"
   viewBox="0 0 183.435791 108.487122"
   version="1.2"
   id="svg201"
   sodipodi:docname="backpropagation_example.svg"
   inkscape:version="0.92.4 (5da689c313, 2019-01-14)">
  <metadata
     id="metadata205">
    <rdf:RDF>
      <cc:Work
         rdf:about="">
        <dc:format>image/svg+xml</dc:format>
        <dc:type
           rdf:resource="http://purl.org/dc/dcmitype/StillImage" />
        <dc:title></dc:title>
      </cc:Work>
    </rdf:RDF>
  </metadata>
  <sodipodi:namedview
     pagecolor="#ffffff"
     bordercolor="#666666"
     borderopacity="1"
     objecttolerance="10"
     gridtolerance="10"
     guidetolerance="10"
     inkscape:pageopacity="0"
     inkscape:pageshadow="2"
     inkscape:window-width="640"
     inkscape:window-height="480"
     id="namedview203"
     showgrid="false"
     inkscape:zoom="1.4064867"
     inkscape:cx="122.29053"
     inkscape:cy="72.324748"
     inkscape:window-x="0"
     inkscape:window-y="0"
     inkscape:window-maximized="0"
     inkscape:current-layer="svg201" />
  <defs
     id="defs20">
    <clipPath
       id="clip1">
      <path
         d="M 121 8 L 183.4375 8 L 183.4375 28 L 121 28 Z M 121 8 "
         id="path2" />
    </clipPath>
    <clipPath
       id="clip2">
      <path
         d="M 54 90 L 72 90 L 72 108.488281 L 54 108.488281 Z M 54 90 "
         id="path5" />
    </clipPath>
    <clipPath
       id="clip3">
      <path
         d="M 54 90 L 73 90 L 73 108.488281 L 54 108.488281 Z M 54 90 "
         id="path8" />
    </clipPath>
    <clipPath
       id="clip4">
      <path
         d="M 85 90 L 104 90 L 104 108.488281 L 85 108.488281 Z M 85 90 "
         id="path11" />
    </clipPath>
    <clipPath
       id="clip5">
      <path
         d="M 117 90 L 135 90 L 135 108.488281 L 117 108.488281 Z M 117 90 "
         id="path14" />
    </clipPath>
    <clipPath
       id="clip6">
      <path
         d="M 116 90 L 136 90 L 136 108.488281 L 116 108.488281 Z M 116 90 "
         id="path17" />
    </clipPath>
  </defs>
  <g
     id="surface28">
    <path
       style="fill:none;stroke-width:0.7;stroke-linecap:butt;stroke-linejoin:round;stroke:rgb(12.940979%,11.764526%,11.764526%);stroke-opacity:1;stroke-miterlimit:4;"
       d="M 77.820313 70.355469 C 82.648438 70.355469 86.566406 66.441406 86.566406 61.613281 C 86.566406 56.78125 82.648438 52.867188 77.820313 52.867188 C 72.992188 52.867188 69.074219 56.78125 69.074219 61.613281 C 69.074219 66.441406 72.992188 70.355469 77.820313 70.355469 Z M 88.316406 26.28125 C 93.144531 26.28125 97.058594 22.367188 97.058594 17.535156 C 97.058594 12.707031 93.144531 8.789063 88.316406 8.789063 C 83.484375 8.789063 79.570313 12.707031 79.570313 17.535156 C 79.570313 22.367188 83.484375 26.28125 88.316406 26.28125 Z M 63.128906 26.28125 C 67.957031 26.28125 71.875 22.367188 71.875 17.535156 C 71.875 12.707031 67.957031 8.789063 63.128906 8.789063 C 58.296875 8.789063 54.382813 12.707031 54.382813 17.535156 C 54.382813 22.367188 58.296875 26.28125 63.128906 26.28125 Z M 37.941406 26.28125 C 42.773438 26.28125 46.6875 22.367188 46.6875 17.535156 C 46.6875 12.707031 42.773438 8.789063 37.941406 8.789063 C 33.113281 8.789063 29.195313 12.707031 29.195313 17.535156 C 29.195313 22.367188 33.113281 26.28125 37.941406 26.28125 Z M 37.941406 26.28125 "
       id="path22" />
    <path
       style="fill-rule:nonzero;fill:rgb(12.940979%,11.764526%,11.764526%);fill-opacity:1;stroke-width:0.7;stroke-linecap:butt;stroke-linejoin:miter;stroke:rgb(12.940979%,11.764526%,11.764526%);stroke-opacity:1;stroke-miterlimit:4;"
       d="M 37.941406 26.28125 L 101.609375 56.714844 "
       id="path24" />
    <path
       style="fill-rule:nonzero;fill:rgb(12.940979%,11.764526%,11.764526%);fill-opacity:1;stroke-width:0.7;stroke-linecap:butt;stroke-linejoin:miter;stroke:rgb(12.940979%,11.764526%,11.764526%);stroke-opacity:1;stroke-miterlimit:4;"
       d="M 63.128906 26.28125 L 104.171875 54.847656 "
       id="path26" />
    <path
       style="fill-rule:nonzero;fill:rgb(12.940979%,11.764526%,11.764526%);fill-opacity:1;stroke-width:0.7;stroke-linecap:butt;stroke-linejoin:miter;stroke:rgb(12.940979%,11.764526%,11.764526%);stroke-opacity:1;stroke-miterlimit:4;"
       d="M 88.316406 26.28125 L 105.804688 52.867188 "
       id="path28" />
    <path
       style=" stroke:none;fill-rule:nonzero;fill:rgb(12.940979%,11.764526%,11.764526%);fill-opacity:1;"
       d="M 64.609375 43.777344 L 64.765625 43.761719 C 65.125 43.746094 65.171875 43.792969 65.28125 44.417969 C 65.34375 44.886719 65.421875 45.605469 65.453125 46.167969 L 65.484375 46.902344 C 65.484375 47.027344 65.484375 47.308594 65.59375 47.308594 C 65.71875 47.308594 65.78125 47.121094 66.59375 45.683594 C 66.96875 45.027344 67.171875 44.667969 67.328125 44.402344 L 67.34375 44.402344 L 67.578125 47.058594 C 67.59375 47.183594 67.59375 47.308594 67.6875 47.308594 C 67.78125 47.308594 67.890625 47.136719 68.21875 46.746094 C 68.609375 46.292969 69.90625 44.652344 69.90625 43.917969 C 69.90625 43.683594 69.765625 43.449219 69.46875 43.449219 C 69.21875 43.449219 69.140625 43.605469 69.140625 43.746094 C 69.140625 44.027344 69.5 44.058594 69.5 44.371094 C 69.5 44.808594 68.859375 45.621094 68.125 46.527344 L 67.84375 43.511719 C 67.84375 43.496094 67.84375 43.464844 67.78125 43.464844 C 67.734375 43.464844 67.703125 43.496094 67.6875 43.542969 L 66.078125 46.074219 L 66.0625 46.074219 C 66.0625 45.917969 65.984375 44.761719 65.828125 43.917969 C 65.75 43.464844 65.71875 43.449219 65.671875 43.449219 C 65.59375 43.449219 65.078125 43.589844 64.609375 43.652344 Z M 64.609375 43.777344 "
       id="path30" />
    <path
       style=" stroke:none;fill-rule:nonzero;fill:rgb(12.940979%,11.764526%,11.764526%);fill-opacity:1;"
       d="M 71.382813 48.800781 C 71.273438 49.003906 71.226563 49.082031 71.132813 49.082031 C 71.023438 49.082031 70.945313 48.894531 70.632813 48.175781 C 71.226563 47.660156 71.382813 47.535156 71.585938 47.519531 L 71.585938 47.457031 L 70.820313 47.457031 L 70.820313 47.519531 C 70.929688 47.519531 71.054688 47.519531 71.054688 47.597656 C 71.054688 47.738281 70.507813 48.128906 70.273438 48.316406 L 70.273438 48.300781 L 70.773438 46.410156 L 70.742188 46.378906 C 70.523438 46.441406 70.320313 46.472656 70.101563 46.503906 L 70.101563 46.566406 C 70.210938 46.566406 70.382813 46.566406 70.382813 46.675781 C 70.367188 46.753906 70.273438 47.066406 70.242188 47.222656 L 69.710938 49.253906 L 70.023438 49.253906 L 70.226563 48.503906 L 70.398438 48.363281 C 70.445313 48.488281 70.601563 48.863281 70.648438 48.957031 C 70.773438 49.207031 70.851563 49.300781 70.992188 49.300781 C 71.164063 49.300781 71.289063 49.144531 71.445313 48.847656 Z M 71.382813 48.800781 "
       id="path32" />
    <path
       style=" stroke:none;fill-rule:nonzero;fill:rgb(12.940979%,11.764526%,11.764526%);fill-opacity:1;"
       d="M 71.761719 49.269531 C 71.683594 49.597656 71.574219 50.019531 71.355469 50.019531 C 71.324219 50.019531 71.277344 50.019531 71.277344 49.988281 C 71.277344 49.925781 71.324219 49.925781 71.324219 49.847656 C 71.324219 49.753906 71.246094 49.691406 71.167969 49.691406 C 71.011719 49.691406 70.996094 49.832031 70.996094 49.847656 C 70.996094 50.066406 71.183594 50.128906 71.324219 50.128906 C 71.699219 50.128906 71.933594 49.816406 72.105469 49.128906 L 72.542969 47.410156 L 72.527344 47.394531 C 72.371094 47.425781 71.996094 47.503906 71.824219 47.503906 L 71.824219 47.566406 L 71.964844 47.566406 C 72.105469 47.582031 72.121094 47.613281 72.121094 47.675781 C 72.136719 47.738281 72.121094 47.832031 72.058594 48.035156 Z M 72.667969 46.738281 C 72.667969 46.644531 72.605469 46.503906 72.464844 46.503906 C 72.355469 46.503906 72.261719 46.582031 72.261719 46.738281 C 72.261719 46.878906 72.355469 46.957031 72.464844 46.957031 C 72.605469 46.957031 72.667969 46.816406 72.667969 46.738281 Z M 72.667969 46.738281 "
       id="path34" />
    <g
       clip-path="url(#clip1)"
       clip-rule="nonzero"
       id="g38">
      <path
         style="fill:none;stroke-width:0.7;stroke-linecap:butt;stroke-linejoin:round;stroke:rgb(12.940979%,11.764526%,11.764526%);stroke-opacity:1;stroke-miterlimit:4;"
         d="M 130.265625 26.734375 C 125.433594 26.734375 121.519531 22.816406 121.519531 17.988281 C 121.519531 13.15625 125.433594 9.242188 130.265625 9.242188 C 135.09375 9.242188 139.007813 13.15625 139.007813 17.988281 C 139.007813 22.816406 135.09375 26.734375 130.265625 26.734375 Z M 174.339844 26.734375 C 169.507813 26.734375 165.59375 22.816406 165.59375 17.988281 C 165.59375 13.15625 169.507813 9.242188 174.339844 9.242188 C 179.167969 9.242188 183.085938 13.15625 183.085938 17.988281 C 183.085938 22.816406 179.167969 26.734375 174.339844 26.734375 Z M 174.339844 26.734375 "
         id="path36" />
    </g>
    <path
       style="fill-rule:nonzero;fill:rgb(12.940979%,11.764526%,11.764526%);fill-opacity:1;stroke-width:0.7;stroke-linecap:butt;stroke-linejoin:miter;stroke:rgb(12.940979%,11.764526%,11.764526%);stroke-opacity:1;stroke-miterlimit:4;"
       d="M 174.339844 26.734375 L 117.464844 58.582031 "
       id="path40" />
    <path
       style="fill-rule:nonzero;fill:rgb(12.940979%,11.764526%,11.764526%);fill-opacity:1;stroke-width:0.7;stroke-linecap:butt;stroke-linejoin:miter;stroke:rgb(12.940979%,11.764526%,11.764526%);stroke-opacity:1;stroke-miterlimit:4;"
       d="M 130.265625 26.734375 L 113.734375 54.148438 "
       id="path42" />
    <path
       style=" stroke:none;fill-rule:nonzero;fill:rgb(12.940979%,11.764526%,11.764526%);fill-opacity:1;"
       d="M 38.636719 2.546875 C 38.871094 2.0625 38.980469 1.609375 38.980469 1.5 C 38.980469 1.375 38.933594 1.265625 38.792969 1.265625 C 38.558594 1.265625 38.511719 1.53125 38.464844 1.75 C 38.371094 2.15625 38.355469 2.34375 38.339844 2.5 C 38.199219 2.703125 37.792969 3.1875 37.246094 3.1875 C 36.652344 3.1875 36.480469 2.640625 36.480469 2.21875 C 36.480469 1.890625 36.589844 1.234375 37.199219 0.359375 C 37.277344 0.265625 37.277344 0.25 37.277344 0.21875 C 37.277344 0.15625 37.246094 0.109375 37.167969 0.109375 C 37.136719 0.109375 37.105469 0.125 37.074219 0.140625 C 37.058594 0.15625 36.699219 0.625 36.464844 1.203125 C 36.246094 1.765625 36.199219 2.296875 36.199219 2.578125 C 36.199219 3.3125 36.496094 3.8125 37.136719 3.8125 C 37.480469 3.8125 37.917969 3.65625 38.355469 3.0625 C 38.464844 3.625 38.777344 3.8125 39.167969 3.8125 C 39.777344 3.8125 40.292969 3.359375 40.636719 2.828125 C 41.121094 2.046875 41.277344 0.90625 41.277344 0.609375 C 41.277344 0.109375 41.027344 0 40.902344 0 C 40.683594 0 40.464844 0.234375 40.464844 0.421875 C 40.464844 0.546875 40.542969 0.609375 40.605469 0.671875 C 40.714844 0.78125 40.902344 1 40.902344 1.375 C 40.902344 2.078125 40.167969 3.1875 39.277344 3.1875 C 38.761719 3.1875 38.667969 2.71875 38.636719 2.546875 Z M 38.636719 2.546875 "
       id="path44" />
    <path
       style=" stroke:none;fill-rule:nonzero;fill:rgb(12.940979%,11.764526%,11.764526%);fill-opacity:1;"
       d="M 41.726563 5.816406 L 43.273438 5.816406 L 43.273438 5.738281 C 43.007813 5.738281 42.804688 5.722656 42.804688 5.550781 C 42.804688 5.457031 42.867188 5.253906 42.898438 5.144531 L 43.695313 2.238281 C 43.726563 2.144531 43.757813 2.035156 43.710938 2.035156 C 43.664063 2.035156 42.882813 2.207031 42.632813 2.253906 L 42.632813 2.332031 L 42.945313 2.316406 C 42.992188 2.316406 43.164063 2.316406 43.164063 2.503906 C 43.164063 2.550781 43.132813 2.628906 43.117188 2.691406 L 42.351563 5.441406 C 42.273438 5.691406 42.054688 5.707031 41.726563 5.738281 Z M 41.726563 5.816406 "
       id="path46" />
    <path
       style=" stroke:none;fill-rule:nonzero;fill:rgb(12.940979%,11.764526%,11.764526%);fill-opacity:1;"
       d="M 106.089844 19.042969 C 106.308594 19.042969 106.636719 18.871094 106.636719 18.511719 C 106.636719 18.214844 106.386719 17.949219 106.089844 17.949219 C 105.808594 17.949219 105.558594 18.199219 105.558594 18.511719 C 105.558594 18.886719 105.886719 19.042969 106.089844 19.042969 Z M 106.089844 19.042969 "
       id="path48" />
    <path
       style=" stroke:none;fill-rule:nonzero;fill:rgb(12.940979%,11.764526%,11.764526%);fill-opacity:1;"
       d="M 108.539063 19.042969 C 108.757813 19.042969 109.085938 18.871094 109.085938 18.511719 C 109.085938 18.214844 108.835938 17.949219 108.539063 17.949219 C 108.257813 17.949219 108.007813 18.199219 108.007813 18.511719 C 108.007813 18.886719 108.335938 19.042969 108.539063 19.042969 Z M 108.539063 19.042969 "
       id="path50" />
    <path
       style=" stroke:none;fill-rule:nonzero;fill:rgb(12.940979%,11.764526%,11.764526%);fill-opacity:1;"
       d="M 110.988281 19.042969 C 111.207031 19.042969 111.535156 18.871094 111.535156 18.511719 C 111.535156 18.214844 111.285156 17.949219 110.988281 17.949219 C 110.707031 17.949219 110.457031 18.199219 110.457031 18.511719 C 110.457031 18.886719 110.785156 19.042969 110.988281 19.042969 Z M 110.988281 19.042969 "
       id="path52" />
    <path
       style=" stroke:none;fill-rule:nonzero;fill:rgb(12.940979%,11.764526%,11.764526%);fill-opacity:1;"
       d="M 149.46875 19.042969 C 149.6875 19.042969 150.015625 18.871094 150.015625 18.511719 C 150.015625 18.214844 149.765625 17.949219 149.46875 17.949219 C 149.1875 17.949219 148.9375 18.199219 148.9375 18.511719 C 148.9375 18.886719 149.265625 19.042969 149.46875 19.042969 Z M 149.46875 19.042969 "
       id="path54" />
    <path
       style=" stroke:none;fill-rule:nonzero;fill:rgb(12.940979%,11.764526%,11.764526%);fill-opacity:1;"
       d="M 151.917969 19.042969 C 152.136719 19.042969 152.464844 18.871094 152.464844 18.511719 C 152.464844 18.214844 152.214844 17.949219 151.917969 17.949219 C 151.636719 17.949219 151.386719 18.199219 151.386719 18.511719 C 151.386719 18.886719 151.714844 19.042969 151.917969 19.042969 Z M 151.917969 19.042969 "
       id="path56" />
    <path
       style=" stroke:none;fill-rule:nonzero;fill:rgb(12.940979%,11.764526%,11.764526%);fill-opacity:1;"
       d="M 154.363281 19.042969 C 154.582031 19.042969 154.910156 18.871094 154.910156 18.511719 C 154.910156 18.214844 154.660156 17.949219 154.363281 17.949219 C 154.082031 17.949219 153.832031 18.199219 153.832031 18.511719 C 153.832031 18.886719 154.160156 19.042969 154.363281 19.042969 Z M 154.363281 19.042969 "
       id="path58" />
    <path
       style="fill-rule:nonzero;fill:rgb(12.940979%,11.764526%,11.764526%);fill-opacity:1;stroke-width:0.7;stroke-linecap:butt;stroke-linejoin:miter;stroke:rgb(12.940979%,11.764526%,11.764526%);stroke-opacity:1;stroke-miterlimit:4;"
       d="M 141.441406 45.355469 L 132.113281 50.382813 "
       id="path60" />
    <path
       style=" stroke:none;fill-rule:nonzero;fill:rgb(12.940979%,11.764526%,11.764526%);fill-opacity:1;"
       d="M 130.996094 51.796875 C 132.5 51.492188 132.582031 51.527344 133.992188 51.371094 L 132.316406 48.261719 C 132.097656 48.558594 131.167969 49.671875 130.316406 50.527344 C 129.402344 51.441406 128.535156 52.203125 127.9375 52.625 C 128.621094 52.363281 129.730469 52.054688 130.996094 51.796875 "
       id="path62" />
    <path
       style="fill-rule:nonzero;fill:rgb(12.940979%,11.764526%,11.764526%);fill-opacity:1;stroke-width:0.7;stroke-linecap:butt;stroke-linejoin:miter;stroke:rgb(12.940979%,11.764526%,11.764526%);stroke-opacity:1;stroke-miterlimit:4;"
       d="M 125.699219 33.859375 L 120.359375 43.011719 "
       id="path64" />
    <path
       style=" stroke:none;fill-rule:nonzero;fill:rgb(12.940979%,11.764526%,11.764526%);fill-opacity:1;"
       d="M 120.144531 44.800781 C 121.027344 43.976563 121.6875 43.488281 122.476563 42.875 L 119.425781 41.097656 C 119.394531 41.464844 119.179688 42.898438 118.898438 44.074219 C 118.597656 45.332031 118.25 46.429688 117.964844 47.101563 C 118.410156 46.519531 119.195313 45.679688 120.144531 44.800781 "
       id="path66" />
    <path
       style="fill-rule:nonzero;fill:rgb(12.940979%,11.764526%,11.764526%);fill-opacity:1;stroke-width:0.7;stroke-linecap:butt;stroke-linejoin:miter;stroke:rgb(12.940979%,11.764526%,11.764526%);stroke-opacity:1;stroke-miterlimit:4;"
       d="M 92.980469 33.109375 L 98.695313 42.03125 "
       id="path68" />
    <path
       style=" stroke:none;fill-rule:nonzero;fill:rgb(12.940979%,11.764526%,11.764526%);fill-opacity:1;"
       d="M 100.191406 43.035156 C 99.859375 41.875 99.726563 41.066406 99.539063 40.085938 L 96.566406 41.988281 C 96.878906 42.183594 98.058594 43.027344 98.976563 43.8125 C 99.957031 44.65625 100.777344 45.460938 101.246094 46.023438 C 100.933594 45.363281 100.542969 44.28125 100.191406 43.035156 "
       id="path70" />
    <path
       style="fill-rule:nonzero;fill:rgb(12.940979%,11.764526%,11.764526%);fill-opacity:1;stroke-width:0.7;stroke-linecap:butt;stroke-linejoin:miter;stroke:rgb(12.940979%,11.764526%,11.764526%);stroke-opacity:1;stroke-miterlimit:4;"
       d="M 79.460938 37.644531 L 88.164063 43.6875 "
       id="path72" />
    <path
       style=" stroke:none;fill-rule:nonzero;fill:rgb(12.940979%,11.764526%,11.764526%);fill-opacity:1;"
       d="M 89.933594 44.042969 C 89.179688 43.097656 88.746094 42.402344 88.195313 41.566406 L 86.183594 44.464844 C 86.546875 44.527344 87.960938 44.855469 89.109375 45.226563 C 90.339844 45.625 91.40625 46.054688 92.058594 46.398438 C 91.511719 45.90625 90.734375 45.054688 89.933594 44.042969 "
       id="path74" />
    <path
       style="fill-rule:nonzero;fill:rgb(12.940979%,11.764526%,11.764526%);fill-opacity:1;stroke-width:0.7;stroke-linecap:butt;stroke-linejoin:miter;stroke:rgb(12.940979%,11.764526%,11.764526%);stroke-opacity:1;stroke-miterlimit:4;"
       d="M 71.863281 42.558594 L 81.425781 47.125 "
       id="path76" />
    <path
       style=" stroke:none;fill-rule:nonzero;fill:rgb(12.940979%,11.764526%,11.764526%);fill-opacity:1;"
       d="M 83.226563 47.191406 C 82.332031 46.378906 81.792969 45.761719 81.117188 45.027344 L 79.597656 48.210938 C 79.964844 48.210938 81.410156 48.308594 82.605469 48.492188 C 83.882813 48.6875 85.007813 48.941406 85.703125 49.171875 C 85.085938 48.777344 84.183594 48.0625 83.226563 47.191406 "
       id="path78" />
    <path
       style=" stroke:none;fill-rule:nonzero;fill:rgb(12.940979%,11.764526%,11.764526%);fill-opacity:1;"
       d="M 64.175781 2.546875 C 64.410156 2.0625 64.519531 1.609375 64.519531 1.5 C 64.519531 1.375 64.472656 1.265625 64.332031 1.265625 C 64.097656 1.265625 64.050781 1.53125 64.003906 1.75 C 63.910156 2.15625 63.894531 2.34375 63.878906 2.5 C 63.738281 2.703125 63.332031 3.1875 62.785156 3.1875 C 62.191406 3.1875 62.019531 2.640625 62.019531 2.21875 C 62.019531 1.890625 62.128906 1.234375 62.738281 0.359375 C 62.816406 0.265625 62.816406 0.25 62.816406 0.21875 C 62.816406 0.15625 62.785156 0.109375 62.707031 0.109375 C 62.675781 0.109375 62.644531 0.125 62.613281 0.140625 C 62.597656 0.15625 62.238281 0.625 62.003906 1.203125 C 61.785156 1.765625 61.738281 2.296875 61.738281 2.578125 C 61.738281 3.3125 62.035156 3.8125 62.675781 3.8125 C 63.019531 3.8125 63.457031 3.65625 63.894531 3.0625 C 64.003906 3.625 64.316406 3.8125 64.707031 3.8125 C 65.316406 3.8125 65.832031 3.359375 66.175781 2.828125 C 66.660156 2.046875 66.816406 0.90625 66.816406 0.609375 C 66.816406 0.109375 66.566406 0 66.441406 0 C 66.222656 0 66.003906 0.234375 66.003906 0.421875 C 66.003906 0.546875 66.082031 0.609375 66.144531 0.671875 C 66.253906 0.78125 66.441406 1 66.441406 1.375 C 66.441406 2.078125 65.707031 3.1875 64.816406 3.1875 C 64.300781 3.1875 64.207031 2.71875 64.175781 2.546875 Z M 64.175781 2.546875 "
       id="path80" />
    <path
       style=" stroke:none;fill-rule:nonzero;fill:rgb(12.940979%,11.764526%,11.764526%);fill-opacity:1;"
       d="M 69.214844 5.035156 C 69.121094 5.238281 69.027344 5.394531 68.667969 5.394531 L 67.605469 5.394531 L 67.605469 5.363281 L 68.667969 4.285156 C 69.371094 3.597656 69.511719 3.347656 69.511719 2.972656 C 69.511719 2.550781 69.199219 2.035156 68.605469 2.035156 C 68.464844 2.035156 67.730469 2.050781 67.433594 2.925781 L 67.542969 2.972656 C 67.621094 2.832031 67.839844 2.441406 68.339844 2.441406 C 68.777344 2.441406 69.027344 2.785156 69.027344 3.128906 C 69.027344 3.316406 69.011719 3.628906 68.214844 4.472656 L 67.042969 5.722656 L 67.042969 5.816406 L 69.027344 5.816406 L 69.308594 5.082031 Z M 69.214844 5.035156 "
       id="path82" />
    <path
       style=" stroke:none;fill-rule:nonzero;fill:rgb(12.940979%,11.764526%,11.764526%);fill-opacity:1;"
       d="M 88.953125 2.546875 C 89.1875 2.0625 89.296875 1.609375 89.296875 1.5 C 89.296875 1.375 89.25 1.265625 89.109375 1.265625 C 88.875 1.265625 88.828125 1.53125 88.78125 1.75 C 88.6875 2.15625 88.671875 2.34375 88.65625 2.5 C 88.515625 2.703125 88.109375 3.1875 87.5625 3.1875 C 86.96875 3.1875 86.796875 2.640625 86.796875 2.21875 C 86.796875 1.890625 86.90625 1.234375 87.515625 0.359375 C 87.59375 0.265625 87.59375 0.25 87.59375 0.21875 C 87.59375 0.15625 87.5625 0.109375 87.484375 0.109375 C 87.453125 0.109375 87.421875 0.125 87.390625 0.140625 C 87.375 0.15625 87.015625 0.625 86.78125 1.203125 C 86.5625 1.765625 86.515625 2.296875 86.515625 2.578125 C 86.515625 3.3125 86.8125 3.8125 87.453125 3.8125 C 87.796875 3.8125 88.234375 3.65625 88.671875 3.0625 C 88.78125 3.625 89.09375 3.8125 89.484375 3.8125 C 90.09375 3.8125 90.609375 3.359375 90.953125 2.828125 C 91.4375 2.046875 91.59375 0.90625 91.59375 0.609375 C 91.59375 0.109375 91.34375 0 91.21875 0 C 91 0 90.78125 0.234375 90.78125 0.421875 C 90.78125 0.546875 90.859375 0.609375 90.921875 0.671875 C 91.03125 0.78125 91.21875 1 91.21875 1.375 C 91.21875 2.078125 90.484375 3.1875 89.59375 3.1875 C 89.078125 3.1875 88.984375 2.71875 88.953125 2.546875 Z M 88.953125 2.546875 "
       id="path84" />
    <path
       style=" stroke:none;fill-rule:nonzero;fill:rgb(12.940979%,11.764526%,11.764526%);fill-opacity:1;"
       d="M 92.757813 2.644531 C 92.835938 2.535156 93.039063 2.269531 93.382813 2.269531 C 93.601563 2.269531 93.867188 2.410156 93.867188 2.785156 C 93.867188 3.378906 93.101563 3.628906 92.539063 3.707031 L 92.539063 3.800781 C 93.085938 3.753906 93.570313 3.972656 93.570313 4.753906 C 93.570313 5.457031 93.054688 5.644531 92.867188 5.644531 C 92.539063 5.644531 92.367188 5.300781 92.101563 5.300781 C 91.898438 5.300781 91.835938 5.410156 91.835938 5.519531 C 91.835938 5.769531 92.148438 5.863281 92.476563 5.863281 C 93.507813 5.863281 94.023438 5.066406 94.023438 4.441406 C 94.023438 3.832031 93.632813 3.660156 93.492188 3.597656 L 93.492188 3.566406 C 94.085938 3.347656 94.351563 3.160156 94.351563 2.738281 C 94.351563 2.269531 93.960938 2.035156 93.539063 2.035156 C 93.226563 2.035156 92.804688 2.285156 92.664063 2.613281 Z M 92.757813 2.644531 "
       id="path86" />
    <path
       style=" stroke:none;fill-rule:nonzero;fill:rgb(12.940979%,11.764526%,11.764526%);fill-opacity:1;"
       d="M 130.636719 2.546875 C 130.871094 2.0625 130.980469 1.609375 130.980469 1.5 C 130.980469 1.375 130.933594 1.265625 130.792969 1.265625 C 130.558594 1.265625 130.511719 1.53125 130.464844 1.75 C 130.371094 2.15625 130.355469 2.34375 130.339844 2.5 C 130.199219 2.703125 129.792969 3.1875 129.246094 3.1875 C 128.652344 3.1875 128.480469 2.640625 128.480469 2.21875 C 128.480469 1.890625 128.589844 1.234375 129.199219 0.359375 C 129.277344 0.265625 129.277344 0.25 129.277344 0.21875 C 129.277344 0.15625 129.246094 0.109375 129.167969 0.109375 C 129.136719 0.109375 129.105469 0.125 129.074219 0.140625 C 129.058594 0.15625 128.699219 0.625 128.464844 1.203125 C 128.246094 1.765625 128.199219 2.296875 128.199219 2.578125 C 128.199219 3.3125 128.496094 3.8125 129.136719 3.8125 C 129.480469 3.8125 129.917969 3.65625 130.355469 3.0625 C 130.464844 3.625 130.777344 3.8125 131.167969 3.8125 C 131.777344 3.8125 132.292969 3.359375 132.636719 2.828125 C 133.121094 2.046875 133.277344 0.90625 133.277344 0.609375 C 133.277344 0.109375 133.027344 0 132.902344 0 C 132.683594 0 132.464844 0.234375 132.464844 0.421875 C 132.464844 0.546875 132.542969 0.609375 132.605469 0.671875 C 132.714844 0.78125 132.902344 1 132.902344 1.375 C 132.902344 2.078125 132.167969 3.1875 131.277344 3.1875 C 130.761719 3.1875 130.667969 2.71875 130.636719 2.546875 Z M 130.636719 2.546875 "
       id="path88" />
    <path
       style=" stroke:none;fill-rule:nonzero;fill:rgb(12.940979%,11.764526%,11.764526%);fill-opacity:1;"
       d="M 135.757813 5.207031 C 135.601563 5.488281 135.539063 5.582031 135.414063 5.582031 C 135.273438 5.582031 135.164063 5.332031 134.757813 4.378906 C 135.539063 3.691406 135.742188 3.519531 136.023438 3.519531 L 136.023438 3.425781 L 135.007813 3.425781 L 135.007813 3.519531 C 135.148438 3.519531 135.304688 3.519531 135.304688 3.613281 C 135.304688 3.785156 134.585938 4.332031 134.289063 4.566406 L 134.273438 4.550781 L 134.945313 2.019531 L 134.914063 1.988281 C 134.617188 2.066406 134.335938 2.113281 134.039063 2.144531 L 134.039063 2.238281 C 134.179688 2.238281 134.414063 2.238281 134.414063 2.378906 C 134.414063 2.503906 134.289063 2.910156 134.226563 3.113281 L 133.523438 5.816406 L 133.945313 5.816406 L 134.210938 4.816406 L 134.445313 4.628906 C 134.507813 4.800781 134.710938 5.285156 134.789063 5.425781 C 134.945313 5.753906 135.054688 5.878906 135.226563 5.878906 C 135.476563 5.878906 135.632813 5.675781 135.851563 5.269531 Z M 135.757813 5.207031 "
       id="path90" />
    <path
       style=" stroke:none;fill-rule:nonzero;fill:rgb(12.940979%,11.764526%,11.764526%);fill-opacity:1;"
       d="M 175.238281 2.546875 C 175.472656 2.0625 175.582031 1.609375 175.582031 1.5 C 175.582031 1.375 175.535156 1.265625 175.394531 1.265625 C 175.160156 1.265625 175.113281 1.53125 175.066406 1.75 C 174.972656 2.15625 174.957031 2.34375 174.941406 2.5 C 174.800781 2.703125 174.394531 3.1875 173.847656 3.1875 C 173.253906 3.1875 173.082031 2.640625 173.082031 2.21875 C 173.082031 1.890625 173.191406 1.234375 173.800781 0.359375 C 173.878906 0.265625 173.878906 0.25 173.878906 0.21875 C 173.878906 0.15625 173.847656 0.109375 173.769531 0.109375 C 173.738281 0.109375 173.707031 0.125 173.675781 0.140625 C 173.660156 0.15625 173.300781 0.625 173.066406 1.203125 C 172.847656 1.765625 172.800781 2.296875 172.800781 2.578125 C 172.800781 3.3125 173.097656 3.8125 173.738281 3.8125 C 174.082031 3.8125 174.519531 3.65625 174.957031 3.0625 C 175.066406 3.625 175.378906 3.8125 175.769531 3.8125 C 176.378906 3.8125 176.894531 3.359375 177.238281 2.828125 C 177.722656 2.046875 177.878906 0.90625 177.878906 0.609375 C 177.878906 0.109375 177.628906 0 177.503906 0 C 177.285156 0 177.066406 0.234375 177.066406 0.421875 C 177.066406 0.546875 177.144531 0.609375 177.207031 0.671875 C 177.316406 0.78125 177.503906 1 177.503906 1.375 C 177.503906 2.078125 176.769531 3.1875 175.878906 3.1875 C 175.363281 3.1875 175.269531 2.71875 175.238281 2.546875 Z M 175.238281 2.546875 "
       id="path92" />
    <path
       style=" stroke:none;fill-rule:nonzero;fill:rgb(12.940979%,11.764526%,11.764526%);fill-opacity:1;"
       d="M 180 5.222656 C 179.796875 5.441406 179.546875 5.675781 179.203125 5.675781 C 178.859375 5.675781 178.703125 5.425781 178.703125 4.988281 C 178.703125 4.457031 179.078125 3.472656 179.8125 3.472656 C 179.90625 3.472656 180.015625 3.488281 180.015625 3.582031 C 180.015625 3.675781 179.9375 3.707031 179.9375 3.847656 C 179.9375 3.988281 180.015625 4.066406 180.15625 4.066406 C 180.296875 4.066406 180.421875 3.957031 180.421875 3.800781 C 180.421875 3.628906 180.28125 3.347656 179.8125 3.347656 C 178.984375 3.347656 178.21875 4.207031 178.21875 4.988281 C 178.21875 5.738281 178.671875 5.878906 179.046875 5.878906 C 179.625 5.878906 179.953125 5.457031 180.09375 5.285156 Z M 180 5.222656 "
       id="path94" />
    <path
       style=" stroke:none;fill-rule:nonzero;fill:rgb(0%,0%,0%);fill-opacity:1;"
       d="M 2.953125 15.132813 C 1.53125 15.132813 0.078125 16.710938 0.078125 18.164063 C 0.078125 18.976563 0.515625 19.570313 1.5625 19.570313 C 3.0625 19.570313 4.390625 17.789063 4.390625 16.585938 C 4.390625 15.945313 4.09375 15.132813 2.953125 15.132813 Z M 2.890625 15.351563 C 3.359375 15.351563 3.578125 15.773438 3.578125 16.289063 C 3.578125 17.335938 2.796875 19.367188 1.6875 19.367188 C 1.1875 19.367188 0.90625 19.007813 0.90625 18.445313 C 0.90625 17.289063 1.796875 15.351563 2.890625 15.351563 Z M 2.890625 15.351563 "
       id="path96" />
    <path
       style=" stroke:none;fill-rule:nonzero;fill:rgb(0%,0%,0%);fill-opacity:1;"
       d="M 9.226563 18.320313 C 8.882813 18.742188 8.617188 19.085938 8.429688 19.085938 C 8.320313 19.085938 8.304688 18.976563 8.304688 18.929688 C 8.304688 18.789063 8.429688 18.351563 8.492188 18.164063 L 9.273438 15.226563 L 8.539063 15.226563 C 8.164063 16.273438 7.945313 16.898438 7.460938 17.617188 C 7.132813 18.132813 6.507813 19.054688 6.085938 19.054688 C 5.882813 19.054688 5.851563 18.835938 5.882813 18.710938 L 6.773438 15.164063 L 6.742188 15.132813 C 6.257813 15.257813 5.773438 15.351563 5.273438 15.398438 L 5.273438 15.539063 C 5.679688 15.539063 5.867188 15.539063 5.867188 15.820313 C 5.867188 16.085938 5.117188 18.554688 5.117188 18.992188 C 5.117188 19.414063 5.304688 19.570313 5.664063 19.570313 C 6.539063 19.570313 7.273438 18.351563 7.929688 17.242188 L 7.960938 17.242188 C 7.742188 18.039063 7.539063 18.867188 7.539063 19.039063 C 7.539063 19.179688 7.554688 19.554688 8.007813 19.554688 C 8.492188 19.554688 8.742188 19.289063 9.367188 18.398438 Z M 9.226563 18.320313 "
       id="path98" />
    <path
       style=" stroke:none;fill-rule:nonzero;fill:rgb(0%,0%,0%);fill-opacity:1;"
       d="M 12.511719 15.273438 L 11.714844 15.273438 L 11.996094 14.257813 C 12.011719 14.179688 11.996094 14.085938 11.933594 14.117188 C 11.839844 14.085938 11.792969 14.179688 11.761719 14.226563 C 11.480469 14.570313 11.011719 15.007813 10.699219 15.179688 C 10.527344 15.273438 10.246094 15.335938 10.199219 15.429688 C 10.167969 15.476563 10.167969 15.523438 10.167969 15.585938 L 10.902344 15.585938 L 10.199219 18.273438 C 10.152344 18.429688 9.964844 19.023438 9.964844 19.179688 C 9.964844 19.476563 10.246094 19.570313 10.433594 19.570313 C 10.949219 19.570313 11.324219 19.132813 11.824219 18.382813 L 11.699219 18.320313 C 11.464844 18.632813 11.121094 19.085938 10.917969 19.085938 C 10.808594 19.085938 10.761719 19.007813 10.761719 18.929688 C 10.761719 18.898438 10.761719 18.867188 10.777344 18.835938 L 11.636719 15.585938 L 12.449219 15.585938 Z M 12.511719 15.273438 "
       id="path100" />
    <path
       style=" stroke:none;fill-rule:nonzero;fill:rgb(0%,0%,0%);fill-opacity:1;"
       d="M 16.050781 16.398438 C 16.050781 17.554688 15.160156 19.382813 13.972656 19.382813 C 13.722656 19.382813 13.472656 19.273438 13.472656 19.023438 C 13.472656 18.632813 13.863281 17.304688 14.113281 16.679688 C 14.363281 16.007813 14.941406 15.554688 15.394531 15.554688 C 16.035156 15.554688 16.050781 16.132813 16.050781 16.398438 Z M 12.878906 15.507813 L 13.113281 15.507813 C 13.332031 15.492188 13.519531 15.617188 13.519531 15.789063 C 13.519531 15.992188 12.519531 19.632813 12.253906 20.742188 C 12.175781 21.054688 12.113281 21.320313 11.597656 21.320313 L 11.597656 21.476563 L 13.613281 21.476563 L 13.613281 21.320313 C 13.347656 21.320313 12.972656 21.320313 12.972656 21.007813 C 12.972656 20.820313 13.253906 19.742188 13.347656 19.398438 C 13.566406 19.523438 13.769531 19.570313 14.003906 19.570313 C 15.363281 19.570313 16.925781 17.945313 16.925781 16.429688 C 16.925781 15.710938 16.628906 15.132813 15.753906 15.132813 C 14.957031 15.132813 14.394531 15.851563 14.160156 16.195313 L 14.144531 16.179688 L 14.410156 15.273438 C 14.441406 15.164063 14.410156 15.132813 14.378906 15.132813 L 12.863281 15.351563 Z M 12.878906 15.507813 "
       id="path102" />
    <path
       style=" stroke:none;fill-rule:nonzero;fill:rgb(0%,0%,0%);fill-opacity:1;"
       d="M 21.742188 18.320313 C 21.398438 18.742188 21.132813 19.085938 20.945313 19.085938 C 20.835938 19.085938 20.820313 18.976563 20.820313 18.929688 C 20.820313 18.789063 20.945313 18.351563 21.007813 18.164063 L 21.789063 15.226563 L 21.054688 15.226563 C 20.679688 16.273438 20.460938 16.898438 19.976563 17.617188 C 19.648438 18.132813 19.023438 19.054688 18.601563 19.054688 C 18.398438 19.054688 18.367188 18.835938 18.398438 18.710938 L 19.289063 15.164063 L 19.257813 15.132813 C 18.773438 15.257813 18.289063 15.351563 17.789063 15.398438 L 17.789063 15.539063 C 18.195313 15.539063 18.382813 15.539063 18.382813 15.820313 C 18.382813 16.085938 17.632813 18.554688 17.632813 18.992188 C 17.632813 19.414063 17.820313 19.570313 18.179688 19.570313 C 19.054688 19.570313 19.789063 18.351563 20.445313 17.242188 L 20.476563 17.242188 C 20.257813 18.039063 20.054688 18.867188 20.054688 19.039063 C 20.054688 19.179688 20.070313 19.554688 20.523438 19.554688 C 21.007813 19.554688 21.257813 19.289063 21.882813 18.398438 Z M 21.742188 18.320313 "
       id="path104" />
    <path
       style=" stroke:none;fill-rule:nonzero;fill:rgb(0%,0%,0%);fill-opacity:1;"
       d="M 25.03125 15.273438 L 24.234375 15.273438 L 24.515625 14.257813 C 24.53125 14.179688 24.515625 14.085938 24.453125 14.117188 C 24.359375 14.085938 24.3125 14.179688 24.28125 14.226563 C 24 14.570313 23.53125 15.007813 23.21875 15.179688 C 23.046875 15.273438 22.765625 15.335938 22.71875 15.429688 C 22.6875 15.476563 22.6875 15.523438 22.6875 15.585938 L 23.421875 15.585938 L 22.71875 18.273438 C 22.671875 18.429688 22.484375 19.023438 22.484375 19.179688 C 22.484375 19.476563 22.765625 19.570313 22.953125 19.570313 C 23.46875 19.570313 23.84375 19.132813 24.34375 18.382813 L 24.21875 18.320313 C 23.984375 18.632813 23.640625 19.085938 23.4375 19.085938 C 23.328125 19.085938 23.28125 19.007813 23.28125 18.929688 C 23.28125 18.898438 23.28125 18.867188 23.296875 18.835938 L 24.15625 15.585938 L 24.96875 15.585938 Z M 25.03125 15.273438 "
       id="path106" />
    <path
       style=" stroke:none;fill-rule:nonzero;fill:rgb(0%,0%,0%);fill-opacity:1;"
       d="M 4.375 63.445313 C 4 63.914063 3.765625 64.210938 3.5625 64.210938 C 3.484375 64.210938 3.40625 64.148438 3.40625 64.023438 C 3.40625 63.820313 4.203125 61.320313 4.203125 60.976563 C 4.203125 60.335938 3.75 60.257813 3.53125 60.257813 C 2.65625 60.257813 1.65625 61.773438 1.34375 62.257813 L 1.328125 62.242188 L 2.484375 57.945313 L 2.4375 57.898438 C 1.921875 58.007813 1.40625 58.101563 0.90625 58.164063 L 0.90625 58.320313 L 1.15625 58.304688 C 1.484375 58.320313 1.5625 58.445313 1.5625 58.554688 C 1.5625 58.710938 1.40625 59.273438 1.296875 59.679688 L 0 64.585938 L 0.734375 64.585938 C 1.0625 63.351563 1.203125 62.820313 1.640625 62.148438 C 1.84375 61.867188 2.65625 60.757813 3.15625 60.757813 C 3.3125 60.757813 3.4375 60.867188 3.4375 61.023438 C 3.4375 61.164063 2.640625 63.960938 2.640625 64.226563 C 2.640625 64.492188 2.765625 64.679688 3.078125 64.679688 C 3.71875 64.679688 4.140625 64.070313 4.5 63.554688 Z M 4.375 63.445313 "
       id="path108" />
    <path
       style=" stroke:none;fill-rule:nonzero;fill:rgb(0%,0%,0%);fill-opacity:1;"
       d="M 6.882813 63.476563 C 6.476563 64.039063 6.195313 64.226563 6.085938 64.226563 C 5.992188 64.226563 5.929688 64.148438 5.929688 64.085938 C 5.929688 63.960938 6.039063 63.570313 6.085938 63.445313 L 6.945313 60.289063 L 6.914063 60.257813 C 6.539063 60.335938 5.726563 60.492188 5.351563 60.507813 L 5.351563 60.664063 C 5.882813 60.664063 5.960938 60.710938 5.960938 60.929688 C 5.960938 61.195313 5.195313 63.632813 5.195313 64.085938 C 5.195313 64.257813 5.195313 64.695313 5.648438 64.695313 C 6.195313 64.695313 6.632813 64.148438 7.007813 63.570313 Z M 7.304688 58.710938 C 7.304688 58.507813 7.132813 58.179688 6.804688 58.179688 C 6.570313 58.179688 6.351563 58.367188 6.351563 58.710938 C 6.351563 59.054688 6.570313 59.210938 6.820313 59.210938 C 7.132813 59.210938 7.304688 58.914063 7.304688 58.710938 Z M 7.304688 58.710938 "
       id="path110" />
    <path
       style=" stroke:none;fill-rule:nonzero;fill:rgb(0%,0%,0%);fill-opacity:1;"
       d="M 9.027344 64.226563 C 8.433594 64.226563 8.433594 63.664063 8.433594 63.492188 C 8.433594 62.601563 9.371094 60.492188 10.464844 60.492188 C 10.917969 60.492188 10.917969 60.929688 10.917969 61.148438 C 10.917969 62.367188 9.964844 64.226563 9.027344 64.226563 Z M 11.964844 63.492188 C 11.558594 63.960938 11.355469 64.195313 11.167969 64.195313 C 11.074219 64.195313 10.996094 64.132813 10.996094 63.976563 C 10.996094 63.820313 12.167969 59.648438 12.589844 57.945313 L 12.542969 57.898438 C 12.042969 58.007813 11.542969 58.070313 11.042969 58.117188 L 11.042969 58.289063 C 11.589844 58.289063 11.652344 58.351563 11.652344 58.570313 C 11.652344 58.710938 11.589844 58.945313 11.511719 59.226563 L 11.089844 60.789063 L 11.074219 60.804688 C 11.027344 60.585938 10.964844 60.257813 10.417969 60.257813 C 9.246094 60.257813 7.574219 62.054688 7.574219 63.539063 C 7.574219 64.054688 7.792969 64.695313 8.605469 64.695313 C 9.089844 64.695313 9.636719 64.523438 10.339844 63.445313 L 10.355469 63.476563 C 10.277344 63.804688 10.246094 64.039063 10.246094 64.257813 C 10.246094 64.460938 10.324219 64.710938 10.699219 64.710938 C 11.027344 64.710938 11.667969 64.257813 12.089844 63.601563 Z M 11.964844 63.492188 "
       id="path112" />
    <path
       style=" stroke:none;fill-rule:nonzero;fill:rgb(0%,0%,0%);fill-opacity:1;"
       d="M 13.925781 64.226563 C 13.332031 64.226563 13.332031 63.664063 13.332031 63.492188 C 13.332031 62.601563 14.269531 60.492188 15.363281 60.492188 C 15.816406 60.492188 15.816406 60.929688 15.816406 61.148438 C 15.816406 62.367188 14.863281 64.226563 13.925781 64.226563 Z M 16.863281 63.492188 C 16.457031 63.960938 16.253906 64.195313 16.066406 64.195313 C 15.972656 64.195313 15.894531 64.132813 15.894531 63.976563 C 15.894531 63.820313 17.066406 59.648438 17.488281 57.945313 L 17.441406 57.898438 C 16.941406 58.007813 16.441406 58.070313 15.941406 58.117188 L 15.941406 58.289063 C 16.488281 58.289063 16.550781 58.351563 16.550781 58.570313 C 16.550781 58.710938 16.488281 58.945313 16.410156 59.226563 L 15.988281 60.789063 L 15.972656 60.804688 C 15.925781 60.585938 15.863281 60.257813 15.316406 60.257813 C 14.144531 60.257813 12.472656 62.054688 12.472656 63.539063 C 12.472656 64.054688 12.691406 64.695313 13.503906 64.695313 C 13.988281 64.695313 14.535156 64.523438 15.238281 63.445313 L 15.253906 63.476563 C 15.175781 63.804688 15.144531 64.039063 15.144531 64.257813 C 15.144531 64.460938 15.222656 64.710938 15.597656 64.710938 C 15.925781 64.710938 16.566406 64.257813 16.988281 63.601563 Z M 16.863281 63.492188 "
       id="path114" />
    <path
       style=" stroke:none;fill-rule:nonzero;fill:rgb(0%,0%,0%);fill-opacity:1;"
       d="M 18.710938 62.117188 C 19.085938 61.242188 19.742188 60.492188 20.273438 60.492188 C 20.523438 60.492188 20.617188 60.679688 20.617188 60.882813 C 20.617188 60.960938 20.570313 62.132813 18.554688 62.554688 Z M 20.726563 63.523438 C 20.242188 63.914063 19.835938 64.257813 19.304688 64.257813 C 18.898438 64.257813 18.382813 64.023438 18.382813 63.367188 C 18.382813 63.164063 18.429688 62.976563 18.476563 62.757813 L 18.757813 62.726563 C 20.335938 62.492188 21.257813 61.710938 21.257813 60.929688 C 21.257813 60.507813 20.960938 60.257813 20.460938 60.257813 C 19.085938 60.257813 17.523438 61.914063 17.523438 63.304688 C 17.523438 63.929688 17.851563 64.695313 18.867188 64.695313 C 19.851563 64.695313 20.742188 63.789063 20.851563 63.632813 Z M 20.726563 63.523438 "
       id="path116" />
    <path
       style=" stroke:none;fill-rule:nonzero;fill:rgb(0%,0%,0%);fill-opacity:1;"
       d="M 26.078125 63.445313 C 25.71875 63.898438 25.484375 64.210938 25.28125 64.210938 C 25.265625 64.210938 25.125 64.195313 25.125 64.054688 C 25.125 63.757813 25.90625 61.335938 25.90625 60.914063 C 25.90625 60.507813 25.6875 60.257813 25.234375 60.257813 C 24.421875 60.257813 23.515625 61.632813 23.0625 62.351563 L 23.03125 62.335938 L 23.671875 60.289063 L 23.640625 60.257813 C 23.109375 60.367188 22.578125 60.476563 22.046875 60.570313 L 22.046875 60.726563 C 22.578125 60.726563 22.671875 60.835938 22.671875 60.976563 C 22.671875 61.179688 22.015625 63.476563 21.71875 64.585938 L 22.453125 64.585938 C 22.859375 63.257813 22.984375 62.835938 23.4375 62.164063 C 23.78125 61.601563 24.40625 60.757813 24.875 60.757813 C 25.0625 60.757813 25.109375 60.898438 25.109375 61.085938 C 25.109375 61.476563 24.390625 63.867188 24.390625 64.101563 C 24.390625 64.382813 24.40625 64.679688 24.859375 64.679688 C 25.390625 64.679688 25.734375 64.226563 26.21875 63.570313 Z M 26.078125 63.445313 "
       id="path118" />
    <path
       style=" stroke:none;fill-rule:nonzero;fill:rgb(0%,0%,0%);fill-opacity:1;"
       d="M 1.984375 100.90625 C 1.578125 101.46875 1.296875 101.65625 1.1875 101.65625 C 1.09375 101.65625 1.03125 101.578125 1.03125 101.515625 C 1.03125 101.390625 1.140625 101 1.1875 100.875 L 2.046875 97.71875 L 2.015625 97.6875 C 1.640625 97.765625 0.828125 97.921875 0.453125 97.9375 L 0.453125 98.09375 C 0.984375 98.09375 1.0625 98.140625 1.0625 98.359375 C 1.0625 98.625 0.296875 101.0625 0.296875 101.515625 C 0.296875 101.6875 0.296875 102.125 0.75 102.125 C 1.296875 102.125 1.734375 101.578125 2.109375 101 Z M 2.40625 96.140625 C 2.40625 95.9375 2.234375 95.609375 1.90625 95.609375 C 1.671875 95.609375 1.453125 95.796875 1.453125 96.140625 C 1.453125 96.484375 1.671875 96.640625 1.921875 96.640625 C 2.234375 96.640625 2.40625 96.34375 2.40625 96.140625 Z M 2.40625 96.140625 "
       id="path120" />
    <path
       style=" stroke:none;fill-rule:nonzero;fill:rgb(0%,0%,0%);fill-opacity:1;"
       d="M 7.035156 100.875 C 6.675781 101.328125 6.441406 101.640625 6.238281 101.640625 C 6.222656 101.640625 6.082031 101.625 6.082031 101.484375 C 6.082031 101.1875 6.863281 98.765625 6.863281 98.34375 C 6.863281 97.9375 6.644531 97.6875 6.191406 97.6875 C 5.378906 97.6875 4.472656 99.0625 4.019531 99.78125 L 3.988281 99.765625 L 4.628906 97.71875 L 4.597656 97.6875 C 4.066406 97.796875 3.535156 97.90625 3.003906 98 L 3.003906 98.15625 C 3.535156 98.15625 3.628906 98.265625 3.628906 98.40625 C 3.628906 98.609375 2.972656 100.90625 2.675781 102.015625 L 3.410156 102.015625 C 3.816406 100.6875 3.941406 100.265625 4.394531 99.59375 C 4.738281 99.03125 5.363281 98.1875 5.832031 98.1875 C 6.019531 98.1875 6.066406 98.328125 6.066406 98.515625 C 6.066406 98.90625 5.347656 101.296875 5.347656 101.53125 C 5.347656 101.8125 5.363281 102.109375 5.816406 102.109375 C 6.347656 102.109375 6.691406 101.65625 7.175781 101 Z M 7.035156 100.875 "
       id="path122" />
    <path
       style=" stroke:none;fill-rule:nonzero;fill:rgb(0%,0%,0%);fill-opacity:1;"
       d="M 11.152344 98.953125 C 11.152344 100.109375 10.261719 101.9375 9.074219 101.9375 C 8.824219 101.9375 8.574219 101.828125 8.574219 101.578125 C 8.574219 101.1875 8.964844 99.859375 9.214844 99.234375 C 9.464844 98.5625 10.042969 98.109375 10.496094 98.109375 C 11.136719 98.109375 11.152344 98.6875 11.152344 98.953125 Z M 7.980469 98.0625 L 8.214844 98.0625 C 8.433594 98.046875 8.621094 98.171875 8.621094 98.34375 C 8.621094 98.546875 7.621094 102.1875 7.355469 103.296875 C 7.277344 103.609375 7.214844 103.875 6.699219 103.875 L 6.699219 104.03125 L 8.714844 104.03125 L 8.714844 103.875 C 8.449219 103.875 8.074219 103.875 8.074219 103.5625 C 8.074219 103.375 8.355469 102.296875 8.449219 101.953125 C 8.667969 102.078125 8.871094 102.125 9.105469 102.125 C 10.464844 102.125 12.027344 100.5 12.027344 98.984375 C 12.027344 98.265625 11.730469 97.6875 10.855469 97.6875 C 10.058594 97.6875 9.496094 98.40625 9.261719 98.75 L 9.246094 98.734375 L 9.511719 97.828125 C 9.542969 97.71875 9.511719 97.6875 9.480469 97.6875 L 7.964844 97.90625 Z M 7.980469 98.0625 "
       id="path124" />
    <path
       style=" stroke:none;fill-rule:nonzero;fill:rgb(0%,0%,0%);fill-opacity:1;"
       d="M 16.847656 100.875 C 16.503906 101.296875 16.238281 101.640625 16.050781 101.640625 C 15.941406 101.640625 15.925781 101.53125 15.925781 101.484375 C 15.925781 101.34375 16.050781 100.90625 16.113281 100.71875 L 16.894531 97.78125 L 16.160156 97.78125 C 15.785156 98.828125 15.566406 99.453125 15.082031 100.171875 C 14.753906 100.6875 14.128906 101.609375 13.707031 101.609375 C 13.503906 101.609375 13.472656 101.390625 13.503906 101.265625 L 14.394531 97.71875 L 14.363281 97.6875 C 13.878906 97.8125 13.394531 97.90625 12.894531 97.953125 L 12.894531 98.09375 C 13.300781 98.09375 13.488281 98.09375 13.488281 98.375 C 13.488281 98.640625 12.738281 101.109375 12.738281 101.546875 C 12.738281 101.96875 12.925781 102.125 13.285156 102.125 C 14.160156 102.125 14.894531 100.90625 15.550781 99.796875 L 15.582031 99.796875 C 15.363281 100.59375 15.160156 101.421875 15.160156 101.59375 C 15.160156 101.734375 15.175781 102.109375 15.628906 102.109375 C 16.113281 102.109375 16.363281 101.84375 16.988281 100.953125 Z M 16.847656 100.875 "
       id="path126" />
    <path
       style=" stroke:none;fill-rule:nonzero;fill:rgb(0%,0%,0%);fill-opacity:1;"
       d="M 20.132813 97.828125 L 19.335938 97.828125 L 19.617188 96.8125 C 19.632813 96.734375 19.617188 96.640625 19.554688 96.671875 C 19.460938 96.640625 19.414063 96.734375 19.382813 96.78125 C 19.101563 97.125 18.632813 97.5625 18.320313 97.734375 C 18.148438 97.828125 17.867188 97.890625 17.820313 97.984375 C 17.789063 98.03125 17.789063 98.078125 17.789063 98.140625 L 18.523438 98.140625 L 17.820313 100.828125 C 17.773438 100.984375 17.585938 101.578125 17.585938 101.734375 C 17.585938 102.03125 17.867188 102.125 18.054688 102.125 C 18.570313 102.125 18.945313 101.6875 19.445313 100.9375 L 19.320313 100.875 C 19.085938 101.1875 18.742188 101.640625 18.539063 101.640625 C 18.429688 101.640625 18.382813 101.5625 18.382813 101.484375 C 18.382813 101.453125 18.382813 101.421875 18.398438 101.390625 L 19.257813 98.140625 L 20.070313 98.140625 Z M 20.132813 97.828125 "
       id="path128" />
    <path
       style=" stroke:none;fill-rule:nonzero;fill:rgb(65.097046%,63.920593%,65.097046%);fill-opacity:1;"
       d="M 103.847656 79.050781 L 104.003906 79.035156 C 104.363281 79.019531 104.410156 79.066406 104.519531 79.691406 C 104.582031 80.160156 104.660156 80.878906 104.691406 81.441406 L 104.722656 82.175781 C 104.722656 82.300781 104.722656 82.582031 104.832031 82.582031 C 104.957031 82.582031 105.019531 82.394531 105.832031 80.957031 C 106.207031 80.300781 106.410156 79.941406 106.566406 79.675781 L 106.582031 79.675781 L 106.816406 82.332031 C 106.832031 82.457031 106.832031 82.582031 106.925781 82.582031 C 107.019531 82.582031 107.128906 82.410156 107.457031 82.019531 C 107.847656 81.566406 109.144531 79.925781 109.144531 79.191406 C 109.144531 78.957031 109.003906 78.722656 108.707031 78.722656 C 108.457031 78.722656 108.378906 78.878906 108.378906 79.019531 C 108.378906 79.300781 108.738281 79.332031 108.738281 79.644531 C 108.738281 80.082031 108.097656 80.894531 107.363281 81.800781 L 107.082031 78.785156 C 107.082031 78.769531 107.082031 78.738281 107.019531 78.738281 C 106.972656 78.738281 106.941406 78.769531 106.925781 78.816406 L 105.316406 81.347656 L 105.300781 81.347656 C 105.300781 81.191406 105.222656 80.035156 105.066406 79.191406 C 104.988281 78.738281 104.957031 78.722656 104.910156 78.722656 C 104.832031 78.722656 104.316406 78.863281 103.847656 78.925781 Z M 103.847656 79.050781 "
       id="path130" />
    <path
       style=" stroke:none;fill-rule:nonzero;fill:rgb(65.097046%,63.920593%,65.097046%);fill-opacity:1;"
       d="M 109.824219 84.039063 C 109.652344 84.289063 109.527344 84.367188 109.480469 84.367188 C 109.433594 84.367188 109.402344 84.335938 109.402344 84.304688 C 109.402344 84.257813 109.464844 84.085938 109.480469 84.039063 L 109.839844 82.679688 L 109.839844 82.664063 C 109.667969 82.695313 109.324219 82.773438 109.152344 82.773438 L 109.152344 82.835938 C 109.386719 82.835938 109.417969 82.867188 109.417969 82.945313 C 109.417969 83.070313 109.089844 84.117188 109.089844 84.304688 C 109.089844 84.382813 109.089844 84.570313 109.292969 84.570313 C 109.527344 84.570313 109.714844 84.335938 109.871094 84.085938 Z M 109.996094 82.007813 C 109.996094 81.914063 109.917969 81.773438 109.792969 81.773438 C 109.683594 81.773438 109.589844 81.851563 109.589844 82.007813 C 109.589844 82.148438 109.683594 82.226563 109.792969 82.226563 C 109.933594 82.226563 109.996094 82.085938 109.996094 82.007813 Z M 109.996094 82.007813 "
       id="path132" />
    <path
       style=" stroke:none;fill-rule:nonzero;fill:rgb(65.097046%,63.920593%,65.097046%);fill-opacity:1;"
       d="M 110.304688 84.539063 C 110.226563 84.867188 110.117188 85.289063 109.898438 85.289063 C 109.867188 85.289063 109.820313 85.289063 109.820313 85.257813 C 109.820313 85.195313 109.867188 85.195313 109.867188 85.117188 C 109.867188 85.023438 109.789063 84.960938 109.710938 84.960938 C 109.554688 84.960938 109.539063 85.101563 109.539063 85.117188 C 109.539063 85.335938 109.726563 85.398438 109.867188 85.398438 C 110.242188 85.398438 110.476563 85.085938 110.648438 84.398438 L 111.085938 82.679688 L 111.070313 82.664063 C 110.914063 82.695313 110.539063 82.773438 110.367188 82.773438 L 110.367188 82.835938 L 110.507813 82.835938 C 110.648438 82.851563 110.664063 82.882813 110.664063 82.945313 C 110.679688 83.007813 110.664063 83.101563 110.601563 83.304688 Z M 111.210938 82.007813 C 111.210938 81.914063 111.148438 81.773438 111.007813 81.773438 C 110.898438 81.773438 110.804688 81.851563 110.804688 82.007813 C 110.804688 82.148438 110.898438 82.226563 111.007813 82.226563 C 111.148438 82.226563 111.210938 82.085938 111.210938 82.007813 Z M 111.210938 82.007813 "
       id="path134" />
    <path
       style="fill-rule:nonzero;fill:rgb(81.959534%,81.959534%,81.959534%);fill-opacity:1;stroke-width:0.7;stroke-linecap:butt;stroke-linejoin:miter;stroke:rgb(81.959534%,81.959534%,81.959534%);stroke-opacity:1;stroke-miterlimit:4;"
       d="M 127.390625 95.675781 L 110.863281 68.257813 "
       id="path136" />
    <path
       style="fill-rule:nonzero;fill:rgb(81.959534%,81.959534%,81.959534%);fill-opacity:1;stroke-width:0.7;stroke-linecap:butt;stroke-linejoin:miter;stroke:rgb(81.959534%,81.959534%,81.959534%);stroke-opacity:1;stroke-miterlimit:4;"
       d="M 122.828125 88.546875 L 117.484375 79.394531 "
       id="path138" />
    <path
       style=" stroke:none;fill-rule:nonzero;fill:rgb(81.959534%,81.959534%,81.959534%);fill-opacity:1;"
       d="M 117.273438 77.609375 C 118.15625 78.429688 118.8125 78.917969 119.601563 79.53125 L 116.554688 81.3125 C 116.523438 80.945313 116.308594 79.511719 116.027344 78.335938 C 115.726563 77.078125 115.378906 75.980469 115.089844 75.304688 C 115.539063 75.886719 116.324219 76.726563 117.273438 77.609375 "
       id="path140" />
    <path
       style="fill-rule:nonzero;fill:rgb(81.959534%,81.959534%,81.959534%);fill-opacity:1;stroke-width:0.7;stroke-linecap:butt;stroke-linejoin:miter;stroke:rgb(81.959534%,81.959534%,81.959534%);stroke-opacity:1;stroke-miterlimit:4;"
       d="M 90.9375 95.171875 L 107.46875 67.753906 "
       id="path142" />
    <path
       style="fill-rule:nonzero;fill:rgb(81.959534%,81.959534%,81.959534%);fill-opacity:1;stroke-width:0.7;stroke-linecap:butt;stroke-linejoin:miter;stroke:rgb(81.959534%,81.959534%,81.959534%);stroke-opacity:1;stroke-miterlimit:4;"
       d="M 95.503906 88.042969 L 100.84375 78.894531 "
       id="path144" />
    <path
       style=" stroke:none;fill-rule:nonzero;fill:rgb(81.959534%,81.959534%,81.959534%);fill-opacity:1;"
       d="M 101.058594 77.105469 C 100.171875 77.929688 99.515625 78.414063 98.726563 79.03125 L 101.773438 80.808594 C 101.804688 80.441406 102.023438 79.007813 102.304688 77.832031 C 102.605469 76.574219 102.949219 75.476563 103.238281 74.800781 C 102.792969 75.382813 102.003906 76.222656 101.058594 77.105469 "
       id="path146" />
    <path
       style="fill-rule:nonzero;fill:rgb(81.959534%,81.959534%,81.959534%);fill-opacity:1;stroke-width:0.7;stroke-linecap:butt;stroke-linejoin:miter;stroke:rgb(81.959534%,81.959534%,81.959534%);stroke-opacity:1;stroke-miterlimit:4;"
       d="M 65.90625 92.378906 L 103.121094 66.441406 "
       id="path148" />
    <path
       style="fill-rule:nonzero;fill:rgb(81.959534%,81.959534%,81.959534%);fill-opacity:1;stroke-width:0.7;stroke-linecap:butt;stroke-linejoin:miter;stroke:rgb(81.959534%,81.959534%,81.959534%);stroke-opacity:1;stroke-miterlimit:4;"
       d="M 78.203125 83.5625 L 86.945313 77.578125 "
       id="path150" />
    <path
       style=" stroke:none;fill-rule:nonzero;fill:rgb(81.959534%,81.959534%,81.959534%);fill-opacity:1;"
       d="M 88.714844 77.234375 C 87.957031 78.175781 87.519531 78.867188 86.964844 79.699219 L 84.972656 76.789063 C 85.332031 76.730469 86.75 76.410156 87.902344 76.046875 C 89.132813 75.65625 90.203125 75.230469 90.855469 74.894531 C 90.308594 75.382813 89.527344 76.226563 88.714844 77.234375 "
       id="path152" />
    <g
       clip-path="url(#clip2)"
       clip-rule="nonzero"
       id="g156">
      <path
         style=" stroke:none;fill-rule:nonzero;fill:rgb(100%,100%,100%);fill-opacity:1;"
         d="M 63.128906 108.136719 C 67.957031 108.136719 71.875 104.222656 71.875 99.390625 C 71.875 94.5625 67.957031 90.644531 63.128906 90.644531 C 58.296875 90.644531 54.382813 94.5625 54.382813 99.390625 C 54.382813 104.222656 58.296875 108.136719 63.128906 108.136719 Z M 63.128906 108.136719 "
         id="path154" />
    </g>
    <g
       clip-path="url(#clip3)"
       clip-rule="nonzero"
       id="g160">
      <path
         style="fill:none;stroke-width:0.7;stroke-linecap:butt;stroke-linejoin:round;stroke:rgb(12.940979%,11.764526%,11.764526%);stroke-opacity:1;stroke-miterlimit:4;"
         d="M 63.128906 108.136719 C 67.957031 108.136719 71.875 104.222656 71.875 99.390625 C 71.875 94.5625 67.957031 90.644531 63.128906 90.644531 C 58.296875 90.644531 54.382813 94.5625 54.382813 99.390625 C 54.382813 104.222656 58.296875 108.136719 63.128906 108.136719 Z M 63.128906 108.136719 "
         id="path158" />
    </g>
    <g
       clip-path="url(#clip4)"
       clip-rule="nonzero"
       id="g164">
      <path
         style="fill-rule:nonzero;fill:rgb(100%,100%,100%);fill-opacity:1;stroke-width:0.7;stroke-linecap:butt;stroke-linejoin:round;stroke:rgb(12.940979%,11.764526%,11.764526%);stroke-opacity:1;stroke-miterlimit:4;"
         d="M 94.609375 108.136719 C 99.441406 108.136719 103.355469 104.222656 103.355469 99.390625 C 103.355469 94.5625 99.441406 90.644531 94.609375 90.644531 C 89.78125 90.644531 85.867188 94.5625 85.867188 99.390625 C 85.867188 104.222656 89.78125 108.136719 94.609375 108.136719 Z M 94.609375 108.136719 "
         id="path162" />
    </g>
    <g
       clip-path="url(#clip5)"
       clip-rule="nonzero"
       id="g168">
      <path
         style=" stroke:none;fill-rule:nonzero;fill:rgb(100%,100%,100%);fill-opacity:1;"
         d="M 126.09375 108.136719 C 130.921875 108.136719 134.839844 104.222656 134.839844 99.390625 C 134.839844 94.5625 130.921875 90.644531 126.09375 90.644531 C 121.265625 90.644531 117.347656 94.5625 117.347656 99.390625 C 117.347656 104.222656 121.265625 108.136719 126.09375 108.136719 Z M 126.09375 108.136719 "
         id="path166" />
    </g>
    <g
       clip-path="url(#clip6)"
       clip-rule="nonzero"
       id="g172">
      <path
         style="fill:none;stroke-width:0.7;stroke-linecap:butt;stroke-linejoin:round;stroke:rgb(12.940979%,11.764526%,11.764526%);stroke-opacity:1;stroke-miterlimit:4;"
         d="M 126.09375 108.136719 C 130.921875 108.136719 134.839844 104.222656 134.839844 99.390625 C 134.839844 94.5625 130.921875 90.644531 126.09375 90.644531 C 121.265625 90.644531 117.347656 94.5625 117.347656 99.390625 C 117.347656 104.222656 121.265625 108.136719 126.09375 108.136719 Z M 126.09375 108.136719 "
         id="path170" />
    </g>
    <path
       style="fill-rule:nonzero;fill:rgb(100%,100%,100%);fill-opacity:1;stroke-width:0.7;stroke-linecap:butt;stroke-linejoin:round;stroke:rgb(12.940979%,11.764526%,11.764526%);stroke-opacity:1;stroke-miterlimit:4;"
       d="M 109.304688 70.355469 C 114.132813 70.355469 118.046875 66.441406 118.046875 61.613281 C 118.046875 56.78125 114.132813 52.867188 109.304688 52.867188 C 104.472656 52.867188 100.558594 56.78125 100.558594 61.613281 C 100.558594 66.441406 104.472656 70.355469 109.304688 70.355469 Z M 109.304688 70.355469 "
       id="path174" />
    <path
       style=" stroke:none;fill-rule:nonzero;fill:rgb(12.940979%,11.764526%,11.764526%);fill-opacity:1;"
       d="M 37.394531 29.972656 C 36.441406 30.175781 35.503906 31.191406 35.503906 32.300781 C 35.503906 33.222656 36.160156 33.722656 36.894531 33.722656 C 37.863281 33.722656 38.597656 32.457031 38.597656 31.269531 C 38.597656 30.488281 38.222656 30.035156 37.957031 29.722656 C 37.675781 29.363281 37.128906 28.691406 37.128906 28.316406 C 37.128906 28.175781 37.238281 27.941406 37.582031 27.941406 C 37.847656 27.941406 38.019531 28.050781 38.191406 28.160156 C 38.300781 28.238281 38.550781 28.378906 38.675781 28.378906 C 38.847656 28.378906 39.019531 28.222656 39.019531 28.035156 C 39.019531 27.863281 38.910156 27.832031 38.503906 27.753906 C 38.097656 27.660156 37.941406 27.660156 37.832031 27.660156 C 36.988281 27.660156 36.863281 28.253906 36.863281 28.519531 C 36.863281 28.941406 37.128906 29.503906 37.394531 29.972656 Z M 37.503906 30.175781 C 37.957031 30.957031 37.972656 31.332031 37.972656 31.613281 C 37.972656 32.238281 37.628906 33.519531 36.878906 33.519531 C 36.519531 33.519531 36.066406 33.285156 36.066406 32.535156 C 36.066406 31.988281 36.347656 30.488281 37.503906 30.175781 Z M 37.503906 30.175781 "
       id="path176" />
    <path
       style=" stroke:none;fill-rule:nonzero;fill:rgb(12.940979%,11.764526%,11.764526%);fill-opacity:1;"
       d="M 39.25 35.726563 L 40.796875 35.726563 L 40.796875 35.648438 C 40.53125 35.648438 40.328125 35.632813 40.328125 35.460938 C 40.328125 35.367188 40.390625 35.164063 40.421875 35.054688 L 41.21875 32.148438 C 41.25 32.054688 41.28125 31.945313 41.234375 31.945313 C 41.1875 31.945313 40.40625 32.117188 40.15625 32.164063 L 40.15625 32.242188 L 40.46875 32.226563 C 40.515625 32.226563 40.6875 32.226563 40.6875 32.414063 C 40.6875 32.460938 40.65625 32.539063 40.640625 32.601563 L 39.875 35.351563 C 39.796875 35.601563 39.578125 35.617188 39.25 35.648438 Z M 39.25 35.726563 "
       id="path178" />
    <path
       style=" stroke:none;fill-rule:nonzero;fill:rgb(12.940979%,11.764526%,11.764526%);fill-opacity:1;"
       d="M 61.878906 29.972656 C 60.925781 30.175781 59.988281 31.191406 59.988281 32.300781 C 59.988281 33.222656 60.644531 33.722656 61.378906 33.722656 C 62.347656 33.722656 63.082031 32.457031 63.082031 31.269531 C 63.082031 30.488281 62.707031 30.035156 62.441406 29.722656 C 62.160156 29.363281 61.613281 28.691406 61.613281 28.316406 C 61.613281 28.175781 61.722656 27.941406 62.066406 27.941406 C 62.332031 27.941406 62.503906 28.050781 62.675781 28.160156 C 62.785156 28.238281 63.035156 28.378906 63.160156 28.378906 C 63.332031 28.378906 63.503906 28.222656 63.503906 28.035156 C 63.503906 27.863281 63.394531 27.832031 62.988281 27.753906 C 62.582031 27.660156 62.425781 27.660156 62.316406 27.660156 C 61.472656 27.660156 61.347656 28.253906 61.347656 28.519531 C 61.347656 28.941406 61.613281 29.503906 61.878906 29.972656 Z M 61.988281 30.175781 C 62.441406 30.957031 62.457031 31.332031 62.457031 31.613281 C 62.457031 32.238281 62.113281 33.519531 61.363281 33.519531 C 61.003906 33.519531 60.550781 33.285156 60.550781 32.535156 C 60.550781 31.988281 60.832031 30.488281 61.988281 30.175781 Z M 61.988281 30.175781 "
       id="path180" />
    <path
       style=" stroke:none;fill-rule:nonzero;fill:rgb(12.940979%,11.764526%,11.764526%);fill-opacity:1;"
       d="M 65.691406 34.945313 C 65.597656 35.148438 65.503906 35.304688 65.144531 35.304688 L 64.082031 35.304688 L 64.082031 35.273438 L 65.144531 34.195313 C 65.847656 33.507813 65.988281 33.257813 65.988281 32.882813 C 65.988281 32.460938 65.675781 31.945313 65.082031 31.945313 C 64.941406 31.945313 64.207031 31.960938 63.910156 32.835938 L 64.019531 32.882813 C 64.097656 32.742188 64.316406 32.351563 64.816406 32.351563 C 65.253906 32.351563 65.503906 32.695313 65.503906 33.039063 C 65.503906 33.226563 65.488281 33.539063 64.691406 34.382813 L 63.519531 35.632813 L 63.519531 35.726563 L 65.503906 35.726563 L 65.785156 34.992188 Z M 65.691406 34.945313 "
       id="path182" />
    <path
       style=" stroke:none;fill-rule:nonzero;fill:rgb(12.940979%,11.764526%,11.764526%);fill-opacity:1;"
       d="M 86.367188 29.972656 C 85.414063 30.175781 84.476563 31.191406 84.476563 32.300781 C 84.476563 33.222656 85.132813 33.722656 85.867188 33.722656 C 86.835938 33.722656 87.570313 32.457031 87.570313 31.269531 C 87.570313 30.488281 87.195313 30.035156 86.929688 29.722656 C 86.648438 29.363281 86.101563 28.691406 86.101563 28.316406 C 86.101563 28.175781 86.210938 27.941406 86.554688 27.941406 C 86.820313 27.941406 86.992188 28.050781 87.164063 28.160156 C 87.273438 28.238281 87.523438 28.378906 87.648438 28.378906 C 87.820313 28.378906 87.992188 28.222656 87.992188 28.035156 C 87.992188 27.863281 87.882813 27.832031 87.476563 27.753906 C 87.070313 27.660156 86.914063 27.660156 86.804688 27.660156 C 85.960938 27.660156 85.835938 28.253906 85.835938 28.519531 C 85.835938 28.941406 86.101563 29.503906 86.367188 29.972656 Z M 86.476563 30.175781 C 86.929688 30.957031 86.945313 31.332031 86.945313 31.613281 C 86.945313 32.238281 86.601563 33.519531 85.851563 33.519531 C 85.492188 33.519531 85.039063 33.285156 85.039063 32.535156 C 85.039063 31.988281 85.320313 30.488281 86.476563 30.175781 Z M 86.476563 30.175781 "
       id="path184" />
    <path
       style=" stroke:none;fill-rule:nonzero;fill:rgb(12.940979%,11.764526%,11.764526%);fill-opacity:1;"
       d="M 88.945313 32.554688 C 89.023438 32.445313 89.226563 32.179688 89.570313 32.179688 C 89.789063 32.179688 90.054688 32.320313 90.054688 32.695313 C 90.054688 33.289063 89.289063 33.539063 88.726563 33.617188 L 88.726563 33.710938 C 89.273438 33.664063 89.757813 33.882813 89.757813 34.664063 C 89.757813 35.367188 89.242188 35.554688 89.054688 35.554688 C 88.726563 35.554688 88.554688 35.210938 88.289063 35.210938 C 88.085938 35.210938 88.023438 35.320313 88.023438 35.429688 C 88.023438 35.679688 88.335938 35.773438 88.664063 35.773438 C 89.695313 35.773438 90.210938 34.976563 90.210938 34.351563 C 90.210938 33.742188 89.820313 33.570313 89.679688 33.507813 L 89.679688 33.476563 C 90.273438 33.257813 90.539063 33.070313 90.539063 32.648438 C 90.539063 32.179688 90.148438 31.945313 89.726563 31.945313 C 89.414063 31.945313 88.992188 32.195313 88.851563 32.523438 Z M 88.945313 32.554688 "
       id="path186" />
    <path
       style=" stroke:none;fill-rule:nonzero;fill:rgb(12.940979%,11.764526%,11.764526%);fill-opacity:1;"
       d="M 130.441406 29.972656 C 129.488281 30.175781 128.550781 31.191406 128.550781 32.300781 C 128.550781 33.222656 129.207031 33.722656 129.941406 33.722656 C 130.910156 33.722656 131.644531 32.457031 131.644531 31.269531 C 131.644531 30.488281 131.269531 30.035156 131.003906 29.722656 C 130.722656 29.363281 130.175781 28.691406 130.175781 28.316406 C 130.175781 28.175781 130.285156 27.941406 130.628906 27.941406 C 130.894531 27.941406 131.066406 28.050781 131.238281 28.160156 C 131.347656 28.238281 131.597656 28.378906 131.722656 28.378906 C 131.894531 28.378906 132.066406 28.222656 132.066406 28.035156 C 132.066406 27.863281 131.957031 27.832031 131.550781 27.753906 C 131.144531 27.660156 130.988281 27.660156 130.878906 27.660156 C 130.035156 27.660156 129.910156 28.253906 129.910156 28.519531 C 129.910156 28.941406 130.175781 29.503906 130.441406 29.972656 Z M 130.550781 30.175781 C 131.003906 30.957031 131.019531 31.332031 131.019531 31.613281 C 131.019531 32.238281 130.675781 33.519531 129.925781 33.519531 C 129.566406 33.519531 129.113281 33.285156 129.113281 32.535156 C 129.113281 31.988281 129.394531 30.488281 130.550781 30.175781 Z M 130.550781 30.175781 "
       id="path188" />
    <path
       style=" stroke:none;fill-rule:nonzero;fill:rgb(12.940979%,11.764526%,11.764526%);fill-opacity:1;"
       d="M 134.332031 35.117188 C 134.175781 35.398438 134.113281 35.492188 133.988281 35.492188 C 133.847656 35.492188 133.738281 35.242188 133.332031 34.289063 C 134.113281 33.601563 134.316406 33.429688 134.597656 33.429688 L 134.597656 33.335938 L 133.582031 33.335938 L 133.582031 33.429688 C 133.722656 33.429688 133.878906 33.429688 133.878906 33.523438 C 133.878906 33.695313 133.160156 34.242188 132.863281 34.476563 L 132.847656 34.460938 L 133.519531 31.929688 L 133.488281 31.898438 C 133.191406 31.976563 132.910156 32.023438 132.613281 32.054688 L 132.613281 32.148438 C 132.753906 32.148438 132.988281 32.148438 132.988281 32.289063 C 132.988281 32.414063 132.863281 32.820313 132.800781 33.023438 L 132.097656 35.726563 L 132.519531 35.726563 L 132.785156 34.726563 L 133.019531 34.539063 C 133.082031 34.710938 133.285156 35.195313 133.363281 35.335938 C 133.519531 35.664063 133.628906 35.789063 133.800781 35.789063 C 134.050781 35.789063 134.207031 35.585938 134.425781 35.179688 Z M 134.332031 35.117188 "
       id="path190" />
    <path
       style=" stroke:none;fill-rule:nonzero;fill:rgb(12.940979%,11.764526%,11.764526%);fill-opacity:1;"
       d="M 173.820313 29.972656 C 172.867188 30.175781 171.929688 31.191406 171.929688 32.300781 C 171.929688 33.222656 172.585938 33.722656 173.320313 33.722656 C 174.289063 33.722656 175.023438 32.457031 175.023438 31.269531 C 175.023438 30.488281 174.648438 30.035156 174.382813 29.722656 C 174.101563 29.363281 173.554688 28.691406 173.554688 28.316406 C 173.554688 28.175781 173.664063 27.941406 174.007813 27.941406 C 174.273438 27.941406 174.445313 28.050781 174.617188 28.160156 C 174.726563 28.238281 174.976563 28.378906 175.101563 28.378906 C 175.273438 28.378906 175.445313 28.222656 175.445313 28.035156 C 175.445313 27.863281 175.335938 27.832031 174.929688 27.753906 C 174.523438 27.660156 174.367188 27.660156 174.257813 27.660156 C 173.414063 27.660156 173.289063 28.253906 173.289063 28.519531 C 173.289063 28.941406 173.554688 29.503906 173.820313 29.972656 Z M 173.929688 30.175781 C 174.382813 30.957031 174.398438 31.332031 174.398438 31.613281 C 174.398438 32.238281 174.054688 33.519531 173.304688 33.519531 C 172.945313 33.519531 172.492188 33.285156 172.492188 32.535156 C 172.492188 31.988281 172.773438 30.488281 173.929688 30.175781 Z M 173.929688 30.175781 "
       id="path192" />
    <path
       style=" stroke:none;fill-rule:nonzero;fill:rgb(12.940979%,11.764526%,11.764526%);fill-opacity:1;"
       d="M 177.347656 35.132813 C 177.144531 35.351563 176.894531 35.585938 176.550781 35.585938 C 176.207031 35.585938 176.050781 35.335938 176.050781 34.898438 C 176.050781 34.367188 176.425781 33.382813 177.160156 33.382813 C 177.253906 33.382813 177.363281 33.398438 177.363281 33.492188 C 177.363281 33.585938 177.285156 33.617188 177.285156 33.757813 C 177.285156 33.898438 177.363281 33.976563 177.503906 33.976563 C 177.644531 33.976563 177.769531 33.867188 177.769531 33.710938 C 177.769531 33.539063 177.628906 33.257813 177.160156 33.257813 C 176.332031 33.257813 175.566406 34.117188 175.566406 34.898438 C 175.566406 35.648438 176.019531 35.789063 176.394531 35.789063 C 176.972656 35.789063 177.300781 35.367188 177.441406 35.195313 Z M 177.347656 35.132813 "
       id="path194" />
    <path
       style=" stroke:none;fill-rule:nonzero;fill:rgb(12.940979%,11.764526%,11.764526%);fill-opacity:1;"
       d="M 122.046875 62.152344 C 121.09375 62.355469 120.15625 63.371094 120.15625 64.480469 C 120.15625 65.402344 120.8125 65.902344 121.546875 65.902344 C 122.515625 65.902344 123.25 64.636719 123.25 63.449219 C 123.25 62.667969 122.875 62.214844 122.609375 61.902344 C 122.328125 61.542969 121.78125 60.871094 121.78125 60.496094 C 121.78125 60.355469 121.890625 60.121094 122.234375 60.121094 C 122.5 60.121094 122.671875 60.230469 122.84375 60.339844 C 122.953125 60.417969 123.203125 60.558594 123.328125 60.558594 C 123.5 60.558594 123.671875 60.402344 123.671875 60.214844 C 123.671875 60.042969 123.5625 60.011719 123.15625 59.933594 C 122.75 59.839844 122.59375 59.839844 122.484375 59.839844 C 121.640625 59.839844 121.515625 60.433594 121.515625 60.699219 C 121.515625 61.121094 121.78125 61.683594 122.046875 62.152344 Z M 122.15625 62.355469 C 122.609375 63.136719 122.625 63.511719 122.625 63.792969 C 122.625 64.417969 122.28125 65.699219 121.53125 65.699219 C 121.171875 65.699219 120.71875 65.464844 120.71875 64.714844 C 120.71875 64.167969 121 62.667969 122.15625 62.355469 Z M 122.15625 62.355469 "
       id="path196" />
    <path
       style=" stroke:none;fill-rule:nonzero;fill:rgb(12.940979%,11.764526%,11.764526%);fill-opacity:1;"
       d="M 123.953125 67.925781 C 123.84375 68.363281 123.703125 68.941406 123.421875 68.941406 C 123.375 68.941406 123.3125 68.941406 123.3125 68.878906 C 123.3125 68.816406 123.390625 68.816406 123.390625 68.691406 C 123.390625 68.582031 123.265625 68.488281 123.15625 68.488281 C 122.953125 68.488281 122.9375 68.691406 122.9375 68.707031 C 122.9375 68.988281 123.1875 69.066406 123.375 69.066406 C 123.859375 69.066406 124.1875 68.644531 124.421875 67.753906 L 125 65.457031 L 124.984375 65.441406 C 124.765625 65.488281 124.265625 65.566406 124.03125 65.582031 L 124.03125 65.675781 L 124.21875 65.660156 C 124.40625 65.691406 124.4375 65.722656 124.4375 65.816406 C 124.453125 65.878906 124.4375 66.003906 124.359375 66.300781 Z M 125.171875 64.566406 C 125.171875 64.441406 125.078125 64.253906 124.890625 64.253906 C 124.75 64.253906 124.625 64.363281 124.625 64.550781 C 124.625 64.753906 124.75 64.847656 124.890625 64.847656 C 125.078125 64.847656 125.171875 64.675781 125.171875 64.566406 Z M 125.171875 64.566406 "
       id="path198" />
  </g>
</svg>
