<?xml version="1.0" encoding="UTF-8" standalone="no"?>
<svg
   xmlns:dc="http://purl.org/dc/elements/1.1/"
   xmlns:cc="http://creativecommons.org/ns#"
   xmlns:rdf="http://www.w3.org/1999/02/22-rdf-syntax-ns#"
   xmlns:svg="http://www.w3.org/2000/svg"
   xmlns="http://www.w3.org/2000/svg"
   xmlns:sodipodi="http://sodipodi.sourceforge.net/DTD/sodipodi-0.dtd"
   xmlns:inkscape="http://www.inkscape.org/namespaces/inkscape"
   width="260.070679pt"
   height="116.189011pt"
   viewBox="0 0 260.070679 116.189011"
   version="1.2"
   id="svg193"
   sodipodi:docname="discfunc.svg"
   inkscape:version="0.92.4 (5da689c313, 2019-01-14)">
  <metadata
     id="metadata197">
    <rdf:RDF>
      <cc:Work
         rdf:about="">
        <dc:format>image/svg+xml</dc:format>
        <dc:type
           rdf:resource="http://purl.org/dc/dcmitype/StillImage" />
        <dc:title></dc:title>
      </cc:Work>
    </rdf:RDF>
  </metadata>
  <sodipodi:namedview
     pagecolor="#ffffff"
     bordercolor="#666666"
     borderopacity="1"
     objecttolerance="10"
     gridtolerance="10"
     guidetolerance="10"
     inkscape:pageopacity="0"
     inkscape:pageshadow="2"
     inkscape:window-width="640"
     inkscape:window-height="480"
     id="namedview195"
     showgrid="false"
     inkscape:zoom="0.99203802"
     inkscape:cx="173.38045"
     inkscape:cy="77.45934"
     inkscape:window-x="0"
     inkscape:window-y="0"
     inkscape:window-maximized="0"
     inkscape:current-layer="svg193" />
  <defs
     id="defs14">
    <clipPath
       id="clip1">
      <path
         d="M 62 111 L 65 111 L 65 116.1875 L 62 116.1875 Z M 62 111 "
         id="path2" />
    </clipPath>
    <clipPath
       id="clip2">
      <path
         d="M 108 111 L 112 111 L 112 116.1875 L 108 116.1875 Z M 108 111 "
         id="path5" />
    </clipPath>
    <clipPath
       id="clip3">
      <path
         d="M 204 111 L 208 111 L 208 116.1875 L 204 116.1875 Z M 204 111 "
         id="path8" />
    </clipPath>
    <clipPath
       id="clip4">
      <path
         d="M 257 86 L 260.070313 86 L 260.070313 91 L 257 91 Z M 257 86 "
         id="path11" />
    </clipPath>
  </defs>
  <g
     id="surface32">
    <path
       style=" stroke:none;fill-rule:nonzero;fill:rgb(12.940979%,11.764526%,11.764526%);fill-opacity:1;"
       d="M 8.679688 94.480469 C 8.429688 94.761719 8.226563 95.121094 8.023438 95.121094 C 7.835938 95.121094 7.773438 94.886719 7.726563 94.730469 C 7.679688 94.480469 7.351563 93.183594 7.351563 93.011719 C 7.351563 93.011719 8.007813 91.839844 8.273438 91.839844 C 8.492188 91.839844 8.554688 92.011719 8.789063 92.011719 C 9.023438 92.011719 9.117188 91.824219 9.117188 91.652344 C 9.117188 91.417969 8.898438 91.308594 8.726563 91.308594 C 8.226563 91.308594 7.773438 91.886719 7.273438 92.683594 L 7.164063 92.152344 C 6.992188 91.308594 6.851563 91.308594 6.632813 91.308594 C 6.335938 91.308594 5.695313 91.542969 5.429688 91.621094 L 5.476563 91.761719 C 5.789063 91.683594 5.914063 91.667969 6.007813 91.667969 C 6.257813 91.667969 6.304688 91.792969 6.382813 92.089844 C 6.398438 92.136719 6.726563 93.417969 6.726563 93.511719 C 5.851563 94.761719 5.601563 95.089844 5.445313 95.089844 C 5.273438 95.089844 5.101563 94.902344 4.882813 94.902344 C 4.679688 94.902344 4.554688 95.074219 4.554688 95.230469 C 4.554688 95.464844 4.710938 95.652344 5.039063 95.652344 C 5.335938 95.652344 5.445313 95.542969 5.601563 95.355469 C 5.929688 95.011719 6.335938 94.480469 6.804688 93.855469 L 7.085938 95.011719 C 7.210938 95.511719 7.351563 95.652344 7.632813 95.652344 C 7.851563 95.652344 8.132813 95.652344 8.820313 94.558594 Z M 8.679688 94.480469 "
       id="path16" />
    <path
       style=" stroke:none;fill-rule:nonzero;fill:rgb(12.940979%,11.764526%,11.764526%);fill-opacity:1;"
       d="M 9.808594 96.945313 C 9.808594 96.320313 10.261719 93.789063 11.214844 93.789063 C 11.761719 93.789063 11.761719 94.445313 11.761719 94.632813 C 11.761719 95.757813 11.214844 97.804688 10.355469 97.804688 C 10.152344 97.804688 9.808594 97.695313 9.808594 96.945313 Z M 12.277344 95.210938 C 12.277344 94.585938 12.105469 93.617188 11.246094 93.617188 C 10.355469 93.617188 9.292969 94.929688 9.292969 96.664063 C 9.292969 97.335938 9.652344 97.992188 10.324219 97.992188 C 11.402344 97.992188 12.277344 96.492188 12.277344 95.210938 Z M 12.277344 95.210938 "
       id="path18" />
    <path
       style=" stroke:none;fill-rule:nonzero;fill:rgb(12.940979%,11.764526%,11.764526%);fill-opacity:1;"
       d="M 17.960938 91.839844 L 13.117188 91.839844 L 13.117188 92.464844 L 17.960938 92.464844 Z M 17.960938 93.761719 L 13.117188 93.761719 L 13.117188 94.386719 L 17.960938 94.386719 Z M 17.960938 93.761719 "
       id="path20" />
    <path
       style=" stroke:none;fill-rule:nonzero;fill:rgb(12.940979%,11.764526%,11.764526%);fill-opacity:1;"
       d="M 19.246094 95.542969 L 21.933594 95.542969 L 21.933594 95.402344 C 21.449219 95.402344 21.105469 95.386719 21.105469 95.074219 C 21.105469 94.933594 21.230469 94.574219 21.277344 94.386719 L 22.652344 89.386719 C 22.699219 89.246094 22.746094 89.042969 22.667969 89.042969 C 22.589844 89.042969 21.261719 89.339844 20.808594 89.417969 L 20.808594 89.558594 L 21.355469 89.542969 C 21.433594 89.542969 21.714844 89.542969 21.714844 89.839844 C 21.714844 89.917969 21.683594 90.058594 21.652344 90.167969 L 20.324219 94.886719 C 20.199219 95.324219 19.808594 95.355469 19.246094 95.402344 Z M 19.246094 95.542969 "
       id="path22" />
    <path
       style=" stroke:none;fill-rule:nonzero;fill:rgb(12.940979%,11.764526%,11.764526%);fill-opacity:1;"
       d="M 61.558594 112.648438 C 61.308594 112.929688 61.105469 113.289063 60.902344 113.289063 C 60.714844 113.289063 60.652344 113.054688 60.605469 112.898438 C 60.558594 112.648438 60.230469 111.351563 60.230469 111.179688 C 60.230469 111.179688 60.886719 110.007813 61.152344 110.007813 C 61.371094 110.007813 61.433594 110.179688 61.667969 110.179688 C 61.902344 110.179688 61.996094 109.992188 61.996094 109.820313 C 61.996094 109.585938 61.777344 109.476563 61.605469 109.476563 C 61.105469 109.476563 60.652344 110.054688 60.152344 110.851563 L 60.042969 110.320313 C 59.871094 109.476563 59.730469 109.476563 59.511719 109.476563 C 59.214844 109.476563 58.574219 109.710938 58.308594 109.789063 L 58.355469 109.929688 C 58.667969 109.851563 58.792969 109.835938 58.886719 109.835938 C 59.136719 109.835938 59.183594 109.960938 59.261719 110.257813 C 59.277344 110.304688 59.605469 111.585938 59.605469 111.679688 C 58.730469 112.929688 58.480469 113.257813 58.324219 113.257813 C 58.152344 113.257813 57.980469 113.070313 57.761719 113.070313 C 57.558594 113.070313 57.433594 113.242188 57.433594 113.398438 C 57.433594 113.632813 57.589844 113.820313 57.917969 113.820313 C 58.214844 113.820313 58.324219 113.710938 58.480469 113.523438 C 58.808594 113.179688 59.214844 112.648438 59.683594 112.023438 L 59.964844 113.179688 C 60.089844 113.679688 60.230469 113.820313 60.511719 113.820313 C 60.730469 113.820313 61.011719 113.820313 61.699219 112.726563 Z M 61.558594 112.648438 "
       id="path24" />
    <g
       clip-path="url(#clip1)"
       clip-rule="nonzero"
       id="g28">
      <path
         style=" stroke:none;fill-rule:nonzero;fill:rgb(12.940979%,11.764526%,11.764526%);fill-opacity:1;"
         d="M 62.28125 116.109375 L 64.0625 116.109375 L 64.0625 116.015625 C 63.75 116.015625 63.515625 116 63.515625 115.796875 C 63.515625 115.703125 63.609375 115.46875 63.640625 115.328125 L 64.546875 112.015625 C 64.578125 111.90625 64.609375 111.78125 64.5625 111.78125 C 64.515625 111.78125 63.625 111.96875 63.328125 112.015625 L 63.328125 112.125 L 63.6875 112.109375 C 63.75 112.109375 63.921875 112.109375 63.921875 112.3125 C 63.921875 112.359375 63.90625 112.453125 63.890625 112.515625 L 63 115.671875 C 62.921875 115.96875 62.65625 115.984375 62.28125 116.015625 Z M 62.28125 116.109375 "
         id="path26" />
    </g>
    <path
       style=" stroke:none;fill-rule:nonzero;fill:rgb(0%,0%,0%);fill-opacity:1;"
       d="M 146.289063 87.675781 C 145.570313 87.675781 145.039063 88.238281 145.039063 88.910156 C 145.039063 89.597656 145.554688 90.160156 146.289063 90.160156 C 146.976563 90.160156 147.539063 89.628906 147.539063 88.910156 C 147.539063 88.222656 146.976563 87.675781 146.289063 87.675781 Z M 146.289063 87.675781 "
       id="path30" />
    <path
       style=" stroke:none;fill-rule:nonzero;fill:rgb(0%,0%,0%);fill-opacity:1;"
       d="M 154.695313 87.675781 C 153.976563 87.675781 153.445313 88.238281 153.445313 88.910156 C 153.445313 89.597656 153.960938 90.160156 154.695313 90.160156 C 155.382813 90.160156 155.945313 89.628906 155.945313 88.910156 C 155.945313 88.222656 155.382813 87.675781 154.695313 87.675781 Z M 154.695313 87.675781 "
       id="path32" />
    <path
       style=" stroke:none;fill-rule:nonzero;fill:rgb(0%,0%,0%);fill-opacity:1;"
       d="M 163.101563 87.675781 C 162.382813 87.675781 161.851563 88.238281 161.851563 88.910156 C 161.851563 89.597656 162.367188 90.160156 163.101563 90.160156 C 163.789063 90.160156 164.351563 89.628906 164.351563 88.910156 C 164.351563 88.222656 163.789063 87.675781 163.101563 87.675781 Z M 163.101563 87.675781 "
       id="path34" />
    <path
       style=" stroke:none;fill-rule:nonzero;fill:rgb(12.940979%,11.764526%,11.764526%);fill-opacity:1;"
       d="M 123.105469 64.464844 L 123.292969 64.464844 C 123.714844 64.433594 123.761719 64.496094 123.871094 65.214844 C 123.964844 65.746094 124.042969 66.574219 124.074219 67.214844 L 124.105469 68.058594 C 124.105469 68.199219 124.105469 68.511719 124.230469 68.511719 C 124.386719 68.511719 124.449219 68.308594 125.386719 66.652344 C 125.808594 65.902344 126.042969 65.496094 126.214844 65.183594 L 126.230469 65.183594 L 126.511719 68.230469 C 126.527344 68.371094 126.527344 68.511719 126.636719 68.511719 C 126.730469 68.511719 126.855469 68.324219 127.246094 67.871094 C 127.683594 67.355469 129.183594 65.480469 129.183594 64.636719 C 129.183594 64.355469 129.027344 64.105469 128.667969 64.105469 C 128.386719 64.105469 128.308594 64.277344 128.308594 64.433594 C 128.308594 64.761719 128.714844 64.808594 128.714844 65.152344 C 128.714844 65.652344 127.980469 66.574219 127.136719 67.621094 L 126.824219 64.183594 C 126.808594 64.152344 126.808594 64.105469 126.746094 64.105469 C 126.683594 64.105469 126.652344 64.152344 126.636719 64.199219 L 124.792969 67.105469 L 124.777344 67.105469 C 124.777344 66.933594 124.683594 65.605469 124.511719 64.636719 C 124.402344 64.121094 124.386719 64.105469 124.324219 64.105469 C 124.230469 64.105469 123.652344 64.261719 123.105469 64.339844 Z M 123.105469 64.464844 "
       id="path36" />
    <path
       style=" stroke:none;fill-rule:nonzero;fill:rgb(12.940979%,11.764526%,11.764526%);fill-opacity:1;"
       d="M 131.921875 69.851563 C 131.8125 70.085938 131.703125 70.257813 131.28125 70.257813 L 130.078125 70.257813 L 130.078125 70.226563 L 131.296875 68.992188 C 132.09375 68.195313 132.25 67.914063 132.25 67.476563 C 132.25 67.007813 131.890625 66.414063 131.21875 66.414063 C 131.0625 66.414063 130.21875 66.429688 129.875 67.429688 L 130 67.476563 C 130.09375 67.320313 130.34375 66.882813 130.921875 66.882813 C 131.40625 66.882813 131.703125 67.257813 131.703125 67.664063 C 131.703125 67.867188 131.671875 68.242188 130.78125 69.195313 L 129.4375 70.632813 L 129.4375 70.742188 L 131.703125 70.742188 L 132.03125 69.898438 Z M 131.921875 69.851563 "
       id="path38" />
    <path
       style=" stroke:none;fill-rule:nonzero;fill:rgb(12.940979%,11.764526%,11.764526%);fill-opacity:1;"
       d="M 96.25 42.03125 L 96.4375 42.03125 C 96.859375 42 96.90625 42.0625 97.015625 42.78125 C 97.109375 43.3125 97.1875 44.140625 97.21875 44.78125 L 97.25 45.625 C 97.25 45.765625 97.25 46.078125 97.375 46.078125 C 97.53125 46.078125 97.59375 45.875 98.53125 44.21875 C 98.953125 43.46875 99.1875 43.0625 99.359375 42.75 L 99.375 42.75 L 99.65625 45.796875 C 99.671875 45.9375 99.671875 46.078125 99.78125 46.078125 C 99.875 46.078125 100 45.890625 100.390625 45.4375 C 100.828125 44.921875 102.328125 43.046875 102.328125 42.203125 C 102.328125 41.921875 102.171875 41.671875 101.8125 41.671875 C 101.53125 41.671875 101.453125 41.84375 101.453125 42 C 101.453125 42.328125 101.859375 42.375 101.859375 42.71875 C 101.859375 43.21875 101.125 44.140625 100.28125 45.1875 L 99.96875 41.75 C 99.953125 41.71875 99.953125 41.671875 99.890625 41.671875 C 99.828125 41.671875 99.796875 41.71875 99.78125 41.765625 L 97.9375 44.671875 L 97.921875 44.671875 C 97.921875 44.5 97.828125 43.171875 97.65625 42.203125 C 97.546875 41.6875 97.53125 41.671875 97.46875 41.671875 C 97.375 41.671875 96.796875 41.828125 96.25 41.90625 Z M 96.25 42.03125 "
       id="path40" />
    <path
       style=" stroke:none;fill-rule:nonzero;fill:rgb(12.940979%,11.764526%,11.764526%);fill-opacity:1;"
       d="M 103.21875 47.308594 C 103.21875 46.683594 103.671875 44.152344 104.625 44.152344 C 105.171875 44.152344 105.171875 44.808594 105.171875 44.996094 C 105.171875 46.121094 104.625 48.167969 103.765625 48.167969 C 103.5625 48.167969 103.21875 48.058594 103.21875 47.308594 Z M 105.6875 45.574219 C 105.6875 44.949219 105.515625 43.980469 104.65625 43.980469 C 103.765625 43.980469 102.703125 45.292969 102.703125 47.027344 C 102.703125 47.699219 103.0625 48.355469 103.734375 48.355469 C 104.8125 48.355469 105.6875 46.855469 105.6875 45.574219 Z M 105.6875 45.574219 "
       id="path42" />
    <path
       style=" stroke:none;fill-rule:nonzero;fill:rgb(12.940979%,11.764526%,11.764526%);fill-opacity:1;"
       d="M 104.160156 62.597656 L 104.347656 62.597656 C 104.769531 62.566406 104.816406 62.628906 104.925781 63.347656 C 105.019531 63.878906 105.097656 64.707031 105.128906 65.347656 L 105.160156 66.191406 C 105.160156 66.332031 105.160156 66.644531 105.285156 66.644531 C 105.441406 66.644531 105.503906 66.441406 106.441406 64.785156 C 106.863281 64.035156 107.097656 63.628906 107.269531 63.316406 L 107.285156 63.316406 L 107.566406 66.363281 C 107.582031 66.503906 107.582031 66.644531 107.691406 66.644531 C 107.785156 66.644531 107.910156 66.457031 108.300781 66.003906 C 108.738281 65.488281 110.238281 63.613281 110.238281 62.769531 C 110.238281 62.488281 110.082031 62.238281 109.722656 62.238281 C 109.441406 62.238281 109.363281 62.410156 109.363281 62.566406 C 109.363281 62.894531 109.769531 62.941406 109.769531 63.285156 C 109.769531 63.785156 109.035156 64.707031 108.191406 65.753906 L 107.878906 62.316406 C 107.863281 62.285156 107.863281 62.238281 107.800781 62.238281 C 107.738281 62.238281 107.707031 62.285156 107.691406 62.332031 L 105.847656 65.238281 L 105.832031 65.238281 C 105.832031 65.066406 105.738281 63.738281 105.566406 62.769531 C 105.457031 62.253906 105.441406 62.238281 105.378906 62.238281 C 105.285156 62.238281 104.707031 62.394531 104.160156 62.472656 Z M 104.160156 62.597656 "
       id="path44" />
    <path
       style=" stroke:none;fill-rule:nonzero;fill:rgb(12.940979%,11.764526%,11.764526%);fill-opacity:1;"
       d="M 110.722656 68.875 L 112.503906 68.875 L 112.503906 68.78125 C 112.191406 68.78125 111.957031 68.765625 111.957031 68.5625 C 111.957031 68.46875 112.050781 68.234375 112.082031 68.09375 L 112.988281 64.78125 C 113.019531 64.671875 113.050781 64.546875 113.003906 64.546875 C 112.957031 64.546875 112.066406 64.734375 111.769531 64.78125 L 111.769531 64.890625 L 112.128906 64.875 C 112.191406 64.875 112.363281 64.875 112.363281 65.078125 C 112.363281 65.125 112.347656 65.21875 112.332031 65.28125 L 111.441406 68.4375 C 111.363281 68.734375 111.097656 68.75 110.722656 68.78125 Z M 110.722656 68.875 "
       id="path46" />
    <path
       style=" stroke:none;fill-rule:nonzero;fill:rgb(12.940979%,11.764526%,11.764526%);fill-opacity:1;"
       d="M 157.363281 51.90625 L 157.550781 51.90625 C 157.972656 51.875 158.019531 51.9375 158.128906 52.65625 C 158.222656 53.1875 158.300781 54.015625 158.332031 54.65625 L 158.363281 55.5 C 158.363281 55.640625 158.363281 55.953125 158.488281 55.953125 C 158.644531 55.953125 158.707031 55.75 159.644531 54.09375 C 160.066406 53.34375 160.300781 52.9375 160.472656 52.625 L 160.488281 52.625 L 160.769531 55.671875 C 160.785156 55.8125 160.785156 55.953125 160.894531 55.953125 C 160.988281 55.953125 161.113281 55.765625 161.503906 55.3125 C 161.941406 54.796875 163.441406 52.921875 163.441406 52.078125 C 163.441406 51.796875 163.285156 51.546875 162.925781 51.546875 C 162.644531 51.546875 162.566406 51.71875 162.566406 51.875 C 162.566406 52.203125 162.972656 52.25 162.972656 52.59375 C 162.972656 53.09375 162.238281 54.015625 161.394531 55.0625 L 161.082031 51.625 C 161.066406 51.59375 161.066406 51.546875 161.003906 51.546875 C 160.941406 51.546875 160.910156 51.59375 160.894531 51.640625 L 159.050781 54.546875 L 159.035156 54.546875 C 159.035156 54.375 158.941406 53.046875 158.769531 52.078125 C 158.660156 51.5625 158.644531 51.546875 158.582031 51.546875 C 158.488281 51.546875 157.910156 51.703125 157.363281 51.78125 Z M 157.363281 51.90625 "
       id="path48" />
    <path
       style=" stroke:none;fill-rule:nonzero;fill:rgb(12.940979%,11.764526%,11.764526%);fill-opacity:1;"
       d="M 164.660156 57.949219 C 164.269531 57.949219 164.269531 57.574219 164.269531 57.464844 C 164.269531 56.886719 164.878906 55.511719 165.597656 55.511719 C 165.894531 55.511719 165.894531 55.792969 165.894531 55.933594 C 165.894531 56.730469 165.269531 57.949219 164.660156 57.949219 Z M 166.582031 57.464844 C 166.316406 57.777344 166.175781 57.933594 166.050781 57.933594 C 165.988281 57.933594 165.941406 57.886719 165.941406 57.792969 C 165.941406 57.683594 166.707031 54.949219 166.988281 53.839844 L 166.957031 53.808594 C 166.628906 53.871094 166.300781 53.917969 165.972656 53.949219 L 165.972656 54.058594 C 166.332031 54.074219 166.378906 54.105469 166.378906 54.246094 C 166.378906 54.339844 166.332031 54.496094 166.285156 54.683594 L 166.003906 55.699219 L 165.988281 55.714844 C 165.957031 55.574219 165.925781 55.355469 165.566406 55.355469 C 164.800781 55.355469 163.707031 56.527344 163.707031 57.496094 C 163.707031 57.824219 163.847656 58.261719 164.378906 58.261719 C 164.691406 58.261719 165.050781 58.152344 165.519531 57.433594 L 165.535156 57.449219 C 165.472656 57.683594 165.457031 57.824219 165.457031 57.964844 C 165.457031 58.105469 165.503906 58.261719 165.753906 58.261719 C 165.957031 58.261719 166.378906 57.964844 166.660156 57.542969 Z M 166.582031 57.464844 "
       id="path50" />
    <path
       style="fill:none;stroke-width:1.125;stroke-linecap:round;stroke-linejoin:round;stroke:rgb(0%,0%,0%);stroke-opacity:1;stroke-miterlimit:4;"
       d="M 73.339844 80.917969 L 114.261719 53.851563 "
       id="path52" />
    <path
       style=" stroke:none;fill-rule:nonzero;fill:rgb(0%,0%,0%);fill-opacity:1;"
       d="M 115.75 51.558594 C 113.988281 52.089844 112.761719 52.316406 111.265625 52.625 L 114.253906 57.070313 C 114.542969 56.59375 115.796875 54.785156 116.972656 53.375 C 118.226563 51.867188 119.433594 50.601563 120.28125 49.875 C 119.277344 50.371094 117.636719 50.992188 115.75 51.558594 "
       id="path54" />
    <path
       style="fill:none;stroke-width:1.125;stroke-linecap:round;stroke-linejoin:round;stroke:rgb(0%,0%,0%);stroke-opacity:1;stroke-miterlimit:4;"
       d="M 114.496094 76.121094 L 122.667969 60.171875 "
       id="path56" />
    <path
       style=" stroke:none;fill-rule:nonzero;fill:rgb(0%,0%,0%);fill-opacity:1;"
       d="M 122.8125 57.585938 C 121.59375 58.851563 120.671875 59.609375 119.570313 60.5625 L 124.222656 62.832031 C 124.230469 62.304688 124.414063 60.226563 124.714844 58.515625 C 125.039063 56.679688 125.441406 55.074219 125.800781 54.078125 C 125.199219 54.957031 124.121094 56.234375 122.8125 57.585938 "
       id="path58" />
    <path
       style="fill:none;stroke-width:1.125;stroke-linecap:round;stroke-linejoin:round;stroke:rgb(0%,0%,0%);stroke-opacity:1;stroke-miterlimit:4;"
       d="M 189.464844 80.855469 L 148.601563 53.722656 "
       id="path60" />
    <path
       style=" stroke:none;fill-rule:nonzero;fill:rgb(0%,0%,0%);fill-opacity:1;"
       d="M 145.902344 53.234375 C 147.070313 54.648438 147.753906 55.6875 148.613281 56.941406 L 151.597656 52.484375 C 151.042969 52.402344 148.882813 51.949219 147.121094 51.414063 C 145.234375 50.84375 143.597656 50.222656 142.597656 49.726563 C 143.441406 50.453125 144.648438 51.722656 145.902344 53.234375 "
       id="path62" />
    <path
       style="fill:none;stroke-width:1.125;stroke-linecap:round;stroke-linejoin:round;stroke:rgb(0%,0%,0%);stroke-opacity:1;stroke-miterlimit:4;"
       d="M 28.554688 73.0625 L 111.472656 48.042969 "
       id="path64" />
    <path
       style=" stroke:none;fill-rule:nonzero;fill:rgb(0%,0%,0%);fill-opacity:1;"
       d="M 113.617188 46.226563 C 111.734375 46.222656 110.472656 46.078125 108.921875 45.9375 L 110.5 51.226563 C 110.925781 50.839844 112.691406 49.429688 114.261719 48.386719 C 115.9375 47.269531 117.496094 46.378906 118.542969 45.917969 C 117.414063 46.105469 115.628906 46.230469 113.617188 46.226563 "
       id="path66" />
    <path
       style=" stroke:none;fill-rule:nonzero;fill:rgb(100%,100%,100%);fill-opacity:1;"
       d="M 61.515625 88.765625 L 75.488281 88.765625 L 75.46875 88.070313 L 75.417969 87.375 L 75.332031 86.683594 L 75.210938 85.996094 L 75.054688 85.316406 L 74.867188 84.648438 L 74.644531 83.988281 L 74.390625 83.335938 L 74.105469 82.703125 L 73.785156 82.082031 L 73.4375 81.480469 L 73.058594 80.894531 L 72.652344 80.328125 L 72.21875 79.785156 L 71.757813 79.261719 L 71.269531 78.761719 L 70.761719 78.289063 L 70.226563 77.839844 L 69.671875 77.417969 L 69.09375 77.027344 L 68.5 76.664063 L 67.890625 76.332031 L 67.261719 76.027344 L 66.617188 75.757813 L 65.964844 75.519531 L 65.296875 75.316406 L 64.621094 75.144531 L 63.941406 75.003906 L 63.25 74.902344 L 62.558594 74.832031 L 61.863281 74.796875 L 61.164063 74.796875 L 60.46875 74.832031 L 59.777344 74.902344 L 59.085938 75.003906 L 58.402344 75.144531 L 57.730469 75.316406 L 57.0625 75.519531 L 56.410156 75.757813 L 55.765625 76.03125 L 55.140625 76.332031 L 54.527344 76.664063 L 53.933594 77.027344 L 53.355469 77.421875 L 52.800781 77.839844 L 52.269531 78.289063 L 51.757813 78.765625 L 51.269531 79.261719 L 50.808594 79.785156 L 50.375 80.328125 L 49.96875 80.894531 L 49.589844 81.480469 L 49.242188 82.085938 L 48.925781 82.703125 L 48.636719 83.339844 L 48.382813 83.988281 L 48.160156 84.648438 L 47.972656 85.320313 L 47.816406 86 L 47.695313 86.683594 L 47.609375 87.375 L 47.558594 88.070313 L 47.542969 88.769531 L 47.558594 89.464844 L 61.515625 88.765625 "
       id="path68" />
    <path
       style=" stroke:none;fill-rule:nonzero;fill:rgb(100%,100%,100%);fill-opacity:1;"
       d="M 108.09375 88.765625 L 122.066406 88.765625 L 122.046875 88.070313 L 121.996094 87.375 L 121.910156 86.683594 L 121.789063 85.996094 L 121.632813 85.316406 L 121.445313 84.648438 L 121.222656 83.988281 L 120.96875 83.335938 L 120.679688 82.703125 L 120.363281 82.082031 L 120.015625 81.480469 L 119.636719 80.894531 L 119.230469 80.328125 L 118.796875 79.785156 L 118.335938 79.261719 L 117.847656 78.761719 L 117.339844 78.289063 L 116.804688 77.839844 L 116.246094 77.417969 L 115.671875 77.027344 L 115.078125 76.664063 L 114.464844 76.332031 L 113.839844 76.027344 L 113.195313 75.757813 L 112.542969 75.519531 L 111.875 75.316406 L 111.199219 75.144531 L 110.519531 75.003906 L 109.828125 74.902344 L 109.136719 74.832031 L 108.441406 74.796875 L 107.742188 74.796875 L 107.046875 74.832031 L 106.355469 74.902344 L 105.664063 75.003906 L 104.980469 75.144531 L 104.308594 75.316406 L 103.640625 75.519531 L 102.984375 75.757813 L 102.34375 76.03125 L 101.71875 76.332031 L 101.105469 76.664063 L 100.511719 77.027344 L 99.933594 77.421875 L 99.378906 77.839844 L 98.847656 78.289063 L 98.335938 78.765625 L 97.847656 79.261719 L 97.386719 79.785156 L 96.953125 80.328125 L 96.546875 80.894531 L 96.167969 81.480469 L 95.820313 82.085938 L 95.5 82.703125 L 95.214844 83.339844 L 94.960938 83.988281 L 94.738281 84.648438 L 94.550781 85.320313 L 94.394531 86 L 94.273438 86.683594 L 94.1875 87.375 L 94.136719 88.070313 L 94.121094 88.769531 L 94.136719 89.464844 L 108.09375 88.765625 "
       id="path70" />
    <path
       style="fill:none;stroke-width:0.801;stroke-linecap:round;stroke-linejoin:round;stroke:rgb(49.803162%,49.803162%,49.803162%);stroke-opacity:1;stroke-miterlimit:4;"
       d="M 4.261719 73.238281 L 25.613281 73.238281 "
       id="path72" />
    <path
       style="fill:none;stroke-width:0.801;stroke-linecap:round;stroke-linejoin:round;stroke:rgb(49.803162%,49.803162%,49.803162%);stroke-opacity:1;stroke-miterlimit:4;"
       d="M 14.9375 81.972656 L 14.9375 64.503906 "
       id="path74" />
    <path
       style="fill:none;stroke-width:1.201;stroke-linecap:round;stroke-linejoin:round;stroke:rgb(0%,0%,0%);stroke-opacity:1;stroke-miterlimit:4;"
       d="M 5.234375 68.386719 L 24.640625 68.386719 "
       id="path76" />
    <path
       style="fill:none;stroke-width:0.801;stroke-linecap:round;stroke-linejoin:round;stroke:rgb(49.803162%,49.803162%,49.803162%);stroke-opacity:1;stroke-miterlimit:4;"
       d="M 50.761719 88.890625 L 72.113281 88.890625 "
       id="path78" />
    <path
       style="fill:none;stroke-width:0.801;stroke-linecap:round;stroke-linejoin:round;stroke:rgb(49.803162%,49.803162%,49.803162%);stroke-opacity:1;stroke-miterlimit:4;"
       d="M 61.4375 97.621094 L 61.4375 80.15625 "
       id="path80" />
    <path
       style="fill:none;stroke-width:1.201;stroke-linecap:round;stroke-linejoin:round;stroke:rgb(0%,0%,0%);stroke-opacity:1;stroke-miterlimit:4;"
       d="M 53.75 96.527344 L 69.277344 81 "
       id="path82" />
    <path
       style="fill:none;stroke-width:0.801;stroke-linecap:round;stroke-linejoin:round;stroke:rgb(49.803162%,49.803162%,49.803162%);stroke-opacity:1;stroke-miterlimit:4;"
       d="M 97.199219 88.890625 L 118.546875 88.890625 "
       id="path84" />
    <path
       style="fill:none;stroke-width:0.801;stroke-linecap:round;stroke-linejoin:round;stroke:rgb(49.803162%,49.803162%,49.803162%);stroke-opacity:1;stroke-miterlimit:4;"
       d="M 107.871094 97.621094 L 107.871094 80.15625 "
       id="path86" />
    <path
       style="fill:none;stroke-width:1.201;stroke-linecap:round;stroke-linejoin:round;stroke:rgb(0%,0%,0%);stroke-opacity:1;stroke-miterlimit:4;"
       d="M 100.328125 96.527344 L 115.855469 81 "
       id="path88" />
    <path
       style="fill:none;stroke-width:0.801;stroke-linecap:round;stroke-linejoin:round;stroke:rgb(49.803162%,49.803162%,49.803162%);stroke-opacity:1;stroke-miterlimit:4;"
       d="M 190.070313 88.890625 L 211.417969 88.890625 "
       id="path90" />
    <path
       style="fill:none;stroke-width:0.801;stroke-linecap:round;stroke-linejoin:round;stroke:rgb(49.803162%,49.803162%,49.803162%);stroke-opacity:1;stroke-miterlimit:4;"
       d="M 200.742188 97.621094 L 200.742188 80.15625 "
       id="path92" />
    <path
       style="fill:none;stroke-width:1.201;stroke-linecap:round;stroke-linejoin:round;stroke:rgb(0%,0%,0%);stroke-opacity:1;stroke-miterlimit:4;"
       d="M 193.484375 96.527344 L 209.011719 81 "
       id="path94" />
    <path
       style="fill:none;stroke-width:0.801;stroke-linecap:round;stroke-linejoin:round;stroke:rgb(49.803162%,49.803162%,49.803162%);stroke-opacity:1;stroke-miterlimit:4;"
       d="M 120.96875 42.722656 L 142.316406 42.722656 "
       id="path96" />
    <path
       style="fill:none;stroke-width:0.801;stroke-linecap:round;stroke-linejoin:round;stroke:rgb(49.803162%,49.803162%,49.803162%);stroke-opacity:1;stroke-miterlimit:4;"
       d="M 131.640625 51.453125 L 131.640625 33.988281 "
       id="path98" />
    <path
       style="fill:none;stroke-width:1.201;stroke-linecap:round;stroke-linejoin:round;stroke:rgb(0%,0%,0%);stroke-opacity:1;stroke-miterlimit:4;"
       d="M 121.679688 47.039063 L 131.382813 47.039063 L 131.382813 37.335938 L 141.082031 37.335938 "
       id="path100" />
    <path
       style=" stroke:none;fill-rule:nonzero;fill:rgb(12.940979%,11.764526%,11.764526%);fill-opacity:1;"
       d="M 128.867188 2.125 L 128.367188 2.125 C 128.320313 2.125 128.242188 2.046875 128.117188 1.96875 C 127.960938 1.90625 127.773438 1.828125 127.445313 1.828125 C 126.789063 1.828125 125.851563 2.296875 125.851563 3.1875 C 125.851563 3.75 126.195313 3.9375 126.492188 4.0625 C 126.210938 4.25 125.867188 4.484375 125.867188 4.734375 C 125.867188 4.875 125.992188 4.96875 126.085938 5.046875 C 125.414063 5.484375 125.148438 5.65625 125.148438 6.125 C 125.148438 6.5625 125.570313 7 126.445313 7 C 127.539063 7 128.164063 6.515625 128.164063 5.84375 C 128.164063 4.734375 126.460938 4.859375 126.460938 4.4375 C 126.460938 4.328125 126.632813 4.125 126.742188 4.125 C 126.851563 4.125 126.960938 4.15625 127.070313 4.15625 C 127.773438 4.15625 128.539063 3.5 128.539063 2.90625 C 128.539063 2.75 128.507813 2.578125 128.460938 2.4375 L 128.867188 2.4375 Z M 127.679688 6.078125 C 127.679688 6.46875 127.289063 6.828125 126.570313 6.828125 C 126.460938 6.828125 125.585938 6.796875 125.585938 6.0625 C 125.585938 5.875 125.585938 5.65625 125.914063 5.375 C 125.945313 5.34375 126.210938 5.140625 126.257813 5.140625 C 126.320313 5.140625 127.101563 5.4375 127.242188 5.5 C 127.398438 5.578125 127.679688 5.71875 127.679688 6.078125 Z M 127.898438 2.546875 C 127.898438 3.21875 127.507813 3.984375 126.976563 3.984375 C 126.617188 3.984375 126.476563 3.71875 126.476563 3.359375 C 126.476563 2.828125 126.835938 2 127.445313 2 C 127.789063 2 127.898438 2.234375 127.898438 2.546875 Z M 127.898438 2.546875 "
       id="path102" />
    <path
       style=" stroke:none;fill-rule:nonzero;fill:rgb(12.940979%,11.764526%,11.764526%);fill-opacity:1;"
       d="M 130.355469 6.765625 C 129.980469 5.78125 129.980469 5.078125 129.980469 4.53125 C 129.980469 4.03125 130.121094 2.9375 130.433594 2.046875 C 130.824219 0.953125 131.230469 0.53125 131.605469 0.125 L 131.511719 0 C 130.042969 1.25 129.433594 2.5 129.433594 3.8125 C 129.433594 4.328125 129.433594 5.5 130.214844 6.8125 Z M 130.355469 6.765625 "
       id="path104" />
    <path
       style=" stroke:none;fill-rule:nonzero;fill:rgb(12.940979%,11.764526%,11.764526%);fill-opacity:1;"
       d="M 134.230469 4.46875 C 134.027344 4.734375 133.917969 4.890625 133.761719 4.890625 C 133.574219 4.890625 133.527344 4.6875 133.480469 4.515625 L 133.261719 3.390625 C 133.355469 3.25 133.652344 2.703125 133.902344 2.703125 C 134.074219 2.703125 134.121094 2.859375 134.324219 2.859375 C 134.574219 2.859375 134.730469 2.671875 134.730469 2.484375 C 134.746094 2.3125 134.574219 2.03125 134.339844 2.03125 C 133.964844 2.03125 133.714844 2.265625 133.183594 3.03125 C 133.058594 2.46875 132.996094 2.234375 132.855469 2.03125 L 131.652344 2.203125 L 131.652344 2.40625 C 131.730469 2.390625 131.824219 2.390625 131.902344 2.390625 C 132.027344 2.390625 132.214844 2.390625 132.308594 2.859375 L 132.527344 3.96875 L 132.199219 4.484375 C 132.136719 4.609375 132.027344 4.78125 131.871094 4.78125 C 131.714844 4.78125 131.683594 4.640625 131.417969 4.625 C 131.167969 4.609375 131.027344 4.84375 131.027344 5.015625 C 131.027344 5.140625 131.089844 5.453125 131.464844 5.453125 C 131.824219 5.453125 132.027344 5.28125 132.371094 4.703125 C 132.464844 4.5625 132.542969 4.4375 132.605469 4.34375 C 132.746094 5.1875 132.980469 5.453125 133.308594 5.453125 C 133.792969 5.453125 134.199219 4.84375 134.386719 4.578125 Z M 134.230469 4.46875 "
       id="path106" />
    <path
       style=" stroke:none;fill-rule:nonzero;fill:rgb(12.940979%,11.764526%,11.764526%);fill-opacity:1;"
       d="M 135.191406 6.796875 C 136.378906 5.84375 137.269531 4.515625 137.269531 3 C 137.269531 1.96875 137.050781 0.9375 136.472656 0 L 136.332031 0.046875 C 136.535156 0.484375 136.722656 1.28125 136.722656 2.140625 C 136.722656 2.84375 136.582031 3.796875 136.253906 4.78125 C 135.894531 5.828125 135.441406 6.3125 135.082031 6.671875 Z M 135.191406 6.796875 "
       id="path108" />
    <path
       style="fill:none;stroke-width:1.125;stroke-linecap:round;stroke-linejoin:round;stroke:rgb(0%,0%,0%);stroke-opacity:1;stroke-miterlimit:4;"
       d="M 130.757813 27.558594 L 130.757813 16.351563 "
       id="path110" />
    <path
       style=" stroke:none;fill-rule:nonzero;fill:rgb(0%,0%,0%);fill-opacity:1;"
       d="M 129.605469 13.695313 C 129.042969 15.554688 128.527344 16.761719 127.925781 18.253906 L 133.601563 18.253906 C 133.347656 17.722656 132.484375 15.554688 131.921875 13.695313 C 131.320313 11.703125 130.910156 9.898438 130.765625 8.730469 C 130.617188 9.898438 130.207031 11.703125 129.605469 13.695313 "
       id="path112" />
    <path
       style=" stroke:none;fill-rule:nonzero;fill:rgb(12.940979%,11.764526%,11.764526%);fill-opacity:1;"
       d="M 107.996094 112.648438 C 107.746094 112.929688 107.542969 113.289063 107.339844 113.289063 C 107.152344 113.289063 107.089844 113.054688 107.042969 112.898438 C 106.996094 112.648438 106.667969 111.351563 106.667969 111.179688 C 106.667969 111.179688 107.324219 110.007813 107.589844 110.007813 C 107.808594 110.007813 107.871094 110.179688 108.105469 110.179688 C 108.339844 110.179688 108.433594 109.992188 108.433594 109.820313 C 108.433594 109.585938 108.214844 109.476563 108.042969 109.476563 C 107.542969 109.476563 107.089844 110.054688 106.589844 110.851563 L 106.480469 110.320313 C 106.308594 109.476563 106.167969 109.476563 105.949219 109.476563 C 105.652344 109.476563 105.011719 109.710938 104.746094 109.789063 L 104.792969 109.929688 C 105.105469 109.851563 105.230469 109.835938 105.324219 109.835938 C 105.574219 109.835938 105.621094 109.960938 105.699219 110.257813 C 105.714844 110.304688 106.042969 111.585938 106.042969 111.679688 C 105.167969 112.929688 104.917969 113.257813 104.761719 113.257813 C 104.589844 113.257813 104.417969 113.070313 104.199219 113.070313 C 103.996094 113.070313 103.871094 113.242188 103.871094 113.398438 C 103.871094 113.632813 104.027344 113.820313 104.355469 113.820313 C 104.652344 113.820313 104.761719 113.710938 104.917969 113.523438 C 105.246094 113.179688 105.652344 112.648438 106.121094 112.023438 L 106.402344 113.179688 C 106.527344 113.679688 106.667969 113.820313 106.949219 113.820313 C 107.167969 113.820313 107.449219 113.820313 108.136719 112.726563 Z M 107.996094 112.648438 "
       id="path114" />
    <g
       clip-path="url(#clip2)"
       clip-rule="nonzero"
       id="g118">
      <path
         style=" stroke:none;fill-rule:nonzero;fill:rgb(12.940979%,11.764526%,11.764526%);fill-opacity:1;"
         d="M 110.964844 115.21875 C 110.855469 115.453125 110.746094 115.625 110.324219 115.625 L 109.121094 115.625 L 109.121094 115.59375 L 110.339844 114.359375 C 111.136719 113.5625 111.292969 113.28125 111.292969 112.84375 C 111.292969 112.375 110.933594 111.78125 110.261719 111.78125 C 110.105469 111.78125 109.261719 111.796875 108.917969 112.796875 L 109.042969 112.84375 C 109.136719 112.6875 109.386719 112.25 109.964844 112.25 C 110.449219 112.25 110.746094 112.625 110.746094 113.03125 C 110.746094 113.234375 110.714844 113.609375 109.824219 114.5625 L 108.480469 116 L 108.480469 116.109375 L 110.746094 116.109375 L 111.074219 115.265625 Z M 110.964844 115.21875 "
         id="path116" />
    </g>
    <path
       style=" stroke:none;fill-rule:nonzero;fill:rgb(12.940979%,11.764526%,11.764526%);fill-opacity:1;"
       d="M 204.070313 112.648438 C 203.820313 112.929688 203.617188 113.289063 203.414063 113.289063 C 203.226563 113.289063 203.164063 113.054688 203.117188 112.898438 C 203.070313 112.648438 202.742188 111.351563 202.742188 111.179688 C 202.742188 111.179688 203.398438 110.007813 203.664063 110.007813 C 203.882813 110.007813 203.945313 110.179688 204.179688 110.179688 C 204.414063 110.179688 204.507813 109.992188 204.507813 109.820313 C 204.507813 109.585938 204.289063 109.476563 204.117188 109.476563 C 203.617188 109.476563 203.164063 110.054688 202.664063 110.851563 L 202.554688 110.320313 C 202.382813 109.476563 202.242188 109.476563 202.023438 109.476563 C 201.726563 109.476563 201.085938 109.710938 200.820313 109.789063 L 200.867188 109.929688 C 201.179688 109.851563 201.304688 109.835938 201.398438 109.835938 C 201.648438 109.835938 201.695313 109.960938 201.773438 110.257813 C 201.789063 110.304688 202.117188 111.585938 202.117188 111.679688 C 201.242188 112.929688 200.992188 113.257813 200.835938 113.257813 C 200.664063 113.257813 200.492188 113.070313 200.273438 113.070313 C 200.070313 113.070313 199.945313 113.242188 199.945313 113.398438 C 199.945313 113.632813 200.101563 113.820313 200.429688 113.820313 C 200.726563 113.820313 200.835938 113.710938 200.992188 113.523438 C 201.320313 113.179688 201.726563 112.648438 202.195313 112.023438 L 202.476563 113.179688 C 202.601563 113.679688 202.742188 113.820313 203.023438 113.820313 C 203.242188 113.820313 203.523438 113.820313 204.210938 112.726563 Z M 204.070313 112.648438 "
       id="path120" />
    <g
       clip-path="url(#clip3)"
       clip-rule="nonzero"
       id="g124">
      <path
         style=" stroke:none;fill-rule:nonzero;fill:rgb(12.940979%,11.764526%,11.764526%);fill-opacity:1;"
         d="M 205.523438 115.875 C 205.132813 115.875 205.132813 115.5 205.132813 115.390625 C 205.132813 114.8125 205.742188 113.4375 206.460938 113.4375 C 206.757813 113.4375 206.757813 113.71875 206.757813 113.859375 C 206.757813 114.65625 206.132813 115.875 205.523438 115.875 Z M 207.445313 115.390625 C 207.179688 115.703125 207.039063 115.859375 206.914063 115.859375 C 206.851563 115.859375 206.804688 115.8125 206.804688 115.71875 C 206.804688 115.609375 207.570313 112.875 207.851563 111.765625 L 207.820313 111.734375 C 207.492188 111.796875 207.164063 111.84375 206.835938 111.875 L 206.835938 111.984375 C 207.195313 112 207.242188 112.03125 207.242188 112.171875 C 207.242188 112.265625 207.195313 112.421875 207.148438 112.609375 L 206.867188 113.625 L 206.851563 113.640625 C 206.820313 113.5 206.789063 113.28125 206.429688 113.28125 C 205.664063 113.28125 204.570313 114.453125 204.570313 115.421875 C 204.570313 115.75 204.710938 116.1875 205.242188 116.1875 C 205.554688 116.1875 205.914063 116.078125 206.382813 115.359375 L 206.398438 115.375 C 206.335938 115.609375 206.320313 115.75 206.320313 115.890625 C 206.320313 116.03125 206.367188 116.1875 206.617188 116.1875 C 206.820313 116.1875 207.242188 115.890625 207.523438 115.46875 Z M 207.445313 115.390625 "
         id="path122" />
    </g>
    <path
       style="fill:none;stroke-width:1.601;stroke-linecap:butt;stroke-linejoin:miter;stroke:rgb(12.940979%,11.764526%,11.764526%);stroke-opacity:1;stroke-miterlimit:4;"
       d="M 14.667969 86.949219 C 22.328125 86.949219 28.539063 80.738281 28.539063 73.078125 C 28.539063 65.417969 22.328125 59.207031 14.667969 59.207031 C 7.007813 59.207031 0.800781 65.417969 0.800781 73.078125 C 0.800781 80.738281 7.007813 86.949219 14.667969 86.949219 Z M 61.105469 103.160156 C 68.765625 103.160156 74.972656 96.949219 74.972656 89.289063 C 74.972656 81.628906 68.765625 75.417969 61.105469 75.417969 C 53.445313 75.417969 47.234375 81.628906 47.234375 89.289063 C 47.234375 96.949219 53.445313 103.160156 61.105469 103.160156 Z M 107.539063 103.160156 C 115.199219 103.160156 121.410156 96.949219 121.410156 89.289063 C 121.410156 81.628906 115.199219 75.417969 107.539063 75.417969 C 99.878906 75.417969 93.667969 81.628906 93.667969 89.289063 C 93.667969 96.949219 99.878906 103.160156 107.539063 103.160156 Z M 200.410156 103.160156 C 208.070313 103.160156 214.28125 96.949219 214.28125 89.289063 C 214.28125 81.628906 208.070313 75.417969 200.410156 75.417969 C 192.75 75.417969 186.539063 81.628906 186.539063 89.289063 C 186.539063 96.949219 192.75 103.160156 200.410156 103.160156 Z M 131.558594 56.726563 C 139.21875 56.726563 145.429688 50.515625 145.429688 42.855469 C 145.429688 35.195313 139.21875 28.984375 131.558594 28.984375 C 123.898438 28.984375 117.6875 35.195313 117.6875 42.855469 C 117.6875 50.515625 123.898438 56.726563 131.558594 56.726563 Z M 131.558594 56.726563 "
       id="path126" />
    <path
       style=" stroke:none;fill-rule:nonzero;fill:rgb(0%,0%,0%);fill-opacity:1;"
       d="M 146.289063 109.84375 C 145.570313 109.84375 145.039063 110.40625 145.039063 111.078125 C 145.039063 111.765625 145.554688 112.328125 146.289063 112.328125 C 146.976563 112.328125 147.539063 111.796875 147.539063 111.078125 C 147.539063 110.390625 146.976563 109.84375 146.289063 109.84375 Z M 146.289063 109.84375 "
       id="path128" />
    <path
       style=" stroke:none;fill-rule:nonzero;fill:rgb(0%,0%,0%);fill-opacity:1;"
       d="M 154.695313 109.84375 C 153.976563 109.84375 153.445313 110.40625 153.445313 111.078125 C 153.445313 111.765625 153.960938 112.328125 154.695313 112.328125 C 155.382813 112.328125 155.945313 111.796875 155.945313 111.078125 C 155.945313 110.390625 155.382813 109.84375 154.695313 109.84375 Z M 154.695313 109.84375 "
       id="path130" />
    <path
       style=" stroke:none;fill-rule:nonzero;fill:rgb(0%,0%,0%);fill-opacity:1;"
       d="M 163.101563 109.84375 C 162.382813 109.84375 161.851563 110.40625 161.851563 111.078125 C 161.851563 111.765625 162.367188 112.328125 163.101563 112.328125 C 163.789063 112.328125 164.351563 111.796875 164.351563 111.078125 C 164.351563 110.390625 163.789063 109.84375 163.101563 109.84375 Z M 163.101563 109.84375 "
       id="path132" />
    <path
       style=" stroke:none;fill-rule:nonzero;fill:rgb(12.940979%,11.764526%,11.764526%);fill-opacity:1;"
       d="M 4.765625 53.210938 C 4.765625 53.882813 4 55.570313 2.90625 55.570313 C 2.53125 55.570313 2.53125 55.367188 2.53125 55.304688 C 2.53125 54.460938 3.296875 52.523438 4.171875 52.523438 C 4.6875 52.523438 4.765625 52.960938 4.765625 53.210938 Z M 2.53125 50.523438 C 3 50.523438 3.0625 50.570313 3.0625 50.757813 C 3.0625 50.867188 2.984375 51.070313 2.921875 51.289063 L 1.84375 55.289063 L 1.84375 55.320313 C 1.84375 55.507813 2.453125 55.757813 2.875 55.757813 C 4.109375 55.757813 5.4375 54.367188 5.4375 53.101563 C 5.4375 52.523438 5.046875 52.132813 4.484375 52.132813 C 3.765625 52.132813 3.265625 52.882813 3 53.289063 L 2.984375 53.289063 C 3.25 52.382813 3.625 50.898438 3.796875 50.242188 L 3.765625 50.195313 C 3.34375 50.273438 2.9375 50.335938 2.53125 50.382813 Z M 2.53125 50.523438 "
       id="path134" />
    <path
       style=" stroke:none;fill-rule:nonzero;fill:rgb(12.940979%,11.764526%,11.764526%);fill-opacity:1;"
       d="M 7.441406 54.757813 C 7.113281 55.210938 6.878906 55.382813 6.785156 55.382813 C 6.707031 55.382813 6.644531 55.304688 6.644531 55.257813 C 6.644531 55.164063 6.753906 54.835938 6.785156 54.726563 L 7.488281 52.148438 L 7.457031 52.132813 C 7.144531 52.195313 6.488281 52.320313 6.175781 52.335938 L 6.175781 52.460938 C 6.613281 52.460938 6.691406 52.507813 6.691406 52.679688 C 6.691406 52.898438 6.050781 54.882813 6.050781 55.257813 C 6.050781 55.398438 6.050781 55.757813 6.425781 55.757813 C 6.878906 55.757813 7.222656 55.304688 7.535156 54.835938 Z M 7.769531 50.867188 C 7.769531 50.695313 7.628906 50.429688 7.378906 50.429688 C 7.175781 50.429688 7.003906 50.585938 7.003906 50.867188 C 7.003906 51.148438 7.175781 51.273438 7.378906 51.273438 C 7.644531 51.273438 7.769531 51.039063 7.769531 50.867188 Z M 7.769531 50.867188 "
       id="path136" />
    <path
       style=" stroke:none;fill-rule:nonzero;fill:rgb(12.940979%,11.764526%,11.764526%);fill-opacity:1;"
       d="M 11.605469 54.789063 C 11.246094 55.132813 11.074219 55.335938 10.964844 55.335938 C 10.902344 55.335938 10.839844 55.289063 10.839844 55.226563 C 10.839844 54.976563 11.589844 52.257813 11.605469 52.164063 L 11.542969 52.132813 L 11.058594 52.195313 L 11.042969 52.210938 L 10.964844 52.570313 L 10.949219 52.570313 C 10.917969 52.351563 10.652344 52.132813 10.308594 52.132813 C 9.246094 52.132813 8.027344 53.632813 8.027344 54.804688 C 8.027344 55.039063 8.042969 55.757813 8.839844 55.757813 C 9.324219 55.757813 9.746094 55.507813 10.417969 54.539063 L 10.433594 54.554688 C 10.308594 55.039063 10.261719 55.210938 10.261719 55.398438 C 10.261719 55.539063 10.261719 55.742188 10.605469 55.742188 C 10.949219 55.742188 11.214844 55.460938 11.699219 54.867188 Z M 8.699219 54.789063 C 8.699219 54.070313 9.417969 52.304688 10.355469 52.304688 C 10.589844 52.304688 10.808594 52.460938 10.808594 52.851563 C 10.808594 53.632813 10.027344 55.367188 9.167969 55.367188 C 8.964844 55.367188 8.699219 55.210938 8.699219 54.789063 Z M 8.699219 54.789063 "
       id="path138" />
    <path
       style=" stroke:none;fill-rule:nonzero;fill:rgb(12.940979%,11.764526%,11.764526%);fill-opacity:1;"
       d="M 12.171875 54.492188 L 12.015625 55.773438 L 12.140625 55.773438 C 12.1875 55.679688 12.234375 55.601563 12.34375 55.601563 C 12.578125 55.601563 12.890625 55.757813 13.125 55.757813 C 13.578125 55.757813 14.328125 55.554688 14.328125 54.679688 C 14.328125 54.007813 13.34375 53.289063 13.34375 52.789063 C 13.34375 52.398438 13.609375 52.320313 13.78125 52.320313 C 14.296875 52.320313 14.484375 52.789063 14.53125 53.242188 L 14.65625 53.242188 L 14.8125 52.132813 L 14.703125 52.132813 C 14.671875 52.195313 14.625 52.273438 14.484375 52.273438 C 14.25 52.273438 14.078125 52.132813 13.71875 52.132813 C 12.875 52.132813 12.765625 52.773438 12.765625 53.023438 C 12.765625 53.632813 13.71875 54.414063 13.71875 54.929688 C 13.71875 55.195313 13.59375 55.585938 13.140625 55.585938 C 12.484375 55.585938 12.359375 54.851563 12.3125 54.492188 Z M 12.171875 54.492188 "
       id="path140" />
    <path
       style=" stroke:none;fill-rule:nonzero;fill:rgb(12.940979%,11.764526%,11.764526%);fill-opacity:1;"
       d="M 20.691406 54.726563 C 20.410156 55.085938 20.191406 55.367188 20.035156 55.367188 C 19.941406 55.367188 19.941406 55.273438 19.941406 55.226563 C 19.941406 55.117188 20.050781 54.757813 20.097656 54.601563 L 20.722656 52.210938 L 20.128906 52.210938 C 19.816406 53.070313 19.644531 53.570313 19.253906 54.164063 C 18.972656 54.570313 18.472656 55.320313 18.128906 55.320313 C 17.957031 55.320313 17.941406 55.164063 17.957031 55.054688 L 18.691406 52.148438 L 18.660156 52.132813 C 18.269531 52.226563 17.863281 52.304688 17.472656 52.351563 L 17.472656 52.460938 C 17.800781 52.460938 17.941406 52.460938 17.941406 52.695313 C 17.941406 52.914063 17.347656 54.929688 17.347656 55.273438 C 17.347656 55.632813 17.488281 55.757813 17.785156 55.757813 C 18.503906 55.757813 19.097656 54.757813 19.628906 53.851563 L 19.660156 53.851563 C 19.472656 54.507813 19.316406 55.179688 19.316406 55.320313 C 19.316406 55.445313 19.332031 55.742188 19.691406 55.742188 C 20.097656 55.742188 20.300781 55.523438 20.800781 54.804688 Z M 20.691406 54.726563 "
       id="path142" />
    <path
       style=" stroke:none;fill-rule:nonzero;fill:rgb(12.940979%,11.764526%,11.764526%);fill-opacity:1;"
       d="M 24.695313 54.726563 C 24.398438 55.101563 24.195313 55.367188 24.039063 55.367188 C 24.023438 55.367188 23.898438 55.351563 23.898438 55.226563 C 23.898438 54.976563 24.539063 53.007813 24.539063 52.664063 C 24.539063 52.320313 24.367188 52.132813 23.992188 52.132813 C 23.320313 52.132813 22.585938 53.242188 22.210938 53.835938 L 22.195313 53.820313 L 22.710938 52.148438 L 22.695313 52.132813 C 22.257813 52.226563 21.820313 52.304688 21.398438 52.382813 L 21.398438 52.507813 C 21.820313 52.507813 21.898438 52.601563 21.898438 52.726563 C 21.898438 52.882813 21.367188 54.757813 21.117188 55.664063 L 21.726563 55.664063 C 22.054688 54.570313 22.148438 54.226563 22.523438 53.679688 C 22.804688 53.226563 23.304688 52.539063 23.695313 52.539063 C 23.851563 52.539063 23.898438 52.648438 23.898438 52.804688 C 23.898438 53.117188 23.304688 55.070313 23.304688 55.257813 C 23.304688 55.492188 23.320313 55.742188 23.695313 55.742188 C 24.117188 55.742188 24.398438 55.367188 24.804688 54.835938 Z M 24.695313 54.726563 "
       id="path144" />
    <path
       style=" stroke:none;fill-rule:nonzero;fill:rgb(12.940979%,11.764526%,11.764526%);fill-opacity:1;"
       d="M 26.792969 54.757813 C 26.464844 55.210938 26.230469 55.382813 26.136719 55.382813 C 26.058594 55.382813 25.996094 55.304688 25.996094 55.257813 C 25.996094 55.164063 26.105469 54.835938 26.136719 54.726563 L 26.839844 52.148438 L 26.808594 52.132813 C 26.496094 52.195313 25.839844 52.320313 25.527344 52.335938 L 25.527344 52.460938 C 25.964844 52.460938 26.042969 52.507813 26.042969 52.679688 C 26.042969 52.898438 25.402344 54.882813 25.402344 55.257813 C 25.402344 55.398438 25.402344 55.757813 25.777344 55.757813 C 26.230469 55.757813 26.574219 55.304688 26.886719 54.835938 Z M 27.121094 50.867188 C 27.121094 50.695313 26.980469 50.429688 26.730469 50.429688 C 26.527344 50.429688 26.355469 50.585938 26.355469 50.867188 C 26.355469 51.148438 26.527344 51.273438 26.730469 51.273438 C 26.996094 51.273438 27.121094 51.039063 27.121094 50.867188 Z M 27.121094 50.867188 "
       id="path146" />
    <path
       style=" stroke:none;fill-rule:nonzero;fill:rgb(12.940979%,11.764526%,11.764526%);fill-opacity:1;"
       d="M 29.613281 52.242188 L 28.972656 52.242188 L 29.191406 51.414063 C 29.207031 51.351563 29.191406 51.273438 29.128906 51.289063 C 29.066406 51.273438 29.035156 51.351563 29.003906 51.398438 C 28.769531 51.679688 28.394531 52.039063 28.128906 52.164063 C 27.988281 52.242188 27.769531 52.289063 27.722656 52.367188 C 27.691406 52.414063 27.691406 52.445313 27.707031 52.492188 L 28.300781 52.492188 L 27.722656 54.695313 C 27.691406 54.820313 27.535156 55.304688 27.535156 55.429688 C 27.535156 55.679688 27.753906 55.757813 27.925781 55.757813 C 28.332031 55.757813 28.644531 55.398438 29.050781 54.789063 L 28.957031 54.726563 C 28.753906 54.976563 28.472656 55.367188 28.316406 55.367188 C 28.222656 55.367188 28.175781 55.289063 28.175781 55.226563 C 28.175781 55.195313 28.175781 55.179688 28.191406 55.164063 L 28.894531 52.492188 L 29.566406 52.492188 Z M 29.613281 52.242188 "
       id="path148" />
    <path
       style=" stroke:none;fill-rule:nonzero;fill:rgb(12.940979%,11.764526%,11.764526%);fill-opacity:1;"
       d="M 228.011719 89.183594 C 227.683594 89.636719 227.449219 89.808594 227.355469 89.808594 C 227.277344 89.808594 227.214844 89.730469 227.214844 89.683594 C 227.214844 89.589844 227.324219 89.261719 227.355469 89.152344 L 228.058594 86.574219 L 228.027344 86.558594 C 227.714844 86.621094 227.058594 86.746094 226.746094 86.761719 L 226.746094 86.886719 C 227.183594 86.886719 227.261719 86.933594 227.261719 87.105469 C 227.261719 87.324219 226.621094 89.308594 226.621094 89.683594 C 226.621094 89.824219 226.621094 90.183594 226.996094 90.183594 C 227.449219 90.183594 227.792969 89.730469 228.105469 89.261719 Z M 228.339844 85.292969 C 228.339844 85.121094 228.199219 84.855469 227.949219 84.855469 C 227.746094 84.855469 227.574219 85.011719 227.574219 85.292969 C 227.574219 85.574219 227.746094 85.699219 227.949219 85.699219 C 228.214844 85.699219 228.339844 85.464844 228.339844 85.292969 Z M 228.339844 85.292969 "
       id="path150" />
    <path
       style=" stroke:none;fill-rule:nonzero;fill:rgb(12.940979%,11.764526%,11.764526%);fill-opacity:1;"
       d="M 232.140625 89.152344 C 231.84375 89.527344 231.640625 89.792969 231.484375 89.792969 C 231.46875 89.792969 231.34375 89.777344 231.34375 89.652344 C 231.34375 89.402344 231.984375 87.433594 231.984375 87.089844 C 231.984375 86.746094 231.8125 86.558594 231.4375 86.558594 C 230.765625 86.558594 230.03125 87.667969 229.65625 88.261719 L 229.640625 88.246094 L 230.15625 86.574219 L 230.140625 86.558594 C 229.703125 86.652344 229.265625 86.730469 228.84375 86.808594 L 228.84375 86.933594 C 229.265625 86.933594 229.34375 87.027344 229.34375 87.152344 C 229.34375 87.308594 228.8125 89.183594 228.5625 90.089844 L 229.171875 90.089844 C 229.5 88.996094 229.59375 88.652344 229.96875 88.105469 C 230.25 87.652344 230.75 86.964844 231.140625 86.964844 C 231.296875 86.964844 231.34375 87.074219 231.34375 87.230469 C 231.34375 87.542969 230.75 89.496094 230.75 89.683594 C 230.75 89.917969 230.765625 90.167969 231.140625 90.167969 C 231.5625 90.167969 231.84375 89.792969 232.25 89.261719 Z M 232.140625 89.152344 "
       id="path152" />
    <path
       style=" stroke:none;fill-rule:nonzero;fill:rgb(12.940979%,11.764526%,11.764526%);fill-opacity:1;"
       d="M 235.488281 87.589844 C 235.488281 88.542969 234.769531 90.027344 233.800781 90.027344 C 233.597656 90.027344 233.394531 89.933594 233.394531 89.730469 C 233.394531 89.417969 233.707031 88.324219 233.910156 87.824219 C 234.113281 87.277344 234.582031 86.902344 234.957031 86.902344 C 235.488281 86.902344 235.488281 87.371094 235.488281 87.589844 Z M 232.910156 86.871094 L 233.082031 86.855469 C 233.269531 86.855469 233.425781 86.949219 233.425781 87.089844 C 233.425781 87.261719 232.613281 90.230469 232.394531 91.136719 C 232.332031 91.386719 232.285156 91.605469 231.863281 91.605469 L 231.863281 91.730469 L 233.503906 91.730469 L 233.503906 91.605469 C 233.285156 91.605469 232.988281 91.605469 232.988281 91.355469 C 232.988281 91.199219 233.207031 90.308594 233.285156 90.042969 C 233.472656 90.136719 233.628906 90.183594 233.832031 90.183594 C 234.925781 90.183594 236.207031 88.855469 236.207031 87.605469 C 236.207031 87.027344 235.972656 86.558594 235.253906 86.558594 C 234.597656 86.558594 234.144531 87.152344 233.957031 87.433594 L 233.941406 87.402344 L 234.160156 86.667969 C 234.191406 86.574219 234.160156 86.558594 234.128906 86.558594 L 232.894531 86.730469 Z M 232.910156 86.871094 "
       id="path154" />
    <path
       style=" stroke:none;fill-rule:nonzero;fill:rgb(12.940979%,11.764526%,11.764526%);fill-opacity:1;"
       d="M 240.148438 89.152344 C 239.867188 89.511719 239.648438 89.792969 239.492188 89.792969 C 239.398438 89.792969 239.398438 89.699219 239.398438 89.652344 C 239.398438 89.542969 239.507813 89.183594 239.554688 89.027344 L 240.179688 86.636719 L 239.585938 86.636719 C 239.273438 87.496094 239.101563 87.996094 238.710938 88.589844 C 238.429688 88.996094 237.929688 89.746094 237.585938 89.746094 C 237.414063 89.746094 237.398438 89.589844 237.414063 89.480469 L 238.148438 86.574219 L 238.117188 86.558594 C 237.726563 86.652344 237.320313 86.730469 236.929688 86.777344 L 236.929688 86.886719 C 237.257813 86.886719 237.398438 86.886719 237.398438 87.121094 C 237.398438 87.339844 236.804688 89.355469 236.804688 89.699219 C 236.804688 90.058594 236.945313 90.183594 237.242188 90.183594 C 237.960938 90.183594 238.554688 89.183594 239.085938 88.277344 L 239.117188 88.277344 C 238.929688 88.933594 238.773438 89.605469 238.773438 89.746094 C 238.773438 89.871094 238.789063 90.167969 239.148438 90.167969 C 239.554688 90.167969 239.757813 89.949219 240.257813 89.230469 Z M 240.148438 89.152344 "
       id="path156" />
    <path
       style=" stroke:none;fill-rule:nonzero;fill:rgb(12.940979%,11.764526%,11.764526%);fill-opacity:1;"
       d="M 242.839844 86.667969 L 242.199219 86.667969 L 242.417969 85.839844 C 242.433594 85.777344 242.417969 85.699219 242.355469 85.714844 C 242.292969 85.699219 242.261719 85.777344 242.230469 85.824219 C 241.996094 86.105469 241.621094 86.464844 241.355469 86.589844 C 241.214844 86.667969 240.996094 86.714844 240.949219 86.792969 C 240.917969 86.839844 240.917969 86.871094 240.933594 86.917969 L 241.527344 86.917969 L 240.949219 89.121094 C 240.917969 89.246094 240.761719 89.730469 240.761719 89.855469 C 240.761719 90.105469 240.980469 90.183594 241.152344 90.183594 C 241.558594 90.183594 241.871094 89.824219 242.277344 89.214844 L 242.183594 89.152344 C 241.980469 89.402344 241.699219 89.792969 241.542969 89.792969 C 241.449219 89.792969 241.402344 89.714844 241.402344 89.652344 C 241.402344 89.621094 241.402344 89.605469 241.417969 89.589844 L 242.121094 86.917969 L 242.792969 86.917969 Z M 242.839844 86.667969 "
       id="path158" />
    <path
       style=" stroke:none;fill-rule:nonzero;fill:rgb(12.940979%,11.764526%,11.764526%);fill-opacity:1;"
       d="M 248.378906 89.152344 C 248.097656 89.511719 247.878906 89.792969 247.722656 89.792969 C 247.628906 89.792969 247.628906 89.699219 247.628906 89.652344 C 247.628906 89.542969 247.738281 89.183594 247.785156 89.027344 L 248.410156 86.636719 L 247.816406 86.636719 C 247.503906 87.496094 247.332031 87.996094 246.941406 88.589844 C 246.660156 88.996094 246.160156 89.746094 245.816406 89.746094 C 245.644531 89.746094 245.628906 89.589844 245.644531 89.480469 L 246.378906 86.574219 L 246.347656 86.558594 C 245.957031 86.652344 245.550781 86.730469 245.160156 86.777344 L 245.160156 86.886719 C 245.488281 86.886719 245.628906 86.886719 245.628906 87.121094 C 245.628906 87.339844 245.035156 89.355469 245.035156 89.699219 C 245.035156 90.058594 245.175781 90.183594 245.472656 90.183594 C 246.191406 90.183594 246.785156 89.183594 247.316406 88.277344 L 247.347656 88.277344 C 247.160156 88.933594 247.003906 89.605469 247.003906 89.746094 C 247.003906 89.871094 247.019531 90.167969 247.378906 90.167969 C 247.785156 90.167969 247.988281 89.949219 248.488281 89.230469 Z M 248.378906 89.152344 "
       id="path160" />
    <path
       style=" stroke:none;fill-rule:nonzero;fill:rgb(12.940979%,11.764526%,11.764526%);fill-opacity:1;"
       d="M 252.382813 89.152344 C 252.085938 89.527344 251.882813 89.792969 251.726563 89.792969 C 251.710938 89.792969 251.585938 89.777344 251.585938 89.652344 C 251.585938 89.402344 252.226563 87.433594 252.226563 87.089844 C 252.226563 86.746094 252.054688 86.558594 251.679688 86.558594 C 251.007813 86.558594 250.273438 87.667969 249.898438 88.261719 L 249.882813 88.246094 L 250.398438 86.574219 L 250.382813 86.558594 C 249.945313 86.652344 249.507813 86.730469 249.085938 86.808594 L 249.085938 86.933594 C 249.507813 86.933594 249.585938 87.027344 249.585938 87.152344 C 249.585938 87.308594 249.054688 89.183594 248.804688 90.089844 L 249.414063 90.089844 C 249.742188 88.996094 249.835938 88.652344 250.210938 88.105469 C 250.492188 87.652344 250.992188 86.964844 251.382813 86.964844 C 251.539063 86.964844 251.585938 87.074219 251.585938 87.230469 C 251.585938 87.542969 250.992188 89.496094 250.992188 89.683594 C 250.992188 89.917969 251.007813 90.167969 251.382813 90.167969 C 251.804688 90.167969 252.085938 89.792969 252.492188 89.261719 Z M 252.382813 89.152344 "
       id="path162" />
    <path
       style=" stroke:none;fill-rule:nonzero;fill:rgb(12.940979%,11.764526%,11.764526%);fill-opacity:1;"
       d="M 254.480469 89.183594 C 254.152344 89.636719 253.917969 89.808594 253.824219 89.808594 C 253.746094 89.808594 253.683594 89.730469 253.683594 89.683594 C 253.683594 89.589844 253.792969 89.261719 253.824219 89.152344 L 254.527344 86.574219 L 254.496094 86.558594 C 254.183594 86.621094 253.527344 86.746094 253.214844 86.761719 L 253.214844 86.886719 C 253.652344 86.886719 253.730469 86.933594 253.730469 87.105469 C 253.730469 87.324219 253.089844 89.308594 253.089844 89.683594 C 253.089844 89.824219 253.089844 90.183594 253.464844 90.183594 C 253.917969 90.183594 254.261719 89.730469 254.574219 89.261719 Z M 254.808594 85.292969 C 254.808594 85.121094 254.667969 84.855469 254.417969 84.855469 C 254.214844 84.855469 254.042969 85.011719 254.042969 85.292969 C 254.042969 85.574219 254.214844 85.699219 254.417969 85.699219 C 254.683594 85.699219 254.808594 85.464844 254.808594 85.292969 Z M 254.808594 85.292969 "
       id="path164" />
    <path
       style=" stroke:none;fill-rule:nonzero;fill:rgb(12.940979%,11.764526%,11.764526%);fill-opacity:1;"
       d="M 257.296875 86.667969 L 256.65625 86.667969 L 256.875 85.839844 C 256.890625 85.777344 256.875 85.699219 256.8125 85.714844 C 256.75 85.699219 256.71875 85.777344 256.6875 85.824219 C 256.453125 86.105469 256.078125 86.464844 255.8125 86.589844 C 255.671875 86.667969 255.453125 86.714844 255.40625 86.792969 C 255.375 86.839844 255.375 86.871094 255.390625 86.917969 L 255.984375 86.917969 L 255.40625 89.121094 C 255.375 89.246094 255.21875 89.730469 255.21875 89.855469 C 255.21875 90.105469 255.4375 90.183594 255.609375 90.183594 C 256.015625 90.183594 256.328125 89.824219 256.734375 89.214844 L 256.640625 89.152344 C 256.4375 89.402344 256.15625 89.792969 256 89.792969 C 255.90625 89.792969 255.859375 89.714844 255.859375 89.652344 C 255.859375 89.621094 255.859375 89.605469 255.875 89.589844 L 256.578125 86.917969 L 257.25 86.917969 Z M 257.296875 86.667969 "
       id="path166" />
    <g
       clip-path="url(#clip4)"
       clip-rule="nonzero"
       id="g170">
      <path
         style=" stroke:none;fill-rule:nonzero;fill:rgb(12.940979%,11.764526%,11.764526%);fill-opacity:1;"
         d="M 257.429688 88.917969 L 257.273438 90.199219 L 257.398438 90.199219 C 257.445313 90.105469 257.492188 90.027344 257.601563 90.027344 C 257.835938 90.027344 258.148438 90.183594 258.382813 90.183594 C 258.835938 90.183594 259.585938 89.980469 259.585938 89.105469 C 259.585938 88.433594 258.601563 87.714844 258.601563 87.214844 C 258.601563 86.824219 258.867188 86.746094 259.039063 86.746094 C 259.554688 86.746094 259.742188 87.214844 259.789063 87.667969 L 259.914063 87.667969 L 260.070313 86.558594 L 259.960938 86.558594 C 259.929688 86.621094 259.882813 86.699219 259.742188 86.699219 C 259.507813 86.699219 259.335938 86.558594 258.976563 86.558594 C 258.132813 86.558594 258.023438 87.199219 258.023438 87.449219 C 258.023438 88.058594 258.976563 88.839844 258.976563 89.355469 C 258.976563 89.621094 258.851563 90.011719 258.398438 90.011719 C 257.742188 90.011719 257.617188 89.277344 257.570313 88.917969 Z M 257.429688 88.917969 "
         id="path168" />
    </g>
    <path
       style=" stroke:none;fill-rule:nonzero;fill:rgb(12.940979%,11.764526%,11.764526%);fill-opacity:1;"
       d="M 155.535156 38.921875 C 154.378906 38.921875 153.191406 40.21875 153.191406 41.390625 C 153.191406 42.046875 153.550781 42.546875 154.394531 42.546875 C 155.613281 42.546875 156.722656 41.09375 156.722656 40.109375 C 156.722656 39.578125 156.472656 38.921875 155.535156 38.921875 Z M 155.488281 39.09375 C 155.863281 39.09375 156.050781 39.4375 156.050781 39.859375 C 156.050781 40.71875 155.410156 42.375 154.503906 42.375 C 154.097656 42.375 153.863281 42.078125 153.863281 41.625 C 153.863281 40.6875 154.582031 39.09375 155.488281 39.09375 Z M 155.488281 39.09375 "
       id="path172" />
    <path
       style=" stroke:none;fill-rule:nonzero;fill:rgb(12.940979%,11.764526%,11.764526%);fill-opacity:1;"
       d="M 160.664063 41.515625 C 160.382813 41.875 160.164063 42.15625 160.007813 42.15625 C 159.914063 42.15625 159.914063 42.0625 159.914063 42.015625 C 159.914063 41.90625 160.023438 41.546875 160.070313 41.390625 L 160.695313 39 L 160.101563 39 C 159.789063 39.859375 159.617188 40.359375 159.226563 40.953125 C 158.945313 41.359375 158.445313 42.109375 158.101563 42.109375 C 157.929688 42.109375 157.914063 41.953125 157.929688 41.84375 L 158.664063 38.9375 L 158.632813 38.921875 C 158.242188 39.015625 157.835938 39.09375 157.445313 39.140625 L 157.445313 39.25 C 157.773438 39.25 157.914063 39.25 157.914063 39.484375 C 157.914063 39.703125 157.320313 41.71875 157.320313 42.0625 C 157.320313 42.421875 157.460938 42.546875 157.757813 42.546875 C 158.476563 42.546875 159.070313 41.546875 159.601563 40.640625 L 159.632813 40.640625 C 159.445313 41.296875 159.289063 41.96875 159.289063 42.109375 C 159.289063 42.234375 159.304688 42.53125 159.664063 42.53125 C 160.070313 42.53125 160.273438 42.3125 160.773438 41.59375 Z M 160.664063 41.515625 "
       id="path174" />
    <path
       style=" stroke:none;fill-rule:nonzero;fill:rgb(12.940979%,11.764526%,11.764526%);fill-opacity:1;"
       d="M 163.355469 39.03125 L 162.714844 39.03125 L 162.933594 38.203125 C 162.949219 38.140625 162.933594 38.0625 162.871094 38.078125 C 162.808594 38.0625 162.777344 38.140625 162.746094 38.1875 C 162.511719 38.46875 162.136719 38.828125 161.871094 38.953125 C 161.730469 39.03125 161.511719 39.078125 161.464844 39.15625 C 161.433594 39.203125 161.433594 39.234375 161.449219 39.28125 L 162.042969 39.28125 L 161.464844 41.484375 C 161.433594 41.609375 161.277344 42.09375 161.277344 42.21875 C 161.277344 42.46875 161.496094 42.546875 161.667969 42.546875 C 162.074219 42.546875 162.386719 42.1875 162.792969 41.578125 L 162.699219 41.515625 C 162.496094 41.765625 162.214844 42.15625 162.058594 42.15625 C 161.964844 42.15625 161.917969 42.078125 161.917969 42.015625 C 161.917969 41.984375 161.917969 41.96875 161.933594 41.953125 L 162.636719 39.28125 L 163.308594 39.28125 Z M 163.355469 39.03125 "
       id="path176" />
    <path
       style=" stroke:none;fill-rule:nonzero;fill:rgb(12.940979%,11.764526%,11.764526%);fill-opacity:1;"
       d="M 166.238281 39.953125 C 166.238281 40.90625 165.519531 42.390625 164.550781 42.390625 C 164.347656 42.390625 164.144531 42.296875 164.144531 42.09375 C 164.144531 41.78125 164.457031 40.6875 164.660156 40.1875 C 164.863281 39.640625 165.332031 39.265625 165.707031 39.265625 C 166.238281 39.265625 166.238281 39.734375 166.238281 39.953125 Z M 163.660156 39.234375 L 163.832031 39.21875 C 164.019531 39.21875 164.175781 39.3125 164.175781 39.453125 C 164.175781 39.625 163.363281 42.59375 163.144531 43.5 C 163.082031 43.75 163.035156 43.96875 162.613281 43.96875 L 162.613281 44.09375 L 164.253906 44.09375 L 164.253906 43.96875 C 164.035156 43.96875 163.738281 43.96875 163.738281 43.71875 C 163.738281 43.5625 163.957031 42.671875 164.035156 42.40625 C 164.222656 42.5 164.378906 42.546875 164.582031 42.546875 C 165.675781 42.546875 166.957031 41.21875 166.957031 39.96875 C 166.957031 39.390625 166.722656 38.921875 166.003906 38.921875 C 165.347656 38.921875 164.894531 39.515625 164.707031 39.796875 L 164.691406 39.765625 L 164.910156 39.03125 C 164.941406 38.9375 164.910156 38.921875 164.878906 38.921875 L 163.644531 39.09375 Z M 163.660156 39.234375 "
       id="path178" />
    <path
       style=" stroke:none;fill-rule:nonzero;fill:rgb(12.940979%,11.764526%,11.764526%);fill-opacity:1;"
       d="M 170.894531 41.515625 C 170.613281 41.875 170.394531 42.15625 170.238281 42.15625 C 170.144531 42.15625 170.144531 42.0625 170.144531 42.015625 C 170.144531 41.90625 170.253906 41.546875 170.300781 41.390625 L 170.925781 39 L 170.332031 39 C 170.019531 39.859375 169.847656 40.359375 169.457031 40.953125 C 169.175781 41.359375 168.675781 42.109375 168.332031 42.109375 C 168.160156 42.109375 168.144531 41.953125 168.160156 41.84375 L 168.894531 38.9375 L 168.863281 38.921875 C 168.472656 39.015625 168.066406 39.09375 167.675781 39.140625 L 167.675781 39.25 C 168.003906 39.25 168.144531 39.25 168.144531 39.484375 C 168.144531 39.703125 167.550781 41.71875 167.550781 42.0625 C 167.550781 42.421875 167.691406 42.546875 167.988281 42.546875 C 168.707031 42.546875 169.300781 41.546875 169.832031 40.640625 L 169.863281 40.640625 C 169.675781 41.296875 169.519531 41.96875 169.519531 42.109375 C 169.519531 42.234375 169.535156 42.53125 169.894531 42.53125 C 170.300781 42.53125 170.503906 42.3125 171.003906 41.59375 Z M 170.894531 41.515625 "
       id="path180" />
    <path
       style=" stroke:none;fill-rule:nonzero;fill:rgb(12.940979%,11.764526%,11.764526%);fill-opacity:1;"
       d="M 173.585938 39.03125 L 172.945313 39.03125 L 173.164063 38.203125 C 173.179688 38.140625 173.164063 38.0625 173.101563 38.078125 C 173.039063 38.0625 173.007813 38.140625 172.976563 38.1875 C 172.742188 38.46875 172.367188 38.828125 172.101563 38.953125 C 171.960938 39.03125 171.742188 39.078125 171.695313 39.15625 C 171.664063 39.203125 171.664063 39.234375 171.679688 39.28125 L 172.273438 39.28125 L 171.695313 41.484375 C 171.664063 41.609375 171.507813 42.09375 171.507813 42.21875 C 171.507813 42.46875 171.726563 42.546875 171.898438 42.546875 C 172.304688 42.546875 172.617188 42.1875 173.023438 41.578125 L 172.929688 41.515625 C 172.726563 41.765625 172.445313 42.15625 172.289063 42.15625 C 172.195313 42.15625 172.148438 42.078125 172.148438 42.015625 C 172.148438 41.984375 172.148438 41.96875 172.164063 41.953125 L 172.867188 39.28125 L 173.539063 39.28125 Z M 173.585938 39.03125 "
       id="path182" />
    <path
       style=" stroke:none;fill-rule:nonzero;fill:rgb(12.940979%,11.764526%,11.764526%);fill-opacity:1;"
       d="M 179.125 41.515625 C 178.84375 41.875 178.625 42.15625 178.46875 42.15625 C 178.375 42.15625 178.375 42.0625 178.375 42.015625 C 178.375 41.90625 178.484375 41.546875 178.53125 41.390625 L 179.15625 39 L 178.5625 39 C 178.25 39.859375 178.078125 40.359375 177.6875 40.953125 C 177.40625 41.359375 176.90625 42.109375 176.5625 42.109375 C 176.390625 42.109375 176.375 41.953125 176.390625 41.84375 L 177.125 38.9375 L 177.09375 38.921875 C 176.703125 39.015625 176.296875 39.09375 175.90625 39.140625 L 175.90625 39.25 C 176.234375 39.25 176.375 39.25 176.375 39.484375 C 176.375 39.703125 175.78125 41.71875 175.78125 42.0625 C 175.78125 42.421875 175.921875 42.546875 176.21875 42.546875 C 176.9375 42.546875 177.53125 41.546875 178.0625 40.640625 L 178.09375 40.640625 C 177.90625 41.296875 177.75 41.96875 177.75 42.109375 C 177.75 42.234375 177.765625 42.53125 178.125 42.53125 C 178.53125 42.53125 178.734375 42.3125 179.234375 41.59375 Z M 179.125 41.515625 "
       id="path184" />
    <path
       style=" stroke:none;fill-rule:nonzero;fill:rgb(12.940979%,11.764526%,11.764526%);fill-opacity:1;"
       d="M 183.128906 41.515625 C 182.832031 41.890625 182.628906 42.15625 182.472656 42.15625 C 182.457031 42.15625 182.332031 42.140625 182.332031 42.015625 C 182.332031 41.765625 182.972656 39.796875 182.972656 39.453125 C 182.972656 39.109375 182.800781 38.921875 182.425781 38.921875 C 181.753906 38.921875 181.019531 40.03125 180.644531 40.625 L 180.628906 40.609375 L 181.144531 38.9375 L 181.128906 38.921875 C 180.691406 39.015625 180.253906 39.09375 179.832031 39.171875 L 179.832031 39.296875 C 180.253906 39.296875 180.332031 39.390625 180.332031 39.515625 C 180.332031 39.671875 179.800781 41.546875 179.550781 42.453125 L 180.160156 42.453125 C 180.488281 41.359375 180.582031 41.015625 180.957031 40.46875 C 181.238281 40.015625 181.738281 39.328125 182.128906 39.328125 C 182.285156 39.328125 182.332031 39.4375 182.332031 39.59375 C 182.332031 39.90625 181.738281 41.859375 181.738281 42.046875 C 181.738281 42.28125 181.753906 42.53125 182.128906 42.53125 C 182.550781 42.53125 182.832031 42.15625 183.238281 41.625 Z M 183.128906 41.515625 "
       id="path186" />
    <path
       style=" stroke:none;fill-rule:nonzero;fill:rgb(12.940979%,11.764526%,11.764526%);fill-opacity:1;"
       d="M 185.226563 41.546875 C 184.898438 42 184.664063 42.171875 184.570313 42.171875 C 184.492188 42.171875 184.429688 42.09375 184.429688 42.046875 C 184.429688 41.953125 184.539063 41.625 184.570313 41.515625 L 185.273438 38.9375 L 185.242188 38.921875 C 184.929688 38.984375 184.273438 39.109375 183.960938 39.125 L 183.960938 39.25 C 184.398438 39.25 184.476563 39.296875 184.476563 39.46875 C 184.476563 39.6875 183.835938 41.671875 183.835938 42.046875 C 183.835938 42.1875 183.835938 42.546875 184.210938 42.546875 C 184.664063 42.546875 185.007813 42.09375 185.320313 41.625 Z M 185.554688 37.65625 C 185.554688 37.484375 185.414063 37.21875 185.164063 37.21875 C 184.960938 37.21875 184.789063 37.375 184.789063 37.65625 C 184.789063 37.9375 184.960938 38.0625 185.164063 38.0625 C 185.429688 38.0625 185.554688 37.828125 185.554688 37.65625 Z M 185.554688 37.65625 "
       id="path188" />
    <path
       style=" stroke:none;fill-rule:nonzero;fill:rgb(12.940979%,11.764526%,11.764526%);fill-opacity:1;"
       d="M 188.046875 39.03125 L 187.40625 39.03125 L 187.625 38.203125 C 187.640625 38.140625 187.625 38.0625 187.5625 38.078125 C 187.5 38.0625 187.46875 38.140625 187.4375 38.1875 C 187.203125 38.46875 186.828125 38.828125 186.5625 38.953125 C 186.421875 39.03125 186.203125 39.078125 186.15625 39.15625 C 186.125 39.203125 186.125 39.234375 186.140625 39.28125 L 186.734375 39.28125 L 186.15625 41.484375 C 186.125 41.609375 185.96875 42.09375 185.96875 42.21875 C 185.96875 42.46875 186.1875 42.546875 186.359375 42.546875 C 186.765625 42.546875 187.078125 42.1875 187.484375 41.578125 L 187.390625 41.515625 C 187.1875 41.765625 186.90625 42.15625 186.75 42.15625 C 186.65625 42.15625 186.609375 42.078125 186.609375 42.015625 C 186.609375 41.984375 186.609375 41.96875 186.625 41.953125 L 187.328125 39.28125 L 188 39.28125 Z M 188.046875 39.03125 "
       id="path190" />
  </g>
</svg>
