<?xml version="1.0" encoding="UTF-8" standalone="no"?>
<svg
   xmlns:dc="http://purl.org/dc/elements/1.1/"
   xmlns:cc="http://creativecommons.org/ns#"
   xmlns:rdf="http://www.w3.org/1999/02/22-rdf-syntax-ns#"
   xmlns:svg="http://www.w3.org/2000/svg"
   xmlns="http://www.w3.org/2000/svg"
   xmlns:sodipodi="http://sodipodi.sourceforge.net/DTD/sodipodi-0.dtd"
   xmlns:inkscape="http://www.inkscape.org/namespaces/inkscape"
   width="96.393097pt"
   height="58.98999pt"
   viewBox="0 0 96.393097 58.98999"
   version="1.2"
   id="svg132"
   sodipodi:docname="ica_sensed_signal_01.svg"
   inkscape:version="0.92.4 (5da689c313, 2019-01-14)">
  <metadata
     id="metadata136">
    <rdf:RDF>
      <cc:Work
         rdf:about="">
        <dc:format>image/svg+xml</dc:format>
        <dc:type
           rdf:resource="http://purl.org/dc/dcmitype/StillImage" />
        <dc:title></dc:title>
      </cc:Work>
    </rdf:RDF>
  </metadata>
  <sodipodi:namedview
     pagecolor="#ffffff"
     bordercolor="#666666"
     borderopacity="1"
     objecttolerance="10"
     gridtolerance="10"
     guidetolerance="10"
     inkscape:pageopacity="0"
     inkscape:pageshadow="2"
     inkscape:window-width="640"
     inkscape:window-height="480"
     id="namedview134"
     showgrid="false"
     inkscape:zoom="2.6765402"
     inkscape:cx="64.262065"
     inkscape:cy="39.32666"
     inkscape:window-x="0"
     inkscape:window-y="0"
     inkscape:window-maximized="0"
     inkscape:current-layer="svg132" />
  <defs
     id="defs11">
    <clipPath
       id="clip1">
      <path
         d="M 5 57 L 8 57 L 8 58.988281 L 5 58.988281 Z M 5 57 "
         id="path2" />
    </clipPath>
    <clipPath
       id="clip2">
      <path
         d="M 7 55 L 10 55 L 10 58.988281 L 7 58.988281 Z M 7 55 "
         id="path5" />
    </clipPath>
    <clipPath
       id="clip3">
      <path
         d="M 93 30 L 96.394531 30 L 96.394531 36 L 93 36 Z M 93 30 "
         id="path8" />
    </clipPath>
  </defs>
  <g
     id="surface36">
    <path
       style="fill:none;stroke-width:0.055;stroke-linecap:round;stroke-linejoin:round;stroke:rgb(12.940979%,11.764526%,11.764526%);stroke-opacity:1;stroke-miterlimit:4;"
       d="M 26.867188 33.40625 L 26.867188 32.917969 "
       id="path13" />
    <path
       style=" stroke:none;fill-rule:nonzero;fill:rgb(12.940979%,11.764526%,11.764526%);fill-opacity:1;"
       d="M 27.308594 38.277344 C 27.246094 38.402344 27.183594 38.511719 26.949219 38.511719 L 26.277344 38.511719 L 26.277344 38.480469 L 26.964844 37.792969 C 27.402344 37.355469 27.496094 37.183594 27.496094 36.949219 C 27.496094 36.683594 27.292969 36.355469 26.917969 36.355469 C 26.824219 36.355469 26.355469 36.355469 26.152344 36.917969 L 26.230469 36.949219 C 26.277344 36.855469 26.417969 36.605469 26.746094 36.605469 C 27.027344 36.605469 27.183594 36.824219 27.183594 37.042969 C 27.183594 37.167969 27.167969 37.371094 26.667969 37.917969 L 25.917969 38.714844 L 25.917969 38.777344 L 27.183594 38.777344 L 27.371094 38.308594 Z M 27.308594 38.277344 "
       id="path15" />
    <path
       style="fill:none;stroke-width:0.055;stroke-linecap:round;stroke-linejoin:round;stroke:rgb(12.940979%,11.764526%,11.764526%);stroke-opacity:1;stroke-miterlimit:4;"
       d="M 41.648438 33.40625 L 41.648438 32.917969 "
       id="path17" />
    <path
       style=" stroke:none;fill-rule:nonzero;fill:rgb(12.940979%,11.764526%,11.764526%);fill-opacity:1;"
       d="M 41.652344 37.917969 L 40.886719 37.917969 L 40.886719 37.902344 L 41.980469 36.761719 L 41.996094 36.761719 Z M 42.277344 37.917969 L 41.933594 37.917969 L 42.371094 36.355469 L 42.230469 36.355469 L 40.730469 37.902344 L 40.652344 38.136719 L 41.589844 38.136719 L 41.417969 38.777344 L 41.699219 38.777344 L 41.871094 38.152344 L 42.230469 38.152344 Z M 42.277344 37.917969 "
       id="path19" />
    <path
       style="fill:none;stroke-width:0.055;stroke-linecap:round;stroke-linejoin:round;stroke:rgb(12.940979%,11.764526%,11.764526%);stroke-opacity:1;stroke-miterlimit:4;"
       d="M 56.4375 33.40625 L 56.4375 32.917969 "
       id="path21" />
    <path
       style=" stroke:none;fill-rule:nonzero;fill:rgb(12.940979%,11.764526%,11.764526%);fill-opacity:1;"
       d="M 57.3125 36.308594 C 56.203125 36.386719 55.546875 37.277344 55.546875 38.027344 C 55.546875 38.605469 55.90625 38.808594 56.1875 38.808594 C 56.796875 38.808594 57.09375 38.199219 57.09375 37.839844 C 57.09375 37.324219 56.734375 37.167969 56.484375 37.167969 C 56.421875 37.167969 56.375 37.183594 56.328125 37.199219 C 56.265625 37.199219 56.21875 37.214844 56.171875 37.246094 L 56.15625 37.246094 C 56.234375 37.058594 56.671875 36.449219 57.3125 36.371094 Z M 56.34375 37.292969 C 56.625 37.292969 56.78125 37.480469 56.78125 37.761719 C 56.78125 38.089844 56.578125 38.714844 56.171875 38.714844 C 55.8125 38.714844 55.8125 38.308594 55.8125 38.214844 C 55.8125 38.152344 55.859375 37.292969 56.34375 37.292969 Z M 56.34375 37.292969 "
       id="path23" />
    <path
       style="fill:none;stroke-width:0.055;stroke-linecap:round;stroke-linejoin:round;stroke:rgb(12.940979%,11.764526%,11.764526%);stroke-opacity:1;stroke-miterlimit:4;"
       d="M 71.222656 33.40625 L 71.222656 32.917969 "
       id="path25" />
    <path
       style=" stroke:none;fill-rule:nonzero;fill:rgb(12.940979%,11.764526%,11.764526%);fill-opacity:1;"
       d="M 70.332031 38.214844 C 70.332031 38.324219 70.410156 38.808594 71.050781 38.808594 C 71.535156 38.808594 71.816406 38.480469 71.816406 38.167969 C 71.816406 37.886719 71.675781 37.667969 71.410156 37.402344 C 71.597656 37.339844 71.988281 37.214844 71.988281 36.855469 C 71.988281 36.464844 71.613281 36.355469 71.363281 36.355469 C 71.035156 36.355469 70.722656 36.527344 70.722656 36.886719 C 70.722656 37.074219 70.816406 37.246094 71.035156 37.480469 C 70.941406 37.511719 70.332031 37.699219 70.332031 38.214844 Z M 70.582031 38.230469 C 70.582031 37.761719 71.019531 37.574219 71.113281 37.542969 C 71.457031 37.902344 71.550781 37.996094 71.550781 38.230469 C 71.550781 38.574219 71.269531 38.730469 71.082031 38.730469 C 70.769531 38.730469 70.582031 38.511719 70.582031 38.230469 Z M 71.003906 36.824219 C 71.003906 36.589844 71.128906 36.433594 71.363281 36.433594 C 71.660156 36.433594 71.753906 36.683594 71.753906 36.855469 C 71.753906 37.152344 71.535156 37.246094 71.347656 37.339844 C 71.003906 37.027344 71.003906 36.917969 71.003906 36.824219 Z M 71.003906 36.824219 "
       id="path27" />
    <path
       style="fill:none;stroke-width:0.055;stroke-linecap:round;stroke-linejoin:round;stroke:rgb(12.940979%,11.764526%,11.764526%);stroke-opacity:1;stroke-miterlimit:4;"
       d="M 86.003906 33.40625 L 86.003906 32.917969 "
       id="path29" />
    <path
       style=" stroke:none;fill-rule:nonzero;fill:rgb(12.940979%,11.764526%,11.764526%);fill-opacity:1;"
       d="M 84.179688 38.777344 L 85.179688 38.777344 L 85.179688 38.730469 C 85.007813 38.730469 84.882813 38.714844 84.882813 38.605469 C 84.882813 38.542969 84.929688 38.417969 84.945313 38.339844 L 85.460938 36.480469 C 85.476563 36.417969 85.492188 36.355469 85.460938 36.355469 C 85.429688 36.355469 84.929688 36.449219 84.773438 36.480469 L 84.773438 36.542969 L 84.976563 36.527344 C 85.007813 36.527344 85.101563 36.527344 85.101563 36.652344 C 85.101563 36.667969 85.085938 36.730469 85.085938 36.761719 L 84.585938 38.527344 C 84.539063 38.699219 84.398438 38.699219 84.179688 38.730469 Z M 84.179688 38.777344 "
       id="path31" />
    <path
       style=" stroke:none;fill-rule:nonzero;fill:rgb(12.940979%,11.764526%,11.764526%);fill-opacity:1;"
       d="M 86.210938 38.214844 C 86.210938 37.871094 86.460938 36.449219 86.992188 36.449219 C 87.304688 36.449219 87.304688 36.808594 87.304688 36.917969 C 87.304688 37.558594 86.992188 38.699219 86.523438 38.699219 C 86.398438 38.699219 86.210938 38.636719 86.210938 38.214844 Z M 87.585938 37.246094 C 87.585938 36.886719 87.492188 36.355469 87.023438 36.355469 C 86.523438 36.355469 85.914063 37.089844 85.914063 38.058594 C 85.914063 38.433594 86.117188 38.808594 86.492188 38.808594 C 87.101563 38.808594 87.585938 37.964844 87.585938 37.246094 Z M 87.585938 37.246094 "
       id="path33" />
    <path
       style="fill:none;stroke-width:0.4;stroke-linecap:round;stroke-linejoin:round;stroke:rgb(12.940979%,11.764526%,11.764526%);stroke-opacity:1;stroke-miterlimit:4;"
       d="M 12.632813 33.40625 L 87.851563 33.40625 "
       id="path35" />
    <path
       style=" stroke:none;fill-rule:nonzero;fill:rgb(12.940979%,11.764526%,11.764526%);fill-opacity:1;"
       d="M 89.269531 32.792969 C 88.277344 32.492188 87.632813 32.214844 86.835938 31.898438 L 86.835938 34.921875 C 87.121094 34.789063 88.277344 34.328125 89.269531 34.027344 C 90.332031 33.707031 91.292969 33.488281 91.917969 33.410156 C 91.292969 33.332031 90.332031 33.113281 89.269531 32.792969 "
       id="path37" />
    <path
       style="fill:none;stroke-width:0.055;stroke-linecap:round;stroke-linejoin:round;stroke:rgb(12.940979%,11.764526%,11.764526%);stroke-opacity:1;stroke-miterlimit:4;"
       d="M 12.082031 57.390625 L 12.570313 57.390625 "
       id="path39" />
    <g
       clip-path="url(#clip1)"
       clip-rule="nonzero"
       id="g43">
      <path
         style=" stroke:none;fill-rule:nonzero;fill:rgb(12.940979%,11.764526%,11.764526%);fill-opacity:1;"
         d="M 7.050781 57.769531 L 5.988281 57.769531 L 5.925781 58.066406 L 6.988281 58.066406 Z M 7.050781 57.769531 "
         id="path41" />
    </g>
    <g
       clip-path="url(#clip2)"
       clip-rule="nonzero"
       id="g47">
      <path
         style=" stroke:none;fill-rule:nonzero;fill:rgb(12.940979%,11.764526%,11.764526%);fill-opacity:1;"
         d="M 7.523438 58.988281 L 8.867188 58.988281 L 8.867188 58.910156 C 8.617188 58.925781 8.445313 58.910156 8.445313 58.753906 C 8.445313 58.675781 8.507813 58.503906 8.539063 58.410156 L 9.226563 55.925781 C 9.242188 55.847656 9.273438 55.738281 9.226563 55.738281 C 9.195313 55.738281 8.523438 55.894531 8.304688 55.925781 L 8.304688 56.003906 L 8.570313 55.988281 C 8.617188 55.988281 8.757813 55.988281 8.757813 56.144531 C 8.757813 56.175781 8.742188 56.253906 8.726563 56.300781 L 8.054688 58.660156 C 7.992188 58.878906 7.804688 58.894531 7.523438 58.925781 Z M 7.523438 58.988281 "
         id="path45" />
    </g>
    <path
       style="fill:none;stroke-width:0.055;stroke-linecap:round;stroke-linejoin:round;stroke:rgb(12.940979%,11.764526%,11.764526%);stroke-opacity:1;stroke-miterlimit:4;"
       d="M 12.082031 45.398438 L 12.570313 45.398438 "
       id="path49" />
    <path
       style=" stroke:none;fill-rule:nonzero;fill:rgb(12.940979%,11.764526%,11.764526%);fill-opacity:1;"
       d="M 3.050781 45.78125 L 1.988281 45.78125 L 1.925781 46.078125 L 2.988281 46.078125 Z M 3.050781 45.78125 "
       id="path51" />
    <path
       style=" stroke:none;fill-rule:nonzero;fill:rgb(12.940979%,11.764526%,11.764526%);fill-opacity:1;"
       d="M 3.820313 46.25 C 3.820313 45.78125 4.164063 43.890625 4.882813 43.890625 C 5.289063 43.890625 5.289063 44.375 5.289063 44.53125 C 5.289063 45.359375 4.882813 46.90625 4.242188 46.90625 C 4.085938 46.90625 3.820313 46.8125 3.820313 46.25 Z M 5.679688 44.953125 C 5.679688 44.484375 5.539063 43.75 4.898438 43.75 C 4.242188 43.75 3.445313 44.75 3.445313 46.046875 C 3.445313 46.546875 3.710938 47.03125 4.210938 47.03125 C 5.023438 47.03125 5.679688 45.90625 5.679688 44.953125 Z M 5.679688 44.953125 "
       id="path53" />
    <path
       style=" stroke:none;fill-rule:nonzero;fill:rgb(12.940979%,11.764526%,11.764526%);fill-opacity:1;"
       d="M 6.078125 47.046875 C 6.1875 47.046875 6.34375 46.96875 6.34375 46.796875 C 6.34375 46.640625 6.21875 46.515625 6.078125 46.515625 C 5.9375 46.515625 5.8125 46.640625 5.8125 46.796875 C 5.8125 46.96875 5.984375 47.046875 6.078125 47.046875 Z M 6.078125 47.046875 "
       id="path55" />
    <path
       style=" stroke:none;fill-rule:nonzero;fill:rgb(12.940979%,11.764526%,11.764526%);fill-opacity:1;"
       d="M 8.027344 44.140625 L 9.136719 44.140625 L 9.246094 43.8125 L 8.011719 43.8125 L 7.511719 44.84375 L 7.511719 44.921875 C 8.074219 45.046875 8.558594 45.140625 8.558594 45.875 C 8.558594 46.296875 8.214844 46.828125 7.746094 46.828125 C 7.480469 46.828125 7.371094 46.5625 7.152344 46.5625 C 7.058594 46.5625 6.964844 46.625 6.964844 46.765625 C 6.964844 46.90625 7.105469 47.03125 7.449219 47.03125 C 8.386719 47.03125 8.902344 46.296875 8.902344 45.6875 C 8.902344 45.03125 8.464844 44.6875 7.839844 44.5625 Z M 8.027344 44.140625 "
       id="path57" />
    <path
       style="fill:none;stroke-width:0.055;stroke-linecap:round;stroke-linejoin:round;stroke:rgb(12.940979%,11.764526%,11.764526%);stroke-opacity:1;stroke-miterlimit:4;"
       d="M 12.082031 21.414063 L 12.570313 21.414063 "
       id="path59" />
    <path
       style=" stroke:none;fill-rule:nonzero;fill:rgb(12.940979%,11.764526%,11.764526%);fill-opacity:1;"
       d="M 4.042969 22.261719 C 4.042969 21.792969 4.386719 19.902344 5.105469 19.902344 C 5.511719 19.902344 5.511719 20.386719 5.511719 20.542969 C 5.511719 21.371094 5.105469 22.917969 4.464844 22.917969 C 4.308594 22.917969 4.042969 22.824219 4.042969 22.261719 Z M 5.902344 20.964844 C 5.902344 20.496094 5.761719 19.761719 5.121094 19.761719 C 4.464844 19.761719 3.667969 20.761719 3.667969 22.058594 C 3.667969 22.558594 3.933594 23.042969 4.433594 23.042969 C 5.246094 23.042969 5.902344 21.917969 5.902344 20.964844 Z M 5.902344 20.964844 "
       id="path61" />
    <path
       style=" stroke:none;fill-rule:nonzero;fill:rgb(12.940979%,11.764526%,11.764526%);fill-opacity:1;"
       d="M 6.304688 23.058594 C 6.414063 23.058594 6.570313 22.980469 6.570313 22.808594 C 6.570313 22.652344 6.445313 22.527344 6.304688 22.527344 C 6.164063 22.527344 6.039063 22.652344 6.039063 22.808594 C 6.039063 22.980469 6.210938 23.058594 6.304688 23.058594 Z M 6.304688 23.058594 "
       id="path63" />
    <path
       style=" stroke:none;fill-rule:nonzero;fill:rgb(12.940979%,11.764526%,11.764526%);fill-opacity:1;"
       d="M 8.253906 20.152344 L 9.363281 20.152344 L 9.472656 19.824219 L 8.238281 19.824219 L 7.738281 20.855469 L 7.738281 20.933594 C 8.300781 21.058594 8.785156 21.152344 8.785156 21.886719 C 8.785156 22.308594 8.441406 22.839844 7.972656 22.839844 C 7.707031 22.839844 7.597656 22.574219 7.378906 22.574219 C 7.285156 22.574219 7.191406 22.636719 7.191406 22.777344 C 7.191406 22.917969 7.332031 23.042969 7.675781 23.042969 C 8.613281 23.042969 9.128906 22.308594 9.128906 21.699219 C 9.128906 21.042969 8.691406 20.699219 8.066406 20.574219 Z M 8.253906 20.152344 "
       id="path65" />
    <path
       style="fill:none;stroke-width:0.055;stroke-linecap:round;stroke-linejoin:round;stroke:rgb(12.940979%,11.764526%,11.764526%);stroke-opacity:1;stroke-miterlimit:4;"
       d="M 12.082031 9.421875 L 12.570313 9.421875 "
       id="path67" />
    <path
       style=" stroke:none;fill-rule:nonzero;fill:rgb(12.940979%,11.764526%,11.764526%);fill-opacity:1;"
       d="M 7.746094 11.023438 L 9.089844 11.023438 L 9.089844 10.945313 C 8.839844 10.960938 8.667969 10.945313 8.667969 10.789063 C 8.667969 10.710938 8.730469 10.539063 8.761719 10.445313 L 9.449219 7.960938 C 9.464844 7.882813 9.496094 7.773438 9.449219 7.773438 C 9.417969 7.773438 8.746094 7.929688 8.527344 7.960938 L 8.527344 8.039063 L 8.792969 8.023438 C 8.839844 8.023438 8.980469 8.023438 8.980469 8.179688 C 8.980469 8.210938 8.964844 8.289063 8.949219 8.335938 L 8.277344 10.695313 C 8.214844 10.914063 8.027344 10.929688 7.746094 10.960938 Z M 7.746094 11.023438 "
       id="path69" />
    <path
       style="fill:none;stroke-width:0.055;stroke-linecap:round;stroke-linejoin:round;stroke:rgb(12.940979%,11.764526%,11.764526%);stroke-opacity:1;stroke-miterlimit:4;"
       d="M 12.082031 57.390625 L 12.082031 9.421875 "
       id="path71" />
    <path
       style="fill:none;stroke-width:0.073;stroke-linecap:round;stroke-linejoin:round;stroke:rgb(12.940979%,11.764526%,11.764526%);stroke-opacity:1;stroke-miterlimit:4;"
       d="M 12.082031 33.40625 L 12.445313 30.003906 L 12.617188 28.589844 L 12.78125 27.472656 L 12.871094 26.953125 L 12.972656 26.496094 L 13.0625 26.179688 L 13.148438 25.980469 L 13.238281 25.859375 L 13.339844 25.84375 L 13.390625 25.882813 L 13.445313 25.960938 L 13.542969 26.1875 L 13.644531 26.535156 L 13.738281 26.953125 L 13.953125 28.199219 L 14.347656 31.140625 L 14.699219 33.851563 L 14.886719 35.042969 L 14.988281 35.582031 L 15.082031 35.996094 L 15.1875 36.34375 L 15.242188 36.480469 L 15.304688 36.582031 L 15.359375 36.640625 L 15.410156 36.65625 L 15.507813 36.59375 L 15.609375 36.410156 L 15.703125 36.121094 L 15.804688 35.6875 L 15.910156 35.085938 L 16.097656 33.769531 L 16.269531 32.246094 L 16.664063 28.125 L 17.058594 23.910156 L 17.273438 21.9375 L 17.476563 20.46875 L 17.582031 19.871094 L 17.695313 19.378906 L 17.757813 19.167969 L 17.820313 19.019531 L 17.871094 18.925781 L 17.933594 18.867188 L 17.984375 18.851563 L 18.039063 18.871094 L 18.097656 18.933594 L 18.148438 19.03125 L 18.246094 19.289063 L 18.304688 19.484375 L 18.355469 19.691406 L 18.550781 20.738281 L 18.726563 21.960938 L 19.492188 28.328125 L 19.652344 29.476563 L 19.832031 30.507813 L 19.921875 30.9375 L 20.023438 31.300781 L 20.078125 31.457031 L 20.128906 31.574219 L 20.230469 31.722656 L 20.285156 31.761719 L 20.335938 31.769531 L 20.394531 31.746094 L 20.453125 31.6875 L 20.550781 31.507813 L 20.609375 31.367188 L 20.660156 31.207031 L 20.859375 30.429688 L 21.039063 29.5 L 21.441406 27.078125 L 21.632813 25.992188 L 21.8125 25.121094 L 21.910156 24.730469 L 21.960938 24.558594 L 22.019531 24.398438 L 22.117188 24.1875 L 22.203125 24.078125 L 22.289063 24.054688 L 22.378906 24.109375 L 22.464844 24.246094 L 22.542969 24.445313 L 22.632813 24.761719 L 22.734375 25.207031 L 22.914063 26.273438 L 23.675781 33.203125 L 24.082031 36.9375 L 24.195313 37.78125 L 24.3125 38.539063 L 24.414063 39.074219 L 24.46875 39.320313 L 24.523438 39.519531 L 24.625 39.800781 L 24.714844 39.941406 L 24.804688 39.964844 L 24.894531 39.875 L 24.945313 39.777344 L 25.003906 39.632813 L 25.109375 39.21875 L 25.210938 38.691406 L 25.3125 38.082031 L 25.667969 34.964844 L 26.054688 30.632813 L 26.492188 25.574219 L 26.707031 23.394531 L 26.90625 21.71875 L 27.085938 20.550781 L 27.1875 20.058594 L 27.277344 19.710938 L 27.378906 19.441406 L 27.4375 19.34375 L 27.488281 19.289063 L 27.578125 19.265625 L 27.679688 19.355469 L 27.773438 19.535156 L 27.828125 19.679688 L 27.878906 19.835938 L 28.070313 20.621094 L 28.238281 21.566406 L 28.414063 22.738281 L 28.824219 25.683594 L 29.207031 28.332031 L 29.558594 30.324219 L 29.882813 31.675781 L 30.242188 32.773438 L 30.628906 33.828125 L 30.996094 35.140625 L 31.207031 36.152344 L 31.394531 37.285156 L 32.105469 43.394531 L 32.5 47.421875 L 32.707031 49.371094 L 32.929688 51.105469 L 33.019531 51.691406 L 33.121094 52.203125 L 33.183594 52.441406 L 33.234375 52.617188 L 33.285156 52.75 L 33.335938 52.839844 L 33.429688 52.894531 L 33.515625 52.816406 L 33.605469 52.582031 L 33.707031 52.160156 L 33.808594 51.570313 L 33.914063 50.726563 L 34.125 48.390625 L 34.328125 45.515625 L 34.511719 42.289063 L 35.375 23.703125 L 35.5625 19.867188 "
       id="path73" />
    <path
       style="fill:none;stroke-width:0.073;stroke-linecap:round;stroke-linejoin:round;stroke:rgb(12.940979%,11.764526%,11.764526%);stroke-opacity:1;stroke-miterlimit:4;"
       d="M 35.558594 19.867188 L 35.761719 16.171875 L 35.941406 13.464844 L 36.128906 11.277344 L 36.234375 10.40625 L 36.292969 10.023438 L 36.351563 9.742188 L 36.449219 9.4375 L 36.457031 9.421875 M 36.578125 9.421875 L 36.648438 9.550781 L 36.703125 9.746094 L 36.753906 9.992188 L 36.84375 10.601563 L 36.9375 11.460938 L 37.695313 24.132813 L 38.488281 41.402344 L 38.691406 44.914063 L 38.90625 47.925781 L 39.03125 49.242188 L 39.140625 50.167969 L 39.195313 50.515625 L 39.253906 50.820313 L 39.3125 51.039063 L 39.363281 51.179688 L 39.457031 51.285156 L 39.546875 51.207031 L 39.644531 50.933594 L 39.703125 50.6875 L 39.753906 50.414063 L 39.847656 49.757813 L 39.953125 48.855469 L 40.164063 46.519531 L 40.945313 34.867188 L 41.148438 31.84375 L 41.371094 28.972656 L 41.582031 26.789063 L 41.683594 25.957031 L 41.773438 25.3125 L 41.863281 24.828125 L 41.957031 24.4375 L 42.011719 24.273438 L 42.0625 24.160156 L 42.15625 24.050781 L 42.257813 24.078125 L 42.351563 24.226563 L 42.453125 24.519531 L 42.507813 24.734375 L 42.5625 24.96875 L 42.738281 25.957031 L 42.929688 27.3125 L 43.273438 30.167969 L 43.632813 33.042969 L 43.828125 34.355469 L 44.015625 35.324219 L 44.117188 35.730469 L 44.175781 35.902344 L 44.234375 36.050781 L 44.285156 36.148438 L 44.335938 36.230469 L 44.433594 36.300781 L 44.53125 36.28125 L 44.589844 36.234375 L 44.640625 36.164063 L 44.726563 35.984375 L 44.828125 35.71875 L 45.234375 34.046875 L 45.621094 32.234375 L 45.832031 31.441406 L 45.890625 31.273438 L 45.953125 31.121094 L 46.007813 31.019531 L 46.0625 30.933594 L 46.160156 30.851563 L 46.253906 30.863281 L 46.3125 30.914063 L 46.363281 30.988281 L 46.460938 31.207031 L 46.550781 31.484375 L 46.648438 31.875 L 46.84375 32.925781 L 47.199219 35.4375 L 47.582031 38.390625 L 47.6875 39.09375 L 47.800781 39.746094 L 47.898438 40.214844 L 47.949219 40.421875 L 48 40.589844 L 48.09375 40.816406 L 48.183594 40.910156 L 48.261719 40.894531 L 48.351563 40.753906 L 48.449219 40.453125 L 48.496094 40.242188 L 48.550781 39.960938 L 48.734375 38.644531 L 48.90625 36.949219 L 49.09375 34.703125 L 49.425781 29.976563 L 49.808594 24.699219 L 49.914063 23.433594 L 50.019531 22.410156 L 50.109375 21.648438 L 50.210938 21.042969 L 50.261719 20.8125 L 50.320313 20.636719 L 50.425781 20.53125 L 50.480469 20.59375 L 50.542969 20.753906 L 50.601563 21 L 50.652344 21.308594 L 50.757813 22.101563 L 50.867188 23.269531 L 51.066406 26.144531 L 51.808594 41.402344 L 52.011719 45.292969 L 52.117188 47.019531 L 52.230469 48.515625 L 52.328125 49.523438 L 52.382813 49.957031 L 52.4375 50.265625 L 52.527344 50.570313 L 52.625 50.554688 L 52.675781 50.40625 L 52.730469 50.144531 L 52.824219 49.410156 L 52.925781 48.242188 L 53.039063 46.53125 L 53.242188 42.476563 L 53.433594 37.789063 L 53.808594 27.378906 L 53.992188 22.539063 L 54.160156 18.703125 L 54.261719 16.820313 L 54.359375 15.449219 L 54.410156 14.863281 L 54.460938 14.34375 L 54.519531 13.9375 L 54.574219 13.691406 L 54.667969 13.578125 L 54.769531 13.921875 L 54.855469 14.59375 L 54.949219 15.71875 L 55.058594 17.53125 L 55.160156 19.605469 L 55.386719 25.484375 L 55.789063 38.214844 L 55.984375 43.96875 L 56.164063 48.5 L 56.265625 50.464844 L 56.355469 51.898438 L 56.457031 53.03125 L 56.511719 53.4375 L 56.5625 53.679688 L 56.648438 53.757813 L 56.742188 53.410156 L 56.828125 52.683594 L 56.902344 51.699219 L 56.996094 50.160156 "
       id="path75" />
    <path
       style="fill:none;stroke-width:0.073;stroke-linecap:round;stroke-linejoin:round;stroke:rgb(12.940979%,11.764526%,11.764526%);stroke-opacity:1;stroke-miterlimit:4;"
       d="M 56.992188 50.160156 L 57.09375 48.074219 L 57.273438 43.359375 L 57.679688 30.398438 L 57.90625 23.640625 L 58.015625 20.816406 L 58.113281 18.625 L 58.199219 17.089844 L 58.289063 15.820313 L 58.390625 14.960938 L 58.480469 14.621094 L 58.582031 14.792969 L 58.632813 15.097656 L 58.691406 15.59375 L 58.789063 16.875 L 58.882813 18.515625 L 59.648438 39.742188 L 59.832031 44.328125 L 59.9375 46.34375 L 60.03125 47.765625 L 60.082031 48.375 L 60.144531 48.875 L 60.199219 49.1875 L 60.246094 49.328125 L 60.347656 49.21875 L 60.394531 48.96875 L 60.449219 48.550781 L 60.546875 47.457031 L 60.636719 46.039063 L 60.808594 42.507813 L 61.191406 32.316406 L 61.351563 28.105469 L 61.523438 24.273438 L 61.621094 22.53125 L 61.710938 21.304688 L 61.804688 20.445313 L 61.886719 20 L 61.976563 19.925781 L 62.074219 20.308594 L 62.164063 21.082031 L 62.246094 22.125 L 62.347656 23.71875 L 62.453125 25.828125 L 62.644531 30.382813 L 63.035156 39.976563 L 63.128906 41.910156 L 63.230469 43.660156 L 63.289063 44.476563 L 63.339844 45.09375 L 63.394531 45.566406 L 63.445313 45.929688 L 63.535156 46.222656 L 63.632813 46.09375 L 63.722656 45.5625 L 63.804688 44.75 L 63.898438 43.421875 L 64.003906 41.582031 L 64.191406 37.425781 L 64.523438 29.167969 L 64.707031 25.140625 L 64.796875 23.511719 L 64.878906 22.273438 L 64.976563 21.214844 L 65.023438 20.824219 L 65.078125 20.535156 L 65.175781 20.367188 L 65.261719 20.585938 L 65.347656 21.171875 L 65.445313 22.195313 L 65.535156 23.492188 L 65.617188 24.933594 L 66.003906 33.550781 L 66.207031 38.191406 L 66.320313 40.410156 L 66.425781 42.167969 L 66.527344 43.511719 L 66.585938 44.089844 L 66.640625 44.496094 L 66.738281 44.929688 L 66.835938 44.976563 L 66.933594 44.648438 L 67.019531 44.039063 L 67.117188 43.066406 L 67.222656 41.71875 L 67.65625 34.351563 L 67.867188 30.925781 L 68.058594 28.53125 L 68.152344 27.6875 L 68.253906 27.035156 L 68.351563 26.664063 L 68.4375 26.53125 L 68.53125 26.585938 L 68.585938 26.699219 L 68.632813 26.851563 L 68.734375 27.285156 L 68.84375 27.882813 L 69.699219 32.550781 L 70.089844 33.308594 L 70.1875 33.507813 L 70.289063 33.777344 L 70.402344 34.164063 L 70.507813 34.625 L 70.703125 35.707031 L 70.902344 37.089844 L 71.078125 38.308594 L 71.167969 38.90625 L 71.257813 39.375 L 71.359375 39.757813 L 71.453125 39.933594 L 71.539063 39.917969 L 71.632813 39.683594 L 71.683594 39.464844 L 71.738281 39.148438 L 71.851563 38.265625 L 71.953125 37.167969 L 72.046875 35.9375 L 72.277344 32.390625 L 72.496094 28.871094 L 72.589844 27.503906 L 72.695313 26.269531 L 72.75 25.683594 L 72.804688 25.25 L 72.855469 24.914063 L 72.90625 24.695313 L 72.996094 24.550781 L 73.097656 24.777344 L 73.179688 25.277344 L 73.269531 26.140625 L 73.367188 27.40625 L 73.472656 29.082031 L 73.660156 32.660156 L 73.878906 36.898438 L 73.984375 38.707031 L 74.082031 40.074219 L 74.171875 40.976563 L 74.269531 41.539063 L 74.363281 41.648438 L 74.417969 41.5 L 74.46875 41.226563 L 74.566406 40.320313 L 74.660156 39.054688 L 74.769531 37.167969 L 74.863281 35.160156 L 75.058594 30.820313 L 75.234375 27.066406 L 75.320313 25.53125 L 75.417969 24.234375 L 75.515625 23.4375 L 75.570313 23.242188 L 75.621094 23.21875 L 75.675781 23.378906 "
       id="path77" />
    <path
       style="fill:none;stroke-width:0.073;stroke-linecap:round;stroke-linejoin:round;stroke:rgb(12.940979%,11.764526%,11.764526%);stroke-opacity:1;stroke-miterlimit:4;"
       d="M 75.671875 23.378906 L 75.722656 23.714844 L 75.820313 24.808594 L 75.875 25.671875 L 75.921875 26.628906 L 76.035156 29.28125 L 76.394531 40.078125 L 76.480469 42.601563 L 76.574219 44.976563 L 76.65625 46.808594 L 76.734375 48.121094 L 76.816406 49.015625 L 76.902344 49.382813 L 76.992188 49.082031 L 77.085938 48.007813 L 77.136719 47.121094 L 77.191406 45.933594 L 77.289063 43.199219 L 77.476563 36.519531 L 77.828125 22.140625 L 77.929688 18.710938 L 78.027344 16.121094 L 78.113281 14.480469 L 78.207031 13.523438 L 78.265625 13.390625 L 78.3125 13.550781 L 78.375 14.058594 L 78.425781 14.851563 L 78.523438 16.984375 L 78.628906 20.21875 L 79.121094 41.714844 L 79.234375 45.949219 L 79.285156 47.683594 L 79.339844 49.101563 L 79.433594 51.078125 L 79.53125 52.117188 L 79.585938 52.214844 L 79.640625 51.980469 L 79.695313 51.4375 L 79.75 50.492188 L 79.8125 49.136719 L 79.871094 47.550781 L 80.441406 24.308594 L 80.550781 20.765625 L 80.652344 18.492188 L 80.75 17.304688 L 80.804688 17.109375 L 80.855469 17.242188 L 80.949219 18.25 L 81.046875 20.34375 L 81.136719 23.082031 L 81.222656 26.214844 L 81.613281 43.148438 L 81.710938 46.652344 L 81.800781 49.179688 L 81.855469 50.226563 L 81.90625 51.027344 L 81.964844 51.519531 L 82.019531 51.59375 L 82.121094 50.742188 L 82.21875 48.792969 L 82.582031 34.023438 L 82.757813 25.222656 L 82.917969 18.3125 L 83.007813 15.449219 L 83.089844 13.496094 L 83.175781 12.339844 L 83.269531 12.203125 L 83.367188 13.289063 L 83.414063 14.292969 L 83.46875 15.730469 L 83.566406 19.027344 L 83.65625 22.847656 L 83.957031 38.09375 L 84.109375 44.921875 L 84.179688 47.644531 L 84.246094 49.65625 L 84.320313 51.378906 L 84.402344 52.425781 L 84.492188 52.589844 L 84.578125 51.824219 L 84.652344 50.40625 L 84.726563 48.542969 L 84.882813 42.8125 L 85.164063 30.300781 L 85.300781 24.941406 L 85.363281 23.035156 L 85.425781 21.347656 L 85.492188 20.070313 L 85.558594 19.339844 L 85.632813 19.101563 L 85.703125 19.445313 L 85.769531 20.335938 L 85.847656 21.898438 L 85.929688 24.101563 L 86.003906 26.59375 "
       id="path79" />
    <g
       clip-path="url(#clip3)"
       clip-rule="nonzero"
       id="g83">
      <path
         style=" stroke:none;fill-rule:nonzero;fill:rgb(12.940979%,11.764526%,11.764526%);fill-opacity:1;"
         d="M 96.394531 31.3125 L 95.628906 31.3125 L 95.894531 30.328125 C 95.910156 30.25 95.894531 30.171875 95.832031 30.1875 C 95.738281 30.171875 95.707031 30.25 95.660156 30.296875 C 95.394531 30.640625 94.925781 31.0625 94.613281 31.234375 C 94.457031 31.3125 94.191406 31.390625 94.128906 31.46875 C 94.097656 31.515625 94.097656 31.5625 94.113281 31.625 L 94.816406 31.625 L 94.128906 34.265625 C 94.082031 34.421875 93.910156 35 93.910156 35.140625 C 93.910156 35.4375 94.175781 35.53125 94.363281 35.53125 C 94.863281 35.53125 95.238281 35.109375 95.722656 34.359375 L 95.597656 34.296875 C 95.363281 34.609375 95.035156 35.0625 94.832031 35.0625 C 94.738281 35.0625 94.675781 34.984375 94.675781 34.890625 C 94.675781 34.859375 94.675781 34.84375 94.691406 34.8125 L 95.535156 31.625 L 96.347656 31.625 Z M 96.394531 31.3125 "
         id="path81" />
    </g>
    <path
       style=" stroke:none;fill-rule:nonzero;fill:rgb(12.940979%,11.764526%,11.764526%);fill-opacity:1;"
       d="M 0.1875 5.015625 L 0 6.546875 L 0.15625 6.546875 C 0.203125 6.4375 0.25 6.34375 0.375 6.34375 C 0.65625 6.34375 1.046875 6.53125 1.328125 6.53125 C 1.875 6.53125 2.765625 6.28125 2.765625 5.234375 C 2.765625 4.421875 1.59375 3.578125 1.59375 2.96875 C 1.59375 2.5 1.890625 2.40625 2.109375 2.40625 C 2.734375 2.40625 2.96875 2.96875 3.015625 3.515625 L 3.15625 3.515625 L 3.359375 2.1875 L 3.21875 2.1875 C 3.171875 2.265625 3.109375 2.359375 2.953125 2.359375 C 2.671875 2.359375 2.46875 2.1875 2.046875 2.1875 C 1.03125 2.1875 0.890625 2.953125 0.890625 3.25 C 0.890625 4 2.03125 4.921875 2.03125 5.546875 C 2.03125 5.859375 1.875 6.328125 1.34375 6.328125 C 0.5625 6.328125 0.40625 5.4375 0.34375 5.015625 Z M 0.1875 5.015625 "
       id="path85" />
    <path
       style=" stroke:none;fill-rule:nonzero;fill:rgb(12.940979%,11.764526%,11.764526%);fill-opacity:1;"
       d="M 3.859375 8.023438 L 5.40625 8.023438 L 5.40625 7.945313 C 5.140625 7.945313 4.9375 7.929688 4.9375 7.757813 C 4.9375 7.664063 5 7.460938 5.03125 7.351563 L 5.828125 4.445313 C 5.859375 4.351563 5.890625 4.242188 5.84375 4.242188 C 5.796875 4.242188 5.015625 4.414063 4.765625 4.460938 L 4.765625 4.539063 L 5.078125 4.523438 C 5.125 4.523438 5.296875 4.523438 5.296875 4.710938 C 5.296875 4.757813 5.265625 4.835938 5.25 4.898438 L 4.484375 7.648438 C 4.40625 7.898438 4.1875 7.914063 3.859375 7.945313 Z M 3.859375 8.023438 "
       id="path87" />
    <path
       style=" stroke:none;fill-rule:nonzero;fill:rgb(12.940979%,11.764526%,11.764526%);fill-opacity:1;"
       d="M 7.910156 8.09375 C 7.441406 6.921875 7.441406 6.078125 7.441406 5.4375 C 7.441406 4.828125 7.613281 3.53125 7.988281 2.453125 C 8.457031 1.140625 8.941406 0.625 9.394531 0.140625 L 9.269531 0 C 7.535156 1.484375 6.785156 2.984375 6.785156 4.5625 C 6.785156 5.1875 6.785156 6.578125 7.738281 8.15625 Z M 7.910156 8.09375 "
       id="path89" />
    <path
       style=" stroke:none;fill-rule:nonzero;fill:rgb(12.940979%,11.764526%,11.764526%);fill-opacity:1;"
       d="M 12.417969 2.3125 L 11.652344 2.3125 L 11.917969 1.328125 C 11.933594 1.25 11.917969 1.171875 11.855469 1.1875 C 11.761719 1.171875 11.730469 1.25 11.683594 1.296875 C 11.417969 1.640625 10.949219 2.0625 10.636719 2.234375 C 10.480469 2.3125 10.214844 2.390625 10.152344 2.46875 C 10.121094 2.515625 10.121094 2.5625 10.136719 2.625 L 10.839844 2.625 L 10.152344 5.265625 C 10.105469 5.421875 9.933594 6 9.933594 6.140625 C 9.933594 6.4375 10.199219 6.53125 10.386719 6.53125 C 10.886719 6.53125 11.261719 6.109375 11.746094 5.359375 L 11.621094 5.296875 C 11.386719 5.609375 11.058594 6.0625 10.855469 6.0625 C 10.761719 6.0625 10.699219 5.984375 10.699219 5.890625 C 10.699219 5.859375 10.699219 5.84375 10.714844 5.8125 L 11.558594 2.625 L 12.371094 2.625 Z M 12.417969 2.3125 "
       id="path91" />
    <path
       style=" stroke:none;fill-rule:nonzero;fill:rgb(12.940979%,11.764526%,11.764526%);fill-opacity:1;"
       d="M 12.527344 8.15625 C 13.949219 7 15.011719 5.421875 15.011719 3.59375 C 15.011719 2.359375 14.761719 1.125 14.074219 0 L 13.886719 0.046875 C 14.136719 0.578125 14.355469 1.53125 14.355469 2.5625 C 14.355469 3.40625 14.199219 4.546875 13.808594 5.71875 C 13.371094 6.984375 12.824219 7.5625 12.402344 8 Z M 12.527344 8.15625 "
       id="path93" />
    <path
       style=" stroke:none;fill-rule:nonzero;fill:rgb(12.940979%,11.764526%,11.764526%);fill-opacity:1;"
       d="M 23.496094 2.71875 L 18.667969 2.71875 L 18.667969 3.359375 L 23.496094 3.359375 Z M 23.496094 4.640625 L 18.667969 4.640625 L 18.667969 5.265625 L 23.496094 5.265625 Z M 23.496094 4.640625 "
       id="path95" />
    <path
       style=" stroke:none;fill-rule:nonzero;fill:rgb(12.940979%,11.764526%,11.764526%);fill-opacity:1;"
       d="M 31.175781 5.359375 C 30.738281 5.78125 30.550781 6.03125 30.410156 6.03125 C 30.332031 6.03125 30.269531 5.96875 30.269531 5.90625 C 30.269531 5.609375 31.160156 2.328125 31.191406 2.21875 L 31.113281 2.1875 L 30.535156 2.265625 L 30.503906 2.28125 L 30.410156 2.703125 L 30.394531 2.703125 C 30.363281 2.4375 30.035156 2.1875 29.628906 2.1875 C 28.347656 2.1875 26.878906 3.984375 26.878906 5.390625 C 26.878906 5.671875 26.910156 6.53125 27.878906 6.53125 C 28.457031 6.53125 28.957031 6.234375 29.753906 5.0625 L 29.769531 5.09375 C 29.613281 5.671875 29.566406 5.890625 29.566406 6.109375 C 29.566406 6.265625 29.566406 6.515625 29.972656 6.515625 C 30.394531 6.515625 30.707031 6.171875 31.285156 5.46875 Z M 27.691406 5.375 C 27.691406 4.515625 28.550781 2.40625 29.675781 2.40625 C 29.957031 2.40625 30.222656 2.578125 30.222656 3.046875 C 30.222656 3.984375 29.285156 6.0625 28.269531 6.0625 C 28.003906 6.0625 27.691406 5.890625 27.691406 5.375 Z M 27.691406 5.375 "
       id="path97" />
    <path
       style=" stroke:none;fill-rule:nonzero;fill:rgb(12.940979%,11.764526%,11.764526%);fill-opacity:1;"
       d="M 31.804688 8.023438 L 33.351563 8.023438 L 33.351563 7.945313 C 33.085938 7.945313 32.882813 7.929688 32.882813 7.757813 C 32.882813 7.664063 32.945313 7.460938 32.976563 7.351563 L 33.773438 4.445313 C 33.804688 4.351563 33.835938 4.242188 33.789063 4.242188 C 33.742188 4.242188 32.960938 4.414063 32.710938 4.460938 L 32.710938 4.539063 L 33.023438 4.523438 C 33.070313 4.523438 33.242188 4.523438 33.242188 4.710938 C 33.242188 4.757813 33.210938 4.835938 33.195313 4.898438 L 32.429688 7.648438 C 32.351563 7.898438 32.132813 7.914063 31.804688 7.945313 Z M 31.804688 8.023438 "
       id="path99" />
    <path
       style=" stroke:none;fill-rule:nonzero;fill:rgb(12.940979%,11.764526%,11.764526%);fill-opacity:1;"
       d="M 34.1875 8.023438 L 35.734375 8.023438 L 35.734375 7.945313 C 35.46875 7.945313 35.265625 7.929688 35.265625 7.757813 C 35.265625 7.664063 35.328125 7.460938 35.359375 7.351563 L 36.15625 4.445313 C 36.1875 4.351563 36.21875 4.242188 36.171875 4.242188 C 36.125 4.242188 35.34375 4.414063 35.09375 4.460938 L 35.09375 4.539063 L 35.40625 4.523438 C 35.453125 4.523438 35.625 4.523438 35.625 4.710938 C 35.625 4.757813 35.59375 4.835938 35.578125 4.898438 L 34.8125 7.648438 C 34.734375 7.898438 34.515625 7.914063 34.1875 7.945313 Z M 34.1875 8.023438 "
       id="path101" />
    <path
       style=" stroke:none;fill-rule:nonzero;fill:rgb(12.940979%,11.764526%,11.764526%);fill-opacity:1;"
       d="M 40.566406 5.359375 C 40.300781 5.640625 40.113281 6 39.910156 6 C 39.722656 6 39.644531 5.765625 39.613281 5.609375 C 39.550781 5.359375 39.222656 4.0625 39.222656 3.890625 C 39.222656 3.890625 39.878906 2.734375 40.160156 2.734375 C 40.378906 2.734375 40.441406 2.890625 40.675781 2.890625 C 40.894531 2.890625 40.988281 2.703125 40.988281 2.53125 C 40.988281 2.3125 40.785156 2.1875 40.597656 2.1875 C 40.097656 2.1875 39.644531 2.78125 39.160156 3.5625 L 39.050781 3.03125 C 38.878906 2.1875 38.738281 2.1875 38.519531 2.1875 C 38.207031 2.1875 37.582031 2.421875 37.316406 2.5 L 37.363281 2.65625 C 37.660156 2.578125 37.800781 2.546875 37.894531 2.546875 C 38.144531 2.546875 38.191406 2.6875 38.269531 2.984375 C 38.285156 3.03125 38.613281 4.296875 38.613281 4.390625 C 37.738281 5.640625 37.488281 5.96875 37.332031 5.96875 C 37.160156 5.96875 36.988281 5.78125 36.769531 5.78125 C 36.566406 5.78125 36.441406 5.96875 36.441406 6.109375 C 36.441406 6.34375 36.597656 6.53125 36.925781 6.53125 C 37.222656 6.53125 37.332031 6.421875 37.488281 6.234375 C 37.816406 5.890625 38.222656 5.359375 38.675781 4.734375 L 38.972656 5.890625 C 39.097656 6.390625 39.238281 6.53125 39.519531 6.53125 C 39.738281 6.53125 40.019531 6.53125 40.691406 5.4375 Z M 40.566406 5.359375 "
       id="path103" />
    <path
       style=" stroke:none;fill-rule:nonzero;fill:rgb(12.940979%,11.764526%,11.764526%);fill-opacity:1;"
       d="M 41.25 8.023438 L 42.796875 8.023438 L 42.796875 7.945313 C 42.53125 7.945313 42.328125 7.929688 42.328125 7.757813 C 42.328125 7.664063 42.390625 7.460938 42.421875 7.351563 L 43.21875 4.445313 C 43.25 4.351563 43.28125 4.242188 43.234375 4.242188 C 43.1875 4.242188 42.40625 4.414063 42.15625 4.460938 L 42.15625 4.539063 L 42.46875 4.523438 C 42.515625 4.523438 42.6875 4.523438 42.6875 4.710938 C 42.6875 4.757813 42.65625 4.835938 42.640625 4.898438 L 41.875 7.648438 C 41.796875 7.898438 41.578125 7.914063 41.25 7.945313 Z M 41.25 8.023438 "
       id="path105" />
    <path
       style=" stroke:none;fill-rule:nonzero;fill:rgb(12.940979%,11.764526%,11.764526%);fill-opacity:1;"
       d="M 45.300781 8.09375 C 44.832031 6.921875 44.832031 6.078125 44.832031 5.4375 C 44.832031 4.828125 45.003906 3.53125 45.378906 2.453125 C 45.847656 1.140625 46.332031 0.625 46.785156 0.140625 L 46.660156 0 C 44.925781 1.484375 44.175781 2.984375 44.175781 4.5625 C 44.175781 5.1875 44.175781 6.578125 45.128906 8.15625 Z M 45.300781 8.09375 "
       id="path107" />
    <path
       style=" stroke:none;fill-rule:nonzero;fill:rgb(12.940979%,11.764526%,11.764526%);fill-opacity:1;"
       d="M 49.808594 2.3125 L 49.042969 2.3125 L 49.308594 1.328125 C 49.324219 1.25 49.308594 1.171875 49.246094 1.1875 C 49.152344 1.171875 49.121094 1.25 49.074219 1.296875 C 48.808594 1.640625 48.339844 2.0625 48.027344 2.234375 C 47.871094 2.3125 47.605469 2.390625 47.542969 2.46875 C 47.511719 2.515625 47.511719 2.5625 47.527344 2.625 L 48.230469 2.625 L 47.542969 5.265625 C 47.496094 5.421875 47.324219 6 47.324219 6.140625 C 47.324219 6.4375 47.589844 6.53125 47.777344 6.53125 C 48.277344 6.53125 48.652344 6.109375 49.136719 5.359375 L 49.011719 5.296875 C 48.777344 5.609375 48.449219 6.0625 48.246094 6.0625 C 48.152344 6.0625 48.089844 5.984375 48.089844 5.890625 C 48.089844 5.859375 48.089844 5.84375 48.105469 5.8125 L 48.949219 2.625 L 49.761719 2.625 Z M 49.808594 2.3125 "
       id="path109" />
    <path
       style=" stroke:none;fill-rule:nonzero;fill:rgb(12.940979%,11.764526%,11.764526%);fill-opacity:1;"
       d="M 49.917969 8.15625 C 51.339844 7 52.402344 5.421875 52.402344 3.59375 C 52.402344 2.359375 52.152344 1.125 51.464844 0 L 51.277344 0.046875 C 51.527344 0.578125 51.746094 1.53125 51.746094 2.5625 C 51.746094 3.40625 51.589844 4.546875 51.199219 5.71875 C 50.761719 6.984375 50.214844 7.5625 49.792969 8 Z M 49.917969 8.15625 "
       id="path111" />
    <path
       style=" stroke:none;fill-rule:nonzero;fill:rgb(12.940979%,11.764526%,11.764526%);fill-opacity:1;"
       d="M 58.152344 3.671875 L 56.058594 3.671875 L 56.058594 4.3125 L 58.152344 4.3125 L 58.152344 6.421875 L 58.792969 6.421875 L 58.792969 4.3125 L 60.886719 4.3125 L 60.886719 3.671875 L 58.792969 3.671875 L 58.792969 1.5625 L 58.152344 1.5625 Z M 58.152344 3.671875 "
       id="path113" />
    <path
       style=" stroke:none;fill-rule:nonzero;fill:rgb(12.940979%,11.764526%,11.764526%);fill-opacity:1;"
       d="M 68.566406 5.359375 C 68.128906 5.78125 67.941406 6.03125 67.800781 6.03125 C 67.722656 6.03125 67.660156 5.96875 67.660156 5.90625 C 67.660156 5.609375 68.550781 2.328125 68.582031 2.21875 L 68.503906 2.1875 L 67.925781 2.265625 L 67.894531 2.28125 L 67.800781 2.703125 L 67.785156 2.703125 C 67.753906 2.4375 67.425781 2.1875 67.019531 2.1875 C 65.738281 2.1875 64.269531 3.984375 64.269531 5.390625 C 64.269531 5.671875 64.300781 6.53125 65.269531 6.53125 C 65.847656 6.53125 66.347656 6.234375 67.144531 5.0625 L 67.160156 5.09375 C 67.003906 5.671875 66.957031 5.890625 66.957031 6.109375 C 66.957031 6.265625 66.957031 6.515625 67.363281 6.515625 C 67.785156 6.515625 68.097656 6.171875 68.675781 5.46875 Z M 65.082031 5.375 C 65.082031 4.515625 65.941406 2.40625 67.066406 2.40625 C 67.347656 2.40625 67.613281 2.578125 67.613281 3.046875 C 67.613281 3.984375 66.675781 6.0625 65.660156 6.0625 C 65.394531 6.0625 65.082031 5.890625 65.082031 5.375 Z M 65.082031 5.375 "
       id="path115" />
    <path
       style=" stroke:none;fill-rule:nonzero;fill:rgb(12.940979%,11.764526%,11.764526%);fill-opacity:1;"
       d="M 69.195313 8.023438 L 70.742188 8.023438 L 70.742188 7.945313 C 70.476563 7.945313 70.273438 7.929688 70.273438 7.757813 C 70.273438 7.664063 70.335938 7.460938 70.367188 7.351563 L 71.164063 4.445313 C 71.195313 4.351563 71.226563 4.242188 71.179688 4.242188 C 71.132813 4.242188 70.351563 4.414063 70.101563 4.460938 L 70.101563 4.539063 L 70.414063 4.523438 C 70.460938 4.523438 70.632813 4.523438 70.632813 4.710938 C 70.632813 4.757813 70.601563 4.835938 70.585938 4.898438 L 69.820313 7.648438 C 69.742188 7.898438 69.523438 7.914063 69.195313 7.945313 Z M 69.195313 8.023438 "
       id="path117" />
    <path
       style=" stroke:none;fill-rule:nonzero;fill:rgb(12.940979%,11.764526%,11.764526%);fill-opacity:1;"
       d="M 73.945313 7.242188 C 73.851563 7.445313 73.757813 7.601563 73.398438 7.601563 L 72.335938 7.601563 L 72.335938 7.570313 L 73.398438 6.492188 C 74.101563 5.804688 74.242188 5.554688 74.242188 5.179688 C 74.242188 4.757813 73.929688 4.242188 73.335938 4.242188 C 73.195313 4.242188 72.460938 4.257813 72.164063 5.132813 L 72.273438 5.179688 C 72.351563 5.039063 72.570313 4.648438 73.070313 4.648438 C 73.507813 4.648438 73.757813 4.992188 73.757813 5.335938 C 73.757813 5.523438 73.742188 5.835938 72.945313 6.679688 L 71.773438 7.929688 L 71.773438 8.023438 L 73.757813 8.023438 L 74.039063 7.289063 Z M 73.945313 7.242188 "
       id="path119" />
    <path
       style=" stroke:none;fill-rule:nonzero;fill:rgb(12.940979%,11.764526%,11.764526%);fill-opacity:1;"
       d="M 78.371094 5.359375 C 78.105469 5.640625 77.917969 6 77.714844 6 C 77.527344 6 77.449219 5.765625 77.417969 5.609375 C 77.355469 5.359375 77.027344 4.0625 77.027344 3.890625 C 77.027344 3.890625 77.683594 2.734375 77.964844 2.734375 C 78.183594 2.734375 78.246094 2.890625 78.480469 2.890625 C 78.699219 2.890625 78.792969 2.703125 78.792969 2.53125 C 78.792969 2.3125 78.589844 2.1875 78.402344 2.1875 C 77.902344 2.1875 77.449219 2.78125 76.964844 3.5625 L 76.855469 3.03125 C 76.683594 2.1875 76.542969 2.1875 76.324219 2.1875 C 76.011719 2.1875 75.386719 2.421875 75.121094 2.5 L 75.167969 2.65625 C 75.464844 2.578125 75.605469 2.546875 75.699219 2.546875 C 75.949219 2.546875 75.996094 2.6875 76.074219 2.984375 C 76.089844 3.03125 76.417969 4.296875 76.417969 4.390625 C 75.542969 5.640625 75.292969 5.96875 75.136719 5.96875 C 74.964844 5.96875 74.792969 5.78125 74.574219 5.78125 C 74.371094 5.78125 74.246094 5.96875 74.246094 6.109375 C 74.246094 6.34375 74.402344 6.53125 74.730469 6.53125 C 75.027344 6.53125 75.136719 6.421875 75.292969 6.234375 C 75.621094 5.890625 76.027344 5.359375 76.480469 4.734375 L 76.777344 5.890625 C 76.902344 6.390625 77.042969 6.53125 77.324219 6.53125 C 77.542969 6.53125 77.824219 6.53125 78.496094 5.4375 Z M 78.371094 5.359375 "
       id="path121" />
    <path
       style=" stroke:none;fill-rule:nonzero;fill:rgb(12.940979%,11.764526%,11.764526%);fill-opacity:1;"
       d="M 81.007813 7.242188 C 80.914063 7.445313 80.820313 7.601563 80.460938 7.601563 L 79.398438 7.601563 L 79.398438 7.570313 L 80.460938 6.492188 C 81.164063 5.804688 81.304688 5.554688 81.304688 5.179688 C 81.304688 4.757813 80.992188 4.242188 80.398438 4.242188 C 80.257813 4.242188 79.523438 4.257813 79.226563 5.132813 L 79.335938 5.179688 C 79.414063 5.039063 79.632813 4.648438 80.132813 4.648438 C 80.570313 4.648438 80.820313 4.992188 80.820313 5.335938 C 80.820313 5.523438 80.804688 5.835938 80.007813 6.679688 L 78.835938 7.929688 L 78.835938 8.023438 L 80.820313 8.023438 L 81.101563 7.289063 Z M 81.007813 7.242188 "
       id="path123" />
    <path
       style=" stroke:none;fill-rule:nonzero;fill:rgb(12.940979%,11.764526%,11.764526%);fill-opacity:1;"
       d="M 83.105469 8.09375 C 82.636719 6.921875 82.636719 6.078125 82.636719 5.4375 C 82.636719 4.828125 82.808594 3.53125 83.183594 2.453125 C 83.652344 1.140625 84.136719 0.625 84.589844 0.140625 L 84.464844 0 C 82.730469 1.484375 81.980469 2.984375 81.980469 4.5625 C 81.980469 5.1875 81.980469 6.578125 82.933594 8.15625 Z M 83.105469 8.09375 "
       id="path125" />
    <path
       style=" stroke:none;fill-rule:nonzero;fill:rgb(12.940979%,11.764526%,11.764526%);fill-opacity:1;"
       d="M 87.613281 2.3125 L 86.847656 2.3125 L 87.113281 1.328125 C 87.128906 1.25 87.113281 1.171875 87.050781 1.1875 C 86.957031 1.171875 86.925781 1.25 86.878906 1.296875 C 86.613281 1.640625 86.144531 2.0625 85.832031 2.234375 C 85.675781 2.3125 85.410156 2.390625 85.347656 2.46875 C 85.316406 2.515625 85.316406 2.5625 85.332031 2.625 L 86.035156 2.625 L 85.347656 5.265625 C 85.300781 5.421875 85.128906 6 85.128906 6.140625 C 85.128906 6.4375 85.394531 6.53125 85.582031 6.53125 C 86.082031 6.53125 86.457031 6.109375 86.941406 5.359375 L 86.816406 5.296875 C 86.582031 5.609375 86.253906 6.0625 86.050781 6.0625 C 85.957031 6.0625 85.894531 5.984375 85.894531 5.890625 C 85.894531 5.859375 85.894531 5.84375 85.910156 5.8125 L 86.753906 2.625 L 87.566406 2.625 Z M 87.613281 2.3125 "
       id="path127" />
    <path
       style=" stroke:none;fill-rule:nonzero;fill:rgb(12.940979%,11.764526%,11.764526%);fill-opacity:1;"
       d="M 87.722656 8.15625 C 89.144531 7 90.207031 5.421875 90.207031 3.59375 C 90.207031 2.359375 89.957031 1.125 89.269531 0 L 89.082031 0.046875 C 89.332031 0.578125 89.550781 1.53125 89.550781 2.5625 C 89.550781 3.40625 89.394531 4.546875 89.003906 5.71875 C 88.566406 6.984375 88.019531 7.5625 87.597656 8 Z M 87.722656 8.15625 "
       id="path129" />
  </g>
</svg>
