<?xml version="1.0" encoding="UTF-8" standalone="no"?>
<svg
   xmlns:dc="http://purl.org/dc/elements/1.1/"
   xmlns:cc="http://creativecommons.org/ns#"
   xmlns:rdf="http://www.w3.org/1999/02/22-rdf-syntax-ns#"
   xmlns:svg="http://www.w3.org/2000/svg"
   xmlns="http://www.w3.org/2000/svg"
   xmlns:sodipodi="http://sodipodi.sourceforge.net/DTD/sodipodi-0.dtd"
   xmlns:inkscape="http://www.inkscape.org/namespaces/inkscape"
   width="93.750336pt"
   height="59.097748pt"
   viewBox="0 0 93.750336 59.097748"
   version="1.2"
   id="svg91"
   sodipodi:docname="ica_recovered_signal_blank_02.svg"
   inkscape:version="0.92.4 (5da689c313, 2019-01-14)">
  <metadata
     id="metadata95">
    <rdf:RDF>
      <cc:Work
         rdf:about="">
        <dc:format>image/svg+xml</dc:format>
        <dc:type
           rdf:resource="http://purl.org/dc/dcmitype/StillImage" />
        <dc:title></dc:title>
      </cc:Work>
    </rdf:RDF>
  </metadata>
  <sodipodi:namedview
     pagecolor="#ffffff"
     bordercolor="#666666"
     borderopacity="1"
     objecttolerance="10"
     gridtolerance="10"
     guidetolerance="10"
     inkscape:pageopacity="0"
     inkscape:pageshadow="2"
     inkscape:window-width="640"
     inkscape:window-height="480"
     id="namedview93"
     showgrid="false"
     inkscape:zoom="2.7519901"
     inkscape:cx="62.500224"
     inkscape:cy="39.398499"
     inkscape:window-x="0"
     inkscape:window-y="0"
     inkscape:window-maximized="0"
     inkscape:current-layer="svg91" />
  <defs
     id="defs8">
    <clipPath
       id="clip1">
      <path
         d="M 5 55 L 8 55 L 8 59.097656 L 5 59.097656 Z M 5 55 "
         id="path2" />
    </clipPath>
    <clipPath
       id="clip2">
      <path
         d="M 91 31 L 93.75 31 L 93.75 36 L 91 36 Z M 91 31 "
         id="path5" />
    </clipPath>
  </defs>
  <g
     id="surface32">
    <path
       style="fill:none;stroke-width:0.055;stroke-linecap:round;stroke-linejoin:round;stroke:rgb(12.940979%,11.764526%,11.764526%);stroke-opacity:1;stroke-miterlimit:4;"
       d="M 24.941406 33.511719 L 24.941406 33.027344 "
       id="path10" />
    <path
       style=" stroke:none;fill-rule:nonzero;fill:rgb(12.940979%,11.764526%,11.764526%);fill-opacity:1;"
       d="M 25.382813 38.382813 C 25.320313 38.507813 25.257813 38.617188 25.023438 38.617188 L 24.351563 38.617188 L 24.351563 38.585938 L 25.039063 37.898438 C 25.476563 37.460938 25.570313 37.289063 25.570313 37.054688 C 25.570313 36.789063 25.367188 36.460938 24.992188 36.460938 C 24.898438 36.460938 24.429688 36.460938 24.226563 37.023438 L 24.304688 37.054688 C 24.351563 36.960938 24.492188 36.710938 24.820313 36.710938 C 25.101563 36.710938 25.257813 36.929688 25.257813 37.148438 C 25.257813 37.273438 25.242188 37.476563 24.742188 38.023438 L 23.992188 38.820313 L 23.992188 38.882813 L 25.257813 38.882813 L 25.445313 38.414063 Z M 25.382813 38.382813 "
       id="path12" />
    <path
       style="fill:none;stroke-width:0.055;stroke-linecap:round;stroke-linejoin:round;stroke:rgb(12.940979%,11.764526%,11.764526%);stroke-opacity:1;stroke-miterlimit:4;"
       d="M 39.726563 33.511719 L 39.726563 33.027344 "
       id="path14" />
    <path
       style=" stroke:none;fill-rule:nonzero;fill:rgb(12.940979%,11.764526%,11.764526%);fill-opacity:1;"
       d="M 39.726563 38.023438 L 38.960938 38.023438 L 38.960938 38.007813 L 40.054688 36.867188 L 40.070313 36.867188 Z M 40.351563 38.023438 L 40.007813 38.023438 L 40.445313 36.460938 L 40.304688 36.460938 L 38.804688 38.007813 L 38.726563 38.242188 L 39.664063 38.242188 L 39.492188 38.882813 L 39.773438 38.882813 L 39.945313 38.257813 L 40.304688 38.257813 Z M 40.351563 38.023438 "
       id="path16" />
    <path
       style="fill:none;stroke-width:0.055;stroke-linecap:round;stroke-linejoin:round;stroke:rgb(12.940979%,11.764526%,11.764526%);stroke-opacity:1;stroke-miterlimit:4;"
       d="M 54.511719 33.511719 L 54.511719 33.027344 "
       id="path18" />
    <path
       style=" stroke:none;fill-rule:nonzero;fill:rgb(12.940979%,11.764526%,11.764526%);fill-opacity:1;"
       d="M 55.390625 36.414063 C 54.28125 36.492188 53.625 37.382813 53.625 38.132813 C 53.625 38.710938 53.984375 38.914063 54.265625 38.914063 C 54.875 38.914063 55.171875 38.304688 55.171875 37.945313 C 55.171875 37.429688 54.8125 37.273438 54.5625 37.273438 C 54.5 37.273438 54.453125 37.289063 54.40625 37.304688 C 54.34375 37.304688 54.296875 37.320313 54.25 37.351563 L 54.234375 37.351563 C 54.3125 37.164063 54.75 36.554688 55.390625 36.476563 Z M 54.421875 37.398438 C 54.703125 37.398438 54.859375 37.585938 54.859375 37.867188 C 54.859375 38.195313 54.65625 38.820313 54.25 38.820313 C 53.890625 38.820313 53.890625 38.414063 53.890625 38.320313 C 53.890625 38.257813 53.9375 37.398438 54.421875 37.398438 Z M 54.421875 37.398438 "
       id="path20" />
    <path
       style="fill:none;stroke-width:0.055;stroke-linecap:round;stroke-linejoin:round;stroke:rgb(12.940979%,11.764526%,11.764526%);stroke-opacity:1;stroke-miterlimit:4;"
       d="M 69.296875 33.511719 L 69.296875 33.027344 "
       id="path22" />
    <path
       style=" stroke:none;fill-rule:nonzero;fill:rgb(12.940979%,11.764526%,11.764526%);fill-opacity:1;"
       d="M 68.40625 38.320313 C 68.40625 38.429688 68.484375 38.914063 69.125 38.914063 C 69.609375 38.914063 69.890625 38.585938 69.890625 38.273438 C 69.890625 37.992188 69.75 37.773438 69.484375 37.507813 C 69.671875 37.445313 70.0625 37.320313 70.0625 36.960938 C 70.0625 36.570313 69.6875 36.460938 69.4375 36.460938 C 69.109375 36.460938 68.796875 36.632813 68.796875 36.992188 C 68.796875 37.179688 68.890625 37.351563 69.109375 37.585938 C 69.015625 37.617188 68.40625 37.804688 68.40625 38.320313 Z M 68.65625 38.335938 C 68.65625 37.867188 69.09375 37.679688 69.1875 37.648438 C 69.53125 38.007813 69.625 38.101563 69.625 38.335938 C 69.625 38.679688 69.34375 38.835938 69.15625 38.835938 C 68.84375 38.835938 68.65625 38.617188 68.65625 38.335938 Z M 69.078125 36.929688 C 69.078125 36.695313 69.203125 36.539063 69.4375 36.539063 C 69.734375 36.539063 69.828125 36.789063 69.828125 36.960938 C 69.828125 37.257813 69.609375 37.351563 69.421875 37.445313 C 69.078125 37.132813 69.078125 37.023438 69.078125 36.929688 Z M 69.078125 36.929688 "
       id="path24" />
    <path
       style="fill:none;stroke-width:0.055;stroke-linecap:round;stroke-linejoin:round;stroke:rgb(12.940979%,11.764526%,11.764526%);stroke-opacity:1;stroke-miterlimit:4;"
       d="M 84.082031 33.511719 L 84.082031 33.027344 "
       id="path26" />
    <path
       style=" stroke:none;fill-rule:nonzero;fill:rgb(12.940979%,11.764526%,11.764526%);fill-opacity:1;"
       d="M 82.257813 38.882813 L 83.257813 38.882813 L 83.257813 38.835938 C 83.085938 38.835938 82.960938 38.820313 82.960938 38.710938 C 82.960938 38.648438 83.007813 38.523438 83.023438 38.445313 L 83.539063 36.585938 C 83.554688 36.523438 83.570313 36.460938 83.539063 36.460938 C 83.507813 36.460938 83.007813 36.554688 82.851563 36.585938 L 82.851563 36.648438 L 83.054688 36.632813 C 83.085938 36.632813 83.179688 36.632813 83.179688 36.757813 C 83.179688 36.773438 83.164063 36.835938 83.164063 36.867188 L 82.664063 38.632813 C 82.617188 38.804688 82.476563 38.804688 82.257813 38.835938 Z M 82.257813 38.882813 "
       id="path28" />
    <path
       style=" stroke:none;fill-rule:nonzero;fill:rgb(12.940979%,11.764526%,11.764526%);fill-opacity:1;"
       d="M 84.289063 38.320313 C 84.289063 37.976563 84.539063 36.554688 85.070313 36.554688 C 85.382813 36.554688 85.382813 36.914063 85.382813 37.023438 C 85.382813 37.664063 85.070313 38.804688 84.601563 38.804688 C 84.476563 38.804688 84.289063 38.742188 84.289063 38.320313 Z M 85.664063 37.351563 C 85.664063 36.992188 85.570313 36.460938 85.101563 36.460938 C 84.601563 36.460938 83.992188 37.195313 83.992188 38.164063 C 83.992188 38.539063 84.195313 38.914063 84.570313 38.914063 C 85.179688 38.914063 85.664063 38.070313 85.664063 37.351563 Z M 85.664063 37.351563 "
       id="path30" />
    <path
       style="fill:none;stroke-width:0.4;stroke-linecap:round;stroke-linejoin:round;stroke:rgb(12.940979%,11.764526%,11.764526%);stroke-opacity:1;stroke-miterlimit:4;"
       d="M 10.707031 33.511719 L 85.929688 33.511719 "
       id="path32" />
    <path
       style=" stroke:none;fill-rule:nonzero;fill:rgb(12.940979%,11.764526%,11.764526%);fill-opacity:1;"
       d="M 87.347656 32.894531 C 86.355469 32.597656 85.710938 32.320313 84.914063 32 L 84.914063 35.027344 C 85.199219 34.894531 86.355469 34.433594 87.347656 34.132813 C 88.410156 33.8125 89.371094 33.59375 89.996094 33.515625 C 89.371094 33.4375 88.410156 33.21875 87.347656 32.894531 "
       id="path34" />
    <path
       style="fill:none;stroke-width:0.055;stroke-linecap:round;stroke-linejoin:round;stroke:rgb(12.940979%,11.764526%,11.764526%);stroke-opacity:1;stroke-miterlimit:4;"
       d="M 10.15625 57.496094 L 10.640625 57.496094 "
       id="path36" />
    <path
       style=" stroke:none;fill-rule:nonzero;fill:rgb(12.940979%,11.764526%,11.764526%);fill-opacity:1;"
       d="M 5.125 57.878906 L 4.0625 57.878906 L 4 58.175781 L 5.0625 58.175781 Z M 5.125 57.878906 "
       id="path38" />
    <g
       clip-path="url(#clip1)"
       clip-rule="nonzero"
       id="g42">
      <path
         style=" stroke:none;fill-rule:nonzero;fill:rgb(12.940979%,11.764526%,11.764526%);fill-opacity:1;"
         d="M 5.597656 59.097656 L 6.941406 59.097656 L 6.941406 59.019531 C 6.691406 59.035156 6.519531 59.019531 6.519531 58.863281 C 6.519531 58.785156 6.582031 58.613281 6.613281 58.519531 L 7.300781 56.035156 C 7.316406 55.957031 7.347656 55.847656 7.300781 55.847656 C 7.269531 55.847656 6.597656 56.003906 6.378906 56.035156 L 6.378906 56.113281 L 6.644531 56.097656 C 6.691406 56.097656 6.832031 56.097656 6.832031 56.253906 C 6.832031 56.285156 6.816406 56.363281 6.800781 56.410156 L 6.128906 58.769531 C 6.066406 58.988281 5.878906 59.003906 5.597656 59.035156 Z M 5.597656 59.097656 "
         id="path40" />
    </g>
    <path
       style="fill:none;stroke-width:0.055;stroke-linecap:round;stroke-linejoin:round;stroke:rgb(12.940979%,11.764526%,11.764526%);stroke-opacity:1;stroke-miterlimit:4;"
       d="M 10.15625 45.503906 L 10.640625 45.503906 "
       id="path44" />
    <path
       style=" stroke:none;fill-rule:nonzero;fill:rgb(12.940979%,11.764526%,11.764526%);fill-opacity:1;"
       d="M 1.125 45.886719 L 0.0625 45.886719 L 0 46.183594 L 1.0625 46.183594 Z M 1.125 45.886719 "
       id="path46" />
    <path
       style=" stroke:none;fill-rule:nonzero;fill:rgb(12.940979%,11.764526%,11.764526%);fill-opacity:1;"
       d="M 1.894531 46.355469 C 1.894531 45.886719 2.238281 43.996094 2.957031 43.996094 C 3.363281 43.996094 3.363281 44.480469 3.363281 44.636719 C 3.363281 45.464844 2.957031 47.011719 2.316406 47.011719 C 2.160156 47.011719 1.894531 46.917969 1.894531 46.355469 Z M 3.753906 45.058594 C 3.753906 44.589844 3.613281 43.855469 2.972656 43.855469 C 2.316406 43.855469 1.519531 44.855469 1.519531 46.152344 C 1.519531 46.652344 1.785156 47.136719 2.285156 47.136719 C 3.097656 47.136719 3.753906 46.011719 3.753906 45.058594 Z M 3.753906 45.058594 "
       id="path48" />
    <path
       style=" stroke:none;fill-rule:nonzero;fill:rgb(12.940979%,11.764526%,11.764526%);fill-opacity:1;"
       d="M 4.15625 47.152344 C 4.265625 47.152344 4.421875 47.074219 4.421875 46.902344 C 4.421875 46.746094 4.296875 46.621094 4.15625 46.621094 C 4.015625 46.621094 3.890625 46.746094 3.890625 46.902344 C 3.890625 47.074219 4.0625 47.152344 4.15625 47.152344 Z M 4.15625 47.152344 "
       id="path50" />
    <path
       style=" stroke:none;fill-rule:nonzero;fill:rgb(12.940979%,11.764526%,11.764526%);fill-opacity:1;"
       d="M 6.105469 44.246094 L 7.214844 44.246094 L 7.324219 43.917969 L 6.089844 43.917969 L 5.589844 44.949219 L 5.589844 45.027344 C 6.152344 45.152344 6.636719 45.246094 6.636719 45.980469 C 6.636719 46.402344 6.292969 46.933594 5.824219 46.933594 C 5.558594 46.933594 5.449219 46.667969 5.230469 46.667969 C 5.136719 46.667969 5.042969 46.730469 5.042969 46.871094 C 5.042969 47.011719 5.183594 47.136719 5.527344 47.136719 C 6.464844 47.136719 6.980469 46.402344 6.980469 45.792969 C 6.980469 45.136719 6.542969 44.792969 5.917969 44.667969 Z M 6.105469 44.246094 "
       id="path52" />
    <path
       style="fill:none;stroke-width:0.055;stroke-linecap:round;stroke-linejoin:round;stroke:rgb(12.940979%,11.764526%,11.764526%);stroke-opacity:1;stroke-miterlimit:4;"
       d="M 10.15625 21.519531 L 10.640625 21.519531 "
       id="path54" />
    <path
       style=" stroke:none;fill-rule:nonzero;fill:rgb(12.940979%,11.764526%,11.764526%);fill-opacity:1;"
       d="M 2.121094 22.367188 C 2.121094 21.898438 2.464844 20.007813 3.183594 20.007813 C 3.589844 20.007813 3.589844 20.492188 3.589844 20.648438 C 3.589844 21.476563 3.183594 23.023438 2.542969 23.023438 C 2.386719 23.023438 2.121094 22.929688 2.121094 22.367188 Z M 3.980469 21.070313 C 3.980469 20.601563 3.839844 19.867188 3.199219 19.867188 C 2.542969 19.867188 1.746094 20.867188 1.746094 22.164063 C 1.746094 22.664063 2.011719 23.148438 2.511719 23.148438 C 3.324219 23.148438 3.980469 22.023438 3.980469 21.070313 Z M 3.980469 21.070313 "
       id="path56" />
    <path
       style=" stroke:none;fill-rule:nonzero;fill:rgb(12.940979%,11.764526%,11.764526%);fill-opacity:1;"
       d="M 4.378906 23.164063 C 4.488281 23.164063 4.644531 23.085938 4.644531 22.914063 C 4.644531 22.757813 4.519531 22.632813 4.378906 22.632813 C 4.238281 22.632813 4.113281 22.757813 4.113281 22.914063 C 4.113281 23.085938 4.285156 23.164063 4.378906 23.164063 Z M 4.378906 23.164063 "
       id="path58" />
    <path
       style=" stroke:none;fill-rule:nonzero;fill:rgb(12.940979%,11.764526%,11.764526%);fill-opacity:1;"
       d="M 6.328125 20.257813 L 7.4375 20.257813 L 7.546875 19.929688 L 6.3125 19.929688 L 5.8125 20.960938 L 5.8125 21.039063 C 6.375 21.164063 6.859375 21.257813 6.859375 21.992188 C 6.859375 22.414063 6.515625 22.945313 6.046875 22.945313 C 5.78125 22.945313 5.671875 22.679688 5.453125 22.679688 C 5.359375 22.679688 5.265625 22.742188 5.265625 22.882813 C 5.265625 23.023438 5.40625 23.148438 5.75 23.148438 C 6.6875 23.148438 7.203125 22.414063 7.203125 21.804688 C 7.203125 21.148438 6.765625 20.804688 6.140625 20.679688 Z M 6.328125 20.257813 "
       id="path60" />
    <path
       style="fill:none;stroke-width:0.055;stroke-linecap:round;stroke-linejoin:round;stroke:rgb(12.940979%,11.764526%,11.764526%);stroke-opacity:1;stroke-miterlimit:4;"
       d="M 10.15625 9.527344 L 10.640625 9.527344 "
       id="path62" />
    <path
       style=" stroke:none;fill-rule:nonzero;fill:rgb(12.940979%,11.764526%,11.764526%);fill-opacity:1;"
       d="M 5.824219 11.128906 L 7.167969 11.128906 L 7.167969 11.050781 C 6.917969 11.066406 6.746094 11.050781 6.746094 10.894531 C 6.746094 10.816406 6.808594 10.644531 6.839844 10.550781 L 7.527344 8.066406 C 7.542969 7.988281 7.574219 7.878906 7.527344 7.878906 C 7.496094 7.878906 6.824219 8.035156 6.605469 8.066406 L 6.605469 8.144531 L 6.871094 8.128906 C 6.917969 8.128906 7.058594 8.128906 7.058594 8.285156 C 7.058594 8.316406 7.042969 8.394531 7.027344 8.441406 L 6.355469 10.800781 C 6.292969 11.019531 6.105469 11.035156 5.824219 11.066406 Z M 5.824219 11.128906 "
       id="path64" />
    <path
       style="fill:none;stroke-width:0.055;stroke-linecap:round;stroke-linejoin:round;stroke:rgb(12.940979%,11.764526%,11.764526%);stroke-opacity:1;stroke-miterlimit:4;"
       d="M 10.15625 57.496094 L 10.15625 9.527344 "
       id="path66" />
    <path
       style="fill:none;stroke-width:0.073;stroke-linecap:round;stroke-linejoin:round;stroke:rgb(12.940979%,11.764526%,11.764526%);stroke-opacity:1;stroke-miterlimit:4;"
       d="M 10.15625 33.511719 L 10.515625 22.320313 L 10.691406 17.78125 L 10.855469 14.289063 L 10.945313 12.71875 L 11.046875 11.394531 L 11.136719 10.542969 L 11.222656 10.066406 L 11.3125 9.898438 L 11.414063 10.128906 L 11.464844 10.40625 L 11.519531 10.824219 L 11.617188 11.886719 L 11.71875 13.394531 L 11.816406 15.132813 L 12.027344 20.128906 L 12.421875 31.664063 L 12.773438 42.492188 L 12.960938 47.480469 L 13.15625 51.769531 L 13.261719 53.5625 L 13.320313 54.34375 L 13.378906 55.046875 L 13.4375 55.566406 L 13.484375 55.933594 L 13.582031 56.34375 L 13.683594 56.34375 L 13.738281 56.164063 L 13.789063 55.882813 L 13.886719 55.082031 L 13.984375 53.84375 L 14.171875 50.636719 L 14.34375 46.671875 L 14.738281 35.429688 L 15.136719 23.757813 L 15.351563 18.402344 L 15.550781 14.589844 L 15.65625 13.132813 L 15.714844 12.5 L 15.769531 12.039063 L 15.828125 11.667969 L 15.890625 11.421875 L 15.949219 11.335938 L 16.007813 11.390625 L 16.105469 11.785156 L 16.160156 12.175781 L 16.214844 12.644531 L 16.316406 13.894531 L 16.425781 15.667969 L 16.625 19.753906 L 16.835938 25.140625 L 17.214844 36.117188 L 17.425781 42.121094 L 17.652344 47.757813 L 17.761719 49.910156 L 17.871094 51.816406 L 17.964844 53.109375 L 18.015625 53.660156 L 18.070313 54.152344 L 18.125 54.542969 L 18.175781 54.800781 L 18.273438 55.003906 L 18.335938 54.945313 L 18.394531 54.761719 L 18.4375 54.496094 L 18.5 54.09375 L 18.59375 53.097656 L 18.695313 51.644531 L 18.886719 48.109375 L 19.277344 38.363281 L 19.632813 28.320313 L 20 19.230469 L 20.105469 17.195313 L 20.207031 15.59375 L 20.296875 14.433594 L 20.394531 13.5 L 20.480469 12.96875 L 20.574219 12.703125 L 20.671875 12.78125 L 20.761719 13.183594 L 20.847656 13.839844 L 20.925781 14.671875 L 21.105469 17.28125 L 21.308594 21.453125 L 21.496094 26.121094 L 21.929688 37.867188 L 22.308594 47.046875 L 22.5 50.445313 L 22.609375 51.878906 L 22.710938 52.859375 L 22.800781 53.421875 L 22.898438 53.679688 L 22.988281 53.609375 L 23.074219 53.273438 L 23.171875 52.5625 L 23.234375 52.007813 L 23.277344 51.410156 L 23.472656 48.402344 L 23.660156 44.578125 L 23.863281 39.605469 L 24.273438 28.648438 L 24.632813 20.339844 L 24.734375 18.453125 L 24.832031 16.933594 L 24.921875 15.804688 L 25.015625 14.886719 L 25.105469 14.300781 L 25.1875 14.011719 L 25.273438 13.964844 L 25.347656 14.144531 L 25.441406 14.621094 L 25.523438 15.308594 L 25.613281 16.328125 L 25.710938 17.6875 L 25.90625 21.269531 L 26.097656 25.445313 L 26.648438 39.433594 L 26.859375 44.304688 L 27.054688 48.023438 L 27.148438 49.484375 L 27.234375 50.585938 L 27.3125 51.339844 L 27.390625 51.929688 L 27.472656 52.304688 L 27.5625 52.464844 L 27.648438 52.347656 L 27.746094 51.917969 L 27.835938 51.234375 L 27.921875 50.382813 L 28.101563 47.761719 L 28.300781 43.964844 L 28.660156 35.445313 L 29.015625 26.691406 L 29.210938 22.441406 L 29.394531 19.132813 L 29.5 17.660156 L 29.554688 17.011719 L 29.613281 16.421875 L 29.667969 15.972656 L 29.71875 15.648438 L 29.8125 15.246094 L 29.914063 15.152344 L 29.96875 15.238281 L 30.019531 15.402344 L 30.109375 15.925781 L 30.207031 16.765625 L 30.308594 17.960938 L 30.402344 19.300781 L 30.613281 23.074219 "
       id="path68" />
    <path
       style="fill:none;stroke-width:0.073;stroke-linecap:round;stroke-linejoin:round;stroke:rgb(12.940979%,11.764526%,11.764526%);stroke-opacity:1;stroke-miterlimit:4;"
       d="M 30.609375 23.074219 L 30.984375 31.664063 L 31.398438 41.476563 L 31.625 45.941406 L 31.734375 47.714844 L 31.839844 49.054688 L 31.929688 50.003906 L 32.015625 50.671875 L 32.105469 51.121094 L 32.203125 51.308594 L 32.304688 51.167969 L 32.363281 50.941406 L 32.414063 50.648438 L 32.515625 49.84375 L 32.609375 48.8125 L 32.789063 46.210938 L 32.949219 43.175781 L 33.324219 34.898438 L 33.730469 25.621094 L 33.925781 21.816406 L 34.109375 19.089844 L 34.207031 17.960938 L 34.296875 17.148438 L 34.398438 16.570313 L 34.449219 16.378906 L 34.5 16.28125 L 34.601563 16.335938 L 34.65625 16.507813 L 34.714844 16.757813 L 34.769531 17.117188 L 34.820313 17.523438 L 34.9375 18.726563 L 35.128906 21.5 L 35.304688 24.714844 L 36.066406 41.433594 L 36.226563 44.460938 L 36.402344 47.167969 L 36.503906 48.339844 L 36.597656 49.191406 L 36.695313 49.820313 L 36.75 50.050781 L 36.800781 50.175781 L 36.855469 50.226563 L 36.90625 50.191406 L 36.960938 50.0625 L 37.023438 49.820313 L 37.078125 49.492188 L 37.132813 49.101563 L 37.230469 48.152344 L 37.425781 45.550781 L 37.605469 42.429688 L 38.375 26.046875 L 38.574219 22.433594 L 38.675781 20.945313 L 38.765625 19.777344 L 38.851563 18.886719 L 38.945313 18.128906 L 39.039063 17.609375 L 39.136719 17.339844 L 39.222656 17.339844 L 39.3125 17.566406 L 39.398438 18 L 39.472656 18.578125 L 39.566406 19.484375 L 39.667969 20.699219 L 39.847656 23.449219 L 40.257813 31.519531 L 40.683594 40.476563 L 40.871094 43.8125 L 40.972656 45.316406 L 41.078125 46.691406 L 41.183594 47.765625 L 41.277344 48.496094 L 41.375 48.976563 L 41.464844 49.1875 L 41.566406 49.148438 L 41.664063 48.84375 L 41.710938 48.589844 L 41.765625 48.226563 L 41.875 47.257813 L 41.984375 45.96875 L 42.089844 44.542969 L 42.320313 40.609375 L 42.929688 28.253906 L 43.132813 24.535156 L 43.320313 21.710938 L 43.414063 20.597656 L 43.5 19.753906 L 43.597656 19.023438 L 43.648438 18.742188 L 43.699219 18.515625 L 43.789063 18.320313 L 43.882813 18.347656 L 43.9375 18.476563 L 43.988281 18.667969 L 44.046875 18.96875 L 44.097656 19.339844 L 44.195313 20.179688 L 44.304688 21.359375 L 44.5 24.199219 L 44.714844 27.992188 L 45.105469 35.742188 L 45.449219 42.136719 L 45.648438 44.988281 L 45.738281 46.074219 L 45.832031 46.914063 L 45.882813 47.300781 L 45.9375 47.644531 L 46.03125 48.066406 L 46.082031 48.195313 L 46.140625 48.253906 L 46.242188 48.128906 L 46.296875 47.964844 L 46.347656 47.703125 L 46.449219 47.039063 L 46.570313 45.925781 L 46.679688 44.625 L 47.058594 38.480469 L 47.457031 30.734375 L 47.640625 27.355469 L 47.839844 24.136719 L 47.929688 22.878906 L 48.027344 21.722656 L 48.109375 20.886719 L 48.199219 20.171875 L 48.300781 19.59375 L 48.398438 19.296875 L 48.457031 19.230469 L 48.511719 19.25 L 48.5625 19.335938 L 48.613281 19.5 L 48.707031 19.96875 L 48.8125 20.710938 L 48.90625 21.625 L 48.988281 22.621094 L 49.6875 34.402344 L 50.0625 41.125 L 50.25 43.761719 L 50.417969 45.605469 L 50.511719 46.351563 L 50.597656 46.875 L 50.691406 47.21875 L 50.789063 47.355469 L 50.839844 47.328125 L 50.890625 47.226563 L 50.949219 47.046875 L 51 46.804688 L 51.097656 46.203125 "
       id="path70" />
    <path
       style="fill:none;stroke-width:0.073;stroke-linecap:round;stroke-linejoin:round;stroke:rgb(12.940979%,11.764526%,11.764526%);stroke-opacity:1;stroke-miterlimit:4;"
       d="M 51.097656 46.203125 L 51.195313 45.332031 L 51.390625 43.101563 L 51.570313 40.390625 L 51.914063 34.367188 L 52.289063 27.691406 L 52.496094 24.578125 L 52.6875 22.285156 L 52.796875 21.3125 L 52.855469 20.914063 L 52.917969 20.574219 L 52.96875 20.359375 L 53.023438 20.195313 L 53.125 20.101563 L 53.226563 20.253906 L 53.28125 20.445313 L 53.335938 20.691406 L 53.4375 21.34375 L 53.53125 22.171875 L 53.714844 24.261719 L 53.886719 26.738281 L 54.28125 33.460938 L 54.695313 40.457031 L 54.875 42.9375 L 54.972656 44.023438 L 55.078125 44.984375 L 55.167969 45.648438 L 55.25 46.09375 L 55.332031 46.382813 L 55.410156 46.503906 L 55.5 46.464844 L 55.578125 46.269531 L 55.671875 45.878906 L 55.761719 45.269531 L 55.851563 44.53125 L 55.945313 43.566406 L 56.117188 41.425781 L 56.507813 35.25 L 56.886719 28.800781 L 57.09375 25.710938 L 57.289063 23.378906 L 57.402344 22.359375 L 57.460938 21.925781 L 57.523438 21.550781 L 57.574219 21.300781 L 57.632813 21.09375 L 57.734375 20.921875 L 57.789063 20.925781 L 57.839844 20.984375 L 57.894531 21.125 L 57.945313 21.320313 L 58.042969 21.832031 L 58.148438 22.601563 L 58.335938 24.515625 L 58.539063 27.269531 L 58.957031 34.011719 L 59.316406 39.6875 L 59.519531 42.328125 L 59.617188 43.378906 L 59.707031 44.179688 L 59.800781 44.855469 L 59.890625 45.316406 L 59.988281 45.621094 L 60.089844 45.71875 L 60.191406 45.589844 L 60.242188 45.433594 L 60.300781 45.199219 L 60.398438 44.621094 L 60.492188 43.898438 L 60.675781 42.042969 L 60.839844 39.90625 L 61.210938 34.164063 L 61.609375 27.949219 L 61.816406 25.230469 L 61.933594 24.011719 L 62.042969 23.082031 L 62.144531 22.402344 L 62.203125 22.117188 L 62.257813 21.917969 L 62.351563 21.714844 L 62.449219 21.703125 L 62.546875 21.894531 L 62.632813 22.234375 L 62.730469 22.792969 L 62.832031 23.582031 L 63.027344 25.648438 L 63.242188 28.449219 L 63.621094 34.296875 L 63.839844 37.566406 L 64.066406 40.679688 L 64.179688 41.949219 L 64.28125 42.976563 L 64.382813 43.738281 L 64.484375 44.359375 L 64.578125 44.753906 L 64.667969 44.941406 L 64.757813 44.96875 L 64.839844 44.84375 L 64.9375 44.519531 L 65.027344 44.054688 L 65.125 43.371094 L 65.226563 42.460938 L 65.617188 37.667969 L 66.046875 31.222656 L 66.242188 28.445313 L 66.453125 25.839844 L 66.550781 24.847656 L 66.652344 23.964844 L 66.742188 23.355469 L 66.839844 22.851563 L 66.929688 22.542969 L 67.015625 22.410156 L 67.113281 22.441406 L 67.210938 22.664063 L 67.296875 23.023438 L 67.378906 23.480469 L 67.5625 24.945313 L 67.773438 27.273438 L 67.972656 29.929688 L 68.34375 35.386719 L 68.75 40.648438 L 68.859375 41.773438 L 68.972656 42.757813 L 69.074219 43.417969 L 69.128906 43.695313 L 69.183594 43.933594 L 69.285156 44.203125 L 69.378906 44.277344 L 69.433594 44.238281 L 69.488281 44.144531 L 69.589844 43.820313 L 69.6875 43.328125 L 69.773438 42.734375 L 69.972656 40.929688 L 70.320313 36.585938 L 70.691406 31.339844 L 71.066406 26.632813 L 71.175781 25.5625 L 71.277344 24.707031 L 71.371094 24.078125 L 71.46875 23.566406 L 71.519531 23.371094 L 71.574219 23.210938 L 71.675781 23.082031 L 71.734375 23.09375 L 71.796875 23.175781 L 71.855469 23.316406 L 71.90625 23.503906 L 72 23.964844 L 72.105469 24.644531 L 72.316406 26.527344 "
       id="path72" />
    <path
       style="fill:none;stroke-width:0.073;stroke-linecap:round;stroke-linejoin:round;stroke:rgb(12.940979%,11.764526%,11.764526%);stroke-opacity:1;stroke-miterlimit:4;"
       d="M 72.316406 26.527344 L 72.691406 31.152344 L 73.097656 36.738281 L 73.285156 39.054688 L 73.484375 41.109375 L 73.652344 42.425781 L 73.75 42.972656 L 73.839844 43.335938 L 73.890625 43.480469 L 73.949219 43.582031 L 74.003906 43.621094 L 74.054688 43.609375 L 74.148438 43.460938 L 74.25 43.117188 L 74.304688 42.871094 L 74.359375 42.554688 L 74.460938 41.855469 L 74.691406 39.703125 L 75.09375 34.742188 L 75.46875 29.820313 L 75.652344 27.679688 L 75.828125 25.996094 L 75.921875 25.242188 L 76.027344 24.582031 L 76.121094 24.136719 L 76.207031 23.867188 L 76.304688 23.726563 L 76.398438 23.742188 L 76.496094 23.933594 L 76.550781 24.117188 L 76.601563 24.328125 L 76.707031 24.886719 L 76.816406 25.683594 L 77.019531 27.566406 L 77.464844 32.925781 L 77.878906 38.136719 L 78.0625 40.027344 L 78.253906 41.589844 L 78.355469 42.191406 L 78.40625 42.445313 L 78.464844 42.671875 L 78.566406 42.925781 L 78.65625 43.007813 L 78.761719 42.921875 L 78.855469 42.6875 L 78.902344 42.503906 L 78.957031 42.253906 L 79.066406 41.609375 L 79.269531 39.996094 L 79.457031 38.054688 L 80.1875 29.210938 L 80.382813 27.1875 L 80.492188 26.269531 L 80.59375 25.5625 L 80.679688 25.074219 L 80.773438 24.679688 L 80.875 24.410156 L 80.96875 24.3125 L 81.023438 24.320313 L 81.078125 24.386719 L 81.175781 24.625 L 81.234375 24.828125 L 81.285156 25.0625 L 81.402344 25.75 L 81.601563 27.320313 L 81.8125 29.484375 L 82.371094 36.140625 L 82.664063 39.257813 L 82.828125 40.628906 L 82.90625 41.152344 L 82.980469 41.558594 L 83.046875 41.878906 L 83.121094 42.144531 L 83.195313 42.328125 L 83.273438 42.421875 L 83.34375 42.417969 L 83.417969 42.328125 L 83.488281 42.164063 L 83.550781 41.945313 L 83.621094 41.644531 L 83.679688 41.304688 L 83.824219 40.339844 L 84.082031 37.980469 "
       id="path74" />
    <g
       clip-path="url(#clip2)"
       clip-rule="nonzero"
       id="g78">
      <path
         style=" stroke:none;fill-rule:nonzero;fill:rgb(12.940979%,11.764526%,11.764526%);fill-opacity:1;"
         d="M 93.75 32.015625 L 93.1875 32.015625 L 93.375 31.265625 C 93.390625 31.21875 93.375 31.140625 93.328125 31.15625 C 93.265625 31.140625 93.234375 31.21875 93.203125 31.25 C 93.015625 31.5 92.65625 31.828125 92.421875 31.953125 C 92.296875 32.015625 92.09375 32.0625 92.0625 32.125 C 92.03125 32.15625 92.03125 32.203125 92.046875 32.234375 L 92.578125 32.234375 L 92.0625 34.21875 C 92.03125 34.34375 91.890625 34.78125 91.890625 34.890625 C 91.890625 35.09375 92.09375 35.171875 92.234375 35.171875 C 92.609375 35.171875 92.890625 34.859375 93.265625 34.296875 L 93.171875 34.25 C 92.984375 34.484375 92.734375 34.8125 92.59375 34.8125 C 92.515625 34.8125 92.46875 34.765625 92.46875 34.703125 C 92.46875 34.671875 92.46875 34.65625 92.484375 34.640625 L 93.109375 32.234375 L 93.71875 32.234375 Z M 93.75 32.015625 "
         id="path76" />
    </g>
    <path
       style=" stroke:none;fill-rule:nonzero;fill:rgb(12.940979%,11.764526%,11.764526%);fill-opacity:1;"
       d="M 0.445313 2.578125 C 0.570313 2.5625 0.632813 2.546875 0.773438 2.546875 C 1.320313 2.546875 1.445313 2.953125 1.710938 3.828125 C 1.867188 4.34375 2.273438 6.03125 2.273438 6.390625 C 2.273438 6.65625 1.867188 7.125 1.632813 7.40625 C 1.304688 7.78125 1.179688 7.875 1.023438 7.875 C 0.851563 7.875 0.726563 7.609375 0.445313 7.609375 C 0.242188 7.609375 0.0703125 7.765625 0.0703125 7.96875 C 0.0703125 8.375 0.492188 8.390625 0.570313 8.390625 C 1.710938 8.390625 4.398438 3.921875 4.398438 2.78125 C 4.398438 2.4375 4.195313 2.1875 3.851563 2.1875 C 3.601563 2.1875 3.492188 2.390625 3.492188 2.53125 C 3.492188 2.96875 4.007813 2.859375 4.007813 3.25 C 4.007813 3.765625 3.242188 5.0625 2.835938 5.734375 L 2.648438 4.625 C 2.523438 3.90625 1.960938 2.1875 1.835938 2.1875 C 1.664063 2.1875 0.914063 2.34375 0.445313 2.421875 Z M 0.445313 2.578125 "
       id="path80" />
    <path
       style=" stroke:none;fill-rule:nonzero;fill:rgb(12.940979%,11.764526%,11.764526%);fill-opacity:1;"
       d="M 6.800781 7.242188 C 6.707031 7.445313 6.613281 7.601563 6.253906 7.601563 L 5.191406 7.601563 L 5.191406 7.570313 L 6.253906 6.492188 C 6.957031 5.804688 7.097656 5.554688 7.097656 5.179688 C 7.097656 4.757813 6.785156 4.242188 6.191406 4.242188 C 6.050781 4.242188 5.316406 4.257813 5.019531 5.132813 L 5.128906 5.179688 C 5.207031 5.039063 5.425781 4.648438 5.925781 4.648438 C 6.363281 4.648438 6.613281 4.992188 6.613281 5.335938 C 6.613281 5.523438 6.597656 5.835938 5.800781 6.679688 L 4.628906 7.929688 L 4.628906 8.023438 L 6.613281 8.023438 L 6.894531 7.289063 Z M 6.800781 7.242188 "
       id="path82" />
    <path
       style=" stroke:none;fill-rule:nonzero;fill:rgb(12.940979%,11.764526%,11.764526%);fill-opacity:1;"
       d="M 8.898438 8.09375 C 8.429688 6.921875 8.429688 6.078125 8.429688 5.4375 C 8.429688 4.828125 8.601563 3.53125 8.976563 2.453125 C 9.445313 1.140625 9.929688 0.625 10.382813 0.140625 L 10.257813 0 C 8.523438 1.484375 7.773438 2.984375 7.773438 4.5625 C 7.773438 5.1875 7.773438 6.578125 8.726563 8.15625 Z M 8.898438 8.09375 "
       id="path84" />
    <path
       style=" stroke:none;fill-rule:nonzero;fill:rgb(12.940979%,11.764526%,11.764526%);fill-opacity:1;"
       d="M 13.40625 2.3125 L 12.640625 2.3125 L 12.90625 1.328125 C 12.921875 1.25 12.90625 1.171875 12.84375 1.1875 C 12.75 1.171875 12.71875 1.25 12.671875 1.296875 C 12.40625 1.640625 11.9375 2.0625 11.625 2.234375 C 11.46875 2.3125 11.203125 2.390625 11.140625 2.46875 C 11.109375 2.515625 11.109375 2.5625 11.125 2.625 L 11.828125 2.625 L 11.140625 5.265625 C 11.09375 5.421875 10.921875 6 10.921875 6.140625 C 10.921875 6.4375 11.1875 6.53125 11.375 6.53125 C 11.875 6.53125 12.25 6.109375 12.734375 5.359375 L 12.609375 5.296875 C 12.375 5.609375 12.046875 6.0625 11.84375 6.0625 C 11.75 6.0625 11.6875 5.984375 11.6875 5.890625 C 11.6875 5.859375 11.6875 5.84375 11.703125 5.8125 L 12.546875 2.625 L 13.359375 2.625 Z M 13.40625 2.3125 "
       id="path86" />
    <path
       style=" stroke:none;fill-rule:nonzero;fill:rgb(12.940979%,11.764526%,11.764526%);fill-opacity:1;"
       d="M 13.511719 8.15625 C 14.933594 7 15.996094 5.421875 15.996094 3.59375 C 15.996094 2.359375 15.746094 1.125 15.058594 0 L 14.871094 0.046875 C 15.121094 0.578125 15.339844 1.53125 15.339844 2.5625 C 15.339844 3.40625 15.183594 4.546875 14.792969 5.71875 C 14.355469 6.984375 13.808594 7.5625 13.386719 8 Z M 13.511719 8.15625 "
       id="path88" />
  </g>
</svg>
