<?xml version="1.0" encoding="UTF-8" standalone="no"?>
<svg
   xmlns:dc="http://purl.org/dc/elements/1.1/"
   xmlns:cc="http://creativecommons.org/ns#"
   xmlns:rdf="http://www.w3.org/1999/02/22-rdf-syntax-ns#"
   xmlns:svg="http://www.w3.org/2000/svg"
   xmlns="http://www.w3.org/2000/svg"
   xmlns:sodipodi="http://sodipodi.sourceforge.net/DTD/sodipodi-0.dtd"
   xmlns:inkscape="http://www.inkscape.org/namespaces/inkscape"
   width="166.428894pt"
   height="59.175873pt"
   viewBox="0 0 166.428894 59.175873"
   version="1.2"
   id="svg159"
   sodipodi:docname="ica_recovered_signal_02.svg"
   inkscape:version="0.92.4 (5da689c313, 2019-01-14)">
  <metadata
     id="metadata163">
    <rdf:RDF>
      <cc:Work
         rdf:about="">
        <dc:format>image/svg+xml</dc:format>
        <dc:type
           rdf:resource="http://purl.org/dc/dcmitype/StillImage" />
        <dc:title></dc:title>
      </cc:Work>
    </rdf:RDF>
  </metadata>
  <sodipodi:namedview
     pagecolor="#ffffff"
     bordercolor="#666666"
     borderopacity="1"
     objecttolerance="10"
     gridtolerance="10"
     guidetolerance="10"
     inkscape:pageopacity="0"
     inkscape:pageshadow="2"
     inkscape:window-width="640"
     inkscape:window-height="480"
     id="namedview161"
     showgrid="false"
     inkscape:zoom="1.5502116"
     inkscape:cx="110.9526"
     inkscape:cy="39.450582"
     inkscape:window-x="0"
     inkscape:window-y="0"
     inkscape:window-maximized="0"
     inkscape:current-layer="svg159" />
  <defs
     id="defs8">
    <clipPath
       id="clip1">
      <path
         d="M 5 55 L 8 55 L 8 59.175781 L 5 59.175781 Z M 5 55 "
         id="path2" />
    </clipPath>
    <clipPath
       id="clip2">
      <path
         d="M 162 0 L 166.429688 0 L 166.429688 8 L 162 8 Z M 162 0 "
         id="path5" />
    </clipPath>
  </defs>
  <g
     id="surface40">
    <path
       style="fill:none;stroke-width:0.055;stroke-linecap:round;stroke-linejoin:round;stroke:rgb(12.940979%,11.764526%,11.764526%);stroke-opacity:1;stroke-miterlimit:4;"
       d="M 24.941406 33.589844 L 24.941406 33.105469 "
       id="path10" />
    <path
       style=" stroke:none;fill-rule:nonzero;fill:rgb(12.940979%,11.764526%,11.764526%);fill-opacity:1;"
       d="M 25.382813 38.460938 C 25.320313 38.585938 25.257813 38.695313 25.023438 38.695313 L 24.351563 38.695313 L 24.351563 38.664063 L 25.039063 37.976563 C 25.476563 37.539063 25.570313 37.367188 25.570313 37.132813 C 25.570313 36.867188 25.367188 36.539063 24.992188 36.539063 C 24.898438 36.539063 24.429688 36.539063 24.226563 37.101563 L 24.304688 37.132813 C 24.351563 37.039063 24.492188 36.789063 24.820313 36.789063 C 25.101563 36.789063 25.257813 37.007813 25.257813 37.226563 C 25.257813 37.351563 25.242188 37.554688 24.742188 38.101563 L 23.992188 38.898438 L 23.992188 38.960938 L 25.257813 38.960938 L 25.445313 38.492188 Z M 25.382813 38.460938 "
       id="path12" />
    <path
       style="fill:none;stroke-width:0.055;stroke-linecap:round;stroke-linejoin:round;stroke:rgb(12.940979%,11.764526%,11.764526%);stroke-opacity:1;stroke-miterlimit:4;"
       d="M 39.726563 33.589844 L 39.726563 33.105469 "
       id="path14" />
    <path
       style=" stroke:none;fill-rule:nonzero;fill:rgb(12.940979%,11.764526%,11.764526%);fill-opacity:1;"
       d="M 39.726563 38.101563 L 38.960938 38.101563 L 38.960938 38.085938 L 40.054688 36.945313 L 40.070313 36.945313 Z M 40.351563 38.101563 L 40.007813 38.101563 L 40.445313 36.539063 L 40.304688 36.539063 L 38.804688 38.085938 L 38.726563 38.320313 L 39.664063 38.320313 L 39.492188 38.960938 L 39.773438 38.960938 L 39.945313 38.335938 L 40.304688 38.335938 Z M 40.351563 38.101563 "
       id="path16" />
    <path
       style="fill:none;stroke-width:0.055;stroke-linecap:round;stroke-linejoin:round;stroke:rgb(12.940979%,11.764526%,11.764526%);stroke-opacity:1;stroke-miterlimit:4;"
       d="M 54.511719 33.589844 L 54.511719 33.105469 "
       id="path18" />
    <path
       style=" stroke:none;fill-rule:nonzero;fill:rgb(12.940979%,11.764526%,11.764526%);fill-opacity:1;"
       d="M 55.390625 36.492188 C 54.28125 36.570313 53.625 37.460938 53.625 38.210938 C 53.625 38.789063 53.984375 38.992188 54.265625 38.992188 C 54.875 38.992188 55.171875 38.382813 55.171875 38.023438 C 55.171875 37.507813 54.8125 37.351563 54.5625 37.351563 C 54.5 37.351563 54.453125 37.367188 54.40625 37.382813 C 54.34375 37.382813 54.296875 37.398438 54.25 37.429688 L 54.234375 37.429688 C 54.3125 37.242188 54.75 36.632813 55.390625 36.554688 Z M 54.421875 37.476563 C 54.703125 37.476563 54.859375 37.664063 54.859375 37.945313 C 54.859375 38.273438 54.65625 38.898438 54.25 38.898438 C 53.890625 38.898438 53.890625 38.492188 53.890625 38.398438 C 53.890625 38.335938 53.9375 37.476563 54.421875 37.476563 Z M 54.421875 37.476563 "
       id="path20" />
    <path
       style="fill:none;stroke-width:0.055;stroke-linecap:round;stroke-linejoin:round;stroke:rgb(12.940979%,11.764526%,11.764526%);stroke-opacity:1;stroke-miterlimit:4;"
       d="M 69.296875 33.589844 L 69.296875 33.105469 "
       id="path22" />
    <path
       style=" stroke:none;fill-rule:nonzero;fill:rgb(12.940979%,11.764526%,11.764526%);fill-opacity:1;"
       d="M 68.40625 38.398438 C 68.40625 38.507813 68.484375 38.992188 69.125 38.992188 C 69.609375 38.992188 69.890625 38.664063 69.890625 38.351563 C 69.890625 38.070313 69.75 37.851563 69.484375 37.585938 C 69.671875 37.523438 70.0625 37.398438 70.0625 37.039063 C 70.0625 36.648438 69.6875 36.539063 69.4375 36.539063 C 69.109375 36.539063 68.796875 36.710938 68.796875 37.070313 C 68.796875 37.257813 68.890625 37.429688 69.109375 37.664063 C 69.015625 37.695313 68.40625 37.882813 68.40625 38.398438 Z M 68.65625 38.414063 C 68.65625 37.945313 69.09375 37.757813 69.1875 37.726563 C 69.53125 38.085938 69.625 38.179688 69.625 38.414063 C 69.625 38.757813 69.34375 38.914063 69.15625 38.914063 C 68.84375 38.914063 68.65625 38.695313 68.65625 38.414063 Z M 69.078125 37.007813 C 69.078125 36.773438 69.203125 36.617188 69.4375 36.617188 C 69.734375 36.617188 69.828125 36.867188 69.828125 37.039063 C 69.828125 37.335938 69.609375 37.429688 69.421875 37.523438 C 69.078125 37.210938 69.078125 37.101563 69.078125 37.007813 Z M 69.078125 37.007813 "
       id="path24" />
    <path
       style="fill:none;stroke-width:0.055;stroke-linecap:round;stroke-linejoin:round;stroke:rgb(12.940979%,11.764526%,11.764526%);stroke-opacity:1;stroke-miterlimit:4;"
       d="M 84.082031 33.589844 L 84.082031 33.105469 "
       id="path26" />
    <path
       style=" stroke:none;fill-rule:nonzero;fill:rgb(12.940979%,11.764526%,11.764526%);fill-opacity:1;"
       d="M 82.257813 38.960938 L 83.257813 38.960938 L 83.257813 38.914063 C 83.085938 38.914063 82.960938 38.898438 82.960938 38.789063 C 82.960938 38.726563 83.007813 38.601563 83.023438 38.523438 L 83.539063 36.664063 C 83.554688 36.601563 83.570313 36.539063 83.539063 36.539063 C 83.507813 36.539063 83.007813 36.632813 82.851563 36.664063 L 82.851563 36.726563 L 83.054688 36.710938 C 83.085938 36.710938 83.179688 36.710938 83.179688 36.835938 C 83.179688 36.851563 83.164063 36.914063 83.164063 36.945313 L 82.664063 38.710938 C 82.617188 38.882813 82.476563 38.882813 82.257813 38.914063 Z M 82.257813 38.960938 "
       id="path28" />
    <path
       style=" stroke:none;fill-rule:nonzero;fill:rgb(12.940979%,11.764526%,11.764526%);fill-opacity:1;"
       d="M 84.289063 38.398438 C 84.289063 38.054688 84.539063 36.632813 85.070313 36.632813 C 85.382813 36.632813 85.382813 36.992188 85.382813 37.101563 C 85.382813 37.742188 85.070313 38.882813 84.601563 38.882813 C 84.476563 38.882813 84.289063 38.820313 84.289063 38.398438 Z M 85.664063 37.429688 C 85.664063 37.070313 85.570313 36.539063 85.101563 36.539063 C 84.601563 36.539063 83.992188 37.273438 83.992188 38.242188 C 83.992188 38.617188 84.195313 38.992188 84.570313 38.992188 C 85.179688 38.992188 85.664063 38.148438 85.664063 37.429688 Z M 85.664063 37.429688 "
       id="path30" />
    <path
       style="fill:none;stroke-width:0.4;stroke-linecap:round;stroke-linejoin:round;stroke:rgb(12.940979%,11.764526%,11.764526%);stroke-opacity:1;stroke-miterlimit:4;"
       d="M 10.707031 33.589844 L 85.929688 33.589844 "
       id="path32" />
    <path
       style=" stroke:none;fill-rule:nonzero;fill:rgb(12.940979%,11.764526%,11.764526%);fill-opacity:1;"
       d="M 87.347656 32.972656 C 86.355469 32.675781 85.710938 32.398438 84.914063 32.078125 L 84.914063 35.105469 C 85.199219 34.972656 86.355469 34.511719 87.347656 34.210938 C 88.410156 33.890625 89.371094 33.671875 89.996094 33.59375 C 89.371094 33.515625 88.410156 33.296875 87.347656 32.972656 "
       id="path34" />
    <path
       style="fill:none;stroke-width:0.055;stroke-linecap:round;stroke-linejoin:round;stroke:rgb(12.940979%,11.764526%,11.764526%);stroke-opacity:1;stroke-miterlimit:4;"
       d="M 10.15625 57.574219 L 10.640625 57.574219 "
       id="path36" />
    <path
       style=" stroke:none;fill-rule:nonzero;fill:rgb(12.940979%,11.764526%,11.764526%);fill-opacity:1;"
       d="M 5.125 57.957031 L 4.0625 57.957031 L 4 58.253906 L 5.0625 58.253906 Z M 5.125 57.957031 "
       id="path38" />
    <g
       clip-path="url(#clip1)"
       clip-rule="nonzero"
       id="g42">
      <path
         style=" stroke:none;fill-rule:nonzero;fill:rgb(12.940979%,11.764526%,11.764526%);fill-opacity:1;"
         d="M 5.597656 59.175781 L 6.941406 59.175781 L 6.941406 59.097656 C 6.691406 59.113281 6.519531 59.097656 6.519531 58.941406 C 6.519531 58.863281 6.582031 58.691406 6.613281 58.597656 L 7.300781 56.113281 C 7.316406 56.035156 7.347656 55.925781 7.300781 55.925781 C 7.269531 55.925781 6.597656 56.082031 6.378906 56.113281 L 6.378906 56.191406 L 6.644531 56.175781 C 6.691406 56.175781 6.832031 56.175781 6.832031 56.332031 C 6.832031 56.363281 6.816406 56.441406 6.800781 56.488281 L 6.128906 58.847656 C 6.066406 59.066406 5.878906 59.082031 5.597656 59.113281 Z M 5.597656 59.175781 "
         id="path40" />
    </g>
    <path
       style="fill:none;stroke-width:0.055;stroke-linecap:round;stroke-linejoin:round;stroke:rgb(12.940979%,11.764526%,11.764526%);stroke-opacity:1;stroke-miterlimit:4;"
       d="M 10.15625 45.582031 L 10.640625 45.582031 "
       id="path44" />
    <path
       style=" stroke:none;fill-rule:nonzero;fill:rgb(12.940979%,11.764526%,11.764526%);fill-opacity:1;"
       d="M 1.125 45.964844 L 0.0625 45.964844 L 0 46.261719 L 1.0625 46.261719 Z M 1.125 45.964844 "
       id="path46" />
    <path
       style=" stroke:none;fill-rule:nonzero;fill:rgb(12.940979%,11.764526%,11.764526%);fill-opacity:1;"
       d="M 1.894531 46.433594 C 1.894531 45.964844 2.238281 44.074219 2.957031 44.074219 C 3.363281 44.074219 3.363281 44.558594 3.363281 44.714844 C 3.363281 45.542969 2.957031 47.089844 2.316406 47.089844 C 2.160156 47.089844 1.894531 46.996094 1.894531 46.433594 Z M 3.753906 45.136719 C 3.753906 44.667969 3.613281 43.933594 2.972656 43.933594 C 2.316406 43.933594 1.519531 44.933594 1.519531 46.230469 C 1.519531 46.730469 1.785156 47.214844 2.285156 47.214844 C 3.097656 47.214844 3.753906 46.089844 3.753906 45.136719 Z M 3.753906 45.136719 "
       id="path48" />
    <path
       style=" stroke:none;fill-rule:nonzero;fill:rgb(12.940979%,11.764526%,11.764526%);fill-opacity:1;"
       d="M 4.15625 47.230469 C 4.265625 47.230469 4.421875 47.152344 4.421875 46.980469 C 4.421875 46.824219 4.296875 46.699219 4.15625 46.699219 C 4.015625 46.699219 3.890625 46.824219 3.890625 46.980469 C 3.890625 47.152344 4.0625 47.230469 4.15625 47.230469 Z M 4.15625 47.230469 "
       id="path50" />
    <path
       style=" stroke:none;fill-rule:nonzero;fill:rgb(12.940979%,11.764526%,11.764526%);fill-opacity:1;"
       d="M 6.105469 44.324219 L 7.214844 44.324219 L 7.324219 43.996094 L 6.089844 43.996094 L 5.589844 45.027344 L 5.589844 45.105469 C 6.152344 45.230469 6.636719 45.324219 6.636719 46.058594 C 6.636719 46.480469 6.292969 47.011719 5.824219 47.011719 C 5.558594 47.011719 5.449219 46.746094 5.230469 46.746094 C 5.136719 46.746094 5.042969 46.808594 5.042969 46.949219 C 5.042969 47.089844 5.183594 47.214844 5.527344 47.214844 C 6.464844 47.214844 6.980469 46.480469 6.980469 45.871094 C 6.980469 45.214844 6.542969 44.871094 5.917969 44.746094 Z M 6.105469 44.324219 "
       id="path52" />
    <path
       style="fill:none;stroke-width:0.055;stroke-linecap:round;stroke-linejoin:round;stroke:rgb(12.940979%,11.764526%,11.764526%);stroke-opacity:1;stroke-miterlimit:4;"
       d="M 10.15625 21.597656 L 10.640625 21.597656 "
       id="path54" />
    <path
       style=" stroke:none;fill-rule:nonzero;fill:rgb(12.940979%,11.764526%,11.764526%);fill-opacity:1;"
       d="M 2.121094 22.445313 C 2.121094 21.976563 2.464844 20.085938 3.183594 20.085938 C 3.589844 20.085938 3.589844 20.570313 3.589844 20.726563 C 3.589844 21.554688 3.183594 23.101563 2.542969 23.101563 C 2.386719 23.101563 2.121094 23.007813 2.121094 22.445313 Z M 3.980469 21.148438 C 3.980469 20.679688 3.839844 19.945313 3.199219 19.945313 C 2.542969 19.945313 1.746094 20.945313 1.746094 22.242188 C 1.746094 22.742188 2.011719 23.226563 2.511719 23.226563 C 3.324219 23.226563 3.980469 22.101563 3.980469 21.148438 Z M 3.980469 21.148438 "
       id="path56" />
    <path
       style=" stroke:none;fill-rule:nonzero;fill:rgb(12.940979%,11.764526%,11.764526%);fill-opacity:1;"
       d="M 4.378906 23.242188 C 4.488281 23.242188 4.644531 23.164063 4.644531 22.992188 C 4.644531 22.835938 4.519531 22.710938 4.378906 22.710938 C 4.238281 22.710938 4.113281 22.835938 4.113281 22.992188 C 4.113281 23.164063 4.285156 23.242188 4.378906 23.242188 Z M 4.378906 23.242188 "
       id="path58" />
    <path
       style=" stroke:none;fill-rule:nonzero;fill:rgb(12.940979%,11.764526%,11.764526%);fill-opacity:1;"
       d="M 6.328125 20.335938 L 7.4375 20.335938 L 7.546875 20.007813 L 6.3125 20.007813 L 5.8125 21.039063 L 5.8125 21.117188 C 6.375 21.242188 6.859375 21.335938 6.859375 22.070313 C 6.859375 22.492188 6.515625 23.023438 6.046875 23.023438 C 5.78125 23.023438 5.671875 22.757813 5.453125 22.757813 C 5.359375 22.757813 5.265625 22.820313 5.265625 22.960938 C 5.265625 23.101563 5.40625 23.226563 5.75 23.226563 C 6.6875 23.226563 7.203125 22.492188 7.203125 21.882813 C 7.203125 21.226563 6.765625 20.882813 6.140625 20.757813 Z M 6.328125 20.335938 "
       id="path60" />
    <path
       style="fill:none;stroke-width:0.055;stroke-linecap:round;stroke-linejoin:round;stroke:rgb(12.940979%,11.764526%,11.764526%);stroke-opacity:1;stroke-miterlimit:4;"
       d="M 10.15625 9.605469 L 10.640625 9.605469 "
       id="path62" />
    <path
       style=" stroke:none;fill-rule:nonzero;fill:rgb(12.940979%,11.764526%,11.764526%);fill-opacity:1;"
       d="M 5.824219 11.207031 L 7.167969 11.207031 L 7.167969 11.128906 C 6.917969 11.144531 6.746094 11.128906 6.746094 10.972656 C 6.746094 10.894531 6.808594 10.722656 6.839844 10.628906 L 7.527344 8.144531 C 7.542969 8.066406 7.574219 7.957031 7.527344 7.957031 C 7.496094 7.957031 6.824219 8.113281 6.605469 8.144531 L 6.605469 8.222656 L 6.871094 8.207031 C 6.917969 8.207031 7.058594 8.207031 7.058594 8.363281 C 7.058594 8.394531 7.042969 8.472656 7.027344 8.519531 L 6.355469 10.878906 C 6.292969 11.097656 6.105469 11.113281 5.824219 11.144531 Z M 5.824219 11.207031 "
       id="path64" />
    <path
       style="fill:none;stroke-width:0.055;stroke-linecap:round;stroke-linejoin:round;stroke:rgb(12.940979%,11.764526%,11.764526%);stroke-opacity:1;stroke-miterlimit:4;"
       d="M 10.15625 57.574219 L 10.15625 9.605469 "
       id="path66" />
    <path
       style="fill:none;stroke-width:0.073;stroke-linecap:round;stroke-linejoin:round;stroke:rgb(12.940979%,11.764526%,11.764526%);stroke-opacity:1;stroke-miterlimit:4;"
       d="M 10.15625 33.589844 L 10.515625 22.398438 L 10.691406 17.859375 L 10.855469 14.367188 L 10.945313 12.796875 L 11.046875 11.472656 L 11.136719 10.621094 L 11.222656 10.144531 L 11.3125 9.976563 L 11.414063 10.207031 L 11.464844 10.484375 L 11.519531 10.902344 L 11.617188 11.964844 L 11.71875 13.472656 L 11.816406 15.210938 L 12.027344 20.207031 L 12.421875 31.742188 L 12.773438 42.570313 L 12.960938 47.558594 L 13.15625 51.847656 L 13.261719 53.640625 L 13.320313 54.421875 L 13.378906 55.125 L 13.4375 55.644531 L 13.484375 56.011719 L 13.582031 56.421875 L 13.683594 56.421875 L 13.738281 56.242188 L 13.789063 55.960938 L 13.886719 55.160156 L 13.984375 53.921875 L 14.171875 50.714844 L 14.34375 46.75 L 14.738281 35.507813 L 15.136719 23.835938 L 15.351563 18.480469 L 15.550781 14.667969 L 15.65625 13.210938 L 15.714844 12.578125 L 15.769531 12.117188 L 15.828125 11.746094 L 15.890625 11.5 L 15.949219 11.414063 L 16.007813 11.46875 L 16.105469 11.863281 L 16.164063 12.253906 L 16.21875 12.722656 L 16.316406 13.972656 L 16.425781 15.746094 L 16.628906 19.832031 L 16.839844 25.21875 L 17.21875 36.195313 L 17.425781 42.199219 L 17.652344 47.835938 L 17.761719 49.988281 L 17.871094 51.894531 L 17.96875 53.1875 L 18.019531 53.738281 L 18.074219 54.230469 L 18.128906 54.621094 L 18.179688 54.878906 L 18.277344 55.082031 L 18.335938 55.023438 L 18.394531 54.839844 L 18.441406 54.574219 L 18.5 54.171875 L 18.597656 53.175781 L 18.699219 51.722656 L 18.890625 48.1875 L 19.28125 38.441406 L 19.632813 28.398438 L 20.003906 19.308594 L 20.105469 17.273438 L 20.207031 15.671875 L 20.296875 14.511719 L 20.394531 13.578125 L 20.480469 13.046875 L 20.574219 12.78125 L 20.671875 12.859375 L 20.761719 13.261719 L 20.847656 13.917969 L 20.929688 14.75 L 21.109375 17.359375 L 21.3125 21.53125 L 21.5 26.199219 L 21.933594 37.945313 L 22.3125 47.125 L 22.5 50.523438 L 22.613281 51.957031 L 22.710938 52.9375 L 22.800781 53.5 L 22.902344 53.757813 L 22.992188 53.6875 L 23.078125 53.351563 L 23.175781 52.640625 L 23.234375 52.085938 L 23.28125 51.488281 L 23.476563 48.480469 L 23.660156 44.65625 L 23.867188 39.683594 L 24.277344 28.726563 L 24.636719 20.417969 L 24.738281 18.53125 L 24.832031 17.011719 L 24.921875 15.882813 L 25.019531 14.964844 L 25.109375 14.378906 L 25.1875 14.089844 L 25.273438 14.042969 L 25.347656 14.222656 L 25.441406 14.699219 L 25.523438 15.386719 L 25.613281 16.40625 L 25.710938 17.765625 L 25.90625 21.347656 L 26.097656 25.523438 L 26.648438 39.511719 L 26.859375 44.382813 L 27.054688 48.101563 L 27.148438 49.5625 L 27.234375 50.664063 L 27.3125 51.417969 L 27.390625 52.007813 L 27.472656 52.382813 L 27.5625 52.542969 L 27.648438 52.425781 L 27.746094 51.996094 L 27.835938 51.3125 L 27.921875 50.460938 L 28.101563 47.839844 L 28.300781 44.042969 L 28.660156 35.523438 L 29.015625 26.769531 L 29.210938 22.519531 L 29.394531 19.210938 L 29.5 17.738281 L 29.554688 17.089844 L 29.613281 16.5 L 29.667969 16.050781 L 29.71875 15.726563 L 29.8125 15.324219 L 29.910156 15.230469 L 29.964844 15.316406 L 30.015625 15.480469 L 30.105469 16.003906 L 30.203125 16.84375 L 30.304688 18.039063 L 30.398438 19.378906 L 30.609375 23.152344 "
       id="path68" />
    <path
       style="fill:none;stroke-width:0.073;stroke-linecap:round;stroke-linejoin:round;stroke:rgb(12.940979%,11.764526%,11.764526%);stroke-opacity:1;stroke-miterlimit:4;"
       d="M 30.609375 23.152344 L 30.984375 31.742188 L 31.398438 41.554688 L 31.625 46.019531 L 31.734375 47.792969 L 31.839844 49.132813 L 31.929688 50.082031 L 32.015625 50.75 L 32.105469 51.199219 L 32.203125 51.386719 L 32.304688 51.246094 L 32.363281 51.019531 L 32.414063 50.726563 L 32.515625 49.921875 L 32.609375 48.890625 L 32.789063 46.289063 L 32.949219 43.253906 L 33.324219 34.976563 L 33.730469 25.699219 L 33.925781 21.894531 L 34.109375 19.167969 L 34.207031 18.039063 L 34.296875 17.226563 L 34.398438 16.648438 L 34.449219 16.457031 L 34.5 16.359375 L 34.601563 16.414063 L 34.65625 16.585938 L 34.714844 16.835938 L 34.769531 17.195313 L 34.820313 17.601563 L 34.9375 18.804688 L 35.128906 21.578125 L 35.304688 24.792969 L 36.066406 41.511719 L 36.226563 44.539063 L 36.402344 47.246094 L 36.503906 48.417969 L 36.597656 49.269531 L 36.695313 49.898438 L 36.75 50.128906 L 36.800781 50.253906 L 36.855469 50.304688 L 36.90625 50.269531 L 36.960938 50.140625 L 37.023438 49.898438 L 37.078125 49.570313 L 37.132813 49.179688 L 37.230469 48.230469 L 37.425781 45.628906 L 37.605469 42.507813 L 38.375 26.125 L 38.574219 22.511719 L 38.675781 21.023438 L 38.765625 19.855469 L 38.851563 18.964844 L 38.945313 18.207031 L 39.039063 17.6875 L 39.136719 17.417969 L 39.222656 17.417969 L 39.3125 17.644531 L 39.398438 18.078125 L 39.472656 18.65625 L 39.566406 19.5625 L 39.667969 20.777344 L 39.847656 23.527344 L 40.257813 31.597656 L 40.683594 40.554688 L 40.871094 43.890625 L 40.972656 45.394531 L 41.078125 46.769531 L 41.183594 47.84375 L 41.277344 48.574219 L 41.375 49.054688 L 41.464844 49.265625 L 41.566406 49.226563 L 41.664063 48.921875 L 41.710938 48.667969 L 41.765625 48.304688 L 41.875 47.335938 L 41.984375 46.046875 L 42.089844 44.621094 L 42.320313 40.6875 L 42.929688 28.332031 L 43.132813 24.613281 L 43.320313 21.789063 L 43.414063 20.675781 L 43.5 19.832031 L 43.597656 19.101563 L 43.648438 18.820313 L 43.699219 18.59375 L 43.789063 18.398438 L 43.882813 18.425781 L 43.9375 18.554688 L 43.988281 18.746094 L 44.046875 19.046875 L 44.097656 19.417969 L 44.195313 20.257813 L 44.304688 21.4375 L 44.5 24.277344 L 44.714844 28.070313 L 45.105469 35.820313 L 45.449219 42.214844 L 45.648438 45.066406 L 45.738281 46.152344 L 45.832031 46.992188 L 45.882813 47.378906 L 45.9375 47.722656 L 46.03125 48.144531 L 46.082031 48.273438 L 46.140625 48.332031 L 46.242188 48.207031 L 46.296875 48.042969 L 46.347656 47.78125 L 46.449219 47.117188 L 46.570313 46.003906 L 46.679688 44.703125 L 47.058594 38.558594 L 47.457031 30.8125 L 47.640625 27.433594 L 47.839844 24.214844 L 47.929688 22.957031 L 48.027344 21.800781 L 48.109375 20.964844 L 48.199219 20.25 L 48.300781 19.671875 L 48.398438 19.375 L 48.457031 19.308594 L 48.511719 19.328125 L 48.5625 19.414063 L 48.613281 19.578125 L 48.707031 20.046875 L 48.8125 20.789063 L 48.90625 21.703125 L 48.988281 22.699219 L 49.6875 34.480469 L 50.0625 41.203125 L 50.25 43.839844 L 50.417969 45.683594 L 50.511719 46.429688 L 50.597656 46.953125 L 50.691406 47.296875 L 50.789063 47.433594 L 50.839844 47.40625 L 50.890625 47.304688 L 50.949219 47.125 L 51 46.882813 L 51.097656 46.28125 "
       id="path70" />
    <path
       style="fill:none;stroke-width:0.073;stroke-linecap:round;stroke-linejoin:round;stroke:rgb(12.940979%,11.764526%,11.764526%);stroke-opacity:1;stroke-miterlimit:4;"
       d="M 51.097656 46.28125 L 51.195313 45.410156 L 51.390625 43.179688 L 51.570313 40.46875 L 51.914063 34.445313 L 52.289063 27.769531 L 52.496094 24.65625 L 52.6875 22.363281 L 52.796875 21.390625 L 52.855469 20.992188 L 52.917969 20.652344 L 52.96875 20.4375 L 53.023438 20.273438 L 53.125 20.179688 L 53.226563 20.332031 L 53.28125 20.523438 L 53.335938 20.769531 L 53.4375 21.421875 L 53.53125 22.25 L 53.714844 24.339844 L 53.886719 26.816406 L 54.28125 33.539063 L 54.695313 40.535156 L 54.875 43.015625 L 54.972656 44.101563 L 55.078125 45.0625 L 55.167969 45.726563 L 55.25 46.171875 L 55.332031 46.460938 L 55.410156 46.582031 L 55.5 46.542969 L 55.578125 46.347656 L 55.671875 45.957031 L 55.761719 45.347656 L 55.851563 44.609375 L 55.945313 43.644531 L 56.117188 41.503906 L 56.507813 35.328125 L 56.886719 28.878906 L 57.09375 25.789063 L 57.289063 23.457031 L 57.402344 22.4375 L 57.460938 22.003906 L 57.523438 21.628906 L 57.574219 21.378906 L 57.632813 21.171875 L 57.734375 21 L 57.789063 21.003906 L 57.839844 21.0625 L 57.894531 21.203125 L 57.945313 21.398438 L 58.042969 21.910156 L 58.148438 22.679688 L 58.335938 24.59375 L 58.539063 27.347656 L 58.957031 34.089844 L 59.316406 39.765625 L 59.519531 42.40625 L 59.617188 43.457031 L 59.707031 44.257813 L 59.800781 44.933594 L 59.890625 45.394531 L 59.988281 45.699219 L 60.089844 45.796875 L 60.191406 45.667969 L 60.242188 45.511719 L 60.300781 45.277344 L 60.398438 44.699219 L 60.492188 43.976563 L 60.675781 42.121094 L 60.839844 39.984375 L 61.210938 34.242188 L 61.609375 28.027344 L 61.816406 25.308594 L 61.933594 24.089844 L 62.042969 23.160156 L 62.144531 22.480469 L 62.203125 22.195313 L 62.257813 21.996094 L 62.351563 21.792969 L 62.449219 21.78125 L 62.546875 21.972656 L 62.632813 22.3125 L 62.730469 22.871094 L 62.832031 23.660156 L 63.027344 25.726563 L 63.242188 28.527344 L 63.621094 34.375 L 63.839844 37.644531 L 64.066406 40.757813 L 64.179688 42.027344 L 64.28125 43.054688 L 64.382813 43.816406 L 64.484375 44.4375 L 64.578125 44.832031 L 64.667969 45.019531 L 64.757813 45.046875 L 64.839844 44.921875 L 64.9375 44.597656 L 65.027344 44.132813 L 65.125 43.449219 L 65.226563 42.539063 L 65.617188 37.746094 L 66.046875 31.300781 L 66.242188 28.523438 L 66.453125 25.917969 L 66.550781 24.925781 L 66.652344 24.042969 L 66.742188 23.433594 L 66.839844 22.929688 L 66.929688 22.621094 L 67.015625 22.488281 L 67.113281 22.519531 L 67.210938 22.742188 L 67.296875 23.101563 L 67.378906 23.558594 L 67.5625 25.023438 L 67.773438 27.351563 L 67.972656 30.007813 L 68.34375 35.464844 L 68.75 40.726563 L 68.859375 41.851563 L 68.972656 42.835938 L 69.074219 43.496094 L 69.128906 43.773438 L 69.183594 44.011719 L 69.285156 44.28125 L 69.378906 44.355469 L 69.433594 44.316406 L 69.488281 44.222656 L 69.589844 43.898438 L 69.6875 43.40625 L 69.773438 42.8125 L 69.972656 41.007813 L 70.320313 36.664063 L 70.691406 31.417969 L 71.066406 26.710938 L 71.175781 25.640625 L 71.277344 24.785156 L 71.371094 24.15625 L 71.46875 23.644531 L 71.519531 23.449219 L 71.574219 23.289063 L 71.675781 23.160156 L 71.734375 23.171875 L 71.796875 23.253906 L 71.855469 23.394531 L 71.90625 23.582031 L 72 24.042969 L 72.105469 24.722656 L 72.316406 26.605469 "
       id="path72" />
    <path
       style="fill:none;stroke-width:0.073;stroke-linecap:round;stroke-linejoin:round;stroke:rgb(12.940979%,11.764526%,11.764526%);stroke-opacity:1;stroke-miterlimit:4;"
       d="M 72.316406 26.605469 L 72.691406 31.230469 L 73.097656 36.816406 L 73.285156 39.132813 L 73.484375 41.1875 L 73.652344 42.503906 L 73.75 43.050781 L 73.839844 43.414063 L 73.890625 43.558594 L 73.949219 43.660156 L 74.003906 43.699219 L 74.054688 43.6875 L 74.148438 43.539063 L 74.25 43.195313 L 74.304688 42.949219 L 74.359375 42.632813 L 74.460938 41.933594 L 74.691406 39.78125 L 75.09375 34.820313 L 75.46875 29.898438 L 75.652344 27.757813 L 75.828125 26.074219 L 75.921875 25.320313 L 76.027344 24.660156 L 76.121094 24.214844 L 76.207031 23.945313 L 76.304688 23.804688 L 76.398438 23.820313 L 76.496094 24.011719 L 76.550781 24.195313 L 76.601563 24.40625 L 76.707031 24.964844 L 76.816406 25.761719 L 77.019531 27.644531 L 77.464844 33.003906 L 77.878906 38.214844 L 78.0625 40.105469 L 78.253906 41.667969 L 78.355469 42.269531 L 78.40625 42.523438 L 78.464844 42.75 L 78.566406 43.003906 L 78.65625 43.085938 L 78.761719 43 L 78.855469 42.765625 L 78.902344 42.582031 L 78.957031 42.332031 L 79.066406 41.6875 L 79.269531 40.074219 L 79.457031 38.132813 L 80.1875 29.289063 L 80.382813 27.265625 L 80.492188 26.347656 L 80.59375 25.640625 L 80.679688 25.152344 L 80.773438 24.757813 L 80.875 24.488281 L 80.96875 24.390625 L 81.023438 24.398438 L 81.078125 24.464844 L 81.175781 24.703125 L 81.234375 24.90625 L 81.285156 25.140625 L 81.402344 25.828125 L 81.601563 27.398438 L 81.8125 29.5625 L 82.371094 36.21875 L 82.664063 39.335938 L 82.828125 40.707031 L 82.90625 41.230469 L 82.980469 41.636719 L 83.046875 41.957031 L 83.121094 42.222656 L 83.195313 42.40625 L 83.273438 42.5 L 83.34375 42.496094 L 83.417969 42.40625 L 83.488281 42.242188 L 83.550781 42.023438 L 83.621094 41.722656 L 83.679688 41.382813 L 83.824219 40.417969 L 84.082031 38.058594 "
       id="path74" />
    <path
       style=" stroke:none;fill-rule:nonzero;fill:rgb(12.940979%,11.764526%,11.764526%);fill-opacity:1;"
       d="M 93.75 32.09375 L 93.1875 32.09375 L 93.375 31.34375 C 93.390625 31.296875 93.375 31.21875 93.328125 31.234375 C 93.265625 31.21875 93.234375 31.296875 93.203125 31.328125 C 93.015625 31.578125 92.65625 31.90625 92.421875 32.03125 C 92.296875 32.09375 92.09375 32.140625 92.0625 32.203125 C 92.03125 32.234375 92.03125 32.28125 92.046875 32.3125 L 92.578125 32.3125 L 92.0625 34.296875 C 92.03125 34.421875 91.890625 34.859375 91.890625 34.96875 C 91.890625 35.171875 92.09375 35.25 92.234375 35.25 C 92.609375 35.25 92.890625 34.9375 93.265625 34.375 L 93.171875 34.328125 C 92.984375 34.5625 92.734375 34.890625 92.59375 34.890625 C 92.515625 34.890625 92.46875 34.84375 92.46875 34.78125 C 92.46875 34.75 92.46875 34.734375 92.484375 34.71875 L 93.109375 32.3125 L 93.71875 32.3125 Z M 93.75 32.09375 "
       id="path76" />
    <path
       style=" stroke:none;fill-rule:nonzero;fill:rgb(12.940979%,11.764526%,11.764526%);fill-opacity:1;"
       d="M 0.445313 2.65625 C 0.570313 2.640625 0.632813 2.625 0.773438 2.625 C 1.320313 2.625 1.445313 3.03125 1.710938 3.90625 C 1.867188 4.421875 2.273438 6.109375 2.273438 6.46875 C 2.273438 6.734375 1.867188 7.203125 1.632813 7.484375 C 1.304688 7.859375 1.179688 7.953125 1.023438 7.953125 C 0.851563 7.953125 0.726563 7.6875 0.445313 7.6875 C 0.242188 7.6875 0.0703125 7.84375 0.0703125 8.046875 C 0.0703125 8.453125 0.492188 8.46875 0.570313 8.46875 C 1.710938 8.46875 4.398438 4 4.398438 2.859375 C 4.398438 2.515625 4.195313 2.265625 3.851563 2.265625 C 3.601563 2.265625 3.492188 2.46875 3.492188 2.609375 C 3.492188 3.046875 4.007813 2.9375 4.007813 3.328125 C 4.007813 3.84375 3.242188 5.140625 2.835938 5.8125 L 2.648438 4.703125 C 2.523438 3.984375 1.960938 2.265625 1.835938 2.265625 C 1.664063 2.265625 0.914063 2.421875 0.445313 2.5 Z M 0.445313 2.65625 "
       id="path78" />
    <path
       style=" stroke:none;fill-rule:nonzero;fill:rgb(12.940979%,11.764526%,11.764526%);fill-opacity:1;"
       d="M 6.800781 7.320313 C 6.707031 7.523438 6.613281 7.679688 6.253906 7.679688 L 5.191406 7.679688 L 5.191406 7.648438 L 6.253906 6.570313 C 6.957031 5.882813 7.097656 5.632813 7.097656 5.257813 C 7.097656 4.835938 6.785156 4.320313 6.191406 4.320313 C 6.050781 4.320313 5.316406 4.335938 5.019531 5.210938 L 5.128906 5.257813 C 5.207031 5.117188 5.425781 4.726563 5.925781 4.726563 C 6.363281 4.726563 6.613281 5.070313 6.613281 5.414063 C 6.613281 5.601563 6.597656 5.914063 5.800781 6.757813 L 4.628906 8.007813 L 4.628906 8.101563 L 6.613281 8.101563 L 6.894531 7.367188 Z M 6.800781 7.320313 "
       id="path80" />
    <path
       style=" stroke:none;fill-rule:nonzero;fill:rgb(12.940979%,11.764526%,11.764526%);fill-opacity:1;"
       d="M 8.898438 8.171875 C 8.429688 7 8.429688 6.15625 8.429688 5.515625 C 8.429688 4.90625 8.601563 3.609375 8.976563 2.53125 C 9.445313 1.21875 9.929688 0.703125 10.382813 0.21875 L 10.257813 0.078125 C 8.523438 1.5625 7.773438 3.0625 7.773438 4.640625 C 7.773438 5.265625 7.773438 6.65625 8.726563 8.234375 Z M 8.898438 8.171875 "
       id="path82" />
    <path
       style=" stroke:none;fill-rule:nonzero;fill:rgb(12.940979%,11.764526%,11.764526%);fill-opacity:1;"
       d="M 13.40625 2.390625 L 12.640625 2.390625 L 12.90625 1.40625 C 12.921875 1.328125 12.90625 1.25 12.84375 1.265625 C 12.75 1.25 12.71875 1.328125 12.671875 1.375 C 12.40625 1.71875 11.9375 2.140625 11.625 2.3125 C 11.46875 2.390625 11.203125 2.46875 11.140625 2.546875 C 11.109375 2.59375 11.109375 2.640625 11.125 2.703125 L 11.828125 2.703125 L 11.140625 5.34375 C 11.09375 5.5 10.921875 6.078125 10.921875 6.21875 C 10.921875 6.515625 11.1875 6.609375 11.375 6.609375 C 11.875 6.609375 12.25 6.1875 12.734375 5.4375 L 12.609375 5.375 C 12.375 5.6875 12.046875 6.140625 11.84375 6.140625 C 11.75 6.140625 11.6875 6.0625 11.6875 5.96875 C 11.6875 5.9375 11.6875 5.921875 11.703125 5.890625 L 12.546875 2.703125 L 13.359375 2.703125 Z M 13.40625 2.390625 "
       id="path84" />
    <path
       style=" stroke:none;fill-rule:nonzero;fill:rgb(12.940979%,11.764526%,11.764526%);fill-opacity:1;"
       d="M 13.511719 8.234375 C 14.933594 7.078125 15.996094 5.5 15.996094 3.671875 C 15.996094 2.4375 15.746094 1.203125 15.058594 0.078125 L 14.871094 0.125 C 15.121094 0.65625 15.339844 1.609375 15.339844 2.640625 C 15.339844 3.484375 15.183594 4.625 14.792969 5.796875 C 14.355469 7.0625 13.808594 7.640625 13.386719 8.078125 Z M 13.511719 8.234375 "
       id="path86" />
    <path
       style=" stroke:none;fill-rule:nonzero;fill:rgb(12.940979%,11.764526%,11.764526%);fill-opacity:1;"
       d="M 24.484375 2.796875 L 19.65625 2.796875 L 19.65625 3.4375 L 24.484375 3.4375 Z M 24.484375 4.71875 L 19.65625 4.71875 L 19.65625 5.34375 L 24.484375 5.34375 Z M 24.484375 4.71875 "
       id="path88" />
    <path
       style=" stroke:none;fill-rule:nonzero;fill:rgb(12.940979%,11.764526%,11.764526%);fill-opacity:1;"
       d="M 28.035156 2.703125 L 28.910156 2.703125 L 28.066406 6.734375 C 27.988281 7.109375 27.738281 8.28125 27.128906 8.28125 C 27.003906 8.28125 26.941406 8.203125 26.941406 8.125 C 26.941406 8.03125 27.019531 8.03125 27.019531 7.859375 C 27.019531 7.625 26.769531 7.5 26.644531 7.5 C 26.300781 7.53125 26.300781 7.890625 26.300781 7.921875 C 26.347656 8.359375 26.753906 8.484375 27.050781 8.484375 C 28.160156 8.484375 28.707031 6.9375 28.972656 5.765625 L 29.660156 2.703125 L 30.707031 2.703125 L 30.769531 2.390625 L 29.738281 2.390625 C 29.816406 1.90625 30.097656 0.203125 30.894531 0.203125 C 31.019531 0.203125 31.113281 0.25 31.113281 0.328125 C 31.113281 0.421875 31.019531 0.421875 31.019531 0.640625 C 31.019531 0.75 31.082031 1 31.378906 1 C 31.597656 1 31.769531 0.8125 31.769531 0.625 C 31.769531 0.421875 31.628906 0 30.925781 0 C 29.722656 0 29.238281 1.578125 28.988281 2.390625 L 28.113281 2.390625 Z M 28.035156 2.703125 "
       id="path90" />
    <path
       style=" stroke:none;fill-rule:nonzero;fill:rgb(12.940979%,11.764526%,11.764526%);fill-opacity:1;"
       d="M 33.019531 0.734375 C 33.082031 0.46875 33.207031 0.390625 33.472656 0.390625 L 34.066406 0.390625 L 34.128906 0.140625 L 32.472656 0.140625 L 30.582031 7.96875 L 32.378906 7.96875 L 32.457031 7.703125 L 31.910156 7.703125 C 31.753906 7.703125 31.441406 7.703125 31.441406 7.4375 C 31.441406 7.40625 31.457031 7.3125 31.488281 7.234375 Z M 33.019531 0.734375 "
       id="path92" />
    <path
       style=" stroke:none;fill-rule:nonzero;fill:rgb(12.940979%,11.764526%,11.764526%);fill-opacity:1;"
       d="M 34.269531 2.640625 L 34.457031 2.625 C 34.878906 2.609375 34.925781 2.65625 35.035156 3.375 C 35.113281 3.90625 35.207031 4.734375 35.238281 5.375 L 35.269531 6.21875 C 35.269531 6.359375 35.269531 6.671875 35.394531 6.671875 C 35.535156 6.671875 35.613281 6.46875 36.535156 4.828125 C 36.972656 4.0625 37.207031 3.65625 37.378906 3.359375 L 37.394531 3.359375 L 37.675781 6.390625 C 37.675781 6.53125 37.675781 6.671875 37.785156 6.671875 C 37.894531 6.671875 38.019531 6.484375 38.394531 6.03125 C 38.847656 5.515625 40.332031 3.640625 40.332031 2.8125 C 40.332031 2.53125 40.175781 2.265625 39.816406 2.265625 C 39.550781 2.265625 39.457031 2.4375 39.457031 2.609375 C 39.457031 2.921875 39.863281 2.96875 39.863281 3.3125 C 39.863281 3.8125 39.128906 4.75 38.285156 5.796875 L 37.972656 2.34375 C 37.972656 2.328125 37.972656 2.28125 37.910156 2.28125 C 37.847656 2.28125 37.816406 2.3125 37.785156 2.359375 L 35.957031 5.265625 L 35.941406 5.265625 C 35.941406 5.09375 35.847656 3.78125 35.660156 2.8125 C 35.566406 2.28125 35.535156 2.265625 35.488281 2.265625 C 35.394531 2.265625 34.816406 2.421875 34.269531 2.5 Z M 34.269531 2.640625 "
       id="path94" />
    <path
       style=" stroke:none;fill-rule:nonzero;fill:rgb(12.940979%,11.764526%,11.764526%);fill-opacity:1;"
       d="M 42.75 7.320313 C 42.65625 7.523438 42.5625 7.679688 42.203125 7.679688 L 41.140625 7.679688 L 41.140625 7.648438 L 42.203125 6.570313 C 42.90625 5.882813 43.046875 5.632813 43.046875 5.257813 C 43.046875 4.835938 42.734375 4.320313 42.140625 4.320313 C 42 4.320313 41.265625 4.335938 40.96875 5.210938 L 41.078125 5.257813 C 41.15625 5.117188 41.375 4.726563 41.875 4.726563 C 42.3125 4.726563 42.5625 5.070313 42.5625 5.414063 C 42.5625 5.601563 42.546875 5.914063 41.75 6.757813 L 40.578125 8.007813 L 40.578125 8.101563 L 42.5625 8.101563 L 42.84375 7.367188 Z M 42.75 7.320313 "
       id="path96" />
    <path
       style=" stroke:none;fill-rule:nonzero;fill:rgb(12.940979%,11.764526%,11.764526%);fill-opacity:1;"
       d="M 43.597656 8.101563 L 45.144531 8.101563 L 45.144531 8.023438 C 44.878906 8.023438 44.675781 8.007813 44.675781 7.835938 C 44.675781 7.742188 44.738281 7.539063 44.769531 7.429688 L 45.566406 4.523438 C 45.597656 4.429688 45.628906 4.320313 45.582031 4.320313 C 45.535156 4.320313 44.753906 4.492188 44.503906 4.539063 L 44.503906 4.617188 L 44.816406 4.601563 C 44.863281 4.601563 45.035156 4.601563 45.035156 4.789063 C 45.035156 4.835938 45.003906 4.914063 44.988281 4.976563 L 44.222656 7.726563 C 44.144531 7.976563 43.925781 7.992188 43.597656 8.023438 Z M 43.597656 8.101563 "
       id="path98" />
    <path
       style=" stroke:none;fill-rule:nonzero;fill:rgb(12.940979%,11.764526%,11.764526%);fill-opacity:1;"
       d="M 46.460938 5.09375 L 46.273438 6.625 L 46.429688 6.625 C 46.476563 6.515625 46.523438 6.421875 46.648438 6.421875 C 46.929688 6.421875 47.320313 6.609375 47.601563 6.609375 C 48.148438 6.609375 49.039063 6.359375 49.039063 5.3125 C 49.039063 4.5 47.867188 3.65625 47.867188 3.046875 C 47.867188 2.578125 48.164063 2.484375 48.382813 2.484375 C 49.007813 2.484375 49.242188 3.046875 49.289063 3.59375 L 49.429688 3.59375 L 49.632813 2.265625 L 49.492188 2.265625 C 49.445313 2.34375 49.382813 2.4375 49.226563 2.4375 C 48.945313 2.4375 48.742188 2.265625 48.320313 2.265625 C 47.304688 2.265625 47.164063 3.03125 47.164063 3.328125 C 47.164063 4.078125 48.304688 5 48.304688 5.625 C 48.304688 5.9375 48.148438 6.40625 47.617188 6.40625 C 46.835938 6.40625 46.679688 5.515625 46.617188 5.09375 Z M 46.460938 5.09375 "
       id="path100" />
    <path
       style=" stroke:none;fill-rule:nonzero;fill:rgb(12.940979%,11.764526%,11.764526%);fill-opacity:1;"
       d="M 50.132813 8.101563 L 51.679688 8.101563 L 51.679688 8.023438 C 51.414063 8.023438 51.210938 8.007813 51.210938 7.835938 C 51.210938 7.742188 51.273438 7.539063 51.304688 7.429688 L 52.101563 4.523438 C 52.132813 4.429688 52.164063 4.320313 52.117188 4.320313 C 52.070313 4.320313 51.289063 4.492188 51.039063 4.539063 L 51.039063 4.617188 L 51.351563 4.601563 C 51.398438 4.601563 51.570313 4.601563 51.570313 4.789063 C 51.570313 4.835938 51.539063 4.914063 51.523438 4.976563 L 50.757813 7.726563 C 50.679688 7.976563 50.460938 7.992188 50.132813 8.023438 Z M 50.132813 8.101563 "
       id="path102" />
    <path
       style=" stroke:none;fill-rule:nonzero;fill:rgb(12.940979%,11.764526%,11.764526%);fill-opacity:1;"
       d="M 54.179688 8.171875 C 53.710938 7 53.710938 6.15625 53.710938 5.515625 C 53.710938 4.90625 53.882813 3.609375 54.257813 2.53125 C 54.726563 1.21875 55.210938 0.703125 55.664063 0.21875 L 55.539063 0.078125 C 53.804688 1.5625 53.054688 3.0625 53.054688 4.640625 C 53.054688 5.265625 53.054688 6.65625 54.007813 8.234375 Z M 54.179688 8.171875 "
       id="path104" />
    <path
       style=" stroke:none;fill-rule:nonzero;fill:rgb(12.940979%,11.764526%,11.764526%);fill-opacity:1;"
       d="M 58.691406 2.390625 L 57.925781 2.390625 L 58.191406 1.40625 C 58.207031 1.328125 58.191406 1.25 58.128906 1.265625 C 58.035156 1.25 58.003906 1.328125 57.957031 1.375 C 57.691406 1.71875 57.222656 2.140625 56.910156 2.3125 C 56.753906 2.390625 56.488281 2.46875 56.425781 2.546875 C 56.394531 2.59375 56.394531 2.640625 56.410156 2.703125 L 57.113281 2.703125 L 56.425781 5.34375 C 56.378906 5.5 56.207031 6.078125 56.207031 6.21875 C 56.207031 6.515625 56.472656 6.609375 56.660156 6.609375 C 57.160156 6.609375 57.535156 6.1875 58.019531 5.4375 L 57.894531 5.375 C 57.660156 5.6875 57.332031 6.140625 57.128906 6.140625 C 57.035156 6.140625 56.972656 6.0625 56.972656 5.96875 C 56.972656 5.9375 56.972656 5.921875 56.988281 5.890625 L 57.832031 2.703125 L 58.644531 2.703125 Z M 58.691406 2.390625 "
       id="path106" />
    <path
       style=" stroke:none;fill-rule:nonzero;fill:rgb(12.940979%,11.764526%,11.764526%);fill-opacity:1;"
       d="M 58.796875 8.234375 C 60.21875 7.078125 61.28125 5.5 61.28125 3.671875 C 61.28125 2.4375 61.03125 1.203125 60.34375 0.078125 L 60.15625 0.125 C 60.40625 0.65625 60.625 1.609375 60.625 2.640625 C 60.625 3.484375 60.46875 4.625 60.078125 5.796875 C 59.640625 7.0625 59.09375 7.640625 58.671875 8.078125 Z M 58.796875 8.234375 "
       id="path108" />
    <path
       style=" stroke:none;fill-rule:nonzero;fill:rgb(12.940979%,11.764526%,11.764526%);fill-opacity:1;"
       d="M 67.035156 3.75 L 64.941406 3.75 L 64.941406 4.390625 L 67.035156 4.390625 L 67.035156 6.5 L 67.675781 6.5 L 67.675781 4.390625 L 69.769531 4.390625 L 69.769531 3.75 L 67.675781 3.75 L 67.675781 1.640625 L 67.035156 1.640625 Z M 67.035156 3.75 "
       id="path110" />
    <path
       style=" stroke:none;fill-rule:nonzero;fill:rgb(12.940979%,11.764526%,11.764526%);fill-opacity:1;"
       d="M 73.148438 2.640625 L 73.335938 2.625 C 73.757813 2.609375 73.804688 2.65625 73.914063 3.375 C 73.992188 3.90625 74.085938 4.734375 74.117188 5.375 L 74.148438 6.21875 C 74.148438 6.359375 74.148438 6.671875 74.273438 6.671875 C 74.414063 6.671875 74.492188 6.46875 75.414063 4.828125 C 75.851563 4.0625 76.085938 3.65625 76.257813 3.359375 L 76.273438 3.359375 L 76.554688 6.390625 C 76.554688 6.53125 76.554688 6.671875 76.664063 6.671875 C 76.773438 6.671875 76.898438 6.484375 77.273438 6.03125 C 77.726563 5.515625 79.210938 3.640625 79.210938 2.8125 C 79.210938 2.53125 79.054688 2.265625 78.695313 2.265625 C 78.429688 2.265625 78.335938 2.4375 78.335938 2.609375 C 78.335938 2.921875 78.742188 2.96875 78.742188 3.3125 C 78.742188 3.8125 78.007813 4.75 77.164063 5.796875 L 76.851563 2.34375 C 76.851563 2.328125 76.851563 2.28125 76.789063 2.28125 C 76.726563 2.28125 76.695313 2.3125 76.664063 2.359375 L 74.835938 5.265625 L 74.820313 5.265625 C 74.820313 5.09375 74.726563 3.78125 74.539063 2.8125 C 74.445313 2.28125 74.414063 2.265625 74.367188 2.265625 C 74.273438 2.265625 73.695313 2.421875 73.148438 2.5 Z M 73.148438 2.640625 "
       id="path112" />
    <path
       style=" stroke:none;fill-rule:nonzero;fill:rgb(12.940979%,11.764526%,11.764526%);fill-opacity:1;"
       d="M 81.628906 7.320313 C 81.535156 7.523438 81.441406 7.679688 81.082031 7.679688 L 80.019531 7.679688 L 80.019531 7.648438 L 81.082031 6.570313 C 81.785156 5.882813 81.925781 5.632813 81.925781 5.257813 C 81.925781 4.835938 81.613281 4.320313 81.019531 4.320313 C 80.878906 4.320313 80.144531 4.335938 79.847656 5.210938 L 79.957031 5.257813 C 80.035156 5.117188 80.253906 4.726563 80.753906 4.726563 C 81.191406 4.726563 81.441406 5.070313 81.441406 5.414063 C 81.441406 5.601563 81.425781 5.914063 80.628906 6.757813 L 79.457031 8.007813 L 79.457031 8.101563 L 81.441406 8.101563 L 81.722656 7.367188 Z M 81.628906 7.320313 "
       id="path114" />
    <path
       style=" stroke:none;fill-rule:nonzero;fill:rgb(12.940979%,11.764526%,11.764526%);fill-opacity:1;"
       d="M 84.429688 7.320313 C 84.335938 7.523438 84.242188 7.679688 83.882813 7.679688 L 82.820313 7.679688 L 82.820313 7.648438 L 83.882813 6.570313 C 84.585938 5.882813 84.726563 5.632813 84.726563 5.257813 C 84.726563 4.835938 84.414063 4.320313 83.820313 4.320313 C 83.679688 4.320313 82.945313 4.335938 82.648438 5.210938 L 82.757813 5.257813 C 82.835938 5.117188 83.054688 4.726563 83.554688 4.726563 C 83.992188 4.726563 84.242188 5.070313 84.242188 5.414063 C 84.242188 5.601563 84.226563 5.914063 83.429688 6.757813 L 82.257813 8.007813 L 82.257813 8.101563 L 84.242188 8.101563 L 84.523438 7.367188 Z M 84.429688 7.320313 "
       id="path116" />
    <path
       style=" stroke:none;fill-rule:nonzero;fill:rgb(12.940979%,11.764526%,11.764526%);fill-opacity:1;"
       d="M 85.339844 5.09375 L 85.152344 6.625 L 85.308594 6.625 C 85.355469 6.515625 85.402344 6.421875 85.527344 6.421875 C 85.808594 6.421875 86.199219 6.609375 86.480469 6.609375 C 87.027344 6.609375 87.917969 6.359375 87.917969 5.3125 C 87.917969 4.5 86.746094 3.65625 86.746094 3.046875 C 86.746094 2.578125 87.042969 2.484375 87.261719 2.484375 C 87.886719 2.484375 88.121094 3.046875 88.167969 3.59375 L 88.308594 3.59375 L 88.511719 2.265625 L 88.371094 2.265625 C 88.324219 2.34375 88.261719 2.4375 88.105469 2.4375 C 87.824219 2.4375 87.621094 2.265625 87.199219 2.265625 C 86.183594 2.265625 86.042969 3.03125 86.042969 3.328125 C 86.042969 4.078125 87.183594 5 87.183594 5.625 C 87.183594 5.9375 87.027344 6.40625 86.496094 6.40625 C 85.714844 6.40625 85.558594 5.515625 85.496094 5.09375 Z M 85.339844 5.09375 "
       id="path118" />
    <path
       style=" stroke:none;fill-rule:nonzero;fill:rgb(12.940979%,11.764526%,11.764526%);fill-opacity:1;"
       d="M 90.964844 7.320313 C 90.871094 7.523438 90.777344 7.679688 90.417969 7.679688 L 89.355469 7.679688 L 89.355469 7.648438 L 90.417969 6.570313 C 91.121094 5.882813 91.261719 5.632813 91.261719 5.257813 C 91.261719 4.835938 90.949219 4.320313 90.355469 4.320313 C 90.214844 4.320313 89.480469 4.335938 89.183594 5.210938 L 89.292969 5.257813 C 89.371094 5.117188 89.589844 4.726563 90.089844 4.726563 C 90.527344 4.726563 90.777344 5.070313 90.777344 5.414063 C 90.777344 5.601563 90.761719 5.914063 89.964844 6.757813 L 88.792969 8.007813 L 88.792969 8.101563 L 90.777344 8.101563 L 91.058594 7.367188 Z M 90.964844 7.320313 "
       id="path120" />
    <path
       style=" stroke:none;fill-rule:nonzero;fill:rgb(12.940979%,11.764526%,11.764526%);fill-opacity:1;"
       d="M 93.0625 8.171875 C 92.59375 7 92.59375 6.15625 92.59375 5.515625 C 92.59375 4.90625 92.765625 3.609375 93.140625 2.53125 C 93.609375 1.21875 94.09375 0.703125 94.546875 0.21875 L 94.421875 0.078125 C 92.6875 1.5625 91.9375 3.0625 91.9375 4.640625 C 91.9375 5.265625 91.9375 6.65625 92.890625 8.234375 Z M 93.0625 8.171875 "
       id="path122" />
    <path
       style=" stroke:none;fill-rule:nonzero;fill:rgb(12.940979%,11.764526%,11.764526%);fill-opacity:1;"
       d="M 97.570313 2.390625 L 96.804688 2.390625 L 97.070313 1.40625 C 97.085938 1.328125 97.070313 1.25 97.007813 1.265625 C 96.914063 1.25 96.882813 1.328125 96.835938 1.375 C 96.570313 1.71875 96.101563 2.140625 95.789063 2.3125 C 95.632813 2.390625 95.367188 2.46875 95.304688 2.546875 C 95.273438 2.59375 95.273438 2.640625 95.289063 2.703125 L 95.992188 2.703125 L 95.304688 5.34375 C 95.257813 5.5 95.085938 6.078125 95.085938 6.21875 C 95.085938 6.515625 95.351563 6.609375 95.539063 6.609375 C 96.039063 6.609375 96.414063 6.1875 96.898438 5.4375 L 96.773438 5.375 C 96.539063 5.6875 96.210938 6.140625 96.007813 6.140625 C 95.914063 6.140625 95.851563 6.0625 95.851563 5.96875 C 95.851563 5.9375 95.851563 5.921875 95.867188 5.890625 L 96.710938 2.703125 L 97.523438 2.703125 Z M 97.570313 2.390625 "
       id="path124" />
    <path
       style=" stroke:none;fill-rule:nonzero;fill:rgb(12.940979%,11.764526%,11.764526%);fill-opacity:1;"
       d="M 97.675781 8.234375 C 99.097656 7.078125 100.160156 5.5 100.160156 3.671875 C 100.160156 2.4375 99.910156 1.203125 99.222656 0.078125 L 99.035156 0.125 C 99.285156 0.65625 99.503906 1.609375 99.503906 2.640625 C 99.503906 3.484375 99.347656 4.625 98.957031 5.796875 C 98.519531 7.0625 97.972656 7.640625 97.550781 8.078125 Z M 97.675781 8.234375 "
       id="path126" />
    <path
       style=" stroke:none;fill-rule:nonzero;fill:rgb(12.940979%,11.764526%,11.764526%);fill-opacity:1;"
       d="M 105.914063 3.75 L 103.820313 3.75 L 103.820313 4.390625 L 105.914063 4.390625 L 105.914063 6.5 L 106.554688 6.5 L 106.554688 4.390625 L 108.648438 4.390625 L 108.648438 3.75 L 106.554688 3.75 L 106.554688 1.640625 L 105.914063 1.640625 Z M 105.914063 3.75 "
       id="path128" />
    <path
       style=" stroke:none;fill-rule:nonzero;fill:rgb(12.940979%,11.764526%,11.764526%);fill-opacity:1;"
       d="M 112.027344 2.640625 L 112.214844 2.625 C 112.636719 2.609375 112.683594 2.65625 112.792969 3.375 C 112.871094 3.90625 112.964844 4.734375 112.996094 5.375 L 113.027344 6.21875 C 113.027344 6.359375 113.027344 6.671875 113.152344 6.671875 C 113.292969 6.671875 113.371094 6.46875 114.292969 4.828125 C 114.730469 4.0625 114.964844 3.65625 115.136719 3.359375 L 115.152344 3.359375 L 115.433594 6.390625 C 115.433594 6.53125 115.433594 6.671875 115.542969 6.671875 C 115.652344 6.671875 115.777344 6.484375 116.152344 6.03125 C 116.605469 5.515625 118.089844 3.640625 118.089844 2.8125 C 118.089844 2.53125 117.933594 2.265625 117.574219 2.265625 C 117.308594 2.265625 117.214844 2.4375 117.214844 2.609375 C 117.214844 2.921875 117.621094 2.96875 117.621094 3.3125 C 117.621094 3.8125 116.886719 4.75 116.042969 5.796875 L 115.730469 2.34375 C 115.730469 2.328125 115.730469 2.28125 115.667969 2.28125 C 115.605469 2.28125 115.574219 2.3125 115.542969 2.359375 L 113.714844 5.265625 L 113.699219 5.265625 C 113.699219 5.09375 113.605469 3.78125 113.417969 2.8125 C 113.324219 2.28125 113.292969 2.265625 113.246094 2.265625 C 113.152344 2.265625 112.574219 2.421875 112.027344 2.5 Z M 112.027344 2.640625 "
       id="path130" />
    <path
       style=" stroke:none;fill-rule:nonzero;fill:rgb(12.940979%,11.764526%,11.764526%);fill-opacity:1;"
       d="M 120.511719 7.320313 C 120.417969 7.523438 120.324219 7.679688 119.964844 7.679688 L 118.902344 7.679688 L 118.902344 7.648438 L 119.964844 6.570313 C 120.667969 5.882813 120.808594 5.632813 120.808594 5.257813 C 120.808594 4.835938 120.496094 4.320313 119.902344 4.320313 C 119.761719 4.320313 119.027344 4.335938 118.730469 5.210938 L 118.839844 5.257813 C 118.917969 5.117188 119.136719 4.726563 119.636719 4.726563 C 120.074219 4.726563 120.324219 5.070313 120.324219 5.414063 C 120.324219 5.601563 120.308594 5.914063 119.511719 6.757813 L 118.339844 8.007813 L 118.339844 8.101563 L 120.324219 8.101563 L 120.605469 7.367188 Z M 120.511719 7.320313 "
       id="path132" />
    <path
       style=" stroke:none;fill-rule:nonzero;fill:rgb(12.940979%,11.764526%,11.764526%);fill-opacity:1;"
       d="M 122.078125 4.929688 C 122.15625 4.820313 122.359375 4.554688 122.703125 4.554688 C 122.921875 4.554688 123.1875 4.695313 123.1875 5.070313 C 123.1875 5.664063 122.421875 5.914063 121.859375 5.992188 L 121.859375 6.085938 C 122.40625 6.039063 122.890625 6.257813 122.890625 7.039063 C 122.890625 7.742188 122.375 7.929688 122.1875 7.929688 C 121.859375 7.929688 121.6875 7.585938 121.421875 7.585938 C 121.21875 7.585938 121.15625 7.695313 121.15625 7.804688 C 121.15625 8.054688 121.46875 8.148438 121.796875 8.148438 C 122.828125 8.148438 123.34375 7.351563 123.34375 6.726563 C 123.34375 6.117188 122.953125 5.945313 122.8125 5.882813 L 122.8125 5.851563 C 123.40625 5.632813 123.671875 5.445313 123.671875 5.023438 C 123.671875 4.554688 123.28125 4.320313 122.859375 4.320313 C 122.546875 4.320313 122.125 4.570313 121.984375 4.898438 Z M 122.078125 4.929688 "
       id="path134" />
    <path
       style=" stroke:none;fill-rule:nonzero;fill:rgb(12.940979%,11.764526%,11.764526%);fill-opacity:1;"
       d="M 124.21875 5.09375 L 124.03125 6.625 L 124.1875 6.625 C 124.234375 6.515625 124.28125 6.421875 124.40625 6.421875 C 124.6875 6.421875 125.078125 6.609375 125.359375 6.609375 C 125.90625 6.609375 126.796875 6.359375 126.796875 5.3125 C 126.796875 4.5 125.625 3.65625 125.625 3.046875 C 125.625 2.578125 125.921875 2.484375 126.140625 2.484375 C 126.765625 2.484375 127 3.046875 127.046875 3.59375 L 127.1875 3.59375 L 127.390625 2.265625 L 127.25 2.265625 C 127.203125 2.34375 127.140625 2.4375 126.984375 2.4375 C 126.703125 2.4375 126.5 2.265625 126.078125 2.265625 C 125.0625 2.265625 124.921875 3.03125 124.921875 3.328125 C 124.921875 4.078125 126.0625 5 126.0625 5.625 C 126.0625 5.9375 125.90625 6.40625 125.375 6.40625 C 124.59375 6.40625 124.4375 5.515625 124.375 5.09375 Z M 124.21875 5.09375 "
       id="path136" />
    <path
       style=" stroke:none;fill-rule:nonzero;fill:rgb(12.940979%,11.764526%,11.764526%);fill-opacity:1;"
       d="M 128.609375 4.929688 C 128.6875 4.820313 128.890625 4.554688 129.234375 4.554688 C 129.453125 4.554688 129.71875 4.695313 129.71875 5.070313 C 129.71875 5.664063 128.953125 5.914063 128.390625 5.992188 L 128.390625 6.085938 C 128.9375 6.039063 129.421875 6.257813 129.421875 7.039063 C 129.421875 7.742188 128.90625 7.929688 128.71875 7.929688 C 128.390625 7.929688 128.21875 7.585938 127.953125 7.585938 C 127.75 7.585938 127.6875 7.695313 127.6875 7.804688 C 127.6875 8.054688 128 8.148438 128.328125 8.148438 C 129.359375 8.148438 129.875 7.351563 129.875 6.726563 C 129.875 6.117188 129.484375 5.945313 129.34375 5.882813 L 129.34375 5.851563 C 129.9375 5.632813 130.203125 5.445313 130.203125 5.023438 C 130.203125 4.554688 129.8125 4.320313 129.390625 4.320313 C 129.078125 4.320313 128.65625 4.570313 128.515625 4.898438 Z M 128.609375 4.929688 "
       id="path138" />
    <path
       style=" stroke:none;fill-rule:nonzero;fill:rgb(12.940979%,11.764526%,11.764526%);fill-opacity:1;"
       d="M 131.941406 8.171875 C 131.472656 7 131.472656 6.15625 131.472656 5.515625 C 131.472656 4.90625 131.644531 3.609375 132.019531 2.53125 C 132.488281 1.21875 132.972656 0.703125 133.425781 0.21875 L 133.300781 0.078125 C 131.566406 1.5625 130.816406 3.0625 130.816406 4.640625 C 130.816406 5.265625 130.816406 6.65625 131.769531 8.234375 Z M 131.941406 8.171875 "
       id="path140" />
    <path
       style=" stroke:none;fill-rule:nonzero;fill:rgb(12.940979%,11.764526%,11.764526%);fill-opacity:1;"
       d="M 136.453125 2.390625 L 135.6875 2.390625 L 135.953125 1.40625 C 135.96875 1.328125 135.953125 1.25 135.890625 1.265625 C 135.796875 1.25 135.765625 1.328125 135.71875 1.375 C 135.453125 1.71875 134.984375 2.140625 134.671875 2.3125 C 134.515625 2.390625 134.25 2.46875 134.1875 2.546875 C 134.15625 2.59375 134.15625 2.640625 134.171875 2.703125 L 134.875 2.703125 L 134.1875 5.34375 C 134.140625 5.5 133.96875 6.078125 133.96875 6.21875 C 133.96875 6.515625 134.234375 6.609375 134.421875 6.609375 C 134.921875 6.609375 135.296875 6.1875 135.78125 5.4375 L 135.65625 5.375 C 135.421875 5.6875 135.09375 6.140625 134.890625 6.140625 C 134.796875 6.140625 134.734375 6.0625 134.734375 5.96875 C 134.734375 5.9375 134.734375 5.921875 134.75 5.890625 L 135.59375 2.703125 L 136.40625 2.703125 Z M 136.453125 2.390625 "
       id="path142" />
    <path
       style=" stroke:none;fill-rule:nonzero;fill:rgb(12.940979%,11.764526%,11.764526%);fill-opacity:1;"
       d="M 136.558594 8.234375 C 137.980469 7.078125 139.042969 5.5 139.042969 3.671875 C 139.042969 2.4375 138.792969 1.203125 138.105469 0.078125 L 137.917969 0.125 C 138.167969 0.65625 138.386719 1.609375 138.386719 2.640625 C 138.386719 3.484375 138.230469 4.625 137.839844 5.796875 C 137.402344 7.0625 136.855469 7.640625 136.433594 8.078125 Z M 136.558594 8.234375 "
       id="path144" />
    <path
       style=" stroke:none;fill-rule:nonzero;fill:rgb(12.940979%,11.764526%,11.764526%);fill-opacity:1;"
       d="M 144.796875 3.75 L 142.703125 3.75 L 142.703125 4.390625 L 144.796875 4.390625 L 144.796875 6.5 L 145.4375 6.5 L 145.4375 4.390625 L 147.53125 4.390625 L 147.53125 3.75 L 145.4375 3.75 L 145.4375 1.640625 L 144.796875 1.640625 Z M 144.796875 3.75 "
       id="path146" />
    <path
       style=" stroke:none;fill-rule:nonzero;fill:rgb(12.940979%,11.764526%,11.764526%);fill-opacity:1;"
       d="M 150.910156 2.640625 L 151.097656 2.625 C 151.519531 2.609375 151.566406 2.65625 151.675781 3.375 C 151.753906 3.90625 151.847656 4.734375 151.878906 5.375 L 151.910156 6.21875 C 151.910156 6.359375 151.910156 6.671875 152.035156 6.671875 C 152.175781 6.671875 152.253906 6.46875 153.175781 4.828125 C 153.613281 4.0625 153.847656 3.65625 154.019531 3.359375 L 154.035156 3.359375 L 154.316406 6.390625 C 154.316406 6.53125 154.316406 6.671875 154.425781 6.671875 C 154.535156 6.671875 154.660156 6.484375 155.035156 6.03125 C 155.488281 5.515625 156.972656 3.640625 156.972656 2.8125 C 156.972656 2.53125 156.816406 2.265625 156.457031 2.265625 C 156.191406 2.265625 156.097656 2.4375 156.097656 2.609375 C 156.097656 2.921875 156.503906 2.96875 156.503906 3.3125 C 156.503906 3.8125 155.769531 4.75 154.925781 5.796875 L 154.613281 2.34375 C 154.613281 2.328125 154.613281 2.28125 154.550781 2.28125 C 154.488281 2.28125 154.457031 2.3125 154.425781 2.359375 L 152.597656 5.265625 L 152.582031 5.265625 C 152.582031 5.09375 152.488281 3.78125 152.300781 2.8125 C 152.207031 2.28125 152.175781 2.265625 152.128906 2.265625 C 152.035156 2.265625 151.457031 2.421875 150.910156 2.5 Z M 150.910156 2.640625 "
       id="path148" />
    <path
       style=" stroke:none;fill-rule:nonzero;fill:rgb(12.940979%,11.764526%,11.764526%);fill-opacity:1;"
       d="M 159.390625 7.320313 C 159.296875 7.523438 159.203125 7.679688 158.84375 7.679688 L 157.78125 7.679688 L 157.78125 7.648438 L 158.84375 6.570313 C 159.546875 5.882813 159.6875 5.632813 159.6875 5.257813 C 159.6875 4.835938 159.375 4.320313 158.78125 4.320313 C 158.640625 4.320313 157.90625 4.335938 157.609375 5.210938 L 157.71875 5.257813 C 157.796875 5.117188 158.015625 4.726563 158.515625 4.726563 C 158.953125 4.726563 159.203125 5.070313 159.203125 5.414063 C 159.203125 5.601563 159.1875 5.914063 158.390625 6.757813 L 157.21875 8.007813 L 157.21875 8.101563 L 159.203125 8.101563 L 159.484375 7.367188 Z M 159.390625 7.320313 "
       id="path150" />
    <path
       style=" stroke:none;fill-rule:nonzero;fill:rgb(12.940979%,11.764526%,11.764526%);fill-opacity:1;"
       d="M 160.582031 7.226563 C 160.582031 6.679688 160.988281 4.476563 161.816406 4.476563 C 162.300781 4.476563 162.300781 5.054688 162.300781 5.210938 C 162.300781 6.195313 161.816406 7.976563 161.066406 7.976563 C 160.878906 7.976563 160.582031 7.882813 160.582031 7.226563 Z M 162.738281 5.710938 C 162.738281 5.164063 162.582031 4.320313 161.847656 4.320313 C 161.066406 4.320313 160.128906 5.476563 160.128906 6.976563 C 160.128906 7.570313 160.457031 8.148438 161.035156 8.148438 C 161.972656 8.148438 162.738281 6.820313 162.738281 5.710938 Z M 162.738281 5.710938 "
       id="path152" />
    <g
       clip-path="url(#clip2)"
       clip-rule="nonzero"
       id="g156">
      <path
         style=" stroke:none;fill-rule:nonzero;fill:rgb(12.940979%,11.764526%,11.764526%);fill-opacity:1;"
         d="M 163.976563 7.359375 C 163.945313 7.53125 163.898438 7.703125 163.539063 7.703125 L 162.945313 7.703125 L 162.867188 7.96875 L 164.539063 7.96875 L 166.429688 0.140625 L 164.617188 0.140625 L 164.539063 0.390625 L 165.085938 0.390625 C 165.226563 0.390625 165.554688 0.390625 165.554688 0.671875 C 165.554688 0.703125 165.539063 0.796875 165.523438 0.859375 Z M 163.976563 7.359375 "
         id="path154" />
    </g>
  </g>
</svg>
