<?xml version="1.0" encoding="UTF-8" standalone="no"?>
<svg
   xmlns:dc="http://purl.org/dc/elements/1.1/"
   xmlns:cc="http://creativecommons.org/ns#"
   xmlns:rdf="http://www.w3.org/1999/02/22-rdf-syntax-ns#"
   xmlns:svg="http://www.w3.org/2000/svg"
   xmlns="http://www.w3.org/2000/svg"
   xmlns:sodipodi="http://sodipodi.sourceforge.net/DTD/sodipodi-0.dtd"
   xmlns:inkscape="http://www.inkscape.org/namespaces/inkscape"
   width="94.200897pt"
   height="60.626373pt"
   viewBox="0 0 94.200897 60.626373"
   version="1.2"
   id="svg91"
   sodipodi:docname="ica_signal_02.svg"
   inkscape:version="0.92.4 (5da689c313, 2019-01-14)">
  <metadata
     id="metadata95">
    <rdf:RDF>
      <cc:Work
         rdf:about="">
        <dc:format>image/svg+xml</dc:format>
        <dc:type
           rdf:resource="http://purl.org/dc/dcmitype/StillImage" />
        <dc:title></dc:title>
      </cc:Work>
    </rdf:RDF>
  </metadata>
  <sodipodi:namedview
     pagecolor="#ffffff"
     bordercolor="#666666"
     borderopacity="1"
     objecttolerance="10"
     gridtolerance="10"
     guidetolerance="10"
     inkscape:pageopacity="0"
     inkscape:pageshadow="2"
     inkscape:window-width="640"
     inkscape:window-height="480"
     id="namedview93"
     showgrid="false"
     inkscape:zoom="2.7388274"
     inkscape:cx="62.800598"
     inkscape:cy="40.417582"
     inkscape:window-x="0"
     inkscape:window-y="0"
     inkscape:window-maximized="0"
     inkscape:current-layer="svg91" />
  <defs
     id="defs8">
    <clipPath
       id="clip1">
      <path
         d="M 5 57 L 8 57 L 8 60.625 L 5 60.625 Z M 5 57 "
         id="path2" />
    </clipPath>
    <clipPath
       id="clip2">
      <path
         d="M 91 32 L 94.199219 32 L 94.199219 38 L 91 38 Z M 91 32 "
         id="path5" />
    </clipPath>
  </defs>
  <g
     id="surface32">
    <path
       style="fill:none;stroke-width:0.055;stroke-linecap:round;stroke-linejoin:round;stroke:rgb(12.940979%,11.764526%,11.764526%);stroke-opacity:1;stroke-miterlimit:4;"
       d="M 24.945313 35.039063 L 24.945313 34.554688 "
       id="path10" />
    <path
       style=" stroke:none;fill-rule:nonzero;fill:rgb(12.940979%,11.764526%,11.764526%);fill-opacity:1;"
       d="M 25.382813 39.910156 C 25.320313 40.035156 25.257813 40.144531 25.023438 40.144531 L 24.351563 40.144531 L 24.351563 40.113281 L 25.039063 39.425781 C 25.476563 38.988281 25.570313 38.816406 25.570313 38.582031 C 25.570313 38.316406 25.367188 37.988281 24.992188 37.988281 C 24.898438 37.988281 24.429688 37.988281 24.226563 38.550781 L 24.304688 38.582031 C 24.351563 38.488281 24.492188 38.238281 24.820313 38.238281 C 25.101563 38.238281 25.257813 38.457031 25.257813 38.675781 C 25.257813 38.800781 25.242188 39.003906 24.742188 39.550781 L 23.992188 40.347656 L 23.992188 40.410156 L 25.257813 40.410156 L 25.445313 39.941406 Z M 25.382813 39.910156 "
       id="path12" />
    <path
       style="fill:none;stroke-width:0.055;stroke-linecap:round;stroke-linejoin:round;stroke:rgb(12.940979%,11.764526%,11.764526%);stroke-opacity:1;stroke-miterlimit:4;"
       d="M 39.726563 35.039063 L 39.726563 34.554688 "
       id="path14" />
    <path
       style=" stroke:none;fill-rule:nonzero;fill:rgb(12.940979%,11.764526%,11.764526%);fill-opacity:1;"
       d="M 39.726563 39.550781 L 38.960938 39.550781 L 38.960938 39.535156 L 40.054688 38.394531 L 40.070313 38.394531 Z M 40.351563 39.550781 L 40.007813 39.550781 L 40.445313 37.988281 L 40.304688 37.988281 L 38.804688 39.535156 L 38.726563 39.769531 L 39.664063 39.769531 L 39.492188 40.410156 L 39.773438 40.410156 L 39.945313 39.785156 L 40.304688 39.785156 Z M 40.351563 39.550781 "
       id="path16" />
    <path
       style="fill:none;stroke-width:0.055;stroke-linecap:round;stroke-linejoin:round;stroke:rgb(12.940979%,11.764526%,11.764526%);stroke-opacity:1;stroke-miterlimit:4;"
       d="M 54.515625 35.039063 L 54.515625 34.554688 "
       id="path18" />
    <path
       style=" stroke:none;fill-rule:nonzero;fill:rgb(12.940979%,11.764526%,11.764526%);fill-opacity:1;"
       d="M 55.390625 37.941406 C 54.28125 38.019531 53.625 38.910156 53.625 39.660156 C 53.625 40.238281 53.984375 40.441406 54.265625 40.441406 C 54.875 40.441406 55.171875 39.832031 55.171875 39.472656 C 55.171875 38.957031 54.8125 38.800781 54.5625 38.800781 C 54.5 38.800781 54.453125 38.816406 54.40625 38.832031 C 54.34375 38.832031 54.296875 38.847656 54.25 38.878906 L 54.234375 38.878906 C 54.3125 38.691406 54.75 38.082031 55.390625 38.003906 Z M 54.421875 38.925781 C 54.703125 38.925781 54.859375 39.113281 54.859375 39.394531 C 54.859375 39.722656 54.65625 40.347656 54.25 40.347656 C 53.890625 40.347656 53.890625 39.941406 53.890625 39.847656 C 53.890625 39.785156 53.9375 38.925781 54.421875 38.925781 Z M 54.421875 38.925781 "
       id="path20" />
    <path
       style="fill:none;stroke-width:0.055;stroke-linecap:round;stroke-linejoin:round;stroke:rgb(12.940979%,11.764526%,11.764526%);stroke-opacity:1;stroke-miterlimit:4;"
       d="M 69.300781 35.039063 L 69.300781 34.554688 "
       id="path22" />
    <path
       style=" stroke:none;fill-rule:nonzero;fill:rgb(12.940979%,11.764526%,11.764526%);fill-opacity:1;"
       d="M 68.40625 39.847656 C 68.40625 39.957031 68.484375 40.441406 69.125 40.441406 C 69.609375 40.441406 69.890625 40.113281 69.890625 39.800781 C 69.890625 39.519531 69.75 39.300781 69.484375 39.035156 C 69.671875 38.972656 70.0625 38.847656 70.0625 38.488281 C 70.0625 38.097656 69.6875 37.988281 69.4375 37.988281 C 69.109375 37.988281 68.796875 38.160156 68.796875 38.519531 C 68.796875 38.707031 68.890625 38.878906 69.109375 39.113281 C 69.015625 39.144531 68.40625 39.332031 68.40625 39.847656 Z M 68.65625 39.863281 C 68.65625 39.394531 69.09375 39.207031 69.1875 39.175781 C 69.53125 39.535156 69.625 39.628906 69.625 39.863281 C 69.625 40.207031 69.34375 40.363281 69.15625 40.363281 C 68.84375 40.363281 68.65625 40.144531 68.65625 39.863281 Z M 69.078125 38.457031 C 69.078125 38.222656 69.203125 38.066406 69.4375 38.066406 C 69.734375 38.066406 69.828125 38.316406 69.828125 38.488281 C 69.828125 38.785156 69.609375 38.878906 69.421875 38.972656 C 69.078125 38.660156 69.078125 38.550781 69.078125 38.457031 Z M 69.078125 38.457031 "
       id="path24" />
    <path
       style="fill:none;stroke-width:0.055;stroke-linecap:round;stroke-linejoin:round;stroke:rgb(12.940979%,11.764526%,11.764526%);stroke-opacity:1;stroke-miterlimit:4;"
       d="M 84.085938 35.039063 L 84.085938 34.554688 "
       id="path26" />
    <path
       style=" stroke:none;fill-rule:nonzero;fill:rgb(12.940979%,11.764526%,11.764526%);fill-opacity:1;"
       d="M 82.257813 40.410156 L 83.257813 40.410156 L 83.257813 40.363281 C 83.085938 40.363281 82.960938 40.347656 82.960938 40.238281 C 82.960938 40.175781 83.007813 40.050781 83.023438 39.972656 L 83.539063 38.113281 C 83.554688 38.050781 83.570313 37.988281 83.539063 37.988281 C 83.507813 37.988281 83.007813 38.082031 82.851563 38.113281 L 82.851563 38.175781 L 83.054688 38.160156 C 83.085938 38.160156 83.179688 38.160156 83.179688 38.285156 C 83.179688 38.300781 83.164063 38.363281 83.164063 38.394531 L 82.664063 40.160156 C 82.617188 40.332031 82.476563 40.332031 82.257813 40.363281 Z M 82.257813 40.410156 "
       id="path28" />
    <path
       style=" stroke:none;fill-rule:nonzero;fill:rgb(12.940979%,11.764526%,11.764526%);fill-opacity:1;"
       d="M 84.289063 39.847656 C 84.289063 39.503906 84.539063 38.082031 85.070313 38.082031 C 85.382813 38.082031 85.382813 38.441406 85.382813 38.550781 C 85.382813 39.191406 85.070313 40.332031 84.601563 40.332031 C 84.476563 40.332031 84.289063 40.269531 84.289063 39.847656 Z M 85.664063 38.878906 C 85.664063 38.519531 85.570313 37.988281 85.101563 37.988281 C 84.601563 37.988281 83.992188 38.722656 83.992188 39.691406 C 83.992188 40.066406 84.195313 40.441406 84.570313 40.441406 C 85.179688 40.441406 85.664063 39.597656 85.664063 38.878906 Z M 85.664063 38.878906 "
       id="path30" />
    <path
       style="fill:none;stroke-width:0.4;stroke-linecap:round;stroke-linejoin:round;stroke:rgb(12.940979%,11.764526%,11.764526%);stroke-opacity:1;stroke-miterlimit:4;"
       d="M 10.710938 35.039063 L 85.933594 35.039063 "
       id="path32" />
    <path
       style=" stroke:none;fill-rule:nonzero;fill:rgb(12.940979%,11.764526%,11.764526%);fill-opacity:1;"
       d="M 87.351563 34.421875 C 86.359375 34.125 85.714844 33.847656 84.917969 33.527344 L 84.917969 36.554688 C 85.203125 36.421875 86.359375 35.960938 87.351563 35.660156 C 88.414063 35.339844 89.375 35.121094 90 35.042969 C 89.375 34.964844 88.414063 34.746094 87.351563 34.421875 "
       id="path34" />
    <path
       style="fill:none;stroke-width:0.055;stroke-linecap:round;stroke-linejoin:round;stroke:rgb(12.940979%,11.764526%,11.764526%);stroke-opacity:1;stroke-miterlimit:4;"
       d="M 10.160156 59.023438 L 10.644531 59.023438 "
       id="path36" />
    <path
       style=" stroke:none;fill-rule:nonzero;fill:rgb(12.940979%,11.764526%,11.764526%);fill-opacity:1;"
       d="M 5.125 59.40625 L 4.0625 59.40625 L 4 59.703125 L 5.0625 59.703125 Z M 5.125 59.40625 "
       id="path38" />
    <g
       clip-path="url(#clip1)"
       clip-rule="nonzero"
       id="g42">
      <path
         style=" stroke:none;fill-rule:nonzero;fill:rgb(12.940979%,11.764526%,11.764526%);fill-opacity:1;"
         d="M 5.597656 60.625 L 6.941406 60.625 L 6.941406 60.546875 C 6.691406 60.5625 6.519531 60.546875 6.519531 60.390625 C 6.519531 60.3125 6.582031 60.140625 6.613281 60.046875 L 7.300781 57.5625 C 7.316406 57.484375 7.347656 57.375 7.300781 57.375 C 7.269531 57.375 6.597656 57.53125 6.378906 57.5625 L 6.378906 57.640625 L 6.644531 57.625 C 6.691406 57.625 6.832031 57.625 6.832031 57.78125 C 6.832031 57.8125 6.816406 57.890625 6.800781 57.9375 L 6.128906 60.296875 C 6.066406 60.515625 5.878906 60.53125 5.597656 60.5625 Z M 5.597656 60.625 "
         id="path40" />
    </g>
    <path
       style="fill:none;stroke-width:0.055;stroke-linecap:round;stroke-linejoin:round;stroke:rgb(12.940979%,11.764526%,11.764526%);stroke-opacity:1;stroke-miterlimit:4;"
       d="M 10.160156 47.03125 L 10.644531 47.03125 "
       id="path44" />
    <path
       style=" stroke:none;fill-rule:nonzero;fill:rgb(12.940979%,11.764526%,11.764526%);fill-opacity:1;"
       d="M 1.125 47.414063 L 0.0625 47.414063 L 0 47.710938 L 1.0625 47.710938 Z M 1.125 47.414063 "
       id="path46" />
    <path
       style=" stroke:none;fill-rule:nonzero;fill:rgb(12.940979%,11.764526%,11.764526%);fill-opacity:1;"
       d="M 1.894531 47.882813 C 1.894531 47.414063 2.238281 45.523438 2.957031 45.523438 C 3.363281 45.523438 3.363281 46.007813 3.363281 46.164063 C 3.363281 46.992188 2.957031 48.539063 2.316406 48.539063 C 2.160156 48.539063 1.894531 48.445313 1.894531 47.882813 Z M 3.753906 46.585938 C 3.753906 46.117188 3.613281 45.382813 2.972656 45.382813 C 2.316406 45.382813 1.519531 46.382813 1.519531 47.679688 C 1.519531 48.179688 1.785156 48.664063 2.285156 48.664063 C 3.097656 48.664063 3.753906 47.539063 3.753906 46.585938 Z M 3.753906 46.585938 "
       id="path48" />
    <path
       style=" stroke:none;fill-rule:nonzero;fill:rgb(12.940979%,11.764526%,11.764526%);fill-opacity:1;"
       d="M 4.15625 48.679688 C 4.265625 48.679688 4.421875 48.601563 4.421875 48.429688 C 4.421875 48.273438 4.296875 48.148438 4.15625 48.148438 C 4.015625 48.148438 3.890625 48.273438 3.890625 48.429688 C 3.890625 48.601563 4.0625 48.679688 4.15625 48.679688 Z M 4.15625 48.679688 "
       id="path50" />
    <path
       style=" stroke:none;fill-rule:nonzero;fill:rgb(12.940979%,11.764526%,11.764526%);fill-opacity:1;"
       d="M 6.105469 45.773438 L 7.214844 45.773438 L 7.324219 45.445313 L 6.089844 45.445313 L 5.589844 46.476563 L 5.589844 46.554688 C 6.152344 46.679688 6.636719 46.773438 6.636719 47.507813 C 6.636719 47.929688 6.292969 48.460938 5.824219 48.460938 C 5.558594 48.460938 5.449219 48.195313 5.230469 48.195313 C 5.136719 48.195313 5.042969 48.257813 5.042969 48.398438 C 5.042969 48.539063 5.183594 48.664063 5.527344 48.664063 C 6.464844 48.664063 6.980469 47.929688 6.980469 47.320313 C 6.980469 46.664063 6.542969 46.320313 5.917969 46.195313 Z M 6.105469 45.773438 "
       id="path52" />
    <path
       style="fill:none;stroke-width:0.055;stroke-linecap:round;stroke-linejoin:round;stroke:rgb(12.940979%,11.764526%,11.764526%);stroke-opacity:1;stroke-miterlimit:4;"
       d="M 10.160156 23.046875 L 10.644531 23.046875 "
       id="path54" />
    <path
       style=" stroke:none;fill-rule:nonzero;fill:rgb(12.940979%,11.764526%,11.764526%);fill-opacity:1;"
       d="M 2.121094 23.898438 C 2.121094 23.429688 2.464844 21.539063 3.183594 21.539063 C 3.589844 21.539063 3.589844 22.023438 3.589844 22.179688 C 3.589844 23.007813 3.183594 24.554688 2.542969 24.554688 C 2.386719 24.554688 2.121094 24.460938 2.121094 23.898438 Z M 3.980469 22.601563 C 3.980469 22.132813 3.839844 21.398438 3.199219 21.398438 C 2.542969 21.398438 1.746094 22.398438 1.746094 23.695313 C 1.746094 24.195313 2.011719 24.679688 2.511719 24.679688 C 3.324219 24.679688 3.980469 23.554688 3.980469 22.601563 Z M 3.980469 22.601563 "
       id="path56" />
    <path
       style=" stroke:none;fill-rule:nonzero;fill:rgb(12.940979%,11.764526%,11.764526%);fill-opacity:1;"
       d="M 4.378906 24.695313 C 4.488281 24.695313 4.644531 24.617188 4.644531 24.445313 C 4.644531 24.289063 4.519531 24.164063 4.378906 24.164063 C 4.238281 24.164063 4.113281 24.289063 4.113281 24.445313 C 4.113281 24.617188 4.285156 24.695313 4.378906 24.695313 Z M 4.378906 24.695313 "
       id="path58" />
    <path
       style=" stroke:none;fill-rule:nonzero;fill:rgb(12.940979%,11.764526%,11.764526%);fill-opacity:1;"
       d="M 6.328125 21.789063 L 7.4375 21.789063 L 7.546875 21.460938 L 6.3125 21.460938 L 5.8125 22.492188 L 5.8125 22.570313 C 6.375 22.695313 6.859375 22.789063 6.859375 23.523438 C 6.859375 23.945313 6.515625 24.476563 6.046875 24.476563 C 5.78125 24.476563 5.671875 24.210938 5.453125 24.210938 C 5.359375 24.210938 5.265625 24.273438 5.265625 24.414063 C 5.265625 24.554688 5.40625 24.679688 5.75 24.679688 C 6.6875 24.679688 7.203125 23.945313 7.203125 23.335938 C 7.203125 22.679688 6.765625 22.335938 6.140625 22.210938 Z M 6.328125 21.789063 "
       id="path60" />
    <path
       style="fill:none;stroke-width:0.055;stroke-linecap:round;stroke-linejoin:round;stroke:rgb(12.940979%,11.764526%,11.764526%);stroke-opacity:1;stroke-miterlimit:4;"
       d="M 10.160156 11.054688 L 10.644531 11.054688 "
       id="path62" />
    <path
       style=" stroke:none;fill-rule:nonzero;fill:rgb(12.940979%,11.764526%,11.764526%);fill-opacity:1;"
       d="M 5.824219 12.65625 L 7.167969 12.65625 L 7.167969 12.578125 C 6.917969 12.59375 6.746094 12.578125 6.746094 12.421875 C 6.746094 12.34375 6.808594 12.171875 6.839844 12.078125 L 7.527344 9.59375 C 7.542969 9.515625 7.574219 9.40625 7.527344 9.40625 C 7.496094 9.40625 6.824219 9.5625 6.605469 9.59375 L 6.605469 9.671875 L 6.871094 9.65625 C 6.917969 9.65625 7.058594 9.65625 7.058594 9.8125 C 7.058594 9.84375 7.042969 9.921875 7.027344 9.96875 L 6.355469 12.328125 C 6.292969 12.546875 6.105469 12.5625 5.824219 12.59375 Z M 5.824219 12.65625 "
       id="path64" />
    <path
       style="fill:none;stroke-width:0.055;stroke-linecap:round;stroke-linejoin:round;stroke:rgb(12.940979%,11.764526%,11.764526%);stroke-opacity:1;stroke-miterlimit:4;"
       d="M 10.160156 59.023438 L 10.160156 11.054688 "
       id="path66" />
    <path
       style="fill:none;stroke-width:0.073;stroke-linecap:round;stroke-linejoin:round;stroke:rgb(12.940979%,11.764526%,11.764526%);stroke-opacity:1;stroke-miterlimit:4;"
       d="M 10.160156 35.039063 L 10.519531 23.847656 L 10.691406 19.308594 L 10.855469 15.816406 L 10.949219 14.246094 L 11.050781 12.921875 L 11.140625 12.070313 L 11.222656 11.59375 L 11.316406 11.425781 L 11.414063 11.65625 L 11.46875 11.933594 L 11.523438 12.351563 L 11.621094 13.414063 L 11.722656 14.921875 L 11.816406 16.660156 L 12.03125 21.65625 L 12.421875 33.191406 L 12.777344 44.019531 L 12.964844 49.007813 L 13.160156 53.296875 L 13.265625 55.089844 L 13.324219 55.871094 L 13.382813 56.574219 L 13.4375 57.09375 L 13.488281 57.460938 L 13.585938 57.871094 L 13.683594 57.871094 L 13.742188 57.691406 L 13.792969 57.410156 L 13.886719 56.609375 L 13.988281 55.371094 L 14.175781 52.164063 L 14.347656 48.199219 L 14.742188 36.957031 L 15.136719 25.285156 L 15.351563 19.929688 L 15.554688 16.117188 L 15.660156 14.660156 L 15.71875 14.027344 L 15.773438 13.566406 L 15.832031 13.195313 L 15.894531 12.949219 L 15.953125 12.863281 L 16.011719 12.917969 L 16.105469 13.3125 L 16.164063 13.703125 L 16.214844 14.171875 L 16.316406 15.421875 L 16.429688 17.195313 L 16.625 21.28125 L 16.839844 26.667969 L 17.214844 37.644531 L 17.429688 43.648438 L 17.65625 49.285156 L 17.761719 51.4375 L 17.875 53.34375 L 17.96875 54.636719 L 18.019531 55.1875 L 18.074219 55.679688 L 18.125 56.070313 L 18.179688 56.328125 L 18.277344 56.53125 L 18.332031 56.472656 L 18.390625 56.289063 L 18.441406 56.023438 L 18.496094 55.621094 L 18.59375 54.625 L 18.699219 53.171875 L 18.890625 49.636719 L 19.277344 39.890625 L 19.632813 29.847656 L 20 20.757813 L 20.109375 18.722656 L 20.207031 17.121094 L 20.300781 15.960938 L 20.398438 15.027344 L 20.480469 14.496094 L 20.578125 14.230469 L 20.675781 14.308594 L 20.765625 14.710938 L 20.847656 15.367188 L 20.929688 16.199219 L 21.105469 18.808594 L 21.308594 22.980469 L 21.5 27.648438 L 21.929688 39.394531 L 22.308594 48.574219 L 22.5 51.972656 L 22.609375 53.40625 L 22.714844 54.386719 L 22.804688 54.949219 L 22.902344 55.207031 L 22.992188 55.136719 L 23.078125 54.800781 L 23.175781 54.089844 L 23.230469 53.535156 L 23.28125 52.9375 L 23.472656 49.929688 L 23.660156 46.105469 L 23.867188 41.132813 L 24.277344 30.175781 L 24.632813 21.867188 L 24.738281 19.980469 L 24.835938 18.460938 L 24.925781 17.332031 L 25.019531 16.414063 L 25.109375 15.828125 L 25.191406 15.539063 L 25.273438 15.492188 L 25.351563 15.671875 L 25.441406 16.148438 L 25.523438 16.835938 L 25.617188 17.855469 L 25.714844 19.214844 L 25.910156 22.796875 L 26.097656 26.972656 L 26.648438 40.960938 L 26.859375 45.832031 L 27.054688 49.550781 L 27.152344 51.011719 L 27.238281 52.113281 L 27.316406 52.867188 L 27.394531 53.457031 L 27.472656 53.832031 L 27.5625 53.992188 L 27.652344 53.875 L 27.75 53.445313 L 27.839844 52.761719 L 27.921875 51.910156 L 28.101563 49.289063 L 28.300781 45.492188 L 28.664063 36.972656 L 29.015625 28.21875 L 29.214844 23.96875 L 29.398438 20.660156 L 29.5 19.1875 L 29.554688 18.539063 L 29.617188 17.949219 L 29.667969 17.5 L 29.71875 17.175781 L 29.816406 16.773438 L 29.914063 16.679688 L 29.96875 16.765625 L 30.015625 16.929688 L 30.109375 17.453125 L 30.207031 18.292969 L 30.308594 19.488281 L 30.402344 20.828125 L 30.609375 24.601563 "
       id="path68" />
    <path
       style="fill:none;stroke-width:0.073;stroke-linecap:round;stroke-linejoin:round;stroke:rgb(12.940979%,11.764526%,11.764526%);stroke-opacity:1;stroke-miterlimit:4;"
       d="M 30.609375 24.601563 L 30.984375 33.191406 L 31.398438 43.003906 L 31.625 47.46875 L 31.738281 49.242188 L 31.839844 50.582031 L 31.929688 51.53125 L 32.015625 52.199219 L 32.109375 52.648438 L 32.207031 52.835938 L 32.308594 52.695313 L 32.367188 52.46875 L 32.417969 52.175781 L 32.515625 51.371094 L 32.613281 50.339844 L 32.789063 47.738281 L 32.953125 44.703125 L 33.328125 36.425781 L 33.730469 27.148438 L 33.929688 23.34375 L 34.109375 20.617188 L 34.207031 19.488281 L 34.300781 18.675781 L 34.398438 18.097656 L 34.453125 17.90625 L 34.503906 17.808594 L 34.601563 17.863281 L 34.660156 18.035156 L 34.714844 18.285156 L 34.773438 18.644531 L 34.824219 19.050781 L 34.9375 20.253906 L 35.132813 23.027344 L 35.304688 26.242188 L 36.066406 42.960938 L 36.230469 45.988281 L 36.40625 48.695313 L 36.507813 49.867188 L 36.597656 50.71875 L 36.699219 51.347656 L 36.75 51.578125 L 36.804688 51.703125 L 36.859375 51.753906 L 36.910156 51.71875 L 36.964844 51.589844 L 37.023438 51.347656 L 37.082031 51.019531 L 37.132813 50.628906 L 37.234375 49.679688 L 37.429688 47.078125 L 37.609375 43.957031 L 38.378906 27.574219 L 38.578125 23.960938 L 38.679688 22.472656 L 38.769531 21.304688 L 38.851563 20.414063 L 38.949219 19.65625 L 39.039063 19.136719 L 39.140625 18.867188 L 39.222656 18.867188 L 39.3125 19.09375 L 39.398438 19.527344 L 39.476563 20.105469 L 39.570313 21.011719 L 39.667969 22.226563 L 39.851563 24.976563 L 40.257813 33.046875 L 40.683594 42.003906 L 40.875 45.339844 L 40.972656 46.84375 L 41.082031 48.21875 L 41.183594 49.292969 L 41.28125 50.023438 L 41.375 50.503906 L 41.46875 50.714844 L 41.570313 50.675781 L 41.664063 50.371094 L 41.714844 50.117188 L 41.765625 49.753906 L 41.878906 48.785156 L 41.988281 47.496094 L 42.09375 46.070313 L 42.324219 42.136719 L 42.929688 29.78125 L 43.136719 26.0625 L 43.324219 23.238281 L 43.417969 22.125 L 43.5 21.28125 L 43.597656 20.550781 L 43.648438 20.269531 L 43.703125 20.042969 L 43.789063 19.847656 L 43.886719 19.878906 L 43.941406 20.007813 L 43.992188 20.199219 L 44.046875 20.5 L 44.101563 20.871094 L 44.199219 21.710938 L 44.304688 22.890625 L 44.503906 25.730469 L 44.71875 29.523438 L 45.105469 37.273438 L 45.453125 43.667969 L 45.648438 46.519531 L 45.742188 47.605469 L 45.832031 48.445313 L 45.882813 48.832031 L 45.9375 49.175781 L 46.035156 49.597656 L 46.085938 49.726563 L 46.140625 49.785156 L 46.246094 49.660156 L 46.296875 49.496094 L 46.351563 49.234375 L 46.453125 48.570313 L 46.574219 47.457031 L 46.679688 46.15625 L 47.058594 40.011719 L 47.460938 32.265625 L 47.644531 28.886719 L 47.84375 25.667969 L 47.933594 24.410156 L 48.027344 23.253906 L 48.113281 22.417969 L 48.203125 21.703125 L 48.304688 21.125 L 48.398438 20.828125 L 48.457031 20.761719 L 48.511719 20.78125 L 48.5625 20.867188 L 48.617188 21.03125 L 48.710938 21.5 L 48.8125 22.242188 L 48.910156 23.15625 L 48.992188 24.152344 L 49.6875 35.933594 L 50.066406 42.65625 L 50.25 45.292969 L 50.417969 47.136719 L 50.511719 47.882813 L 50.597656 48.40625 L 50.691406 48.75 L 50.792969 48.886719 L 50.839844 48.859375 L 50.894531 48.757813 L 50.953125 48.578125 L 51.003906 48.335938 L 51.097656 47.734375 "
       id="path70" />
    <path
       style="fill:none;stroke-width:0.073;stroke-linecap:round;stroke-linejoin:round;stroke:rgb(12.940979%,11.764526%,11.764526%);stroke-opacity:1;stroke-miterlimit:4;"
       d="M 51.097656 47.730469 L 51.199219 46.859375 L 51.390625 44.628906 L 51.574219 41.917969 L 51.917969 35.894531 L 52.289063 29.21875 L 52.496094 26.105469 L 52.691406 23.8125 L 52.800781 22.839844 L 52.859375 22.441406 L 52.917969 22.101563 L 52.96875 21.886719 L 53.027344 21.722656 L 53.125 21.628906 L 53.226563 21.78125 L 53.285156 21.972656 L 53.339844 22.21875 L 53.4375 22.871094 L 53.535156 23.699219 L 53.71875 25.789063 L 53.890625 28.265625 L 54.285156 34.988281 L 54.699219 41.984375 L 54.878906 44.464844 L 54.972656 45.550781 L 55.078125 46.511719 L 55.167969 47.175781 L 55.25 47.621094 L 55.332031 47.910156 L 55.414063 48.03125 L 55.5 47.992188 L 55.582031 47.796875 L 55.671875 47.40625 L 55.765625 46.796875 L 55.851563 46.058594 L 55.949219 45.09375 L 56.121094 42.953125 L 56.507813 36.777344 L 56.886719 30.328125 L 57.097656 27.238281 L 57.292969 24.90625 L 57.402344 23.886719 L 57.464844 23.453125 L 57.527344 23.078125 L 57.578125 22.828125 L 57.636719 22.621094 L 57.738281 22.449219 L 57.789063 22.453125 L 57.839844 22.511719 L 57.898438 22.652344 L 57.949219 22.847656 L 58.042969 23.359375 L 58.148438 24.128906 L 58.339844 26.042969 L 58.542969 28.796875 L 58.960938 35.539063 L 59.316406 41.214844 L 59.523438 43.855469 L 59.621094 44.90625 L 59.707031 45.707031 L 59.804688 46.382813 L 59.894531 46.84375 L 59.992188 47.148438 L 60.09375 47.246094 L 60.191406 47.117188 L 60.246094 46.960938 L 60.300781 46.726563 L 60.402344 46.148438 L 60.496094 45.425781 L 60.675781 43.570313 L 60.839844 41.433594 L 61.214844 35.691406 L 61.609375 29.476563 L 61.820313 26.757813 L 61.933594 25.539063 L 62.042969 24.609375 L 62.148438 23.929688 L 62.207031 23.644531 L 62.257813 23.445313 L 62.351563 23.242188 L 62.453125 23.230469 L 62.546875 23.421875 L 62.632813 23.761719 L 62.730469 24.320313 L 62.832031 25.109375 L 63.03125 27.175781 L 63.246094 29.976563 L 63.625 35.824219 L 63.839844 39.09375 L 64.070313 42.207031 L 64.179688 43.476563 L 64.285156 44.503906 L 64.382813 45.265625 L 64.484375 45.886719 L 64.582031 46.28125 L 64.667969 46.46875 L 64.757813 46.496094 L 64.84375 46.371094 L 64.9375 46.046875 L 65.027344 45.582031 L 65.125 44.898438 L 65.226563 43.988281 L 65.621094 39.195313 L 66.050781 32.75 L 66.246094 29.972656 L 66.457031 27.367188 L 66.554688 26.375 L 66.65625 25.492188 L 66.746094 24.882813 L 66.839844 24.378906 L 66.933594 24.070313 L 67.019531 23.9375 L 67.117188 23.96875 L 67.214844 24.191406 L 67.300781 24.550781 L 67.382813 25.007813 L 67.5625 26.472656 L 67.773438 28.800781 L 67.972656 31.457031 L 68.347656 36.914063 L 68.75 42.175781 L 68.859375 43.300781 L 68.976563 44.285156 L 69.078125 44.945313 L 69.132813 45.222656 L 69.183594 45.460938 L 69.289063 45.730469 L 69.382813 45.804688 L 69.433594 45.765625 L 69.492188 45.671875 L 69.589844 45.347656 L 69.6875 44.855469 L 69.777344 44.261719 L 69.972656 42.457031 L 70.324219 38.113281 L 70.695313 32.867188 L 71.070313 28.160156 L 71.175781 27.089844 L 71.277344 26.234375 L 71.371094 25.605469 L 71.46875 25.09375 L 71.523438 24.898438 L 71.578125 24.738281 L 71.679688 24.609375 L 71.734375 24.621094 L 71.796875 24.703125 L 71.855469 24.84375 L 71.910156 25.03125 L 72.003906 25.492188 L 72.109375 26.171875 L 72.316406 28.054688 "
       id="path72" />
    <path
       style="fill:none;stroke-width:0.073;stroke-linecap:round;stroke-linejoin:round;stroke:rgb(12.940979%,11.764526%,11.764526%);stroke-opacity:1;stroke-miterlimit:4;"
       d="M 72.316406 28.054688 L 72.695313 32.679688 L 73.101563 38.265625 L 73.289063 40.582031 L 73.488281 42.636719 L 73.65625 43.953125 L 73.75 44.5 L 73.84375 44.863281 L 73.894531 45.007813 L 73.953125 45.109375 L 74.007813 45.148438 L 74.058594 45.140625 L 74.152344 44.988281 L 74.253906 44.644531 L 74.304688 44.398438 L 74.359375 44.082031 L 74.464844 43.382813 L 74.695313 41.230469 L 75.097656 36.269531 L 75.46875 31.347656 L 75.652344 29.207031 L 75.828125 27.523438 L 75.925781 26.769531 L 76.027344 26.109375 L 76.121094 25.664063 L 76.210938 25.394531 L 76.308594 25.253906 L 76.398438 25.269531 L 76.496094 25.460938 L 76.554688 25.644531 L 76.601563 25.855469 L 76.707031 26.414063 L 76.820313 27.210938 L 77.023438 29.09375 L 77.464844 34.453125 L 77.882813 39.664063 L 78.0625 41.554688 L 78.257813 43.117188 L 78.355469 43.71875 L 78.410156 43.972656 L 78.464844 44.199219 L 78.566406 44.453125 L 78.660156 44.535156 L 78.761719 44.449219 L 78.855469 44.214844 L 78.90625 44.03125 L 78.960938 43.78125 L 79.070313 43.136719 L 79.273438 41.523438 L 79.457031 39.582031 L 80.1875 30.738281 L 80.386719 28.714844 L 80.496094 27.796875 L 80.597656 27.089844 L 80.683594 26.601563 L 80.777344 26.207031 L 80.878906 25.9375 L 80.972656 25.839844 L 81.023438 25.847656 L 81.078125 25.914063 L 81.179688 26.152344 L 81.234375 26.355469 L 81.289063 26.589844 L 81.40625 27.277344 L 81.601563 28.847656 L 81.816406 31.011719 L 82.371094 37.667969 L 82.667969 40.785156 L 82.832031 42.15625 L 82.910156 42.679688 L 82.980469 43.085938 L 83.046875 43.40625 L 83.121094 43.671875 L 83.199219 43.855469 L 83.277344 43.949219 L 83.34375 43.949219 L 83.417969 43.859375 L 83.492188 43.695313 L 83.554688 43.476563 L 83.621094 43.175781 L 83.683594 42.835938 L 83.828125 41.871094 L 84.085938 39.511719 "
       id="path74" />
    <path
       style=" stroke:none;fill-rule:nonzero;fill:rgb(12.940979%,11.764526%,11.764526%);fill-opacity:1;"
       d="M 10.621094 5.359375 C 10.355469 5.640625 10.167969 6 9.964844 6 C 9.777344 6 9.699219 5.765625 9.667969 5.609375 C 9.605469 5.359375 9.277344 4.0625 9.277344 3.890625 C 9.277344 3.890625 9.933594 2.734375 10.214844 2.734375 C 10.433594 2.734375 10.496094 2.890625 10.730469 2.890625 C 10.949219 2.890625 11.042969 2.703125 11.042969 2.53125 C 11.042969 2.3125 10.839844 2.1875 10.652344 2.1875 C 10.152344 2.1875 9.699219 2.78125 9.214844 3.5625 L 9.105469 3.03125 C 8.933594 2.1875 8.792969 2.1875 8.574219 2.1875 C 8.261719 2.1875 7.636719 2.421875 7.371094 2.5 L 7.417969 2.65625 C 7.714844 2.578125 7.855469 2.546875 7.949219 2.546875 C 8.199219 2.546875 8.246094 2.6875 8.324219 2.984375 C 8.339844 3.03125 8.667969 4.296875 8.667969 4.390625 C 7.792969 5.640625 7.542969 5.96875 7.386719 5.96875 C 7.214844 5.96875 7.042969 5.78125 6.824219 5.78125 C 6.621094 5.78125 6.496094 5.96875 6.496094 6.109375 C 6.496094 6.34375 6.652344 6.53125 6.980469 6.53125 C 7.277344 6.53125 7.386719 6.421875 7.542969 6.234375 C 7.871094 5.890625 8.277344 5.359375 8.730469 4.734375 L 9.027344 5.890625 C 9.152344 6.390625 9.292969 6.53125 9.574219 6.53125 C 9.792969 6.53125 10.074219 6.53125 10.746094 5.4375 Z M 10.621094 5.359375 "
       id="path76" />
    <path
       style=" stroke:none;fill-rule:nonzero;fill:rgb(12.940979%,11.764526%,11.764526%);fill-opacity:1;"
       d="M 13.261719 7.242188 C 13.167969 7.445313 13.074219 7.601563 12.714844 7.601563 L 11.652344 7.601563 L 11.652344 7.570313 L 12.714844 6.492188 C 13.417969 5.804688 13.558594 5.554688 13.558594 5.179688 C 13.558594 4.757813 13.246094 4.242188 12.652344 4.242188 C 12.511719 4.242188 11.777344 4.257813 11.480469 5.132813 L 11.589844 5.179688 C 11.667969 5.039063 11.886719 4.648438 12.386719 4.648438 C 12.824219 4.648438 13.074219 4.992188 13.074219 5.335938 C 13.074219 5.523438 13.058594 5.835938 12.261719 6.679688 L 11.089844 7.929688 L 11.089844 8.023438 L 13.074219 8.023438 L 13.355469 7.289063 Z M 13.261719 7.242188 "
       id="path78" />
    <path
       style=" stroke:none;fill-rule:nonzero;fill:rgb(12.940979%,11.764526%,11.764526%);fill-opacity:1;"
       d="M 15.355469 8.09375 C 14.886719 6.921875 14.886719 6.078125 14.886719 5.4375 C 14.886719 4.828125 15.058594 3.53125 15.433594 2.453125 C 15.902344 1.140625 16.386719 0.625 16.839844 0.140625 L 16.714844 0 C 14.980469 1.484375 14.230469 2.984375 14.230469 4.5625 C 14.230469 5.1875 14.230469 6.578125 15.183594 8.15625 Z M 15.355469 8.09375 "
       id="path80" />
    <path
       style=" stroke:none;fill-rule:nonzero;fill:rgb(12.940979%,11.764526%,11.764526%);fill-opacity:1;"
       d="M 19.867188 2.3125 L 19.101563 2.3125 L 19.367188 1.328125 C 19.382813 1.25 19.367188 1.171875 19.304688 1.1875 C 19.210938 1.171875 19.179688 1.25 19.132813 1.296875 C 18.867188 1.640625 18.398438 2.0625 18.085938 2.234375 C 17.929688 2.3125 17.664063 2.390625 17.601563 2.46875 C 17.570313 2.515625 17.570313 2.5625 17.585938 2.625 L 18.289063 2.625 L 17.601563 5.265625 C 17.554688 5.421875 17.382813 6 17.382813 6.140625 C 17.382813 6.4375 17.648438 6.53125 17.835938 6.53125 C 18.335938 6.53125 18.710938 6.109375 19.195313 5.359375 L 19.070313 5.296875 C 18.835938 5.609375 18.507813 6.0625 18.304688 6.0625 C 18.210938 6.0625 18.148438 5.984375 18.148438 5.890625 C 18.148438 5.859375 18.148438 5.84375 18.164063 5.8125 L 19.007813 2.625 L 19.820313 2.625 Z M 19.867188 2.3125 "
       id="path82" />
    <path
       style=" stroke:none;fill-rule:nonzero;fill:rgb(12.940979%,11.764526%,11.764526%);fill-opacity:1;"
       d="M 19.972656 8.15625 C 21.394531 7 22.457031 5.421875 22.457031 3.59375 C 22.457031 2.359375 22.207031 1.125 21.519531 0 L 21.332031 0.046875 C 21.582031 0.578125 21.800781 1.53125 21.800781 2.5625 C 21.800781 3.40625 21.644531 4.546875 21.253906 5.71875 C 20.816406 6.984375 20.269531 7.5625 19.847656 8 Z M 19.972656 8.15625 "
       id="path84" />
    <g
       clip-path="url(#clip2)"
       clip-rule="nonzero"
       id="g88">
      <path
         style=" stroke:none;fill-rule:nonzero;fill:rgb(12.940979%,11.764526%,11.764526%);fill-opacity:1;"
         d="M 94.199219 33.3125 L 93.433594 33.3125 L 93.699219 32.328125 C 93.714844 32.25 93.699219 32.171875 93.636719 32.1875 C 93.542969 32.171875 93.511719 32.25 93.464844 32.296875 C 93.199219 32.640625 92.730469 33.0625 92.417969 33.234375 C 92.261719 33.3125 91.996094 33.390625 91.933594 33.46875 C 91.902344 33.515625 91.902344 33.5625 91.917969 33.625 L 92.621094 33.625 L 91.933594 36.265625 C 91.886719 36.421875 91.714844 37 91.714844 37.140625 C 91.714844 37.4375 91.980469 37.53125 92.167969 37.53125 C 92.667969 37.53125 93.042969 37.109375 93.527344 36.359375 L 93.402344 36.296875 C 93.167969 36.609375 92.839844 37.0625 92.636719 37.0625 C 92.542969 37.0625 92.480469 36.984375 92.480469 36.890625 C 92.480469 36.859375 92.480469 36.84375 92.496094 36.8125 L 93.339844 33.625 L 94.152344 33.625 Z M 94.199219 33.3125 "
         id="path86" />
    </g>
  </g>
</svg>
