<?xml version="1.0" encoding="UTF-8" standalone="no"?>
<svg
   xmlns:dc="http://purl.org/dc/elements/1.1/"
   xmlns:cc="http://creativecommons.org/ns#"
   xmlns:rdf="http://www.w3.org/1999/02/22-rdf-syntax-ns#"
   xmlns:svg="http://www.w3.org/2000/svg"
   xmlns="http://www.w3.org/2000/svg"
   xmlns:sodipodi="http://sodipodi.sourceforge.net/DTD/sodipodi-0.dtd"
   xmlns:inkscape="http://www.inkscape.org/namespaces/inkscape"
   width="183.189392pt"
   height="161.417664pt"
   viewBox="0 0 183.189392 161.417664"
   version="1.2"
   id="svg281"
   sodipodi:docname="mds_spiral.svg"
   inkscape:version="0.92.4 (5da689c313, 2019-01-14)">
  <metadata
     id="metadata285">
    <rdf:RDF>
      <cc:Work
         rdf:about="">
        <dc:format>image/svg+xml</dc:format>
        <dc:type
           rdf:resource="http://purl.org/dc/dcmitype/StillImage" />
        <dc:title></dc:title>
      </cc:Work>
    </rdf:RDF>
  </metadata>
  <sodipodi:namedview
     pagecolor="#ffffff"
     bordercolor="#666666"
     borderopacity="1"
     objecttolerance="10"
     gridtolerance="10"
     guidetolerance="10"
     inkscape:pageopacity="0"
     inkscape:pageshadow="2"
     inkscape:window-width="640"
     inkscape:window-height="480"
     id="namedview283"
     showgrid="false"
     inkscape:zoom="1.0965343"
     inkscape:cx="122.12626"
     inkscape:cy="107.61178"
     inkscape:window-x="0"
     inkscape:window-y="0"
     inkscape:window-maximized="0"
     inkscape:current-layer="svg281" />
  <defs
     id="defs8">
    <clipPath
       id="clip1">
      <path
         d="M 27 159 L 29 159 L 29 161.417969 L 27 161.417969 Z M 27 159 "
         id="path2" />
    </clipPath>
    <clipPath
       id="clip2">
      <path
         d="M 181 122 L 183.1875 122 L 183.1875 126 L 181 126 Z M 181 122 "
         id="path5" />
    </clipPath>
  </defs>
  <g
     id="surface28">
    <path
       style=" stroke:none;fill-rule:nonzero;fill:rgb(12.940979%,11.764526%,11.764526%);fill-opacity:1;"
       d="M 14.324219 160.601563 L 15.292969 160.601563 L 15.292969 160.554688 C 15.121094 160.554688 14.996094 160.539063 14.996094 160.429688 C 14.996094 160.382813 15.042969 160.242188 15.058594 160.179688 L 15.558594 158.367188 C 15.574219 158.304688 15.605469 158.242188 15.574219 158.242188 C 15.542969 158.242188 15.058594 158.335938 14.886719 158.367188 L 14.886719 158.414063 L 15.089844 158.414063 C 15.121094 158.414063 15.230469 158.414063 15.230469 158.523438 C 15.230469 158.554688 15.214844 158.601563 15.199219 158.648438 L 14.714844 160.367188 C 14.667969 160.523438 14.527344 160.539063 14.324219 160.554688 Z M 14.324219 160.601563 "
       id="path10" />
    <path
       style=" stroke:none;fill-rule:nonzero;fill:rgb(12.940979%,11.764526%,11.764526%);fill-opacity:1;"
       d="M 8.1875 156.554688 C 8.1875 156.210938 8.4375 154.835938 8.953125 154.835938 C 9.265625 154.835938 9.265625 155.195313 9.265625 155.289063 C 9.265625 155.914063 8.953125 157.023438 8.484375 157.023438 C 8.375 157.023438 8.1875 156.960938 8.1875 156.554688 Z M 9.53125 155.617188 C 9.53125 155.273438 9.4375 154.742188 8.96875 154.742188 C 8.484375 154.742188 7.90625 155.460938 7.90625 156.398438 C 7.90625 156.757813 8.109375 157.132813 8.46875 157.132813 C 9.0625 157.132813 9.53125 156.304688 9.53125 155.617188 Z M 9.53125 155.617188 "
       id="path12" />
    <path
       style=" stroke:none;fill-rule:nonzero;fill:rgb(12.940979%,11.764526%,11.764526%);fill-opacity:1;"
       d="M 14.734375 151.738281 L 15.703125 151.738281 L 15.703125 151.691406 C 15.53125 151.691406 15.40625 151.675781 15.40625 151.566406 C 15.40625 151.519531 15.453125 151.378906 15.46875 151.316406 L 15.96875 149.503906 C 15.984375 149.441406 16.015625 149.378906 15.984375 149.378906 C 15.953125 149.378906 15.46875 149.472656 15.296875 149.503906 L 15.296875 149.550781 L 15.5 149.550781 C 15.53125 149.550781 15.640625 149.550781 15.640625 149.660156 C 15.640625 149.691406 15.625 149.738281 15.609375 149.785156 L 15.125 151.503906 C 15.078125 151.660156 14.9375 151.675781 14.734375 151.691406 Z M 14.734375 151.738281 "
       id="path14" />
    <path
       style=" stroke:none;fill-rule:nonzero;fill:rgb(12.940979%,11.764526%,11.764526%);fill-opacity:1;"
       d="M 8.265625 124.125 L 9.078125 124.125 L 9.15625 123.875 L 8.265625 123.875 L 7.890625 124.640625 L 7.890625 124.6875 C 8.296875 124.78125 8.65625 124.859375 8.65625 125.390625 C 8.65625 125.6875 8.40625 126.078125 8.0625 126.078125 C 7.875 126.078125 7.78125 125.890625 7.625 125.890625 C 7.5625 125.890625 7.484375 125.9375 7.484375 126.03125 C 7.484375 126.125 7.59375 126.234375 7.84375 126.234375 C 8.53125 126.234375 8.90625 125.6875 8.90625 125.234375 C 8.90625 124.765625 8.59375 124.515625 8.140625 124.421875 Z M 8.265625 124.125 "
       id="path16" />
    <path
       style=" stroke:none;fill-rule:nonzero;fill:rgb(12.940979%,11.764526%,11.764526%);fill-opacity:1;"
       d="M 6.460938 95.292969 L 7.429688 95.292969 L 7.429688 95.246094 C 7.257813 95.246094 7.132813 95.230469 7.132813 95.121094 C 7.132813 95.074219 7.179688 94.933594 7.195313 94.871094 L 7.695313 93.058594 C 7.710938 92.996094 7.742188 92.933594 7.710938 92.933594 C 7.679688 92.933594 7.195313 93.027344 7.023438 93.058594 L 7.023438 93.105469 L 7.226563 93.105469 C 7.257813 93.105469 7.367188 93.105469 7.367188 93.214844 C 7.367188 93.246094 7.351563 93.292969 7.335938 93.339844 L 6.851563 95.058594 C 6.804688 95.214844 6.664063 95.230469 6.460938 95.246094 Z M 6.460938 95.292969 "
       id="path18" />
    <path
       style=" stroke:none;fill-rule:nonzero;fill:rgb(12.940979%,11.764526%,11.764526%);fill-opacity:1;"
       d="M 8.429688 94.746094 C 8.429688 94.402344 8.679688 93.027344 9.195313 93.027344 C 9.507813 93.027344 9.507813 93.386719 9.507813 93.480469 C 9.507813 94.105469 9.195313 95.214844 8.726563 95.214844 C 8.617188 95.214844 8.429688 95.152344 8.429688 94.746094 Z M 9.773438 93.808594 C 9.773438 93.464844 9.679688 92.933594 9.210938 92.933594 C 8.726563 92.933594 8.148438 93.652344 8.148438 94.589844 C 8.148438 94.949219 8.351563 95.324219 8.710938 95.324219 C 9.304688 95.324219 9.773438 94.496094 9.773438 93.808594 Z M 9.773438 93.808594 "
       id="path20" />
    <path
       style=" stroke:none;fill-rule:nonzero;fill:rgb(12.940979%,11.764526%,11.764526%);fill-opacity:1;"
       d="M 6.085938 61.8125 L 7.054688 61.8125 L 7.054688 61.765625 C 6.882813 61.765625 6.757813 61.75 6.757813 61.640625 C 6.757813 61.59375 6.804688 61.453125 6.820313 61.390625 L 7.320313 59.578125 C 7.335938 59.515625 7.367188 59.453125 7.335938 59.453125 C 7.304688 59.453125 6.820313 59.546875 6.648438 59.578125 L 6.648438 59.625 L 6.851563 59.625 C 6.882813 59.625 6.992188 59.625 6.992188 59.734375 C 6.992188 59.765625 6.976563 59.8125 6.960938 59.859375 L 6.476563 61.578125 C 6.429688 61.734375 6.289063 61.75 6.085938 61.765625 Z M 6.085938 61.8125 "
       id="path22" />
    <path
       style=" stroke:none;fill-rule:nonzero;fill:rgb(12.940979%,11.764526%,11.764526%);fill-opacity:1;"
       d="M 8.492188 59.734375 L 9.304688 59.734375 L 9.382813 59.484375 L 8.492188 59.484375 L 8.117188 60.25 L 8.117188 60.296875 C 8.523438 60.390625 8.882813 60.46875 8.882813 61 C 8.882813 61.296875 8.632813 61.6875 8.289063 61.6875 C 8.101563 61.6875 8.007813 61.5 7.851563 61.5 C 7.789063 61.5 7.710938 61.546875 7.710938 61.640625 C 7.710938 61.734375 7.820313 61.84375 8.070313 61.84375 C 8.757813 61.84375 9.132813 61.296875 9.132813 60.84375 C 9.132813 60.375 8.820313 60.125 8.367188 60.03125 Z M 8.492188 59.734375 "
       id="path24" />
    <path
       style=" stroke:none;fill-rule:nonzero;fill:rgb(12.940979%,11.764526%,11.764526%);fill-opacity:1;"
       d="M 7.125 24.472656 C 7.0625 24.597656 7 24.691406 6.765625 24.691406 L 6.109375 24.691406 L 6.109375 24.675781 L 6.78125 24.003906 C 7.21875 23.566406 7.296875 23.410156 7.296875 23.175781 C 7.296875 22.910156 7.109375 22.597656 6.734375 22.597656 C 6.640625 22.597656 6.1875 22.597656 6 23.144531 L 6.078125 23.175781 C 6.125 23.082031 6.25 22.847656 6.5625 22.847656 C 6.84375 22.847656 7 23.050781 7 23.269531 C 7 23.394531 6.984375 23.597656 6.5 24.113281 L 5.765625 24.894531 L 5.765625 24.957031 L 7 24.957031 L 7.171875 24.488281 Z M 7.125 24.472656 "
       id="path26" />
    <path
       style=" stroke:none;fill-rule:nonzero;fill:rgb(12.940979%,11.764526%,11.764526%);fill-opacity:1;"
       d="M 7.859375 24.410156 C 7.859375 24.066406 8.109375 22.691406 8.625 22.691406 C 8.9375 22.691406 8.9375 23.050781 8.9375 23.144531 C 8.9375 23.769531 8.625 24.878906 8.15625 24.878906 C 8.046875 24.878906 7.859375 24.816406 7.859375 24.410156 Z M 9.203125 23.472656 C 9.203125 23.128906 9.109375 22.597656 8.640625 22.597656 C 8.15625 22.597656 7.578125 23.316406 7.578125 24.253906 C 7.578125 24.613281 7.78125 24.988281 8.140625 24.988281 C 8.734375 24.988281 9.203125 24.160156 9.203125 23.472656 Z M 9.203125 23.472656 "
       id="path28" />
    <path
       style="fill:none;stroke-width:0.335;stroke-linecap:round;stroke-linejoin:round;stroke:rgb(12.940979%,11.764526%,11.764526%);stroke-opacity:1;stroke-miterlimit:4;"
       d="M 10.433594 154.320313 L 15.738281 147.738281 "
       id="path30" />
    <path
       style=" stroke:none;fill-rule:nonzero;fill:rgb(12.940979%,11.764526%,11.764526%);fill-opacity:1;"
       d="M 15.96875 146.90625 C 15.492188 147.234375 15.144531 147.414063 14.726563 147.648438 L 16.042969 148.710938 C 16.085938 148.539063 16.289063 147.875 16.507813 147.339844 C 16.738281 146.765625 16.980469 146.269531 17.164063 145.972656 C 16.914063 146.214844 16.480469 146.558594 15.96875 146.90625 "
       id="path32" />
    <path
       style="fill:none;stroke-width:0.335;stroke-linecap:round;stroke-linejoin:round;stroke:rgb(12.940979%,11.764526%,11.764526%);stroke-opacity:1;stroke-miterlimit:4;"
       d="M 13.332031 149.675781 L 14.636719 150.148438 M 10.433594 154.320313 L 20.347656 157.960938 "
       id="path34" />
    <path
       style=" stroke:none;fill-rule:nonzero;fill:rgb(12.940979%,11.764526%,11.764526%);fill-opacity:1;"
       d="M 21.207031 157.910156 C 20.746094 157.5625 20.460938 157.292969 20.105469 156.972656 L 19.523438 158.558594 C 19.699219 158.542969 20.394531 158.523438 20.96875 158.558594 C 21.589844 158.59375 22.136719 158.664063 22.476563 158.742188 C 22.164063 158.582031 21.703125 158.28125 21.207031 157.910156 "
       id="path36" />
    <path
       style="fill:none;stroke-width:0.335;stroke-linecap:round;stroke-linejoin:round;stroke:rgb(12.940979%,11.764526%,11.764526%);stroke-opacity:1;stroke-miterlimit:4;"
       d="M 9.972656 16.222656 L 10.433594 154.320313 "
       id="path38" />
    <path
       style=" stroke:none;fill-rule:nonzero;fill:rgb(12.940979%,11.764526%,11.764526%);fill-opacity:1;"
       d="M 9.625 15.433594 C 9.460938 15.988281 9.308594 16.347656 9.132813 16.792969 L 10.820313 16.789063 C 10.746094 16.628906 10.484375 15.984375 10.316406 15.429688 C 10.136719 14.839844 10.011719 14.300781 9.96875 13.953125 C 9.925781 14.300781 9.804688 14.839844 9.625 15.433594 "
       id="path40" />
    <path
       style="fill:none;stroke-width:0.7;stroke-linecap:round;stroke-linejoin:round;stroke:rgb(100%,49.803162%,49.803162%);stroke-opacity:1;stroke-miterlimit:4;"
       d="M 16.558594 145.226563 L 15.148438 142.65625 M 17.507813 148.015625 L 16.558594 145.226563 "
       id="path42" />
    <path
       style="fill:none;stroke-width:0.335;stroke-linecap:round;stroke-linejoin:round;stroke:rgb(100%,0%,0%);stroke-opacity:1;stroke-miterlimit:4;"
       d="M 15.148438 142.65625 L 13.378906 140.378906 "
       id="path44" />
    <path
       style="fill:none;stroke-width:3.175;stroke-linecap:round;stroke-linejoin:round;stroke:rgb(0%,0%,0%);stroke-opacity:1;stroke-miterlimit:4;"
       d="M 14.980469 142.40625 L 14.980469 142.40625 "
       id="path46" />
    <path
       style="fill-rule:nonzero;fill:rgb(0%,0%,0%);fill-opacity:1;stroke-width:0.335;stroke-linecap:round;stroke-linejoin:round;stroke:rgb(0%,0%,0%);stroke-opacity:1;stroke-miterlimit:4;"
       d="M 17.917969 150.933594 L 17.507813 148.015625 "
       id="path48" />
    <path
       style="fill:none;stroke-width:0.7;stroke-linecap:round;stroke-linejoin:round;stroke:rgb(100%,49.803162%,49.803162%);stroke-opacity:1;stroke-miterlimit:4;"
       d="M 13.378906 140.378906 L 11.375 138.441406 "
       id="path50" />
    <path
       style="fill:none;stroke-width:3.175;stroke-linecap:round;stroke-linejoin:round;stroke:rgb(0%,0%,0%);stroke-opacity:1;stroke-miterlimit:4;"
       d="M 17.761719 149.3125 L 17.761719 149.3125 "
       id="path52" />
    <path
       style="fill:none;stroke-width:0.7;stroke-linecap:round;stroke-linejoin:round;stroke:rgb(100%,49.803162%,49.803162%);stroke-opacity:1;stroke-miterlimit:4;"
       d="M 17.75 153.875 L 17.917969 150.933594 "
       id="path54" />
    <path
       style="fill-rule:nonzero;fill:rgb(0%,0%,0%);fill-opacity:1;stroke-width:0.335;stroke-linecap:round;stroke-linejoin:round;stroke:rgb(0%,0%,0%);stroke-opacity:1;stroke-miterlimit:4;"
       d="M 16.671875 157.191406 L 17.382813 156.292969 "
       id="path56" />
    <path
       style="fill:none;stroke-width:0.7;stroke-linecap:round;stroke-linejoin:round;stroke:rgb(100%,49.803162%,49.803162%);stroke-opacity:1;stroke-miterlimit:4;"
       d="M 17.027344 156.742188 L 17.75 153.875 "
       id="path58" />
    <path
       style="fill-rule:nonzero;fill:rgb(0%,0%,0%);fill-opacity:1;stroke-width:0.335;stroke-linecap:round;stroke-linejoin:round;stroke:rgb(0%,0%,0%);stroke-opacity:1;stroke-miterlimit:4;"
       d="M 11.375 138.441406 L 9.296875 136.871094 "
       id="path60" />
    <path
       style="fill:none;stroke-width:3.175;stroke-linecap:round;stroke-linejoin:round;stroke:rgb(0%,0%,0%);stroke-opacity:1;stroke-miterlimit:4;"
       d="M 17.027344 156.742188 L 17.027344 156.742188 "
       id="path62" />
    <path
       style="fill:none;stroke-width:3.175;stroke-linecap:round;stroke-linejoin:round;stroke:rgb(0%,0%,0%);stroke-opacity:1;stroke-miterlimit:4;"
       d="M 10.011719 137.371094 L 10.011719 137.371094 "
       id="path64" />
    <path
       style="fill:none;stroke-width:0.7;stroke-linecap:round;stroke-linejoin:round;stroke:rgb(100%,49.803162%,49.803162%);stroke-opacity:1;stroke-miterlimit:4;"
       d="M 9.296875 136.871094 L 7.285156 135.667969 L 5.496094 134.796875 "
       id="path66" />
    <path
       style="fill-rule:nonzero;fill:rgb(0%,0%,0%);fill-opacity:1;stroke-width:0.335;stroke-linecap:round;stroke-linejoin:round;stroke:rgb(0%,0%,0%);stroke-opacity:1;stroke-miterlimit:4;"
       d="M 5.496094 134.796875 L 4.066406 134.207031 "
       id="path68" />
    <path
       style="fill:none;stroke-width:3.175;stroke-linecap:round;stroke-linejoin:round;stroke:rgb(0%,0%,0%);stroke-opacity:1;stroke-miterlimit:4;"
       d="M 5.167969 134.652344 L 5.167969 134.652344 "
       id="path70" />
    <path
       style="fill-rule:nonzero;fill:rgb(0%,0%,0%);fill-opacity:1;stroke-width:0.335;stroke-linecap:round;stroke-linejoin:round;stroke:rgb(0%,0%,0%);stroke-opacity:1;stroke-miterlimit:4;"
       d="M 4.066406 134.207031 L 3.105469 133.824219 "
       id="path72" />
    <path
       style="fill-rule:nonzero;fill:rgb(0%,0%,0%);fill-opacity:1;stroke-width:0.335;stroke-linecap:round;stroke-linejoin:round;stroke:rgb(0%,0%,0%);stroke-opacity:1;stroke-miterlimit:4;"
       d="M 3.105469 133.824219 L 2.691406 133.550781 "
       id="path74" />
    <path
       style="fill:none;stroke-width:3.175;stroke-linecap:round;stroke-linejoin:round;stroke:rgb(0%,0%,0%);stroke-opacity:1;stroke-miterlimit:4;"
       d="M 2.738281 133.613281 L 2.738281 133.613281 "
       id="path76" />
    <path
       style="fill-rule:nonzero;fill:rgb(0%,0%,0%);fill-opacity:1;stroke-width:0.335;stroke-linecap:round;stroke-linejoin:round;stroke:rgb(0%,0%,0%);stroke-opacity:1;stroke-miterlimit:4;"
       d="M 2.691406 133.550781 L 2.859375 133.292969 "
       id="path78" />
    <path
       style="fill-rule:nonzero;fill:rgb(0%,0%,0%);fill-opacity:1;stroke-width:0.335;stroke-linecap:round;stroke-linejoin:round;stroke:rgb(0%,0%,0%);stroke-opacity:1;stroke-miterlimit:4;"
       d="M 2.859375 133.292969 L 3.605469 132.941406 "
       id="path80" />
    <path
       style="fill-rule:nonzero;fill:rgb(0%,0%,0%);fill-opacity:1;stroke-width:0.335;stroke-linecap:round;stroke-linejoin:round;stroke:rgb(0%,0%,0%);stroke-opacity:1;stroke-miterlimit:4;"
       d="M 3.605469 132.941406 L 4.878906 132.390625 "
       id="path82" />
    <path
       style="fill:none;stroke-width:0.335;stroke-linecap:round;stroke-linejoin:round;stroke:rgb(12.940979%,11.764526%,11.764526%);stroke-opacity:1;stroke-miterlimit:4;"
       d="M 10.335938 125.4375 L 11.699219 125.910156 "
       id="path84" />
    <path
       style="fill:none;stroke-width:3.175;stroke-linecap:round;stroke-linejoin:round;stroke:rgb(0%,0%,0%);stroke-opacity:1;stroke-miterlimit:4;"
       d="M 3.949219 132.792969 L 3.949219 132.792969 "
       id="path86" />
    <path
       style="fill:none;stroke-width:0.7;stroke-linecap:round;stroke-linejoin:round;stroke:rgb(100%,49.803162%,49.803162%);stroke-opacity:1;stroke-miterlimit:4;"
       d="M 4.878906 132.390625 L 6.582031 131.5625 "
       id="path88" />
    <path
       style="fill:none;stroke-width:0.335;stroke-linecap:round;stroke-linejoin:round;stroke:rgb(100%,0%,0%);stroke-opacity:1;stroke-miterlimit:4;"
       d="M 6.582031 131.5625 L 8.59375 130.386719 "
       id="path90" />
    <path
       style="fill:none;stroke-width:3.175;stroke-linecap:round;stroke-linejoin:round;stroke:rgb(0%,0%,0%);stroke-opacity:1;stroke-miterlimit:4;"
       d="M 8.304688 130.574219 L 8.304688 130.574219 "
       id="path92" />
    <path
       style="fill:none;stroke-width:0.7;stroke-linecap:round;stroke-linejoin:round;stroke:rgb(100%,49.803162%,49.803162%);stroke-opacity:1;stroke-miterlimit:4;"
       d="M 8.59375 130.386719 L 10.746094 128.832031 M 16.300781 107.136719 L 14.683594 104.527344 M 17.460938 109.984375 L 16.300781 107.136719 M 14.683594 104.527344 L 12.730469 102.21875 M 10.746094 128.832031 L 12.875 126.882813 "
       id="path94" />
    <path
       style="fill:none;stroke-width:3.175;stroke-linecap:round;stroke-linejoin:round;stroke:rgb(0%,0%,0%);stroke-opacity:1;stroke-miterlimit:4;"
       d="M 14.558594 104.359375 L 14.558594 104.359375 "
       id="path96" />
    <path
       style="fill-rule:nonzero;fill:rgb(0%,0%,0%);fill-opacity:1;stroke-width:0.335;stroke-linecap:round;stroke-linejoin:round;stroke:rgb(0%,0%,0%);stroke-opacity:1;stroke-miterlimit:4;"
       d="M 18.078125 112.984375 L 17.460938 109.984375 "
       id="path98" />
    <path
       style="fill:none;stroke-width:3.175;stroke-linecap:round;stroke-linejoin:round;stroke:rgb(0%,0%,0%);stroke-opacity:1;stroke-miterlimit:4;"
       d="M 17.832031 111.417969 L 17.832031 111.417969 "
       id="path100" />
    <path
       style="fill:none;stroke-width:0.7;stroke-linecap:round;stroke-linejoin:round;stroke:rgb(100%,49.803162%,49.803162%);stroke-opacity:1;stroke-miterlimit:4;"
       d="M 18.105469 116.046875 L 18.078125 112.984375 M 12.730469 102.21875 L 10.585938 100.253906 M 17.53125 119.066406 L 18.105469 116.046875 "
       id="path102" />
    <path
       style="fill-rule:nonzero;fill:rgb(0%,0%,0%);fill-opacity:1;stroke-width:0.335;stroke-linecap:round;stroke-linejoin:round;stroke:rgb(0%,0%,0%);stroke-opacity:1;stroke-miterlimit:4;"
       d="M 12.875 126.882813 L 14.8125 124.570313 "
       id="path104" />
    <path
       style="fill:none;stroke-width:3.175;stroke-linecap:round;stroke-linejoin:round;stroke:rgb(0%,0%,0%);stroke-opacity:1;stroke-miterlimit:4;"
       d="M 13.710938 125.96875 L 13.710938 125.96875 "
       id="path106" />
    <path
       style="fill:none;stroke-width:0.7;stroke-linecap:round;stroke-linejoin:round;stroke:rgb(100%,49.803162%,49.803162%);stroke-opacity:1;stroke-miterlimit:4;"
       d="M 16.40625 121.9375 L 17.53125 119.066406 "
       id="path108" />
    <path
       style="fill:none;stroke-width:3.175;stroke-linecap:round;stroke-linejoin:round;stroke:rgb(0%,0%,0%);stroke-opacity:1;stroke-miterlimit:4;"
       d="M 17.503906 119.167969 L 17.503906 119.167969 "
       id="path110" />
    <path
       style="fill:none;stroke-width:0.7;stroke-linecap:round;stroke-linejoin:round;stroke:rgb(100%,49.803162%,49.803162%);stroke-opacity:1;stroke-miterlimit:4;"
       d="M 14.8125 124.570313 L 16.40625 121.9375 "
       id="path112" />
    <path
       style="fill-rule:nonzero;fill:rgb(0%,0%,0%);fill-opacity:1;stroke-width:0.335;stroke-linecap:round;stroke-linejoin:round;stroke:rgb(0%,0%,0%);stroke-opacity:1;stroke-miterlimit:4;"
       d="M 10.585938 100.253906 L 8.414063 98.640625 "
       id="path114" />
    <path
       style="fill:none;stroke-width:3.175;stroke-linecap:round;stroke-linejoin:round;stroke:rgb(0%,0%,0%);stroke-opacity:1;stroke-miterlimit:4;"
       d="M 9.230469 99.210938 L 9.230469 99.210938 "
       id="path116" />
    <path
       style="fill:none;stroke-width:0.7;stroke-linecap:round;stroke-linejoin:round;stroke:rgb(100%,49.803162%,49.803162%);stroke-opacity:1;stroke-miterlimit:4;"
       d="M 8.414063 98.640625 L 6.363281 97.375 L 4.59375 96.414063 "
       id="path118" />
    <path
       style="fill-rule:nonzero;fill:rgb(0%,0%,0%);fill-opacity:1;stroke-width:0.335;stroke-linecap:round;stroke-linejoin:round;stroke:rgb(0%,0%,0%);stroke-opacity:1;stroke-miterlimit:4;"
       d="M 4.59375 96.414063 L 3.246094 95.703125 "
       id="path120" />
    <path
       style="fill:none;stroke-width:3.175;stroke-linecap:round;stroke-linejoin:round;stroke:rgb(0%,0%,0%);stroke-opacity:1;stroke-miterlimit:4;"
       d="M 4.332031 96.277344 L 4.332031 96.277344 "
       id="path122" />
    <path
       style="fill-rule:nonzero;fill:rgb(0%,0%,0%);fill-opacity:1;stroke-width:0.335;stroke-linecap:round;stroke-linejoin:round;stroke:rgb(0%,0%,0%);stroke-opacity:1;stroke-miterlimit:4;"
       d="M 3.246094 95.703125 L 2.410156 95.160156 "
       id="path124" />
    <path
       style="fill-rule:nonzero;fill:rgb(0%,0%,0%);fill-opacity:1;stroke-width:0.335;stroke-linecap:round;stroke-linejoin:round;stroke:rgb(0%,0%,0%);stroke-opacity:1;stroke-miterlimit:4;"
       d="M 2.410156 95.160156 L 2.171875 94.695313 "
       id="path126" />
    <path
       style="fill:none;stroke-width:3.175;stroke-linecap:round;stroke-linejoin:round;stroke:rgb(0%,0%,0%);stroke-opacity:1;stroke-miterlimit:4;"
       d="M 2.175781 94.820313 L 2.175781 94.820313 "
       id="path128" />
    <path
       style="fill:none;stroke-width:0.335;stroke-linecap:round;stroke-linejoin:round;stroke:rgb(12.940979%,11.764526%,11.764526%);stroke-opacity:1;stroke-miterlimit:4;"
       d="M 10.234375 94.273438 L 11.648438 94.734375 "
       id="path130" />
    <path
       style="fill-rule:nonzero;fill:rgb(0%,0%,0%);fill-opacity:1;stroke-width:0.335;stroke-linecap:round;stroke-linejoin:round;stroke:rgb(0%,0%,0%);stroke-opacity:1;stroke-miterlimit:4;"
       d="M 2.171875 94.695313 L 2.546875 94.199219 "
       id="path132" />
    <path
       style="fill-rule:nonzero;fill:rgb(0%,0%,0%);fill-opacity:1;stroke-width:0.335;stroke-linecap:round;stroke-linejoin:round;stroke:rgb(0%,0%,0%);stroke-opacity:1;stroke-miterlimit:4;"
       d="M 2.546875 94.199219 L 3.515625 93.582031 "
       id="path134" />
    <path
       style="fill-rule:nonzero;fill:rgb(0%,0%,0%);fill-opacity:1;stroke-width:0.335;stroke-linecap:round;stroke-linejoin:round;stroke:rgb(0%,0%,0%);stroke-opacity:1;stroke-miterlimit:4;"
       d="M 3.515625 93.582031 L 5.011719 92.746094 "
       id="path136" />
    <path
       style="fill:none;stroke-width:3.175;stroke-linecap:round;stroke-linejoin:round;stroke:rgb(0%,0%,0%);stroke-opacity:1;stroke-miterlimit:4;"
       d="M 3.882813 93.375 L 3.882813 93.375 "
       id="path138" />
    <path
       style="fill:none;stroke-width:0.7;stroke-linecap:round;stroke-linejoin:round;stroke:rgb(100%,49.803162%,49.803162%);stroke-opacity:1;stroke-miterlimit:4;"
       d="M 5.011719 92.746094 L 6.921875 91.613281 L 9.097656 90.132813 "
       id="path140" />
    <path
       style="fill:none;stroke-width:3.175;stroke-linecap:round;stroke-linejoin:round;stroke:rgb(0%,0%,0%);stroke-opacity:1;stroke-miterlimit:4;"
       d="M 8.710938 90.414063 L 8.710938 90.414063 "
       id="path142" />
    <path
       style="fill:none;stroke-width:0.7;stroke-linecap:round;stroke-linejoin:round;stroke:rgb(100%,49.803162%,49.803162%);stroke-opacity:1;stroke-miterlimit:4;"
       d="M 9.097656 90.132813 L 11.371094 88.273438 M 15.964844 65.207031 L 14.136719 62.546875 M 17.351563 68.117188 L 15.964844 65.207031 "
       id="path144" />
    <path
       style="fill-rule:nonzero;fill:rgb(0%,0%,0%);fill-opacity:1;stroke-width:0.335;stroke-linecap:round;stroke-linejoin:round;stroke:rgb(0%,0%,0%);stroke-opacity:1;stroke-miterlimit:4;"
       d="M 18.195313 71.207031 L 17.351563 68.117188 "
       id="path146" />
    <path
       style="fill:none;stroke-width:0.7;stroke-linecap:round;stroke-linejoin:round;stroke:rgb(100%,49.803162%,49.803162%);stroke-opacity:1;stroke-miterlimit:4;"
       d="M 14.136719 62.546875 L 12 60.183594 "
       id="path148" />
    <path
       style="fill:none;stroke-width:3.175;stroke-linecap:round;stroke-linejoin:round;stroke:rgb(0%,0%,0%);stroke-opacity:1;stroke-miterlimit:4;"
       d="M 17.863281 69.699219 L 17.863281 69.699219 "
       id="path150" />
    <path
       style="fill:none;stroke-width:3.175;stroke-linecap:round;stroke-linejoin:round;stroke:rgb(0%,0%,0%);stroke-opacity:1;stroke-miterlimit:4;"
       d="M 14.066406 62.457031 L 14.066406 62.457031 "
       id="path152" />
    <path
       style="fill:none;stroke-width:0.7;stroke-linecap:round;stroke-linejoin:round;stroke:rgb(100%,49.803162%,49.803162%);stroke-opacity:1;stroke-miterlimit:4;"
       d="M 18.425781 74.382813 L 18.195313 71.207031 M 11.371094 88.273438 L 13.5625 86.039063 M 18.027344 77.550781 L 18.425781 74.382813 M 12 60.183594 L 9.71875 58.15625 "
       id="path154" />
    <path
       style="fill-rule:nonzero;fill:rgb(0%,0%,0%);fill-opacity:1;stroke-width:0.335;stroke-linecap:round;stroke-linejoin:round;stroke:rgb(0%,0%,0%);stroke-opacity:1;stroke-miterlimit:4;"
       d="M 13.5625 86.039063 L 15.5 83.46875 "
       id="path156" />
    <path
       style="fill:none;stroke-width:0.7;stroke-linecap:round;stroke-linejoin:round;stroke:rgb(100%,49.803162%,49.803162%);stroke-opacity:1;stroke-miterlimit:4;"
       d="M 17.027344 80.609375 L 18.027344 77.550781 "
       id="path158" />
    <path
       style="fill:none;stroke-width:3.175;stroke-linecap:round;stroke-linejoin:round;stroke:rgb(0%,0%,0%);stroke-opacity:1;stroke-miterlimit:4;"
       d="M 17.976563 77.765625 L 17.976563 77.765625 "
       id="path160" />
    <path
       style="fill:none;stroke-width:3.175;stroke-linecap:round;stroke-linejoin:round;stroke:rgb(0%,0%,0%);stroke-opacity:1;stroke-miterlimit:4;"
       d="M 14.335938 85.101563 L 14.335938 85.101563 "
       id="path162" />
    <path
       style="fill:none;stroke-width:0.7;stroke-linecap:round;stroke-linejoin:round;stroke:rgb(100%,49.803162%,49.803162%);stroke-opacity:1;stroke-miterlimit:4;"
       d="M 15.5 83.46875 L 17.027344 80.609375 "
       id="path164" />
    <path
       style="fill-rule:nonzero;fill:rgb(0%,0%,0%);fill-opacity:1;stroke-width:0.335;stroke-linecap:round;stroke-linejoin:round;stroke:rgb(0%,0%,0%);stroke-opacity:1;stroke-miterlimit:4;"
       d="M 9.71875 58.15625 L 7.457031 56.464844 "
       id="path166" />
    <path
       style="fill:none;stroke-width:3.175;stroke-linecap:round;stroke-linejoin:round;stroke:rgb(0%,0%,0%);stroke-opacity:1;stroke-miterlimit:4;"
       d="M 8.378906 57.128906 L 8.378906 57.128906 "
       id="path168" />
    <path
       style="fill:none;stroke-width:0.7;stroke-linecap:round;stroke-linejoin:round;stroke:rgb(100%,49.803162%,49.803162%);stroke-opacity:1;stroke-miterlimit:4;"
       d="M 7.457031 56.464844 L 5.378906 55.09375 L 3.648438 53.996094 "
       id="path170" />
    <path
       style="fill-rule:nonzero;fill:rgb(0%,0%,0%);fill-opacity:1;stroke-width:0.335;stroke-linecap:round;stroke-linejoin:round;stroke:rgb(0%,0%,0%);stroke-opacity:1;stroke-miterlimit:4;"
       d="M 3.648438 53.996094 L 2.390625 53.105469 "
       id="path172" />
    <path
       style="fill:none;stroke-width:3.175;stroke-linecap:round;stroke-linejoin:round;stroke:rgb(0%,0%,0%);stroke-opacity:1;stroke-miterlimit:4;"
       d="M 3.441406 53.863281 L 3.441406 53.863281 "
       id="path174" />
    <path
       style="fill:none;stroke-width:0.335;stroke-linecap:round;stroke-linejoin:round;stroke:rgb(12.940979%,11.764526%,11.764526%);stroke-opacity:1;stroke-miterlimit:4;"
       d="M 10.117188 60.546875 L 11.597656 60.988281 "
       id="path176" />
    <path
       style="fill-rule:nonzero;fill:rgb(0%,0%,0%);fill-opacity:1;stroke-width:0.335;stroke-linecap:round;stroke-linejoin:round;stroke:rgb(0%,0%,0%);stroke-opacity:1;stroke-miterlimit:4;"
       d="M 2.390625 53.105469 L 1.710938 52.347656 "
       id="path178" />
    <path
       style="fill-rule:nonzero;fill:rgb(0%,0%,0%);fill-opacity:1;stroke-width:0.335;stroke-linecap:round;stroke-linejoin:round;stroke:rgb(0%,0%,0%);stroke-opacity:1;stroke-miterlimit:4;"
       d="M 1.710938 52.347656 L 1.664063 51.625 "
       id="path180" />
    <path
       style="fill:none;stroke-width:3.175;stroke-linecap:round;stroke-linejoin:round;stroke:rgb(0%,0%,0%);stroke-opacity:1;stroke-miterlimit:4;"
       d="M 1.609375 51.851563 L 1.609375 51.851563 "
       id="path182" />
    <path
       style="fill-rule:nonzero;fill:rgb(0%,0%,0%);fill-opacity:1;stroke-width:0.335;stroke-linecap:round;stroke-linejoin:round;stroke:rgb(0%,0%,0%);stroke-opacity:1;stroke-miterlimit:4;"
       d="M 1.664063 51.625 L 2.265625 50.847656 "
       id="path184" />
    <path
       style="fill-rule:nonzero;fill:rgb(0%,0%,0%);fill-opacity:1;stroke-width:0.335;stroke-linecap:round;stroke-linejoin:round;stroke:rgb(0%,0%,0%);stroke-opacity:1;stroke-miterlimit:4;"
       d="M 2.265625 50.847656 L 3.472656 49.914063 "
       id="path186" />
    <path
       style="fill-rule:nonzero;fill:rgb(0%,0%,0%);fill-opacity:1;stroke-width:0.335;stroke-linecap:round;stroke-linejoin:round;stroke:rgb(0%,0%,0%);stroke-opacity:1;stroke-miterlimit:4;"
       d="M 3.472656 49.914063 L 5.203125 48.746094 "
       id="path188" />
    <path
       style="fill:none;stroke-width:3.175;stroke-linecap:round;stroke-linejoin:round;stroke:rgb(0%,0%,0%);stroke-opacity:1;stroke-miterlimit:4;"
       d="M 3.847656 49.65625 L 3.847656 49.65625 "
       id="path190" />
    <path
       style="fill:none;stroke-width:0.7;stroke-linecap:round;stroke-linejoin:round;stroke:rgb(100%,49.803162%,49.803162%);stroke-opacity:1;stroke-miterlimit:4;"
       d="M 5.203125 48.746094 L 7.324219 47.273438 L 9.671875 45.457031 "
       id="path192" />
    <path
       style="fill:none;stroke-width:3.175;stroke-linecap:round;stroke-linejoin:round;stroke:rgb(0%,0%,0%);stroke-opacity:1;stroke-miterlimit:4;"
       d="M 9.175781 45.863281 L 9.175781 45.863281 "
       id="path194" />
    <path
       style="fill:none;stroke-width:0.7;stroke-linecap:round;stroke-linejoin:round;stroke:rgb(100%,49.803162%,49.803162%);stroke-opacity:1;stroke-miterlimit:4;"
       d="M 9.671875 45.457031 L 12.058594 43.277344 M 15.539063 18.816406 L 13.492188 16.078125 M 17.167969 21.804688 L 15.539063 18.816406 "
       id="path196" />
    <path
       style="fill:none;stroke-width:0.335;stroke-linecap:round;stroke-linejoin:round;stroke:rgb(100%,0%,0%);stroke-opacity:1;stroke-miterlimit:4;"
       d="M 18.253906 24.984375 L 17.167969 21.804688 "
       id="path198" />
    <path
       style="fill:none;stroke-width:3.175;stroke-linecap:round;stroke-linejoin:round;stroke:rgb(0%,0%,0%);stroke-opacity:1;stroke-miterlimit:4;"
       d="M 17.839844 23.542969 L 17.839844 23.542969 "
       id="path200" />
    <path
       style="fill:none;stroke-width:0.7;stroke-linecap:round;stroke-linejoin:round;stroke:rgb(100%,49.803162%,49.803162%);stroke-opacity:1;stroke-miterlimit:4;"
       d="M 18.714844 28.273438 L 18.253906 24.984375 "
       id="path202" />
    <path
       style="fill:none;stroke-width:3.175;stroke-linecap:round;stroke-linejoin:round;stroke:rgb(0%,0%,0%);stroke-opacity:1;stroke-miterlimit:4;"
       d="M 13.492188 16.078125 L 13.492188 16.078125 "
       id="path204" />
    <path
       style="fill:none;stroke-width:0.7;stroke-linecap:round;stroke-linejoin:round;stroke:rgb(100%,49.803162%,49.803162%);stroke-opacity:1;stroke-miterlimit:4;"
       d="M 18.507813 31.589844 L 18.714844 28.273438 M 12.058594 43.277344 L 14.296875 40.75 M 17.65625 34.832031 L 18.507813 31.589844 "
       id="path206" />
    <path
       style="fill:none;stroke-width:3.175;stroke-linecap:round;stroke-linejoin:round;stroke:rgb(0%,0%,0%);stroke-opacity:1;stroke-miterlimit:4;"
       d="M 18.449219 31.929688 L 18.449219 31.929688 "
       id="path208" />
    <path
       style="fill:none;stroke-width:0.335;stroke-linecap:round;stroke-linejoin:round;stroke:rgb(100%,0%,0%);stroke-opacity:1;stroke-miterlimit:4;"
       d="M 14.296875 40.75 L 16.214844 37.914063 "
       id="path210" />
    <path
       style="fill:none;stroke-width:0.7;stroke-linecap:round;stroke-linejoin:round;stroke:rgb(100%,49.803162%,49.803162%);stroke-opacity:1;stroke-miterlimit:4;"
       d="M 16.214844 37.914063 L 17.65625 34.832031 "
       id="path212" />
    <path
       style="fill:none;stroke-width:3.175;stroke-linecap:round;stroke-linejoin:round;stroke:rgb(0%,0%,0%);stroke-opacity:1;stroke-miterlimit:4;"
       d="M 15.003906 39.800781 L 15.003906 39.800781 "
       id="path214" />
    <path
       style="fill:none;stroke-width:0.335;stroke-linecap:round;stroke-linejoin:round;stroke:rgb(12.940979%,11.764526%,11.764526%);stroke-opacity:1;stroke-miterlimit:4;"
       d="M 9.996094 23.925781 L 11.535156 24.347656 "
       id="path216" />
    <path
       style="fill:none;stroke-width:2.799;stroke-linecap:round;stroke-linejoin:round;stroke:rgb(12.940979%,11.764526%,11.764526%);stroke-opacity:1;stroke-miterlimit:4;"
       d="M 71.425781 87.390625 L 71.425781 87.390625 M 74.925781 76.867188 L 74.925781 76.867188 M 78.421875 71.382813 L 78.421875 71.382813 M 81.917969 73.582031 L 81.917969 73.582031 M 85.414063 82.402344 L 85.414063 82.402344 M 88.914063 93.617188 L 88.914063 93.617188 M 92.414063 101.851563 L 92.414063 101.851563 M 95.90625 103.148438 L 95.90625 103.148438 M 99.40625 96.898438 L 99.40625 96.898438 M 102.898438 86.085938 L 102.898438 86.085938 M 106.398438 75.90625 L 106.398438 75.90625 M 109.898438 71.234375 L 109.898438 71.234375 M 113.390625 74.308594 L 113.390625 74.308594 M 116.890625 83.660156 L 116.890625 83.660156 M 120.390625 94.804688 L 120.390625 94.804688 M 123.882813 102.394531 L 123.882813 102.394531 M 127.382813 102.792969 L 127.382813 102.792969 M 130.878906 95.804688 L 130.878906 95.804688 M 134.375 84.789063 L 134.375 84.789063 M 137.871094 75.019531 L 137.871094 75.019531 M 141.371094 71.183594 L 141.371094 71.183594 M 144.867188 75.121094 L 144.867188 75.121094 M 148.363281 84.949219 L 148.363281 84.949219 M 151.859375 95.941406 L 151.859375 95.941406 M 155.355469 102.84375 L 155.355469 102.84375 M 158.855469 102.332031 L 158.855469 102.332031 M 162.355469 94.664063 L 162.355469 94.664063 M 165.847656 83.503906 L 165.847656 83.503906 M 169.347656 74.214844 L 169.347656 74.214844 M 172.839844 71.242188 L 172.839844 71.242188 "
       id="path218" />
    <path
       style=" stroke:none;fill-rule:nonzero;fill:rgb(12.940979%,11.764526%,11.764526%);fill-opacity:1;"
       d="M 26.84375 159.554688 C 26.640625 159.773438 26.5 160.039063 26.34375 160.039063 C 26.203125 160.039063 26.140625 159.867188 26.109375 159.742188 C 26.078125 159.554688 25.828125 158.554688 25.828125 158.429688 C 25.828125 158.429688 26.328125 157.539063 26.53125 157.539063 C 26.703125 157.539063 26.75 157.664063 26.921875 157.664063 C 27.09375 157.664063 27.171875 157.523438 27.171875 157.398438 C 27.171875 157.210938 27.015625 157.132813 26.875 157.132813 C 26.484375 157.132813 26.140625 157.570313 25.765625 158.179688 L 25.6875 157.773438 C 25.546875 157.132813 25.4375 157.132813 25.28125 157.132813 C 25.046875 157.132813 24.5625 157.304688 24.359375 157.367188 L 24.390625 157.476563 C 24.625 157.429688 24.734375 157.398438 24.796875 157.398438 C 25 157.398438 25.015625 157.507813 25.09375 157.726563 C 25.09375 157.773438 25.34375 158.742188 25.34375 158.804688 C 24.6875 159.773438 24.5 160.023438 24.375 160.023438 C 24.234375 160.023438 24.109375 159.882813 23.9375 159.882813 C 23.78125 159.882813 23.6875 160.007813 23.6875 160.132813 C 23.6875 160.304688 23.8125 160.445313 24.046875 160.445313 C 24.28125 160.445313 24.375 160.367188 24.5 160.226563 C 24.75 159.960938 25.046875 159.554688 25.40625 159.070313 L 25.625 159.960938 C 25.71875 160.351563 25.828125 160.445313 26.046875 160.445313 C 26.21875 160.445313 26.421875 160.445313 26.953125 159.617188 Z M 26.84375 159.554688 "
       id="path220" />
    <g
       clip-path="url(#clip1)"
       clip-rule="nonzero"
       id="g224">
      <path
         style=" stroke:none;fill-rule:nonzero;fill:rgb(12.940979%,11.764526%,11.764526%);fill-opacity:1;"
         d="M 27.3125 161.417969 L 28.1875 161.417969 L 28.1875 161.371094 C 28.03125 161.371094 27.921875 161.371094 27.921875 161.261719 C 27.921875 161.214844 27.96875 161.105469 27.984375 161.042969 L 28.421875 159.402344 C 28.4375 159.339844 28.453125 159.277344 28.4375 159.277344 C 28.40625 159.277344 27.96875 159.386719 27.828125 159.402344 L 27.828125 159.449219 L 28 159.449219 C 28.03125 159.449219 28.125 159.449219 28.125 159.542969 C 28.125 159.574219 28.109375 159.621094 28.09375 159.652344 L 27.671875 161.199219 C 27.625 161.339844 27.5 161.355469 27.3125 161.371094 Z M 27.3125 161.417969 "
         id="path222" />
    </g>
    <path
       style=" stroke:none;fill-rule:nonzero;fill:rgb(0%,0%,0%);fill-opacity:1;"
       d="M 20.78125 144.394531 C 20.578125 144.613281 20.4375 144.878906 20.28125 144.878906 C 20.140625 144.878906 20.078125 144.707031 20.046875 144.582031 C 20.015625 144.394531 19.765625 143.394531 19.765625 143.269531 C 19.765625 143.269531 20.265625 142.378906 20.46875 142.378906 C 20.640625 142.378906 20.6875 142.503906 20.859375 142.503906 C 21.03125 142.503906 21.109375 142.363281 21.109375 142.238281 C 21.109375 142.050781 20.953125 141.972656 20.8125 141.972656 C 20.421875 141.972656 20.078125 142.410156 19.703125 143.019531 L 19.625 142.613281 C 19.484375 141.972656 19.375 141.972656 19.21875 141.972656 C 18.984375 141.972656 18.5 142.144531 18.296875 142.207031 L 18.328125 142.316406 C 18.5625 142.269531 18.671875 142.238281 18.734375 142.238281 C 18.9375 142.238281 18.953125 142.347656 19.03125 142.566406 C 19.03125 142.613281 19.28125 143.582031 19.28125 143.644531 C 18.625 144.613281 18.4375 144.863281 18.3125 144.863281 C 18.171875 144.863281 18.046875 144.722656 17.875 144.722656 C 17.71875 144.722656 17.625 144.847656 17.625 144.972656 C 17.625 145.144531 17.75 145.285156 17.984375 145.285156 C 18.21875 145.285156 18.3125 145.207031 18.4375 145.066406 C 18.6875 144.800781 18.984375 144.394531 19.34375 143.910156 L 19.5625 144.800781 C 19.65625 145.191406 19.765625 145.285156 19.984375 145.285156 C 20.15625 145.285156 20.359375 145.285156 20.890625 144.457031 Z M 20.78125 144.394531 "
       id="path226" />
    <path
       style=" stroke:none;fill-rule:nonzero;fill:rgb(0%,0%,0%);fill-opacity:1;"
       d="M 22.355469 145.816406 C 22.292969 145.925781 22.246094 146.019531 22.042969 146.019531 L 21.433594 146.019531 L 21.433594 146.003906 L 22.042969 145.394531 C 22.433594 145.003906 22.511719 144.863281 22.511719 144.644531 C 22.511719 144.410156 22.339844 144.113281 22.011719 144.113281 C 21.933594 144.113281 21.511719 144.128906 21.339844 144.628906 L 21.402344 144.644531 C 21.449219 144.566406 21.574219 144.347656 21.855469 144.347656 C 22.105469 144.347656 22.246094 144.535156 22.246094 144.738281 C 22.246094 144.847656 22.230469 145.019531 21.792969 145.488281 L 21.121094 146.207031 L 21.121094 146.253906 L 22.246094 146.253906 L 22.402344 145.832031 Z M 22.355469 145.816406 "
       id="path228" />
    <path
       style=" stroke:none;fill-rule:nonzero;fill:rgb(12.940979%,11.764526%,11.764526%);fill-opacity:1;"
       d="M 11.449219 11.195313 C 11.246094 11.414063 11.105469 11.679688 10.949219 11.679688 C 10.808594 11.679688 10.746094 11.507813 10.714844 11.382813 C 10.683594 11.195313 10.433594 10.195313 10.433594 10.070313 C 10.433594 10.070313 10.933594 9.179688 11.136719 9.179688 C 11.308594 9.179688 11.355469 9.304688 11.527344 9.304688 C 11.699219 9.304688 11.777344 9.164063 11.777344 9.039063 C 11.777344 8.851563 11.621094 8.773438 11.480469 8.773438 C 11.089844 8.773438 10.746094 9.210938 10.371094 9.820313 L 10.292969 9.414063 C 10.152344 8.773438 10.042969 8.773438 9.886719 8.773438 C 9.652344 8.773438 9.167969 8.945313 8.964844 9.007813 L 8.996094 9.117188 C 9.230469 9.070313 9.339844 9.039063 9.402344 9.039063 C 9.605469 9.039063 9.621094 9.148438 9.699219 9.367188 C 9.699219 9.414063 9.949219 10.382813 9.949219 10.445313 C 9.292969 11.414063 9.105469 11.664063 8.980469 11.664063 C 8.839844 11.664063 8.714844 11.523438 8.542969 11.523438 C 8.386719 11.523438 8.292969 11.648438 8.292969 11.773438 C 8.292969 11.945313 8.417969 12.085938 8.652344 12.085938 C 8.886719 12.085938 8.980469 12.007813 9.105469 11.867188 C 9.355469 11.601563 9.652344 11.195313 10.011719 10.710938 L 10.230469 11.601563 C 10.324219 11.992188 10.433594 12.085938 10.652344 12.085938 C 10.824219 12.085938 11.027344 12.085938 11.558594 11.257813 Z M 11.449219 11.195313 "
       id="path230" />
    <path
       style=" stroke:none;fill-rule:nonzero;fill:rgb(12.940979%,11.764526%,11.764526%);fill-opacity:1;"
       d="M 12.320313 11.261719 C 12.367188 11.199219 12.476563 11.058594 12.679688 11.058594 C 12.789063 11.058594 12.945313 11.136719 12.945313 11.339844 C 12.945313 11.683594 12.507813 11.824219 12.195313 11.871094 L 12.195313 11.917969 C 12.507813 11.902344 12.789063 12.011719 12.789063 12.449219 C 12.789063 12.855469 12.492188 12.964844 12.382813 12.964844 C 12.195313 12.964844 12.101563 12.777344 11.960938 12.777344 C 11.835938 12.777344 11.804688 12.824219 11.804688 12.886719 C 11.804688 13.042969 11.976563 13.074219 12.164063 13.074219 C 12.742188 13.074219 13.039063 12.636719 13.039063 12.277344 C 13.039063 11.933594 12.820313 11.839844 12.742188 11.808594 L 12.742188 11.792969 C 13.070313 11.667969 13.226563 11.558594 13.226563 11.324219 C 13.226563 11.058594 12.992188 10.917969 12.757813 10.917969 C 12.585938 10.917969 12.351563 11.058594 12.273438 11.246094 Z M 12.320313 11.261719 "
       id="path232" />
    <path
       style="fill:none;stroke-width:2.799;stroke-linecap:round;stroke-linejoin:round;stroke:rgb(65.097046%,63.920593%,65.097046%);stroke-opacity:1;stroke-miterlimit:4;"
       d="M 26.46875 86.660156 L 48.859375 86.660156 "
       id="path234" />
    <path
       style="fill-rule:nonzero;fill:rgb(65.097046%,63.920593%,65.097046%);fill-opacity:1;stroke-width:0.35;stroke-linecap:butt;stroke-linejoin:miter;stroke:rgb(65.097046%,63.920593%,65.097046%);stroke-opacity:1;stroke-miterlimit:4;"
       d="M 54.148438 84.367188 C 50.449219 83.246094 48.042969 82.21875 45.070313 81.027344 L 45.070313 92.320313 C 46.132813 91.816406 50.449219 90.097656 54.148438 88.980469 C 58.113281 87.785156 61.707031 86.964844 64.035156 86.671875 C 61.707031 86.378906 58.113281 85.5625 54.148438 84.367188 Z M 54.148438 84.367188 "
       id="path236" />
    <path
       style="fill:none;stroke-width:0.7;stroke-linecap:butt;stroke-linejoin:miter;stroke:rgb(12.940979%,11.764526%,11.764526%);stroke-opacity:1;stroke-miterlimit:4;"
       d="M 69.269531 122.847656 L 171.441406 122.847656 "
       id="path238" />
    <path
       style=" stroke:none;fill-rule:nonzero;fill:rgb(12.940979%,11.764526%,11.764526%);fill-opacity:1;"
       d="M 173.09375 122.132813 C 171.9375 121.78125 171.183594 121.460938 170.257813 121.085938 L 170.257813 124.617188 C 170.589844 124.460938 171.9375 123.921875 173.09375 123.574219 C 174.332031 123.199219 175.457031 122.945313 176.183594 122.851563 C 175.457031 122.761719 174.332031 122.503906 173.09375 122.132813 "
       id="path240" />
    <path
       style="fill:none;stroke-width:0.7;stroke-linecap:butt;stroke-linejoin:miter;stroke:rgb(12.940979%,11.764526%,11.764526%);stroke-opacity:1;stroke-miterlimit:4;"
       d="M 68.9375 123.121094 L 68.9375 38.09375 "
       id="path242" />
    <path
       style=" stroke:none;fill-rule:nonzero;fill:rgb(12.940979%,11.764526%,11.764526%);fill-opacity:1;"
       d="M 68.21875 36.441406 C 67.871094 37.597656 67.550781 38.347656 67.175781 39.277344 L 70.707031 39.277344 C 70.550781 38.945313 70.011719 37.597656 69.664063 36.441406 C 69.289063 35.203125 69.035156 34.078125 68.941406 33.351563 C 68.851563 34.078125 68.59375 35.203125 68.21875 36.441406 "
       id="path244" />
    <path
       style=" stroke:none;fill-rule:nonzero;fill:rgb(12.940979%,11.764526%,11.764526%);fill-opacity:1;"
       d="M 177.867188 121.238281 C 177.960938 121.222656 178.023438 121.207031 178.148438 121.207031 C 178.632813 121.207031 178.742188 121.566406 178.960938 122.332031 C 179.117188 122.785156 179.460938 124.253906 179.460938 124.566406 C 179.460938 124.800781 179.117188 125.207031 178.898438 125.457031 C 178.617188 125.785156 178.507813 125.863281 178.367188 125.863281 C 178.226563 125.863281 178.117188 125.628906 177.867188 125.628906 C 177.679688 125.628906 177.539063 125.769531 177.539063 125.941406 C 177.539063 126.300781 177.898438 126.332031 177.960938 126.332031 C 178.960938 126.332031 181.320313 122.410156 181.320313 121.410156 C 181.320313 121.113281 181.148438 120.894531 180.835938 120.894531 C 180.617188 120.894531 180.523438 121.066406 180.523438 121.191406 C 180.523438 121.582031 180.976563 121.488281 180.976563 121.832031 C 180.976563 122.269531 180.320313 123.410156 179.960938 123.988281 L 179.789063 123.019531 C 179.679688 122.394531 179.179688 120.894531 179.070313 120.894531 C 178.929688 120.894531 178.273438 121.035156 177.867188 121.097656 Z M 177.867188 121.238281 "
       id="path246" />
    <g
       clip-path="url(#clip2)"
       clip-rule="nonzero"
       id="g250">
      <path
         style=" stroke:none;fill-rule:nonzero;fill:rgb(12.940979%,11.764526%,11.764526%);fill-opacity:1;"
         d="M 181.671875 125.648438 L 182.84375 125.648438 L 182.84375 125.585938 C 182.640625 125.585938 182.484375 125.570313 182.484375 125.445313 C 182.484375 125.382813 182.546875 125.226563 182.5625 125.132813 L 183.15625 122.960938 C 183.1875 122.898438 183.203125 122.804688 183.171875 122.804688 C 183.140625 122.804688 182.546875 122.929688 182.359375 122.960938 L 182.359375 123.023438 L 182.59375 123.023438 C 182.640625 123.023438 182.75 123.023438 182.75 123.148438 C 182.75 123.195313 182.734375 123.242188 182.71875 123.289063 L 182.140625 125.367188 C 182.09375 125.554688 181.921875 125.570313 181.671875 125.585938 Z M 181.671875 125.648438 "
         id="path248" />
    </g>
    <path
       style=" stroke:none;fill-rule:nonzero;fill:rgb(12.940979%,11.764526%,11.764526%);fill-opacity:1;"
       d="M 68.34375 25.363281 C 68.4375 25.347656 68.5 25.332031 68.625 25.332031 C 69.109375 25.332031 69.21875 25.691406 69.4375 26.457031 C 69.59375 26.910156 69.9375 28.378906 69.9375 28.691406 C 69.9375 28.925781 69.59375 29.332031 69.375 29.582031 C 69.09375 29.910156 68.984375 29.988281 68.84375 29.988281 C 68.703125 29.988281 68.59375 29.753906 68.34375 29.753906 C 68.15625 29.753906 68.015625 29.894531 68.015625 30.066406 C 68.015625 30.425781 68.375 30.457031 68.4375 30.457031 C 69.4375 30.457031 71.796875 26.535156 71.796875 25.535156 C 71.796875 25.238281 71.625 25.019531 71.3125 25.019531 C 71.09375 25.019531 71 25.191406 71 25.316406 C 71 25.707031 71.453125 25.613281 71.453125 25.957031 C 71.453125 26.394531 70.796875 27.535156 70.4375 28.113281 L 70.265625 27.144531 C 70.15625 26.519531 69.65625 25.019531 69.546875 25.019531 C 69.40625 25.019531 68.75 25.160156 68.34375 25.222656 Z M 68.34375 25.363281 "
       id="path252" />
    <path
       style=" stroke:none;fill-rule:nonzero;fill:rgb(12.940979%,11.764526%,11.764526%);fill-opacity:1;"
       d="M 73.636719 29.195313 C 73.558594 29.335938 73.496094 29.460938 73.214844 29.460938 L 72.417969 29.460938 L 72.417969 29.429688 L 73.230469 28.632813 C 73.746094 28.101563 73.855469 27.914063 73.855469 27.632813 C 73.855469 27.320313 73.621094 26.929688 73.167969 26.929688 C 73.058594 26.929688 72.511719 26.945313 72.292969 27.601563 L 72.371094 27.632813 C 72.433594 27.523438 72.589844 27.242188 72.964844 27.242188 C 73.292969 27.242188 73.480469 27.492188 73.480469 27.757813 C 73.480469 27.882813 73.464844 28.132813 72.886719 28.757813 L 71.996094 29.695313 L 71.996094 29.773438 L 73.496094 29.773438 L 73.699219 29.210938 Z M 73.636719 29.195313 "
       id="path254" />
    <path
       style=" stroke:none;fill-rule:nonzero;fill:rgb(12.940979%,11.764526%,11.764526%);fill-opacity:1;"
       d="M 4.136719 3.363281 L 3.980469 4.691406 L 4.105469 4.691406 C 4.152344 4.597656 4.199219 4.519531 4.308594 4.519531 C 4.558594 4.519531 4.886719 4.675781 5.136719 4.675781 C 5.605469 4.675781 6.386719 4.457031 6.386719 3.550781 C 6.386719 2.832031 5.371094 2.097656 5.371094 1.566406 C 5.371094 1.144531 5.636719 1.082031 5.824219 1.082031 C 6.371094 1.082031 6.574219 1.566406 6.605469 2.035156 L 6.746094 2.035156 L 6.917969 0.878906 L 6.792969 0.878906 C 6.746094 0.941406 6.699219 1.019531 6.558594 1.019531 C 6.308594 1.019531 6.136719 0.878906 5.761719 0.878906 C 4.871094 0.878906 4.761719 1.550781 4.761719 1.816406 C 4.761719 2.457031 5.746094 3.269531 5.746094 3.816406 C 5.746094 4.097656 5.621094 4.503906 5.152344 4.503906 C 4.464844 4.503906 4.339844 3.722656 4.277344 3.363281 Z M 4.136719 3.363281 "
       id="path256" />
    <path
       style=" stroke:none;fill-rule:nonzero;fill:rgb(12.940979%,11.764526%,11.764526%);fill-opacity:1;"
       d="M 9.792969 0.878906 C 8.574219 0.878906 7.324219 2.238281 7.324219 3.472656 C 7.324219 4.160156 7.714844 4.675781 8.605469 4.675781 C 9.886719 4.675781 11.027344 3.160156 11.027344 2.128906 C 11.027344 1.566406 10.777344 0.878906 9.792969 0.878906 Z M 9.746094 1.050781 C 10.136719 1.050781 10.324219 1.425781 10.324219 1.863281 C 10.324219 2.753906 9.667969 4.503906 8.714844 4.503906 C 8.292969 4.503906 8.042969 4.191406 8.042969 3.722656 C 8.042969 2.722656 8.792969 1.050781 9.746094 1.050781 Z M 9.746094 1.050781 "
       id="path258" />
    <path
       style=" stroke:none;fill-rule:nonzero;fill:rgb(12.940979%,11.764526%,11.764526%);fill-opacity:1;"
       d="M 15.179688 3.597656 C 14.882813 3.972656 14.648438 4.269531 14.492188 4.269531 C 14.398438 4.269531 14.382813 4.175781 14.382813 4.128906 C 14.382813 4.003906 14.492188 3.628906 14.539063 3.472656 L 15.210938 0.957031 L 14.585938 0.957031 C 14.257813 1.847656 14.070313 2.378906 13.664063 3.003906 C 13.382813 3.441406 12.851563 4.222656 12.492188 4.222656 C 12.304688 4.222656 12.289063 4.050781 12.304688 3.941406 L 13.070313 0.894531 L 13.054688 0.878906 C 12.632813 0.988281 12.210938 1.050781 11.789063 1.113281 L 11.789063 1.222656 C 12.132813 1.222656 12.289063 1.222656 12.289063 1.472656 C 12.289063 1.691406 11.664063 3.816406 11.664063 4.175781 C 11.664063 4.550781 11.820313 4.675781 12.117188 4.675781 C 12.867188 4.675781 13.492188 3.628906 14.070313 2.675781 L 14.085938 2.675781 C 13.898438 3.363281 13.726563 4.066406 13.726563 4.222656 C 13.726563 4.347656 13.742188 4.660156 14.117188 4.660156 C 14.539063 4.660156 14.757813 4.441406 15.289063 3.675781 Z M 15.179688 3.597656 "
       id="path260" />
    <path
       style=" stroke:none;fill-rule:nonzero;fill:rgb(12.940979%,11.764526%,11.764526%);fill-opacity:1;"
       d="M 16.519531 4.582031 C 16.863281 3.472656 16.988281 3.082031 17.300781 2.488281 C 17.363281 2.363281 17.863281 1.425781 18.128906 1.425781 C 18.332031 1.425781 18.207031 1.722656 18.566406 1.722656 C 18.660156 1.722656 18.957031 1.722656 18.957031 1.285156 C 18.957031 1.003906 18.753906 0.878906 18.550781 0.878906 C 18.035156 0.878906 17.394531 1.863281 17.113281 2.410156 L 17.050781 2.582031 L 17.035156 2.566406 L 17.441406 0.894531 L 17.410156 0.878906 C 17.035156 0.941406 16.550781 1.050781 16.113281 1.113281 L 16.113281 1.253906 C 16.207031 1.238281 16.300781 1.207031 16.394531 1.207031 C 16.660156 1.207031 16.691406 1.347656 16.691406 1.457031 C 16.691406 1.535156 16.644531 1.816406 16.566406 2.128906 L 15.878906 4.582031 Z M 16.519531 4.582031 "
       id="path262" />
    <path
       style=" stroke:none;fill-rule:nonzero;fill:rgb(12.940979%,11.764526%,11.764526%);fill-opacity:1;"
       d="M 21.394531 3.691406 C 21.097656 4.035156 20.691406 4.378906 20.191406 4.378906 C 19.675781 4.378906 19.425781 3.988281 19.425781 3.347656 C 19.425781 2.550781 20.003906 1.050781 21.097656 1.050781 C 21.253906 1.050781 21.425781 1.097656 21.425781 1.222656 C 21.425781 1.363281 21.300781 1.425781 21.300781 1.644531 C 21.300781 1.832031 21.425781 1.941406 21.628906 1.941406 C 21.832031 1.941406 22.019531 1.800781 22.019531 1.566406 C 22.019531 1.300781 21.816406 0.878906 21.113281 0.878906 C 19.863281 0.878906 18.707031 2.160156 18.707031 3.347656 C 18.707031 4.457031 19.410156 4.675781 19.957031 4.675781 C 20.832031 4.675781 21.316406 4.050781 21.535156 3.769531 Z M 21.394531 3.691406 "
       id="path264" />
    <path
       style=" stroke:none;fill-rule:nonzero;fill:rgb(12.940979%,11.764526%,11.764526%);fill-opacity:1;"
       d="M 23.46875 2.472656 C 23.765625 1.722656 24.34375 1.082031 24.796875 1.082031 C 25 1.082031 25.09375 1.238281 25.09375 1.410156 C 25.09375 1.472656 25.046875 2.488281 23.3125 2.832031 Z M 25.1875 3.660156 C 24.765625 4.003906 24.421875 4.300781 23.96875 4.300781 C 23.609375 4.300781 23.171875 4.097656 23.171875 3.535156 C 23.171875 3.363281 23.21875 3.191406 23.265625 3.019531 L 23.5 2.988281 C 24.859375 2.800781 25.640625 2.113281 25.640625 1.457031 C 25.640625 1.082031 25.390625 0.878906 24.953125 0.878906 C 23.765625 0.878906 22.453125 2.285156 22.453125 3.488281 C 22.453125 4.019531 22.71875 4.675781 23.59375 4.675781 C 24.4375 4.675781 25.203125 3.910156 25.296875 3.769531 Z M 25.1875 3.660156 "
       id="path266" />
    <path
       style=" stroke:none;fill-rule:nonzero;fill:rgb(12.940979%,11.764526%,11.764526%);fill-opacity:1;"
       d="M 109.894531 0.988281 L 109.222656 0.988281 L 109.457031 0.128906 C 109.472656 0.0664063 109.457031 -0.0117188 109.394531 0.00390625 C 109.316406 -0.0117188 109.285156 0.0664063 109.253906 0.0976563 C 109.019531 0.394531 108.613281 0.769531 108.347656 0.910156 C 108.191406 0.988281 107.957031 1.050781 107.910156 1.128906 C 107.894531 1.160156 107.894531 1.207031 107.894531 1.253906 L 108.519531 1.253906 L 107.910156 3.566406 C 107.878906 3.707031 107.722656 4.207031 107.722656 4.332031 C 107.722656 4.597656 107.957031 4.675781 108.128906 4.675781 C 108.566406 4.675781 108.894531 4.300781 109.316406 3.660156 L 109.207031 3.597656 C 108.988281 3.863281 108.707031 4.269531 108.535156 4.269531 C 108.441406 4.269531 108.394531 4.191406 108.394531 4.113281 C 108.394531 4.097656 108.394531 4.082031 108.410156 4.050781 L 109.144531 1.253906 L 109.847656 1.253906 Z M 109.894531 0.988281 "
       id="path268" />
    <path
       style=" stroke:none;fill-rule:nonzero;fill:rgb(12.940979%,11.764526%,11.764526%);fill-opacity:1;"
       d="M 113.632813 3.660156 C 113.257813 4.035156 113.085938 4.238281 112.960938 4.238281 C 112.898438 4.238281 112.851563 4.191406 112.851563 4.128906 C 112.851563 3.863281 113.617188 1.003906 113.648438 0.910156 L 113.585938 0.878906 L 113.070313 0.941406 L 113.054688 0.972656 L 112.960938 1.332031 L 112.945313 1.332031 C 112.929688 1.097656 112.648438 0.878906 112.289063 0.878906 C 111.164063 0.878906 109.882813 2.457031 109.882813 3.691406 C 109.882813 3.925781 109.914063 4.675781 110.742188 4.675781 C 111.257813 4.675781 111.695313 4.425781 112.398438 3.394531 L 112.414063 3.410156 C 112.273438 3.925781 112.226563 4.113281 112.226563 4.300781 C 112.226563 4.441406 112.226563 4.660156 112.585938 4.660156 C 112.945313 4.660156 113.226563 4.363281 113.742188 3.738281 Z M 110.585938 3.660156 C 110.585938 2.910156 111.351563 1.066406 112.320313 1.066406 C 112.570313 1.066406 112.804688 1.222656 112.804688 1.628906 C 112.804688 2.457031 111.976563 4.269531 111.085938 4.269531 C 110.867188 4.269531 110.585938 4.113281 110.585938 3.660156 Z M 110.585938 3.660156 "
       id="path270" />
    <path
       style=" stroke:none;fill-rule:nonzero;fill:rgb(12.940979%,11.764526%,11.764526%);fill-opacity:1;"
       d="M 114.957031 4.582031 C 115.300781 3.472656 115.425781 3.082031 115.738281 2.488281 C 115.800781 2.363281 116.300781 1.425781 116.566406 1.425781 C 116.769531 1.425781 116.644531 1.722656 117.003906 1.722656 C 117.097656 1.722656 117.394531 1.722656 117.394531 1.285156 C 117.394531 1.003906 117.191406 0.878906 116.988281 0.878906 C 116.472656 0.878906 115.832031 1.863281 115.550781 2.410156 L 115.488281 2.582031 L 115.472656 2.566406 L 115.878906 0.894531 L 115.847656 0.878906 C 115.472656 0.941406 114.988281 1.050781 114.550781 1.113281 L 114.550781 1.253906 C 114.644531 1.238281 114.738281 1.207031 114.832031 1.207031 C 115.097656 1.207031 115.128906 1.347656 115.128906 1.457031 C 115.128906 1.535156 115.082031 1.816406 115.003906 2.128906 L 114.316406 4.582031 Z M 114.957031 4.582031 "
       id="path272" />
    <path
       style=" stroke:none;fill-rule:nonzero;fill:rgb(12.940979%,11.764526%,11.764526%);fill-opacity:1;"
       d="M 120.851563 1.191406 L 120.351563 1.191406 C 120.289063 1.191406 120.210938 1.113281 120.070313 1.035156 C 119.914063 0.957031 119.710938 0.878906 119.367188 0.878906 C 118.679688 0.878906 117.710938 1.363281 117.710938 2.300781 C 117.710938 2.894531 118.070313 3.082031 118.367188 3.222656 C 118.085938 3.410156 117.726563 3.660156 117.726563 3.925781 C 117.726563 4.082031 117.851563 4.175781 117.945313 4.253906 C 117.242188 4.722656 116.960938 4.894531 116.960938 5.378906 C 116.960938 5.847656 117.414063 6.316406 118.320313 6.316406 C 119.476563 6.316406 120.132813 5.800781 120.132813 5.082031 C 120.132813 3.925781 118.335938 4.066406 118.335938 3.613281 C 118.335938 3.503906 118.523438 3.285156 118.648438 3.285156 C 118.757813 3.285156 118.867188 3.316406 118.976563 3.316406 C 119.710938 3.316406 120.507813 2.628906 120.507813 2.003906 C 120.507813 1.832031 120.492188 1.675781 120.445313 1.503906 L 120.851563 1.503906 Z M 119.632813 5.332031 C 119.632813 5.753906 119.210938 6.128906 118.460938 6.128906 C 118.335938 6.128906 117.429688 6.097656 117.429688 5.316406 C 117.429688 5.113281 117.429688 4.894531 117.773438 4.597656 C 117.789063 4.566406 118.085938 4.347656 118.132813 4.347656 C 118.195313 4.347656 119.007813 4.660156 119.164063 4.738281 C 119.320313 4.800781 119.632813 4.957031 119.632813 5.332031 Z M 119.851563 1.644531 C 119.851563 2.332031 119.429688 3.144531 118.882813 3.144531 C 118.507813 3.144531 118.351563 2.863281 118.351563 2.488281 C 118.351563 1.925781 118.726563 1.066406 119.367188 1.066406 C 119.726563 1.066406 119.851563 1.316406 119.851563 1.644531 Z M 119.851563 1.644531 "
       id="path274" />
    <path
       style=" stroke:none;fill-rule:nonzero;fill:rgb(12.940979%,11.764526%,11.764526%);fill-opacity:1;"
       d="M 122.378906 2.472656 C 122.675781 1.722656 123.253906 1.082031 123.707031 1.082031 C 123.910156 1.082031 124.003906 1.238281 124.003906 1.410156 C 124.003906 1.472656 123.957031 2.488281 122.222656 2.832031 Z M 124.097656 3.660156 C 123.675781 4.003906 123.332031 4.300781 122.878906 4.300781 C 122.519531 4.300781 122.082031 4.097656 122.082031 3.535156 C 122.082031 3.363281 122.128906 3.191406 122.175781 3.019531 L 122.410156 2.988281 C 123.769531 2.800781 124.550781 2.113281 124.550781 1.457031 C 124.550781 1.082031 124.300781 0.878906 123.863281 0.878906 C 122.675781 0.878906 121.363281 2.285156 121.363281 3.488281 C 121.363281 4.019531 121.628906 4.675781 122.503906 4.675781 C 123.347656 4.675781 124.113281 3.910156 124.207031 3.769531 Z M 124.097656 3.660156 "
       id="path276" />
    <path
       style=" stroke:none;fill-rule:nonzero;fill:rgb(12.940979%,11.764526%,11.764526%);fill-opacity:1;"
       d="M 127.3125 0.988281 L 126.640625 0.988281 L 126.875 0.128906 C 126.890625 0.0664063 126.875 -0.0117188 126.8125 0.00390625 C 126.734375 -0.0117188 126.703125 0.0664063 126.671875 0.0976563 C 126.4375 0.394531 126.03125 0.769531 125.765625 0.910156 C 125.609375 0.988281 125.375 1.050781 125.328125 1.128906 C 125.3125 1.160156 125.3125 1.207031 125.3125 1.253906 L 125.9375 1.253906 L 125.328125 3.566406 C 125.296875 3.707031 125.140625 4.207031 125.140625 4.332031 C 125.140625 4.597656 125.375 4.675781 125.546875 4.675781 C 125.984375 4.675781 126.3125 4.300781 126.734375 3.660156 L 126.625 3.597656 C 126.40625 3.863281 126.125 4.269531 125.953125 4.269531 C 125.859375 4.269531 125.8125 4.191406 125.8125 4.113281 C 125.8125 4.097656 125.8125 4.082031 125.828125 4.050781 L 126.5625 1.253906 L 127.265625 1.253906 Z M 127.3125 0.988281 "
       id="path278" />
  </g>
</svg>
