<?xml version="1.0" encoding="UTF-8" standalone="no"?>
<svg
   xmlns:dc="http://purl.org/dc/elements/1.1/"
   xmlns:cc="http://creativecommons.org/ns#"
   xmlns:rdf="http://www.w3.org/1999/02/22-rdf-syntax-ns#"
   xmlns:svg="http://www.w3.org/2000/svg"
   xmlns="http://www.w3.org/2000/svg"
   xmlns:sodipodi="http://sodipodi.sourceforge.net/DTD/sodipodi-0.dtd"
   xmlns:inkscape="http://www.inkscape.org/namespaces/inkscape"
   width="158.747284pt"
   height="120.538208pt"
   viewBox="0 0 158.747284 120.538208"
   version="1.2"
   id="svg163"
   sodipodi:docname="impurity_function.svg"
   inkscape:version="0.92.4 (5da689c313, 2019-01-14)">
  <metadata
     id="metadata167">
    <rdf:RDF>
      <cc:Work
         rdf:about="">
        <dc:format>image/svg+xml</dc:format>
        <dc:type
           rdf:resource="http://purl.org/dc/dcmitype/StillImage" />
        <dc:title></dc:title>
      </cc:Work>
    </rdf:RDF>
  </metadata>
  <sodipodi:namedview
     pagecolor="#ffffff"
     bordercolor="#666666"
     borderopacity="1"
     objecttolerance="10"
     gridtolerance="10"
     guidetolerance="10"
     inkscape:pageopacity="0"
     inkscape:pageshadow="2"
     inkscape:window-width="661"
     inkscape:window-height="480"
     id="namedview165"
     showgrid="false"
     inkscape:zoom="1.4684141"
     inkscape:cx="105.83152"
     inkscape:cy="80.358805"
     inkscape:window-x="0"
     inkscape:window-y="0"
     inkscape:window-maximized="0"
     inkscape:current-layer="svg163" />
  <defs
     id="defs20">
    <clipPath
       id="clip1">
      <path
         d="M 5 115 L 9 115 L 9 120.539063 L 5 120.539063 Z M 5 115 "
         id="path2" />
    </clipPath>
    <clipPath
       id="clip2">
      <path
         d="M 139 115 L 142 115 L 142 120.539063 L 139 120.539063 Z M 139 115 "
         id="path5" />
    </clipPath>
    <clipPath
       id="clip3">
      <path
         d="M 152 107 L 158.746094 107 L 158.746094 115 L 152 115 Z M 152 107 "
         id="path8" />
    </clipPath>
    <clipPath
       id="clip4">
      <path
         d="M 69 115 L 73 115 L 73 120.539063 L 69 120.539063 Z M 69 115 "
         id="path11" />
    </clipPath>
    <clipPath
       id="clip5">
      <path
         d="M 73 119 L 74 119 L 74 120.539063 L 73 120.539063 Z M 73 119 "
         id="path14" />
    </clipPath>
    <clipPath
       id="clip6">
      <path
         d="M 74 115 L 78 115 L 78 120.539063 L 74 120.539063 Z M 74 115 "
         id="path17" />
    </clipPath>
  </defs>
  <g
     id="surface32">
    <path
       style="fill:none;stroke-width:0.75;stroke-linecap:round;stroke-linejoin:round;stroke:rgb(12.940979%,11.764526%,11.764526%);stroke-opacity:1;stroke-miterlimit:4;"
       d="M 5.90625 111.09375 L 145.964844 111.09375 "
       id="path22" />
    <path
       style=" stroke:none;fill-rule:nonzero;fill:rgb(12.940979%,11.764526%,11.764526%);fill-opacity:1;"
       d="M 147.734375 110.324219 C 146.496094 109.949219 145.691406 109.605469 144.695313 109.207031 L 144.695313 112.988281 C 145.050781 112.820313 146.496094 112.242188 147.734375 111.871094 C 149.0625 111.46875 150.261719 111.195313 151.042969 111.097656 C 150.261719 111 149.0625 110.722656 147.734375 110.324219 "
       id="path24" />
    <path
       style="fill:none;stroke-width:0.75;stroke-linecap:round;stroke-linejoin:round;stroke:rgb(12.940979%,11.764526%,11.764526%);stroke-opacity:1;stroke-miterlimit:4;"
       d="M 6.316406 111.199219 L 6.230469 13.777344 "
       id="path26" />
    <path
       style=" stroke:none;fill-rule:nonzero;fill:rgb(12.940979%,11.764526%,11.764526%);fill-opacity:1;"
       d="M 5.460938 12.007813 C 5.085938 13.246094 4.742188 14.050781 4.34375 15.046875 L 8.125 15.042969 C 7.957031 14.6875 7.378906 13.246094 7.003906 12.003906 C 6.605469 10.679688 6.328125 9.476563 6.230469 8.699219 C 6.132813 9.476563 5.859375 10.679688 5.460938 12.007813 "
       id="path28" />
    <path
       style="fill:none;stroke-width:0.5;stroke-linecap:round;stroke-linejoin:round;stroke:rgb(12.940979%,11.764526%,11.764526%);stroke-opacity:1;stroke-miterlimit:4;"
       d="M 6.316406 111.089844 L 6.453125 110.128906 L 6.589844 109.339844 L 6.726563 108.613281 L 6.859375 107.925781 L 6.996094 107.269531 L 7.132813 106.636719 L 7.269531 106.023438 L 7.40625 105.429688 L 7.542969 104.855469 L 7.675781 104.289063 L 7.816406 103.738281 L 7.949219 103.195313 L 8.085938 102.664063 L 8.222656 102.144531 L 8.359375 101.632813 L 8.496094 101.128906 L 8.632813 100.628906 L 8.769531 100.140625 L 8.90625 99.660156 L 9.042969 99.183594 L 9.175781 98.714844 L 9.3125 98.25 L 9.449219 97.789063 L 9.722656 96.890625 L 9.859375 96.449219 L 9.992188 96.007813 L 10.265625 95.148438 L 10.402344 94.722656 L 10.675781 93.886719 L 10.8125 93.472656 L 10.949219 93.066406 L 11.085938 92.664063 L 11.21875 92.261719 L 11.492188 91.46875 L 11.628906 91.078125 L 11.902344 90.304688 L 12.171875 89.546875 L 12.3125 89.167969 L 12.445313 88.800781 L 12.582031 88.429688 L 12.855469 87.695313 L 13.128906 86.976563 L 13.265625 86.621094 L 13.398438 86.265625 L 13.539063 85.914063 L 13.671875 85.566406 L 13.808594 85.21875 L 13.945313 84.875 L 14.355469 83.855469 L 14.488281 83.519531 L 14.628906 83.1875 L 14.761719 82.855469 L 15.035156 82.199219 L 15.308594 81.550781 L 15.445313 81.230469 L 15.582031 80.914063 L 15.714844 80.59375 L 15.855469 80.28125 L 15.988281 79.96875 L 16.125 79.65625 L 16.398438 79.039063 L 16.535156 78.734375 L 16.804688 78.125 L 16.945313 77.824219 L 17.214844 77.226563 L 17.351563 76.929688 L 17.488281 76.636719 L 17.625 76.347656 L 17.757813 76.054688 L 17.898438 75.765625 L 18.035156 75.476563 L 18.167969 75.191406 L 18.304688 74.90625 L 18.441406 74.625 L 18.578125 74.339844 L 18.714844 74.058594 L 18.984375 73.503906 L 19.121094 73.226563 L 19.394531 72.679688 L 19.53125 72.410156 L 19.667969 72.136719 L 20.078125 71.335938 L 20.210938 71.070313 L 20.757813 70.023438 L 21.03125 69.507813 L 21.167969 69.253906 L 21.300781 68.996094 L 21.574219 68.492188 L 21.984375 67.742188 L 22.257813 67.25 L 22.390625 67.003906 L 22.800781 66.277344 L 22.9375 66.039063 L 23.074219 65.796875 L 23.210938 65.5625 L 23.484375 65.085938 L 23.617188 64.851563 L 23.757813 64.617188 L 23.890625 64.386719 L 24.164063 63.925781 L 24.296875 63.695313 L 24.4375 63.464844 L 24.574219 63.242188 L 24.707031 63.011719 L 24.84375 62.789063 L 24.980469 62.5625 L 25.117188 62.339844 L 25.253906 62.121094 L 25.390625 61.898438 L 25.800781 61.242188 L 25.933594 61.023438 L 26.074219 60.808594 L 26.207031 60.59375 L 26.34375 60.378906 L 26.480469 60.167969 L 26.617188 59.953125 "
       id="path30" />
    <path
       style="fill:none;stroke-width:0.5;stroke-linecap:round;stroke-linejoin:round;stroke:rgb(12.940979%,11.764526%,11.764526%);stroke-opacity:1;stroke-miterlimit:4;"
       d="M 26.617188 59.953125 L 26.753906 59.742188 L 26.886719 59.53125 L 27.023438 59.324219 L 27.160156 59.113281 L 27.433594 58.699219 L 27.570313 58.496094 L 27.707031 58.289063 L 27.980469 57.882813 L 28.113281 57.683594 L 28.25 57.480469 L 28.796875 56.683594 L 29.070313 56.292969 L 29.203125 56.097656 L 29.476563 55.714844 L 29.613281 55.519531 L 29.886719 55.136719 L 30.160156 54.761719 L 30.296875 54.570313 L 30.429688 54.386719 L 30.703125 54.011719 L 31.113281 53.460938 L 31.25 53.28125 L 31.386719 53.097656 L 31.519531 52.917969 L 31.929688 52.378906 L 32.339844 51.851563 L 32.472656 51.675781 L 32.613281 51.503906 L 32.746094 51.328125 L 33.15625 50.8125 L 33.292969 50.644531 L 33.425781 50.472656 L 33.566406 50.304688 L 33.699219 50.136719 L 33.972656 49.800781 L 34.109375 49.636719 L 34.246094 49.46875 L 34.382813 49.308594 L 34.515625 49.140625 L 34.65625 48.980469 L 34.925781 48.65625 L 35.335938 48.175781 L 35.609375 47.863281 L 35.742188 47.707031 L 35.882813 47.546875 L 36.015625 47.394531 L 36.152344 47.238281 L 36.289063 47.085938 L 36.425781 46.929688 L 36.699219 46.625 L 36.96875 46.324219 L 37.109375 46.175781 L 37.242188 46.023438 L 37.378906 45.878906 L 37.515625 45.726563 L 37.789063 45.433594 L 37.925781 45.289063 L 38.058594 45.144531 L 38.199219 45 L 38.332031 44.855469 L 38.46875 44.714844 L 38.605469 44.570313 L 38.878906 44.289063 L 39.011719 44.148438 L 39.152344 44.007813 L 39.285156 43.867188 L 39.96875 43.183594 L 40.105469 43.050781 L 40.238281 42.914063 L 40.378906 42.78125 L 40.511719 42.648438 L 40.785156 42.382813 L 40.921875 42.253906 L 41.058594 42.121094 L 41.195313 41.992188 L 41.328125 41.863281 L 41.738281 41.476563 L 42.011719 41.226563 L 42.148438 41.097656 L 42.285156 40.972656 L 42.421875 40.851563 L 42.554688 40.726563 L 42.695313 40.605469 L 42.828125 40.480469 L 43.375 39.996094 L 43.511719 39.878906 L 43.644531 39.761719 L 43.785156 39.644531 L 43.917969 39.523438 L 44.054688 39.410156 L 44.464844 39.058594 L 44.597656 38.945313 L 44.738281 38.832031 L 44.871094 38.722656 L 45.007813 38.605469 L 45.144531 38.496094 L 45.28125 38.382813 L 45.554688 38.164063 L 45.691406 38.050781 L 45.824219 37.945313 L 46.097656 37.726563 L 46.234375 37.621094 L 46.371094 37.511719 L 46.644531 37.300781 L 46.78125 37.199219 L 46.917969 37.09375 L 47.050781 36.988281 "
       id="path32" />
    <path
       style="fill:none;stroke-width:0.5;stroke-linecap:round;stroke-linejoin:round;stroke:rgb(12.940979%,11.764526%,11.764526%);stroke-opacity:1;stroke-miterlimit:4;"
       d="M 47.050781 36.988281 L 47.324219 36.785156 L 47.460938 36.679688 L 47.597656 36.578125 L 47.871094 36.378906 L 48.007813 36.277344 L 48.140625 36.179688 L 48.277344 36.082031 L 48.414063 35.980469 L 48.550781 35.886719 L 48.824219 35.691406 L 48.960938 35.597656 L 49.097656 35.5 L 49.234375 35.40625 L 49.367188 35.3125 L 49.777344 35.03125 L 49.914063 34.941406 L 50.1875 34.757813 L 50.324219 34.667969 L 50.457031 34.578125 L 50.59375 34.492188 L 50.730469 34.402344 L 50.867188 34.316406 L 51.003906 34.226563 L 51.136719 34.140625 L 51.277344 34.054688 L 51.410156 33.96875 L 51.683594 33.796875 L 51.820313 33.714844 L 51.957031 33.628906 L 52.640625 33.21875 L 52.773438 33.140625 L 52.910156 33.058594 L 53.320313 32.824219 L 53.453125 32.746094 L 53.59375 32.667969 L 53.730469 32.59375 L 53.863281 32.519531 L 54 32.441406 L 54.546875 32.144531 L 54.683594 32.074219 L 54.820313 32 L 54.953125 31.929688 L 55.089844 31.855469 L 55.5 31.644531 L 55.636719 31.578125 L 55.773438 31.507813 L 55.910156 31.441406 L 56.042969 31.371094 L 56.179688 31.304688 L 56.316406 31.242188 L 56.726563 31.042969 L 57 30.917969 L 57.132813 30.851563 L 57.679688 30.601563 L 57.816406 30.542969 L 57.953125 30.480469 L 58.226563 30.363281 L 58.359375 30.304688 L 58.632813 30.1875 L 58.769531 30.132813 L 58.90625 30.074219 L 59.042969 30.019531 L 59.175781 29.964844 L 59.453125 29.855469 L 59.585938 29.800781 L 59.722656 29.746094 L 59.859375 29.695313 L 59.996094 29.640625 L 60.132813 29.589844 L 60.265625 29.535156 L 60.40625 29.488281 L 60.539063 29.4375 L 60.949219 29.285156 L 61.222656 29.191406 L 61.359375 29.140625 L 61.496094 29.09375 L 61.628906 29.050781 L 61.765625 29.003906 L 61.902344 28.960938 L 62.175781 28.867188 L 62.449219 28.78125 L 62.582031 28.738281 L 62.722656 28.695313 L 62.855469 28.652344 L 63.128906 28.574219 L 63.265625 28.53125 L 63.539063 28.453125 L 63.671875 28.414063 L 63.8125 28.375 L 63.949219 28.335938 L 64.082031 28.300781 L 64.21875 28.261719 L 64.355469 28.226563 L 64.492188 28.1875 L 64.628906 28.15625 L 64.765625 28.117188 L 64.898438 28.085938 L 65.039063 28.050781 L 65.171875 28.015625 L 65.445313 27.953125 L 65.582031 27.917969 L 65.855469 27.855469 L 65.992188 27.828125 L 66.125 27.796875 L 66.261719 27.765625 L 66.535156 27.710938 L 66.671875 27.679688 L 67.082031 27.597656 L 67.214844 27.574219 L 67.355469 27.546875 L 67.488281 27.523438 "
       id="path34" />
    <path
       style="fill:none;stroke-width:0.5;stroke-linecap:round;stroke-linejoin:round;stroke:rgb(12.940979%,11.764526%,11.764526%);stroke-opacity:1;stroke-miterlimit:4;"
       d="M 67.488281 27.523438 L 67.625 27.496094 L 67.761719 27.476563 L 67.898438 27.449219 L 68.035156 27.425781 L 68.167969 27.40625 L 68.304688 27.382813 L 68.441406 27.363281 L 68.578125 27.339844 L 68.714844 27.320313 L 68.851563 27.296875 L 68.988281 27.28125 L 69.261719 27.242188 L 69.394531 27.222656 L 69.535156 27.203125 L 69.667969 27.1875 L 69.941406 27.15625 L 70.078125 27.136719 L 70.214844 27.121094 L 70.351563 27.109375 L 70.484375 27.09375 L 70.621094 27.082031 L 70.757813 27.066406 L 71.578125 26.996094 L 71.710938 26.988281 L 71.847656 26.976563 L 72.667969 26.929688 L 72.800781 26.925781 L 72.9375 26.917969 L 73.757813 26.894531 L 73.890625 26.894531 L 74.027344 26.890625 L 74.847656 26.890625 L 74.980469 26.894531 L 75.117188 26.894531 L 75.9375 26.917969 L 76.074219 26.925781 L 76.207031 26.929688 L 76.34375 26.9375 L 76.484375 26.945313 L 76.617188 26.953125 L 77.027344 26.976563 L 77.164063 26.988281 L 77.296875 26.996094 L 78.117188 27.066406 L 78.253906 27.082031 L 78.523438 27.109375 L 78.660156 27.121094 L 78.796875 27.136719 L 78.933594 27.15625 L 79.34375 27.203125 L 79.480469 27.222656 L 79.613281 27.242188 L 79.886719 27.28125 L 80.023438 27.296875 L 80.160156 27.320313 L 80.292969 27.339844 L 80.433594 27.363281 L 80.570313 27.382813 L 80.703125 27.40625 L 80.839844 27.425781 L 80.980469 27.449219 L 81.113281 27.476563 L 81.25 27.496094 L 81.386719 27.523438 L 81.523438 27.546875 L 81.660156 27.574219 L 81.796875 27.597656 L 81.929688 27.625 L 82.203125 27.679688 L 82.339844 27.710938 L 82.613281 27.765625 L 82.75 27.796875 L 82.882813 27.828125 L 83.023438 27.855469 L 83.15625 27.886719 L 83.292969 27.917969 L 83.429688 27.953125 L 83.703125 28.015625 L 83.839844 28.050781 L 83.972656 28.085938 L 84.109375 28.117188 L 84.246094 28.15625 L 84.382813 28.1875 L 84.519531 28.226563 L 84.65625 28.261719 L 84.792969 28.300781 L 84.925781 28.335938 L 85.066406 28.375 L 85.199219 28.414063 L 85.609375 28.53125 L 85.746094 28.574219 L 85.882813 28.613281 L 86.015625 28.652344 L 86.15625 28.695313 L 86.292969 28.738281 L 86.425781 28.78125 L 86.699219 28.867188 L 86.972656 28.960938 L 87.109375 29.003906 L 87.242188 29.050781 L 87.378906 29.09375 L 87.515625 29.140625 L 87.652344 29.191406 L 87.925781 29.285156 "
       id="path36" />
    <path
       style="fill:none;stroke-width:0.5;stroke-linecap:round;stroke-linejoin:round;stroke:rgb(12.940979%,11.764526%,11.764526%);stroke-opacity:1;stroke-miterlimit:4;"
       d="M 87.925781 29.285156 L 88.335938 29.4375 L 88.46875 29.488281 L 88.609375 29.539063 L 88.742188 29.589844 L 88.878906 29.640625 L 89.015625 29.695313 L 89.152344 29.746094 L 89.289063 29.800781 L 89.421875 29.855469 L 89.5625 29.910156 L 89.695313 29.964844 L 89.96875 30.074219 L 90.105469 30.132813 L 90.242188 30.1875 L 90.378906 30.246094 L 90.511719 30.304688 L 90.652344 30.363281 L 90.789063 30.421875 L 90.921875 30.484375 L 91.195313 30.601563 L 91.605469 30.789063 L 91.738281 30.851563 L 91.878906 30.917969 L 92.011719 30.980469 L 92.148438 31.042969 L 92.558594 31.242188 L 92.695313 31.304688 L 92.828125 31.371094 L 92.964844 31.441406 L 93.105469 31.507813 L 93.238281 31.578125 L 93.375 31.644531 L 93.785156 31.855469 L 93.921875 31.929688 L 94.054688 32 L 94.195313 32.074219 L 94.328125 32.144531 L 94.875 32.441406 L 95.007813 32.519531 L 95.148438 32.59375 L 95.28125 32.667969 L 95.964844 33.058594 L 96.101563 33.140625 L 96.234375 33.21875 L 96.78125 33.546875 L 97.054688 33.714844 L 97.191406 33.796875 L 97.324219 33.882813 L 97.871094 34.226563 L 98.007813 34.316406 L 98.144531 34.402344 L 98.28125 34.492188 L 98.417969 34.578125 L 98.550781 34.667969 L 98.6875 34.757813 L 98.824219 34.851563 L 98.960938 34.941406 L 99.097656 35.035156 L 99.234375 35.125 L 99.507813 35.3125 L 99.640625 35.40625 L 99.777344 35.5 L 99.914063 35.597656 L 100.050781 35.691406 L 100.324219 35.886719 L 100.460938 35.980469 L 100.59375 36.082031 L 100.734375 36.179688 L 100.867188 36.277344 L 101.140625 36.480469 L 101.277344 36.578125 L 101.414063 36.679688 L 101.546875 36.785156 L 101.6875 36.886719 L 101.820313 36.988281 L 102.09375 37.199219 L 102.230469 37.300781 L 102.503906 37.511719 L 102.636719 37.621094 L 102.777344 37.726563 L 102.914063 37.835938 L 103.046875 37.945313 L 103.183594 38.054688 L 103.324219 38.164063 L 103.457031 38.273438 L 103.59375 38.382813 L 103.867188 38.605469 L 104.003906 38.722656 L 104.136719 38.832031 L 104.410156 39.058594 L 105.230469 39.761719 L 105.363281 39.878906 L 105.636719 40.117188 L 105.910156 40.359375 L 106.183594 40.605469 L 106.320313 40.726563 L 106.453125 40.851563 L 106.589844 40.972656 L 106.726563 41.097656 L 106.863281 41.226563 L 107 41.351563 L 107.132813 41.476563 L 107.273438 41.605469 L 107.410156 41.734375 L 107.542969 41.863281 L 107.679688 41.992188 L 107.953125 42.253906 L 108.089844 42.382813 L 108.363281 42.648438 "
       id="path38" />
    <path
       style="fill:none;stroke-width:0.5;stroke-linecap:round;stroke-linejoin:round;stroke:rgb(12.940979%,11.764526%,11.764526%);stroke-opacity:1;stroke-miterlimit:4;"
       d="M 108.363281 42.648438 L 108.636719 42.914063 L 108.769531 43.050781 L 108.90625 43.183594 L 109.589844 43.867188 L 109.722656 44.007813 L 109.996094 44.289063 L 110.40625 44.714844 L 110.542969 44.855469 L 110.675781 45 L 110.816406 45.144531 L 110.949219 45.289063 L 111.085938 45.433594 L 111.222656 45.582031 L 111.359375 45.726563 L 111.496094 45.878906 L 111.632813 46.027344 L 111.765625 46.175781 L 111.90625 46.324219 L 112.039063 46.476563 L 112.175781 46.628906 L 112.3125 46.777344 L 112.449219 46.933594 L 112.859375 47.394531 L 112.992188 47.550781 L 113.132813 47.707031 L 113.265625 47.863281 L 113.539063 48.175781 L 113.675781 48.339844 L 113.8125 48.496094 L 113.949219 48.660156 L 114.082031 48.820313 L 114.222656 48.980469 L 114.355469 49.140625 L 114.492188 49.308594 L 114.902344 49.800781 L 115.449219 50.472656 L 115.582031 50.644531 L 115.71875 50.8125 L 116.128906 51.328125 L 116.261719 51.503906 L 116.398438 51.675781 L 116.945313 52.378906 L 117.355469 52.917969 L 117.625 53.28125 L 117.761719 53.460938 L 118.171875 54.011719 L 118.445313 54.386719 L 118.578125 54.574219 L 118.851563 54.949219 L 118.988281 55.140625 L 119.125 55.328125 L 119.261719 55.519531 L 119.535156 55.90625 L 119.667969 56.097656 L 119.804688 56.292969 L 119.945313 56.488281 L 120.078125 56.6875 L 120.214844 56.882813 L 120.625 57.480469 L 120.761719 57.683594 L 120.894531 57.882813 L 121.035156 58.085938 L 121.167969 58.289063 L 121.304688 58.496094 L 121.441406 58.699219 L 121.714844 59.113281 L 121.847656 59.324219 L 121.988281 59.53125 L 122.121094 59.742188 L 122.257813 59.953125 L 122.394531 60.167969 L 122.53125 60.378906 L 122.941406 61.023438 L 123.078125 61.242188 L 123.210938 61.460938 L 123.484375 61.898438 L 123.621094 62.121094 L 123.757813 62.339844 L 123.894531 62.566406 L 124.03125 62.789063 L 124.164063 63.015625 L 124.574219 63.695313 L 125.121094 64.617188 L 125.257813 64.851563 L 125.390625 65.085938 L 125.664063 65.5625 L 125.800781 65.796875 L 125.9375 66.039063 L 126.074219 66.277344 L 126.484375 67.003906 L 126.890625 67.742188 L 127.300781 68.492188 L 127.574219 68.996094 L 127.707031 69.253906 L 127.84375 69.507813 L 128.117188 70.023438 L 128.664063 71.070313 L 128.796875 71.335938 "
       id="path40" />
    <path
       style="fill:none;stroke-width:0.5;stroke-linecap:round;stroke-linejoin:round;stroke:rgb(12.940979%,11.764526%,11.764526%);stroke-opacity:1;stroke-miterlimit:4;"
       d="M 128.796875 71.335938 L 128.933594 71.601563 L 129.480469 72.679688 L 129.753906 73.226563 L 129.886719 73.503906 L 130.160156 74.058594 L 130.296875 74.339844 L 130.433594 74.625 L 130.570313 74.90625 L 130.703125 75.191406 L 130.84375 75.476563 L 130.976563 75.765625 L 131.113281 76.054688 L 131.25 76.347656 L 131.386719 76.636719 L 131.523438 76.929688 L 131.660156 77.226563 L 131.796875 77.527344 L 131.933594 77.824219 L 132.070313 78.125 L 132.207031 78.429688 L 132.339844 78.734375 L 132.476563 79.039063 L 132.75 79.65625 L 132.886719 79.96875 L 133.019531 80.28125 L 133.160156 80.597656 L 133.292969 80.914063 L 133.429688 81.230469 L 133.566406 81.554688 L 133.703125 81.875 L 133.839844 82.199219 L 134.113281 82.855469 L 134.25 83.1875 L 134.382813 83.519531 L 134.519531 83.855469 L 134.929688 84.875 L 135.066406 85.21875 L 135.339844 85.914063 L 135.476563 86.269531 L 135.746094 86.976563 L 135.882813 87.335938 L 136.15625 88.0625 L 136.566406 89.171875 L 136.699219 89.546875 L 136.835938 89.925781 L 137.109375 90.691406 L 137.246094 91.078125 L 137.382813 91.46875 L 137.519531 91.863281 L 137.65625 92.261719 L 137.789063 92.664063 L 137.925781 93.066406 L 138.199219 93.886719 L 138.472656 94.726563 L 138.742188 95.578125 L 138.878906 96.011719 L 139.015625 96.449219 L 139.152344 96.890625 L 139.289063 97.339844 L 139.425781 97.792969 L 139.699219 98.714844 L 139.832031 99.183594 L 139.96875 99.660156 L 140.105469 100.140625 L 140.242188 100.632813 L 140.378906 101.128906 L 140.515625 101.632813 L 140.652344 102.144531 L 140.789063 102.667969 L 141.0625 103.738281 L 141.195313 104.289063 L 141.332031 104.855469 L 141.46875 105.433594 L 141.605469 106.027344 L 141.742188 106.636719 L 141.878906 107.269531 L 142.011719 107.925781 L 142.148438 108.613281 L 142.289063 109.339844 L 142.421875 110.132813 "
       id="path42" />
    <path
       style="fill:none;stroke-width:0.5;stroke-linecap:round;stroke-linejoin:round;stroke:rgb(49.803162%,0%,0%);stroke-opacity:1;stroke-miterlimit:4;"
       d="M 6.316406 111.09375 L 7.675781 107.757813 L 9.042969 104.492188 L 10.402344 101.292969 L 11.765625 98.160156 L 13.128906 95.09375 L 14.488281 92.097656 L 15.855469 89.167969 L 17.214844 86.304688 L 18.578125 83.507813 L 19.941406 80.78125 L 21.300781 78.121094 L 22.664063 75.527344 L 24.027344 73 L 25.390625 70.542969 L 26.753906 68.148438 L 28.113281 65.824219 L 29.476563 63.570313 L 30.839844 61.378906 L 32.203125 59.257813 L 33.566406 57.203125 L 34.925781 55.214844 L 36.289063 53.296875 L 37.652344 51.445313 L 39.011719 49.660156 L 40.375 47.941406 L 41.738281 46.289063 L 43.101563 44.707031 L 44.464844 43.191406 L 45.824219 41.746094 L 47.1875 40.363281 L 48.550781 39.050781 L 49.914063 37.800781 L 51.277344 36.625 L 52.640625 35.511719 L 54 34.46875 L 55.363281 33.492188 L 56.726563 32.582031 L 58.085938 31.738281 L 59.453125 30.964844 L 60.8125 30.257813 L 62.175781 29.617188 L 63.539063 29.046875 L 64.898438 28.542969 L 66.261719 28.101563 L 67.625 27.730469 L 68.988281 27.429688 L 70.351563 27.195313 L 71.710938 27.023438 L 73.074219 26.921875 "
       id="path44" />
    <path
       style="fill:none;stroke-width:0.5;stroke-linecap:round;stroke-linejoin:round;stroke:rgb(49.803162%,0%,0%);stroke-opacity:1;stroke-miterlimit:4;"
       d="M 73.074219 26.921875 L 74.4375 26.890625 L 75.800781 26.921875 L 77.164063 27.023438 L 78.523438 27.195313 L 79.886719 27.429688 L 81.25 27.730469 L 82.613281 28.101563 L 83.972656 28.542969 L 85.335938 29.046875 L 86.699219 29.617188 L 88.0625 30.257813 L 89.421875 30.964844 L 90.789063 31.738281 L 92.148438 32.582031 L 93.511719 33.492188 L 94.875 34.46875 L 96.234375 35.511719 L 97.597656 36.625 L 98.960938 37.800781 L 100.324219 39.050781 L 101.6875 40.363281 L 103.046875 41.746094 L 104.410156 43.191406 L 105.773438 44.707031 L 107.132813 46.289063 L 108.5 47.941406 L 109.859375 49.660156 L 111.222656 51.445313 L 112.585938 53.296875 L 113.949219 55.214844 L 115.308594 57.203125 L 116.671875 59.257813 L 118.035156 61.378906 L 119.398438 63.570313 L 120.761719 65.824219 L 122.121094 68.148438 L 123.484375 70.542969 L 124.847656 73 L 126.207031 75.527344 L 127.574219 78.121094 L 128.933594 80.78125 L 130.296875 83.507813 L 131.660156 86.304688 L 133.019531 89.167969 L 134.382813 92.097656 L 135.746094 95.09375 L 137.109375 98.160156 L 138.472656 101.292969 L 139.832031 104.492188 L 141.195313 107.757813 "
       id="path46" />
    <path
       style="fill:none;stroke-width:0.5;stroke-linecap:round;stroke-linejoin:round;stroke:rgb(12.940979%,11.764526%,11.764526%);stroke-opacity:1;stroke-dasharray:7.163,7.163;stroke-dashoffset:0.5;stroke-miterlimit:4;"
       d="M 141.195313 107.757813 L 142.558594 111.09375 "
       id="path48" />
    <path
       style="fill:none;stroke-width:0.5;stroke-linecap:round;stroke-linejoin:round;stroke:rgb(100%,0%,0%);stroke-opacity:1;stroke-miterlimit:4;"
       d="M 6.316406 111.09375 L 7.675781 109.410156 L 9.042969 107.722656 L 10.402344 106.039063 L 13.128906 102.671875 L 14.488281 100.988281 L 15.855469 99.304688 L 17.214844 97.621094 L 19.941406 94.25 L 21.300781 92.566406 L 26.753906 85.832031 L 28.113281 84.148438 L 32.203125 79.097656 L 33.566406 77.410156 L 34.925781 75.726563 L 37.652344 72.359375 L 40.375 68.992188 L 43.101563 65.625 L 44.464844 63.9375 L 45.824219 62.253906 L 51.277344 55.519531 L 54 52.148438 L 56.726563 48.78125 L 58.085938 47.101563 L 60.8125 43.730469 L 63.539063 40.363281 L 64.898438 38.679688 L 66.261719 36.996094 L 67.625 35.308594 L 70.351563 31.941406 L 71.710938 30.257813 L 73.074219 28.574219 "
       id="path50" />
    <path
       style="fill:none;stroke-width:0.5;stroke-linecap:round;stroke-linejoin:round;stroke:rgb(100%,0%,0%);stroke-opacity:1;stroke-miterlimit:4;"
       d="M 73.074219 28.574219 L 74.4375 26.890625 L 77.164063 30.257813 L 78.523438 31.941406 L 81.25 35.308594 L 82.613281 36.996094 L 85.335938 40.363281 L 88.0625 43.730469 L 90.789063 47.101563 L 92.148438 48.78125 L 94.875 52.148438 L 97.597656 55.519531 L 101.6875 60.570313 L 103.046875 62.253906 L 104.410156 63.9375 L 105.773438 65.625 L 107.132813 67.308594 L 108.5 68.992188 L 111.222656 72.359375 L 113.949219 75.726563 L 115.308594 77.410156 L 116.671875 79.097656 L 120.761719 84.148438 L 122.121094 85.832031 L 124.847656 89.199219 L 126.207031 90.882813 L 127.574219 92.566406 L 128.933594 94.25 L 131.660156 97.621094 L 133.019531 99.304688 L 138.472656 106.039063 L 139.832031 107.722656 L 141.195313 109.410156 "
       id="path52" />
    <path
       style="fill:none;stroke-width:0.5;stroke-linecap:round;stroke-linejoin:round;stroke:rgb(12.940979%,11.764526%,11.764526%);stroke-opacity:1;stroke-dasharray:1.441,4.302,4.302,4.302;stroke-dashoffset:0.5;stroke-miterlimit:4;"
       d="M 141.195313 109.410156 L 142.558594 111.09375 "
       id="path54" />
    <g
       clip-path="url(#clip1)"
       clip-rule="nonzero"
       id="g58">
      <path
         style=" stroke:none;fill-rule:nonzero;fill:rgb(12.940979%,11.764526%,11.764526%);fill-opacity:1;"
         d="M 5.761719 119.367188 C 5.761719 118.695313 6.261719 115.929688 7.308594 115.929688 C 7.902344 115.929688 7.902344 116.632813 7.902344 116.851563 C 7.902344 118.070313 7.308594 120.320313 6.371094 120.320313 C 6.136719 120.320313 5.761719 120.179688 5.761719 119.367188 Z M 8.464844 117.476563 C 8.464844 116.789063 8.277344 115.726563 7.339844 115.726563 C 6.371094 115.726563 5.199219 117.164063 5.199219 119.054688 C 5.199219 119.789063 5.605469 120.507813 6.324219 120.507813 C 7.511719 120.507813 8.464844 118.867188 8.464844 117.476563 Z M 8.464844 117.476563 "
         id="path56" />
    </g>
    <g
       clip-path="url(#clip2)"
       clip-rule="nonzero"
       id="g62">
      <path
         style=" stroke:none;fill-rule:nonzero;fill:rgb(12.940979%,11.764526%,11.764526%);fill-opacity:1;"
         d="M 139.242188 120.460938 L 141.195313 120.460938 L 141.195313 120.351563 C 140.851563 120.367188 140.585938 120.335938 140.585938 120.117188 C 140.585938 120.007813 140.679688 119.757813 140.710938 119.617188 L 141.726563 115.976563 C 141.757813 115.867188 141.789063 115.726563 141.726563 115.726563 C 141.679688 115.726563 140.710938 115.945313 140.382813 115.992188 L 140.382813 116.101563 L 140.773438 116.085938 C 140.835938 116.085938 141.039063 116.085938 141.039063 116.304688 C 141.039063 116.367188 141.007813 116.460938 140.992188 116.539063 L 140.023438 119.992188 C 139.929688 120.304688 139.648438 120.320313 139.242188 120.367188 Z M 139.242188 120.460938 "
         id="path60" />
    </g>
    <g
       clip-path="url(#clip3)"
       clip-rule="nonzero"
       id="g66">
      <path
         style=" stroke:none;fill-rule:nonzero;fill:rgb(12.940979%,11.764526%,11.764526%);fill-opacity:1;"
         d="M 153.917969 107.527344 C 154.355469 107.574219 154.667969 107.605469 154.667969 107.996094 C 154.667969 108.152344 154.558594 108.558594 154.480469 108.808594 L 153.246094 113.277344 C 153.058594 113.949219 152.917969 113.964844 152.386719 114.042969 L 152.386719 114.214844 L 154.964844 114.214844 L 154.964844 114.042969 C 154.417969 113.980469 154.246094 113.949219 154.246094 113.589844 C 154.246094 113.417969 154.246094 113.417969 154.371094 112.949219 L 154.933594 110.933594 C 155.152344 110.980469 155.308594 111.011719 156.042969 111.011719 C 158.136719 111.011719 158.746094 109.730469 158.746094 108.949219 C 158.746094 107.371094 156.980469 107.355469 156.527344 107.355469 L 153.917969 107.355469 Z M 155.761719 107.964844 C 155.808594 107.839844 155.871094 107.667969 156.183594 107.667969 C 157.339844 107.667969 157.652344 108.121094 157.652344 108.886719 C 157.652344 110.621094 156.261719 110.621094 155.496094 110.621094 C 155.355469 110.621094 155.230469 110.605469 155.027344 110.574219 Z M 155.761719 107.964844 "
         id="path64" />
    </g>
    <path
       style=" stroke:none;fill-rule:nonzero;fill:rgb(12.940979%,11.764526%,11.764526%);fill-opacity:1;"
       d="M 1.8125 5.828125 C 1.390625 6.4375 1.078125 6.65625 0.953125 6.65625 C 0.859375 6.65625 0.78125 6.5625 0.78125 6.5 C 0.78125 6.375 0.90625 5.953125 0.953125 5.796875 L 1.875 2.421875 L 1.84375 2.40625 C 1.4375 2.46875 0.5625 2.640625 0.171875 2.65625 L 0.171875 2.828125 C 0.75 2.828125 0.828125 2.890625 0.828125 3.109375 C 0.828125 3.390625 0 6 0 6.5 C 0 6.6875 0 7.140625 0.5 7.140625 C 1.078125 7.140625 1.546875 6.5625 1.953125 5.953125 Z M 2.25 0.734375 C 2.25 0.515625 2.078125 0.171875 1.734375 0.171875 C 1.484375 0.171875 1.234375 0.359375 1.234375 0.734375 C 1.234375 1.09375 1.484375 1.28125 1.734375 1.28125 C 2.09375 1.28125 2.25 0.953125 2.25 0.734375 Z M 2.25 0.734375 "
       id="path68" />
    <path
       style=" stroke:none;fill-rule:nonzero;fill:rgb(12.940979%,11.764526%,11.764526%);fill-opacity:1;"
       d="M 4.074219 8.875 C 3.574219 7.578125 3.574219 6.65625 3.574219 5.953125 C 3.574219 5.28125 3.746094 3.859375 4.167969 2.6875 C 4.667969 1.25 5.199219 0.6875 5.714844 0.171875 L 5.574219 0 C 3.667969 1.640625 2.839844 3.265625 2.839844 5 C 2.839844 5.671875 2.839844 7.203125 3.886719 8.9375 Z M 4.074219 8.875 "
       id="path70" />
    <path
       style=" stroke:none;fill-rule:nonzero;fill:rgb(12.940979%,11.764526%,11.764526%);fill-opacity:1;"
       d="M 7.425781 0.34375 C 7.863281 0.390625 8.175781 0.421875 8.175781 0.8125 C 8.175781 0.96875 8.066406 1.375 7.988281 1.625 L 6.753906 6.09375 C 6.566406 6.765625 6.425781 6.78125 5.894531 6.859375 L 5.894531 7.03125 L 8.472656 7.03125 L 8.472656 6.859375 C 7.925781 6.796875 7.753906 6.765625 7.753906 6.40625 C 7.753906 6.234375 7.753906 6.234375 7.878906 5.765625 L 8.441406 3.75 C 8.660156 3.796875 8.816406 3.828125 9.550781 3.828125 C 11.644531 3.828125 12.253906 2.546875 12.253906 1.765625 C 12.253906 0.1875 10.488281 0.171875 10.035156 0.171875 L 7.425781 0.171875 Z M 9.269531 0.78125 C 9.316406 0.65625 9.378906 0.484375 9.691406 0.484375 C 10.847656 0.484375 11.160156 0.9375 11.160156 1.703125 C 11.160156 3.4375 9.769531 3.4375 9.003906 3.4375 C 8.863281 3.4375 8.738281 3.421875 8.535156 3.390625 Z M 9.269531 0.78125 "
       id="path72" />
    <path
       style=" stroke:none;fill-rule:nonzero;fill:rgb(12.940979%,11.764526%,11.764526%);fill-opacity:1;"
       d="M 12.605469 8.921875 C 14.167969 7.671875 15.339844 5.921875 15.339844 3.9375 C 15.339844 2.578125 15.058594 1.234375 14.308594 0 L 14.105469 0.0625 C 14.371094 0.640625 14.621094 1.671875 14.621094 2.796875 C 14.621094 3.71875 14.449219 4.984375 14.027344 6.265625 C 13.542969 7.640625 12.933594 8.28125 12.480469 8.765625 Z M 12.605469 8.921875 "
       id="path74" />
    <path
       style=" stroke:none;fill-rule:nonzero;fill:rgb(100%,0%,0%);fill-opacity:1;"
       d="M 30.347656 92.46875 C 30.457031 92.875 30.503906 93.15625 30.425781 93.265625 C 30.378906 93.328125 30.347656 93.34375 30.253906 93.265625 C 30.175781 93.203125 29.050781 91.578125 28.847656 91.421875 C 28.644531 91.265625 28.394531 91.265625 28.238281 91.46875 C 27.941406 91.828125 28.082031 92.65625 28.410156 93.546875 L 28.394531 93.53125 C 28.238281 93.296875 27.878906 92.8125 27.800781 92.75 C 27.582031 92.578125 27.363281 92.578125 27.191406 92.78125 C 26.816406 93.25 27.238281 94.484375 27.363281 94.875 L 27.347656 94.859375 L 26.488281 93.671875 L 26.457031 93.703125 C 26.300781 94.03125 26.128906 94.375 25.941406 94.703125 L 26.019531 94.78125 C 26.238281 94.5 26.300781 94.4375 26.425781 94.546875 C 26.550781 94.640625 27.753906 96.296875 28.035156 96.6875 L 28.363281 96.265625 C 27.863281 95.53125 27.582031 95.140625 27.425781 94.671875 C 27.332031 94.34375 27.113281 93.484375 27.316406 93.234375 C 27.347656 93.1875 27.410156 93.125 27.550781 93.234375 C 27.644531 93.3125 28.707031 94.765625 29.113281 95.328125 L 29.441406 94.921875 C 28.941406 94.25 28.675781 93.90625 28.472656 93.3125 C 28.332031 92.921875 28.175781 92.15625 28.347656 91.9375 C 28.410156 91.859375 28.488281 91.84375 28.582031 91.90625 C 28.691406 92 29.878906 93.625 30.019531 93.75 C 30.097656 93.8125 30.285156 93.953125 30.472656 93.71875 C 30.707031 93.421875 30.628906 92.921875 30.503906 92.5 L 30.472656 92.4375 Z M 30.347656 92.46875 "
       id="path76" />
    <path
       style=" stroke:none;fill-rule:nonzero;fill:rgb(100%,0%,0%);fill-opacity:1;"
       d="M 31.472656 91.089844 C 31.597656 91.558594 31.582031 91.808594 31.535156 91.871094 C 31.503906 91.917969 31.425781 91.917969 31.394531 91.886719 C 31.332031 91.839844 31.160156 91.589844 31.097656 91.527344 L 29.707031 89.621094 L 29.691406 89.636719 C 29.566406 89.886719 29.300781 90.417969 29.128906 90.621094 L 29.222656 90.699219 C 29.472656 90.402344 29.503906 90.371094 29.613281 90.449219 C 29.785156 90.589844 30.816406 92.105469 31.066406 92.308594 C 31.160156 92.386719 31.410156 92.574219 31.613281 92.308594 C 31.847656 92.011719 31.738281 91.527344 31.582031 91.058594 Z M 28.988281 88.746094 C 28.863281 88.652344 28.628906 88.589844 28.488281 88.777344 C 28.378906 88.902344 28.394531 89.105469 28.566406 89.261719 C 28.769531 89.417969 28.941406 89.355469 29.050781 89.230469 C 29.191406 89.042969 29.097656 88.839844 28.988281 88.746094 Z M 28.988281 88.746094 "
       id="path78" />
    <path
       style=" stroke:none;fill-rule:nonzero;fill:rgb(100%,0%,0%);fill-opacity:1;"
       d="M 31.699219 90.445313 L 32.480469 91.257813 L 32.558594 91.164063 C 32.527344 91.085938 32.480469 91.007813 32.542969 90.929688 C 32.667969 90.773438 32.949219 90.632813 33.074219 90.476563 C 33.324219 90.164063 33.589844 89.554688 32.996094 89.085938 C 32.527344 88.710938 31.511719 88.976563 31.167969 88.710938 C 30.902344 88.492188 30.996094 88.289063 31.089844 88.164063 C 31.371094 87.804688 31.792969 87.929688 32.121094 88.132813 L 32.183594 88.054688 L 31.511719 87.351563 L 31.449219 87.414063 C 31.464844 87.492188 31.496094 87.554688 31.417969 87.648438 C 31.292969 87.820313 31.121094 87.851563 30.917969 88.085938 C 30.449219 88.679688 30.824219 89.101563 30.996094 89.242188 C 31.433594 89.585938 32.464844 89.335938 32.824219 89.617188 C 33.011719 89.773438 33.214844 90.085938 32.980469 90.382813 C 32.621094 90.820313 32.027344 90.507813 31.761719 90.367188 Z M 31.699219 90.445313 "
       id="path80" />
    <path
       style=" stroke:none;fill-rule:nonzero;fill:rgb(100%,0%,0%);fill-opacity:1;"
       d="M 34.988281 86.765625 C 35.050781 87.125 35.066406 87.5625 34.800781 87.890625 C 34.519531 88.234375 34.160156 88.203125 33.722656 87.859375 C 33.207031 87.4375 32.550781 86.296875 33.113281 85.59375 C 33.191406 85.484375 33.285156 85.390625 33.378906 85.46875 C 33.457031 85.53125 33.441406 85.65625 33.582031 85.765625 C 33.707031 85.875 33.847656 85.828125 33.957031 85.703125 C 34.082031 85.546875 34.050781 85.359375 33.910156 85.25 C 33.738281 85.109375 33.347656 85.03125 32.988281 85.484375 C 32.347656 86.296875 32.582031 87.734375 33.347656 88.34375 C 34.082031 88.921875 34.597656 88.5625 34.878906 88.203125 C 35.332031 87.640625 35.160156 86.984375 35.097656 86.71875 Z M 34.988281 86.765625 "
       id="path82" />
    <path
       style=" stroke:none;fill-rule:nonzero;fill:rgb(100%,0%,0%);fill-opacity:1;"
       d="M 36.277344 84.929688 C 36.417969 85.460938 36.480469 85.695313 36.371094 85.835938 C 36.308594 85.929688 36.230469 85.867188 36.199219 85.851563 C 36.136719 85.804688 36.027344 85.632813 35.980469 85.585938 L 33.464844 82.226563 L 33.417969 82.242188 C 33.246094 82.585938 33.074219 82.898438 32.886719 83.210938 L 32.964844 83.273438 C 33.074219 83.117188 33.261719 82.898438 33.402344 83.007813 C 33.527344 83.101563 35.746094 86.179688 35.855469 86.273438 C 36.011719 86.398438 36.214844 86.507813 36.417969 86.273438 C 36.683594 85.929688 36.589844 85.492188 36.386719 84.882813 Z M 36.277344 84.929688 "
       id="path84" />
    <path
       style=" stroke:none;fill-rule:nonzero;fill:rgb(100%,0%,0%);fill-opacity:1;"
       d="M 38.597656 82.171875 C 38.644531 82.59375 38.691406 82.828125 38.628906 82.90625 C 38.597656 82.953125 38.535156 82.953125 38.488281 82.921875 C 38.316406 82.78125 36.847656 80.796875 36.800781 80.734375 L 36.753906 80.765625 L 36.535156 81.125 L 36.535156 81.140625 L 36.738281 81.390625 L 36.722656 81.40625 C 36.550781 81.296875 36.253906 81.375 36.082031 81.609375 C 35.488281 82.34375 35.863281 83.984375 36.660156 84.625 C 36.832031 84.75 37.332031 85.125 37.769531 84.578125 C 38.019531 84.25 38.082031 83.828125 37.785156 82.84375 C 38.066406 83.1875 38.160156 83.3125 38.285156 83.421875 C 38.394531 83.5 38.519531 83.59375 38.707031 83.359375 C 38.878906 83.125 38.847656 82.796875 38.707031 82.140625 Z M 37.019531 84.171875 C 36.519531 83.78125 35.722656 82.3125 36.222656 81.671875 C 36.347656 81.515625 36.582031 81.453125 36.832031 81.65625 C 37.378906 82.078125 38.144531 83.546875 37.675781 84.140625 C 37.550781 84.28125 37.300781 84.390625 37.019531 84.171875 Z M 37.019531 84.171875 "
       id="path86" />
    <path
       style=" stroke:none;fill-rule:nonzero;fill:rgb(100%,0%,0%);fill-opacity:1;"
       d="M 38.710938 81.621094 L 39.492188 82.433594 L 39.570313 82.339844 C 39.539063 82.261719 39.492188 82.183594 39.554688 82.105469 C 39.679688 81.949219 39.960938 81.808594 40.085938 81.652344 C 40.335938 81.339844 40.601563 80.730469 40.007813 80.261719 C 39.539063 79.886719 38.523438 80.152344 38.179688 79.886719 C 37.914063 79.667969 38.007813 79.464844 38.101563 79.339844 C 38.382813 78.980469 38.804688 79.105469 39.132813 79.308594 L 39.195313 79.230469 L 38.523438 78.527344 L 38.460938 78.589844 C 38.476563 78.667969 38.507813 78.730469 38.429688 78.824219 C 38.304688 78.996094 38.132813 79.027344 37.929688 79.261719 C 37.460938 79.855469 37.835938 80.277344 38.007813 80.417969 C 38.445313 80.761719 39.476563 80.511719 39.835938 80.792969 C 40.023438 80.949219 40.226563 81.261719 39.992188 81.558594 C 39.632813 81.996094 39.039063 81.683594 38.773438 81.542969 Z M 38.710938 81.621094 "
       id="path88" />
    <path
       style=" stroke:none;fill-rule:nonzero;fill:rgb(100%,0%,0%);fill-opacity:1;"
       d="M 40.40625 79.492188 L 41.1875 80.304688 L 41.265625 80.210938 C 41.234375 80.132813 41.1875 80.054688 41.25 79.976563 C 41.375 79.820313 41.65625 79.679688 41.78125 79.523438 C 42.03125 79.210938 42.296875 78.601563 41.703125 78.132813 C 41.234375 77.757813 40.21875 78.023438 39.875 77.757813 C 39.609375 77.539063 39.703125 77.335938 39.796875 77.210938 C 40.078125 76.851563 40.5 76.976563 40.828125 77.179688 L 40.890625 77.101563 L 40.21875 76.398438 L 40.15625 76.460938 C 40.171875 76.539063 40.203125 76.601563 40.125 76.695313 C 40 76.867188 39.828125 76.898438 39.625 77.132813 C 39.15625 77.726563 39.53125 78.148438 39.703125 78.289063 C 40.140625 78.632813 41.171875 78.382813 41.53125 78.664063 C 41.71875 78.820313 41.921875 79.132813 41.6875 79.429688 C 41.328125 79.867188 40.734375 79.554688 40.46875 79.414063 Z M 40.40625 79.492188 "
       id="path90" />
    <path
       style=" stroke:none;fill-rule:nonzero;fill:rgb(100%,0%,0%);fill-opacity:1;"
       d="M 43.085938 76.488281 C 43.210938 76.957031 43.195313 77.207031 43.148438 77.269531 C 43.117188 77.316406 43.039063 77.316406 43.007813 77.285156 C 42.945313 77.238281 42.773438 76.988281 42.710938 76.925781 L 41.320313 75.019531 L 41.304688 75.035156 C 41.179688 75.285156 40.914063 75.816406 40.742188 76.019531 L 40.835938 76.097656 C 41.085938 75.800781 41.117188 75.769531 41.226563 75.847656 C 41.398438 75.988281 42.429688 77.503906 42.679688 77.707031 C 42.773438 77.785156 43.023438 77.972656 43.226563 77.707031 C 43.460938 77.410156 43.351563 76.925781 43.195313 76.457031 Z M 40.601563 74.144531 C 40.476563 74.050781 40.242188 73.988281 40.101563 74.175781 C 39.992188 74.300781 40.007813 74.503906 40.179688 74.660156 C 40.382813 74.816406 40.554688 74.753906 40.664063 74.628906 C 40.804688 74.441406 40.710938 74.238281 40.601563 74.144531 Z M 40.601563 74.144531 "
       id="path92" />
    <path
       style=" stroke:none;fill-rule:nonzero;fill:rgb(100%,0%,0%);fill-opacity:1;"
       d="M 41.933594 74.746094 L 42.324219 74.261719 L 44.261719 76.574219 C 44.433594 76.792969 44.980469 77.464844 44.699219 77.808594 C 44.636719 77.886719 44.589844 77.886719 44.527344 77.839844 C 44.480469 77.792969 44.511719 77.746094 44.417969 77.683594 C 44.277344 77.558594 44.105469 77.652344 44.042969 77.730469 C 43.902344 77.949219 44.105469 78.105469 44.121094 78.121094 C 44.402344 78.277344 44.652344 78.121094 44.792969 77.949219 C 45.308594 77.308594 44.652344 76.292969 44.105469 75.621094 L 42.667969 73.839844 L 43.136719 73.230469 L 42.996094 73.058594 L 42.527344 73.652344 C 42.292969 73.371094 41.449219 72.433594 41.808594 71.980469 C 41.855469 71.917969 41.917969 71.886719 41.964844 71.917969 C 42.027344 71.964844 41.980469 72.011719 42.105469 72.105469 C 42.152344 72.167969 42.339844 72.246094 42.480469 72.058594 C 42.574219 71.949219 42.542969 71.746094 42.433594 71.667969 C 42.324219 71.574219 42.011719 71.480469 41.699219 71.871094 C 41.136719 72.558594 41.839844 73.558594 42.183594 74.074219 L 41.792969 74.574219 Z M 41.933594 74.746094 "
       id="path94" />
    <path
       style=" stroke:none;fill-rule:nonzero;fill:rgb(100%,0%,0%);fill-opacity:1;"
       d="M 45.503906 73.441406 C 45.628906 73.910156 45.613281 74.160156 45.566406 74.222656 C 45.535156 74.269531 45.457031 74.269531 45.425781 74.238281 C 45.363281 74.191406 45.191406 73.941406 45.128906 73.878906 L 43.738281 71.972656 L 43.722656 71.988281 C 43.597656 72.238281 43.332031 72.769531 43.160156 72.972656 L 43.253906 73.050781 C 43.503906 72.753906 43.535156 72.722656 43.644531 72.800781 C 43.816406 72.941406 44.847656 74.457031 45.097656 74.660156 C 45.191406 74.738281 45.441406 74.925781 45.644531 74.660156 C 45.878906 74.363281 45.769531 73.878906 45.613281 73.410156 Z M 43.019531 71.097656 C 42.894531 71.003906 42.660156 70.941406 42.519531 71.128906 C 42.410156 71.253906 42.425781 71.457031 42.597656 71.613281 C 42.800781 71.769531 42.972656 71.707031 43.082031 71.582031 C 43.222656 71.394531 43.128906 71.191406 43.019531 71.097656 Z M 43.019531 71.097656 "
       id="path96" />
    <path
       style=" stroke:none;fill-rule:nonzero;fill:rgb(100%,0%,0%);fill-opacity:1;"
       d="M 47.324219 71.246094 C 47.386719 71.605469 47.402344 72.042969 47.136719 72.371094 C 46.855469 72.714844 46.496094 72.683594 46.058594 72.339844 C 45.542969 71.917969 44.886719 70.777344 45.449219 70.074219 C 45.527344 69.964844 45.621094 69.871094 45.714844 69.949219 C 45.792969 70.011719 45.777344 70.136719 45.917969 70.246094 C 46.042969 70.355469 46.183594 70.308594 46.292969 70.183594 C 46.417969 70.027344 46.386719 69.839844 46.246094 69.730469 C 46.074219 69.589844 45.683594 69.511719 45.324219 69.964844 C 44.683594 70.777344 44.917969 72.214844 45.683594 72.824219 C 46.417969 73.402344 46.933594 73.042969 47.214844 72.683594 C 47.667969 72.121094 47.496094 71.464844 47.433594 71.199219 Z M 47.324219 71.246094 "
       id="path98" />
    <path
       style=" stroke:none;fill-rule:nonzero;fill:rgb(100%,0%,0%);fill-opacity:1;"
       d="M 49.726563 68.175781 C 49.773438 68.597656 49.820313 68.832031 49.757813 68.910156 C 49.726563 68.957031 49.664063 68.957031 49.617188 68.925781 C 49.445313 68.785156 47.976563 66.800781 47.929688 66.738281 L 47.882813 66.769531 L 47.664063 67.128906 L 47.664063 67.144531 L 47.867188 67.394531 L 47.851563 67.410156 C 47.679688 67.300781 47.382813 67.378906 47.210938 67.613281 C 46.617188 68.347656 46.992188 69.988281 47.789063 70.628906 C 47.960938 70.753906 48.460938 71.128906 48.898438 70.582031 C 49.148438 70.253906 49.210938 69.832031 48.914063 68.847656 C 49.195313 69.191406 49.289063 69.316406 49.414063 69.425781 C 49.523438 69.503906 49.648438 69.597656 49.835938 69.363281 C 50.007813 69.128906 49.976563 68.800781 49.835938 68.144531 Z M 48.148438 70.175781 C 47.648438 69.785156 46.851563 68.316406 47.351563 67.675781 C 47.476563 67.519531 47.710938 67.457031 47.960938 67.660156 C 48.507813 68.082031 49.273438 69.550781 48.804688 70.144531 C 48.679688 70.285156 48.429688 70.394531 48.148438 70.175781 Z M 48.148438 70.175781 "
       id="path100" />
    <path
       style=" stroke:none;fill-rule:nonzero;fill:rgb(100%,0%,0%);fill-opacity:1;"
       d="M 49.433594 64.96875 L 49.074219 65.40625 L 48.636719 64.8125 C 48.589844 64.765625 48.527344 64.734375 48.511719 64.78125 C 48.449219 64.8125 48.496094 64.890625 48.527344 64.921875 C 48.589844 65.234375 48.621094 65.6875 48.574219 65.9375 C 48.542969 66.078125 48.464844 66.25 48.480469 66.328125 C 48.511719 66.375 48.527344 66.390625 48.558594 66.421875 L 48.886719 66.015625 L 50.089844 67.59375 C 50.152344 67.6875 50.402344 68.0625 50.496094 68.125 C 50.652344 68.25 50.824219 68.140625 50.917969 68.03125 C 51.136719 67.75 51.058594 67.34375 50.871094 66.734375 L 50.777344 66.78125 C 50.839844 67.03125 50.949219 67.4375 50.855469 67.546875 C 50.808594 67.609375 50.746094 67.609375 50.683594 67.5625 C 50.683594 67.5625 50.667969 67.546875 50.652344 67.546875 L 49.214844 65.59375 L 49.574219 65.140625 Z M 49.433594 64.96875 "
       id="path102" />
    <path
       style=" stroke:none;fill-rule:nonzero;fill:rgb(100%,0%,0%);fill-opacity:1;"
       d="M 52.035156 65.226563 C 52.160156 65.695313 52.144531 65.945313 52.097656 66.007813 C 52.066406 66.054688 51.988281 66.054688 51.957031 66.023438 C 51.894531 65.976563 51.722656 65.726563 51.660156 65.664063 L 50.269531 63.757813 L 50.253906 63.773438 C 50.128906 64.023438 49.863281 64.554688 49.691406 64.757813 L 49.785156 64.835938 C 50.035156 64.539063 50.066406 64.507813 50.175781 64.585938 C 50.347656 64.726563 51.378906 66.242188 51.628906 66.445313 C 51.722656 66.523438 51.972656 66.710938 52.175781 66.445313 C 52.410156 66.148438 52.300781 65.664063 52.144531 65.195313 Z M 49.550781 62.882813 C 49.425781 62.789063 49.191406 62.726563 49.050781 62.914063 C 48.941406 63.039063 48.957031 63.242188 49.128906 63.398438 C 49.332031 63.554688 49.503906 63.492188 49.613281 63.367188 C 49.753906 63.179688 49.660156 62.976563 49.550781 62.882813 Z M 49.550781 62.882813 "
       id="path104" />
    <path
       style=" stroke:none;fill-rule:nonzero;fill:rgb(100%,0%,0%);fill-opacity:1;"
       d="M 51.886719 61.722656 C 51.246094 62.535156 51.480469 64.050781 52.277344 64.691406 C 52.746094 65.050781 53.277344 65.066406 53.746094 64.472656 C 54.402344 63.644531 54.027344 62.113281 53.339844 61.566406 C 52.980469 61.285156 52.386719 61.097656 51.886719 61.722656 Z M 51.980469 61.863281 C 52.183594 61.597656 52.511719 61.660156 52.792969 61.894531 C 53.386719 62.363281 54.183594 63.707031 53.699219 64.332031 C 53.464844 64.613281 53.136719 64.597656 52.824219 64.347656 C 52.183594 63.832031 51.480469 62.488281 51.980469 61.863281 Z M 51.980469 61.863281 "
       id="path106" />
    <path
       style=" stroke:none;fill-rule:nonzero;fill:rgb(100%,0%,0%);fill-opacity:1;"
       d="M 56.4375 59.65625 C 56.546875 60.046875 56.609375 60.328125 56.515625 60.4375 C 56.515625 60.4375 56.4375 60.515625 56.34375 60.4375 C 56.1875 60.3125 55.171875 58.796875 54.9375 58.609375 C 54.71875 58.4375 54.484375 58.453125 54.28125 58.703125 C 53.921875 59.15625 54.28125 60.265625 54.484375 60.859375 L 54.46875 60.859375 L 53.59375 59.59375 L 53.5625 59.59375 C 53.40625 59.9375 53.234375 60.28125 53.046875 60.609375 L 53.125 60.6875 C 53.359375 60.390625 53.453125 60.390625 53.546875 60.453125 C 53.671875 60.5625 54.640625 61.921875 55.140625 62.59375 L 55.46875 62.1875 C 54.890625 61.375 54.71875 61.109375 54.546875 60.546875 C 54.40625 60.109375 54.1875 59.390625 54.40625 59.125 C 54.484375 59.03125 54.59375 59.046875 54.703125 59.125 C 54.921875 59.3125 55.921875 60.765625 56.0625 60.875 C 56.21875 61 56.375 61.125 56.578125 60.875 C 56.8125 60.578125 56.71875 60.171875 56.5625 59.625 Z M 56.4375 59.65625 "
       id="path108" />
    <path
       style=" stroke:none;fill-rule:nonzero;fill:rgb(12.940979%,11.764526%,11.764526%);fill-opacity:1;"
       d="M 117.203125 43.804688 C 117.859375 43.648438 118.5625 43.695313 118.796875 43.992188 C 118.90625 44.148438 118.84375 44.273438 118.71875 44.367188 C 118.6875 44.398438 117.984375 44.882813 116.875 43.898438 Z M 117.265625 45.570313 C 116.828125 45.460938 116.46875 45.367188 116.234375 45.070313 C 116.0625 44.835938 115.984375 44.429688 116.359375 44.148438 C 116.46875 44.070313 116.59375 44.007813 116.71875 43.960938 L 116.875 44.101563 C 117.671875 44.898438 118.53125 45.101563 118.96875 44.757813 C 119.21875 44.570313 119.234375 44.304688 119.015625 44.007813 C 118.421875 43.226563 116.796875 43.054688 116 43.648438 C 115.65625 43.914063 115.359375 44.414063 115.796875 45.007813 C 116.21875 45.570313 117.125 45.695313 117.25 45.695313 Z M 117.265625 45.570313 "
       id="path110" />
    <path
       style=" stroke:none;fill-rule:nonzero;fill:rgb(12.940979%,11.764526%,11.764526%);fill-opacity:1;"
       d="M 119.621094 48.582031 C 119.199219 48.582031 118.917969 48.566406 118.839844 48.457031 C 118.824219 48.441406 118.777344 48.347656 118.871094 48.285156 C 119.027344 48.160156 120.746094 47.566406 120.980469 47.394531 C 121.214844 47.207031 121.261719 46.988281 121.074219 46.722656 C 120.714844 46.269531 119.558594 46.347656 118.933594 46.394531 L 118.933594 46.363281 L 120.371094 45.832031 L 120.386719 45.816406 C 120.089844 45.566406 119.808594 45.316406 119.527344 45.050781 L 119.433594 45.113281 C 119.667969 45.410156 119.636719 45.503906 119.558594 45.582031 C 119.433594 45.675781 117.855469 46.269531 117.089844 46.582031 L 117.402344 47.003906 C 118.339844 46.644531 118.636719 46.550781 119.214844 46.519531 C 119.683594 46.488281 120.433594 46.472656 120.636719 46.753906 C 120.714844 46.847656 120.652344 46.941406 120.558594 47.019531 C 120.324219 47.191406 118.652344 47.800781 118.527344 47.910156 C 118.355469 48.035156 118.199219 48.144531 118.386719 48.410156 C 118.621094 48.707031 119.027344 48.722656 119.621094 48.707031 Z M 119.621094 48.582031 "
       id="path112" />
    <path
       style=" stroke:none;fill-rule:nonzero;fill:rgb(12.940979%,11.764526%,11.764526%);fill-opacity:1;"
       d="M 122.773438 49.140625 L 122.429688 48.6875 L 123.132813 48.421875 C 123.164063 48.40625 123.226563 48.34375 123.195313 48.328125 C 123.148438 48.25 123.070313 48.28125 123.054688 48.28125 C 122.742188 48.265625 122.273438 48.203125 122.054688 48.078125 C 121.914063 48.015625 121.773438 47.890625 121.695313 47.90625 C 121.648438 47.90625 121.632813 47.9375 121.585938 47.953125 L 121.898438 48.359375 L 120.054688 49.125 C 119.960938 49.171875 119.539063 49.328125 119.445313 49.390625 C 119.289063 49.515625 119.335938 49.703125 119.429688 49.8125 C 119.648438 50.109375 120.070313 50.140625 120.695313 50.109375 L 120.695313 50.015625 C 120.398438 50 120.007813 50 119.914063 49.890625 C 119.867188 49.828125 119.898438 49.75 119.945313 49.71875 C 119.960938 49.703125 119.976563 49.703125 119.976563 49.6875 L 122.210938 48.78125 L 122.554688 49.25 Z M 122.773438 49.140625 "
       id="path114" />
    <path
       style=" stroke:none;fill-rule:nonzero;fill:rgb(12.940979%,11.764526%,11.764526%);fill-opacity:1;"
       d="M 120.820313 51.519531 C 121.742188 51.191406 122.054688 51.082031 122.601563 51.003906 C 122.726563 50.957031 123.585938 50.847656 123.710938 51.019531 C 123.820313 51.160156 123.554688 51.207031 123.742188 51.457031 C 123.773438 51.503906 123.929688 51.722656 124.242188 51.503906 C 124.429688 51.363281 124.398438 51.144531 124.304688 51.019531 C 124.039063 50.675781 123.070313 50.753906 122.570313 50.832031 L 122.398438 50.863281 L 122.414063 50.847656 L 123.726563 50.269531 L 123.726563 50.253906 C 123.492188 50.035156 123.195313 49.769531 122.929688 49.519531 L 122.835938 49.582031 C 122.898438 49.628906 122.960938 49.691406 122.992188 49.753906 C 123.132813 49.925781 123.070313 50.019531 122.992188 50.066406 C 122.945313 50.113281 122.710938 50.238281 122.476563 50.316406 L 120.492188 51.097656 Z M 120.820313 51.519531 "
       id="path116" />
    <path
       style=" stroke:none;fill-rule:nonzero;fill:rgb(12.940979%,11.764526%,11.764526%);fill-opacity:1;"
       d="M 125.613281 52.75 C 124.988281 51.921875 123.457031 51.796875 122.644531 52.40625 C 122.175781 52.765625 122.019531 53.265625 122.472656 53.859375 C 123.113281 54.703125 124.707031 54.71875 125.394531 54.203125 C 125.769531 53.921875 126.097656 53.40625 125.613281 52.75 Z M 125.457031 52.8125 C 125.660156 53.0625 125.503906 53.375 125.222656 53.59375 C 124.613281 54.046875 123.113281 54.484375 122.644531 53.859375 C 122.425781 53.5625 122.519531 53.234375 122.832031 53 C 123.488281 52.5 124.972656 52.171875 125.457031 52.8125 Z M 125.457031 52.8125 "
       id="path118" />
    <path
       style=" stroke:none;fill-rule:nonzero;fill:rgb(12.940979%,11.764526%,11.764526%);fill-opacity:1;"
       d="M 127.234375 56.417969 C 126.5625 56.917969 125.15625 57.183594 124.640625 56.511719 C 124.546875 56.371094 124.484375 56.183594 124.625 56.074219 C 124.84375 55.902344 125.78125 55.542969 126.234375 55.433594 C 126.734375 55.277344 127.234375 55.417969 127.421875 55.683594 C 127.703125 56.042969 127.375 56.292969 127.234375 56.417969 Z M 126.390625 54.214844 L 126.484375 54.339844 C 126.59375 54.480469 126.609375 54.621094 126.5 54.699219 C 126.390625 54.777344 123.875 55.792969 123.140625 56.105469 C 122.921875 56.199219 122.734375 56.277344 122.515625 55.980469 L 122.4375 56.042969 L 123.296875 57.183594 L 123.375 57.121094 C 123.265625 56.996094 123.109375 56.777344 123.28125 56.652344 C 123.390625 56.558594 124.125 56.261719 124.359375 56.152344 C 124.390625 56.339844 124.4375 56.464844 124.546875 56.605469 C 125.125 57.371094 126.71875 57.574219 127.59375 56.917969 C 128 56.621094 128.21875 56.199219 127.84375 55.699219 C 127.484375 55.246094 126.84375 55.246094 126.546875 55.246094 L 126.546875 55.230469 L 127.171875 54.980469 C 127.25 54.949219 127.25 54.933594 127.25 54.917969 L 126.453125 54.136719 Z M 126.390625 54.214844 "
       id="path120" />
    <path
       style=" stroke:none;fill-rule:nonzero;fill:rgb(12.940979%,11.764526%,11.764526%);fill-opacity:1;"
       d="M 128.292969 56.804688 C 128.371094 56.851563 128.402344 56.882813 128.464844 56.976563 C 128.699219 57.289063 128.511719 57.523438 128.121094 58.070313 C 127.886719 58.398438 127.074219 59.367188 126.871094 59.523438 C 126.714844 59.648438 126.277344 59.617188 125.996094 59.617188 C 125.636719 59.601563 125.542969 59.554688 125.464844 59.460938 C 125.402344 59.367188 125.496094 59.164063 125.371094 58.992188 C 125.277344 58.882813 125.105469 58.851563 124.996094 58.929688 C 124.746094 59.117188 124.933594 59.367188 124.964844 59.414063 C 125.464844 60.070313 129.246094 59.695313 129.917969 59.195313 C 130.121094 59.039063 130.183594 58.804688 130.011719 58.601563 C 129.917969 58.460938 129.746094 58.492188 129.667969 58.539063 C 129.417969 58.742188 129.699219 58.992188 129.464844 59.164063 C 129.167969 59.382813 128.089844 59.507813 127.511719 59.570313 L 128.074219 58.960938 C 128.433594 58.570313 129.183594 57.492188 129.136719 57.429688 C 129.058594 57.320313 128.636719 56.960938 128.386719 56.726563 Z M 128.292969 56.804688 "
       id="path122" />
    <path
       style=" stroke:none;fill-rule:nonzero;fill:rgb(49.803162%,0%,0%);fill-opacity:1;"
       d="M 103.136719 43.644531 L 103.058594 43.535156 C 102.964844 43.550781 102.777344 43.550781 102.605469 43.332031 C 102.511719 43.191406 102.433594 42.707031 102.074219 42.222656 C 101.167969 41.035156 99.261719 40.785156 97.996094 41.753906 C 97.746094 41.941406 96.683594 43.019531 97.808594 44.488281 C 98.105469 44.894531 98.621094 45.316406 99.121094 45.519531 L 100.355469 45.003906 C 100.792969 44.816406 100.933594 44.957031 101.167969 45.222656 L 101.261719 45.160156 L 100.136719 43.691406 L 100.042969 43.753906 C 100.261719 44.066406 100.324219 44.207031 100.167969 44.332031 C 100.074219 44.394531 98.964844 44.941406 98.714844 44.863281 C 98.449219 44.816406 98.292969 44.722656 98.089844 44.441406 C 97.371094 43.488281 97.917969 42.785156 98.355469 42.457031 C 99.261719 41.769531 101.042969 41.253906 101.902344 42.394531 C 102.199219 42.785156 102.449219 43.472656 101.746094 44.082031 L 101.808594 44.191406 Z M 103.136719 43.644531 "
       id="path124" />
    <path
       style=" stroke:none;fill-rule:nonzero;fill:rgb(49.803162%,0%,0%);fill-opacity:1;"
       d="M 101.0625 47.261719 C 100.5625 47.292969 100.328125 47.199219 100.28125 47.136719 C 100.25 47.089844 100.265625 47.027344 100.296875 46.996094 C 100.359375 46.949219 100.640625 46.839844 100.71875 46.808594 L 102.90625 45.917969 L 102.90625 45.886719 C 102.6875 45.714844 102.25 45.324219 102.078125 45.121094 L 102 45.183594 C 102.234375 45.496094 102.21875 45.542969 102.109375 45.621094 C 101.9375 45.746094 100.234375 46.371094 99.96875 46.574219 C 99.875 46.652344 99.625 46.839844 99.828125 47.089844 C 100.0625 47.402344 100.5625 47.417969 101.046875 47.386719 Z M 103.9375 45.449219 C 104.046875 45.355469 104.171875 45.121094 104.03125 44.933594 C 103.921875 44.808594 103.71875 44.761719 103.53125 44.902344 C 103.34375 45.058594 103.34375 45.246094 103.453125 45.371094 C 103.59375 45.558594 103.8125 45.527344 103.9375 45.449219 Z M 103.9375 45.449219 "
       id="path126" />
    <path
       style=" stroke:none;fill-rule:nonzero;fill:rgb(49.803162%,0%,0%);fill-opacity:1;"
       d="M 103.238281 50.140625 C 102.847656 50.125 102.566406 50.125 102.472656 50.015625 C 102.472656 50 102.410156 49.90625 102.503906 49.84375 C 102.660156 49.71875 104.394531 49.125 104.628906 48.9375 C 104.863281 48.765625 104.910156 48.53125 104.707031 48.265625 C 104.363281 47.8125 103.191406 47.890625 102.566406 47.9375 L 102.566406 47.921875 L 104.003906 47.390625 L 104.019531 47.359375 C 103.722656 47.109375 103.441406 46.859375 103.160156 46.609375 L 103.066406 46.671875 C 103.300781 46.96875 103.269531 47.0625 103.175781 47.125 C 103.050781 47.21875 101.488281 47.828125 100.722656 48.140625 L 101.035156 48.5625 C 101.972656 48.203125 102.269531 48.109375 102.832031 48.078125 C 103.300781 48.03125 104.050781 48.015625 104.253906 48.28125 C 104.332031 48.390625 104.285156 48.484375 104.175781 48.5625 C 103.957031 48.734375 102.285156 49.359375 102.160156 49.46875 C 101.988281 49.59375 101.832031 49.703125 102.035156 49.96875 C 102.253906 50.265625 102.675781 50.265625 103.238281 50.265625 Z M 103.238281 50.140625 "
       id="path128" />
    <path
       style=" stroke:none;fill-rule:nonzero;fill:rgb(49.803162%,0%,0%);fill-opacity:1;"
       d="M 104.351563 51.597656 C 103.851563 51.628906 103.617188 51.535156 103.570313 51.472656 C 103.539063 51.425781 103.554688 51.363281 103.585938 51.332031 C 103.648438 51.285156 103.929688 51.175781 104.007813 51.144531 L 106.195313 50.253906 L 106.195313 50.222656 C 105.976563 50.050781 105.539063 49.660156 105.367188 49.457031 L 105.289063 49.519531 C 105.523438 49.832031 105.507813 49.878906 105.398438 49.957031 C 105.226563 50.082031 103.523438 50.707031 103.257813 50.910156 C 103.164063 50.988281 102.914063 51.175781 103.117188 51.425781 C 103.351563 51.738281 103.851563 51.753906 104.335938 51.722656 Z M 107.226563 49.785156 C 107.335938 49.691406 107.460938 49.457031 107.320313 49.269531 C 107.210938 49.144531 107.007813 49.097656 106.820313 49.238281 C 106.632813 49.394531 106.632813 49.582031 106.742188 49.707031 C 106.882813 49.894531 107.101563 49.863281 107.226563 49.785156 Z M 107.226563 49.785156 "
       id="path130" />
    <path
       style=" stroke:none;fill-rule:nonzero;fill:rgb(49.803162%,0%,0%);fill-opacity:1;"
       d="M 108.980469 51.335938 L 103.574219 52.117188 L 103.886719 52.523438 L 109.292969 51.742188 Z M 108.980469 51.335938 "
       id="path132" />
    <path
       style=" stroke:none;fill-rule:nonzero;fill:rgb(49.803162%,0%,0%);fill-opacity:1;"
       d="M 107.453125 52.351563 C 107.828125 52.742188 107.734375 52.804688 107.296875 53.304688 C 107.015625 53.601563 106.171875 54.351563 105.765625 54.664063 C 105.671875 54.726563 105.609375 54.789063 105.640625 54.835938 C 105.71875 54.914063 105.890625 54.929688 106.5625 54.992188 C 106.890625 55.039063 108.515625 55.117188 109.03125 54.726563 C 109.234375 54.570313 109.296875 54.304688 109.15625 54.117188 C 109.0625 54.007813 108.90625 54.007813 108.828125 54.054688 C 108.515625 54.289063 108.765625 54.476563 108.5625 54.648438 C 108.28125 54.851563 107.265625 54.898438 106.71875 54.835938 L 106.390625 54.804688 C 107.125 54.195313 107.5625 53.804688 108.171875 53.070313 C 108.265625 52.960938 108.265625 52.960938 108.21875 52.898438 C 108.203125 52.867188 107.890625 52.664063 107.515625 52.304688 Z M 107.453125 52.351563 "
       id="path134" />
    <path
       style=" stroke:none;fill-rule:nonzero;fill:rgb(49.803162%,0%,0%);fill-opacity:1;"
       d="M 109.578125 58.546875 C 109.15625 58.484375 108.90625 58.484375 108.84375 58.390625 C 108.8125 58.34375 108.828125 58.28125 108.859375 58.25 C 109.03125 58.125 111.328125 57.203125 111.40625 57.171875 L 111.40625 57.09375 L 111.109375 56.8125 L 111.078125 56.796875 L 110.78125 56.921875 L 110.765625 56.90625 C 110.921875 56.78125 110.9375 56.46875 110.75 56.234375 C 110.1875 55.5 108.5 55.4375 107.671875 56.0625 C 107.515625 56.1875 107.015625 56.578125 107.453125 57.140625 C 107.703125 57.484375 108.09375 57.640625 109.125 57.59375 L 109.109375 57.609375 C 108.71875 57.78125 108.5625 57.84375 108.4375 57.9375 C 108.34375 58.015625 108.203125 58.109375 108.390625 58.34375 C 108.5625 58.578125 108.90625 58.625 109.578125 58.65625 Z M 108.03125 56.515625 C 108.53125 56.140625 110.15625 55.71875 110.640625 56.359375 C 110.765625 56.515625 110.78125 56.78125 110.515625 56.984375 C 109.96875 57.390625 108.359375 57.765625 107.90625 57.15625 C 107.78125 57.015625 107.734375 56.75 108.03125 56.515625 Z M 108.03125 56.515625 "
       id="path136" />
    <path
       style=" stroke:none;fill-rule:nonzero;fill:rgb(49.803162%,0%,0%);fill-opacity:1;"
       d="M 109.632813 59.878906 C 110.554688 59.550781 110.867188 59.441406 111.414063 59.332031 C 111.539063 59.316406 112.398438 59.175781 112.539063 59.363281 C 112.632813 59.488281 112.367188 59.566406 112.554688 59.816406 C 112.601563 59.863281 112.757813 60.066406 113.054688 59.847656 C 113.242188 59.707031 113.226563 59.488281 113.132813 59.363281 C 112.867188 59.019531 111.882813 59.082031 111.367188 59.191406 L 111.226563 59.207031 L 111.242188 59.207031 L 112.539063 58.628906 L 112.554688 58.597656 C 112.320313 58.394531 112.007813 58.128906 111.726563 57.863281 L 111.648438 57.925781 C 111.710938 57.988281 111.757813 58.035156 111.789063 58.082031 C 111.929688 58.269531 111.882813 58.363281 111.804688 58.425781 C 111.757813 58.457031 111.523438 58.582031 111.273438 58.675781 L 109.304688 59.457031 Z M 109.632813 59.878906 "
       id="path138" />
    <path
       style=" stroke:none;fill-rule:nonzero;fill:rgb(49.803162%,0%,0%);fill-opacity:1;"
       d="M 112.335938 62.125 C 111.835938 62.15625 111.601563 62.0625 111.554688 62 C 111.523438 61.953125 111.539063 61.890625 111.570313 61.859375 C 111.632813 61.8125 111.914063 61.703125 111.992188 61.671875 L 114.179688 60.78125 L 114.179688 60.75 C 113.960938 60.578125 113.523438 60.1875 113.351563 59.984375 L 113.273438 60.046875 C 113.507813 60.359375 113.492188 60.40625 113.382813 60.484375 C 113.210938 60.609375 111.507813 61.234375 111.242188 61.4375 C 111.148438 61.515625 110.898438 61.703125 111.101563 61.953125 C 111.335938 62.265625 111.835938 62.28125 112.320313 62.25 Z M 115.210938 60.3125 C 115.320313 60.21875 115.445313 59.984375 115.304688 59.796875 C 115.195313 59.671875 114.992188 59.625 114.804688 59.765625 C 114.617188 59.921875 114.617188 60.109375 114.726563 60.234375 C 114.867188 60.421875 115.085938 60.390625 115.210938 60.3125 Z M 115.210938 60.3125 "
       id="path140" />
    <path
       style=" stroke:none;fill-rule:nonzero;fill:rgb(49.803162%,0%,0%);fill-opacity:1;"
       d="M 114.511719 65.050781 C 114.089844 64.988281 113.839844 64.988281 113.777344 64.894531 C 113.746094 64.847656 113.761719 64.785156 113.792969 64.753906 C 113.964844 64.628906 116.261719 63.707031 116.339844 63.675781 L 116.339844 63.597656 L 116.042969 63.316406 L 116.011719 63.300781 L 115.714844 63.425781 L 115.699219 63.410156 C 115.855469 63.285156 115.871094 62.972656 115.683594 62.738281 C 115.121094 62.003906 113.433594 61.941406 112.605469 62.566406 C 112.449219 62.691406 111.949219 63.082031 112.386719 63.644531 C 112.636719 63.988281 113.027344 64.144531 114.058594 64.097656 L 114.042969 64.113281 C 113.652344 64.285156 113.496094 64.347656 113.371094 64.441406 C 113.277344 64.519531 113.136719 64.613281 113.324219 64.847656 C 113.496094 65.082031 113.839844 65.128906 114.511719 65.160156 Z M 112.964844 63.019531 C 113.464844 62.644531 115.089844 62.222656 115.574219 62.863281 C 115.699219 63.019531 115.714844 63.285156 115.449219 63.488281 C 114.902344 63.894531 113.292969 64.269531 112.839844 63.660156 C 112.714844 63.519531 112.667969 63.253906 112.964844 63.019531 Z M 112.964844 63.019531 "
       id="path142" />
    <path
       style=" stroke:none;fill-rule:nonzero;fill:rgb(49.803162%,0%,0%);fill-opacity:1;"
       d="M 116.625 67.789063 C 116.234375 67.773438 115.953125 67.773438 115.859375 67.664063 C 115.859375 67.648438 115.796875 67.554688 115.890625 67.492188 C 116.046875 67.367188 117.78125 66.773438 118.015625 66.585938 C 118.25 66.414063 118.296875 66.179688 118.09375 65.914063 C 117.75 65.460938 116.578125 65.539063 115.953125 65.585938 L 115.953125 65.570313 L 117.390625 65.039063 L 117.40625 65.007813 C 117.109375 64.757813 116.828125 64.507813 116.546875 64.257813 L 116.453125 64.320313 C 116.6875 64.617188 116.65625 64.710938 116.5625 64.773438 C 116.4375 64.867188 114.875 65.476563 114.109375 65.789063 L 114.421875 66.210938 C 115.359375 65.851563 115.65625 65.757813 116.21875 65.726563 C 116.6875 65.679688 117.4375 65.664063 117.640625 65.929688 C 117.71875 66.039063 117.671875 66.132813 117.5625 66.210938 C 117.34375 66.382813 115.671875 67.007813 115.546875 67.117188 C 115.375 67.242188 115.21875 67.351563 115.421875 67.617188 C 115.640625 67.914063 116.0625 67.914063 116.625 67.914063 Z M 116.625 67.789063 "
       id="path144" />
    <path
       style=" stroke:none;fill-rule:nonzero;fill:rgb(49.803162%,0%,0%);fill-opacity:1;"
       d="M 118.226563 70.015625 C 117.867188 69.96875 117.445313 69.890625 117.179688 69.546875 C 116.914063 69.203125 117.039063 68.84375 117.476563 68.515625 C 118.007813 68.109375 119.289063 67.75 119.835938 68.46875 C 119.914063 68.578125 119.960938 68.71875 119.882813 68.78125 C 119.789063 68.84375 119.695313 68.78125 119.539063 68.890625 C 119.414063 68.984375 119.398438 69.140625 119.507813 69.28125 C 119.617188 69.421875 119.820313 69.453125 119.960938 69.34375 C 120.132813 69.203125 120.320313 68.859375 119.976563 68.390625 C 119.335938 67.5625 117.898438 67.4375 117.117188 68.03125 C 116.367188 68.59375 116.585938 69.1875 116.851563 69.546875 C 117.304688 70.125 117.960938 70.125 118.242188 70.140625 Z M 118.226563 70.015625 "
       id="path146" />
    <path
       style=" stroke:none;fill-rule:nonzero;fill:rgb(49.803162%,0%,0%);fill-opacity:1;"
       d="M 120.085938 70.753906 C 120.742188 70.597656 121.445313 70.644531 121.679688 70.941406 C 121.789063 71.082031 121.742188 71.207031 121.617188 71.300781 C 121.570313 71.332031 120.867188 71.816406 119.757813 70.847656 Z M 120.164063 72.488281 C 119.710938 72.410156 119.351563 72.316406 119.117188 72.019531 C 118.945313 71.785156 118.867188 71.378906 119.242188 71.097656 C 119.351563 71.019531 119.476563 70.957031 119.601563 70.894531 L 119.757813 71.050781 C 120.570313 71.847656 121.429688 72.019531 121.867188 71.691406 C 122.117188 71.503906 122.117188 71.222656 121.898438 70.941406 C 121.304688 70.160156 119.679688 69.988281 118.882813 70.597656 C 118.539063 70.863281 118.242188 71.363281 118.679688 71.957031 C 119.117188 72.519531 120.007813 72.628906 120.132813 72.628906 Z M 120.164063 72.488281 "
       id="path148" />
    <g
       clip-path="url(#clip4)"
       clip-rule="nonzero"
       id="g152">
      <path
         style=" stroke:none;fill-rule:nonzero;fill:rgb(12.940979%,11.764526%,11.764526%);fill-opacity:1;"
         d="M 70.097656 119.367188 C 70.097656 118.695313 70.597656 115.929688 71.644531 115.929688 C 72.238281 115.929688 72.238281 116.632813 72.238281 116.851563 C 72.238281 118.070313 71.644531 120.320313 70.707031 120.320313 C 70.472656 120.320313 70.097656 120.179688 70.097656 119.367188 Z M 72.800781 117.476563 C 72.800781 116.789063 72.613281 115.726563 71.675781 115.726563 C 70.707031 115.726563 69.535156 117.164063 69.535156 119.054688 C 69.535156 119.789063 69.941406 120.507813 70.660156 120.507813 C 71.847656 120.507813 72.800781 118.867188 72.800781 117.476563 Z M 72.800781 117.476563 "
         id="path150" />
    </g>
    <g
       clip-path="url(#clip5)"
       clip-rule="nonzero"
       id="g156">
      <path
         style=" stroke:none;fill-rule:nonzero;fill:rgb(12.940979%,11.764526%,11.764526%);fill-opacity:1;"
         d="M 73.390625 120.539063 C 73.53125 120.539063 73.78125 120.414063 73.78125 120.164063 C 73.78125 119.945313 73.59375 119.757813 73.390625 119.757813 C 73.171875 119.757813 73 119.929688 73 120.164063 C 73 120.429688 73.234375 120.539063 73.390625 120.539063 Z M 73.390625 120.539063 "
         id="path154" />
    </g>
    <g
       clip-path="url(#clip6)"
       clip-rule="nonzero"
       id="g160">
      <path
         style=" stroke:none;fill-rule:nonzero;fill:rgb(12.940979%,11.764526%,11.764526%);fill-opacity:1;"
         d="M 76.234375 116.289063 L 77.84375 116.289063 L 78 115.804688 L 76.203125 115.804688 L 75.484375 117.320313 L 75.484375 117.429688 C 76.296875 117.601563 77.015625 117.757813 77.015625 118.835938 C 77.015625 119.445313 76.5 120.210938 75.8125 120.210938 C 75.4375 120.210938 75.265625 119.835938 74.953125 119.835938 C 74.8125 119.835938 74.671875 119.914063 74.671875 120.117188 C 74.671875 120.320313 74.875 120.507813 75.375 120.507813 C 76.75 120.507813 77.5 119.429688 77.5 118.539063 C 77.5 117.601563 76.859375 117.101563 75.953125 116.914063 Z M 76.234375 116.289063 "
         id="path158" />
    </g>
  </g>
</svg>
