<?xml version="1.0" encoding="UTF-8" standalone="no"?>
<svg
   xmlns:dc="http://purl.org/dc/elements/1.1/"
   xmlns:cc="http://creativecommons.org/ns#"
   xmlns:rdf="http://www.w3.org/1999/02/22-rdf-syntax-ns#"
   xmlns:svg="http://www.w3.org/2000/svg"
   xmlns="http://www.w3.org/2000/svg"
   xmlns:sodipodi="http://sodipodi.sourceforge.net/DTD/sodipodi-0.dtd"
   xmlns:inkscape="http://www.inkscape.org/namespaces/inkscape"
   width="114.475815pt"
   height="106.367981pt"
   viewBox="0 0 114.475815 106.367981"
   version="1.2"
   id="svg72"
   sodipodi:docname="linear_machines_01.svg"
   inkscape:version="0.92.4 (5da689c313, 2019-01-14)">
  <metadata
     id="metadata76">
    <rdf:RDF>
      <cc:Work
         rdf:about="">
        <dc:format>image/svg+xml</dc:format>
        <dc:type
           rdf:resource="http://purl.org/dc/dcmitype/StillImage" />
        <dc:title></dc:title>
      </cc:Work>
    </rdf:RDF>
  </metadata>
  <sodipodi:namedview
     pagecolor="#ffffff"
     bordercolor="#666666"
     borderopacity="1"
     objecttolerance="10"
     gridtolerance="10"
     guidetolerance="10"
     inkscape:pageopacity="0"
     inkscape:pageshadow="2"
     inkscape:window-width="661"
     inkscape:window-height="480"
     id="namedview74"
     showgrid="false"
     inkscape:zoom="1.6640346"
     inkscape:cx="76.31721"
     inkscape:cy="70.911987"
     inkscape:window-x="0"
     inkscape:window-y="0"
     inkscape:window-maximized="0"
     inkscape:current-layer="svg72" />
  <defs
     id="defs11">
    <clipPath
       id="clip1">
      <path
         d="M 79 43 L 114.476563 43 L 114.476563 74 L 79 74 Z M 79 43 "
         id="path2" />
    </clipPath>
    <clipPath
       id="clip2">
      <path
         d="M 90 101 L 94 101 L 94 106.367188 L 90 106.367188 Z M 90 101 "
         id="path5" />
    </clipPath>
    <clipPath
       id="clip3">
      <path
         d="M 93 101 L 97 101 L 97 106.367188 L 93 106.367188 Z M 93 101 "
         id="path8" />
    </clipPath>
  </defs>
  <g
     id="surface42">
    <path
       style="fill:none;stroke-width:0.802;stroke-linecap:butt;stroke-linejoin:miter;stroke:rgb(0%,0%,0%);stroke-opacity:1;stroke-miterlimit:4;"
       d="M 86.519531 94.632813 L 68.964844 51.574219 L 12.691406 55.417969 "
       id="path13" />
    <g
       clip-path="url(#clip1)"
       clip-rule="nonzero"
       id="g17">
      <path
         style=" stroke:none;fill-rule:nonzero;fill:rgb(100%,38.822937%,38.822937%);fill-opacity:1;"
         d="M 82.929688 64.996094 C 84.601563 68.003906 85.136719 72.050781 93.042969 72.910156 C 93.042969 72.910156 102.613281 74.414063 106.628906 72.691406 C 110.648438 70.972656 109.042969 68.726563 110.328125 65.839844 C 111.511719 63.171875 115.257813 58.589844 114.332031 55.820313 C 112.792969 52.433594 113.699219 50.894531 110.003906 49.050781 C 108.464844 48.125 108.515625 47.753906 105.195313 46.644531 C 103.753906 46.164063 102.953125 44.359375 100.386719 43.71875 C 97.820313 43.078125 95.09375 45.203125 91.726563 46.644531 C 92.292969 46.402344 88.804688 47.433594 87.882813 47.125 C 85.109375 46.816406 82.109375 50.011719 82.109375 50.011719 C 78.894531 50.179688 79.882813 53.363281 79.542969 56.070313 C 79.542969 56.070313 80.1875 60.070313 82.929688 64.996094 "
         id="path15" />
    </g>
    <path
       style=" stroke:none;fill-rule:nonzero;fill:rgb(78.038025%,78.038025%,78.038025%);fill-opacity:1;"
       d="M 58.902344 61.417969 C 57.480469 60.5625 56.4375 59.878906 54.898438 59.570313 C 46.894531 58.644531 39.902344 61.089844 39.902344 61.089844 C 35.671875 61.253906 32.59375 61.019531 32.273438 64.226563 C 31.953125 67.433594 34.128906 67.851563 33.695313 70.332031 C 31.996094 80.128906 29.769531 71.082031 29.351563 85.117188 C 29.320313 86.089844 29.96875 87.269531 30.890625 87.269531 C 37.96875 88.808594 39.96875 92.464844 47.664063 88.15625 C 45.738281 89.234375 57.019531 87.144531 61.671875 83.886719 C 63.824219 82.652344 63.226563 78.460938 63.53125 76.613281 C 64.382813 70.230469 64.636719 70.082031 63.519531 64.496094 C 63.210938 62.957031 60.441406 62.339844 58.902344 61.417969 "
       id="path19" />
    <path
       style="fill:none;stroke-width:0.802;stroke-linecap:butt;stroke-linejoin:miter;stroke:rgb(0%,0%,0%);stroke-opacity:1;stroke-miterlimit:4;"
       d="M 68.964844 51.574219 L 95.34375 9.9375 "
       id="path21" />
    <path
       style=" stroke:none;fill-rule:nonzero;fill:rgb(100%,78.038025%,78.038025%);fill-opacity:1;"
       d="M 60.03125 36.238281 C 58.917969 29.175781 60.464844 32.128906 60.464844 26.617188 C 60.464844 26.617188 58.878906 21.617188 55.796875 20.847656 C 46.949219 19.691406 37.382813 25.003906 37.382813 25.003906 C 29.980469 25.324219 28.792969 26.503906 28.238281 33.890625 C 28.238281 33.890625 27.710938 40.855469 37.714844 43.164063 C 45.023438 44.703125 43.539063 38.660156 50.847656 37.507813 C 50.847656 37.507813 57.957031 42.222656 60.417969 40.085938 C 62.875 37.945313 60.03125 36.238281 60.03125 36.238281 "
       id="path23" />
    <path
       style=" stroke:none;fill-rule:nonzero;fill:rgb(12.940979%,11.764526%,11.764526%);fill-opacity:1;"
       d="M 44.449219 32.101563 C 44.730469 31.523438 44.839844 31.023438 44.839844 30.898438 C 44.839844 30.664063 44.714844 30.632813 44.636719 30.632813 C 44.246094 30.632813 44.152344 31.570313 44.105469 31.976563 C 44.089844 32.148438 43.511719 32.835938 42.855469 32.835938 C 42.105469 32.835938 41.980469 32.085938 41.980469 31.726563 C 41.980469 31.351563 42.105469 30.601563 42.808594 29.601563 C 42.902344 29.476563 42.902344 29.460938 42.902344 29.429688 C 42.902344 29.351563 42.839844 29.304688 42.777344 29.304688 C 42.730469 29.304688 42.683594 29.320313 42.652344 29.367188 C 42.121094 30.070313 41.652344 31.070313 41.652344 32.132813 C 41.652344 33.070313 42.042969 33.554688 42.730469 33.554688 C 43.308594 33.554688 43.792969 33.164063 44.121094 32.679688 C 44.199219 33.101563 44.433594 33.554688 45.058594 33.554688 C 46.746094 33.554688 47.496094 30.882813 47.496094 29.898438 C 47.496094 29.226563 47.136719 29.179688 47.058594 29.179688 C 46.839844 29.179688 46.574219 29.398438 46.574219 29.664063 C 46.574219 29.726563 46.574219 29.820313 46.699219 29.929688 C 46.917969 30.117188 47.042969 30.414063 47.042969 30.757813 C 47.042969 31.585938 46.199219 32.835938 45.183594 32.835938 C 44.683594 32.835938 44.511719 32.445313 44.449219 32.101563 Z M 44.449219 32.101563 "
       id="path25" />
    <path
       style=" stroke:none;fill-rule:nonzero;fill:rgb(12.940979%,11.764526%,11.764526%);fill-opacity:1;"
       d="M 47.976563 35.851563 L 49.757813 35.851563 L 49.757813 35.757813 C 49.445313 35.757813 49.210938 35.742188 49.210938 35.539063 C 49.210938 35.445313 49.304688 35.210938 49.335938 35.070313 L 50.242188 31.757813 C 50.273438 31.648438 50.304688 31.523438 50.257813 31.523438 C 50.210938 31.523438 49.320313 31.710938 49.023438 31.757813 L 49.023438 31.867188 L 49.382813 31.851563 C 49.445313 31.851563 49.617188 31.851563 49.617188 32.054688 C 49.617188 32.101563 49.601563 32.195313 49.585938 32.257813 L 48.695313 35.414063 C 48.617188 35.710938 48.351563 35.726563 47.976563 35.757813 Z M 47.976563 35.851563 "
       id="path27" />
    <path
       style=" stroke:none;fill-rule:nonzero;fill:rgb(12.940979%,11.764526%,11.764526%);fill-opacity:1;"
       d="M 94.347656 33.398438 C 96.269531 33.398438 96.691406 33.882813 96.691406 34.476563 C 96.691406 35.007813 96.316406 36.195313 94.613281 36.257813 C 94.113281 36.289063 93.785156 36.632813 93.785156 36.742188 C 93.785156 36.789063 93.816406 36.789063 93.832031 36.789063 C 94.144531 36.835938 94.363281 36.882813 94.972656 38.210938 C 95.441406 39.226563 95.707031 39.648438 96.269531 39.648438 C 97.441406 39.648438 98.597656 38.460938 98.597656 38.242188 C 98.597656 38.179688 98.535156 38.179688 98.488281 38.179688 C 98.316406 38.179688 97.957031 38.367188 97.800781 38.570313 C 97.613281 38.820313 97.410156 39.101563 96.910156 39.101563 C 96.441406 39.101563 96.113281 38.414063 95.800781 37.726563 C 95.488281 37.085938 95.363281 36.835938 95.160156 36.585938 C 96.707031 36.007813 97.535156 34.992188 97.535156 34.054688 C 97.535156 32.851563 95.925781 32.851563 94.378906 32.851563 C 93.316406 32.851563 92.675781 32.851563 91.753906 33.320313 C 90.566406 33.914063 90.488281 34.648438 90.488281 34.648438 C 90.488281 34.679688 90.503906 34.726563 90.582031 34.726563 C 90.753906 34.726563 91.238281 34.507813 91.332031 34.257813 C 91.457031 33.882813 91.597656 33.445313 93.003906 33.398438 C 92.910156 34.523438 92.722656 36.507813 91.519531 39.398438 C 91.457031 39.539063 91.457031 39.570313 91.457031 39.585938 C 91.457031 39.632813 91.519531 39.648438 91.550781 39.648438 C 91.753906 39.648438 92.144531 39.414063 92.269531 39.242188 C 92.285156 39.210938 92.472656 38.757813 92.785156 37.929688 C 93.253906 36.585938 93.644531 35.023438 93.816406 33.398438 Z M 94.347656 33.398438 "
       id="path29" />
    <path
       style=" stroke:none;fill-rule:nonzero;fill:rgb(12.940979%,11.764526%,11.764526%);fill-opacity:1;"
       d="M 100.609375 41.164063 C 100.53125 41.335938 100.453125 41.476563 100.140625 41.476563 L 99.21875 41.476563 L 99.21875 41.445313 L 100.140625 40.523438 C 100.75 39.929688 100.859375 39.710938 100.859375 39.382813 C 100.859375 39.023438 100.59375 38.585938 100.078125 38.585938 C 99.96875 38.585938 99.328125 38.601563 99.078125 39.351563 L 99.171875 39.382813 C 99.234375 39.273438 99.421875 38.929688 99.859375 38.929688 C 100.234375 38.929688 100.453125 39.226563 100.453125 39.523438 C 100.453125 39.679688 100.421875 39.960938 99.75 40.679688 L 98.75 41.757813 L 98.75 41.835938 L 100.453125 41.835938 L 100.6875 41.195313 Z M 100.609375 41.164063 "
       id="path31" />
    <path
       style=" stroke:none;fill-rule:nonzero;fill:rgb(12.940979%,11.764526%,11.764526%);fill-opacity:1;"
       d="M 24.195313 64.21875 C 26.117188 64.21875 26.539063 64.703125 26.539063 65.296875 C 26.539063 65.828125 26.164063 67.015625 24.460938 67.078125 C 23.960938 67.109375 23.632813 67.453125 23.632813 67.5625 C 23.632813 67.609375 23.664063 67.609375 23.679688 67.609375 C 23.992188 67.65625 24.210938 67.703125 24.820313 69.03125 C 25.289063 70.046875 25.554688 70.46875 26.117188 70.46875 C 27.289063 70.46875 28.445313 69.28125 28.445313 69.0625 C 28.445313 69 28.382813 69 28.335938 69 C 28.164063 69 27.804688 69.1875 27.648438 69.390625 C 27.460938 69.640625 27.257813 69.921875 26.757813 69.921875 C 26.289063 69.921875 25.960938 69.234375 25.648438 68.546875 C 25.335938 67.90625 25.210938 67.65625 25.007813 67.40625 C 26.554688 66.828125 27.382813 65.8125 27.382813 64.875 C 27.382813 63.671875 25.773438 63.671875 24.226563 63.671875 C 23.164063 63.671875 22.523438 63.671875 21.601563 64.140625 C 20.414063 64.734375 20.335938 65.46875 20.335938 65.46875 C 20.335938 65.5 20.351563 65.546875 20.429688 65.546875 C 20.601563 65.546875 21.085938 65.328125 21.179688 65.078125 C 21.304688 64.703125 21.445313 64.265625 22.851563 64.21875 C 22.757813 65.34375 22.570313 67.328125 21.367188 70.21875 C 21.304688 70.359375 21.304688 70.390625 21.304688 70.40625 C 21.304688 70.453125 21.367188 70.46875 21.398438 70.46875 C 21.601563 70.46875 21.992188 70.234375 22.117188 70.0625 C 22.132813 70.03125 22.320313 69.578125 22.632813 68.75 C 23.101563 67.40625 23.492188 65.84375 23.664063 64.21875 Z M 24.195313 64.21875 "
       id="path33" />
    <path
       style=" stroke:none;fill-rule:nonzero;fill:rgb(12.940979%,11.764526%,11.764526%);fill-opacity:1;"
       d="M 29.398438 69.921875 C 29.460938 69.828125 29.632813 69.609375 29.945313 69.609375 C 30.117188 69.609375 30.351563 69.71875 30.351563 70.046875 C 30.351563 70.5625 29.695313 70.78125 29.210938 70.84375 L 29.210938 70.921875 C 29.679688 70.890625 30.101563 71.0625 30.101563 71.734375 C 30.101563 72.34375 29.648438 72.5 29.492188 72.5 C 29.210938 72.5 29.054688 72.21875 28.835938 72.21875 C 28.664063 72.21875 28.617188 72.3125 28.617188 72.40625 C 28.617188 72.625 28.882813 72.6875 29.164063 72.6875 C 30.054688 72.6875 30.492188 72 30.492188 71.46875 C 30.492188 70.9375 30.148438 70.796875 30.023438 70.734375 L 30.023438 70.71875 C 30.539063 70.53125 30.773438 70.375 30.773438 70 C 30.773438 69.609375 30.429688 69.40625 30.070313 69.40625 C 29.804688 69.40625 29.445313 69.609375 29.320313 69.90625 Z M 29.398438 69.921875 "
       id="path35" />
    <path
       style=" stroke:none;fill-rule:nonzero;fill:rgb(12.940979%,11.764526%,11.764526%);fill-opacity:1;"
       d="M 20.523438 37.808594 C 22.445313 37.808594 22.867188 38.292969 22.867188 38.886719 C 22.867188 39.417969 22.492188 40.605469 20.789063 40.667969 C 20.289063 40.699219 19.960938 41.042969 19.960938 41.152344 C 19.960938 41.199219 19.992188 41.199219 20.007813 41.199219 C 20.320313 41.246094 20.539063 41.292969 21.148438 42.621094 C 21.617188 43.636719 21.882813 44.058594 22.445313 44.058594 C 23.617188 44.058594 24.773438 42.871094 24.773438 42.652344 C 24.773438 42.589844 24.710938 42.589844 24.664063 42.589844 C 24.492188 42.589844 24.132813 42.777344 23.976563 42.980469 C 23.789063 43.230469 23.585938 43.511719 23.085938 43.511719 C 22.617188 43.511719 22.289063 42.824219 21.976563 42.136719 C 21.664063 41.496094 21.539063 41.246094 21.335938 40.996094 C 22.882813 40.417969 23.710938 39.402344 23.710938 38.464844 C 23.710938 37.261719 22.101563 37.261719 20.554688 37.261719 C 19.492188 37.261719 18.851563 37.261719 17.929688 37.730469 C 16.742188 38.324219 16.664063 39.058594 16.664063 39.058594 C 16.664063 39.089844 16.679688 39.136719 16.757813 39.136719 C 16.929688 39.136719 17.414063 38.917969 17.507813 38.667969 C 17.632813 38.292969 17.773438 37.855469 19.179688 37.808594 C 19.085938 38.933594 18.898438 40.917969 17.695313 43.808594 C 17.632813 43.949219 17.632813 43.980469 17.632813 43.996094 C 17.632813 44.042969 17.695313 44.058594 17.726563 44.058594 C 17.929688 44.058594 18.320313 43.824219 18.445313 43.652344 C 18.460938 43.621094 18.648438 43.167969 18.960938 42.339844 C 19.429688 40.996094 19.820313 39.433594 19.992188 37.808594 Z M 20.523438 37.808594 "
       id="path37" />
    <path
       style=" stroke:none;fill-rule:nonzero;fill:rgb(12.940979%,11.764526%,11.764526%);fill-opacity:1;"
       d="M 25.097656 46.242188 L 26.441406 46.242188 L 26.441406 46.164063 C 26.207031 46.179688 26.035156 46.164063 26.035156 46.007813 C 26.035156 45.929688 26.097656 45.757813 26.113281 45.664063 L 26.800781 43.164063 C 26.832031 43.085938 26.847656 42.992188 26.816406 42.992188 C 26.769531 42.992188 26.097656 43.132813 25.878906 43.164063 L 25.878906 43.242188 L 26.160156 43.242188 C 26.191406 43.242188 26.332031 43.242188 26.332031 43.382813 C 26.332031 43.429688 26.316406 43.492188 26.300781 43.554688 L 25.644531 45.914063 C 25.582031 46.132813 25.378906 46.148438 25.097656 46.179688 Z M 25.097656 46.242188 "
       id="path39" />
    <path
       style=" stroke:none;fill-rule:nonzero;fill:rgb(12.940979%,11.764526%,11.764526%);fill-opacity:1;"
       d="M 96.273438 59.621094 C 96.554688 59.042969 96.664063 58.542969 96.664063 58.417969 C 96.664063 58.183594 96.539063 58.152344 96.460938 58.152344 C 96.070313 58.152344 95.976563 59.089844 95.929688 59.496094 C 95.914063 59.667969 95.335938 60.355469 94.679688 60.355469 C 93.929688 60.355469 93.804688 59.605469 93.804688 59.246094 C 93.804688 58.871094 93.929688 58.121094 94.632813 57.121094 C 94.726563 56.996094 94.726563 56.980469 94.726563 56.949219 C 94.726563 56.871094 94.664063 56.824219 94.601563 56.824219 C 94.554688 56.824219 94.507813 56.839844 94.476563 56.886719 C 93.945313 57.589844 93.476563 58.589844 93.476563 59.652344 C 93.476563 60.589844 93.867188 61.074219 94.554688 61.074219 C 95.132813 61.074219 95.617188 60.683594 95.945313 60.199219 C 96.023438 60.621094 96.257813 61.074219 96.882813 61.074219 C 98.570313 61.074219 99.320313 58.402344 99.320313 57.417969 C 99.320313 56.746094 98.960938 56.699219 98.882813 56.699219 C 98.664063 56.699219 98.398438 56.917969 98.398438 57.183594 C 98.398438 57.246094 98.398438 57.339844 98.523438 57.449219 C 98.742188 57.636719 98.867188 57.933594 98.867188 58.277344 C 98.867188 59.105469 98.023438 60.355469 97.007813 60.355469 C 96.507813 60.355469 96.335938 59.964844 96.273438 59.621094 Z M 96.273438 59.621094 "
       id="path41" />
    <path
       style=" stroke:none;fill-rule:nonzero;fill:rgb(12.940979%,11.764526%,11.764526%);fill-opacity:1;"
       d="M 102.046875 62.480469 C 101.9375 62.714844 101.828125 62.886719 101.40625 62.886719 L 100.203125 62.886719 L 100.203125 62.855469 L 101.421875 61.621094 C 102.21875 60.824219 102.375 60.542969 102.375 60.105469 C 102.375 59.636719 102.015625 59.042969 101.34375 59.042969 C 101.1875 59.042969 100.34375 59.058594 100 60.058594 L 100.125 60.105469 C 100.21875 59.949219 100.46875 59.511719 101.046875 59.511719 C 101.53125 59.511719 101.828125 59.886719 101.828125 60.292969 C 101.828125 60.496094 101.796875 60.871094 100.90625 61.824219 L 99.5625 63.261719 L 99.5625 63.371094 L 101.828125 63.371094 L 102.15625 62.527344 Z M 102.046875 62.480469 "
       id="path43" />
    <path
       style=" stroke:none;fill-rule:nonzero;fill:rgb(12.940979%,11.764526%,11.764526%);fill-opacity:1;"
       d="M 46.539063 73.484375 C 46.820313 72.90625 46.929688 72.40625 46.929688 72.28125 C 46.929688 72.046875 46.804688 72.015625 46.726563 72.015625 C 46.335938 72.015625 46.242188 72.953125 46.195313 73.359375 C 46.179688 73.53125 45.601563 74.21875 44.945313 74.21875 C 44.195313 74.21875 44.070313 73.46875 44.070313 73.109375 C 44.070313 72.734375 44.195313 71.984375 44.898438 70.984375 C 44.992188 70.859375 44.992188 70.84375 44.992188 70.8125 C 44.992188 70.734375 44.929688 70.6875 44.867188 70.6875 C 44.820313 70.6875 44.773438 70.703125 44.742188 70.75 C 44.210938 71.453125 43.742188 72.453125 43.742188 73.515625 C 43.742188 74.453125 44.132813 74.9375 44.820313 74.9375 C 45.398438 74.9375 45.882813 74.546875 46.210938 74.0625 C 46.289063 74.484375 46.523438 74.9375 47.148438 74.9375 C 48.835938 74.9375 49.585938 72.265625 49.585938 71.28125 C 49.585938 70.609375 49.226563 70.5625 49.148438 70.5625 C 48.929688 70.5625 48.664063 70.78125 48.664063 71.046875 C 48.664063 71.109375 48.664063 71.203125 48.789063 71.3125 C 49.007813 71.5 49.132813 71.796875 49.132813 72.140625 C 49.132813 72.96875 48.289063 74.21875 47.273438 74.21875 C 46.773438 74.21875 46.601563 73.828125 46.539063 73.484375 Z M 46.539063 73.484375 "
       id="path45" />
    <path
       style=" stroke:none;fill-rule:nonzero;fill:rgb(12.940979%,11.764526%,11.764526%);fill-opacity:1;"
       d="M 50.894531 73.609375 C 50.988281 73.46875 51.207031 73.171875 51.613281 73.171875 C 51.863281 73.171875 52.175781 73.328125 52.175781 73.75 C 52.175781 74.453125 51.285156 74.734375 50.644531 74.8125 L 50.644531 74.921875 C 51.269531 74.875 51.832031 75.109375 51.832031 76.015625 C 51.832031 76.8125 51.238281 77.03125 51.019531 77.03125 C 50.660156 77.03125 50.441406 76.65625 50.144531 76.65625 C 49.910156 76.65625 49.847656 76.765625 49.847656 76.90625 C 49.847656 77.1875 50.207031 77.28125 50.582031 77.28125 C 51.769531 77.28125 52.347656 76.375 52.347656 75.65625 C 52.347656 74.953125 51.910156 74.765625 51.738281 74.6875 L 51.738281 74.671875 C 52.410156 74.421875 52.738281 74.1875 52.738281 73.703125 C 52.738281 73.171875 52.269531 72.90625 51.800781 72.90625 C 51.425781 72.90625 50.957031 73.1875 50.785156 73.5625 Z M 50.894531 73.609375 "
       id="path47" />
    <path
       style=" stroke:none;fill-rule:nonzero;fill:rgb(0%,0%,0%);fill-opacity:1;"
       d="M 100.480469 0 L 97.699219 0 L 97.699219 0.1875 C 98.183594 0.234375 98.496094 0.265625 98.496094 0.671875 C 98.496094 0.859375 98.433594 1.140625 98.371094 1.359375 L 97.855469 3.203125 L 94.652344 3.203125 L 95.261719 1.015625 C 95.464844 0.265625 95.996094 0.21875 96.386719 0.1875 L 96.386719 0 L 93.324219 0 L 93.324219 0.1875 C 93.886719 0.234375 94.199219 0.28125 94.199219 0.671875 C 94.199219 0.859375 94.136719 1.140625 94.074219 1.359375 L 92.683594 6.3125 C 92.496094 7.015625 92.324219 7.046875 91.777344 7.15625 L 91.777344 7.328125 L 94.542969 7.328125 L 94.542969 7.15625 C 93.964844 7.0625 93.636719 7.03125 93.777344 6.40625 L 94.511719 3.671875 L 97.714844 3.671875 L 96.980469 6.3125 C 96.777344 7.03125 96.371094 7.078125 95.855469 7.15625 L 95.855469 7.328125 L 98.917969 7.328125 L 98.917969 7.15625 C 98.308594 7.09375 97.902344 7.0625 98.074219 6.40625 L 99.558594 1.015625 C 99.746094 0.3125 99.933594 0.28125 100.480469 0.1875 Z M 100.480469 0 "
       id="path49" />
    <path
       style=" stroke:none;fill-rule:nonzero;fill:rgb(12.940979%,11.764526%,11.764526%);fill-opacity:1;"
       d="M 100.289063 9.734375 L 102.070313 9.734375 L 102.070313 9.640625 C 101.757813 9.640625 101.523438 9.625 101.523438 9.421875 C 101.523438 9.328125 101.617188 9.09375 101.648438 8.953125 L 102.554688 5.640625 C 102.585938 5.53125 102.617188 5.40625 102.570313 5.40625 C 102.523438 5.40625 101.632813 5.59375 101.335938 5.640625 L 101.335938 5.75 L 101.695313 5.734375 C 101.757813 5.734375 101.929688 5.734375 101.929688 5.9375 C 101.929688 5.984375 101.914063 6.078125 101.898438 6.140625 L 101.007813 9.296875 C 100.929688 9.59375 100.664063 9.609375 100.289063 9.640625 Z M 100.289063 9.734375 "
       id="path51" />
    <path
       style=" stroke:none;fill-rule:nonzero;fill:rgb(12.940979%,11.764526%,11.764526%);fill-opacity:1;"
       d="M 105.742188 8.84375 C 105.632813 9.078125 105.523438 9.25 105.101563 9.25 L 103.898438 9.25 L 103.898438 9.21875 L 105.117188 7.984375 C 105.914063 7.1875 106.070313 6.90625 106.070313 6.46875 C 106.070313 6 105.710938 5.40625 105.039063 5.40625 C 104.882813 5.40625 104.039063 5.421875 103.695313 6.421875 L 103.820313 6.46875 C 103.914063 6.3125 104.164063 5.875 104.742188 5.875 C 105.226563 5.875 105.523438 6.25 105.523438 6.65625 C 105.523438 6.859375 105.492188 7.234375 104.601563 8.1875 L 103.257813 9.625 L 103.257813 9.734375 L 105.523438 9.734375 L 105.851563 8.890625 Z M 105.742188 8.84375 "
       id="path53" />
    <path
       style=" stroke:none;fill-rule:nonzero;fill:rgb(0%,0%,0%);fill-opacity:1;"
       d="M 90.863281 96.589844 L 88.082031 96.589844 L 88.082031 96.777344 C 88.566406 96.824219 88.878906 96.855469 88.878906 97.261719 C 88.878906 97.449219 88.816406 97.730469 88.753906 97.949219 L 88.238281 99.792969 L 85.035156 99.792969 L 85.644531 97.605469 C 85.847656 96.855469 86.378906 96.808594 86.769531 96.777344 L 86.769531 96.589844 L 83.707031 96.589844 L 83.707031 96.777344 C 84.269531 96.824219 84.582031 96.871094 84.582031 97.261719 C 84.582031 97.449219 84.519531 97.730469 84.457031 97.949219 L 83.066406 102.902344 C 82.878906 103.605469 82.707031 103.636719 82.160156 103.746094 L 82.160156 103.917969 L 84.925781 103.917969 L 84.925781 103.746094 C 84.347656 103.652344 84.019531 103.621094 84.160156 102.996094 L 84.894531 100.261719 L 88.097656 100.261719 L 87.363281 102.902344 C 87.160156 103.621094 86.753906 103.667969 86.238281 103.746094 L 86.238281 103.917969 L 89.300781 103.917969 L 89.300781 103.746094 C 88.691406 103.683594 88.285156 103.652344 88.457031 102.996094 L 89.941406 97.605469 C 90.128906 96.902344 90.316406 96.871094 90.863281 96.777344 Z M 90.863281 96.589844 "
       id="path55" />
    <g
       clip-path="url(#clip2)"
       clip-rule="nonzero"
       id="g59">
      <path
         style=" stroke:none;fill-rule:nonzero;fill:rgb(12.940979%,11.764526%,11.764526%);fill-opacity:1;"
         d="M 92.917969 105.429688 C 92.808594 105.664063 92.699219 105.835938 92.277344 105.835938 L 91.074219 105.835938 L 91.074219 105.804688 L 92.292969 104.570313 C 93.089844 103.773438 93.246094 103.492188 93.246094 103.054688 C 93.246094 102.585938 92.886719 101.992188 92.214844 101.992188 C 92.058594 101.992188 91.214844 102.007813 90.871094 103.007813 L 90.996094 103.054688 C 91.089844 102.898438 91.339844 102.460938 91.917969 102.460938 C 92.402344 102.460938 92.699219 102.835938 92.699219 103.242188 C 92.699219 103.445313 92.667969 103.820313 91.777344 104.773438 L 90.433594 106.210938 L 90.433594 106.320313 L 92.699219 106.320313 L 93.027344 105.476563 Z M 92.917969 105.429688 "
         id="path57" />
    </g>
    <g
       clip-path="url(#clip3)"
       clip-rule="nonzero"
       id="g63">
      <path
         style=" stroke:none;fill-rule:nonzero;fill:rgb(12.940979%,11.764526%,11.764526%);fill-opacity:1;"
         d="M 94.703125 102.695313 C 94.796875 102.554688 95.015625 102.257813 95.421875 102.257813 C 95.671875 102.257813 95.984375 102.414063 95.984375 102.835938 C 95.984375 103.539063 95.09375 103.820313 94.453125 103.898438 L 94.453125 104.007813 C 95.078125 103.960938 95.640625 104.195313 95.640625 105.101563 C 95.640625 105.898438 95.046875 106.117188 94.828125 106.117188 C 94.46875 106.117188 94.25 105.742188 93.953125 105.742188 C 93.71875 105.742188 93.65625 105.851563 93.65625 105.992188 C 93.65625 106.273438 94.015625 106.367188 94.390625 106.367188 C 95.578125 106.367188 96.15625 105.460938 96.15625 104.742188 C 96.15625 104.039063 95.71875 103.851563 95.546875 103.773438 L 95.546875 103.757813 C 96.21875 103.507813 96.546875 103.273438 96.546875 102.789063 C 96.546875 102.257813 96.078125 101.992188 95.609375 101.992188 C 95.234375 101.992188 94.765625 102.273438 94.59375 102.648438 Z M 94.703125 102.695313 "
         id="path61" />
    </g>
    <path
       style=" stroke:none;fill-rule:nonzero;fill:rgb(0%,0%,0%);fill-opacity:1;"
       d="M 8.703125 52.101563 L 5.921875 52.101563 L 5.921875 52.289063 C 6.40625 52.335938 6.71875 52.367188 6.71875 52.773438 C 6.71875 52.960938 6.65625 53.242188 6.59375 53.460938 L 6.078125 55.304688 L 2.875 55.304688 L 3.484375 53.117188 C 3.6875 52.367188 4.21875 52.320313 4.609375 52.289063 L 4.609375 52.101563 L 1.546875 52.101563 L 1.546875 52.289063 C 2.109375 52.335938 2.421875 52.382813 2.421875 52.773438 C 2.421875 52.960938 2.359375 53.242188 2.296875 53.460938 L 0.90625 58.414063 C 0.71875 59.117188 0.546875 59.148438 0 59.257813 L 0 59.429688 L 2.765625 59.429688 L 2.765625 59.257813 C 2.1875 59.164063 1.859375 59.132813 2 58.507813 L 2.734375 55.773438 L 5.9375 55.773438 L 5.203125 58.414063 C 5 59.132813 4.59375 59.179688 4.078125 59.257813 L 4.078125 59.429688 L 7.140625 59.429688 L 7.140625 59.257813 C 6.53125 59.195313 6.125 59.164063 6.296875 58.507813 L 7.78125 53.117188 C 7.96875 52.414063 8.15625 52.382813 8.703125 52.289063 Z M 8.703125 52.101563 "
       id="path65" />
    <path
       style=" stroke:none;fill-rule:nonzero;fill:rgb(12.940979%,11.764526%,11.764526%);fill-opacity:1;"
       d="M 8.507813 61.835938 L 10.289063 61.835938 L 10.289063 61.742188 C 9.976563 61.742188 9.742188 61.726563 9.742188 61.523438 C 9.742188 61.429688 9.835938 61.195313 9.867188 61.054688 L 10.773438 57.742188 C 10.804688 57.632813 10.835938 57.507813 10.789063 57.507813 C 10.742188 57.507813 9.851563 57.695313 9.554688 57.742188 L 9.554688 57.851563 L 9.914063 57.835938 C 9.976563 57.835938 10.148438 57.835938 10.148438 58.039063 C 10.148438 58.085938 10.132813 58.179688 10.117188 58.242188 L 9.226563 61.398438 C 9.148438 61.695313 8.882813 61.710938 8.507813 61.742188 Z M 8.507813 61.835938 "
       id="path67" />
    <path
       style=" stroke:none;fill-rule:nonzero;fill:rgb(12.940979%,11.764526%,11.764526%);fill-opacity:1;"
       d="M 12.542969 58.210938 C 12.636719 58.070313 12.855469 57.773438 13.261719 57.773438 C 13.511719 57.773438 13.824219 57.929688 13.824219 58.351563 C 13.824219 59.054688 12.933594 59.335938 12.292969 59.414063 L 12.292969 59.523438 C 12.917969 59.476563 13.480469 59.710938 13.480469 60.617188 C 13.480469 61.414063 12.886719 61.632813 12.667969 61.632813 C 12.308594 61.632813 12.089844 61.257813 11.792969 61.257813 C 11.558594 61.257813 11.496094 61.367188 11.496094 61.507813 C 11.496094 61.789063 11.855469 61.882813 12.230469 61.882813 C 13.417969 61.882813 13.996094 60.976563 13.996094 60.257813 C 13.996094 59.554688 13.558594 59.367188 13.386719 59.289063 L 13.386719 59.273438 C 14.058594 59.023438 14.386719 58.789063 14.386719 58.304688 C 14.386719 57.773438 13.917969 57.507813 13.449219 57.507813 C 13.074219 57.507813 12.605469 57.789063 12.433594 58.164063 Z M 12.542969 58.210938 "
       id="path69" />
  </g>
</svg>
