<?xml version="1.0" encoding="UTF-8" standalone="no"?>
<svg
   xmlns:dc="http://purl.org/dc/elements/1.1/"
   xmlns:cc="http://creativecommons.org/ns#"
   xmlns:rdf="http://www.w3.org/1999/02/22-rdf-syntax-ns#"
   xmlns:svg="http://www.w3.org/2000/svg"
   xmlns="http://www.w3.org/2000/svg"
   xmlns:sodipodi="http://sodipodi.sourceforge.net/DTD/sodipodi-0.dtd"
   xmlns:inkscape="http://www.inkscape.org/namespaces/inkscape"
   width="208.721451pt"
   height="143.718796pt"
   viewBox="0 0 208.721451 143.718796"
   version="1.2"
   id="svg185"
   sodipodi:docname="pairwise_ambiguous_regions.svg"
   inkscape:version="0.92.4 (5da689c313, 2019-01-14)">
  <metadata
     id="metadata189">
    <rdf:RDF>
      <cc:Work
         rdf:about="">
        <dc:format>image/svg+xml</dc:format>
        <dc:type
           rdf:resource="http://purl.org/dc/dcmitype/StillImage" />
        <dc:title></dc:title>
      </cc:Work>
    </rdf:RDF>
  </metadata>
  <sodipodi:namedview
     pagecolor="#ffffff"
     bordercolor="#666666"
     borderopacity="1"
     objecttolerance="10"
     gridtolerance="10"
     guidetolerance="10"
     inkscape:pageopacity="0"
     inkscape:pageshadow="2"
     inkscape:window-width="661"
     inkscape:window-height="480"
     id="namedview187"
     showgrid="false"
     inkscape:zoom="1.128298"
     inkscape:cx="139.14763"
     inkscape:cy="95.812531"
     inkscape:window-x="0"
     inkscape:window-y="0"
     inkscape:window-maximized="0"
     inkscape:current-layer="svg185" />
  <defs
     id="defs14">
    <clipPath
       id="clip1">
      <path
         d="M 0 3 L 200 3 L 200 143.71875 L 0 143.71875 Z M 0 3 "
         id="path2" />
    </clipPath>
    <clipPath
       id="clip2">
      <path
         d="M 206 84 L 208.722656 84 L 208.722656 88 L 206 88 Z M 206 84 "
         id="path5" />
    </clipPath>
    <clipPath
       id="clip3">
      <path
         d="M 176 140 L 179 140 L 179 143.71875 L 176 143.71875 Z M 176 140 "
         id="path8" />
    </clipPath>
    <clipPath
       id="clip4">
      <path
         d="M 178 140 L 181 140 L 181 143.71875 L 178 143.71875 Z M 178 140 "
         id="path11" />
    </clipPath>
  </defs>
  <g
     id="surface40">
    <path
       style=" stroke:none;fill-rule:nonzero;fill:rgb(78.038025%,78.038025%,78.038025%);fill-opacity:1;"
       d="M 82.847656 17.753906 C 81.25 19.355469 80.449219 21.753906 80.449219 24.152344 C 79.652344 28.949219 79.652344 34.148438 80.449219 38.945313 C 80.851563 40.941406 80.972656 43.335938 82.449219 45.339844 C 83.925781 47.347656 94.042969 50.539063 94.445313 50.539063 C 102.441406 50.9375 99.640625 46.542969 107.636719 46.140625 C 109.636719 45.742188 112.035156 45.339844 114.035156 45.339844 C 116.035156 45.339844 118.03125 44.140625 118.832031 42.144531 C 121.628906 34.148438 116.183594 22.949219 116.183594 22.949219 C 115.222656 20.972656 113.804688 20.703125 113.035156 22.351563 C 112.265625 24 108.242188 28.671875 106.046875 28.824219 C 106.046875 28.824219 100.714844 24.425781 104.839844 22.953125 C 108.207031 21.746094 105.238281 17.355469 104.039063 14.554688 C 103.238281 13.355469 101.640625 12.558594 100.039063 12.957031 C 100.039063 12.957031 87.246094 12.15625 82.847656 17.753906 "
       id="path16" />
    <path
       style=" stroke:none;fill-rule:nonzero;fill:rgb(49.803162%,49.803162%,49.803162%);fill-opacity:1;"
       d="M 19.28125 94.117188 C 19.675781 97.292969 19.675781 97.292969 19.675781 97.292969 C 21.214844 100.605469 26.949219 103.800781 32.414063 104.394531 C 32.414063 104.394531 39.375 105.917969 48.476563 104.121094 C 52.484375 103.332031 51.265625 100.515625 52.0625 98.515625 C 53.265625 94.917969 53.265625 90.519531 52.0625 86.921875 C 50.066406 82.523438 49.664063 76.125 44.867188 73.726563 C 42.867188 72.527344 38.871094 72.128906 36.871094 74.128906 C 36.070313 74.527344 36.871094 76.925781 36.070313 78.125 C 34.472656 80.125 31.273438 79.324219 28.875 78.523438 C 28.074219 78.523438 25.535156 76.382813 23.277344 75.726563 C 21.023438 75.070313 15.320313 79.003906 14.882813 82.523438 C 14.882813 82.523438 14.882813 82.523438 15.679688 85.722656 C 16.480469 88.519531 18.878906 90.917969 19.28125 94.117188 "
       id="path18" />
    <path
       style=" stroke:none;fill-rule:nonzero;fill:rgb(43.136597%,43.136597%,43.136597%);fill-opacity:1;"
       d="M 178.003906 72.128906 C 176.15625 71.019531 174.804688 70.128906 172.804688 69.730469 C 162.410156 68.53125 152.015625 66.53125 152.015625 66.53125 C 146.523438 66.746094 141.121094 71.308594 140.023438 73.726563 C 140.023438 73.726563 137.222656 94.027344 139.621094 102.914063 C 140.164063 104.921875 140.421875 105.710938 141.621094 105.710938 C 150.816406 107.710938 158.8125 112.109375 168.808594 106.511719 C 173.007813 104.160156 177.605469 104.113281 181.601563 101.3125 C 184.402344 99.714844 183.601563 96.515625 184 94.117188 C 185.105469 85.828125 185.453125 83.386719 184 76.125 C 183.601563 74.128906 180.003906 73.328125 178.003906 72.128906 "
       id="path20" />
    <path
       style=" stroke:none;fill-rule:nonzero;fill:rgb(34.901428%,34.901428%,34.901428%);fill-opacity:1;"
       d="M 104.839844 120.105469 C 104.839844 120.105469 104.839844 120.105469 104.4375 119.707031 C 97.640625 118.507813 97.640625 118.507813 97.640625 118.507813 C 90.605469 118.945313 84.488281 122.273438 84.046875 125.902344 C 83.609375 129.53125 89.117188 139.894531 96.78125 140.625 C 96.78125 140.625 99.640625 140.894531 106.835938 138.496094 C 108.035156 138.097656 116.832031 132.898438 112.433594 128.5 C 110.28125 126.347656 108.835938 126.503906 107.636719 124.101563 C 107.238281 123.304688 107.636719 121.304688 106.039063 120.90625 C 106.039063 120.90625 105.277344 120.984375 104.839844 120.105469 "
       id="path22" />
    <path
       style=" stroke:none;fill-rule:nonzero;fill:rgb(100%,78.038025%,78.038025%);fill-opacity:1;"
       d="M 101.996094 82.871094 L 105.992188 56.519531 L 90.882813 83.167969 L 101.621094 83.210938 L 101.996094 82.871094 "
       id="path24" />
    <path
       style=" stroke:none;fill-rule:nonzero;fill:rgb(74.900818%,74.900818%,74.900818%);fill-opacity:1;"
       d="M 101.945313 83.210938 L 101.996094 82.871094 L 101.621094 83.210938 L 101.945313 83.210938 "
       id="path26" />
    <path
       style=" stroke:none;fill-rule:nonzero;fill:rgb(100%,78.038025%,78.038025%);fill-opacity:1;"
       d="M 79.394531 103.433594 L 90.996094 92.878906 L 86.757813 90.449219 L 79.394531 103.433594 "
       id="path28" />
    <path
       style=" stroke:none;fill-rule:nonzero;fill:rgb(100%,78.038025%,78.038025%);fill-opacity:1;"
       d="M 94.363281 89.816406 L 100.117188 95.253906 L 101.945313 83.210938 L 101.621094 83.210938 L 94.363281 89.816406 "
       id="path30" />
    <path
       style=" stroke:none;fill-rule:nonzero;fill:rgb(100%,78.038025%,78.038025%);fill-opacity:1;"
       d="M 94.363281 89.816406 L 101.621094 83.210938 L 90.882813 83.167969 L 89.644531 85.355469 L 94.363281 89.816406 "
       id="path32" />
    <path
       style=" stroke:none;fill-rule:nonzero;fill:rgb(100%,78.038025%,78.038025%);fill-opacity:1;"
       d="M 94.363281 89.816406 L 90.996094 92.878906 L 99.722656 97.875 L 100.117188 95.253906 L 94.363281 89.816406 "
       id="path34" />
    <path
       style=" stroke:none;fill-rule:nonzero;fill:rgb(100%,78.038025%,78.038025%);fill-opacity:1;"
       d="M 99.722656 97.875 L 107.761719 102.480469 L 100.117188 95.253906 L 99.722656 97.875 "
       id="path36" />
    <path
       style=" stroke:none;fill-rule:nonzero;fill:rgb(100%,78.038025%,78.038025%);fill-opacity:1;"
       d="M 90.882813 83.167969 L 87.308594 83.152344 L 89.644531 85.355469 L 90.882813 83.167969 "
       id="path38" />
    <path
       style=" stroke:none;fill-rule:nonzero;fill:rgb(100%,78.038025%,78.038025%);fill-opacity:1;"
       d="M 89.644531 85.355469 L 86.757813 90.449219 L 90.996094 92.878906 L 94.363281 89.816406 L 89.644531 85.355469 "
       id="path40" />
    <path
       style=" stroke:none;fill-rule:nonzero;fill:rgb(100%,78.038025%,78.038025%);fill-opacity:1;"
       d="M 87.308594 83.152344 L 73.921875 83.097656 L 86.757813 90.449219 L 89.644531 85.355469 L 87.308594 83.152344 "
       id="path42" />
    <g
       clip-path="url(#clip1)"
       clip-rule="nonzero"
       id="g46">
      <path
         style="fill:none;stroke-width:0.4;stroke-linecap:butt;stroke-linejoin:miter;stroke:rgb(0%,0%,0%);stroke-opacity:1;stroke-miterlimit:4;"
         d="M 113.644531 6.035156 L 92.855469 143.171875 M 196.804688 83.597656 L 0.0976563 82.796875 M 11.691406 11.632813 L 150.824219 143.171875 M 170.285156 138.503906 L 0.0976563 40.820313 M 186.007813 6.433594 L 35.28125 143.570313 M 134.832031 5.636719 L 56.871094 143.171875 "
         id="path44" />
    </g>
    <path
       style=" stroke:none;fill-rule:nonzero;fill:rgb(0%,0%,0%);fill-opacity:1;"
       d="M 80.765625 78.488281 C 80.328125 78.910156 80.140625 79.160156 80 79.160156 C 79.921875 79.160156 79.859375 79.097656 79.859375 79.035156 C 79.859375 78.738281 80.75 75.457031 80.78125 75.347656 L 80.703125 75.316406 L 80.125 75.394531 L 80.09375 75.410156 L 80 75.832031 L 79.984375 75.832031 C 79.953125 75.566406 79.625 75.316406 79.21875 75.316406 C 77.9375 75.316406 76.46875 77.113281 76.46875 78.519531 C 76.46875 78.800781 76.5 79.660156 77.46875 79.660156 C 78.046875 79.660156 78.546875 79.363281 79.34375 78.191406 L 79.359375 78.222656 C 79.203125 78.800781 79.15625 79.019531 79.15625 79.238281 C 79.15625 79.394531 79.15625 79.644531 79.5625 79.644531 C 79.984375 79.644531 80.296875 79.300781 80.875 78.597656 Z M 77.28125 78.503906 C 77.28125 77.644531 78.140625 75.535156 79.265625 75.535156 C 79.546875 75.535156 79.8125 75.707031 79.8125 76.175781 C 79.8125 77.113281 78.875 79.191406 77.859375 79.191406 C 77.59375 79.191406 77.28125 79.019531 77.28125 78.503906 Z M 77.28125 78.503906 "
       id="path48" />
    <path
       style=" stroke:none;fill-rule:nonzero;fill:rgb(0%,0%,0%);fill-opacity:1;"
       d="M 87.71875 78.425781 C 87.359375 78.878906 87.109375 79.191406 86.921875 79.191406 C 86.8125 79.191406 86.78125 79.160156 86.78125 78.988281 C 86.78125 78.863281 87.5625 76.285156 87.5625 75.957031 C 87.5625 75.582031 87.328125 75.316406 86.984375 75.316406 C 86.359375 75.316406 85.578125 76.160156 84.90625 77.269531 L 84.890625 77.253906 C 85.03125 76.878906 85.25 76.082031 85.25 75.941406 C 85.25 75.535156 85.046875 75.316406 84.671875 75.316406 C 83.875 75.316406 82.890625 76.800781 82.59375 77.269531 L 82.578125 77.253906 L 83.109375 75.332031 L 83.078125 75.316406 C 82.578125 75.425781 82.0625 75.519531 81.546875 75.613281 L 81.546875 75.769531 C 82.015625 75.769531 82.171875 75.785156 82.171875 76.003906 C 82.171875 76.207031 81.375 78.910156 81.21875 79.550781 L 81.9375 79.550781 C 82.296875 78.378906 82.484375 77.753906 82.875 77.175781 C 83.140625 76.785156 83.859375 75.816406 84.296875 75.816406 C 84.375 75.816406 84.5 75.816406 84.5 76.082031 C 84.5 76.253906 83.84375 78.613281 83.59375 79.550781 L 84.3125 79.550781 C 84.59375 78.472656 84.75 77.863281 85.21875 77.128906 C 85.515625 76.660156 86.203125 75.816406 86.59375 75.816406 C 86.71875 75.816406 86.796875 75.894531 86.796875 76.035156 C 86.796875 76.238281 86.046875 78.910156 86.046875 79.160156 C 86.046875 79.300781 86.046875 79.644531 86.453125 79.644531 C 86.984375 79.644531 87.46875 79.097656 87.8125 78.613281 L 87.859375 78.550781 Z M 87.71875 78.425781 "
       id="path50" />
    <path
       style=" stroke:none;fill-rule:nonzero;fill:rgb(0%,0%,0%);fill-opacity:1;"
       d="M 91.757813 76.613281 C 91.757813 77.410156 90.851563 79.441406 89.539063 79.441406 C 89.085938 79.441406 89.085938 79.191406 89.085938 79.113281 C 89.085938 78.113281 90.007813 75.785156 91.054688 75.785156 C 91.664063 75.785156 91.757813 76.300781 91.757813 76.613281 Z M 89.101563 73.378906 C 89.648438 73.394531 89.710938 73.441406 89.710938 73.660156 C 89.710938 73.800781 89.632813 74.035156 89.570313 74.300781 L 88.257813 79.113281 L 88.257813 79.144531 C 88.257813 79.363281 88.992188 79.660156 89.507813 79.660156 C 90.976563 79.660156 92.570313 78.003906 92.570313 76.488281 C 92.570313 75.785156 92.101563 75.316406 91.429688 75.316406 C 90.570313 75.316406 89.960938 76.207031 89.648438 76.707031 L 89.632813 76.707031 C 89.960938 75.613281 90.398438 73.832031 90.617188 73.050781 L 90.554688 73.003906 C 90.070313 73.097656 89.570313 73.160156 89.101563 73.222656 Z M 89.101563 73.378906 "
       id="path52" />
    <path
       style=" stroke:none;fill-rule:nonzero;fill:rgb(0%,0%,0%);fill-opacity:1;"
       d="M 94.960938 78.457031 C 94.570313 79.019531 94.289063 79.207031 94.179688 79.207031 C 94.085938 79.207031 94.023438 79.128906 94.023438 79.066406 C 94.023438 78.941406 94.148438 78.566406 94.179688 78.425781 L 95.023438 75.332031 L 94.992188 75.316406 C 94.617188 75.394531 93.820313 75.535156 93.460938 75.566406 L 93.460938 75.707031 C 93.992188 75.707031 94.070313 75.753906 94.070313 75.957031 C 94.070313 76.238281 93.304688 78.613281 93.304688 79.066406 C 93.304688 79.238281 93.304688 79.660156 93.757813 79.660156 C 94.289063 79.660156 94.710938 79.128906 95.085938 78.566406 Z M 95.367188 73.800781 C 95.367188 73.597656 95.210938 73.269531 94.882813 73.269531 C 94.664063 73.269531 94.445313 73.457031 94.445313 73.800781 C 94.445313 74.128906 94.664063 74.300781 94.898438 74.300781 C 95.210938 74.300781 95.367188 73.988281 95.367188 73.800781 Z M 95.367188 73.800781 "
       id="path54" />
    <path
       style=" stroke:none;fill-rule:nonzero;fill:rgb(0%,0%,0%);fill-opacity:1;"
       d="M 100.035156 75.660156 L 99.441406 75.660156 C 99.378906 75.660156 99.300781 75.582031 99.128906 75.488281 C 98.957031 75.410156 98.722656 75.316406 98.332031 75.316406 C 97.535156 75.316406 96.425781 75.878906 96.425781 76.957031 C 96.425781 77.613281 96.832031 77.847656 97.175781 78.003906 C 96.863281 78.222656 96.441406 78.488281 96.441406 78.785156 C 96.441406 78.972656 96.582031 79.097656 96.707031 79.175781 C 95.894531 79.707031 95.582031 79.910156 95.582031 80.457031 C 95.582031 80.988281 96.082031 81.519531 97.128906 81.519531 C 98.441406 81.519531 99.191406 80.941406 99.191406 80.128906 C 99.191406 78.800781 97.160156 78.957031 97.160156 78.441406 C 97.160156 78.316406 97.363281 78.066406 97.503906 78.066406 C 97.628906 78.066406 97.753906 78.097656 97.878906 78.097656 C 98.722656 78.097656 99.644531 77.316406 99.644531 76.613281 C 99.644531 76.410156 99.613281 76.222656 99.550781 76.035156 L 100.035156 76.035156 Z M 98.628906 80.410156 C 98.628906 80.878906 98.144531 81.316406 97.285156 81.316406 C 97.144531 81.316406 96.113281 81.285156 96.113281 80.378906 C 96.113281 80.160156 96.113281 79.910156 96.503906 79.566406 C 96.535156 79.535156 96.863281 79.285156 96.910156 79.285156 C 96.988281 79.285156 97.925781 79.644531 98.097656 79.722656 C 98.269531 79.816406 98.628906 79.972656 98.628906 80.410156 Z M 98.878906 76.175781 C 98.878906 76.972656 98.394531 77.894531 97.769531 77.894531 C 97.332031 77.894531 97.175781 77.582031 97.175781 77.160156 C 97.175781 76.503906 97.597656 75.535156 98.332031 75.535156 C 98.738281 75.535156 98.878906 75.816406 98.878906 76.175781 Z M 98.878906 76.175781 "
       id="path56" />
    <path
       style=" stroke:none;fill-rule:nonzero;fill:rgb(0%,0%,0%);fill-opacity:1;"
       d="M 104.722656 78.425781 C 104.394531 78.847656 104.113281 79.191406 103.941406 79.191406 C 103.832031 79.191406 103.816406 79.082031 103.816406 79.035156 C 103.816406 78.894531 103.941406 78.472656 104.003906 78.269531 L 104.769531 75.410156 L 104.050781 75.410156 C 103.675781 76.425781 103.472656 77.035156 103.003906 77.753906 C 102.675781 78.238281 102.066406 79.144531 101.660156 79.144531 C 101.457031 79.144531 101.425781 78.941406 101.457031 78.816406 L 102.332031 75.332031 L 102.300781 75.316406 C 101.816406 75.441406 101.332031 75.519531 100.863281 75.582031 L 100.863281 75.707031 C 101.253906 75.707031 101.425781 75.707031 101.425781 75.988281 C 101.425781 76.253906 100.707031 78.675781 100.707031 79.097656 C 100.707031 79.519531 100.878906 79.660156 101.238281 79.660156 C 102.097656 79.660156 102.800781 78.457031 103.457031 77.378906 L 103.488281 77.378906 C 103.269531 78.160156 103.066406 78.972656 103.066406 79.144531 C 103.066406 79.285156 103.097656 79.644531 103.519531 79.644531 C 104.003906 79.644531 104.253906 79.394531 104.863281 78.519531 Z M 104.722656 78.425781 "
       id="path58" />
    <path
       style=" stroke:none;fill-rule:nonzero;fill:rgb(0%,0%,0%);fill-opacity:1;"
       d="M 108.179688 75.316406 C 106.773438 75.316406 105.367188 76.863281 105.367188 78.269531 C 105.367188 79.066406 105.789063 79.660156 106.804688 79.660156 C 108.273438 79.660156 109.585938 77.925781 109.585938 76.738281 C 109.585938 76.113281 109.289063 75.316406 108.179688 75.316406 Z M 108.117188 75.519531 C 108.570313 75.519531 108.789063 75.941406 108.789063 76.441406 C 108.789063 77.472656 108.023438 79.457031 106.929688 79.457031 C 106.460938 79.457031 106.164063 79.113281 106.164063 78.566406 C 106.164063 77.425781 107.039063 75.519531 108.117188 75.519531 Z M 108.117188 75.519531 "
       id="path60" />
    <path
       style=" stroke:none;fill-rule:nonzero;fill:rgb(0%,0%,0%);fill-opacity:1;"
       d="M 114.320313 78.425781 C 113.992188 78.847656 113.710938 79.191406 113.539063 79.191406 C 113.429688 79.191406 113.414063 79.082031 113.414063 79.035156 C 113.414063 78.894531 113.539063 78.472656 113.601563 78.269531 L 114.367188 75.410156 L 113.648438 75.410156 C 113.273438 76.425781 113.070313 77.035156 112.601563 77.753906 C 112.273438 78.238281 111.664063 79.144531 111.257813 79.144531 C 111.054688 79.144531 111.023438 78.941406 111.054688 78.816406 L 111.929688 75.332031 L 111.898438 75.316406 C 111.414063 75.441406 110.929688 75.519531 110.460938 75.582031 L 110.460938 75.707031 C 110.851563 75.707031 111.023438 75.707031 111.023438 75.988281 C 111.023438 76.253906 110.304688 78.675781 110.304688 79.097656 C 110.304688 79.519531 110.476563 79.660156 110.835938 79.660156 C 111.695313 79.660156 112.398438 78.457031 113.054688 77.378906 L 113.085938 77.378906 C 112.867188 78.160156 112.664063 78.972656 112.664063 79.144531 C 112.664063 79.285156 112.695313 79.644531 113.117188 79.644531 C 113.601563 79.644531 113.851563 79.394531 114.460938 78.519531 Z M 114.320313 78.425781 "
       id="path62" />
    <path
       style=" stroke:none;fill-rule:nonzero;fill:rgb(0%,0%,0%);fill-opacity:1;"
       d="M 115.039063 78.144531 L 114.851563 79.675781 L 115.007813 79.675781 C 115.054688 79.566406 115.101563 79.472656 115.226563 79.472656 C 115.507813 79.472656 115.898438 79.660156 116.179688 79.660156 C 116.726563 79.660156 117.617188 79.410156 117.617188 78.363281 C 117.617188 77.550781 116.445313 76.707031 116.445313 76.097656 C 116.445313 75.628906 116.742188 75.535156 116.960938 75.535156 C 117.585938 75.535156 117.820313 76.097656 117.867188 76.644531 L 118.007813 76.644531 L 118.210938 75.316406 L 118.070313 75.316406 C 118.023438 75.394531 117.960938 75.488281 117.804688 75.488281 C 117.523438 75.488281 117.320313 75.316406 116.898438 75.316406 C 115.882813 75.316406 115.742188 76.082031 115.742188 76.378906 C 115.742188 77.128906 116.882813 78.050781 116.882813 78.675781 C 116.882813 78.988281 116.726563 79.457031 116.195313 79.457031 C 115.414063 79.457031 115.257813 78.566406 115.195313 78.144531 Z M 115.039063 78.144531 "
       id="path64" />
    <path
       style=" stroke:none;fill-rule:nonzero;fill:rgb(0%,0%,0%);fill-opacity:1;"
       d="M 87.066406 91.144531 C 87.457031 89.863281 87.597656 89.441406 87.957031 88.753906 C 88.035156 88.597656 88.613281 87.535156 88.910156 87.535156 C 89.144531 87.535156 89.003906 87.878906 89.410156 87.878906 C 89.519531 87.878906 89.863281 87.878906 89.863281 87.378906 C 89.863281 87.050781 89.628906 86.910156 89.394531 86.910156 C 88.800781 86.910156 88.066406 88.035156 87.753906 88.675781 L 87.675781 88.863281 L 87.660156 88.847656 L 88.128906 86.925781 L 88.097656 86.910156 C 87.660156 86.988281 87.097656 87.113281 86.613281 87.175781 L 86.613281 87.332031 C 86.722656 87.316406 86.816406 87.285156 86.925781 87.285156 C 87.222656 87.285156 87.269531 87.441406 87.269531 87.582031 C 87.269531 87.660156 87.222656 87.988281 87.113281 88.347656 L 86.347656 91.144531 Z M 87.066406 91.144531 "
       id="path66" />
    <path
       style=" stroke:none;fill-rule:nonzero;fill:rgb(0%,0%,0%);fill-opacity:1;"
       d="M 91.09375 88.722656 C 91.453125 87.878906 92.109375 87.128906 92.625 87.128906 C 92.859375 87.128906 92.953125 87.316406 92.953125 87.519531 C 92.953125 87.597656 92.90625 88.753906 90.9375 89.144531 Z M 93.078125 90.097656 C 92.59375 90.488281 92.1875 90.816406 91.671875 90.816406 C 91.265625 90.816406 90.765625 90.597656 90.765625 89.941406 C 90.765625 89.753906 90.828125 89.566406 90.875 89.363281 L 91.140625 89.316406 C 92.6875 89.097656 93.59375 88.316406 93.59375 87.566406 C 93.59375 87.144531 93.296875 86.910156 92.8125 86.910156 C 91.453125 86.910156 89.9375 88.519531 89.9375 89.894531 C 89.9375 90.503906 90.25 91.253906 91.25 91.253906 C 92.21875 91.253906 93.078125 90.363281 93.1875 90.207031 Z M 93.078125 90.097656 "
       id="path68" />
    <path
       style=" stroke:none;fill-rule:nonzero;fill:rgb(0%,0%,0%);fill-opacity:1;"
       d="M 98.433594 87.253906 L 97.839844 87.253906 C 97.777344 87.253906 97.699219 87.175781 97.527344 87.082031 C 97.355469 87.003906 97.121094 86.910156 96.730469 86.910156 C 95.933594 86.910156 94.824219 87.472656 94.824219 88.550781 C 94.824219 89.207031 95.230469 89.441406 95.574219 89.597656 C 95.261719 89.816406 94.839844 90.082031 94.839844 90.378906 C 94.839844 90.566406 94.980469 90.691406 95.105469 90.769531 C 94.292969 91.300781 93.980469 91.503906 93.980469 92.050781 C 93.980469 92.582031 94.480469 93.113281 95.527344 93.113281 C 96.839844 93.113281 97.589844 92.535156 97.589844 91.722656 C 97.589844 90.394531 95.558594 90.550781 95.558594 90.035156 C 95.558594 89.910156 95.761719 89.660156 95.902344 89.660156 C 96.027344 89.660156 96.152344 89.691406 96.277344 89.691406 C 97.121094 89.691406 98.042969 88.910156 98.042969 88.207031 C 98.042969 88.003906 98.011719 87.816406 97.949219 87.628906 L 98.433594 87.628906 Z M 97.027344 92.003906 C 97.027344 92.472656 96.542969 92.910156 95.683594 92.910156 C 95.542969 92.910156 94.511719 92.878906 94.511719 91.972656 C 94.511719 91.753906 94.511719 91.503906 94.902344 91.160156 C 94.933594 91.128906 95.261719 90.878906 95.308594 90.878906 C 95.386719 90.878906 96.324219 91.238281 96.496094 91.316406 C 96.667969 91.410156 97.027344 91.566406 97.027344 92.003906 Z M 97.277344 87.769531 C 97.277344 88.566406 96.792969 89.488281 96.167969 89.488281 C 95.730469 89.488281 95.574219 89.175781 95.574219 88.753906 C 95.574219 88.097656 95.996094 87.128906 96.730469 87.128906 C 97.136719 87.128906 97.277344 87.410156 97.277344 87.769531 Z M 97.277344 87.769531 "
       id="path70" />
    <path
       style=" stroke:none;fill-rule:nonzero;fill:rgb(0%,0%,0%);fill-opacity:1;"
       d="M 100.824219 90.050781 C 100.433594 90.613281 100.152344 90.800781 100.042969 90.800781 C 99.949219 90.800781 99.886719 90.722656 99.886719 90.660156 C 99.886719 90.535156 100.011719 90.160156 100.042969 90.019531 L 100.886719 86.925781 L 100.855469 86.910156 C 100.480469 86.988281 99.683594 87.128906 99.324219 87.160156 L 99.324219 87.300781 C 99.855469 87.300781 99.933594 87.347656 99.933594 87.550781 C 99.933594 87.832031 99.167969 90.207031 99.167969 90.660156 C 99.167969 90.832031 99.167969 91.253906 99.621094 91.253906 C 100.152344 91.253906 100.574219 90.722656 100.949219 90.160156 Z M 101.230469 85.394531 C 101.230469 85.191406 101.074219 84.863281 100.746094 84.863281 C 100.527344 84.863281 100.308594 85.050781 100.308594 85.394531 C 100.308594 85.722656 100.527344 85.894531 100.761719 85.894531 C 101.074219 85.894531 101.230469 85.582031 101.230469 85.394531 Z M 101.230469 85.394531 "
       id="path72" />
    <path
       style=" stroke:none;fill-rule:nonzero;fill:rgb(0%,0%,0%);fill-opacity:1;"
       d="M 104.445313 86.910156 C 103.039063 86.910156 101.632813 88.457031 101.632813 89.863281 C 101.632813 90.660156 102.054688 91.253906 103.070313 91.253906 C 104.539063 91.253906 105.851563 89.519531 105.851563 88.332031 C 105.851563 87.707031 105.554688 86.910156 104.445313 86.910156 Z M 104.382813 87.113281 C 104.835938 87.113281 105.054688 87.535156 105.054688 88.035156 C 105.054688 89.066406 104.289063 91.050781 103.195313 91.050781 C 102.726563 91.050781 102.429688 90.707031 102.429688 90.160156 C 102.429688 89.019531 103.304688 87.113281 104.382813 87.113281 Z M 104.382813 87.113281 "
       id="path74" />
    <path
       style=" stroke:none;fill-rule:nonzero;fill:rgb(0%,0%,0%);fill-opacity:1;"
       d="M 110.570313 90.019531 C 110.226563 90.472656 109.976563 90.785156 109.789063 90.785156 C 109.773438 90.785156 109.632813 90.753906 109.632813 90.613281 C 109.632813 90.332031 110.398438 87.957031 110.398438 87.550781 C 110.398438 87.144531 110.179688 86.910156 109.742188 86.910156 C 108.945313 86.910156 108.070313 88.253906 107.617188 88.957031 L 107.585938 88.941406 L 108.210938 86.925781 L 108.179688 86.910156 C 107.664063 87.019531 107.148438 87.113281 106.617188 87.207031 L 106.617188 87.363281 C 107.148438 87.363281 107.242188 87.472656 107.242188 87.613281 C 107.242188 87.816406 106.601563 90.066406 106.304688 91.144531 L 107.023438 91.144531 C 107.414063 89.832031 107.539063 89.425781 107.976563 88.769531 C 108.320313 88.222656 108.929688 87.410156 109.382813 87.410156 C 109.570313 87.410156 109.632813 87.535156 109.632813 87.707031 C 109.632813 88.097656 108.914063 90.441406 108.914063 90.660156 C 108.914063 90.941406 108.929688 91.238281 109.382813 91.238281 C 109.898438 91.238281 110.226563 90.785156 110.710938 90.144531 Z M 110.570313 90.019531 "
       id="path76" />
    <path
       style=" stroke:none;fill-rule:nonzero;fill:rgb(12.940979%,11.764526%,11.764526%);fill-opacity:1;"
       d="M 170.421875 13.417969 C 170.625 12.996094 170.71875 12.621094 170.71875 12.527344 C 170.71875 12.355469 170.609375 12.324219 170.546875 12.324219 C 170.265625 12.324219 170.1875 13.042969 170.15625 13.324219 C 170.15625 13.464844 169.71875 13.980469 169.21875 13.980469 C 168.65625 13.980469 168.578125 13.417969 168.578125 13.152344 C 168.578125 12.871094 168.65625 12.308594 169.1875 11.558594 C 169.25 11.464844 169.25 11.449219 169.25 11.417969 C 169.25 11.371094 169.21875 11.324219 169.15625 11.324219 C 169.125 11.324219 169.09375 11.339844 169.078125 11.386719 C 168.671875 11.902344 168.328125 12.667969 168.328125 13.449219 C 168.328125 14.152344 168.625 14.511719 169.125 14.511719 C 169.5625 14.511719 169.921875 14.230469 170.171875 13.871094 C 170.234375 14.183594 170.40625 14.511719 170.875 14.511719 C 172.140625 14.511719 172.6875 12.511719 172.6875 11.777344 C 172.6875 11.277344 172.421875 11.246094 172.375 11.246094 C 172.203125 11.246094 172 11.402344 172 11.605469 C 172 11.652344 172 11.714844 172.09375 11.792969 C 172.265625 11.949219 172.359375 12.167969 172.359375 12.417969 C 172.359375 13.042969 171.734375 13.980469 170.96875 13.980469 C 170.59375 13.980469 170.453125 13.683594 170.421875 13.417969 Z M 170.421875 13.417969 "
       id="path78" />
    <path
       style=" stroke:none;fill-rule:nonzero;fill:rgb(12.940979%,11.764526%,11.764526%);fill-opacity:1;"
       d="M 173.023438 15.632813 L 174.132813 15.632813 L 174.132813 15.570313 C 173.929688 15.570313 173.789063 15.570313 173.789063 15.445313 C 173.789063 15.382813 173.835938 15.226563 173.867188 15.148438 L 174.429688 13.070313 C 174.445313 13.007813 174.476563 12.929688 174.445313 12.929688 C 174.414063 12.929688 173.851563 13.054688 173.664063 13.085938 L 173.664063 13.148438 L 173.898438 13.132813 C 173.929688 13.132813 174.039063 13.132813 174.039063 13.257813 C 174.039063 13.289063 174.023438 13.351563 174.023438 13.398438 L 173.460938 15.367188 C 173.414063 15.539063 173.257813 15.554688 173.023438 15.570313 Z M 173.023438 15.632813 "
       id="path80" />
    <path
       style=" stroke:none;fill-rule:nonzero;fill:rgb(12.940979%,11.764526%,11.764526%);fill-opacity:1;"
       d="M 20.496094 13.816406 C 20.699219 13.394531 20.792969 13.019531 20.792969 12.925781 C 20.792969 12.753906 20.683594 12.722656 20.621094 12.722656 C 20.339844 12.722656 20.261719 13.441406 20.230469 13.722656 C 20.230469 13.863281 19.792969 14.378906 19.292969 14.378906 C 18.730469 14.378906 18.652344 13.816406 18.652344 13.550781 C 18.652344 13.269531 18.730469 12.707031 19.261719 11.957031 C 19.324219 11.863281 19.324219 11.847656 19.324219 11.816406 C 19.324219 11.769531 19.292969 11.722656 19.230469 11.722656 C 19.199219 11.722656 19.167969 11.738281 19.152344 11.785156 C 18.746094 12.300781 18.402344 13.066406 18.402344 13.847656 C 18.402344 14.550781 18.699219 14.910156 19.199219 14.910156 C 19.636719 14.910156 19.996094 14.628906 20.246094 14.269531 C 20.308594 14.582031 20.480469 14.910156 20.949219 14.910156 C 22.214844 14.910156 22.761719 12.910156 22.761719 12.175781 C 22.761719 11.675781 22.496094 11.644531 22.449219 11.644531 C 22.277344 11.644531 22.074219 11.800781 22.074219 12.003906 C 22.074219 12.050781 22.074219 12.113281 22.167969 12.191406 C 22.339844 12.347656 22.433594 12.566406 22.433594 12.816406 C 22.433594 13.441406 21.808594 14.378906 21.042969 14.378906 C 20.667969 14.378906 20.527344 14.082031 20.496094 13.816406 Z M 20.496094 13.816406 "
       id="path82" />
    <path
       style=" stroke:none;fill-rule:nonzero;fill:rgb(12.940979%,11.764526%,11.764526%);fill-opacity:1;"
       d="M 23.097656 16.03125 L 24.207031 16.03125 L 24.207031 15.96875 C 24.003906 15.96875 23.863281 15.96875 23.863281 15.84375 C 23.863281 15.78125 23.910156 15.625 23.941406 15.546875 L 24.503906 13.46875 C 24.519531 13.40625 24.550781 13.328125 24.519531 13.328125 C 24.488281 13.328125 23.925781 13.453125 23.738281 13.484375 L 23.738281 13.546875 L 23.972656 13.53125 C 24.003906 13.53125 24.113281 13.53125 24.113281 13.65625 C 24.113281 13.6875 24.097656 13.75 24.097656 13.796875 L 23.535156 15.765625 C 23.488281 15.9375 23.332031 15.953125 23.097656 15.96875 Z M 23.097656 16.03125 "
       id="path84" />
    <path
       style=" stroke:none;fill-rule:nonzero;fill:rgb(12.940979%,11.764526%,11.764526%);fill-opacity:1;"
       d="M 132.042969 80.183594 C 132.246094 79.761719 132.339844 79.386719 132.339844 79.292969 C 132.339844 79.121094 132.230469 79.089844 132.167969 79.089844 C 131.886719 79.089844 131.808594 79.808594 131.777344 80.089844 C 131.777344 80.230469 131.339844 80.746094 130.839844 80.746094 C 130.277344 80.746094 130.199219 80.183594 130.199219 79.917969 C 130.199219 79.636719 130.277344 79.074219 130.808594 78.324219 C 130.871094 78.230469 130.871094 78.214844 130.871094 78.183594 C 130.871094 78.136719 130.839844 78.089844 130.777344 78.089844 C 130.746094 78.089844 130.714844 78.105469 130.699219 78.152344 C 130.292969 78.667969 129.949219 79.433594 129.949219 80.214844 C 129.949219 80.917969 130.246094 81.277344 130.746094 81.277344 C 131.183594 81.277344 131.542969 80.996094 131.792969 80.636719 C 131.855469 80.949219 132.027344 81.277344 132.496094 81.277344 C 133.761719 81.277344 134.308594 79.277344 134.308594 78.542969 C 134.308594 78.042969 134.042969 78.011719 133.996094 78.011719 C 133.824219 78.011719 133.621094 78.167969 133.621094 78.371094 C 133.621094 78.417969 133.621094 78.480469 133.714844 78.558594 C 133.886719 78.714844 133.980469 78.933594 133.980469 79.183594 C 133.980469 79.808594 133.355469 80.746094 132.589844 80.746094 C 132.214844 80.746094 132.074219 80.449219 132.042969 80.183594 Z M 132.042969 80.183594 "
       id="path86" />
    <path
       style=" stroke:none;fill-rule:nonzero;fill:rgb(12.940979%,11.764526%,11.764526%);fill-opacity:1;"
       d="M 134.644531 82.398438 L 135.753906 82.398438 L 135.753906 82.335938 C 135.550781 82.335938 135.410156 82.335938 135.410156 82.210938 C 135.410156 82.148438 135.457031 81.992188 135.488281 81.914063 L 136.050781 79.835938 C 136.066406 79.773438 136.097656 79.695313 136.066406 79.695313 C 136.035156 79.695313 135.472656 79.820313 135.285156 79.851563 L 135.285156 79.914063 L 135.519531 79.898438 C 135.550781 79.898438 135.660156 79.898438 135.660156 80.023438 C 135.660156 80.054688 135.644531 80.117188 135.644531 80.164063 L 135.082031 82.132813 C 135.035156 82.304688 134.878906 82.320313 134.644531 82.335938 Z M 134.644531 82.398438 "
       id="path88" />
    <path
       style=" stroke:none;fill-rule:nonzero;fill:rgb(12.940979%,11.764526%,11.764526%);fill-opacity:1;"
       d="M 12.03125 18.878906 C 12.234375 18.457031 12.328125 18.082031 12.328125 17.988281 C 12.328125 17.816406 12.21875 17.785156 12.15625 17.785156 C 11.875 17.785156 11.796875 18.503906 11.765625 18.785156 C 11.765625 18.925781 11.328125 19.441406 10.828125 19.441406 C 10.265625 19.441406 10.1875 18.878906 10.1875 18.613281 C 10.1875 18.332031 10.265625 17.769531 10.796875 17.019531 C 10.859375 16.925781 10.859375 16.910156 10.859375 16.878906 C 10.859375 16.832031 10.828125 16.785156 10.765625 16.785156 C 10.734375 16.785156 10.703125 16.800781 10.6875 16.847656 C 10.28125 17.363281 9.9375 18.128906 9.9375 18.910156 C 9.9375 19.613281 10.234375 19.972656 10.734375 19.972656 C 11.171875 19.972656 11.53125 19.691406 11.78125 19.332031 C 11.84375 19.644531 12.015625 19.972656 12.484375 19.972656 C 13.75 19.972656 14.296875 17.972656 14.296875 17.238281 C 14.296875 16.738281 14.03125 16.707031 13.984375 16.707031 C 13.8125 16.707031 13.609375 16.863281 13.609375 17.066406 C 13.609375 17.113281 13.609375 17.175781 13.703125 17.253906 C 13.875 17.410156 13.96875 17.628906 13.96875 17.878906 C 13.96875 18.503906 13.34375 19.441406 12.578125 19.441406 C 12.203125 19.441406 12.0625 19.144531 12.03125 18.878906 Z M 12.03125 18.878906 "
       id="path90" />
    <path
       style=" stroke:none;fill-rule:nonzero;fill:rgb(12.940979%,11.764526%,11.764526%);fill-opacity:1;"
       d="M 16.023438 20.53125 C 15.960938 20.6875 15.898438 20.796875 15.632813 20.796875 L 14.867188 20.796875 L 14.867188 20.765625 L 15.648438 20 C 16.132813 19.5 16.242188 19.328125 16.242188 19.0625 C 16.242188 18.75 16.007813 18.390625 15.585938 18.390625 C 15.492188 18.390625 14.960938 18.40625 14.742188 19.03125 L 14.835938 19.0625 C 14.882813 18.953125 15.039063 18.6875 15.398438 18.6875 C 15.710938 18.6875 15.898438 18.921875 15.898438 19.171875 C 15.898438 19.296875 15.882813 19.53125 15.320313 20.125 L 14.476563 21.03125 L 14.476563 21.09375 L 15.898438 21.09375 L 16.101563 20.5625 Z M 16.023438 20.53125 "
       id="path92" />
    <path
       style=" stroke:none;fill-rule:nonzero;fill:rgb(12.940979%,11.764526%,11.764526%);fill-opacity:1;"
       d="M 53.078125 140.15625 C 53.28125 139.734375 53.375 139.359375 53.375 139.265625 C 53.375 139.09375 53.265625 139.0625 53.203125 139.0625 C 52.921875 139.0625 52.84375 139.78125 52.8125 140.0625 C 52.8125 140.203125 52.375 140.71875 51.875 140.71875 C 51.3125 140.71875 51.234375 140.15625 51.234375 139.890625 C 51.234375 139.609375 51.3125 139.046875 51.84375 138.296875 C 51.90625 138.203125 51.90625 138.1875 51.90625 138.15625 C 51.90625 138.109375 51.875 138.0625 51.8125 138.0625 C 51.78125 138.0625 51.75 138.078125 51.734375 138.125 C 51.328125 138.640625 50.984375 139.40625 50.984375 140.1875 C 50.984375 140.890625 51.28125 141.25 51.78125 141.25 C 52.21875 141.25 52.578125 140.96875 52.828125 140.609375 C 52.890625 140.921875 53.0625 141.25 53.53125 141.25 C 54.796875 141.25 55.34375 139.25 55.34375 138.515625 C 55.34375 138.015625 55.078125 137.984375 55.03125 137.984375 C 54.859375 137.984375 54.65625 138.140625 54.65625 138.34375 C 54.65625 138.390625 54.65625 138.453125 54.75 138.53125 C 54.921875 138.6875 55.015625 138.90625 55.015625 139.15625 C 55.015625 139.78125 54.390625 140.71875 53.625 140.71875 C 53.25 140.71875 53.109375 140.421875 53.078125 140.15625 Z M 53.078125 140.15625 "
       id="path94" />
    <path
       style=" stroke:none;fill-rule:nonzero;fill:rgb(12.940979%,11.764526%,11.764526%);fill-opacity:1;"
       d="M 57.070313 141.808594 C 57.007813 141.964844 56.945313 142.074219 56.679688 142.074219 L 55.914063 142.074219 L 55.914063 142.042969 L 56.695313 141.277344 C 57.179688 140.777344 57.289063 140.605469 57.289063 140.339844 C 57.289063 140.027344 57.054688 139.667969 56.632813 139.667969 C 56.539063 139.667969 56.007813 139.683594 55.789063 140.308594 L 55.882813 140.339844 C 55.929688 140.230469 56.085938 139.964844 56.445313 139.964844 C 56.757813 139.964844 56.945313 140.199219 56.945313 140.449219 C 56.945313 140.574219 56.929688 140.808594 56.367188 141.402344 L 55.523438 142.308594 L 55.523438 142.371094 L 56.945313 142.371094 L 57.148438 141.839844 Z M 57.070313 141.808594 "
       id="path96" />
    <path
       style=" stroke:none;fill-rule:nonzero;fill:rgb(12.940979%,11.764526%,11.764526%);fill-opacity:1;"
       d="M 91.859375 108.4375 C 92.0625 108.015625 92.15625 107.640625 92.15625 107.546875 C 92.15625 107.375 92.046875 107.34375 91.984375 107.34375 C 91.703125 107.34375 91.625 108.0625 91.59375 108.34375 C 91.59375 108.484375 91.15625 109 90.65625 109 C 90.09375 109 90.015625 108.4375 90.015625 108.171875 C 90.015625 107.890625 90.09375 107.328125 90.625 106.578125 C 90.6875 106.484375 90.6875 106.46875 90.6875 106.4375 C 90.6875 106.390625 90.65625 106.34375 90.59375 106.34375 C 90.5625 106.34375 90.53125 106.359375 90.515625 106.40625 C 90.109375 106.921875 89.765625 107.6875 89.765625 108.46875 C 89.765625 109.171875 90.0625 109.53125 90.5625 109.53125 C 91 109.53125 91.359375 109.25 91.609375 108.890625 C 91.671875 109.203125 91.84375 109.53125 92.3125 109.53125 C 93.578125 109.53125 94.125 107.53125 94.125 106.796875 C 94.125 106.296875 93.859375 106.265625 93.8125 106.265625 C 93.640625 106.265625 93.4375 106.421875 93.4375 106.625 C 93.4375 106.671875 93.4375 106.734375 93.53125 106.8125 C 93.703125 106.96875 93.796875 107.1875 93.796875 107.4375 C 93.796875 108.0625 93.171875 109 92.40625 109 C 92.03125 109 91.890625 108.703125 91.859375 108.4375 Z M 91.859375 108.4375 "
       id="path98" />
    <path
       style=" stroke:none;fill-rule:nonzero;fill:rgb(12.940979%,11.764526%,11.764526%);fill-opacity:1;"
       d="M 95.851563 110.089844 C 95.789063 110.246094 95.726563 110.355469 95.460938 110.355469 L 94.695313 110.355469 L 94.695313 110.324219 L 95.476563 109.558594 C 95.960938 109.058594 96.070313 108.886719 96.070313 108.621094 C 96.070313 108.308594 95.835938 107.949219 95.414063 107.949219 C 95.320313 107.949219 94.789063 107.964844 94.570313 108.589844 L 94.664063 108.621094 C 94.710938 108.511719 94.867188 108.246094 95.226563 108.246094 C 95.539063 108.246094 95.726563 108.480469 95.726563 108.730469 C 95.726563 108.855469 95.710938 109.089844 95.148438 109.683594 L 94.304688 110.589844 L 94.304688 110.652344 L 95.726563 110.652344 L 95.929688 110.121094 Z M 95.851563 110.089844 "
       id="path100" />
    <path
       style=" stroke:none;fill-rule:nonzero;fill:rgb(12.940979%,11.764526%,11.764526%);fill-opacity:1;"
       d="M 179.019531 17.8125 C 179.222656 17.390625 179.316406 17.015625 179.316406 16.921875 C 179.316406 16.75 179.207031 16.71875 179.144531 16.71875 C 178.863281 16.71875 178.785156 17.4375 178.753906 17.71875 C 178.753906 17.859375 178.316406 18.375 177.816406 18.375 C 177.253906 18.375 177.175781 17.8125 177.175781 17.546875 C 177.175781 17.265625 177.253906 16.703125 177.785156 15.953125 C 177.847656 15.859375 177.847656 15.84375 177.847656 15.8125 C 177.847656 15.765625 177.816406 15.71875 177.753906 15.71875 C 177.722656 15.71875 177.691406 15.734375 177.675781 15.78125 C 177.269531 16.296875 176.925781 17.0625 176.925781 17.84375 C 176.925781 18.546875 177.222656 18.90625 177.722656 18.90625 C 178.160156 18.90625 178.519531 18.625 178.769531 18.265625 C 178.832031 18.578125 179.003906 18.90625 179.472656 18.90625 C 180.738281 18.90625 181.285156 16.90625 181.285156 16.171875 C 181.285156 15.671875 181.019531 15.640625 180.972656 15.640625 C 180.800781 15.640625 180.597656 15.796875 180.597656 16 C 180.597656 16.046875 180.597656 16.109375 180.691406 16.1875 C 180.863281 16.34375 180.957031 16.5625 180.957031 16.8125 C 180.957031 17.4375 180.332031 18.375 179.566406 18.375 C 179.191406 18.375 179.050781 18.078125 179.019531 17.8125 Z M 179.019531 17.8125 "
       id="path102" />
    <path
       style=" stroke:none;fill-rule:nonzero;fill:rgb(12.940979%,11.764526%,11.764526%);fill-opacity:1;"
       d="M 182.136719 17.761719 C 182.183594 17.683594 182.324219 17.496094 182.574219 17.496094 C 182.730469 17.496094 182.933594 17.589844 182.933594 17.855469 C 182.933594 18.292969 182.371094 18.464844 181.980469 18.511719 L 181.980469 18.589844 C 182.371094 18.558594 182.714844 18.699219 182.714844 19.261719 C 182.714844 19.761719 182.339844 19.902344 182.199219 19.902344 C 181.980469 19.902344 181.855469 19.667969 181.667969 19.667969 C 181.511719 19.667969 181.480469 19.730469 181.480469 19.824219 C 181.480469 19.996094 181.699219 20.058594 181.933594 20.058594 C 182.667969 20.058594 183.042969 19.480469 183.042969 19.042969 C 183.042969 18.605469 182.761719 18.480469 182.652344 18.433594 L 182.652344 18.417969 C 183.074219 18.261719 183.277344 18.121094 183.277344 17.824219 C 183.277344 17.496094 182.996094 17.324219 182.699219 17.324219 C 182.464844 17.324219 182.167969 17.496094 182.058594 17.746094 Z M 182.136719 17.761719 "
       id="path104" />
    <path
       style=" stroke:none;fill-rule:nonzero;fill:rgb(12.940979%,11.764526%,11.764526%);fill-opacity:1;"
       d="M 102.65625 109.769531 C 102.859375 109.347656 102.953125 108.972656 102.953125 108.878906 C 102.953125 108.707031 102.84375 108.675781 102.78125 108.675781 C 102.5 108.675781 102.421875 109.394531 102.390625 109.675781 C 102.390625 109.816406 101.953125 110.332031 101.453125 110.332031 C 100.890625 110.332031 100.8125 109.769531 100.8125 109.503906 C 100.8125 109.222656 100.890625 108.660156 101.421875 107.910156 C 101.484375 107.816406 101.484375 107.800781 101.484375 107.769531 C 101.484375 107.722656 101.453125 107.675781 101.390625 107.675781 C 101.359375 107.675781 101.328125 107.691406 101.3125 107.738281 C 100.90625 108.253906 100.5625 109.019531 100.5625 109.800781 C 100.5625 110.503906 100.859375 110.863281 101.359375 110.863281 C 101.796875 110.863281 102.15625 110.582031 102.40625 110.222656 C 102.46875 110.535156 102.640625 110.863281 103.109375 110.863281 C 104.375 110.863281 104.921875 108.863281 104.921875 108.128906 C 104.921875 107.628906 104.65625 107.597656 104.609375 107.597656 C 104.4375 107.597656 104.234375 107.753906 104.234375 107.957031 C 104.234375 108.003906 104.234375 108.066406 104.328125 108.144531 C 104.5 108.300781 104.59375 108.519531 104.59375 108.769531 C 104.59375 109.394531 103.96875 110.332031 103.203125 110.332031 C 102.828125 110.332031 102.6875 110.035156 102.65625 109.769531 Z M 102.65625 109.769531 "
       id="path106" />
    <path
       style=" stroke:none;fill-rule:nonzero;fill:rgb(12.940979%,11.764526%,11.764526%);fill-opacity:1;"
       d="M 105.773438 109.71875 C 105.820313 109.640625 105.960938 109.453125 106.210938 109.453125 C 106.367188 109.453125 106.570313 109.546875 106.570313 109.8125 C 106.570313 110.25 106.007813 110.421875 105.617188 110.46875 L 105.617188 110.546875 C 106.007813 110.515625 106.351563 110.65625 106.351563 111.21875 C 106.351563 111.71875 105.976563 111.859375 105.835938 111.859375 C 105.617188 111.859375 105.492188 111.625 105.304688 111.625 C 105.148438 111.625 105.117188 111.6875 105.117188 111.78125 C 105.117188 111.953125 105.335938 112.015625 105.570313 112.015625 C 106.304688 112.015625 106.679688 111.4375 106.679688 111 C 106.679688 110.5625 106.398438 110.4375 106.289063 110.390625 L 106.289063 110.375 C 106.710938 110.21875 106.914063 110.078125 106.914063 109.78125 C 106.914063 109.453125 106.632813 109.28125 106.335938 109.28125 C 106.101563 109.28125 105.804688 109.453125 105.695313 109.703125 Z M 105.773438 109.71875 "
       id="path108" />
    <path
       style=" stroke:none;fill-rule:nonzero;fill:rgb(12.940979%,11.764526%,11.764526%);fill-opacity:1;"
       d="M 163.960938 130.027344 C 164.164063 129.605469 164.257813 129.230469 164.257813 129.136719 C 164.257813 128.964844 164.148438 128.933594 164.085938 128.933594 C 163.804688 128.933594 163.726563 129.652344 163.695313 129.933594 C 163.695313 130.074219 163.257813 130.589844 162.757813 130.589844 C 162.195313 130.589844 162.117188 130.027344 162.117188 129.761719 C 162.117188 129.480469 162.195313 128.917969 162.726563 128.167969 C 162.789063 128.074219 162.789063 128.058594 162.789063 128.027344 C 162.789063 127.980469 162.757813 127.933594 162.695313 127.933594 C 162.664063 127.933594 162.632813 127.949219 162.617188 127.996094 C 162.210938 128.511719 161.867188 129.277344 161.867188 130.058594 C 161.867188 130.761719 162.164063 131.121094 162.664063 131.121094 C 163.101563 131.121094 163.460938 130.839844 163.710938 130.480469 C 163.773438 130.792969 163.945313 131.121094 164.414063 131.121094 C 165.679688 131.121094 166.226563 129.121094 166.226563 128.386719 C 166.226563 127.886719 165.960938 127.855469 165.914063 127.855469 C 165.742188 127.855469 165.539063 128.011719 165.539063 128.214844 C 165.539063 128.261719 165.539063 128.324219 165.632813 128.402344 C 165.804688 128.558594 165.898438 128.777344 165.898438 129.027344 C 165.898438 129.652344 165.273438 130.589844 164.507813 130.589844 C 164.132813 130.589844 163.992188 130.292969 163.960938 130.027344 Z M 163.960938 130.027344 "
       id="path110" />
    <path
       style=" stroke:none;fill-rule:nonzero;fill:rgb(12.940979%,11.764526%,11.764526%);fill-opacity:1;"
       d="M 167.078125 129.976563 C 167.125 129.898438 167.265625 129.710938 167.515625 129.710938 C 167.671875 129.710938 167.875 129.804688 167.875 130.070313 C 167.875 130.507813 167.3125 130.679688 166.921875 130.726563 L 166.921875 130.804688 C 167.3125 130.773438 167.65625 130.914063 167.65625 131.476563 C 167.65625 131.976563 167.28125 132.117188 167.140625 132.117188 C 166.921875 132.117188 166.796875 131.882813 166.609375 131.882813 C 166.453125 131.882813 166.421875 131.945313 166.421875 132.039063 C 166.421875 132.210938 166.640625 132.273438 166.875 132.273438 C 167.609375 132.273438 167.984375 131.695313 167.984375 131.257813 C 167.984375 130.820313 167.703125 130.695313 167.59375 130.648438 L 167.59375 130.632813 C 168.015625 130.476563 168.21875 130.335938 168.21875 130.039063 C 168.21875 129.710938 167.9375 129.539063 167.640625 129.539063 C 167.40625 129.539063 167.109375 129.710938 167 129.960938 Z M 167.078125 129.976563 "
       id="path112" />
    <path
       style=" stroke:none;fill-rule:nonzero;fill:rgb(12.940979%,11.764526%,11.764526%);fill-opacity:1;"
       d="M 131.839844 86.582031 C 132.042969 86.160156 132.136719 85.785156 132.136719 85.691406 C 132.136719 85.519531 132.027344 85.488281 131.964844 85.488281 C 131.683594 85.488281 131.605469 86.207031 131.574219 86.488281 C 131.574219 86.628906 131.136719 87.144531 130.636719 87.144531 C 130.074219 87.144531 129.996094 86.582031 129.996094 86.316406 C 129.996094 86.035156 130.074219 85.472656 130.605469 84.722656 C 130.667969 84.628906 130.667969 84.613281 130.667969 84.582031 C 130.667969 84.535156 130.636719 84.488281 130.574219 84.488281 C 130.542969 84.488281 130.511719 84.503906 130.496094 84.550781 C 130.089844 85.066406 129.746094 85.832031 129.746094 86.613281 C 129.746094 87.316406 130.042969 87.675781 130.542969 87.675781 C 130.980469 87.675781 131.339844 87.394531 131.589844 87.035156 C 131.652344 87.347656 131.824219 87.675781 132.292969 87.675781 C 133.558594 87.675781 134.105469 85.675781 134.105469 84.941406 C 134.105469 84.441406 133.839844 84.410156 133.792969 84.410156 C 133.621094 84.410156 133.417969 84.566406 133.417969 84.769531 C 133.417969 84.816406 133.417969 84.878906 133.511719 84.957031 C 133.683594 85.113281 133.777344 85.332031 133.777344 85.582031 C 133.777344 86.207031 133.152344 87.144531 132.386719 87.144531 C 132.011719 87.144531 131.871094 86.847656 131.839844 86.582031 Z M 131.839844 86.582031 "
       id="path114" />
    <path
       style=" stroke:none;fill-rule:nonzero;fill:rgb(12.940979%,11.764526%,11.764526%);fill-opacity:1;"
       d="M 135.347656 87.828125 L 134.503906 87.828125 L 134.503906 87.8125 L 135.707031 86.546875 L 135.722656 86.546875 Z M 136.050781 87.828125 L 135.675781 87.828125 L 136.160156 86.09375 L 135.988281 86.09375 L 134.316406 87.8125 L 134.238281 88.078125 L 135.285156 88.078125 L 135.097656 88.796875 L 135.410156 88.796875 L 135.597656 88.09375 L 135.988281 88.09375 Z M 136.050781 87.828125 "
       id="path116" />
    <path
       style=" stroke:none;fill-rule:nonzero;fill:rgb(12.940979%,11.764526%,11.764526%);fill-opacity:1;"
       d="M 63.074219 140.554688 C 63.277344 140.132813 63.371094 139.757813 63.371094 139.664063 C 63.371094 139.492188 63.261719 139.460938 63.199219 139.460938 C 62.917969 139.460938 62.839844 140.179688 62.808594 140.460938 C 62.808594 140.601563 62.371094 141.117188 61.871094 141.117188 C 61.308594 141.117188 61.230469 140.554688 61.230469 140.289063 C 61.230469 140.007813 61.308594 139.445313 61.839844 138.695313 C 61.902344 138.601563 61.902344 138.585938 61.902344 138.554688 C 61.902344 138.507813 61.871094 138.460938 61.808594 138.460938 C 61.777344 138.460938 61.746094 138.476563 61.730469 138.523438 C 61.324219 139.039063 60.980469 139.804688 60.980469 140.585938 C 60.980469 141.289063 61.277344 141.648438 61.777344 141.648438 C 62.214844 141.648438 62.574219 141.367188 62.824219 141.007813 C 62.886719 141.320313 63.058594 141.648438 63.527344 141.648438 C 64.792969 141.648438 65.339844 139.648438 65.339844 138.914063 C 65.339844 138.414063 65.074219 138.382813 65.027344 138.382813 C 64.855469 138.382813 64.652344 138.539063 64.652344 138.742188 C 64.652344 138.789063 64.652344 138.851563 64.746094 138.929688 C 64.917969 139.085938 65.011719 139.304688 65.011719 139.554688 C 65.011719 140.179688 64.386719 141.117188 63.621094 141.117188 C 63.246094 141.117188 63.105469 140.820313 63.074219 140.554688 Z M 63.074219 140.554688 "
       id="path118" />
    <path
       style=" stroke:none;fill-rule:nonzero;fill:rgb(12.940979%,11.764526%,11.764526%);fill-opacity:1;"
       d="M 66.582031 141.800781 L 65.738281 141.800781 L 65.738281 141.785156 L 66.941406 140.519531 L 66.957031 140.519531 Z M 67.285156 141.800781 L 66.910156 141.800781 L 67.394531 140.066406 L 67.222656 140.066406 L 65.550781 141.785156 L 65.472656 142.050781 L 66.519531 142.050781 L 66.332031 142.769531 L 66.644531 142.769531 L 66.832031 142.066406 L 67.222656 142.066406 Z M 67.285156 141.800781 "
       id="path120" />
    <path
       style=" stroke:none;fill-rule:nonzero;fill:rgb(12.940979%,11.764526%,11.764526%);fill-opacity:1;"
       d="M 160.09375 137.355469 C 160.296875 136.933594 160.390625 136.558594 160.390625 136.464844 C 160.390625 136.292969 160.28125 136.261719 160.21875 136.261719 C 159.9375 136.261719 159.859375 136.980469 159.828125 137.261719 C 159.828125 137.402344 159.390625 137.917969 158.890625 137.917969 C 158.328125 137.917969 158.25 137.355469 158.25 137.089844 C 158.25 136.808594 158.328125 136.246094 158.859375 135.496094 C 158.921875 135.402344 158.921875 135.386719 158.921875 135.355469 C 158.921875 135.308594 158.890625 135.261719 158.828125 135.261719 C 158.796875 135.261719 158.765625 135.277344 158.75 135.324219 C 158.34375 135.839844 158 136.605469 158 137.386719 C 158 138.089844 158.296875 138.449219 158.796875 138.449219 C 159.234375 138.449219 159.59375 138.167969 159.84375 137.808594 C 159.90625 138.121094 160.078125 138.449219 160.546875 138.449219 C 161.8125 138.449219 162.359375 136.449219 162.359375 135.714844 C 162.359375 135.214844 162.09375 135.183594 162.046875 135.183594 C 161.875 135.183594 161.671875 135.339844 161.671875 135.542969 C 161.671875 135.589844 161.671875 135.652344 161.765625 135.730469 C 161.9375 135.886719 162.03125 136.105469 162.03125 136.355469 C 162.03125 136.980469 161.40625 137.917969 160.640625 137.917969 C 160.265625 137.917969 160.125 137.621094 160.09375 137.355469 Z M 160.09375 137.355469 "
       id="path122" />
    <path
       style=" stroke:none;fill-rule:nonzero;fill:rgb(12.940979%,11.764526%,11.764526%);fill-opacity:1;"
       d="M 163.601563 138.601563 L 162.757813 138.601563 L 162.757813 138.585938 L 163.960938 137.320313 L 163.976563 137.320313 Z M 164.304688 138.601563 L 163.929688 138.601563 L 164.414063 136.867188 L 164.242188 136.867188 L 162.570313 138.585938 L 162.492188 138.851563 L 163.539063 138.851563 L 163.351563 139.570313 L 163.664063 139.570313 L 163.851563 138.867188 L 164.242188 138.867188 Z M 164.304688 138.601563 "
       id="path124" />
    <path
       style=" stroke:none;fill-rule:nonzero;fill:rgb(12.940979%,11.764526%,11.764526%);fill-opacity:1;"
       d="M 159.335938 89.777344 C 159.617188 89.199219 159.710938 88.699219 159.710938 88.574219 C 159.710938 88.355469 159.585938 88.324219 159.507813 88.324219 C 159.117188 88.324219 159.023438 89.261719 158.992188 89.652344 C 158.976563 89.839844 158.398438 90.511719 157.726563 90.511719 C 156.976563 90.511719 156.867188 89.761719 156.867188 89.417969 C 156.867188 89.042969 156.976563 88.277344 157.679688 87.292969 C 157.773438 87.167969 157.773438 87.152344 157.773438 87.105469 C 157.773438 87.042969 157.726563 86.980469 157.648438 86.980469 C 157.601563 86.980469 157.570313 87.011719 157.539063 87.058594 C 157.007813 87.746094 156.539063 88.761719 156.539063 89.808594 C 156.539063 90.746094 156.929688 91.230469 157.601563 91.230469 C 158.179688 91.230469 158.679688 90.839844 158.992188 90.355469 C 159.070313 90.792969 159.304688 91.230469 159.929688 91.230469 C 161.617188 91.230469 162.351563 88.558594 162.351563 87.574219 C 162.351563 86.902344 162.007813 86.871094 161.929688 86.871094 C 161.710938 86.871094 161.445313 87.089844 161.445313 87.355469 C 161.445313 87.402344 161.445313 87.511719 161.570313 87.605469 C 161.789063 87.808594 161.914063 88.105469 161.914063 88.433594 C 161.914063 89.261719 161.070313 90.511719 160.054688 90.511719 C 159.554688 90.511719 159.382813 90.121094 159.335938 89.777344 Z M 159.335938 89.777344 "
       id="path126" />
    <path
       style=" stroke:none;fill-rule:nonzero;fill:rgb(12.940979%,11.764526%,11.764526%);fill-opacity:1;"
       d="M 163.394531 89.601563 C 163.457031 89.507813 163.628906 89.273438 163.925781 89.273438 C 164.113281 89.273438 164.347656 89.398438 164.347656 89.710938 C 164.347656 90.226563 163.675781 90.445313 163.207031 90.507813 L 163.207031 90.585938 C 163.675781 90.554688 164.097656 90.726563 164.097656 91.398438 C 164.097656 92.007813 163.644531 92.164063 163.472656 92.164063 C 163.207031 92.164063 163.050781 91.882813 162.832031 91.882813 C 162.660156 91.882813 162.613281 91.976563 162.613281 92.070313 C 162.613281 92.289063 162.863281 92.351563 163.160156 92.351563 C 164.035156 92.351563 164.472656 91.679688 164.472656 91.132813 C 164.472656 90.617188 164.144531 90.460938 164.019531 90.414063 L 164.019531 90.398438 C 164.519531 90.210938 164.769531 90.039063 164.769531 89.679688 C 164.769531 89.273438 164.425781 89.070313 164.066406 89.070313 C 163.785156 89.070313 163.425781 89.289063 163.316406 89.570313 Z M 163.394531 89.601563 "
       id="path128" />
    <path
       style=" stroke:none;fill-rule:nonzero;fill:rgb(12.940979%,11.764526%,11.764526%);fill-opacity:1;"
       d="M 33.265625 90.3125 C 33.546875 89.734375 33.640625 89.234375 33.640625 89.109375 C 33.640625 88.890625 33.515625 88.859375 33.4375 88.859375 C 33.046875 88.859375 32.953125 89.796875 32.921875 90.1875 C 32.90625 90.375 32.328125 91.046875 31.65625 91.046875 C 30.90625 91.046875 30.796875 90.296875 30.796875 89.953125 C 30.796875 89.578125 30.90625 88.8125 31.609375 87.828125 C 31.703125 87.703125 31.703125 87.6875 31.703125 87.640625 C 31.703125 87.578125 31.65625 87.515625 31.578125 87.515625 C 31.53125 87.515625 31.5 87.546875 31.46875 87.59375 C 30.9375 88.28125 30.46875 89.296875 30.46875 90.34375 C 30.46875 91.28125 30.859375 91.765625 31.53125 91.765625 C 32.109375 91.765625 32.609375 91.375 32.921875 90.890625 C 33 91.328125 33.234375 91.765625 33.859375 91.765625 C 35.546875 91.765625 36.28125 89.09375 36.28125 88.109375 C 36.28125 87.4375 35.9375 87.40625 35.859375 87.40625 C 35.640625 87.40625 35.375 87.625 35.375 87.890625 C 35.375 87.9375 35.375 88.046875 35.5 88.140625 C 35.71875 88.34375 35.84375 88.640625 35.84375 88.96875 C 35.84375 89.796875 35 91.046875 33.984375 91.046875 C 33.484375 91.046875 33.3125 90.65625 33.265625 90.3125 Z M 33.265625 90.3125 "
       id="path130" />
    <path
       style=" stroke:none;fill-rule:nonzero;fill:rgb(12.940979%,11.764526%,11.764526%);fill-opacity:1;"
       d="M 38.382813 92.183594 C 38.304688 92.355469 38.226563 92.496094 37.898438 92.496094 L 36.992188 92.496094 L 36.992188 92.464844 L 37.914063 91.542969 C 38.507813 90.949219 38.632813 90.730469 38.632813 90.417969 C 38.632813 90.058594 38.367188 89.605469 37.851563 89.605469 C 37.726563 89.605469 37.101563 89.636719 36.851563 90.386719 L 36.945313 90.417969 C 37.007813 90.292969 37.195313 89.964844 37.632813 89.964844 C 37.992188 89.964844 38.210938 90.246094 38.210938 90.542969 C 38.210938 90.699219 38.195313 90.980469 37.523438 91.699219 L 36.523438 92.777344 L 36.523438 92.855469 L 38.226563 92.855469 L 38.460938 92.214844 Z M 38.382813 92.183594 "
       id="path132" />
    <path
       style=" stroke:none;fill-rule:nonzero;fill:rgb(12.940979%,11.764526%,11.764526%);fill-opacity:1;"
       d="M 96.699219 34.070313 C 96.980469 33.492188 97.074219 32.992188 97.074219 32.867188 C 97.074219 32.648438 96.949219 32.617188 96.871094 32.617188 C 96.480469 32.617188 96.386719 33.554688 96.355469 33.945313 C 96.339844 34.132813 95.761719 34.804688 95.089844 34.804688 C 94.339844 34.804688 94.230469 34.054688 94.230469 33.710938 C 94.230469 33.335938 94.339844 32.570313 95.042969 31.585938 C 95.136719 31.460938 95.136719 31.445313 95.136719 31.398438 C 95.136719 31.335938 95.089844 31.273438 95.011719 31.273438 C 94.964844 31.273438 94.933594 31.304688 94.902344 31.351563 C 94.371094 32.039063 93.902344 33.054688 93.902344 34.101563 C 93.902344 35.039063 94.292969 35.523438 94.964844 35.523438 C 95.542969 35.523438 96.042969 35.132813 96.355469 34.648438 C 96.433594 35.085938 96.667969 35.523438 97.292969 35.523438 C 98.980469 35.523438 99.714844 32.851563 99.714844 31.867188 C 99.714844 31.195313 99.371094 31.164063 99.292969 31.164063 C 99.074219 31.164063 98.808594 31.382813 98.808594 31.648438 C 98.808594 31.695313 98.808594 31.804688 98.933594 31.898438 C 99.152344 32.101563 99.277344 32.398438 99.277344 32.726563 C 99.277344 33.554688 98.433594 34.804688 97.417969 34.804688 C 96.917969 34.804688 96.746094 34.414063 96.699219 34.070313 Z M 96.699219 34.070313 "
       id="path134" />
    <path
       style=" stroke:none;fill-rule:nonzero;fill:rgb(12.940979%,11.764526%,11.764526%);fill-opacity:1;"
       d="M 100.132813 36.613281 L 101.476563 36.613281 L 101.476563 36.535156 C 101.226563 36.550781 101.054688 36.535156 101.054688 36.378906 C 101.054688 36.300781 101.117188 36.128906 101.148438 36.035156 L 101.835938 33.550781 C 101.851563 33.472656 101.882813 33.363281 101.835938 33.363281 C 101.804688 33.363281 101.132813 33.519531 100.914063 33.550781 L 100.914063 33.628906 L 101.179688 33.613281 C 101.226563 33.613281 101.367188 33.613281 101.367188 33.769531 C 101.367188 33.800781 101.351563 33.878906 101.335938 33.925781 L 100.664063 36.285156 C 100.601563 36.503906 100.414063 36.519531 100.132813 36.550781 Z M 100.132813 36.613281 "
       id="path136" />
    <path
       style=" stroke:none;fill-rule:nonzero;fill:rgb(12.940979%,11.764526%,11.764526%);fill-opacity:1;"
       d="M 96.167969 129.226563 C 96.449219 128.648438 96.542969 128.148438 96.542969 128.023438 C 96.542969 127.804688 96.417969 127.773438 96.339844 127.773438 C 95.949219 127.773438 95.855469 128.710938 95.824219 129.101563 C 95.808594 129.289063 95.230469 129.960938 94.558594 129.960938 C 93.808594 129.960938 93.699219 129.210938 93.699219 128.867188 C 93.699219 128.492188 93.808594 127.726563 94.511719 126.742188 C 94.605469 126.617188 94.605469 126.601563 94.605469 126.554688 C 94.605469 126.492188 94.558594 126.429688 94.480469 126.429688 C 94.433594 126.429688 94.402344 126.460938 94.371094 126.507813 C 93.839844 127.195313 93.371094 128.210938 93.371094 129.257813 C 93.371094 130.195313 93.761719 130.679688 94.433594 130.679688 C 95.011719 130.679688 95.511719 130.289063 95.824219 129.804688 C 95.902344 130.242188 96.136719 130.679688 96.761719 130.679688 C 98.449219 130.679688 99.183594 128.007813 99.183594 127.023438 C 99.183594 126.351563 98.839844 126.320313 98.761719 126.320313 C 98.542969 126.320313 98.277344 126.539063 98.277344 126.804688 C 98.277344 126.851563 98.277344 126.960938 98.402344 127.054688 C 98.621094 127.257813 98.746094 127.554688 98.746094 127.882813 C 98.746094 128.710938 97.902344 129.960938 96.886719 129.960938 C 96.386719 129.960938 96.214844 129.570313 96.167969 129.226563 Z M 96.167969 129.226563 "
       id="path138" />
    <path
       style=" stroke:none;fill-rule:nonzero;fill:rgb(12.940979%,11.764526%,11.764526%);fill-opacity:1;"
       d="M 100.691406 130.613281 L 99.675781 130.613281 L 99.675781 130.597656 L 101.128906 129.066406 L 101.160156 129.066406 Z M 101.535156 130.613281 L 101.082031 130.613281 L 101.660156 128.519531 L 101.457031 128.519531 L 99.457031 130.597656 L 99.363281 130.910156 L 100.628906 130.910156 L 100.394531 131.769531 L 100.769531 131.769531 L 100.988281 130.925781 L 101.472656 130.925781 Z M 101.535156 130.613281 "
       id="path140" />
    <path
       style=" stroke:none;fill-rule:nonzero;fill:rgb(0%,0%,0%);fill-opacity:1;"
       d="M 193.140625 0.132813 L 191.359375 0.132813 L 191.359375 0.242188 C 191.671875 0.289063 191.859375 0.304688 191.859375 0.554688 C 191.859375 0.679688 191.828125 0.867188 191.78125 1.007813 L 191.453125 2.179688 L 189.390625 2.179688 L 189.78125 0.773438 C 189.921875 0.304688 190.265625 0.273438 190.515625 0.242188 L 190.515625 0.132813 L 188.546875 0.132813 L 188.546875 0.242188 C 188.90625 0.273438 189.09375 0.304688 189.09375 0.554688 C 189.09375 0.679688 189.0625 0.867188 189.015625 1.007813 L 188.140625 4.195313 C 188.015625 4.632813 187.90625 4.648438 187.546875 4.726563 L 187.546875 4.835938 L 189.328125 4.835938 L 189.328125 4.726563 C 188.953125 4.664063 188.734375 4.648438 188.828125 4.242188 L 189.3125 2.492188 L 191.359375 2.492188 L 190.890625 4.195313 C 190.765625 4.648438 190.5 4.679688 190.171875 4.726563 L 190.171875 4.835938 L 192.140625 4.835938 L 192.140625 4.726563 C 191.75 4.679688 191.484375 4.664063 191.59375 4.242188 L 192.546875 0.773438 C 192.671875 0.320313 192.78125 0.304688 193.140625 0.242188 Z M 193.140625 0.132813 "
       id="path142" />
    <path
       style=" stroke:none;fill-rule:nonzero;fill:rgb(12.940979%,11.764526%,11.764526%);fill-opacity:1;"
       d="M 193.007813 6.035156 L 194.117188 6.035156 L 194.117188 5.972656 C 193.914063 5.972656 193.773438 5.972656 193.773438 5.847656 C 193.773438 5.785156 193.820313 5.628906 193.851563 5.550781 L 194.414063 3.472656 C 194.429688 3.410156 194.460938 3.332031 194.429688 3.332031 C 194.398438 3.332031 193.835938 3.457031 193.648438 3.488281 L 193.648438 3.550781 L 193.882813 3.535156 C 193.914063 3.535156 194.023438 3.535156 194.023438 3.660156 C 194.023438 3.691406 194.007813 3.753906 194.007813 3.800781 L 193.445313 5.769531 C 193.398438 5.941406 193.242188 5.957031 193.007813 5.972656 Z M 193.007813 6.035156 "
       id="path144" />
    <path
       style=" stroke:none;fill-rule:nonzero;fill:rgb(12.940979%,11.764526%,11.764526%);fill-opacity:1;"
       d="M 195.523438 3.769531 C 195.570313 3.691406 195.710938 3.503906 195.960938 3.503906 C 196.117188 3.503906 196.320313 3.597656 196.320313 3.863281 C 196.320313 4.300781 195.757813 4.472656 195.367188 4.519531 L 195.367188 4.597656 C 195.757813 4.566406 196.101563 4.707031 196.101563 5.269531 C 196.101563 5.769531 195.726563 5.910156 195.585938 5.910156 C 195.367188 5.910156 195.242188 5.675781 195.054688 5.675781 C 194.898438 5.675781 194.867188 5.738281 194.867188 5.832031 C 194.867188 6.003906 195.085938 6.066406 195.320313 6.066406 C 196.054688 6.066406 196.429688 5.488281 196.429688 5.050781 C 196.429688 4.613281 196.148438 4.488281 196.039063 4.441406 L 196.039063 4.425781 C 196.460938 4.269531 196.664063 4.128906 196.664063 3.832031 C 196.664063 3.503906 196.382813 3.332031 196.085938 3.332031 C 195.851563 3.332031 195.554688 3.503906 195.445313 3.753906 Z M 195.523438 3.769531 "
       id="path146" />
    <path
       style=" stroke:none;fill-rule:nonzero;fill:rgb(0%,0%,0%);fill-opacity:1;"
       d="M 9.628906 3.730469 L 7.847656 3.730469 L 7.847656 3.839844 C 8.160156 3.886719 8.347656 3.902344 8.347656 4.152344 C 8.347656 4.277344 8.316406 4.464844 8.269531 4.605469 L 7.941406 5.777344 L 5.878906 5.777344 L 6.269531 4.371094 C 6.410156 3.902344 6.753906 3.871094 7.003906 3.839844 L 7.003906 3.730469 L 5.035156 3.730469 L 5.035156 3.839844 C 5.394531 3.871094 5.582031 3.902344 5.582031 4.152344 C 5.582031 4.277344 5.550781 4.464844 5.503906 4.605469 L 4.628906 7.792969 C 4.503906 8.230469 4.394531 8.246094 4.035156 8.324219 L 4.035156 8.433594 L 5.816406 8.433594 L 5.816406 8.324219 C 5.441406 8.261719 5.222656 8.246094 5.316406 7.839844 L 5.800781 6.089844 L 7.847656 6.089844 L 7.378906 7.792969 C 7.253906 8.246094 6.988281 8.277344 6.660156 8.324219 L 6.660156 8.433594 L 8.628906 8.433594 L 8.628906 8.324219 C 8.238281 8.277344 7.972656 8.261719 8.082031 7.839844 L 9.035156 4.371094 C 9.160156 3.917969 9.269531 3.902344 9.628906 3.839844 Z M 9.628906 3.730469 "
       id="path148" />
    <path
       style=" stroke:none;fill-rule:nonzero;fill:rgb(12.940979%,11.764526%,11.764526%);fill-opacity:1;"
       d="M 9.496094 9.632813 L 10.605469 9.632813 L 10.605469 9.570313 C 10.402344 9.570313 10.261719 9.570313 10.261719 9.445313 C 10.261719 9.382813 10.308594 9.226563 10.339844 9.148438 L 10.902344 7.070313 C 10.917969 7.007813 10.949219 6.929688 10.917969 6.929688 C 10.886719 6.929688 10.324219 7.054688 10.136719 7.085938 L 10.136719 7.148438 L 10.371094 7.132813 C 10.402344 7.132813 10.511719 7.132813 10.511719 7.257813 C 10.511719 7.289063 10.496094 7.351563 10.496094 7.398438 L 9.933594 9.367188 C 9.886719 9.539063 9.730469 9.554688 9.496094 9.570313 Z M 9.496094 9.632813 "
       id="path150" />
    <path
       style=" stroke:none;fill-rule:nonzero;fill:rgb(12.940979%,11.764526%,11.764526%);fill-opacity:1;"
       d="M 12.886719 9.070313 C 12.824219 9.226563 12.761719 9.335938 12.496094 9.335938 L 11.730469 9.335938 L 11.730469 9.304688 L 12.511719 8.539063 C 12.996094 8.039063 13.105469 7.867188 13.105469 7.601563 C 13.105469 7.289063 12.871094 6.929688 12.449219 6.929688 C 12.355469 6.929688 11.824219 6.945313 11.605469 7.570313 L 11.699219 7.601563 C 11.746094 7.492188 11.902344 7.226563 12.261719 7.226563 C 12.574219 7.226563 12.761719 7.460938 12.761719 7.710938 C 12.761719 7.835938 12.746094 8.070313 12.183594 8.664063 L 11.339844 9.570313 L 11.339844 9.632813 L 12.761719 9.632813 L 12.964844 9.101563 Z M 12.886719 9.070313 "
       id="path152" />
    <path
       style=" stroke:none;fill-rule:nonzero;fill:rgb(0%,0%,0%);fill-opacity:1;"
       d="M 205.136719 81.5625 L 203.355469 81.5625 L 203.355469 81.671875 C 203.667969 81.71875 203.855469 81.734375 203.855469 81.984375 C 203.855469 82.109375 203.824219 82.296875 203.777344 82.4375 L 203.449219 83.609375 L 201.386719 83.609375 L 201.777344 82.203125 C 201.917969 81.734375 202.261719 81.703125 202.511719 81.671875 L 202.511719 81.5625 L 200.542969 81.5625 L 200.542969 81.671875 C 200.902344 81.703125 201.089844 81.734375 201.089844 81.984375 C 201.089844 82.109375 201.058594 82.296875 201.011719 82.4375 L 200.136719 85.625 C 200.011719 86.0625 199.902344 86.078125 199.542969 86.15625 L 199.542969 86.265625 L 201.324219 86.265625 L 201.324219 86.15625 C 200.949219 86.09375 200.730469 86.078125 200.824219 85.671875 L 201.308594 83.921875 L 203.355469 83.921875 L 202.886719 85.625 C 202.761719 86.078125 202.496094 86.109375 202.167969 86.15625 L 202.167969 86.265625 L 204.136719 86.265625 L 204.136719 86.15625 C 203.746094 86.109375 203.480469 86.09375 203.589844 85.671875 L 204.542969 82.203125 C 204.667969 81.75 204.777344 81.734375 205.136719 81.671875 Z M 205.136719 81.5625 "
       id="path154" />
    <path
       style=" stroke:none;fill-rule:nonzero;fill:rgb(12.940979%,11.764526%,11.764526%);fill-opacity:1;"
       d="M 205.003906 87.464844 L 206.113281 87.464844 L 206.113281 87.402344 C 205.910156 87.402344 205.769531 87.402344 205.769531 87.277344 C 205.769531 87.214844 205.816406 87.058594 205.847656 86.980469 L 206.410156 84.902344 C 206.425781 84.839844 206.457031 84.761719 206.425781 84.761719 C 206.394531 84.761719 205.832031 84.886719 205.644531 84.917969 L 205.644531 84.980469 L 205.878906 84.964844 C 205.910156 84.964844 206.019531 84.964844 206.019531 85.089844 C 206.019531 85.121094 206.003906 85.183594 206.003906 85.230469 L 205.441406 87.199219 C 205.394531 87.371094 205.238281 87.386719 205.003906 87.402344 Z M 205.003906 87.464844 "
       id="path156" />
    <g
       clip-path="url(#clip2)"
       clip-rule="nonzero"
       id="g160">
      <path
         style=" stroke:none;fill-rule:nonzero;fill:rgb(12.940979%,11.764526%,11.764526%);fill-opacity:1;"
         d="M 207.910156 86.496094 L 207.066406 86.496094 L 207.066406 86.480469 L 208.269531 85.214844 L 208.285156 85.214844 Z M 208.613281 86.496094 L 208.238281 86.496094 L 208.722656 84.761719 L 208.550781 84.761719 L 206.878906 86.480469 L 206.800781 86.746094 L 207.847656 86.746094 L 207.660156 87.464844 L 207.972656 87.464844 L 208.160156 86.761719 L 208.550781 86.761719 Z M 208.613281 86.496094 "
         id="path158" />
    </g>
    <path
       style=" stroke:none;fill-rule:nonzero;fill:rgb(0%,0%,0%);fill-opacity:1;"
       d="M 116.378906 0.265625 L 114.597656 0.265625 L 114.597656 0.375 C 114.910156 0.421875 115.097656 0.4375 115.097656 0.6875 C 115.097656 0.8125 115.066406 1 115.019531 1.140625 L 114.691406 2.3125 L 112.628906 2.3125 L 113.019531 0.90625 C 113.160156 0.4375 113.503906 0.40625 113.753906 0.375 L 113.753906 0.265625 L 111.785156 0.265625 L 111.785156 0.375 C 112.144531 0.40625 112.332031 0.4375 112.332031 0.6875 C 112.332031 0.8125 112.300781 1 112.253906 1.140625 L 111.378906 4.328125 C 111.253906 4.765625 111.144531 4.78125 110.785156 4.859375 L 110.785156 4.96875 L 112.566406 4.96875 L 112.566406 4.859375 C 112.191406 4.796875 111.972656 4.78125 112.066406 4.375 L 112.550781 2.625 L 114.597656 2.625 L 114.128906 4.328125 C 114.003906 4.78125 113.738281 4.8125 113.410156 4.859375 L 113.410156 4.96875 L 115.378906 4.96875 L 115.378906 4.859375 C 114.988281 4.8125 114.722656 4.796875 114.832031 4.375 L 115.785156 0.90625 C 115.910156 0.453125 116.019531 0.4375 116.378906 0.375 Z M 116.378906 0.265625 "
       id="path162" />
    <path
       style=" stroke:none;fill-rule:nonzero;fill:rgb(12.940979%,11.764526%,11.764526%);fill-opacity:1;"
       d="M 117.636719 5.605469 C 117.574219 5.761719 117.511719 5.871094 117.246094 5.871094 L 116.480469 5.871094 L 116.480469 5.839844 L 117.261719 5.074219 C 117.746094 4.574219 117.855469 4.402344 117.855469 4.136719 C 117.855469 3.824219 117.621094 3.464844 117.199219 3.464844 C 117.105469 3.464844 116.574219 3.480469 116.355469 4.105469 L 116.449219 4.136719 C 116.496094 4.027344 116.652344 3.761719 117.011719 3.761719 C 117.324219 3.761719 117.511719 3.996094 117.511719 4.246094 C 117.511719 4.371094 117.496094 4.605469 116.933594 5.199219 L 116.089844 6.105469 L 116.089844 6.167969 L 117.511719 6.167969 L 117.714844 5.636719 Z M 117.636719 5.605469 "
       id="path164" />
    <path
       style=" stroke:none;fill-rule:nonzero;fill:rgb(12.940979%,11.764526%,11.764526%);fill-opacity:1;"
       d="M 118.761719 3.902344 C 118.808594 3.824219 118.949219 3.636719 119.199219 3.636719 C 119.355469 3.636719 119.558594 3.730469 119.558594 3.996094 C 119.558594 4.433594 118.996094 4.605469 118.605469 4.652344 L 118.605469 4.730469 C 118.996094 4.699219 119.339844 4.839844 119.339844 5.402344 C 119.339844 5.902344 118.964844 6.042969 118.824219 6.042969 C 118.605469 6.042969 118.480469 5.808594 118.292969 5.808594 C 118.136719 5.808594 118.105469 5.871094 118.105469 5.964844 C 118.105469 6.136719 118.324219 6.199219 118.558594 6.199219 C 119.292969 6.199219 119.667969 5.621094 119.667969 5.183594 C 119.667969 4.746094 119.386719 4.621094 119.277344 4.574219 L 119.277344 4.558594 C 119.699219 4.402344 119.902344 4.261719 119.902344 3.964844 C 119.902344 3.636719 119.621094 3.464844 119.324219 3.464844 C 119.089844 3.464844 118.792969 3.636719 118.683594 3.886719 Z M 118.761719 3.902344 "
       id="path166" />
    <path
       style=" stroke:none;fill-rule:nonzero;fill:rgb(0%,0%,0%);fill-opacity:1;"
       d="M 138.5 0 L 136.71875 0 L 136.71875 0.109375 C 137.03125 0.15625 137.21875 0.171875 137.21875 0.421875 C 137.21875 0.546875 137.1875 0.734375 137.140625 0.875 L 136.8125 2.046875 L 134.75 2.046875 L 135.140625 0.640625 C 135.28125 0.171875 135.625 0.140625 135.875 0.109375 L 135.875 0 L 133.90625 0 L 133.90625 0.109375 C 134.265625 0.140625 134.453125 0.171875 134.453125 0.421875 C 134.453125 0.546875 134.421875 0.734375 134.375 0.875 L 133.5 4.0625 C 133.375 4.5 133.265625 4.515625 132.90625 4.59375 L 132.90625 4.703125 L 134.6875 4.703125 L 134.6875 4.59375 C 134.3125 4.53125 134.09375 4.515625 134.1875 4.109375 L 134.671875 2.359375 L 136.71875 2.359375 L 136.25 4.0625 C 136.125 4.515625 135.859375 4.546875 135.53125 4.59375 L 135.53125 4.703125 L 137.5 4.703125 L 137.5 4.59375 C 137.109375 4.546875 136.84375 4.53125 136.953125 4.109375 L 137.90625 0.640625 C 138.03125 0.1875 138.140625 0.171875 138.5 0.109375 Z M 138.5 0 "
       id="path168" />
    <path
       style=" stroke:none;fill-rule:nonzero;fill:rgb(12.940979%,11.764526%,11.764526%);fill-opacity:1;"
       d="M 139.757813 5.339844 C 139.695313 5.496094 139.632813 5.605469 139.367188 5.605469 L 138.601563 5.605469 L 138.601563 5.574219 L 139.382813 4.808594 C 139.867188 4.308594 139.976563 4.136719 139.976563 3.871094 C 139.976563 3.558594 139.742188 3.199219 139.320313 3.199219 C 139.226563 3.199219 138.695313 3.214844 138.476563 3.839844 L 138.570313 3.871094 C 138.617188 3.761719 138.773438 3.496094 139.132813 3.496094 C 139.445313 3.496094 139.632813 3.730469 139.632813 3.980469 C 139.632813 4.105469 139.617188 4.339844 139.054688 4.933594 L 138.210938 5.839844 L 138.210938 5.902344 L 139.632813 5.902344 L 139.835938 5.371094 Z M 139.757813 5.339844 "
       id="path170" />
    <path
       style=" stroke:none;fill-rule:nonzero;fill:rgb(12.940979%,11.764526%,11.764526%);fill-opacity:1;"
       d="M 141.273438 4.933594 L 140.429688 4.933594 L 140.429688 4.917969 L 141.632813 3.652344 L 141.648438 3.652344 Z M 141.976563 4.933594 L 141.601563 4.933594 L 142.085938 3.199219 L 141.914063 3.199219 L 140.242188 4.917969 L 140.164063 5.183594 L 141.210938 5.183594 L 141.023438 5.902344 L 141.335938 5.902344 L 141.523438 5.199219 L 141.914063 5.199219 Z M 141.976563 4.933594 "
       id="path172" />
    <path
       style=" stroke:none;fill-rule:nonzero;fill:rgb(0%,0%,0%);fill-opacity:1;"
       d="M 177.148438 137.269531 L 175.367188 137.269531 L 175.367188 137.378906 C 175.679688 137.425781 175.867188 137.441406 175.867188 137.691406 C 175.867188 137.816406 175.835938 138.003906 175.789063 138.144531 L 175.460938 139.316406 L 173.398438 139.316406 L 173.789063 137.910156 C 173.929688 137.441406 174.273438 137.410156 174.523438 137.378906 L 174.523438 137.269531 L 172.554688 137.269531 L 172.554688 137.378906 C 172.914063 137.410156 173.101563 137.441406 173.101563 137.691406 C 173.101563 137.816406 173.070313 138.003906 173.023438 138.144531 L 172.148438 141.332031 C 172.023438 141.769531 171.914063 141.785156 171.554688 141.863281 L 171.554688 141.972656 L 173.335938 141.972656 L 173.335938 141.863281 C 172.960938 141.800781 172.742188 141.785156 172.835938 141.378906 L 173.320313 139.628906 L 175.367188 139.628906 L 174.898438 141.332031 C 174.773438 141.785156 174.507813 141.816406 174.179688 141.863281 L 174.179688 141.972656 L 176.148438 141.972656 L 176.148438 141.863281 C 175.757813 141.816406 175.492188 141.800781 175.601563 141.378906 L 176.554688 137.910156 C 176.679688 137.457031 176.789063 137.441406 177.148438 137.378906 Z M 177.148438 137.269531 "
       id="path174" />
    <g
       clip-path="url(#clip3)"
       clip-rule="nonzero"
       id="g178">
      <path
         style=" stroke:none;fill-rule:nonzero;fill:rgb(12.940979%,11.764526%,11.764526%);fill-opacity:1;"
         d="M 177.53125 140.90625 C 177.578125 140.828125 177.71875 140.640625 177.96875 140.640625 C 178.125 140.640625 178.328125 140.734375 178.328125 141 C 178.328125 141.4375 177.765625 141.609375 177.375 141.65625 L 177.375 141.734375 C 177.765625 141.703125 178.109375 141.84375 178.109375 142.40625 C 178.109375 142.90625 177.734375 143.046875 177.59375 143.046875 C 177.375 143.046875 177.25 142.8125 177.0625 142.8125 C 176.90625 142.8125 176.875 142.875 176.875 142.96875 C 176.875 143.140625 177.09375 143.203125 177.328125 143.203125 C 178.0625 143.203125 178.4375 142.625 178.4375 142.1875 C 178.4375 141.75 178.15625 141.625 178.046875 141.578125 L 178.046875 141.5625 C 178.46875 141.40625 178.671875 141.265625 178.671875 140.96875 C 178.671875 140.640625 178.390625 140.46875 178.09375 140.46875 C 177.859375 140.46875 177.5625 140.640625 177.453125 140.890625 Z M 177.53125 140.90625 "
         id="path176" />
    </g>
    <g
       clip-path="url(#clip4)"
       clip-rule="nonzero"
       id="g182">
      <path
         style=" stroke:none;fill-rule:nonzero;fill:rgb(12.940979%,11.764526%,11.764526%);fill-opacity:1;"
         d="M 179.921875 142.203125 L 179.078125 142.203125 L 179.078125 142.1875 L 180.28125 140.921875 L 180.296875 140.921875 Z M 180.625 142.203125 L 180.25 142.203125 L 180.734375 140.46875 L 180.5625 140.46875 L 178.890625 142.1875 L 178.8125 142.453125 L 179.859375 142.453125 L 179.671875 143.171875 L 179.984375 143.171875 L 180.171875 142.46875 L 180.5625 142.46875 Z M 180.625 142.203125 "
         id="path180" />
    </g>
  </g>
</svg>
