<?xml version="1.0" encoding="UTF-8" standalone="no"?>
<svg
   xmlns:dc="http://purl.org/dc/elements/1.1/"
   xmlns:cc="http://creativecommons.org/ns#"
   xmlns:rdf="http://www.w3.org/1999/02/22-rdf-syntax-ns#"
   xmlns:svg="http://www.w3.org/2000/svg"
   xmlns="http://www.w3.org/2000/svg"
   xmlns:sodipodi="http://sodipodi.sourceforge.net/DTD/sodipodi-0.dtd"
   xmlns:inkscape="http://www.inkscape.org/namespaces/inkscape"
   width="135.685638pt"
   height="120.105667pt"
   viewBox="0 0 135.685638 120.105667"
   version="1.2"
   id="svg137"
   sodipodi:docname="post_normalized.svg"
   inkscape:version="0.92.4 (5da689c313, 2019-01-14)">
  <metadata
     id="metadata141">
    <rdf:RDF>
      <cc:Work
         rdf:about="">
        <dc:format>image/svg+xml</dc:format>
        <dc:type
           rdf:resource="http://purl.org/dc/dcmitype/StillImage" />
        <dc:title></dc:title>
      </cc:Work>
    </rdf:RDF>
  </metadata>
  <sodipodi:namedview
     pagecolor="#ffffff"
     bordercolor="#666666"
     borderopacity="1"
     objecttolerance="10"
     gridtolerance="10"
     guidetolerance="10"
     inkscape:pageopacity="0"
     inkscape:pageshadow="2"
     inkscape:window-width="661"
     inkscape:window-height="480"
     id="namedview139"
     showgrid="false"
     inkscape:zoom="1.4737023"
     inkscape:cx="90.457092"
     inkscape:cy="80.070445"
     inkscape:window-x="0"
     inkscape:window-y="0"
     inkscape:window-maximized="0"
     inkscape:current-layer="svg137" />
  <defs
     id="defs8">
    <clipPath
       id="clip1">
      <path
         d="M 133 80 L 135.6875 80 L 135.6875 86 L 133 86 Z M 133 80 "
         id="path2" />
    </clipPath>
    <clipPath
       id="clip2">
      <path
         d="M 62 20 L 63 20 L 63 120.105469 L 62 120.105469 Z M 62 20 "
         id="path5" />
    </clipPath>
  </defs>
  <g
     id="surface44">
    <path
       style=" stroke:none;fill-rule:nonzero;fill:rgb(74.900818%,74.900818%,74.900818%);fill-opacity:1;"
       d="M 62.007813 82.007813 L 71.421875 19.964844 L 21.003906 28.363281 L 62.007813 82.007813 "
       id="path10" />
    <path
       style="fill:none;stroke-width:0.856;stroke-linecap:butt;stroke-linejoin:miter;stroke:rgb(0%,0%,0%);stroke-opacity:1;stroke-miterlimit:4;"
       d="M 62.007813 82.007813 L 71.421875 19.964844 M 21.003906 28.363281 L 62.007813 82.007813 "
       id="path12" />
    <path
       style="fill:none;stroke-width:0.437;stroke-linecap:round;stroke-linejoin:round;stroke:rgb(0%,0%,0%);stroke-opacity:1;stroke-miterlimit:4;"
       d="M 18.328125 82.144531 L 18.328125 81.375 M 106.464844 82.144531 L 106.464844 81.375 "
       id="path14" />
    <path
       style=" stroke:none;fill-rule:nonzero;fill:rgb(0%,0%,0%);fill-opacity:1;"
       d="M 128.480469 79.730469 C 128.605469 79.699219 128.667969 79.699219 128.824219 79.699219 C 129.417969 79.699219 129.542969 80.136719 129.824219 81.074219 C 129.996094 81.621094 130.433594 83.417969 130.433594 83.808594 C 130.433594 84.089844 129.996094 84.589844 129.746094 84.886719 C 129.386719 85.292969 129.261719 85.386719 129.089844 85.386719 C 128.902344 85.386719 128.777344 85.105469 128.464844 85.105469 C 128.246094 85.105469 128.074219 85.277344 128.074219 85.496094 C 128.074219 85.917969 128.511719 85.949219 128.605469 85.949219 C 129.824219 85.949219 132.699219 81.167969 132.699219 79.949219 C 132.699219 79.574219 132.496094 79.308594 132.105469 79.308594 C 131.839844 79.308594 131.730469 79.527344 131.730469 79.667969 C 131.730469 80.136719 132.292969 80.027344 132.292969 80.449219 C 132.292969 80.996094 131.480469 82.386719 131.027344 83.105469 L 130.824219 81.902344 C 130.699219 81.136719 130.089844 79.308594 129.949219 79.308594 C 129.777344 79.308594 128.964844 79.480469 128.480469 79.558594 Z M 128.480469 79.730469 "
       id="path16" />
    <g
       clip-path="url(#clip1)"
       clip-rule="nonzero"
       id="g20">
      <path
         style=" stroke:none;fill-rule:nonzero;fill:rgb(0%,0%,0%);fill-opacity:1;"
         d="M 133.210938 85.550781 L 135.132813 85.550781 L 135.132813 85.441406 C 134.789063 85.457031 134.539063 85.441406 134.539063 85.222656 C 134.539063 85.113281 134.632813 84.863281 134.664063 84.722656 L 135.648438 81.175781 C 135.679688 81.066406 135.710938 80.925781 135.648438 80.925781 C 135.601563 80.925781 134.648438 81.128906 134.320313 81.191406 L 134.320313 81.285156 L 134.710938 81.269531 C 134.773438 81.269531 134.976563 81.269531 134.976563 81.488281 C 134.976563 81.550781 134.945313 81.644531 134.929688 81.722656 L 133.992188 85.082031 C 133.898438 85.394531 133.617188 85.410156 133.210938 85.457031 Z M 133.210938 85.550781 "
         id="path18" />
    </g>
    <path
       style="fill:none;stroke-width:0.437;stroke-linecap:round;stroke-linejoin:round;stroke:rgb(0%,0%,0%);stroke-opacity:1;stroke-miterlimit:4;"
       d="M 0.699219 82.144531 L 124.09375 82.144531 "
       id="path22" />
    <path
       style=" stroke:none;fill-rule:nonzero;fill:rgb(0%,0%,0%);fill-opacity:1;"
       d="M 125.125 81.699219 C 124.40625 81.480469 123.9375 81.28125 123.355469 81.046875 L 123.355469 83.25 C 123.5625 83.152344 124.40625 82.816406 125.125 82.597656 C 125.898438 82.367188 126.601563 82.207031 127.054688 82.148438 C 126.601563 82.09375 125.898438 81.933594 125.125 81.699219 "
       id="path24" />
    <path
       style="fill:none;stroke-width:0.437;stroke-linecap:round;stroke-linejoin:round;stroke:rgb(0%,0%,0%);stroke-opacity:1;stroke-miterlimit:4;"
       d="M 62.398438 38.078125 L 63.167969 38.078125 "
       id="path26" />
    <path
       style=" stroke:none;fill-rule:nonzero;fill:rgb(0%,0%,0%);fill-opacity:1;"
       d="M 59.417969 10.820313 C 59.542969 10.789063 59.605469 10.789063 59.761719 10.789063 C 60.355469 10.789063 60.480469 11.226563 60.761719 12.164063 C 60.933594 12.710938 61.371094 14.507813 61.371094 14.898438 C 61.371094 15.179688 60.933594 15.679688 60.683594 15.976563 C 60.324219 16.382813 60.199219 16.476563 60.027344 16.476563 C 59.839844 16.476563 59.714844 16.195313 59.402344 16.195313 C 59.183594 16.195313 59.011719 16.367188 59.011719 16.585938 C 59.011719 17.007813 59.449219 17.039063 59.542969 17.039063 C 60.761719 17.039063 63.636719 12.257813 63.636719 11.039063 C 63.636719 10.664063 63.433594 10.398438 63.042969 10.398438 C 62.777344 10.398438 62.667969 10.617188 62.667969 10.757813 C 62.667969 11.226563 63.230469 11.117188 63.230469 11.539063 C 63.230469 12.085938 62.417969 13.476563 61.964844 14.195313 L 61.761719 12.992188 C 61.636719 12.226563 61.027344 10.398438 60.886719 10.398438 C 60.714844 10.398438 59.902344 10.570313 59.417969 10.648438 Z M 59.417969 10.820313 "
       id="path28" />
    <path
       style=" stroke:none;fill-rule:nonzero;fill:rgb(0%,0%,0%);fill-opacity:1;"
       d="M 66.554688 15.6875 C 66.445313 15.9375 66.335938 16.125 65.882813 16.125 L 64.585938 16.125 L 64.585938 16.09375 L 65.898438 14.765625 C 66.742188 13.921875 66.914063 13.609375 66.914063 13.15625 C 66.914063 12.640625 66.523438 12.015625 65.804688 12.015625 C 65.632813 12.015625 64.742188 12.046875 64.367188 13.109375 L 64.507813 13.15625 C 64.601563 12.984375 64.867188 12.515625 65.476563 12.515625 C 66.007813 12.515625 66.320313 12.921875 66.320313 13.34375 C 66.320313 13.578125 66.304688 13.96875 65.335938 14.984375 L 63.898438 16.53125 L 63.898438 16.640625 L 66.335938 16.640625 L 66.679688 15.734375 Z M 66.554688 15.6875 "
       id="path30" />
    <g
       clip-path="url(#clip2)"
       clip-rule="nonzero"
       id="g34">
      <path
         style="fill:none;stroke-width:0.437;stroke-linecap:round;stroke-linejoin:round;stroke:rgb(0%,0%,0%);stroke-opacity:1;stroke-miterlimit:4;"
         d="M 62.398438 119.882813 L 62.398438 20.449219 "
         id="path32" />
    </g>
    <path
       style=" stroke:none;fill-rule:nonzero;fill:rgb(0%,0%,0%);fill-opacity:1;"
       d="M 61.949219 19.417969 C 61.730469 20.136719 61.53125 20.609375 61.296875 21.1875 L 63.5 21.1875 C 63.402344 20.980469 63.066406 20.136719 62.847656 19.417969 C 62.617188 18.644531 62.457031 17.941406 62.398438 17.488281 C 62.339844 17.941406 62.183594 18.644531 61.949219 19.417969 "
       id="path36" />
    <path
       style="fill:none;stroke-width:0.856;stroke-linecap:round;stroke-linejoin:round;stroke:rgb(0%,0%,0%);stroke-opacity:1;stroke-miterlimit:4;"
       d="M 105.382813 51.273438 L 62.007813 82.007813 L 95.871094 34.261719 "
       id="path38" />
    <path
       style=" stroke:none;fill-rule:nonzero;fill:rgb(0%,0%,0%);fill-opacity:1;"
       d="M 96.1875 32.75 C 95.371094 33.386719 94.773438 33.75 94.050781 34.214844 L 96.519531 35.964844 C 96.574219 35.652344 96.863281 34.445313 97.195313 33.464844 C 97.546875 32.414063 97.921875 31.503906 98.21875 30.953125 C 97.796875 31.414063 97.0625 32.070313 96.1875 32.75 "
       id="path40" />
    <path
       style=" stroke:none;fill-rule:nonzero;fill:rgb(0%,0%,0%);fill-opacity:1;"
       d="M 106.183594 49.953125 C 105.203125 50.28125 104.519531 50.429688 103.683594 50.628906 L 105.429688 53.09375 C 105.585938 52.820313 106.261719 51.777344 106.898438 50.960938 C 107.578125 50.085938 108.234375 49.351563 108.699219 48.929688 C 108.144531 49.226563 107.234375 49.601563 106.183594 49.953125 "
       id="path42" />
    <path
       style="fill:none;stroke-width:0.856;stroke-linecap:round;stroke-linejoin:round;stroke:rgb(0%,0%,0%);stroke-opacity:1;stroke-miterlimit:4;"
       d="M 17.078125 76.019531 L 62.007813 82.007813 L 24.355469 59.332031 "
       id="path44" />
    <path
       style=" stroke:none;fill-rule:nonzero;fill:rgb(0%,0%,0%);fill-opacity:1;"
       d="M 22.824219 59.128906 C 23.519531 59.894531 23.929688 60.464844 24.445313 61.144531 L 26.003906 58.558594 C 25.691406 58.527344 24.464844 58.324219 23.460938 58.070313 C 22.390625 57.796875 21.453125 57.488281 20.878906 57.234375 C 21.371094 57.625 22.082031 58.304688 22.824219 59.128906 "
       id="path46" />
    <path
       style=" stroke:none;fill-rule:nonzero;fill:rgb(0%,0%,0%);fill-opacity:1;"
       d="M 15.59375 76.445313 C 16.539063 76.871094 17.140625 77.230469 17.886719 77.652344 L 18.285156 74.65625 C 17.984375 74.75 16.78125 75.054688 15.757813 75.21875 C 14.667969 75.394531 13.683594 75.488281 13.054688 75.484375 C 13.664063 75.640625 14.585938 75.988281 15.59375 76.445313 "
       id="path48" />
    <path
       style="fill:none;stroke-width:0.856;stroke-linecap:butt;stroke-linejoin:miter;stroke:rgb(92.155457%,9.803772%,13.725281%);stroke-opacity:1;stroke-dasharray:4.279,4.279;stroke-miterlimit:4;"
       d="M 122.769531 65.75 L 0.820313 98.695313 "
       id="path50" />
    <path
       style=" stroke:none;fill-rule:nonzero;fill:rgb(0%,0%,0%);fill-opacity:1;"
       d="M 1.925781 103.289063 C 2.050781 102.460938 2.191406 101.460938 2.160156 101.320313 C 2.113281 101.179688 1.988281 101.085938 1.816406 101.148438 C 1.644531 101.195313 1.457031 101.382813 1.472656 101.585938 C 1.472656 101.882813 1.660156 102.867188 1.738281 103.335938 Z M 0.441406 103.710938 C 0.582031 102.867188 0.722656 101.867188 0.691406 101.726563 C 0.644531 101.585938 0.519531 101.507813 0.332031 101.554688 C 0.175781 101.601563 -0.0273438 101.789063 0.00390625 102.007813 C 0.00390625 102.289063 0.191406 103.289063 0.269531 103.757813 Z M 0.441406 103.710938 "
       id="path52" />
    <path
       style=" stroke:none;fill-rule:nonzero;fill:rgb(0%,0%,0%);fill-opacity:1;"
       d="M 3.476563 105.296875 L 3.695313 106.65625 L 3.820313 106.609375 C 3.835938 106.5 3.851563 106.421875 3.976563 106.390625 C 4.210938 106.3125 4.585938 106.375 4.835938 106.3125 C 5.304688 106.1875 6.007813 105.75 5.757813 104.875 C 5.554688 104.15625 4.335938 103.703125 4.195313 103.1875 C 4.070313 102.78125 4.320313 102.640625 4.492188 102.59375 C 5.039063 102.4375 5.367188 102.859375 5.539063 103.3125 L 5.679688 103.265625 L 5.507813 102.078125 L 5.398438 102.125 C 5.367188 102.1875 5.351563 102.296875 5.210938 102.34375 C 4.960938 102.40625 4.742188 102.296875 4.367188 102.40625 C 3.492188 102.65625 3.585938 103.34375 3.664063 103.609375 C 3.835938 104.234375 5.039063 104.75 5.179688 105.296875 C 5.257813 105.5625 5.257813 106.015625 4.789063 106.140625 C 4.117188 106.328125 3.773438 105.59375 3.601563 105.25 Z M 3.476563 105.296875 "
       id="path54" />
    <path
       style=" stroke:none;fill-rule:nonzero;fill:rgb(0%,0%,0%);fill-opacity:1;"
       d="M 7.402344 103.238281 C 7.496094 102.425781 7.886719 101.644531 8.324219 101.519531 C 8.527344 101.457031 8.667969 101.566406 8.714844 101.753906 C 8.730469 101.816406 8.964844 102.816406 7.355469 103.644531 Z M 9.433594 103.941406 C 9.121094 104.394531 8.855469 104.769531 8.402344 104.910156 C 8.058594 105.003906 7.589844 104.925781 7.417969 104.363281 C 7.386719 104.207031 7.355469 104.035156 7.339844 103.847656 L 7.574219 103.753906 C 8.839844 103.175781 9.449219 102.300781 9.277344 101.660156 C 9.167969 101.285156 8.839844 101.144531 8.417969 101.269531 C 7.261719 101.597656 6.339844 103.347656 6.683594 104.535156 C 6.824219 105.035156 7.292969 105.628906 8.152344 105.378906 C 8.964844 105.144531 9.511719 104.191406 9.558594 104.019531 Z M 9.433594 103.941406 "
       id="path56" />
    <path
       style=" stroke:none;fill-rule:nonzero;fill:rgb(0%,0%,0%);fill-opacity:1;"
       d="M 12.777344 101.175781 C 13.058594 102.175781 12.746094 103.910156 11.761719 104.191406 C 11.542969 104.253906 11.308594 104.222656 11.246094 104.003906 C 11.167969 103.691406 11.167969 102.472656 11.230469 101.878906 C 11.292969 101.253906 11.667969 100.738281 12.058594 100.628906 C 12.574219 100.488281 12.730469 100.972656 12.777344 101.175781 Z M 9.917969 101.191406 L 10.089844 101.128906 C 10.292969 101.066406 10.480469 101.128906 10.511719 101.269531 C 10.558594 101.441406 10.589844 104.753906 10.621094 105.722656 C 10.621094 106.019531 10.636719 106.253906 10.214844 106.378906 L 10.246094 106.503906 L 11.917969 106.035156 L 11.886719 105.910156 C 11.683594 105.972656 11.371094 106.050781 11.308594 105.800781 C 11.261719 105.628906 11.230469 104.644531 11.214844 104.363281 C 11.433594 104.394531 11.621094 104.394531 11.824219 104.347656 C 12.964844 104.019531 13.886719 102.269531 13.527344 100.988281 C 13.355469 100.410156 12.980469 99.988281 12.246094 100.191406 C 11.558594 100.378906 11.277344 101.128906 11.152344 101.472656 L 11.121094 101.457031 L 11.136719 100.628906 C 11.152344 100.519531 11.105469 100.519531 11.089844 100.519531 L 9.871094 101.066406 Z M 9.917969 101.191406 "
       id="path58" />
    <path
       style=" stroke:none;fill-rule:nonzero;fill:rgb(0%,0%,0%);fill-opacity:1;"
       d="M 18.066406 101.5 C 17.800781 101.96875 17.707031 102.234375 17.566406 102.265625 C 17.503906 102.28125 17.441406 102.234375 17.425781 102.171875 C 17.347656 101.921875 17.332031 98.90625 17.316406 98.796875 L 17.253906 98.78125 L 16.769531 98.984375 L 16.753906 99.015625 L 16.769531 99.40625 L 16.753906 99.40625 C 16.660156 99.203125 16.332031 99.03125 15.972656 99.140625 C 14.878906 99.453125 14.050781 101.359375 14.394531 102.5625 C 14.457031 102.8125 14.707031 103.53125 15.535156 103.296875 C 16.019531 103.15625 16.378906 102.78125 16.785156 101.59375 L 16.785156 101.609375 C 16.800781 102.140625 16.832031 102.328125 16.878906 102.53125 C 16.925781 102.65625 16.972656 102.875 17.316406 102.78125 C 17.660156 102.671875 17.863281 102.3125 18.191406 101.546875 Z M 15.082031 102.34375 C 14.863281 101.609375 15.113281 99.59375 16.082031 99.3125 C 16.316406 99.25 16.597656 99.34375 16.707031 99.734375 C 16.925781 100.546875 16.613281 102.546875 15.738281 102.796875 C 15.503906 102.859375 15.207031 102.78125 15.082031 102.34375 Z M 15.082031 102.34375 "
       id="path60" />
    <path
       style=" stroke:none;fill-rule:nonzero;fill:rgb(0%,0%,0%);fill-opacity:1;"
       d="M 19.625 102.042969 C 19.65625 100.855469 19.640625 100.449219 19.8125 99.761719 C 19.84375 99.621094 20.078125 98.574219 20.34375 98.496094 C 20.53125 98.449219 20.484375 98.777344 20.859375 98.683594 C 20.9375 98.652344 21.25 98.574219 21.125 98.136719 C 21.046875 97.871094 20.78125 97.792969 20.59375 97.839844 C 20.078125 97.980469 19.71875 99.136719 19.609375 99.761719 L 19.59375 99.949219 L 19.5625 99.917969 L 19.515625 98.167969 L 19.46875 98.152344 C 19.109375 98.324219 18.65625 98.574219 18.265625 98.746094 L 18.3125 98.871094 C 18.390625 98.839844 18.46875 98.792969 18.5625 98.761719 C 18.8125 98.699219 18.90625 98.808594 18.9375 98.933594 C 18.953125 98.996094 18.984375 99.308594 18.984375 99.621094 L 19 102.214844 Z M 19.625 102.042969 "
       id="path62" />
    <path
       style=" stroke:none;fill-rule:nonzero;fill:rgb(0%,0%,0%);fill-opacity:1;"
       d="M 25.390625 99.4375 C 25.125 99.90625 25.03125 100.171875 24.890625 100.203125 C 24.828125 100.21875 24.765625 100.171875 24.75 100.109375 C 24.671875 99.859375 24.65625 96.84375 24.640625 96.734375 L 24.578125 96.71875 L 24.09375 96.921875 L 24.078125 96.953125 L 24.09375 97.34375 L 24.078125 97.34375 C 23.984375 97.140625 23.65625 96.96875 23.296875 97.078125 C 22.203125 97.390625 21.375 99.296875 21.71875 100.5 C 21.78125 100.75 22.03125 101.46875 22.859375 101.234375 C 23.34375 101.09375 23.703125 100.71875 24.109375 99.53125 L 24.109375 99.546875 C 24.125 100.078125 24.15625 100.265625 24.203125 100.46875 C 24.25 100.59375 24.296875 100.8125 24.640625 100.71875 C 24.984375 100.609375 25.1875 100.25 25.515625 99.484375 Z M 22.40625 100.28125 C 22.1875 99.546875 22.4375 97.53125 23.40625 97.25 C 23.640625 97.1875 23.921875 97.28125 24.03125 97.671875 C 24.25 98.484375 23.9375 100.484375 23.0625 100.734375 C 22.828125 100.796875 22.53125 100.71875 22.40625 100.28125 Z M 22.40625 100.28125 "
       id="path64" />
    <path
       style=" stroke:none;fill-rule:nonzero;fill:rgb(0%,0%,0%);fill-opacity:1;"
       d="M 27.382813 96.042969 L 26.726563 96.230469 L 26.726563 95.324219 C 26.726563 95.246094 26.695313 95.183594 26.632813 95.214844 C 26.554688 95.214844 26.539063 95.308594 26.523438 95.339844 C 26.367188 95.714844 26.070313 96.183594 25.851563 96.402344 C 25.726563 96.511719 25.507813 96.636719 25.492188 96.714844 C 25.476563 96.777344 25.476563 96.824219 25.507813 96.855469 L 26.101563 96.683594 L 26.164063 99.121094 C 26.164063 99.261719 26.132813 99.824219 26.179688 99.949219 C 26.242188 100.199219 26.523438 100.199219 26.679688 100.152344 C 27.101563 100.042969 27.304688 99.589844 27.554688 98.824219 L 27.445313 98.792969 C 27.304688 99.121094 27.117188 99.589844 26.945313 99.636719 C 26.851563 99.667969 26.820313 99.605469 26.804688 99.527344 C 26.789063 99.496094 26.789063 99.480469 26.789063 99.449219 L 26.726563 96.511719 L 27.414063 96.324219 Z M 27.382813 96.042969 "
       id="path66" />
    <path
       style=" stroke:none;fill-rule:nonzero;fill:rgb(0%,0%,0%);fill-opacity:1;"
       d="M 29.800781 98.164063 C 29.597656 98.726563 29.410156 98.960938 29.316406 98.992188 C 29.238281 99.007813 29.144531 98.976563 29.128906 98.914063 C 29.113281 98.804688 29.128906 98.460938 29.128906 98.320313 L 29.097656 95.460938 L 29.050781 95.460938 C 28.753906 95.601563 28.113281 95.945313 27.816406 96.039063 L 27.863281 96.164063 C 28.316406 96.039063 28.363281 96.070313 28.410156 96.242188 C 28.472656 96.460938 28.410156 98.695313 28.519531 99.085938 C 28.566406 99.242188 28.675781 99.601563 29.066406 99.492188 C 29.519531 99.351563 29.738281 98.804688 29.941406 98.226563 Z M 29.035156 94.070313 C 28.988281 93.898438 28.753906 93.648438 28.488281 93.726563 C 28.285156 93.789063 28.160156 93.992188 28.238281 94.273438 C 28.316406 94.570313 28.535156 94.664063 28.753906 94.601563 C 29.019531 94.523438 29.082031 94.242188 29.035156 94.070313 Z M 29.035156 94.070313 "
       id="path68" />
    <path
       style=" stroke:none;fill-rule:nonzero;fill:rgb(0%,0%,0%);fill-opacity:1;"
       d="M 34.058594 96.9375 C 33.855469 97.40625 33.714844 97.734375 33.542969 97.78125 C 33.527344 97.78125 33.417969 97.796875 33.386719 97.671875 C 33.308594 97.421875 33.402344 95.203125 33.292969 94.84375 C 33.199219 94.5 32.949219 94.359375 32.558594 94.46875 C 31.886719 94.65625 31.464844 96.015625 31.246094 96.734375 L 31.230469 96.734375 L 31.277344 94.84375 L 31.230469 94.84375 C 30.808594 95.0625 30.402344 95.28125 29.964844 95.46875 L 29.996094 95.609375 C 30.449219 95.484375 30.558594 95.546875 30.589844 95.671875 C 30.636719 95.84375 30.636719 97.921875 30.652344 98.9375 L 31.261719 98.765625 C 31.277344 97.546875 31.277344 97.171875 31.511719 96.484375 C 31.667969 95.9375 31.996094 95.078125 32.386719 94.96875 C 32.558594 94.921875 32.636719 95.03125 32.683594 95.171875 C 32.777344 95.515625 32.714844 97.6875 32.777344 97.890625 C 32.839844 98.109375 32.917969 98.375 33.308594 98.265625 C 33.746094 98.140625 33.933594 97.6875 34.199219 97 Z M 34.058594 96.9375 "
       id="path70" />
    <path
       style=" stroke:none;fill-rule:nonzero;fill:rgb(0%,0%,0%);fill-opacity:1;"
       d="M 37.597656 93.371094 L 37.097656 93.511719 C 37.035156 93.527344 36.925781 93.480469 36.769531 93.449219 C 36.613281 93.417969 36.378906 93.386719 36.035156 93.480469 C 35.363281 93.683594 34.550781 94.433594 34.816406 95.355469 C 34.972656 95.917969 35.363281 96.011719 35.707031 96.058594 C 35.472656 96.339844 35.207031 96.667969 35.269531 96.933594 C 35.316406 97.074219 35.472656 97.152344 35.582031 97.199219 C 35.003906 97.855469 34.800781 98.105469 34.925781 98.574219 C 35.050781 99.027344 35.628906 99.371094 36.535156 99.121094 C 37.660156 98.792969 38.144531 98.105469 37.957031 97.417969 C 37.628906 96.277344 35.910156 96.902344 35.785156 96.464844 C 35.753906 96.371094 35.878906 96.074219 36.003906 96.042969 C 36.097656 96.011719 36.222656 96.011719 36.332031 95.980469 C 37.050781 95.777344 37.644531 94.886719 37.472656 94.277344 C 37.425781 94.121094 37.363281 93.949219 37.253906 93.808594 L 37.675781 93.699219 Z M 37.519531 97.792969 C 37.644531 98.199219 37.332031 98.683594 36.597656 98.886719 C 36.472656 98.933594 35.597656 99.152344 35.378906 98.386719 C 35.316406 98.199219 35.253906 97.964844 35.503906 97.589844 C 35.535156 97.542969 35.738281 97.261719 35.800781 97.246094 C 35.863281 97.230469 36.738281 97.308594 36.910156 97.339844 C 37.082031 97.355469 37.425781 97.417969 37.519531 97.792969 Z M 36.738281 94.105469 C 36.925781 94.792969 36.738281 95.699219 36.191406 95.855469 C 35.832031 95.964844 35.597656 95.714844 35.488281 95.339844 C 35.332031 94.792969 35.472656 93.855469 36.113281 93.667969 C 36.457031 93.574219 36.644531 93.777344 36.738281 94.105469 Z M 36.738281 94.105469 "
       id="path72" />
    <path
       style=" stroke:none;fill-rule:nonzero;fill:rgb(0%,0%,0%);fill-opacity:1;"
       d="M 40.621094 92.382813 C 40.746094 91.554688 40.886719 90.554688 40.855469 90.414063 C 40.808594 90.273438 40.683594 90.179688 40.511719 90.242188 C 40.339844 90.289063 40.152344 90.476563 40.167969 90.679688 C 40.167969 90.976563 40.355469 91.960938 40.433594 92.429688 Z M 39.136719 92.804688 C 39.277344 91.960938 39.417969 90.960938 39.386719 90.820313 C 39.339844 90.679688 39.214844 90.601563 39.027344 90.648438 C 38.871094 90.695313 38.667969 90.882813 38.699219 91.101563 C 38.699219 91.382813 38.886719 92.382813 38.964844 92.851563 Z M 39.136719 92.804688 "
       id="path74" />
    <path
       style=" stroke:none;fill-rule:nonzero;fill:rgb(0%,0%,0%);fill-opacity:1;"
       d="M 46.671875 91.625 C 46.953125 92.625 46.640625 94.359375 45.65625 94.640625 C 45.4375 94.703125 45.203125 94.671875 45.140625 94.453125 C 45.0625 94.140625 45.0625 92.921875 45.125 92.328125 C 45.1875 91.703125 45.5625 91.1875 45.953125 91.078125 C 46.46875 90.9375 46.625 91.421875 46.671875 91.625 Z M 43.8125 91.640625 L 43.984375 91.578125 C 44.1875 91.515625 44.375 91.578125 44.40625 91.71875 C 44.453125 91.890625 44.484375 95.203125 44.515625 96.171875 C 44.515625 96.46875 44.53125 96.703125 44.109375 96.828125 L 44.140625 96.953125 L 45.8125 96.484375 L 45.78125 96.359375 C 45.578125 96.421875 45.265625 96.5 45.203125 96.25 C 45.15625 96.078125 45.125 95.09375 45.109375 94.8125 C 45.328125 94.84375 45.515625 94.84375 45.71875 94.796875 C 46.859375 94.46875 47.78125 92.71875 47.421875 91.4375 C 47.25 90.859375 46.875 90.4375 46.140625 90.640625 C 45.453125 90.828125 45.171875 91.578125 45.046875 91.921875 L 45.015625 91.90625 L 45.03125 91.078125 C 45.046875 90.96875 45 90.96875 44.984375 90.96875 L 43.765625 91.515625 Z M 43.8125 91.640625 "
       id="path76" />
    <path
       style=" stroke:none;fill-rule:nonzero;fill:rgb(0%,0%,0%);fill-opacity:1;"
       d="M 49.996094 92.402344 C 49.730469 93.011719 49.636719 93.292969 49.417969 93.355469 C 49.308594 93.386719 49.277344 93.277344 49.261719 93.230469 C 49.246094 93.121094 49.230469 92.902344 49.214844 92.824219 L 49.121094 87.699219 L 49.074219 87.667969 C 48.667969 87.886719 48.277344 88.089844 47.871094 88.246094 L 47.902344 88.371094 C 48.105469 88.324219 48.449219 88.214844 48.511719 88.433594 C 48.558594 88.589844 48.558594 93.246094 48.605469 93.417969 C 48.667969 93.636719 48.808594 93.917969 49.167969 93.824219 C 49.683594 93.667969 49.886719 93.199219 50.121094 92.433594 Z M 49.996094 92.402344 "
       id="path78" />
    <path
       style=" stroke:none;fill-rule:nonzero;fill:rgb(0%,0%,0%);fill-opacity:1;"
       d="M 54.253906 91.304688 C 53.988281 91.773438 53.894531 92.039063 53.753906 92.070313 C 53.691406 92.085938 53.628906 92.039063 53.613281 91.976563 C 53.535156 91.726563 53.519531 88.710938 53.503906 88.601563 L 53.441406 88.585938 L 52.957031 88.789063 L 52.941406 88.820313 L 52.957031 89.210938 L 52.941406 89.210938 C 52.847656 89.007813 52.519531 88.835938 52.160156 88.945313 C 51.066406 89.257813 50.238281 91.164063 50.582031 92.367188 C 50.644531 92.617188 50.894531 93.335938 51.722656 93.101563 C 52.207031 92.960938 52.566406 92.585938 52.972656 91.398438 L 52.972656 91.414063 C 52.988281 91.945313 53.019531 92.132813 53.066406 92.335938 C 53.113281 92.460938 53.160156 92.679688 53.503906 92.585938 C 53.847656 92.476563 54.050781 92.117188 54.378906 91.351563 Z M 51.269531 92.148438 C 51.050781 91.414063 51.300781 89.398438 52.269531 89.117188 C 52.503906 89.054688 52.785156 89.148438 52.894531 89.539063 C 53.113281 90.351563 52.800781 92.351563 51.925781 92.601563 C 51.691406 92.664063 51.394531 92.585938 51.269531 92.148438 Z M 51.269531 92.148438 "
       id="path80" />
    <path
       style=" stroke:none;fill-rule:nonzero;fill:rgb(0%,0%,0%);fill-opacity:1;"
       d="M 58.339844 90.097656 C 58.136719 90.566406 57.996094 90.894531 57.824219 90.941406 C 57.808594 90.941406 57.699219 90.957031 57.667969 90.832031 C 57.589844 90.582031 57.683594 88.363281 57.574219 88.003906 C 57.480469 87.660156 57.230469 87.519531 56.839844 87.628906 C 56.167969 87.816406 55.746094 89.175781 55.527344 89.894531 L 55.511719 89.894531 L 55.558594 88.003906 L 55.511719 88.003906 C 55.089844 88.222656 54.683594 88.441406 54.246094 88.628906 L 54.277344 88.769531 C 54.730469 88.644531 54.839844 88.707031 54.871094 88.832031 C 54.917969 89.003906 54.917969 91.082031 54.933594 92.097656 L 55.542969 91.925781 C 55.558594 90.707031 55.558594 90.332031 55.792969 89.644531 C 55.949219 89.097656 56.277344 88.238281 56.667969 88.128906 C 56.839844 88.082031 56.917969 88.191406 56.964844 88.332031 C 57.058594 88.675781 56.996094 90.847656 57.058594 91.050781 C 57.121094 91.269531 57.199219 91.535156 57.589844 91.425781 C 58.027344 91.300781 58.214844 90.847656 58.480469 90.160156 Z M 58.339844 90.097656 "
       id="path82" />
    <path
       style=" stroke:none;fill-rule:nonzero;fill:rgb(0%,0%,0%);fill-opacity:1;"
       d="M 59.601563 88.53125 C 59.695313 87.71875 60.085938 86.9375 60.523438 86.8125 C 60.726563 86.75 60.867188 86.859375 60.914063 87.046875 C 60.929688 87.109375 61.164063 88.109375 59.554688 88.9375 Z M 61.632813 89.234375 C 61.320313 89.6875 61.054688 90.0625 60.601563 90.203125 C 60.257813 90.296875 59.789063 90.21875 59.617188 89.65625 C 59.585938 89.5 59.554688 89.328125 59.539063 89.140625 L 59.773438 89.046875 C 61.039063 88.46875 61.648438 87.59375 61.476563 86.953125 C 61.367188 86.578125 61.039063 86.4375 60.617188 86.5625 C 59.460938 86.890625 58.539063 88.640625 58.882813 89.828125 C 59.023438 90.328125 59.492188 90.921875 60.351563 90.671875 C 61.164063 90.4375 61.710938 89.484375 61.757813 89.3125 Z M 61.632813 89.234375 "
       id="path84" />
    <path
       style=" stroke:none;fill-rule:nonzero;fill:rgb(0%,0%,0%);fill-opacity:1;"
       d="M 23.660156 4.59375 L 23.488281 5.953125 L 23.628906 5.953125 C 23.675781 5.859375 23.707031 5.78125 23.832031 5.78125 C 24.082031 5.78125 24.425781 5.9375 24.675781 5.9375 C 25.160156 5.9375 25.957031 5.71875 25.957031 4.796875 C 25.957031 4.0625 24.910156 3.296875 24.910156 2.765625 C 24.910156 2.34375 25.175781 2.265625 25.363281 2.265625 C 25.925781 2.265625 26.128906 2.765625 26.175781 3.25 L 26.316406 3.25 L 26.488281 2.0625 L 26.363281 2.0625 C 26.316406 2.125 26.269531 2.21875 26.128906 2.21875 C 25.863281 2.21875 25.691406 2.0625 25.300781 2.0625 C 24.394531 2.0625 24.285156 2.75 24.285156 3.015625 C 24.285156 3.671875 25.300781 4.5 25.300781 5.0625 C 25.300781 5.34375 25.160156 5.765625 24.675781 5.765625 C 23.988281 5.765625 23.847656 4.96875 23.785156 4.59375 Z M 23.660156 4.59375 "
       id="path86" />
    <path
       style=" stroke:none;fill-rule:nonzero;fill:rgb(0%,0%,0%);fill-opacity:1;"
       d="M 29.425781 2.0625 C 28.175781 2.0625 26.910156 3.453125 26.910156 4.703125 C 26.910156 5.421875 27.285156 5.9375 28.207031 5.9375 C 29.503906 5.9375 30.675781 4.390625 30.675781 3.328125 C 30.675781 2.765625 30.410156 2.0625 29.425781 2.0625 Z M 29.363281 2.25 C 29.769531 2.25 29.957031 2.625 29.957031 3.0625 C 29.957031 3.984375 29.285156 5.765625 28.316406 5.765625 C 27.878906 5.765625 27.628906 5.453125 27.628906 4.96875 C 27.628906 3.953125 28.410156 2.25 29.363281 2.25 Z M 29.363281 2.25 "
       id="path88" />
    <path
       style=" stroke:none;fill-rule:nonzero;fill:rgb(0%,0%,0%);fill-opacity:1;"
       d="M 32.90625 4.796875 C 32.484375 5.328125 32.3125 5.5625 32.09375 5.5625 C 31.96875 5.5625 31.96875 5.453125 31.96875 5.40625 C 31.96875 5.296875 32.03125 5.078125 32.046875 5 L 33.34375 0.03125 L 33.296875 0 C 32.859375 0.09375 32.40625 0.171875 31.96875 0.234375 L 31.96875 0.359375 C 32.1875 0.359375 32.546875 0.359375 32.546875 0.578125 C 32.546875 0.75 31.296875 5.234375 31.296875 5.40625 C 31.296875 5.640625 31.34375 5.9375 31.71875 5.9375 C 32.25 5.9375 32.578125 5.53125 33.015625 4.875 Z M 32.90625 4.796875 "
       id="path90" />
    <path
       style=" stroke:none;fill-rule:nonzero;fill:rgb(0%,0%,0%);fill-opacity:1;"
       d="M 37.285156 4.84375 C 36.972656 5.21875 36.738281 5.515625 36.582031 5.515625 C 36.488281 5.515625 36.472656 5.421875 36.472656 5.375 C 36.472656 5.25 36.582031 4.875 36.644531 4.703125 L 37.316406 2.140625 L 36.675781 2.140625 C 36.347656 3.0625 36.160156 3.59375 35.738281 4.234375 C 35.441406 4.671875 34.910156 5.484375 34.535156 5.484375 C 34.363281 5.484375 34.332031 5.296875 34.363281 5.1875 L 35.144531 2.078125 L 35.113281 2.0625 C 34.691406 2.171875 34.253906 2.25 33.832031 2.296875 L 33.832031 2.421875 C 34.175781 2.421875 34.347656 2.421875 34.347656 2.671875 C 34.347656 2.890625 33.691406 5.0625 33.691406 5.4375 C 33.691406 5.8125 33.847656 5.9375 34.160156 5.9375 C 34.925781 5.9375 35.566406 4.875 36.144531 3.90625 L 36.175781 3.90625 C 35.972656 4.609375 35.800781 5.328125 35.800781 5.46875 C 35.800781 5.609375 35.816406 5.921875 36.207031 5.921875 C 36.644531 5.921875 36.863281 5.703125 37.394531 4.921875 Z M 37.285156 4.84375 "
       id="path92" />
    <path
       style=" stroke:none;fill-rule:nonzero;fill:rgb(0%,0%,0%);fill-opacity:1;"
       d="M 40.144531 2.171875 L 39.457031 2.171875 L 39.707031 1.296875 C 39.722656 1.234375 39.707031 1.15625 39.644531 1.171875 C 39.566406 1.15625 39.535156 1.234375 39.503906 1.265625 C 39.253906 1.578125 38.847656 1.953125 38.566406 2.109375 C 38.425781 2.171875 38.175781 2.234375 38.128906 2.3125 C 38.097656 2.359375 38.097656 2.40625 38.113281 2.453125 L 38.738281 2.453125 L 38.128906 4.8125 C 38.097656 4.9375 37.925781 5.46875 37.925781 5.59375 C 37.925781 5.859375 38.175781 5.9375 38.347656 5.9375 C 38.785156 5.9375 39.113281 5.5625 39.550781 4.90625 L 39.441406 4.84375 C 39.238281 5.109375 38.925781 5.515625 38.753906 5.515625 C 38.660156 5.515625 38.628906 5.453125 38.628906 5.375 C 38.628906 5.34375 38.628906 5.328125 38.628906 5.296875 L 39.378906 2.453125 L 40.097656 2.453125 Z M 40.144531 2.171875 "
       id="path94" />
    <path
       style=" stroke:none;fill-rule:nonzero;fill:rgb(0%,0%,0%);fill-opacity:1;"
       d="M 41.898438 4.875 C 41.539063 5.359375 41.289063 5.53125 41.195313 5.53125 C 41.117188 5.53125 41.054688 5.46875 41.054688 5.40625 C 41.054688 5.296875 41.164063 4.96875 41.195313 4.84375 L 41.945313 2.078125 L 41.914063 2.0625 C 41.585938 2.125 40.867188 2.265625 40.554688 2.28125 L 40.554688 2.421875 C 41.023438 2.421875 41.085938 2.46875 41.085938 2.640625 C 41.085938 2.875 40.414063 5 40.414063 5.40625 C 40.414063 5.5625 40.414063 5.9375 40.820313 5.9375 C 41.289063 5.9375 41.664063 5.46875 42.007813 4.96875 Z M 42.257813 0.71875 C 42.257813 0.53125 42.101563 0.25 41.820313 0.25 C 41.617188 0.25 41.429688 0.40625 41.429688 0.703125 C 41.429688 1 41.617188 1.15625 41.835938 1.15625 C 42.117188 1.15625 42.257813 0.890625 42.257813 0.71875 Z M 42.257813 0.71875 "
       id="path96" />
    <path
       style=" stroke:none;fill-rule:nonzero;fill:rgb(0%,0%,0%);fill-opacity:1;"
       d="M 45.121094 2.0625 C 43.871094 2.0625 42.605469 3.453125 42.605469 4.703125 C 42.605469 5.421875 42.980469 5.9375 43.902344 5.9375 C 45.199219 5.9375 46.371094 4.390625 46.371094 3.328125 C 46.371094 2.765625 46.105469 2.0625 45.121094 2.0625 Z M 45.058594 2.25 C 45.464844 2.25 45.652344 2.625 45.652344 3.0625 C 45.652344 3.984375 44.980469 5.765625 44.011719 5.765625 C 43.574219 5.765625 43.324219 5.453125 43.324219 4.96875 C 43.324219 3.953125 44.105469 2.25 45.058594 2.25 Z M 45.058594 2.25 "
       id="path98" />
    <path
       style=" stroke:none;fill-rule:nonzero;fill:rgb(0%,0%,0%);fill-opacity:1;"
       d="M 50.585938 4.84375 C 50.273438 5.25 50.054688 5.515625 49.882813 5.515625 C 49.867188 5.515625 49.742188 5.5 49.742188 5.375 C 49.742188 5.109375 50.429688 3 50.429688 2.625 C 50.429688 2.265625 50.242188 2.0625 49.835938 2.0625 C 49.132813 2.0625 48.351563 3.265625 47.945313 3.890625 L 47.929688 3.875 L 48.476563 2.078125 L 48.445313 2.0625 C 47.976563 2.15625 47.523438 2.25 47.054688 2.328125 L 47.054688 2.46875 C 47.523438 2.46875 47.601563 2.5625 47.601563 2.6875 C 47.601563 2.875 47.039063 4.875 46.773438 5.84375 L 47.414063 5.84375 C 47.757813 4.671875 47.867188 4.3125 48.273438 3.71875 C 48.570313 3.234375 49.117188 2.5 49.523438 2.5 C 49.695313 2.5 49.742188 2.625 49.742188 2.78125 C 49.742188 3.125 49.101563 5.203125 49.101563 5.421875 C 49.101563 5.65625 49.117188 5.921875 49.523438 5.921875 C 49.976563 5.921875 50.273438 5.53125 50.710938 4.953125 Z M 50.585938 4.84375 "
       id="path100" />
    <path
       style=" stroke:none;fill-rule:nonzero;fill:rgb(0%,0%,0%);fill-opacity:1;"
       d="M 28.066406 16.113281 C 28.425781 14.972656 28.535156 14.582031 28.863281 13.972656 C 28.941406 13.847656 29.457031 12.894531 29.722656 12.894531 C 29.925781 12.894531 29.785156 13.207031 30.160156 13.207031 C 30.253906 13.207031 30.566406 13.207031 30.566406 12.753906 C 30.566406 12.472656 30.347656 12.332031 30.144531 12.332031 C 29.613281 12.332031 28.957031 13.332031 28.675781 13.910156 L 28.613281 14.082031 L 28.597656 14.050781 L 29.019531 12.347656 L 28.988281 12.332031 C 28.597656 12.394531 28.097656 12.503906 27.660156 12.566406 L 27.660156 12.707031 C 27.753906 12.691406 27.847656 12.675781 27.941406 12.675781 C 28.207031 12.675781 28.253906 12.800781 28.253906 12.925781 C 28.253906 13.003906 28.207031 13.300781 28.113281 13.613281 L 27.425781 16.113281 Z M 28.066406 16.113281 "
       id="path102" />
    <path
       style=" stroke:none;fill-rule:nonzero;fill:rgb(0%,0%,0%);fill-opacity:1;"
       d="M 31.660156 13.957031 C 31.988281 13.191406 32.566406 12.535156 33.019531 12.535156 C 33.238281 12.535156 33.332031 12.691406 33.332031 12.878906 C 33.332031 12.941406 33.285156 13.972656 31.519531 14.332031 Z M 33.425781 15.175781 C 33.003906 15.535156 32.644531 15.816406 32.175781 15.816406 C 31.816406 15.816406 31.378906 15.628906 31.378906 15.035156 C 31.378906 14.878906 31.410156 14.707031 31.457031 14.519531 L 31.691406 14.488281 C 33.082031 14.285156 33.894531 13.597656 33.894531 12.925781 C 33.894531 12.535156 33.628906 12.332031 33.191406 12.332031 C 31.988281 12.332031 30.628906 13.769531 30.628906 15.003906 C 30.628906 15.535156 30.910156 16.207031 31.800781 16.207031 C 32.660156 16.207031 33.441406 15.425781 33.535156 15.285156 Z M 33.425781 15.175781 "
       id="path104" />
    <path
       style=" stroke:none;fill-rule:nonzero;fill:rgb(0%,0%,0%);fill-opacity:1;"
       d="M 38.210938 12.644531 L 37.679688 12.644531 C 37.617188 12.644531 37.539063 12.566406 37.398438 12.488281 C 37.242188 12.410156 37.039063 12.332031 36.679688 12.332031 C 35.976563 12.332031 34.992188 12.832031 34.992188 13.785156 C 34.992188 14.378906 35.351563 14.582031 35.664063 14.722656 C 35.367188 14.925781 35.007813 15.175781 35.007813 15.441406 C 35.007813 15.597656 35.132813 15.707031 35.242188 15.785156 C 34.507813 16.253906 34.226563 16.441406 34.226563 16.925781 C 34.226563 17.394531 34.679688 17.878906 35.617188 17.878906 C 36.789063 17.878906 37.460938 17.347656 37.460938 16.628906 C 37.460938 15.441406 35.632813 15.582031 35.632813 15.128906 C 35.632813 15.019531 35.820313 14.785156 35.945313 14.785156 C 36.054688 14.785156 36.179688 14.816406 36.289063 14.816406 C 37.039063 14.816406 37.851563 14.113281 37.851563 13.488281 C 37.851563 13.316406 37.835938 13.144531 37.773438 12.972656 L 38.210938 12.972656 Z M 36.945313 16.878906 C 36.945313 17.300781 36.523438 17.691406 35.757813 17.691406 C 35.632813 17.691406 34.710938 17.660156 34.710938 16.863281 C 34.710938 16.660156 34.710938 16.425781 35.054688 16.128906 C 35.085938 16.097656 35.367188 15.878906 35.429688 15.878906 C 35.492188 15.878906 36.320313 16.191406 36.476563 16.269531 C 36.632813 16.347656 36.945313 16.488281 36.945313 16.878906 Z M 37.179688 13.113281 C 37.179688 13.816406 36.742188 14.644531 36.179688 14.644531 C 35.804688 14.644531 35.648438 14.363281 35.648438 13.972656 C 35.648438 13.394531 36.023438 12.519531 36.695313 12.519531 C 37.054688 12.519531 37.179688 12.769531 37.179688 13.113281 Z M 37.179688 13.113281 "
       id="path106" />
    <path
       style=" stroke:none;fill-rule:nonzero;fill:rgb(0%,0%,0%);fill-opacity:1;"
       d="M 40.347656 15.144531 C 39.988281 15.628906 39.738281 15.800781 39.644531 15.800781 C 39.566406 15.800781 39.503906 15.738281 39.503906 15.675781 C 39.503906 15.566406 39.613281 15.238281 39.644531 15.113281 L 40.394531 12.347656 L 40.363281 12.332031 C 40.035156 12.394531 39.316406 12.535156 39.003906 12.550781 L 39.003906 12.691406 C 39.472656 12.691406 39.535156 12.738281 39.535156 12.910156 C 39.535156 13.144531 38.863281 15.269531 38.863281 15.675781 C 38.863281 15.832031 38.863281 16.207031 39.269531 16.207031 C 39.738281 16.207031 40.113281 15.738281 40.457031 15.238281 Z M 40.707031 10.988281 C 40.707031 10.800781 40.550781 10.519531 40.269531 10.519531 C 40.066406 10.519531 39.878906 10.675781 39.878906 10.972656 C 39.878906 11.269531 40.066406 11.425781 40.285156 11.425781 C 40.566406 11.425781 40.707031 11.160156 40.707031 10.988281 Z M 40.707031 10.988281 "
       id="path108" />
    <path
       style=" stroke:none;fill-rule:nonzero;fill:rgb(0%,0%,0%);fill-opacity:1;"
       d="M 43.570313 12.332031 C 42.320313 12.332031 41.054688 13.722656 41.054688 14.972656 C 41.054688 15.691406 41.429688 16.207031 42.351563 16.207031 C 43.648438 16.207031 44.820313 14.660156 44.820313 13.597656 C 44.820313 13.035156 44.554688 12.332031 43.570313 12.332031 Z M 43.507813 12.519531 C 43.914063 12.519531 44.101563 12.894531 44.101563 13.332031 C 44.101563 14.253906 43.429688 16.035156 42.460938 16.035156 C 42.023438 16.035156 41.773438 15.722656 41.773438 15.238281 C 41.773438 14.222656 42.554688 12.519531 43.507813 12.519531 Z M 43.507813 12.519531 "
       id="path110" />
    <path
       style=" stroke:none;fill-rule:nonzero;fill:rgb(0%,0%,0%);fill-opacity:1;"
       d="M 49.039063 15.113281 C 48.726563 15.519531 48.507813 15.785156 48.335938 15.785156 C 48.320313 15.785156 48.195313 15.769531 48.195313 15.644531 C 48.195313 15.378906 48.882813 13.269531 48.882813 12.894531 C 48.882813 12.535156 48.695313 12.332031 48.289063 12.332031 C 47.585938 12.332031 46.804688 13.535156 46.398438 14.160156 L 46.382813 14.144531 L 46.929688 12.347656 L 46.898438 12.332031 C 46.429688 12.425781 45.976563 12.519531 45.507813 12.597656 L 45.507813 12.738281 C 45.976563 12.738281 46.054688 12.832031 46.054688 12.957031 C 46.054688 13.144531 45.492188 15.144531 45.226563 16.113281 L 45.867188 16.113281 C 46.210938 14.941406 46.320313 14.582031 46.726563 13.988281 C 47.023438 13.503906 47.570313 12.769531 47.976563 12.769531 C 48.148438 12.769531 48.195313 12.894531 48.195313 13.050781 C 48.195313 13.394531 47.554688 15.472656 47.554688 15.691406 C 47.554688 15.925781 47.570313 16.191406 47.976563 16.191406 C 48.429688 16.191406 48.726563 15.800781 49.164063 15.222656 Z M 49.039063 15.113281 "
       id="path112" />
    <path
       style=" stroke:none;fill-rule:nonzero;fill:rgb(0%,0%,0%);fill-opacity:1;"
       d="M 98.734375 29.871094 L 100.9375 29.871094 L 100.925781 29.652344 L 100.894531 29.433594 L 100.839844 29.21875 L 100.761719 29.011719 L 100.667969 28.816406 L 100.554688 28.628906 L 100.421875 28.453125 L 100.273438 28.292969 L 100.105469 28.144531 L 99.929688 28.019531 L 99.738281 27.910156 L 99.539063 27.820313 L 99.328125 27.75 L 99.117188 27.699219 L 98.898438 27.671875 L 98.679688 27.667969 L 98.460938 27.683594 L 98.242188 27.722656 L 98.03125 27.78125 L 97.828125 27.863281 L 97.632813 27.960938 L 97.445313 28.082031 L 97.277344 28.21875 L 97.117188 28.371094 L 96.976563 28.539063 L 96.855469 28.71875 L 96.75 28.914063 L 96.664063 29.117188 L 96.597656 29.328125 L 96.554688 29.542969 L 96.53125 29.757813 L 96.53125 29.980469 L 98.734375 29.871094 "
       id="path114" />
    <path
       style=" stroke:none;fill-rule:nonzero;fill:rgb(0%,0%,0%);fill-opacity:1;"
       d="M 98.734375 29.871094 L 96.53125 29.980469 L 96.554688 30.199219 L 96.597656 30.414063 L 96.664063 30.625 L 96.75 30.824219 L 96.855469 31.019531 L 96.976563 31.199219 L 97.117188 31.367188 L 97.277344 31.519531 L 97.449219 31.660156 L 97.632813 31.777344 L 97.828125 31.878906 L 98.03125 31.957031 L 98.242188 32.015625 L 98.460938 32.054688 L 98.679688 32.074219 L 98.898438 32.066406 L 99.117188 32.039063 L 99.332031 31.992188 L 99.539063 31.921875 L 99.738281 31.828125 L 99.929688 31.71875 L 100.109375 31.589844 L 100.273438 31.445313 L 100.421875 31.285156 L 100.554688 31.109375 L 100.667969 30.921875 L 100.761719 30.722656 L 100.839844 30.519531 L 100.894531 30.304688 L 100.925781 30.089844 L 100.9375 29.867188 L 100.925781 29.648438 L 98.734375 29.871094 "
       id="path116" />
    <path
       style=" stroke:none;fill-rule:nonzero;fill:rgb(0%,0%,0%);fill-opacity:1;"
       d="M 110.15625 48.09375 L 112.359375 48.09375 L 112.347656 47.875 L 112.316406 47.660156 L 112.261719 47.445313 L 112.1875 47.238281 L 112.089844 47.039063 L 111.976563 46.851563 L 111.84375 46.679688 L 111.695313 46.515625 L 111.527344 46.371094 L 111.351563 46.242188 L 111.160156 46.132813 L 110.960938 46.042969 L 110.75 45.972656 L 110.539063 45.925781 L 110.320313 45.898438 L 110.101563 45.890625 L 109.878906 45.910156 L 109.664063 45.945313 L 109.453125 46.007813 L 109.25 46.085938 L 109.054688 46.1875 L 108.867188 46.304688 L 108.699219 46.441406 L 108.539063 46.597656 L 108.398438 46.765625 L 108.273438 46.945313 L 108.167969 47.136719 L 108.085938 47.339844 L 108.019531 47.550781 L 107.976563 47.765625 L 107.953125 47.984375 L 107.953125 48.203125 L 110.15625 48.09375 "
       id="path118" />
    <path
       style=" stroke:none;fill-rule:nonzero;fill:rgb(0%,0%,0%);fill-opacity:1;"
       d="M 110.15625 48.09375 L 107.953125 48.203125 L 107.976563 48.421875 L 108.019531 48.636719 L 108.085938 48.847656 L 108.171875 49.050781 L 108.277344 49.242188 L 108.398438 49.425781 L 108.539063 49.59375 L 108.699219 49.746094 L 108.871094 49.882813 L 109.054688 50.003906 L 109.25 50.101563 L 109.453125 50.183594 L 109.664063 50.242188 L 109.882813 50.28125 L 110.101563 50.296875 L 110.320313 50.292969 L 110.539063 50.265625 L 110.753906 50.214844 L 110.960938 50.144531 L 111.160156 50.054688 L 111.351563 49.945313 L 111.53125 49.816406 L 111.695313 49.671875 L 111.84375 49.511719 L 111.976563 49.335938 L 112.089844 49.148438 L 112.1875 48.949219 L 112.261719 48.742188 L 112.316406 48.53125 L 112.347656 48.3125 L 112.359375 48.09375 L 112.347656 47.875 L 110.15625 48.09375 "
       id="path120" />
    <path
       style="fill-rule:nonzero;fill:rgb(92.155457%,9.803772%,13.725281%);fill-opacity:1;stroke-width:0.12;stroke-linecap:round;stroke-linejoin:round;stroke:rgb(100%,0%,0%);stroke-opacity:1;stroke-miterlimit:4;"
       d="M 21.484375 56.859375 L 21.472656 56.640625 L 21.441406 56.421875 L 21.386719 56.210938 L 21.3125 56.003906 L 21.214844 55.804688 L 21.101563 55.617188 L 20.96875 55.441406 L 20.820313 55.28125 L 20.65625 55.136719 L 20.476563 55.007813 L 20.285156 54.898438 L 20.085938 54.808594 L 19.878906 54.738281 L 19.664063 54.6875 L 19.445313 54.660156 L 19.226563 54.65625 L 19.007813 54.671875 L 18.789063 54.710938 L 18.578125 54.769531 L 18.375 54.851563 L 18.179688 54.949219 L 17.996094 55.070313 L 17.824219 55.207031 L 17.664063 55.359375 L 17.523438 55.527344 L 17.402344 55.710938 L 17.296875 55.902344 L 17.210938 56.105469 L 17.144531 56.316406 L 17.101563 56.53125 L 17.082031 56.75 L 17.082031 56.96875 "
       id="path122" />
    <path
       style="fill-rule:nonzero;fill:rgb(92.155457%,9.803772%,13.725281%);fill-opacity:1;stroke-width:0.12;stroke-linecap:round;stroke-linejoin:round;stroke:rgb(100%,0%,0%);stroke-opacity:1;stroke-miterlimit:4;"
       d="M 17.082031 56.96875 L 17.101563 57.1875 L 17.144531 57.402344 L 17.210938 57.613281 L 17.296875 57.8125 L 17.402344 58.007813 L 17.523438 58.1875 L 17.667969 58.359375 L 17.824219 58.511719 L 17.996094 58.648438 L 18.179688 58.765625 L 18.375 58.867188 L 18.578125 58.949219 L 18.792969 59.007813 L 19.007813 59.042969 L 19.226563 59.0625 L 19.445313 59.054688 L 19.664063 59.027344 L 19.878906 58.980469 L 20.085938 58.910156 L 20.285156 58.820313 L 20.476563 58.707031 L 20.65625 58.582031 L 20.820313 58.433594 L 20.96875 58.273438 L 21.101563 58.097656 L 21.214844 57.910156 L 21.3125 57.714844 L 21.386719 57.507813 L 21.441406 57.292969 L 21.472656 57.078125 L 21.484375 56.859375 L 21.472656 56.636719 "
       id="path124" />
    <path
       style="fill-rule:nonzero;fill:rgb(92.155457%,9.803772%,13.725281%);fill-opacity:1;stroke-width:0.12;stroke-linecap:round;stroke-linejoin:round;stroke:rgb(100%,0%,0%);stroke-opacity:1;stroke-miterlimit:4;"
       d="M 13.941406 75.195313 L 13.929688 74.976563 L 13.898438 74.757813 L 13.84375 74.546875 L 13.769531 74.339844 L 13.671875 74.140625 L 13.558594 73.953125 L 13.425781 73.777344 L 13.277344 73.617188 L 13.113281 73.472656 L 12.933594 73.34375 L 12.742188 73.234375 L 12.542969 73.144531 L 12.335938 73.074219 L 12.121094 73.027344 L 11.902344 72.996094 L 11.683594 72.992188 L 11.464844 73.007813 L 11.246094 73.046875 L 11.035156 73.105469 L 10.832031 73.1875 L 10.636719 73.285156 L 10.453125 73.40625 L 10.28125 73.542969 L 10.121094 73.695313 L 9.980469 73.863281 L 9.859375 74.046875 L 9.753906 74.238281 L 9.667969 74.441406 L 9.601563 74.652344 L 9.558594 74.867188 L 9.539063 75.085938 L 9.539063 75.304688 "
       id="path126" />
    <path
       style="fill-rule:nonzero;fill:rgb(92.155457%,9.803772%,13.725281%);fill-opacity:1;stroke-width:0.12;stroke-linecap:round;stroke-linejoin:round;stroke:rgb(100%,0%,0%);stroke-opacity:1;stroke-miterlimit:4;"
       d="M 9.539063 75.304688 L 9.558594 75.523438 L 9.601563 75.738281 L 9.667969 75.949219 L 9.753906 76.152344 L 9.859375 76.34375 L 9.980469 76.527344 L 10.125 76.695313 L 10.28125 76.847656 L 10.453125 76.984375 L 10.636719 77.101563 L 10.832031 77.203125 L 11.035156 77.285156 L 11.25 77.34375 L 11.464844 77.382813 L 11.683594 77.398438 L 11.902344 77.390625 L 12.121094 77.363281 L 12.335938 77.316406 L 12.542969 77.246094 L 12.742188 77.15625 L 12.933594 77.046875 L 13.113281 76.917969 L 13.277344 76.769531 L 13.425781 76.609375 L 13.558594 76.433594 L 13.671875 76.25 L 13.769531 76.050781 L 13.847656 75.84375 L 13.902344 75.632813 L 13.929688 75.414063 L 13.941406 75.195313 L 13.929688 74.976563 "
       id="path128" />
    <path
       style="fill:none;stroke-width:1.284;stroke-linecap:butt;stroke-linejoin:miter;stroke:rgb(0%,0%,0%);stroke-opacity:1;stroke-miterlimit:4;"
       d="M 61.367188 79.65625 L 47.246094 26.59375 "
       id="path130" />
    <path
       style=" stroke:none;fill-rule:nonzero;fill:rgb(0%,0%,0%);fill-opacity:1;"
       d="M 45.195313 24.003906 C 45.121094 26.21875 44.90625 27.703125 44.683594 29.527344 L 50.941406 27.859375 C 50.503906 27.347656 48.917969 25.210938 47.753906 23.324219 C 46.503906 21.304688 45.523438 19.433594 45.015625 18.1875 C 45.199219 19.519531 45.273438 21.632813 45.195313 24.003906 "
       id="path132" />
    <path
       style=" stroke:none;fill-rule:nonzero;fill:rgb(12.940979%,11.764526%,11.764526%);fill-opacity:1;"
       d="M 47.035156 40.691406 C 46.644531 41.207031 46.238281 41.769531 45.941406 41.769531 C 45.878906 41.769531 45.738281 41.753906 45.738281 41.535156 C 45.738281 40.988281 46.050781 39.972656 46.269531 39.253906 L 47.363281 35.613281 L 45.644531 35.722656 L 45.378906 36.582031 L 45.347656 36.582031 C 45.300781 36.191406 45.128906 35.519531 44.191406 35.519531 C 42.316406 35.519531 40.019531 38.582031 40.019531 40.847656 C 40.019531 41.347656 40.175781 42.847656 41.707031 42.847656 C 42.988281 42.847656 43.769531 41.566406 44.175781 40.894531 L 44.191406 40.878906 C 44.082031 41.316406 44.003906 41.597656 44.003906 41.847656 C 44.003906 42.644531 44.738281 42.863281 45.035156 42.863281 C 45.972656 42.863281 46.847656 41.722656 47.363281 40.925781 Z M 42.597656 41.753906 C 42.378906 41.753906 41.925781 41.582031 41.925781 40.878906 C 41.925781 39.878906 43.144531 36.175781 44.441406 36.175781 C 44.582031 36.175781 45.019531 36.285156 45.019531 36.925781 C 45.019531 38.066406 43.941406 41.753906 42.597656 41.753906 Z M 42.597656 41.753906 "
       id="path134" />
  </g>
</svg>
