<?xml version="1.0" encoding="UTF-8" standalone="no"?>
<svg
   xmlns:dc="http://purl.org/dc/elements/1.1/"
   xmlns:cc="http://creativecommons.org/ns#"
   xmlns:rdf="http://www.w3.org/1999/02/22-rdf-syntax-ns#"
   xmlns:svg="http://www.w3.org/2000/svg"
   xmlns="http://www.w3.org/2000/svg"
   xmlns:sodipodi="http://sodipodi.sourceforge.net/DTD/sodipodi-0.dtd"
   xmlns:inkscape="http://www.inkscape.org/namespaces/inkscape"
   width="136.062622pt"
   height="119.678421pt"
   viewBox="0 0 136.062622 119.678421"
   version="1.2"
   id="svg133"
   sodipodi:docname="pre_normalized.svg"
   inkscape:version="0.92.4 (5da689c313, 2019-01-14)">
  <metadata
     id="metadata137">
    <rdf:RDF>
      <cc:Work
         rdf:about="">
        <dc:format>image/svg+xml</dc:format>
        <dc:type
           rdf:resource="http://purl.org/dc/dcmitype/StillImage" />
        <dc:title></dc:title>
      </cc:Work>
    </rdf:RDF>
  </metadata>
  <sodipodi:namedview
     pagecolor="#ffffff"
     bordercolor="#666666"
     borderopacity="1"
     objecttolerance="10"
     gridtolerance="10"
     guidetolerance="10"
     inkscape:pageopacity="0"
     inkscape:pageshadow="2"
     inkscape:window-width="661"
     inkscape:window-height="480"
     id="namedview135"
     showgrid="false"
     inkscape:zoom="1.4789634"
     inkscape:cx="90.708415"
     inkscape:cy="79.785614"
     inkscape:window-x="0"
     inkscape:window-y="0"
     inkscape:window-maximized="0"
     inkscape:current-layer="svg133" />
  <defs
     id="defs8">
    <clipPath
       id="clip1">
      <path
         d="M 133 80 L 136.0625 80 L 136.0625 86 L 133 86 Z M 133 80 "
         id="path2" />
    </clipPath>
    <clipPath
       id="clip2">
      <path
         d="M 61 19 L 63 19 L 63 119.679688 L 61 119.679688 Z M 61 19 "
         id="path5" />
    </clipPath>
  </defs>
  <g
     id="surface46">
    <path
       style=" stroke:none;fill-rule:nonzero;fill:rgb(79.214478%,79.214478%,79.214478%);fill-opacity:1;"
       d="M 61.53125 81.582031 L 70.945313 19.535156 L 20.527344 27.9375 L 61.53125 81.582031 "
       id="path10" />
    <path
       style="fill:none;stroke-width:0.856;stroke-linecap:butt;stroke-linejoin:miter;stroke:rgb(0%,0%,0%);stroke-opacity:1;stroke-miterlimit:4;"
       d="M 61.53125 81.582031 L 70.945313 19.535156 M 20.527344 27.9375 L 61.53125 81.582031 "
       id="path12" />
    <path
       style="fill:none;stroke-width:0.437;stroke-linecap:round;stroke-linejoin:round;stroke:rgb(0%,0%,0%);stroke-opacity:1;stroke-miterlimit:4;"
       d="M 17.847656 81.71875 L 17.847656 80.949219 M 105.988281 81.71875 L 105.988281 80.949219 "
       id="path14" />
    <path
       style=" stroke:none;fill-rule:nonzero;fill:rgb(0%,0%,0%);fill-opacity:1;"
       d="M 128.859375 79.300781 C 128.984375 79.269531 129.046875 79.269531 129.203125 79.269531 C 129.796875 79.269531 129.921875 79.707031 130.203125 80.644531 C 130.375 81.191406 130.8125 82.988281 130.8125 83.378906 C 130.8125 83.660156 130.375 84.160156 130.125 84.457031 C 129.765625 84.863281 129.640625 84.957031 129.46875 84.957031 C 129.28125 84.957031 129.15625 84.675781 128.84375 84.675781 C 128.625 84.675781 128.453125 84.847656 128.453125 85.066406 C 128.453125 85.488281 128.890625 85.519531 128.984375 85.519531 C 130.203125 85.519531 133.078125 80.738281 133.078125 79.519531 C 133.078125 79.144531 132.875 78.878906 132.484375 78.878906 C 132.21875 78.878906 132.109375 79.097656 132.109375 79.238281 C 132.109375 79.707031 132.671875 79.597656 132.671875 80.019531 C 132.671875 80.566406 131.859375 81.957031 131.40625 82.675781 L 131.203125 81.472656 C 131.078125 80.707031 130.46875 78.878906 130.328125 78.878906 C 130.15625 78.878906 129.34375 79.050781 128.859375 79.128906 Z M 128.859375 79.300781 "
       id="path16" />
    <g
       clip-path="url(#clip1)"
       clip-rule="nonzero"
       id="g20">
      <path
         style=" stroke:none;fill-rule:nonzero;fill:rgb(0%,0%,0%);fill-opacity:1;"
         d="M 133.589844 85.125 L 135.511719 85.125 L 135.511719 85.015625 C 135.167969 85.03125 134.917969 85.015625 134.917969 84.796875 C 134.917969 84.6875 135.011719 84.4375 135.042969 84.296875 L 136.027344 80.75 C 136.058594 80.640625 136.089844 80.5 136.027344 80.5 C 135.980469 80.5 135.027344 80.703125 134.699219 80.765625 L 134.699219 80.859375 L 135.089844 80.84375 C 135.152344 80.84375 135.355469 80.84375 135.355469 81.0625 C 135.355469 81.125 135.324219 81.21875 135.308594 81.296875 L 134.371094 84.65625 C 134.277344 84.96875 133.996094 84.984375 133.589844 85.03125 Z M 133.589844 85.125 "
         id="path18" />
    </g>
    <path
       style="fill:none;stroke-width:0.437;stroke-linecap:round;stroke-linejoin:round;stroke:rgb(0%,0%,0%);stroke-opacity:1;stroke-miterlimit:4;"
       d="M 0.222656 81.71875 L 123.617188 81.71875 "
       id="path22" />
    <path
       style=" stroke:none;fill-rule:nonzero;fill:rgb(0%,0%,0%);fill-opacity:1;"
       d="M 124.648438 81.273438 C 123.929688 81.054688 123.457031 80.855469 122.878906 80.621094 L 122.878906 82.824219 C 123.085938 82.726563 123.929688 82.390625 124.648438 82.171875 C 125.421875 81.941406 126.125 81.78125 126.578125 81.722656 C 126.125 81.664063 125.421875 81.503906 124.648438 81.273438 "
       id="path24" />
    <path
       style="fill:none;stroke-width:0.437;stroke-linecap:round;stroke-linejoin:round;stroke:rgb(0%,0%,0%);stroke-opacity:1;stroke-miterlimit:4;"
       d="M 61.921875 37.648438 L 62.691406 37.648438 "
       id="path26" />
    <path
       style=" stroke:none;fill-rule:nonzero;fill:rgb(0%,0%,0%);fill-opacity:1;"
       d="M 58.9375 10.390625 C 59.0625 10.359375 59.125 10.359375 59.28125 10.359375 C 59.875 10.359375 60 10.796875 60.28125 11.734375 C 60.453125 12.28125 60.890625 14.078125 60.890625 14.46875 C 60.890625 14.75 60.453125 15.25 60.203125 15.546875 C 59.84375 15.953125 59.71875 16.046875 59.546875 16.046875 C 59.359375 16.046875 59.234375 15.765625 58.921875 15.765625 C 58.703125 15.765625 58.53125 15.9375 58.53125 16.15625 C 58.53125 16.578125 58.96875 16.609375 59.0625 16.609375 C 60.28125 16.609375 63.15625 11.828125 63.15625 10.609375 C 63.15625 10.234375 62.953125 9.96875 62.5625 9.96875 C 62.296875 9.96875 62.1875 10.1875 62.1875 10.328125 C 62.1875 10.796875 62.75 10.6875 62.75 11.109375 C 62.75 11.65625 61.9375 13.046875 61.484375 13.765625 L 61.28125 12.5625 C 61.15625 11.796875 60.546875 9.96875 60.40625 9.96875 C 60.234375 9.96875 59.421875 10.140625 58.9375 10.21875 Z M 58.9375 10.390625 "
       id="path28" />
    <path
       style=" stroke:none;fill-rule:nonzero;fill:rgb(0%,0%,0%);fill-opacity:1;"
       d="M 66.078125 15.257813 C 65.96875 15.507813 65.859375 15.695313 65.40625 15.695313 L 64.109375 15.695313 L 64.109375 15.664063 L 65.421875 14.335938 C 66.265625 13.492188 66.4375 13.179688 66.4375 12.726563 C 66.4375 12.210938 66.046875 11.585938 65.328125 11.585938 C 65.15625 11.585938 64.265625 11.617188 63.890625 12.679688 L 64.03125 12.726563 C 64.125 12.554688 64.390625 12.085938 65 12.085938 C 65.53125 12.085938 65.84375 12.492188 65.84375 12.914063 C 65.84375 13.148438 65.828125 13.539063 64.859375 14.554688 L 63.421875 16.101563 L 63.421875 16.210938 L 65.859375 16.210938 L 66.203125 15.304688 Z M 66.078125 15.257813 "
       id="path30" />
    <g
       clip-path="url(#clip2)"
       clip-rule="nonzero"
       id="g34">
      <path
         style="fill:none;stroke-width:0.437;stroke-linecap:round;stroke-linejoin:round;stroke:rgb(0%,0%,0%);stroke-opacity:1;stroke-miterlimit:4;"
         d="M 61.921875 119.457031 L 61.921875 20.023438 "
         id="path32" />
    </g>
    <path
       style=" stroke:none;fill-rule:nonzero;fill:rgb(0%,0%,0%);fill-opacity:1;"
       d="M 61.472656 18.988281 C 61.253906 19.710938 61.054688 20.179688 60.820313 20.761719 L 63.023438 20.761719 C 62.925781 20.554688 62.589844 19.710938 62.371094 18.988281 C 62.140625 18.214844 61.980469 17.515625 61.921875 17.0625 C 61.863281 17.515625 61.703125 18.214844 61.472656 18.988281 "
       id="path36" />
    <path
       style="fill-rule:nonzero;fill:rgb(92.155457%,9.803772%,13.725281%);fill-opacity:1;stroke-width:0.12;stroke-linecap:round;stroke-linejoin:round;stroke:rgb(100%,0%,0%);stroke-opacity:1;stroke-miterlimit:4;"
       d="M 114.109375 88.277344 L 114.097656 88.058594 L 114.066406 87.839844 L 114.011719 87.628906 L 113.9375 87.421875 L 113.84375 87.222656 L 113.726563 87.035156 L 113.59375 86.863281 L 113.445313 86.699219 L 113.28125 86.554688 L 113.101563 86.425781 L 112.910156 86.316406 L 112.710938 86.226563 L 112.503906 86.15625 L 112.289063 86.109375 L 112.070313 86.082031 L 111.851563 86.074219 L 111.632813 86.089844 L 111.417969 86.128906 L 111.203125 86.191406 L 111 86.269531 L 110.804688 86.371094 L 110.621094 86.488281 L 110.449219 86.625 L 110.292969 86.78125 L 110.152344 86.949219 L 110.027344 87.128906 L 109.921875 87.324219 L 109.835938 87.523438 L 109.773438 87.734375 L 109.726563 87.949219 L 109.707031 88.167969 L 109.707031 88.386719 "
       id="path38" />
    <path
       style="fill-rule:nonzero;fill:rgb(92.155457%,9.803772%,13.725281%);fill-opacity:1;stroke-width:0.12;stroke-linecap:round;stroke-linejoin:round;stroke:rgb(100%,0%,0%);stroke-opacity:1;stroke-miterlimit:4;"
       d="M 109.707031 88.386719 L 109.730469 88.605469 L 109.773438 88.820313 L 109.835938 89.03125 L 109.921875 89.234375 L 110.027344 89.425781 L 110.152344 89.609375 L 110.292969 89.777344 L 110.445313 89.929688 L 110.617188 90.066406 L 110.800781 90.1875 L 110.996094 90.285156 L 111.203125 90.367188 L 111.414063 90.425781 L 111.628906 90.464844 L 111.847656 90.480469 L 112.070313 90.476563 L 112.289063 90.449219 L 112.503906 90.398438 L 112.714844 90.328125 L 112.914063 90.238281 L 113.101563 90.128906 L 113.28125 90 L 113.445313 89.855469 L 113.59375 89.695313 L 113.726563 89.519531 L 113.84375 89.332031 L 113.9375 89.132813 L 114.011719 88.925781 L 114.066406 88.714844 L 114.097656 88.496094 L 114.105469 88.277344 L 114.097656 88.058594 "
       id="path40" />
    <path
       style=" stroke:none;fill-rule:nonzero;fill:rgb(0%,0%,0%);fill-opacity:1;"
       d="M 110.3125 48.207031 L 112.515625 48.207031 L 112.503906 47.988281 L 112.472656 47.769531 L 112.417969 47.554688 L 112.34375 47.351563 L 112.246094 47.152344 L 112.132813 46.964844 L 112 46.789063 L 111.851563 46.628906 L 111.6875 46.484375 L 111.507813 46.355469 L 111.316406 46.246094 L 111.117188 46.15625 L 110.910156 46.085938 L 110.695313 46.035156 L 110.476563 46.007813 L 110.257813 46.003906 L 110.039063 46.019531 L 109.820313 46.058594 L 109.609375 46.117188 L 109.40625 46.199219 L 109.210938 46.296875 L 109.027344 46.417969 L 108.855469 46.554688 L 108.695313 46.707031 L 108.554688 46.875 L 108.433594 47.058594 L 108.328125 47.25 L 108.242188 47.453125 L 108.175781 47.664063 L 108.132813 47.878906 L 108.113281 48.097656 L 108.113281 48.316406 L 110.3125 48.207031 "
       id="path42" />
    <path
       style=" stroke:none;fill-rule:nonzero;fill:rgb(0%,0%,0%);fill-opacity:1;"
       d="M 110.3125 48.207031 L 108.113281 48.316406 L 108.132813 48.535156 L 108.175781 48.75 L 108.242188 48.960938 L 108.328125 49.164063 L 108.433594 49.355469 L 108.558594 49.535156 L 108.699219 49.703125 L 108.855469 49.859375 L 109.027344 49.996094 L 109.210938 50.113281 L 109.40625 50.214844 L 109.609375 50.292969 L 109.824219 50.355469 L 110.039063 50.394531 L 110.257813 50.410156 L 110.476563 50.402344 L 110.695313 50.375 L 110.910156 50.328125 L 111.117188 50.257813 L 111.316406 50.167969 L 111.507813 50.054688 L 111.6875 49.929688 L 111.851563 49.78125 L 112 49.621094 L 112.132813 49.445313 L 112.246094 49.257813 L 112.34375 49.0625 L 112.417969 48.855469 L 112.472656 48.644531 L 112.503906 48.425781 L 112.515625 48.207031 L 112.503906 47.988281 L 110.3125 48.207031 "
       id="path44" />
    <path
       style="fill:none;stroke-width:0.856;stroke-linecap:round;stroke-linejoin:round;stroke:rgb(0%,0%,0%);stroke-opacity:1;stroke-miterlimit:4;"
       d="M 104.90625 50.84375 L 61.53125 81.582031 L 95.390625 33.835938 "
       id="path46" />
    <path
       style=" stroke:none;fill-rule:nonzero;fill:rgb(0%,0%,0%);fill-opacity:1;"
       d="M 95.753906 32.109375 C 94.820313 32.835938 94.136719 33.253906 93.316406 33.785156 L 96.132813 35.78125 C 96.195313 35.425781 96.527344 34.046875 96.90625 32.925781 C 97.308594 31.726563 97.738281 30.6875 98.078125 30.054688 C 97.59375 30.582031 96.753906 31.335938 95.753906 32.109375 "
       id="path48" />
    <path
       style=" stroke:none;fill-rule:nonzero;fill:rgb(0%,0%,0%);fill-opacity:1;"
       d="M 105.824219 49.335938 C 104.703125 49.714844 103.921875 49.882813 102.96875 50.109375 L 104.964844 52.925781 C 105.140625 52.613281 105.914063 51.421875 106.640625 50.488281 C 107.414063 49.492188 108.167969 48.652344 108.695313 48.164063 C 108.0625 48.503906 107.023438 48.9375 105.824219 49.335938 "
       id="path50" />
    <path
       style="fill:none;stroke-width:0.856;stroke-linecap:round;stroke-linejoin:round;stroke:rgb(0%,0%,0%);stroke-opacity:1;stroke-miterlimit:4;"
       d="M 106.460938 87.574219 L 61.53125 81.582031 L 99.1875 104.261719 "
       id="path52" />
    <path
       style=" stroke:none;fill-rule:nonzero;fill:rgb(0%,0%,0%);fill-opacity:1;"
       d="M 100.714844 104.464844 C 100.019531 103.695313 99.613281 103.128906 99.09375 102.445313 L 97.535156 105.035156 C 97.851563 105.066406 99.074219 105.265625 100.078125 105.523438 C 101.152344 105.792969 102.089844 106.101563 102.660156 106.355469 C 102.167969 105.96875 101.457031 105.285156 100.714844 104.464844 "
       id="path54" />
    <path
       style=" stroke:none;fill-rule:nonzero;fill:rgb(0%,0%,0%);fill-opacity:1;"
       d="M 107.945313 87.148438 C 107.003906 86.71875 106.402344 86.363281 105.65625 85.941406 L 105.257813 88.9375 C 105.554688 88.839844 106.761719 88.539063 107.78125 88.371094 C 108.875 88.195313 109.855469 88.105469 110.484375 88.109375 C 109.878906 87.949219 108.953125 87.605469 107.945313 87.148438 "
       id="path56" />
    <path
       style="fill:none;stroke-width:0.856;stroke-linecap:butt;stroke-linejoin:miter;stroke:rgb(92.155457%,9.803772%,13.725281%);stroke-opacity:1;stroke-dasharray:4.279,4.279;stroke-miterlimit:4;"
       d="M 122.292969 65.324219 L 0.34375 98.269531 "
       id="path58" />
    <path
       style=" stroke:none;fill-rule:nonzero;fill:rgb(0%,0%,0%);fill-opacity:1;"
       d="M 3.847656 104.59375 L 4.050781 105.953125 L 4.175781 105.90625 C 4.191406 105.8125 4.207031 105.71875 4.332031 105.6875 C 4.566406 105.625 4.957031 105.6875 5.191406 105.625 C 5.660156 105.5 6.363281 105.0625 6.128906 104.171875 C 5.925781 103.46875 4.722656 103.015625 4.597656 102.5 C 4.488281 102.09375 4.707031 101.9375 4.894531 101.890625 C 5.425781 101.75 5.769531 102.1875 5.941406 102.640625 L 6.066406 102.59375 L 5.925781 101.40625 L 5.800781 101.4375 C 5.769531 101.5 5.753906 101.609375 5.613281 101.65625 C 5.347656 101.71875 5.160156 101.609375 4.785156 101.703125 C 3.910156 101.953125 3.972656 102.640625 4.050781 102.890625 C 4.222656 103.53125 5.425781 104.0625 5.566406 104.609375 C 5.644531 104.875 5.613281 105.328125 5.144531 105.453125 C 4.488281 105.625 4.128906 104.90625 3.972656 104.5625 Z M 3.847656 104.59375 "
       id="path60" />
    <path
       style=" stroke:none;fill-rule:nonzero;fill:rgb(0%,0%,0%);fill-opacity:1;"
       d="M 7.78125 102.582031 C 7.890625 101.753906 8.28125 100.972656 8.71875 100.863281 C 8.9375 100.800781 9.0625 100.925781 9.109375 101.097656 C 9.125 101.160156 9.359375 102.175781 7.734375 102.988281 Z M 9.796875 103.300781 C 9.484375 103.753906 9.21875 104.128906 8.765625 104.253906 C 8.421875 104.347656 7.953125 104.269531 7.796875 103.691406 C 7.75 103.550781 7.75 103.378906 7.734375 103.191406 L 7.953125 103.097656 C 9.234375 102.535156 9.84375 101.660156 9.671875 101.003906 C 9.5625 100.628906 9.265625 100.488281 8.84375 100.613281 C 7.671875 100.925781 6.734375 102.675781 7.046875 103.863281 C 7.1875 104.378906 7.65625 104.957031 8.515625 104.722656 C 9.34375 104.503906 9.890625 103.550781 9.9375 103.378906 Z M 9.796875 103.300781 "
       id="path62" />
    <path
       style=" stroke:none;fill-rule:nonzero;fill:rgb(0%,0%,0%);fill-opacity:1;"
       d="M 13.199219 100.578125 C 13.464844 101.578125 13.136719 103.3125 12.136719 103.578125 C 11.917969 103.640625 11.683594 103.59375 11.621094 103.375 C 11.542969 103.0625 11.558594 101.84375 11.636719 101.25 C 11.699219 100.640625 12.074219 100.140625 12.464844 100.03125 C 12.996094 99.890625 13.136719 100.359375 13.199219 100.578125 Z M 10.324219 100.5625 L 10.511719 100.515625 C 10.699219 100.4375 10.886719 100.5 10.917969 100.640625 C 10.964844 100.828125 10.964844 104.125 10.996094 105.109375 C 10.980469 105.390625 10.996094 105.625 10.558594 105.75 L 10.589844 105.875 L 12.292969 105.40625 L 12.261719 105.28125 C 12.042969 105.34375 11.730469 105.4375 11.667969 105.1875 C 11.621094 105.015625 11.605469 104.015625 11.589844 103.734375 C 11.824219 103.78125 11.996094 103.78125 12.214844 103.71875 C 13.339844 103.421875 14.292969 101.6875 13.949219 100.40625 C 13.777344 99.8125 13.417969 99.375 12.667969 99.578125 C 11.996094 99.765625 11.683594 100.5 11.558594 100.84375 L 11.542969 100.828125 L 11.558594 100 C 11.558594 99.890625 11.527344 99.890625 11.511719 99.890625 L 10.277344 100.421875 Z M 10.324219 100.5625 "
       id="path64" />
    <path
       style=" stroke:none;fill-rule:nonzero;fill:rgb(0%,0%,0%);fill-opacity:1;"
       d="M 18.46875 100.960938 C 18.21875 101.414063 18.09375 101.679688 17.96875 101.710938 C 17.90625 101.726563 17.84375 101.679688 17.828125 101.617188 C 17.765625 101.367188 17.75 98.351563 17.75 98.226563 L 17.6875 98.226563 L 17.203125 98.414063 L 17.1875 98.460938 L 17.203125 98.835938 L 17.1875 98.835938 C 17.109375 98.632813 16.765625 98.460938 16.40625 98.570313 C 15.3125 98.867188 14.46875 100.773438 14.796875 101.976563 C 14.859375 102.210938 15.09375 102.945313 15.921875 102.726563 C 16.421875 102.585938 16.78125 102.226563 17.1875 101.039063 L 17.203125 101.054688 C 17.203125 101.570313 17.21875 101.757813 17.265625 101.960938 C 17.3125 102.085938 17.359375 102.304688 17.71875 102.210938 C 18.0625 102.117188 18.265625 101.757813 18.609375 101.007813 Z M 15.46875 101.773438 C 15.28125 101.039063 15.53125 99.007813 16.5 98.742188 C 16.75 98.679688 17.015625 98.789063 17.125 99.179688 C 17.34375 99.992188 17.015625 101.992188 16.140625 102.226563 C 15.90625 102.289063 15.59375 102.210938 15.46875 101.773438 Z M 15.46875 101.773438 "
       id="path66" />
    <path
       style=" stroke:none;fill-rule:nonzero;fill:rgb(0%,0%,0%);fill-opacity:1;"
       d="M 20.023438 101.515625 C 20.070313 100.328125 20.070313 99.90625 20.226563 99.234375 C 20.273438 99.09375 20.523438 98.046875 20.773438 97.96875 C 20.976563 97.921875 20.914063 98.25 21.273438 98.15625 C 21.367188 98.125 21.664063 98.046875 21.554688 97.609375 C 21.476563 97.34375 21.242188 97.265625 21.039063 97.3125 C 20.523438 97.453125 20.164063 98.59375 20.023438 99.234375 L 20.023438 99.40625 L 20.007813 99.390625 L 19.960938 97.625 L 19.929688 97.609375 C 19.570313 97.78125 19.117188 98.015625 18.710938 98.203125 L 18.742188 98.34375 C 18.820313 98.296875 18.914063 98.25 19.007813 98.234375 C 19.257813 98.15625 19.335938 98.265625 19.367188 98.390625 C 19.382813 98.46875 19.414063 98.75 19.414063 99.09375 L 19.398438 101.671875 Z M 20.023438 101.515625 "
       id="path68" />
    <path
       style=" stroke:none;fill-rule:nonzero;fill:rgb(0%,0%,0%);fill-opacity:1;"
       d="M 25.816406 98.976563 C 25.566406 99.429688 25.441406 99.695313 25.316406 99.726563 C 25.253906 99.742188 25.191406 99.695313 25.175781 99.632813 C 25.113281 99.382813 25.097656 96.367188 25.097656 96.242188 L 25.035156 96.242188 L 24.550781 96.429688 L 24.535156 96.476563 L 24.550781 96.851563 L 24.535156 96.851563 C 24.457031 96.648438 24.113281 96.476563 23.753906 96.585938 C 22.660156 96.882813 21.816406 98.789063 22.144531 99.992188 C 22.207031 100.226563 22.441406 100.960938 23.269531 100.742188 C 23.769531 100.601563 24.128906 100.242188 24.535156 99.054688 L 24.550781 99.070313 C 24.550781 99.585938 24.566406 99.773438 24.613281 99.976563 C 24.660156 100.101563 24.707031 100.320313 25.066406 100.226563 C 25.410156 100.132813 25.613281 99.773438 25.957031 99.023438 Z M 22.816406 99.789063 C 22.628906 99.054688 22.878906 97.023438 23.847656 96.757813 C 24.097656 96.695313 24.363281 96.804688 24.472656 97.195313 C 24.691406 98.007813 24.363281 100.007813 23.488281 100.242188 C 23.253906 100.304688 22.941406 100.226563 22.816406 99.789063 Z M 22.816406 99.789063 "
       id="path70" />
    <path
       style=" stroke:none;fill-rule:nonzero;fill:rgb(0%,0%,0%);fill-opacity:1;"
       d="M 27.851563 95.59375 L 27.195313 95.765625 L 27.195313 94.859375 C 27.195313 94.796875 27.164063 94.71875 27.117188 94.75 C 27.039063 94.75 27.023438 94.84375 27.007813 94.875 C 26.835938 95.25 26.539063 95.71875 26.320313 95.9375 C 26.195313 96.03125 25.976563 96.171875 25.945313 96.25 C 25.929688 96.3125 25.945313 96.359375 25.960938 96.40625 L 26.570313 96.234375 L 26.601563 98.65625 C 26.601563 98.796875 26.570313 99.359375 26.601563 99.484375 C 26.664063 99.734375 26.945313 99.75 27.101563 99.703125 C 27.523438 99.578125 27.742188 99.140625 27.992188 98.390625 L 27.867188 98.34375 C 27.742188 98.671875 27.554688 99.140625 27.382813 99.1875 C 27.304688 99.21875 27.242188 99.15625 27.226563 99.078125 C 27.226563 99.046875 27.210938 99.03125 27.210938 99 L 27.179688 96.078125 L 27.867188 95.890625 Z M 27.851563 95.59375 "
       id="path72" />
    <path
       style=" stroke:none;fill-rule:nonzero;fill:rgb(0%,0%,0%);fill-opacity:1;"
       d="M 30.257813 97.742188 C 30.039063 98.304688 29.835938 98.539063 29.742188 98.570313 C 29.679688 98.585938 29.601563 98.539063 29.585938 98.476563 C 29.554688 98.367188 29.554688 98.023438 29.554688 97.898438 L 29.570313 95.023438 L 29.539063 95.023438 C 29.226563 95.164063 28.570313 95.492188 28.289063 95.601563 L 28.320313 95.742188 C 28.773438 95.617188 28.851563 95.632813 28.898438 95.804688 C 28.945313 96.039063 28.851563 98.257813 28.960938 98.648438 C 28.992188 98.804688 29.101563 99.164063 29.492188 99.054688 C 29.945313 98.929688 30.179688 98.382813 30.382813 97.804688 Z M 29.507813 93.632813 C 29.460938 93.460938 29.242188 93.226563 28.976563 93.289063 C 28.773438 93.351563 28.632813 93.554688 28.710938 93.835938 C 28.789063 94.132813 29.007813 94.226563 29.226563 94.164063 C 29.492188 94.101563 29.554688 93.804688 29.507813 93.632813 Z M 29.507813 93.632813 "
       id="path74" />
    <path
       style=" stroke:none;fill-rule:nonzero;fill:rgb(0%,0%,0%);fill-opacity:1;"
       d="M 34.492188 96.558594 C 34.304688 97.027344 34.164063 97.355469 34.007813 97.402344 C 33.992188 97.402344 33.851563 97.417969 33.820313 97.292969 C 33.757813 97.042969 33.882813 94.824219 33.773438 94.464844 C 33.679688 94.121094 33.445313 93.964844 33.054688 94.074219 C 32.367188 94.261719 31.929688 95.636719 31.695313 96.324219 L 31.679688 96.324219 L 31.742188 94.433594 L 31.710938 94.433594 C 31.273438 94.652344 30.867188 94.855469 30.429688 95.058594 L 30.476563 95.183594 C 30.929688 95.058594 31.023438 95.136719 31.054688 95.261719 C 31.101563 95.449219 31.085938 97.511719 31.085938 98.527344 L 31.695313 98.355469 C 31.726563 97.136719 31.726563 96.761719 31.976563 96.089844 C 32.132813 95.542969 32.476563 94.683594 32.867188 94.574219 C 33.023438 94.527344 33.101563 94.636719 33.148438 94.792969 C 33.242188 95.121094 33.164063 97.292969 33.226563 97.511719 C 33.289063 97.730469 33.367188 97.996094 33.757813 97.886719 C 34.195313 97.761719 34.382813 97.308594 34.648438 96.636719 Z M 34.492188 96.558594 "
       id="path76" />
    <path
       style=" stroke:none;fill-rule:nonzero;fill:rgb(0%,0%,0%);fill-opacity:1;"
       d="M 38.09375 93.035156 L 37.578125 93.175781 C 37.515625 93.191406 37.4375 93.144531 37.265625 93.097656 C 37.09375 93.066406 36.890625 93.035156 36.53125 93.128906 C 35.859375 93.316406 35.03125 94.050781 35.28125 94.972656 C 35.4375 95.550781 35.828125 95.644531 36.1875 95.707031 C 35.9375 95.988281 35.65625 96.316406 35.734375 96.566406 C 35.765625 96.722656 35.921875 96.800781 36.0625 96.847656 C 35.453125 97.488281 35.234375 97.738281 35.375 98.207031 C 35.484375 98.660156 36.046875 99.003906 36.953125 98.769531 C 38.078125 98.457031 38.609375 97.769531 38.421875 97.082031 C 38.109375 95.925781 36.375 96.535156 36.265625 96.097656 C 36.234375 95.988281 36.34375 95.722656 36.46875 95.691406 C 36.578125 95.660156 36.703125 95.660156 36.796875 95.644531 C 37.53125 95.441406 38.140625 94.535156 37.96875 93.941406 C 37.921875 93.769531 37.859375 93.628906 37.765625 93.472656 L 38.1875 93.347656 Z M 37.984375 97.457031 C 38.09375 97.863281 37.78125 98.363281 37.03125 98.550781 C 36.921875 98.582031 36.03125 98.800781 35.828125 98.019531 C 35.765625 97.832031 35.703125 97.597656 35.953125 97.222656 C 35.984375 97.191406 36.1875 96.910156 36.25 96.894531 C 36.3125 96.878906 37.1875 96.957031 37.375 96.988281 C 37.546875 97.019531 37.875 97.082031 37.984375 97.457031 Z M 37.21875 93.769531 C 37.40625 94.441406 37.1875 95.347656 36.65625 95.488281 C 36.28125 95.597656 36.078125 95.363281 35.96875 94.988281 C 35.828125 94.425781 35.953125 93.488281 36.59375 93.316406 C 36.953125 93.222656 37.125 93.425781 37.21875 93.769531 Z M 37.21875 93.769531 "
       id="path78" />
    <path
       style=" stroke:none;fill-rule:nonzero;fill:rgb(0%,0%,0%);fill-opacity:1;"
       d="M 43.726563 92.328125 C 43.992188 93.328125 43.664063 95.0625 42.664063 95.328125 C 42.445313 95.390625 42.210938 95.34375 42.148438 95.125 C 42.070313 94.8125 42.085938 93.59375 42.164063 93 C 42.226563 92.390625 42.601563 91.890625 42.992188 91.78125 C 43.523438 91.640625 43.664063 92.109375 43.726563 92.328125 Z M 40.851563 92.3125 L 41.039063 92.265625 C 41.226563 92.1875 41.414063 92.25 41.445313 92.390625 C 41.492188 92.578125 41.492188 95.875 41.523438 96.859375 C 41.507813 97.140625 41.523438 97.375 41.085938 97.5 L 41.117188 97.625 L 42.820313 97.15625 L 42.789063 97.03125 C 42.570313 97.09375 42.257813 97.1875 42.195313 96.9375 C 42.148438 96.765625 42.132813 95.765625 42.117188 95.484375 C 42.351563 95.53125 42.523438 95.53125 42.742188 95.46875 C 43.867188 95.171875 44.820313 93.4375 44.476563 92.15625 C 44.304688 91.5625 43.945313 91.125 43.195313 91.328125 C 42.523438 91.515625 42.210938 92.25 42.085938 92.59375 L 42.070313 92.578125 L 42.085938 91.75 C 42.085938 91.640625 42.054688 91.640625 42.039063 91.640625 L 40.804688 92.171875 Z M 40.851563 92.3125 "
       id="path80" />
    <path
       style=" stroke:none;fill-rule:nonzero;fill:rgb(0%,0%,0%);fill-opacity:1;"
       d="M 47.046875 93.121094 C 46.765625 93.746094 46.65625 94.027344 46.4375 94.089844 C 46.328125 94.121094 46.296875 94.011719 46.296875 93.964844 C 46.265625 93.855469 46.265625 93.636719 46.265625 93.558594 L 46.21875 88.417969 L 46.15625 88.402344 C 45.765625 88.605469 45.34375 88.808594 44.9375 88.964844 L 44.96875 89.089844 C 45.171875 89.027344 45.515625 88.933594 45.578125 89.152344 C 45.625 89.308594 45.59375 93.964844 45.640625 94.136719 C 45.703125 94.355469 45.828125 94.636719 46.1875 94.542969 C 46.703125 94.402344 46.90625 93.933594 47.15625 93.183594 Z M 47.046875 93.121094 "
       id="path82" />
    <path
       style=" stroke:none;fill-rule:nonzero;fill:rgb(0%,0%,0%);fill-opacity:1;"
       d="M 51.296875 92.09375 C 51.046875 92.546875 50.921875 92.8125 50.796875 92.84375 C 50.734375 92.859375 50.671875 92.8125 50.65625 92.75 C 50.59375 92.5 50.578125 89.484375 50.578125 89.359375 L 50.515625 89.359375 L 50.03125 89.546875 L 50.015625 89.59375 L 50.03125 89.96875 L 50.015625 89.96875 C 49.9375 89.765625 49.59375 89.59375 49.234375 89.703125 C 48.140625 90 47.296875 91.90625 47.625 93.109375 C 47.6875 93.34375 47.921875 94.078125 48.75 93.859375 C 49.25 93.71875 49.609375 93.359375 50.015625 92.171875 L 50.03125 92.1875 C 50.03125 92.703125 50.046875 92.890625 50.09375 93.09375 C 50.140625 93.21875 50.1875 93.4375 50.546875 93.34375 C 50.890625 93.25 51.09375 92.890625 51.4375 92.140625 Z M 48.296875 92.90625 C 48.109375 92.171875 48.359375 90.140625 49.328125 89.875 C 49.578125 89.8125 49.84375 89.921875 49.953125 90.3125 C 50.171875 91.125 49.84375 93.125 48.96875 93.359375 C 48.734375 93.421875 48.421875 93.34375 48.296875 92.90625 Z M 48.296875 92.90625 "
       id="path84" />
    <path
       style=" stroke:none;fill-rule:nonzero;fill:rgb(0%,0%,0%);fill-opacity:1;"
       d="M 55.378906 90.914063 C 55.191406 91.382813 55.050781 91.710938 54.894531 91.757813 C 54.878906 91.757813 54.738281 91.773438 54.707031 91.648438 C 54.644531 91.398438 54.769531 89.179688 54.660156 88.820313 C 54.566406 88.476563 54.332031 88.320313 53.941406 88.429688 C 53.253906 88.617188 52.816406 89.992188 52.582031 90.679688 L 52.566406 90.679688 L 52.628906 88.789063 L 52.597656 88.789063 C 52.160156 89.007813 51.753906 89.210938 51.316406 89.414063 L 51.363281 89.539063 C 51.816406 89.414063 51.910156 89.492188 51.941406 89.617188 C 51.988281 89.804688 51.972656 91.867188 51.972656 92.882813 L 52.582031 92.710938 C 52.613281 91.492188 52.613281 91.117188 52.863281 90.445313 C 53.019531 89.898438 53.363281 89.039063 53.753906 88.929688 C 53.910156 88.882813 53.988281 88.992188 54.035156 89.148438 C 54.128906 89.476563 54.050781 91.648438 54.113281 91.867188 C 54.175781 92.085938 54.253906 92.351563 54.644531 92.242188 C 55.082031 92.117188 55.269531 91.664063 55.535156 90.992188 Z M 55.378906 90.914063 "
       id="path86" />
    <path
       style=" stroke:none;fill-rule:nonzero;fill:rgb(0%,0%,0%);fill-opacity:1;"
       d="M 56.667969 89.378906 C 56.777344 88.550781 57.167969 87.769531 57.605469 87.660156 C 57.824219 87.597656 57.949219 87.722656 57.996094 87.894531 C 58.011719 87.957031 58.246094 88.972656 56.621094 89.785156 Z M 58.683594 90.097656 C 58.371094 90.550781 58.105469 90.925781 57.652344 91.050781 C 57.308594 91.144531 56.839844 91.066406 56.683594 90.488281 C 56.636719 90.347656 56.636719 90.175781 56.621094 89.988281 L 56.839844 89.894531 C 58.121094 89.332031 58.730469 88.457031 58.558594 87.800781 C 58.449219 87.425781 58.152344 87.285156 57.730469 87.410156 C 56.558594 87.722656 55.621094 89.472656 55.933594 90.660156 C 56.074219 91.175781 56.542969 91.753906 57.402344 91.519531 C 58.230469 91.300781 58.777344 90.347656 58.824219 90.175781 Z M 58.683594 90.097656 "
       id="path88" />
    <path
       style=" stroke:none;fill-rule:nonzero;fill:rgb(0%,0%,0%);fill-opacity:1;"
       d="M 23.449219 4.59375 L 23.277344 5.953125 L 23.417969 5.953125 C 23.464844 5.859375 23.496094 5.78125 23.621094 5.78125 C 23.871094 5.78125 24.214844 5.9375 24.464844 5.9375 C 24.949219 5.9375 25.746094 5.71875 25.746094 4.796875 C 25.746094 4.0625 24.699219 3.296875 24.699219 2.765625 C 24.699219 2.34375 24.964844 2.265625 25.152344 2.265625 C 25.714844 2.265625 25.917969 2.765625 25.964844 3.25 L 26.105469 3.25 L 26.277344 2.0625 L 26.152344 2.0625 C 26.105469 2.125 26.058594 2.21875 25.917969 2.21875 C 25.652344 2.21875 25.480469 2.0625 25.089844 2.0625 C 24.183594 2.0625 24.074219 2.75 24.074219 3.015625 C 24.074219 3.671875 25.089844 4.5 25.089844 5.0625 C 25.089844 5.34375 24.949219 5.765625 24.464844 5.765625 C 23.777344 5.765625 23.636719 4.96875 23.574219 4.59375 Z M 23.449219 4.59375 "
       id="path90" />
    <path
       style=" stroke:none;fill-rule:nonzero;fill:rgb(0%,0%,0%);fill-opacity:1;"
       d="M 29.214844 2.0625 C 27.964844 2.0625 26.699219 3.453125 26.699219 4.703125 C 26.699219 5.421875 27.074219 5.9375 27.996094 5.9375 C 29.292969 5.9375 30.464844 4.390625 30.464844 3.328125 C 30.464844 2.765625 30.199219 2.0625 29.214844 2.0625 Z M 29.152344 2.25 C 29.558594 2.25 29.746094 2.625 29.746094 3.0625 C 29.746094 3.984375 29.074219 5.765625 28.105469 5.765625 C 27.667969 5.765625 27.417969 5.453125 27.417969 4.96875 C 27.417969 3.953125 28.199219 2.25 29.152344 2.25 Z M 29.152344 2.25 "
       id="path92" />
    <path
       style=" stroke:none;fill-rule:nonzero;fill:rgb(0%,0%,0%);fill-opacity:1;"
       d="M 32.695313 4.796875 C 32.273438 5.328125 32.101563 5.5625 31.882813 5.5625 C 31.757813 5.5625 31.757813 5.453125 31.757813 5.40625 C 31.757813 5.296875 31.820313 5.078125 31.835938 5 L 33.132813 0.03125 L 33.085938 0 C 32.648438 0.09375 32.195313 0.171875 31.757813 0.234375 L 31.757813 0.359375 C 31.976563 0.359375 32.335938 0.359375 32.335938 0.578125 C 32.335938 0.75 31.085938 5.234375 31.085938 5.40625 C 31.085938 5.640625 31.132813 5.9375 31.507813 5.9375 C 32.039063 5.9375 32.367188 5.53125 32.804688 4.875 Z M 32.695313 4.796875 "
       id="path94" />
    <path
       style=" stroke:none;fill-rule:nonzero;fill:rgb(0%,0%,0%);fill-opacity:1;"
       d="M 37.074219 4.84375 C 36.761719 5.21875 36.527344 5.515625 36.371094 5.515625 C 36.277344 5.515625 36.261719 5.421875 36.261719 5.375 C 36.261719 5.25 36.371094 4.875 36.433594 4.703125 L 37.105469 2.140625 L 36.464844 2.140625 C 36.136719 3.0625 35.949219 3.59375 35.527344 4.234375 C 35.230469 4.671875 34.699219 5.484375 34.324219 5.484375 C 34.152344 5.484375 34.121094 5.296875 34.152344 5.1875 L 34.933594 2.078125 L 34.902344 2.0625 C 34.480469 2.171875 34.042969 2.25 33.621094 2.296875 L 33.621094 2.421875 C 33.964844 2.421875 34.136719 2.421875 34.136719 2.671875 C 34.136719 2.890625 33.480469 5.0625 33.480469 5.4375 C 33.480469 5.8125 33.636719 5.9375 33.949219 5.9375 C 34.714844 5.9375 35.355469 4.875 35.933594 3.90625 L 35.964844 3.90625 C 35.761719 4.609375 35.589844 5.328125 35.589844 5.46875 C 35.589844 5.609375 35.605469 5.921875 35.996094 5.921875 C 36.433594 5.921875 36.652344 5.703125 37.183594 4.921875 Z M 37.074219 4.84375 "
       id="path96" />
    <path
       style=" stroke:none;fill-rule:nonzero;fill:rgb(0%,0%,0%);fill-opacity:1;"
       d="M 39.933594 2.171875 L 39.246094 2.171875 L 39.496094 1.296875 C 39.511719 1.234375 39.496094 1.15625 39.433594 1.171875 C 39.355469 1.15625 39.324219 1.234375 39.292969 1.265625 C 39.042969 1.578125 38.636719 1.953125 38.355469 2.109375 C 38.214844 2.171875 37.964844 2.234375 37.917969 2.3125 C 37.886719 2.359375 37.886719 2.40625 37.902344 2.453125 L 38.527344 2.453125 L 37.917969 4.8125 C 37.886719 4.9375 37.714844 5.46875 37.714844 5.59375 C 37.714844 5.859375 37.964844 5.9375 38.136719 5.9375 C 38.574219 5.9375 38.902344 5.5625 39.339844 4.90625 L 39.230469 4.84375 C 39.027344 5.109375 38.714844 5.515625 38.542969 5.515625 C 38.449219 5.515625 38.417969 5.453125 38.417969 5.375 C 38.417969 5.34375 38.417969 5.328125 38.417969 5.296875 L 39.167969 2.453125 L 39.886719 2.453125 Z M 39.933594 2.171875 "
       id="path98" />
    <path
       style=" stroke:none;fill-rule:nonzero;fill:rgb(0%,0%,0%);fill-opacity:1;"
       d="M 41.6875 4.875 C 41.328125 5.359375 41.078125 5.53125 40.984375 5.53125 C 40.90625 5.53125 40.84375 5.46875 40.84375 5.40625 C 40.84375 5.296875 40.953125 4.96875 40.984375 4.84375 L 41.734375 2.078125 L 41.703125 2.0625 C 41.375 2.125 40.65625 2.265625 40.34375 2.28125 L 40.34375 2.421875 C 40.8125 2.421875 40.875 2.46875 40.875 2.640625 C 40.875 2.875 40.203125 5 40.203125 5.40625 C 40.203125 5.5625 40.203125 5.9375 40.609375 5.9375 C 41.078125 5.9375 41.453125 5.46875 41.796875 4.96875 Z M 42.046875 0.71875 C 42.046875 0.53125 41.890625 0.25 41.609375 0.25 C 41.40625 0.25 41.21875 0.40625 41.21875 0.703125 C 41.21875 1 41.40625 1.15625 41.625 1.15625 C 41.90625 1.15625 42.046875 0.890625 42.046875 0.71875 Z M 42.046875 0.71875 "
       id="path100" />
    <path
       style=" stroke:none;fill-rule:nonzero;fill:rgb(0%,0%,0%);fill-opacity:1;"
       d="M 44.910156 2.0625 C 43.660156 2.0625 42.394531 3.453125 42.394531 4.703125 C 42.394531 5.421875 42.769531 5.9375 43.691406 5.9375 C 44.988281 5.9375 46.160156 4.390625 46.160156 3.328125 C 46.160156 2.765625 45.894531 2.0625 44.910156 2.0625 Z M 44.847656 2.25 C 45.253906 2.25 45.441406 2.625 45.441406 3.0625 C 45.441406 3.984375 44.769531 5.765625 43.800781 5.765625 C 43.363281 5.765625 43.113281 5.453125 43.113281 4.96875 C 43.113281 3.953125 43.894531 2.25 44.847656 2.25 Z M 44.847656 2.25 "
       id="path102" />
    <path
       style=" stroke:none;fill-rule:nonzero;fill:rgb(0%,0%,0%);fill-opacity:1;"
       d="M 50.375 4.84375 C 50.0625 5.25 49.84375 5.515625 49.671875 5.515625 C 49.65625 5.515625 49.53125 5.5 49.53125 5.375 C 49.53125 5.109375 50.21875 3 50.21875 2.625 C 50.21875 2.265625 50.03125 2.0625 49.625 2.0625 C 48.921875 2.0625 48.140625 3.265625 47.734375 3.890625 L 47.71875 3.875 L 48.265625 2.078125 L 48.234375 2.0625 C 47.765625 2.15625 47.3125 2.25 46.84375 2.328125 L 46.84375 2.46875 C 47.3125 2.46875 47.390625 2.5625 47.390625 2.6875 C 47.390625 2.875 46.828125 4.875 46.5625 5.84375 L 47.203125 5.84375 C 47.546875 4.671875 47.65625 4.3125 48.0625 3.71875 C 48.359375 3.234375 48.90625 2.5 49.3125 2.5 C 49.484375 2.5 49.53125 2.625 49.53125 2.78125 C 49.53125 3.125 48.890625 5.203125 48.890625 5.421875 C 48.890625 5.65625 48.90625 5.921875 49.3125 5.921875 C 49.765625 5.921875 50.0625 5.53125 50.5 4.953125 Z M 50.375 4.84375 "
       id="path104" />
    <path
       style=" stroke:none;fill-rule:nonzero;fill:rgb(0%,0%,0%);fill-opacity:1;"
       d="M 27.855469 16.113281 C 28.214844 14.972656 28.324219 14.582031 28.652344 13.972656 C 28.730469 13.847656 29.246094 12.894531 29.511719 12.894531 C 29.714844 12.894531 29.574219 13.207031 29.949219 13.207031 C 30.042969 13.207031 30.355469 13.207031 30.355469 12.753906 C 30.355469 12.472656 30.136719 12.332031 29.933594 12.332031 C 29.402344 12.332031 28.746094 13.332031 28.464844 13.910156 L 28.402344 14.082031 L 28.386719 14.050781 L 28.808594 12.347656 L 28.777344 12.332031 C 28.386719 12.394531 27.886719 12.503906 27.449219 12.566406 L 27.449219 12.707031 C 27.542969 12.691406 27.636719 12.675781 27.730469 12.675781 C 27.996094 12.675781 28.042969 12.800781 28.042969 12.925781 C 28.042969 13.003906 27.996094 13.300781 27.902344 13.613281 L 27.214844 16.113281 Z M 27.855469 16.113281 "
       id="path106" />
    <path
       style=" stroke:none;fill-rule:nonzero;fill:rgb(0%,0%,0%);fill-opacity:1;"
       d="M 31.449219 13.957031 C 31.777344 13.191406 32.355469 12.535156 32.808594 12.535156 C 33.027344 12.535156 33.121094 12.691406 33.121094 12.878906 C 33.121094 12.941406 33.074219 13.972656 31.308594 14.332031 Z M 33.214844 15.175781 C 32.792969 15.535156 32.433594 15.816406 31.964844 15.816406 C 31.605469 15.816406 31.167969 15.628906 31.167969 15.035156 C 31.167969 14.878906 31.199219 14.707031 31.246094 14.519531 L 31.480469 14.488281 C 32.871094 14.285156 33.683594 13.597656 33.683594 12.925781 C 33.683594 12.535156 33.417969 12.332031 32.980469 12.332031 C 31.777344 12.332031 30.417969 13.769531 30.417969 15.003906 C 30.417969 15.535156 30.699219 16.207031 31.589844 16.207031 C 32.449219 16.207031 33.230469 15.425781 33.324219 15.285156 Z M 33.214844 15.175781 "
       id="path108" />
    <path
       style=" stroke:none;fill-rule:nonzero;fill:rgb(0%,0%,0%);fill-opacity:1;"
       d="M 38 12.644531 L 37.46875 12.644531 C 37.40625 12.644531 37.328125 12.566406 37.1875 12.488281 C 37.03125 12.410156 36.828125 12.332031 36.46875 12.332031 C 35.765625 12.332031 34.78125 12.832031 34.78125 13.785156 C 34.78125 14.378906 35.140625 14.582031 35.453125 14.722656 C 35.15625 14.925781 34.796875 15.175781 34.796875 15.441406 C 34.796875 15.597656 34.921875 15.707031 35.03125 15.785156 C 34.296875 16.253906 34.015625 16.441406 34.015625 16.925781 C 34.015625 17.394531 34.46875 17.878906 35.40625 17.878906 C 36.578125 17.878906 37.25 17.347656 37.25 16.628906 C 37.25 15.441406 35.421875 15.582031 35.421875 15.128906 C 35.421875 15.019531 35.609375 14.785156 35.734375 14.785156 C 35.84375 14.785156 35.96875 14.816406 36.078125 14.816406 C 36.828125 14.816406 37.640625 14.113281 37.640625 13.488281 C 37.640625 13.316406 37.625 13.144531 37.5625 12.972656 L 38 12.972656 Z M 36.734375 16.878906 C 36.734375 17.300781 36.3125 17.691406 35.546875 17.691406 C 35.421875 17.691406 34.5 17.660156 34.5 16.863281 C 34.5 16.660156 34.5 16.425781 34.84375 16.128906 C 34.875 16.097656 35.15625 15.878906 35.21875 15.878906 C 35.28125 15.878906 36.109375 16.191406 36.265625 16.269531 C 36.421875 16.347656 36.734375 16.488281 36.734375 16.878906 Z M 36.96875 13.113281 C 36.96875 13.816406 36.53125 14.644531 35.96875 14.644531 C 35.59375 14.644531 35.4375 14.363281 35.4375 13.972656 C 35.4375 13.394531 35.8125 12.519531 36.484375 12.519531 C 36.84375 12.519531 36.96875 12.769531 36.96875 13.113281 Z M 36.96875 13.113281 "
       id="path110" />
    <path
       style=" stroke:none;fill-rule:nonzero;fill:rgb(0%,0%,0%);fill-opacity:1;"
       d="M 40.136719 15.144531 C 39.777344 15.628906 39.527344 15.800781 39.433594 15.800781 C 39.355469 15.800781 39.292969 15.738281 39.292969 15.675781 C 39.292969 15.566406 39.402344 15.238281 39.433594 15.113281 L 40.183594 12.347656 L 40.152344 12.332031 C 39.824219 12.394531 39.105469 12.535156 38.792969 12.550781 L 38.792969 12.691406 C 39.261719 12.691406 39.324219 12.738281 39.324219 12.910156 C 39.324219 13.144531 38.652344 15.269531 38.652344 15.675781 C 38.652344 15.832031 38.652344 16.207031 39.058594 16.207031 C 39.527344 16.207031 39.902344 15.738281 40.246094 15.238281 Z M 40.496094 10.988281 C 40.496094 10.800781 40.339844 10.519531 40.058594 10.519531 C 39.855469 10.519531 39.667969 10.675781 39.667969 10.972656 C 39.667969 11.269531 39.855469 11.425781 40.074219 11.425781 C 40.355469 11.425781 40.496094 11.160156 40.496094 10.988281 Z M 40.496094 10.988281 "
       id="path112" />
    <path
       style=" stroke:none;fill-rule:nonzero;fill:rgb(0%,0%,0%);fill-opacity:1;"
       d="M 43.359375 12.332031 C 42.109375 12.332031 40.84375 13.722656 40.84375 14.972656 C 40.84375 15.691406 41.21875 16.207031 42.140625 16.207031 C 43.4375 16.207031 44.609375 14.660156 44.609375 13.597656 C 44.609375 13.035156 44.34375 12.332031 43.359375 12.332031 Z M 43.296875 12.519531 C 43.703125 12.519531 43.890625 12.894531 43.890625 13.332031 C 43.890625 14.253906 43.21875 16.035156 42.25 16.035156 C 41.8125 16.035156 41.5625 15.722656 41.5625 15.238281 C 41.5625 14.222656 42.34375 12.519531 43.296875 12.519531 Z M 43.296875 12.519531 "
       id="path114" />
    <path
       style=" stroke:none;fill-rule:nonzero;fill:rgb(0%,0%,0%);fill-opacity:1;"
       d="M 48.828125 15.113281 C 48.515625 15.519531 48.296875 15.785156 48.125 15.785156 C 48.109375 15.785156 47.984375 15.769531 47.984375 15.644531 C 47.984375 15.378906 48.671875 13.269531 48.671875 12.894531 C 48.671875 12.535156 48.484375 12.332031 48.078125 12.332031 C 47.375 12.332031 46.59375 13.535156 46.1875 14.160156 L 46.171875 14.144531 L 46.71875 12.347656 L 46.6875 12.332031 C 46.21875 12.425781 45.765625 12.519531 45.296875 12.597656 L 45.296875 12.738281 C 45.765625 12.738281 45.84375 12.832031 45.84375 12.957031 C 45.84375 13.144531 45.28125 15.144531 45.015625 16.113281 L 45.65625 16.113281 C 46 14.941406 46.109375 14.582031 46.515625 13.988281 C 46.8125 13.503906 47.359375 12.769531 47.765625 12.769531 C 47.9375 12.769531 47.984375 12.894531 47.984375 13.050781 C 47.984375 13.394531 47.34375 15.472656 47.34375 15.691406 C 47.34375 15.925781 47.359375 16.191406 47.765625 16.191406 C 48.21875 16.191406 48.515625 15.800781 48.953125 15.222656 Z M 48.828125 15.113281 "
       id="path116" />
    <path
       style=" stroke:none;fill-rule:nonzero;fill:rgb(0%,0%,0%);fill-opacity:1;"
       d="M 98.332031 28.949219 L 100.535156 28.949219 L 100.523438 28.730469 L 100.492188 28.515625 L 100.4375 28.300781 L 100.363281 28.09375 L 100.265625 27.898438 L 100.152344 27.710938 L 100.019531 27.535156 L 99.871094 27.375 L 99.703125 27.226563 L 99.527344 27.097656 L 99.335938 26.988281 L 99.136719 26.898438 L 98.929688 26.828125 L 98.714844 26.78125 L 98.496094 26.753906 L 98.277344 26.746094 L 98.058594 26.765625 L 97.839844 26.800781 L 97.628906 26.863281 L 97.425781 26.941406 L 97.230469 27.042969 L 97.046875 27.160156 L 96.871094 27.296875 L 96.714844 27.453125 L 96.574219 27.621094 L 96.449219 27.800781 L 96.347656 27.996094 L 96.261719 28.199219 L 96.195313 28.40625 L 96.152344 28.621094 L 96.132813 28.839844 L 96.132813 29.0625 L 98.332031 28.949219 "
       id="path118" />
    <path
       style=" stroke:none;fill-rule:nonzero;fill:rgb(0%,0%,0%);fill-opacity:1;"
       d="M 98.332031 28.949219 L 96.132813 29.0625 L 96.152344 29.28125 L 96.195313 29.496094 L 96.261719 29.703125 L 96.347656 29.90625 L 96.449219 30.097656 L 96.574219 30.28125 L 96.714844 30.449219 L 96.875 30.601563 L 97.046875 30.738281 L 97.230469 30.859375 L 97.425781 30.960938 L 97.628906 31.039063 L 97.839844 31.097656 L 98.058594 31.136719 L 98.277344 31.152344 L 98.496094 31.148438 L 98.714844 31.121094 L 98.929688 31.070313 L 99.136719 31 L 99.335938 30.910156 L 99.527344 30.800781 L 99.703125 30.671875 L 99.871094 30.527344 L 100.019531 30.367188 L 100.152344 30.191406 L 100.265625 30.003906 L 100.363281 29.804688 L 100.4375 29.597656 L 100.492188 29.386719 L 100.523438 29.167969 L 100.535156 28.949219 L 100.523438 28.730469 L 98.332031 28.949219 "
       id="path120" />
    <path
       style="fill-rule:nonzero;fill:rgb(100%,0%,0%);fill-opacity:1;stroke-width:0.12;stroke-linecap:round;stroke-linejoin:round;stroke:rgb(100%,0%,0%);stroke-opacity:1;stroke-miterlimit:4;"
       d="M 106.289063 107.386719 L 106.277344 107.167969 L 106.246094 106.949219 L 106.191406 106.738281 L 106.117188 106.53125 L 106.023438 106.332031 L 105.90625 106.148438 L 105.773438 105.972656 L 105.625 105.8125 L 105.460938 105.664063 L 105.28125 105.535156 L 105.09375 105.425781 L 104.890625 105.335938 L 104.683594 105.265625 L 104.46875 105.21875 L 104.25 105.191406 L 104.03125 105.183594 L 103.8125 105.203125 L 103.597656 105.238281 L 103.386719 105.296875 L 103.179688 105.378906 L 102.984375 105.480469 L 102.800781 105.597656 L 102.628906 105.734375 L 102.472656 105.890625 L 102.328125 106.058594 L 102.207031 106.238281 L 102.101563 106.429688 L 102.015625 106.632813 L 101.953125 106.84375 L 101.90625 107.058594 L 101.886719 107.277344 L 101.886719 107.496094 "
       id="path122" />
    <path
       style="fill-rule:nonzero;fill:rgb(100%,0%,0%);fill-opacity:1;stroke-width:0.12;stroke-linecap:round;stroke-linejoin:round;stroke:rgb(100%,0%,0%);stroke-opacity:1;stroke-miterlimit:4;"
       d="M 101.886719 107.496094 L 101.90625 107.714844 L 101.953125 107.929688 L 102.015625 108.140625 L 102.101563 108.34375 L 102.207031 108.535156 L 102.332031 108.71875 L 102.472656 108.886719 L 102.628906 109.039063 L 102.800781 109.175781 L 102.984375 109.296875 L 103.179688 109.394531 L 103.386719 109.476563 L 103.597656 109.535156 L 103.8125 109.574219 L 104.03125 109.589844 L 104.253906 109.585938 L 104.46875 109.558594 L 104.683594 109.507813 L 104.890625 109.4375 L 105.09375 109.347656 L 105.28125 109.238281 L 105.460938 109.109375 L 105.625 108.964844 L 105.773438 108.804688 L 105.90625 108.628906 L 106.023438 108.441406 L 106.117188 108.242188 L 106.191406 108.035156 L 106.246094 107.824219 L 106.277344 107.605469 L 106.289063 107.386719 L 106.277344 107.167969 "
       id="path124" />
    <path
       style="fill:none;stroke-width:1.284;stroke-linecap:butt;stroke-linejoin:miter;stroke:rgb(0%,0%,0%);stroke-opacity:1;stroke-miterlimit:4;"
       d="M 61.265625 80.085938 L 47.144531 27.023438 "
       id="path126" />
    <path
       style=" stroke:none;fill-rule:nonzero;fill:rgb(0%,0%,0%);fill-opacity:1;"
       d="M 45.09375 24.433594 C 45.019531 26.648438 44.804688 28.132813 44.582031 29.957031 L 50.839844 28.289063 C 50.402344 27.777344 48.8125 25.636719 47.648438 23.753906 C 46.402344 21.734375 45.417969 19.863281 44.914063 18.617188 C 45.09375 19.949219 45.171875 22.0625 45.09375 24.433594 "
       id="path128" />
    <path
       style=" stroke:none;fill-rule:nonzero;fill:rgb(12.940979%,11.764526%,11.764526%);fill-opacity:1;"
       d="M 46.394531 40.691406 C 46.003906 41.207031 45.597656 41.769531 45.300781 41.769531 C 45.238281 41.769531 45.097656 41.753906 45.097656 41.535156 C 45.097656 40.988281 45.410156 39.972656 45.628906 39.253906 L 46.722656 35.613281 L 45.003906 35.722656 L 44.738281 36.582031 L 44.707031 36.582031 C 44.660156 36.191406 44.488281 35.519531 43.550781 35.519531 C 41.675781 35.519531 39.378906 38.582031 39.378906 40.847656 C 39.378906 41.347656 39.535156 42.847656 41.066406 42.847656 C 42.347656 42.847656 43.128906 41.566406 43.535156 40.894531 L 43.550781 40.878906 C 43.441406 41.316406 43.363281 41.597656 43.363281 41.847656 C 43.363281 42.644531 44.097656 42.863281 44.394531 42.863281 C 45.332031 42.863281 46.207031 41.722656 46.722656 40.925781 Z M 41.957031 41.753906 C 41.738281 41.753906 41.285156 41.582031 41.285156 40.878906 C 41.285156 39.878906 42.503906 36.175781 43.800781 36.175781 C 43.941406 36.175781 44.378906 36.285156 44.378906 36.925781 C 44.378906 38.066406 43.300781 41.753906 41.957031 41.753906 Z M 41.957031 41.753906 "
       id="path130" />
  </g>
</svg>
