<?xml version="1.0" encoding="UTF-8" standalone="no"?>
<svg
   xmlns:dc="http://purl.org/dc/elements/1.1/"
   xmlns:cc="http://creativecommons.org/ns#"
   xmlns:rdf="http://www.w3.org/1999/02/22-rdf-syntax-ns#"
   xmlns:svg="http://www.w3.org/2000/svg"
   xmlns="http://www.w3.org/2000/svg"
   xmlns:sodipodi="http://sodipodi.sourceforge.net/DTD/sodipodi-0.dtd"
   xmlns:inkscape="http://www.inkscape.org/namespaces/inkscape"
   width="196.758575pt"
   height="142.754547pt"
   viewBox="0 0 196.758575 142.754547"
   version="1.2"
   id="svg129"
   sodipodi:docname="target_nontarget_ambiguous_regions.svg"
   inkscape:version="0.92.4 (5da689c313, 2019-01-14)">
  <metadata
     id="metadata133">
    <rdf:RDF>
      <cc:Work
         rdf:about="">
        <dc:format>image/svg+xml</dc:format>
        <dc:type
           rdf:resource="http://purl.org/dc/dcmitype/StillImage" />
        <dc:title></dc:title>
      </cc:Work>
    </rdf:RDF>
  </metadata>
  <sodipodi:namedview
     pagecolor="#ffffff"
     bordercolor="#666666"
     borderopacity="1"
     objecttolerance="10"
     gridtolerance="10"
     guidetolerance="10"
     inkscape:pageopacity="0"
     inkscape:pageshadow="2"
     inkscape:window-width="661"
     inkscape:window-height="480"
     id="namedview131"
     showgrid="false"
     inkscape:zoom="1.1968983"
     inkscape:cx="131.17238"
     inkscape:cy="95.169698"
     inkscape:window-x="0"
     inkscape:window-y="0"
     inkscape:window-maximized="0"
     inkscape:current-layer="svg129" />
  <defs
     id="defs8">
    <clipPath
       id="clip1">
      <path
         d="M 0 0 L 196.757813 0 L 196.757813 142.753906 L 0 142.753906 Z M 0 0 "
         id="path2" />
    </clipPath>
    <clipPath
       id="clip2">
      <path
         d="M 195 53 L 196.757813 53 L 196.757813 56 L 195 56 Z M 195 53 "
         id="path5" />
    </clipPath>
  </defs>
  <g
     id="surface52">
    <path
       style=" stroke:none;fill-rule:nonzero;fill:rgb(100%,78.038025%,78.038025%);fill-opacity:1;"
       d="M 62.59375 55.179688 L 66.964844 107.042969 L 129.726563 108.066406 L 130.667969 52.136719 L 62.59375 55.179688 "
       id="path10" />
    <path
       style=" stroke:none;fill-rule:nonzero;fill:rgb(78.038025%,78.038025%,78.038025%);fill-opacity:1;"
       d="M 82.757813 12.125 C 81.160156 13.726563 80.359375 16.121094 80.359375 18.523438 C 79.558594 23.320313 79.558594 28.519531 80.359375 33.316406 C 80.757813 35.3125 80.617188 37.171875 82.359375 39.710938 C 84.101563 42.253906 93.953125 44.910156 94.351563 44.910156 C 102.347656 45.308594 99.550781 40.910156 107.546875 40.511719 C 109.546875 40.113281 111.945313 39.710938 113.941406 39.710938 C 115.941406 39.710938 117.941406 38.511719 118.742188 36.515625 C 121.539063 28.519531 116.09375 17.320313 116.09375 17.320313 C 115.128906 15.34375 113.714844 15.074219 112.945313 16.722656 C 112.175781 18.371094 108.148438 23.042969 105.957031 23.195313 C 105.957031 23.195313 100.625 19.597656 104.746094 17.324219 C 107.878906 15.59375 105.148438 11.726563 103.949219 8.925781 C 103.148438 7.726563 101.550781 6.929688 99.949219 7.328125 C 99.949219 7.328125 87.15625 6.527344 82.757813 12.125 "
       id="path12" />
    <path
       style=" stroke:none;fill-rule:nonzero;fill:rgb(12.940979%,11.764526%,11.764526%);fill-opacity:1;"
       d="M 97.433594 27.847656 C 97.714844 27.269531 97.808594 26.769531 97.808594 26.644531 C 97.808594 26.425781 97.683594 26.394531 97.605469 26.394531 C 97.214844 26.394531 97.121094 27.332031 97.089844 27.722656 C 97.074219 27.910156 96.496094 28.582031 95.824219 28.582031 C 95.074219 28.582031 94.964844 27.832031 94.964844 27.488281 C 94.964844 27.113281 95.074219 26.347656 95.777344 25.363281 C 95.871094 25.238281 95.871094 25.222656 95.871094 25.175781 C 95.871094 25.113281 95.824219 25.050781 95.746094 25.050781 C 95.699219 25.050781 95.667969 25.082031 95.636719 25.128906 C 95.105469 25.816406 94.636719 26.832031 94.636719 27.878906 C 94.636719 28.816406 95.027344 29.300781 95.699219 29.300781 C 96.277344 29.300781 96.777344 28.910156 97.089844 28.425781 C 97.167969 28.863281 97.402344 29.300781 98.027344 29.300781 C 99.714844 29.300781 100.449219 26.628906 100.449219 25.644531 C 100.449219 24.972656 100.105469 24.941406 100.027344 24.941406 C 99.808594 24.941406 99.542969 25.160156 99.542969 25.425781 C 99.542969 25.472656 99.542969 25.582031 99.667969 25.675781 C 99.886719 25.878906 100.011719 26.175781 100.011719 26.503906 C 100.011719 27.332031 99.167969 28.582031 98.152344 28.582031 C 97.652344 28.582031 97.480469 28.191406 97.433594 27.847656 Z M 97.433594 27.847656 "
       id="path14" />
    <path
       style=" stroke:none;fill-rule:nonzero;fill:rgb(12.940979%,11.764526%,11.764526%);fill-opacity:1;"
       d="M 100.867188 30.390625 L 102.210938 30.390625 L 102.210938 30.3125 C 101.960938 30.328125 101.789063 30.3125 101.789063 30.15625 C 101.789063 30.078125 101.851563 29.90625 101.882813 29.8125 L 102.570313 27.328125 C 102.585938 27.25 102.617188 27.140625 102.570313 27.140625 C 102.539063 27.140625 101.867188 27.296875 101.648438 27.328125 L 101.648438 27.40625 L 101.914063 27.390625 C 101.960938 27.390625 102.101563 27.390625 102.101563 27.546875 C 102.101563 27.578125 102.085938 27.65625 102.070313 27.703125 L 101.398438 30.0625 C 101.335938 30.28125 101.148438 30.296875 100.867188 30.328125 Z M 100.867188 30.390625 "
       id="path16" />
    <path
       style=" stroke:none;fill-rule:nonzero;fill:rgb(49.803162%,49.803162%,49.803162%);fill-opacity:1;"
       d="M 19.1875 88.488281 C 19.585938 91.664063 19.585938 91.664063 19.585938 91.664063 C 21.125 94.976563 26.859375 98.171875 32.324219 98.765625 C 32.324219 98.765625 38.964844 99.988281 48.117188 98.492188 C 51.324219 97.96875 51.171875 94.886719 51.972656 92.886719 C 53.171875 89.289063 53.171875 84.890625 51.972656 81.292969 C 49.972656 76.894531 49.574219 70.496094 44.777344 68.097656 C 42.777344 66.898438 38.777344 66.5 36.78125 68.496094 C 35.980469 68.898438 36.78125 71.296875 35.980469 72.496094 C 34.382813 74.496094 31.183594 73.695313 28.785156 72.894531 C 27.984375 72.894531 27.308594 71.023438 23.1875 70.097656 C 19.066406 69.171875 15.230469 73.375 14.789063 76.894531 C 14.789063 76.894531 14.789063 76.894531 15.589844 80.09375 C 16.390625 82.890625 18.789063 85.289063 19.1875 88.488281 "
       id="path18" />
    <path
       style=" stroke:none;fill-rule:nonzero;fill:rgb(43.136597%,43.136597%,43.136597%);fill-opacity:1;"
       d="M 177.910156 66.5 C 176.066406 65.390625 174.714844 64.5 172.714844 64.101563 C 162.320313 62.902344 151.925781 60.902344 151.925781 60.902344 C 146.433594 61.117188 141.03125 65.679688 139.929688 68.097656 C 139.929688 68.097656 136.269531 87.039063 139.007813 95.828125 C 139.550781 97.566406 140.332031 100.082031 141.53125 100.082031 C 150.726563 102.082031 158.722656 106.480469 168.71875 100.882813 C 172.917969 98.53125 177.511719 98.484375 181.511719 95.683594 C 184.308594 94.085938 183.511719 90.886719 183.910156 88.488281 C 185.015625 80.199219 185.363281 77.757813 183.910156 70.496094 C 183.511719 68.496094 179.910156 67.699219 177.910156 66.5 "
       id="path20" />
    <path
       style=" stroke:none;fill-rule:nonzero;fill:rgb(34.901428%,34.901428%,34.901428%);fill-opacity:1;"
       d="M 104.746094 114.476563 C 104.746094 114.476563 104.746094 114.476563 104.347656 114.078125 C 97.550781 112.875 97.550781 112.875 97.550781 112.875 C 90.515625 113.316406 84.398438 116.644531 83.957031 120.273438 C 83.519531 123.902344 89.027344 134.265625 96.6875 134.992188 C 96.6875 134.992188 99.550781 135.265625 106.746094 132.867188 C 107.945313 132.46875 116.742188 127.269531 112.34375 122.871094 C 110.191406 120.71875 108.746094 120.871094 107.546875 118.476563 C 107.144531 117.675781 107.546875 115.675781 105.945313 115.277344 C 105.945313 115.277344 105.1875 115.355469 104.746094 114.476563 "
       id="path22" />
    <g
       clip-path="url(#clip1)"
       clip-rule="nonzero"
       id="g26">
      <path
         style="fill:none;stroke-width:0.4;stroke-linecap:butt;stroke-linejoin:miter;stroke:rgb(0%,0%,0%);stroke-opacity:1;stroke-miterlimit:4;"
         d="M 0.0078125 57.980469 L 196.714844 49.183594 M 0.0078125 105.957031 L 196.714844 109.152344 M 57.980469 0.40625 L 69.972656 142.738281 M 131.542969 0.00390625 L 129.144531 142.738281 "
         id="path24" />
    </g>
    <path
       style=" stroke:none;fill-rule:nonzero;fill:rgb(0%,0%,0%);fill-opacity:1;"
       d="M 182.835938 53.9375 C 182.570313 54.28125 182.382813 54.5 182.242188 54.5 C 182.226563 54.5 182.132813 54.5 182.132813 54.390625 C 182.132813 54.171875 182.710938 52.390625 182.710938 52.078125 C 182.710938 51.78125 182.539063 51.609375 182.210938 51.609375 C 181.617188 51.609375 180.945313 52.609375 180.617188 53.140625 L 180.601563 53.125 L 181.054688 51.625 L 181.039063 51.609375 C 180.648438 51.6875 180.257813 51.75 179.867188 51.828125 L 179.867188 51.9375 C 180.257813 51.9375 180.335938 52.015625 180.335938 52.125 C 180.335938 52.28125 179.851563 53.96875 179.617188 54.78125 L 180.164063 54.78125 C 180.460938 53.796875 180.554688 53.484375 180.882813 53 C 181.148438 52.59375 181.601563 51.96875 181.945313 51.96875 C 182.085938 51.96875 182.117188 52.078125 182.117188 52.203125 C 182.117188 52.484375 181.585938 54.25 181.585938 54.421875 C 181.585938 54.625 181.601563 54.84375 181.929688 54.84375 C 182.320313 54.84375 182.570313 54.515625 182.945313 54.03125 Z M 182.835938 53.9375 "
       id="path28" />
    <path
       style=" stroke:none;fill-rule:nonzero;fill:rgb(0%,0%,0%);fill-opacity:1;"
       d="M 185.433594 51.609375 C 184.386719 51.609375 183.308594 52.765625 183.308594 53.828125 C 183.308594 54.421875 183.636719 54.859375 184.402344 54.859375 C 185.511719 54.859375 186.496094 53.5625 186.496094 52.671875 C 186.496094 52.203125 186.261719 51.609375 185.433594 51.609375 Z M 185.386719 51.75 C 185.730469 51.75 185.886719 52.078125 185.886719 52.453125 C 185.886719 53.21875 185.324219 54.703125 184.496094 54.703125 C 184.136719 54.703125 183.917969 54.453125 183.917969 54.046875 C 183.917969 53.1875 184.574219 51.75 185.386719 51.75 Z M 185.386719 51.75 "
       id="path30" />
    <path
       style=" stroke:none;fill-rule:nonzero;fill:rgb(0%,0%,0%);fill-opacity:1;"
       d="M 188.84375 51.703125 L 188.28125 51.703125 L 188.46875 50.953125 C 188.484375 50.90625 188.46875 50.828125 188.421875 50.84375 C 188.359375 50.828125 188.328125 50.90625 188.296875 50.9375 C 188.109375 51.1875 187.75 51.515625 187.515625 51.640625 C 187.390625 51.703125 187.1875 51.75 187.15625 51.8125 C 187.125 51.84375 187.125 51.890625 187.140625 51.921875 L 187.671875 51.921875 L 187.15625 53.90625 C 187.125 54.03125 186.984375 54.46875 186.984375 54.578125 C 186.984375 54.78125 187.1875 54.859375 187.328125 54.859375 C 187.703125 54.859375 187.984375 54.546875 188.359375 53.984375 L 188.265625 53.9375 C 188.078125 54.171875 187.828125 54.5 187.6875 54.5 C 187.609375 54.5 187.5625 54.453125 187.5625 54.390625 C 187.5625 54.359375 187.5625 54.34375 187.578125 54.328125 L 188.203125 51.921875 L 188.8125 51.921875 Z M 188.84375 51.703125 "
       id="path32" />
    <path
       style=" stroke:none;fill-rule:nonzero;fill:rgb(12.940979%,11.764526%,11.764526%);fill-opacity:1;"
       d="M 192.722656 53.765625 C 192.925781 53.34375 193.019531 52.96875 193.019531 52.875 C 193.019531 52.703125 192.910156 52.671875 192.847656 52.671875 C 192.566406 52.671875 192.488281 53.390625 192.457031 53.671875 C 192.457031 53.8125 192.019531 54.328125 191.519531 54.328125 C 190.957031 54.328125 190.878906 53.765625 190.878906 53.5 C 190.878906 53.21875 190.957031 52.65625 191.488281 51.90625 C 191.550781 51.8125 191.550781 51.796875 191.550781 51.765625 C 191.550781 51.71875 191.519531 51.671875 191.457031 51.671875 C 191.425781 51.671875 191.394531 51.6875 191.378906 51.734375 C 190.972656 52.25 190.628906 53.015625 190.628906 53.796875 C 190.628906 54.5 190.925781 54.859375 191.425781 54.859375 C 191.863281 54.859375 192.222656 54.578125 192.472656 54.21875 C 192.535156 54.53125 192.707031 54.859375 193.175781 54.859375 C 194.441406 54.859375 194.988281 52.859375 194.988281 52.125 C 194.988281 51.625 194.722656 51.59375 194.675781 51.59375 C 194.503906 51.59375 194.300781 51.75 194.300781 51.953125 C 194.300781 52 194.300781 52.0625 194.394531 52.140625 C 194.566406 52.296875 194.660156 52.515625 194.660156 52.765625 C 194.660156 53.390625 194.035156 54.328125 193.269531 54.328125 C 192.894531 54.328125 192.753906 54.03125 192.722656 53.765625 Z M 192.722656 53.765625 "
       id="path34" />
    <g
       clip-path="url(#clip2)"
       clip-rule="nonzero"
       id="g38">
      <path
         style=" stroke:none;fill-rule:nonzero;fill:rgb(12.940979%,11.764526%,11.764526%);fill-opacity:1;"
         d="M 195.324219 55.980469 L 196.433594 55.980469 L 196.433594 55.917969 C 196.230469 55.917969 196.089844 55.917969 196.089844 55.792969 C 196.089844 55.730469 196.136719 55.574219 196.167969 55.496094 L 196.730469 53.417969 C 196.746094 53.355469 196.777344 53.277344 196.746094 53.277344 C 196.714844 53.277344 196.152344 53.402344 195.964844 53.433594 L 195.964844 53.496094 L 196.199219 53.480469 C 196.230469 53.480469 196.339844 53.480469 196.339844 53.605469 C 196.339844 53.636719 196.324219 53.699219 196.324219 53.746094 L 195.761719 55.714844 C 195.714844 55.886719 195.558594 55.902344 195.324219 55.917969 Z M 195.324219 55.980469 "
         id="path36" />
    </g>
    <path
       style=" stroke:none;fill-rule:nonzero;fill:rgb(12.940979%,11.764526%,11.764526%);fill-opacity:1;"
       d="M 185.523438 44.566406 C 185.726563 44.144531 185.820313 43.769531 185.820313 43.675781 C 185.820313 43.503906 185.710938 43.472656 185.648438 43.472656 C 185.367188 43.472656 185.289063 44.191406 185.257813 44.472656 C 185.257813 44.613281 184.820313 45.128906 184.320313 45.128906 C 183.757813 45.128906 183.679688 44.566406 183.679688 44.300781 C 183.679688 44.019531 183.757813 43.457031 184.289063 42.707031 C 184.351563 42.613281 184.351563 42.597656 184.351563 42.566406 C 184.351563 42.519531 184.320313 42.472656 184.257813 42.472656 C 184.226563 42.472656 184.195313 42.488281 184.179688 42.535156 C 183.773438 43.050781 183.429688 43.816406 183.429688 44.597656 C 183.429688 45.300781 183.726563 45.660156 184.226563 45.660156 C 184.664063 45.660156 185.023438 45.378906 185.273438 45.019531 C 185.335938 45.332031 185.507813 45.660156 185.976563 45.660156 C 187.242188 45.660156 187.789063 43.660156 187.789063 42.925781 C 187.789063 42.425781 187.523438 42.394531 187.476563 42.394531 C 187.304688 42.394531 187.101563 42.550781 187.101563 42.753906 C 187.101563 42.800781 187.101563 42.863281 187.195313 42.941406 C 187.367188 43.097656 187.460938 43.316406 187.460938 43.566406 C 187.460938 44.191406 186.835938 45.128906 186.070313 45.128906 C 185.695313 45.128906 185.554688 44.832031 185.523438 44.566406 Z M 185.523438 44.566406 "
       id="path40" />
    <path
       style=" stroke:none;fill-rule:nonzero;fill:rgb(12.940979%,11.764526%,11.764526%);fill-opacity:1;"
       d="M 188.125 46.785156 L 189.234375 46.785156 L 189.234375 46.722656 C 189.03125 46.722656 188.890625 46.722656 188.890625 46.597656 C 188.890625 46.535156 188.9375 46.378906 188.96875 46.300781 L 189.53125 44.222656 C 189.546875 44.160156 189.578125 44.082031 189.546875 44.082031 C 189.515625 44.082031 188.953125 44.207031 188.765625 44.238281 L 188.765625 44.300781 L 189 44.285156 C 189.03125 44.285156 189.140625 44.285156 189.140625 44.410156 C 189.140625 44.441406 189.125 44.503906 189.125 44.550781 L 188.5625 46.519531 C 188.515625 46.691406 188.359375 46.707031 188.125 46.722656 Z M 188.125 46.785156 "
       id="path42" />
    <path
       style=" stroke:none;fill-rule:nonzero;fill:rgb(0%,0%,0%);fill-opacity:1;"
       d="M 64.890625 10.355469 C 64.625 10.699219 64.4375 10.917969 64.296875 10.917969 C 64.28125 10.917969 64.1875 10.917969 64.1875 10.808594 C 64.1875 10.589844 64.765625 8.808594 64.765625 8.496094 C 64.765625 8.199219 64.59375 8.027344 64.265625 8.027344 C 63.671875 8.027344 63 9.027344 62.671875 9.558594 L 62.65625 9.542969 L 63.109375 8.042969 L 63.09375 8.027344 C 62.703125 8.105469 62.3125 8.167969 61.921875 8.246094 L 61.921875 8.355469 C 62.3125 8.355469 62.390625 8.433594 62.390625 8.542969 C 62.390625 8.699219 61.90625 10.386719 61.671875 11.199219 L 62.21875 11.199219 C 62.515625 10.214844 62.609375 9.902344 62.9375 9.417969 C 63.203125 9.011719 63.65625 8.386719 64 8.386719 C 64.140625 8.386719 64.171875 8.496094 64.171875 8.621094 C 64.171875 8.902344 63.640625 10.667969 63.640625 10.839844 C 63.640625 11.042969 63.65625 11.261719 63.984375 11.261719 C 64.375 11.261719 64.625 10.933594 65 10.449219 Z M 64.890625 10.355469 "
       id="path44" />
    <path
       style=" stroke:none;fill-rule:nonzero;fill:rgb(0%,0%,0%);fill-opacity:1;"
       d="M 67.488281 8.027344 C 66.441406 8.027344 65.363281 9.183594 65.363281 10.246094 C 65.363281 10.839844 65.691406 11.277344 66.457031 11.277344 C 67.566406 11.277344 68.550781 9.980469 68.550781 9.089844 C 68.550781 8.621094 68.316406 8.027344 67.488281 8.027344 Z M 67.441406 8.167969 C 67.785156 8.167969 67.941406 8.496094 67.941406 8.871094 C 67.941406 9.636719 67.378906 11.121094 66.550781 11.121094 C 66.191406 11.121094 65.972656 10.871094 65.972656 10.464844 C 65.972656 9.605469 66.628906 8.167969 67.441406 8.167969 Z M 67.441406 8.167969 "
       id="path46" />
    <path
       style=" stroke:none;fill-rule:nonzero;fill:rgb(0%,0%,0%);fill-opacity:1;"
       d="M 70.902344 8.121094 L 70.339844 8.121094 L 70.527344 7.371094 C 70.542969 7.324219 70.527344 7.246094 70.480469 7.261719 C 70.417969 7.246094 70.386719 7.324219 70.355469 7.355469 C 70.167969 7.605469 69.808594 7.933594 69.574219 8.058594 C 69.449219 8.121094 69.246094 8.167969 69.214844 8.230469 C 69.183594 8.261719 69.183594 8.308594 69.199219 8.339844 L 69.730469 8.339844 L 69.214844 10.324219 C 69.183594 10.449219 69.042969 10.886719 69.042969 10.996094 C 69.042969 11.199219 69.246094 11.277344 69.386719 11.277344 C 69.761719 11.277344 70.042969 10.964844 70.417969 10.402344 L 70.324219 10.355469 C 70.136719 10.589844 69.886719 10.917969 69.746094 10.917969 C 69.667969 10.917969 69.621094 10.871094 69.621094 10.808594 C 69.621094 10.777344 69.621094 10.761719 69.636719 10.746094 L 70.261719 8.339844 L 70.871094 8.339844 Z M 70.902344 8.121094 "
       id="path48" />
    <path
       style=" stroke:none;fill-rule:nonzero;fill:rgb(12.940979%,11.764526%,11.764526%);fill-opacity:1;"
       d="M 74.777344 10.183594 C 74.980469 9.761719 75.074219 9.386719 75.074219 9.292969 C 75.074219 9.121094 74.964844 9.089844 74.902344 9.089844 C 74.621094 9.089844 74.542969 9.808594 74.511719 10.089844 C 74.511719 10.230469 74.074219 10.746094 73.574219 10.746094 C 73.011719 10.746094 72.933594 10.183594 72.933594 9.917969 C 72.933594 9.636719 73.011719 9.074219 73.542969 8.324219 C 73.605469 8.230469 73.605469 8.214844 73.605469 8.183594 C 73.605469 8.136719 73.574219 8.089844 73.511719 8.089844 C 73.480469 8.089844 73.449219 8.105469 73.433594 8.152344 C 73.027344 8.667969 72.683594 9.433594 72.683594 10.214844 C 72.683594 10.917969 72.980469 11.277344 73.480469 11.277344 C 73.917969 11.277344 74.277344 10.996094 74.527344 10.636719 C 74.589844 10.949219 74.761719 11.277344 75.230469 11.277344 C 76.496094 11.277344 77.042969 9.277344 77.042969 8.542969 C 77.042969 8.042969 76.777344 8.011719 76.730469 8.011719 C 76.558594 8.011719 76.355469 8.167969 76.355469 8.371094 C 76.355469 8.417969 76.355469 8.480469 76.449219 8.558594 C 76.621094 8.714844 76.714844 8.933594 76.714844 9.183594 C 76.714844 9.808594 76.089844 10.746094 75.324219 10.746094 C 74.949219 10.746094 74.808594 10.449219 74.777344 10.183594 Z M 74.777344 10.183594 "
       id="path50" />
    <path
       style=" stroke:none;fill-rule:nonzero;fill:rgb(12.940979%,11.764526%,11.764526%);fill-opacity:1;"
       d="M 78.769531 11.835938 C 78.707031 11.992188 78.644531 12.101563 78.378906 12.101563 L 77.613281 12.101563 L 77.613281 12.070313 L 78.394531 11.304688 C 78.878906 10.804688 78.988281 10.632813 78.988281 10.367188 C 78.988281 10.054688 78.753906 9.695313 78.332031 9.695313 C 78.238281 9.695313 77.707031 9.710938 77.488281 10.335938 L 77.582031 10.367188 C 77.628906 10.257813 77.785156 9.992188 78.144531 9.992188 C 78.457031 9.992188 78.644531 10.226563 78.644531 10.476563 C 78.644531 10.601563 78.628906 10.835938 78.066406 11.429688 L 77.222656 12.335938 L 77.222656 12.398438 L 78.644531 12.398438 L 78.847656 11.867188 Z M 78.769531 11.835938 "
       id="path52" />
    <path
       style=" stroke:none;fill-rule:nonzero;fill:rgb(12.940979%,11.764526%,11.764526%);fill-opacity:1;"
       d="M 52.453125 13.515625 C 52.65625 13.09375 52.75 12.71875 52.75 12.625 C 52.75 12.453125 52.640625 12.421875 52.578125 12.421875 C 52.296875 12.421875 52.21875 13.140625 52.1875 13.421875 C 52.1875 13.5625 51.75 14.078125 51.25 14.078125 C 50.6875 14.078125 50.609375 13.515625 50.609375 13.25 C 50.609375 12.96875 50.6875 12.40625 51.21875 11.65625 C 51.28125 11.5625 51.28125 11.546875 51.28125 11.515625 C 51.28125 11.46875 51.25 11.421875 51.1875 11.421875 C 51.15625 11.421875 51.125 11.4375 51.109375 11.484375 C 50.703125 12 50.359375 12.765625 50.359375 13.546875 C 50.359375 14.25 50.65625 14.609375 51.15625 14.609375 C 51.59375 14.609375 51.953125 14.328125 52.203125 13.96875 C 52.265625 14.28125 52.4375 14.609375 52.90625 14.609375 C 54.171875 14.609375 54.71875 12.609375 54.71875 11.875 C 54.71875 11.375 54.453125 11.34375 54.40625 11.34375 C 54.234375 11.34375 54.03125 11.5 54.03125 11.703125 C 54.03125 11.75 54.03125 11.8125 54.125 11.890625 C 54.296875 12.046875 54.390625 12.265625 54.390625 12.515625 C 54.390625 13.140625 53.765625 14.078125 53 14.078125 C 52.625 14.078125 52.484375 13.78125 52.453125 13.515625 Z M 52.453125 13.515625 "
       id="path54" />
    <path
       style=" stroke:none;fill-rule:nonzero;fill:rgb(12.940979%,11.764526%,11.764526%);fill-opacity:1;"
       d="M 56.445313 15.167969 C 56.382813 15.324219 56.320313 15.433594 56.054688 15.433594 L 55.289063 15.433594 L 55.289063 15.402344 L 56.070313 14.636719 C 56.554688 14.136719 56.664063 13.964844 56.664063 13.699219 C 56.664063 13.386719 56.429688 13.027344 56.007813 13.027344 C 55.914063 13.027344 55.382813 13.042969 55.164063 13.667969 L 55.257813 13.699219 C 55.304688 13.589844 55.460938 13.324219 55.820313 13.324219 C 56.132813 13.324219 56.320313 13.558594 56.320313 13.808594 C 56.320313 13.933594 56.304688 14.167969 55.742188 14.761719 L 54.898438 15.667969 L 54.898438 15.730469 L 56.320313 15.730469 L 56.523438 15.199219 Z M 56.445313 15.167969 "
       id="path56" />
    <path
       style=" stroke:none;fill-rule:nonzero;fill:rgb(0%,0%,0%);fill-opacity:1;"
       d="M 113.667969 138.164063 C 113.402344 138.507813 113.214844 138.726563 113.074219 138.726563 C 113.058594 138.726563 112.964844 138.726563 112.964844 138.617188 C 112.964844 138.398438 113.542969 136.617188 113.542969 136.304688 C 113.542969 136.007813 113.371094 135.835938 113.042969 135.835938 C 112.449219 135.835938 111.777344 136.835938 111.449219 137.367188 L 111.433594 137.351563 L 111.886719 135.851563 L 111.871094 135.835938 C 111.480469 135.914063 111.089844 135.976563 110.699219 136.054688 L 110.699219 136.164063 C 111.089844 136.164063 111.167969 136.242188 111.167969 136.351563 C 111.167969 136.507813 110.683594 138.195313 110.449219 139.007813 L 110.996094 139.007813 C 111.292969 138.023438 111.386719 137.710938 111.714844 137.226563 C 111.980469 136.820313 112.433594 136.195313 112.777344 136.195313 C 112.917969 136.195313 112.949219 136.304688 112.949219 136.429688 C 112.949219 136.710938 112.417969 138.476563 112.417969 138.648438 C 112.417969 138.851563 112.433594 139.070313 112.761719 139.070313 C 113.152344 139.070313 113.402344 138.742188 113.777344 138.257813 Z M 113.667969 138.164063 "
       id="path58" />
    <path
       style=" stroke:none;fill-rule:nonzero;fill:rgb(0%,0%,0%);fill-opacity:1;"
       d="M 116.265625 135.835938 C 115.21875 135.835938 114.140625 136.992188 114.140625 138.054688 C 114.140625 138.648438 114.46875 139.085938 115.234375 139.085938 C 116.34375 139.085938 117.328125 137.789063 117.328125 136.898438 C 117.328125 136.429688 117.09375 135.835938 116.265625 135.835938 Z M 116.21875 135.976563 C 116.5625 135.976563 116.71875 136.304688 116.71875 136.679688 C 116.71875 137.445313 116.15625 138.929688 115.328125 138.929688 C 114.96875 138.929688 114.75 138.679688 114.75 138.273438 C 114.75 137.414063 115.40625 135.976563 116.21875 135.976563 Z M 116.21875 135.976563 "
       id="path60" />
    <path
       style=" stroke:none;fill-rule:nonzero;fill:rgb(0%,0%,0%);fill-opacity:1;"
       d="M 119.675781 135.929688 L 119.113281 135.929688 L 119.300781 135.179688 C 119.316406 135.132813 119.300781 135.054688 119.253906 135.070313 C 119.191406 135.054688 119.160156 135.132813 119.128906 135.164063 C 118.941406 135.414063 118.582031 135.742188 118.347656 135.867188 C 118.222656 135.929688 118.019531 135.976563 117.988281 136.039063 C 117.957031 136.070313 117.957031 136.117188 117.972656 136.148438 L 118.503906 136.148438 L 117.988281 138.132813 C 117.957031 138.257813 117.816406 138.695313 117.816406 138.804688 C 117.816406 139.007813 118.019531 139.085938 118.160156 139.085938 C 118.535156 139.085938 118.816406 138.773438 119.191406 138.210938 L 119.097656 138.164063 C 118.910156 138.398438 118.660156 138.726563 118.519531 138.726563 C 118.441406 138.726563 118.394531 138.679688 118.394531 138.617188 C 118.394531 138.585938 118.394531 138.570313 118.410156 138.554688 L 119.035156 136.148438 L 119.644531 136.148438 Z M 119.675781 135.929688 "
       id="path62" />
    <path
       style=" stroke:none;fill-rule:nonzero;fill:rgb(12.940979%,11.764526%,11.764526%);fill-opacity:1;"
       d="M 123.554688 137.992188 C 123.757813 137.570313 123.851563 137.195313 123.851563 137.101563 C 123.851563 136.929688 123.742188 136.898438 123.679688 136.898438 C 123.398438 136.898438 123.320313 137.617188 123.289063 137.898438 C 123.289063 138.039063 122.851563 138.554688 122.351563 138.554688 C 121.789063 138.554688 121.710938 137.992188 121.710938 137.726563 C 121.710938 137.445313 121.789063 136.882813 122.320313 136.132813 C 122.382813 136.039063 122.382813 136.023438 122.382813 135.992188 C 122.382813 135.945313 122.351563 135.898438 122.289063 135.898438 C 122.257813 135.898438 122.226563 135.914063 122.210938 135.960938 C 121.804688 136.476563 121.460938 137.242188 121.460938 138.023438 C 121.460938 138.726563 121.757813 139.085938 122.257813 139.085938 C 122.695313 139.085938 123.054688 138.804688 123.304688 138.445313 C 123.367188 138.757813 123.539063 139.085938 124.007813 139.085938 C 125.273438 139.085938 125.820313 137.085938 125.820313 136.351563 C 125.820313 135.851563 125.554688 135.820313 125.507813 135.820313 C 125.335938 135.820313 125.132813 135.976563 125.132813 136.179688 C 125.132813 136.226563 125.132813 136.289063 125.226563 136.367188 C 125.398438 136.523438 125.492188 136.742188 125.492188 136.992188 C 125.492188 137.617188 124.867188 138.554688 124.101563 138.554688 C 123.726563 138.554688 123.585938 138.257813 123.554688 137.992188 Z M 123.554688 137.992188 "
       id="path64" />
    <path
       style=" stroke:none;fill-rule:nonzero;fill:rgb(12.940979%,11.764526%,11.764526%);fill-opacity:1;"
       d="M 126.671875 137.941406 C 126.71875 137.863281 126.859375 137.675781 127.109375 137.675781 C 127.265625 137.675781 127.46875 137.769531 127.46875 138.035156 C 127.46875 138.472656 126.90625 138.644531 126.515625 138.691406 L 126.515625 138.769531 C 126.90625 138.738281 127.25 138.878906 127.25 139.441406 C 127.25 139.941406 126.875 140.082031 126.734375 140.082031 C 126.515625 140.082031 126.390625 139.847656 126.203125 139.847656 C 126.046875 139.847656 126.015625 139.910156 126.015625 140.003906 C 126.015625 140.175781 126.234375 140.238281 126.46875 140.238281 C 127.203125 140.238281 127.578125 139.660156 127.578125 139.222656 C 127.578125 138.785156 127.296875 138.660156 127.1875 138.613281 L 127.1875 138.597656 C 127.609375 138.441406 127.8125 138.300781 127.8125 138.003906 C 127.8125 137.675781 127.53125 137.503906 127.234375 137.503906 C 127 137.503906 126.703125 137.675781 126.59375 137.925781 Z M 126.671875 137.941406 "
       id="path66" />
    <path
       style=" stroke:none;fill-rule:nonzero;fill:rgb(12.940979%,11.764526%,11.764526%);fill-opacity:1;"
       d="M 134.148438 136.125 C 134.351563 135.703125 134.445313 135.328125 134.445313 135.234375 C 134.445313 135.0625 134.335938 135.03125 134.273438 135.03125 C 133.992188 135.03125 133.914063 135.75 133.882813 136.03125 C 133.882813 136.171875 133.445313 136.6875 132.945313 136.6875 C 132.382813 136.6875 132.304688 136.125 132.304688 135.859375 C 132.304688 135.578125 132.382813 135.015625 132.914063 134.265625 C 132.976563 134.171875 132.976563 134.15625 132.976563 134.125 C 132.976563 134.078125 132.945313 134.03125 132.882813 134.03125 C 132.851563 134.03125 132.820313 134.046875 132.804688 134.09375 C 132.398438 134.609375 132.054688 135.375 132.054688 136.15625 C 132.054688 136.859375 132.351563 137.21875 132.851563 137.21875 C 133.289063 137.21875 133.648438 136.9375 133.898438 136.578125 C 133.960938 136.890625 134.132813 137.21875 134.601563 137.21875 C 135.867188 137.21875 136.414063 135.21875 136.414063 134.484375 C 136.414063 133.984375 136.148438 133.953125 136.101563 133.953125 C 135.929688 133.953125 135.726563 134.109375 135.726563 134.3125 C 135.726563 134.359375 135.726563 134.421875 135.820313 134.5 C 135.992188 134.65625 136.085938 134.875 136.085938 135.125 C 136.085938 135.75 135.460938 136.6875 134.695313 136.6875 C 134.320313 136.6875 134.179688 136.390625 134.148438 136.125 Z M 134.148438 136.125 "
       id="path68" />
    <path
       style=" stroke:none;fill-rule:nonzero;fill:rgb(12.940979%,11.764526%,11.764526%);fill-opacity:1;"
       d="M 137.265625 136.074219 C 137.3125 135.996094 137.453125 135.808594 137.703125 135.808594 C 137.859375 135.808594 138.0625 135.902344 138.0625 136.167969 C 138.0625 136.605469 137.5 136.777344 137.109375 136.824219 L 137.109375 136.902344 C 137.5 136.871094 137.84375 137.011719 137.84375 137.574219 C 137.84375 138.074219 137.46875 138.214844 137.328125 138.214844 C 137.109375 138.214844 136.984375 137.980469 136.796875 137.980469 C 136.640625 137.980469 136.609375 138.042969 136.609375 138.136719 C 136.609375 138.308594 136.828125 138.371094 137.0625 138.371094 C 137.796875 138.371094 138.171875 137.792969 138.171875 137.355469 C 138.171875 136.917969 137.890625 136.792969 137.78125 136.746094 L 137.78125 136.730469 C 138.203125 136.574219 138.40625 136.433594 138.40625 136.136719 C 138.40625 135.808594 138.125 135.636719 137.828125 135.636719 C 137.59375 135.636719 137.296875 135.808594 137.1875 136.058594 Z M 137.265625 136.074219 "
       id="path70" />
    <path
       style=" stroke:none;fill-rule:nonzero;fill:rgb(0%,0%,0%);fill-opacity:1;"
       d="M 8.519531 102.3125 C 8.253906 102.65625 8.066406 102.875 7.925781 102.875 C 7.910156 102.875 7.816406 102.875 7.816406 102.765625 C 7.816406 102.546875 8.394531 100.765625 8.394531 100.453125 C 8.394531 100.15625 8.222656 99.984375 7.894531 99.984375 C 7.300781 99.984375 6.628906 100.984375 6.300781 101.515625 L 6.285156 101.5 L 6.738281 100 L 6.722656 99.984375 C 6.332031 100.0625 5.941406 100.125 5.550781 100.203125 L 5.550781 100.3125 C 5.941406 100.3125 6.019531 100.390625 6.019531 100.5 C 6.019531 100.65625 5.535156 102.34375 5.300781 103.15625 L 5.847656 103.15625 C 6.144531 102.171875 6.238281 101.859375 6.566406 101.375 C 6.832031 100.96875 7.285156 100.34375 7.628906 100.34375 C 7.769531 100.34375 7.800781 100.453125 7.800781 100.578125 C 7.800781 100.859375 7.269531 102.625 7.269531 102.796875 C 7.269531 103 7.285156 103.21875 7.613281 103.21875 C 8.003906 103.21875 8.253906 102.890625 8.628906 102.40625 Z M 8.519531 102.3125 "
       id="path72" />
    <path
       style=" stroke:none;fill-rule:nonzero;fill:rgb(0%,0%,0%);fill-opacity:1;"
       d="M 11.117188 99.984375 C 10.070313 99.984375 8.992188 101.140625 8.992188 102.203125 C 8.992188 102.796875 9.320313 103.234375 10.085938 103.234375 C 11.195313 103.234375 12.179688 101.9375 12.179688 101.046875 C 12.179688 100.578125 11.945313 99.984375 11.117188 99.984375 Z M 11.070313 100.125 C 11.414063 100.125 11.570313 100.453125 11.570313 100.828125 C 11.570313 101.59375 11.007813 103.078125 10.179688 103.078125 C 9.820313 103.078125 9.601563 102.828125 9.601563 102.421875 C 9.601563 101.5625 10.257813 100.125 11.070313 100.125 Z M 11.070313 100.125 "
       id="path74" />
    <path
       style=" stroke:none;fill-rule:nonzero;fill:rgb(0%,0%,0%);fill-opacity:1;"
       d="M 14.527344 100.078125 L 13.964844 100.078125 L 14.152344 99.328125 C 14.167969 99.28125 14.152344 99.203125 14.105469 99.21875 C 14.042969 99.203125 14.011719 99.28125 13.980469 99.3125 C 13.792969 99.5625 13.433594 99.890625 13.199219 100.015625 C 13.074219 100.078125 12.871094 100.125 12.839844 100.1875 C 12.808594 100.21875 12.808594 100.265625 12.824219 100.296875 L 13.355469 100.296875 L 12.839844 102.28125 C 12.808594 102.40625 12.667969 102.84375 12.667969 102.953125 C 12.667969 103.15625 12.871094 103.234375 13.011719 103.234375 C 13.386719 103.234375 13.667969 102.921875 14.042969 102.359375 L 13.949219 102.3125 C 13.761719 102.546875 13.511719 102.875 13.371094 102.875 C 13.292969 102.875 13.246094 102.828125 13.246094 102.765625 C 13.246094 102.734375 13.246094 102.71875 13.261719 102.703125 L 13.886719 100.296875 L 14.496094 100.296875 Z M 14.527344 100.078125 "
       id="path76" />
    <path
       style=" stroke:none;fill-rule:nonzero;fill:rgb(12.940979%,11.764526%,11.764526%);fill-opacity:1;"
       d="M 18.40625 102.140625 C 18.609375 101.71875 18.703125 101.34375 18.703125 101.25 C 18.703125 101.078125 18.59375 101.046875 18.53125 101.046875 C 18.25 101.046875 18.171875 101.765625 18.140625 102.046875 C 18.140625 102.1875 17.703125 102.703125 17.203125 102.703125 C 16.640625 102.703125 16.5625 102.140625 16.5625 101.875 C 16.5625 101.59375 16.640625 101.03125 17.171875 100.28125 C 17.234375 100.1875 17.234375 100.171875 17.234375 100.140625 C 17.234375 100.09375 17.203125 100.046875 17.140625 100.046875 C 17.109375 100.046875 17.078125 100.0625 17.0625 100.109375 C 16.65625 100.625 16.3125 101.390625 16.3125 102.171875 C 16.3125 102.875 16.609375 103.234375 17.109375 103.234375 C 17.546875 103.234375 17.90625 102.953125 18.15625 102.59375 C 18.21875 102.90625 18.390625 103.234375 18.859375 103.234375 C 20.125 103.234375 20.671875 101.234375 20.671875 100.5 C 20.671875 100 20.40625 99.96875 20.359375 99.96875 C 20.1875 99.96875 19.984375 100.125 19.984375 100.328125 C 19.984375 100.375 19.984375 100.4375 20.078125 100.515625 C 20.25 100.671875 20.34375 100.890625 20.34375 101.140625 C 20.34375 101.765625 19.71875 102.703125 18.953125 102.703125 C 18.578125 102.703125 18.4375 102.40625 18.40625 102.140625 Z M 18.40625 102.140625 "
       id="path78" />
    <path
       style=" stroke:none;fill-rule:nonzero;fill:rgb(12.940979%,11.764526%,11.764526%);fill-opacity:1;"
       d="M 21.914063 103.386719 L 21.070313 103.386719 L 21.070313 103.371094 L 22.273438 102.105469 L 22.289063 102.105469 Z M 22.617188 103.386719 L 22.242188 103.386719 L 22.726563 101.652344 L 22.554688 101.652344 L 20.882813 103.371094 L 20.804688 103.636719 L 21.851563 103.636719 L 21.664063 104.355469 L 21.976563 104.355469 L 22.164063 103.652344 L 22.554688 103.652344 Z M 22.617188 103.386719 "
       id="path80" />
    <path
       style=" stroke:none;fill-rule:nonzero;fill:rgb(12.940979%,11.764526%,11.764526%);fill-opacity:1;"
       d="M 8.207031 110.136719 C 8.410156 109.714844 8.503906 109.339844 8.503906 109.246094 C 8.503906 109.074219 8.394531 109.042969 8.332031 109.042969 C 8.050781 109.042969 7.972656 109.761719 7.941406 110.042969 C 7.941406 110.183594 7.503906 110.699219 7.003906 110.699219 C 6.441406 110.699219 6.363281 110.136719 6.363281 109.871094 C 6.363281 109.589844 6.441406 109.027344 6.972656 108.277344 C 7.035156 108.183594 7.035156 108.167969 7.035156 108.136719 C 7.035156 108.089844 7.003906 108.042969 6.941406 108.042969 C 6.910156 108.042969 6.878906 108.058594 6.863281 108.105469 C 6.457031 108.621094 6.113281 109.386719 6.113281 110.167969 C 6.113281 110.871094 6.410156 111.230469 6.910156 111.230469 C 7.347656 111.230469 7.707031 110.949219 7.957031 110.589844 C 8.019531 110.902344 8.191406 111.230469 8.660156 111.230469 C 9.925781 111.230469 10.472656 109.230469 10.472656 108.496094 C 10.472656 107.996094 10.207031 107.964844 10.160156 107.964844 C 9.988281 107.964844 9.785156 108.121094 9.785156 108.324219 C 9.785156 108.371094 9.785156 108.433594 9.878906 108.511719 C 10.050781 108.667969 10.144531 108.886719 10.144531 109.136719 C 10.144531 109.761719 9.519531 110.699219 8.753906 110.699219 C 8.378906 110.699219 8.238281 110.402344 8.207031 110.136719 Z M 8.207031 110.136719 "
       id="path82" />
    <path
       style=" stroke:none;fill-rule:nonzero;fill:rgb(12.940979%,11.764526%,11.764526%);fill-opacity:1;"
       d="M 11.714844 111.382813 L 10.871094 111.382813 L 10.871094 111.367188 L 12.074219 110.101563 L 12.089844 110.101563 Z M 12.417969 111.382813 L 12.042969 111.382813 L 12.527344 109.648438 L 12.355469 109.648438 L 10.683594 111.367188 L 10.605469 111.632813 L 11.652344 111.632813 L 11.464844 112.351563 L 11.777344 112.351563 L 11.964844 111.648438 L 12.355469 111.648438 Z M 12.417969 111.382813 "
       id="path84" />
    <path
       style=" stroke:none;fill-rule:nonzero;fill:rgb(0%,0%,0%);fill-opacity:1;"
       d="M 83.222656 77.707031 C 82.785156 78.128906 82.597656 78.378906 82.457031 78.378906 C 82.378906 78.378906 82.316406 78.316406 82.316406 78.253906 C 82.316406 77.957031 83.207031 74.675781 83.238281 74.566406 L 83.160156 74.535156 L 82.582031 74.613281 L 82.550781 74.628906 L 82.457031 75.050781 L 82.441406 75.050781 C 82.410156 74.785156 82.082031 74.535156 81.675781 74.535156 C 80.394531 74.535156 78.925781 76.332031 78.925781 77.738281 C 78.925781 78.019531 78.957031 78.878906 79.925781 78.878906 C 80.503906 78.878906 81.003906 78.582031 81.800781 77.410156 L 81.816406 77.441406 C 81.660156 78.019531 81.613281 78.238281 81.613281 78.457031 C 81.613281 78.613281 81.613281 78.863281 82.019531 78.863281 C 82.441406 78.863281 82.753906 78.519531 83.332031 77.816406 Z M 79.738281 77.722656 C 79.738281 76.863281 80.597656 74.753906 81.722656 74.753906 C 82.003906 74.753906 82.269531 74.925781 82.269531 75.394531 C 82.269531 76.332031 81.332031 78.410156 80.316406 78.410156 C 80.050781 78.410156 79.738281 78.238281 79.738281 77.722656 Z M 79.738281 77.722656 "
       id="path86" />
    <path
       style=" stroke:none;fill-rule:nonzero;fill:rgb(0%,0%,0%);fill-opacity:1;"
       d="M 90.175781 77.644531 C 89.816406 78.097656 89.566406 78.410156 89.378906 78.410156 C 89.269531 78.410156 89.238281 78.378906 89.238281 78.207031 C 89.238281 78.082031 90.019531 75.503906 90.019531 75.175781 C 90.019531 74.800781 89.785156 74.535156 89.441406 74.535156 C 88.816406 74.535156 88.035156 75.378906 87.363281 76.488281 L 87.347656 76.472656 C 87.488281 76.097656 87.707031 75.300781 87.707031 75.160156 C 87.707031 74.753906 87.503906 74.535156 87.128906 74.535156 C 86.332031 74.535156 85.347656 76.019531 85.050781 76.488281 L 85.035156 76.472656 L 85.566406 74.550781 L 85.535156 74.535156 C 85.035156 74.644531 84.519531 74.738281 84.003906 74.832031 L 84.003906 74.988281 C 84.472656 74.988281 84.628906 75.003906 84.628906 75.222656 C 84.628906 75.425781 83.832031 78.128906 83.675781 78.769531 L 84.394531 78.769531 C 84.753906 77.597656 84.941406 76.972656 85.332031 76.394531 C 85.597656 76.003906 86.316406 75.035156 86.753906 75.035156 C 86.832031 75.035156 86.957031 75.035156 86.957031 75.300781 C 86.957031 75.472656 86.300781 77.832031 86.050781 78.769531 L 86.769531 78.769531 C 87.050781 77.691406 87.207031 77.082031 87.675781 76.347656 C 87.972656 75.878906 88.660156 75.035156 89.050781 75.035156 C 89.175781 75.035156 89.253906 75.113281 89.253906 75.253906 C 89.253906 75.457031 88.503906 78.128906 88.503906 78.378906 C 88.503906 78.519531 88.503906 78.863281 88.910156 78.863281 C 89.441406 78.863281 89.925781 78.316406 90.269531 77.832031 L 90.316406 77.769531 Z M 90.175781 77.644531 "
       id="path88" />
    <path
       style=" stroke:none;fill-rule:nonzero;fill:rgb(0%,0%,0%);fill-opacity:1;"
       d="M 94.214844 75.832031 C 94.214844 76.628906 93.308594 78.660156 91.996094 78.660156 C 91.542969 78.660156 91.542969 78.410156 91.542969 78.332031 C 91.542969 77.332031 92.464844 75.003906 93.511719 75.003906 C 94.121094 75.003906 94.214844 75.519531 94.214844 75.832031 Z M 91.558594 72.597656 C 92.105469 72.613281 92.167969 72.660156 92.167969 72.878906 C 92.167969 73.019531 92.089844 73.253906 92.027344 73.519531 L 90.714844 78.332031 L 90.714844 78.363281 C 90.714844 78.582031 91.449219 78.878906 91.964844 78.878906 C 93.433594 78.878906 95.027344 77.222656 95.027344 75.707031 C 95.027344 75.003906 94.558594 74.535156 93.886719 74.535156 C 93.027344 74.535156 92.417969 75.425781 92.105469 75.925781 L 92.089844 75.925781 C 92.417969 74.832031 92.855469 73.050781 93.074219 72.269531 L 93.011719 72.222656 C 92.527344 72.316406 92.027344 72.378906 91.558594 72.441406 Z M 91.558594 72.597656 "
       id="path90" />
    <path
       style=" stroke:none;fill-rule:nonzero;fill:rgb(0%,0%,0%);fill-opacity:1;"
       d="M 97.417969 77.675781 C 97.027344 78.238281 96.746094 78.425781 96.636719 78.425781 C 96.542969 78.425781 96.480469 78.347656 96.480469 78.285156 C 96.480469 78.160156 96.605469 77.785156 96.636719 77.644531 L 97.480469 74.550781 L 97.449219 74.535156 C 97.074219 74.613281 96.277344 74.753906 95.917969 74.785156 L 95.917969 74.925781 C 96.449219 74.925781 96.527344 74.972656 96.527344 75.175781 C 96.527344 75.457031 95.761719 77.832031 95.761719 78.285156 C 95.761719 78.457031 95.761719 78.878906 96.214844 78.878906 C 96.746094 78.878906 97.167969 78.347656 97.542969 77.785156 Z M 97.824219 73.019531 C 97.824219 72.816406 97.667969 72.488281 97.339844 72.488281 C 97.121094 72.488281 96.902344 72.675781 96.902344 73.019531 C 96.902344 73.347656 97.121094 73.519531 97.355469 73.519531 C 97.667969 73.519531 97.824219 73.207031 97.824219 73.019531 Z M 97.824219 73.019531 "
       id="path92" />
    <path
       style=" stroke:none;fill-rule:nonzero;fill:rgb(0%,0%,0%);fill-opacity:1;"
       d="M 102.492188 74.878906 L 101.898438 74.878906 C 101.835938 74.878906 101.757813 74.800781 101.585938 74.707031 C 101.414063 74.628906 101.179688 74.535156 100.789063 74.535156 C 99.992188 74.535156 98.882813 75.097656 98.882813 76.175781 C 98.882813 76.832031 99.289063 77.066406 99.632813 77.222656 C 99.320313 77.441406 98.898438 77.707031 98.898438 78.003906 C 98.898438 78.191406 99.039063 78.316406 99.164063 78.394531 C 98.351563 78.925781 98.039063 79.128906 98.039063 79.675781 C 98.039063 80.207031 98.539063 80.738281 99.585938 80.738281 C 100.898438 80.738281 101.648438 80.160156 101.648438 79.347656 C 101.648438 78.019531 99.617188 78.175781 99.617188 77.660156 C 99.617188 77.535156 99.820313 77.285156 99.960938 77.285156 C 100.085938 77.285156 100.210938 77.316406 100.335938 77.316406 C 101.179688 77.316406 102.101563 76.535156 102.101563 75.832031 C 102.101563 75.628906 102.070313 75.441406 102.007813 75.253906 L 102.492188 75.253906 Z M 101.085938 79.628906 C 101.085938 80.097656 100.601563 80.535156 99.742188 80.535156 C 99.601563 80.535156 98.570313 80.503906 98.570313 79.597656 C 98.570313 79.378906 98.570313 79.128906 98.960938 78.785156 C 98.992188 78.753906 99.320313 78.503906 99.367188 78.503906 C 99.445313 78.503906 100.382813 78.863281 100.554688 78.941406 C 100.726563 79.035156 101.085938 79.191406 101.085938 79.628906 Z M 101.335938 75.394531 C 101.335938 76.191406 100.851563 77.113281 100.226563 77.113281 C 99.789063 77.113281 99.632813 76.800781 99.632813 76.378906 C 99.632813 75.722656 100.054688 74.753906 100.789063 74.753906 C 101.195313 74.753906 101.335938 75.035156 101.335938 75.394531 Z M 101.335938 75.394531 "
       id="path94" />
    <path
       style=" stroke:none;fill-rule:nonzero;fill:rgb(0%,0%,0%);fill-opacity:1;"
       d="M 107.179688 77.644531 C 106.851563 78.066406 106.570313 78.410156 106.398438 78.410156 C 106.289063 78.410156 106.273438 78.300781 106.273438 78.253906 C 106.273438 78.113281 106.398438 77.691406 106.460938 77.488281 L 107.226563 74.628906 L 106.507813 74.628906 C 106.132813 75.644531 105.929688 76.253906 105.460938 76.972656 C 105.132813 77.457031 104.523438 78.363281 104.117188 78.363281 C 103.914063 78.363281 103.882813 78.160156 103.914063 78.035156 L 104.789063 74.550781 L 104.757813 74.535156 C 104.273438 74.660156 103.789063 74.738281 103.320313 74.800781 L 103.320313 74.925781 C 103.710938 74.925781 103.882813 74.925781 103.882813 75.207031 C 103.882813 75.472656 103.164063 77.894531 103.164063 78.316406 C 103.164063 78.738281 103.335938 78.878906 103.695313 78.878906 C 104.554688 78.878906 105.257813 77.675781 105.914063 76.597656 L 105.945313 76.597656 C 105.726563 77.378906 105.523438 78.191406 105.523438 78.363281 C 105.523438 78.503906 105.554688 78.863281 105.976563 78.863281 C 106.460938 78.863281 106.710938 78.613281 107.320313 77.738281 Z M 107.179688 77.644531 "
       id="path96" />
    <path
       style=" stroke:none;fill-rule:nonzero;fill:rgb(0%,0%,0%);fill-opacity:1;"
       d="M 110.636719 74.535156 C 109.230469 74.535156 107.824219 76.082031 107.824219 77.488281 C 107.824219 78.285156 108.246094 78.878906 109.261719 78.878906 C 110.730469 78.878906 112.042969 77.144531 112.042969 75.957031 C 112.042969 75.332031 111.746094 74.535156 110.636719 74.535156 Z M 110.574219 74.738281 C 111.027344 74.738281 111.246094 75.160156 111.246094 75.660156 C 111.246094 76.691406 110.480469 78.675781 109.386719 78.675781 C 108.917969 78.675781 108.621094 78.332031 108.621094 77.785156 C 108.621094 76.644531 109.496094 74.738281 110.574219 74.738281 Z M 110.574219 74.738281 "
       id="path98" />
    <path
       style=" stroke:none;fill-rule:nonzero;fill:rgb(0%,0%,0%);fill-opacity:1;"
       d="M 116.777344 77.644531 C 116.449219 78.066406 116.167969 78.410156 115.996094 78.410156 C 115.886719 78.410156 115.871094 78.300781 115.871094 78.253906 C 115.871094 78.113281 115.996094 77.691406 116.058594 77.488281 L 116.824219 74.628906 L 116.105469 74.628906 C 115.730469 75.644531 115.527344 76.253906 115.058594 76.972656 C 114.730469 77.457031 114.121094 78.363281 113.714844 78.363281 C 113.511719 78.363281 113.480469 78.160156 113.511719 78.035156 L 114.386719 74.550781 L 114.355469 74.535156 C 113.871094 74.660156 113.386719 74.738281 112.917969 74.800781 L 112.917969 74.925781 C 113.308594 74.925781 113.480469 74.925781 113.480469 75.207031 C 113.480469 75.472656 112.761719 77.894531 112.761719 78.316406 C 112.761719 78.738281 112.933594 78.878906 113.292969 78.878906 C 114.152344 78.878906 114.855469 77.675781 115.511719 76.597656 L 115.542969 76.597656 C 115.324219 77.378906 115.121094 78.191406 115.121094 78.363281 C 115.121094 78.503906 115.152344 78.863281 115.574219 78.863281 C 116.058594 78.863281 116.308594 78.613281 116.917969 77.738281 Z M 116.777344 77.644531 "
       id="path100" />
    <path
       style=" stroke:none;fill-rule:nonzero;fill:rgb(0%,0%,0%);fill-opacity:1;"
       d="M 117.496094 77.363281 L 117.308594 78.894531 L 117.464844 78.894531 C 117.511719 78.785156 117.558594 78.691406 117.683594 78.691406 C 117.964844 78.691406 118.355469 78.878906 118.636719 78.878906 C 119.183594 78.878906 120.074219 78.628906 120.074219 77.582031 C 120.074219 76.769531 118.902344 75.925781 118.902344 75.316406 C 118.902344 74.847656 119.199219 74.753906 119.417969 74.753906 C 120.042969 74.753906 120.277344 75.316406 120.324219 75.863281 L 120.464844 75.863281 L 120.667969 74.535156 L 120.527344 74.535156 C 120.480469 74.613281 120.417969 74.707031 120.261719 74.707031 C 119.980469 74.707031 119.777344 74.535156 119.355469 74.535156 C 118.339844 74.535156 118.199219 75.300781 118.199219 75.597656 C 118.199219 76.347656 119.339844 77.269531 119.339844 77.894531 C 119.339844 78.207031 119.183594 78.675781 118.652344 78.675781 C 117.871094 78.675781 117.714844 77.785156 117.652344 77.363281 Z M 117.496094 77.363281 "
       id="path102" />
    <path
       style=" stroke:none;fill-rule:nonzero;fill:rgb(0%,0%,0%);fill-opacity:1;"
       d="M 89.523438 90.363281 C 89.914063 89.082031 90.054688 88.660156 90.414063 87.972656 C 90.492188 87.816406 91.070313 86.753906 91.367188 86.753906 C 91.601563 86.753906 91.460938 87.097656 91.867188 87.097656 C 91.976563 87.097656 92.320313 87.097656 92.320313 86.597656 C 92.320313 86.269531 92.085938 86.128906 91.851563 86.128906 C 91.257813 86.128906 90.523438 87.253906 90.210938 87.894531 L 90.132813 88.082031 L 90.117188 88.066406 L 90.585938 86.144531 L 90.554688 86.128906 C 90.117188 86.207031 89.554688 86.332031 89.070313 86.394531 L 89.070313 86.550781 C 89.179688 86.535156 89.273438 86.503906 89.382813 86.503906 C 89.679688 86.503906 89.726563 86.660156 89.726563 86.800781 C 89.726563 86.878906 89.679688 87.207031 89.570313 87.566406 L 88.804688 90.363281 Z M 89.523438 90.363281 "
       id="path104" />
    <path
       style=" stroke:none;fill-rule:nonzero;fill:rgb(0%,0%,0%);fill-opacity:1;"
       d="M 93.550781 87.941406 C 93.910156 87.097656 94.566406 86.347656 95.082031 86.347656 C 95.316406 86.347656 95.410156 86.535156 95.410156 86.738281 C 95.410156 86.816406 95.363281 87.972656 93.394531 88.363281 Z M 95.535156 89.316406 C 95.050781 89.707031 94.644531 90.035156 94.128906 90.035156 C 93.722656 90.035156 93.222656 89.816406 93.222656 89.160156 C 93.222656 88.972656 93.285156 88.785156 93.332031 88.582031 L 93.597656 88.535156 C 95.144531 88.316406 96.050781 87.535156 96.050781 86.785156 C 96.050781 86.363281 95.753906 86.128906 95.269531 86.128906 C 93.910156 86.128906 92.394531 87.738281 92.394531 89.113281 C 92.394531 89.722656 92.707031 90.472656 93.707031 90.472656 C 94.675781 90.472656 95.535156 89.582031 95.644531 89.425781 Z M 95.535156 89.316406 "
       id="path106" />
    <path
       style=" stroke:none;fill-rule:nonzero;fill:rgb(0%,0%,0%);fill-opacity:1;"
       d="M 100.890625 86.472656 L 100.296875 86.472656 C 100.234375 86.472656 100.15625 86.394531 99.984375 86.300781 C 99.8125 86.222656 99.578125 86.128906 99.1875 86.128906 C 98.390625 86.128906 97.28125 86.691406 97.28125 87.769531 C 97.28125 88.425781 97.6875 88.660156 98.03125 88.816406 C 97.71875 89.035156 97.296875 89.300781 97.296875 89.597656 C 97.296875 89.785156 97.4375 89.910156 97.5625 89.988281 C 96.75 90.519531 96.4375 90.722656 96.4375 91.269531 C 96.4375 91.800781 96.9375 92.332031 97.984375 92.332031 C 99.296875 92.332031 100.046875 91.753906 100.046875 90.941406 C 100.046875 89.613281 98.015625 89.769531 98.015625 89.253906 C 98.015625 89.128906 98.21875 88.878906 98.359375 88.878906 C 98.484375 88.878906 98.609375 88.910156 98.734375 88.910156 C 99.578125 88.910156 100.5 88.128906 100.5 87.425781 C 100.5 87.222656 100.46875 87.035156 100.40625 86.847656 L 100.890625 86.847656 Z M 99.484375 91.222656 C 99.484375 91.691406 99 92.128906 98.140625 92.128906 C 98 92.128906 96.96875 92.097656 96.96875 91.191406 C 96.96875 90.972656 96.96875 90.722656 97.359375 90.378906 C 97.390625 90.347656 97.71875 90.097656 97.765625 90.097656 C 97.84375 90.097656 98.78125 90.457031 98.953125 90.535156 C 99.125 90.628906 99.484375 90.785156 99.484375 91.222656 Z M 99.734375 86.988281 C 99.734375 87.785156 99.25 88.707031 98.625 88.707031 C 98.1875 88.707031 98.03125 88.394531 98.03125 87.972656 C 98.03125 87.316406 98.453125 86.347656 99.1875 86.347656 C 99.59375 86.347656 99.734375 86.628906 99.734375 86.988281 Z M 99.734375 86.988281 "
       id="path108" />
    <path
       style=" stroke:none;fill-rule:nonzero;fill:rgb(0%,0%,0%);fill-opacity:1;"
       d="M 103.28125 89.269531 C 102.890625 89.832031 102.609375 90.019531 102.5 90.019531 C 102.40625 90.019531 102.34375 89.941406 102.34375 89.878906 C 102.34375 89.753906 102.46875 89.378906 102.5 89.238281 L 103.34375 86.144531 L 103.3125 86.128906 C 102.9375 86.207031 102.140625 86.347656 101.78125 86.378906 L 101.78125 86.519531 C 102.3125 86.519531 102.390625 86.566406 102.390625 86.769531 C 102.390625 87.050781 101.625 89.425781 101.625 89.878906 C 101.625 90.050781 101.625 90.472656 102.078125 90.472656 C 102.609375 90.472656 103.03125 89.941406 103.40625 89.378906 Z M 103.6875 84.613281 C 103.6875 84.410156 103.53125 84.082031 103.203125 84.082031 C 102.984375 84.082031 102.765625 84.269531 102.765625 84.613281 C 102.765625 84.941406 102.984375 85.113281 103.21875 85.113281 C 103.53125 85.113281 103.6875 84.800781 103.6875 84.613281 Z M 103.6875 84.613281 "
       id="path110" />
    <path
       style=" stroke:none;fill-rule:nonzero;fill:rgb(0%,0%,0%);fill-opacity:1;"
       d="M 106.902344 86.128906 C 105.496094 86.128906 104.089844 87.675781 104.089844 89.082031 C 104.089844 89.878906 104.511719 90.472656 105.527344 90.472656 C 106.996094 90.472656 108.308594 88.738281 108.308594 87.550781 C 108.308594 86.925781 108.011719 86.128906 106.902344 86.128906 Z M 106.839844 86.332031 C 107.292969 86.332031 107.511719 86.753906 107.511719 87.253906 C 107.511719 88.285156 106.746094 90.269531 105.652344 90.269531 C 105.183594 90.269531 104.886719 89.925781 104.886719 89.378906 C 104.886719 88.238281 105.761719 86.332031 106.839844 86.332031 Z M 106.839844 86.332031 "
       id="path112" />
    <path
       style=" stroke:none;fill-rule:nonzero;fill:rgb(0%,0%,0%);fill-opacity:1;"
       d="M 113.027344 89.238281 C 112.683594 89.691406 112.433594 90.003906 112.246094 90.003906 C 112.230469 90.003906 112.089844 89.972656 112.089844 89.832031 C 112.089844 89.550781 112.855469 87.175781 112.855469 86.769531 C 112.855469 86.363281 112.636719 86.128906 112.199219 86.128906 C 111.402344 86.128906 110.527344 87.472656 110.074219 88.175781 L 110.042969 88.160156 L 110.667969 86.144531 L 110.636719 86.128906 C 110.121094 86.238281 109.605469 86.332031 109.074219 86.425781 L 109.074219 86.582031 C 109.605469 86.582031 109.699219 86.691406 109.699219 86.832031 C 109.699219 87.035156 109.058594 89.285156 108.761719 90.363281 L 109.480469 90.363281 C 109.871094 89.050781 109.996094 88.644531 110.433594 87.988281 C 110.777344 87.441406 111.386719 86.628906 111.839844 86.628906 C 112.027344 86.628906 112.089844 86.753906 112.089844 86.925781 C 112.089844 87.316406 111.371094 89.660156 111.371094 89.878906 C 111.371094 90.160156 111.386719 90.457031 111.839844 90.457031 C 112.355469 90.457031 112.683594 90.003906 113.167969 89.363281 Z M 113.027344 89.238281 "
       id="path114" />
    <path
       style=" stroke:none;fill-rule:nonzero;fill:rgb(12.940979%,11.764526%,11.764526%);fill-opacity:1;"
       d="M 33.703125 85.214844 C 33.984375 84.636719 34.078125 84.136719 34.078125 84.011719 C 34.078125 83.792969 33.953125 83.761719 33.875 83.761719 C 33.484375 83.761719 33.390625 84.699219 33.359375 85.089844 C 33.34375 85.277344 32.765625 85.949219 32.09375 85.949219 C 31.34375 85.949219 31.234375 85.199219 31.234375 84.855469 C 31.234375 84.480469 31.34375 83.714844 32.046875 82.730469 C 32.140625 82.605469 32.140625 82.589844 32.140625 82.542969 C 32.140625 82.480469 32.09375 82.417969 32.015625 82.417969 C 31.96875 82.417969 31.9375 82.449219 31.90625 82.496094 C 31.375 83.183594 30.90625 84.199219 30.90625 85.246094 C 30.90625 86.183594 31.296875 86.667969 31.96875 86.667969 C 32.546875 86.667969 33.046875 86.277344 33.359375 85.792969 C 33.4375 86.230469 33.671875 86.667969 34.296875 86.667969 C 35.984375 86.667969 36.71875 83.996094 36.71875 83.011719 C 36.71875 82.339844 36.375 82.308594 36.296875 82.308594 C 36.078125 82.308594 35.8125 82.527344 35.8125 82.792969 C 35.8125 82.839844 35.8125 82.949219 35.9375 83.042969 C 36.15625 83.246094 36.28125 83.542969 36.28125 83.871094 C 36.28125 84.699219 35.4375 85.949219 34.421875 85.949219 C 33.921875 85.949219 33.75 85.558594 33.703125 85.214844 Z M 33.703125 85.214844 "
       id="path116" />
    <path
       style=" stroke:none;fill-rule:nonzero;fill:rgb(12.940979%,11.764526%,11.764526%);fill-opacity:1;"
       d="M 38.824219 87.085938 C 38.746094 87.257813 38.667969 87.398438 38.339844 87.398438 L 37.433594 87.398438 L 37.433594 87.367188 L 38.355469 86.445313 C 38.949219 85.851563 39.074219 85.632813 39.074219 85.320313 C 39.074219 84.960938 38.808594 84.507813 38.292969 84.507813 C 38.167969 84.507813 37.542969 84.539063 37.292969 85.289063 L 37.386719 85.320313 C 37.449219 85.195313 37.636719 84.867188 38.074219 84.867188 C 38.433594 84.867188 38.652344 85.148438 38.652344 85.445313 C 38.652344 85.601563 38.636719 85.882813 37.964844 86.601563 L 36.964844 87.679688 L 36.964844 87.757813 L 38.667969 87.757813 L 38.902344 87.117188 Z M 38.824219 87.085938 "
       id="path118" />
    <path
       style=" stroke:none;fill-rule:nonzero;fill:rgb(12.940979%,11.764526%,11.764526%);fill-opacity:1;"
       d="M 96.339844 124.128906 C 96.621094 123.550781 96.714844 123.050781 96.714844 122.925781 C 96.714844 122.707031 96.589844 122.675781 96.511719 122.675781 C 96.121094 122.675781 96.027344 123.613281 95.996094 124.003906 C 95.980469 124.191406 95.402344 124.863281 94.730469 124.863281 C 93.980469 124.863281 93.871094 124.113281 93.871094 123.769531 C 93.871094 123.394531 93.980469 122.628906 94.683594 121.644531 C 94.777344 121.519531 94.777344 121.503906 94.777344 121.457031 C 94.777344 121.394531 94.730469 121.332031 94.652344 121.332031 C 94.605469 121.332031 94.574219 121.363281 94.542969 121.410156 C 94.011719 122.097656 93.542969 123.113281 93.542969 124.160156 C 93.542969 125.097656 93.933594 125.582031 94.605469 125.582031 C 95.183594 125.582031 95.683594 125.191406 95.996094 124.707031 C 96.074219 125.144531 96.308594 125.582031 96.933594 125.582031 C 98.621094 125.582031 99.355469 122.910156 99.355469 121.925781 C 99.355469 121.253906 99.011719 121.222656 98.933594 121.222656 C 98.714844 121.222656 98.449219 121.441406 98.449219 121.707031 C 98.449219 121.753906 98.449219 121.863281 98.574219 121.957031 C 98.792969 122.160156 98.917969 122.457031 98.917969 122.785156 C 98.917969 123.613281 98.074219 124.863281 97.058594 124.863281 C 96.558594 124.863281 96.386719 124.472656 96.339844 124.128906 Z M 96.339844 124.128906 "
       id="path120" />
    <path
       style=" stroke:none;fill-rule:nonzero;fill:rgb(12.940979%,11.764526%,11.764526%);fill-opacity:1;"
       d="M 100.867188 125.515625 L 99.851563 125.515625 L 99.851563 125.5 L 101.304688 123.96875 L 101.335938 123.96875 Z M 101.710938 125.515625 L 101.257813 125.515625 L 101.835938 123.421875 L 101.632813 123.421875 L 99.632813 125.5 L 99.539063 125.8125 L 100.804688 125.8125 L 100.570313 126.671875 L 100.945313 126.671875 L 101.164063 125.828125 L 101.648438 125.828125 Z M 101.710938 125.515625 "
       id="path122" />
    <path
       style=" stroke:none;fill-rule:nonzero;fill:rgb(12.940979%,11.764526%,11.764526%);fill-opacity:1;"
       d="M 158.445313 82.546875 C 158.726563 81.96875 158.820313 81.46875 158.820313 81.34375 C 158.820313 81.125 158.695313 81.09375 158.617188 81.09375 C 158.226563 81.09375 158.132813 82.03125 158.101563 82.421875 C 158.085938 82.609375 157.507813 83.28125 156.835938 83.28125 C 156.085938 83.28125 155.976563 82.53125 155.976563 82.1875 C 155.976563 81.8125 156.085938 81.046875 156.789063 80.0625 C 156.882813 79.9375 156.882813 79.921875 156.882813 79.875 C 156.882813 79.8125 156.835938 79.75 156.757813 79.75 C 156.710938 79.75 156.679688 79.78125 156.648438 79.828125 C 156.117188 80.515625 155.648438 81.53125 155.648438 82.578125 C 155.648438 83.515625 156.039063 84 156.710938 84 C 157.289063 84 157.789063 83.609375 158.101563 83.125 C 158.179688 83.5625 158.414063 84 159.039063 84 C 160.726563 84 161.460938 81.328125 161.460938 80.34375 C 161.460938 79.671875 161.117188 79.640625 161.039063 79.640625 C 160.820313 79.640625 160.554688 79.859375 160.554688 80.125 C 160.554688 80.171875 160.554688 80.28125 160.679688 80.375 C 160.898438 80.578125 161.023438 80.875 161.023438 81.203125 C 161.023438 82.03125 160.179688 83.28125 159.164063 83.28125 C 158.664063 83.28125 158.492188 82.890625 158.445313 82.546875 Z M 158.445313 82.546875 "
       id="path124" />
    <path
       style=" stroke:none;fill-rule:nonzero;fill:rgb(12.940979%,11.764526%,11.764526%);fill-opacity:1;"
       d="M 162.503906 82.375 C 162.566406 82.28125 162.738281 82.046875 163.035156 82.046875 C 163.222656 82.046875 163.457031 82.171875 163.457031 82.484375 C 163.457031 83 162.785156 83.21875 162.316406 83.28125 L 162.316406 83.359375 C 162.785156 83.328125 163.207031 83.5 163.207031 84.171875 C 163.207031 84.78125 162.753906 84.9375 162.582031 84.9375 C 162.316406 84.9375 162.160156 84.65625 161.941406 84.65625 C 161.769531 84.65625 161.722656 84.75 161.722656 84.84375 C 161.722656 85.0625 161.972656 85.125 162.269531 85.125 C 163.144531 85.125 163.582031 84.453125 163.582031 83.90625 C 163.582031 83.390625 163.253906 83.234375 163.128906 83.1875 L 163.128906 83.171875 C 163.628906 82.984375 163.878906 82.8125 163.878906 82.453125 C 163.878906 82.046875 163.535156 81.84375 163.175781 81.84375 C 162.894531 81.84375 162.535156 82.0625 162.425781 82.34375 Z M 162.503906 82.375 "
       id="path126" />
  </g>
</svg>
