<?xml version="1.0" encoding="UTF-8" standalone="no"?>
<svg
   xmlns:dc="http://purl.org/dc/elements/1.1/"
   xmlns:cc="http://creativecommons.org/ns#"
   xmlns:rdf="http://www.w3.org/1999/02/22-rdf-syntax-ns#"
   xmlns:svg="http://www.w3.org/2000/svg"
   xmlns="http://www.w3.org/2000/svg"
   xmlns:sodipodi="http://sodipodi.sourceforge.net/DTD/sodipodi-0.dtd"
   xmlns:inkscape="http://www.inkscape.org/namespaces/inkscape"
   width="94.087517pt"
   height="60.57637pt"
   viewBox="0 0 94.087517 60.57637"
   version="1.2"
   id="svg91"
   sodipodi:docname="ica_signal_01.svg"
   inkscape:version="0.92.4 (5da689c313, 2019-01-14)">
  <metadata
     id="metadata95">
    <rdf:RDF>
      <cc:Work
         rdf:about="">
        <dc:format>image/svg+xml</dc:format>
        <dc:type
           rdf:resource="http://purl.org/dc/dcmitype/StillImage" />
        <dc:title></dc:title>
      </cc:Work>
    </rdf:RDF>
  </metadata>
  <sodipodi:namedview
     pagecolor="#ffffff"
     bordercolor="#666666"
     borderopacity="1"
     objecttolerance="10"
     gridtolerance="10"
     guidetolerance="10"
     inkscape:pageopacity="0"
     inkscape:pageshadow="2"
     inkscape:window-width="640"
     inkscape:window-height="480"
     id="namedview93"
     showgrid="false"
     inkscape:zoom="2.7421278"
     inkscape:cx="62.725011"
     inkscape:cy="40.384247"
     inkscape:window-x="0"
     inkscape:window-y="0"
     inkscape:window-maximized="0"
     inkscape:current-layer="svg91" />
  <defs
     id="defs8">
    <clipPath
       id="clip1">
      <path
         d="M 5 57 L 8 57 L 8 60.578125 L 5 60.578125 Z M 5 57 "
         id="path2" />
    </clipPath>
    <clipPath
       id="clip2">
      <path
         d="M 91 31 L 94.085938 31 L 94.085938 38 L 91 38 Z M 91 31 "
         id="path5" />
    </clipPath>
  </defs>
  <g
     id="surface48">
    <path
       style="fill:none;stroke-width:0.055;stroke-linecap:round;stroke-linejoin:round;stroke:rgb(12.940979%,11.764526%,11.764526%);stroke-opacity:1;stroke-miterlimit:4;"
       d="M 24.941406 34.988281 L 24.941406 34.503906 "
       id="path10" />
    <path
       style=" stroke:none;fill-rule:nonzero;fill:rgb(12.940979%,11.764526%,11.764526%);fill-opacity:1;"
       d="M 25.378906 39.859375 C 25.316406 39.984375 25.253906 40.09375 25.019531 40.09375 L 24.347656 40.09375 L 24.347656 40.0625 L 25.035156 39.375 C 25.472656 38.9375 25.566406 38.765625 25.566406 38.53125 C 25.566406 38.265625 25.363281 37.9375 24.988281 37.9375 C 24.894531 37.9375 24.425781 37.9375 24.222656 38.5 L 24.300781 38.53125 C 24.347656 38.4375 24.488281 38.1875 24.816406 38.1875 C 25.097656 38.1875 25.253906 38.40625 25.253906 38.625 C 25.253906 38.75 25.238281 38.953125 24.738281 39.5 L 23.988281 40.296875 L 23.988281 40.359375 L 25.253906 40.359375 L 25.441406 39.890625 Z M 25.378906 39.859375 "
       id="path12" />
    <path
       style="fill:none;stroke-width:0.055;stroke-linecap:round;stroke-linejoin:round;stroke:rgb(12.940979%,11.764526%,11.764526%);stroke-opacity:1;stroke-miterlimit:4;"
       d="M 39.722656 34.988281 L 39.722656 34.503906 "
       id="path14" />
    <path
       style=" stroke:none;fill-rule:nonzero;fill:rgb(12.940979%,11.764526%,11.764526%);fill-opacity:1;"
       d="M 39.726563 39.5 L 38.960938 39.5 L 38.960938 39.484375 L 40.054688 38.34375 L 40.070313 38.34375 Z M 40.351563 39.5 L 40.007813 39.5 L 40.445313 37.9375 L 40.304688 37.9375 L 38.804688 39.484375 L 38.726563 39.71875 L 39.664063 39.71875 L 39.492188 40.359375 L 39.773438 40.359375 L 39.945313 39.734375 L 40.304688 39.734375 Z M 40.351563 39.5 "
       id="path16" />
    <path
       style="fill:none;stroke-width:0.055;stroke-linecap:round;stroke-linejoin:round;stroke:rgb(12.940979%,11.764526%,11.764526%);stroke-opacity:1;stroke-miterlimit:4;"
       d="M 54.511719 34.988281 L 54.511719 34.503906 "
       id="path18" />
    <path
       style=" stroke:none;fill-rule:nonzero;fill:rgb(12.940979%,11.764526%,11.764526%);fill-opacity:1;"
       d="M 55.386719 37.890625 C 54.277344 37.96875 53.621094 38.859375 53.621094 39.609375 C 53.621094 40.1875 53.980469 40.390625 54.261719 40.390625 C 54.871094 40.390625 55.167969 39.78125 55.167969 39.421875 C 55.167969 38.90625 54.808594 38.75 54.558594 38.75 C 54.496094 38.75 54.449219 38.765625 54.402344 38.78125 C 54.339844 38.78125 54.292969 38.796875 54.246094 38.828125 L 54.230469 38.828125 C 54.308594 38.640625 54.746094 38.03125 55.386719 37.953125 Z M 54.417969 38.875 C 54.699219 38.875 54.855469 39.0625 54.855469 39.34375 C 54.855469 39.671875 54.652344 40.296875 54.246094 40.296875 C 53.886719 40.296875 53.886719 39.890625 53.886719 39.796875 C 53.886719 39.734375 53.933594 38.875 54.417969 38.875 Z M 54.417969 38.875 "
       id="path20" />
    <path
       style="fill:none;stroke-width:0.055;stroke-linecap:round;stroke-linejoin:round;stroke:rgb(12.940979%,11.764526%,11.764526%);stroke-opacity:1;stroke-miterlimit:4;"
       d="M 69.292969 34.988281 L 69.292969 34.503906 "
       id="path22" />
    <path
       style=" stroke:none;fill-rule:nonzero;fill:rgb(12.940979%,11.764526%,11.764526%);fill-opacity:1;"
       d="M 68.40625 39.796875 C 68.40625 39.90625 68.484375 40.390625 69.125 40.390625 C 69.609375 40.390625 69.890625 40.0625 69.890625 39.75 C 69.890625 39.46875 69.75 39.25 69.484375 38.984375 C 69.671875 38.921875 70.0625 38.796875 70.0625 38.4375 C 70.0625 38.046875 69.6875 37.9375 69.4375 37.9375 C 69.109375 37.9375 68.796875 38.109375 68.796875 38.46875 C 68.796875 38.65625 68.890625 38.828125 69.109375 39.0625 C 69.015625 39.09375 68.40625 39.28125 68.40625 39.796875 Z M 68.65625 39.8125 C 68.65625 39.34375 69.09375 39.15625 69.1875 39.125 C 69.53125 39.484375 69.625 39.578125 69.625 39.8125 C 69.625 40.15625 69.34375 40.3125 69.15625 40.3125 C 68.84375 40.3125 68.65625 40.09375 68.65625 39.8125 Z M 69.078125 38.40625 C 69.078125 38.171875 69.203125 38.015625 69.4375 38.015625 C 69.734375 38.015625 69.828125 38.265625 69.828125 38.4375 C 69.828125 38.734375 69.609375 38.828125 69.421875 38.921875 C 69.078125 38.609375 69.078125 38.5 69.078125 38.40625 Z M 69.078125 38.40625 "
       id="path24" />
    <path
       style="fill:none;stroke-width:0.055;stroke-linecap:round;stroke-linejoin:round;stroke:rgb(12.940979%,11.764526%,11.764526%);stroke-opacity:1;stroke-miterlimit:4;"
       d="M 84.082031 34.988281 L 84.082031 34.503906 "
       id="path26" />
    <path
       style=" stroke:none;fill-rule:nonzero;fill:rgb(12.940979%,11.764526%,11.764526%);fill-opacity:1;"
       d="M 82.253906 40.359375 L 83.253906 40.359375 L 83.253906 40.3125 C 83.082031 40.3125 82.957031 40.296875 82.957031 40.1875 C 82.957031 40.125 83.003906 40 83.019531 39.921875 L 83.535156 38.0625 C 83.550781 38 83.566406 37.9375 83.535156 37.9375 C 83.503906 37.9375 83.003906 38.03125 82.847656 38.0625 L 82.847656 38.125 L 83.050781 38.109375 C 83.082031 38.109375 83.175781 38.109375 83.175781 38.234375 C 83.175781 38.25 83.160156 38.3125 83.160156 38.34375 L 82.660156 40.109375 C 82.613281 40.28125 82.472656 40.28125 82.253906 40.3125 Z M 82.253906 40.359375 "
       id="path28" />
    <path
       style=" stroke:none;fill-rule:nonzero;fill:rgb(12.940979%,11.764526%,11.764526%);fill-opacity:1;"
       d="M 84.289063 39.796875 C 84.289063 39.453125 84.539063 38.03125 85.070313 38.03125 C 85.382813 38.03125 85.382813 38.390625 85.382813 38.5 C 85.382813 39.140625 85.070313 40.28125 84.601563 40.28125 C 84.476563 40.28125 84.289063 40.21875 84.289063 39.796875 Z M 85.664063 38.828125 C 85.664063 38.46875 85.570313 37.9375 85.101563 37.9375 C 84.601563 37.9375 83.992188 38.671875 83.992188 39.640625 C 83.992188 40.015625 84.195313 40.390625 84.570313 40.390625 C 85.179688 40.390625 85.664063 39.546875 85.664063 38.828125 Z M 85.664063 38.828125 "
       id="path30" />
    <path
       style="fill:none;stroke-width:0.4;stroke-linecap:round;stroke-linejoin:round;stroke:rgb(12.940979%,11.764526%,11.764526%);stroke-opacity:1;stroke-miterlimit:4;"
       d="M 10.707031 34.988281 L 85.929688 34.988281 "
       id="path32" />
    <path
       style=" stroke:none;fill-rule:nonzero;fill:rgb(12.940979%,11.764526%,11.764526%);fill-opacity:1;"
       d="M 87.347656 34.375 C 86.355469 34.074219 85.707031 33.796875 84.914063 33.476563 L 84.914063 36.503906 C 85.199219 36.371094 86.355469 35.910156 87.347656 35.609375 C 88.40625 35.289063 89.371094 35.070313 89.992188 34.992188 C 89.371094 34.914063 88.40625 34.695313 87.347656 34.375 "
       id="path34" />
    <path
       style="fill:none;stroke-width:0.055;stroke-linecap:round;stroke-linejoin:round;stroke:rgb(12.940979%,11.764526%,11.764526%);stroke-opacity:1;stroke-miterlimit:4;"
       d="M 10.15625 58.972656 L 10.640625 58.972656 "
       id="path36" />
    <path
       style=" stroke:none;fill-rule:nonzero;fill:rgb(12.940979%,11.764526%,11.764526%);fill-opacity:1;"
       d="M 5.125 59.359375 L 4.0625 59.359375 L 4 59.65625 L 5.0625 59.65625 Z M 5.125 59.359375 "
       id="path38" />
    <g
       clip-path="url(#clip1)"
       clip-rule="nonzero"
       id="g42">
      <path
         style=" stroke:none;fill-rule:nonzero;fill:rgb(12.940979%,11.764526%,11.764526%);fill-opacity:1;"
         d="M 5.597656 60.578125 L 6.941406 60.578125 L 6.941406 60.5 C 6.691406 60.515625 6.519531 60.5 6.519531 60.34375 C 6.519531 60.265625 6.582031 60.09375 6.613281 60 L 7.300781 57.515625 C 7.316406 57.4375 7.347656 57.328125 7.300781 57.328125 C 7.269531 57.328125 6.597656 57.484375 6.378906 57.515625 L 6.378906 57.59375 L 6.644531 57.578125 C 6.691406 57.578125 6.832031 57.578125 6.832031 57.734375 C 6.832031 57.765625 6.816406 57.84375 6.800781 57.890625 L 6.128906 60.25 C 6.066406 60.46875 5.878906 60.484375 5.597656 60.515625 Z M 5.597656 60.578125 "
         id="path40" />
    </g>
    <path
       style="fill:none;stroke-width:0.055;stroke-linecap:round;stroke-linejoin:round;stroke:rgb(12.940979%,11.764526%,11.764526%);stroke-opacity:1;stroke-miterlimit:4;"
       d="M 10.15625 46.980469 L 10.640625 46.980469 "
       id="path44" />
    <path
       style=" stroke:none;fill-rule:nonzero;fill:rgb(12.940979%,11.764526%,11.764526%);fill-opacity:1;"
       d="M 1.125 47.363281 L 0.0625 47.363281 L 0 47.660156 L 1.0625 47.660156 Z M 1.125 47.363281 "
       id="path46" />
    <path
       style=" stroke:none;fill-rule:nonzero;fill:rgb(12.940979%,11.764526%,11.764526%);fill-opacity:1;"
       d="M 1.894531 47.832031 C 1.894531 47.363281 2.238281 45.472656 2.957031 45.472656 C 3.363281 45.472656 3.363281 45.957031 3.363281 46.113281 C 3.363281 46.941406 2.957031 48.488281 2.316406 48.488281 C 2.160156 48.488281 1.894531 48.394531 1.894531 47.832031 Z M 3.753906 46.535156 C 3.753906 46.066406 3.613281 45.332031 2.972656 45.332031 C 2.316406 45.332031 1.519531 46.332031 1.519531 47.628906 C 1.519531 48.128906 1.785156 48.613281 2.285156 48.613281 C 3.097656 48.613281 3.753906 47.488281 3.753906 46.535156 Z M 3.753906 46.535156 "
       id="path48" />
    <path
       style=" stroke:none;fill-rule:nonzero;fill:rgb(12.940979%,11.764526%,11.764526%);fill-opacity:1;"
       d="M 4.15625 48.628906 C 4.265625 48.628906 4.421875 48.550781 4.421875 48.378906 C 4.421875 48.222656 4.296875 48.097656 4.15625 48.097656 C 4.015625 48.097656 3.890625 48.222656 3.890625 48.378906 C 3.890625 48.550781 4.0625 48.628906 4.15625 48.628906 Z M 4.15625 48.628906 "
       id="path50" />
    <path
       style=" stroke:none;fill-rule:nonzero;fill:rgb(12.940979%,11.764526%,11.764526%);fill-opacity:1;"
       d="M 6.105469 45.722656 L 7.214844 45.722656 L 7.324219 45.394531 L 6.089844 45.394531 L 5.589844 46.425781 L 5.589844 46.503906 C 6.152344 46.628906 6.636719 46.722656 6.636719 47.457031 C 6.636719 47.878906 6.292969 48.410156 5.824219 48.410156 C 5.558594 48.410156 5.449219 48.144531 5.230469 48.144531 C 5.136719 48.144531 5.042969 48.207031 5.042969 48.347656 C 5.042969 48.488281 5.183594 48.613281 5.527344 48.613281 C 6.464844 48.613281 6.980469 47.878906 6.980469 47.269531 C 6.980469 46.613281 6.542969 46.269531 5.917969 46.144531 Z M 6.105469 45.722656 "
       id="path52" />
    <path
       style="fill:none;stroke-width:0.055;stroke-linecap:round;stroke-linejoin:round;stroke:rgb(12.940979%,11.764526%,11.764526%);stroke-opacity:1;stroke-miterlimit:4;"
       d="M 10.15625 22.996094 L 10.640625 22.996094 "
       id="path54" />
    <path
       style=" stroke:none;fill-rule:nonzero;fill:rgb(12.940979%,11.764526%,11.764526%);fill-opacity:1;"
       d="M 2.121094 23.847656 C 2.121094 23.378906 2.464844 21.488281 3.183594 21.488281 C 3.589844 21.488281 3.589844 21.972656 3.589844 22.128906 C 3.589844 22.957031 3.183594 24.503906 2.542969 24.503906 C 2.386719 24.503906 2.121094 24.410156 2.121094 23.847656 Z M 3.980469 22.550781 C 3.980469 22.082031 3.839844 21.347656 3.199219 21.347656 C 2.542969 21.347656 1.746094 22.347656 1.746094 23.644531 C 1.746094 24.144531 2.011719 24.628906 2.511719 24.628906 C 3.324219 24.628906 3.980469 23.503906 3.980469 22.550781 Z M 3.980469 22.550781 "
       id="path56" />
    <path
       style=" stroke:none;fill-rule:nonzero;fill:rgb(12.940979%,11.764526%,11.764526%);fill-opacity:1;"
       d="M 4.378906 24.644531 C 4.488281 24.644531 4.644531 24.566406 4.644531 24.394531 C 4.644531 24.238281 4.519531 24.113281 4.378906 24.113281 C 4.238281 24.113281 4.113281 24.238281 4.113281 24.394531 C 4.113281 24.566406 4.285156 24.644531 4.378906 24.644531 Z M 4.378906 24.644531 "
       id="path58" />
    <path
       style=" stroke:none;fill-rule:nonzero;fill:rgb(12.940979%,11.764526%,11.764526%);fill-opacity:1;"
       d="M 6.328125 21.738281 L 7.4375 21.738281 L 7.546875 21.410156 L 6.3125 21.410156 L 5.8125 22.441406 L 5.8125 22.519531 C 6.375 22.644531 6.859375 22.738281 6.859375 23.472656 C 6.859375 23.894531 6.515625 24.425781 6.046875 24.425781 C 5.78125 24.425781 5.671875 24.160156 5.453125 24.160156 C 5.359375 24.160156 5.265625 24.222656 5.265625 24.363281 C 5.265625 24.503906 5.40625 24.628906 5.75 24.628906 C 6.6875 24.628906 7.203125 23.894531 7.203125 23.285156 C 7.203125 22.628906 6.765625 22.285156 6.140625 22.160156 Z M 6.328125 21.738281 "
       id="path60" />
    <path
       style="fill:none;stroke-width:0.055;stroke-linecap:round;stroke-linejoin:round;stroke:rgb(12.940979%,11.764526%,11.764526%);stroke-opacity:1;stroke-miterlimit:4;"
       d="M 10.15625 11.003906 L 10.640625 11.003906 "
       id="path62" />
    <path
       style=" stroke:none;fill-rule:nonzero;fill:rgb(12.940979%,11.764526%,11.764526%);fill-opacity:1;"
       d="M 5.824219 12.605469 L 7.167969 12.605469 L 7.167969 12.527344 C 6.917969 12.542969 6.746094 12.527344 6.746094 12.371094 C 6.746094 12.292969 6.808594 12.121094 6.839844 12.027344 L 7.527344 9.542969 C 7.542969 9.464844 7.574219 9.355469 7.527344 9.355469 C 7.496094 9.355469 6.824219 9.511719 6.605469 9.542969 L 6.605469 9.621094 L 6.871094 9.605469 C 6.917969 9.605469 7.058594 9.605469 7.058594 9.761719 C 7.058594 9.792969 7.042969 9.871094 7.027344 9.917969 L 6.355469 12.277344 C 6.292969 12.496094 6.105469 12.511719 5.824219 12.542969 Z M 5.824219 12.605469 "
       id="path64" />
    <path
       style="fill:none;stroke-width:0.055;stroke-linecap:round;stroke-linejoin:round;stroke:rgb(12.940979%,11.764526%,11.764526%);stroke-opacity:1;stroke-miterlimit:4;"
       d="M 10.15625 58.972656 L 10.15625 11.003906 "
       id="path66" />
    <path
       style="fill:none;stroke-width:0.073;stroke-linecap:round;stroke-linejoin:round;stroke:rgb(12.940979%,11.764526%,11.764526%);stroke-opacity:1;stroke-miterlimit:4;"
       d="M 10.15625 34.988281 L 10.246094 34.988281 L 10.328125 34.972656 L 10.425781 34.957031 L 10.515625 34.929688 L 10.675781 34.871094 L 10.851563 34.777344 L 11.042969 34.644531 L 11.25 34.46875 L 11.613281 34.074219 L 12.347656 32.972656 L 13.152344 31.378906 L 14.726563 27.6875 L 15.597656 25.820313 L 16.027344 25.074219 L 16.234375 24.773438 L 16.425781 24.539063 L 16.605469 24.347656 L 16.800781 24.195313 L 16.910156 24.128906 L 17.011719 24.082031 L 17.105469 24.050781 L 17.207031 24.035156 L 17.304688 24.03125 L 17.363281 24.035156 L 17.414063 24.046875 L 17.515625 24.074219 L 17.609375 24.113281 L 17.722656 24.175781 L 17.824219 24.257813 L 18.058594 24.492188 L 18.234375 24.730469 L 18.402344 25 L 18.78125 25.769531 L 19.550781 27.914063 L 20.984375 32.867188 L 21.378906 34.054688 L 21.59375 34.609375 L 21.800781 35.050781 L 21.988281 35.382813 L 22.085938 35.523438 L 22.195313 35.640625 L 22.28125 35.71875 L 22.382813 35.777344 L 22.472656 35.804688 L 22.554688 35.8125 L 22.652344 35.789063 L 22.703125 35.769531 L 22.757813 35.738281 L 22.847656 35.660156 L 22.945313 35.550781 L 23.132813 35.25 L 23.304688 34.878906 L 23.503906 34.324219 L 23.71875 33.589844 L 24.109375 31.925781 L 24.890625 27.714844 L 25.304688 25.363281 L 25.746094 23.113281 L 25.964844 22.21875 L 26.167969 21.539063 L 26.257813 21.304688 L 26.351563 21.105469 L 26.402344 21.015625 L 26.453125 20.9375 L 26.550781 20.835938 L 26.648438 20.792969 L 26.734375 20.804688 L 26.832031 20.878906 L 26.9375 21.027344 L 27.027344 21.214844 L 27.109375 21.445313 L 27.300781 22.15625 L 27.511719 23.277344 L 27.710938 24.648438 L 28.089844 27.988281 L 28.933594 38.34375 L 29.691406 48.570313 L 29.890625 50.957031 L 30.105469 53.21875 L 30.304688 54.96875 L 30.402344 55.691406 L 30.488281 56.265625 L 30.570313 56.703125 L 30.660156 57.09375 L 30.75 57.386719 L 30.847656 57.578125 L 30.929688 57.648438 L 31.015625 57.625 L 31.097656 57.503906 L 31.175781 57.308594 L 31.265625 56.972656 L 31.347656 56.554688 L 31.539063 55.230469 L 31.726563 53.464844 L 31.925781 51.074219 L 32.675781 38.449219 L 33.46875 23.054688 L 33.882813 16.582031 L 33.996094 15.183594 L 34.117188 13.90625 L 34.222656 12.992188 L 34.277344 12.589844 L 34.339844 12.21875 L 34.398438 11.917969 L 34.449219 11.699219 L 34.503906 11.535156 L 34.554688 11.425781 L 34.652344 11.363281 L 34.707031 11.40625 L 34.757813 11.496094 L 34.847656 11.785156 L 34.945313 12.273438 L 35.050781 12.976563 L 35.140625 13.804688 L 35.335938 15.976563 L 35.542969 19.007813 L 35.925781 25.925781 L 36.640625 40.761719 L 37.042969 47.996094 L 37.25 50.8125 L 37.363281 52.113281 L 37.472656 53.074219 L 37.566406 53.730469 L 37.664063 54.222656 L 37.761719 54.523438 L 37.820313 54.601563 L 37.871094 54.617188 L 37.964844 54.503906 L 38.050781 54.238281 L 38.152344 53.753906 L 38.242188 53.117188 L 39.667969 31.390625 L 39.867188 28.375 L 40.054688 25.964844 L 40.164063 24.863281 L 40.277344 23.859375 L 40.378906 23.136719 L 40.476563 22.636719 L 40.574219 22.296875 L 40.667969 22.132813 L 40.75 22.117188 L 40.84375 22.238281 L 40.941406 22.519531 L 40.988281 22.71875 L 41.042969 22.984375 L 41.230469 24.199219 L 41.433594 25.976563 L 41.617188 27.890625 L 42.03125 32.613281 "
       id="path68" />
    <path
       style="fill:none;stroke-width:0.073;stroke-linecap:round;stroke-linejoin:round;stroke:rgb(12.940979%,11.764526%,11.764526%);stroke-opacity:1;stroke-miterlimit:4;"
       d="M 42.03125 32.613281 L 42.21875 34.660156 L 42.417969 36.59375 L 42.601563 38.066406 L 42.773438 39.117188 L 42.867188 39.53125 L 42.96875 39.867188 L 43.023438 40.007813 L 43.074219 40.101563 L 43.179688 40.195313 L 43.230469 40.199219 L 43.285156 40.167969 L 43.386719 40.039063 L 43.449219 39.910156 L 43.507813 39.761719 L 43.613281 39.417969 L 43.992188 37.769531 L 44.195313 36.824219 L 44.40625 35.925781 L 44.515625 35.574219 L 44.613281 35.304688 L 44.703125 35.128906 L 44.800781 35.007813 L 44.890625 34.960938 L 44.988281 34.988281 L 45.074219 35.074219 L 45.167969 35.230469 L 45.269531 35.480469 L 45.363281 35.765625 L 45.578125 36.5625 L 45.78125 37.398438 L 45.96875 38.132813 L 46.128906 38.636719 L 46.21875 38.84375 L 46.300781 38.964844 L 46.390625 39.023438 L 46.488281 38.988281 L 46.582031 38.847656 L 46.664063 38.621094 L 46.753906 38.296875 L 46.835938 37.894531 L 47.023438 36.671875 L 47.203125 35.09375 L 47.402344 33.078125 L 47.78125 28.816406 L 47.988281 26.726563 L 48.09375 25.871094 L 48.183594 25.222656 L 48.238281 24.917969 L 48.300781 24.644531 L 48.359375 24.441406 L 48.417969 24.300781 L 48.472656 24.253906 L 48.527344 24.265625 L 48.632813 24.484375 L 48.683594 24.699219 L 48.742188 25.007813 L 48.847656 25.777344 L 48.949219 26.78125 L 49.042969 27.921875 L 49.429688 34.355469 L 49.847656 42.726563 L 50.039063 46.222656 L 50.144531 47.859375 L 50.242188 49.148438 L 50.332031 50.113281 L 50.414063 50.773438 L 50.507813 51.246094 L 50.601563 51.429688 L 50.695313 51.28125 L 50.789063 50.789063 L 50.871094 50.089844 L 50.960938 49.035156 L 51.058594 47.578125 L 51.160156 45.667969 L 51.347656 41.429688 L 52.054688 22.242188 L 52.164063 19.808594 L 52.277344 17.632813 L 52.375 16.171875 L 52.429688 15.523438 L 52.484375 15.039063 L 52.585938 14.476563 L 52.679688 14.414063 L 52.726563 14.558594 L 52.78125 14.859375 L 52.835938 15.328125 L 52.890625 15.90625 L 52.988281 17.378906 L 53.082031 19.1875 L 53.261719 23.566406 L 53.652344 36.472656 L 53.84375 42.984375 L 54.042969 49.332031 L 54.140625 51.953125 L 54.234375 54.082031 L 54.316406 55.664063 L 54.40625 56.9375 L 54.5 57.78125 L 54.589844 58.089844 L 54.640625 58.050781 L 54.691406 57.847656 L 54.785156 57.050781 L 54.835938 56.398438 L 54.890625 55.542969 L 54.988281 53.601563 L 55.207031 47.53125 L 55.589844 33.199219 L 55.777344 25.910156 L 55.953125 19.898438 L 56.113281 15.523438 L 56.191406 13.816406 L 56.28125 12.375 L 56.367188 11.4375 L 56.464844 11.015625 L 56.554688 11.191406 L 56.636719 11.84375 L 56.726563 13.054688 L 56.808594 14.640625 L 56.992188 19.6875 L 57.371094 33.953125 L 57.585938 42.574219 L 57.785156 49.765625 L 57.875 52.375 L 57.96875 54.683594 L 58.066406 56.613281 L 58.160156 57.773438 L 58.242188 58.28125 L 58.332031 58.285156 L 58.410156 57.777344 L 58.488281 56.886719 L 58.578125 55.351563 L 58.675781 53.117188 L 58.847656 47.777344 L 59.203125 34.109375 L 59.386719 26.855469 L 59.585938 20.328125 L 59.6875 17.632813 L 59.742188 16.457031 L 59.800781 15.40625 L 59.902344 14.117188 L 60 13.578125 L 60.050781 13.5625 L 60.101563 13.746094 L 60.203125 14.617188 L 60.300781 16.101563 L 60.386719 17.984375 L 60.554688 22.65625 L 60.738281 29.007813 L 61.113281 42.585938 "
       id="path70" />
    <path
       style="fill:none;stroke-width:0.073;stroke-linecap:round;stroke-linejoin:round;stroke:rgb(12.940979%,11.764526%,11.764526%);stroke-opacity:1;stroke-miterlimit:4;"
       d="M 61.113281 42.585938 L 61.222656 45.957031 L 61.324219 48.691406 L 61.417969 50.671875 L 61.519531 52.253906 L 61.574219 52.867188 L 61.628906 53.230469 L 61.691406 53.429688 L 61.746094 53.398438 L 61.847656 52.824219 L 61.902344 52.21875 L 61.957031 51.488281 L 62.050781 49.785156 L 62.136719 47.796875 L 62.339844 42.195313 L 62.550781 35.519531 L 62.742188 29.5625 L 62.933594 24.804688 L 63.027344 22.972656 L 63.082031 22.121094 L 63.132813 21.480469 L 63.183594 20.972656 L 63.238281 20.59375 L 63.292969 20.382813 L 63.351563 20.339844 L 63.402344 20.464844 L 63.457031 20.753906 L 63.554688 21.671875 L 63.652344 23.0625 L 63.761719 25.023438 L 63.957031 29.4375 L 64.132813 33.789063 L 64.320313 38.363281 L 64.410156 40.261719 L 64.511719 42.023438 L 64.59375 43.269531 L 64.683594 44.304688 L 64.738281 44.742188 L 64.789063 45.035156 L 64.886719 45.289063 L 64.976563 45.164063 L 65.070313 44.671875 L 65.160156 43.902344 L 65.257813 42.785156 L 65.433594 40.195313 L 65.761719 34.71875 L 65.945313 32.097656 L 66.050781 30.953125 L 66.144531 30.164063 L 66.234375 29.65625 L 66.328125 29.363281 L 66.417969 29.324219 L 66.5 29.480469 L 66.597656 29.863281 L 66.6875 30.390625 L 66.894531 31.992188 L 67.097656 33.726563 L 67.207031 34.582031 L 67.3125 35.253906 L 67.40625 35.734375 L 67.507813 36.089844 L 67.566406 36.214844 L 67.621094 36.285156 L 67.722656 36.289063 L 67.816406 36.171875 L 67.902344 35.972656 L 68.097656 35.363281 L 68.195313 35.054688 L 68.292969 34.773438 L 68.351563 34.652344 L 68.40625 34.570313 L 68.460938 34.523438 L 68.511719 34.515625 L 68.566406 34.546875 L 68.617188 34.621094 L 68.71875 34.875 L 68.78125 35.105469 L 68.839844 35.363281 L 68.945313 35.953125 L 69.136719 37.1875 L 69.242188 37.878906 L 69.339844 38.464844 L 69.433594 38.90625 L 69.53125 39.214844 L 69.625 39.3125 L 69.707031 39.222656 L 69.796875 38.921875 L 69.894531 38.339844 L 69.996094 37.464844 L 70.089844 36.410156 L 70.511719 30.351563 L 70.597656 29.128906 L 70.695313 27.96875 L 70.785156 27.117188 L 70.871094 26.585938 L 70.957031 26.34375 L 71.03125 26.390625 L 71.117188 26.785156 L 71.199219 27.484375 L 71.292969 28.605469 L 71.386719 30.167969 L 71.558594 33.738281 L 71.757813 38.539063 L 71.945313 42.910156 L 72.035156 44.65625 L 72.132813 46.140625 L 72.179688 46.734375 L 72.234375 47.226563 L 72.332031 47.644531 L 72.417969 47.496094 L 72.511719 46.753906 L 72.601563 45.511719 L 72.679688 43.945313 L 72.863281 39.113281 L 73.277344 25.769531 L 73.367188 23.246094 L 73.46875 21.050781 L 73.566406 19.601563 L 73.652344 18.910156 L 73.738281 18.871094 L 73.824219 19.519531 L 73.917969 20.949219 L 74.007813 22.945313 L 74.101563 25.785156 L 74.207031 29.445313 L 74.539063 42.964844 L 74.625 46.242188 L 74.722656 49.3125 L 74.808594 51.605469 L 74.890625 53.097656 L 74.941406 53.679688 L 74.996094 54.023438 L 75.054688 54.046875 L 75.105469 53.746094 L 75.199219 52.480469 L 75.300781 50.121094 L 75.402344 46.785156 L 75.5 42.914063 L 75.878906 25.042969 L 75.988281 20.5625 L 76.089844 17.191406 L 76.140625 15.839844 L 76.199219 14.730469 L 76.265625 13.941406 L 76.320313 13.648438 L 76.371094 13.738281 L 76.425781 14.195313 L 76.484375 15.066406 L 76.535156 16.222656 "
       id="path72" />
    <path
       style="fill:none;stroke-width:0.073;stroke-linecap:round;stroke-linejoin:round;stroke:rgb(12.940979%,11.764526%,11.764526%);stroke-opacity:1;stroke-miterlimit:4;"
       d="M 76.535156 16.222656 L 76.902344 31.425781 L 77.097656 42.136719 L 77.285156 50.894531 L 77.382813 54.324219 L 77.4375 55.785156 L 77.488281 56.804688 L 77.539063 57.546875 L 77.597656 57.894531 L 77.65625 57.773438 L 77.707031 57.273438 L 77.796875 55.542969 L 77.898438 52.441406 L 78 48.054688 L 78.097656 43.105469 L 78.285156 32.128906 L 78.488281 21.148438 L 78.597656 16.585938 L 78.652344 14.664063 L 78.710938 13.046875 L 78.765625 11.992188 L 78.816406 11.410156 L 78.914063 11.363281 L 79.015625 12.773438 L 79.105469 15.308594 L 79.207031 19.304688 L 79.3125 24.644531 L 79.6875 46.589844 L 79.78125 51.285156 L 79.871094 54.871094 L 79.953125 57.199219 L 80.042969 58.65625 L 80.125 58.921875 L 80.214844 58.003906 L 80.300781 56.042969 L 80.375 53.421875 L 80.5625 44.238281 L 80.761719 32.035156 L 80.941406 21.9375 L 81.035156 17.441406 L 81.132813 14.21875 L 81.21875 12.253906 L 81.316406 11.492188 L 81.402344 12.082031 L 81.484375 13.6875 L 81.558594 16.058594 L 81.644531 19.527344 L 81.816406 28.5625 L 82.007813 39.980469 L 82.109375 45.804688 L 82.207031 50.464844 L 82.289063 53.644531 L 82.378906 56.03125 L 82.476563 57.316406 L 82.566406 57.171875 L 82.65625 55.71875 L 82.757813 52.746094 L 82.851563 48.808594 L 82.941406 44.429688 L 83.238281 27.773438 L 83.347656 22.3125 L 83.441406 18.472656 L 83.53125 15.957031 L 83.617188 14.519531 L 83.703125 14.230469 L 83.796875 15.148438 L 83.882813 17.113281 L 83.976563 20.355469 L 84.082031 24.796875 "
       id="path74" />
    <path
       style=" stroke:none;fill-rule:nonzero;fill:rgb(12.940979%,11.764526%,11.764526%);fill-opacity:1;"
       d="M 6.109375 5.359375 C 5.84375 5.640625 5.65625 6 5.453125 6 C 5.265625 6 5.1875 5.765625 5.15625 5.609375 C 5.09375 5.359375 4.765625 4.0625 4.765625 3.890625 C 4.765625 3.890625 5.421875 2.734375 5.703125 2.734375 C 5.921875 2.734375 5.984375 2.890625 6.21875 2.890625 C 6.4375 2.890625 6.53125 2.703125 6.53125 2.53125 C 6.53125 2.3125 6.328125 2.1875 6.140625 2.1875 C 5.640625 2.1875 5.1875 2.78125 4.703125 3.5625 L 4.59375 3.03125 C 4.421875 2.1875 4.28125 2.1875 4.0625 2.1875 C 3.75 2.1875 3.125 2.421875 2.859375 2.5 L 2.90625 2.65625 C 3.203125 2.578125 3.34375 2.546875 3.4375 2.546875 C 3.6875 2.546875 3.734375 2.6875 3.8125 2.984375 C 3.828125 3.03125 4.15625 4.296875 4.15625 4.390625 C 3.28125 5.640625 3.03125 5.96875 2.875 5.96875 C 2.703125 5.96875 2.53125 5.78125 2.3125 5.78125 C 2.109375 5.78125 1.984375 5.96875 1.984375 6.109375 C 1.984375 6.34375 2.140625 6.53125 2.46875 6.53125 C 2.765625 6.53125 2.875 6.421875 3.03125 6.234375 C 3.359375 5.890625 3.765625 5.359375 4.21875 4.734375 L 4.515625 5.890625 C 4.640625 6.390625 4.78125 6.53125 5.0625 6.53125 C 5.28125 6.53125 5.5625 6.53125 6.234375 5.4375 Z M 6.109375 5.359375 "
       id="path76" />
    <path
       style=" stroke:none;fill-rule:nonzero;fill:rgb(12.940979%,11.764526%,11.764526%);fill-opacity:1;"
       d="M 6.792969 8.023438 L 8.339844 8.023438 L 8.339844 7.945313 C 8.074219 7.945313 7.871094 7.929688 7.871094 7.757813 C 7.871094 7.664063 7.933594 7.460938 7.964844 7.351563 L 8.761719 4.445313 C 8.792969 4.351563 8.824219 4.242188 8.777344 4.242188 C 8.730469 4.242188 7.949219 4.414063 7.699219 4.460938 L 7.699219 4.539063 L 8.011719 4.523438 C 8.058594 4.523438 8.230469 4.523438 8.230469 4.710938 C 8.230469 4.757813 8.199219 4.835938 8.183594 4.898438 L 7.417969 7.648438 C 7.339844 7.898438 7.121094 7.914063 6.792969 7.945313 Z M 6.792969 8.023438 "
       id="path78" />
    <path
       style=" stroke:none;fill-rule:nonzero;fill:rgb(12.940979%,11.764526%,11.764526%);fill-opacity:1;"
       d="M 10.84375 8.09375 C 10.375 6.921875 10.375 6.078125 10.375 5.4375 C 10.375 4.828125 10.546875 3.53125 10.921875 2.453125 C 11.390625 1.140625 11.875 0.625 12.328125 0.140625 L 12.203125 0 C 10.46875 1.484375 9.71875 2.984375 9.71875 4.5625 C 9.71875 5.1875 9.71875 6.578125 10.671875 8.15625 Z M 10.84375 8.09375 "
       id="path80" />
    <path
       style=" stroke:none;fill-rule:nonzero;fill:rgb(12.940979%,11.764526%,11.764526%);fill-opacity:1;"
       d="M 15.351563 2.3125 L 14.585938 2.3125 L 14.851563 1.328125 C 14.867188 1.25 14.851563 1.171875 14.789063 1.1875 C 14.695313 1.171875 14.664063 1.25 14.617188 1.296875 C 14.351563 1.640625 13.882813 2.0625 13.570313 2.234375 C 13.414063 2.3125 13.148438 2.390625 13.085938 2.46875 C 13.054688 2.515625 13.054688 2.5625 13.070313 2.625 L 13.773438 2.625 L 13.085938 5.265625 C 13.039063 5.421875 12.867188 6 12.867188 6.140625 C 12.867188 6.4375 13.132813 6.53125 13.320313 6.53125 C 13.820313 6.53125 14.195313 6.109375 14.679688 5.359375 L 14.554688 5.296875 C 14.320313 5.609375 13.992188 6.0625 13.789063 6.0625 C 13.695313 6.0625 13.632813 5.984375 13.632813 5.890625 C 13.632813 5.859375 13.632813 5.84375 13.648438 5.8125 L 14.492188 2.625 L 15.304688 2.625 Z M 15.351563 2.3125 "
       id="path82" />
    <path
       style=" stroke:none;fill-rule:nonzero;fill:rgb(12.940979%,11.764526%,11.764526%);fill-opacity:1;"
       d="M 15.457031 8.15625 C 16.878906 7 17.941406 5.421875 17.941406 3.59375 C 17.941406 2.359375 17.691406 1.125 17.003906 0 L 16.816406 0.046875 C 17.066406 0.578125 17.285156 1.53125 17.285156 2.5625 C 17.285156 3.40625 17.128906 4.546875 16.738281 5.71875 C 16.300781 6.984375 15.753906 7.5625 15.332031 8 Z M 15.457031 8.15625 "
       id="path84" />
    <g
       clip-path="url(#clip2)"
       clip-rule="nonzero"
       id="g88">
      <path
         style=" stroke:none;fill-rule:nonzero;fill:rgb(12.940979%,11.764526%,11.764526%);fill-opacity:1;"
         d="M 94.085938 32.914063 L 93.320313 32.914063 L 93.585938 31.929688 C 93.601563 31.851563 93.585938 31.773438 93.523438 31.789063 C 93.429688 31.773438 93.398438 31.851563 93.351563 31.898438 C 93.085938 32.242188 92.617188 32.664063 92.304688 32.835938 C 92.148438 32.914063 91.882813 32.992188 91.820313 33.070313 C 91.789063 33.117188 91.789063 33.164063 91.804688 33.226563 L 92.507813 33.226563 L 91.820313 35.867188 C 91.773438 36.023438 91.601563 36.601563 91.601563 36.742188 C 91.601563 37.039063 91.867188 37.132813 92.054688 37.132813 C 92.554688 37.132813 92.929688 36.710938 93.414063 35.960938 L 93.289063 35.898438 C 93.054688 36.210938 92.726563 36.664063 92.523438 36.664063 C 92.429688 36.664063 92.367188 36.585938 92.367188 36.492188 C 92.367188 36.460938 92.367188 36.445313 92.382813 36.414063 L 93.226563 33.226563 L 94.039063 33.226563 Z M 94.085938 32.914063 "
         id="path86" />
    </g>
  </g>
</svg>
