<?xml version="1.0" encoding="UTF-8" standalone="no"?>
<svg
   xmlns:dc="http://purl.org/dc/elements/1.1/"
   xmlns:cc="http://creativecommons.org/ns#"
   xmlns:rdf="http://www.w3.org/1999/02/22-rdf-syntax-ns#"
   xmlns:svg="http://www.w3.org/2000/svg"
   xmlns="http://www.w3.org/2000/svg"
   xmlns:sodipodi="http://sodipodi.sourceforge.net/DTD/sodipodi-0.dtd"
   xmlns:inkscape="http://www.inkscape.org/namespaces/inkscape"
   width="96.228912pt"
   height="60.458099pt"
   viewBox="0 0 96.228912 60.458099"
   version="1.2"
   id="svg127"
   sodipodi:docname="ica_sensed_signal_03.svg"
   inkscape:version="0.92.4 (5da689c313, 2019-01-14)">
  <metadata
     id="metadata131">
    <rdf:RDF>
      <cc:Work
         rdf:about="">
        <dc:format>image/svg+xml</dc:format>
        <dc:type
           rdf:resource="http://purl.org/dc/dcmitype/StillImage" />
        <dc:title></dc:title>
      </cc:Work>
    </rdf:RDF>
  </metadata>
  <sodipodi:namedview
     pagecolor="#ffffff"
     bordercolor="#666666"
     borderopacity="1"
     objecttolerance="10"
     gridtolerance="10"
     guidetolerance="10"
     inkscape:pageopacity="0"
     inkscape:pageshadow="2"
     inkscape:window-width="640"
     inkscape:window-height="480"
     id="namedview129"
     showgrid="false"
     inkscape:zoom="2.6811069"
     inkscape:cx="64.152608"
     inkscape:cy="40.3054"
     inkscape:window-x="0"
     inkscape:window-y="0"
     inkscape:window-maximized="0"
     inkscape:current-layer="svg127" />
  <defs
     id="defs8">
    <clipPath
       id="clip1">
      <path
         d="M 6 57 L 9 57 L 9 60.457031 L 6 60.457031 Z M 6 57 "
         id="path2" />
    </clipPath>
    <clipPath
       id="clip2">
      <path
         d="M 93 32 L 96.230469 32 L 96.230469 38 L 93 38 Z M 93 32 "
         id="path5" />
    </clipPath>
  </defs>
  <g
     id="surface36">
    <path
       style="fill:none;stroke-width:0.055;stroke-linecap:round;stroke-linejoin:round;stroke:rgb(12.940979%,11.764526%,11.764526%);stroke-opacity:1;stroke-miterlimit:4;"
       d="M 26.308594 34.871094 L 26.308594 34.386719 "
       id="path10" />
    <path
       style=" stroke:none;fill-rule:nonzero;fill:rgb(12.940979%,11.764526%,11.764526%);fill-opacity:1;"
       d="M 26.742188 39.746094 C 26.679688 39.871094 26.617188 39.980469 26.382813 39.980469 L 25.710938 39.980469 L 25.710938 39.949219 L 26.398438 39.261719 C 26.835938 38.824219 26.929688 38.652344 26.929688 38.417969 C 26.929688 38.152344 26.726563 37.824219 26.351563 37.824219 C 26.257813 37.824219 25.789063 37.824219 25.585938 38.386719 L 25.664063 38.417969 C 25.710938 38.324219 25.851563 38.074219 26.179688 38.074219 C 26.460938 38.074219 26.617188 38.292969 26.617188 38.511719 C 26.617188 38.636719 26.601563 38.839844 26.101563 39.386719 L 25.351563 40.183594 L 25.351563 40.246094 L 26.617188 40.246094 L 26.804688 39.777344 Z M 26.742188 39.746094 "
       id="path12" />
    <path
       style="fill:none;stroke-width:0.055;stroke-linecap:round;stroke-linejoin:round;stroke:rgb(12.940979%,11.764526%,11.764526%);stroke-opacity:1;stroke-miterlimit:4;"
       d="M 41.089844 34.871094 L 41.089844 34.386719 "
       id="path14" />
    <path
       style=" stroke:none;fill-rule:nonzero;fill:rgb(12.940979%,11.764526%,11.764526%);fill-opacity:1;"
       d="M 41.089844 39.386719 L 40.324219 39.386719 L 40.324219 39.371094 L 41.417969 38.230469 L 41.433594 38.230469 Z M 41.714844 39.386719 L 41.371094 39.386719 L 41.808594 37.824219 L 41.667969 37.824219 L 40.167969 39.371094 L 40.089844 39.605469 L 41.027344 39.605469 L 40.855469 40.246094 L 41.136719 40.246094 L 41.308594 39.621094 L 41.667969 39.621094 Z M 41.714844 39.386719 "
       id="path16" />
    <path
       style="fill:none;stroke-width:0.055;stroke-linecap:round;stroke-linejoin:round;stroke:rgb(12.940979%,11.764526%,11.764526%);stroke-opacity:1;stroke-miterlimit:4;"
       d="M 55.875 34.871094 L 55.875 34.386719 "
       id="path18" />
    <path
       style=" stroke:none;fill-rule:nonzero;fill:rgb(12.940979%,11.764526%,11.764526%);fill-opacity:1;"
       d="M 56.75 37.777344 C 55.640625 37.855469 54.984375 38.746094 54.984375 39.496094 C 54.984375 40.074219 55.34375 40.277344 55.625 40.277344 C 56.234375 40.277344 56.53125 39.667969 56.53125 39.308594 C 56.53125 38.792969 56.171875 38.636719 55.921875 38.636719 C 55.859375 38.636719 55.8125 38.652344 55.765625 38.667969 C 55.703125 38.667969 55.65625 38.683594 55.609375 38.714844 L 55.59375 38.714844 C 55.671875 38.527344 56.109375 37.917969 56.75 37.839844 Z M 55.78125 38.761719 C 56.0625 38.761719 56.21875 38.949219 56.21875 39.230469 C 56.21875 39.558594 56.015625 40.183594 55.609375 40.183594 C 55.25 40.183594 55.25 39.777344 55.25 39.683594 C 55.25 39.621094 55.296875 38.761719 55.78125 38.761719 Z M 55.78125 38.761719 "
       id="path20" />
    <path
       style="fill:none;stroke-width:0.055;stroke-linecap:round;stroke-linejoin:round;stroke:rgb(12.940979%,11.764526%,11.764526%);stroke-opacity:1;stroke-miterlimit:4;"
       d="M 70.660156 34.871094 L 70.660156 34.386719 "
       id="path22" />
    <path
       style=" stroke:none;fill-rule:nonzero;fill:rgb(12.940979%,11.764526%,11.764526%);fill-opacity:1;"
       d="M 69.769531 39.683594 C 69.769531 39.792969 69.847656 40.277344 70.488281 40.277344 C 70.972656 40.277344 71.253906 39.949219 71.253906 39.636719 C 71.253906 39.355469 71.113281 39.136719 70.847656 38.871094 C 71.035156 38.808594 71.425781 38.683594 71.425781 38.324219 C 71.425781 37.933594 71.050781 37.824219 70.800781 37.824219 C 70.472656 37.824219 70.160156 37.996094 70.160156 38.355469 C 70.160156 38.542969 70.253906 38.714844 70.472656 38.949219 C 70.378906 38.980469 69.769531 39.167969 69.769531 39.683594 Z M 70.019531 39.699219 C 70.019531 39.230469 70.457031 39.042969 70.550781 39.011719 C 70.894531 39.371094 70.988281 39.464844 70.988281 39.699219 C 70.988281 40.042969 70.707031 40.199219 70.519531 40.199219 C 70.207031 40.199219 70.019531 39.980469 70.019531 39.699219 Z M 70.441406 38.292969 C 70.441406 38.058594 70.566406 37.902344 70.800781 37.902344 C 71.097656 37.902344 71.191406 38.152344 71.191406 38.324219 C 71.191406 38.621094 70.972656 38.714844 70.785156 38.808594 C 70.441406 38.496094 70.441406 38.386719 70.441406 38.292969 Z M 70.441406 38.292969 "
       id="path24" />
    <path
       style="fill:none;stroke-width:0.055;stroke-linecap:round;stroke-linejoin:round;stroke:rgb(12.940979%,11.764526%,11.764526%);stroke-opacity:1;stroke-miterlimit:4;"
       d="M 85.445313 34.871094 L 85.445313 34.386719 "
       id="path26" />
    <path
       style=" stroke:none;fill-rule:nonzero;fill:rgb(12.940979%,11.764526%,11.764526%);fill-opacity:1;"
       d="M 83.613281 40.246094 L 84.613281 40.246094 L 84.613281 40.199219 C 84.441406 40.199219 84.316406 40.183594 84.316406 40.074219 C 84.316406 40.011719 84.363281 39.886719 84.378906 39.808594 L 84.894531 37.949219 C 84.910156 37.886719 84.925781 37.824219 84.894531 37.824219 C 84.863281 37.824219 84.363281 37.917969 84.207031 37.949219 L 84.207031 38.011719 L 84.410156 37.996094 C 84.441406 37.996094 84.535156 37.996094 84.535156 38.121094 C 84.535156 38.136719 84.519531 38.199219 84.519531 38.230469 L 84.019531 39.996094 C 83.972656 40.167969 83.832031 40.167969 83.613281 40.199219 Z M 83.613281 40.246094 "
       id="path28" />
    <path
       style=" stroke:none;fill-rule:nonzero;fill:rgb(12.940979%,11.764526%,11.764526%);fill-opacity:1;"
       d="M 85.648438 39.683594 C 85.648438 39.339844 85.898438 37.917969 86.429688 37.917969 C 86.742188 37.917969 86.742188 38.277344 86.742188 38.386719 C 86.742188 39.027344 86.429688 40.167969 85.960938 40.167969 C 85.835938 40.167969 85.648438 40.105469 85.648438 39.683594 Z M 87.023438 38.714844 C 87.023438 38.355469 86.929688 37.824219 86.460938 37.824219 C 85.960938 37.824219 85.351563 38.558594 85.351563 39.527344 C 85.351563 39.902344 85.554688 40.277344 85.929688 40.277344 C 86.539063 40.277344 87.023438 39.433594 87.023438 38.714844 Z M 87.023438 38.714844 "
       id="path30" />
    <path
       style="fill:none;stroke-width:0.4;stroke-linecap:round;stroke-linejoin:round;stroke:rgb(12.940979%,11.764526%,11.764526%);stroke-opacity:1;stroke-miterlimit:4;"
       d="M 12.074219 34.871094 L 87.292969 34.871094 "
       id="path32" />
    <path
       style=" stroke:none;fill-rule:nonzero;fill:rgb(12.940979%,11.764526%,11.764526%);fill-opacity:1;"
       d="M 88.707031 34.257813 C 87.71875 33.957031 87.070313 33.679688 86.277344 33.363281 L 86.277344 36.390625 C 86.5625 36.253906 87.71875 35.792969 88.707031 35.496094 C 89.769531 35.171875 90.734375 34.953125 91.359375 34.875 C 90.734375 34.796875 89.769531 34.578125 88.707031 34.257813 "
       id="path34" />
    <path
       style="fill:none;stroke-width:0.055;stroke-linecap:round;stroke-linejoin:round;stroke:rgb(12.940979%,11.764526%,11.764526%);stroke-opacity:1;stroke-miterlimit:4;"
       d="M 11.519531 58.855469 L 12.007813 58.855469 "
       id="path36" />
    <path
       style=" stroke:none;fill-rule:nonzero;fill:rgb(12.940979%,11.764526%,11.764526%);fill-opacity:1;"
       d="M 6.484375 59.238281 L 5.421875 59.238281 L 5.359375 59.535156 L 6.421875 59.535156 Z M 6.484375 59.238281 "
       id="path38" />
    <g
       clip-path="url(#clip1)"
       clip-rule="nonzero"
       id="g42">
      <path
         style=" stroke:none;fill-rule:nonzero;fill:rgb(12.940979%,11.764526%,11.764526%);fill-opacity:1;"
         d="M 6.957031 60.457031 L 8.300781 60.457031 L 8.300781 60.378906 C 8.050781 60.394531 7.878906 60.378906 7.878906 60.222656 C 7.878906 60.144531 7.941406 59.972656 7.972656 59.878906 L 8.660156 57.394531 C 8.675781 57.316406 8.707031 57.207031 8.660156 57.207031 C 8.628906 57.207031 7.957031 57.363281 7.738281 57.394531 L 7.738281 57.472656 L 8.003906 57.457031 C 8.050781 57.457031 8.191406 57.457031 8.191406 57.613281 C 8.191406 57.644531 8.175781 57.722656 8.160156 57.769531 L 7.488281 60.128906 C 7.425781 60.347656 7.238281 60.363281 6.957031 60.394531 Z M 6.957031 60.457031 "
         id="path40" />
    </g>
    <path
       style="fill:none;stroke-width:0.055;stroke-linecap:round;stroke-linejoin:round;stroke:rgb(12.940979%,11.764526%,11.764526%);stroke-opacity:1;stroke-miterlimit:4;"
       d="M 11.519531 46.867188 L 12.007813 46.867188 "
       id="path44" />
    <path
       style=" stroke:none;fill-rule:nonzero;fill:rgb(12.940979%,11.764526%,11.764526%);fill-opacity:1;"
       d="M 2.484375 47.25 L 1.421875 47.25 L 1.359375 47.546875 L 2.421875 47.546875 Z M 2.484375 47.25 "
       id="path46" />
    <path
       style=" stroke:none;fill-rule:nonzero;fill:rgb(12.940979%,11.764526%,11.764526%);fill-opacity:1;"
       d="M 3.253906 47.71875 C 3.253906 47.25 3.597656 45.359375 4.316406 45.359375 C 4.722656 45.359375 4.722656 45.84375 4.722656 46 C 4.722656 46.828125 4.316406 48.375 3.675781 48.375 C 3.519531 48.375 3.253906 48.28125 3.253906 47.71875 Z M 5.113281 46.421875 C 5.113281 45.953125 4.972656 45.21875 4.332031 45.21875 C 3.675781 45.21875 2.878906 46.21875 2.878906 47.515625 C 2.878906 48.015625 3.144531 48.5 3.644531 48.5 C 4.457031 48.5 5.113281 47.375 5.113281 46.421875 Z M 5.113281 46.421875 "
       id="path48" />
    <path
       style=" stroke:none;fill-rule:nonzero;fill:rgb(12.940979%,11.764526%,11.764526%);fill-opacity:1;"
       d="M 5.515625 48.515625 C 5.625 48.515625 5.78125 48.4375 5.78125 48.265625 C 5.78125 48.109375 5.65625 47.984375 5.515625 47.984375 C 5.375 47.984375 5.25 48.109375 5.25 48.265625 C 5.25 48.4375 5.421875 48.515625 5.515625 48.515625 Z M 5.515625 48.515625 "
       id="path50" />
    <path
       style=" stroke:none;fill-rule:nonzero;fill:rgb(12.940979%,11.764526%,11.764526%);fill-opacity:1;"
       d="M 7.464844 45.609375 L 8.574219 45.609375 L 8.683594 45.28125 L 7.449219 45.28125 L 6.949219 46.3125 L 6.949219 46.390625 C 7.511719 46.515625 7.996094 46.609375 7.996094 47.34375 C 7.996094 47.765625 7.652344 48.296875 7.183594 48.296875 C 6.917969 48.296875 6.808594 48.03125 6.589844 48.03125 C 6.496094 48.03125 6.402344 48.09375 6.402344 48.234375 C 6.402344 48.375 6.542969 48.5 6.886719 48.5 C 7.824219 48.5 8.339844 47.765625 8.339844 47.15625 C 8.339844 46.5 7.902344 46.15625 7.277344 46.03125 Z M 7.464844 45.609375 "
       id="path52" />
    <path
       style="fill:none;stroke-width:0.055;stroke-linecap:round;stroke-linejoin:round;stroke:rgb(12.940979%,11.764526%,11.764526%);stroke-opacity:1;stroke-miterlimit:4;"
       d="M 11.519531 22.878906 L 12.007813 22.878906 "
       id="path54" />
    <path
       style=" stroke:none;fill-rule:nonzero;fill:rgb(12.940979%,11.764526%,11.764526%);fill-opacity:1;"
       d="M 3.480469 23.730469 C 3.480469 23.261719 3.824219 21.371094 4.542969 21.371094 C 4.949219 21.371094 4.949219 21.855469 4.949219 22.011719 C 4.949219 22.839844 4.542969 24.386719 3.902344 24.386719 C 3.746094 24.386719 3.480469 24.292969 3.480469 23.730469 Z M 5.339844 22.433594 C 5.339844 21.964844 5.199219 21.230469 4.558594 21.230469 C 3.902344 21.230469 3.105469 22.230469 3.105469 23.527344 C 3.105469 24.027344 3.371094 24.511719 3.871094 24.511719 C 4.683594 24.511719 5.339844 23.386719 5.339844 22.433594 Z M 5.339844 22.433594 "
       id="path56" />
    <path
       style=" stroke:none;fill-rule:nonzero;fill:rgb(12.940979%,11.764526%,11.764526%);fill-opacity:1;"
       d="M 5.738281 24.527344 C 5.847656 24.527344 6.003906 24.449219 6.003906 24.277344 C 6.003906 24.121094 5.878906 23.996094 5.738281 23.996094 C 5.597656 23.996094 5.472656 24.121094 5.472656 24.277344 C 5.472656 24.449219 5.644531 24.527344 5.738281 24.527344 Z M 5.738281 24.527344 "
       id="path58" />
    <path
       style=" stroke:none;fill-rule:nonzero;fill:rgb(12.940979%,11.764526%,11.764526%);fill-opacity:1;"
       d="M 7.691406 21.621094 L 8.800781 21.621094 L 8.910156 21.292969 L 7.675781 21.292969 L 7.175781 22.324219 L 7.175781 22.402344 C 7.738281 22.527344 8.222656 22.621094 8.222656 23.355469 C 8.222656 23.777344 7.878906 24.308594 7.410156 24.308594 C 7.144531 24.308594 7.035156 24.042969 6.816406 24.042969 C 6.722656 24.042969 6.628906 24.105469 6.628906 24.246094 C 6.628906 24.386719 6.769531 24.511719 7.113281 24.511719 C 8.050781 24.511719 8.566406 23.777344 8.566406 23.167969 C 8.566406 22.511719 8.128906 22.167969 7.503906 22.042969 Z M 7.691406 21.621094 "
       id="path60" />
    <path
       style="fill:none;stroke-width:0.055;stroke-linecap:round;stroke-linejoin:round;stroke:rgb(12.940979%,11.764526%,11.764526%);stroke-opacity:1;stroke-miterlimit:4;"
       d="M 11.519531 10.886719 L 12.007813 10.886719 "
       id="path62" />
    <path
       style=" stroke:none;fill-rule:nonzero;fill:rgb(12.940979%,11.764526%,11.764526%);fill-opacity:1;"
       d="M 7.183594 12.488281 L 8.527344 12.488281 L 8.527344 12.410156 C 8.277344 12.425781 8.105469 12.410156 8.105469 12.253906 C 8.105469 12.175781 8.167969 12.003906 8.199219 11.910156 L 8.886719 9.425781 C 8.902344 9.347656 8.933594 9.238281 8.886719 9.238281 C 8.855469 9.238281 8.183594 9.394531 7.964844 9.425781 L 7.964844 9.503906 L 8.230469 9.488281 C 8.277344 9.488281 8.417969 9.488281 8.417969 9.644531 C 8.417969 9.675781 8.402344 9.753906 8.386719 9.800781 L 7.714844 12.160156 C 7.652344 12.378906 7.464844 12.394531 7.183594 12.425781 Z M 7.183594 12.488281 "
       id="path64" />
    <path
       style="fill:none;stroke-width:0.055;stroke-linecap:round;stroke-linejoin:round;stroke:rgb(12.940979%,11.764526%,11.764526%);stroke-opacity:1;stroke-miterlimit:4;"
       d="M 11.519531 58.855469 L 11.519531 10.886719 "
       id="path66" />
    <path
       style="fill:none;stroke-width:0.073;stroke-linecap:round;stroke-linejoin:round;stroke:rgb(12.940979%,11.764526%,11.764526%);stroke-opacity:1;stroke-miterlimit:4;"
       d="M 11.519531 34.871094 L 11.882813 25.910156 L 12.054688 22.261719 L 12.21875 19.453125 L 12.3125 18.1875 L 12.410156 17.109375 L 12.503906 16.410156 L 12.585938 16.015625 L 12.679688 15.867188 L 12.777344 16.03125 L 12.828125 16.242188 L 12.882813 16.5625 L 12.984375 17.390625 L 13.082031 18.570313 L 13.179688 19.933594 L 13.394531 23.867188 L 13.785156 32.964844 L 14.140625 41.492188 L 14.324219 45.410156 L 14.519531 48.753906 L 14.625 50.140625 L 14.683594 50.742188 L 14.742188 51.28125 L 14.796875 51.671875 L 14.847656 51.9375 L 14.949219 52.222656 L 15.046875 52.175781 L 15.101563 52.007813 L 15.15625 51.753906 L 15.25 51.070313 L 15.351563 50.035156 L 15.535156 47.375 L 15.707031 44.121094 L 16.101563 34.941406 L 16.496094 25.425781 L 16.714844 21.050781 L 16.917969 17.917969 L 17.019531 16.714844 L 17.074219 16.226563 L 17.132813 15.800781 L 17.199219 15.457031 L 17.257813 15.253906 L 17.316406 15.171875 L 17.371094 15.203125 L 17.46875 15.488281 L 17.523438 15.785156 L 17.574219 16.144531 L 17.679688 17.121094 L 17.792969 18.511719 L 17.988281 21.738281 L 18.199219 26.015625 L 18.578125 34.769531 L 18.789063 39.570313 L 19.019531 44.101563 L 19.121094 45.835938 L 19.234375 47.378906 L 19.328125 48.433594 L 19.433594 49.292969 L 19.488281 49.617188 L 19.542969 49.835938 L 19.640625 50.027344 L 19.695313 50.003906 L 19.742188 49.898438 L 19.800781 49.695313 L 19.859375 49.375 L 19.953125 48.628906 L 20.046875 47.683594 L 20.253906 44.761719 L 20.609375 37.824219 L 20.996094 29.359375 L 21.183594 25.542969 L 21.378906 22.074219 L 21.476563 20.6875 L 21.570313 19.585938 L 21.652344 18.792969 L 21.738281 18.136719 L 21.839844 17.683594 L 21.890625 17.558594 L 21.945313 17.519531 L 22.03125 17.648438 L 22.128906 18.058594 L 22.183594 18.410156 L 22.242188 18.890625 L 22.351563 20.011719 L 22.554688 22.898438 L 23.332031 39.289063 L 23.546875 43.625 L 23.65625 45.621094 L 23.777344 47.445313 L 23.878906 48.777344 L 23.933594 49.371094 L 23.992188 49.914063 L 24.046875 50.332031 L 24.097656 50.636719 L 24.191406 51.023438 L 24.285156 51.136719 L 24.390625 50.957031 L 24.476563 50.566406 L 24.570313 49.878906 L 24.671875 48.863281 L 24.78125 47.472656 L 24.980469 44.261719 L 25.726563 28.375 L 25.933594 24.273438 L 26.042969 22.402344 L 26.160156 20.683594 L 26.277344 19.34375 L 26.378906 18.410156 L 26.425781 18.0625 L 26.480469 17.761719 L 26.574219 17.425781 L 26.671875 17.359375 L 26.722656 17.433594 L 26.773438 17.578125 L 26.875 18.078125 L 26.929688 18.480469 L 26.984375 18.917969 L 27.171875 21.121094 L 27.355469 23.914063 L 28.105469 38.601563 L 28.285156 41.800781 L 28.484375 44.621094 L 28.597656 45.871094 L 28.699219 46.753906 L 28.796875 47.351563 L 28.847656 47.558594 L 28.902344 47.710938 L 28.996094 47.789063 L 29.089844 47.640625 L 29.171875 47.328125 L 29.261719 46.800781 L 29.359375 46.015625 L 29.460938 44.964844 L 29.640625 42.59375 L 30.332031 31.054688 L 30.527344 28.058594 L 30.714844 25.753906 L 30.796875 24.960938 L 30.882813 24.277344 L 30.976563 23.71875 L 31.0625 23.398438 L 31.167969 23.269531 L 31.226563 23.316406 L 31.277344 23.433594 L 31.375 23.832031 L 31.425781 24.125 L 31.476563 24.511719 L 31.671875 26.457031 L 31.851563 28.957031 L 32.535156 41.503906 "
       id="path68" />
    <path
       style="fill:none;stroke-width:0.073;stroke-linecap:round;stroke-linejoin:round;stroke:rgb(12.940979%,11.764526%,11.764526%);stroke-opacity:1;stroke-miterlimit:4;"
       d="M 32.535156 41.5 L 32.894531 47.480469 L 33.074219 49.664063 L 33.179688 50.578125 L 33.273438 51.191406 L 33.328125 51.425781 L 33.378906 51.578125 L 33.476563 51.664063 L 33.53125 51.59375 L 33.582031 51.457031 L 33.640625 51.222656 L 33.695313 50.882813 L 33.804688 50.035156 L 33.902344 48.972656 L 34.085938 46.355469 L 34.457031 39.242188 L 34.859375 30.273438 L 35.222656 22.871094 L 35.40625 19.972656 L 35.511719 18.65625 L 35.609375 17.699219 L 35.695313 17.039063 L 35.78125 16.621094 L 35.867188 16.394531 L 35.96875 16.414063 L 36.050781 16.644531 L 36.140625 17.109375 L 36.214844 17.679688 L 36.300781 18.492188 L 36.480469 20.839844 L 36.679688 24.203125 L 37.082031 32.539063 L 37.457031 40.566406 L 37.621094 43.636719 L 37.800781 46.441406 L 37.910156 47.832031 L 38.011719 48.863281 L 38.105469 49.621094 L 38.203125 50.160156 L 38.257813 50.328125 L 38.3125 50.429688 L 38.410156 50.410156 L 38.472656 50.269531 L 38.53125 50.046875 L 38.582031 49.773438 L 38.640625 49.398438 L 38.742188 48.523438 L 38.835938 47.53125 L 39.042969 44.703125 L 39.417969 38.203125 L 39.796875 31.277344 L 40.003906 27.972656 L 40.199219 25.480469 L 40.363281 23.921875 L 40.453125 23.304688 L 40.539063 22.914063 L 40.632813 22.679688 L 40.734375 22.648438 L 40.828125 22.832031 L 40.914063 23.1875 L 41.007813 23.746094 L 41.109375 24.539063 L 41.289063 26.445313 L 41.699219 32.347656 L 42.128906 39.113281 L 42.34375 41.917969 L 42.433594 42.953125 L 42.53125 43.917969 L 42.628906 44.679688 L 42.71875 45.222656 L 42.800781 45.589844 L 42.890625 45.808594 L 42.988281 45.851563 L 43.074219 45.71875 L 43.171875 45.378906 L 43.226563 45.105469 L 43.277344 44.800781 L 43.476563 43.113281 L 43.695313 40.550781 L 44.5 28.648438 L 44.710938 26.195313 L 44.828125 25.097656 L 44.9375 24.300781 L 45.035156 23.808594 L 45.136719 23.496094 L 45.222656 23.40625 L 45.320313 23.492188 L 45.421875 23.804688 L 45.476563 24.078125 L 45.53125 24.382813 L 45.726563 26.019531 L 45.90625 28.089844 L 46.101563 30.859375 L 46.5 37.238281 L 46.691406 40.238281 L 46.875 42.792969 L 47.050781 44.851563 L 47.136719 45.664063 L 47.214844 46.273438 L 47.308594 46.835938 L 47.40625 47.230469 L 47.460938 47.347656 L 47.515625 47.410156 L 47.617188 47.328125 L 47.667969 47.195313 L 47.726563 46.976563 L 47.785156 46.667969 L 47.84375 46.3125 L 47.941406 45.503906 L 48.046875 44.414063 L 48.453125 38.558594 L 48.828125 32.035156 L 49.199219 26.039063 L 49.390625 23.734375 L 49.496094 22.726563 L 49.597656 22.015625 L 49.683594 21.59375 L 49.777344 21.347656 L 49.855469 21.304688 L 49.9375 21.4375 L 50.03125 21.792969 L 50.132813 22.40625 L 50.226563 23.195313 L 50.308594 24.085938 L 50.515625 26.871094 L 50.707031 30.050781 L 51.140625 38.207031 L 51.515625 44.632813 L 51.621094 46.082031 L 51.726563 47.222656 L 51.820313 48.039063 L 51.921875 48.679688 L 52.019531 49.046875 L 52.109375 49.144531 L 52.160156 49.101563 L 52.214844 48.976563 L 52.3125 48.550781 L 52.402344 47.914063 L 52.5 47.003906 L 52.671875 44.832031 L 53.011719 39.066406 L 53.378906 31.726563 L 53.582031 27.867188 L 53.777344 24.765625 L 53.886719 23.371094 L 54.003906 22.167969 L 54.054688 21.746094 L 54.109375 21.378906 L 54.207031 20.929688 L 54.296875 20.753906 "
       id="path70" />
    <path
       style="fill:none;stroke-width:0.073;stroke-linecap:round;stroke-linejoin:round;stroke:rgb(12.940979%,11.764526%,11.764526%);stroke-opacity:1;stroke-miterlimit:4;"
       d="M 54.296875 20.75 L 54.394531 20.832031 L 54.488281 21.164063 L 54.574219 21.679688 L 54.671875 22.519531 L 54.78125 23.71875 L 54.980469 26.542969 L 55.359375 33.410156 L 55.554688 37.21875 L 55.765625 40.949219 L 55.949219 43.6875 L 56.046875 44.875 L 56.152344 45.910156 L 56.246094 46.625 L 56.335938 47.074219 L 56.421875 47.324219 L 56.503906 47.371094 L 56.554688 47.3125 L 56.609375 47.179688 L 56.664063 46.957031 L 56.71875 46.683594 L 56.8125 46.03125 L 56.914063 45.105469 L 57.144531 42.316406 L 57.359375 39.183594 L 57.734375 33.371094 L 57.9375 30.539063 L 58.132813 28.378906 L 58.226563 27.5625 L 58.324219 26.871094 L 58.375 26.578125 L 58.433594 26.316406 L 58.53125 26 L 58.621094 25.875 L 58.71875 25.898438 L 58.808594 26.070313 L 58.894531 26.339844 L 58.984375 26.742188 L 59.066406 27.207031 L 59.253906 28.53125 L 60 34.886719 L 60.378906 37.390625 L 60.585938 38.398438 L 60.8125 39.214844 L 61.019531 39.75 L 61.207031 40.097656 L 61.304688 40.234375 L 61.398438 40.332031 L 61.480469 40.390625 L 61.570313 40.429688 L 61.671875 40.433594 L 61.722656 40.417969 L 61.777344 40.386719 L 61.871094 40.289063 L 61.964844 40.148438 L 62.050781 39.957031 L 62.140625 39.699219 L 62.304688 39.066406 L 62.476563 38.121094 L 62.667969 36.769531 L 63.101563 32.6875 L 63.3125 30.449219 L 63.511719 28.5 L 63.683594 27.023438 L 63.777344 26.390625 L 63.875 25.859375 L 63.976563 25.496094 L 64.070313 25.332031 L 64.125 25.320313 L 64.175781 25.367188 L 64.273438 25.605469 L 64.371094 26.050781 L 64.457031 26.621094 L 64.558594 27.480469 L 64.652344 28.464844 L 65.003906 33.296875 L 65.417969 39.855469 L 65.613281 42.546875 L 65.703125 43.558594 L 65.796875 44.46875 L 65.894531 45.183594 L 65.980469 45.648438 L 66.082031 45.957031 L 66.179688 46.007813 L 66.277344 45.804688 L 66.371094 45.398438 L 66.472656 44.722656 L 66.578125 43.765625 L 66.785156 41.34375 L 66.980469 38.597656 L 67.421875 32.03125 L 67.609375 29.664063 L 67.808594 27.660156 L 67.921875 26.796875 L 68.027344 26.207031 L 68.078125 25.992188 L 68.132813 25.804688 L 68.230469 25.601563 L 68.324219 25.558594 L 68.421875 25.671875 L 68.472656 25.785156 L 68.53125 25.953125 L 68.628906 26.359375 L 68.726563 26.890625 L 68.820313 27.496094 L 68.996094 28.867188 L 69.679688 35.988281 L 70.070313 40.171875 L 70.257813 41.890625 L 70.433594 43.128906 L 70.515625 43.578125 L 70.609375 43.941406 L 70.703125 44.171875 L 70.792969 44.234375 L 70.890625 44.128906 L 70.984375 43.871094 L 71.03125 43.65625 L 71.085938 43.371094 L 71.183594 42.71875 L 71.386719 40.828125 L 71.597656 38.199219 L 71.976563 32.789063 L 72.148438 30.546875 L 72.328125 28.53125 L 72.417969 27.753906 L 72.503906 27.15625 L 72.578125 26.746094 L 72.660156 26.433594 L 72.757813 26.25 L 72.847656 26.265625 L 72.894531 26.34375 L 72.949219 26.488281 L 73.046875 26.871094 L 73.140625 27.371094 L 73.234375 28.023438 L 73.40625 29.414063 L 73.785156 32.757813 L 73.972656 34.199219 L 74.144531 35.300781 L 74.34375 36.285156 L 74.558594 37.113281 L 74.933594 38.453125 L 75.292969 40.125 L 75.46875 41.050781 L 75.625 41.828125 L 75.703125 42.152344 L 75.792969 42.421875 L 75.882813 42.585938 L 75.976563 42.613281 L 76.070313 42.457031 "
       id="path72" />
    <path
       style="fill:none;stroke-width:0.073;stroke-linecap:round;stroke-linejoin:round;stroke:rgb(12.940979%,11.764526%,11.764526%);stroke-opacity:1;stroke-miterlimit:4;"
       d="M 76.070313 42.457031 L 76.125 42.28125 L 76.171875 42.058594 L 76.269531 41.457031 L 76.359375 40.683594 L 77.113281 28.578125 L 77.296875 25.691406 L 77.402344 24.421875 L 77.496094 23.550781 L 77.550781 23.195313 L 77.609375 22.925781 L 77.660156 22.789063 L 77.710938 22.769531 L 77.8125 23.015625 L 77.859375 23.285156 L 77.914063 23.6875 L 78.003906 24.582031 L 78.101563 25.816406 L 78.269531 28.59375 L 78.652344 35.871094 L 78.8125 38.519531 L 78.902344 39.722656 L 78.984375 40.664063 L 79.085938 41.5 L 79.171875 41.996094 L 79.257813 42.230469 L 79.347656 42.253906 L 79.445313 42.046875 L 79.53125 41.679688 L 79.628906 41.09375 L 79.726563 40.433594 L 79.898438 39.183594 L 80.082031 38.03125 L 80.136719 37.765625 L 80.1875 37.558594 L 80.28125 37.285156 L 80.371094 37.171875 L 80.46875 37.191406 L 80.519531 37.253906 L 80.574219 37.363281 L 80.6875 37.671875 L 80.890625 38.300781 L 80.941406 38.433594 L 80.996094 38.542969 L 81.054688 38.605469 L 81.101563 38.617188 L 81.195313 38.5 L 81.296875 38.152344 L 81.347656 37.871094 L 81.402344 37.488281 L 81.503906 36.589844 L 81.621094 35.183594 L 81.734375 33.628906 L 82.113281 27.441406 L 82.222656 25.875 L 82.328125 24.675781 L 82.421875 23.894531 L 82.519531 23.421875 L 82.609375 23.355469 L 82.703125 23.671875 L 82.804688 24.421875 L 82.898438 25.496094 L 83.0625 28.171875 L 83.242188 31.785156 L 83.566406 38.453125 L 83.65625 39.984375 L 83.746094 41.367188 L 83.835938 42.390625 L 83.917969 43.066406 L 84.019531 43.574219 L 84.074219 43.6875 L 84.128906 43.691406 L 84.226563 43.453125 L 84.324219 42.914063 L 84.421875 42.191406 L 84.511719 41.390625 L 84.714844 39.414063 L 84.800781 38.617188 L 84.894531 37.855469 L 84.976563 37.296875 L 85.066406 36.839844 L 85.167969 36.496094 L 85.265625 36.34375 L 85.347656 36.328125 L 85.445313 36.410156 "
       id="path74" />
    <g
       clip-path="url(#clip2)"
       clip-rule="nonzero"
       id="g78">
      <path
         style=" stroke:none;fill-rule:nonzero;fill:rgb(12.940979%,11.764526%,11.764526%);fill-opacity:1;"
         d="M 96.230469 33.179688 L 95.464844 33.179688 L 95.730469 32.195313 C 95.746094 32.117188 95.730469 32.039063 95.667969 32.054688 C 95.574219 32.039063 95.542969 32.117188 95.496094 32.164063 C 95.230469 32.507813 94.761719 32.929688 94.449219 33.101563 C 94.292969 33.179688 94.027344 33.257813 93.964844 33.335938 C 93.933594 33.382813 93.933594 33.429688 93.949219 33.492188 L 94.652344 33.492188 L 93.964844 36.132813 C 93.917969 36.289063 93.746094 36.867188 93.746094 37.007813 C 93.746094 37.304688 94.011719 37.398438 94.199219 37.398438 C 94.699219 37.398438 95.074219 36.976563 95.558594 36.226563 L 95.433594 36.164063 C 95.199219 36.476563 94.871094 36.929688 94.667969 36.929688 C 94.574219 36.929688 94.511719 36.851563 94.511719 36.757813 C 94.511719 36.726563 94.511719 36.710938 94.527344 36.679688 L 95.371094 33.492188 L 96.183594 33.492188 Z M 96.230469 33.179688 "
         id="path76" />
    </g>
    <path
       style=" stroke:none;fill-rule:nonzero;fill:rgb(12.940979%,11.764526%,11.764526%);fill-opacity:1;"
       d="M 0.1875 5.015625 L 0 6.546875 L 0.15625 6.546875 C 0.203125 6.4375 0.25 6.34375 0.375 6.34375 C 0.65625 6.34375 1.046875 6.53125 1.328125 6.53125 C 1.875 6.53125 2.765625 6.28125 2.765625 5.234375 C 2.765625 4.421875 1.59375 3.578125 1.59375 2.96875 C 1.59375 2.5 1.890625 2.40625 2.109375 2.40625 C 2.734375 2.40625 2.96875 2.96875 3.015625 3.515625 L 3.15625 3.515625 L 3.359375 2.1875 L 3.21875 2.1875 C 3.171875 2.265625 3.109375 2.359375 2.953125 2.359375 C 2.671875 2.359375 2.46875 2.1875 2.046875 2.1875 C 1.03125 2.1875 0.890625 2.953125 0.890625 3.25 C 0.890625 4 2.03125 4.921875 2.03125 5.546875 C 2.03125 5.859375 1.875 6.328125 1.34375 6.328125 C 0.5625 6.328125 0.40625 5.4375 0.34375 5.015625 Z M 0.1875 5.015625 "
       id="path80" />
    <path
       style=" stroke:none;fill-rule:nonzero;fill:rgb(12.940979%,11.764526%,11.764526%);fill-opacity:1;"
       d="M 4.578125 4.851563 C 4.65625 4.742188 4.859375 4.476563 5.203125 4.476563 C 5.421875 4.476563 5.6875 4.617188 5.6875 4.992188 C 5.6875 5.585938 4.921875 5.835938 4.359375 5.914063 L 4.359375 6.007813 C 4.90625 5.960938 5.390625 6.179688 5.390625 6.960938 C 5.390625 7.664063 4.875 7.851563 4.6875 7.851563 C 4.359375 7.851563 4.1875 7.507813 3.921875 7.507813 C 3.71875 7.507813 3.65625 7.617188 3.65625 7.726563 C 3.65625 7.976563 3.96875 8.070313 4.296875 8.070313 C 5.328125 8.070313 5.84375 7.273438 5.84375 6.648438 C 5.84375 6.039063 5.453125 5.867188 5.3125 5.804688 L 5.3125 5.773438 C 5.90625 5.554688 6.171875 5.367188 6.171875 4.945313 C 6.171875 4.476563 5.78125 4.242188 5.359375 4.242188 C 5.046875 4.242188 4.625 4.492188 4.484375 4.820313 Z M 4.578125 4.851563 "
       id="path82" />
    <path
       style=" stroke:none;fill-rule:nonzero;fill:rgb(12.940979%,11.764526%,11.764526%);fill-opacity:1;"
       d="M 7.910156 8.09375 C 7.441406 6.921875 7.441406 6.078125 7.441406 5.4375 C 7.441406 4.828125 7.613281 3.53125 7.988281 2.453125 C 8.457031 1.140625 8.941406 0.625 9.394531 0.140625 L 9.269531 0 C 7.535156 1.484375 6.785156 2.984375 6.785156 4.5625 C 6.785156 5.1875 6.785156 6.578125 7.738281 8.15625 Z M 7.910156 8.09375 "
       id="path84" />
    <path
       style=" stroke:none;fill-rule:nonzero;fill:rgb(12.940979%,11.764526%,11.764526%);fill-opacity:1;"
       d="M 12.417969 2.3125 L 11.652344 2.3125 L 11.917969 1.328125 C 11.933594 1.25 11.917969 1.171875 11.855469 1.1875 C 11.761719 1.171875 11.730469 1.25 11.683594 1.296875 C 11.417969 1.640625 10.949219 2.0625 10.636719 2.234375 C 10.480469 2.3125 10.214844 2.390625 10.152344 2.46875 C 10.121094 2.515625 10.121094 2.5625 10.136719 2.625 L 10.839844 2.625 L 10.152344 5.265625 C 10.105469 5.421875 9.933594 6 9.933594 6.140625 C 9.933594 6.4375 10.199219 6.53125 10.386719 6.53125 C 10.886719 6.53125 11.261719 6.109375 11.746094 5.359375 L 11.621094 5.296875 C 11.386719 5.609375 11.058594 6.0625 10.855469 6.0625 C 10.761719 6.0625 10.699219 5.984375 10.699219 5.890625 C 10.699219 5.859375 10.699219 5.84375 10.714844 5.8125 L 11.558594 2.625 L 12.371094 2.625 Z M 12.417969 2.3125 "
       id="path86" />
    <path
       style=" stroke:none;fill-rule:nonzero;fill:rgb(12.940979%,11.764526%,11.764526%);fill-opacity:1;"
       d="M 12.523438 8.15625 C 13.945313 7 15.007813 5.421875 15.007813 3.59375 C 15.007813 2.359375 14.757813 1.125 14.070313 0 L 13.882813 0.046875 C 14.132813 0.578125 14.351563 1.53125 14.351563 2.5625 C 14.351563 3.40625 14.195313 4.546875 13.804688 5.71875 C 13.367188 6.984375 12.820313 7.5625 12.398438 8 Z M 12.523438 8.15625 "
       id="path88" />
    <path
       style=" stroke:none;fill-rule:nonzero;fill:rgb(12.940979%,11.764526%,11.764526%);fill-opacity:1;"
       d="M 23.496094 2.71875 L 18.667969 2.71875 L 18.667969 3.359375 L 23.496094 3.359375 Z M 23.496094 4.640625 L 18.667969 4.640625 L 18.667969 5.265625 L 23.496094 5.265625 Z M 23.496094 4.640625 "
       id="path90" />
    <path
       style=" stroke:none;fill-rule:nonzero;fill:rgb(12.940979%,11.764526%,11.764526%);fill-opacity:1;"
       d="M 31.171875 5.359375 C 30.734375 5.78125 30.546875 6.03125 30.40625 6.03125 C 30.328125 6.03125 30.265625 5.96875 30.265625 5.90625 C 30.265625 5.609375 31.15625 2.328125 31.1875 2.21875 L 31.109375 2.1875 L 30.53125 2.265625 L 30.5 2.28125 L 30.40625 2.703125 L 30.390625 2.703125 C 30.359375 2.4375 30.03125 2.1875 29.625 2.1875 C 28.34375 2.1875 26.875 3.984375 26.875 5.390625 C 26.875 5.671875 26.90625 6.53125 27.875 6.53125 C 28.453125 6.53125 28.953125 6.234375 29.75 5.0625 L 29.765625 5.09375 C 29.609375 5.671875 29.5625 5.890625 29.5625 6.109375 C 29.5625 6.265625 29.5625 6.515625 29.96875 6.515625 C 30.390625 6.515625 30.703125 6.171875 31.28125 5.46875 Z M 27.6875 5.375 C 27.6875 4.515625 28.546875 2.40625 29.671875 2.40625 C 29.953125 2.40625 30.21875 2.578125 30.21875 3.046875 C 30.21875 3.984375 29.28125 6.0625 28.265625 6.0625 C 28 6.0625 27.6875 5.890625 27.6875 5.375 Z M 27.6875 5.375 "
       id="path92" />
    <path
       style=" stroke:none;fill-rule:nonzero;fill:rgb(12.940979%,11.764526%,11.764526%);fill-opacity:1;"
       d="M 32.519531 4.851563 C 32.597656 4.742188 32.800781 4.476563 33.144531 4.476563 C 33.363281 4.476563 33.628906 4.617188 33.628906 4.992188 C 33.628906 5.585938 32.863281 5.835938 32.300781 5.914063 L 32.300781 6.007813 C 32.847656 5.960938 33.332031 6.179688 33.332031 6.960938 C 33.332031 7.664063 32.816406 7.851563 32.628906 7.851563 C 32.300781 7.851563 32.128906 7.507813 31.863281 7.507813 C 31.660156 7.507813 31.597656 7.617188 31.597656 7.726563 C 31.597656 7.976563 31.910156 8.070313 32.238281 8.070313 C 33.269531 8.070313 33.785156 7.273438 33.785156 6.648438 C 33.785156 6.039063 33.394531 5.867188 33.253906 5.804688 L 33.253906 5.773438 C 33.847656 5.554688 34.113281 5.367188 34.113281 4.945313 C 34.113281 4.476563 33.722656 4.242188 33.300781 4.242188 C 32.988281 4.242188 32.566406 4.492188 32.425781 4.820313 Z M 32.519531 4.851563 "
       id="path94" />
    <path
       style=" stroke:none;fill-rule:nonzero;fill:rgb(12.940979%,11.764526%,11.764526%);fill-opacity:1;"
       d="M 34.601563 8.023438 L 36.148438 8.023438 L 36.148438 7.945313 C 35.882813 7.945313 35.679688 7.929688 35.679688 7.757813 C 35.679688 7.664063 35.742188 7.460938 35.773438 7.351563 L 36.570313 4.445313 C 36.601563 4.351563 36.632813 4.242188 36.585938 4.242188 C 36.539063 4.242188 35.757813 4.414063 35.507813 4.460938 L 35.507813 4.539063 L 35.820313 4.523438 C 35.867188 4.523438 36.039063 4.523438 36.039063 4.710938 C 36.039063 4.757813 36.007813 4.835938 35.992188 4.898438 L 35.226563 7.648438 C 35.148438 7.898438 34.929688 7.914063 34.601563 7.945313 Z M 34.601563 8.023438 "
       id="path96" />
    <path
       style=" stroke:none;fill-rule:nonzero;fill:rgb(12.940979%,11.764526%,11.764526%);fill-opacity:1;"
       d="M 40.980469 5.359375 C 40.714844 5.640625 40.527344 6 40.324219 6 C 40.136719 6 40.058594 5.765625 40.027344 5.609375 C 39.964844 5.359375 39.636719 4.0625 39.636719 3.890625 C 39.636719 3.890625 40.292969 2.734375 40.574219 2.734375 C 40.792969 2.734375 40.855469 2.890625 41.089844 2.890625 C 41.308594 2.890625 41.402344 2.703125 41.402344 2.53125 C 41.402344 2.3125 41.199219 2.1875 41.011719 2.1875 C 40.511719 2.1875 40.058594 2.78125 39.574219 3.5625 L 39.464844 3.03125 C 39.292969 2.1875 39.152344 2.1875 38.933594 2.1875 C 38.621094 2.1875 37.996094 2.421875 37.730469 2.5 L 37.777344 2.65625 C 38.074219 2.578125 38.214844 2.546875 38.308594 2.546875 C 38.558594 2.546875 38.605469 2.6875 38.683594 2.984375 C 38.699219 3.03125 39.027344 4.296875 39.027344 4.390625 C 38.152344 5.640625 37.902344 5.96875 37.746094 5.96875 C 37.574219 5.96875 37.402344 5.78125 37.183594 5.78125 C 36.980469 5.78125 36.855469 5.96875 36.855469 6.109375 C 36.855469 6.34375 37.011719 6.53125 37.339844 6.53125 C 37.636719 6.53125 37.746094 6.421875 37.902344 6.234375 C 38.230469 5.890625 38.636719 5.359375 39.089844 4.734375 L 39.386719 5.890625 C 39.511719 6.390625 39.652344 6.53125 39.933594 6.53125 C 40.152344 6.53125 40.433594 6.53125 41.105469 5.4375 Z M 40.980469 5.359375 "
       id="path98" />
    <path
       style=" stroke:none;fill-rule:nonzero;fill:rgb(12.940979%,11.764526%,11.764526%);fill-opacity:1;"
       d="M 41.664063 8.023438 L 43.210938 8.023438 L 43.210938 7.945313 C 42.945313 7.945313 42.742188 7.929688 42.742188 7.757813 C 42.742188 7.664063 42.804688 7.460938 42.835938 7.351563 L 43.632813 4.445313 C 43.664063 4.351563 43.695313 4.242188 43.648438 4.242188 C 43.601563 4.242188 42.820313 4.414063 42.570313 4.460938 L 42.570313 4.539063 L 42.882813 4.523438 C 42.929688 4.523438 43.101563 4.523438 43.101563 4.710938 C 43.101563 4.757813 43.070313 4.835938 43.054688 4.898438 L 42.289063 7.648438 C 42.210938 7.898438 41.992188 7.914063 41.664063 7.945313 Z M 41.664063 8.023438 "
       id="path100" />
    <path
       style=" stroke:none;fill-rule:nonzero;fill:rgb(12.940979%,11.764526%,11.764526%);fill-opacity:1;"
       d="M 45.714844 8.09375 C 45.246094 6.921875 45.246094 6.078125 45.246094 5.4375 C 45.246094 4.828125 45.417969 3.53125 45.792969 2.453125 C 46.261719 1.140625 46.746094 0.625 47.199219 0.140625 L 47.074219 0 C 45.339844 1.484375 44.589844 2.984375 44.589844 4.5625 C 44.589844 5.1875 44.589844 6.578125 45.542969 8.15625 Z M 45.714844 8.09375 "
       id="path102" />
    <path
       style=" stroke:none;fill-rule:nonzero;fill:rgb(12.940979%,11.764526%,11.764526%);fill-opacity:1;"
       d="M 50.222656 2.3125 L 49.457031 2.3125 L 49.722656 1.328125 C 49.738281 1.25 49.722656 1.171875 49.660156 1.1875 C 49.566406 1.171875 49.535156 1.25 49.488281 1.296875 C 49.222656 1.640625 48.753906 2.0625 48.441406 2.234375 C 48.285156 2.3125 48.019531 2.390625 47.957031 2.46875 C 47.925781 2.515625 47.925781 2.5625 47.941406 2.625 L 48.644531 2.625 L 47.957031 5.265625 C 47.910156 5.421875 47.738281 6 47.738281 6.140625 C 47.738281 6.4375 48.003906 6.53125 48.191406 6.53125 C 48.691406 6.53125 49.066406 6.109375 49.550781 5.359375 L 49.425781 5.296875 C 49.191406 5.609375 48.863281 6.0625 48.660156 6.0625 C 48.566406 6.0625 48.503906 5.984375 48.503906 5.890625 C 48.503906 5.859375 48.503906 5.84375 48.519531 5.8125 L 49.363281 2.625 L 50.175781 2.625 Z M 50.222656 2.3125 "
       id="path104" />
    <path
       style=" stroke:none;fill-rule:nonzero;fill:rgb(12.940979%,11.764526%,11.764526%);fill-opacity:1;"
       d="M 50.328125 8.15625 C 51.75 7 52.8125 5.421875 52.8125 3.59375 C 52.8125 2.359375 52.5625 1.125 51.875 0 L 51.6875 0.046875 C 51.9375 0.578125 52.15625 1.53125 52.15625 2.5625 C 52.15625 3.40625 52 4.546875 51.609375 5.71875 C 51.171875 6.984375 50.625 7.5625 50.203125 8 Z M 50.328125 8.15625 "
       id="path106" />
    <path
       style=" stroke:none;fill-rule:nonzero;fill:rgb(12.940979%,11.764526%,11.764526%);fill-opacity:1;"
       d="M 58.566406 3.671875 L 56.472656 3.671875 L 56.472656 4.3125 L 58.566406 4.3125 L 58.566406 6.421875 L 59.207031 6.421875 L 59.207031 4.3125 L 61.300781 4.3125 L 61.300781 3.671875 L 59.207031 3.671875 L 59.207031 1.5625 L 58.566406 1.5625 Z M 58.566406 3.671875 "
       id="path108" />
    <path
       style=" stroke:none;fill-rule:nonzero;fill:rgb(12.940979%,11.764526%,11.764526%);fill-opacity:1;"
       d="M 68.980469 5.359375 C 68.542969 5.78125 68.355469 6.03125 68.214844 6.03125 C 68.136719 6.03125 68.074219 5.96875 68.074219 5.90625 C 68.074219 5.609375 68.964844 2.328125 68.996094 2.21875 L 68.917969 2.1875 L 68.339844 2.265625 L 68.308594 2.28125 L 68.214844 2.703125 L 68.199219 2.703125 C 68.167969 2.4375 67.839844 2.1875 67.433594 2.1875 C 66.152344 2.1875 64.683594 3.984375 64.683594 5.390625 C 64.683594 5.671875 64.714844 6.53125 65.683594 6.53125 C 66.261719 6.53125 66.761719 6.234375 67.558594 5.0625 L 67.574219 5.09375 C 67.417969 5.671875 67.371094 5.890625 67.371094 6.109375 C 67.371094 6.265625 67.371094 6.515625 67.777344 6.515625 C 68.199219 6.515625 68.511719 6.171875 69.089844 5.46875 Z M 65.496094 5.375 C 65.496094 4.515625 66.355469 2.40625 67.480469 2.40625 C 67.761719 2.40625 68.027344 2.578125 68.027344 3.046875 C 68.027344 3.984375 67.089844 6.0625 66.074219 6.0625 C 65.808594 6.0625 65.496094 5.890625 65.496094 5.375 Z M 65.496094 5.375 "
       id="path110" />
    <path
       style=" stroke:none;fill-rule:nonzero;fill:rgb(12.940979%,11.764526%,11.764526%);fill-opacity:1;"
       d="M 70.328125 4.851563 C 70.40625 4.742188 70.609375 4.476563 70.953125 4.476563 C 71.171875 4.476563 71.4375 4.617188 71.4375 4.992188 C 71.4375 5.585938 70.671875 5.835938 70.109375 5.914063 L 70.109375 6.007813 C 70.65625 5.960938 71.140625 6.179688 71.140625 6.960938 C 71.140625 7.664063 70.625 7.851563 70.4375 7.851563 C 70.109375 7.851563 69.9375 7.507813 69.671875 7.507813 C 69.46875 7.507813 69.40625 7.617188 69.40625 7.726563 C 69.40625 7.976563 69.71875 8.070313 70.046875 8.070313 C 71.078125 8.070313 71.59375 7.273438 71.59375 6.648438 C 71.59375 6.039063 71.203125 5.867188 71.0625 5.804688 L 71.0625 5.773438 C 71.65625 5.554688 71.921875 5.367188 71.921875 4.945313 C 71.921875 4.476563 71.53125 4.242188 71.109375 4.242188 C 70.796875 4.242188 70.375 4.492188 70.234375 4.820313 Z M 70.328125 4.851563 "
       id="path112" />
    <path
       style=" stroke:none;fill-rule:nonzero;fill:rgb(12.940979%,11.764526%,11.764526%);fill-opacity:1;"
       d="M 74.359375 7.242188 C 74.265625 7.445313 74.171875 7.601563 73.8125 7.601563 L 72.75 7.601563 L 72.75 7.570313 L 73.8125 6.492188 C 74.515625 5.804688 74.65625 5.554688 74.65625 5.179688 C 74.65625 4.757813 74.34375 4.242188 73.75 4.242188 C 73.609375 4.242188 72.875 4.257813 72.578125 5.132813 L 72.6875 5.179688 C 72.765625 5.039063 72.984375 4.648438 73.484375 4.648438 C 73.921875 4.648438 74.171875 4.992188 74.171875 5.335938 C 74.171875 5.523438 74.15625 5.835938 73.359375 6.679688 L 72.1875 7.929688 L 72.1875 8.023438 L 74.171875 8.023438 L 74.453125 7.289063 Z M 74.359375 7.242188 "
       id="path114" />
    <path
       style=" stroke:none;fill-rule:nonzero;fill:rgb(12.940979%,11.764526%,11.764526%);fill-opacity:1;"
       d="M 78.785156 5.359375 C 78.519531 5.640625 78.332031 6 78.128906 6 C 77.941406 6 77.863281 5.765625 77.832031 5.609375 C 77.769531 5.359375 77.441406 4.0625 77.441406 3.890625 C 77.441406 3.890625 78.097656 2.734375 78.378906 2.734375 C 78.597656 2.734375 78.660156 2.890625 78.894531 2.890625 C 79.113281 2.890625 79.207031 2.703125 79.207031 2.53125 C 79.207031 2.3125 79.003906 2.1875 78.816406 2.1875 C 78.316406 2.1875 77.863281 2.78125 77.378906 3.5625 L 77.269531 3.03125 C 77.097656 2.1875 76.957031 2.1875 76.738281 2.1875 C 76.425781 2.1875 75.800781 2.421875 75.535156 2.5 L 75.582031 2.65625 C 75.878906 2.578125 76.019531 2.546875 76.113281 2.546875 C 76.363281 2.546875 76.410156 2.6875 76.488281 2.984375 C 76.503906 3.03125 76.832031 4.296875 76.832031 4.390625 C 75.957031 5.640625 75.707031 5.96875 75.550781 5.96875 C 75.378906 5.96875 75.207031 5.78125 74.988281 5.78125 C 74.785156 5.78125 74.660156 5.96875 74.660156 6.109375 C 74.660156 6.34375 74.816406 6.53125 75.144531 6.53125 C 75.441406 6.53125 75.550781 6.421875 75.707031 6.234375 C 76.035156 5.890625 76.441406 5.359375 76.894531 4.734375 L 77.191406 5.890625 C 77.316406 6.390625 77.457031 6.53125 77.738281 6.53125 C 77.957031 6.53125 78.238281 6.53125 78.910156 5.4375 Z M 78.785156 5.359375 "
       id="path116" />
    <path
       style=" stroke:none;fill-rule:nonzero;fill:rgb(12.940979%,11.764526%,11.764526%);fill-opacity:1;"
       d="M 81.421875 7.242188 C 81.328125 7.445313 81.234375 7.601563 80.875 7.601563 L 79.8125 7.601563 L 79.8125 7.570313 L 80.875 6.492188 C 81.578125 5.804688 81.71875 5.554688 81.71875 5.179688 C 81.71875 4.757813 81.40625 4.242188 80.8125 4.242188 C 80.671875 4.242188 79.9375 4.257813 79.640625 5.132813 L 79.75 5.179688 C 79.828125 5.039063 80.046875 4.648438 80.546875 4.648438 C 80.984375 4.648438 81.234375 4.992188 81.234375 5.335938 C 81.234375 5.523438 81.21875 5.835938 80.421875 6.679688 L 79.25 7.929688 L 79.25 8.023438 L 81.234375 8.023438 L 81.515625 7.289063 Z M 81.421875 7.242188 "
       id="path118" />
    <path
       style=" stroke:none;fill-rule:nonzero;fill:rgb(12.940979%,11.764526%,11.764526%);fill-opacity:1;"
       d="M 83.519531 8.09375 C 83.050781 6.921875 83.050781 6.078125 83.050781 5.4375 C 83.050781 4.828125 83.222656 3.53125 83.597656 2.453125 C 84.066406 1.140625 84.550781 0.625 85.003906 0.140625 L 84.878906 0 C 83.144531 1.484375 82.394531 2.984375 82.394531 4.5625 C 82.394531 5.1875 82.394531 6.578125 83.347656 8.15625 Z M 83.519531 8.09375 "
       id="path120" />
    <path
       style=" stroke:none;fill-rule:nonzero;fill:rgb(12.940979%,11.764526%,11.764526%);fill-opacity:1;"
       d="M 88.027344 2.3125 L 87.261719 2.3125 L 87.527344 1.328125 C 87.542969 1.25 87.527344 1.171875 87.464844 1.1875 C 87.371094 1.171875 87.339844 1.25 87.292969 1.296875 C 87.027344 1.640625 86.558594 2.0625 86.246094 2.234375 C 86.089844 2.3125 85.824219 2.390625 85.761719 2.46875 C 85.730469 2.515625 85.730469 2.5625 85.746094 2.625 L 86.449219 2.625 L 85.761719 5.265625 C 85.714844 5.421875 85.542969 6 85.542969 6.140625 C 85.542969 6.4375 85.808594 6.53125 85.996094 6.53125 C 86.496094 6.53125 86.871094 6.109375 87.355469 5.359375 L 87.230469 5.296875 C 86.996094 5.609375 86.667969 6.0625 86.464844 6.0625 C 86.371094 6.0625 86.308594 5.984375 86.308594 5.890625 C 86.308594 5.859375 86.308594 5.84375 86.324219 5.8125 L 87.167969 2.625 L 87.980469 2.625 Z M 88.027344 2.3125 "
       id="path122" />
    <path
       style=" stroke:none;fill-rule:nonzero;fill:rgb(12.940979%,11.764526%,11.764526%);fill-opacity:1;"
       d="M 88.136719 8.15625 C 89.558594 7 90.621094 5.421875 90.621094 3.59375 C 90.621094 2.359375 90.371094 1.125 89.683594 0 L 89.496094 0.046875 C 89.746094 0.578125 89.964844 1.53125 89.964844 2.5625 C 89.964844 3.40625 89.808594 4.546875 89.417969 5.71875 C 88.980469 6.984375 88.433594 7.5625 88.011719 8 Z M 88.136719 8.15625 "
       id="path124" />
  </g>
</svg>
