<?xml version="1.0" encoding="UTF-8" standalone="no"?>
<svg
   xmlns:dc="http://purl.org/dc/elements/1.1/"
   xmlns:cc="http://creativecommons.org/ns#"
   xmlns:rdf="http://www.w3.org/1999/02/22-rdf-syntax-ns#"
   xmlns:svg="http://www.w3.org/2000/svg"
   xmlns="http://www.w3.org/2000/svg"
   xmlns:sodipodi="http://sodipodi.sourceforge.net/DTD/sodipodi-0.dtd"
   xmlns:inkscape="http://www.inkscape.org/namespaces/inkscape"
   width="95.528778pt"
   height="61.643082pt"
   viewBox="0 0 95.528778 61.643082"
   version="1.2"
   id="svg87"
   sodipodi:docname="ica_recovered_signal_blank_01.svg"
   inkscape:version="0.92.4 (5da689c313, 2019-01-14)">
  <metadata
     id="metadata91">
    <rdf:RDF>
      <cc:Work
         rdf:about="">
        <dc:format>image/svg+xml</dc:format>
        <dc:type
           rdf:resource="http://purl.org/dc/dcmitype/StillImage" />
        <dc:title></dc:title>
      </cc:Work>
    </rdf:RDF>
  </metadata>
  <sodipodi:namedview
     pagecolor="#ffffff"
     bordercolor="#666666"
     borderopacity="1"
     objecttolerance="10"
     gridtolerance="10"
     guidetolerance="10"
     inkscape:pageopacity="0"
     inkscape:pageshadow="2"
     inkscape:window-width="640"
     inkscape:window-height="480"
     id="namedview89"
     showgrid="false"
     inkscape:zoom="2.7007568"
     inkscape:cx="63.685852"
     inkscape:cy="41.095388"
     inkscape:window-x="0"
     inkscape:window-y="0"
     inkscape:window-maximized="0"
     inkscape:current-layer="svg87" />
  <defs
     id="defs8">
    <clipPath
       id="clip1">
      <path
         d="M 6 58 L 9 58 L 9 61.644531 L 6 61.644531 Z M 6 58 "
         id="path2" />
    </clipPath>
    <clipPath
       id="clip2">
      <path
         d="M 93 33 L 95.527344 33 L 95.527344 38 L 93 38 Z M 93 33 "
         id="path5" />
    </clipPath>
  </defs>
  <g
     id="surface40">
    <path
       style="fill:none;stroke-width:0.055;stroke-linecap:round;stroke-linejoin:round;stroke:rgb(12.940979%,11.764526%,11.764526%);stroke-opacity:1;stroke-miterlimit:4;"
       d="M 26.035156 36.054688 L 26.035156 35.570313 "
       id="path10" />
    <path
       style=" stroke:none;fill-rule:nonzero;fill:rgb(12.940979%,11.764526%,11.764526%);fill-opacity:1;"
       d="M 26.472656 40.925781 C 26.410156 41.050781 26.347656 41.160156 26.113281 41.160156 L 25.441406 41.160156 L 25.441406 41.128906 L 26.128906 40.441406 C 26.566406 40.003906 26.660156 39.832031 26.660156 39.597656 C 26.660156 39.332031 26.457031 39.003906 26.082031 39.003906 C 25.988281 39.003906 25.519531 39.003906 25.316406 39.566406 L 25.394531 39.597656 C 25.441406 39.503906 25.582031 39.253906 25.910156 39.253906 C 26.191406 39.253906 26.347656 39.472656 26.347656 39.691406 C 26.347656 39.816406 26.332031 40.019531 25.832031 40.566406 L 25.082031 41.363281 L 25.082031 41.425781 L 26.347656 41.425781 L 26.535156 40.957031 Z M 26.472656 40.925781 "
       id="path12" />
    <path
       style="fill:none;stroke-width:0.055;stroke-linecap:round;stroke-linejoin:round;stroke:rgb(12.940979%,11.764526%,11.764526%);stroke-opacity:1;stroke-miterlimit:4;"
       d="M 40.820313 36.054688 L 40.820313 35.570313 "
       id="path14" />
    <path
       style=" stroke:none;fill-rule:nonzero;fill:rgb(12.940979%,11.764526%,11.764526%);fill-opacity:1;"
       d="M 40.816406 40.566406 L 40.050781 40.566406 L 40.050781 40.550781 L 41.144531 39.410156 L 41.160156 39.410156 Z M 41.441406 40.566406 L 41.097656 40.566406 L 41.535156 39.003906 L 41.394531 39.003906 L 39.894531 40.550781 L 39.816406 40.785156 L 40.753906 40.785156 L 40.582031 41.425781 L 40.863281 41.425781 L 41.035156 40.800781 L 41.394531 40.800781 Z M 41.441406 40.566406 "
       id="path16" />
    <path
       style="fill:none;stroke-width:0.055;stroke-linecap:round;stroke-linejoin:round;stroke:rgb(12.940979%,11.764526%,11.764526%);stroke-opacity:1;stroke-miterlimit:4;"
       d="M 55.605469 36.054688 L 55.605469 35.570313 "
       id="path18" />
    <path
       style=" stroke:none;fill-rule:nonzero;fill:rgb(12.940979%,11.764526%,11.764526%);fill-opacity:1;"
       d="M 56.480469 38.957031 C 55.371094 39.035156 54.714844 39.925781 54.714844 40.675781 C 54.714844 41.253906 55.074219 41.457031 55.355469 41.457031 C 55.964844 41.457031 56.261719 40.847656 56.261719 40.488281 C 56.261719 39.972656 55.902344 39.816406 55.652344 39.816406 C 55.589844 39.816406 55.542969 39.832031 55.496094 39.847656 C 55.433594 39.847656 55.386719 39.863281 55.339844 39.894531 L 55.324219 39.894531 C 55.402344 39.707031 55.839844 39.097656 56.480469 39.019531 Z M 55.511719 39.941406 C 55.792969 39.941406 55.949219 40.128906 55.949219 40.410156 C 55.949219 40.738281 55.746094 41.363281 55.339844 41.363281 C 54.980469 41.363281 54.980469 40.957031 54.980469 40.863281 C 54.980469 40.800781 55.027344 39.941406 55.511719 39.941406 Z M 55.511719 39.941406 "
       id="path20" />
    <path
       style="fill:none;stroke-width:0.055;stroke-linecap:round;stroke-linejoin:round;stroke:rgb(12.940979%,11.764526%,11.764526%);stroke-opacity:1;stroke-miterlimit:4;"
       d="M 70.390625 36.054688 L 70.390625 35.570313 "
       id="path22" />
    <path
       style=" stroke:none;fill-rule:nonzero;fill:rgb(12.940979%,11.764526%,11.764526%);fill-opacity:1;"
       d="M 69.496094 40.863281 C 69.496094 40.972656 69.574219 41.457031 70.214844 41.457031 C 70.699219 41.457031 70.980469 41.128906 70.980469 40.816406 C 70.980469 40.535156 70.839844 40.316406 70.574219 40.050781 C 70.761719 39.988281 71.152344 39.863281 71.152344 39.503906 C 71.152344 39.113281 70.777344 39.003906 70.527344 39.003906 C 70.199219 39.003906 69.886719 39.175781 69.886719 39.535156 C 69.886719 39.722656 69.980469 39.894531 70.199219 40.128906 C 70.105469 40.160156 69.496094 40.347656 69.496094 40.863281 Z M 69.746094 40.878906 C 69.746094 40.410156 70.183594 40.222656 70.277344 40.191406 C 70.621094 40.550781 70.714844 40.644531 70.714844 40.878906 C 70.714844 41.222656 70.433594 41.378906 70.246094 41.378906 C 69.933594 41.378906 69.746094 41.160156 69.746094 40.878906 Z M 70.167969 39.472656 C 70.167969 39.238281 70.292969 39.082031 70.527344 39.082031 C 70.824219 39.082031 70.917969 39.332031 70.917969 39.503906 C 70.917969 39.800781 70.699219 39.894531 70.511719 39.988281 C 70.167969 39.675781 70.167969 39.566406 70.167969 39.472656 Z M 70.167969 39.472656 "
       id="path24" />
    <path
       style="fill:none;stroke-width:0.055;stroke-linecap:round;stroke-linejoin:round;stroke:rgb(12.940979%,11.764526%,11.764526%);stroke-opacity:1;stroke-miterlimit:4;"
       d="M 85.175781 36.054688 L 85.175781 35.570313 "
       id="path26" />
    <path
       style=" stroke:none;fill-rule:nonzero;fill:rgb(12.940979%,11.764526%,11.764526%);fill-opacity:1;"
       d="M 83.347656 41.425781 L 84.347656 41.425781 L 84.347656 41.378906 C 84.175781 41.378906 84.050781 41.363281 84.050781 41.253906 C 84.050781 41.191406 84.097656 41.066406 84.113281 40.988281 L 84.628906 39.128906 C 84.644531 39.066406 84.660156 39.003906 84.628906 39.003906 C 84.597656 39.003906 84.097656 39.097656 83.941406 39.128906 L 83.941406 39.191406 L 84.144531 39.175781 C 84.175781 39.175781 84.269531 39.175781 84.269531 39.300781 C 84.269531 39.316406 84.253906 39.378906 84.253906 39.410156 L 83.753906 41.175781 C 83.707031 41.347656 83.566406 41.347656 83.347656 41.378906 Z M 83.347656 41.425781 "
       id="path28" />
    <path
       style=" stroke:none;fill-rule:nonzero;fill:rgb(12.940979%,11.764526%,11.764526%);fill-opacity:1;"
       d="M 85.378906 40.863281 C 85.378906 40.519531 85.628906 39.097656 86.160156 39.097656 C 86.472656 39.097656 86.472656 39.457031 86.472656 39.566406 C 86.472656 40.207031 86.160156 41.347656 85.691406 41.347656 C 85.566406 41.347656 85.378906 41.285156 85.378906 40.863281 Z M 86.753906 39.894531 C 86.753906 39.535156 86.660156 39.003906 86.191406 39.003906 C 85.691406 39.003906 85.082031 39.738281 85.082031 40.707031 C 85.082031 41.082031 85.285156 41.457031 85.660156 41.457031 C 86.269531 41.457031 86.753906 40.613281 86.753906 39.894531 Z M 86.753906 39.894531 "
       id="path30" />
    <path
       style="fill:none;stroke-width:0.4;stroke-linecap:round;stroke-linejoin:round;stroke:rgb(12.940979%,11.764526%,11.764526%);stroke-opacity:1;stroke-miterlimit:4;"
       d="M 11.800781 36.054688 L 87.023438 36.054688 "
       id="path32" />
    <path
       style=" stroke:none;fill-rule:nonzero;fill:rgb(12.940979%,11.764526%,11.764526%);fill-opacity:1;"
       d="M 88.441406 35.441406 C 87.449219 35.140625 86.804688 34.863281 86.007813 34.542969 L 86.007813 37.570313 C 86.292969 37.4375 87.449219 36.976563 88.441406 36.675781 C 89.503906 36.355469 90.464844 36.136719 91.089844 36.058594 C 90.464844 35.980469 89.503906 35.761719 88.441406 35.441406 "
       id="path34" />
    <path
       style="fill:none;stroke-width:0.055;stroke-linecap:round;stroke-linejoin:round;stroke:rgb(12.940979%,11.764526%,11.764526%);stroke-opacity:1;stroke-miterlimit:4;"
       d="M 11.25 60.039063 L 11.734375 60.039063 "
       id="path36" />
    <g
       clip-path="url(#clip1)"
       clip-rule="nonzero"
       id="g40">
      <path
         style=" stroke:none;fill-rule:nonzero;fill:rgb(12.940979%,11.764526%,11.764526%);fill-opacity:1;"
         d="M 6.691406 61.644531 L 8.035156 61.644531 L 8.035156 61.566406 C 7.785156 61.582031 7.613281 61.566406 7.613281 61.410156 C 7.613281 61.332031 7.675781 61.160156 7.707031 61.066406 L 8.394531 58.582031 C 8.410156 58.503906 8.441406 58.394531 8.394531 58.394531 C 8.363281 58.394531 7.691406 58.550781 7.472656 58.582031 L 7.472656 58.660156 L 7.738281 58.644531 C 7.785156 58.644531 7.925781 58.644531 7.925781 58.800781 C 7.925781 58.832031 7.910156 58.910156 7.894531 58.957031 L 7.222656 61.316406 C 7.160156 61.535156 6.972656 61.550781 6.691406 61.582031 Z M 6.691406 61.644531 "
         id="path38" />
    </g>
    <path
       style="fill:none;stroke-width:0.055;stroke-linecap:round;stroke-linejoin:round;stroke:rgb(12.940979%,11.764526%,11.764526%);stroke-opacity:1;stroke-miterlimit:4;"
       d="M 11.25 48.046875 L 11.734375 48.046875 "
       id="path42" />
    <path
       style=" stroke:none;fill-rule:nonzero;fill:rgb(12.940979%,11.764526%,11.764526%);fill-opacity:1;"
       d="M 2.988281 48.898438 C 2.988281 48.429688 3.332031 46.539063 4.050781 46.539063 C 4.457031 46.539063 4.457031 47.023438 4.457031 47.179688 C 4.457031 48.007813 4.050781 49.554688 3.410156 49.554688 C 3.253906 49.554688 2.988281 49.460938 2.988281 48.898438 Z M 4.847656 47.601563 C 4.847656 47.132813 4.707031 46.398438 4.066406 46.398438 C 3.410156 46.398438 2.613281 47.398438 2.613281 48.695313 C 2.613281 49.195313 2.878906 49.679688 3.378906 49.679688 C 4.191406 49.679688 4.847656 48.554688 4.847656 47.601563 Z M 4.847656 47.601563 "
       id="path44" />
    <path
       style=" stroke:none;fill-rule:nonzero;fill:rgb(12.940979%,11.764526%,11.764526%);fill-opacity:1;"
       d="M 5.246094 49.695313 C 5.355469 49.695313 5.511719 49.617188 5.511719 49.445313 C 5.511719 49.289063 5.386719 49.164063 5.246094 49.164063 C 5.105469 49.164063 4.980469 49.289063 4.980469 49.445313 C 4.980469 49.617188 5.152344 49.695313 5.246094 49.695313 Z M 5.246094 49.695313 "
       id="path46" />
    <path
       style=" stroke:none;fill-rule:nonzero;fill:rgb(12.940979%,11.764526%,11.764526%);fill-opacity:1;"
       d="M 7.195313 46.789063 L 8.304688 46.789063 L 8.414063 46.460938 L 7.179688 46.460938 L 6.679688 47.492188 L 6.679688 47.570313 C 7.242188 47.695313 7.726563 47.789063 7.726563 48.523438 C 7.726563 48.945313 7.382813 49.476563 6.914063 49.476563 C 6.648438 49.476563 6.539063 49.210938 6.320313 49.210938 C 6.226563 49.210938 6.132813 49.273438 6.132813 49.414063 C 6.132813 49.554688 6.273438 49.679688 6.617188 49.679688 C 7.554688 49.679688 8.070313 48.945313 8.070313 48.335938 C 8.070313 47.679688 7.632813 47.335938 7.007813 47.210938 Z M 7.195313 46.789063 "
       id="path48" />
    <path
       style="fill:none;stroke-width:0.055;stroke-linecap:round;stroke-linejoin:round;stroke:rgb(12.940979%,11.764526%,11.764526%);stroke-opacity:1;stroke-miterlimit:4;"
       d="M 11.25 24.0625 L 11.734375 24.0625 "
       id="path50" />
    <path
       style=" stroke:none;fill-rule:nonzero;fill:rgb(12.940979%,11.764526%,11.764526%);fill-opacity:1;"
       d="M 3.210938 24.914063 C 3.210938 24.445313 3.554688 22.554688 4.273438 22.554688 C 4.679688 22.554688 4.679688 23.039063 4.679688 23.195313 C 4.679688 24.023438 4.273438 25.570313 3.632813 25.570313 C 3.476563 25.570313 3.210938 25.476563 3.210938 24.914063 Z M 5.070313 23.617188 C 5.070313 23.148438 4.929688 22.414063 4.289063 22.414063 C 3.632813 22.414063 2.835938 23.414063 2.835938 24.710938 C 2.835938 25.210938 3.101563 25.695313 3.601563 25.695313 C 4.414063 25.695313 5.070313 24.570313 5.070313 23.617188 Z M 5.070313 23.617188 "
       id="path52" />
    <path
       style=" stroke:none;fill-rule:nonzero;fill:rgb(12.940979%,11.764526%,11.764526%);fill-opacity:1;"
       d="M 5.472656 25.710938 C 5.582031 25.710938 5.738281 25.632813 5.738281 25.460938 C 5.738281 25.304688 5.613281 25.179688 5.472656 25.179688 C 5.332031 25.179688 5.207031 25.304688 5.207031 25.460938 C 5.207031 25.632813 5.378906 25.710938 5.472656 25.710938 Z M 5.472656 25.710938 "
       id="path54" />
    <path
       style=" stroke:none;fill-rule:nonzero;fill:rgb(12.940979%,11.764526%,11.764526%);fill-opacity:1;"
       d="M 7.421875 22.804688 L 8.53125 22.804688 L 8.640625 22.476563 L 7.40625 22.476563 L 6.90625 23.507813 L 6.90625 23.585938 C 7.46875 23.710938 7.953125 23.804688 7.953125 24.539063 C 7.953125 24.960938 7.609375 25.492188 7.140625 25.492188 C 6.875 25.492188 6.765625 25.226563 6.546875 25.226563 C 6.453125 25.226563 6.359375 25.289063 6.359375 25.429688 C 6.359375 25.570313 6.5 25.695313 6.84375 25.695313 C 7.78125 25.695313 8.296875 24.960938 8.296875 24.351563 C 8.296875 23.695313 7.859375 23.351563 7.234375 23.226563 Z M 7.421875 22.804688 "
       id="path56" />
    <path
       style="fill:none;stroke-width:0.055;stroke-linecap:round;stroke-linejoin:round;stroke:rgb(12.940979%,11.764526%,11.764526%);stroke-opacity:1;stroke-miterlimit:4;"
       d="M 11.25 12.070313 L 11.734375 12.070313 "
       id="path58" />
    <path
       style=" stroke:none;fill-rule:nonzero;fill:rgb(12.940979%,11.764526%,11.764526%);fill-opacity:1;"
       d="M 6.914063 13.671875 L 8.257813 13.671875 L 8.257813 13.59375 C 8.007813 13.609375 7.835938 13.59375 7.835938 13.4375 C 7.835938 13.359375 7.898438 13.1875 7.929688 13.09375 L 8.617188 10.609375 C 8.632813 10.53125 8.664063 10.421875 8.617188 10.421875 C 8.585938 10.421875 7.914063 10.578125 7.695313 10.609375 L 7.695313 10.6875 L 7.960938 10.671875 C 8.007813 10.671875 8.148438 10.671875 8.148438 10.828125 C 8.148438 10.859375 8.132813 10.9375 8.117188 10.984375 L 7.445313 13.34375 C 7.382813 13.5625 7.195313 13.578125 6.914063 13.609375 Z M 6.914063 13.671875 "
       id="path60" />
    <path
       style="fill:none;stroke-width:0.055;stroke-linecap:round;stroke-linejoin:round;stroke:rgb(12.940979%,11.764526%,11.764526%);stroke-opacity:1;stroke-miterlimit:4;"
       d="M 11.25 60.039063 L 11.25 12.070313 "
       id="path62" />
    <path
       style="fill:none;stroke-width:0.073;stroke-linecap:round;stroke-linejoin:round;stroke:rgb(12.940979%,11.764526%,11.764526%);stroke-opacity:1;stroke-miterlimit:4;"
       d="M 11.25 36.054688 L 11.34375 36.054688 L 11.421875 36.039063 L 11.519531 36.027344 L 11.609375 36 L 11.769531 35.941406 L 11.945313 35.847656 L 12.140625 35.714844 L 12.34375 35.539063 L 12.710938 35.144531 L 13.441406 34.042969 L 14.25 32.449219 L 15.824219 28.757813 L 16.695313 26.890625 L 17.121094 26.144531 L 17.332031 25.84375 L 17.519531 25.609375 L 17.703125 25.417969 L 17.894531 25.265625 L 18.003906 25.199219 L 18.105469 25.152344 L 18.203125 25.121094 L 18.300781 25.105469 L 18.402344 25.101563 L 18.457031 25.105469 L 18.511719 25.117188 L 18.609375 25.144531 L 18.707031 25.183594 L 18.816406 25.246094 L 18.921875 25.328125 L 19.152344 25.5625 L 19.332031 25.800781 L 19.496094 26.070313 L 19.875 26.839844 L 20.644531 28.984375 L 22.082031 33.9375 L 22.472656 35.125 L 22.6875 35.679688 L 22.894531 36.121094 L 23.082031 36.453125 L 23.183594 36.59375 L 23.289063 36.710938 L 23.378906 36.785156 L 23.472656 36.84375 L 23.5625 36.871094 L 23.644531 36.878906 L 23.742188 36.855469 L 23.792969 36.835938 L 23.847656 36.804688 L 23.945313 36.726563 L 24.042969 36.617188 L 24.226563 36.316406 L 24.398438 35.945313 L 24.597656 35.390625 L 24.8125 34.65625 L 25.207031 32.992188 L 25.988281 28.78125 L 26.402344 26.429688 L 26.84375 24.179688 L 27.058594 23.285156 L 27.261719 22.605469 L 27.351563 22.371094 L 27.445313 22.171875 L 27.496094 22.082031 L 27.546875 22.003906 L 27.644531 21.902344 L 27.742188 21.859375 L 27.832031 21.871094 L 27.929688 21.945313 L 28.03125 22.09375 L 28.121094 22.28125 L 28.207031 22.511719 L 28.394531 23.222656 L 28.605469 24.34375 L 28.808594 25.714844 L 29.183594 29.054688 L 30.03125 39.410156 L 30.789063 49.636719 L 30.984375 52.023438 L 31.203125 54.285156 L 31.398438 56.035156 L 31.496094 56.757813 L 31.585938 57.332031 L 31.667969 57.769531 L 31.757813 58.160156 L 31.847656 58.453125 L 31.941406 58.644531 L 32.023438 58.714844 L 32.113281 58.691406 L 32.195313 58.570313 L 32.269531 58.375 L 32.359375 58.039063 L 32.445313 57.621094 L 32.636719 56.296875 L 32.820313 54.53125 L 33.019531 52.140625 L 33.769531 39.515625 L 34.5625 24.121094 L 34.976563 17.648438 L 35.09375 16.25 L 35.214844 14.972656 L 35.320313 14.058594 L 35.375 13.65625 L 35.433594 13.285156 L 35.492188 12.984375 L 35.546875 12.765625 L 35.597656 12.601563 L 35.648438 12.492188 L 35.75 12.429688 L 35.804688 12.472656 L 35.851563 12.5625 L 35.945313 12.851563 L 36.039063 13.339844 L 36.144531 14.042969 L 36.238281 14.871094 L 36.429688 17.042969 L 36.640625 20.074219 L 37.019531 26.992188 L 37.734375 41.828125 L 38.140625 49.0625 L 38.34375 51.878906 L 38.460938 53.179688 L 38.570313 54.140625 L 38.664063 54.796875 L 38.761719 55.289063 L 38.859375 55.589844 L 38.914063 55.667969 L 38.96875 55.683594 L 39.058594 55.570313 L 39.144531 55.304688 L 39.246094 54.820313 L 39.339844 54.183594 L 40.761719 32.457031 L 40.960938 29.441406 L 41.152344 27.03125 L 41.257813 25.929688 L 41.371094 24.925781 L 41.472656 24.203125 L 41.570313 23.703125 L 41.667969 23.363281 L 41.761719 23.199219 L 41.847656 23.183594 L 41.9375 23.304688 L 42.035156 23.585938 L 42.085938 23.785156 L 42.140625 24.050781 L 42.328125 25.265625 L 42.527344 27.042969 L 42.710938 28.957031 L 43.125 33.679688 "
       id="path64" />
    <path
       style="fill:none;stroke-width:0.073;stroke-linecap:round;stroke-linejoin:round;stroke:rgb(12.940979%,11.764526%,11.764526%);stroke-opacity:1;stroke-miterlimit:4;"
       d="M 43.125 33.679688 L 43.3125 35.726563 L 43.511719 37.660156 L 43.695313 39.132813 L 43.871094 40.183594 L 43.960938 40.597656 L 44.0625 40.933594 L 44.121094 41.074219 L 44.171875 41.167969 L 44.273438 41.261719 L 44.328125 41.265625 L 44.378906 41.234375 L 44.480469 41.105469 L 44.539063 40.976563 L 44.601563 40.828125 L 44.710938 40.484375 L 45.085938 38.835938 L 45.289063 37.890625 L 45.503906 36.992188 L 45.609375 36.640625 L 45.710938 36.371094 L 45.796875 36.195313 L 45.890625 36.074219 L 45.988281 36.027344 L 46.085938 36.054688 L 46.167969 36.140625 L 46.261719 36.296875 L 46.363281 36.546875 L 46.460938 36.832031 L 46.671875 37.628906 L 46.875 38.464844 L 47.0625 39.199219 L 47.222656 39.703125 L 47.3125 39.910156 L 47.394531 40.03125 L 47.484375 40.089844 L 47.578125 40.054688 L 47.675781 39.914063 L 47.757813 39.6875 L 47.84375 39.363281 L 47.925781 38.960938 L 48.113281 37.738281 L 48.292969 36.160156 L 48.492188 34.144531 L 48.871094 29.882813 L 49.082031 27.792969 L 49.183594 26.9375 L 49.277344 26.289063 L 49.332031 25.984375 L 49.390625 25.710938 L 49.449219 25.507813 L 49.515625 25.367188 L 49.5625 25.320313 L 49.625 25.332031 L 49.726563 25.550781 L 49.773438 25.765625 L 49.835938 26.074219 L 49.941406 26.84375 L 50.039063 27.847656 L 50.136719 28.988281 L 50.527344 35.421875 L 50.945313 43.792969 L 51.132813 47.289063 L 51.234375 48.925781 L 51.332031 50.214844 L 51.429688 51.179688 L 51.507813 51.839844 L 51.597656 52.3125 L 51.699219 52.496094 L 51.789063 52.347656 L 51.886719 51.855469 L 51.96875 51.15625 L 52.058594 50.101563 L 52.152344 48.644531 L 52.257813 46.734375 L 52.445313 42.496094 L 53.148438 23.308594 L 53.257813 20.875 L 53.375 18.699219 L 53.472656 17.238281 L 53.527344 16.589844 L 53.578125 16.105469 L 53.679688 15.542969 L 53.769531 15.480469 L 53.820313 15.625 L 53.875 15.925781 L 53.929688 16.394531 L 53.980469 16.972656 L 54.082031 18.445313 L 54.175781 20.253906 L 54.351563 24.632813 L 54.746094 37.539063 L 54.933594 44.050781 L 55.136719 50.398438 L 55.230469 53.019531 L 55.324219 55.148438 L 55.410156 56.730469 L 55.5 58.003906 L 55.59375 58.847656 L 55.679688 59.15625 L 55.734375 59.117188 L 55.785156 58.914063 L 55.882813 58.117188 L 55.929688 57.464844 L 55.984375 56.609375 L 56.082031 54.667969 L 56.300781 48.597656 L 56.683594 34.265625 L 56.875 26.976563 L 57.042969 20.964844 L 57.203125 16.589844 L 57.285156 14.882813 L 57.371094 13.441406 L 57.460938 12.503906 L 57.554688 12.082031 L 57.644531 12.257813 L 57.726563 12.910156 L 57.816406 14.121094 L 57.898438 15.707031 L 58.085938 20.753906 L 58.464844 35.019531 L 58.675781 43.640625 L 58.875 50.832031 L 58.964844 53.441406 L 59.058594 55.75 L 59.160156 57.679688 L 59.25 58.839844 L 59.332031 59.347656 L 59.421875 59.351563 L 59.503906 58.84375 L 59.582031 57.953125 L 59.667969 56.417969 L 59.765625 54.183594 L 59.941406 48.84375 L 60.292969 35.175781 L 60.476563 27.921875 L 60.675781 21.394531 L 60.777344 18.699219 L 60.832031 17.523438 L 60.890625 16.472656 L 60.996094 15.183594 L 61.089844 14.644531 L 61.140625 14.628906 L 61.195313 14.8125 L 61.292969 15.683594 L 61.390625 17.167969 L 61.476563 19.050781 L 61.648438 23.722656 L 61.832031 30.074219 L 62.207031 43.652344 "
       id="path66" />
    <path
       style="fill:none;stroke-width:0.073;stroke-linecap:round;stroke-linejoin:round;stroke:rgb(12.940979%,11.764526%,11.764526%);stroke-opacity:1;stroke-miterlimit:4;"
       d="M 62.210938 43.652344 L 62.320313 47.023438 L 62.421875 49.757813 L 62.515625 51.738281 L 62.613281 53.320313 L 62.671875 53.933594 L 62.722656 54.296875 L 62.785156 54.496094 L 62.84375 54.464844 L 62.941406 53.890625 L 63 53.285156 L 63.050781 52.554688 L 63.144531 50.851563 L 63.230469 48.863281 L 63.433594 43.261719 L 63.644531 36.585938 L 63.839844 30.628906 L 64.027344 25.871094 L 64.121094 24.039063 L 64.179688 23.1875 L 64.226563 22.546875 L 64.277344 22.039063 L 64.332031 21.660156 L 64.386719 21.449219 L 64.445313 21.40625 L 64.496094 21.53125 L 64.550781 21.820313 L 64.648438 22.738281 L 64.75 24.128906 L 64.859375 26.089844 L 65.050781 30.503906 L 65.226563 34.855469 L 65.417969 39.429688 L 65.507813 41.328125 L 65.605469 43.089844 L 65.6875 44.335938 L 65.78125 45.371094 L 65.835938 45.808594 L 65.886719 46.101563 L 65.980469 46.355469 L 66.070313 46.230469 L 66.167969 45.738281 L 66.253906 44.96875 L 66.351563 43.851563 L 66.53125 41.261719 L 66.859375 35.785156 L 67.042969 33.164063 L 67.144531 32.019531 L 67.238281 31.230469 L 67.328125 30.722656 L 67.421875 30.429688 L 67.511719 30.390625 L 67.597656 30.546875 L 67.691406 30.929688 L 67.78125 31.457031 L 67.988281 33.058594 L 68.191406 34.792969 L 68.304688 35.648438 L 68.40625 36.320313 L 68.5 36.800781 L 68.601563 37.15625 L 68.660156 37.28125 L 68.71875 37.351563 L 68.816406 37.355469 L 68.914063 37.238281 L 69 37.039063 L 69.195313 36.429688 L 69.289063 36.121094 L 69.390625 35.839844 L 69.449219 35.71875 L 69.503906 35.636719 L 69.554688 35.589844 L 69.605469 35.582031 L 69.660156 35.613281 L 69.714844 35.6875 L 69.8125 35.941406 L 69.875 36.171875 L 69.933594 36.429688 L 70.042969 37.019531 L 70.230469 38.253906 L 70.335938 38.945313 L 70.433594 39.53125 L 70.527344 39.972656 L 70.628906 40.28125 L 70.71875 40.378906 L 70.804688 40.289063 L 70.890625 39.988281 L 70.988281 39.40625 L 71.09375 38.53125 L 71.183594 37.476563 L 71.605469 31.417969 L 71.695313 30.195313 L 71.789063 29.035156 L 71.882813 28.183594 L 71.96875 27.652344 L 72.050781 27.410156 L 72.125 27.457031 L 72.214844 27.851563 L 72.296875 28.550781 L 72.386719 29.671875 L 72.480469 31.234375 L 72.65625 34.804688 L 72.851563 39.605469 L 73.042969 43.976563 L 73.128906 45.722656 L 73.226563 47.207031 L 73.269531 47.800781 L 73.328125 48.292969 L 73.421875 48.710938 L 73.507813 48.5625 L 73.605469 47.820313 L 73.691406 46.578125 L 73.773438 45.011719 L 73.957031 40.179688 L 74.367188 26.835938 L 74.460938 24.3125 L 74.558594 22.117188 L 74.65625 20.667969 L 74.746094 19.976563 L 74.828125 19.9375 L 74.917969 20.585938 L 75.011719 22.015625 L 75.097656 24.011719 L 75.199219 26.851563 L 75.304688 30.511719 L 75.636719 44.03125 L 75.71875 47.308594 L 75.816406 50.378906 L 75.90625 52.671875 L 75.984375 54.164063 L 76.035156 54.746094 L 76.089844 55.089844 L 76.144531 55.113281 L 76.199219 54.8125 L 76.296875 53.546875 L 76.390625 51.1875 L 76.496094 47.851563 L 76.589844 43.980469 L 76.96875 26.109375 L 77.078125 21.628906 L 77.179688 18.257813 L 77.234375 16.90625 L 77.296875 15.796875 L 77.359375 15.007813 L 77.417969 14.714844 L 77.46875 14.804688 L 77.519531 15.261719 L 77.578125 16.132813 L 77.628906 17.289063 "
       id="path68" />
    <path
       style="fill:none;stroke-width:0.073;stroke-linecap:round;stroke-linejoin:round;stroke:rgb(12.940979%,11.764526%,11.764526%);stroke-opacity:1;stroke-miterlimit:4;"
       d="M 77.628906 17.289063 L 77.996094 32.492188 L 78.195313 43.203125 L 78.378906 51.960938 L 78.476563 55.390625 L 78.53125 56.851563 L 78.582031 57.871094 L 78.636719 58.613281 L 78.695313 58.960938 L 78.75 58.839844 L 78.804688 58.339844 L 78.890625 56.609375 L 78.992188 53.507813 L 79.09375 49.121094 L 79.191406 44.171875 L 79.382813 33.195313 L 79.585938 22.214844 L 79.691406 17.652344 L 79.75 15.730469 L 79.808594 14.113281 L 79.863281 13.058594 L 79.914063 12.476563 L 80.011719 12.429688 L 80.109375 13.839844 L 80.203125 16.375 L 80.300781 20.371094 L 80.40625 25.710938 L 80.78125 47.65625 L 80.878906 52.351563 L 80.96875 55.9375 L 81.046875 58.265625 L 81.136719 59.722656 L 81.222656 59.988281 L 81.308594 59.070313 L 81.394531 57.109375 L 81.46875 54.488281 L 81.65625 45.304688 L 81.855469 33.101563 L 82.039063 23.003906 L 82.132813 18.507813 L 82.226563 15.285156 L 82.3125 13.320313 L 82.410156 12.558594 L 82.5 13.148438 L 82.582031 14.753906 L 82.65625 17.125 L 82.738281 20.59375 L 82.910156 29.628906 L 83.101563 41.046875 L 83.207031 46.871094 L 83.300781 51.53125 L 83.386719 54.710938 L 83.472656 57.097656 L 83.570313 58.382813 L 83.660156 58.238281 L 83.753906 56.785156 L 83.851563 53.8125 L 83.949219 49.875 L 84.035156 45.496094 L 84.332031 28.839844 L 84.441406 23.378906 L 84.539063 19.539063 L 84.625 17.023438 L 84.714844 15.585938 L 84.796875 15.296875 L 84.890625 16.214844 L 84.976563 18.179688 L 85.074219 21.421875 L 85.175781 25.863281 "
       id="path70" />
    <g
       clip-path="url(#clip2)"
       clip-rule="nonzero"
       id="g74">
      <path
         style=" stroke:none;fill-rule:nonzero;fill:rgb(12.940979%,11.764526%,11.764526%);fill-opacity:1;"
         d="M 95.527344 34.210938 L 94.964844 34.210938 L 95.152344 33.460938 C 95.167969 33.414063 95.152344 33.335938 95.105469 33.351563 C 95.042969 33.335938 95.011719 33.414063 94.980469 33.445313 C 94.792969 33.695313 94.433594 34.023438 94.199219 34.148438 C 94.074219 34.210938 93.871094 34.257813 93.839844 34.320313 C 93.808594 34.351563 93.808594 34.398438 93.824219 34.429688 L 94.355469 34.429688 L 93.839844 36.414063 C 93.808594 36.539063 93.667969 36.976563 93.667969 37.085938 C 93.667969 37.289063 93.871094 37.367188 94.011719 37.367188 C 94.386719 37.367188 94.667969 37.054688 95.042969 36.492188 L 94.949219 36.445313 C 94.761719 36.679688 94.511719 37.007813 94.371094 37.007813 C 94.292969 37.007813 94.246094 36.960938 94.246094 36.898438 C 94.246094 36.867188 94.246094 36.851563 94.261719 36.835938 L 94.886719 34.429688 L 95.496094 34.429688 Z M 95.527344 34.210938 "
         id="path72" />
    </g>
    <path
       style=" stroke:none;fill-rule:nonzero;fill:rgb(12.940979%,11.764526%,11.764526%);fill-opacity:1;"
       d="M 0.375 2.578125 C 0.5 2.5625 0.5625 2.546875 0.703125 2.546875 C 1.25 2.546875 1.375 2.953125 1.640625 3.828125 C 1.796875 4.34375 2.203125 6.03125 2.203125 6.390625 C 2.203125 6.65625 1.796875 7.125 1.5625 7.40625 C 1.234375 7.78125 1.109375 7.875 0.953125 7.875 C 0.78125 7.875 0.65625 7.609375 0.375 7.609375 C 0.171875 7.609375 0 7.765625 0 7.96875 C 0 8.375 0.421875 8.390625 0.5 8.390625 C 1.640625 8.390625 4.328125 3.921875 4.328125 2.78125 C 4.328125 2.4375 4.125 2.1875 3.78125 2.1875 C 3.53125 2.1875 3.421875 2.390625 3.421875 2.53125 C 3.421875 2.96875 3.9375 2.859375 3.9375 3.25 C 3.9375 3.765625 3.171875 5.0625 2.765625 5.734375 L 2.578125 4.625 C 2.453125 3.90625 1.890625 2.1875 1.765625 2.1875 C 1.59375 2.1875 0.84375 2.34375 0.375 2.421875 Z M 0.375 2.578125 "
       id="path76" />
    <path
       style=" stroke:none;fill-rule:nonzero;fill:rgb(12.940979%,11.764526%,11.764526%);fill-opacity:1;"
       d="M 4.777344 8.023438 L 6.324219 8.023438 L 6.324219 7.945313 C 6.058594 7.945313 5.855469 7.929688 5.855469 7.757813 C 5.855469 7.664063 5.917969 7.460938 5.949219 7.351563 L 6.746094 4.445313 C 6.777344 4.351563 6.808594 4.242188 6.761719 4.242188 C 6.714844 4.242188 5.933594 4.414063 5.683594 4.460938 L 5.683594 4.539063 L 5.996094 4.523438 C 6.042969 4.523438 6.214844 4.523438 6.214844 4.710938 C 6.214844 4.757813 6.183594 4.835938 6.167969 4.898438 L 5.402344 7.648438 C 5.324219 7.898438 5.105469 7.914063 4.777344 7.945313 Z M 4.777344 8.023438 "
       id="path78" />
    <path
       style=" stroke:none;fill-rule:nonzero;fill:rgb(12.940979%,11.764526%,11.764526%);fill-opacity:1;"
       d="M 8.828125 8.09375 C 8.359375 6.921875 8.359375 6.078125 8.359375 5.4375 C 8.359375 4.828125 8.53125 3.53125 8.90625 2.453125 C 9.375 1.140625 9.859375 0.625 10.3125 0.140625 L 10.1875 0 C 8.453125 1.484375 7.703125 2.984375 7.703125 4.5625 C 7.703125 5.1875 7.703125 6.578125 8.65625 8.15625 Z M 8.828125 8.09375 "
       id="path80" />
    <path
       style=" stroke:none;fill-rule:nonzero;fill:rgb(12.940979%,11.764526%,11.764526%);fill-opacity:1;"
       d="M 13.335938 2.3125 L 12.570313 2.3125 L 12.835938 1.328125 C 12.851563 1.25 12.835938 1.171875 12.773438 1.1875 C 12.679688 1.171875 12.648438 1.25 12.601563 1.296875 C 12.335938 1.640625 11.867188 2.0625 11.554688 2.234375 C 11.398438 2.3125 11.132813 2.390625 11.070313 2.46875 C 11.039063 2.515625 11.039063 2.5625 11.054688 2.625 L 11.757813 2.625 L 11.070313 5.265625 C 11.023438 5.421875 10.851563 6 10.851563 6.140625 C 10.851563 6.4375 11.117188 6.53125 11.304688 6.53125 C 11.804688 6.53125 12.179688 6.109375 12.664063 5.359375 L 12.539063 5.296875 C 12.304688 5.609375 11.976563 6.0625 11.773438 6.0625 C 11.679688 6.0625 11.617188 5.984375 11.617188 5.890625 C 11.617188 5.859375 11.617188 5.84375 11.632813 5.8125 L 12.476563 2.625 L 13.289063 2.625 Z M 13.335938 2.3125 "
       id="path82" />
    <path
       style=" stroke:none;fill-rule:nonzero;fill:rgb(12.940979%,11.764526%,11.764526%);fill-opacity:1;"
       d="M 13.445313 8.15625 C 14.867188 7 15.929688 5.421875 15.929688 3.59375 C 15.929688 2.359375 15.679688 1.125 14.992188 0 L 14.804688 0.046875 C 15.054688 0.578125 15.273438 1.53125 15.273438 2.5625 C 15.273438 3.40625 15.117188 4.546875 14.726563 5.71875 C 14.289063 6.984375 13.742188 7.5625 13.320313 8 Z M 13.445313 8.15625 "
       id="path84" />
  </g>
</svg>
