<?xml version="1.0" encoding="UTF-8" standalone="no"?>
<svg
   xmlns:dc="http://purl.org/dc/elements/1.1/"
   xmlns:cc="http://creativecommons.org/ns#"
   xmlns:rdf="http://www.w3.org/1999/02/22-rdf-syntax-ns#"
   xmlns:svg="http://www.w3.org/2000/svg"
   xmlns="http://www.w3.org/2000/svg"
   xmlns:sodipodi="http://sodipodi.sourceforge.net/DTD/sodipodi-0.dtd"
   xmlns:inkscape="http://www.inkscape.org/namespaces/inkscape"
   width="96.22966pt"
   height="59.473969pt"
   viewBox="0 0 96.22966 59.473969"
   version="1.2"
   id="svg127"
   sodipodi:docname="ica_sensed_signal_02.svg"
   inkscape:version="0.92.4 (5da689c313, 2019-01-14)">
  <metadata
     id="metadata131">
    <rdf:RDF>
      <cc:Work
         rdf:about="">
        <dc:format>image/svg+xml</dc:format>
        <dc:type
           rdf:resource="http://purl.org/dc/dcmitype/StillImage" />
        <dc:title></dc:title>
      </cc:Work>
    </rdf:RDF>
  </metadata>
  <sodipodi:namedview
     pagecolor="#ffffff"
     bordercolor="#666666"
     borderopacity="1"
     objecttolerance="10"
     gridtolerance="10"
     guidetolerance="10"
     inkscape:pageopacity="0"
     inkscape:pageshadow="2"
     inkscape:window-width="640"
     inkscape:window-height="480"
     id="namedview129"
     showgrid="false"
     inkscape:zoom="2.6810861"
     inkscape:cx="64.153107"
     inkscape:cy="39.649312"
     inkscape:window-x="0"
     inkscape:window-y="0"
     inkscape:window-maximized="0"
     inkscape:current-layer="svg127" />
  <defs
     id="defs8">
    <clipPath
       id="clip1">
      <path
         d="M 7 56 L 10 56 L 10 59.472656 L 7 59.472656 Z M 7 56 "
         id="path2" />
    </clipPath>
    <clipPath
       id="clip2">
      <path
         d="M 93 31 L 96.230469 31 L 96.230469 37 L 93 37 Z M 93 31 "
         id="path5" />
    </clipPath>
  </defs>
  <g
     id="surface36">
    <path
       style="fill:none;stroke-width:0.055;stroke-linecap:round;stroke-linejoin:round;stroke:rgb(12.940979%,11.764526%,11.764526%);stroke-opacity:1;stroke-miterlimit:4;"
       d="M 26.707031 33.890625 L 26.707031 33.402344 "
       id="path10" />
    <path
       style=" stroke:none;fill-rule:nonzero;fill:rgb(12.940979%,11.764526%,11.764526%);fill-opacity:1;"
       d="M 27.144531 38.761719 C 27.082031 38.886719 27.019531 38.996094 26.785156 38.996094 L 26.113281 38.996094 L 26.113281 38.964844 L 26.800781 38.277344 C 27.238281 37.839844 27.332031 37.667969 27.332031 37.433594 C 27.332031 37.167969 27.128906 36.839844 26.753906 36.839844 C 26.660156 36.839844 26.191406 36.839844 25.988281 37.402344 L 26.066406 37.433594 C 26.113281 37.339844 26.253906 37.089844 26.582031 37.089844 C 26.863281 37.089844 27.019531 37.308594 27.019531 37.527344 C 27.019531 37.652344 27.003906 37.855469 26.503906 38.402344 L 25.753906 39.199219 L 25.753906 39.261719 L 27.019531 39.261719 L 27.207031 38.792969 Z M 27.144531 38.761719 "
       id="path12" />
    <path
       style="fill:none;stroke-width:0.055;stroke-linecap:round;stroke-linejoin:round;stroke:rgb(12.940979%,11.764526%,11.764526%);stroke-opacity:1;stroke-miterlimit:4;"
       d="M 41.488281 33.890625 L 41.488281 33.402344 "
       id="path14" />
    <path
       style=" stroke:none;fill-rule:nonzero;fill:rgb(12.940979%,11.764526%,11.764526%);fill-opacity:1;"
       d="M 41.488281 38.402344 L 40.722656 38.402344 L 40.722656 38.386719 L 41.816406 37.246094 L 41.832031 37.246094 Z M 42.113281 38.402344 L 41.769531 38.402344 L 42.207031 36.839844 L 42.066406 36.839844 L 40.566406 38.386719 L 40.488281 38.621094 L 41.425781 38.621094 L 41.253906 39.261719 L 41.535156 39.261719 L 41.707031 38.636719 L 42.066406 38.636719 Z M 42.113281 38.402344 "
       id="path16" />
    <path
       style="fill:none;stroke-width:0.055;stroke-linecap:round;stroke-linejoin:round;stroke:rgb(12.940979%,11.764526%,11.764526%);stroke-opacity:1;stroke-miterlimit:4;"
       d="M 56.277344 33.890625 L 56.277344 33.402344 "
       id="path18" />
    <path
       style=" stroke:none;fill-rule:nonzero;fill:rgb(12.940979%,11.764526%,11.764526%);fill-opacity:1;"
       d="M 57.148438 36.792969 C 56.039063 36.871094 55.382813 37.761719 55.382813 38.511719 C 55.382813 39.089844 55.742188 39.292969 56.023438 39.292969 C 56.632813 39.292969 56.929688 38.683594 56.929688 38.324219 C 56.929688 37.808594 56.570313 37.652344 56.320313 37.652344 C 56.257813 37.652344 56.210938 37.667969 56.164063 37.683594 C 56.101563 37.683594 56.054688 37.699219 56.007813 37.730469 L 55.992188 37.730469 C 56.070313 37.542969 56.507813 36.933594 57.148438 36.855469 Z M 56.179688 37.777344 C 56.460938 37.777344 56.617188 37.964844 56.617188 38.246094 C 56.617188 38.574219 56.414063 39.199219 56.007813 39.199219 C 55.648438 39.199219 55.648438 38.792969 55.648438 38.699219 C 55.648438 38.636719 55.695313 37.777344 56.179688 37.777344 Z M 56.179688 37.777344 "
       id="path20" />
    <path
       style="fill:none;stroke-width:0.055;stroke-linecap:round;stroke-linejoin:round;stroke:rgb(12.940979%,11.764526%,11.764526%);stroke-opacity:1;stroke-miterlimit:4;"
       d="M 71.0625 33.890625 L 71.0625 33.402344 "
       id="path22" />
    <path
       style=" stroke:none;fill-rule:nonzero;fill:rgb(12.940979%,11.764526%,11.764526%);fill-opacity:1;"
       d="M 70.167969 38.699219 C 70.167969 38.808594 70.246094 39.292969 70.886719 39.292969 C 71.371094 39.292969 71.652344 38.964844 71.652344 38.652344 C 71.652344 38.371094 71.511719 38.152344 71.246094 37.886719 C 71.433594 37.824219 71.824219 37.699219 71.824219 37.339844 C 71.824219 36.949219 71.449219 36.839844 71.199219 36.839844 C 70.871094 36.839844 70.558594 37.011719 70.558594 37.371094 C 70.558594 37.558594 70.652344 37.730469 70.871094 37.964844 C 70.777344 37.996094 70.167969 38.183594 70.167969 38.699219 Z M 70.417969 38.714844 C 70.417969 38.246094 70.855469 38.058594 70.949219 38.027344 C 71.292969 38.386719 71.386719 38.480469 71.386719 38.714844 C 71.386719 39.058594 71.105469 39.214844 70.917969 39.214844 C 70.605469 39.214844 70.417969 38.996094 70.417969 38.714844 Z M 70.839844 37.308594 C 70.839844 37.074219 70.964844 36.917969 71.199219 36.917969 C 71.496094 36.917969 71.589844 37.167969 71.589844 37.339844 C 71.589844 37.636719 71.371094 37.730469 71.183594 37.824219 C 70.839844 37.511719 70.839844 37.402344 70.839844 37.308594 Z M 70.839844 37.308594 "
       id="path24" />
    <path
       style="fill:none;stroke-width:0.055;stroke-linecap:round;stroke-linejoin:round;stroke:rgb(12.940979%,11.764526%,11.764526%);stroke-opacity:1;stroke-miterlimit:4;"
       d="M 85.84375 33.890625 L 85.84375 33.402344 "
       id="path26" />
    <path
       style=" stroke:none;fill-rule:nonzero;fill:rgb(12.940979%,11.764526%,11.764526%);fill-opacity:1;"
       d="M 84.015625 39.261719 L 85.015625 39.261719 L 85.015625 39.214844 C 84.84375 39.214844 84.71875 39.199219 84.71875 39.089844 C 84.71875 39.027344 84.765625 38.902344 84.78125 38.824219 L 85.296875 36.964844 C 85.3125 36.902344 85.328125 36.839844 85.296875 36.839844 C 85.265625 36.839844 84.765625 36.933594 84.609375 36.964844 L 84.609375 37.027344 L 84.8125 37.011719 C 84.84375 37.011719 84.9375 37.011719 84.9375 37.136719 C 84.9375 37.152344 84.921875 37.214844 84.921875 37.246094 L 84.421875 39.011719 C 84.375 39.183594 84.234375 39.183594 84.015625 39.214844 Z M 84.015625 39.261719 "
       id="path28" />
    <path
       style=" stroke:none;fill-rule:nonzero;fill:rgb(12.940979%,11.764526%,11.764526%);fill-opacity:1;"
       d="M 86.050781 38.699219 C 86.050781 38.355469 86.300781 36.933594 86.832031 36.933594 C 87.144531 36.933594 87.144531 37.292969 87.144531 37.402344 C 87.144531 38.042969 86.832031 39.183594 86.363281 39.183594 C 86.238281 39.183594 86.050781 39.121094 86.050781 38.699219 Z M 87.425781 37.730469 C 87.425781 37.371094 87.332031 36.839844 86.863281 36.839844 C 86.363281 36.839844 85.753906 37.574219 85.753906 38.542969 C 85.753906 38.917969 85.957031 39.292969 86.332031 39.292969 C 86.941406 39.292969 87.425781 38.449219 87.425781 37.730469 Z M 87.425781 37.730469 "
       id="path30" />
    <path
       style="fill:none;stroke-width:0.4;stroke-linecap:round;stroke-linejoin:round;stroke:rgb(12.940979%,11.764526%,11.764526%);stroke-opacity:1;stroke-miterlimit:4;"
       d="M 12.472656 33.890625 L 87.691406 33.890625 "
       id="path32" />
    <path
       style=" stroke:none;fill-rule:nonzero;fill:rgb(12.940979%,11.764526%,11.764526%);fill-opacity:1;"
       d="M 89.109375 33.277344 C 88.117188 32.976563 87.472656 32.699219 86.675781 32.378906 L 86.675781 35.40625 C 86.960938 35.273438 88.117188 34.8125 89.109375 34.511719 C 90.171875 34.191406 91.132813 33.972656 91.757813 33.894531 C 91.132813 33.816406 90.171875 33.597656 89.109375 33.277344 "
       id="path34" />
    <path
       style="fill:none;stroke-width:0.055;stroke-linecap:round;stroke-linejoin:round;stroke:rgb(12.940979%,11.764526%,11.764526%);stroke-opacity:1;stroke-miterlimit:4;"
       d="M 11.921875 57.875 L 12.410156 57.875 "
       id="path36" />
    <path
       style=" stroke:none;fill-rule:nonzero;fill:rgb(12.940979%,11.764526%,11.764526%);fill-opacity:1;"
       d="M 6.886719 58.253906 L 5.824219 58.253906 L 5.761719 58.550781 L 6.824219 58.550781 Z M 6.886719 58.253906 "
       id="path38" />
    <g
       clip-path="url(#clip1)"
       clip-rule="nonzero"
       id="g42">
      <path
         style=" stroke:none;fill-rule:nonzero;fill:rgb(12.940979%,11.764526%,11.764526%);fill-opacity:1;"
         d="M 7.363281 59.472656 L 8.707031 59.472656 L 8.707031 59.394531 C 8.457031 59.410156 8.285156 59.394531 8.285156 59.238281 C 8.285156 59.160156 8.347656 58.988281 8.378906 58.894531 L 9.066406 56.410156 C 9.082031 56.332031 9.113281 56.222656 9.066406 56.222656 C 9.035156 56.222656 8.363281 56.378906 8.144531 56.410156 L 8.144531 56.488281 L 8.410156 56.472656 C 8.457031 56.472656 8.597656 56.472656 8.597656 56.628906 C 8.597656 56.660156 8.582031 56.738281 8.566406 56.785156 L 7.894531 59.144531 C 7.832031 59.363281 7.644531 59.378906 7.363281 59.410156 Z M 7.363281 59.472656 "
         id="path40" />
    </g>
    <path
       style="fill:none;stroke-width:0.055;stroke-linecap:round;stroke-linejoin:round;stroke:rgb(12.940979%,11.764526%,11.764526%);stroke-opacity:1;stroke-miterlimit:4;"
       d="M 11.921875 45.882813 L 12.410156 45.882813 "
       id="path44" />
    <path
       style=" stroke:none;fill-rule:nonzero;fill:rgb(12.940979%,11.764526%,11.764526%);fill-opacity:1;"
       d="M 2.886719 46.265625 L 1.824219 46.265625 L 1.761719 46.5625 L 2.824219 46.5625 Z M 2.886719 46.265625 "
       id="path46" />
    <path
       style=" stroke:none;fill-rule:nonzero;fill:rgb(12.940979%,11.764526%,11.764526%);fill-opacity:1;"
       d="M 3.660156 46.734375 C 3.660156 46.265625 4.003906 44.375 4.722656 44.375 C 5.128906 44.375 5.128906 44.859375 5.128906 45.015625 C 5.128906 45.84375 4.722656 47.390625 4.082031 47.390625 C 3.925781 47.390625 3.660156 47.296875 3.660156 46.734375 Z M 5.519531 45.4375 C 5.519531 44.96875 5.378906 44.234375 4.738281 44.234375 C 4.082031 44.234375 3.285156 45.234375 3.285156 46.53125 C 3.285156 47.03125 3.550781 47.515625 4.050781 47.515625 C 4.863281 47.515625 5.519531 46.390625 5.519531 45.4375 Z M 5.519531 45.4375 "
       id="path48" />
    <path
       style=" stroke:none;fill-rule:nonzero;fill:rgb(12.940979%,11.764526%,11.764526%);fill-opacity:1;"
       d="M 5.917969 47.53125 C 6.027344 47.53125 6.183594 47.453125 6.183594 47.28125 C 6.183594 47.125 6.058594 47 5.917969 47 C 5.777344 47 5.652344 47.125 5.652344 47.28125 C 5.652344 47.453125 5.824219 47.53125 5.917969 47.53125 Z M 5.917969 47.53125 "
       id="path50" />
    <path
       style=" stroke:none;fill-rule:nonzero;fill:rgb(12.940979%,11.764526%,11.764526%);fill-opacity:1;"
       d="M 7.867188 44.625 L 8.976563 44.625 L 9.085938 44.296875 L 7.851563 44.296875 L 7.351563 45.328125 L 7.351563 45.40625 C 7.914063 45.53125 8.398438 45.625 8.398438 46.359375 C 8.398438 46.78125 8.054688 47.3125 7.585938 47.3125 C 7.320313 47.3125 7.210938 47.046875 6.992188 47.046875 C 6.898438 47.046875 6.804688 47.109375 6.804688 47.25 C 6.804688 47.390625 6.945313 47.515625 7.289063 47.515625 C 8.226563 47.515625 8.742188 46.78125 8.742188 46.171875 C 8.742188 45.515625 8.304688 45.171875 7.679688 45.046875 Z M 7.867188 44.625 "
       id="path52" />
    <path
       style="fill:none;stroke-width:0.055;stroke-linecap:round;stroke-linejoin:round;stroke:rgb(12.940979%,11.764526%,11.764526%);stroke-opacity:1;stroke-miterlimit:4;"
       d="M 11.921875 21.898438 L 12.410156 21.898438 "
       id="path54" />
    <path
       style=" stroke:none;fill-rule:nonzero;fill:rgb(12.940979%,11.764526%,11.764526%);fill-opacity:1;"
       d="M 3.882813 22.746094 C 3.882813 22.277344 4.226563 20.386719 4.945313 20.386719 C 5.351563 20.386719 5.351563 20.871094 5.351563 21.027344 C 5.351563 21.855469 4.945313 23.402344 4.304688 23.402344 C 4.148438 23.402344 3.882813 23.308594 3.882813 22.746094 Z M 5.742188 21.449219 C 5.742188 20.980469 5.601563 20.246094 4.960938 20.246094 C 4.304688 20.246094 3.507813 21.246094 3.507813 22.542969 C 3.507813 23.042969 3.773438 23.527344 4.273438 23.527344 C 5.085938 23.527344 5.742188 22.402344 5.742188 21.449219 Z M 5.742188 21.449219 "
       id="path56" />
    <path
       style=" stroke:none;fill-rule:nonzero;fill:rgb(12.940979%,11.764526%,11.764526%);fill-opacity:1;"
       d="M 6.144531 23.542969 C 6.253906 23.542969 6.410156 23.464844 6.410156 23.292969 C 6.410156 23.136719 6.285156 23.011719 6.144531 23.011719 C 6.003906 23.011719 5.878906 23.136719 5.878906 23.292969 C 5.878906 23.464844 6.050781 23.542969 6.144531 23.542969 Z M 6.144531 23.542969 "
       id="path58" />
    <path
       style=" stroke:none;fill-rule:nonzero;fill:rgb(12.940979%,11.764526%,11.764526%);fill-opacity:1;"
       d="M 8.09375 20.636719 L 9.203125 20.636719 L 9.3125 20.308594 L 8.078125 20.308594 L 7.578125 21.339844 L 7.578125 21.417969 C 8.140625 21.542969 8.625 21.636719 8.625 22.371094 C 8.625 22.792969 8.28125 23.324219 7.8125 23.324219 C 7.546875 23.324219 7.4375 23.058594 7.21875 23.058594 C 7.125 23.058594 7.03125 23.121094 7.03125 23.261719 C 7.03125 23.402344 7.171875 23.527344 7.515625 23.527344 C 8.453125 23.527344 8.96875 22.792969 8.96875 22.183594 C 8.96875 21.527344 8.53125 21.183594 7.90625 21.058594 Z M 8.09375 20.636719 "
       id="path60" />
    <path
       style="fill:none;stroke-width:0.055;stroke-linecap:round;stroke-linejoin:round;stroke:rgb(12.940979%,11.764526%,11.764526%);stroke-opacity:1;stroke-miterlimit:4;"
       d="M 11.921875 9.90625 L 12.410156 9.90625 "
       id="path62" />
    <path
       style=" stroke:none;fill-rule:nonzero;fill:rgb(12.940979%,11.764526%,11.764526%);fill-opacity:1;"
       d="M 7.585938 11.503906 L 8.929688 11.503906 L 8.929688 11.425781 C 8.679688 11.441406 8.507813 11.425781 8.507813 11.269531 C 8.507813 11.191406 8.570313 11.019531 8.601563 10.925781 L 9.289063 8.441406 C 9.304688 8.363281 9.335938 8.253906 9.289063 8.253906 C 9.257813 8.253906 8.585938 8.410156 8.367188 8.441406 L 8.367188 8.519531 L 8.632813 8.503906 C 8.679688 8.503906 8.820313 8.503906 8.820313 8.660156 C 8.820313 8.691406 8.804688 8.769531 8.789063 8.816406 L 8.117188 11.175781 C 8.054688 11.394531 7.867188 11.410156 7.585938 11.441406 Z M 7.585938 11.503906 "
       id="path64" />
    <path
       style="fill:none;stroke-width:0.055;stroke-linecap:round;stroke-linejoin:round;stroke:rgb(12.940979%,11.764526%,11.764526%);stroke-opacity:1;stroke-miterlimit:4;"
       d="M 11.921875 57.875 L 11.921875 9.90625 "
       id="path66" />
    <path
       style="fill:none;stroke-width:0.073;stroke-linecap:round;stroke-linejoin:round;stroke:rgb(12.940979%,11.764526%,11.764526%);stroke-opacity:1;stroke-miterlimit:4;"
       d="M 11.921875 33.890625 L 12.285156 28.269531 L 12.457031 25.964844 L 12.621094 24.171875 L 12.710938 23.359375 L 12.8125 22.660156 L 12.902344 22.195313 L 12.988281 21.921875 L 13.078125 21.792969 L 13.179688 21.855469 L 13.230469 21.96875 L 13.285156 22.148438 L 13.382813 22.621094 L 13.484375 23.308594 L 13.578125 24.117188 L 13.792969 26.453125 L 14.1875 31.894531 L 14.539063 36.972656 L 14.726563 39.277344 L 14.921875 41.214844 L 15.027344 41.992188 L 15.082031 42.320313 L 15.144531 42.605469 L 15.199219 42.800781 L 15.25 42.925781 L 15.347656 43.019531 L 15.445313 42.902344 L 15.503906 42.746094 L 15.554688 42.542969 L 15.652344 42.035156 L 15.75 41.292969 L 15.9375 39.46875 L 16.109375 37.277344 L 16.503906 31.191406 L 16.898438 24.90625 L 17.113281 22 L 17.316406 19.890625 L 17.421875 19.0625 L 17.476563 18.71875 L 17.535156 18.414063 L 17.597656 18.15625 L 17.660156 17.992188 L 17.71875 17.90625 L 17.773438 17.890625 L 17.871094 18.011719 L 17.921875 18.167969 L 17.976563 18.367188 L 18.082031 18.925781 L 18.191406 19.742188 L 18.390625 21.683594 L 18.597656 24.296875 L 19.191406 32.722656 L 19.417969 35.585938 L 19.523438 36.699219 L 19.636719 37.695313 L 19.738281 38.449219 L 19.835938 38.96875 L 19.933594 39.335938 L 19.984375 39.464844 L 20.039063 39.53125 L 20.128906 39.535156 L 20.226563 39.367188 L 20.277344 39.207031 L 20.332031 38.976563 L 20.449219 38.34375 L 20.554688 37.574219 L 20.652344 36.703125 L 21.398438 27.882813 L 21.570313 25.839844 L 21.761719 23.996094 L 21.871094 23.144531 L 21.96875 22.523438 L 22.066406 22.066406 L 22.160156 21.792969 L 22.257813 21.679688 L 22.308594 21.6875 L 22.363281 21.75 L 22.457031 22 L 22.546875 22.382813 L 22.652344 23.023438 L 22.75 23.773438 L 22.964844 25.976563 L 23.660156 35.769531 L 23.84375 38.324219 L 24.042969 40.726563 L 24.136719 41.660156 L 24.230469 42.511719 L 24.3125 43.121094 L 24.402344 43.636719 L 24.492188 44.011719 L 24.578125 44.21875 L 24.675781 44.28125 L 24.769531 44.164063 L 24.867188 43.847656 L 24.921875 43.582031 L 24.972656 43.289063 L 25.167969 41.726563 L 25.335938 39.941406 L 25.515625 37.570313 L 26.285156 25.933594 L 26.503906 23.136719 L 26.613281 21.992188 L 26.710938 21.09375 L 26.816406 20.359375 L 26.910156 19.851563 L 26.960938 19.628906 L 27.011719 19.46875 L 27.0625 19.347656 L 27.121094 19.273438 L 27.214844 19.285156 L 27.316406 19.46875 L 27.398438 19.761719 L 27.492188 20.226563 L 30.628906 33.453125 L 30.804688 32.5625 L 30.898438 32.179688 L 30.996094 31.859375 L 31.078125 31.652344 L 31.171875 31.527344 L 31.253906 31.5 L 31.332031 31.558594 L 31.421875 31.730469 L 31.503906 31.980469 L 31.597656 32.382813 L 31.6875 32.875 L 31.875 34.25 L 32.078125 36.203125 L 32.503906 41.277344 L 32.898438 46.011719 L 33.085938 47.894531 L 33.265625 49.226563 L 33.355469 49.707031 L 33.449219 50.066406 L 33.503906 50.191406 L 33.554688 50.257813 L 33.652344 50.234375 L 33.707031 50.132813 L 33.757813 49.984375 L 33.851563 49.5625 L 33.953125 48.894531 L 34.0625 47.933594 L 34.261719 45.578125 L 34.441406 42.792969 L 35.304688 25.480469 L 35.496094 21.839844 L 35.695313 18.488281 L 35.792969 17.121094 L 35.886719 16.007813 "
       id="path68" />
    <path
       style="fill:none;stroke-width:0.073;stroke-linecap:round;stroke-linejoin:round;stroke:rgb(12.940979%,11.764526%,11.764526%);stroke-opacity:1;stroke-miterlimit:4;"
       d="M 35.886719 16.007813 L 35.972656 15.164063 L 36.0625 14.449219 L 36.160156 13.898438 L 36.246094 13.59375 L 36.34375 13.484375 L 36.394531 13.523438 L 36.445313 13.628906 L 36.5 13.8125 L 36.550781 14.050781 L 36.648438 14.675781 L 36.75 15.59375 L 36.863281 16.867188 L 37.0625 19.691406 L 37.277344 23.457031 L 38.011719 38.316406 L 38.195313 41.601563 L 38.394531 44.582031 L 38.503906 45.964844 L 38.605469 47.019531 L 38.707031 47.855469 L 38.804688 48.441406 L 38.855469 48.675781 L 38.914063 48.855469 L 39.011719 49.007813 L 39.066406 48.996094 L 39.121094 48.925781 L 39.175781 48.785156 L 39.238281 48.554688 L 39.332031 48.054688 L 39.4375 47.320313 L 39.648438 45.300781 L 40.019531 40.421875 L 40.394531 34.910156 L 40.59375 32.183594 L 40.800781 29.667969 L 40.984375 27.902344 L 41.082031 27.160156 L 41.1875 26.519531 L 41.28125 26.085938 L 41.371094 25.816406 L 41.457031 25.667969 L 41.539063 25.640625 L 41.644531 25.753906 L 41.699219 25.886719 L 41.75 26.042969 L 41.855469 26.457031 L 41.949219 26.964844 L 42.160156 28.441406 L 42.394531 30.421875 L 42.792969 34.125 L 42.988281 35.757813 L 43.164063 37 L 43.253906 37.503906 L 43.347656 37.957031 L 43.441406 38.289063 L 43.523438 38.507813 L 43.609375 38.648438 L 43.707031 38.6875 L 43.8125 38.605469 L 43.90625 38.414063 L 44.003906 38.101563 L 44.109375 37.660156 L 44.296875 36.605469 L 44.714844 33.449219 L 45.09375 30.5 L 45.203125 29.773438 L 45.304688 29.175781 L 45.398438 28.71875 L 45.496094 28.332031 L 45.550781 28.167969 L 45.609375 28.035156 L 45.710938 27.894531 L 45.769531 27.875 L 45.828125 27.90625 L 45.886719 27.980469 L 45.941406 28.085938 L 46.042969 28.398438 L 46.097656 28.632813 L 46.152344 28.886719 L 46.351563 30.160156 L 47.046875 37.003906 L 47.414063 40.570313 L 47.597656 41.910156 L 47.703125 42.476563 L 47.796875 42.855469 L 47.855469 43.007813 L 47.90625 43.101563 L 48.003906 43.144531 L 48.0625 43.09375 L 48.113281 42.996094 L 48.167969 42.835938 L 48.226563 42.605469 L 48.324219 42.089844 L 48.414063 41.457031 L 48.621094 39.519531 L 48.996094 34.652344 L 49.398438 28.640625 L 49.59375 25.941406 L 49.703125 24.648438 L 49.804688 23.589844 L 49.898438 22.765625 L 49.949219 22.402344 L 50 22.074219 L 50.09375 21.644531 L 50.179688 21.425781 L 50.285156 21.398438 L 50.339844 21.496094 L 50.394531 21.652344 L 50.492188 22.152344 L 50.589844 22.855469 L 50.703125 23.941406 L 50.804688 25.191406 L 51.039063 28.757813 L 51.421875 36.066406 L 51.628906 39.996094 L 51.84375 43.710938 L 52.03125 46.328125 L 52.136719 47.449219 L 52.234375 48.222656 L 52.328125 48.683594 L 52.410156 48.882813 L 52.503906 48.84375 L 52.597656 48.542969 L 52.679688 48.035156 L 52.773438 47.222656 L 52.867188 46.113281 L 52.957031 44.84375 L 53.292969 38.5625 L 53.679688 29.746094 L 53.871094 25.621094 L 54.042969 22.332031 L 54.148438 20.777344 L 54.238281 19.625 L 54.339844 18.652344 L 54.398438 18.265625 L 54.449219 18 L 54.539063 17.78125 L 54.625 17.851563 L 54.71875 18.230469 L 54.816406 18.964844 L 54.914063 20.039063 L 55.023438 21.539063 L 55.210938 25.011719 L 55.644531 35.085938 L 56.027344 43.589844 L 56.121094 45.214844 L 56.222656 46.683594 L 56.28125 47.375 L 56.332031 47.914063 "
       id="path70" />
    <path
       style="fill:none;stroke-width:0.073;stroke-linecap:round;stroke-linejoin:round;stroke:rgb(12.940979%,11.764526%,11.764526%);stroke-opacity:1;stroke-miterlimit:4;"
       d="M 56.332031 47.914063 L 56.382813 48.332031 L 56.4375 48.683594 L 56.496094 48.933594 L 56.546875 49.0625 L 56.609375 49.074219 L 56.664063 48.957031 L 56.71875 48.734375 L 56.777344 48.371094 L 56.832031 47.917969 L 56.882813 47.410156 L 57.085938 44.617188 L 57.296875 40.585938 L 57.65625 32.675781 L 57.855469 28.578125 L 58.042969 25.367188 L 58.148438 23.957031 L 58.203125 23.351563 L 58.261719 22.816406 L 58.3125 22.457031 L 58.367188 22.160156 L 58.464844 21.890625 L 58.5625 21.949219 L 58.617188 22.121094 L 58.667969 22.367188 L 58.761719 23.027344 L 58.859375 23.996094 L 59.597656 35.757813 L 59.703125 37.28125 L 59.8125 38.714844 L 59.910156 39.75 L 59.964844 40.214844 L 60.015625 40.582031 L 60.109375 41.078125 L 60.210938 41.34375 L 60.296875 41.335938 L 60.390625 41.09375 L 60.484375 40.621094 L 60.574219 40 L 60.773438 38.058594 L 61.136719 33.660156 L 61.304688 31.777344 L 61.464844 30.390625 L 61.554688 29.835938 L 61.648438 29.4375 L 61.734375 29.269531 L 61.816406 29.277344 L 61.914063 29.503906 L 62.003906 29.929688 L 62.089844 30.46875 L 62.179688 31.214844 L 62.570313 35.519531 L 62.75 37.523438 L 62.847656 38.480469 L 62.941406 39.234375 L 63.019531 39.746094 L 63.101563 40.136719 L 63.195313 40.371094 L 63.277344 40.375 L 63.371094 40.152344 L 63.472656 39.644531 L 63.566406 38.921875 L 63.652344 38.074219 L 63.863281 35.371094 L 64.0625 32.304688 L 64.25 29.285156 L 64.457031 26.5 L 64.5625 25.363281 L 64.617188 24.875 L 64.679688 24.453125 L 64.734375 24.160156 L 64.785156 23.976563 L 64.882813 23.855469 L 64.984375 24.066406 L 65.078125 24.574219 L 65.164063 25.269531 L 65.253906 26.265625 L 65.460938 29.265625 L 65.648438 32.648438 L 65.828125 36.007813 L 66.019531 39.382813 L 66.195313 41.964844 L 66.28125 42.957031 L 66.359375 43.6875 L 66.457031 44.289063 L 66.554688 44.625 L 66.644531 44.644531 L 66.734375 44.40625 L 66.835938 43.851563 L 66.929688 43.074219 L 67.035156 41.976563 L 67.144531 40.558594 L 67.574219 34.046875 L 67.785156 31.101563 L 67.972656 28.980469 L 68.066406 28.167969 L 68.167969 27.496094 L 68.261719 27.046875 L 68.351563 26.792969 L 68.445313 26.683594 L 68.5 26.683594 L 68.546875 26.730469 L 68.648438 26.921875 L 68.703125 27.085938 L 68.753906 27.265625 L 68.964844 28.222656 L 69.195313 29.484375 L 69.609375 31.820313 L 70.351563 36.308594 L 70.746094 39.132813 L 70.855469 39.828125 L 70.96875 40.453125 L 71.066406 40.867188 L 71.121094 41.042969 L 71.167969 41.164063 L 71.21875 41.234375 L 71.273438 41.261719 L 71.371094 41.160156 L 71.464844 40.867188 L 71.554688 40.417969 L 71.648438 39.746094 L 71.75 38.789063 L 71.960938 36.273438 L 72.347656 30.707031 L 72.519531 28.558594 L 72.609375 27.625 L 72.707031 26.851563 L 72.761719 26.5 L 72.8125 26.265625 L 72.914063 26.027344 L 73.015625 26.105469 L 73.109375 26.460938 L 73.164063 26.769531 L 73.21875 27.179688 L 73.320313 28.097656 L 73.546875 30.792969 L 73.761719 33.558594 L 73.863281 34.796875 L 73.960938 35.785156 L 74.046875 36.507813 L 74.140625 37.058594 L 74.234375 37.371094 L 74.335938 37.417969 L 74.429688 37.191406 L 74.519531 36.769531 L 74.613281 36.101563 L 74.714844 35.21875 L 74.890625 33.496094 L 75.074219 31.742188 L 75.175781 30.984375 L 75.269531 30.519531 "
       id="path72" />
    <path
       style="fill:none;stroke-width:0.073;stroke-linecap:round;stroke-linejoin:round;stroke:rgb(12.940979%,11.764526%,11.764526%);stroke-opacity:1;stroke-miterlimit:4;"
       d="M 75.269531 30.519531 L 75.363281 30.304688 L 75.449219 30.371094 L 75.5 30.53125 L 75.554688 30.796875 L 75.648438 31.523438 L 75.75 32.644531 L 75.863281 34.214844 L 76.21875 40.328125 L 76.320313 41.957031 L 76.417969 43.25 L 76.503906 44.128906 L 76.597656 44.714844 L 76.679688 44.855469 L 76.773438 44.59375 L 76.867188 43.832031 L 76.957031 42.660156 L 77.039063 41.203125 L 77.113281 39.582031 L 77.289063 35.152344 L 77.652344 24.660156 L 77.757813 22.160156 L 77.859375 20.289063 L 77.949219 19.105469 L 78.046875 18.414063 L 78.128906 18.359375 L 78.222656 18.894531 L 78.320313 20.109375 L 78.414063 21.804688 L 78.578125 25.9375 L 78.753906 31.371094 L 78.957031 37.871094 L 79.066406 40.886719 L 79.125 42.324219 L 79.183594 43.503906 L 79.238281 44.453125 L 79.292969 45.273438 L 79.394531 46.152344 L 79.496094 46.300781 L 79.59375 45.785156 L 79.683594 44.714844 L 79.769531 43.277344 L 79.964844 38.871094 L 80.167969 33.621094 L 80.261719 31.480469 L 80.359375 29.441406 L 80.457031 27.902344 L 80.546875 26.957031 L 80.644531 26.539063 L 80.699219 26.578125 L 80.75 26.785156 L 80.847656 27.664063 L 80.902344 28.417969 L 80.953125 29.269531 L 81.171875 33.953125 L 81.363281 38.605469 L 81.457031 40.664063 L 81.542969 42.257813 L 81.644531 43.605469 L 81.695313 44.0625 L 81.75 44.339844 L 81.84375 44.304688 L 81.941406 43.566406 L 82.035156 42.160156 L 82.128906 40.25 L 82.296875 35.492188 L 82.5 28.972656 L 82.683594 23.332031 L 82.769531 21.28125 L 82.84375 19.746094 L 82.9375 18.535156 L 83.019531 18.015625 L 83.109375 18.109375 L 83.191406 18.832031 L 83.285156 20.289063 L 83.378906 22.507813 L 83.695313 32.894531 L 83.851563 38.355469 L 83.996094 42.667969 L 84.078125 44.566406 L 84.164063 46.082031 L 84.246094 47.035156 L 84.34375 47.382813 L 84.417969 47.125 L 84.503906 46.320313 L 84.582031 45.109375 L 84.65625 43.675781 L 84.945313 36.167969 L 85.101563 32.238281 L 85.1875 30.425781 L 85.265625 29.050781 L 85.339844 28.09375 L 85.421875 27.480469 L 85.496094 27.316406 L 85.566406 27.5 L 85.628906 27.949219 L 85.703125 28.726563 L 85.773438 29.8125 L 85.84375 31.027344 "
       id="path74" />
    <g
       clip-path="url(#clip2)"
       clip-rule="nonzero"
       id="g78">
      <path
         style=" stroke:none;fill-rule:nonzero;fill:rgb(12.940979%,11.764526%,11.764526%);fill-opacity:1;"
         d="M 96.230469 32.179688 L 95.464844 32.179688 L 95.730469 31.195313 C 95.746094 31.117188 95.730469 31.039063 95.667969 31.054688 C 95.574219 31.039063 95.542969 31.117188 95.496094 31.164063 C 95.230469 31.507813 94.761719 31.929688 94.449219 32.101563 C 94.292969 32.179688 94.027344 32.257813 93.964844 32.335938 C 93.933594 32.382813 93.933594 32.429688 93.949219 32.492188 L 94.652344 32.492188 L 93.964844 35.132813 C 93.917969 35.289063 93.746094 35.867188 93.746094 36.007813 C 93.746094 36.304688 94.011719 36.398438 94.199219 36.398438 C 94.699219 36.398438 95.074219 35.976563 95.558594 35.226563 L 95.433594 35.164063 C 95.199219 35.476563 94.871094 35.929688 94.667969 35.929688 C 94.574219 35.929688 94.511719 35.851563 94.511719 35.757813 C 94.511719 35.726563 94.511719 35.710938 94.527344 35.679688 L 95.371094 32.492188 L 96.183594 32.492188 Z M 96.230469 32.179688 "
         id="path76" />
    </g>
    <path
       style=" stroke:none;fill-rule:nonzero;fill:rgb(12.940979%,11.764526%,11.764526%);fill-opacity:1;"
       d="M 0.1875 5.015625 L 0 6.546875 L 0.15625 6.546875 C 0.203125 6.4375 0.25 6.34375 0.375 6.34375 C 0.65625 6.34375 1.046875 6.53125 1.328125 6.53125 C 1.875 6.53125 2.765625 6.28125 2.765625 5.234375 C 2.765625 4.421875 1.59375 3.578125 1.59375 2.96875 C 1.59375 2.5 1.890625 2.40625 2.109375 2.40625 C 2.734375 2.40625 2.96875 2.96875 3.015625 3.515625 L 3.15625 3.515625 L 3.359375 2.1875 L 3.21875 2.1875 C 3.171875 2.265625 3.109375 2.359375 2.953125 2.359375 C 2.671875 2.359375 2.46875 2.1875 2.046875 2.1875 C 1.03125 2.1875 0.890625 2.953125 0.890625 3.25 C 0.890625 4 2.03125 4.921875 2.03125 5.546875 C 2.03125 5.859375 1.875 6.328125 1.34375 6.328125 C 0.5625 6.328125 0.40625 5.4375 0.34375 5.015625 Z M 0.1875 5.015625 "
       id="path80" />
    <path
       style=" stroke:none;fill-rule:nonzero;fill:rgb(12.940979%,11.764526%,11.764526%);fill-opacity:1;"
       d="M 5.8125 7.242188 C 5.71875 7.445313 5.625 7.601563 5.265625 7.601563 L 4.203125 7.601563 L 4.203125 7.570313 L 5.265625 6.492188 C 5.96875 5.804688 6.109375 5.554688 6.109375 5.179688 C 6.109375 4.757813 5.796875 4.242188 5.203125 4.242188 C 5.0625 4.242188 4.328125 4.257813 4.03125 5.132813 L 4.140625 5.179688 C 4.21875 5.039063 4.4375 4.648438 4.9375 4.648438 C 5.375 4.648438 5.625 4.992188 5.625 5.335938 C 5.625 5.523438 5.609375 5.835938 4.8125 6.679688 L 3.640625 7.929688 L 3.640625 8.023438 L 5.625 8.023438 L 5.90625 7.289063 Z M 5.8125 7.242188 "
       id="path82" />
    <path
       style=" stroke:none;fill-rule:nonzero;fill:rgb(12.940979%,11.764526%,11.764526%);fill-opacity:1;"
       d="M 7.910156 8.09375 C 7.441406 6.921875 7.441406 6.078125 7.441406 5.4375 C 7.441406 4.828125 7.613281 3.53125 7.988281 2.453125 C 8.457031 1.140625 8.941406 0.625 9.394531 0.140625 L 9.269531 0 C 7.535156 1.484375 6.785156 2.984375 6.785156 4.5625 C 6.785156 5.1875 6.785156 6.578125 7.738281 8.15625 Z M 7.910156 8.09375 "
       id="path84" />
    <path
       style=" stroke:none;fill-rule:nonzero;fill:rgb(12.940979%,11.764526%,11.764526%);fill-opacity:1;"
       d="M 12.417969 2.3125 L 11.652344 2.3125 L 11.917969 1.328125 C 11.933594 1.25 11.917969 1.171875 11.855469 1.1875 C 11.761719 1.171875 11.730469 1.25 11.683594 1.296875 C 11.417969 1.640625 10.949219 2.0625 10.636719 2.234375 C 10.480469 2.3125 10.214844 2.390625 10.152344 2.46875 C 10.121094 2.515625 10.121094 2.5625 10.136719 2.625 L 10.839844 2.625 L 10.152344 5.265625 C 10.105469 5.421875 9.933594 6 9.933594 6.140625 C 9.933594 6.4375 10.199219 6.53125 10.386719 6.53125 C 10.886719 6.53125 11.261719 6.109375 11.746094 5.359375 L 11.621094 5.296875 C 11.386719 5.609375 11.058594 6.0625 10.855469 6.0625 C 10.761719 6.0625 10.699219 5.984375 10.699219 5.890625 C 10.699219 5.859375 10.699219 5.84375 10.714844 5.8125 L 11.558594 2.625 L 12.371094 2.625 Z M 12.417969 2.3125 "
       id="path86" />
    <path
       style=" stroke:none;fill-rule:nonzero;fill:rgb(12.940979%,11.764526%,11.764526%);fill-opacity:1;"
       d="M 12.523438 8.15625 C 13.945313 7 15.007813 5.421875 15.007813 3.59375 C 15.007813 2.359375 14.757813 1.125 14.070313 0 L 13.882813 0.046875 C 14.132813 0.578125 14.351563 1.53125 14.351563 2.5625 C 14.351563 3.40625 14.195313 4.546875 13.804688 5.71875 C 13.367188 6.984375 12.820313 7.5625 12.398438 8 Z M 12.523438 8.15625 "
       id="path88" />
    <path
       style=" stroke:none;fill-rule:nonzero;fill:rgb(12.940979%,11.764526%,11.764526%);fill-opacity:1;"
       d="M 23.496094 2.71875 L 18.667969 2.71875 L 18.667969 3.359375 L 23.496094 3.359375 Z M 23.496094 4.640625 L 18.667969 4.640625 L 18.667969 5.265625 L 23.496094 5.265625 Z M 23.496094 4.640625 "
       id="path90" />
    <path
       style=" stroke:none;fill-rule:nonzero;fill:rgb(12.940979%,11.764526%,11.764526%);fill-opacity:1;"
       d="M 31.175781 5.359375 C 30.738281 5.78125 30.550781 6.03125 30.410156 6.03125 C 30.332031 6.03125 30.269531 5.96875 30.269531 5.90625 C 30.269531 5.609375 31.160156 2.328125 31.191406 2.21875 L 31.113281 2.1875 L 30.535156 2.265625 L 30.503906 2.28125 L 30.410156 2.703125 L 30.394531 2.703125 C 30.363281 2.4375 30.035156 2.1875 29.628906 2.1875 C 28.347656 2.1875 26.878906 3.984375 26.878906 5.390625 C 26.878906 5.671875 26.910156 6.53125 27.878906 6.53125 C 28.457031 6.53125 28.957031 6.234375 29.753906 5.0625 L 29.769531 5.09375 C 29.613281 5.671875 29.566406 5.890625 29.566406 6.109375 C 29.566406 6.265625 29.566406 6.515625 29.972656 6.515625 C 30.394531 6.515625 30.707031 6.171875 31.285156 5.46875 Z M 27.691406 5.375 C 27.691406 4.515625 28.550781 2.40625 29.675781 2.40625 C 29.957031 2.40625 30.222656 2.578125 30.222656 3.046875 C 30.222656 3.984375 29.285156 6.0625 28.269531 6.0625 C 28.003906 6.0625 27.691406 5.890625 27.691406 5.375 Z M 27.691406 5.375 "
       id="path92" />
    <path
       style=" stroke:none;fill-rule:nonzero;fill:rgb(12.940979%,11.764526%,11.764526%);fill-opacity:1;"
       d="M 33.753906 7.242188 C 33.660156 7.445313 33.566406 7.601563 33.207031 7.601563 L 32.144531 7.601563 L 32.144531 7.570313 L 33.207031 6.492188 C 33.910156 5.804688 34.050781 5.554688 34.050781 5.179688 C 34.050781 4.757813 33.738281 4.242188 33.144531 4.242188 C 33.003906 4.242188 32.269531 4.257813 31.972656 5.132813 L 32.082031 5.179688 C 32.160156 5.039063 32.378906 4.648438 32.878906 4.648438 C 33.316406 4.648438 33.566406 4.992188 33.566406 5.335938 C 33.566406 5.523438 33.550781 5.835938 32.753906 6.679688 L 31.582031 7.929688 L 31.582031 8.023438 L 33.566406 8.023438 L 33.847656 7.289063 Z M 33.753906 7.242188 "
       id="path94" />
    <path
       style=" stroke:none;fill-rule:nonzero;fill:rgb(12.940979%,11.764526%,11.764526%);fill-opacity:1;"
       d="M 34.601563 8.023438 L 36.148438 8.023438 L 36.148438 7.945313 C 35.882813 7.945313 35.679688 7.929688 35.679688 7.757813 C 35.679688 7.664063 35.742188 7.460938 35.773438 7.351563 L 36.570313 4.445313 C 36.601563 4.351563 36.632813 4.242188 36.585938 4.242188 C 36.539063 4.242188 35.757813 4.414063 35.507813 4.460938 L 35.507813 4.539063 L 35.820313 4.523438 C 35.867188 4.523438 36.039063 4.523438 36.039063 4.710938 C 36.039063 4.757813 36.007813 4.835938 35.992188 4.898438 L 35.226563 7.648438 C 35.148438 7.898438 34.929688 7.914063 34.601563 7.945313 Z M 34.601563 8.023438 "
       id="path96" />
    <path
       style=" stroke:none;fill-rule:nonzero;fill:rgb(12.940979%,11.764526%,11.764526%);fill-opacity:1;"
       d="M 40.980469 5.359375 C 40.714844 5.640625 40.527344 6 40.324219 6 C 40.136719 6 40.058594 5.765625 40.027344 5.609375 C 39.964844 5.359375 39.636719 4.0625 39.636719 3.890625 C 39.636719 3.890625 40.292969 2.734375 40.574219 2.734375 C 40.792969 2.734375 40.855469 2.890625 41.089844 2.890625 C 41.308594 2.890625 41.402344 2.703125 41.402344 2.53125 C 41.402344 2.3125 41.199219 2.1875 41.011719 2.1875 C 40.511719 2.1875 40.058594 2.78125 39.574219 3.5625 L 39.464844 3.03125 C 39.292969 2.1875 39.152344 2.1875 38.933594 2.1875 C 38.621094 2.1875 37.996094 2.421875 37.730469 2.5 L 37.777344 2.65625 C 38.074219 2.578125 38.214844 2.546875 38.308594 2.546875 C 38.558594 2.546875 38.605469 2.6875 38.683594 2.984375 C 38.699219 3.03125 39.027344 4.296875 39.027344 4.390625 C 38.152344 5.640625 37.902344 5.96875 37.746094 5.96875 C 37.574219 5.96875 37.402344 5.78125 37.183594 5.78125 C 36.980469 5.78125 36.855469 5.96875 36.855469 6.109375 C 36.855469 6.34375 37.011719 6.53125 37.339844 6.53125 C 37.636719 6.53125 37.746094 6.421875 37.902344 6.234375 C 38.230469 5.890625 38.636719 5.359375 39.089844 4.734375 L 39.386719 5.890625 C 39.511719 6.390625 39.652344 6.53125 39.933594 6.53125 C 40.152344 6.53125 40.433594 6.53125 41.105469 5.4375 Z M 40.980469 5.359375 "
       id="path98" />
    <path
       style=" stroke:none;fill-rule:nonzero;fill:rgb(12.940979%,11.764526%,11.764526%);fill-opacity:1;"
       d="M 41.664063 8.023438 L 43.210938 8.023438 L 43.210938 7.945313 C 42.945313 7.945313 42.742188 7.929688 42.742188 7.757813 C 42.742188 7.664063 42.804688 7.460938 42.835938 7.351563 L 43.632813 4.445313 C 43.664063 4.351563 43.695313 4.242188 43.648438 4.242188 C 43.601563 4.242188 42.820313 4.414063 42.570313 4.460938 L 42.570313 4.539063 L 42.882813 4.523438 C 42.929688 4.523438 43.101563 4.523438 43.101563 4.710938 C 43.101563 4.757813 43.070313 4.835938 43.054688 4.898438 L 42.289063 7.648438 C 42.210938 7.898438 41.992188 7.914063 41.664063 7.945313 Z M 41.664063 8.023438 "
       id="path100" />
    <path
       style=" stroke:none;fill-rule:nonzero;fill:rgb(12.940979%,11.764526%,11.764526%);fill-opacity:1;"
       d="M 45.714844 8.09375 C 45.246094 6.921875 45.246094 6.078125 45.246094 5.4375 C 45.246094 4.828125 45.417969 3.53125 45.792969 2.453125 C 46.261719 1.140625 46.746094 0.625 47.199219 0.140625 L 47.074219 0 C 45.339844 1.484375 44.589844 2.984375 44.589844 4.5625 C 44.589844 5.1875 44.589844 6.578125 45.542969 8.15625 Z M 45.714844 8.09375 "
       id="path102" />
    <path
       style=" stroke:none;fill-rule:nonzero;fill:rgb(12.940979%,11.764526%,11.764526%);fill-opacity:1;"
       d="M 50.222656 2.3125 L 49.457031 2.3125 L 49.722656 1.328125 C 49.738281 1.25 49.722656 1.171875 49.660156 1.1875 C 49.566406 1.171875 49.535156 1.25 49.488281 1.296875 C 49.222656 1.640625 48.753906 2.0625 48.441406 2.234375 C 48.285156 2.3125 48.019531 2.390625 47.957031 2.46875 C 47.925781 2.515625 47.925781 2.5625 47.941406 2.625 L 48.644531 2.625 L 47.957031 5.265625 C 47.910156 5.421875 47.738281 6 47.738281 6.140625 C 47.738281 6.4375 48.003906 6.53125 48.191406 6.53125 C 48.691406 6.53125 49.066406 6.109375 49.550781 5.359375 L 49.425781 5.296875 C 49.191406 5.609375 48.863281 6.0625 48.660156 6.0625 C 48.566406 6.0625 48.503906 5.984375 48.503906 5.890625 C 48.503906 5.859375 48.503906 5.84375 48.519531 5.8125 L 49.363281 2.625 L 50.175781 2.625 Z M 50.222656 2.3125 "
       id="path104" />
    <path
       style=" stroke:none;fill-rule:nonzero;fill:rgb(12.940979%,11.764526%,11.764526%);fill-opacity:1;"
       d="M 50.332031 8.15625 C 51.753906 7 52.816406 5.421875 52.816406 3.59375 C 52.816406 2.359375 52.566406 1.125 51.878906 0 L 51.691406 0.046875 C 51.941406 0.578125 52.160156 1.53125 52.160156 2.5625 C 52.160156 3.40625 52.003906 4.546875 51.613281 5.71875 C 51.175781 6.984375 50.628906 7.5625 50.207031 8 Z M 50.332031 8.15625 "
       id="path106" />
    <path
       style=" stroke:none;fill-rule:nonzero;fill:rgb(12.940979%,11.764526%,11.764526%);fill-opacity:1;"
       d="M 58.566406 3.671875 L 56.472656 3.671875 L 56.472656 4.3125 L 58.566406 4.3125 L 58.566406 6.421875 L 59.207031 6.421875 L 59.207031 4.3125 L 61.300781 4.3125 L 61.300781 3.671875 L 59.207031 3.671875 L 59.207031 1.5625 L 58.566406 1.5625 Z M 58.566406 3.671875 "
       id="path108" />
    <path
       style=" stroke:none;fill-rule:nonzero;fill:rgb(12.940979%,11.764526%,11.764526%);fill-opacity:1;"
       d="M 68.980469 5.359375 C 68.542969 5.78125 68.355469 6.03125 68.214844 6.03125 C 68.136719 6.03125 68.074219 5.96875 68.074219 5.90625 C 68.074219 5.609375 68.964844 2.328125 68.996094 2.21875 L 68.917969 2.1875 L 68.339844 2.265625 L 68.308594 2.28125 L 68.214844 2.703125 L 68.199219 2.703125 C 68.167969 2.4375 67.839844 2.1875 67.433594 2.1875 C 66.152344 2.1875 64.683594 3.984375 64.683594 5.390625 C 64.683594 5.671875 64.714844 6.53125 65.683594 6.53125 C 66.261719 6.53125 66.761719 6.234375 67.558594 5.0625 L 67.574219 5.09375 C 67.417969 5.671875 67.371094 5.890625 67.371094 6.109375 C 67.371094 6.265625 67.371094 6.515625 67.777344 6.515625 C 68.199219 6.515625 68.511719 6.171875 69.089844 5.46875 Z M 65.496094 5.375 C 65.496094 4.515625 66.355469 2.40625 67.480469 2.40625 C 67.761719 2.40625 68.027344 2.578125 68.027344 3.046875 C 68.027344 3.984375 67.089844 6.0625 66.074219 6.0625 C 65.808594 6.0625 65.496094 5.890625 65.496094 5.375 Z M 65.496094 5.375 "
       id="path110" />
    <path
       style=" stroke:none;fill-rule:nonzero;fill:rgb(12.940979%,11.764526%,11.764526%);fill-opacity:1;"
       d="M 71.5625 7.242188 C 71.46875 7.445313 71.375 7.601563 71.015625 7.601563 L 69.953125 7.601563 L 69.953125 7.570313 L 71.015625 6.492188 C 71.71875 5.804688 71.859375 5.554688 71.859375 5.179688 C 71.859375 4.757813 71.546875 4.242188 70.953125 4.242188 C 70.8125 4.242188 70.078125 4.257813 69.78125 5.132813 L 69.890625 5.179688 C 69.96875 5.039063 70.1875 4.648438 70.6875 4.648438 C 71.125 4.648438 71.375 4.992188 71.375 5.335938 C 71.375 5.523438 71.359375 5.835938 70.5625 6.679688 L 69.390625 7.929688 L 69.390625 8.023438 L 71.375 8.023438 L 71.65625 7.289063 Z M 71.5625 7.242188 "
       id="path112" />
    <path
       style=" stroke:none;fill-rule:nonzero;fill:rgb(12.940979%,11.764526%,11.764526%);fill-opacity:1;"
       d="M 74.359375 7.242188 C 74.265625 7.445313 74.171875 7.601563 73.8125 7.601563 L 72.75 7.601563 L 72.75 7.570313 L 73.8125 6.492188 C 74.515625 5.804688 74.65625 5.554688 74.65625 5.179688 C 74.65625 4.757813 74.34375 4.242188 73.75 4.242188 C 73.609375 4.242188 72.875 4.257813 72.578125 5.132813 L 72.6875 5.179688 C 72.765625 5.039063 72.984375 4.648438 73.484375 4.648438 C 73.921875 4.648438 74.171875 4.992188 74.171875 5.335938 C 74.171875 5.523438 74.15625 5.835938 73.359375 6.679688 L 72.1875 7.929688 L 72.1875 8.023438 L 74.171875 8.023438 L 74.453125 7.289063 Z M 74.359375 7.242188 "
       id="path114" />
    <path
       style=" stroke:none;fill-rule:nonzero;fill:rgb(12.940979%,11.764526%,11.764526%);fill-opacity:1;"
       d="M 78.785156 5.359375 C 78.519531 5.640625 78.332031 6 78.128906 6 C 77.941406 6 77.863281 5.765625 77.832031 5.609375 C 77.769531 5.359375 77.441406 4.0625 77.441406 3.890625 C 77.441406 3.890625 78.097656 2.734375 78.378906 2.734375 C 78.597656 2.734375 78.660156 2.890625 78.894531 2.890625 C 79.113281 2.890625 79.207031 2.703125 79.207031 2.53125 C 79.207031 2.3125 79.003906 2.1875 78.816406 2.1875 C 78.316406 2.1875 77.863281 2.78125 77.378906 3.5625 L 77.269531 3.03125 C 77.097656 2.1875 76.957031 2.1875 76.738281 2.1875 C 76.425781 2.1875 75.800781 2.421875 75.535156 2.5 L 75.582031 2.65625 C 75.878906 2.578125 76.019531 2.546875 76.113281 2.546875 C 76.363281 2.546875 76.410156 2.6875 76.488281 2.984375 C 76.503906 3.03125 76.832031 4.296875 76.832031 4.390625 C 75.957031 5.640625 75.707031 5.96875 75.550781 5.96875 C 75.378906 5.96875 75.207031 5.78125 74.988281 5.78125 C 74.785156 5.78125 74.660156 5.96875 74.660156 6.109375 C 74.660156 6.34375 74.816406 6.53125 75.144531 6.53125 C 75.441406 6.53125 75.550781 6.421875 75.707031 6.234375 C 76.035156 5.890625 76.441406 5.359375 76.894531 4.734375 L 77.191406 5.890625 C 77.316406 6.390625 77.457031 6.53125 77.738281 6.53125 C 77.957031 6.53125 78.238281 6.53125 78.910156 5.4375 Z M 78.785156 5.359375 "
       id="path116" />
    <path
       style=" stroke:none;fill-rule:nonzero;fill:rgb(12.940979%,11.764526%,11.764526%);fill-opacity:1;"
       d="M 81.421875 7.242188 C 81.328125 7.445313 81.234375 7.601563 80.875 7.601563 L 79.8125 7.601563 L 79.8125 7.570313 L 80.875 6.492188 C 81.578125 5.804688 81.71875 5.554688 81.71875 5.179688 C 81.71875 4.757813 81.40625 4.242188 80.8125 4.242188 C 80.671875 4.242188 79.9375 4.257813 79.640625 5.132813 L 79.75 5.179688 C 79.828125 5.039063 80.046875 4.648438 80.546875 4.648438 C 80.984375 4.648438 81.234375 4.992188 81.234375 5.335938 C 81.234375 5.523438 81.21875 5.835938 80.421875 6.679688 L 79.25 7.929688 L 79.25 8.023438 L 81.234375 8.023438 L 81.515625 7.289063 Z M 81.421875 7.242188 "
       id="path118" />
    <path
       style=" stroke:none;fill-rule:nonzero;fill:rgb(12.940979%,11.764526%,11.764526%);fill-opacity:1;"
       d="M 83.519531 8.09375 C 83.050781 6.921875 83.050781 6.078125 83.050781 5.4375 C 83.050781 4.828125 83.222656 3.53125 83.597656 2.453125 C 84.066406 1.140625 84.550781 0.625 85.003906 0.140625 L 84.878906 0 C 83.144531 1.484375 82.394531 2.984375 82.394531 4.5625 C 82.394531 5.1875 82.394531 6.578125 83.347656 8.15625 Z M 83.519531 8.09375 "
       id="path120" />
    <path
       style=" stroke:none;fill-rule:nonzero;fill:rgb(12.940979%,11.764526%,11.764526%);fill-opacity:1;"
       d="M 88.03125 2.3125 L 87.265625 2.3125 L 87.53125 1.328125 C 87.546875 1.25 87.53125 1.171875 87.46875 1.1875 C 87.375 1.171875 87.34375 1.25 87.296875 1.296875 C 87.03125 1.640625 86.5625 2.0625 86.25 2.234375 C 86.09375 2.3125 85.828125 2.390625 85.765625 2.46875 C 85.734375 2.515625 85.734375 2.5625 85.75 2.625 L 86.453125 2.625 L 85.765625 5.265625 C 85.71875 5.421875 85.546875 6 85.546875 6.140625 C 85.546875 6.4375 85.8125 6.53125 86 6.53125 C 86.5 6.53125 86.875 6.109375 87.359375 5.359375 L 87.234375 5.296875 C 87 5.609375 86.671875 6.0625 86.46875 6.0625 C 86.375 6.0625 86.3125 5.984375 86.3125 5.890625 C 86.3125 5.859375 86.3125 5.84375 86.328125 5.8125 L 87.171875 2.625 L 87.984375 2.625 Z M 88.03125 2.3125 "
       id="path122" />
    <path
       style=" stroke:none;fill-rule:nonzero;fill:rgb(12.940979%,11.764526%,11.764526%);fill-opacity:1;"
       d="M 88.136719 8.15625 C 89.558594 7 90.621094 5.421875 90.621094 3.59375 C 90.621094 2.359375 90.371094 1.125 89.683594 0 L 89.496094 0.046875 C 89.746094 0.578125 89.964844 1.53125 89.964844 2.5625 C 89.964844 3.40625 89.808594 4.546875 89.417969 5.71875 C 88.980469 6.984375 88.433594 7.5625 88.011719 8 Z M 88.136719 8.15625 "
       id="path124" />
  </g>
</svg>
