<?xml version="1.0" encoding="UTF-8" standalone="no"?>
<svg
   xmlns:dc="http://purl.org/dc/elements/1.1/"
   xmlns:cc="http://creativecommons.org/ns#"
   xmlns:rdf="http://www.w3.org/1999/02/22-rdf-syntax-ns#"
   xmlns:svg="http://www.w3.org/2000/svg"
   xmlns="http://www.w3.org/2000/svg"
   xmlns:sodipodi="http://sodipodi.sourceforge.net/DTD/sodipodi-0.dtd"
   xmlns:inkscape="http://www.inkscape.org/namespaces/inkscape"
   width="165.944946pt"
   height="61.721207pt"
   viewBox="0 0 165.944946 61.721207"
   version="1.2"
   id="svg155"
   sodipodi:docname="ica_recovered_signal_01.svg"
   inkscape:version="0.92.4 (5da689c313, 2019-01-14)">
  <metadata
     id="metadata159">
    <rdf:RDF>
      <cc:Work
         rdf:about="">
        <dc:format>image/svg+xml</dc:format>
        <dc:type
           rdf:resource="http://purl.org/dc/dcmitype/StillImage" />
        <dc:title></dc:title>
      </cc:Work>
    </rdf:RDF>
  </metadata>
  <sodipodi:namedview
     pagecolor="#ffffff"
     bordercolor="#666666"
     borderopacity="1"
     objecttolerance="10"
     gridtolerance="10"
     guidetolerance="10"
     inkscape:pageopacity="0"
     inkscape:pageshadow="2"
     inkscape:window-width="640"
     inkscape:window-height="480"
     id="namedview157"
     showgrid="false"
     inkscape:zoom="1.5547325"
     inkscape:cx="110.62996"
     inkscape:cy="41.147471"
     inkscape:window-x="0"
     inkscape:window-y="0"
     inkscape:window-maximized="0"
     inkscape:current-layer="svg155" />
  <defs
     id="defs8">
    <clipPath
       id="clip1">
      <path
         d="M 6 58 L 9 58 L 9 61.722656 L 6 61.722656 Z M 6 58 "
         id="path2" />
    </clipPath>
    <clipPath
       id="clip2">
      <path
         d="M 162 0 L 165.945313 0 L 165.945313 8 L 162 8 Z M 162 0 "
         id="path5" />
    </clipPath>
  </defs>
  <g
     id="surface32">
    <path
       style="fill:none;stroke-width:0.055;stroke-linecap:round;stroke-linejoin:round;stroke:rgb(12.940979%,11.764526%,11.764526%);stroke-opacity:1;stroke-miterlimit:4;"
       d="M 26.035156 36.132813 L 26.035156 35.648438 "
       id="path10" />
    <path
       style=" stroke:none;fill-rule:nonzero;fill:rgb(12.940979%,11.764526%,11.764526%);fill-opacity:1;"
       d="M 26.472656 41.003906 C 26.410156 41.128906 26.347656 41.238281 26.113281 41.238281 L 25.441406 41.238281 L 25.441406 41.207031 L 26.128906 40.519531 C 26.566406 40.082031 26.660156 39.910156 26.660156 39.675781 C 26.660156 39.410156 26.457031 39.082031 26.082031 39.082031 C 25.988281 39.082031 25.519531 39.082031 25.316406 39.644531 L 25.394531 39.675781 C 25.441406 39.582031 25.582031 39.332031 25.910156 39.332031 C 26.191406 39.332031 26.347656 39.550781 26.347656 39.769531 C 26.347656 39.894531 26.332031 40.097656 25.832031 40.644531 L 25.082031 41.441406 L 25.082031 41.503906 L 26.347656 41.503906 L 26.535156 41.035156 Z M 26.472656 41.003906 "
       id="path12" />
    <path
       style="fill:none;stroke-width:0.055;stroke-linecap:round;stroke-linejoin:round;stroke:rgb(12.940979%,11.764526%,11.764526%);stroke-opacity:1;stroke-miterlimit:4;"
       d="M 40.820313 36.132813 L 40.820313 35.648438 "
       id="path14" />
    <path
       style=" stroke:none;fill-rule:nonzero;fill:rgb(12.940979%,11.764526%,11.764526%);fill-opacity:1;"
       d="M 40.816406 40.644531 L 40.050781 40.644531 L 40.050781 40.628906 L 41.144531 39.488281 L 41.160156 39.488281 Z M 41.441406 40.644531 L 41.097656 40.644531 L 41.535156 39.082031 L 41.394531 39.082031 L 39.894531 40.628906 L 39.816406 40.863281 L 40.753906 40.863281 L 40.582031 41.503906 L 40.863281 41.503906 L 41.035156 40.878906 L 41.394531 40.878906 Z M 41.441406 40.644531 "
       id="path16" />
    <path
       style="fill:none;stroke-width:0.055;stroke-linecap:round;stroke-linejoin:round;stroke:rgb(12.940979%,11.764526%,11.764526%);stroke-opacity:1;stroke-miterlimit:4;"
       d="M 55.605469 36.132813 L 55.605469 35.648438 "
       id="path18" />
    <path
       style=" stroke:none;fill-rule:nonzero;fill:rgb(12.940979%,11.764526%,11.764526%);fill-opacity:1;"
       d="M 56.480469 39.035156 C 55.371094 39.113281 54.714844 40.003906 54.714844 40.753906 C 54.714844 41.332031 55.074219 41.535156 55.355469 41.535156 C 55.964844 41.535156 56.261719 40.925781 56.261719 40.566406 C 56.261719 40.050781 55.902344 39.894531 55.652344 39.894531 C 55.589844 39.894531 55.542969 39.910156 55.496094 39.925781 C 55.433594 39.925781 55.386719 39.941406 55.339844 39.972656 L 55.324219 39.972656 C 55.402344 39.785156 55.839844 39.175781 56.480469 39.097656 Z M 55.511719 40.019531 C 55.792969 40.019531 55.949219 40.207031 55.949219 40.488281 C 55.949219 40.816406 55.746094 41.441406 55.339844 41.441406 C 54.980469 41.441406 54.980469 41.035156 54.980469 40.941406 C 54.980469 40.878906 55.027344 40.019531 55.511719 40.019531 Z M 55.511719 40.019531 "
       id="path20" />
    <path
       style="fill:none;stroke-width:0.055;stroke-linecap:round;stroke-linejoin:round;stroke:rgb(12.940979%,11.764526%,11.764526%);stroke-opacity:1;stroke-miterlimit:4;"
       d="M 70.390625 36.132813 L 70.390625 35.648438 "
       id="path22" />
    <path
       style=" stroke:none;fill-rule:nonzero;fill:rgb(12.940979%,11.764526%,11.764526%);fill-opacity:1;"
       d="M 69.496094 40.941406 C 69.496094 41.050781 69.574219 41.535156 70.214844 41.535156 C 70.699219 41.535156 70.980469 41.207031 70.980469 40.894531 C 70.980469 40.613281 70.839844 40.394531 70.574219 40.128906 C 70.761719 40.066406 71.152344 39.941406 71.152344 39.582031 C 71.152344 39.191406 70.777344 39.082031 70.527344 39.082031 C 70.199219 39.082031 69.886719 39.253906 69.886719 39.613281 C 69.886719 39.800781 69.980469 39.972656 70.199219 40.207031 C 70.105469 40.238281 69.496094 40.425781 69.496094 40.941406 Z M 69.746094 40.957031 C 69.746094 40.488281 70.183594 40.300781 70.277344 40.269531 C 70.621094 40.628906 70.714844 40.722656 70.714844 40.957031 C 70.714844 41.300781 70.433594 41.457031 70.246094 41.457031 C 69.933594 41.457031 69.746094 41.238281 69.746094 40.957031 Z M 70.167969 39.550781 C 70.167969 39.316406 70.292969 39.160156 70.527344 39.160156 C 70.824219 39.160156 70.917969 39.410156 70.917969 39.582031 C 70.917969 39.878906 70.699219 39.972656 70.511719 40.066406 C 70.167969 39.753906 70.167969 39.644531 70.167969 39.550781 Z M 70.167969 39.550781 "
       id="path24" />
    <path
       style="fill:none;stroke-width:0.055;stroke-linecap:round;stroke-linejoin:round;stroke:rgb(12.940979%,11.764526%,11.764526%);stroke-opacity:1;stroke-miterlimit:4;"
       d="M 85.175781 36.132813 L 85.175781 35.648438 "
       id="path26" />
    <path
       style=" stroke:none;fill-rule:nonzero;fill:rgb(12.940979%,11.764526%,11.764526%);fill-opacity:1;"
       d="M 83.347656 41.503906 L 84.347656 41.503906 L 84.347656 41.457031 C 84.175781 41.457031 84.050781 41.441406 84.050781 41.332031 C 84.050781 41.269531 84.097656 41.144531 84.113281 41.066406 L 84.628906 39.207031 C 84.644531 39.144531 84.660156 39.082031 84.628906 39.082031 C 84.597656 39.082031 84.097656 39.175781 83.941406 39.207031 L 83.941406 39.269531 L 84.144531 39.253906 C 84.175781 39.253906 84.269531 39.253906 84.269531 39.378906 C 84.269531 39.394531 84.253906 39.457031 84.253906 39.488281 L 83.753906 41.253906 C 83.707031 41.425781 83.566406 41.425781 83.347656 41.457031 Z M 83.347656 41.503906 "
       id="path28" />
    <path
       style=" stroke:none;fill-rule:nonzero;fill:rgb(12.940979%,11.764526%,11.764526%);fill-opacity:1;"
       d="M 85.378906 40.941406 C 85.378906 40.597656 85.628906 39.175781 86.160156 39.175781 C 86.472656 39.175781 86.472656 39.535156 86.472656 39.644531 C 86.472656 40.285156 86.160156 41.425781 85.691406 41.425781 C 85.566406 41.425781 85.378906 41.363281 85.378906 40.941406 Z M 86.753906 39.972656 C 86.753906 39.613281 86.660156 39.082031 86.191406 39.082031 C 85.691406 39.082031 85.082031 39.816406 85.082031 40.785156 C 85.082031 41.160156 85.285156 41.535156 85.660156 41.535156 C 86.269531 41.535156 86.753906 40.691406 86.753906 39.972656 Z M 86.753906 39.972656 "
       id="path30" />
    <path
       style="fill:none;stroke-width:0.4;stroke-linecap:round;stroke-linejoin:round;stroke:rgb(12.940979%,11.764526%,11.764526%);stroke-opacity:1;stroke-miterlimit:4;"
       d="M 11.800781 36.132813 L 87.023438 36.132813 "
       id="path32" />
    <path
       style=" stroke:none;fill-rule:nonzero;fill:rgb(12.940979%,11.764526%,11.764526%);fill-opacity:1;"
       d="M 88.441406 35.519531 C 87.449219 35.21875 86.804688 34.941406 86.007813 34.621094 L 86.007813 37.648438 C 86.292969 37.515625 87.449219 37.054688 88.441406 36.753906 C 89.503906 36.433594 90.464844 36.214844 91.089844 36.136719 C 90.464844 36.058594 89.503906 35.839844 88.441406 35.519531 "
       id="path34" />
    <path
       style="fill:none;stroke-width:0.055;stroke-linecap:round;stroke-linejoin:round;stroke:rgb(12.940979%,11.764526%,11.764526%);stroke-opacity:1;stroke-miterlimit:4;"
       d="M 11.25 60.117188 L 11.734375 60.117188 "
       id="path36" />
    <g
       clip-path="url(#clip1)"
       clip-rule="nonzero"
       id="g40">
      <path
         style=" stroke:none;fill-rule:nonzero;fill:rgb(12.940979%,11.764526%,11.764526%);fill-opacity:1;"
         d="M 6.691406 61.722656 L 8.035156 61.722656 L 8.035156 61.644531 C 7.785156 61.660156 7.613281 61.644531 7.613281 61.488281 C 7.613281 61.410156 7.675781 61.238281 7.707031 61.144531 L 8.394531 58.660156 C 8.410156 58.582031 8.441406 58.472656 8.394531 58.472656 C 8.363281 58.472656 7.691406 58.628906 7.472656 58.660156 L 7.472656 58.738281 L 7.738281 58.722656 C 7.785156 58.722656 7.925781 58.722656 7.925781 58.878906 C 7.925781 58.910156 7.910156 58.988281 7.894531 59.035156 L 7.222656 61.394531 C 7.160156 61.613281 6.972656 61.628906 6.691406 61.660156 Z M 6.691406 61.722656 "
         id="path38" />
    </g>
    <path
       style="fill:none;stroke-width:0.055;stroke-linecap:round;stroke-linejoin:round;stroke:rgb(12.940979%,11.764526%,11.764526%);stroke-opacity:1;stroke-miterlimit:4;"
       d="M 11.25 48.125 L 11.734375 48.125 "
       id="path42" />
    <path
       style=" stroke:none;fill-rule:nonzero;fill:rgb(12.940979%,11.764526%,11.764526%);fill-opacity:1;"
       d="M 2.988281 48.976563 C 2.988281 48.507813 3.332031 46.617188 4.050781 46.617188 C 4.457031 46.617188 4.457031 47.101563 4.457031 47.257813 C 4.457031 48.085938 4.050781 49.632813 3.410156 49.632813 C 3.253906 49.632813 2.988281 49.539063 2.988281 48.976563 Z M 4.847656 47.679688 C 4.847656 47.210938 4.707031 46.476563 4.066406 46.476563 C 3.410156 46.476563 2.613281 47.476563 2.613281 48.773438 C 2.613281 49.273438 2.878906 49.757813 3.378906 49.757813 C 4.191406 49.757813 4.847656 48.632813 4.847656 47.679688 Z M 4.847656 47.679688 "
       id="path44" />
    <path
       style=" stroke:none;fill-rule:nonzero;fill:rgb(12.940979%,11.764526%,11.764526%);fill-opacity:1;"
       d="M 5.246094 49.773438 C 5.355469 49.773438 5.511719 49.695313 5.511719 49.523438 C 5.511719 49.367188 5.386719 49.242188 5.246094 49.242188 C 5.105469 49.242188 4.980469 49.367188 4.980469 49.523438 C 4.980469 49.695313 5.152344 49.773438 5.246094 49.773438 Z M 5.246094 49.773438 "
       id="path46" />
    <path
       style=" stroke:none;fill-rule:nonzero;fill:rgb(12.940979%,11.764526%,11.764526%);fill-opacity:1;"
       d="M 7.195313 46.867188 L 8.304688 46.867188 L 8.414063 46.539063 L 7.179688 46.539063 L 6.679688 47.570313 L 6.679688 47.648438 C 7.242188 47.773438 7.726563 47.867188 7.726563 48.601563 C 7.726563 49.023438 7.382813 49.554688 6.914063 49.554688 C 6.648438 49.554688 6.539063 49.289063 6.320313 49.289063 C 6.226563 49.289063 6.132813 49.351563 6.132813 49.492188 C 6.132813 49.632813 6.273438 49.757813 6.617188 49.757813 C 7.554688 49.757813 8.070313 49.023438 8.070313 48.414063 C 8.070313 47.757813 7.632813 47.414063 7.007813 47.289063 Z M 7.195313 46.867188 "
       id="path48" />
    <path
       style="fill:none;stroke-width:0.055;stroke-linecap:round;stroke-linejoin:round;stroke:rgb(12.940979%,11.764526%,11.764526%);stroke-opacity:1;stroke-miterlimit:4;"
       d="M 11.25 24.140625 L 11.734375 24.140625 "
       id="path50" />
    <path
       style=" stroke:none;fill-rule:nonzero;fill:rgb(12.940979%,11.764526%,11.764526%);fill-opacity:1;"
       d="M 3.210938 24.992188 C 3.210938 24.523438 3.554688 22.632813 4.273438 22.632813 C 4.679688 22.632813 4.679688 23.117188 4.679688 23.273438 C 4.679688 24.101563 4.273438 25.648438 3.632813 25.648438 C 3.476563 25.648438 3.210938 25.554688 3.210938 24.992188 Z M 5.070313 23.695313 C 5.070313 23.226563 4.929688 22.492188 4.289063 22.492188 C 3.632813 22.492188 2.835938 23.492188 2.835938 24.789063 C 2.835938 25.289063 3.101563 25.773438 3.601563 25.773438 C 4.414063 25.773438 5.070313 24.648438 5.070313 23.695313 Z M 5.070313 23.695313 "
       id="path52" />
    <path
       style=" stroke:none;fill-rule:nonzero;fill:rgb(12.940979%,11.764526%,11.764526%);fill-opacity:1;"
       d="M 5.472656 25.789063 C 5.582031 25.789063 5.738281 25.710938 5.738281 25.539063 C 5.738281 25.382813 5.613281 25.257813 5.472656 25.257813 C 5.332031 25.257813 5.207031 25.382813 5.207031 25.539063 C 5.207031 25.710938 5.378906 25.789063 5.472656 25.789063 Z M 5.472656 25.789063 "
       id="path54" />
    <path
       style=" stroke:none;fill-rule:nonzero;fill:rgb(12.940979%,11.764526%,11.764526%);fill-opacity:1;"
       d="M 7.421875 22.882813 L 8.53125 22.882813 L 8.640625 22.554688 L 7.40625 22.554688 L 6.90625 23.585938 L 6.90625 23.664063 C 7.46875 23.789063 7.953125 23.882813 7.953125 24.617188 C 7.953125 25.039063 7.609375 25.570313 7.140625 25.570313 C 6.875 25.570313 6.765625 25.304688 6.546875 25.304688 C 6.453125 25.304688 6.359375 25.367188 6.359375 25.507813 C 6.359375 25.648438 6.5 25.773438 6.84375 25.773438 C 7.78125 25.773438 8.296875 25.039063 8.296875 24.429688 C 8.296875 23.773438 7.859375 23.429688 7.234375 23.304688 Z M 7.421875 22.882813 "
       id="path56" />
    <path
       style="fill:none;stroke-width:0.055;stroke-linecap:round;stroke-linejoin:round;stroke:rgb(12.940979%,11.764526%,11.764526%);stroke-opacity:1;stroke-miterlimit:4;"
       d="M 11.25 12.148438 L 11.734375 12.148438 "
       id="path58" />
    <path
       style=" stroke:none;fill-rule:nonzero;fill:rgb(12.940979%,11.764526%,11.764526%);fill-opacity:1;"
       d="M 6.914063 13.75 L 8.257813 13.75 L 8.257813 13.671875 C 8.007813 13.6875 7.835938 13.671875 7.835938 13.515625 C 7.835938 13.4375 7.898438 13.265625 7.929688 13.171875 L 8.617188 10.6875 C 8.632813 10.609375 8.664063 10.5 8.617188 10.5 C 8.585938 10.5 7.914063 10.65625 7.695313 10.6875 L 7.695313 10.765625 L 7.960938 10.75 C 8.007813 10.75 8.148438 10.75 8.148438 10.90625 C 8.148438 10.9375 8.132813 11.015625 8.117188 11.0625 L 7.445313 13.421875 C 7.382813 13.640625 7.195313 13.65625 6.914063 13.6875 Z M 6.914063 13.75 "
       id="path60" />
    <path
       style="fill:none;stroke-width:0.055;stroke-linecap:round;stroke-linejoin:round;stroke:rgb(12.940979%,11.764526%,11.764526%);stroke-opacity:1;stroke-miterlimit:4;"
       d="M 11.25 60.117188 L 11.25 12.148438 "
       id="path62" />
    <path
       style="fill:none;stroke-width:0.073;stroke-linecap:round;stroke-linejoin:round;stroke:rgb(12.940979%,11.764526%,11.764526%);stroke-opacity:1;stroke-miterlimit:4;"
       d="M 11.25 36.132813 L 11.34375 36.132813 L 11.421875 36.117188 L 11.519531 36.105469 L 11.609375 36.078125 L 11.769531 36.019531 L 11.945313 35.925781 L 12.140625 35.792969 L 12.34375 35.617188 L 12.710938 35.222656 L 13.441406 34.121094 L 14.25 32.527344 L 15.824219 28.835938 L 16.695313 26.96875 L 17.121094 26.222656 L 17.332031 25.921875 L 17.519531 25.6875 L 17.703125 25.496094 L 17.894531 25.34375 L 18.003906 25.277344 L 18.105469 25.230469 L 18.203125 25.199219 L 18.300781 25.183594 L 18.402344 25.179688 L 18.457031 25.183594 L 18.511719 25.195313 L 18.609375 25.222656 L 18.707031 25.261719 L 18.816406 25.324219 L 18.921875 25.40625 L 19.152344 25.640625 L 19.332031 25.878906 L 19.496094 26.144531 L 19.875 26.914063 L 20.644531 29.058594 L 22.082031 34.011719 L 22.472656 35.199219 L 22.6875 35.753906 L 22.894531 36.195313 L 23.082031 36.527344 L 23.183594 36.667969 L 23.289063 36.785156 L 23.378906 36.863281 L 23.472656 36.921875 L 23.5625 36.949219 L 23.644531 36.957031 L 23.742188 36.933594 L 23.792969 36.914063 L 23.847656 36.882813 L 23.941406 36.804688 L 24.039063 36.695313 L 24.222656 36.394531 L 24.394531 36.023438 L 24.59375 35.46875 L 24.808594 34.734375 L 25.203125 33.070313 L 25.984375 28.859375 L 26.398438 26.507813 L 26.839844 24.257813 L 27.054688 23.363281 L 27.261719 22.683594 L 27.351563 22.449219 L 27.445313 22.25 L 27.496094 22.160156 L 27.546875 22.082031 L 27.640625 21.980469 L 27.742188 21.9375 L 27.832031 21.949219 L 27.929688 22.023438 L 28.03125 22.171875 L 28.121094 22.359375 L 28.207031 22.589844 L 28.394531 23.300781 L 28.601563 24.421875 L 28.808594 25.792969 L 29.183594 29.132813 L 30.03125 39.488281 L 30.789063 49.714844 L 30.984375 52.101563 L 31.203125 54.363281 L 31.398438 56.113281 L 31.496094 56.835938 L 31.585938 57.410156 L 31.667969 57.847656 L 31.757813 58.238281 L 31.847656 58.53125 L 31.941406 58.722656 L 32.023438 58.792969 L 32.113281 58.769531 L 32.195313 58.648438 L 32.269531 58.453125 L 32.359375 58.117188 L 32.445313 57.699219 L 32.636719 56.375 L 32.820313 54.609375 L 33.019531 52.21875 L 33.769531 39.59375 L 34.5625 24.199219 L 34.976563 17.726563 L 35.09375 16.328125 L 35.214844 15.050781 L 35.320313 14.136719 L 35.375 13.734375 L 35.433594 13.363281 L 35.492188 13.0625 L 35.546875 12.84375 L 35.597656 12.679688 L 35.648438 12.570313 L 35.75 12.507813 L 35.804688 12.550781 L 35.847656 12.640625 L 35.945313 12.929688 L 36.039063 13.417969 L 36.144531 14.121094 L 36.234375 14.949219 L 36.425781 17.121094 L 36.636719 20.152344 L 37.015625 27.070313 L 37.730469 41.90625 L 38.136719 49.140625 L 38.339844 51.957031 L 38.457031 53.257813 L 38.566406 54.21875 L 38.660156 54.875 L 38.761719 55.367188 L 38.859375 55.667969 L 38.914063 55.746094 L 38.96875 55.761719 L 39.058594 55.648438 L 39.144531 55.382813 L 39.246094 54.898438 L 39.339844 54.261719 L 40.761719 32.535156 L 40.960938 29.519531 L 41.152344 27.109375 L 41.257813 26.007813 L 41.371094 25.003906 L 41.472656 24.28125 L 41.570313 23.78125 L 41.667969 23.441406 L 41.761719 23.277344 L 41.847656 23.261719 L 41.9375 23.382813 L 42.035156 23.664063 L 42.085938 23.863281 L 42.140625 24.128906 L 42.328125 25.34375 L 42.527344 27.121094 L 42.710938 29.035156 L 43.125 33.757813 "
       id="path64" />
    <path
       style="fill:none;stroke-width:0.073;stroke-linecap:round;stroke-linejoin:round;stroke:rgb(12.940979%,11.764526%,11.764526%);stroke-opacity:1;stroke-miterlimit:4;"
       d="M 43.125 33.757813 L 43.3125 35.804688 L 43.511719 37.738281 L 43.695313 39.210938 L 43.871094 40.261719 L 43.960938 40.675781 L 44.0625 41.011719 L 44.121094 41.152344 L 44.171875 41.246094 L 44.273438 41.339844 L 44.328125 41.34375 L 44.378906 41.3125 L 44.480469 41.183594 L 44.539063 41.054688 L 44.601563 40.90625 L 44.710938 40.5625 L 45.085938 38.914063 L 45.289063 37.96875 L 45.503906 37.070313 L 45.609375 36.71875 L 45.710938 36.449219 L 45.796875 36.273438 L 45.890625 36.152344 L 45.988281 36.105469 L 46.085938 36.132813 L 46.167969 36.21875 L 46.261719 36.375 L 46.363281 36.625 L 46.460938 36.910156 L 46.671875 37.707031 L 46.875 38.542969 L 47.0625 39.277344 L 47.222656 39.78125 L 47.3125 39.988281 L 47.394531 40.109375 L 47.484375 40.167969 L 47.578125 40.132813 L 47.671875 39.992188 L 47.757813 39.765625 L 47.84375 39.441406 L 47.925781 39.039063 L 48.113281 37.816406 L 48.292969 36.238281 L 48.492188 34.222656 L 48.871094 29.960938 L 49.082031 27.871094 L 49.183594 27.015625 L 49.277344 26.367188 L 49.332031 26.0625 L 49.390625 25.789063 L 49.449219 25.585938 L 49.515625 25.445313 L 49.5625 25.398438 L 49.625 25.410156 L 49.722656 25.628906 L 49.773438 25.84375 L 49.835938 26.152344 L 49.941406 26.921875 L 50.039063 27.925781 L 50.136719 29.066406 L 50.527344 35.5 L 50.945313 43.871094 L 51.132813 47.367188 L 51.234375 49.003906 L 51.335938 50.292969 L 51.429688 51.257813 L 51.507813 51.917969 L 51.597656 52.390625 L 51.699219 52.574219 L 51.789063 52.425781 L 51.886719 51.933594 L 51.96875 51.234375 L 52.058594 50.179688 L 52.152344 48.722656 L 52.257813 46.8125 L 52.445313 42.574219 L 53.148438 23.386719 L 53.257813 20.953125 L 53.375 18.777344 L 53.472656 17.316406 L 53.527344 16.667969 L 53.578125 16.183594 L 53.679688 15.621094 L 53.773438 15.558594 L 53.824219 15.703125 L 53.878906 16.003906 L 53.933594 16.472656 L 53.984375 17.050781 L 54.085938 18.523438 L 54.179688 20.332031 L 54.355469 24.710938 L 54.75 37.617188 L 54.933594 44.128906 L 55.140625 50.476563 L 55.234375 53.097656 L 55.328125 55.226563 L 55.414063 56.808594 L 55.503906 58.082031 L 55.597656 58.925781 L 55.683594 59.234375 L 55.738281 59.195313 L 55.789063 58.992188 L 55.882813 58.195313 L 55.933594 57.542969 L 55.988281 56.6875 L 56.082031 54.746094 L 56.300781 48.675781 L 56.683594 34.34375 L 56.875 27.054688 L 57.046875 21.042969 L 57.207031 16.667969 L 57.289063 14.960938 L 57.375 13.519531 L 57.464844 12.582031 L 57.558594 12.160156 L 57.648438 12.335938 L 57.730469 12.988281 L 57.820313 14.199219 L 57.902344 15.785156 L 58.085938 20.832031 L 58.464844 35.097656 L 58.675781 43.71875 L 58.875 50.910156 L 58.964844 53.519531 L 59.058594 55.828125 L 59.160156 57.757813 L 59.25 58.917969 L 59.332031 59.425781 L 59.421875 59.429688 L 59.503906 58.921875 L 59.582031 58.03125 L 59.667969 56.496094 L 59.765625 54.261719 L 59.941406 48.921875 L 60.292969 35.253906 L 60.476563 28 L 60.675781 21.472656 L 60.777344 18.777344 L 60.832031 17.601563 L 60.890625 16.550781 L 60.996094 15.261719 L 61.089844 14.722656 L 61.140625 14.707031 L 61.195313 14.890625 L 61.292969 15.761719 L 61.390625 17.246094 L 61.476563 19.128906 L 61.648438 23.800781 L 61.832031 30.152344 L 62.207031 43.730469 "
       id="path66" />
    <path
       style="fill:none;stroke-width:0.073;stroke-linecap:round;stroke-linejoin:round;stroke:rgb(12.940979%,11.764526%,11.764526%);stroke-opacity:1;stroke-miterlimit:4;"
       d="M 62.210938 43.730469 L 62.320313 47.101563 L 62.421875 49.835938 L 62.515625 51.816406 L 62.613281 53.398438 L 62.671875 54.011719 L 62.722656 54.375 L 62.785156 54.574219 L 62.84375 54.542969 L 62.941406 53.96875 L 63 53.363281 L 63.050781 52.632813 L 63.144531 50.929688 L 63.230469 48.941406 L 63.433594 43.339844 L 63.644531 36.664063 L 63.839844 30.707031 L 64.027344 25.949219 L 64.121094 24.117188 L 64.179688 23.265625 L 64.226563 22.625 L 64.277344 22.117188 L 64.332031 21.738281 L 64.386719 21.527344 L 64.445313 21.484375 L 64.496094 21.609375 L 64.550781 21.898438 L 64.648438 22.816406 L 64.75 24.207031 L 64.859375 26.167969 L 65.050781 30.582031 L 65.226563 34.933594 L 65.417969 39.507813 L 65.507813 41.40625 L 65.605469 43.167969 L 65.6875 44.414063 L 65.78125 45.449219 L 65.835938 45.886719 L 65.886719 46.179688 L 65.980469 46.433594 L 66.070313 46.308594 L 66.167969 45.816406 L 66.253906 45.046875 L 66.351563 43.929688 L 66.53125 41.339844 L 66.859375 35.863281 L 67.042969 33.242188 L 67.144531 32.097656 L 67.238281 31.308594 L 67.328125 30.800781 L 67.421875 30.507813 L 67.511719 30.46875 L 67.597656 30.625 L 67.691406 31.007813 L 67.78125 31.535156 L 67.988281 33.136719 L 68.191406 34.871094 L 68.304688 35.726563 L 68.40625 36.398438 L 68.5 36.878906 L 68.601563 37.234375 L 68.660156 37.359375 L 68.71875 37.429688 L 68.816406 37.433594 L 68.914063 37.316406 L 69 37.117188 L 69.195313 36.507813 L 69.289063 36.199219 L 69.390625 35.917969 L 69.449219 35.796875 L 69.503906 35.714844 L 69.554688 35.667969 L 69.605469 35.660156 L 69.660156 35.691406 L 69.714844 35.765625 L 69.8125 36.019531 L 69.875 36.25 L 69.933594 36.507813 L 70.042969 37.097656 L 70.230469 38.332031 L 70.335938 39.023438 L 70.433594 39.609375 L 70.527344 40.050781 L 70.628906 40.359375 L 70.71875 40.457031 L 70.804688 40.367188 L 70.890625 40.066406 L 70.988281 39.484375 L 71.09375 38.609375 L 71.183594 37.554688 L 71.605469 31.496094 L 71.695313 30.273438 L 71.789063 29.113281 L 71.882813 28.261719 L 71.96875 27.730469 L 72.050781 27.488281 L 72.125 27.535156 L 72.214844 27.929688 L 72.296875 28.628906 L 72.386719 29.75 L 72.480469 31.3125 L 72.65625 34.882813 L 72.851563 39.683594 L 73.042969 44.054688 L 73.128906 45.800781 L 73.226563 47.285156 L 73.273438 47.878906 L 73.328125 48.371094 L 73.425781 48.789063 L 73.511719 48.640625 L 73.609375 47.898438 L 73.695313 46.65625 L 73.777344 45.089844 L 73.960938 40.257813 L 74.371094 26.914063 L 74.464844 24.390625 L 74.5625 22.195313 L 74.660156 20.746094 L 74.75 20.054688 L 74.832031 20.015625 L 74.921875 20.664063 L 75.015625 22.09375 L 75.101563 24.089844 L 75.199219 26.929688 L 75.304688 30.589844 L 75.636719 44.109375 L 75.722656 47.386719 L 75.816406 50.457031 L 75.90625 52.75 L 75.988281 54.242188 L 76.039063 54.824219 L 76.09375 55.167969 L 76.148438 55.191406 L 76.203125 54.890625 L 76.296875 53.625 L 76.394531 51.265625 L 76.5 47.929688 L 76.59375 44.058594 L 76.972656 26.1875 L 77.082031 21.707031 L 77.183594 18.335938 L 77.238281 16.984375 L 77.296875 15.875 L 77.359375 15.085938 L 77.417969 14.792969 L 77.46875 14.882813 L 77.519531 15.339844 L 77.578125 16.210938 L 77.628906 17.367188 "
       id="path68" />
    <path
       style="fill:none;stroke-width:0.073;stroke-linecap:round;stroke-linejoin:round;stroke:rgb(12.940979%,11.764526%,11.764526%);stroke-opacity:1;stroke-miterlimit:4;"
       d="M 77.628906 17.367188 L 77.996094 32.570313 L 78.195313 43.28125 L 78.378906 52.039063 L 78.476563 55.46875 L 78.53125 56.929688 L 78.582031 57.949219 L 78.636719 58.691406 L 78.695313 59.039063 L 78.75 58.917969 L 78.804688 58.417969 L 78.890625 56.6875 L 78.992188 53.585938 L 79.09375 49.199219 L 79.191406 44.25 L 79.382813 33.273438 L 79.585938 22.292969 L 79.691406 17.730469 L 79.75 15.808594 L 79.808594 14.191406 L 79.863281 13.136719 L 79.914063 12.554688 L 80.011719 12.507813 L 80.109375 13.917969 L 80.203125 16.453125 L 80.300781 20.449219 L 80.40625 25.789063 L 80.78125 47.734375 L 80.878906 52.429688 L 80.96875 56.015625 L 81.046875 58.34375 L 81.136719 59.800781 L 81.222656 60.066406 L 81.308594 59.148438 L 81.394531 57.1875 L 81.46875 54.566406 L 81.65625 45.382813 L 81.855469 33.179688 L 82.039063 23.082031 L 82.132813 18.585938 L 82.226563 15.363281 L 82.3125 13.398438 L 82.410156 12.636719 L 82.5 13.226563 L 82.582031 14.832031 L 82.65625 17.203125 L 82.738281 20.671875 L 82.910156 29.707031 L 83.101563 41.125 L 83.207031 46.949219 L 83.300781 51.609375 L 83.386719 54.789063 L 83.472656 57.175781 L 83.570313 58.460938 L 83.660156 58.316406 L 83.753906 56.863281 L 83.851563 53.890625 L 83.949219 49.953125 L 84.035156 45.574219 L 84.332031 28.917969 L 84.441406 23.457031 L 84.539063 19.617188 L 84.625 17.101563 L 84.714844 15.664063 L 84.792969 15.375 L 84.890625 16.292969 L 84.972656 18.257813 L 85.074219 21.5 L 85.175781 25.941406 "
       id="path70" />
    <path
       style=" stroke:none;fill-rule:nonzero;fill:rgb(12.940979%,11.764526%,11.764526%);fill-opacity:1;"
       d="M 95.527344 34.289063 L 94.964844 34.289063 L 95.152344 33.539063 C 95.167969 33.492188 95.152344 33.414063 95.105469 33.429688 C 95.042969 33.414063 95.011719 33.492188 94.980469 33.523438 C 94.792969 33.773438 94.433594 34.101563 94.199219 34.226563 C 94.074219 34.289063 93.871094 34.335938 93.839844 34.398438 C 93.808594 34.429688 93.808594 34.476563 93.824219 34.507813 L 94.355469 34.507813 L 93.839844 36.492188 C 93.808594 36.617188 93.667969 37.054688 93.667969 37.164063 C 93.667969 37.367188 93.871094 37.445313 94.011719 37.445313 C 94.386719 37.445313 94.667969 37.132813 95.042969 36.570313 L 94.949219 36.523438 C 94.761719 36.757813 94.511719 37.085938 94.371094 37.085938 C 94.292969 37.085938 94.246094 37.039063 94.246094 36.976563 C 94.246094 36.945313 94.246094 36.929688 94.261719 36.914063 L 94.886719 34.507813 L 95.496094 34.507813 Z M 95.527344 34.289063 "
       id="path72" />
    <path
       style=" stroke:none;fill-rule:nonzero;fill:rgb(12.940979%,11.764526%,11.764526%);fill-opacity:1;"
       d="M 0.375 2.65625 C 0.5 2.640625 0.5625 2.625 0.703125 2.625 C 1.25 2.625 1.375 3.03125 1.640625 3.90625 C 1.796875 4.421875 2.203125 6.109375 2.203125 6.46875 C 2.203125 6.734375 1.796875 7.203125 1.5625 7.484375 C 1.234375 7.859375 1.109375 7.953125 0.953125 7.953125 C 0.78125 7.953125 0.65625 7.6875 0.375 7.6875 C 0.171875 7.6875 0 7.84375 0 8.046875 C 0 8.453125 0.421875 8.46875 0.5 8.46875 C 1.640625 8.46875 4.328125 4 4.328125 2.859375 C 4.328125 2.515625 4.125 2.265625 3.78125 2.265625 C 3.53125 2.265625 3.421875 2.46875 3.421875 2.609375 C 3.421875 3.046875 3.9375 2.9375 3.9375 3.328125 C 3.9375 3.84375 3.171875 5.140625 2.765625 5.8125 L 2.578125 4.703125 C 2.453125 3.984375 1.890625 2.265625 1.765625 2.265625 C 1.59375 2.265625 0.84375 2.421875 0.375 2.5 Z M 0.375 2.65625 "
       id="path74" />
    <path
       style=" stroke:none;fill-rule:nonzero;fill:rgb(12.940979%,11.764526%,11.764526%);fill-opacity:1;"
       d="M 4.777344 8.101563 L 6.324219 8.101563 L 6.324219 8.023438 C 6.058594 8.023438 5.855469 8.007813 5.855469 7.835938 C 5.855469 7.742188 5.917969 7.539063 5.949219 7.429688 L 6.746094 4.523438 C 6.777344 4.429688 6.808594 4.320313 6.761719 4.320313 C 6.714844 4.320313 5.933594 4.492188 5.683594 4.539063 L 5.683594 4.617188 L 5.996094 4.601563 C 6.042969 4.601563 6.214844 4.601563 6.214844 4.789063 C 6.214844 4.835938 6.183594 4.914063 6.167969 4.976563 L 5.402344 7.726563 C 5.324219 7.976563 5.105469 7.992188 4.777344 8.023438 Z M 4.777344 8.101563 "
       id="path76" />
    <path
       style=" stroke:none;fill-rule:nonzero;fill:rgb(12.940979%,11.764526%,11.764526%);fill-opacity:1;"
       d="M 8.828125 8.171875 C 8.359375 7 8.359375 6.15625 8.359375 5.515625 C 8.359375 4.90625 8.53125 3.609375 8.90625 2.53125 C 9.375 1.21875 9.859375 0.703125 10.3125 0.21875 L 10.1875 0.078125 C 8.453125 1.5625 7.703125 3.0625 7.703125 4.640625 C 7.703125 5.265625 7.703125 6.65625 8.65625 8.234375 Z M 8.828125 8.171875 "
       id="path78" />
    <path
       style=" stroke:none;fill-rule:nonzero;fill:rgb(12.940979%,11.764526%,11.764526%);fill-opacity:1;"
       d="M 13.335938 2.390625 L 12.570313 2.390625 L 12.835938 1.40625 C 12.851563 1.328125 12.835938 1.25 12.773438 1.265625 C 12.679688 1.25 12.648438 1.328125 12.601563 1.375 C 12.335938 1.71875 11.867188 2.140625 11.554688 2.3125 C 11.398438 2.390625 11.132813 2.46875 11.070313 2.546875 C 11.039063 2.59375 11.039063 2.640625 11.054688 2.703125 L 11.757813 2.703125 L 11.070313 5.34375 C 11.023438 5.5 10.851563 6.078125 10.851563 6.21875 C 10.851563 6.515625 11.117188 6.609375 11.304688 6.609375 C 11.804688 6.609375 12.179688 6.1875 12.664063 5.4375 L 12.539063 5.375 C 12.304688 5.6875 11.976563 6.140625 11.773438 6.140625 C 11.679688 6.140625 11.617188 6.0625 11.617188 5.96875 C 11.617188 5.9375 11.617188 5.921875 11.632813 5.890625 L 12.476563 2.703125 L 13.289063 2.703125 Z M 13.335938 2.390625 "
       id="path80" />
    <path
       style=" stroke:none;fill-rule:nonzero;fill:rgb(12.940979%,11.764526%,11.764526%);fill-opacity:1;"
       d="M 13.445313 8.234375 C 14.867188 7.078125 15.929688 5.5 15.929688 3.671875 C 15.929688 2.4375 15.679688 1.203125 14.992188 0.078125 L 14.804688 0.125 C 15.054688 0.65625 15.273438 1.609375 15.273438 2.640625 C 15.273438 3.484375 15.117188 4.625 14.726563 5.796875 C 14.289063 7.0625 13.742188 7.640625 13.320313 8.078125 Z M 13.445313 8.234375 "
       id="path82" />
    <path
       style=" stroke:none;fill-rule:nonzero;fill:rgb(12.940979%,11.764526%,11.764526%);fill-opacity:1;"
       d="M 24.414063 2.796875 L 19.585938 2.796875 L 19.585938 3.4375 L 24.414063 3.4375 Z M 24.414063 4.71875 L 19.585938 4.71875 L 19.585938 5.34375 L 24.414063 5.34375 Z M 24.414063 4.71875 "
       id="path84" />
    <path
       style=" stroke:none;fill-rule:nonzero;fill:rgb(12.940979%,11.764526%,11.764526%);fill-opacity:1;"
       d="M 27.96875 2.703125 L 28.84375 2.703125 L 28 6.734375 C 27.921875 7.109375 27.671875 8.28125 27.0625 8.28125 C 26.9375 8.28125 26.875 8.203125 26.875 8.125 C 26.875 8.03125 26.953125 8.03125 26.953125 7.859375 C 26.953125 7.625 26.703125 7.5 26.578125 7.5 C 26.234375 7.53125 26.234375 7.890625 26.234375 7.921875 C 26.28125 8.359375 26.6875 8.484375 26.984375 8.484375 C 28.09375 8.484375 28.640625 6.9375 28.90625 5.765625 L 29.59375 2.703125 L 30.640625 2.703125 L 30.703125 2.390625 L 29.671875 2.390625 C 29.75 1.90625 30.03125 0.203125 30.828125 0.203125 C 30.953125 0.203125 31.046875 0.25 31.046875 0.328125 C 31.046875 0.421875 30.953125 0.421875 30.953125 0.640625 C 30.953125 0.75 31.015625 1 31.3125 1 C 31.53125 1 31.703125 0.8125 31.703125 0.625 C 31.703125 0.421875 31.5625 0 30.859375 0 C 29.65625 0 29.171875 1.578125 28.921875 2.390625 L 28.046875 2.390625 Z M 27.96875 2.703125 "
       id="path86" />
    <path
       style=" stroke:none;fill-rule:nonzero;fill:rgb(12.940979%,11.764526%,11.764526%);fill-opacity:1;"
       d="M 32.949219 0.734375 C 33.011719 0.46875 33.136719 0.390625 33.402344 0.390625 L 33.996094 0.390625 L 34.058594 0.140625 L 32.402344 0.140625 L 30.511719 7.96875 L 32.308594 7.96875 L 32.386719 7.703125 L 31.839844 7.703125 C 31.683594 7.703125 31.371094 7.703125 31.371094 7.4375 C 31.371094 7.40625 31.386719 7.3125 31.417969 7.234375 Z M 32.949219 0.734375 "
       id="path88" />
    <path
       style=" stroke:none;fill-rule:nonzero;fill:rgb(12.940979%,11.764526%,11.764526%);fill-opacity:1;"
       d="M 34.199219 2.640625 L 34.386719 2.625 C 34.808594 2.609375 34.855469 2.65625 34.964844 3.375 C 35.042969 3.90625 35.136719 4.734375 35.167969 5.375 L 35.199219 6.21875 C 35.199219 6.359375 35.199219 6.671875 35.324219 6.671875 C 35.464844 6.671875 35.542969 6.46875 36.464844 4.828125 C 36.902344 4.0625 37.136719 3.65625 37.308594 3.359375 L 37.324219 3.359375 L 37.605469 6.390625 C 37.605469 6.53125 37.605469 6.671875 37.714844 6.671875 C 37.824219 6.671875 37.949219 6.484375 38.324219 6.03125 C 38.777344 5.515625 40.261719 3.640625 40.261719 2.8125 C 40.261719 2.53125 40.105469 2.265625 39.746094 2.265625 C 39.480469 2.265625 39.386719 2.4375 39.386719 2.609375 C 39.386719 2.921875 39.792969 2.96875 39.792969 3.3125 C 39.792969 3.8125 39.058594 4.75 38.214844 5.796875 L 37.902344 2.34375 C 37.902344 2.328125 37.902344 2.28125 37.839844 2.28125 C 37.777344 2.28125 37.746094 2.3125 37.714844 2.359375 L 35.886719 5.265625 L 35.871094 5.265625 C 35.871094 5.09375 35.777344 3.78125 35.589844 2.8125 C 35.496094 2.28125 35.464844 2.265625 35.417969 2.265625 C 35.324219 2.265625 34.746094 2.421875 34.199219 2.5 Z M 34.199219 2.640625 "
       id="path90" />
    <path
       style=" stroke:none;fill-rule:nonzero;fill:rgb(12.940979%,11.764526%,11.764526%);fill-opacity:1;"
       d="M 40.726563 8.101563 L 42.273438 8.101563 L 42.273438 8.023438 C 42.007813 8.023438 41.804688 8.007813 41.804688 7.835938 C 41.804688 7.742188 41.867188 7.539063 41.898438 7.429688 L 42.695313 4.523438 C 42.726563 4.429688 42.757813 4.320313 42.710938 4.320313 C 42.664063 4.320313 41.882813 4.492188 41.632813 4.539063 L 41.632813 4.617188 L 41.945313 4.601563 C 41.992188 4.601563 42.164063 4.601563 42.164063 4.789063 C 42.164063 4.835938 42.132813 4.914063 42.117188 4.976563 L 41.351563 7.726563 C 41.273438 7.976563 41.054688 7.992188 40.726563 8.023438 Z M 40.726563 8.101563 "
       id="path92" />
    <path
       style=" stroke:none;fill-rule:nonzero;fill:rgb(12.940979%,11.764526%,11.764526%);fill-opacity:1;"
       d="M 43.113281 8.101563 L 44.660156 8.101563 L 44.660156 8.023438 C 44.394531 8.023438 44.191406 8.007813 44.191406 7.835938 C 44.191406 7.742188 44.253906 7.539063 44.285156 7.429688 L 45.082031 4.523438 C 45.113281 4.429688 45.144531 4.320313 45.097656 4.320313 C 45.050781 4.320313 44.269531 4.492188 44.019531 4.539063 L 44.019531 4.617188 L 44.332031 4.601563 C 44.378906 4.601563 44.550781 4.601563 44.550781 4.789063 C 44.550781 4.835938 44.519531 4.914063 44.503906 4.976563 L 43.738281 7.726563 C 43.660156 7.976563 43.441406 7.992188 43.113281 8.023438 Z M 43.113281 8.101563 "
       id="path94" />
    <path
       style=" stroke:none;fill-rule:nonzero;fill:rgb(12.940979%,11.764526%,11.764526%);fill-opacity:1;"
       d="M 45.976563 5.09375 L 45.789063 6.625 L 45.945313 6.625 C 45.992188 6.515625 46.039063 6.421875 46.164063 6.421875 C 46.445313 6.421875 46.835938 6.609375 47.117188 6.609375 C 47.664063 6.609375 48.554688 6.359375 48.554688 5.3125 C 48.554688 4.5 47.382813 3.65625 47.382813 3.046875 C 47.382813 2.578125 47.679688 2.484375 47.898438 2.484375 C 48.523438 2.484375 48.757813 3.046875 48.804688 3.59375 L 48.945313 3.59375 L 49.148438 2.265625 L 49.007813 2.265625 C 48.960938 2.34375 48.898438 2.4375 48.742188 2.4375 C 48.460938 2.4375 48.257813 2.265625 47.835938 2.265625 C 46.820313 2.265625 46.679688 3.03125 46.679688 3.328125 C 46.679688 4.078125 47.820313 5 47.820313 5.625 C 47.820313 5.9375 47.664063 6.40625 47.132813 6.40625 C 46.351563 6.40625 46.195313 5.515625 46.132813 5.09375 Z M 45.976563 5.09375 "
       id="path96" />
    <path
       style=" stroke:none;fill-rule:nonzero;fill:rgb(12.940979%,11.764526%,11.764526%);fill-opacity:1;"
       d="M 49.648438 8.101563 L 51.195313 8.101563 L 51.195313 8.023438 C 50.929688 8.023438 50.726563 8.007813 50.726563 7.835938 C 50.726563 7.742188 50.789063 7.539063 50.820313 7.429688 L 51.617188 4.523438 C 51.648438 4.429688 51.679688 4.320313 51.632813 4.320313 C 51.585938 4.320313 50.804688 4.492188 50.554688 4.539063 L 50.554688 4.617188 L 50.867188 4.601563 C 50.914063 4.601563 51.085938 4.601563 51.085938 4.789063 C 51.085938 4.835938 51.054688 4.914063 51.039063 4.976563 L 50.273438 7.726563 C 50.195313 7.976563 49.976563 7.992188 49.648438 8.023438 Z M 49.648438 8.101563 "
       id="path98" />
    <path
       style=" stroke:none;fill-rule:nonzero;fill:rgb(12.940979%,11.764526%,11.764526%);fill-opacity:1;"
       d="M 53.699219 8.171875 C 53.230469 7 53.230469 6.15625 53.230469 5.515625 C 53.230469 4.90625 53.402344 3.609375 53.777344 2.53125 C 54.246094 1.21875 54.730469 0.703125 55.183594 0.21875 L 55.058594 0.078125 C 53.324219 1.5625 52.574219 3.0625 52.574219 4.640625 C 52.574219 5.265625 52.574219 6.65625 53.527344 8.234375 Z M 53.699219 8.171875 "
       id="path100" />
    <path
       style=" stroke:none;fill-rule:nonzero;fill:rgb(12.940979%,11.764526%,11.764526%);fill-opacity:1;"
       d="M 58.207031 2.390625 L 57.441406 2.390625 L 57.707031 1.40625 C 57.722656 1.328125 57.707031 1.25 57.644531 1.265625 C 57.550781 1.25 57.519531 1.328125 57.472656 1.375 C 57.207031 1.71875 56.738281 2.140625 56.425781 2.3125 C 56.269531 2.390625 56.003906 2.46875 55.941406 2.546875 C 55.910156 2.59375 55.910156 2.640625 55.925781 2.703125 L 56.628906 2.703125 L 55.941406 5.34375 C 55.894531 5.5 55.722656 6.078125 55.722656 6.21875 C 55.722656 6.515625 55.988281 6.609375 56.175781 6.609375 C 56.675781 6.609375 57.050781 6.1875 57.535156 5.4375 L 57.410156 5.375 C 57.175781 5.6875 56.847656 6.140625 56.644531 6.140625 C 56.550781 6.140625 56.488281 6.0625 56.488281 5.96875 C 56.488281 5.9375 56.488281 5.921875 56.503906 5.890625 L 57.347656 2.703125 L 58.160156 2.703125 Z M 58.207031 2.390625 "
       id="path102" />
    <path
       style=" stroke:none;fill-rule:nonzero;fill:rgb(12.940979%,11.764526%,11.764526%);fill-opacity:1;"
       d="M 58.3125 8.234375 C 59.734375 7.078125 60.796875 5.5 60.796875 3.671875 C 60.796875 2.4375 60.546875 1.203125 59.859375 0.078125 L 59.671875 0.125 C 59.921875 0.65625 60.140625 1.609375 60.140625 2.640625 C 60.140625 3.484375 59.984375 4.625 59.59375 5.796875 C 59.15625 7.0625 58.609375 7.640625 58.1875 8.078125 Z M 58.3125 8.234375 "
       id="path104" />
    <path
       style=" stroke:none;fill-rule:nonzero;fill:rgb(12.940979%,11.764526%,11.764526%);fill-opacity:1;"
       d="M 66.550781 3.75 L 64.457031 3.75 L 64.457031 4.390625 L 66.550781 4.390625 L 66.550781 6.5 L 67.191406 6.5 L 67.191406 4.390625 L 69.285156 4.390625 L 69.285156 3.75 L 67.191406 3.75 L 67.191406 1.640625 L 66.550781 1.640625 Z M 66.550781 3.75 "
       id="path106" />
    <path
       style=" stroke:none;fill-rule:nonzero;fill:rgb(12.940979%,11.764526%,11.764526%);fill-opacity:1;"
       d="M 72.664063 2.640625 L 72.851563 2.625 C 73.273438 2.609375 73.320313 2.65625 73.429688 3.375 C 73.507813 3.90625 73.601563 4.734375 73.632813 5.375 L 73.664063 6.21875 C 73.664063 6.359375 73.664063 6.671875 73.789063 6.671875 C 73.929688 6.671875 74.007813 6.46875 74.929688 4.828125 C 75.367188 4.0625 75.601563 3.65625 75.773438 3.359375 L 75.789063 3.359375 L 76.070313 6.390625 C 76.070313 6.53125 76.070313 6.671875 76.179688 6.671875 C 76.289063 6.671875 76.414063 6.484375 76.789063 6.03125 C 77.242188 5.515625 78.726563 3.640625 78.726563 2.8125 C 78.726563 2.53125 78.570313 2.265625 78.210938 2.265625 C 77.945313 2.265625 77.851563 2.4375 77.851563 2.609375 C 77.851563 2.921875 78.257813 2.96875 78.257813 3.3125 C 78.257813 3.8125 77.523438 4.75 76.679688 5.796875 L 76.367188 2.34375 C 76.367188 2.328125 76.367188 2.28125 76.304688 2.28125 C 76.242188 2.28125 76.210938 2.3125 76.179688 2.359375 L 74.351563 5.265625 L 74.335938 5.265625 C 74.335938 5.09375 74.242188 3.78125 74.054688 2.8125 C 73.960938 2.28125 73.929688 2.265625 73.882813 2.265625 C 73.789063 2.265625 73.210938 2.421875 72.664063 2.5 Z M 72.664063 2.640625 "
       id="path108" />
    <path
       style=" stroke:none;fill-rule:nonzero;fill:rgb(12.940979%,11.764526%,11.764526%);fill-opacity:1;"
       d="M 79.195313 8.101563 L 80.742188 8.101563 L 80.742188 8.023438 C 80.476563 8.023438 80.273438 8.007813 80.273438 7.835938 C 80.273438 7.742188 80.335938 7.539063 80.367188 7.429688 L 81.164063 4.523438 C 81.195313 4.429688 81.226563 4.320313 81.179688 4.320313 C 81.132813 4.320313 80.351563 4.492188 80.101563 4.539063 L 80.101563 4.617188 L 80.414063 4.601563 C 80.460938 4.601563 80.632813 4.601563 80.632813 4.789063 C 80.632813 4.835938 80.601563 4.914063 80.585938 4.976563 L 79.820313 7.726563 C 79.742188 7.976563 79.523438 7.992188 79.195313 8.023438 Z M 79.195313 8.101563 "
       id="path110" />
    <path
       style=" stroke:none;fill-rule:nonzero;fill:rgb(12.940979%,11.764526%,11.764526%);fill-opacity:1;"
       d="M 83.945313 7.320313 C 83.851563 7.523438 83.757813 7.679688 83.398438 7.679688 L 82.335938 7.679688 L 82.335938 7.648438 L 83.398438 6.570313 C 84.101563 5.882813 84.242188 5.632813 84.242188 5.257813 C 84.242188 4.835938 83.929688 4.320313 83.335938 4.320313 C 83.195313 4.320313 82.460938 4.335938 82.164063 5.210938 L 82.273438 5.257813 C 82.351563 5.117188 82.570313 4.726563 83.070313 4.726563 C 83.507813 4.726563 83.757813 5.070313 83.757813 5.414063 C 83.757813 5.601563 83.742188 5.914063 82.945313 6.757813 L 81.773438 8.007813 L 81.773438 8.101563 L 83.757813 8.101563 L 84.039063 7.367188 Z M 83.945313 7.320313 "
       id="path112" />
    <path
       style=" stroke:none;fill-rule:nonzero;fill:rgb(12.940979%,11.764526%,11.764526%);fill-opacity:1;"
       d="M 84.855469 5.09375 L 84.667969 6.625 L 84.824219 6.625 C 84.871094 6.515625 84.917969 6.421875 85.042969 6.421875 C 85.324219 6.421875 85.714844 6.609375 85.996094 6.609375 C 86.542969 6.609375 87.433594 6.359375 87.433594 5.3125 C 87.433594 4.5 86.261719 3.65625 86.261719 3.046875 C 86.261719 2.578125 86.558594 2.484375 86.777344 2.484375 C 87.402344 2.484375 87.636719 3.046875 87.683594 3.59375 L 87.824219 3.59375 L 88.027344 2.265625 L 87.886719 2.265625 C 87.839844 2.34375 87.777344 2.4375 87.621094 2.4375 C 87.339844 2.4375 87.136719 2.265625 86.714844 2.265625 C 85.699219 2.265625 85.558594 3.03125 85.558594 3.328125 C 85.558594 4.078125 86.699219 5 86.699219 5.625 C 86.699219 5.9375 86.542969 6.40625 86.011719 6.40625 C 85.230469 6.40625 85.074219 5.515625 85.011719 5.09375 Z M 84.855469 5.09375 "
       id="path114" />
    <path
       style=" stroke:none;fill-rule:nonzero;fill:rgb(12.940979%,11.764526%,11.764526%);fill-opacity:1;"
       d="M 90.480469 7.320313 C 90.386719 7.523438 90.292969 7.679688 89.933594 7.679688 L 88.871094 7.679688 L 88.871094 7.648438 L 89.933594 6.570313 C 90.636719 5.882813 90.777344 5.632813 90.777344 5.257813 C 90.777344 4.835938 90.464844 4.320313 89.871094 4.320313 C 89.730469 4.320313 88.996094 4.335938 88.699219 5.210938 L 88.808594 5.257813 C 88.886719 5.117188 89.105469 4.726563 89.605469 4.726563 C 90.042969 4.726563 90.292969 5.070313 90.292969 5.414063 C 90.292969 5.601563 90.277344 5.914063 89.480469 6.757813 L 88.308594 8.007813 L 88.308594 8.101563 L 90.292969 8.101563 L 90.574219 7.367188 Z M 90.480469 7.320313 "
       id="path116" />
    <path
       style=" stroke:none;fill-rule:nonzero;fill:rgb(12.940979%,11.764526%,11.764526%);fill-opacity:1;"
       d="M 92.578125 8.171875 C 92.109375 7 92.109375 6.15625 92.109375 5.515625 C 92.109375 4.90625 92.28125 3.609375 92.65625 2.53125 C 93.125 1.21875 93.609375 0.703125 94.0625 0.21875 L 93.9375 0.078125 C 92.203125 1.5625 91.453125 3.0625 91.453125 4.640625 C 91.453125 5.265625 91.453125 6.65625 92.40625 8.234375 Z M 92.578125 8.171875 "
       id="path118" />
    <path
       style=" stroke:none;fill-rule:nonzero;fill:rgb(12.940979%,11.764526%,11.764526%);fill-opacity:1;"
       d="M 97.085938 2.390625 L 96.320313 2.390625 L 96.585938 1.40625 C 96.601563 1.328125 96.585938 1.25 96.523438 1.265625 C 96.429688 1.25 96.398438 1.328125 96.351563 1.375 C 96.085938 1.71875 95.617188 2.140625 95.304688 2.3125 C 95.148438 2.390625 94.882813 2.46875 94.820313 2.546875 C 94.789063 2.59375 94.789063 2.640625 94.804688 2.703125 L 95.507813 2.703125 L 94.820313 5.34375 C 94.773438 5.5 94.601563 6.078125 94.601563 6.21875 C 94.601563 6.515625 94.867188 6.609375 95.054688 6.609375 C 95.554688 6.609375 95.929688 6.1875 96.414063 5.4375 L 96.289063 5.375 C 96.054688 5.6875 95.726563 6.140625 95.523438 6.140625 C 95.429688 6.140625 95.367188 6.0625 95.367188 5.96875 C 95.367188 5.9375 95.367188 5.921875 95.382813 5.890625 L 96.226563 2.703125 L 97.039063 2.703125 Z M 97.085938 2.390625 "
       id="path120" />
    <path
       style=" stroke:none;fill-rule:nonzero;fill:rgb(12.940979%,11.764526%,11.764526%);fill-opacity:1;"
       d="M 97.195313 8.234375 C 98.617188 7.078125 99.679688 5.5 99.679688 3.671875 C 99.679688 2.4375 99.429688 1.203125 98.742188 0.078125 L 98.554688 0.125 C 98.804688 0.65625 99.023438 1.609375 99.023438 2.640625 C 99.023438 3.484375 98.867188 4.625 98.476563 5.796875 C 98.039063 7.0625 97.492188 7.640625 97.070313 8.078125 Z M 97.195313 8.234375 "
       id="path122" />
    <path
       style=" stroke:none;fill-rule:nonzero;fill:rgb(12.940979%,11.764526%,11.764526%);fill-opacity:1;"
       d="M 105.429688 3.75 L 103.335938 3.75 L 103.335938 4.390625 L 105.429688 4.390625 L 105.429688 6.5 L 106.070313 6.5 L 106.070313 4.390625 L 108.164063 4.390625 L 108.164063 3.75 L 106.070313 3.75 L 106.070313 1.640625 L 105.429688 1.640625 Z M 105.429688 3.75 "
       id="path124" />
    <path
       style=" stroke:none;fill-rule:nonzero;fill:rgb(12.940979%,11.764526%,11.764526%);fill-opacity:1;"
       d="M 111.546875 2.640625 L 111.734375 2.625 C 112.15625 2.609375 112.203125 2.65625 112.3125 3.375 C 112.390625 3.90625 112.484375 4.734375 112.515625 5.375 L 112.546875 6.21875 C 112.546875 6.359375 112.546875 6.671875 112.671875 6.671875 C 112.8125 6.671875 112.890625 6.46875 113.8125 4.828125 C 114.25 4.0625 114.484375 3.65625 114.65625 3.359375 L 114.671875 3.359375 L 114.953125 6.390625 C 114.953125 6.53125 114.953125 6.671875 115.0625 6.671875 C 115.171875 6.671875 115.296875 6.484375 115.671875 6.03125 C 116.125 5.515625 117.609375 3.640625 117.609375 2.8125 C 117.609375 2.53125 117.453125 2.265625 117.09375 2.265625 C 116.828125 2.265625 116.734375 2.4375 116.734375 2.609375 C 116.734375 2.921875 117.140625 2.96875 117.140625 3.3125 C 117.140625 3.8125 116.40625 4.75 115.5625 5.796875 L 115.25 2.34375 C 115.25 2.328125 115.25 2.28125 115.1875 2.28125 C 115.125 2.28125 115.09375 2.3125 115.0625 2.359375 L 113.234375 5.265625 L 113.21875 5.265625 C 113.21875 5.09375 113.125 3.78125 112.9375 2.8125 C 112.84375 2.28125 112.8125 2.265625 112.765625 2.265625 C 112.671875 2.265625 112.09375 2.421875 111.546875 2.5 Z M 111.546875 2.640625 "
       id="path126" />
    <path
       style=" stroke:none;fill-rule:nonzero;fill:rgb(12.940979%,11.764526%,11.764526%);fill-opacity:1;"
       d="M 118.074219 8.101563 L 119.621094 8.101563 L 119.621094 8.023438 C 119.355469 8.023438 119.152344 8.007813 119.152344 7.835938 C 119.152344 7.742188 119.214844 7.539063 119.246094 7.429688 L 120.042969 4.523438 C 120.074219 4.429688 120.105469 4.320313 120.058594 4.320313 C 120.011719 4.320313 119.230469 4.492188 118.980469 4.539063 L 118.980469 4.617188 L 119.292969 4.601563 C 119.339844 4.601563 119.511719 4.601563 119.511719 4.789063 C 119.511719 4.835938 119.480469 4.914063 119.464844 4.976563 L 118.699219 7.726563 C 118.621094 7.976563 118.402344 7.992188 118.074219 8.023438 Z M 118.074219 8.101563 "
       id="path128" />
    <path
       style=" stroke:none;fill-rule:nonzero;fill:rgb(12.940979%,11.764526%,11.764526%);fill-opacity:1;"
       d="M 121.59375 4.929688 C 121.671875 4.820313 121.875 4.554688 122.21875 4.554688 C 122.4375 4.554688 122.703125 4.695313 122.703125 5.070313 C 122.703125 5.664063 121.9375 5.914063 121.375 5.992188 L 121.375 6.085938 C 121.921875 6.039063 122.40625 6.257813 122.40625 7.039063 C 122.40625 7.742188 121.890625 7.929688 121.703125 7.929688 C 121.375 7.929688 121.203125 7.585938 120.9375 7.585938 C 120.734375 7.585938 120.671875 7.695313 120.671875 7.804688 C 120.671875 8.054688 120.984375 8.148438 121.3125 8.148438 C 122.34375 8.148438 122.859375 7.351563 122.859375 6.726563 C 122.859375 6.117188 122.46875 5.945313 122.328125 5.882813 L 122.328125 5.851563 C 122.921875 5.632813 123.1875 5.445313 123.1875 5.023438 C 123.1875 4.554688 122.796875 4.320313 122.375 4.320313 C 122.0625 4.320313 121.640625 4.570313 121.5 4.898438 Z M 121.59375 4.929688 "
       id="path130" />
    <path
       style=" stroke:none;fill-rule:nonzero;fill:rgb(12.940979%,11.764526%,11.764526%);fill-opacity:1;"
       d="M 123.738281 5.09375 L 123.550781 6.625 L 123.707031 6.625 C 123.753906 6.515625 123.800781 6.421875 123.925781 6.421875 C 124.207031 6.421875 124.597656 6.609375 124.878906 6.609375 C 125.425781 6.609375 126.316406 6.359375 126.316406 5.3125 C 126.316406 4.5 125.144531 3.65625 125.144531 3.046875 C 125.144531 2.578125 125.441406 2.484375 125.660156 2.484375 C 126.285156 2.484375 126.519531 3.046875 126.566406 3.59375 L 126.707031 3.59375 L 126.910156 2.265625 L 126.769531 2.265625 C 126.722656 2.34375 126.660156 2.4375 126.503906 2.4375 C 126.222656 2.4375 126.019531 2.265625 125.597656 2.265625 C 124.582031 2.265625 124.441406 3.03125 124.441406 3.328125 C 124.441406 4.078125 125.582031 5 125.582031 5.625 C 125.582031 5.9375 125.425781 6.40625 124.894531 6.40625 C 124.113281 6.40625 123.957031 5.515625 123.894531 5.09375 Z M 123.738281 5.09375 "
       id="path132" />
    <path
       style=" stroke:none;fill-rule:nonzero;fill:rgb(12.940979%,11.764526%,11.764526%);fill-opacity:1;"
       d="M 128.128906 4.929688 C 128.207031 4.820313 128.410156 4.554688 128.753906 4.554688 C 128.972656 4.554688 129.238281 4.695313 129.238281 5.070313 C 129.238281 5.664063 128.472656 5.914063 127.910156 5.992188 L 127.910156 6.085938 C 128.457031 6.039063 128.941406 6.257813 128.941406 7.039063 C 128.941406 7.742188 128.425781 7.929688 128.238281 7.929688 C 127.910156 7.929688 127.738281 7.585938 127.472656 7.585938 C 127.269531 7.585938 127.207031 7.695313 127.207031 7.804688 C 127.207031 8.054688 127.519531 8.148438 127.847656 8.148438 C 128.878906 8.148438 129.394531 7.351563 129.394531 6.726563 C 129.394531 6.117188 129.003906 5.945313 128.863281 5.882813 L 128.863281 5.851563 C 129.457031 5.632813 129.722656 5.445313 129.722656 5.023438 C 129.722656 4.554688 129.332031 4.320313 128.910156 4.320313 C 128.597656 4.320313 128.175781 4.570313 128.035156 4.898438 Z M 128.128906 4.929688 "
       id="path134" />
    <path
       style=" stroke:none;fill-rule:nonzero;fill:rgb(12.940979%,11.764526%,11.764526%);fill-opacity:1;"
       d="M 131.457031 8.171875 C 130.988281 7 130.988281 6.15625 130.988281 5.515625 C 130.988281 4.90625 131.160156 3.609375 131.535156 2.53125 C 132.003906 1.21875 132.488281 0.703125 132.941406 0.21875 L 132.816406 0.078125 C 131.082031 1.5625 130.332031 3.0625 130.332031 4.640625 C 130.332031 5.265625 130.332031 6.65625 131.285156 8.234375 Z M 131.457031 8.171875 "
       id="path136" />
    <path
       style=" stroke:none;fill-rule:nonzero;fill:rgb(12.940979%,11.764526%,11.764526%);fill-opacity:1;"
       d="M 135.96875 2.390625 L 135.203125 2.390625 L 135.46875 1.40625 C 135.484375 1.328125 135.46875 1.25 135.40625 1.265625 C 135.3125 1.25 135.28125 1.328125 135.234375 1.375 C 134.96875 1.71875 134.5 2.140625 134.1875 2.3125 C 134.03125 2.390625 133.765625 2.46875 133.703125 2.546875 C 133.671875 2.59375 133.671875 2.640625 133.6875 2.703125 L 134.390625 2.703125 L 133.703125 5.34375 C 133.65625 5.5 133.484375 6.078125 133.484375 6.21875 C 133.484375 6.515625 133.75 6.609375 133.9375 6.609375 C 134.4375 6.609375 134.8125 6.1875 135.296875 5.4375 L 135.171875 5.375 C 134.9375 5.6875 134.609375 6.140625 134.40625 6.140625 C 134.3125 6.140625 134.25 6.0625 134.25 5.96875 C 134.25 5.9375 134.25 5.921875 134.265625 5.890625 L 135.109375 2.703125 L 135.921875 2.703125 Z M 135.96875 2.390625 "
       id="path138" />
    <path
       style=" stroke:none;fill-rule:nonzero;fill:rgb(12.940979%,11.764526%,11.764526%);fill-opacity:1;"
       d="M 136.074219 8.234375 C 137.496094 7.078125 138.558594 5.5 138.558594 3.671875 C 138.558594 2.4375 138.308594 1.203125 137.621094 0.078125 L 137.433594 0.125 C 137.683594 0.65625 137.902344 1.609375 137.902344 2.640625 C 137.902344 3.484375 137.746094 4.625 137.355469 5.796875 C 136.917969 7.0625 136.371094 7.640625 135.949219 8.078125 Z M 136.074219 8.234375 "
       id="path140" />
    <path
       style=" stroke:none;fill-rule:nonzero;fill:rgb(12.940979%,11.764526%,11.764526%);fill-opacity:1;"
       d="M 144.3125 3.75 L 142.21875 3.75 L 142.21875 4.390625 L 144.3125 4.390625 L 144.3125 6.5 L 144.953125 6.5 L 144.953125 4.390625 L 147.046875 4.390625 L 147.046875 3.75 L 144.953125 3.75 L 144.953125 1.640625 L 144.3125 1.640625 Z M 144.3125 3.75 "
       id="path142" />
    <path
       style=" stroke:none;fill-rule:nonzero;fill:rgb(12.940979%,11.764526%,11.764526%);fill-opacity:1;"
       d="M 150.425781 2.640625 L 150.613281 2.625 C 151.035156 2.609375 151.082031 2.65625 151.191406 3.375 C 151.269531 3.90625 151.363281 4.734375 151.394531 5.375 L 151.425781 6.21875 C 151.425781 6.359375 151.425781 6.671875 151.550781 6.671875 C 151.691406 6.671875 151.769531 6.46875 152.691406 4.828125 C 153.128906 4.0625 153.363281 3.65625 153.535156 3.359375 L 153.550781 3.359375 L 153.832031 6.390625 C 153.832031 6.53125 153.832031 6.671875 153.941406 6.671875 C 154.050781 6.671875 154.175781 6.484375 154.550781 6.03125 C 155.003906 5.515625 156.488281 3.640625 156.488281 2.8125 C 156.488281 2.53125 156.332031 2.265625 155.972656 2.265625 C 155.707031 2.265625 155.613281 2.4375 155.613281 2.609375 C 155.613281 2.921875 156.019531 2.96875 156.019531 3.3125 C 156.019531 3.8125 155.285156 4.75 154.441406 5.796875 L 154.128906 2.34375 C 154.128906 2.328125 154.128906 2.28125 154.066406 2.28125 C 154.003906 2.28125 153.972656 2.3125 153.941406 2.359375 L 152.113281 5.265625 L 152.097656 5.265625 C 152.097656 5.09375 152.003906 3.78125 151.816406 2.8125 C 151.722656 2.28125 151.691406 2.265625 151.644531 2.265625 C 151.550781 2.265625 150.972656 2.421875 150.425781 2.5 Z M 150.425781 2.640625 "
       id="path144" />
    <path
       style=" stroke:none;fill-rule:nonzero;fill:rgb(12.940979%,11.764526%,11.764526%);fill-opacity:1;"
       d="M 156.953125 8.101563 L 158.5 8.101563 L 158.5 8.023438 C 158.234375 8.023438 158.03125 8.007813 158.03125 7.835938 C 158.03125 7.742188 158.09375 7.539063 158.125 7.429688 L 158.921875 4.523438 C 158.953125 4.429688 158.984375 4.320313 158.9375 4.320313 C 158.890625 4.320313 158.109375 4.492188 157.859375 4.539063 L 157.859375 4.617188 L 158.171875 4.601563 C 158.21875 4.601563 158.390625 4.601563 158.390625 4.789063 C 158.390625 4.835938 158.359375 4.914063 158.34375 4.976563 L 157.578125 7.726563 C 157.5 7.976563 157.28125 7.992188 156.953125 8.023438 Z M 156.953125 8.101563 "
       id="path146" />
    <path
       style=" stroke:none;fill-rule:nonzero;fill:rgb(12.940979%,11.764526%,11.764526%);fill-opacity:1;"
       d="M 160.097656 7.226563 C 160.097656 6.679688 160.503906 4.476563 161.332031 4.476563 C 161.816406 4.476563 161.816406 5.054688 161.816406 5.210938 C 161.816406 6.195313 161.332031 7.976563 160.582031 7.976563 C 160.394531 7.976563 160.097656 7.882813 160.097656 7.226563 Z M 162.253906 5.710938 C 162.253906 5.164063 162.097656 4.320313 161.363281 4.320313 C 160.582031 4.320313 159.644531 5.476563 159.644531 6.976563 C 159.644531 7.570313 159.972656 8.148438 160.550781 8.148438 C 161.488281 8.148438 162.253906 6.820313 162.253906 5.710938 Z M 162.253906 5.710938 "
       id="path148" />
    <g
       clip-path="url(#clip2)"
       clip-rule="nonzero"
       id="g152">
      <path
         style=" stroke:none;fill-rule:nonzero;fill:rgb(12.940979%,11.764526%,11.764526%);fill-opacity:1;"
         d="M 163.492188 7.359375 C 163.460938 7.53125 163.414063 7.703125 163.054688 7.703125 L 162.460938 7.703125 L 162.382813 7.96875 L 164.054688 7.96875 L 165.945313 0.140625 L 164.132813 0.140625 L 164.054688 0.390625 L 164.601563 0.390625 C 164.742188 0.390625 165.070313 0.390625 165.070313 0.671875 C 165.070313 0.703125 165.054688 0.796875 165.039063 0.859375 Z M 163.492188 7.359375 "
         id="path150" />
    </g>
  </g>
</svg>
