<?xml version="1.0" encoding="UTF-8" standalone="no"?>
<svg
   xmlns:dc="http://purl.org/dc/elements/1.1/"
   xmlns:cc="http://creativecommons.org/ns#"
   xmlns:rdf="http://www.w3.org/1999/02/22-rdf-syntax-ns#"
   xmlns:svg="http://www.w3.org/2000/svg"
   xmlns="http://www.w3.org/2000/svg"
   xmlns:sodipodi="http://sodipodi.sourceforge.net/DTD/sodipodi-0.dtd"
   xmlns:inkscape="http://www.inkscape.org/namespaces/inkscape"
   width="253.569443pt"
   height="145.859894pt"
   viewBox="0 0 253.569443 145.859894"
   version="1.2"
   id="svg231"
   sodipodi:docname="mds_illustration.svg"
   inkscape:version="0.92.4 (5da689c313, 2019-01-14)">
  <metadata
     id="metadata235">
    <rdf:RDF>
      <cc:Work
         rdf:about="">
        <dc:format>image/svg+xml</dc:format>
        <dc:type
           rdf:resource="http://purl.org/dc/dcmitype/StillImage" />
        <dc:title></dc:title>
      </cc:Work>
    </rdf:RDF>
  </metadata>
  <sodipodi:namedview
     pagecolor="#ffffff"
     bordercolor="#666666"
     borderopacity="1"
     objecttolerance="10"
     gridtolerance="10"
     guidetolerance="10"
     inkscape:pageopacity="0"
     inkscape:pageshadow="2"
     inkscape:window-width="640"
     inkscape:window-height="480"
     id="namedview233"
     showgrid="false"
     inkscape:zoom="1.0174728"
     inkscape:cx="169.0463"
     inkscape:cy="97.239929"
     inkscape:window-x="0"
     inkscape:window-y="0"
     inkscape:window-maximized="0"
     inkscape:current-layer="svg231" />
  <defs
     id="defs8">
    <clipPath
       id="clip1">
      <path
         d="M 95 142 L 97 142 L 97 145.859375 L 95 145.859375 Z M 95 142 "
         id="path2" />
    </clipPath>
    <clipPath
       id="clip2">
      <path
         d="M 251 137 L 253.570313 137 L 253.570313 141 L 251 141 Z M 251 137 "
         id="path5" />
    </clipPath>
  </defs>
  <g
     id="surface36">
    <path
       style="fill:none;stroke-width:0.512;stroke-linecap:round;stroke-linejoin:round;stroke:rgb(12.940979%,11.764526%,11.764526%);stroke-opacity:1;stroke-miterlimit:4;"
       d="M 13.863281 112.597656 L 80.15625 138.273438 "
       id="path10" />
    <path
       style="fill:none;stroke-width:0.256;stroke-linecap:round;stroke-linejoin:round;stroke:rgb(12.940979%,11.764526%,11.764526%);stroke-opacity:1;stroke-miterlimit:4;"
       d="M 3.824219 54.226563 L 49.269531 24.765625 "
       id="path12" />
    <path
       style="fill:none;stroke-width:0.512;stroke-linecap:round;stroke-linejoin:round;stroke:rgb(12.940979%,11.764526%,11.764526%);stroke-opacity:1;stroke-miterlimit:4;"
       d="M 13.863281 112.597656 L 3.824219 54.226563 M 13.863281 112.597656 L 3.824219 54.226563 "
       id="path14" />
    <path
       style="fill:none;stroke-width:0.256;stroke-linecap:round;stroke-linejoin:round;stroke:rgb(12.940979%,11.764526%,11.764526%);stroke-opacity:1;stroke-miterlimit:4;"
       d="M 3.824219 54.226563 L 49.269531 24.765625 L 51.269531 77.460938 "
       id="path16" />
    <path
       style="fill:none;stroke-width:0.512;stroke-linecap:round;stroke-linejoin:round;stroke:rgb(12.940979%,11.764526%,11.764526%);stroke-opacity:1;stroke-miterlimit:4;"
       d="M 61.578125 67.550781 L 13.863281 112.597656 "
       id="path18" />
    <path
       style=" stroke:none;fill-rule:nonzero;fill:rgb(12.940979%,11.764526%,11.764526%);fill-opacity:1;"
       d="M 62.160156 66.195313 C 61.273438 66.636719 60.644531 66.867188 59.882813 67.167969 L 61.867188 69.273438 C 61.976563 68.992188 62.480469 67.914063 62.972656 67.054688 C 63.5 66.132813 64.023438 65.351563 64.40625 64.886719 C 63.921875 65.242188 63.109375 65.71875 62.160156 66.195313 "
       id="path20" />
    <path
       style="fill:none;stroke-width:0.256;stroke-linecap:round;stroke-linejoin:round;stroke:rgb(12.940979%,11.764526%,11.764526%);stroke-opacity:1;stroke-miterlimit:4;"
       d="M 80.15625 138.273438 L 109.0625 94.882813 L 117.335938 39.128906 L 84.011719 77.054688 L 80.15625 138.273438 "
       id="path22" />
    <path
       style="fill:none;stroke-width:0.512;stroke-linecap:round;stroke-linejoin:round;stroke:rgb(12.940979%,11.764526%,11.764526%);stroke-opacity:1;stroke-miterlimit:4;"
       d="M 13.863281 112.597656 L 3.824219 54.226563 "
       id="path24" />
    <path
       style="fill:none;stroke-width:0.256;stroke-linecap:round;stroke-linejoin:round;stroke:rgb(12.940979%,11.764526%,11.764526%);stroke-opacity:1;stroke-miterlimit:4;"
       d="M 3.824219 54.226563 L 84.011719 77.054688 L 80.15625 138.273438 "
       id="path26" />
    <path
       style="fill:none;stroke-width:0.512;stroke-linecap:round;stroke-linejoin:round;stroke:rgb(12.940979%,11.764526%,11.764526%);stroke-opacity:1;stroke-miterlimit:4;"
       d="M 80.15625 138.273438 L 13.863281 112.597656 "
       id="path28" />
    <path
       style="fill:none;stroke-width:0.256;stroke-linecap:round;stroke-linejoin:round;stroke:rgb(12.940979%,11.764526%,11.764526%);stroke-opacity:1;stroke-miterlimit:4;"
       d="M 51.269531 77.460938 L 109.0625 94.882813 L 117.335938 39.128906 L 49.269531 24.765625 L 51.269531 77.460938 "
       id="path30" />
    <path
       style="fill:none;stroke-width:2.287;stroke-linecap:round;stroke-linejoin:round;stroke:rgb(79.214478%,79.214478%,79.214478%);stroke-opacity:1;stroke-miterlimit:4;"
       d="M 33.882813 81.027344 L 33.882813 81.027344 "
       id="path32" />
    <path
       style="fill:none;stroke-width:3.422;stroke-linecap:round;stroke-linejoin:round;stroke:rgb(79.214478%,79.214478%,79.214478%);stroke-opacity:1;stroke-miterlimit:4;"
       d="M 80.378906 55.085938 L 80.378906 55.085938 "
       id="path34" />
    <path
       style="fill:none;stroke-width:3.422;stroke-linecap:round;stroke-linejoin:round;stroke:rgb(12.940979%,11.764526%,11.764526%);stroke-opacity:1;stroke-miterlimit:4;"
       d="M 16.949219 100.328125 L 16.949219 100.328125 "
       id="path36" />
    <path
       style="fill:none;stroke-width:3.422;stroke-linecap:round;stroke-linejoin:round;stroke:rgb(63.920593%,14.901733%,16.862488%);stroke-opacity:1;stroke-miterlimit:4;"
       d="M 82.054688 56.472656 L 82.054688 56.472656 "
       id="path38" />
    <path
       style="fill:none;stroke-width:2.287;stroke-linecap:round;stroke-linejoin:round;stroke:rgb(69.018555%,69.018555%,69.018555%);stroke-opacity:1;stroke-miterlimit:4;"
       d="M 23.601563 112.523438 L 23.601563 112.523438 "
       id="path40" />
    <path
       style="fill:none;stroke-width:2.287;stroke-linecap:round;stroke-linejoin:round;stroke:rgb(92.155457%,9.803772%,13.725281%);stroke-opacity:1;stroke-miterlimit:4;"
       d="M 104.042969 66.21875 L 104.042969 66.21875 "
       id="path42" />
    <path
       style="fill:none;stroke-width:3.422;stroke-linecap:round;stroke-linejoin:round;stroke:rgb(95.292664%,41.960144%,34.117126%);stroke-opacity:1;stroke-miterlimit:4;"
       d="M 103.378906 62.097656 L 103.378906 62.097656 "
       id="path44" />
    <path
       style="fill:none;stroke-width:2.287;stroke-linecap:round;stroke-linejoin:round;stroke:rgb(98.03772%,79.214478%,72.940063%);stroke-opacity:1;stroke-miterlimit:4;"
       d="M 109.933594 66.542969 L 109.933594 66.542969 "
       id="path46" />
    <path
       style="fill:none;stroke-width:3.422;stroke-linecap:round;stroke-linejoin:round;stroke:rgb(98.03772%,79.214478%,72.940063%);stroke-opacity:1;stroke-miterlimit:4;"
       d="M 31.214844 83.820313 L 31.214844 83.820313 "
       id="path48" />
    <path
       style="fill:none;stroke-width:2.287;stroke-linecap:round;stroke-linejoin:round;stroke:rgb(92.155457%,9.803772%,13.725281%);stroke-opacity:1;stroke-miterlimit:4;"
       d="M 40.222656 105.675781 L 40.222656 105.675781 "
       id="path50" />
    <path
       style="fill:none;stroke-width:3.422;stroke-linecap:round;stroke-linejoin:round;stroke:rgb(63.920593%,14.901733%,16.862488%);stroke-opacity:1;stroke-miterlimit:4;"
       d="M 50.296875 81.507813 L 50.296875 81.507813 "
       id="path52" />
    <path
       style="fill:none;stroke-width:3.422;stroke-linecap:round;stroke-linejoin:round;stroke:rgb(12.940979%,11.764526%,11.764526%);stroke-opacity:1;stroke-miterlimit:4;"
       d="M 86.882813 56.074219 L 86.882813 56.074219 "
       id="path54" />
    <path
       style="fill:none;stroke-width:3.422;stroke-linecap:round;stroke-linejoin:round;stroke:rgb(59.214783%,59.214783%,59.214783%);stroke-opacity:1;stroke-miterlimit:4;"
       d="M 48.148438 104.761719 L 48.148438 104.761719 M 106.40625 60.492188 L 106.40625 60.492188 "
       id="path56" />
    <path
       style="fill:none;stroke-width:2.287;stroke-linecap:round;stroke-linejoin:round;stroke:rgb(97.253418%,59.999084%,50.979614%);stroke-opacity:1;stroke-miterlimit:4;"
       d="M 47.378906 106.214844 L 47.378906 106.214844 "
       id="path58" />
    <path
       style="fill:none;stroke-width:3.422;stroke-linecap:round;stroke-linejoin:round;stroke:rgb(78.038025%,12.940979%,14.901733%);stroke-opacity:1;stroke-miterlimit:4;"
       d="M 26.800781 98.828125 L 26.800781 98.828125 "
       id="path60" />
    <path
       style="fill:none;stroke-width:2.287;stroke-linecap:round;stroke-linejoin:round;stroke:rgb(97.253418%,59.999084%,50.979614%);stroke-opacity:1;stroke-miterlimit:4;"
       d="M 68.433594 51.945313 L 68.433594 51.945313 "
       id="path62" />
    <path
       style="fill:none;stroke-width:2.287;stroke-linecap:round;stroke-linejoin:round;stroke:rgb(78.038025%,12.940979%,14.901733%);stroke-opacity:1;stroke-miterlimit:4;"
       d="M 78.363281 48.667969 L 78.363281 48.667969 "
       id="path64" />
    <path
       style="fill:none;stroke-width:2.287;stroke-linecap:round;stroke-linejoin:round;stroke:rgb(95.292664%,41.960144%,34.117126%);stroke-opacity:1;stroke-miterlimit:4;"
       d="M 36.992188 94.957031 L 36.992188 94.957031 "
       id="path66" />
    <path
       style="fill:none;stroke-width:2.287;stroke-linecap:round;stroke-linejoin:round;stroke:rgb(69.018555%,69.018555%,69.018555%);stroke-opacity:1;stroke-miterlimit:4;"
       d="M 83.382813 56.894531 L 83.382813 56.894531 "
       id="path68" />
    <path
       style="fill:none;stroke-width:0.256;stroke-linecap:round;stroke-linejoin:round;stroke:rgb(12.940979%,11.764526%,11.764526%);stroke-opacity:1;stroke-miterlimit:4;"
       d="M 80.15625 138.273438 L 109.0625 94.882813 L 117.335938 39.128906 L 84.011719 77.054688 L 80.15625 138.273438 "
       id="path70" />
    <path
       style="fill:none;stroke-width:0.512;stroke-linecap:round;stroke-linejoin:round;stroke:rgb(12.940979%,11.764526%,11.764526%);stroke-opacity:1;stroke-miterlimit:4;"
       d="M 13.863281 112.597656 L 2.582031 46.847656 "
       id="path72" />
    <path
       style=" stroke:none;fill-rule:nonzero;fill:rgb(12.940979%,11.764526%,11.764526%);fill-opacity:1;"
       d="M 1.859375 45.742188 C 1.753906 46.621094 1.613281 47.203125 1.460938 47.917969 L 4.003906 47.480469 C 3.851563 47.261719 3.296875 46.355469 2.902344 45.566406 C 2.476563 44.71875 2.152344 43.941406 2 43.425781 C 2.023438 43.960938 1.976563 44.804688 1.859375 45.742188 "
       id="path74" />
    <path
       style="fill:none;stroke-width:0.256;stroke-linecap:round;stroke-linejoin:round;stroke:rgb(12.940979%,11.764526%,11.764526%);stroke-opacity:1;stroke-miterlimit:4;"
       d="M 3.824219 54.226563 L 84.011719 77.054688 L 80.15625 138.273438 "
       id="path76" />
    <path
       style="fill:none;stroke-width:0.512;stroke-linecap:round;stroke-linejoin:round;stroke:rgb(12.940979%,11.764526%,11.764526%);stroke-opacity:1;stroke-miterlimit:4;"
       d="M 80.15625 138.273438 L 13.863281 112.597656 L 85.464844 140.339844 "
       id="path78" />
    <path
       style=" stroke:none;fill-rule:nonzero;fill:rgb(12.940979%,11.764526%,11.764526%);fill-opacity:1;"
       d="M 86.78125 140.289063 C 86.085938 139.742188 85.65625 139.324219 85.125 138.824219 L 84.191406 141.234375 C 84.457031 141.214844 85.519531 141.203125 86.402344 141.273438 C 87.347656 141.34375 88.179688 141.464844 88.699219 141.597656 C 88.226563 141.34375 87.527344 140.871094 86.78125 140.289063 "
       id="path80" />
    <path
       style="fill:none;stroke-width:0.256;stroke-linecap:round;stroke-linejoin:round;stroke:rgb(12.940979%,11.764526%,11.764526%);stroke-opacity:1;stroke-miterlimit:4;"
       d="M 3.824219 54.226563 L 49.269531 24.765625 "
       id="path82" />
    <path
       style="fill:none;stroke-width:0.512;stroke-linecap:round;stroke-linejoin:round;stroke:rgb(12.940979%,11.764526%,11.764526%);stroke-opacity:1;stroke-miterlimit:4;"
       d="M 128.6875 138.273438 L 242.199219 138.273438 "
       id="path84" />
    <path
       style=" stroke:none;fill-rule:nonzero;fill:rgb(12.940979%,11.764526%,11.764526%);fill-opacity:1;"
       d="M 243.410156 137.75 C 242.5625 137.496094 242.011719 137.257813 241.332031 136.988281 L 241.332031 139.570313 C 241.578125 139.453125 242.5625 139.0625 243.410156 138.804688 C 244.316406 138.53125 245.136719 138.34375 245.671875 138.277344 C 245.136719 138.210938 244.316406 138.023438 243.410156 137.75 "
       id="path86" />
    <path
       style="fill:none;stroke-width:0.512;stroke-linecap:round;stroke-linejoin:round;stroke:rgb(12.940979%,11.764526%,11.764526%);stroke-opacity:1;stroke-miterlimit:4;"
       d="M 128.6875 138.273438 L 128.6875 29.886719 "
       id="path88" />
    <path
       style=" stroke:none;fill-rule:nonzero;fill:rgb(12.940979%,11.764526%,11.764526%);fill-opacity:1;"
       d="M 128.164063 28.675781 C 127.910156 29.523438 127.671875 30.074219 127.398438 30.753906 L 129.984375 30.753906 C 129.867188 30.507813 129.476563 29.523438 129.21875 28.675781 C 128.945313 27.769531 128.757813 26.949219 128.691406 26.414063 C 128.625 26.949219 128.4375 27.769531 128.164063 28.675781 "
       id="path90" />
    <path
       style="fill:none;stroke-width:3.422;stroke-linecap:round;stroke-linejoin:round;stroke:rgb(12.940979%,11.764526%,11.764526%);stroke-opacity:1;stroke-miterlimit:4;"
       d="M 189.015625 133.582031 L 189.015625 133.582031 "
       id="path92" />
    <path
       style="fill:none;stroke-width:2.287;stroke-linecap:round;stroke-linejoin:round;stroke:rgb(79.214478%,79.214478%,79.214478%);stroke-opacity:1;stroke-miterlimit:4;"
       d="M 193.613281 99.609375 L 193.613281 99.609375 "
       id="path94" />
    <path
       style="fill:none;stroke-width:3.422;stroke-linecap:round;stroke-linejoin:round;stroke:rgb(98.03772%,79.214478%,72.940063%);stroke-opacity:1;stroke-miterlimit:4;"
       d="M 191.949219 107.363281 L 191.949219 107.363281 "
       id="path96" />
    <path
       style="fill:none;stroke-width:2.287;stroke-linecap:round;stroke-linejoin:round;stroke:rgb(69.018555%,69.018555%,69.018555%);stroke-opacity:1;stroke-miterlimit:4;"
       d="M 167.023438 135.640625 L 167.023438 135.640625 "
       id="path98" />
    <path
       style="fill:none;stroke-width:3.422;stroke-linecap:round;stroke-linejoin:round;stroke:rgb(78.038025%,12.940979%,14.901733%);stroke-opacity:1;stroke-miterlimit:4;"
       d="M 174.957031 119.972656 L 174.957031 119.972656 "
       id="path100" />
    <path
       style="fill:none;stroke-width:2.287;stroke-linecap:round;stroke-linejoin:round;stroke:rgb(92.155457%,9.803772%,13.725281%);stroke-opacity:1;stroke-miterlimit:4;"
       d="M 159.015625 115.5625 L 159.015625 115.5625 "
       id="path102" />
    <path
       style="fill:none;stroke-width:3.422;stroke-linecap:round;stroke-linejoin:round;stroke:rgb(63.920593%,14.901733%,16.862488%);stroke-opacity:1;stroke-miterlimit:4;"
       d="M 168.839844 88.285156 L 168.839844 88.285156 "
       id="path104" />
    <path
       style="fill:none;stroke-width:2.287;stroke-linecap:round;stroke-linejoin:round;stroke:rgb(95.292664%,41.960144%,34.117126%);stroke-opacity:1;stroke-miterlimit:4;"
       d="M 178.339844 109.085938 L 178.339844 109.085938 "
       id="path106" />
    <path
       style="fill:none;stroke-width:3.422;stroke-linecap:round;stroke-linejoin:round;stroke:rgb(59.214783%,59.214783%,59.214783%);stroke-opacity:1;stroke-miterlimit:4;"
       d="M 156.011719 106.609375 L 156.011719 106.609375 "
       id="path108" />
    <path
       style="fill:none;stroke-width:2.287;stroke-linecap:round;stroke-linejoin:round;stroke:rgb(97.253418%,59.999084%,50.979614%);stroke-opacity:1;stroke-miterlimit:4;"
       d="M 152.140625 107.765625 L 152.140625 107.765625 "
       id="path110" />
    <path
       style="fill:none;stroke-width:3.422;stroke-linecap:round;stroke-linejoin:round;stroke:rgb(79.214478%,79.214478%,79.214478%);stroke-opacity:1;stroke-miterlimit:4;"
       d="M 196.179688 52.898438 L 196.179688 52.898438 "
       id="path112" />
    <path
       style="fill:none;stroke-width:2.287;stroke-linecap:round;stroke-linejoin:round;stroke:rgb(97.253418%,59.999084%,50.979614%);stroke-opacity:1;stroke-miterlimit:4;"
       d="M 156.179688 53.570313 L 156.179688 53.570313 "
       id="path114" />
    <path
       style="fill:none;stroke-width:3.422;stroke-linecap:round;stroke-linejoin:round;stroke:rgb(63.920593%,14.901733%,16.862488%);stroke-opacity:1;stroke-miterlimit:4;"
       d="M 186.363281 49.382813 L 186.363281 49.382813 "
       id="path116" />
    <path
       style="fill:none;stroke-width:2.287;stroke-linecap:round;stroke-linejoin:round;stroke:rgb(78.038025%,12.940979%,14.901733%);stroke-opacity:1;stroke-miterlimit:4;"
       d="M 160.144531 41.070313 L 160.144531 41.070313 "
       id="path118" />
    <path
       style="fill:none;stroke-width:3.422;stroke-linecap:round;stroke-linejoin:round;stroke:rgb(12.940979%,11.764526%,11.764526%);stroke-opacity:1;stroke-miterlimit:4;"
       d="M 179.957031 41.230469 L 179.957031 41.230469 "
       id="path120" />
    <path
       style="fill:none;stroke-width:2.287;stroke-linecap:round;stroke-linejoin:round;stroke:rgb(69.018555%,69.018555%,69.018555%);stroke-opacity:1;stroke-miterlimit:4;"
       d="M 158.4375 44.886719 L 158.4375 44.886719 "
       id="path122" />
    <path
       style="fill:none;stroke-width:3.422;stroke-linecap:round;stroke-linejoin:round;stroke:rgb(95.292664%,41.960144%,34.117126%);stroke-opacity:1;stroke-miterlimit:4;"
       d="M 203.390625 34.898438 L 203.390625 34.898438 "
       id="path124" />
    <path
       style="fill:none;stroke-width:2.287;stroke-linecap:round;stroke-linejoin:round;stroke:rgb(92.155457%,9.803772%,13.725281%);stroke-opacity:1;stroke-miterlimit:4;"
       d="M 207.433594 37.542969 L 207.433594 37.542969 "
       id="path126" />
    <path
       style="fill:none;stroke-width:3.422;stroke-linecap:round;stroke-linejoin:round;stroke:rgb(59.214783%,59.214783%,59.214783%);stroke-opacity:1;stroke-miterlimit:4;"
       d="M 197.355469 29.429688 L 197.355469 29.429688 "
       id="path128" />
    <path
       style="fill:none;stroke-width:2.287;stroke-linecap:round;stroke-linejoin:round;stroke:rgb(98.03772%,79.214478%,72.940063%);stroke-opacity:1;stroke-miterlimit:4;"
       d="M 212.890625 34.421875 L 212.890625 34.421875 "
       id="path130" />
    <path
       style=" stroke:none;fill-rule:nonzero;fill:rgb(12.940979%,11.764526%,11.764526%);fill-opacity:1;"
       d="M 94.59375 143.308594 C 94.34375 143.574219 94.15625 143.917969 93.96875 143.917969 C 93.78125 143.917969 93.71875 143.683594 93.6875 143.542969 C 93.625 143.308594 93.3125 142.058594 93.3125 141.886719 C 93.3125 141.886719 93.9375 140.777344 94.203125 140.777344 C 94.40625 140.777344 94.484375 140.933594 94.703125 140.933594 C 94.921875 140.933594 95.015625 140.761719 95.015625 140.589844 C 95.015625 140.371094 94.8125 140.261719 94.640625 140.261719 C 94.15625 140.261719 93.71875 140.824219 93.234375 141.574219 L 93.140625 141.074219 C 92.96875 140.261719 92.828125 140.261719 92.640625 140.261719 C 92.34375 140.261719 91.734375 140.480469 91.484375 140.558594 L 91.515625 140.699219 C 91.8125 140.621094 91.9375 140.605469 92.03125 140.605469 C 92.265625 140.605469 92.3125 140.730469 92.390625 141.011719 C 92.40625 141.058594 92.71875 142.292969 92.71875 142.371094 C 91.890625 143.574219 91.640625 143.886719 91.484375 143.886719 C 91.328125 143.886719 91.15625 143.714844 90.953125 143.714844 C 90.75 143.714844 90.640625 143.886719 90.640625 144.027344 C 90.640625 144.246094 90.796875 144.417969 91.09375 144.417969 C 91.375 144.417969 91.484375 144.324219 91.640625 144.152344 C 91.953125 143.808594 92.34375 143.308594 92.796875 142.699219 L 93.0625 143.808594 C 93.1875 144.292969 93.328125 144.417969 93.59375 144.417969 C 93.796875 144.417969 94.078125 144.417969 94.71875 143.371094 Z M 94.59375 143.308594 "
       id="path132" />
    <g
       clip-path="url(#clip1)"
       clip-rule="nonzero"
       id="g136">
      <path
         style=" stroke:none;fill-rule:nonzero;fill:rgb(12.940979%,11.764526%,11.764526%);fill-opacity:1;"
         d="M 95.203125 145.859375 L 96.5 145.859375 L 96.5 145.796875 C 96.265625 145.796875 96.09375 145.78125 96.09375 145.640625 C 96.09375 145.5625 96.15625 145.390625 96.1875 145.296875 L 96.84375 142.90625 C 96.859375 142.828125 96.890625 142.75 96.84375 142.75 C 96.8125 142.75 96.171875 142.875 95.953125 142.921875 L 95.953125 142.984375 L 96.21875 142.984375 C 96.265625 142.984375 96.390625 142.984375 96.390625 143.125 C 96.390625 143.15625 96.375 143.234375 96.359375 143.28125 L 95.71875 145.546875 C 95.671875 145.75 95.484375 145.765625 95.203125 145.796875 Z M 95.203125 145.859375 "
         id="path134" />
    </g>
    <path
       style=" stroke:none;fill-rule:nonzero;fill:rgb(12.940979%,11.764526%,11.764526%);fill-opacity:1;"
       d="M 66.769531 62.910156 C 66.519531 63.175781 66.332031 63.519531 66.144531 63.519531 C 65.957031 63.519531 65.894531 63.285156 65.863281 63.144531 C 65.800781 62.910156 65.488281 61.660156 65.488281 61.488281 C 65.488281 61.488281 66.113281 60.378906 66.378906 60.378906 C 66.582031 60.378906 66.660156 60.535156 66.878906 60.535156 C 67.097656 60.535156 67.191406 60.363281 67.191406 60.191406 C 67.191406 59.972656 66.988281 59.863281 66.816406 59.863281 C 66.332031 59.863281 65.894531 60.425781 65.410156 61.175781 L 65.316406 60.675781 C 65.144531 59.863281 65.003906 59.863281 64.816406 59.863281 C 64.519531 59.863281 63.910156 60.082031 63.660156 60.160156 L 63.691406 60.300781 C 63.988281 60.222656 64.113281 60.207031 64.207031 60.207031 C 64.441406 60.207031 64.488281 60.332031 64.566406 60.613281 C 64.582031 60.660156 64.894531 61.894531 64.894531 61.972656 C 64.066406 63.175781 63.816406 63.488281 63.660156 63.488281 C 63.503906 63.488281 63.332031 63.316406 63.128906 63.316406 C 62.925781 63.316406 62.816406 63.488281 62.816406 63.628906 C 62.816406 63.847656 62.972656 64.019531 63.269531 64.019531 C 63.550781 64.019531 63.660156 63.925781 63.816406 63.753906 C 64.128906 63.410156 64.519531 62.910156 64.972656 62.300781 L 65.238281 63.410156 C 65.363281 63.894531 65.503906 64.019531 65.769531 64.019531 C 65.972656 64.019531 66.253906 64.019531 66.894531 62.972656 Z M 66.769531 62.910156 "
       id="path138" />
    <path
       style=" stroke:none;fill-rule:nonzero;fill:rgb(12.940979%,11.764526%,11.764526%);fill-opacity:1;"
       d="M 69.003906 64.820313 C 68.925781 64.992188 68.847656 65.117188 68.550781 65.117188 L 67.675781 65.117188 L 67.675781 65.085938 L 68.550781 64.195313 C 69.128906 63.632813 69.238281 63.429688 69.238281 63.117188 C 69.238281 62.773438 68.988281 62.351563 68.503906 62.351563 C 68.378906 62.351563 67.785156 62.367188 67.535156 63.085938 L 67.628906 63.117188 C 67.691406 62.992188 67.863281 62.679688 68.285156 62.679688 C 68.628906 62.679688 68.847656 62.960938 68.847656 63.242188 C 68.847656 63.398438 68.832031 63.664063 68.175781 64.351563 L 67.222656 65.382813 L 67.222656 65.460938 L 68.847656 65.460938 L 69.082031 64.851563 Z M 69.003906 64.820313 "
       id="path140" />
    <path
       style=" stroke:none;fill-rule:nonzero;fill:rgb(12.940979%,11.764526%,11.764526%);fill-opacity:1;"
       d="M 3.953125 39.523438 C 3.703125 39.789063 3.515625 40.132813 3.328125 40.132813 C 3.140625 40.132813 3.078125 39.898438 3.046875 39.757813 C 2.984375 39.523438 2.671875 38.273438 2.671875 38.101563 C 2.671875 38.101563 3.296875 36.992188 3.5625 36.992188 C 3.765625 36.992188 3.84375 37.148438 4.0625 37.148438 C 4.28125 37.148438 4.375 36.976563 4.375 36.804688 C 4.375 36.585938 4.171875 36.476563 4 36.476563 C 3.515625 36.476563 3.078125 37.039063 2.59375 37.789063 L 2.5 37.289063 C 2.328125 36.476563 2.1875 36.476563 2 36.476563 C 1.703125 36.476563 1.09375 36.695313 0.84375 36.773438 L 0.875 36.914063 C 1.171875 36.835938 1.296875 36.820313 1.390625 36.820313 C 1.625 36.820313 1.671875 36.945313 1.75 37.226563 C 1.765625 37.273438 2.078125 38.507813 2.078125 38.585938 C 1.25 39.789063 1 40.101563 0.84375 40.101563 C 0.6875 40.101563 0.515625 39.929688 0.3125 39.929688 C 0.109375 39.929688 0 40.101563 0 40.242188 C 0 40.460938 0.15625 40.632813 0.453125 40.632813 C 0.734375 40.632813 0.84375 40.539063 1 40.367188 C 1.3125 40.023438 1.703125 39.523438 2.15625 38.914063 L 2.421875 40.023438 C 2.546875 40.507813 2.6875 40.632813 2.953125 40.632813 C 3.15625 40.632813 3.4375 40.632813 4.078125 39.585938 Z M 3.953125 39.523438 "
       id="path142" />
    <path
       style=" stroke:none;fill-rule:nonzero;fill:rgb(12.940979%,11.764526%,11.764526%);fill-opacity:1;"
       d="M 5.171875 39.464844 C 5.234375 39.371094 5.390625 39.152344 5.6875 39.152344 C 5.859375 39.152344 6.09375 39.261719 6.09375 39.574219 C 6.09375 40.074219 5.453125 40.277344 4.984375 40.339844 L 4.984375 40.417969 C 5.4375 40.371094 5.84375 40.542969 5.84375 41.199219 C 5.84375 41.777344 5.40625 41.933594 5.25 41.933594 C 5 41.933594 4.84375 41.652344 4.625 41.652344 C 4.453125 41.652344 4.40625 41.730469 4.40625 41.839844 C 4.40625 42.042969 4.671875 42.105469 4.9375 42.105469 C 5.796875 42.105469 6.203125 41.449219 6.203125 40.933594 C 6.203125 40.433594 5.890625 40.292969 5.765625 40.246094 L 5.765625 40.230469 C 6.25 40.042969 6.484375 39.886719 6.484375 39.527344 C 6.484375 39.152344 6.15625 38.964844 5.8125 38.964844 C 5.546875 38.964844 5.203125 39.167969 5.09375 39.433594 Z M 5.171875 39.464844 "
       id="path144" />
    <path
       style=" stroke:none;fill-rule:nonzero;fill:rgb(12.940979%,11.764526%,11.764526%);fill-opacity:1;"
       d="M 247.734375 135.515625 C 247.84375 135.484375 247.90625 135.484375 248.046875 135.484375 C 248.578125 135.484375 248.6875 135.875 248.9375 136.71875 C 249.09375 137.21875 249.484375 138.828125 249.484375 139.171875 C 249.484375 139.421875 249.09375 139.875 248.859375 140.140625 C 248.546875 140.515625 248.4375 140.59375 248.28125 140.59375 C 248.125 140.59375 248 140.34375 247.71875 140.34375 C 247.53125 140.34375 247.375 140.5 247.375 140.6875 C 247.375 141.078125 247.765625 141.109375 247.84375 141.109375 C 248.9375 141.109375 251.515625 136.8125 251.515625 135.703125 C 251.515625 135.375 251.34375 135.140625 251 135.140625 C 250.75 135.140625 250.65625 135.328125 250.65625 135.453125 C 250.65625 135.890625 251.15625 135.78125 251.15625 136.15625 C 251.15625 136.65625 250.421875 137.890625 250.03125 138.546875 L 249.84375 137.46875 C 249.71875 136.78125 249.171875 135.125 249.0625 135.140625 C 248.890625 135.140625 248.171875 135.28125 247.734375 135.359375 Z M 247.734375 135.515625 "
       id="path146" />
    <g
       clip-path="url(#clip2)"
       clip-rule="nonzero"
       id="g150">
      <path
         style=" stroke:none;fill-rule:nonzero;fill:rgb(12.940979%,11.764526%,11.764526%);fill-opacity:1;"
         d="M 251.902344 140.738281 L 253.199219 140.738281 L 253.199219 140.675781 C 252.964844 140.675781 252.792969 140.660156 252.792969 140.519531 C 252.792969 140.441406 252.855469 140.269531 252.886719 140.175781 L 253.542969 137.785156 C 253.558594 137.707031 253.589844 137.628906 253.542969 137.628906 C 253.511719 137.628906 252.871094 137.753906 252.652344 137.800781 L 252.652344 137.863281 L 252.917969 137.863281 C 252.964844 137.863281 253.089844 137.863281 253.089844 138.003906 C 253.089844 138.035156 253.074219 138.113281 253.058594 138.160156 L 252.417969 140.425781 C 252.371094 140.628906 252.183594 140.644531 251.902344 140.675781 Z M 251.902344 140.738281 "
         id="path148" />
    </g>
    <path
       style=" stroke:none;fill-rule:nonzero;fill:rgb(12.940979%,11.764526%,11.764526%);fill-opacity:1;"
       d="M 126.878906 20.121094 C 126.988281 20.089844 127.050781 20.089844 127.191406 20.089844 C 127.722656 20.089844 127.832031 20.480469 128.082031 21.324219 C 128.238281 21.824219 128.628906 23.433594 128.628906 23.777344 C 128.628906 24.027344 128.238281 24.480469 128.003906 24.746094 C 127.691406 25.121094 127.582031 25.199219 127.425781 25.199219 C 127.269531 25.199219 127.144531 24.949219 126.863281 24.949219 C 126.675781 24.949219 126.519531 25.105469 126.519531 25.292969 C 126.519531 25.683594 126.910156 25.714844 126.988281 25.714844 C 128.082031 25.714844 130.660156 21.417969 130.660156 20.308594 C 130.660156 19.980469 130.488281 19.746094 130.144531 19.746094 C 129.894531 19.746094 129.800781 19.933594 129.800781 20.058594 C 129.800781 20.496094 130.300781 20.386719 130.300781 20.761719 C 130.300781 21.261719 129.566406 22.496094 129.175781 23.152344 L 128.988281 22.074219 C 128.863281 21.386719 128.316406 19.730469 128.207031 19.746094 C 128.035156 19.746094 127.316406 19.886719 126.878906 19.964844 Z M 126.878906 20.121094 "
       id="path152" />
    <path
       style=" stroke:none;fill-rule:nonzero;fill:rgb(12.940979%,11.764526%,11.764526%);fill-opacity:1;"
       d="M 132.675781 24.707031 C 132.597656 24.878906 132.519531 25.003906 132.222656 25.003906 L 131.347656 25.003906 L 131.347656 24.972656 L 132.222656 24.082031 C 132.800781 23.519531 132.910156 23.316406 132.910156 23.003906 C 132.910156 22.660156 132.660156 22.238281 132.175781 22.238281 C 132.050781 22.238281 131.457031 22.253906 131.207031 22.972656 L 131.300781 23.003906 C 131.363281 22.878906 131.535156 22.566406 131.957031 22.566406 C 132.300781 22.566406 132.519531 22.847656 132.519531 23.128906 C 132.519531 23.285156 132.503906 23.550781 131.847656 24.238281 L 130.894531 25.269531 L 130.894531 25.347656 L 132.519531 25.347656 L 132.753906 24.738281 Z M 132.675781 24.707031 "
       id="path154" />
    <path
       style=" stroke:none;fill-rule:nonzero;fill:rgb(12.940979%,11.764526%,11.764526%);fill-opacity:1;"
       d="M 87.75 62.613281 C 87.484375 62.957031 87.328125 63.160156 87.140625 63.160156 C 86.890625 63.160156 86.84375 62.894531 86.796875 62.675781 L 86.5 61.238281 C 86.625 61.050781 87 60.363281 87.328125 60.363281 C 87.546875 60.363281 87.609375 60.550781 87.875 60.550781 C 88.171875 60.550781 88.375 60.300781 88.390625 60.066406 C 88.390625 59.847656 88.1875 59.488281 87.875 59.488281 C 87.40625 59.488281 87.078125 59.800781 86.390625 60.769531 C 86.25 60.050781 86.171875 59.753906 85.984375 59.488281 L 84.4375 59.722656 L 84.4375 59.972656 C 84.53125 59.957031 84.65625 59.941406 84.75 59.941406 C 84.921875 59.941406 85.15625 59.941406 85.28125 60.566406 L 85.5625 61.988281 L 85.15625 62.628906 C 85.0625 62.785156 84.921875 63.003906 84.71875 63.003906 C 84.515625 63.003906 84.484375 62.832031 84.140625 62.816406 C 83.828125 62.800781 83.640625 63.097656 83.640625 63.316406 C 83.640625 63.472656 83.71875 63.878906 84.203125 63.878906 C 84.65625 63.878906 84.921875 63.660156 85.375 62.910156 C 85.484375 62.738281 85.578125 62.566406 85.65625 62.441406 C 85.84375 63.535156 86.140625 63.878906 86.5625 63.878906 C 87.171875 63.878906 87.703125 63.097656 87.9375 62.753906 Z M 87.75 62.613281 "
       id="path156" />
    <path
       style=" stroke:none;fill-rule:nonzero;fill:rgb(12.940979%,11.764526%,11.764526%);fill-opacity:1;"
       d="M 89.8125 64.710938 C 89.59375 65.007813 89.453125 65.101563 89.390625 65.101563 C 89.34375 65.101563 89.3125 65.070313 89.3125 65.023438 C 89.3125 64.960938 89.375 64.757813 89.390625 64.695313 L 89.84375 63.039063 L 89.828125 63.023438 C 89.625 63.070313 89.203125 63.148438 89 63.164063 L 89 63.242188 C 89.28125 63.242188 89.328125 63.257813 89.328125 63.367188 C 89.328125 63.523438 88.921875 64.789063 88.921875 65.023438 C 88.921875 65.117188 88.921875 65.351563 89.15625 65.351563 C 89.453125 65.351563 89.671875 65.070313 89.875 64.757813 Z M 90.03125 62.226563 C 90.03125 62.101563 89.9375 61.929688 89.765625 61.929688 C 89.640625 61.929688 89.53125 62.039063 89.53125 62.210938 C 89.53125 62.398438 89.640625 62.476563 89.78125 62.476563 C 89.9375 62.476563 90.03125 62.320313 90.03125 62.226563 Z M 90.03125 62.226563 "
       id="path158" />
    <path
       style=" stroke:none;fill-rule:nonzero;fill:rgb(12.940979%,11.764526%,11.764526%);fill-opacity:1;"
       d="M 100.722656 65.34375 C 100.457031 65.6875 100.300781 65.890625 100.113281 65.890625 C 99.863281 65.890625 99.816406 65.625 99.769531 65.40625 L 99.472656 63.96875 C 99.597656 63.78125 99.972656 63.09375 100.300781 63.09375 C 100.519531 63.09375 100.582031 63.28125 100.847656 63.28125 C 101.144531 63.28125 101.347656 63.03125 101.363281 62.796875 C 101.363281 62.578125 101.160156 62.21875 100.847656 62.21875 C 100.378906 62.21875 100.050781 62.53125 99.363281 63.5 C 99.222656 62.78125 99.144531 62.484375 98.957031 62.21875 L 97.410156 62.453125 L 97.410156 62.703125 C 97.503906 62.6875 97.628906 62.671875 97.722656 62.671875 C 97.894531 62.671875 98.128906 62.671875 98.253906 63.296875 L 98.535156 64.71875 L 98.128906 65.359375 C 98.035156 65.515625 97.894531 65.734375 97.691406 65.734375 C 97.488281 65.734375 97.457031 65.5625 97.113281 65.546875 C 96.800781 65.53125 96.613281 65.828125 96.613281 66.046875 C 96.613281 66.203125 96.691406 66.609375 97.175781 66.609375 C 97.628906 66.609375 97.894531 66.390625 98.347656 65.640625 C 98.457031 65.46875 98.550781 65.296875 98.628906 65.171875 C 98.816406 66.265625 99.113281 66.609375 99.535156 66.609375 C 100.144531 66.609375 100.675781 65.828125 100.910156 65.484375 Z M 100.722656 65.34375 "
       id="path160" />
    <path
       style=" stroke:none;fill-rule:nonzero;fill:rgb(12.940979%,11.764526%,11.764526%);fill-opacity:1;"
       d="M 101.941406 68.035156 C 101.847656 68.425781 101.722656 68.957031 101.457031 68.957031 C 101.410156 68.957031 101.363281 68.957031 101.363281 68.910156 C 101.363281 68.847656 101.425781 68.847656 101.425781 68.738281 C 101.425781 68.628906 101.316406 68.550781 101.222656 68.550781 C 101.035156 68.550781 101.003906 68.738281 101.003906 68.753906 C 101.003906 69.003906 101.238281 69.082031 101.410156 69.082031 C 101.863281 69.082031 102.160156 68.691406 102.378906 67.878906 L 102.910156 65.769531 L 102.894531 65.753906 C 102.691406 65.800781 102.222656 65.878906 102.019531 65.894531 L 102.019531 65.972656 L 102.191406 65.957031 C 102.363281 65.972656 102.394531 66.019531 102.394531 66.097656 C 102.410156 66.160156 102.378906 66.269531 102.316406 66.535156 Z M 103.066406 64.957031 C 103.066406 64.832031 102.972656 64.660156 102.800781 64.660156 C 102.675781 64.660156 102.566406 64.769531 102.566406 64.941406 C 102.566406 65.128906 102.675781 65.207031 102.800781 65.207031 C 102.972656 65.207031 103.066406 65.050781 103.066406 64.957031 Z M 103.066406 64.957031 "
       id="path162" />
    <path
       style=" stroke:none;fill-rule:nonzero;fill:rgb(12.940979%,11.764526%,11.764526%);fill-opacity:1;"
       d="M 178.585938 44.609375 C 178.945313 44.609375 179.039063 44.609375 179.351563 46 C 179.429688 46.328125 179.773438 48 179.773438 48.453125 C 179.773438 48.96875 179.179688 49.546875 178.929688 49.546875 C 178.804688 49.546875 178.617188 49.4375 178.554688 49.375 C 178.476563 49.328125 178.195313 49.21875 178.085938 49.21875 C 177.710938 49.21875 177.601563 49.5625 177.601563 49.734375 C 177.601563 49.96875 177.804688 50.28125 178.132813 50.28125 C 179.054688 50.28125 179.867188 49.390625 180.804688 47.84375 C 180.882813 47.703125 182.070313 45.78125 182.070313 44.703125 C 182.070313 44.40625 181.804688 44.125 181.492188 44.125 C 181.195313 44.125 180.976563 44.421875 180.976563 44.640625 C 180.976563 45.234375 181.492188 45.09375 181.492188 45.5 C 181.492188 45.84375 181.101563 46.5625 180.695313 47.34375 L 180.679688 47.34375 L 180.570313 46.6875 C 180.429688 45.921875 180.132813 44.5625 179.960938 44.125 C 179.617188 44.21875 179.117188 44.3125 178.585938 44.359375 Z M 178.585938 44.609375 "
       id="path164" />
    <path
       style=" stroke:none;fill-rule:nonzero;fill:rgb(12.940979%,11.764526%,11.764526%);fill-opacity:1;"
       d="M 183.691406 49.347656 C 183.472656 49.644531 183.332031 49.738281 183.269531 49.738281 C 183.222656 49.738281 183.191406 49.707031 183.191406 49.660156 C 183.191406 49.597656 183.253906 49.394531 183.269531 49.332031 L 183.722656 47.675781 L 183.707031 47.660156 C 183.503906 47.707031 183.082031 47.785156 182.878906 47.800781 L 182.878906 47.878906 C 183.160156 47.878906 183.207031 47.894531 183.207031 48.003906 C 183.207031 48.160156 182.800781 49.425781 182.800781 49.660156 C 182.800781 49.753906 182.800781 49.988281 183.035156 49.988281 C 183.332031 49.988281 183.550781 49.707031 183.753906 49.394531 Z M 183.910156 46.863281 C 183.910156 46.738281 183.816406 46.566406 183.644531 46.566406 C 183.519531 46.566406 183.410156 46.675781 183.410156 46.847656 C 183.410156 47.035156 183.519531 47.113281 183.660156 47.113281 C 183.816406 47.113281 183.910156 46.957031 183.910156 46.863281 Z M 183.910156 46.863281 "
       id="path166" />
    <path
       style=" stroke:none;fill-rule:nonzero;fill:rgb(12.940979%,11.764526%,11.764526%);fill-opacity:1;"
       d="M 202.3125 38.464844 C 202.671875 38.464844 202.765625 38.464844 203.078125 39.855469 C 203.15625 40.183594 203.5 41.855469 203.5 42.308594 C 203.5 42.824219 202.90625 43.402344 202.65625 43.402344 C 202.53125 43.402344 202.34375 43.292969 202.28125 43.230469 C 202.203125 43.183594 201.921875 43.074219 201.8125 43.074219 C 201.4375 43.074219 201.328125 43.417969 201.328125 43.589844 C 201.328125 43.824219 201.53125 44.136719 201.859375 44.136719 C 202.78125 44.136719 203.59375 43.246094 204.53125 41.699219 C 204.609375 41.558594 205.796875 39.636719 205.796875 38.558594 C 205.796875 38.261719 205.53125 37.980469 205.21875 37.980469 C 204.921875 37.980469 204.703125 38.277344 204.703125 38.496094 C 204.703125 39.089844 205.21875 38.949219 205.21875 39.355469 C 205.21875 39.699219 204.828125 40.417969 204.421875 41.199219 L 204.40625 41.199219 L 204.296875 40.542969 C 204.15625 39.777344 203.859375 38.417969 203.6875 37.980469 C 203.34375 38.074219 202.84375 38.167969 202.3125 38.214844 Z M 202.3125 38.464844 "
       id="path168" />
    <path
       style=" stroke:none;fill-rule:nonzero;fill:rgb(12.940979%,11.764526%,11.764526%);fill-opacity:1;"
       d="M 206.578125 43.796875 C 206.484375 44.1875 206.359375 44.71875 206.09375 44.71875 C 206.046875 44.71875 206 44.71875 206 44.671875 C 206 44.609375 206.0625 44.609375 206.0625 44.5 C 206.0625 44.390625 205.953125 44.3125 205.859375 44.3125 C 205.671875 44.3125 205.640625 44.5 205.640625 44.515625 C 205.640625 44.765625 205.875 44.84375 206.046875 44.84375 C 206.5 44.84375 206.796875 44.453125 207.015625 43.640625 L 207.546875 41.53125 L 207.53125 41.515625 C 207.328125 41.5625 206.859375 41.640625 206.65625 41.65625 L 206.65625 41.734375 L 206.828125 41.71875 C 207 41.734375 207.03125 41.78125 207.03125 41.859375 C 207.046875 41.921875 207.015625 42.03125 206.953125 42.296875 Z M 207.703125 40.71875 C 207.703125 40.59375 207.609375 40.421875 207.4375 40.421875 C 207.3125 40.421875 207.203125 40.53125 207.203125 40.703125 C 207.203125 40.890625 207.3125 40.96875 207.4375 40.96875 C 207.609375 40.96875 207.703125 40.8125 207.703125 40.71875 Z M 207.703125 40.71875 "
       id="path170" />
    <path
       style=" stroke:none;fill-rule:nonzero;fill:rgb(12.940979%,11.764526%,11.764526%);fill-opacity:1;"
       d="M 189.257813 33.660156 C 188.601563 33.660156 188.601563 33.035156 188.601563 32.863281 C 188.601563 31.878906 189.632813 29.550781 190.835938 29.550781 C 191.335938 29.550781 191.335938 30.035156 191.335938 30.285156 C 191.335938 31.613281 190.289063 33.660156 189.257813 33.660156 Z M 192.492188 32.863281 C 192.039063 33.378906 191.820313 33.613281 191.601563 33.613281 C 191.492188 33.613281 191.414063 33.550781 191.414063 33.378906 C 191.414063 33.207031 192.710938 28.628906 193.179688 26.769531 L 193.117188 26.707031 C 192.570313 26.832031 192.023438 26.894531 191.476563 26.957031 L 191.476563 27.144531 C 192.070313 27.144531 192.148438 27.207031 192.148438 27.457031 C 192.148438 27.597656 192.070313 27.863281 191.976563 28.175781 L 191.523438 29.878906 L 191.492188 29.894531 C 191.445313 29.660156 191.382813 29.316406 190.773438 29.316406 C 189.492188 29.316406 187.664063 31.269531 187.664063 32.894531 C 187.664063 33.457031 187.898438 34.175781 188.789063 34.175781 C 189.320313 34.175781 189.929688 33.988281 190.695313 32.800781 L 190.726563 32.832031 C 190.632813 33.207031 190.585938 33.441406 190.585938 33.691406 C 190.585938 33.925781 190.679688 34.191406 191.101563 34.191406 C 191.445313 34.191406 192.148438 33.691406 192.617188 32.972656 Z M 192.492188 32.863281 "
       id="path172" />
    <path
       style=" stroke:none;fill-rule:nonzero;fill:rgb(12.940979%,11.764526%,11.764526%);fill-opacity:1;"
       d="M 194.023438 35.011719 C 193.804688 35.308594 193.664063 35.402344 193.601563 35.402344 C 193.554688 35.402344 193.523438 35.371094 193.523438 35.324219 C 193.523438 35.261719 193.585938 35.058594 193.601563 34.996094 L 194.054688 33.339844 L 194.039063 33.324219 C 193.835938 33.371094 193.414063 33.449219 193.210938 33.464844 L 193.210938 33.542969 C 193.492188 33.542969 193.539063 33.558594 193.539063 33.667969 C 193.539063 33.824219 193.132813 35.089844 193.132813 35.324219 C 193.132813 35.417969 193.132813 35.652344 193.367188 35.652344 C 193.664063 35.652344 193.882813 35.371094 194.085938 35.058594 Z M 194.242188 32.527344 C 194.242188 32.402344 194.148438 32.230469 193.976563 32.230469 C 193.851563 32.230469 193.742188 32.339844 193.742188 32.511719 C 193.742188 32.699219 193.851563 32.777344 193.992188 32.777344 C 194.148438 32.777344 194.242188 32.621094 194.242188 32.527344 Z M 194.242188 32.527344 "
       id="path174" />
    <path
       style=" stroke:none;fill-rule:nonzero;fill:rgb(12.940979%,11.764526%,11.764526%);fill-opacity:1;"
       d="M 194.605469 35.605469 C 194.511719 35.996094 194.386719 36.527344 194.121094 36.527344 C 194.074219 36.527344 194.027344 36.527344 194.027344 36.480469 C 194.027344 36.417969 194.089844 36.417969 194.089844 36.308594 C 194.089844 36.199219 193.980469 36.121094 193.886719 36.121094 C 193.699219 36.121094 193.667969 36.308594 193.667969 36.324219 C 193.667969 36.574219 193.902344 36.652344 194.074219 36.652344 C 194.527344 36.652344 194.824219 36.261719 195.042969 35.449219 L 195.574219 33.339844 L 195.558594 33.324219 C 195.355469 33.371094 194.886719 33.449219 194.683594 33.464844 L 194.683594 33.542969 L 194.855469 33.527344 C 195.027344 33.542969 195.058594 33.589844 195.058594 33.667969 C 195.074219 33.730469 195.042969 33.839844 194.980469 34.105469 Z M 195.730469 32.527344 C 195.730469 32.402344 195.636719 32.230469 195.464844 32.230469 C 195.339844 32.230469 195.230469 32.339844 195.230469 32.511719 C 195.230469 32.699219 195.339844 32.777344 195.464844 32.777344 C 195.636719 32.777344 195.730469 32.621094 195.730469 32.527344 Z M 195.730469 32.527344 "
       id="path176" />
    <path
       style="fill:none;stroke-width:0.512;stroke-linecap:butt;stroke-linejoin:miter;stroke:rgb(29.803467%,29.019165%,29.803467%);stroke-opacity:1;stroke-miterlimit:4;"
       d="M 183.066406 40.199219 L 200.136719 35.761719 M 89.867188 56.925781 L 100.449219 61.023438 "
       id="path178" />
    <path
       style=" stroke:none;fill-rule:nonzero;fill:rgb(12.940979%,11.764526%,11.764526%);fill-opacity:1;"
       d="M 95.933594 51.574219 C 94.886719 51.917969 94.011719 52.964844 94.011719 54.089844 C 94.011719 55.136719 94.746094 55.667969 95.542969 55.667969 C 96.777344 55.667969 97.464844 53.746094 97.464844 52.777344 C 97.464844 51.886719 97.042969 51.542969 96.449219 51.074219 C 96.261719 50.933594 96.011719 50.714844 95.933594 50.636719 C 95.886719 50.574219 95.824219 50.449219 95.824219 50.292969 C 95.824219 49.855469 96.277344 49.292969 96.871094 49.292969 C 97.214844 49.292969 97.496094 49.449219 97.636719 49.792969 C 97.652344 49.855469 97.683594 49.902344 97.761719 49.902344 C 97.808594 49.902344 97.902344 49.902344 97.902344 49.792969 C 97.902344 49.699219 97.667969 49.058594 96.871094 49.058594 C 95.964844 49.058594 95.230469 49.871094 95.230469 50.574219 C 95.230469 51.027344 95.417969 51.167969 95.933594 51.574219 Z M 95.542969 55.433594 C 95.121094 55.433594 94.714844 55.136719 94.714844 54.417969 C 94.714844 53.949219 94.933594 53.136719 95.167969 52.714844 C 95.558594 51.964844 96.136719 51.792969 96.167969 51.792969 C 96.214844 51.792969 96.527344 52.042969 96.730469 52.277344 C 96.824219 52.386719 97.058594 52.667969 97.058594 53.136719 C 97.058594 53.574219 96.605469 55.433594 95.542969 55.433594 Z M 95.542969 55.433594 "
       id="path180" />
    <path
       style=" stroke:none;fill-rule:nonzero;fill:rgb(12.940979%,11.764526%,11.764526%);fill-opacity:1;"
       d="M 98.964844 56.519531 C 98.746094 56.816406 98.605469 56.910156 98.542969 56.910156 C 98.496094 56.910156 98.464844 56.878906 98.464844 56.832031 C 98.464844 56.769531 98.527344 56.566406 98.542969 56.503906 L 98.996094 54.847656 L 98.980469 54.832031 C 98.777344 54.878906 98.355469 54.957031 98.152344 54.972656 L 98.152344 55.050781 C 98.433594 55.050781 98.480469 55.066406 98.480469 55.175781 C 98.480469 55.332031 98.074219 56.597656 98.074219 56.832031 C 98.074219 56.925781 98.074219 57.160156 98.308594 57.160156 C 98.605469 57.160156 98.824219 56.878906 99.027344 56.566406 Z M 99.183594 54.035156 C 99.183594 53.910156 99.089844 53.738281 98.917969 53.738281 C 98.792969 53.738281 98.683594 53.847656 98.683594 54.019531 C 98.683594 54.207031 98.792969 54.285156 98.933594 54.285156 C 99.089844 54.285156 99.183594 54.128906 99.183594 54.035156 Z M 99.183594 54.035156 "
       id="path182" />
    <path
       style=" stroke:none;fill-rule:nonzero;fill:rgb(12.940979%,11.764526%,11.764526%);fill-opacity:1;"
       d="M 99.542969 57.113281 C 99.449219 57.503906 99.324219 58.035156 99.058594 58.035156 C 99.011719 58.035156 98.964844 58.035156 98.964844 57.988281 C 98.964844 57.925781 99.027344 57.925781 99.027344 57.816406 C 99.027344 57.707031 98.917969 57.628906 98.824219 57.628906 C 98.636719 57.628906 98.605469 57.816406 98.605469 57.832031 C 98.605469 58.082031 98.839844 58.160156 99.011719 58.160156 C 99.464844 58.160156 99.761719 57.769531 99.980469 56.957031 L 100.511719 54.847656 L 100.496094 54.832031 C 100.292969 54.878906 99.824219 54.957031 99.621094 54.972656 L 99.621094 55.050781 L 99.792969 55.035156 C 99.964844 55.050781 99.996094 55.097656 99.996094 55.175781 C 100.011719 55.238281 99.980469 55.347656 99.917969 55.613281 Z M 100.667969 54.035156 C 100.667969 53.910156 100.574219 53.738281 100.402344 53.738281 C 100.277344 53.738281 100.167969 53.847656 100.167969 54.019531 C 100.167969 54.207031 100.277344 54.285156 100.402344 54.285156 C 100.574219 54.285156 100.667969 54.128906 100.667969 54.035156 Z M 100.667969 54.035156 "
       id="path184" />
    <path
       style=" stroke:none;fill-rule:nonzero;fill:rgb(12.940979%,11.764526%,11.764526%);fill-opacity:1;"
       d="M 37.621094 3.691406 L 37.433594 5.160156 L 37.589844 5.160156 C 37.636719 5.050781 37.683594 4.957031 37.808594 4.957031 C 38.074219 4.957031 38.449219 5.128906 38.714844 5.128906 C 39.230469 5.128906 40.089844 4.910156 40.089844 3.894531 C 40.089844 3.113281 38.964844 2.300781 38.964844 1.722656 C 38.964844 1.269531 39.261719 1.175781 39.464844 1.175781 C 40.074219 1.175781 40.292969 1.722656 40.339844 2.238281 L 40.480469 2.238281 L 40.667969 0.957031 L 40.542969 0.957031 C 40.496094 1.035156 40.433594 1.128906 40.277344 1.128906 C 39.996094 1.128906 39.824219 0.972656 39.402344 0.972656 C 38.433594 0.972656 38.292969 1.707031 38.292969 1.988281 C 38.292969 2.707031 39.402344 3.582031 39.402344 4.191406 C 39.402344 4.503906 39.246094 4.941406 38.730469 4.941406 C 37.980469 4.941406 37.839844 4.097656 37.777344 3.691406 Z M 37.621094 3.691406 "
       id="path186" />
    <path
       style=" stroke:none;fill-rule:nonzero;fill:rgb(12.940979%,11.764526%,11.764526%);fill-opacity:1;"
       d="M 43.832031 0.972656 C 42.488281 0.972656 41.128906 2.457031 41.128906 3.816406 C 41.128906 4.582031 41.535156 5.128906 42.519531 5.128906 C 43.925781 5.128906 45.191406 3.472656 45.191406 2.332031 C 45.191406 1.722656 44.910156 0.972656 43.832031 0.972656 Z M 43.769531 1.160156 C 44.222656 1.160156 44.425781 1.566406 44.425781 2.050781 C 44.425781 3.035156 43.691406 4.941406 42.644531 4.941406 C 42.175781 4.941406 41.894531 4.613281 41.894531 4.082031 C 41.894531 3.003906 42.738281 1.160156 43.769531 1.160156 Z M 43.769531 1.160156 "
       id="path188" />
    <path
       style=" stroke:none;fill-rule:nonzero;fill:rgb(12.940979%,11.764526%,11.764526%);fill-opacity:1;"
       d="M 49.734375 3.957031 C 49.40625 4.363281 49.15625 4.691406 48.984375 4.691406 C 48.875 4.691406 48.875 4.582031 48.875 4.535156 C 48.875 4.394531 48.984375 3.988281 49.046875 3.816406 L 49.765625 1.050781 L 49.09375 1.050781 C 48.734375 2.035156 48.53125 2.613281 48.078125 3.300781 C 47.765625 3.785156 47.1875 4.644531 46.78125 4.644531 C 46.59375 4.644531 46.5625 4.457031 46.59375 4.332031 L 47.421875 0.988281 L 47.40625 0.972656 C 46.9375 1.082031 46.484375 1.160156 46.015625 1.222656 L 46.015625 1.347656 C 46.390625 1.347656 46.578125 1.347656 46.578125 1.613281 C 46.578125 1.863281 45.875 4.191406 45.875 4.597656 C 45.875 5.003906 46.046875 5.128906 46.375 5.128906 C 47.203125 5.128906 47.890625 3.988281 48.515625 2.941406 L 48.546875 2.941406 C 48.328125 3.691406 48.15625 4.472656 48.15625 4.644531 C 48.15625 4.769531 48.171875 5.113281 48.578125 5.113281 C 49.046875 5.113281 49.28125 4.878906 49.859375 4.035156 Z M 49.734375 3.957031 "
       id="path190" />
    <path
       style=" stroke:none;fill-rule:nonzero;fill:rgb(12.940979%,11.764526%,11.764526%);fill-opacity:1;"
       d="M 51.203125 5.035156 C 51.59375 3.816406 51.71875 3.394531 52.0625 2.738281 C 52.140625 2.597656 52.6875 1.566406 52.984375 1.566406 C 53.203125 1.566406 53.0625 1.894531 53.453125 1.894531 C 53.5625 1.894531 53.890625 1.894531 53.890625 1.425781 C 53.890625 1.113281 53.65625 0.972656 53.453125 0.972656 C 52.875 0.972656 52.171875 2.050781 51.859375 2.660156 L 51.796875 2.847656 L 51.765625 2.816406 L 52.21875 0.988281 L 52.203125 0.972656 C 51.78125 1.035156 51.234375 1.160156 50.765625 1.222656 L 50.765625 1.378906 C 50.875 1.363281 50.96875 1.332031 51.078125 1.332031 C 51.359375 1.332031 51.40625 1.472656 51.40625 1.613281 C 51.40625 1.691406 51.34375 2.003906 51.25 2.347656 L 50.515625 5.035156 Z M 51.203125 5.035156 "
       id="path192" />
    <path
       style=" stroke:none;fill-rule:nonzero;fill:rgb(12.940979%,11.764526%,11.764526%);fill-opacity:1;"
       d="M 56.898438 4.050781 C 56.570313 4.425781 56.148438 4.800781 55.585938 4.800781 C 55.023438 4.800781 54.742188 4.394531 54.742188 3.675781 C 54.742188 2.800781 55.382813 1.160156 56.585938 1.160156 C 56.742188 1.160156 56.929688 1.207031 56.929688 1.347656 C 56.929688 1.503906 56.789063 1.566406 56.789063 1.800781 C 56.789063 2.003906 56.929688 2.144531 57.164063 2.144531 C 57.398438 2.144531 57.601563 1.972656 57.601563 1.722656 C 57.601563 1.425781 57.367188 0.972656 56.585938 0.972656 C 55.226563 0.972656 53.960938 2.378906 53.960938 3.675781 C 53.960938 4.910156 54.726563 5.128906 55.320313 5.128906 C 56.289063 5.128906 56.820313 4.441406 57.054688 4.144531 Z M 56.898438 4.050781 "
       id="path194" />
    <path
       style=" stroke:none;fill-rule:nonzero;fill:rgb(12.940979%,11.764526%,11.764526%);fill-opacity:1;"
       d="M 59.179688 2.707031 C 59.523438 1.894531 60.148438 1.175781 60.632813 1.175781 C 60.867188 1.175781 60.960938 1.363281 60.960938 1.550781 C 60.960938 1.628906 60.914063 2.738281 59.023438 3.113281 Z M 61.070313 4.035156 C 60.617188 4.410156 60.226563 4.722656 59.726563 4.722656 C 59.335938 4.722656 58.867188 4.503906 58.867188 3.878906 C 58.867188 3.691406 58.914063 3.519531 58.960938 3.316406 L 59.210938 3.285156 C 60.710938 3.066406 61.570313 2.332031 61.570313 1.597656 C 61.570313 1.191406 61.289063 0.972656 60.820313 0.972656 C 59.523438 0.972656 58.054688 2.519531 58.054688 3.832031 C 58.054688 4.410156 58.351563 5.128906 59.320313 5.128906 C 60.242188 5.128906 61.085938 4.285156 61.179688 4.144531 Z M 61.070313 4.035156 "
       id="path196" />
    <path
       style=" stroke:none;fill-rule:nonzero;fill:rgb(12.940979%,11.764526%,11.764526%);fill-opacity:1;"
       d="M 64.5 3.691406 L 64.3125 5.160156 L 64.46875 5.160156 C 64.515625 5.050781 64.5625 4.957031 64.6875 4.957031 C 64.953125 4.957031 65.328125 5.128906 65.59375 5.128906 C 66.109375 5.128906 66.96875 4.910156 66.96875 3.894531 C 66.96875 3.113281 65.84375 2.300781 65.84375 1.722656 C 65.84375 1.269531 66.140625 1.175781 66.34375 1.175781 C 66.953125 1.175781 67.171875 1.722656 67.21875 2.238281 L 67.359375 2.238281 L 67.546875 0.957031 L 67.421875 0.957031 C 67.375 1.035156 67.3125 1.128906 67.15625 1.128906 C 66.875 1.128906 66.703125 0.972656 66.28125 0.972656 C 65.3125 0.972656 65.171875 1.707031 65.171875 1.988281 C 65.171875 2.707031 66.28125 3.582031 66.28125 4.191406 C 66.28125 4.503906 66.125 4.941406 65.609375 4.941406 C 64.859375 4.941406 64.71875 4.097656 64.65625 3.691406 Z M 64.5 3.691406 "
       id="path198" />
    <path
       style=" stroke:none;fill-rule:nonzero;fill:rgb(12.940979%,11.764526%,11.764526%);fill-opacity:1;"
       d="M 71.257813 2.144531 C 71.257813 3.253906 70.429688 4.957031 69.304688 4.957031 C 69.070313 4.957031 68.835938 4.863281 68.835938 4.613281 C 68.835938 4.253906 69.210938 3.003906 69.429688 2.410156 C 69.679688 1.785156 70.210938 1.363281 70.648438 1.363281 C 71.242188 1.363281 71.257813 1.894531 71.257813 2.144531 Z M 68.273438 1.316406 L 68.492188 1.316406 C 68.695313 1.300781 68.867188 1.410156 68.867188 1.582031 C 68.867188 1.769531 67.929688 5.207031 67.679688 6.238281 C 67.617188 6.535156 67.554688 6.785156 67.070313 6.785156 L 67.070313 6.925781 L 68.960938 6.925781 L 68.960938 6.785156 C 68.710938 6.785156 68.367188 6.785156 68.367188 6.488281 C 68.367188 6.300781 68.617188 5.300781 68.710938 4.972656 C 68.914063 5.097656 69.101563 5.128906 69.335938 5.128906 C 70.601563 5.128906 72.085938 3.613281 72.085938 2.175781 C 72.085938 1.519531 71.804688 0.972656 70.976563 0.972656 C 70.226563 0.972656 69.695313 1.644531 69.476563 1.972656 L 69.460938 1.941406 L 69.710938 1.082031 C 69.742188 0.988281 69.710938 0.972656 69.679688 0.972656 L 68.257813 1.175781 Z M 68.273438 1.316406 "
       id="path200" />
    <path
       style=" stroke:none;fill-rule:nonzero;fill:rgb(12.940979%,11.764526%,11.764526%);fill-opacity:1;"
       d="M 76.644531 4.019531 C 76.222656 4.425781 76.035156 4.660156 75.910156 4.660156 C 75.832031 4.660156 75.769531 4.597656 75.769531 4.535156 C 75.769531 4.253906 76.628906 1.113281 76.644531 1.003906 L 76.582031 0.972656 L 76.019531 1.035156 L 75.988281 1.066406 L 75.910156 1.472656 L 75.878906 1.472656 C 75.863281 1.207031 75.550781 0.972656 75.160156 0.972656 C 73.925781 0.972656 72.519531 2.691406 72.519531 4.050781 C 72.519531 4.316406 72.550781 5.128906 73.472656 5.128906 C 74.019531 5.128906 74.503906 4.863281 75.269531 3.738281 L 75.300781 3.753906 C 75.144531 4.316406 75.097656 4.519531 75.097656 4.738281 C 75.097656 4.894531 75.097656 5.128906 75.488281 5.128906 C 75.878906 5.128906 76.191406 4.800781 76.753906 4.113281 Z M 73.300781 4.035156 C 73.300781 3.207031 74.128906 1.175781 75.207031 1.175781 C 75.472656 1.175781 75.722656 1.347656 75.722656 1.785156 C 75.722656 2.691406 74.832031 4.691406 73.847656 4.691406 C 73.597656 4.691406 73.300781 4.519531 73.300781 4.035156 Z M 73.300781 4.035156 "
       id="path202" />
    <path
       style=" stroke:none;fill-rule:nonzero;fill:rgb(12.940979%,11.764526%,11.764526%);fill-opacity:1;"
       d="M 80.191406 4.050781 C 79.863281 4.425781 79.441406 4.800781 78.878906 4.800781 C 78.316406 4.800781 78.035156 4.394531 78.035156 3.675781 C 78.035156 2.800781 78.675781 1.160156 79.878906 1.160156 C 80.035156 1.160156 80.222656 1.207031 80.222656 1.347656 C 80.222656 1.503906 80.082031 1.566406 80.082031 1.800781 C 80.082031 2.003906 80.222656 2.144531 80.457031 2.144531 C 80.691406 2.144531 80.894531 1.972656 80.894531 1.722656 C 80.894531 1.425781 80.660156 0.972656 79.878906 0.972656 C 78.519531 0.972656 77.253906 2.378906 77.253906 3.675781 C 77.253906 4.910156 78.019531 5.128906 78.613281 5.128906 C 79.582031 5.128906 80.113281 4.441406 80.347656 4.144531 Z M 80.191406 4.050781 "
       id="path204" />
    <path
       style=" stroke:none;fill-rule:nonzero;fill:rgb(12.940979%,11.764526%,11.764526%);fill-opacity:1;"
       d="M 82.472656 2.707031 C 82.816406 1.894531 83.441406 1.175781 83.925781 1.175781 C 84.160156 1.175781 84.253906 1.363281 84.253906 1.550781 C 84.253906 1.628906 84.207031 2.738281 82.316406 3.113281 Z M 84.363281 4.035156 C 83.910156 4.410156 83.519531 4.722656 83.019531 4.722656 C 82.628906 4.722656 82.160156 4.503906 82.160156 3.878906 C 82.160156 3.691406 82.207031 3.519531 82.253906 3.316406 L 82.503906 3.285156 C 84.003906 3.066406 84.863281 2.332031 84.863281 1.597656 C 84.863281 1.191406 84.582031 0.972656 84.113281 0.972656 C 82.816406 0.972656 81.347656 2.519531 81.347656 3.832031 C 81.347656 4.410156 81.644531 5.128906 82.613281 5.128906 C 83.535156 5.128906 84.378906 4.285156 84.472656 4.144531 Z M 84.363281 4.035156 "
       id="path206" />
    <path
       style=" stroke:none;fill-rule:nonzero;fill:rgb(12.940979%,11.764526%,11.764526%);fill-opacity:1;"
       d="M 161.5625 1.082031 L 160.8125 1.082031 L 161.078125 0.144531 C 161.09375 0.0664063 161.078125 -0.0117188 161.015625 0.00390625 C 160.9375 -0.0117188 160.890625 0.0664063 160.859375 0.113281 C 160.59375 0.441406 160.15625 0.847656 159.84375 1.003906 C 159.6875 1.082031 159.4375 1.160156 159.375 1.238281 C 159.359375 1.285156 159.359375 1.332031 159.359375 1.378906 L 160.046875 1.378906 L 159.375 3.925781 C 159.34375 4.066406 159.171875 4.628906 159.171875 4.769531 C 159.171875 5.050781 159.421875 5.128906 159.609375 5.128906 C 160.09375 5.128906 160.453125 4.738281 160.921875 4.019531 L 160.796875 3.957031 C 160.578125 4.253906 160.25 4.691406 160.0625 4.691406 C 159.96875 4.691406 159.921875 4.613281 159.921875 4.535156 C 159.921875 4.503906 159.921875 4.488281 159.921875 4.457031 L 160.734375 1.378906 L 161.515625 1.378906 Z M 161.5625 1.082031 "
       id="path208" />
    <path
       style=" stroke:none;fill-rule:nonzero;fill:rgb(12.940979%,11.764526%,11.764526%);fill-opacity:1;"
       d="M 165.671875 4.019531 C 165.25 4.425781 165.0625 4.660156 164.9375 4.660156 C 164.859375 4.660156 164.796875 4.597656 164.796875 4.535156 C 164.796875 4.253906 165.65625 1.113281 165.671875 1.003906 L 165.609375 0.972656 L 165.046875 1.035156 L 165.015625 1.066406 L 164.9375 1.472656 L 164.90625 1.472656 C 164.890625 1.207031 164.578125 0.972656 164.1875 0.972656 C 162.953125 0.972656 161.546875 2.691406 161.546875 4.050781 C 161.546875 4.316406 161.578125 5.128906 162.5 5.128906 C 163.046875 5.128906 163.53125 4.863281 164.296875 3.738281 L 164.328125 3.753906 C 164.171875 4.316406 164.125 4.519531 164.125 4.738281 C 164.125 4.894531 164.125 5.128906 164.515625 5.128906 C 164.90625 5.128906 165.21875 4.800781 165.78125 4.113281 Z M 162.328125 4.035156 C 162.328125 3.207031 163.15625 1.175781 164.234375 1.175781 C 164.5 1.175781 164.75 1.347656 164.75 1.785156 C 164.75 2.691406 163.859375 4.691406 162.875 4.691406 C 162.625 4.691406 162.328125 4.519531 162.328125 4.035156 Z M 162.328125 4.035156 "
       id="path210" />
    <path
       style=" stroke:none;fill-rule:nonzero;fill:rgb(12.940979%,11.764526%,11.764526%);fill-opacity:1;"
       d="M 167.109375 5.035156 C 167.5 3.816406 167.625 3.394531 167.96875 2.738281 C 168.046875 2.597656 168.59375 1.566406 168.890625 1.566406 C 169.109375 1.566406 168.96875 1.894531 169.359375 1.894531 C 169.46875 1.894531 169.796875 1.894531 169.796875 1.425781 C 169.796875 1.113281 169.5625 0.972656 169.359375 0.972656 C 168.78125 0.972656 168.078125 2.050781 167.765625 2.660156 L 167.703125 2.847656 L 167.671875 2.816406 L 168.125 0.988281 L 168.109375 0.972656 C 167.6875 1.035156 167.140625 1.160156 166.671875 1.222656 L 166.671875 1.378906 C 166.78125 1.363281 166.875 1.332031 166.984375 1.332031 C 167.265625 1.332031 167.3125 1.472656 167.3125 1.613281 C 167.3125 1.691406 167.25 2.003906 167.15625 2.347656 L 166.421875 5.035156 Z M 167.109375 5.035156 "
       id="path212" />
    <path
       style=" stroke:none;fill-rule:nonzero;fill:rgb(12.940979%,11.764526%,11.764526%);fill-opacity:1;"
       d="M 173.929688 1.300781 L 173.367188 1.300781 C 173.304688 1.300781 173.226563 1.222656 173.070313 1.128906 C 172.898438 1.050781 172.679688 0.972656 172.289063 0.972656 C 171.539063 0.972656 170.476563 1.503906 170.476563 2.535156 C 170.476563 3.175781 170.867188 3.394531 171.195313 3.535156 C 170.882813 3.753906 170.492188 4.019531 170.492188 4.300781 C 170.492188 4.488281 170.632813 4.597656 170.742188 4.675781 C 169.960938 5.175781 169.664063 5.378906 169.664063 5.910156 C 169.664063 6.410156 170.148438 6.941406 171.148438 6.941406 C 172.414063 6.941406 173.132813 6.378906 173.132813 5.582031 C 173.132813 4.316406 171.164063 4.457031 171.164063 3.972656 C 171.164063 3.847656 171.367188 3.613281 171.507813 3.613281 C 171.617188 3.613281 171.757813 3.644531 171.867188 3.644531 C 172.679688 3.644531 173.554688 2.894531 173.554688 2.207031 C 173.554688 2.019531 173.539063 1.832031 173.476563 1.660156 L 173.929688 1.660156 Z M 172.585938 5.863281 C 172.585938 6.316406 172.132813 6.738281 171.304688 6.738281 C 171.164063 6.738281 170.164063 6.691406 170.164063 5.832031 C 170.164063 5.628906 170.164063 5.378906 170.539063 5.050781 C 170.570313 5.019531 170.882813 4.769531 170.945313 4.769531 C 171.007813 4.769531 171.914063 5.113281 172.070313 5.207031 C 172.257813 5.285156 172.585938 5.441406 172.585938 5.863281 Z M 172.835938 1.800781 C 172.835938 2.566406 172.367188 3.457031 171.757813 3.457031 C 171.351563 3.457031 171.195313 3.144531 171.195313 2.738281 C 171.195313 2.113281 171.601563 1.175781 172.304688 1.175781 C 172.695313 1.175781 172.835938 1.441406 172.835938 1.800781 Z M 172.835938 1.800781 "
       id="path214" />
    <path
       style=" stroke:none;fill-rule:nonzero;fill:rgb(12.940979%,11.764526%,11.764526%);fill-opacity:1;"
       d="M 175.601563 2.707031 C 175.945313 1.894531 176.570313 1.175781 177.054688 1.175781 C 177.289063 1.175781 177.382813 1.363281 177.382813 1.550781 C 177.382813 1.628906 177.335938 2.738281 175.445313 3.113281 Z M 177.492188 4.035156 C 177.039063 4.410156 176.648438 4.722656 176.148438 4.722656 C 175.757813 4.722656 175.289063 4.503906 175.289063 3.878906 C 175.289063 3.691406 175.335938 3.519531 175.382813 3.316406 L 175.632813 3.285156 C 177.132813 3.066406 177.992188 2.332031 177.992188 1.597656 C 177.992188 1.191406 177.710938 0.972656 177.242188 0.972656 C 175.945313 0.972656 174.476563 2.519531 174.476563 3.832031 C 174.476563 4.410156 174.773438 5.128906 175.742188 5.128906 C 176.664063 5.128906 177.507813 4.285156 177.601563 4.144531 Z M 177.492188 4.035156 "
       id="path216" />
    <path
       style=" stroke:none;fill-rule:nonzero;fill:rgb(12.940979%,11.764526%,11.764526%);fill-opacity:1;"
       d="M 181.023438 1.082031 L 180.273438 1.082031 L 180.539063 0.144531 C 180.554688 0.0664063 180.539063 -0.0117188 180.476563 0.00390625 C 180.398438 -0.0117188 180.351563 0.0664063 180.320313 0.113281 C 180.054688 0.441406 179.617188 0.847656 179.304688 1.003906 C 179.148438 1.082031 178.898438 1.160156 178.835938 1.238281 C 178.820313 1.285156 178.820313 1.332031 178.820313 1.378906 L 179.507813 1.378906 L 178.835938 3.925781 C 178.804688 4.066406 178.632813 4.628906 178.632813 4.769531 C 178.632813 5.050781 178.882813 5.128906 179.070313 5.128906 C 179.554688 5.128906 179.914063 4.738281 180.382813 4.019531 L 180.257813 3.957031 C 180.039063 4.253906 179.710938 4.691406 179.523438 4.691406 C 179.429688 4.691406 179.382813 4.613281 179.382813 4.535156 C 179.382813 4.503906 179.382813 4.488281 179.382813 4.457031 L 180.195313 1.378906 L 180.976563 1.378906 Z M 181.023438 1.082031 "
       id="path218" />
    <path
       style=" stroke:none;fill-rule:nonzero;fill:rgb(12.940979%,11.764526%,11.764526%);fill-opacity:1;"
       d="M 183.484375 3.691406 L 183.296875 5.160156 L 183.453125 5.160156 C 183.5 5.050781 183.546875 4.957031 183.671875 4.957031 C 183.9375 4.957031 184.3125 5.128906 184.578125 5.128906 C 185.09375 5.128906 185.953125 4.910156 185.953125 3.894531 C 185.953125 3.113281 184.828125 2.300781 184.828125 1.722656 C 184.828125 1.269531 185.125 1.175781 185.328125 1.175781 C 185.9375 1.175781 186.15625 1.722656 186.203125 2.238281 L 186.34375 2.238281 L 186.53125 0.957031 L 186.40625 0.957031 C 186.359375 1.035156 186.296875 1.128906 186.140625 1.128906 C 185.859375 1.128906 185.6875 0.972656 185.265625 0.972656 C 184.296875 0.972656 184.15625 1.707031 184.15625 1.988281 C 184.15625 2.707031 185.265625 3.582031 185.265625 4.191406 C 185.265625 4.503906 185.109375 4.941406 184.59375 4.941406 C 183.84375 4.941406 183.703125 4.097656 183.640625 3.691406 Z M 183.484375 3.691406 "
       id="path220" />
    <path
       style=" stroke:none;fill-rule:nonzero;fill:rgb(12.940979%,11.764526%,11.764526%);fill-opacity:1;"
       d="M 190.242188 2.144531 C 190.242188 3.253906 189.414063 4.957031 188.289063 4.957031 C 188.054688 4.957031 187.820313 4.863281 187.820313 4.613281 C 187.820313 4.253906 188.195313 3.003906 188.414063 2.410156 C 188.664063 1.785156 189.195313 1.363281 189.632813 1.363281 C 190.226563 1.363281 190.242188 1.894531 190.242188 2.144531 Z M 187.257813 1.316406 L 187.476563 1.316406 C 187.679688 1.300781 187.851563 1.410156 187.851563 1.582031 C 187.851563 1.769531 186.914063 5.207031 186.664063 6.238281 C 186.601563 6.535156 186.539063 6.785156 186.054688 6.785156 L 186.054688 6.925781 L 187.945313 6.925781 L 187.945313 6.785156 C 187.695313 6.785156 187.351563 6.785156 187.351563 6.488281 C 187.351563 6.300781 187.601563 5.300781 187.695313 4.972656 C 187.898438 5.097656 188.085938 5.128906 188.320313 5.128906 C 189.585938 5.128906 191.070313 3.613281 191.070313 2.175781 C 191.070313 1.519531 190.789063 0.972656 189.960938 0.972656 C 189.210938 0.972656 188.679688 1.644531 188.460938 1.972656 L 188.445313 1.941406 L 188.695313 1.082031 C 188.726563 0.988281 188.695313 0.972656 188.664063 0.972656 L 187.242188 1.175781 Z M 187.257813 1.316406 "
       id="path222" />
    <path
       style=" stroke:none;fill-rule:nonzero;fill:rgb(12.940979%,11.764526%,11.764526%);fill-opacity:1;"
       d="M 195.632813 4.019531 C 195.210938 4.425781 195.023438 4.660156 194.898438 4.660156 C 194.820313 4.660156 194.757813 4.597656 194.757813 4.535156 C 194.757813 4.253906 195.617188 1.113281 195.632813 1.003906 L 195.570313 0.972656 L 195.007813 1.035156 L 194.976563 1.066406 L 194.898438 1.472656 L 194.867188 1.472656 C 194.851563 1.207031 194.539063 0.972656 194.148438 0.972656 C 192.914063 0.972656 191.507813 2.691406 191.507813 4.050781 C 191.507813 4.316406 191.539063 5.128906 192.460938 5.128906 C 193.007813 5.128906 193.492188 4.863281 194.257813 3.738281 L 194.289063 3.753906 C 194.132813 4.316406 194.085938 4.519531 194.085938 4.738281 C 194.085938 4.894531 194.085938 5.128906 194.476563 5.128906 C 194.867188 5.128906 195.179688 4.800781 195.742188 4.113281 Z M 192.289063 4.035156 C 192.289063 3.207031 193.117188 1.175781 194.195313 1.175781 C 194.460938 1.175781 194.710938 1.347656 194.710938 1.785156 C 194.710938 2.691406 193.820313 4.691406 192.835938 4.691406 C 192.585938 4.691406 192.289063 4.519531 192.289063 4.035156 Z M 192.289063 4.035156 "
       id="path224" />
    <path
       style=" stroke:none;fill-rule:nonzero;fill:rgb(12.940979%,11.764526%,11.764526%);fill-opacity:1;"
       d="M 199.175781 4.050781 C 198.847656 4.425781 198.425781 4.800781 197.863281 4.800781 C 197.300781 4.800781 197.019531 4.394531 197.019531 3.675781 C 197.019531 2.800781 197.660156 1.160156 198.863281 1.160156 C 199.019531 1.160156 199.207031 1.207031 199.207031 1.347656 C 199.207031 1.503906 199.066406 1.566406 199.066406 1.800781 C 199.066406 2.003906 199.207031 2.144531 199.441406 2.144531 C 199.675781 2.144531 199.878906 1.972656 199.878906 1.722656 C 199.878906 1.425781 199.644531 0.972656 198.863281 0.972656 C 197.503906 0.972656 196.238281 2.378906 196.238281 3.675781 C 196.238281 4.910156 197.003906 5.128906 197.597656 5.128906 C 198.566406 5.128906 199.097656 4.441406 199.332031 4.144531 Z M 199.175781 4.050781 "
       id="path226" />
    <path
       style=" stroke:none;fill-rule:nonzero;fill:rgb(12.940979%,11.764526%,11.764526%);fill-opacity:1;"
       d="M 201.457031 2.707031 C 201.800781 1.894531 202.425781 1.175781 202.910156 1.175781 C 203.144531 1.175781 203.238281 1.363281 203.238281 1.550781 C 203.238281 1.628906 203.191406 2.738281 201.300781 3.113281 Z M 203.347656 4.035156 C 202.894531 4.410156 202.503906 4.722656 202.003906 4.722656 C 201.613281 4.722656 201.144531 4.503906 201.144531 3.878906 C 201.144531 3.691406 201.191406 3.519531 201.238281 3.316406 L 201.488281 3.285156 C 202.988281 3.066406 203.847656 2.332031 203.847656 1.597656 C 203.847656 1.191406 203.566406 0.972656 203.097656 0.972656 C 201.800781 0.972656 200.332031 2.519531 200.332031 3.832031 C 200.332031 4.410156 200.628906 5.128906 201.597656 5.128906 C 202.519531 5.128906 203.363281 4.285156 203.457031 4.144531 Z M 203.347656 4.035156 "
       id="path228" />
  </g>
</svg>
