<?xml version="1.0" encoding="UTF-8" standalone="no"?>
<svg
   xmlns:dc="http://purl.org/dc/elements/1.1/"
   xmlns:cc="http://creativecommons.org/ns#"
   xmlns:rdf="http://www.w3.org/1999/02/22-rdf-syntax-ns#"
   xmlns:svg="http://www.w3.org/2000/svg"
   xmlns="http://www.w3.org/2000/svg"
   xmlns:sodipodi="http://sodipodi.sourceforge.net/DTD/sodipodi-0.dtd"
   xmlns:inkscape="http://www.inkscape.org/namespaces/inkscape"
   width="78.662094pt"
   height="95.328674pt"
   viewBox="0 0 78.662094 95.328674"
   version="1.2"
   id="svg125"
   sodipodi:docname="fixed_increment_01.svg"
   inkscape:version="0.92.4 (5da689c313, 2019-01-14)">
  <metadata
     id="metadata129">
    <rdf:RDF>
      <cc:Work
         rdf:about="">
        <dc:format>image/svg+xml</dc:format>
        <dc:type
           rdf:resource="http://purl.org/dc/dcmitype/StillImage" />
        <dc:title></dc:title>
      </cc:Work>
    </rdf:RDF>
  </metadata>
  <sodipodi:namedview
     pagecolor="#ffffff"
     bordercolor="#666666"
     borderopacity="1"
     objecttolerance="10"
     gridtolerance="10"
     guidetolerance="10"
     inkscape:pageopacity="0"
     inkscape:pageshadow="2"
     inkscape:window-width="661"
     inkscape:window-height="480"
     id="namedview127"
     showgrid="false"
     inkscape:zoom="1.8567341"
     inkscape:cx="52.441396"
     inkscape:cy="63.55245"
     inkscape:window-x="0"
     inkscape:window-y="0"
     inkscape:window-maximized="0"
     inkscape:current-layer="svg125" />
  <defs
     id="defs8">
    <clipPath
       id="clip1">
      <path
         d="M 0 9 L 78.660156 9 L 78.660156 95.328125 L 0 95.328125 Z M 0 9 "
         id="path2" />
    </clipPath>
    <clipPath
       id="clip2">
      <path
         d="M 0 20 L 78.660156 20 L 78.660156 95.328125 L 0 95.328125 Z M 0 20 "
         id="path5" />
    </clipPath>
  </defs>
  <g
     id="surface52">
    <path
       style=" stroke:none;fill-rule:nonzero;fill:rgb(0%,0%,0%);fill-opacity:1;"
       d="M 37.160156 7.296875 L 40.175781 7.296875 L 40.175781 7.140625 C 39.628906 7.140625 39.238281 7.109375 39.238281 6.78125 C 39.238281 6.609375 39.378906 6.203125 39.441406 5.984375 L 40.972656 0.390625 C 41.035156 0.21875 41.082031 0 41.003906 0 C 40.910156 0 39.410156 0.328125 38.910156 0.40625 L 38.910156 0.578125 L 39.519531 0.546875 C 39.613281 0.546875 39.925781 0.546875 39.925781 0.890625 C 39.925781 0.984375 39.894531 1.125 39.863281 1.25 L 38.363281 6.5625 C 38.222656 7.046875 37.800781 7.078125 37.160156 7.140625 Z M 37.160156 7.296875 "
       id="path10" />
    <g
       clip-path="url(#clip1)"
       clip-rule="nonzero"
       id="g14">
      <path
         style="fill:none;stroke-width:0.166;stroke-linecap:round;stroke-linejoin:round;stroke:rgb(0%,0%,0%);stroke-opacity:1;stroke-miterlimit:4;"
         d="M 7.023438 75.96875 L 0.0820313 32.152344 L 31.507813 10.035156 L 32.890625 49.59375 L 7.023438 75.96875 M 52.867188 95.246094 L 72.855469 62.671875 L 78.578125 20.820313 L 55.535156 49.289063 L 52.867188 95.246094 M 7.023438 75.96875 L 0.0820313 32.152344 L 55.535156 49.289063 L 52.867188 95.246094 L 7.023438 75.96875 M 32.890625 49.59375 L 72.855469 62.671875 L 78.578125 20.820313 L 31.507813 10.035156 L 32.890625 49.59375 "
         id="path12" />
    </g>
    <path
       style="fill:none;stroke-width:1.2;stroke-linecap:round;stroke-linejoin:round;stroke:rgb(0%,0%,0%);stroke-opacity:1;stroke-miterlimit:4;"
       d="M 26.742188 13.390625 L 28.804688 41.03125 "
       id="path16" />
    <path
       style=" stroke:none;fill-rule:nonzero;fill:rgb(78.038025%,12.940979%,14.901733%);fill-opacity:1;"
       d="M 42.394531 48.613281 L 43.148438 50.480469 L 44.230469 54.949219 L 42.394531 48.613281 "
       id="path18" />
    <path
       style="fill:none;stroke-width:0.166;stroke-linecap:round;stroke-linejoin:round;stroke:rgb(0%,0%,0%);stroke-opacity:1;stroke-miterlimit:4;"
       d="M 42.394531 48.613281 L 43.148438 50.480469 "
       id="path20" />
    <path
       style=" stroke:none;fill-rule:nonzero;fill:rgb(78.038025%,12.940979%,14.901733%);fill-opacity:1;"
       d="M 41.546875 46.824219 L 42.394531 48.613281 L 44.230469 54.949219 L 41.546875 46.824219 "
       id="path22" />
    <path
       style="fill:none;stroke-width:0.166;stroke-linecap:round;stroke-linejoin:round;stroke:rgb(0%,0%,0%);stroke-opacity:1;stroke-miterlimit:4;"
       d="M 41.546875 46.824219 L 42.394531 48.613281 "
       id="path24" />
    <path
       style=" stroke:none;fill-rule:nonzero;fill:rgb(78.038025%,12.940979%,14.901733%);fill-opacity:1;"
       d="M 43.148438 50.480469 L 43.738281 52.265625 L 44.230469 54.949219 L 43.148438 50.480469 "
       id="path26" />
    <path
       style="fill:none;stroke-width:0.166;stroke-linecap:round;stroke-linejoin:round;stroke:rgb(0%,0%,0%);stroke-opacity:1;stroke-miterlimit:4;"
       d="M 43.148438 50.480469 L 43.738281 52.265625 "
       id="path28" />
    <path
       style=" stroke:none;fill-rule:nonzero;fill:rgb(78.038025%,12.940979%,14.901733%);fill-opacity:1;"
       d="M 40.679688 45.277344 L 41.546875 46.824219 L 44.230469 54.949219 L 40.679688 45.277344 "
       id="path30" />
    <path
       style="fill:none;stroke-width:0.166;stroke-linecap:round;stroke-linejoin:round;stroke:rgb(0%,0%,0%);stroke-opacity:1;stroke-miterlimit:4;"
       d="M 40.679688 45.277344 L 41.546875 46.824219 "
       id="path32" />
    <path
       style=" stroke:none;fill-rule:nonzero;fill:rgb(78.038025%,12.940979%,14.901733%);fill-opacity:1;"
       d="M 43.738281 52.265625 L 44.113281 53.804688 L 44.230469 54.949219 L 43.738281 52.265625 "
       id="path34" />
    <path
       style="fill:none;stroke-width:0.166;stroke-linecap:round;stroke-linejoin:round;stroke:rgb(0%,0%,0%);stroke-opacity:1;stroke-miterlimit:4;"
       d="M 43.738281 52.265625 L 44.113281 53.804688 L 44.230469 54.949219 "
       id="path36" />
    <path
       style=" stroke:none;fill-rule:nonzero;fill:rgb(78.038025%,12.940979%,14.901733%);fill-opacity:1;"
       d="M 39.867188 44.113281 L 40.679688 45.277344 L 44.230469 54.949219 L 39.867188 44.113281 "
       id="path38" />
    <path
       style="fill:none;stroke-width:0.166;stroke-linecap:round;stroke-linejoin:round;stroke:rgb(0%,0%,0%);stroke-opacity:1;stroke-miterlimit:4;"
       d="M 39.867188 44.113281 L 40.679688 45.277344 "
       id="path40" />
    <path
       style=" stroke:none;fill-rule:nonzero;fill:rgb(78.038025%,12.940979%,14.901733%);fill-opacity:1;"
       d="M 39.1875 43.449219 L 39.867188 44.113281 L 44.230469 54.949219 L 39.1875 43.449219 "
       id="path42" />
    <path
       style="fill:none;stroke-width:0.166;stroke-linecap:round;stroke-linejoin:round;stroke:rgb(0%,0%,0%);stroke-opacity:1;stroke-miterlimit:4;"
       d="M 39.1875 43.449219 L 39.867188 44.113281 "
       id="path44" />
    <path
       style=" stroke:none;fill-rule:nonzero;fill:rgb(78.038025%,12.940979%,14.901733%);fill-opacity:1;"
       d="M 38.710938 43.359375 L 39.1875 43.449219 L 44.230469 54.949219 L 38.710938 43.359375 "
       id="path46" />
    <path
       style="fill:none;stroke-width:0.166;stroke-linecap:round;stroke-linejoin:round;stroke:rgb(0%,0%,0%);stroke-opacity:1;stroke-miterlimit:4;"
       d="M 38.710938 43.359375 L 39.1875 43.449219 "
       id="path48" />
    <path
       style=" stroke:none;fill-rule:nonzero;fill:rgb(78.038025%,12.940979%,14.901733%);fill-opacity:1;"
       d="M 38.492188 43.875 L 38.710938 43.359375 L 44.230469 54.949219 L 38.492188 43.875 "
       id="path50" />
    <path
       style="fill:none;stroke-width:0.166;stroke-linecap:round;stroke-linejoin:round;stroke:rgb(0%,0%,0%);stroke-opacity:1;stroke-miterlimit:4;"
       d="M 38.492188 43.875 L 38.710938 43.359375 "
       id="path52" />
    <path
       style=" stroke:none;fill-rule:nonzero;fill:rgb(78.038025%,12.940979%,14.901733%);fill-opacity:1;"
       d="M 38.558594 44.964844 L 38.492188 43.875 L 44.230469 54.949219 L 38.558594 44.964844 "
       id="path54" />
    <path
       style="fill:none;stroke-width:0.166;stroke-linecap:round;stroke-linejoin:round;stroke:rgb(0%,0%,0%);stroke-opacity:1;stroke-miterlimit:4;"
       d="M 38.558594 44.964844 L 38.492188 43.875 "
       id="path56" />
    <path
       style=" stroke:none;fill-rule:nonzero;fill:rgb(78.038025%,12.940979%,14.901733%);fill-opacity:1;"
       d="M 38.910156 46.527344 L 38.558594 44.964844 L 44.230469 54.949219 L 38.910156 46.527344 "
       id="path58" />
    <path
       style="fill:none;stroke-width:0.166;stroke-linecap:round;stroke-linejoin:round;stroke:rgb(0%,0%,0%);stroke-opacity:1;stroke-miterlimit:4;"
       d="M 38.910156 46.527344 L 38.558594 44.964844 "
       id="path60" />
    <path
       style=" stroke:none;fill-rule:nonzero;fill:rgb(78.038025%,12.940979%,14.901733%);fill-opacity:1;"
       d="M 39.519531 48.40625 L 38.910156 46.527344 L 44.230469 54.949219 L 39.519531 48.40625 "
       id="path62" />
    <path
       style="fill:none;stroke-width:0.166;stroke-linecap:round;stroke-linejoin:round;stroke:rgb(0%,0%,0%);stroke-opacity:1;stroke-miterlimit:4;"
       d="M 39.519531 48.40625 L 38.910156 46.527344 "
       id="path64" />
    <path
       style=" stroke:none;fill-rule:nonzero;fill:rgb(78.038025%,12.940979%,14.901733%);fill-opacity:1;"
       d="M 40.320313 50.40625 L 39.519531 48.40625 L 44.230469 54.949219 L 40.320313 50.40625 "
       id="path66" />
    <path
       style="fill:none;stroke-width:0.166;stroke-linecap:round;stroke-linejoin:round;stroke:rgb(0%,0%,0%);stroke-opacity:1;stroke-miterlimit:4;"
       d="M 40.320313 50.40625 L 39.519531 48.40625 "
       id="path68" />
    <path
       style=" stroke:none;fill-rule:nonzero;fill:rgb(78.038025%,12.940979%,14.901733%);fill-opacity:1;"
       d="M 41.230469 52.3125 L 40.320313 50.40625 L 44.230469 54.949219 L 41.230469 52.3125 "
       id="path70" />
    <path
       style="fill:none;stroke-width:0.166;stroke-linecap:round;stroke-linejoin:round;stroke:rgb(0%,0%,0%);stroke-opacity:1;stroke-miterlimit:4;"
       d="M 41.230469 52.3125 L 40.320313 50.40625 "
       id="path72" />
    <path
       style=" stroke:none;fill-rule:nonzero;fill:rgb(78.038025%,12.940979%,14.901733%);fill-opacity:1;"
       d="M 42.152344 53.917969 L 41.230469 52.3125 L 44.230469 54.949219 L 42.152344 53.917969 "
       id="path74" />
    <path
       style="fill:none;stroke-width:0.166;stroke-linecap:round;stroke-linejoin:round;stroke:rgb(0%,0%,0%);stroke-opacity:1;stroke-miterlimit:4;"
       d="M 42.152344 53.917969 L 41.230469 52.3125 "
       id="path76" />
    <path
       style=" stroke:none;fill-rule:nonzero;fill:rgb(78.038025%,12.940979%,14.901733%);fill-opacity:1;"
       d="M 42.984375 55.058594 L 42.152344 53.917969 L 44.230469 54.949219 L 42.984375 55.058594 "
       id="path78" />
    <path
       style="fill:none;stroke-width:0.166;stroke-linecap:round;stroke-linejoin:round;stroke:rgb(0%,0%,0%);stroke-opacity:1;stroke-miterlimit:4;"
       d="M 42.984375 55.058594 L 42.152344 53.917969 "
       id="path80" />
    <path
       style=" stroke:none;fill-rule:nonzero;fill:rgb(78.038025%,12.940979%,14.901733%);fill-opacity:1;"
       d="M 43.644531 55.628906 L 42.984375 55.058594 L 44.230469 54.949219 L 43.644531 55.628906 "
       id="path82" />
    <path
       style="fill:none;stroke-width:0.166;stroke-linecap:round;stroke-linejoin:round;stroke:rgb(0%,0%,0%);stroke-opacity:1;stroke-miterlimit:4;"
       d="M 43.644531 55.628906 L 42.984375 55.058594 "
       id="path84" />
    <path
       style=" stroke:none;fill-rule:nonzero;fill:rgb(78.038025%,12.940979%,14.901733%);fill-opacity:1;"
       d="M 44.230469 54.949219 L 44.070313 55.582031 L 43.644531 55.628906 L 44.230469 54.949219 "
       id="path86" />
    <path
       style="fill:none;stroke-width:0.166;stroke-linecap:round;stroke-linejoin:round;stroke:rgb(0%,0%,0%);stroke-opacity:1;stroke-miterlimit:4;"
       d="M 44.230469 54.949219 L 44.070313 55.582031 L 43.644531 55.628906 "
       id="path88" />
    <path
       style="fill:none;stroke-width:1.2;stroke-linecap:round;stroke-linejoin:round;stroke:rgb(49.803162%,0%,0%);stroke-opacity:1;stroke-dasharray:2.492,2.492;stroke-miterlimit:4;"
       d="M 22.488281 16.382813 L 25.859375 40.121094 "
       id="path90" />
    <path
       style="fill:none;stroke-width:0.332;stroke-linecap:round;stroke-linejoin:round;stroke:rgb(59.214783%,59.214783%,59.214783%);stroke-opacity:1;stroke-miterlimit:4;"
       d="M 41.394531 49.480469 L 62.726563 40.078125 "
       id="path92" />
    <path
       style="fill:none;stroke-width:0.831;stroke-linecap:round;stroke-linejoin:round;stroke:rgb(0%,0%,0%);stroke-opacity:1;stroke-miterlimit:4;"
       d="M 41.394531 49.480469 L 41.394531 49.480469 "
       id="path94" />
    <path
       style="fill:none;stroke-width:2.4;stroke-linecap:round;stroke-linejoin:round;stroke:rgb(0%,0%,0%);stroke-opacity:1;stroke-miterlimit:4;"
       d="M 55.164063 19.355469 L 55.164063 19.355469 "
       id="path96" />
    <path
       style="fill:none;stroke-width:2.4;stroke-linecap:round;stroke-linejoin:round;stroke:rgb(94.116211%,34.117126%,27.058411%);stroke-opacity:1;stroke-miterlimit:4;"
       d="M 62.472656 19.742188 L 62.472656 19.742188 M 69.839844 20.128906 L 69.839844 20.128906 "
       id="path98" />
    <path
       style="fill:none;stroke-width:2.492;stroke-linecap:round;stroke-linejoin:round;stroke:rgb(0%,0%,0%);stroke-opacity:1;stroke-miterlimit:4;"
       d="M 52.832031 21.566406 L 52.832031 21.566406 "
       id="path100" />
    <path
       style="fill:none;stroke-width:4.8;stroke-linecap:round;stroke-linejoin:round;stroke:rgb(0%,0%,0%);stroke-opacity:1;stroke-miterlimit:4;"
       d="M 52.832031 21.566406 L 52.832031 21.566406 "
       id="path102" />
    <path
       style="fill:none;stroke-width:2.4;stroke-linecap:round;stroke-linejoin:round;stroke:rgb(94.116211%,34.117126%,27.058411%);stroke-opacity:1;stroke-miterlimit:4;"
       d="M 64.160156 22.902344 L 64.160156 22.902344 M 70.441406 22.996094 L 70.441406 22.996094 "
       id="path104" />
    <path
       style="fill:none;stroke-width:2.4;stroke-linecap:round;stroke-linejoin:round;stroke:rgb(0%,0%,0%);stroke-opacity:1;stroke-miterlimit:4;"
       d="M 56.726563 23.972656 L 56.726563 23.972656 M 46.597656 24.417969 L 46.597656 24.417969 "
       id="path106" />
    <path
       style="fill:none;stroke-width:2.4;stroke-linecap:round;stroke-linejoin:round;stroke:rgb(94.116211%,34.117126%,27.058411%);stroke-opacity:1;stroke-miterlimit:4;"
       d="M 72.097656 24.820313 L 72.097656 24.820313 "
       id="path108" />
    <path
       style="fill:none;stroke-width:2.4;stroke-linecap:round;stroke-linejoin:round;stroke:rgb(0%,0%,0%);stroke-opacity:1;stroke-miterlimit:4;"
       d="M 58.441406 29.035156 L 58.441406 29.035156 "
       id="path110" />
    <g
       clip-path="url(#clip2)"
       clip-rule="nonzero"
       id="g114">
      <path
         style="fill:none;stroke-width:0.166;stroke-linecap:round;stroke-linejoin:round;stroke:rgb(0%,0%,0%);stroke-opacity:1;stroke-miterlimit:4;"
         d="M 52.867188 95.246094 L 72.855469 62.671875 L 78.578125 20.820313 L 55.535156 49.289063 L 52.867188 95.246094 M 7.023438 75.96875 L 0.0820313 32.152344 L 55.535156 49.289063 L 52.867188 95.246094 L 7.023438 75.96875 "
         id="path112" />
    </g>
    <path
       style=" stroke:none;fill-rule:nonzero;fill:rgb(12.940979%,11.764526%,11.764526%);fill-opacity:1;"
       d="M 13.914063 27.738281 C 15.351563 27.738281 15.664063 28.097656 15.664063 28.550781 C 15.664063 28.941406 15.382813 29.832031 14.101563 29.878906 C 13.726563 29.894531 13.476563 30.160156 13.476563 30.238281 C 13.476563 30.285156 13.507813 30.285156 13.523438 30.285156 C 13.757813 30.316406 13.914063 30.347656 14.382813 31.347656 C 14.726563 32.097656 14.929688 32.410156 15.351563 32.410156 C 16.226563 32.410156 17.085938 31.519531 17.085938 31.363281 C 17.085938 31.316406 17.039063 31.316406 17.007813 31.316406 C 16.882813 31.316406 16.601563 31.457031 16.492188 31.613281 C 16.351563 31.800781 16.195313 32.003906 15.835938 32.003906 C 15.476563 32.003906 15.226563 31.503906 14.992188 30.972656 C 14.757813 30.503906 14.664063 30.316406 14.507813 30.128906 C 15.664063 29.691406 16.289063 28.925781 16.289063 28.238281 C 16.289063 27.332031 15.085938 27.332031 13.929688 27.332031 C 13.132813 27.332031 12.648438 27.332031 11.976563 27.675781 C 11.085938 28.128906 11.023438 28.675781 11.023438 28.675781 C 11.023438 28.707031 11.023438 28.738281 11.085938 28.738281 C 11.226563 28.738281 11.585938 28.566406 11.648438 28.378906 C 11.742188 28.097656 11.851563 27.785156 12.898438 27.738281 C 12.820313 28.582031 12.695313 30.066406 11.789063 32.238281 C 11.742188 32.347656 11.742188 32.347656 11.742188 32.363281 C 11.742188 32.410156 11.789063 32.410156 11.820313 32.410156 C 11.976563 32.410156 12.257813 32.253906 12.351563 32.113281 C 12.351563 32.082031 12.507813 31.753906 12.726563 31.128906 C 13.085938 30.128906 13.382813 28.957031 13.507813 27.738281 Z M 13.914063 27.738281 "
       id="path116" />
    <path
       style=" stroke:none;fill-rule:nonzero;fill:rgb(12.940979%,11.764526%,11.764526%);fill-opacity:1;"
       d="M 17.332031 34.054688 L 18.332031 34.054688 L 18.332031 34.007813 C 18.160156 34.007813 18.035156 33.992188 18.035156 33.882813 C 18.035156 33.820313 18.082031 33.695313 18.097656 33.617188 L 18.613281 31.757813 C 18.628906 31.695313 18.644531 31.632813 18.613281 31.632813 C 18.582031 31.632813 18.082031 31.726563 17.925781 31.757813 L 17.925781 31.820313 L 18.128906 31.804688 C 18.160156 31.804688 18.253906 31.804688 18.253906 31.929688 C 18.253906 31.945313 18.238281 32.007813 18.238281 32.039063 L 17.738281 33.804688 C 17.691406 33.976563 17.550781 33.976563 17.332031 34.007813 Z M 17.332031 34.054688 "
       id="path118" />
    <path
       style=" stroke:none;fill-rule:nonzero;fill:rgb(86.273193%,14.901733%,13.725281%);fill-opacity:1;"
       d="M 38.714844 20.9375 C 40.152344 20.9375 40.464844 21.296875 40.464844 21.75 C 40.464844 22.140625 40.183594 23.03125 38.902344 23.078125 C 38.527344 23.09375 38.277344 23.359375 38.277344 23.4375 C 38.277344 23.484375 38.308594 23.484375 38.324219 23.484375 C 38.558594 23.515625 38.714844 23.546875 39.183594 24.546875 C 39.527344 25.296875 39.730469 25.609375 40.152344 25.609375 C 41.027344 25.609375 41.886719 24.71875 41.886719 24.5625 C 41.886719 24.515625 41.839844 24.515625 41.808594 24.515625 C 41.683594 24.515625 41.402344 24.65625 41.292969 24.8125 C 41.152344 25 40.996094 25.203125 40.636719 25.203125 C 40.277344 25.203125 40.027344 24.703125 39.792969 24.171875 C 39.558594 23.703125 39.464844 23.515625 39.308594 23.328125 C 40.464844 22.890625 41.089844 22.125 41.089844 21.4375 C 41.089844 20.53125 39.886719 20.53125 38.730469 20.53125 C 37.933594 20.53125 37.449219 20.53125 36.777344 20.875 C 35.886719 21.328125 35.824219 21.875 35.824219 21.875 C 35.824219 21.90625 35.824219 21.9375 35.886719 21.9375 C 36.027344 21.9375 36.386719 21.765625 36.449219 21.578125 C 36.542969 21.296875 36.652344 20.984375 37.699219 20.9375 C 37.621094 21.78125 37.496094 23.265625 36.589844 25.4375 C 36.542969 25.546875 36.542969 25.546875 36.542969 25.5625 C 36.542969 25.609375 36.589844 25.609375 36.621094 25.609375 C 36.777344 25.609375 37.058594 25.453125 37.152344 25.3125 C 37.152344 25.28125 37.308594 24.953125 37.527344 24.328125 C 37.886719 23.328125 38.183594 22.15625 38.308594 20.9375 Z M 38.714844 20.9375 "
       id="path120" />
    <path
       style=" stroke:none;fill-rule:nonzero;fill:rgb(86.273193%,14.901733%,13.725281%);fill-opacity:1;"
       d="M 43.398438 26.753906 C 43.335938 26.878906 43.273438 26.988281 43.039063 26.988281 L 42.367188 26.988281 L 42.367188 26.957031 L 43.054688 26.269531 C 43.492188 25.832031 43.585938 25.660156 43.585938 25.425781 C 43.585938 25.160156 43.382813 24.832031 43.007813 24.832031 C 42.914063 24.832031 42.445313 24.832031 42.242188 25.394531 L 42.320313 25.425781 C 42.367188 25.332031 42.507813 25.082031 42.835938 25.082031 C 43.117188 25.082031 43.273438 25.300781 43.273438 25.519531 C 43.273438 25.644531 43.257813 25.847656 42.757813 26.394531 L 42.007813 27.191406 L 42.007813 27.253906 L 43.273438 27.253906 L 43.460938 26.785156 Z M 43.398438 26.753906 "
       id="path122" />
  </g>
</svg>
