<?xml version="1.0" encoding="UTF-8" standalone="no"?>
<svg
   xmlns:dc="http://purl.org/dc/elements/1.1/"
   xmlns:cc="http://creativecommons.org/ns#"
   xmlns:rdf="http://www.w3.org/1999/02/22-rdf-syntax-ns#"
   xmlns:svg="http://www.w3.org/2000/svg"
   xmlns="http://www.w3.org/2000/svg"
   xmlns:sodipodi="http://sodipodi.sourceforge.net/DTD/sodipodi-0.dtd"
   xmlns:inkscape="http://www.inkscape.org/namespaces/inkscape"
   width="78.662079pt"
   height="95.328674pt"
   viewBox="0 0 78.662079 95.328674"
   version="1.2"
   id="svg127"
   sodipodi:docname="fixed_increment_02.svg"
   inkscape:version="0.92.4 (5da689c313, 2019-01-14)">
  <metadata
     id="metadata131">
    <rdf:RDF>
      <cc:Work
         rdf:about="">
        <dc:format>image/svg+xml</dc:format>
        <dc:type
           rdf:resource="http://purl.org/dc/dcmitype/StillImage" />
        <dc:title></dc:title>
      </cc:Work>
    </rdf:RDF>
  </metadata>
  <sodipodi:namedview
     pagecolor="#ffffff"
     bordercolor="#666666"
     borderopacity="1"
     objecttolerance="10"
     gridtolerance="10"
     guidetolerance="10"
     inkscape:pageopacity="0"
     inkscape:pageshadow="2"
     inkscape:window-width="661"
     inkscape:window-height="480"
     id="namedview129"
     showgrid="false"
     inkscape:zoom="1.8567341"
     inkscape:cx="52.441386"
     inkscape:cy="63.55245"
     inkscape:window-x="0"
     inkscape:window-y="0"
     inkscape:window-maximized="0"
     inkscape:current-layer="svg127" />
  <defs
     id="defs8">
    <clipPath
       id="clip1">
      <path
         d="M 0 9 L 78.660156 9 L 78.660156 95.328125 L 0 95.328125 Z M 0 9 "
         id="path2" />
    </clipPath>
    <clipPath
       id="clip2">
      <path
         d="M 0 20 L 78.660156 20 L 78.660156 95.328125 L 0 95.328125 Z M 0 20 "
         id="path5" />
    </clipPath>
  </defs>
  <g
     id="surface36">
    <path
       style=" stroke:none;fill-rule:nonzero;fill:rgb(0%,0%,0%);fill-opacity:1;"
       d="M 40.945313 5.796875 C 40.773438 6.1875 40.601563 6.46875 39.882813 6.46875 L 37.835938 6.46875 L 37.835938 6.421875 L 39.898438 4.34375 C 41.242188 3.015625 41.507813 2.53125 41.507813 1.796875 C 41.507813 0.984375 40.914063 0 39.757813 0 C 39.492188 0 38.085938 0.046875 37.492188 1.71875 L 37.726563 1.796875 C 37.867188 1.53125 38.289063 0.78125 39.257813 0.78125 C 40.085938 0.78125 40.585938 1.4375 40.585938 2.109375 C 40.585938 2.453125 40.539063 3.09375 39.023438 4.6875 L 36.757813 7.109375 L 36.757813 7.296875 L 40.601563 7.296875 L 41.132813 5.875 Z M 40.945313 5.796875 "
       id="path10" />
    <g
       clip-path="url(#clip1)"
       clip-rule="nonzero"
       id="g14">
      <path
         style="fill:none;stroke-width:0.166;stroke-linecap:round;stroke-linejoin:round;stroke:rgb(0%,0%,0%);stroke-opacity:1;stroke-miterlimit:4;"
         d="M 7.027344 75.96875 L 0.0820313 32.152344 L 31.511719 10.035156 L 32.894531 49.59375 L 7.027344 75.96875 M 52.867188 95.246094 L 72.859375 62.671875 L 78.578125 20.820313 L 55.535156 49.289063 L 52.867188 95.246094 M 7.027344 75.96875 L 0.0820313 32.152344 L 55.535156 49.289063 L 52.867188 95.246094 L 7.027344 75.96875 M 32.894531 49.59375 L 72.859375 62.671875 L 78.578125 20.820313 L 31.511719 10.035156 L 32.894531 49.59375 "
         id="path12" />
    </g>
    <path
       style="fill:none;stroke-width:1.2;stroke-linecap:round;stroke-linejoin:round;stroke:rgb(0%,0%,0%);stroke-opacity:1;stroke-miterlimit:4;"
       d="M 32.171875 10.1875 L 32.066406 42.035156 "
       id="path16" />
    <path
       style="fill:none;stroke-width:1.2;stroke-linecap:round;stroke-linejoin:round;stroke:rgb(49.803162%,0%,0%);stroke-opacity:1;stroke-dasharray:2.492,2.492;stroke-miterlimit:4;"
       d="M 26.746094 13.390625 L 28.808594 41.03125 "
       id="path18" />
    <path
       style=" stroke:none;fill-rule:nonzero;fill:rgb(78.038025%,12.940979%,14.901733%);fill-opacity:1;"
       d="M 42.09375 48.125 L 42.625 50.09375 L 43.394531 55.019531 L 42.09375 48.125 "
       id="path20" />
    <path
       style="fill:none;stroke-width:0.166;stroke-linecap:round;stroke-linejoin:round;stroke:rgb(0%,0%,0%);stroke-opacity:1;stroke-miterlimit:4;"
       d="M 42.09375 48.125 L 42.625 50.09375 "
       id="path22" />
    <path
       style=" stroke:none;fill-rule:nonzero;fill:rgb(78.038025%,12.940979%,14.901733%);fill-opacity:1;"
       d="M 41.492188 46.28125 L 42.09375 48.125 L 43.394531 55.019531 L 41.492188 46.28125 "
       id="path24" />
    <path
       style="fill:none;stroke-width:0.166;stroke-linecap:round;stroke-linejoin:round;stroke:rgb(0%,0%,0%);stroke-opacity:1;stroke-miterlimit:4;"
       d="M 41.492188 46.28125 L 42.09375 48.125 "
       id="path26" />
    <path
       style=" stroke:none;fill-rule:nonzero;fill:rgb(78.038025%,12.940979%,14.901733%);fill-opacity:1;"
       d="M 42.625 50.09375 L 43.042969 52.011719 L 43.394531 55.019531 L 42.625 50.09375 "
       id="path28" />
    <path
       style="fill:none;stroke-width:0.166;stroke-linecap:round;stroke-linejoin:round;stroke:rgb(0%,0%,0%);stroke-opacity:1;stroke-miterlimit:4;"
       d="M 42.625 50.09375 L 43.042969 52.011719 "
       id="path30" />
    <path
       style=" stroke:none;fill-rule:nonzero;fill:rgb(78.038025%,12.940979%,14.901733%);fill-opacity:1;"
       d="M 40.878906 44.722656 L 41.492188 46.28125 L 43.394531 55.019531 L 40.878906 44.722656 "
       id="path32" />
    <path
       style="fill:none;stroke-width:0.166;stroke-linecap:round;stroke-linejoin:round;stroke:rgb(0%,0%,0%);stroke-opacity:1;stroke-miterlimit:4;"
       d="M 40.878906 44.722656 L 41.492188 46.28125 "
       id="path34" />
    <path
       style=" stroke:none;fill-rule:nonzero;fill:rgb(78.038025%,12.940979%,14.901733%);fill-opacity:1;"
       d="M 43.042969 52.011719 L 43.308594 53.707031 L 43.394531 55.019531 L 43.042969 52.011719 "
       id="path36" />
    <path
       style="fill:none;stroke-width:0.166;stroke-linecap:round;stroke-linejoin:round;stroke:rgb(0%,0%,0%);stroke-opacity:1;stroke-miterlimit:4;"
       d="M 43.042969 52.011719 L 43.308594 53.707031 L 43.394531 55.019531 "
       id="path38" />
    <path
       style=" stroke:none;fill-rule:nonzero;fill:rgb(78.038025%,12.940979%,14.901733%);fill-opacity:1;"
       d="M 40.304688 43.597656 L 40.878906 44.722656 L 43.394531 55.019531 L 40.304688 43.597656 "
       id="path40" />
    <path
       style="fill:none;stroke-width:0.166;stroke-linecap:round;stroke-linejoin:round;stroke:rgb(0%,0%,0%);stroke-opacity:1;stroke-miterlimit:4;"
       d="M 40.304688 43.597656 L 40.878906 44.722656 "
       id="path42" />
    <path
       style=" stroke:none;fill-rule:nonzero;fill:rgb(78.038025%,12.940979%,14.901733%);fill-opacity:1;"
       d="M 39.824219 43.027344 L 40.304688 43.597656 L 43.394531 55.019531 L 39.824219 43.027344 "
       id="path44" />
    <path
       style="fill:none;stroke-width:0.166;stroke-linecap:round;stroke-linejoin:round;stroke:rgb(0%,0%,0%);stroke-opacity:1;stroke-miterlimit:4;"
       d="M 39.824219 43.027344 L 40.304688 43.597656 "
       id="path46" />
    <path
       style=" stroke:none;fill-rule:nonzero;fill:rgb(78.038025%,12.940979%,14.901733%);fill-opacity:1;"
       d="M 39.488281 43.074219 L 39.824219 43.027344 L 43.394531 55.019531 L 39.488281 43.074219 "
       id="path48" />
    <path
       style="fill:none;stroke-width:0.166;stroke-linecap:round;stroke-linejoin:round;stroke:rgb(0%,0%,0%);stroke-opacity:1;stroke-miterlimit:4;"
       d="M 39.488281 43.074219 L 39.824219 43.027344 "
       id="path50" />
    <path
       style=" stroke:none;fill-rule:nonzero;fill:rgb(78.038025%,12.940979%,14.901733%);fill-opacity:1;"
       d="M 39.339844 43.761719 L 39.488281 43.074219 L 43.394531 55.019531 L 39.339844 43.761719 "
       id="path52" />
    <path
       style="fill:none;stroke-width:0.166;stroke-linecap:round;stroke-linejoin:round;stroke:rgb(0%,0%,0%);stroke-opacity:1;stroke-miterlimit:4;"
       d="M 39.339844 43.761719 L 39.488281 43.074219 "
       id="path54" />
    <path
       style=" stroke:none;fill-rule:nonzero;fill:rgb(78.038025%,12.940979%,14.901733%);fill-opacity:1;"
       d="M 39.390625 45.039063 L 39.339844 43.761719 L 43.394531 55.019531 L 39.390625 45.039063 "
       id="path56" />
    <path
       style="fill:none;stroke-width:0.166;stroke-linecap:round;stroke-linejoin:round;stroke:rgb(0%,0%,0%);stroke-opacity:1;stroke-miterlimit:4;"
       d="M 39.390625 45.039063 L 39.339844 43.761719 "
       id="path58" />
    <path
       style=" stroke:none;fill-rule:nonzero;fill:rgb(78.038025%,12.940979%,14.901733%);fill-opacity:1;"
       d="M 39.644531 46.78125 L 39.390625 45.039063 L 43.394531 55.019531 L 39.644531 46.78125 "
       id="path60" />
    <path
       style="fill:none;stroke-width:0.166;stroke-linecap:round;stroke-linejoin:round;stroke:rgb(0%,0%,0%);stroke-opacity:1;stroke-miterlimit:4;"
       d="M 39.644531 46.78125 L 39.390625 45.039063 "
       id="path62" />
    <path
       style=" stroke:none;fill-rule:nonzero;fill:rgb(78.038025%,12.940979%,14.901733%);fill-opacity:1;"
       d="M 40.078125 48.816406 L 39.644531 46.78125 L 43.394531 55.019531 L 40.078125 48.816406 "
       id="path64" />
    <path
       style="fill:none;stroke-width:0.166;stroke-linecap:round;stroke-linejoin:round;stroke:rgb(0%,0%,0%);stroke-opacity:1;stroke-miterlimit:4;"
       d="M 40.078125 48.816406 L 39.644531 46.78125 "
       id="path66" />
    <path
       style=" stroke:none;fill-rule:nonzero;fill:rgb(78.038025%,12.940979%,14.901733%);fill-opacity:1;"
       d="M 40.648438 50.929688 L 40.078125 48.816406 L 43.394531 55.019531 L 40.648438 50.929688 "
       id="path68" />
    <path
       style="fill:none;stroke-width:0.166;stroke-linecap:round;stroke-linejoin:round;stroke:rgb(0%,0%,0%);stroke-opacity:1;stroke-miterlimit:4;"
       d="M 40.648438 50.929688 L 40.078125 48.816406 "
       id="path70" />
    <path
       style=" stroke:none;fill-rule:nonzero;fill:rgb(78.038025%,12.940979%,14.901733%);fill-opacity:1;"
       d="M 41.296875 52.886719 L 40.648438 50.929688 L 43.394531 55.019531 L 41.296875 52.886719 "
       id="path72" />
    <path
       style="fill:none;stroke-width:0.166;stroke-linecap:round;stroke-linejoin:round;stroke:rgb(0%,0%,0%);stroke-opacity:1;stroke-miterlimit:4;"
       d="M 41.296875 52.886719 L 40.648438 50.929688 "
       id="path74" />
    <path
       style=" stroke:none;fill-rule:nonzero;fill:rgb(78.038025%,12.940979%,14.901733%);fill-opacity:1;"
       d="M 41.941406 54.480469 L 41.296875 52.886719 L 43.394531 55.019531 L 41.941406 54.480469 "
       id="path76" />
    <path
       style="fill:none;stroke-width:0.166;stroke-linecap:round;stroke-linejoin:round;stroke:rgb(0%,0%,0%);stroke-opacity:1;stroke-miterlimit:4;"
       d="M 41.941406 54.480469 L 41.296875 52.886719 "
       id="path78" />
    <path
       style=" stroke:none;fill-rule:nonzero;fill:rgb(78.038025%,12.940979%,14.901733%);fill-opacity:1;"
       d="M 42.527344 55.554688 L 41.941406 54.480469 L 43.394531 55.019531 L 42.527344 55.554688 "
       id="path80" />
    <path
       style="fill:none;stroke-width:0.166;stroke-linecap:round;stroke-linejoin:round;stroke:rgb(0%,0%,0%);stroke-opacity:1;stroke-miterlimit:4;"
       d="M 42.527344 55.554688 L 41.941406 54.480469 "
       id="path82" />
    <path
       style=" stroke:none;fill-rule:nonzero;fill:rgb(78.038025%,12.940979%,14.901733%);fill-opacity:1;"
       d="M 42.988281 56.007813 L 42.527344 55.554688 L 43.394531 55.019531 L 42.988281 56.007813 "
       id="path84" />
    <path
       style="fill:none;stroke-width:0.166;stroke-linecap:round;stroke-linejoin:round;stroke:rgb(0%,0%,0%);stroke-opacity:1;stroke-miterlimit:4;"
       d="M 42.988281 56.007813 L 42.527344 55.554688 "
       id="path86" />
    <path
       style=" stroke:none;fill-rule:nonzero;fill:rgb(78.038025%,12.940979%,14.901733%);fill-opacity:1;"
       d="M 43.394531 55.019531 L 43.285156 55.816406 L 42.988281 56.007813 L 43.394531 55.019531 "
       id="path88" />
    <path
       style="fill:none;stroke-width:0.166;stroke-linecap:round;stroke-linejoin:round;stroke:rgb(0%,0%,0%);stroke-opacity:1;stroke-miterlimit:4;"
       d="M 43.394531 55.019531 L 43.285156 55.816406 L 42.988281 56.007813 "
       id="path90" />
    <path
       style="fill:none;stroke-width:0.332;stroke-linecap:round;stroke-linejoin:round;stroke:rgb(49.803162%,49.803162%,49.803162%);stroke-opacity:1;stroke-miterlimit:4;"
       d="M 41.398438 49.480469 L 61.039063 43.917969 "
       id="path92" />
    <path
       style="fill:none;stroke-width:0.332;stroke-linecap:round;stroke-linejoin:round;stroke:rgb(59.214783%,59.214783%,59.214783%);stroke-opacity:1;stroke-miterlimit:4;"
       d="M 41.398438 49.480469 L 62.726563 40.078125 "
       id="path94" />
    <path
       style="fill:none;stroke-width:0.831;stroke-linecap:round;stroke-linejoin:round;stroke:rgb(0%,0%,0%);stroke-opacity:1;stroke-miterlimit:4;"
       d="M 41.398438 49.480469 L 41.398438 49.480469 "
       id="path96" />
    <path
       style="fill:none;stroke-width:2.4;stroke-linecap:round;stroke-linejoin:round;stroke:rgb(0%,0%,0%);stroke-opacity:1;stroke-miterlimit:4;"
       d="M 55.164063 19.355469 L 55.164063 19.355469 "
       id="path98" />
    <path
       style="fill:none;stroke-width:2.4;stroke-linecap:round;stroke-linejoin:round;stroke:rgb(94.116211%,34.117126%,27.058411%);stroke-opacity:1;stroke-miterlimit:4;"
       d="M 62.476563 19.742188 L 62.476563 19.742188 M 69.84375 20.128906 L 69.84375 20.128906 "
       id="path100" />
    <path
       style="fill:none;stroke-width:2.492;stroke-linecap:round;stroke-linejoin:round;stroke:rgb(0%,0%,0%);stroke-opacity:1;stroke-miterlimit:4;"
       d="M 52.835938 21.566406 L 52.835938 21.566406 "
       id="path102" />
    <path
       style="fill:none;stroke-width:4.8;stroke-linecap:round;stroke-linejoin:round;stroke:rgb(0%,0%,0%);stroke-opacity:1;stroke-miterlimit:4;"
       d="M 52.835938 21.566406 L 52.835938 21.566406 "
       id="path104" />
    <path
       style="fill:none;stroke-width:2.4;stroke-linecap:round;stroke-linejoin:round;stroke:rgb(94.116211%,34.117126%,27.058411%);stroke-opacity:1;stroke-miterlimit:4;"
       d="M 64.160156 22.902344 L 64.160156 22.902344 M 70.445313 22.996094 L 70.445313 22.996094 "
       id="path106" />
    <path
       style="fill:none;stroke-width:2.4;stroke-linecap:round;stroke-linejoin:round;stroke:rgb(0%,0%,0%);stroke-opacity:1;stroke-miterlimit:4;"
       d="M 56.730469 23.972656 L 56.730469 23.972656 M 46.597656 24.417969 L 46.597656 24.417969 "
       id="path108" />
    <path
       style="fill:none;stroke-width:2.4;stroke-linecap:round;stroke-linejoin:round;stroke:rgb(94.116211%,34.117126%,27.058411%);stroke-opacity:1;stroke-miterlimit:4;"
       d="M 72.101563 24.820313 L 72.101563 24.820313 "
       id="path110" />
    <path
       style="fill:none;stroke-width:2.4;stroke-linecap:round;stroke-linejoin:round;stroke:rgb(0%,0%,0%);stroke-opacity:1;stroke-miterlimit:4;"
       d="M 58.445313 29.035156 L 58.445313 29.035156 "
       id="path112" />
    <g
       clip-path="url(#clip2)"
       clip-rule="nonzero"
       id="g116">
      <path
         style="fill:none;stroke-width:0.166;stroke-linecap:round;stroke-linejoin:round;stroke:rgb(0%,0%,0%);stroke-opacity:1;stroke-miterlimit:4;"
         d="M 52.867188 95.246094 L 72.859375 62.671875 L 78.578125 20.820313 L 55.535156 49.289063 L 52.867188 95.246094 M 7.027344 75.96875 L 0.0820313 32.152344 L 55.535156 49.289063 L 52.867188 95.246094 L 7.027344 75.96875 "
         id="path114" />
    </g>
    <path
       style=" stroke:none;fill-rule:nonzero;fill:rgb(12.940979%,11.764526%,11.764526%);fill-opacity:1;"
       d="M 16.679688 26.539063 C 18.117188 26.539063 18.429688 26.898438 18.429688 27.351563 C 18.429688 27.742188 18.148438 28.632813 16.867188 28.679688 C 16.492188 28.695313 16.242188 28.960938 16.242188 29.039063 C 16.242188 29.085938 16.273438 29.085938 16.289063 29.085938 C 16.523438 29.117188 16.679688 29.148438 17.148438 30.148438 C 17.492188 30.898438 17.695313 31.210938 18.117188 31.210938 C 18.992188 31.210938 19.851563 30.320313 19.851563 30.164063 C 19.851563 30.117188 19.804688 30.117188 19.773438 30.117188 C 19.648438 30.117188 19.367188 30.257813 19.257813 30.414063 C 19.117188 30.601563 18.960938 30.804688 18.601563 30.804688 C 18.242188 30.804688 17.992188 30.304688 17.757813 29.773438 C 17.523438 29.304688 17.429688 29.117188 17.273438 28.929688 C 18.429688 28.492188 19.054688 27.726563 19.054688 27.039063 C 19.054688 26.132813 17.851563 26.132813 16.695313 26.132813 C 15.898438 26.132813 15.414063 26.132813 14.742188 26.476563 C 13.851563 26.929688 13.789063 27.476563 13.789063 27.476563 C 13.789063 27.507813 13.789063 27.539063 13.851563 27.539063 C 13.992188 27.539063 14.351563 27.367188 14.414063 27.179688 C 14.507813 26.898438 14.617188 26.585938 15.664063 26.539063 C 15.585938 27.382813 15.460938 28.867188 14.554688 31.039063 C 14.507813 31.148438 14.507813 31.148438 14.507813 31.164063 C 14.507813 31.210938 14.554688 31.210938 14.585938 31.210938 C 14.742188 31.210938 15.023438 31.054688 15.117188 30.914063 C 15.117188 30.882813 15.273438 30.554688 15.492188 29.929688 C 15.851563 28.929688 16.148438 27.757813 16.273438 26.539063 Z M 16.679688 26.539063 "
       id="path118" />
    <path
       style=" stroke:none;fill-rule:nonzero;fill:rgb(12.940979%,11.764526%,11.764526%);fill-opacity:1;"
       d="M 20.097656 32.851563 L 21.097656 32.851563 L 21.097656 32.804688 C 20.925781 32.804688 20.800781 32.789063 20.800781 32.679688 C 20.800781 32.617188 20.847656 32.492188 20.863281 32.414063 L 21.378906 30.554688 C 21.394531 30.492188 21.410156 30.429688 21.378906 30.429688 C 21.347656 30.429688 20.847656 30.523438 20.691406 30.554688 L 20.691406 30.617188 L 20.894531 30.601563 C 20.925781 30.601563 21.019531 30.601563 21.019531 30.726563 C 21.019531 30.742188 21.003906 30.804688 21.003906 30.835938 L 20.503906 32.601563 C 20.457031 32.773438 20.316406 32.773438 20.097656 32.804688 Z M 20.097656 32.851563 "
       id="path120" />
    <path
       style=" stroke:none;fill-rule:nonzero;fill:rgb(86.273193%,14.901733%,13.725281%);fill-opacity:1;"
       d="M 43.878906 31.738281 C 45.316406 31.738281 45.628906 32.097656 45.628906 32.550781 C 45.628906 32.941406 45.347656 33.832031 44.066406 33.878906 C 43.691406 33.894531 43.441406 34.160156 43.441406 34.238281 C 43.441406 34.285156 43.472656 34.285156 43.488281 34.285156 C 43.722656 34.316406 43.878906 34.347656 44.347656 35.347656 C 44.691406 36.097656 44.894531 36.410156 45.316406 36.410156 C 46.191406 36.410156 47.050781 35.519531 47.050781 35.363281 C 47.050781 35.316406 47.003906 35.316406 46.972656 35.316406 C 46.847656 35.316406 46.566406 35.457031 46.457031 35.613281 C 46.316406 35.800781 46.160156 36.003906 45.800781 36.003906 C 45.441406 36.003906 45.191406 35.503906 44.957031 34.972656 C 44.722656 34.503906 44.628906 34.316406 44.472656 34.128906 C 45.628906 33.691406 46.253906 32.925781 46.253906 32.238281 C 46.253906 31.332031 45.050781 31.332031 43.894531 31.332031 C 43.097656 31.332031 42.613281 31.332031 41.941406 31.675781 C 41.050781 32.128906 40.988281 32.675781 40.988281 32.675781 C 40.988281 32.707031 40.988281 32.738281 41.050781 32.738281 C 41.191406 32.738281 41.550781 32.566406 41.613281 32.378906 C 41.707031 32.097656 41.816406 31.785156 42.863281 31.738281 C 42.785156 32.582031 42.660156 34.066406 41.753906 36.238281 C 41.707031 36.347656 41.707031 36.347656 41.707031 36.363281 C 41.707031 36.410156 41.753906 36.410156 41.785156 36.410156 C 41.941406 36.410156 42.222656 36.253906 42.316406 36.113281 C 42.316406 36.082031 42.472656 35.753906 42.691406 35.128906 C 43.050781 34.128906 43.347656 32.957031 43.472656 31.738281 Z M 43.878906 31.738281 "
       id="path122" />
    <path
       style=" stroke:none;fill-rule:nonzero;fill:rgb(86.273193%,14.901733%,13.725281%);fill-opacity:1;"
       d="M 48.5625 37.554688 C 48.5 37.679688 48.4375 37.789063 48.203125 37.789063 L 47.53125 37.789063 L 47.53125 37.757813 L 48.21875 37.070313 C 48.65625 36.632813 48.75 36.460938 48.75 36.226563 C 48.75 35.960938 48.546875 35.632813 48.171875 35.632813 C 48.078125 35.632813 47.609375 35.632813 47.40625 36.195313 L 47.484375 36.226563 C 47.53125 36.132813 47.671875 35.882813 48 35.882813 C 48.28125 35.882813 48.4375 36.101563 48.4375 36.320313 C 48.4375 36.445313 48.421875 36.648438 47.921875 37.195313 L 47.171875 37.992188 L 47.171875 38.054688 L 48.4375 38.054688 L 48.625 37.585938 Z M 48.5625 37.554688 "
       id="path124" />
  </g>
</svg>
