<?xml version="1.0" encoding="UTF-8" standalone="no"?>
<svg
   xmlns:dc="http://purl.org/dc/elements/1.1/"
   xmlns:cc="http://creativecommons.org/ns#"
   xmlns:rdf="http://www.w3.org/1999/02/22-rdf-syntax-ns#"
   xmlns:svg="http://www.w3.org/2000/svg"
   xmlns="http://www.w3.org/2000/svg"
   xmlns:sodipodi="http://sodipodi.sourceforge.net/DTD/sodipodi-0.dtd"
   xmlns:inkscape="http://www.inkscape.org/namespaces/inkscape"
   width="78.662094pt"
   height="95.928734pt"
   viewBox="0 0 78.662094 95.928734"
   version="1.2"
   id="svg131"
   sodipodi:docname="fixed_increment_04.svg"
   inkscape:version="0.92.4 (5da689c313, 2019-01-14)">
  <metadata
     id="metadata135">
    <rdf:RDF>
      <cc:Work
         rdf:about="">
        <dc:format>image/svg+xml</dc:format>
        <dc:type
           rdf:resource="http://purl.org/dc/dcmitype/StillImage" />
        <dc:title></dc:title>
      </cc:Work>
    </rdf:RDF>
  </metadata>
  <sodipodi:namedview
     pagecolor="#ffffff"
     bordercolor="#666666"
     borderopacity="1"
     objecttolerance="10"
     gridtolerance="10"
     guidetolerance="10"
     inkscape:pageopacity="0"
     inkscape:pageshadow="2"
     inkscape:window-width="661"
     inkscape:window-height="480"
     id="namedview133"
     showgrid="false"
     inkscape:zoom="1.8451197"
     inkscape:cx="52.441396"
     inkscape:cy="63.952489"
     inkscape:window-x="0"
     inkscape:window-y="0"
     inkscape:window-maximized="0"
     inkscape:current-layer="svg131" />
  <defs
     id="defs8">
    <clipPath
       id="clip1">
      <path
         d="M 0 10 L 78.660156 10 L 78.660156 95.929688 L 0 95.929688 Z M 0 10 "
         id="path2" />
    </clipPath>
    <clipPath
       id="clip2">
      <path
         d="M 0 21 L 78.660156 21 L 78.660156 95.929688 L 0 95.929688 Z M 0 21 "
         id="path5" />
    </clipPath>
  </defs>
  <g
     id="surface40">
    <path
       style=" stroke:none;fill-rule:nonzero;fill:rgb(0%,0%,0%);fill-opacity:1;"
       d="M 39.613281 4.6875 L 37.332031 4.6875 L 37.332031 4.65625 L 40.613281 1.21875 L 40.660156 1.21875 Z M 41.519531 4.6875 L 40.488281 4.6875 L 41.800781 0 L 41.363281 0 L 36.863281 4.65625 L 36.644531 5.375 L 39.472656 5.375 L 38.941406 7.296875 L 39.785156 7.296875 L 40.285156 5.390625 L 41.363281 5.390625 Z M 41.519531 4.6875 "
       id="path10" />
    <g
       clip-path="url(#clip1)"
       clip-rule="nonzero"
       id="g14">
      <path
         style="fill:none;stroke-width:0.166;stroke-linecap:round;stroke-linejoin:round;stroke:rgb(0%,0%,0%);stroke-opacity:1;stroke-miterlimit:4;"
         d="M 7.023438 76.566406 L 0.0820313 32.75 L 31.507813 10.632813 L 32.890625 50.191406 L 7.023438 76.566406 M 52.867188 95.84375 L 72.855469 63.269531 L 78.578125 21.417969 L 55.535156 49.886719 L 52.867188 95.84375 M 7.023438 76.566406 L 0.0820313 32.75 L 55.535156 49.886719 L 52.867188 95.84375 L 7.023438 76.566406 M 32.890625 50.191406 L 72.855469 63.269531 L 78.578125 21.417969 L 31.507813 10.632813 L 32.890625 50.191406 "
         id="path12" />
    </g>
    <path
       style="fill:none;stroke-width:1.2;stroke-linecap:round;stroke-linejoin:round;stroke:rgb(49.803162%,0%,0%);stroke-opacity:1;stroke-dasharray:2.492,2.492;stroke-miterlimit:4;"
       d="M 38.4375 12.222656 L 33.972656 43.222656 "
       id="path16" />
    <path
       style=" stroke:none;fill-rule:nonzero;fill:rgb(78.038025%,12.940979%,14.901733%);fill-opacity:1;"
       d="M 42.164063 50.085938 L 41.957031 52.042969 L 41.394531 55.277344 L 42.164063 50.085938 "
       id="path18" />
    <path
       style="fill:none;stroke-width:0.166;stroke-linecap:round;stroke-linejoin:round;stroke:rgb(0%,0%,0%);stroke-opacity:1;stroke-miterlimit:4;"
       d="M 42.164063 50.085938 L 41.957031 52.042969 "
       id="path20" />
    <path
       style=" stroke:none;fill-rule:nonzero;fill:rgb(78.038025%,12.940979%,14.901733%);fill-opacity:1;"
       d="M 42.300781 48.125 L 42.164063 50.085938 L 41.394531 55.277344 L 42.300781 48.125 "
       id="path22" />
    <path
       style="fill:none;stroke-width:0.166;stroke-linecap:round;stroke-linejoin:round;stroke:rgb(0%,0%,0%);stroke-opacity:1;stroke-miterlimit:4;"
       d="M 42.300781 48.125 L 42.164063 50.085938 "
       id="path24" />
    <path
       style=" stroke:none;fill-rule:nonzero;fill:rgb(78.038025%,12.940979%,14.901733%);fill-opacity:1;"
       d="M 41.957031 52.042969 L 41.691406 53.828125 L 41.394531 55.277344 L 41.957031 52.042969 "
       id="path26" />
    <path
       style="fill:none;stroke-width:0.166;stroke-linecap:round;stroke-linejoin:round;stroke:rgb(0%,0%,0%);stroke-opacity:1;stroke-miterlimit:4;"
       d="M 41.957031 52.042969 L 41.691406 53.828125 L 41.394531 55.277344 "
       id="path28" />
    <path
       style=" stroke:none;fill-rule:nonzero;fill:rgb(78.038025%,12.940979%,14.901733%);fill-opacity:1;"
       d="M 42.355469 46.335938 L 42.300781 48.125 L 41.394531 55.277344 L 42.355469 46.335938 "
       id="path30" />
    <path
       style="fill:none;stroke-width:0.166;stroke-linecap:round;stroke-linejoin:round;stroke:rgb(0%,0%,0%);stroke-opacity:1;stroke-miterlimit:4;"
       d="M 42.355469 46.335938 L 42.300781 48.125 "
       id="path32" />
    <path
       style=" stroke:none;fill-rule:nonzero;fill:rgb(78.038025%,12.940979%,14.901733%);fill-opacity:1;"
       d="M 42.3125 44.882813 L 42.355469 46.335938 L 41.394531 55.277344 L 42.3125 44.882813 "
       id="path34" />
    <path
       style="fill:none;stroke-width:0.166;stroke-linecap:round;stroke-linejoin:round;stroke:rgb(0%,0%,0%);stroke-opacity:1;stroke-miterlimit:4;"
       d="M 42.3125 44.882813 L 42.355469 46.335938 "
       id="path36" />
    <path
       style=" stroke:none;fill-rule:nonzero;fill:rgb(78.038025%,12.940979%,14.901733%);fill-opacity:1;"
       d="M 42.183594 43.90625 L 42.3125 44.882813 L 41.394531 55.277344 L 42.183594 43.90625 "
       id="path38" />
    <path
       style="fill:none;stroke-width:0.166;stroke-linecap:round;stroke-linejoin:round;stroke:rgb(0%,0%,0%);stroke-opacity:1;stroke-miterlimit:4;"
       d="M 42.183594 43.90625 L 42.3125 44.882813 "
       id="path40" />
    <path
       style=" stroke:none;fill-rule:nonzero;fill:rgb(78.038025%,12.940979%,14.901733%);fill-opacity:1;"
       d="M 41.972656 43.511719 L 42.183594 43.90625 L 41.394531 55.277344 L 41.972656 43.511719 "
       id="path42" />
    <path
       style="fill:none;stroke-width:0.166;stroke-linecap:round;stroke-linejoin:round;stroke:rgb(0%,0%,0%);stroke-opacity:1;stroke-miterlimit:4;"
       d="M 41.972656 43.511719 L 42.183594 43.90625 "
       id="path44" />
    <path
       style="fill:none;stroke-width:1.2;stroke-linecap:round;stroke-linejoin:round;stroke:rgb(0%,0%,0%);stroke-opacity:1;stroke-miterlimit:4;"
       d="M 36.058594 43.867188 L 45.433594 13.824219 "
       id="path46" />
    <path
       style=" stroke:none;fill-rule:nonzero;fill:rgb(78.038025%,12.940979%,14.901733%);fill-opacity:1;"
       d="M 41.703125 43.757813 L 41.972656 43.511719 L 41.394531 55.277344 L 41.703125 43.757813 "
       id="path48" />
    <path
       style="fill:none;stroke-width:0.166;stroke-linecap:round;stroke-linejoin:round;stroke:rgb(0%,0%,0%);stroke-opacity:1;stroke-miterlimit:4;"
       d="M 41.703125 43.757813 L 41.972656 43.511719 "
       id="path50" />
    <path
       style=" stroke:none;fill-rule:nonzero;fill:rgb(78.038025%,12.940979%,14.901733%);fill-opacity:1;"
       d="M 41.394531 44.644531 L 41.703125 43.757813 L 41.394531 55.277344 L 41.394531 44.644531 "
       id="path52" />
    <path
       style="fill:none;stroke-width:0.166;stroke-linecap:round;stroke-linejoin:round;stroke:rgb(0%,0%,0%);stroke-opacity:1;stroke-miterlimit:4;"
       d="M 41.394531 44.644531 L 41.703125 43.757813 "
       id="path54" />
    <path
       style=" stroke:none;fill-rule:nonzero;fill:rgb(78.038025%,12.940979%,14.901733%);fill-opacity:1;"
       d="M 41.078125 46.09375 L 41.394531 44.644531 L 41.394531 55.277344 L 41.078125 46.09375 "
       id="path56" />
    <path
       style="fill:none;stroke-width:0.166;stroke-linecap:round;stroke-linejoin:round;stroke:rgb(0%,0%,0%);stroke-opacity:1;stroke-miterlimit:4;"
       d="M 41.078125 46.09375 L 41.394531 44.644531 "
       id="path58" />
    <path
       style=" stroke:none;fill-rule:nonzero;fill:rgb(78.038025%,12.940979%,14.901733%);fill-opacity:1;"
       d="M 40.792969 47.964844 L 41.078125 46.09375 L 41.394531 55.277344 L 40.792969 47.964844 "
       id="path60" />
    <path
       style="fill:none;stroke-width:0.166;stroke-linecap:round;stroke-linejoin:round;stroke:rgb(0%,0%,0%);stroke-opacity:1;stroke-miterlimit:4;"
       d="M 40.792969 47.964844 L 41.078125 46.09375 "
       id="path62" />
    <path
       style=" stroke:none;fill-rule:nonzero;fill:rgb(78.038025%,12.940979%,14.901733%);fill-opacity:1;"
       d="M 40.566406 50.066406 L 40.792969 47.964844 L 41.394531 55.277344 L 40.566406 50.066406 "
       id="path64" />
    <path
       style="fill:none;stroke-width:0.166;stroke-linecap:round;stroke-linejoin:round;stroke:rgb(0%,0%,0%);stroke-opacity:1;stroke-miterlimit:4;"
       d="M 40.566406 50.066406 L 40.792969 47.964844 "
       id="path66" />
    <path
       style=" stroke:none;fill-rule:nonzero;fill:rgb(78.038025%,12.940979%,14.901733%);fill-opacity:1;"
       d="M 40.421875 52.167969 L 40.566406 50.066406 L 41.394531 55.277344 L 40.421875 52.167969 "
       id="path68" />
    <path
       style="fill:none;stroke-width:0.166;stroke-linecap:round;stroke-linejoin:round;stroke:rgb(0%,0%,0%);stroke-opacity:1;stroke-miterlimit:4;"
       d="M 40.421875 52.167969 L 40.566406 50.066406 "
       id="path70" />
    <path
       style=" stroke:none;fill-rule:nonzero;fill:rgb(78.038025%,12.940979%,14.901733%);fill-opacity:1;"
       d="M 40.378906 54.042969 L 40.421875 52.167969 L 41.394531 55.277344 L 40.378906 54.042969 "
       id="path72" />
    <path
       style="fill:none;stroke-width:0.166;stroke-linecap:round;stroke-linejoin:round;stroke:rgb(0%,0%,0%);stroke-opacity:1;stroke-miterlimit:4;"
       d="M 40.378906 54.042969 L 40.421875 52.167969 "
       id="path74" />
    <path
       style=" stroke:none;fill-rule:nonzero;fill:rgb(78.038025%,12.940979%,14.901733%);fill-opacity:1;"
       d="M 40.4375 55.496094 L 40.378906 54.042969 L 41.394531 55.277344 L 40.4375 55.496094 "
       id="path76" />
    <path
       style="fill:none;stroke-width:0.166;stroke-linecap:round;stroke-linejoin:round;stroke:rgb(0%,0%,0%);stroke-opacity:1;stroke-miterlimit:4;"
       d="M 40.4375 55.496094 L 40.378906 54.042969 "
       id="path78" />
    <path
       style=" stroke:none;fill-rule:nonzero;fill:rgb(78.038025%,12.940979%,14.901733%);fill-opacity:1;"
       d="M 40.585938 56.382813 L 40.4375 55.496094 L 41.394531 55.277344 L 40.585938 56.382813 "
       id="path80" />
    <path
       style="fill:none;stroke-width:0.166;stroke-linecap:round;stroke-linejoin:round;stroke:rgb(0%,0%,0%);stroke-opacity:1;stroke-miterlimit:4;"
       d="M 40.585938 56.382813 L 40.4375 55.496094 "
       id="path82" />
    <path
       style=" stroke:none;fill-rule:nonzero;fill:rgb(78.038025%,12.940979%,14.901733%);fill-opacity:1;"
       d="M 40.816406 56.636719 L 40.585938 56.382813 L 41.394531 55.277344 L 40.816406 56.636719 "
       id="path84" />
    <path
       style="fill:none;stroke-width:0.166;stroke-linecap:round;stroke-linejoin:round;stroke:rgb(0%,0%,0%);stroke-opacity:1;stroke-miterlimit:4;"
       d="M 40.816406 56.636719 L 40.585938 56.382813 "
       id="path86" />
    <path
       style=" stroke:none;fill-rule:nonzero;fill:rgb(78.038025%,12.940979%,14.901733%);fill-opacity:1;"
       d="M 41.394531 55.277344 L 41.09375 56.246094 L 40.816406 56.636719 L 41.394531 55.277344 "
       id="path88" />
    <path
       style="fill:none;stroke-width:0.166;stroke-linecap:round;stroke-linejoin:round;stroke:rgb(0%,0%,0%);stroke-opacity:1;stroke-miterlimit:4;"
       d="M 41.394531 55.277344 L 41.09375 56.246094 L 40.816406 56.636719 "
       id="path90" />
    <path
       style="fill:none;stroke-width:0.332;stroke-linecap:round;stroke-linejoin:round;stroke:rgb(18.823242%,18.823242%,18.823242%);stroke-opacity:1;stroke-miterlimit:4;"
       d="M 41.394531 50.078125 L 57.726563 51.535156 "
       id="path92" />
    <path
       style="fill:none;stroke-width:0.332;stroke-linecap:round;stroke-linejoin:round;stroke:rgb(29.019165%,29.019165%,29.019165%);stroke-opacity:1;stroke-miterlimit:4;"
       d="M 41.394531 50.078125 L 59.375 48.035156 "
       id="path94" />
    <path
       style="fill:none;stroke-width:0.332;stroke-linecap:round;stroke-linejoin:round;stroke:rgb(49.803162%,49.803162%,49.803162%);stroke-opacity:1;stroke-miterlimit:4;"
       d="M 41.394531 50.078125 L 61.035156 44.515625 "
       id="path96" />
    <path
       style="fill:none;stroke-width:0.332;stroke-linecap:round;stroke-linejoin:round;stroke:rgb(59.214783%,59.214783%,59.214783%);stroke-opacity:1;stroke-miterlimit:4;"
       d="M 41.394531 50.078125 L 62.726563 40.675781 "
       id="path98" />
    <path
       style="fill:none;stroke-width:0.831;stroke-linecap:round;stroke-linejoin:round;stroke:rgb(0%,0%,0%);stroke-opacity:1;stroke-miterlimit:4;"
       d="M 41.394531 50.078125 L 41.394531 50.078125 "
       id="path100" />
    <path
       style="fill:none;stroke-width:2.492;stroke-linecap:round;stroke-linejoin:round;stroke:rgb(0%,0%,0%);stroke-opacity:1;stroke-miterlimit:4;"
       d="M 55.164063 19.953125 L 55.164063 19.953125 "
       id="path102" />
    <path
       style="fill:none;stroke-width:4.8;stroke-linecap:round;stroke-linejoin:round;stroke:rgb(0%,0%,0%);stroke-opacity:1;stroke-miterlimit:4;"
       d="M 55.164063 19.953125 L 55.164063 19.953125 "
       id="path104" />
    <path
       style="fill:none;stroke-width:2.4;stroke-linecap:round;stroke-linejoin:round;stroke:rgb(94.116211%,34.117126%,27.058411%);stroke-opacity:1;stroke-miterlimit:4;"
       d="M 62.472656 20.339844 L 62.472656 20.339844 M 69.839844 20.726563 L 69.839844 20.726563 "
       id="path106" />
    <path
       style="fill:none;stroke-width:2.4;stroke-linecap:round;stroke-linejoin:round;stroke:rgb(0%,0%,0%);stroke-opacity:1;stroke-miterlimit:4;"
       d="M 52.832031 22.164063 L 52.832031 22.164063 "
       id="path108" />
    <path
       style="fill:none;stroke-width:2.4;stroke-linecap:round;stroke-linejoin:round;stroke:rgb(94.116211%,34.117126%,27.058411%);stroke-opacity:1;stroke-miterlimit:4;"
       d="M 64.160156 23.5 L 64.160156 23.5 M 70.441406 23.59375 L 70.441406 23.59375 "
       id="path110" />
    <path
       style="fill:none;stroke-width:2.4;stroke-linecap:round;stroke-linejoin:round;stroke:rgb(0%,0%,0%);stroke-opacity:1;stroke-miterlimit:4;"
       d="M 56.726563 24.570313 L 56.726563 24.570313 M 46.597656 25.015625 L 46.597656 25.015625 "
       id="path112" />
    <path
       style="fill:none;stroke-width:2.4;stroke-linecap:round;stroke-linejoin:round;stroke:rgb(94.116211%,34.117126%,27.058411%);stroke-opacity:1;stroke-miterlimit:4;"
       d="M 72.097656 25.417969 L 72.097656 25.417969 "
       id="path114" />
    <path
       style="fill:none;stroke-width:2.4;stroke-linecap:round;stroke-linejoin:round;stroke:rgb(0%,0%,0%);stroke-opacity:1;stroke-miterlimit:4;"
       d="M 58.441406 29.632813 L 58.441406 29.632813 "
       id="path116" />
    <g
       clip-path="url(#clip2)"
       clip-rule="nonzero"
       id="g120">
      <path
         style="fill:none;stroke-width:0.166;stroke-linecap:round;stroke-linejoin:round;stroke:rgb(0%,0%,0%);stroke-opacity:1;stroke-miterlimit:4;"
         d="M 52.867188 95.84375 L 72.855469 63.269531 L 78.578125 21.417969 L 55.535156 49.886719 L 52.867188 95.84375 M 7.023438 76.566406 L 0.0820313 32.75 L 55.535156 49.886719 L 52.867188 95.84375 L 7.023438 76.566406 "
         id="path118" />
    </g>
    <path
       style=" stroke:none;fill-rule:nonzero;fill:rgb(12.940979%,11.764526%,11.764526%);fill-opacity:1;"
       d="M 24.714844 21.699219 C 26.152344 21.699219 26.464844 22.058594 26.464844 22.511719 C 26.464844 22.902344 26.183594 23.792969 24.902344 23.839844 C 24.527344 23.855469 24.277344 24.121094 24.277344 24.199219 C 24.277344 24.246094 24.308594 24.246094 24.324219 24.246094 C 24.558594 24.277344 24.714844 24.308594 25.183594 25.308594 C 25.527344 26.058594 25.730469 26.371094 26.152344 26.371094 C 27.027344 26.371094 27.886719 25.480469 27.886719 25.324219 C 27.886719 25.277344 27.839844 25.277344 27.808594 25.277344 C 27.683594 25.277344 27.402344 25.417969 27.292969 25.574219 C 27.152344 25.761719 26.996094 25.964844 26.636719 25.964844 C 26.277344 25.964844 26.027344 25.464844 25.792969 24.933594 C 25.558594 24.464844 25.464844 24.277344 25.308594 24.089844 C 26.464844 23.652344 27.089844 22.886719 27.089844 22.199219 C 27.089844 21.292969 25.886719 21.292969 24.730469 21.292969 C 23.933594 21.292969 23.449219 21.292969 22.777344 21.636719 C 21.886719 22.089844 21.824219 22.636719 21.824219 22.636719 C 21.824219 22.667969 21.824219 22.699219 21.886719 22.699219 C 22.027344 22.699219 22.386719 22.527344 22.449219 22.339844 C 22.542969 22.058594 22.652344 21.746094 23.699219 21.699219 C 23.621094 22.542969 23.496094 24.027344 22.589844 26.199219 C 22.542969 26.308594 22.542969 26.308594 22.542969 26.324219 C 22.542969 26.371094 22.589844 26.371094 22.621094 26.371094 C 22.777344 26.371094 23.058594 26.214844 23.152344 26.074219 C 23.152344 26.042969 23.308594 25.714844 23.527344 25.089844 C 23.886719 24.089844 24.183594 22.917969 24.308594 21.699219 Z M 24.714844 21.699219 "
       id="path122" />
    <path
       style=" stroke:none;fill-rule:nonzero;fill:rgb(12.940979%,11.764526%,11.764526%);fill-opacity:1;"
       d="M 28.132813 28.015625 L 29.132813 28.015625 L 29.132813 27.96875 C 28.960938 27.96875 28.835938 27.953125 28.835938 27.84375 C 28.835938 27.78125 28.882813 27.65625 28.898438 27.578125 L 29.414063 25.71875 C 29.429688 25.65625 29.445313 25.59375 29.414063 25.59375 C 29.382813 25.59375 28.882813 25.6875 28.726563 25.71875 L 28.726563 25.78125 L 28.929688 25.765625 C 28.960938 25.765625 29.054688 25.765625 29.054688 25.890625 C 29.054688 25.90625 29.039063 25.96875 29.039063 26 L 28.539063 27.765625 C 28.492188 27.9375 28.351563 27.9375 28.132813 27.96875 Z M 28.132813 28.015625 "
       id="path124" />
    <path
       style=" stroke:none;fill-rule:nonzero;fill:rgb(86.273193%,14.901733%,13.725281%);fill-opacity:1;"
       d="M 50.714844 34.097656 C 52.152344 34.097656 52.464844 34.457031 52.464844 34.910156 C 52.464844 35.300781 52.183594 36.191406 50.902344 36.238281 C 50.527344 36.253906 50.277344 36.519531 50.277344 36.597656 C 50.277344 36.644531 50.308594 36.644531 50.324219 36.644531 C 50.558594 36.675781 50.714844 36.707031 51.183594 37.707031 C 51.527344 38.457031 51.730469 38.769531 52.152344 38.769531 C 53.027344 38.769531 53.886719 37.878906 53.886719 37.722656 C 53.886719 37.675781 53.839844 37.675781 53.808594 37.675781 C 53.683594 37.675781 53.402344 37.816406 53.292969 37.972656 C 53.152344 38.160156 52.996094 38.363281 52.636719 38.363281 C 52.277344 38.363281 52.027344 37.863281 51.792969 37.332031 C 51.558594 36.863281 51.464844 36.675781 51.308594 36.488281 C 52.464844 36.050781 53.089844 35.285156 53.089844 34.597656 C 53.089844 33.691406 51.886719 33.691406 50.730469 33.691406 C 49.933594 33.691406 49.449219 33.691406 48.777344 34.035156 C 47.886719 34.488281 47.824219 35.035156 47.824219 35.035156 C 47.824219 35.066406 47.824219 35.097656 47.886719 35.097656 C 48.027344 35.097656 48.386719 34.925781 48.449219 34.738281 C 48.542969 34.457031 48.652344 34.144531 49.699219 34.097656 C 49.621094 34.941406 49.496094 36.425781 48.589844 38.597656 C 48.542969 38.707031 48.542969 38.707031 48.542969 38.722656 C 48.542969 38.769531 48.589844 38.769531 48.621094 38.769531 C 48.777344 38.769531 49.058594 38.613281 49.152344 38.472656 C 49.152344 38.441406 49.308594 38.113281 49.527344 37.488281 C 49.886719 36.488281 50.183594 35.316406 50.308594 34.097656 Z M 50.714844 34.097656 "
       id="path126" />
    <path
       style=" stroke:none;fill-rule:nonzero;fill:rgb(86.273193%,14.901733%,13.725281%);fill-opacity:1;"
       d="M 55.398438 39.914063 C 55.335938 40.039063 55.273438 40.148438 55.039063 40.148438 L 54.367188 40.148438 L 54.367188 40.117188 L 55.054688 39.429688 C 55.492188 38.992188 55.585938 38.820313 55.585938 38.585938 C 55.585938 38.320313 55.382813 37.992188 55.007813 37.992188 C 54.914063 37.992188 54.445313 37.992188 54.242188 38.554688 L 54.320313 38.585938 C 54.367188 38.492188 54.507813 38.242188 54.835938 38.242188 C 55.117188 38.242188 55.273438 38.460938 55.273438 38.679688 C 55.273438 38.804688 55.257813 39.007813 54.757813 39.554688 L 54.007813 40.351563 L 54.007813 40.414063 L 55.273438 40.414063 L 55.460938 39.945313 Z M 55.398438 39.914063 "
       id="path128" />
  </g>
</svg>
