<?xml version="1.0" encoding="UTF-8" standalone="no"?>
<svg
   xmlns:dc="http://purl.org/dc/elements/1.1/"
   xmlns:cc="http://creativecommons.org/ns#"
   xmlns:rdf="http://www.w3.org/1999/02/22-rdf-syntax-ns#"
   xmlns:svg="http://www.w3.org/2000/svg"
   xmlns="http://www.w3.org/2000/svg"
   xmlns:sodipodi="http://sodipodi.sourceforge.net/DTD/sodipodi-0.dtd"
   xmlns:inkscape="http://www.inkscape.org/namespaces/inkscape"
   width="175.147202pt"
   height="91.905945pt"
   viewBox="0 0 175.147202 91.905945"
   version="1.2"
   id="svg123"
   sodipodi:docname="activation_function_deriv.svg"
   inkscape:version="0.92.4 (5da689c313, 2019-01-14)">
  <metadata
     id="metadata127">
    <rdf:RDF>
      <cc:Work
         rdf:about="">
        <dc:format>image/svg+xml</dc:format>
        <dc:type
           rdf:resource="http://purl.org/dc/dcmitype/StillImage" />
        <dc:title></dc:title>
      </cc:Work>
    </rdf:RDF>
  </metadata>
  <sodipodi:namedview
     pagecolor="#ffffff"
     bordercolor="#666666"
     borderopacity="1"
     objecttolerance="10"
     gridtolerance="10"
     guidetolerance="10"
     inkscape:pageopacity="0"
     inkscape:pageshadow="2"
     inkscape:window-width="640"
     inkscape:window-height="480"
     id="namedview125"
     showgrid="false"
     inkscape:zoom="1.4730467"
     inkscape:cx="116.7648"
     inkscape:cy="61.27063"
     inkscape:window-x="0"
     inkscape:window-y="0"
     inkscape:window-maximized="0"
     inkscape:current-layer="svg123" />
  <defs
     id="defs20">
    <clipPath
       id="clip1">
      <path
         d="M 2 87 L 6 87 L 6 91.90625 L 2 91.90625 Z M 2 87 "
         id="path2" />
    </clipPath>
    <clipPath
       id="clip2">
      <path
         d="M 39 87 L 43 87 L 43 91.90625 L 39 91.90625 Z M 39 87 "
         id="path5" />
    </clipPath>
    <clipPath
       id="clip3">
      <path
         d="M 113 87 L 118 87 L 118 91.90625 L 113 91.90625 Z M 113 87 "
         id="path8" />
    </clipPath>
    <clipPath
       id="clip4">
      <path
         d="M 151 87 L 155 87 L 155 91.90625 L 151 91.90625 Z M 151 87 "
         id="path11" />
    </clipPath>
    <clipPath
       id="clip5">
      <path
         d="M 172 80 L 175.148438 80 L 175.148438 86 L 172 86 Z M 172 80 "
         id="path14" />
    </clipPath>
    <clipPath
       id="clip6">
      <path
         d="M 77 86 L 81 86 L 81 91.90625 L 77 91.90625 Z M 77 86 "
         id="path17" />
    </clipPath>
  </defs>
  <g
     id="surface28">
    <path
       style="fill:none;stroke-width:0.192;stroke-linecap:round;stroke-linejoin:round;stroke:rgb(0%,0%,0%);stroke-opacity:1;stroke-miterlimit:4;"
       d="M 5.640625 83.246094 L 5.640625 82.703125 "
       id="path22" />
    <path
       style=" stroke:none;fill-rule:nonzero;fill:rgb(0%,0%,0%);fill-opacity:1;"
       d="M 1.671875 90.0625 L 0.09375 90.0625 L 0 90.515625 L 1.578125 90.515625 Z M 1.671875 90.0625 "
       id="path24" />
    <g
       clip-path="url(#clip1)"
       clip-rule="nonzero"
       id="g28">
      <path
         style=" stroke:none;fill-rule:nonzero;fill:rgb(0%,0%,0%);fill-opacity:1;"
         d="M 4.039063 90.171875 L 2.507813 90.171875 L 2.507813 90.140625 L 4.695313 87.84375 L 4.726563 87.84375 Z M 5.304688 90.171875 L 4.617188 90.171875 L 5.492188 87.03125 L 5.195313 87.03125 L 2.195313 90.140625 L 2.039063 90.625 L 3.929688 90.625 L 3.585938 91.90625 L 4.148438 91.90625 L 4.476563 90.640625 L 5.195313 90.640625 Z M 5.304688 90.171875 "
         id="path26" />
    </g>
    <path
       style="fill:none;stroke-width:0.192;stroke-linecap:round;stroke-linejoin:round;stroke:rgb(0%,0%,0%);stroke-opacity:1;stroke-miterlimit:4;"
       d="M 42.902344 83.246094 L 42.902344 82.703125 "
       id="path30" />
    <path
       style=" stroke:none;fill-rule:nonzero;fill:rgb(0%,0%,0%);fill-opacity:1;"
       d="M 38.933594 90.0625 L 37.355469 90.0625 L 37.261719 90.515625 L 38.839844 90.515625 Z M 38.933594 90.0625 "
       id="path32" />
    <g
       clip-path="url(#clip2)"
       clip-rule="nonzero"
       id="g36">
      <path
         style=" stroke:none;fill-rule:nonzero;fill:rgb(0%,0%,0%);fill-opacity:1;"
         d="M 42.175781 90.90625 C 42.066406 91.171875 41.941406 91.359375 41.472656 91.359375 L 40.097656 91.359375 L 40.097656 91.328125 L 41.488281 89.9375 C 42.378906 89.046875 42.550781 88.71875 42.550781 88.234375 C 42.550781 87.703125 42.160156 87.03125 41.394531 87.03125 C 41.207031 87.03125 40.269531 87.0625 39.878906 88.1875 L 40.035156 88.234375 C 40.128906 88.0625 40.410156 87.5625 41.050781 87.5625 C 41.613281 87.5625 41.941406 88 41.941406 88.4375 C 41.941406 88.671875 41.910156 89.09375 40.894531 90.171875 L 39.394531 91.78125 L 39.394531 91.90625 L 41.941406 91.90625 L 42.300781 90.953125 Z M 42.175781 90.90625 "
         id="path34" />
    </g>
    <path
       style="fill:none;stroke-width:0.192;stroke-linecap:round;stroke-linejoin:round;stroke:rgb(0%,0%,0%);stroke-opacity:1;stroke-miterlimit:4;"
       d="M 117.433594 83.246094 L 117.433594 82.703125 "
       id="path38" />
    <g
       clip-path="url(#clip3)"
       clip-rule="nonzero"
       id="g42">
      <path
         style=" stroke:none;fill-rule:nonzero;fill:rgb(0%,0%,0%);fill-opacity:1;"
         d="M 116.707031 90.90625 C 116.597656 91.171875 116.472656 91.359375 116.003906 91.359375 L 114.628906 91.359375 L 114.628906 91.328125 L 116.019531 89.9375 C 116.910156 89.046875 117.082031 88.71875 117.082031 88.234375 C 117.082031 87.703125 116.691406 87.03125 115.925781 87.03125 C 115.738281 87.03125 114.800781 87.0625 114.410156 88.1875 L 114.566406 88.234375 C 114.660156 88.0625 114.941406 87.5625 115.582031 87.5625 C 116.144531 87.5625 116.472656 88 116.472656 88.4375 C 116.472656 88.671875 116.441406 89.09375 115.425781 90.171875 L 113.925781 91.78125 L 113.925781 91.90625 L 116.472656 91.90625 L 116.832031 90.953125 Z M 116.707031 90.90625 "
         id="path40" />
    </g>
    <path
       style="fill:none;stroke-width:0.192;stroke-linecap:round;stroke-linejoin:round;stroke:rgb(0%,0%,0%);stroke-opacity:1;stroke-miterlimit:4;"
       d="M 154.695313 83.246094 L 154.695313 82.703125 "
       id="path44" />
    <g
       clip-path="url(#clip4)"
       clip-rule="nonzero"
       id="g48">
      <path
         style=" stroke:none;fill-rule:nonzero;fill:rgb(0%,0%,0%);fill-opacity:1;"
         d="M 153.09375 90.171875 L 151.5625 90.171875 L 151.5625 90.140625 L 153.75 87.84375 L 153.78125 87.84375 Z M 154.359375 90.171875 L 153.671875 90.171875 L 154.546875 87.03125 L 154.25 87.03125 L 151.25 90.140625 L 151.09375 90.625 L 152.984375 90.625 L 152.640625 91.90625 L 153.203125 91.90625 L 153.53125 90.640625 L 154.25 90.640625 Z M 154.359375 90.171875 "
         id="path46" />
    </g>
    <path
       style="fill:none;stroke-width:0.096;stroke-linecap:round;stroke-linejoin:round;stroke:rgb(0%,0%,0%);stroke-opacity:1;stroke-miterlimit:4;"
       d="M 13.09375 83.246094 L 13.09375 82.921875 M 20.546875 83.246094 L 20.546875 82.921875 M 28 83.246094 L 28 82.921875 M 35.453125 83.246094 L 35.453125 82.921875 M 50.355469 83.246094 L 50.355469 82.921875 M 57.808594 83.246094 L 57.808594 82.921875 M 65.261719 83.246094 L 65.261719 82.921875 M 72.714844 83.246094 L 72.714844 82.921875 M 87.621094 83.246094 L 87.621094 82.921875 M 95.074219 83.246094 L 95.074219 82.921875 M 102.527344 83.246094 L 102.527344 82.921875 M 109.980469 83.246094 L 109.980469 82.921875 M 124.882813 83.246094 L 124.882813 82.921875 M 132.335938 83.246094 L 132.335938 82.921875 M 139.789063 83.246094 L 139.789063 82.921875 M 147.242188 83.246094 L 147.242188 82.921875 "
       id="path50" />
    <path
       style=" stroke:none;fill-rule:nonzero;fill:rgb(0%,0%,0%);fill-opacity:1;"
       d="M 168.59375 84.425781 C 168.296875 84.816406 168.078125 85.097656 167.90625 85.097656 C 167.890625 85.097656 167.78125 85.066406 167.78125 84.941406 C 167.78125 84.691406 168.453125 82.613281 168.453125 82.253906 C 168.453125 81.910156 168.25 81.707031 167.875 81.707031 C 167.171875 81.707031 166.40625 82.878906 166 83.488281 L 165.984375 83.472656 L 166.53125 81.722656 L 166.5 81.707031 C 166.046875 81.800781 165.59375 81.878906 165.140625 81.957031 L 165.140625 82.097656 C 165.59375 82.097656 165.671875 82.191406 165.671875 82.316406 C 165.671875 82.488281 165.109375 84.457031 164.859375 85.410156 L 165.484375 85.410156 C 165.828125 84.269531 165.9375 83.910156 166.328125 83.332031 C 166.625 82.847656 167.15625 82.128906 167.5625 82.128906 C 167.71875 82.128906 167.765625 82.253906 167.765625 82.394531 C 167.765625 82.738281 167.140625 84.785156 167.140625 84.988281 C 167.140625 85.238281 167.15625 85.488281 167.546875 85.488281 C 168 85.488281 168.296875 85.097656 168.71875 84.535156 Z M 168.59375 84.425781 "
       id="path52" />
    <path
       style=" stroke:none;fill-rule:nonzero;fill:rgb(0%,0%,0%);fill-opacity:1;"
       d="M 170.214844 83.285156 C 170.527344 82.550781 171.089844 81.894531 171.542969 81.894531 C 171.761719 81.894531 171.839844 82.050781 171.839844 82.238281 C 171.839844 82.300781 171.792969 83.316406 170.074219 83.660156 Z M 171.949219 84.488281 C 171.527344 84.832031 171.167969 85.128906 170.714844 85.128906 C 170.355469 85.128906 169.917969 84.925781 169.917969 84.363281 C 169.917969 84.191406 169.964844 84.019531 170.011719 83.847656 L 170.246094 83.816406 C 171.605469 83.613281 172.402344 82.941406 172.402344 82.269531 C 172.402344 81.910156 172.136719 81.707031 171.714844 81.707031 C 170.527344 81.707031 169.199219 83.113281 169.199219 84.316406 C 169.199219 84.847656 169.464844 85.503906 170.339844 85.503906 C 171.183594 85.503906 171.949219 84.722656 172.042969 84.597656 Z M 171.949219 84.488281 "
       id="path54" />
    <g
       clip-path="url(#clip5)"
       clip-rule="nonzero"
       id="g58">
      <path
         style=" stroke:none;fill-rule:nonzero;fill:rgb(0%,0%,0%);fill-opacity:1;"
         d="M 175.148438 81.816406 L 174.476563 81.816406 L 174.710938 80.941406 C 174.726563 80.878906 174.710938 80.800781 174.664063 80.816406 C 174.585938 80.800781 174.554688 80.878906 174.507813 80.925781 C 174.273438 81.222656 173.867188 81.597656 173.601563 81.738281 C 173.460938 81.816406 173.226563 81.878906 173.164063 81.941406 C 173.148438 81.988281 173.148438 82.035156 173.148438 82.082031 L 173.773438 82.082031 L 173.164063 84.394531 C 173.132813 84.535156 172.976563 85.035156 172.976563 85.160156 C 172.976563 85.425781 173.210938 85.503906 173.382813 85.503906 C 173.820313 85.503906 174.148438 85.128906 174.570313 84.488281 L 174.460938 84.425781 C 174.257813 84.691406 173.960938 85.097656 173.789063 85.097656 C 173.695313 85.097656 173.648438 85.019531 173.648438 84.941406 C 173.648438 84.925781 173.648438 84.910156 173.664063 84.878906 L 174.398438 82.082031 L 175.117188 82.082031 Z M 175.148438 81.816406 "
         id="path56" />
    </g>
    <path
       style="fill:none;stroke-width:0.6;stroke-linecap:round;stroke-linejoin:round;stroke:rgb(0%,0%,0%);stroke-opacity:1;stroke-miterlimit:4;"
       d="M 1.914063 83.246094 L 158.421875 83.246094 "
       id="path60" />
    <path
       style=" stroke:none;fill-rule:nonzero;fill:rgb(0%,0%,0%);fill-opacity:1;"
       d="M 159.839844 82.632813 C 158.847656 82.332031 158.203125 82.054688 157.40625 81.734375 L 157.40625 84.761719 C 157.691406 84.628906 158.847656 84.167969 159.839844 83.867188 C 160.902344 83.546875 161.863281 83.328125 162.488281 83.25 C 161.863281 83.171875 160.902344 82.949219 159.839844 82.632813 "
       id="path62" />
    <path
       style="fill:none;stroke-width:0.192;stroke-linecap:round;stroke-linejoin:round;stroke:rgb(0%,0%,0%);stroke-opacity:1;stroke-miterlimit:4;"
       d="M 80.167969 59.652344 L 81.144531 59.652344 "
       id="path64" />
    <path
       style=" stroke:none;fill-rule:nonzero;fill:rgb(0%,0%,0%);fill-opacity:1;"
       d="M 73.402344 61.894531 C 73.542969 61.894531 73.808594 61.769531 73.808594 61.503906 C 73.808594 61.285156 73.621094 61.097656 73.402344 61.097656 C 73.183594 61.097656 72.996094 61.269531 72.996094 61.503906 C 72.996094 61.785156 73.246094 61.894531 73.402344 61.894531 Z M 73.402344 61.894531 "
       id="path66" />
    <path
       style=" stroke:none;fill-rule:nonzero;fill:rgb(0%,0%,0%);fill-opacity:1;"
       d="M 77.484375 60.816406 C 77.375 61.082031 77.25 61.269531 76.78125 61.269531 L 75.40625 61.269531 L 75.40625 61.238281 L 76.796875 59.847656 C 77.6875 58.957031 77.859375 58.628906 77.859375 58.144531 C 77.859375 57.613281 77.46875 56.941406 76.703125 56.941406 C 76.515625 56.941406 75.578125 56.972656 75.1875 58.097656 L 75.34375 58.144531 C 75.4375 57.972656 75.71875 57.472656 76.359375 57.472656 C 76.921875 57.472656 77.25 57.910156 77.25 58.347656 C 77.25 58.582031 77.21875 59.003906 76.203125 60.082031 L 74.703125 61.691406 L 74.703125 61.816406 L 77.25 61.816406 L 77.609375 60.863281 Z M 77.484375 60.816406 "
       id="path68" />
    <path
       style="fill:none;stroke-width:0.192;stroke-linecap:round;stroke-linejoin:round;stroke:rgb(0%,0%,0%);stroke-opacity:1;stroke-miterlimit:4;"
       d="M 80.167969 47.855469 L 81.144531 47.855469 "
       id="path70" />
    <path
       style=" stroke:none;fill-rule:nonzero;fill:rgb(0%,0%,0%);fill-opacity:1;"
       d="M 73.402344 50.097656 C 73.542969 50.097656 73.808594 49.972656 73.808594 49.707031 C 73.808594 49.488281 73.621094 49.300781 73.402344 49.300781 C 73.183594 49.300781 72.996094 49.472656 72.996094 49.707031 C 72.996094 49.988281 73.246094 50.097656 73.402344 50.097656 Z M 73.402344 50.097656 "
       id="path72" />
    <path
       style=" stroke:none;fill-rule:nonzero;fill:rgb(0%,0%,0%);fill-opacity:1;"
       d="M 75.890625 45.941406 C 76 45.785156 76.25 45.457031 76.703125 45.457031 C 76.984375 45.457031 77.328125 45.628906 77.328125 46.113281 C 77.328125 46.878906 76.328125 47.207031 75.609375 47.300781 L 75.625 47.425781 C 76.3125 47.363281 76.953125 47.628906 76.953125 48.644531 C 76.953125 49.550781 76.265625 49.800781 76.03125 49.800781 C 75.625 49.800781 75.390625 49.363281 75.0625 49.363281 C 74.796875 49.363281 74.71875 49.488281 74.71875 49.644531 C 74.71875 49.972656 75.109375 50.066406 75.53125 50.066406 C 76.875 50.066406 77.53125 49.050781 77.53125 48.253906 C 77.53125 47.457031 77.03125 47.238281 76.84375 47.160156 L 76.84375 47.128906 C 77.59375 46.847656 77.953125 46.597656 77.953125 46.050781 C 77.953125 45.457031 77.4375 45.144531 76.90625 45.144531 C 76.5 45.144531 75.953125 45.472656 75.78125 45.894531 Z M 75.890625 45.941406 "
       id="path74" />
    <path
       style="fill:none;stroke-width:0.192;stroke-linecap:round;stroke-linejoin:round;stroke:rgb(0%,0%,0%);stroke-opacity:1;stroke-miterlimit:4;"
       d="M 80.167969 36.058594 L 81.144531 36.058594 "
       id="path76" />
    <path
       style=" stroke:none;fill-rule:nonzero;fill:rgb(0%,0%,0%);fill-opacity:1;"
       d="M 73.402344 38.300781 C 73.542969 38.300781 73.808594 38.175781 73.808594 37.910156 C 73.808594 37.691406 73.621094 37.503906 73.402344 37.503906 C 73.183594 37.503906 72.996094 37.675781 72.996094 37.910156 C 72.996094 38.191406 73.246094 38.300781 73.402344 38.300781 Z M 73.402344 38.300781 "
       id="path78" />
    <path
       style=" stroke:none;fill-rule:nonzero;fill:rgb(0%,0%,0%);fill-opacity:1;"
       d="M 76.609375 36.488281 L 75.078125 36.488281 L 75.078125 36.457031 L 77.265625 34.160156 L 77.296875 34.160156 Z M 77.875 36.488281 L 77.1875 36.488281 L 78.0625 33.347656 L 77.765625 33.347656 L 74.765625 36.457031 L 74.609375 36.941406 L 76.5 36.941406 L 76.15625 38.222656 L 76.71875 38.222656 L 77.046875 36.957031 L 77.765625 36.957031 Z M 77.875 36.488281 "
       id="path80" />
    <path
       style="fill:none;stroke-width:0.192;stroke-linecap:round;stroke-linejoin:round;stroke:rgb(0%,0%,0%);stroke-opacity:1;stroke-miterlimit:4;"
       d="M 80.167969 24.261719 L 81.144531 24.261719 "
       id="path82" />
    <path
       style=" stroke:none;fill-rule:nonzero;fill:rgb(0%,0%,0%);fill-opacity:1;"
       d="M 73.402344 26.503906 C 73.542969 26.503906 73.808594 26.378906 73.808594 26.113281 C 73.808594 25.894531 73.621094 25.707031 73.402344 25.707031 C 73.183594 25.707031 72.996094 25.878906 72.996094 26.113281 C 72.996094 26.394531 73.246094 26.503906 73.402344 26.503906 Z M 73.402344 26.503906 "
       id="path84" />
    <path
       style=" stroke:none;fill-rule:nonzero;fill:rgb(0%,0%,0%);fill-opacity:1;"
       d="M 76.328125 22.144531 L 77.984375 22.144531 L 78.140625 21.628906 L 76.296875 21.628906 L 75.546875 23.191406 L 75.546875 23.300781 C 76.390625 23.488281 77.125 23.644531 77.125 24.753906 C 77.125 25.378906 76.609375 26.175781 75.90625 26.175781 C 75.515625 26.175781 75.328125 25.785156 75 25.785156 C 74.875 25.785156 74.71875 25.863281 74.71875 26.066406 C 74.71875 26.269531 74.9375 26.472656 75.453125 26.472656 C 76.859375 26.472656 77.625 25.363281 77.625 24.441406 C 77.625 23.472656 76.984375 22.957031 76.046875 22.769531 Z M 76.328125 22.144531 "
       id="path86" />
    <path
       style="fill:none;stroke-width:0.096;stroke-linecap:round;stroke-linejoin:round;stroke:rgb(0%,0%,0%);stroke-opacity:1;stroke-miterlimit:4;"
       d="M 80.167969 57.292969 L 80.753906 57.292969 M 80.167969 54.933594 L 80.753906 54.933594 M 80.167969 52.574219 L 80.753906 52.574219 M 80.167969 50.214844 L 80.753906 50.214844 M 80.167969 45.496094 L 80.753906 45.496094 M 80.167969 43.136719 L 80.753906 43.136719 M 80.167969 40.777344 L 80.753906 40.777344 M 80.167969 38.417969 L 80.753906 38.417969 M 80.167969 33.699219 L 80.753906 33.699219 M 80.167969 31.339844 L 80.753906 31.339844 M 80.167969 28.980469 L 80.753906 28.980469 M 80.167969 26.621094 L 80.753906 26.621094 M 80.167969 62.011719 L 80.753906 62.011719 M 80.167969 64.371094 L 80.753906 64.371094 M 80.167969 66.730469 L 80.753906 66.730469 M 80.167969 21.902344 L 80.753906 21.902344 M 80.167969 19.542969 L 80.753906 19.542969 M 80.167969 17.183594 L 80.753906 17.183594 M 80.167969 14.824219 L 80.753906 14.824219 "
       id="path88" />
    <path
       style=" stroke:none;fill-rule:nonzero;fill:rgb(0%,0%,0%);fill-opacity:1;"
       d="M 69.417969 2.375 L 70.167969 2.375 L 69.433594 5.90625 C 69.371094 6.234375 69.152344 7.265625 68.605469 7.265625 C 68.511719 7.265625 68.449219 7.203125 68.449219 7.125 C 68.449219 7.046875 68.527344 7.046875 68.527344 6.890625 C 68.527344 6.6875 68.308594 6.578125 68.183594 6.578125 C 67.886719 6.609375 67.886719 6.921875 67.886719 6.953125 C 67.933594 7.328125 68.277344 7.4375 68.542969 7.4375 C 69.527344 7.4375 69.996094 6.09375 70.230469 5.0625 L 70.839844 2.375 L 71.746094 2.375 L 71.808594 2.109375 L 70.902344 2.109375 C 70.964844 1.671875 71.214844 0.1875 71.917969 0.1875 C 72.027344 0.1875 72.105469 0.21875 72.105469 0.296875 C 72.105469 0.375 72.027344 0.375 72.027344 0.5625 C 72.027344 0.65625 72.074219 0.890625 72.339844 0.890625 C 72.527344 0.890625 72.683594 0.71875 72.683594 0.546875 C 72.683594 0.375 72.558594 0 71.949219 0 C 70.886719 0 70.464844 1.390625 70.246094 2.109375 L 69.480469 2.109375 Z M 69.417969 2.375 "
       id="path90" />
    <path
       style=" stroke:none;fill-rule:nonzero;fill:rgb(0%,0%,0%);fill-opacity:1;"
       d="M 74.835938 2.171875 C 75.179688 1.421875 75.585938 0.515625 75.585938 0.359375 C 75.585938 0.21875 75.492188 0.109375 75.304688 0.109375 C 75.132813 0.109375 74.914063 0.234375 74.851563 0.453125 C 74.789063 0.71875 74.710938 1.703125 74.664063 2.171875 Z M 74.835938 2.171875 "
       id="path92" />
    <path
       style=" stroke:none;fill-rule:nonzero;fill:rgb(0%,0%,0%);fill-opacity:1;"
       d="M 76.695313 7.171875 C 76.289063 6.140625 76.289063 5.40625 76.289063 4.84375 C 76.289063 4.3125 76.429688 3.171875 76.757813 2.21875 C 77.164063 1.078125 77.601563 0.625 77.992188 0.203125 L 77.882813 0.078125 C 76.367188 1.375 75.710938 2.6875 75.710938 4.078125 C 75.710938 4.625 75.710938 5.84375 76.539063 7.21875 Z M 76.695313 7.171875 "
       id="path94" />
    <path
       style=" stroke:none;fill-rule:nonzero;fill:rgb(0%,0%,0%);fill-opacity:1;"
       d="M 82.007813 4.71875 C 81.710938 5.109375 81.492188 5.390625 81.320313 5.390625 C 81.304688 5.390625 81.195313 5.359375 81.195313 5.234375 C 81.195313 4.984375 81.867188 2.90625 81.867188 2.546875 C 81.867188 2.203125 81.664063 2 81.289063 2 C 80.585938 2 79.820313 3.171875 79.414063 3.78125 L 79.398438 3.765625 L 79.945313 2.015625 L 79.914063 2 C 79.460938 2.09375 79.007813 2.171875 78.554688 2.25 L 78.554688 2.390625 C 79.007813 2.390625 79.085938 2.484375 79.085938 2.609375 C 79.085938 2.78125 78.523438 4.75 78.273438 5.703125 L 78.898438 5.703125 C 79.242188 4.5625 79.351563 4.203125 79.742188 3.625 C 80.039063 3.140625 80.570313 2.421875 80.976563 2.421875 C 81.132813 2.421875 81.179688 2.546875 81.179688 2.6875 C 81.179688 3.03125 80.554688 5.078125 80.554688 5.28125 C 80.554688 5.53125 80.570313 5.78125 80.960938 5.78125 C 81.414063 5.78125 81.710938 5.390625 82.132813 4.828125 Z M 82.007813 4.71875 "
       id="path96" />
    <path
       style=" stroke:none;fill-rule:nonzero;fill:rgb(0%,0%,0%);fill-opacity:1;"
       d="M 83.632813 3.578125 C 83.945313 2.84375 84.507813 2.1875 84.960938 2.1875 C 85.179688 2.1875 85.257813 2.34375 85.257813 2.53125 C 85.257813 2.59375 85.210938 3.609375 83.492188 3.953125 Z M 85.367188 4.78125 C 84.945313 5.125 84.585938 5.421875 84.132813 5.421875 C 83.773438 5.421875 83.335938 5.21875 83.335938 4.65625 C 83.335938 4.484375 83.382813 4.3125 83.429688 4.140625 L 83.664063 4.109375 C 85.023438 3.90625 85.820313 3.234375 85.820313 2.5625 C 85.820313 2.203125 85.554688 2 85.132813 2 C 83.945313 2 82.617188 3.40625 82.617188 4.609375 C 82.617188 5.140625 82.882813 5.796875 83.757813 5.796875 C 84.601563 5.796875 85.367188 5.015625 85.460938 4.890625 Z M 85.367188 4.78125 "
       id="path98" />
    <path
       style=" stroke:none;fill-rule:nonzero;fill:rgb(0%,0%,0%);fill-opacity:1;"
       d="M 88.5625 2.109375 L 87.890625 2.109375 L 88.125 1.234375 C 88.140625 1.171875 88.125 1.09375 88.078125 1.109375 C 88 1.09375 87.96875 1.171875 87.921875 1.21875 C 87.6875 1.515625 87.28125 1.890625 87.015625 2.03125 C 86.875 2.109375 86.640625 2.171875 86.578125 2.234375 C 86.5625 2.28125 86.5625 2.328125 86.5625 2.375 L 87.1875 2.375 L 86.578125 4.6875 C 86.546875 4.828125 86.390625 5.328125 86.390625 5.453125 C 86.390625 5.71875 86.625 5.796875 86.796875 5.796875 C 87.234375 5.796875 87.5625 5.421875 87.984375 4.78125 L 87.875 4.71875 C 87.671875 4.984375 87.375 5.390625 87.203125 5.390625 C 87.109375 5.390625 87.0625 5.3125 87.0625 5.234375 C 87.0625 5.21875 87.0625 5.203125 87.078125 5.171875 L 87.8125 2.375 L 88.53125 2.375 Z M 88.5625 2.109375 "
       id="path100" />
    <path
       style=" stroke:none;fill-rule:nonzero;fill:rgb(0%,0%,0%);fill-opacity:1;"
       d="M 88.664063 7.21875 C 89.898438 6.21875 90.835938 4.828125 90.835938 3.234375 C 90.835938 2.140625 90.617188 1.0625 90.007813 0.078125 L 89.851563 0.125 C 90.070313 0.578125 90.257813 1.421875 90.257813 2.3125 C 90.257813 3.0625 90.132813 4.0625 89.789063 5.09375 C 89.398438 6.1875 88.914063 6.703125 88.554688 7.09375 Z M 88.664063 7.21875 "
       id="path102" />
    <path
       style="fill:none;stroke-width:0.6;stroke-linecap:round;stroke-linejoin:round;stroke:rgb(0%,0%,0%);stroke-opacity:1;stroke-miterlimit:4;"
       d="M 80.167969 83.484375 L 80.167969 11.492188 "
       id="path104" />
    <path
       style=" stroke:none;fill-rule:nonzero;fill:rgb(0%,0%,0%);fill-opacity:1;"
       d="M 79.554688 10.074219 C 79.253906 11.066406 78.976563 11.710938 78.65625 12.507813 L 81.683594 12.507813 C 81.550781 12.222656 81.089844 11.066406 80.789063 10.074219 C 80.46875 9.011719 80.25 8.050781 80.171875 7.425781 C 80.09375 8.050781 79.875 9.011719 79.554688 10.074219 "
       id="path106" />
    <path
       style="fill:none;stroke-width:1.2;stroke-linecap:round;stroke-linejoin:round;stroke:rgb(0%,0%,0%);stroke-opacity:1;stroke-miterlimit:4;"
       d="M 5.640625 66.847656 L 11.851563 63.417969 L 18.0625 59.4375 L 24.273438 54.90625 L 30.484375 49.863281 L 36.691406 44.402344 L 42.902344 38.6875 L 49.113281 32.957031 L 55.324219 27.519531 L 61.535156 22.742188 L 67.746094 18.992188 L 70.851563 17.609375 L 72.40625 17.054688 L 73.957031 16.59375 L 75.511719 16.234375 L 76.285156 16.09375 L 77.0625 15.976563 L 77.839844 15.886719 L 78.226563 15.851563 L 78.613281 15.820313 L 79.003906 15.796875 L 79.199219 15.789063 L 79.390625 15.777344 L 79.78125 15.769531 L 80.554688 15.769531 L 80.945313 15.777344 L 81.136719 15.789063 L 81.332031 15.796875 L 81.71875 15.820313 L 82.109375 15.851563 L 82.496094 15.886719 L 83.273438 15.976563 L 84.050781 16.09375 L 84.824219 16.234375 L 86.378906 16.59375 L 89.484375 17.609375 L 92.589844 18.992188 L 98.800781 22.742188 L 105.011719 27.519531 L 111.222656 32.957031 L 117.433594 38.6875 L 123.644531 44.402344 L 129.851563 49.863281 L 136.0625 54.90625 L 142.273438 59.4375 L 148.484375 63.417969 L 154.695313 66.847656 "
       id="path108" />
    <path
       style="fill:none;stroke-width:0.192;stroke-linecap:round;stroke-linejoin:round;stroke:rgb(0%,0%,0%);stroke-opacity:1;stroke-miterlimit:4;"
       d="M 79.757813 74.054688 L 81.371094 74.054688 "
       id="path110" />
    <path
       style="fill:none;stroke-width:0.096;stroke-linecap:round;stroke-linejoin:round;stroke:rgb(0%,0%,0%);stroke-opacity:1;stroke-miterlimit:4;"
       d="M 80.394531 71.695313 L 80.980469 71.695313 M 80.394531 69.339844 L 80.980469 69.339844 M 79.757813 76.417969 L 80.980469 76.417969 M 80.394531 78.773438 L 80.980469 78.773438 M 81.03125 81.132813 L 80.980469 81.132813 "
       id="path112" />
    <path
       style=" stroke:none;fill-rule:nonzero;fill:rgb(0%,0%,0%);fill-opacity:1;"
       d="M 73.636719 73.359375 C 73.777344 73.359375 74.042969 73.234375 74.042969 72.96875 C 74.042969 72.75 73.855469 72.5625 73.636719 72.5625 C 73.417969 72.5625 73.230469 72.734375 73.230469 72.96875 C 73.230469 73.25 73.480469 73.359375 73.636719 73.359375 Z M 73.636719 73.359375 "
       id="path114" />
    <path
       style=" stroke:none;fill-rule:nonzero;fill:rgb(0%,0%,0%);fill-opacity:1;"
       d="M 75.203125 73.28125 L 77.203125 73.28125 L 77.203125 73.171875 C 76.84375 73.1875 76.59375 73.15625 76.59375 72.9375 C 76.59375 72.8125 76.6875 72.546875 76.71875 72.40625 L 77.75 68.671875 C 77.78125 68.5625 77.8125 68.40625 77.765625 68.40625 C 77.703125 68.40625 76.703125 68.625 76.359375 68.6875 L 76.359375 68.796875 L 76.78125 68.78125 C 76.84375 68.78125 77.046875 68.78125 77.046875 69.015625 C 77.046875 69.0625 77.015625 69.171875 77 69.25 L 76 72.796875 C 75.90625 73.109375 75.625 73.140625 75.203125 73.1875 Z M 75.203125 73.28125 "
       id="path116" />
    <g
       clip-path="url(#clip6)"
       clip-rule="nonzero"
       id="g120">
      <path
         style=" stroke:none;fill-rule:nonzero;fill:rgb(0%,0%,0%);fill-opacity:1;"
         d="M 78 90.585938 C 78 89.882813 78.515625 87.039063 79.59375 87.039063 C 80.21875 87.039063 80.21875 87.773438 80.21875 87.992188 C 80.21875 89.257813 79.59375 91.554688 78.625 91.554688 C 78.40625 91.554688 78 91.429688 78 90.585938 Z M 80.78125 88.648438 C 80.78125 87.929688 80.59375 86.835938 79.625 86.835938 C 78.625 86.835938 77.4375 88.320313 77.4375 90.273438 C 77.4375 91.023438 77.84375 91.757813 78.59375 91.757813 C 79.796875 91.757813 80.78125 90.070313 80.78125 88.648438 Z M 80.78125 88.648438 "
         id="path118" />
    </g>
  </g>
</svg>
