<?xml version="1.0" encoding="UTF-8" standalone="no"?>
<svg
   xmlns:dc="http://purl.org/dc/elements/1.1/"
   xmlns:cc="http://creativecommons.org/ns#"
   xmlns:rdf="http://www.w3.org/1999/02/22-rdf-syntax-ns#"
   xmlns:svg="http://www.w3.org/2000/svg"
   xmlns="http://www.w3.org/2000/svg"
   xmlns:sodipodi="http://sodipodi.sourceforge.net/DTD/sodipodi-0.dtd"
   xmlns:inkscape="http://www.inkscape.org/namespaces/inkscape"
   width="113.273781pt"
   height="110.604416pt"
   viewBox="0 0 113.273781 110.604416"
   version="1.2"
   id="svg101"
   sodipodi:docname="xor_plot.svg"
   inkscape:version="0.92.4 (5da689c313, 2019-01-14)">
  <metadata
     id="metadata105">
    <rdf:RDF>
      <cc:Work
         rdf:about="">
        <dc:format>image/svg+xml</dc:format>
        <dc:type
           rdf:resource="http://purl.org/dc/dcmitype/StillImage" />
        <dc:title></dc:title>
      </cc:Work>
    </rdf:RDF>
  </metadata>
  <sodipodi:namedview
     pagecolor="#ffffff"
     bordercolor="#666666"
     borderopacity="1"
     objecttolerance="10"
     gridtolerance="10"
     guidetolerance="10"
     inkscape:pageopacity="0"
     inkscape:pageshadow="2"
     inkscape:window-width="640"
     inkscape:window-height="480"
     id="namedview103"
     showgrid="false"
     inkscape:zoom="1.6002978"
     inkscape:cx="75.515854"
     inkscape:cy="73.736277"
     inkscape:window-x="0"
     inkscape:window-y="0"
     inkscape:window-maximized="0"
     inkscape:current-layer="svg101" />
  <defs
     id="defs8">
    <clipPath
       id="clip1">
      <path
         d="M 51 7 L 52 7 L 52 110.605469 L 51 110.605469 Z M 51 7 "
         id="path2" />
    </clipPath>
    <clipPath
       id="clip2">
      <path
         d="M 111 58 L 113.273438 58 L 113.273438 62 L 111 62 Z M 111 58 "
         id="path5" />
    </clipPath>
  </defs>
  <g
     id="surface40">
    <path
       style=" stroke:none;fill-rule:nonzero;fill:rgb(100%,76.077271%,76.077271%);fill-opacity:1;"
       d="M 96.15625 55.589844 L 55.011719 14.449219 L 7.007813 14.449219 L 7.007813 28.160156 L 82.441406 103.589844 L 96.15625 103.589844 L 96.15625 55.589844 "
       id="path10" />
    <path
       style="fill:none;stroke-width:0.303;stroke-linecap:round;stroke-linejoin:round;stroke:rgb(0%,0%,0%);stroke-opacity:1;stroke-miterlimit:4;"
       d="M 17.296875 59.019531 L 17.296875 58.375 "
       id="path12" />
    <path
       style=" stroke:none;fill-rule:nonzero;fill:rgb(0%,0%,0%);fill-opacity:1;"
       d="M 16.328125 63.6875 L 14.75 63.6875 L 14.65625 64.140625 L 16.234375 64.140625 Z M 16.328125 63.6875 "
       id="path14" />
    <path
       style=" stroke:none;fill-rule:nonzero;fill:rgb(0%,0%,0%);fill-opacity:1;"
       d="M 17.054688 65.53125 L 19.054688 65.53125 L 19.054688 65.421875 C 18.695313 65.4375 18.445313 65.40625 18.445313 65.1875 C 18.445313 65.0625 18.539063 64.796875 18.570313 64.65625 L 19.601563 60.921875 C 19.632813 60.8125 19.664063 60.65625 19.617188 60.65625 C 19.554688 60.65625 18.554688 60.875 18.210938 60.9375 L 18.210938 61.046875 L 18.632813 61.03125 C 18.695313 61.03125 18.898438 61.03125 18.898438 61.265625 C 18.898438 61.3125 18.867188 61.421875 18.851563 61.5 L 17.851563 65.046875 C 17.757813 65.359375 17.476563 65.390625 17.054688 65.4375 Z M 17.054688 65.53125 "
       id="path16" />
    <path
       style="fill:none;stroke-width:0.303;stroke-linecap:round;stroke-linejoin:round;stroke:rgb(0%,0%,0%);stroke-opacity:1;stroke-miterlimit:4;"
       d="M 85.867188 59.019531 L 85.867188 58.375 "
       id="path18" />
    <path
       style=" stroke:none;fill-rule:nonzero;fill:rgb(0%,0%,0%);fill-opacity:1;"
       d="M 84.429688 65.53125 L 86.429688 65.53125 L 86.429688 65.421875 C 86.070313 65.4375 85.820313 65.40625 85.820313 65.1875 C 85.820313 65.0625 85.914063 64.796875 85.945313 64.65625 L 86.976563 60.921875 C 87.007813 60.8125 87.039063 60.65625 86.992188 60.65625 C 86.929688 60.65625 85.929688 60.875 85.585938 60.9375 L 85.585938 61.046875 L 86.007813 61.03125 C 86.070313 61.03125 86.273438 61.03125 86.273438 61.265625 C 86.273438 61.3125 86.242188 61.421875 86.226563 61.5 L 85.226563 65.046875 C 85.132813 65.359375 84.851563 65.390625 84.429688 65.4375 Z M 84.429688 65.53125 "
       id="path20" />
    <path
       style="fill:none;stroke-width:0.303;stroke-linecap:round;stroke-linejoin:round;stroke:rgb(0%,0%,0%);stroke-opacity:1;stroke-miterlimit:4;"
       d="M 0.152344 59.019531 L 103.011719 59.019531 "
       id="path22" />
    <path
       style=" stroke:none;fill-rule:nonzero;fill:rgb(0%,0%,0%);fill-opacity:1;"
       d="M 103.730469 58.707031 C 103.226563 58.554688 102.902344 58.417969 102.5 58.253906 L 102.5 59.785156 C 102.644531 59.71875 103.226563 59.484375 103.730469 59.332031 C 104.265625 59.171875 104.75 59.0625 105.066406 59.019531 C 104.75 58.980469 104.265625 58.871094 103.730469 58.707031 "
       id="path24" />
    <path
       style="fill:none;stroke-width:0.303;stroke-linecap:round;stroke-linejoin:round;stroke:rgb(0%,0%,0%);stroke-opacity:1;stroke-miterlimit:4;"
       d="M 51.582031 93.304688 L 52.226563 93.304688 "
       id="path26" />
    <path
       style=" stroke:none;fill-rule:nonzero;fill:rgb(0%,0%,0%);fill-opacity:1;"
       d="M 46.328125 93.089844 L 44.75 93.089844 L 44.65625 93.542969 L 46.234375 93.542969 Z M 46.328125 93.089844 "
       id="path28" />
    <path
       style=" stroke:none;fill-rule:nonzero;fill:rgb(0%,0%,0%);fill-opacity:1;"
       d="M 47.054688 94.933594 L 49.054688 94.933594 L 49.054688 94.824219 C 48.695313 94.839844 48.445313 94.808594 48.445313 94.589844 C 48.445313 94.464844 48.539063 94.199219 48.570313 94.058594 L 49.601563 90.324219 C 49.632813 90.214844 49.664063 90.058594 49.617188 90.058594 C 49.554688 90.058594 48.554688 90.277344 48.210938 90.339844 L 48.210938 90.449219 L 48.632813 90.433594 C 48.695313 90.433594 48.898438 90.433594 48.898438 90.667969 C 48.898438 90.714844 48.867188 90.824219 48.851563 90.902344 L 47.851563 94.449219 C 47.757813 94.761719 47.476563 94.792969 47.054688 94.839844 Z M 47.054688 94.933594 "
       id="path30" />
    <path
       style="fill:none;stroke-width:0.303;stroke-linecap:round;stroke-linejoin:round;stroke:rgb(0%,0%,0%);stroke-opacity:1;stroke-miterlimit:4;"
       d="M 51.582031 24.734375 L 52.226563 24.734375 "
       id="path32" />
    <path
       style=" stroke:none;fill-rule:nonzero;fill:rgb(0%,0%,0%);fill-opacity:1;"
       d="M 47.054688 26.363281 L 49.054688 26.363281 L 49.054688 26.253906 C 48.695313 26.269531 48.445313 26.238281 48.445313 26.019531 C 48.445313 25.894531 48.539063 25.628906 48.570313 25.488281 L 49.601563 21.753906 C 49.632813 21.644531 49.664063 21.488281 49.617188 21.488281 C 49.554688 21.488281 48.554688 21.707031 48.210938 21.769531 L 48.210938 21.878906 L 48.632813 21.863281 C 48.695313 21.863281 48.898438 21.863281 48.898438 22.097656 C 48.898438 22.144531 48.867188 22.253906 48.851563 22.332031 L 47.851563 25.878906 C 47.757813 26.191406 47.476563 26.222656 47.054688 26.269531 Z M 47.054688 26.363281 "
       id="path34" />
    <g
       clip-path="url(#clip1)"
       clip-rule="nonzero"
       id="g38">
      <path
         style="fill:none;stroke-width:0.303;stroke-linecap:round;stroke-linejoin:round;stroke:rgb(0%,0%,0%);stroke-opacity:1;stroke-miterlimit:4;"
         d="M 51.582031 110.449219 L 51.582031 7.589844 "
         id="path36" />
    </g>
    <path
       style=" stroke:none;fill-rule:nonzero;fill:rgb(0%,0%,0%);fill-opacity:1;"
       d="M 51.273438 6.871094 C 51.121094 7.375 50.980469 7.699219 50.820313 8.101563 L 52.347656 8.101563 C 52.28125 7.957031 52.046875 7.375 51.898438 6.871094 C 51.734375 6.335938 51.625 5.847656 51.582031 5.535156 C 51.542969 5.847656 51.433594 6.335938 51.273438 6.871094 "
       id="path40" />
    <path
       style=" stroke:none;fill-rule:nonzero;fill:rgb(0%,0%,0%);fill-opacity:1;"
       d="M 17.296875 93.304688 L 20.726563 93.304688 L 20.707031 92.964844 L 20.65625 92.625 L 20.570313 92.292969 L 20.453125 91.972656 L 20.304688 91.664063 L 20.128906 91.375 L 19.921875 91.101563 L 19.691406 90.851563 L 19.433594 90.625 L 19.15625 90.425781 L 18.859375 90.253906 L 18.546875 90.113281 L 18.226563 90.003906 L 17.890625 89.929688 L 17.550781 89.886719 L 17.210938 89.878906 L 16.871094 89.902344 L 16.53125 89.964844 L 16.203125 90.054688 L 15.886719 90.179688 L 15.582031 90.335938 L 15.292969 90.523438 L 15.027344 90.734375 L 14.78125 90.972656 L 14.5625 91.234375 L 14.371094 91.519531 L 14.207031 91.820313 L 14.074219 92.132813 L 13.972656 92.460938 L 13.90625 92.792969 L 13.871094 93.132813 L 13.871094 93.476563 L 17.296875 93.304688 "
       id="path42" />
    <path
       style=" stroke:none;fill-rule:nonzero;fill:rgb(0%,0%,0%);fill-opacity:1;"
       d="M 17.296875 93.304688 L 13.871094 93.476563 L 13.90625 93.816406 L 13.972656 94.152344 L 14.074219 94.480469 L 14.207031 94.792969 L 14.371094 95.09375 L 14.5625 95.375 L 14.785156 95.636719 L 15.027344 95.875 L 15.296875 96.089844 L 15.582031 96.273438 L 15.886719 96.429688 L 16.203125 96.554688 L 16.535156 96.648438 L 16.871094 96.707031 L 17.210938 96.738281 L 17.550781 96.726563 L 17.890625 96.683594 L 18.226563 96.609375 L 18.546875 96.5 L 18.859375 96.359375 L 19.15625 96.1875 L 19.433594 95.988281 L 19.691406 95.761719 L 19.921875 95.511719 L 20.128906 95.238281 L 20.308594 94.949219 L 20.457031 94.640625 L 20.574219 94.320313 L 20.65625 93.988281 L 20.707031 93.648438 L 20.726563 93.308594 L 20.707031 92.96875 L 17.296875 93.308594 "
       id="path44" />
    <path
       style=" stroke:none;fill-rule:nonzero;fill:rgb(0%,0%,0%);fill-opacity:1;"
       d="M 85.867188 24.734375 L 89.296875 24.734375 L 89.285156 24.390625 L 89.234375 24.054688 L 89.148438 23.722656 L 89.03125 23.402344 L 88.882813 23.09375 L 88.703125 22.800781 L 88.5 22.53125 L 88.265625 22.277344 L 88.007813 22.050781 L 87.734375 21.855469 L 87.4375 21.683594 L 87.125 21.542969 L 86.800781 21.433594 L 86.46875 21.355469 L 86.128906 21.316406 L 85.785156 21.304688 L 85.445313 21.335938 L 85.109375 21.394531 L 84.78125 21.488281 L 84.460938 21.613281 L 84.15625 21.769531 L 83.871094 21.953125 L 83.605469 22.167969 L 83.359375 22.40625 L 83.140625 22.667969 L 82.945313 22.949219 L 82.785156 23.25 L 82.652344 23.566406 L 82.550781 23.890625 L 82.484375 24.226563 L 82.449219 24.566406 L 82.449219 24.910156 L 85.871094 24.738281 "
       id="path46" />
    <path
       style=" stroke:none;fill-rule:nonzero;fill:rgb(0%,0%,0%);fill-opacity:1;"
       d="M 85.867188 24.734375 L 82.445313 24.90625 L 82.480469 25.246094 L 82.546875 25.578125 L 82.648438 25.90625 L 82.78125 26.222656 L 82.945313 26.523438 L 83.136719 26.804688 L 83.355469 27.066406 L 83.601563 27.304688 L 83.867188 27.515625 L 84.15625 27.703125 L 84.457031 27.859375 L 84.777344 27.984375 L 85.105469 28.074219 L 85.441406 28.132813 L 85.785156 28.164063 L 86.125 28.152344 L 86.464844 28.109375 L 86.796875 28.03125 L 87.121094 27.925781 L 87.433594 27.785156 L 87.730469 27.613281 L 88.007813 27.414063 L 88.261719 27.1875 L 88.496094 26.9375 L 88.703125 26.664063 L 88.878906 26.371094 L 89.027344 26.0625 L 89.144531 25.742188 L 89.230469 25.410156 L 89.28125 25.074219 L 89.300781 24.734375 L 89.28125 24.390625 L 85.867188 24.734375 "
       id="path48" />
    <path
       style=" stroke:none;fill-rule:nonzero;fill:rgb(0%,0%,0%);fill-opacity:1;"
       d="M 111.148438 59.421875 C 110.929688 59.671875 110.757813 59.984375 110.585938 59.984375 C 110.414063 59.984375 110.351563 59.78125 110.320313 59.640625 C 110.273438 59.4375 109.976563 58.296875 109.976563 58.140625 C 109.976563 58.140625 110.554688 57.125 110.804688 57.125 C 110.992188 57.125 111.039063 57.265625 111.242188 57.265625 C 111.445313 57.265625 111.523438 57.109375 111.523438 56.953125 C 111.523438 56.75 111.351563 56.65625 111.179688 56.65625 C 110.742188 56.65625 110.351563 57.171875 109.914063 57.859375 L 109.820313 57.390625 C 109.679688 56.65625 109.554688 56.65625 109.367188 56.65625 C 109.085938 56.65625 108.539063 56.859375 108.304688 56.921875 L 108.351563 57.0625 C 108.617188 56.984375 108.726563 56.96875 108.804688 56.96875 C 109.039063 56.96875 109.070313 57.078125 109.148438 57.34375 C 109.148438 57.390625 109.445313 58.5 109.445313 58.578125 C 108.679688 59.671875 108.460938 59.96875 108.320313 59.96875 C 108.164063 59.96875 108.023438 59.796875 107.835938 59.796875 C 107.648438 59.796875 107.539063 59.953125 107.539063 60.09375 C 107.539063 60.296875 107.679688 60.453125 107.960938 60.453125 C 108.226563 60.453125 108.320313 60.359375 108.460938 60.203125 C 108.742188 59.890625 109.101563 59.4375 109.507813 58.875 L 109.757813 59.890625 C 109.867188 60.328125 109.992188 60.453125 110.242188 60.453125 C 110.429688 60.453125 110.679688 60.453125 111.273438 59.5 Z M 111.148438 59.421875 "
       id="path50" />
    <g
       clip-path="url(#clip2)"
       clip-rule="nonzero"
       id="g54">
      <path
         style=" stroke:none;fill-rule:nonzero;fill:rgb(0%,0%,0%);fill-opacity:1;"
         d="M 111.722656 61.800781 L 112.925781 61.800781 L 112.925781 61.738281 C 112.707031 61.738281 112.550781 61.722656 112.550781 61.597656 C 112.550781 61.519531 112.613281 61.363281 112.628906 61.269531 L 113.253906 59.035156 C 113.269531 58.957031 113.285156 58.878906 113.253906 58.878906 C 113.222656 58.878906 112.613281 59.003906 112.410156 59.035156 L 112.410156 59.097656 L 112.660156 59.097656 C 112.707031 59.097656 112.832031 59.097656 112.832031 59.238281 C 112.832031 59.269531 112.816406 59.332031 112.800781 59.378906 L 112.207031 61.503906 C 112.144531 61.707031 111.972656 61.707031 111.722656 61.738281 Z M 111.722656 61.800781 "
         id="path52" />
    </g>
    <path
       style=" stroke:none;fill-rule:nonzero;fill:rgb(0%,0%,0%);fill-opacity:1;"
       d="M 54.972656 2.765625 C 54.753906 3.015625 54.582031 3.328125 54.410156 3.328125 C 54.238281 3.328125 54.175781 3.125 54.144531 2.984375 C 54.097656 2.78125 53.800781 1.640625 53.800781 1.484375 C 53.800781 1.484375 54.378906 0.46875 54.628906 0.46875 C 54.816406 0.46875 54.863281 0.609375 55.066406 0.609375 C 55.269531 0.609375 55.347656 0.453125 55.347656 0.296875 C 55.347656 0.09375 55.175781 0 55.003906 0 C 54.566406 0 54.175781 0.515625 53.738281 1.203125 L 53.644531 0.734375 C 53.503906 0 53.378906 0 53.191406 0 C 52.910156 0 52.363281 0.203125 52.128906 0.265625 L 52.175781 0.40625 C 52.441406 0.328125 52.550781 0.3125 52.628906 0.3125 C 52.863281 0.3125 52.894531 0.421875 52.972656 0.6875 C 52.972656 0.734375 53.269531 1.84375 53.269531 1.921875 C 52.503906 3.015625 52.285156 3.3125 52.144531 3.3125 C 51.988281 3.3125 51.847656 3.140625 51.660156 3.140625 C 51.472656 3.140625 51.363281 3.296875 51.363281 3.4375 C 51.363281 3.640625 51.503906 3.796875 51.785156 3.796875 C 52.050781 3.796875 52.144531 3.703125 52.285156 3.546875 C 52.566406 3.234375 52.925781 2.78125 53.332031 2.21875 L 53.582031 3.234375 C 53.691406 3.671875 53.816406 3.796875 54.066406 3.796875 C 54.253906 3.796875 54.503906 3.796875 55.097656 2.84375 Z M 54.972656 2.765625 "
       id="path56" />
    <path
       style=" stroke:none;fill-rule:nonzero;fill:rgb(0%,0%,0%);fill-opacity:1;"
       d="M 57.0625 4.535156 C 56.984375 4.691406 56.921875 4.816406 56.625 4.816406 L 55.8125 4.816406 L 55.8125 4.800781 L 56.640625 3.957031 C 57.171875 3.425781 57.28125 3.238281 57.28125 2.941406 C 57.28125 2.613281 57.046875 2.222656 56.578125 2.222656 C 56.46875 2.222656 55.90625 2.238281 55.671875 2.910156 L 55.765625 2.941406 C 55.828125 2.832031 55.984375 2.535156 56.375 2.535156 C 56.71875 2.535156 56.90625 2.800781 56.90625 3.066406 C 56.90625 3.207031 56.890625 3.457031 56.28125 4.097656 L 55.375 5.066406 L 55.375 5.144531 L 56.921875 5.144531 L 57.140625 4.566406 Z M 57.0625 4.535156 "
       id="path58" />
    <path
       style=" stroke:none;fill-rule:nonzero;fill:rgb(0%,0%,0%);fill-opacity:1;"
       d="M 34.511719 50.460938 C 34.667969 50.054688 34.824219 50.023438 35.105469 50.023438 L 36.152344 50.023438 L 33.917969 52.710938 L 33.980469 52.773438 C 34.074219 52.695313 34.183594 52.648438 34.308594 52.648438 C 34.808594 52.648438 35.324219 53.257813 35.871094 53.257813 C 36.246094 53.257813 36.542969 52.992188 36.542969 52.726563 C 36.542969 52.492188 36.371094 52.460938 36.308594 52.460938 C 36.136719 52.460938 36.058594 52.554688 36.058594 52.679688 C 36.058594 52.835938 36.152344 52.914063 36.152344 52.992188 C 36.152344 53.085938 36.042969 53.117188 35.949219 53.117188 C 35.871094 53.117188 35.746094 53.117188 35.558594 52.867188 C 35.183594 52.398438 35.058594 52.257813 34.574219 52.148438 L 36.667969 49.679688 L 36.667969 49.601563 L 34.621094 49.601563 L 34.402344 50.429688 Z M 34.511719 50.460938 "
       id="path60" />
    <path
       style=" stroke:none;fill-rule:nonzero;fill:rgb(0%,0%,0%);fill-opacity:1;"
       d="M 40.984375 49.898438 L 37.359375 49.898438 L 37.359375 50.367188 L 40.984375 50.367188 Z M 40.984375 51.335938 L 37.359375 51.335938 L 37.359375 51.820313 L 40.984375 51.820313 Z M 40.984375 51.335938 "
       id="path62" />
    <path
       style=" stroke:none;fill-rule:nonzero;fill:rgb(0%,0%,0%);fill-opacity:1;"
       d="M 43.796875 50.617188 L 42.21875 50.617188 L 42.21875 51.101563 L 43.796875 51.101563 L 43.796875 52.679688 L 44.265625 52.679688 L 44.265625 51.101563 L 45.84375 51.101563 L 45.84375 50.617188 L 44.265625 50.617188 L 44.265625 49.039063 L 43.796875 49.039063 Z M 43.796875 50.617188 "
       id="path64" />
    <path
       style=" stroke:none;fill-rule:nonzero;fill:rgb(0%,0%,0%);fill-opacity:1;"
       d="M 46.816406 52.679688 L 48.816406 52.679688 L 48.816406 52.570313 C 48.457031 52.585938 48.207031 52.554688 48.207031 52.335938 C 48.207031 52.210938 48.300781 51.945313 48.332031 51.804688 L 49.363281 48.070313 C 49.394531 47.960938 49.425781 47.804688 49.378906 47.804688 C 49.316406 47.804688 48.316406 48.023438 47.972656 48.085938 L 47.972656 48.195313 L 48.394531 48.179688 C 48.457031 48.179688 48.660156 48.179688 48.660156 48.414063 C 48.660156 48.460938 48.628906 48.570313 48.613281 48.648438 L 47.613281 52.195313 C 47.519531 52.507813 47.238281 52.539063 46.816406 52.585938 Z M 46.816406 52.679688 "
       id="path66" />
    <path
       style=" stroke:none;fill-rule:nonzero;fill:rgb(0%,0%,0%);fill-opacity:1;"
       d="M 25.660156 77.828125 C 25.816406 77.421875 25.972656 77.390625 26.253906 77.390625 L 27.300781 77.390625 L 25.066406 80.078125 L 25.128906 80.140625 C 25.222656 80.0625 25.332031 80.015625 25.457031 80.015625 C 25.957031 80.015625 26.472656 80.625 27.019531 80.625 C 27.394531 80.625 27.691406 80.359375 27.691406 80.09375 C 27.691406 79.859375 27.519531 79.828125 27.457031 79.828125 C 27.285156 79.828125 27.207031 79.921875 27.207031 80.046875 C 27.207031 80.203125 27.300781 80.28125 27.300781 80.359375 C 27.300781 80.453125 27.191406 80.484375 27.097656 80.484375 C 27.019531 80.484375 26.894531 80.484375 26.707031 80.234375 C 26.332031 79.765625 26.207031 79.625 25.722656 79.515625 L 27.816406 77.046875 L 27.816406 76.96875 L 25.769531 76.96875 L 25.550781 77.796875 Z M 25.660156 77.828125 "
       id="path68" />
    <path
       style=" stroke:none;fill-rule:nonzero;fill:rgb(0%,0%,0%);fill-opacity:1;"
       d="M 32.132813 77.265625 L 28.507813 77.265625 L 28.507813 77.734375 L 32.132813 77.734375 Z M 32.132813 78.703125 L 28.507813 78.703125 L 28.507813 79.1875 L 32.132813 79.1875 Z M 32.132813 78.703125 "
       id="path70" />
    <path
       style=" stroke:none;fill-rule:nonzero;fill:rgb(0%,0%,0%);fill-opacity:1;"
       d="M 34.773438 78.203125 L 33.195313 78.203125 L 33.101563 78.65625 L 34.679688 78.65625 Z M 34.773438 78.203125 "
       id="path72" />
    <path
       style=" stroke:none;fill-rule:nonzero;fill:rgb(0%,0%,0%);fill-opacity:1;"
       d="M 35.5 80.046875 L 37.5 80.046875 L 37.5 79.9375 C 37.140625 79.953125 36.890625 79.921875 36.890625 79.703125 C 36.890625 79.578125 36.984375 79.3125 37.015625 79.171875 L 38.046875 75.4375 C 38.078125 75.328125 38.109375 75.171875 38.0625 75.171875 C 38 75.171875 37 75.390625 36.65625 75.453125 L 36.65625 75.5625 L 37.078125 75.546875 C 37.140625 75.546875 37.34375 75.546875 37.34375 75.78125 C 37.34375 75.828125 37.3125 75.9375 37.296875 76.015625 L 36.296875 79.5625 C 36.203125 79.875 35.921875 79.90625 35.5 79.953125 Z M 35.5 80.046875 "
       id="path74" />
    <path
       style=" stroke:none;fill-rule:nonzero;fill:rgb(0%,0%,0%);fill-opacity:1;"
       d="M 63.589844 18.289063 C 63.746094 17.882813 63.902344 17.851563 64.183594 17.851563 L 65.230469 17.851563 L 62.996094 20.539063 L 63.058594 20.601563 C 63.152344 20.523438 63.261719 20.476563 63.386719 20.476563 C 63.886719 20.476563 64.402344 21.085938 64.949219 21.085938 C 65.324219 21.085938 65.621094 20.820313 65.621094 20.554688 C 65.621094 20.320313 65.449219 20.289063 65.386719 20.289063 C 65.214844 20.289063 65.136719 20.382813 65.136719 20.507813 C 65.136719 20.664063 65.230469 20.742188 65.230469 20.820313 C 65.230469 20.914063 65.121094 20.945313 65.027344 20.945313 C 64.949219 20.945313 64.824219 20.945313 64.636719 20.695313 C 64.261719 20.226563 64.136719 20.085938 63.652344 19.976563 L 65.746094 17.507813 L 65.746094 17.429688 L 63.699219 17.429688 L 63.480469 18.257813 Z M 63.589844 18.289063 "
       id="path76" />
    <path
       style=" stroke:none;fill-rule:nonzero;fill:rgb(0%,0%,0%);fill-opacity:1;"
       d="M 70.0625 17.726563 L 66.4375 17.726563 L 66.4375 18.195313 L 70.0625 18.195313 Z M 70.0625 19.164063 L 66.4375 19.164063 L 66.4375 19.648438 L 70.0625 19.648438 Z M 70.0625 19.164063 "
       id="path78" />
    <path
       style=" stroke:none;fill-rule:nonzero;fill:rgb(0%,0%,0%);fill-opacity:1;"
       d="M 72.707031 18.664063 L 71.128906 18.664063 L 71.035156 19.117188 L 72.613281 19.117188 Z M 72.707031 18.664063 "
       id="path80" />
    <path
       style=" stroke:none;fill-rule:nonzero;fill:rgb(0%,0%,0%);fill-opacity:1;"
       d="M 73.433594 20.507813 L 75.433594 20.507813 L 75.433594 20.398438 C 75.074219 20.414063 74.824219 20.382813 74.824219 20.164063 C 74.824219 20.039063 74.917969 19.773438 74.949219 19.632813 L 75.980469 15.898438 C 76.011719 15.789063 76.042969 15.632813 75.996094 15.632813 C 75.933594 15.632813 74.933594 15.851563 74.589844 15.914063 L 74.589844 16.023438 L 75.011719 16.007813 C 75.074219 16.007813 75.277344 16.007813 75.277344 16.242188 C 75.277344 16.289063 75.246094 16.398438 75.230469 16.476563 L 74.230469 20.023438 C 74.136719 20.335938 73.855469 20.367188 73.433594 20.414063 Z M 73.433594 20.507813 "
       id="path82" />
    <path
       style=" stroke:none;fill-rule:nonzero;fill:rgb(12.940979%,11.764526%,11.764526%);fill-opacity:1;"
       d="M 94.316406 31.941406 C 96.003906 31.941406 96.363281 32.363281 96.363281 32.878906 C 96.363281 33.347656 96.035156 34.378906 94.550781 34.441406 C 94.113281 34.457031 93.816406 34.769531 93.816406 34.847656 C 93.816406 34.910156 93.847656 34.910156 93.863281 34.910156 C 94.144531 34.941406 94.332031 34.972656 94.863281 36.144531 C 95.269531 37.035156 95.503906 37.394531 96.003906 37.394531 C 97.019531 37.394531 98.035156 36.363281 98.035156 36.160156 C 98.035156 36.113281 97.972656 36.113281 97.941406 36.113281 C 97.785156 36.113281 97.472656 36.269531 97.332031 36.457031 C 97.175781 36.675781 96.988281 36.925781 96.566406 36.925781 C 96.144531 36.925781 95.863281 36.332031 95.582031 35.722656 C 95.316406 35.160156 95.207031 34.941406 95.019531 34.722656 C 96.378906 34.207031 97.097656 33.332031 97.097656 32.519531 C 97.097656 31.472656 95.691406 31.472656 94.347656 31.472656 C 93.410156 31.472656 92.847656 31.472656 92.050781 31.863281 C 91.019531 32.394531 90.941406 33.035156 90.941406 33.035156 C 90.941406 33.066406 90.957031 33.097656 91.035156 33.097656 C 91.175781 33.097656 91.597656 32.910156 91.675781 32.691406 C 91.785156 32.363281 91.910156 31.988281 93.144531 31.941406 C 93.050781 32.925781 92.894531 34.644531 91.847656 37.175781 C 91.800781 37.300781 91.800781 37.332031 91.800781 37.347656 C 91.800781 37.378906 91.847656 37.394531 91.878906 37.394531 C 92.050781 37.394531 92.394531 37.191406 92.503906 37.035156 C 92.503906 37.019531 92.691406 36.628906 92.941406 35.894531 C 93.363281 34.722656 93.707031 33.363281 93.847656 31.941406 Z M 94.316406 31.941406 "
       id="path84" />
    <path
       style=" stroke:none;fill-rule:nonzero;fill:rgb(12.940979%,11.764526%,11.764526%);fill-opacity:1;"
       d="M 99.550781 38.507813 C 99.488281 38.632813 99.425781 38.742188 99.191406 38.742188 L 98.519531 38.742188 L 98.519531 38.710938 L 99.207031 38.023438 C 99.644531 37.585938 99.738281 37.414063 99.738281 37.179688 C 99.738281 36.914063 99.535156 36.585938 99.160156 36.585938 C 99.066406 36.585938 98.597656 36.585938 98.394531 37.148438 L 98.472656 37.179688 C 98.519531 37.085938 98.660156 36.835938 98.988281 36.835938 C 99.269531 36.835938 99.425781 37.054688 99.425781 37.273438 C 99.425781 37.398438 99.410156 37.601563 98.910156 38.148438 L 98.160156 38.945313 L 98.160156 39.007813 L 99.425781 39.007813 L 99.613281 38.539063 Z M 99.550781 38.507813 "
       id="path86" />
    <path
       style=" stroke:none;fill-rule:nonzero;fill:rgb(12.940979%,11.764526%,11.764526%);fill-opacity:1;"
       d="M 35.699219 65.351563 C 37.386719 65.351563 37.746094 65.773438 37.746094 66.289063 C 37.746094 66.757813 37.417969 67.789063 35.933594 67.851563 C 35.496094 67.867188 35.199219 68.179688 35.199219 68.257813 C 35.199219 68.320313 35.230469 68.320313 35.246094 68.320313 C 35.527344 68.351563 35.714844 68.382813 36.246094 69.554688 C 36.652344 70.445313 36.886719 70.804688 37.386719 70.804688 C 38.402344 70.804688 39.417969 69.773438 39.417969 69.570313 C 39.417969 69.523438 39.355469 69.523438 39.324219 69.523438 C 39.167969 69.523438 38.855469 69.679688 38.714844 69.867188 C 38.558594 70.085938 38.371094 70.335938 37.949219 70.335938 C 37.527344 70.335938 37.246094 69.742188 36.964844 69.132813 C 36.699219 68.570313 36.589844 68.351563 36.402344 68.132813 C 37.761719 67.617188 38.480469 66.742188 38.480469 65.929688 C 38.480469 64.882813 37.074219 64.882813 35.730469 64.882813 C 34.792969 64.882813 34.230469 64.882813 33.433594 65.273438 C 32.402344 65.804688 32.324219 66.445313 32.324219 66.445313 C 32.324219 66.476563 32.339844 66.507813 32.417969 66.507813 C 32.558594 66.507813 32.980469 66.320313 33.058594 66.101563 C 33.167969 65.773438 33.292969 65.398438 34.527344 65.351563 C 34.433594 66.335938 34.277344 68.054688 33.230469 70.585938 C 33.183594 70.710938 33.183594 70.742188 33.183594 70.757813 C 33.183594 70.789063 33.230469 70.804688 33.261719 70.804688 C 33.433594 70.804688 33.777344 70.601563 33.886719 70.445313 C 33.886719 70.429688 34.074219 70.039063 34.324219 69.304688 C 34.746094 68.132813 35.089844 66.773438 35.230469 65.351563 Z M 35.699219 65.351563 "
       id="path88" />
    <path
       style=" stroke:none;fill-rule:nonzero;fill:rgb(12.940979%,11.764526%,11.764526%);fill-opacity:1;"
       d="M 40.929688 71.917969 C 40.867188 72.042969 40.804688 72.152344 40.570313 72.152344 L 39.898438 72.152344 L 39.898438 72.121094 L 40.585938 71.433594 C 41.023438 70.996094 41.117188 70.824219 41.117188 70.589844 C 41.117188 70.324219 40.914063 69.996094 40.539063 69.996094 C 40.445313 69.996094 39.976563 69.996094 39.773438 70.558594 L 39.851563 70.589844 C 39.898438 70.496094 40.039063 70.246094 40.367188 70.246094 C 40.648438 70.246094 40.804688 70.464844 40.804688 70.683594 C 40.804688 70.808594 40.789063 71.011719 40.289063 71.558594 L 39.539063 72.355469 L 39.539063 72.417969 L 40.804688 72.417969 L 40.992188 71.949219 Z M 40.929688 71.917969 "
       id="path90" />
    <path
       style=" stroke:none;fill-rule:nonzero;fill:rgb(86.273193%,14.901733%,13.725281%);fill-opacity:1;"
       d="M 63.90625 43.945313 C 65.59375 43.945313 65.953125 44.367188 65.953125 44.882813 C 65.953125 45.351563 65.625 46.382813 64.140625 46.445313 C 63.703125 46.460938 63.40625 46.773438 63.40625 46.851563 C 63.40625 46.914063 63.4375 46.914063 63.453125 46.914063 C 63.734375 46.945313 63.921875 46.976563 64.453125 48.148438 C 64.859375 49.039063 65.09375 49.398438 65.59375 49.398438 C 66.609375 49.398438 67.625 48.367188 67.625 48.164063 C 67.625 48.117188 67.5625 48.117188 67.53125 48.117188 C 67.375 48.117188 67.0625 48.273438 66.921875 48.460938 C 66.765625 48.679688 66.578125 48.929688 66.15625 48.929688 C 65.734375 48.929688 65.453125 48.335938 65.171875 47.726563 C 64.90625 47.164063 64.796875 46.945313 64.609375 46.726563 C 65.96875 46.210938 66.6875 45.335938 66.6875 44.523438 C 66.6875 43.476563 65.28125 43.476563 63.9375 43.476563 C 63 43.476563 62.4375 43.476563 61.640625 43.867188 C 60.609375 44.398438 60.53125 45.039063 60.53125 45.039063 C 60.53125 45.070313 60.546875 45.101563 60.625 45.101563 C 60.765625 45.101563 61.1875 44.914063 61.265625 44.695313 C 61.375 44.367188 61.5 43.992188 62.734375 43.945313 C 62.640625 44.929688 62.484375 46.648438 61.4375 49.179688 C 61.390625 49.304688 61.390625 49.335938 61.390625 49.351563 C 61.390625 49.382813 61.4375 49.398438 61.46875 49.398438 C 61.640625 49.398438 61.984375 49.195313 62.09375 49.039063 C 62.09375 49.023438 62.28125 48.632813 62.53125 47.898438 C 62.953125 46.726563 63.296875 45.367188 63.4375 43.945313 Z M 63.90625 43.945313 "
       id="path92" />
    <path
       style=" stroke:none;fill-rule:nonzero;fill:rgb(86.273193%,14.901733%,13.725281%);fill-opacity:1;"
       d="M 67.875 51.011719 L 68.875 51.011719 L 68.875 50.964844 C 68.703125 50.964844 68.578125 50.949219 68.578125 50.839844 C 68.578125 50.777344 68.625 50.652344 68.640625 50.574219 L 69.15625 48.714844 C 69.171875 48.652344 69.1875 48.589844 69.15625 48.589844 C 69.125 48.589844 68.625 48.683594 68.46875 48.714844 L 68.46875 48.777344 L 68.671875 48.761719 C 68.703125 48.761719 68.796875 48.761719 68.796875 48.886719 C 68.796875 48.902344 68.78125 48.964844 68.78125 48.996094 L 68.28125 50.761719 C 68.234375 50.933594 68.09375 50.933594 67.875 50.964844 Z M 67.875 51.011719 "
       id="path94" />
    <path
       style=" stroke:none;fill-rule:nonzero;fill:rgb(100%,0%,0%);fill-opacity:1;"
       d="M 85.765625 97.019531 C 87.640625 97.019531 89.160156 95.5 89.160156 93.625 C 89.160156 91.75 87.640625 90.230469 85.765625 90.230469 C 83.890625 90.230469 82.371094 91.75 82.371094 93.625 C 82.371094 95.5 83.890625 97.019531 85.765625 97.019531 "
       id="path96" />
    <path
       style=" stroke:none;fill-rule:nonzero;fill:rgb(100%,0%,0%);fill-opacity:1;"
       d="M 19.746094 27.996094 C 21.621094 27.996094 23.140625 26.476563 23.140625 24.601563 C 23.140625 22.726563 21.621094 21.207031 19.746094 21.207031 C 17.871094 21.207031 16.351563 22.726563 16.351563 24.601563 C 16.351563 26.476563 17.871094 27.996094 19.746094 27.996094 "
       id="path98" />
  </g>
</svg>
