<?xml version="1.0" encoding="UTF-8" standalone="no"?>
<svg
   xmlns:dc="http://purl.org/dc/elements/1.1/"
   xmlns:cc="http://creativecommons.org/ns#"
   xmlns:rdf="http://www.w3.org/1999/02/22-rdf-syntax-ns#"
   xmlns:svg="http://www.w3.org/2000/svg"
   xmlns="http://www.w3.org/2000/svg"
   xmlns:sodipodi="http://sodipodi.sourceforge.net/DTD/sodipodi-0.dtd"
   xmlns:inkscape="http://www.inkscape.org/namespaces/inkscape"
   width="230.253311pt"
   height="144.656464pt"
   viewBox="0 0 230.253311 144.656464"
   version="1.2"
   id="svg192"
   sodipodi:docname="decisiontree_simple.svg"
   inkscape:version="0.92.4 (5da689c313, 2019-01-14)">
  <metadata
     id="metadata196">
    <rdf:RDF>
      <cc:Work
         rdf:about="">
        <dc:format>image/svg+xml</dc:format>
        <dc:type
           rdf:resource="http://purl.org/dc/dcmitype/StillImage" />
        <dc:title></dc:title>
      </cc:Work>
    </rdf:RDF>
  </metadata>
  <sodipodi:namedview
     pagecolor="#ffffff"
     bordercolor="#666666"
     borderopacity="1"
     objecttolerance="10"
     gridtolerance="10"
     guidetolerance="10"
     inkscape:pageopacity="0"
     inkscape:pageshadow="2"
     inkscape:window-width="661"
     inkscape:window-height="480"
     id="namedview194"
     showgrid="false"
     inkscape:zoom="1.0227866"
     inkscape:cx="153.50221"
     inkscape:cy="96.437642"
     inkscape:window-x="0"
     inkscape:window-y="0"
     inkscape:window-maximized="0"
     inkscape:current-layer="svg192" />
  <defs
     id="defs35">
    <clipPath
       id="clip1">
      <path
         d="M 28 143 L 30 143 L 30 144.65625 L 28 144.65625 Z M 28 143 "
         id="path2" />
    </clipPath>
    <clipPath
       id="clip2">
      <path
         d="M 30 140 L 34 140 L 34 144.65625 L 30 144.65625 Z M 30 140 "
         id="path5" />
    </clipPath>
    <clipPath
       id="clip3">
      <path
         d="M 51 143 L 53 143 L 53 144.65625 L 51 144.65625 Z M 51 143 "
         id="path8" />
    </clipPath>
    <clipPath
       id="clip4">
      <path
         d="M 53 140 L 57 140 L 57 144.65625 L 53 144.65625 Z M 53 140 "
         id="path11" />
    </clipPath>
    <clipPath
       id="clip5">
      <path
         d="M 74 143 L 76 143 L 76 144.65625 L 74 144.65625 Z M 74 143 "
         id="path14" />
    </clipPath>
    <clipPath
       id="clip6">
      <path
         d="M 76 140 L 80 140 L 80 144.65625 L 76 144.65625 Z M 76 140 "
         id="path17" />
    </clipPath>
    <clipPath
       id="clip7">
      <path
         d="M 97 143 L 98 143 L 98 144.65625 L 97 144.65625 Z M 97 143 "
         id="path20" />
    </clipPath>
    <clipPath
       id="clip8">
      <path
         d="M 98 140 L 102 140 L 102 144.65625 L 98 144.65625 Z M 98 140 "
         id="path23" />
    </clipPath>
    <clipPath
       id="clip9">
      <path
         d="M 121 140 L 124 140 L 124 144.65625 L 121 144.65625 Z M 121 140 "
         id="path26" />
    </clipPath>
    <clipPath
       id="clip10">
      <path
         d="M 227 24 L 230.253906 24 L 230.253906 29 L 227 29 Z M 227 24 "
         id="path29" />
    </clipPath>
    <clipPath
       id="clip11">
      <path
         d="M 227 55 L 230.253906 55 L 230.253906 60 L 227 60 Z M 227 55 "
         id="path32" />
    </clipPath>
  </defs>
  <g
     id="surface36">
    <path
       style=" stroke:none;fill-rule:nonzero;fill:rgb(100%,76.077271%,76.077271%);fill-opacity:1;"
       d="M 8.167969 124.046875 L 8.167969 135.460938 L 128.800781 135.460938 L 128.460938 9.816406 L 103.261719 9.9375 L 8.167969 124.046875 "
       id="path37" />
    <path
       style="fill:none;stroke-width:0.251;stroke-linecap:round;stroke-linejoin:round;stroke:rgb(0%,0%,0%);stroke-opacity:1;stroke-miterlimit:4;"
       d="M 30.988281 135.460938 L 30.988281 134.675781 "
       id="path39" />
    <g
       clip-path="url(#clip1)"
       clip-rule="nonzero"
       id="g43">
      <path
         style=" stroke:none;fill-rule:nonzero;fill:rgb(12.940979%,11.764526%,11.764526%);fill-opacity:1;"
         d="M 29.144531 144.65625 C 29.285156 144.65625 29.503906 144.5625 29.503906 144.328125 C 29.503906 144.125 29.332031 143.96875 29.144531 143.96875 C 28.957031 143.96875 28.800781 144.125 28.800781 144.328125 C 28.800781 144.5625 29.019531 144.65625 29.144531 144.65625 Z M 29.144531 144.65625 "
         id="path41" />
    </g>
    <g
       clip-path="url(#clip2)"
       clip-rule="nonzero"
       id="g47">
      <path
         style=" stroke:none;fill-rule:nonzero;fill:rgb(12.940979%,11.764526%,11.764526%);fill-opacity:1;"
         d="M 32.71875 143.71875 C 32.609375 143.9375 32.515625 144.109375 32.09375 144.109375 L 30.90625 144.109375 L 30.90625 144.078125 L 32.109375 142.875 C 32.890625 142.09375 33.046875 141.8125 33.046875 141.390625 C 33.046875 140.921875 32.703125 140.34375 32.03125 140.34375 C 31.875 140.34375 31.046875 140.359375 30.703125 141.34375 L 30.84375 141.390625 C 30.921875 141.234375 31.171875 140.796875 31.734375 140.796875 C 32.21875 140.796875 32.5 141.171875 32.5 141.5625 C 32.5 141.765625 32.484375 142.140625 31.59375 143.078125 L 30.28125 144.484375 L 30.28125 144.59375 L 32.515625 144.59375 L 32.828125 143.765625 Z M 32.71875 143.71875 "
         id="path45" />
    </g>
    <path
       style="fill:none;stroke-width:0.251;stroke-linecap:round;stroke-linejoin:round;stroke:rgb(0%,0%,0%);stroke-opacity:1;stroke-miterlimit:4;"
       d="M 53.8125 135.460938 L 53.8125 134.675781 "
       id="path49" />
    <g
       clip-path="url(#clip3)"
       clip-rule="nonzero"
       id="g53">
      <path
         style=" stroke:none;fill-rule:nonzero;fill:rgb(12.940979%,11.764526%,11.764526%);fill-opacity:1;"
         d="M 51.96875 144.65625 C 52.109375 144.65625 52.328125 144.5625 52.328125 144.328125 C 52.328125 144.125 52.15625 143.96875 51.96875 143.96875 C 51.78125 143.96875 51.625 144.125 51.625 144.328125 C 51.625 144.5625 51.84375 144.65625 51.96875 144.65625 Z M 51.96875 144.65625 "
         id="path51" />
    </g>
    <g
       clip-path="url(#clip4)"
       clip-rule="nonzero"
       id="g57">
      <path
         style=" stroke:none;fill-rule:nonzero;fill:rgb(12.940979%,11.764526%,11.764526%);fill-opacity:1;"
         d="M 54.777344 143.078125 L 53.433594 143.078125 L 53.433594 143.046875 L 55.355469 141.046875 L 55.371094 141.046875 Z M 55.886719 143.078125 L 55.277344 143.078125 L 56.042969 140.34375 L 55.792969 140.34375 L 53.152344 143.046875 L 53.027344 143.46875 L 54.683594 143.46875 L 54.371094 144.59375 L 54.871094 144.59375 L 55.167969 143.484375 L 55.792969 143.484375 Z M 55.886719 143.078125 "
         id="path55" />
    </g>
    <path
       style="fill:none;stroke-width:0.251;stroke-linecap:round;stroke-linejoin:round;stroke:rgb(0%,0%,0%);stroke-opacity:1;stroke-miterlimit:4;"
       d="M 76.632813 135.460938 L 76.632813 134.675781 "
       id="path59" />
    <g
       clip-path="url(#clip5)"
       clip-rule="nonzero"
       id="g63">
      <path
         style=" stroke:none;fill-rule:nonzero;fill:rgb(12.940979%,11.764526%,11.764526%);fill-opacity:1;"
         d="M 74.789063 144.65625 C 74.929688 144.65625 75.148438 144.5625 75.148438 144.328125 C 75.148438 144.125 74.976563 143.96875 74.789063 143.96875 C 74.601563 143.96875 74.445313 144.125 74.445313 144.328125 C 74.445313 144.5625 74.664063 144.65625 74.789063 144.65625 Z M 74.789063 144.65625 "
         id="path61" />
    </g>
    <g
       clip-path="url(#clip6)"
       clip-rule="nonzero"
       id="g67">
      <path
         style=" stroke:none;fill-rule:nonzero;fill:rgb(12.940979%,11.764526%,11.764526%);fill-opacity:1;"
         d="M 79.128906 140.28125 C 77.207031 140.390625 76.035156 141.96875 76.035156 143.265625 C 76.035156 144.296875 76.660156 144.640625 77.175781 144.640625 C 78.238281 144.640625 78.753906 143.578125 78.753906 142.9375 C 78.753906 142.046875 78.113281 141.78125 77.691406 141.78125 C 77.582031 141.78125 77.488281 141.796875 77.394531 141.8125 C 77.300781 141.828125 77.207031 141.875 77.128906 141.90625 L 77.097656 141.90625 C 77.253906 141.578125 78.019531 140.515625 79.128906 140.375 Z M 77.441406 142 C 77.925781 142 78.191406 142.3125 78.191406 142.828125 C 78.191406 143.390625 77.847656 144.46875 77.128906 144.46875 C 76.519531 144.46875 76.519531 143.765625 76.519531 143.609375 C 76.519531 143.5 76.582031 142 77.441406 142 Z M 77.441406 142 "
         id="path65" />
    </g>
    <path
       style="fill:none;stroke-width:0.251;stroke-linecap:round;stroke-linejoin:round;stroke:rgb(0%,0%,0%);stroke-opacity:1;stroke-miterlimit:4;"
       d="M 99.457031 135.460938 L 99.457031 134.675781 "
       id="path69" />
    <g
       clip-path="url(#clip7)"
       clip-rule="nonzero"
       id="g73">
      <path
         style=" stroke:none;fill-rule:nonzero;fill:rgb(12.940979%,11.764526%,11.764526%);fill-opacity:1;"
         d="M 97.609375 144.65625 C 97.75 144.65625 97.96875 144.5625 97.96875 144.328125 C 97.96875 144.125 97.796875 143.96875 97.609375 143.96875 C 97.421875 143.96875 97.265625 144.125 97.265625 144.328125 C 97.265625 144.5625 97.484375 144.65625 97.609375 144.65625 Z M 97.609375 144.65625 "
         id="path71" />
    </g>
    <g
       clip-path="url(#clip8)"
       clip-rule="nonzero"
       id="g77">
      <path
         style=" stroke:none;fill-rule:nonzero;fill:rgb(12.940979%,11.764526%,11.764526%);fill-opacity:1;"
         d="M 98.859375 143.609375 C 98.859375 143.796875 99 144.640625 100.125 144.640625 C 100.96875 144.640625 101.46875 144.078125 101.46875 143.53125 C 101.46875 143.046875 101.21875 142.65625 100.75 142.1875 C 101.09375 142.078125 101.78125 141.84375 101.78125 141.234375 C 101.78125 140.546875 101.09375 140.34375 100.6875 140.34375 C 100.09375 140.34375 99.546875 140.640625 99.546875 141.296875 C 99.546875 141.625 99.703125 141.921875 100.09375 142.328125 C 99.9375 142.375 98.859375 142.6875 98.859375 143.609375 Z M 99.28125 143.625 C 99.28125 142.828125 100.0625 142.484375 100.234375 142.421875 C 100.84375 143.0625 101 143.21875 101 143.625 C 101 144.234375 100.5 144.5 100.171875 144.5 C 99.625 144.5 99.28125 144.125 99.28125 143.625 Z M 100.03125 141.1875 C 100.03125 140.765625 100.265625 140.484375 100.671875 140.484375 C 101.1875 140.484375 101.34375 140.921875 101.34375 141.21875 C 101.34375 141.734375 100.96875 141.921875 100.625 142.078125 C 100.03125 141.546875 100.03125 141.34375 100.03125 141.1875 Z M 100.03125 141.1875 "
         id="path75" />
    </g>
    <path
       style="fill:none;stroke-width:0.251;stroke-linecap:round;stroke-linejoin:round;stroke:rgb(0%,0%,0%);stroke-opacity:1;stroke-miterlimit:4;"
       d="M 122.277344 135.460938 L 122.277344 134.675781 "
       id="path79" />
    <g
       clip-path="url(#clip9)"
       clip-rule="nonzero"
       id="g83">
      <path
         style=" stroke:none;fill-rule:nonzero;fill:rgb(12.940979%,11.764526%,11.764526%);fill-opacity:1;"
         d="M 121.019531 144.59375 L 122.769531 144.59375 L 122.769531 144.5 C 122.457031 144.5 122.238281 144.484375 122.238281 144.296875 C 122.238281 144.1875 122.316406 143.953125 122.347656 143.828125 L 123.238281 140.5625 C 123.269531 140.46875 123.300781 140.34375 123.253906 140.34375 C 123.207031 140.34375 122.332031 140.53125 122.035156 140.578125 L 122.035156 140.671875 L 122.394531 140.65625 C 122.457031 140.65625 122.628906 140.65625 122.628906 140.859375 C 122.628906 140.90625 122.613281 141 122.582031 141.0625 L 121.722656 144.171875 C 121.644531 144.453125 121.394531 144.46875 121.019531 144.5 Z M 121.019531 144.59375 "
         id="path81" />
    </g>
    <path
       style="fill:none;stroke-width:0.125;stroke-linecap:round;stroke-linejoin:round;stroke:rgb(0%,0%,0%);stroke-opacity:1;stroke-miterlimit:4;"
       d="M 12.730469 135.460938 L 12.730469 134.988281 M 17.296875 135.460938 L 17.296875 134.988281 M 21.859375 135.460938 L 21.859375 134.988281 M 26.425781 135.460938 L 26.425781 134.988281 M 35.554688 135.460938 L 35.554688 134.988281 M 40.117188 135.460938 L 40.117188 134.988281 M 44.683594 135.460938 L 44.683594 134.988281 M 49.246094 135.460938 L 49.246094 134.988281 M 58.375 135.460938 L 58.375 134.988281 M 62.941406 135.460938 L 62.941406 134.988281 M 67.507813 135.460938 L 67.507813 134.988281 M 72.070313 135.460938 L 72.070313 134.988281 M 81.199219 135.460938 L 81.199219 134.988281 M 85.761719 135.460938 L 85.761719 134.988281 M 90.328125 135.460938 L 90.328125 134.988281 M 94.890625 135.460938 L 94.890625 134.988281 M 104.019531 135.460938 L 104.019531 134.988281 M 108.585938 135.460938 L 108.585938 134.988281 M 113.148438 135.460938 L 113.148438 134.988281 M 117.714844 135.460938 L 117.714844 134.988281 M 126.84375 135.460938 L 126.84375 134.988281 M 131.40625 135.460938 L 131.40625 134.988281 "
       id="path85" />
    <path
       style="fill:none;stroke-width:0.63;stroke-linecap:round;stroke-linejoin:round;stroke:rgb(0%,0%,0%);stroke-opacity:1;stroke-miterlimit:4;"
       d="M 8.167969 135.460938 L 133.691406 135.460938 "
       id="path87" />
    <path
       style=" stroke:none;fill-rule:nonzero;fill:rgb(0%,0%,0%);fill-opacity:1;"
       d="M 135.179688 134.8125 C 134.136719 134.5 133.460938 134.210938 132.625 133.875 L 132.625 137.050781 C 132.921875 136.910156 134.136719 136.425781 135.179688 136.113281 C 136.292969 135.773438 137.304688 135.546875 137.960938 135.464844 C 137.304688 135.382813 136.292969 135.148438 135.179688 134.8125 "
       id="path89" />
    <path
       style="fill:none;stroke-width:0.251;stroke-linecap:round;stroke-linejoin:round;stroke:rgb(0%,0%,0%);stroke-opacity:1;stroke-miterlimit:4;"
       d="M 8.167969 135.460938 L 8.953125 135.460938 "
       id="path91" />
    <path
       style=" stroke:none;fill-rule:nonzero;fill:rgb(12.940979%,11.764526%,11.764526%);fill-opacity:1;"
       d="M 1.320313 136.679688 C 1.320313 136.070313 1.773438 133.585938 2.710938 133.585938 C 3.242188 133.585938 3.242188 134.226563 3.242188 134.414063 C 3.242188 135.523438 2.710938 137.539063 1.867188 137.539063 C 1.664063 137.539063 1.320313 137.414063 1.320313 136.679688 Z M 3.742188 134.976563 C 3.742188 134.367188 3.570313 133.414063 2.742188 133.414063 C 1.867188 133.414063 0.820313 134.710938 0.820313 136.398438 C 0.820313 137.054688 1.179688 137.710938 1.835938 137.710938 C 2.882813 137.710938 3.742188 136.226563 3.742188 134.976563 Z M 3.742188 134.976563 "
       id="path93" />
    <path
       style="fill:none;stroke-width:0.251;stroke-linecap:round;stroke-linejoin:round;stroke:rgb(0%,0%,0%);stroke-opacity:1;stroke-miterlimit:4;"
       d="M 8.167969 112.636719 L 8.953125 112.636719 "
       id="path95" />
    <path
       style=" stroke:none;fill-rule:nonzero;fill:rgb(12.940979%,11.764526%,11.764526%);fill-opacity:1;"
       d="M 0.34375 114.90625 C 0.484375 114.90625 0.703125 114.8125 0.703125 114.578125 C 0.703125 114.375 0.53125 114.21875 0.34375 114.21875 C 0.15625 114.21875 0 114.375 0 114.578125 C 0 114.8125 0.21875 114.90625 0.34375 114.90625 Z M 0.34375 114.90625 "
       id="path97" />
    <path
       style=" stroke:none;fill-rule:nonzero;fill:rgb(12.940979%,11.764526%,11.764526%);fill-opacity:1;"
       d="M 3.917969 113.96875 C 3.808594 114.1875 3.714844 114.359375 3.292969 114.359375 L 2.105469 114.359375 L 2.105469 114.328125 L 3.308594 113.125 C 4.089844 112.34375 4.246094 112.0625 4.246094 111.640625 C 4.246094 111.171875 3.902344 110.59375 3.230469 110.59375 C 3.074219 110.59375 2.246094 110.609375 1.902344 111.59375 L 2.042969 111.640625 C 2.121094 111.484375 2.371094 111.046875 2.933594 111.046875 C 3.417969 111.046875 3.699219 111.421875 3.699219 111.8125 C 3.699219 112.015625 3.683594 112.390625 2.792969 113.328125 L 1.480469 114.734375 L 1.480469 114.84375 L 3.714844 114.84375 L 4.027344 114.015625 Z M 3.917969 113.96875 "
       id="path99" />
    <path
       style="fill:none;stroke-width:0.251;stroke-linecap:round;stroke-linejoin:round;stroke:rgb(0%,0%,0%);stroke-opacity:1;stroke-miterlimit:4;"
       d="M 8.167969 89.8125 L 8.953125 89.8125 "
       id="path101" />
    <path
       style=" stroke:none;fill-rule:nonzero;fill:rgb(12.940979%,11.764526%,11.764526%);fill-opacity:1;"
       d="M 0.34375 92.082031 C 0.484375 92.082031 0.703125 91.988281 0.703125 91.753906 C 0.703125 91.550781 0.53125 91.394531 0.34375 91.394531 C 0.15625 91.394531 0 91.550781 0 91.753906 C 0 91.988281 0.21875 92.082031 0.34375 92.082031 Z M 0.34375 92.082031 "
       id="path103" />
    <path
       style=" stroke:none;fill-rule:nonzero;fill:rgb(12.940979%,11.764526%,11.764526%);fill-opacity:1;"
       d="M 3.152344 90.503906 L 1.808594 90.503906 L 1.808594 90.472656 L 3.730469 88.472656 L 3.746094 88.472656 Z M 4.261719 90.503906 L 3.652344 90.503906 L 4.417969 87.769531 L 4.167969 87.769531 L 1.527344 90.472656 L 1.402344 90.894531 L 3.058594 90.894531 L 2.746094 92.019531 L 3.246094 92.019531 L 3.542969 90.910156 L 4.167969 90.910156 Z M 4.261719 90.503906 "
       id="path105" />
    <path
       style="fill:none;stroke-width:0.251;stroke-linecap:round;stroke-linejoin:round;stroke:rgb(0%,0%,0%);stroke-opacity:1;stroke-miterlimit:4;"
       d="M 8.167969 66.992188 L 8.953125 66.992188 "
       id="path107" />
    <path
       style=" stroke:none;fill-rule:nonzero;fill:rgb(12.940979%,11.764526%,11.764526%);fill-opacity:1;"
       d="M 0.34375 69.261719 C 0.484375 69.261719 0.703125 69.167969 0.703125 68.933594 C 0.703125 68.730469 0.53125 68.574219 0.34375 68.574219 C 0.15625 68.574219 0 68.730469 0 68.933594 C 0 69.167969 0.21875 69.261719 0.34375 69.261719 Z M 0.34375 69.261719 "
       id="path109" />
    <path
       style=" stroke:none;fill-rule:nonzero;fill:rgb(12.940979%,11.764526%,11.764526%);fill-opacity:1;"
       d="M 4.683594 64.886719 C 2.761719 64.996094 1.589844 66.574219 1.589844 67.871094 C 1.589844 68.902344 2.214844 69.246094 2.730469 69.246094 C 3.792969 69.246094 4.308594 68.183594 4.308594 67.542969 C 4.308594 66.652344 3.667969 66.386719 3.246094 66.386719 C 3.136719 66.386719 3.042969 66.402344 2.949219 66.417969 C 2.855469 66.433594 2.761719 66.480469 2.683594 66.511719 L 2.652344 66.511719 C 2.808594 66.183594 3.574219 65.121094 4.683594 64.980469 Z M 2.996094 66.605469 C 3.480469 66.605469 3.746094 66.917969 3.746094 67.433594 C 3.746094 67.996094 3.402344 69.074219 2.683594 69.074219 C 2.074219 69.074219 2.074219 68.371094 2.074219 68.214844 C 2.074219 68.105469 2.136719 66.605469 2.996094 66.605469 Z M 2.996094 66.605469 "
       id="path111" />
    <path
       style="fill:none;stroke-width:0.251;stroke-linecap:round;stroke-linejoin:round;stroke:rgb(0%,0%,0%);stroke-opacity:1;stroke-miterlimit:4;"
       d="M 8.167969 44.171875 L 8.953125 44.171875 "
       id="path113" />
    <path
       style=" stroke:none;fill-rule:nonzero;fill:rgb(12.940979%,11.764526%,11.764526%);fill-opacity:1;"
       d="M 0.34375 46.4375 C 0.484375 46.4375 0.703125 46.34375 0.703125 46.109375 C 0.703125 45.90625 0.53125 45.75 0.34375 45.75 C 0.15625 45.75 0 45.90625 0 46.109375 C 0 46.34375 0.21875 46.4375 0.34375 46.4375 Z M 0.34375 46.4375 "
       id="path115" />
    <path
       style=" stroke:none;fill-rule:nonzero;fill:rgb(12.940979%,11.764526%,11.764526%);fill-opacity:1;"
       d="M 1.589844 45.390625 C 1.589844 45.578125 1.730469 46.421875 2.855469 46.421875 C 3.699219 46.421875 4.199219 45.859375 4.199219 45.3125 C 4.199219 44.828125 3.949219 44.4375 3.480469 43.96875 C 3.824219 43.859375 4.511719 43.625 4.511719 43.015625 C 4.511719 42.328125 3.824219 42.125 3.417969 42.125 C 2.824219 42.125 2.277344 42.421875 2.277344 43.078125 C 2.277344 43.40625 2.433594 43.703125 2.824219 44.109375 C 2.667969 44.15625 1.589844 44.46875 1.589844 45.390625 Z M 2.011719 45.40625 C 2.011719 44.609375 2.792969 44.265625 2.964844 44.203125 C 3.574219 44.84375 3.730469 45 3.730469 45.40625 C 3.730469 46.015625 3.230469 46.28125 2.902344 46.28125 C 2.355469 46.28125 2.011719 45.90625 2.011719 45.40625 Z M 2.761719 42.96875 C 2.761719 42.546875 2.996094 42.265625 3.402344 42.265625 C 3.917969 42.265625 4.074219 42.703125 4.074219 43 C 4.074219 43.515625 3.699219 43.703125 3.355469 43.859375 C 2.761719 43.328125 2.761719 43.125 2.761719 42.96875 Z M 2.761719 42.96875 "
       id="path117" />
    <path
       style="fill:none;stroke-width:0.251;stroke-linecap:round;stroke-linejoin:round;stroke:rgb(0%,0%,0%);stroke-opacity:1;stroke-miterlimit:4;"
       d="M 8.167969 21.347656 L 8.953125 21.347656 "
       id="path119" />
    <path
       style=" stroke:none;fill-rule:nonzero;fill:rgb(12.940979%,11.764526%,11.764526%);fill-opacity:1;"
       d="M 0.929688 23.554688 L 2.679688 23.554688 L 2.679688 23.460938 C 2.367188 23.460938 2.148438 23.445313 2.148438 23.257813 C 2.148438 23.148438 2.226563 22.914063 2.257813 22.789063 L 3.148438 19.523438 C 3.179688 19.429688 3.210938 19.304688 3.164063 19.304688 C 3.117188 19.304688 2.242188 19.492188 1.945313 19.539063 L 1.945313 19.632813 L 2.304688 19.617188 C 2.367188 19.617188 2.539063 19.617188 2.539063 19.820313 C 2.539063 19.867188 2.523438 19.960938 2.492188 20.023438 L 1.632813 23.132813 C 1.554688 23.414063 1.304688 23.429688 0.929688 23.460938 Z M 0.929688 23.554688 "
       id="path121" />
    <path
       style="fill:none;stroke-width:0.125;stroke-linecap:round;stroke-linejoin:round;stroke:rgb(0%,0%,0%);stroke-opacity:1;stroke-miterlimit:4;"
       d="M 8.167969 130.894531 L 8.636719 130.894531 M 8.167969 126.328125 L 8.636719 126.328125 M 8.167969 121.765625 L 8.636719 121.765625 M 8.167969 117.203125 L 8.636719 117.203125 M 8.167969 108.074219 L 8.636719 108.074219 M 8.167969 103.507813 L 8.636719 103.507813 M 8.167969 98.945313 L 8.636719 98.945313 M 8.167969 94.378906 L 8.636719 94.378906 M 8.167969 85.25 L 8.636719 85.25 M 8.167969 80.6875 L 8.636719 80.6875 M 8.167969 76.121094 L 8.636719 76.121094 M 8.167969 71.558594 L 8.636719 71.558594 M 8.167969 62.429688 L 8.636719 62.429688 M 8.167969 57.863281 L 8.636719 57.863281 M 8.167969 53.300781 L 8.636719 53.300781 M 8.167969 48.734375 L 8.636719 48.734375 M 8.167969 39.605469 L 8.636719 39.605469 M 8.167969 35.039063 L 8.636719 35.039063 M 8.167969 30.476563 L 8.636719 30.476563 M 8.167969 25.910156 L 8.636719 25.910156 M 8.167969 16.785156 L 8.636719 16.785156 M 8.167969 12.21875 L 8.636719 12.21875 "
       id="path123" />
    <path
       style="fill:none;stroke-width:0.63;stroke-linecap:round;stroke-linejoin:round;stroke:rgb(0%,0%,0%);stroke-opacity:1;stroke-miterlimit:4;"
       d="M 8.167969 135.460938 L 8.167969 9.9375 "
       id="path125" />
    <path
       style=" stroke:none;fill-rule:nonzero;fill:rgb(0%,0%,0%);fill-opacity:1;"
       d="M 7.523438 8.449219 C 7.207031 9.488281 6.917969 10.167969 6.582031 11.003906 L 9.761719 11.003906 C 9.617188 10.703125 9.136719 9.488281 8.820313 8.449219 C 8.484375 7.335938 8.253906 6.324219 8.171875 5.667969 C 8.089844 6.324219 7.859375 7.335938 7.523438 8.449219 "
       id="path127" />
    <path
       style="fill:none;stroke-width:2.51;stroke-linecap:round;stroke-linejoin:round;stroke:rgb(0%,0%,0%);stroke-opacity:1;stroke-miterlimit:4;"
       d="M 14.535156 108.558594 L 14.535156 108.558594 M 15.003906 94.953125 L 15.003906 94.953125 M 20.140625 96.464844 L 20.140625 96.464844 M 24.808594 94.953125 L 24.808594 94.953125 M 25.742188 84.375 L 25.742188 84.375 M 29.015625 81.351563 L 29.015625 81.351563 M 35.085938 80.597656 L 35.085938 80.597656 M 36.953125 76.0625 L 36.953125 76.0625 M 51.898438 62.460938 L 51.898438 62.460938 M 57.972656 52.636719 L 57.972656 52.636719 M 47.695313 54.902344 L 47.695313 54.902344 M 37.421875 63.214844 L 37.421875 63.214844 M 26.210938 68.503906 L 26.210938 68.503906 M 25.742188 60.945313 L 25.742188 60.945313 M 35.554688 53.390625 L 35.554688 53.390625 M 64.976563 45.832031 L 64.976563 45.832031 M 75.253906 32.988281 L 75.253906 32.988281 M 64.976563 30.71875 L 64.976563 30.71875 M 56.570313 39.785156 L 56.570313 39.785156 M 89.730469 18.242188 L 89.730469 18.242188 M 79.453125 20.140625 L 79.453125 20.140625 M 72.449219 24.671875 L 72.449219 24.671875 M 69.179688 20.894531 L 69.179688 20.894531 M 43.960938 33.742188 L 43.960938 33.742188 "
       id="path129" />
    <path
       style="fill:none;stroke-width:2.51;stroke-linecap:round;stroke-linejoin:round;stroke:rgb(100%,0%,0%);stroke-opacity:1;stroke-miterlimit:4;"
       d="M 18.273438 117.625 L 18.273438 117.625 M 27.144531 110.824219 L 27.144531 110.824219 M 33.683594 101.753906 L 33.683594 101.753906 M 39.496094 92.6875 L 39.496094 92.6875 M 44.425781 93.441406 L 44.425781 93.441406 M 54.234375 79.085938 L 54.234375 79.085938 M 61.242188 78.328125 L 61.242188 78.328125 M 66.378906 71.527344 L 66.378906 71.527344 M 72.449219 61.703125 L 72.449219 61.703125 M 80.390625 45.832031 L 80.390625 45.832031 M 87.863281 42.054688 L 87.863281 42.054688 M 93.46875 42.871094 L 93.46875 42.871094 M 51.433594 91.175781 L 51.433594 91.175781 M 41.15625 105.535156 L 41.15625 105.535156 M 48.164063 86.640625 L 48.164063 86.640625 M 76.1875 52.636719 L 76.1875 52.636719 M 73.382813 73.039063 L 73.382813 73.039063 M 85.058594 60.945313 L 85.058594 60.945313 M 93 45.832031 L 93 45.832031 M 57.035156 88.152344 L 57.035156 88.152344 M 68.246094 91.175781 L 68.246094 91.175781 M 54.234375 104.023438 L 54.234375 104.023438 M 64.976563 107.800781 L 64.976563 107.800781 M 110.867188 14.5 L 110.867188 14.5 "
       id="path131" />
    <path
       style="fill:none;stroke-width:0.502;stroke-linecap:round;stroke-linejoin:round;stroke:rgb(0%,0%,0%);stroke-opacity:1;stroke-miterlimit:4;"
       d="M 8.167969 124.046875 L 8.167969 124.046875 M 103.261719 9.9375 L 8.167969 124.046875 "
       id="path133" />
    <path
       style=" stroke:none;fill-rule:nonzero;fill:rgb(0%,0%,0%);fill-opacity:1;"
       d="M 187.363281 27.265625 L 185.972656 27.265625 L 185.894531 27.671875 L 187.269531 27.671875 Z M 187.363281 27.265625 "
       id="path135" />
    <path
       style=" stroke:none;fill-rule:nonzero;fill:rgb(0%,0%,0%);fill-opacity:1;"
       d="M 189.566406 28.875 L 191.316406 28.875 L 191.316406 28.78125 C 191.003906 28.78125 190.785156 28.765625 190.785156 28.578125 C 190.785156 28.46875 190.863281 28.234375 190.894531 28.109375 L 191.785156 24.84375 C 191.816406 24.75 191.847656 24.625 191.800781 24.625 C 191.753906 24.625 190.878906 24.8125 190.582031 24.859375 L 190.582031 24.953125 L 190.941406 24.9375 C 191.003906 24.9375 191.175781 24.9375 191.175781 25.140625 C 191.175781 25.1875 191.160156 25.28125 191.128906 25.34375 L 190.269531 28.453125 C 190.191406 28.734375 189.941406 28.75 189.566406 28.78125 Z M 189.566406 28.875 "
       id="path137" />
    <path
       style=" stroke:none;fill-rule:nonzero;fill:rgb(0%,0%,0%);fill-opacity:1;"
       d="M 192.917969 28.9375 C 193.058594 28.9375 193.277344 28.84375 193.277344 28.609375 C 193.277344 28.40625 193.105469 28.25 192.917969 28.25 C 192.730469 28.25 192.574219 28.40625 192.574219 28.609375 C 192.574219 28.84375 192.792969 28.9375 192.917969 28.9375 Z M 192.917969 28.9375 "
       id="path139" />
    <path
       style=" stroke:none;fill-rule:nonzero;fill:rgb(0%,0%,0%);fill-opacity:1;"
       d="M 196.496094 28 C 196.386719 28.21875 196.292969 28.390625 195.871094 28.390625 L 194.683594 28.390625 L 194.683594 28.359375 L 195.886719 27.15625 C 196.667969 26.375 196.824219 26.09375 196.824219 25.671875 C 196.824219 25.203125 196.480469 24.625 195.808594 24.625 C 195.652344 24.625 194.824219 24.640625 194.480469 25.625 L 194.621094 25.671875 C 194.699219 25.515625 194.949219 25.078125 195.511719 25.078125 C 195.996094 25.078125 196.277344 25.453125 196.277344 25.84375 C 196.277344 26.046875 196.261719 26.421875 195.371094 27.359375 L 194.058594 28.765625 L 194.058594 28.875 L 196.292969 28.875 L 196.605469 28.046875 Z M 196.496094 28 "
       id="path141" />
    <path
       style=" stroke:none;fill-rule:nonzero;fill:rgb(12.940979%,11.764526%,11.764526%);fill-opacity:1;"
       d="M 201.234375 28.171875 C 201.0625 28.359375 200.9375 28.59375 200.8125 28.59375 C 200.6875 28.59375 200.640625 28.4375 200.609375 28.34375 C 200.578125 28.1875 200.359375 27.328125 200.359375 27.21875 C 200.359375 27.21875 200.78125 26.453125 200.96875 26.453125 C 201.109375 26.453125 201.15625 26.5625 201.296875 26.5625 C 201.453125 26.5625 201.515625 26.4375 201.515625 26.328125 C 201.515625 26.171875 201.375 26.09375 201.265625 26.09375 C 200.9375 26.09375 200.640625 26.484375 200.3125 27 L 200.234375 26.65625 C 200.125 26.09375 200.03125 26.09375 199.890625 26.09375 C 199.6875 26.09375 199.28125 26.25 199.109375 26.3125 L 199.125 26.40625 C 199.328125 26.34375 199.421875 26.328125 199.484375 26.328125 C 199.640625 26.328125 199.671875 26.421875 199.734375 26.609375 C 199.734375 26.640625 199.953125 27.484375 199.953125 27.546875 C 199.390625 28.359375 199.21875 28.578125 199.109375 28.578125 C 199 28.578125 198.890625 28.453125 198.75 28.453125 C 198.609375 28.453125 198.53125 28.578125 198.53125 28.671875 C 198.53125 28.828125 198.640625 28.9375 198.84375 28.9375 C 199.03125 28.9375 199.109375 28.875 199.21875 28.75 C 199.4375 28.515625 199.703125 28.1875 200 27.765625 L 200.1875 28.515625 C 200.265625 28.859375 200.359375 28.9375 200.546875 28.9375 C 200.6875 28.9375 200.875 28.9375 201.328125 28.21875 Z M 201.234375 28.171875 "
       id="path143" />
    <path
       style=" stroke:none;fill-rule:nonzero;fill:rgb(0%,0%,0%);fill-opacity:1;"
       d="M 201.75 30.765625 L 203.15625 30.765625 L 203.15625 30.6875 C 202.90625 30.6875 202.71875 30.6875 202.71875 30.515625 C 202.71875 30.4375 202.78125 30.25 202.8125 30.15625 L 203.53125 27.53125 C 203.5625 27.453125 203.578125 27.359375 203.546875 27.359375 C 203.5 27.359375 202.796875 27.5 202.5625 27.546875 L 202.5625 27.625 L 202.859375 27.609375 C 202.890625 27.609375 203.046875 27.609375 203.046875 27.765625 C 203.046875 27.8125 203.03125 27.890625 203.015625 27.9375 L 202.3125 30.421875 C 202.25 30.65625 202.046875 30.671875 201.75 30.6875 Z M 201.75 30.765625 "
       id="path145" />
    <path
       style=" stroke:none;fill-rule:nonzero;fill:rgb(0%,0%,0%);fill-opacity:1;"
       d="M 207.15625 27.078125 L 205.78125 27.078125 L 205.78125 27.484375 L 207.15625 27.484375 L 207.15625 28.875 L 207.578125 28.875 L 207.578125 27.484375 L 208.953125 27.484375 L 208.953125 27.078125 L 207.578125 27.078125 L 207.578125 25.6875 L 207.15625 25.6875 Z M 207.15625 27.078125 "
       id="path147" />
    <path
       style=" stroke:none;fill-rule:nonzero;fill:rgb(12.940979%,11.764526%,11.764526%);fill-opacity:1;"
       d="M 213.253906 28.171875 C 213.082031 28.359375 212.957031 28.59375 212.832031 28.59375 C 212.707031 28.59375 212.660156 28.4375 212.628906 28.34375 C 212.597656 28.1875 212.378906 27.328125 212.378906 27.21875 C 212.378906 27.21875 212.800781 26.453125 212.988281 26.453125 C 213.128906 26.453125 213.175781 26.5625 213.316406 26.5625 C 213.472656 26.5625 213.535156 26.4375 213.535156 26.328125 C 213.535156 26.171875 213.394531 26.09375 213.285156 26.09375 C 212.957031 26.09375 212.660156 26.484375 212.332031 27 L 212.253906 26.65625 C 212.144531 26.09375 212.050781 26.09375 211.910156 26.09375 C 211.707031 26.09375 211.300781 26.25 211.128906 26.3125 L 211.144531 26.40625 C 211.347656 26.34375 211.441406 26.328125 211.503906 26.328125 C 211.660156 26.328125 211.691406 26.421875 211.753906 26.609375 C 211.753906 26.640625 211.972656 27.484375 211.972656 27.546875 C 211.410156 28.359375 211.238281 28.578125 211.128906 28.578125 C 211.019531 28.578125 210.910156 28.453125 210.769531 28.453125 C 210.628906 28.453125 210.550781 28.578125 210.550781 28.671875 C 210.550781 28.828125 210.660156 28.9375 210.863281 28.9375 C 211.050781 28.9375 211.128906 28.875 211.238281 28.75 C 211.457031 28.515625 211.722656 28.1875 212.019531 27.765625 L 212.207031 28.515625 C 212.285156 28.859375 212.378906 28.9375 212.566406 28.9375 C 212.707031 28.9375 212.894531 28.9375 213.347656 28.21875 Z M 213.253906 28.171875 "
       id="path149" />
    <path
       style=" stroke:none;fill-rule:nonzero;fill:rgb(0%,0%,0%);fill-opacity:1;"
       d="M 215.535156 30.0625 C 215.457031 30.25 215.378906 30.375 215.035156 30.375 L 214.082031 30.375 L 214.082031 30.359375 L 215.050781 29.390625 C 215.675781 28.765625 215.800781 28.53125 215.800781 28.203125 C 215.800781 27.8125 215.519531 27.359375 214.988281 27.359375 C 214.863281 27.359375 214.191406 27.375 213.925781 28.15625 L 214.035156 28.203125 C 214.097656 28.078125 214.285156 27.71875 214.738281 27.71875 C 215.128906 27.71875 215.363281 28.03125 215.363281 28.34375 C 215.363281 28.5 215.347656 28.796875 214.644531 29.546875 L 213.582031 30.6875 L 213.582031 30.765625 L 215.378906 30.765625 L 215.628906 30.09375 Z M 215.535156 30.0625 "
       id="path151" />
    <path
       style=" stroke:none;fill-rule:nonzero;fill:rgb(0%,0%,0%);fill-opacity:1;"
       d="M 220.988281 28.5 L 218.316406 27.28125 L 220.988281 26.0625 L 220.988281 25.640625 L 217.785156 27.09375 L 217.785156 27.484375 L 220.988281 28.921875 Z M 220.988281 28.5 "
       id="path153" />
    <path
       style=" stroke:none;fill-rule:nonzero;fill:rgb(0%,0%,0%);fill-opacity:1;"
       d="M 223.445313 27.890625 C 223.445313 27.28125 223.898438 24.796875 224.835938 24.796875 C 225.367188 24.796875 225.367188 25.4375 225.367188 25.625 C 225.367188 26.734375 224.835938 28.75 223.992188 28.75 C 223.789063 28.75 223.445313 28.625 223.445313 27.890625 Z M 225.867188 26.1875 C 225.867188 25.578125 225.695313 24.625 224.867188 24.625 C 223.992188 24.625 222.945313 25.921875 222.945313 27.609375 C 222.945313 28.265625 223.304688 28.921875 223.960938 28.921875 C 225.007813 28.921875 225.867188 27.4375 225.867188 26.1875 Z M 225.867188 26.1875 "
       id="path155" />
    <path
       style=" stroke:none;fill-rule:nonzero;fill:rgb(0%,0%,0%);fill-opacity:1;"
       d="M 226.40625 28.9375 C 226.546875 28.9375 226.765625 28.84375 226.765625 28.609375 C 226.765625 28.40625 226.59375 28.25 226.40625 28.25 C 226.21875 28.25 226.0625 28.40625 226.0625 28.609375 C 226.0625 28.84375 226.28125 28.9375 226.40625 28.9375 Z M 226.40625 28.9375 "
       id="path157" />
    <g
       clip-path="url(#clip10)"
       clip-rule="nonzero"
       id="g161">
      <path
         style=" stroke:none;fill-rule:nonzero;fill:rgb(0%,0%,0%);fill-opacity:1;"
         d="M 227.777344 28.875 L 229.527344 28.875 L 229.527344 28.78125 C 229.214844 28.78125 228.996094 28.765625 228.996094 28.578125 C 228.996094 28.46875 229.074219 28.234375 229.105469 28.109375 L 229.996094 24.84375 C 230.027344 24.75 230.058594 24.625 230.011719 24.625 C 229.964844 24.625 229.089844 24.8125 228.792969 24.859375 L 228.792969 24.953125 L 229.152344 24.9375 C 229.214844 24.9375 229.386719 24.9375 229.386719 25.140625 C 229.386719 25.1875 229.371094 25.28125 229.339844 25.34375 L 228.480469 28.453125 C 228.402344 28.734375 228.152344 28.75 227.777344 28.78125 Z M 227.777344 28.875 "
         id="path159" />
    </g>
    <path
       style="fill:none;stroke-width:0.554;stroke-linecap:round;stroke-linejoin:round;stroke:rgb(0%,0%,0%);stroke-opacity:1;stroke-miterlimit:4;"
       d="M 209.253906 30.328125 L 193.855469 48.140625 M 209.253906 30.328125 L 224.648438 48.140625 "
       id="path163" />
    <path
       style=" stroke:none;fill-rule:nonzero;fill:rgb(12.940979%,11.764526%,11.764526%);fill-opacity:1;"
       d="M 144.011719 136.042969 C 143.839844 136.230469 143.714844 136.464844 143.589844 136.464844 C 143.464844 136.464844 143.417969 136.308594 143.386719 136.214844 C 143.355469 136.058594 143.136719 135.199219 143.136719 135.089844 C 143.136719 135.089844 143.558594 134.324219 143.746094 134.324219 C 143.886719 134.324219 143.933594 134.433594 144.074219 134.433594 C 144.230469 134.433594 144.292969 134.308594 144.292969 134.199219 C 144.292969 134.042969 144.152344 133.964844 144.042969 133.964844 C 143.714844 133.964844 143.417969 134.355469 143.089844 134.871094 L 143.011719 134.527344 C 142.902344 133.964844 142.808594 133.964844 142.667969 133.964844 C 142.464844 133.964844 142.058594 134.121094 141.886719 134.183594 L 141.902344 134.277344 C 142.105469 134.214844 142.199219 134.199219 142.261719 134.199219 C 142.417969 134.199219 142.449219 134.292969 142.511719 134.480469 C 142.511719 134.511719 142.730469 135.355469 142.730469 135.417969 C 142.167969 136.230469 141.996094 136.449219 141.886719 136.449219 C 141.777344 136.449219 141.667969 136.324219 141.527344 136.324219 C 141.386719 136.324219 141.308594 136.449219 141.308594 136.542969 C 141.308594 136.699219 141.417969 136.808594 141.621094 136.808594 C 141.808594 136.808594 141.886719 136.746094 141.996094 136.621094 C 142.214844 136.386719 142.480469 136.058594 142.777344 135.636719 L 142.964844 136.386719 C 143.042969 136.730469 143.136719 136.808594 143.324219 136.808594 C 143.464844 136.808594 143.652344 136.808594 144.105469 136.089844 Z M 144.011719 136.042969 "
       id="path165" />
    <path
       style=" stroke:none;fill-rule:nonzero;fill:rgb(0%,0%,0%);fill-opacity:1;"
       d="M 144.527344 138.636719 L 145.933594 138.636719 L 145.933594 138.558594 C 145.683594 138.558594 145.496094 138.558594 145.496094 138.386719 C 145.496094 138.308594 145.558594 138.121094 145.589844 138.027344 L 146.308594 135.402344 C 146.339844 135.324219 146.355469 135.230469 146.324219 135.230469 C 146.277344 135.230469 145.574219 135.371094 145.339844 135.417969 L 145.339844 135.496094 L 145.636719 135.480469 C 145.667969 135.480469 145.824219 135.480469 145.824219 135.636719 C 145.824219 135.683594 145.808594 135.761719 145.792969 135.808594 L 145.089844 138.292969 C 145.027344 138.527344 144.824219 138.542969 144.527344 138.558594 Z M 144.527344 138.636719 "
       id="path167" />
    <path
       style=" stroke:none;fill-rule:nonzero;fill:rgb(12.940979%,11.764526%,11.764526%);fill-opacity:1;"
       d="M 8.4375 2.078125 C 8.265625 2.265625 8.140625 2.5 8.015625 2.5 C 7.890625 2.5 7.84375 2.34375 7.8125 2.25 C 7.78125 2.09375 7.5625 1.234375 7.5625 1.125 C 7.5625 1.125 7.984375 0.359375 8.171875 0.359375 C 8.3125 0.359375 8.359375 0.46875 8.5 0.46875 C 8.65625 0.46875 8.71875 0.34375 8.71875 0.234375 C 8.71875 0.078125 8.578125 0 8.46875 0 C 8.140625 0 7.84375 0.390625 7.515625 0.90625 L 7.4375 0.5625 C 7.328125 0 7.234375 0 7.09375 0 C 6.890625 0 6.484375 0.15625 6.3125 0.21875 L 6.328125 0.3125 C 6.53125 0.25 6.625 0.234375 6.6875 0.234375 C 6.84375 0.234375 6.875 0.328125 6.9375 0.515625 C 6.9375 0.546875 7.15625 1.390625 7.15625 1.453125 C 6.59375 2.265625 6.421875 2.484375 6.3125 2.484375 C 6.203125 2.484375 6.09375 2.359375 5.953125 2.359375 C 5.8125 2.359375 5.734375 2.484375 5.734375 2.578125 C 5.734375 2.734375 5.84375 2.84375 6.046875 2.84375 C 6.234375 2.84375 6.3125 2.78125 6.421875 2.65625 C 6.640625 2.421875 6.90625 2.09375 7.203125 1.671875 L 7.390625 2.421875 C 7.46875 2.765625 7.5625 2.84375 7.75 2.84375 C 7.890625 2.84375 8.078125 2.84375 8.53125 2.125 Z M 8.4375 2.078125 "
       id="path169" />
    <path
       style=" stroke:none;fill-rule:nonzero;fill:rgb(0%,0%,0%);fill-opacity:1;"
       d="M 10.71875 3.96875 C 10.640625 4.15625 10.5625 4.28125 10.21875 4.28125 L 9.265625 4.28125 L 9.265625 4.265625 L 10.234375 3.296875 C 10.859375 2.671875 10.984375 2.4375 10.984375 2.109375 C 10.984375 1.71875 10.703125 1.265625 10.171875 1.265625 C 10.046875 1.265625 9.375 1.28125 9.109375 2.0625 L 9.21875 2.109375 C 9.28125 1.984375 9.46875 1.625 9.921875 1.625 C 10.3125 1.625 10.546875 1.9375 10.546875 2.25 C 10.546875 2.40625 10.53125 2.703125 9.828125 3.453125 L 8.765625 4.59375 L 8.765625 4.671875 L 10.5625 4.671875 L 10.8125 4 Z M 10.71875 3.96875 "
       id="path171" />
    <path
       style=" stroke:none;fill-rule:nonzero;fill:rgb(92.155457%,9.803772%,13.725281%);fill-opacity:1;"
       d="M 192.402344 56.097656 C 192.730469 55.425781 192.855469 54.832031 192.855469 54.691406 C 192.855469 54.410156 192.699219 54.378906 192.605469 54.378906 C 192.152344 54.378906 192.042969 55.488281 191.996094 55.957031 C 191.980469 56.175781 191.292969 56.972656 190.511719 56.972656 C 189.621094 56.972656 189.496094 56.097656 189.496094 55.675781 C 189.496094 55.222656 189.621094 54.332031 190.449219 53.160156 C 190.574219 53.019531 190.574219 52.988281 190.574219 52.957031 C 190.574219 52.863281 190.496094 52.800781 190.417969 52.800781 C 190.355469 52.800781 190.324219 52.832031 190.277344 52.878906 C 189.652344 53.707031 189.105469 54.894531 189.105469 56.144531 C 189.105469 57.253906 189.574219 57.816406 190.355469 57.816406 C 191.042969 57.816406 191.621094 57.363281 192.011719 56.800781 C 192.105469 57.300781 192.371094 57.816406 193.105469 57.816406 C 195.105469 57.816406 195.980469 54.660156 195.980469 53.503906 C 195.980469 52.707031 195.558594 52.660156 195.464844 52.660156 C 195.214844 52.660156 194.902344 52.910156 194.902344 53.238281 C 194.902344 53.300781 194.902344 53.410156 195.042969 53.535156 C 195.308594 53.785156 195.449219 54.113281 195.449219 54.519531 C 195.449219 55.503906 194.464844 56.972656 193.261719 56.972656 C 192.667969 56.972656 192.464844 56.503906 192.402344 56.097656 Z M 192.402344 56.097656 "
       id="path173" />
    <path
       style=" stroke:none;fill-rule:nonzero;fill:rgb(92.155457%,9.803772%,13.725281%);fill-opacity:1;"
       d="M 198.703125 58.707031 C 198.59375 58.925781 198.5 59.097656 198.078125 59.097656 L 196.890625 59.097656 L 196.890625 59.066406 L 198.09375 57.863281 C 198.875 57.082031 199.03125 56.800781 199.03125 56.378906 C 199.03125 55.910156 198.6875 55.332031 198.015625 55.332031 C 197.859375 55.332031 197.03125 55.347656 196.6875 56.332031 L 196.828125 56.378906 C 196.90625 56.222656 197.15625 55.785156 197.71875 55.785156 C 198.203125 55.785156 198.484375 56.160156 198.484375 56.550781 C 198.484375 56.753906 198.46875 57.128906 197.578125 58.066406 L 196.265625 59.472656 L 196.265625 59.582031 L 198.5 59.582031 L 198.8125 58.753906 Z M 198.703125 58.707031 "
       id="path175" />
    <path
       style=" stroke:none;fill-rule:nonzero;fill:rgb(12.940979%,11.764526%,11.764526%);fill-opacity:1;"
       d="M 223.902344 56.097656 C 224.230469 55.425781 224.355469 54.832031 224.355469 54.691406 C 224.355469 54.410156 224.199219 54.378906 224.105469 54.378906 C 223.652344 54.378906 223.542969 55.488281 223.496094 55.957031 C 223.480469 56.175781 222.792969 56.972656 222.011719 56.972656 C 221.121094 56.972656 220.996094 56.097656 220.996094 55.675781 C 220.996094 55.222656 221.121094 54.332031 221.949219 53.160156 C 222.074219 53.019531 222.074219 52.988281 222.074219 52.957031 C 222.074219 52.863281 221.996094 52.800781 221.917969 52.800781 C 221.855469 52.800781 221.824219 52.832031 221.777344 52.878906 C 221.152344 53.707031 220.605469 54.894531 220.605469 56.144531 C 220.605469 57.253906 221.074219 57.816406 221.855469 57.816406 C 222.542969 57.816406 223.121094 57.363281 223.511719 56.800781 C 223.605469 57.300781 223.871094 57.816406 224.605469 57.816406 C 226.605469 57.816406 227.480469 54.660156 227.480469 53.503906 C 227.480469 52.707031 227.058594 52.660156 226.964844 52.660156 C 226.714844 52.660156 226.402344 52.910156 226.402344 53.238281 C 226.402344 53.300781 226.402344 53.410156 226.542969 53.535156 C 226.808594 53.785156 226.949219 54.113281 226.949219 54.519531 C 226.949219 55.503906 225.964844 56.972656 224.761719 56.972656 C 224.167969 56.972656 223.964844 56.503906 223.902344 56.097656 Z M 223.902344 56.097656 "
       id="path177" />
    <g
       clip-path="url(#clip11)"
       clip-rule="nonzero"
       id="g181">
      <path
         style=" stroke:none;fill-rule:nonzero;fill:rgb(12.940979%,11.764526%,11.764526%);fill-opacity:1;"
         d="M 227.996094 59.582031 L 229.746094 59.582031 L 229.746094 59.488281 C 229.433594 59.488281 229.214844 59.472656 229.214844 59.285156 C 229.214844 59.175781 229.292969 58.941406 229.324219 58.816406 L 230.214844 55.550781 C 230.246094 55.457031 230.277344 55.332031 230.230469 55.332031 C 230.183594 55.332031 229.308594 55.519531 229.011719 55.566406 L 229.011719 55.660156 L 229.371094 55.644531 C 229.433594 55.644531 229.605469 55.644531 229.605469 55.847656 C 229.605469 55.894531 229.589844 55.988281 229.558594 56.050781 L 228.699219 59.160156 C 228.621094 59.441406 228.371094 59.457031 227.996094 59.488281 Z M 227.996094 59.582031 "
         id="path179" />
    </g>
    <path
       style=" stroke:none;fill-rule:nonzero;fill:rgb(86.273193%,14.901733%,13.725281%);fill-opacity:1;"
       d="M 96.582031 83.929688 C 98.097656 83.929688 98.425781 84.304688 98.425781 84.773438 C 98.425781 85.195313 98.128906 86.117188 96.785156 86.179688 C 96.394531 86.195313 96.144531 86.476563 96.144531 86.539063 C 96.144531 86.585938 96.175781 86.585938 96.175781 86.585938 C 96.425781 86.632813 96.597656 86.664063 97.082031 87.710938 C 97.441406 88.507813 97.660156 88.835938 98.097656 88.835938 C 99.019531 88.835938 99.925781 87.898438 99.925781 87.726563 C 99.925781 87.679688 99.878906 87.679688 99.847656 87.679688 C 99.707031 87.679688 99.425781 87.820313 99.300781 87.992188 C 99.160156 88.195313 98.988281 88.414063 98.597656 88.414063 C 98.238281 88.414063 97.972656 87.867188 97.722656 87.320313 C 97.488281 86.820313 97.378906 86.617188 97.222656 86.429688 C 98.441406 85.976563 99.082031 85.179688 99.082031 84.445313 C 99.082031 83.492188 97.832031 83.492188 96.613281 83.492188 C 95.769531 83.492188 95.269531 83.492188 94.550781 83.867188 C 93.628906 84.335938 93.550781 84.898438 93.550781 84.914063 C 93.550781 84.929688 93.566406 84.976563 93.628906 84.976563 C 93.769531 84.976563 94.144531 84.789063 94.207031 84.601563 C 94.316406 84.304688 94.425781 83.960938 95.535156 83.929688 C 95.457031 84.804688 95.300781 86.367188 94.363281 88.648438 C 94.316406 88.757813 94.316406 88.773438 94.316406 88.789063 C 94.316406 88.820313 94.363281 88.835938 94.394531 88.835938 C 94.550781 88.835938 94.847656 88.664063 94.957031 88.507813 C 94.957031 88.492188 95.113281 88.148438 95.347656 87.476563 C 95.738281 86.429688 96.035156 85.210938 96.175781 83.929688 Z M 96.582031 83.929688 "
       id="path183" />
    <path
       style=" stroke:none;fill-rule:nonzero;fill:rgb(86.273193%,14.901733%,13.725281%);fill-opacity:1;"
       d="M 102.234375 89.816406 L 102.0625 89.816406 C 102.0625 89.894531 102.015625 90.128906 101.953125 90.160156 C 101.921875 90.191406 101.609375 90.191406 101.546875 90.191406 L 100.8125 90.191406 C 101.0625 90.003906 101.34375 89.785156 101.5625 89.644531 C 101.90625 89.410156 102.234375 89.191406 102.234375 88.785156 C 102.234375 88.300781 101.765625 88.035156 101.234375 88.035156 C 100.71875 88.035156 100.34375 88.332031 100.34375 88.691406 C 100.34375 88.894531 100.515625 88.925781 100.5625 88.925781 C 100.671875 88.925781 100.78125 88.863281 100.78125 88.707031 C 100.78125 88.566406 100.6875 88.488281 100.578125 88.488281 C 100.671875 88.316406 100.890625 88.191406 101.15625 88.191406 C 101.515625 88.191406 101.828125 88.425781 101.828125 88.785156 C 101.828125 89.113281 101.609375 89.347656 101.3125 89.597656 L 100.390625 90.378906 C 100.359375 90.410156 100.34375 90.410156 100.34375 90.441406 L 100.34375 90.550781 L 102.109375 90.550781 Z M 102.234375 89.816406 "
       id="path185" />
    <path
       style=" stroke:none;fill-rule:nonzero;fill:rgb(12.940979%,11.764526%,11.764526%);fill-opacity:1;"
       d="M 26.765625 21.773438 C 28.28125 21.773438 28.609375 22.148438 28.609375 22.617188 C 28.609375 23.039063 28.3125 23.960938 26.96875 24.023438 C 26.578125 24.039063 26.328125 24.320313 26.328125 24.382813 C 26.328125 24.429688 26.359375 24.429688 26.359375 24.429688 C 26.609375 24.476563 26.78125 24.507813 27.265625 25.554688 C 27.625 26.351563 27.84375 26.679688 28.28125 26.679688 C 29.203125 26.679688 30.109375 25.742188 30.109375 25.570313 C 30.109375 25.523438 30.0625 25.523438 30.03125 25.523438 C 29.890625 25.523438 29.609375 25.664063 29.484375 25.835938 C 29.34375 26.039063 29.171875 26.257813 28.78125 26.257813 C 28.421875 26.257813 28.15625 25.710938 27.90625 25.164063 C 27.671875 24.664063 27.5625 24.460938 27.40625 24.273438 C 28.625 23.820313 29.265625 23.023438 29.265625 22.289063 C 29.265625 21.335938 28.015625 21.335938 26.796875 21.335938 C 25.953125 21.335938 25.453125 21.335938 24.734375 21.710938 C 23.8125 22.179688 23.734375 22.742188 23.734375 22.757813 C 23.734375 22.773438 23.75 22.820313 23.8125 22.820313 C 23.953125 22.820313 24.328125 22.632813 24.390625 22.445313 C 24.5 22.148438 24.609375 21.804688 25.71875 21.773438 C 25.640625 22.648438 25.484375 24.210938 24.546875 26.492188 C 24.5 26.601563 24.5 26.617188 24.5 26.632813 C 24.5 26.664063 24.546875 26.679688 24.578125 26.679688 C 24.734375 26.679688 25.03125 26.507813 25.140625 26.351563 C 25.140625 26.335938 25.296875 25.992188 25.53125 25.320313 C 25.921875 24.273438 26.21875 23.054688 26.359375 21.773438 Z M 26.765625 21.773438 "
       id="path187" />
    <path
       style=" stroke:none;fill-rule:nonzero;fill:rgb(12.940979%,11.764526%,11.764526%);fill-opacity:1;"
       d="M 31.683594 25.992188 C 31.683594 25.882813 31.683594 25.882813 31.558594 25.882813 C 31.277344 26.117188 30.871094 26.117188 30.792969 26.117188 L 30.730469 26.117188 L 30.730469 26.289063 L 30.792969 26.289063 C 30.871094 26.289063 31.121094 26.273438 31.339844 26.179688 L 31.339844 28.070313 C 31.339844 28.195313 31.339844 28.226563 30.933594 28.226563 L 30.746094 28.226563 L 30.746094 28.398438 C 30.964844 28.382813 31.292969 28.382813 31.511719 28.382813 C 31.730469 28.382813 32.074219 28.382813 32.277344 28.398438 L 32.277344 28.226563 L 32.089844 28.226563 C 31.683594 28.226563 31.683594 28.195313 31.683594 28.070313 Z M 31.683594 25.992188 "
       id="path189" />
  </g>
</svg>
