<?xml version="1.0" encoding="UTF-8" standalone="no"?>
<svg
   xmlns:dc="http://purl.org/dc/elements/1.1/"
   xmlns:cc="http://creativecommons.org/ns#"
   xmlns:rdf="http://www.w3.org/1999/02/22-rdf-syntax-ns#"
   xmlns:svg="http://www.w3.org/2000/svg"
   xmlns="http://www.w3.org/2000/svg"
   xmlns:sodipodi="http://sodipodi.sourceforge.net/DTD/sodipodi-0.dtd"
   xmlns:inkscape="http://www.inkscape.org/namespaces/inkscape"
   width="289.0802pt"
   height="148.232056pt"
   viewBox="0 0 289.0802 148.232056"
   version="1.2"
   id="svg241"
   sodipodi:docname="decisiontree_complex.svg"
   inkscape:version="0.92.4 (5da689c313, 2019-01-14)">
  <metadata
     id="metadata245">
    <rdf:RDF>
      <cc:Work
         rdf:about="">
        <dc:format>image/svg+xml</dc:format>
        <dc:type
           rdf:resource="http://purl.org/dc/dcmitype/StillImage" />
        <dc:title></dc:title>
      </cc:Work>
    </rdf:RDF>
  </metadata>
  <sodipodi:namedview
     pagecolor="#ffffff"
     bordercolor="#666666"
     borderopacity="1"
     objecttolerance="10"
     gridtolerance="10"
     guidetolerance="10"
     inkscape:pageopacity="0"
     inkscape:pageshadow="2"
     inkscape:window-width="661"
     inkscape:window-height="480"
     id="namedview243"
     showgrid="false"
     inkscape:zoom="0.81465282"
     inkscape:cx="192.72013"
     inkscape:cy="98.82137"
     inkscape:window-x="0"
     inkscape:window-y="0"
     inkscape:window-maximized="0"
     inkscape:current-layer="svg241" />
  <defs
     id="defs8">
    <clipPath
       id="clip1">
      <path
         d="M 254 143 L 257 143 L 257 148.230469 L 254 148.230469 Z M 254 143 "
         id="path2" />
    </clipPath>
    <clipPath
       id="clip2">
      <path
         d="M 286 143 L 289.082031 143 L 289.082031 148.230469 L 286 148.230469 Z M 286 143 "
         id="path5" />
    </clipPath>
  </defs>
  <g
     id="surface46">
    <path
       style="fill:none;stroke-width:0.251;stroke-linecap:round;stroke-linejoin:round;stroke:rgb(0%,0%,0%);stroke-opacity:1;stroke-miterlimit:4;"
       d="M 30.648438 135.320313 L 30.648438 134.539063 M 53.46875 135.320313 L 53.46875 134.539063 M 76.289063 135.320313 L 76.289063 134.539063 M 99.113281 135.320313 L 99.113281 134.539063 M 121.9375 135.320313 L 121.9375 134.539063 "
       id="path10" />
    <path
       style="fill:none;stroke-width:0.125;stroke-linecap:round;stroke-linejoin:round;stroke:rgb(0%,0%,0%);stroke-opacity:1;stroke-miterlimit:4;"
       d="M 12.386719 135.320313 L 12.386719 134.851563 M 16.953125 135.320313 L 16.953125 134.851563 M 21.519531 135.320313 L 21.519531 134.851563 M 26.082031 135.320313 L 26.082031 134.851563 M 35.210938 135.320313 L 35.210938 134.851563 M 39.777344 135.320313 L 39.777344 134.851563 M 44.339844 135.320313 L 44.339844 134.851563 M 48.902344 135.320313 L 48.902344 134.851563 M 58.03125 135.320313 L 58.03125 134.851563 M 62.597656 135.320313 L 62.597656 134.851563 M 67.164063 135.320313 L 67.164063 134.851563 M 71.726563 135.320313 L 71.726563 134.851563 M 80.855469 135.320313 L 80.855469 134.851563 M 85.417969 135.320313 L 85.417969 134.851563 M 89.984375 135.320313 L 89.984375 134.851563 M 94.546875 135.320313 L 94.546875 134.851563 M 103.675781 135.320313 L 103.675781 134.851563 M 108.242188 135.320313 L 108.242188 134.851563 M 112.804688 135.320313 L 112.804688 134.851563 M 117.371094 135.320313 L 117.371094 134.851563 M 126.5 135.320313 L 126.5 134.851563 M 131.066406 135.320313 L 131.066406 134.851563 "
       id="path12" />
    <path
       style="fill:none;stroke-width:0.251;stroke-linecap:round;stroke-linejoin:round;stroke:rgb(0%,0%,0%);stroke-opacity:1;stroke-miterlimit:4;"
       d="M 7.824219 135.320313 L 8.609375 135.320313 M 7.824219 112.5 L 8.609375 112.5 M 7.824219 89.675781 L 8.609375 89.675781 M 7.824219 66.855469 L 8.609375 66.855469 M 7.824219 44.03125 L 8.609375 44.03125 M 7.824219 21.210938 L 8.609375 21.210938 "
       id="path14" />
    <path
       style="fill:none;stroke-width:0.125;stroke-linecap:round;stroke-linejoin:round;stroke:rgb(0%,0%,0%);stroke-opacity:1;stroke-miterlimit:4;"
       d="M 7.824219 130.757813 L 8.292969 130.757813 M 7.824219 126.191406 L 8.292969 126.191406 M 7.824219 121.628906 L 8.292969 121.628906 M 7.824219 117.0625 L 8.292969 117.0625 M 7.824219 107.933594 L 8.292969 107.933594 M 7.824219 103.371094 L 8.292969 103.371094 M 7.824219 98.804688 L 8.292969 98.804688 M 7.824219 94.242188 L 8.292969 94.242188 M 7.824219 85.113281 L 8.292969 85.113281 M 7.824219 80.550781 L 8.292969 80.550781 M 7.824219 75.984375 L 8.292969 75.984375 M 7.824219 71.417969 L 8.292969 71.417969 M 7.824219 62.289063 L 8.292969 62.289063 M 7.824219 57.726563 L 8.292969 57.726563 M 7.824219 53.160156 L 8.292969 53.160156 M 7.824219 48.597656 L 8.292969 48.597656 M 7.824219 39.46875 L 8.292969 39.46875 M 7.824219 34.902344 L 8.292969 34.902344 M 7.824219 30.339844 L 8.292969 30.339844 M 7.824219 25.773438 L 8.292969 25.773438 M 7.824219 16.644531 L 8.292969 16.644531 M 7.824219 12.082031 L 8.292969 12.082031 "
       id="path16" />
    <path
       style="fill:none;stroke-width:0.63;stroke-linecap:round;stroke-linejoin:round;stroke:rgb(0%,0%,0%);stroke-opacity:1;stroke-miterlimit:4;"
       d="M 7.824219 135.320313 L 7.824219 9.800781 "
       id="path18" />
    <path
       style=" stroke:none;fill-rule:nonzero;fill:rgb(0%,0%,0%);fill-opacity:1;"
       d="M 7.179688 8.3125 C 6.863281 9.351563 6.574219 10.03125 6.238281 10.863281 L 9.417969 10.863281 C 9.273438 10.566406 8.792969 9.351563 8.476563 8.3125 C 8.140625 7.195313 7.910156 6.1875 7.828125 5.53125 C 7.746094 6.1875 7.515625 7.195313 7.179688 8.3125 "
       id="path20" />
    <path
       style="fill:none;stroke-width:2.51;stroke-linecap:round;stroke-linejoin:round;stroke:rgb(0%,0%,0%);stroke-opacity:1;stroke-miterlimit:4;"
       d="M 14.191406 108.421875 L 14.191406 108.421875 M 14.660156 94.816406 L 14.660156 94.816406 M 19.796875 96.328125 L 19.796875 96.328125 M 24.464844 94.816406 L 24.464844 94.816406 M 25.402344 84.234375 L 25.402344 84.234375 M 28.671875 81.214844 L 28.671875 81.214844 M 34.742188 80.457031 L 34.742188 80.457031 M 36.609375 75.921875 L 36.609375 75.921875 M 51.554688 62.320313 L 51.554688 62.320313 M 57.628906 52.496094 L 57.628906 52.496094 M 47.351563 54.765625 L 47.351563 54.765625 M 37.078125 63.078125 L 37.078125 63.078125 M 25.867188 68.367188 L 25.867188 68.367188 M 25.402344 60.808594 L 25.402344 60.808594 M 35.210938 53.253906 L 35.210938 53.253906 M 64.632813 45.695313 L 64.632813 45.695313 M 74.910156 32.847656 L 74.910156 32.847656 M 64.632813 30.582031 L 64.632813 30.582031 M 56.226563 39.648438 L 56.226563 39.648438 M 89.386719 18.105469 L 89.386719 18.105469 M 79.113281 20.003906 L 79.113281 20.003906 M 72.105469 24.535156 L 72.105469 24.535156 M 68.835938 20.757813 L 68.835938 20.757813 M 43.617188 33.605469 L 43.617188 33.605469 "
       id="path22" />
    <path
       style=" stroke:none;fill-rule:nonzero;fill:rgb(100%,76.077271%,76.077271%);fill-opacity:1;"
       d="M 16.058594 98.972656 L 38.117188 98.972656 L 38.117188 135.320313 L 16.058594 135.320313 Z M 16.058594 98.972656 "
       id="path24" />
    <path
       style=" stroke:none;fill-rule:nonzero;fill:rgb(100%,76.077271%,76.077271%);fill-opacity:1;"
       d="M 38.117188 66.855469 L 133.347656 66.855469 L 133.347656 135.320313 L 38.117188 135.320313 Z M 38.117188 66.855469 "
       id="path26" />
    <path
       style=" stroke:none;fill-rule:nonzero;fill:rgb(100%,76.077271%,76.077271%);fill-opacity:1;"
       d="M 70.472656 37.382813 L 133.347656 37.382813 L 133.347656 66.855469 L 70.472656 66.855469 Z M 70.472656 37.382813 "
       id="path28" />
    <path
       style=" stroke:none;fill-rule:nonzero;fill:rgb(100%,76.077271%,76.077271%);fill-opacity:1;"
       d="M 99.957031 9.800781 L 133.347656 9.800781 L 133.347656 37.382813 L 99.957031 37.382813 Z M 99.957031 9.800781 "
       id="path30" />
    <path
       style="fill:none;stroke-width:2.51;stroke-linecap:round;stroke-linejoin:round;stroke:rgb(100%,0%,0%);stroke-opacity:1;stroke-miterlimit:4;"
       d="M 17.929688 117.488281 L 17.929688 117.488281 M 26.800781 110.6875 L 26.800781 110.6875 M 33.339844 101.617188 L 33.339844 101.617188 M 39.152344 92.550781 L 39.152344 92.550781 M 44.082031 93.304688 L 44.082031 93.304688 M 53.890625 78.945313 L 53.890625 78.945313 M 60.898438 78.191406 L 60.898438 78.191406 M 66.035156 71.390625 L 66.035156 71.390625 M 72.105469 61.566406 L 72.105469 61.566406 M 80.046875 45.695313 L 80.046875 45.695313 M 87.519531 41.917969 L 87.519531 41.917969 M 93.125 42.734375 L 93.125 42.734375 M 51.089844 91.039063 L 51.089844 91.039063 M 40.8125 105.394531 L 40.8125 105.394531 M 47.820313 86.503906 L 47.820313 86.503906 M 75.84375 52.496094 L 75.84375 52.496094 M 73.039063 72.902344 L 73.039063 72.902344 M 84.714844 60.808594 L 84.714844 60.808594 M 92.65625 45.695313 L 92.65625 45.695313 M 56.695313 88.015625 L 56.695313 88.015625 M 67.902344 91.039063 L 67.902344 91.039063 M 53.890625 103.886719 L 53.890625 103.886719 M 64.632813 107.664063 L 64.632813 107.664063 M 110.523438 14.363281 L 110.523438 14.363281 "
       id="path32" />
    <path
       style=" stroke:none;fill-rule:nonzero;fill:rgb(12.940979%,11.764526%,11.764526%);fill-opacity:1;"
       d="M 192.710938 12.125 C 192.539063 12.3125 192.414063 12.546875 192.289063 12.546875 C 192.164063 12.546875 192.117188 12.390625 192.085938 12.296875 C 192.054688 12.140625 191.835938 11.28125 191.835938 11.171875 C 191.835938 11.171875 192.257813 10.40625 192.445313 10.40625 C 192.585938 10.40625 192.632813 10.515625 192.773438 10.515625 C 192.929688 10.515625 192.992188 10.390625 192.992188 10.28125 C 192.992188 10.125 192.851563 10.046875 192.742188 10.046875 C 192.414063 10.046875 192.117188 10.4375 191.789063 10.953125 L 191.710938 10.609375 C 191.601563 10.046875 191.507813 10.046875 191.367188 10.046875 C 191.164063 10.046875 190.757813 10.203125 190.585938 10.265625 L 190.601563 10.359375 C 190.804688 10.296875 190.898438 10.28125 190.960938 10.28125 C 191.117188 10.28125 191.148438 10.375 191.210938 10.5625 C 191.210938 10.59375 191.429688 11.4375 191.429688 11.5 C 190.867188 12.3125 190.695313 12.53125 190.585938 12.53125 C 190.476563 12.53125 190.367188 12.40625 190.226563 12.40625 C 190.085938 12.40625 190.007813 12.53125 190.007813 12.625 C 190.007813 12.78125 190.117188 12.890625 190.320313 12.890625 C 190.507813 12.890625 190.585938 12.828125 190.695313 12.703125 C 190.914063 12.46875 191.179688 12.140625 191.476563 11.71875 L 191.664063 12.46875 C 191.742188 12.8125 191.835938 12.890625 192.023438 12.890625 C 192.164063 12.890625 192.351563 12.890625 192.804688 12.171875 Z M 192.710938 12.125 "
       id="path34" />
    <path
       style=" stroke:none;fill-rule:nonzero;fill:rgb(0%,0%,0%);fill-opacity:1;"
       d="M 193.226563 14.714844 L 194.632813 14.714844 L 194.632813 14.636719 C 194.382813 14.636719 194.195313 14.636719 194.195313 14.464844 C 194.195313 14.386719 194.257813 14.199219 194.289063 14.105469 L 195.007813 11.480469 C 195.039063 11.402344 195.054688 11.308594 195.023438 11.308594 C 194.976563 11.308594 194.273438 11.449219 194.039063 11.496094 L 194.039063 11.574219 L 194.335938 11.558594 C 194.367188 11.558594 194.523438 11.558594 194.523438 11.714844 C 194.523438 11.761719 194.507813 11.839844 194.492188 11.886719 L 193.789063 14.371094 C 193.726563 14.605469 193.523438 14.621094 193.226563 14.636719 Z M 193.226563 14.714844 "
       id="path36" />
    <path
       style=" stroke:none;fill-rule:nonzero;fill:rgb(0%,0%,0%);fill-opacity:1;"
       d="M 200.445313 12.453125 L 197.773438 11.234375 L 200.445313 10.015625 L 200.445313 9.59375 L 197.242188 11.046875 L 197.242188 11.4375 L 200.445313 12.875 Z M 200.445313 12.453125 "
       id="path38" />
    <path
       style=" stroke:none;fill-rule:nonzero;fill:rgb(0%,0%,0%);fill-opacity:1;"
       d="M 202.902344 11.84375 C 202.902344 11.234375 203.355469 8.75 204.292969 8.75 C 204.824219 8.75 204.824219 9.390625 204.824219 9.578125 C 204.824219 10.6875 204.292969 12.703125 203.449219 12.703125 C 203.246094 12.703125 202.902344 12.578125 202.902344 11.84375 Z M 205.324219 10.140625 C 205.324219 9.53125 205.152344 8.578125 204.324219 8.578125 C 203.449219 8.578125 202.402344 9.875 202.402344 11.5625 C 202.402344 12.21875 202.761719 12.875 203.417969 12.875 C 204.464844 12.875 205.324219 11.390625 205.324219 10.140625 Z M 205.324219 10.140625 "
       id="path40" />
    <path
       style=" stroke:none;fill-rule:nonzero;fill:rgb(0%,0%,0%);fill-opacity:1;"
       d="M 205.863281 12.890625 C 206.003906 12.890625 206.222656 12.796875 206.222656 12.5625 C 206.222656 12.359375 206.050781 12.203125 205.863281 12.203125 C 205.675781 12.203125 205.519531 12.359375 205.519531 12.5625 C 205.519531 12.796875 205.738281 12.890625 205.863281 12.890625 Z M 205.863281 12.890625 "
       id="path42" />
    <path
       style=" stroke:none;fill-rule:nonzero;fill:rgb(0%,0%,0%);fill-opacity:1;"
       d="M 209.441406 11.953125 C 209.332031 12.171875 209.238281 12.34375 208.816406 12.34375 L 207.628906 12.34375 L 207.628906 12.3125 L 208.832031 11.109375 C 209.613281 10.328125 209.769531 10.046875 209.769531 9.625 C 209.769531 9.15625 209.425781 8.578125 208.753906 8.578125 C 208.597656 8.578125 207.769531 8.59375 207.425781 9.578125 L 207.566406 9.625 C 207.644531 9.46875 207.894531 9.03125 208.457031 9.03125 C 208.941406 9.03125 209.222656 9.40625 209.222656 9.796875 C 209.222656 10 209.207031 10.375 208.316406 11.3125 L 207.003906 12.71875 L 207.003906 12.828125 L 209.238281 12.828125 L 209.550781 12 Z M 209.441406 11.953125 "
       id="path44" />
    <path
       style=" stroke:none;fill-rule:nonzero;fill:rgb(0%,0%,0%);fill-opacity:1;"
       d="M 213.449219 8.703125 L 213.417969 8.640625 L 211.058594 8.640625 L 210.542969 9.484375 L 210.636719 9.546875 C 210.855469 9.296875 211.011719 9.09375 211.464844 9.09375 L 212.871094 9.09375 L 212.886719 9.109375 L 210.574219 12.875 L 211.011719 12.875 Z M 213.449219 8.703125 "
       id="path46" />
    <path
       style="fill:none;stroke-width:0.553;stroke-linecap:round;stroke-linejoin:round;stroke:rgb(0%,0%,0%);stroke-opacity:1;stroke-miterlimit:4;"
       d="M 201.28125 14.078125 L 181.359375 31.652344 M 201.28125 14.078125 L 221.203125 31.652344 "
       id="path48" />
    <path
       style=" stroke:none;fill-rule:nonzero;fill:rgb(12.940979%,11.764526%,11.764526%);fill-opacity:1;"
       d="M 172.367188 37.644531 C 172.195313 37.832031 172.070313 38.066406 171.945313 38.066406 C 171.820313 38.066406 171.773438 37.910156 171.742188 37.816406 C 171.710938 37.660156 171.492188 36.800781 171.492188 36.691406 C 171.492188 36.691406 171.914063 35.925781 172.101563 35.925781 C 172.242188 35.925781 172.289063 36.035156 172.429688 36.035156 C 172.585938 36.035156 172.648438 35.910156 172.648438 35.800781 C 172.648438 35.644531 172.507813 35.566406 172.398438 35.566406 C 172.070313 35.566406 171.773438 35.957031 171.445313 36.472656 L 171.367188 36.128906 C 171.257813 35.566406 171.164063 35.566406 171.023438 35.566406 C 170.820313 35.566406 170.414063 35.722656 170.242188 35.785156 L 170.257813 35.878906 C 170.460938 35.816406 170.554688 35.800781 170.617188 35.800781 C 170.773438 35.800781 170.804688 35.894531 170.867188 36.082031 C 170.867188 36.113281 171.085938 36.957031 171.085938 37.019531 C 170.523438 37.832031 170.351563 38.050781 170.242188 38.050781 C 170.132813 38.050781 170.023438 37.925781 169.882813 37.925781 C 169.742188 37.925781 169.664063 38.050781 169.664063 38.144531 C 169.664063 38.300781 169.773438 38.410156 169.976563 38.410156 C 170.164063 38.410156 170.242188 38.347656 170.351563 38.222656 C 170.570313 37.988281 170.835938 37.660156 171.132813 37.238281 L 171.320313 37.988281 C 171.398438 38.332031 171.492188 38.410156 171.679688 38.410156 C 171.820313 38.410156 172.007813 38.410156 172.460938 37.691406 Z M 172.367188 37.644531 "
       id="path50" />
    <path
       style=" stroke:none;fill-rule:nonzero;fill:rgb(0%,0%,0%);fill-opacity:1;"
       d="M 174.648438 39.535156 C 174.570313 39.722656 174.492188 39.847656 174.148438 39.847656 L 173.195313 39.847656 L 173.195313 39.832031 L 174.164063 38.863281 C 174.789063 38.238281 174.914063 38.003906 174.914063 37.675781 C 174.914063 37.285156 174.632813 36.832031 174.101563 36.832031 C 173.976563 36.832031 173.304688 36.847656 173.039063 37.628906 L 173.148438 37.675781 C 173.210938 37.550781 173.398438 37.191406 173.851563 37.191406 C 174.242188 37.191406 174.476563 37.503906 174.476563 37.816406 C 174.476563 37.972656 174.460938 38.269531 173.757813 39.019531 L 172.695313 40.160156 L 172.695313 40.238281 L 174.492188 40.238281 L 174.742188 39.566406 Z M 174.648438 39.535156 "
       id="path52" />
    <path
       style=" stroke:none;fill-rule:nonzero;fill:rgb(0%,0%,0%);fill-opacity:1;"
       d="M 180.105469 37.972656 L 177.433594 36.753906 L 180.105469 35.535156 L 180.105469 35.113281 L 176.902344 36.566406 L 176.902344 36.957031 L 180.105469 38.394531 Z M 180.105469 37.972656 "
       id="path54" />
    <path
       style=" stroke:none;fill-rule:nonzero;fill:rgb(0%,0%,0%);fill-opacity:1;"
       d="M 182.558594 37.363281 C 182.558594 36.753906 183.011719 34.269531 183.949219 34.269531 C 184.480469 34.269531 184.480469 34.910156 184.480469 35.097656 C 184.480469 36.207031 183.949219 38.222656 183.105469 38.222656 C 182.902344 38.222656 182.558594 38.097656 182.558594 37.363281 Z M 184.980469 35.660156 C 184.980469 35.050781 184.808594 34.097656 183.980469 34.097656 C 183.105469 34.097656 182.058594 35.394531 182.058594 37.082031 C 182.058594 37.738281 182.417969 38.394531 183.074219 38.394531 C 184.121094 38.394531 184.980469 36.910156 184.980469 35.660156 Z M 184.980469 35.660156 "
       id="path56" />
    <path
       style=" stroke:none;fill-rule:nonzero;fill:rgb(0%,0%,0%);fill-opacity:1;"
       d="M 185.519531 38.410156 C 185.660156 38.410156 185.878906 38.316406 185.878906 38.082031 C 185.878906 37.878906 185.707031 37.722656 185.519531 37.722656 C 185.332031 37.722656 185.175781 37.878906 185.175781 38.082031 C 185.175781 38.316406 185.394531 38.410156 185.519531 38.410156 Z M 185.519531 38.410156 "
       id="path58" />
    <path
       style=" stroke:none;fill-rule:nonzero;fill:rgb(0%,0%,0%);fill-opacity:1;"
       d="M 187.707031 34.769531 C 187.800781 34.644531 188.019531 34.347656 188.410156 34.347656 C 188.660156 34.347656 188.957031 34.503906 188.957031 34.925781 C 188.957031 35.613281 188.082031 35.878906 187.457031 35.972656 L 187.457031 36.082031 C 188.082031 36.035156 188.628906 36.269531 188.628906 37.144531 C 188.628906 37.941406 188.035156 38.160156 187.816406 38.160156 C 187.472656 38.160156 187.269531 37.769531 186.972656 37.769531 C 186.738281 37.769531 186.675781 37.894531 186.675781 38.019531 C 186.675781 38.300781 187.019531 38.394531 187.394531 38.394531 C 188.566406 38.394531 189.128906 37.503906 189.128906 36.800781 C 189.128906 36.113281 188.691406 35.910156 188.535156 35.847656 L 188.535156 35.816406 C 189.191406 35.582031 189.503906 35.363281 189.503906 34.878906 C 189.503906 34.347656 189.050781 34.097656 188.597656 34.097656 C 188.238281 34.097656 187.753906 34.363281 187.597656 34.738281 Z M 187.707031 34.769531 "
       id="path60" />
    <path
       style=" stroke:none;fill-rule:nonzero;fill:rgb(0%,0%,0%);fill-opacity:1;"
       d="M 192.246094 37.472656 C 192.136719 37.691406 192.042969 37.863281 191.621094 37.863281 L 190.433594 37.863281 L 190.433594 37.832031 L 191.636719 36.628906 C 192.417969 35.847656 192.574219 35.566406 192.574219 35.144531 C 192.574219 34.675781 192.230469 34.097656 191.558594 34.097656 C 191.402344 34.097656 190.574219 34.113281 190.230469 35.097656 L 190.371094 35.144531 C 190.449219 34.988281 190.699219 34.550781 191.261719 34.550781 C 191.746094 34.550781 192.027344 34.925781 192.027344 35.316406 C 192.027344 35.519531 192.011719 35.894531 191.121094 36.832031 L 189.808594 38.238281 L 189.808594 38.347656 L 192.042969 38.347656 L 192.355469 37.519531 Z M 192.246094 37.472656 "
       id="path62" />
    <path
       style="fill:none;stroke-width:0.553;stroke-linecap:round;stroke-linejoin:round;stroke:rgb(0%,0%,0%);stroke-opacity:1;stroke-miterlimit:4;"
       d="M 181.359375 40.4375 L 166.035156 58.011719 M 181.359375 40.4375 L 196.683594 58.011719 "
       id="path64" />
    <path
       style=" stroke:none;fill-rule:nonzero;fill:rgb(12.940979%,11.764526%,11.764526%);fill-opacity:1;"
       d="M 157.882813 64.421875 C 157.710938 64.609375 157.585938 64.84375 157.460938 64.84375 C 157.335938 64.84375 157.289063 64.6875 157.257813 64.59375 C 157.226563 64.4375 157.007813 63.578125 157.007813 63.46875 C 157.007813 63.46875 157.429688 62.703125 157.617188 62.703125 C 157.757813 62.703125 157.804688 62.8125 157.945313 62.8125 C 158.101563 62.8125 158.164063 62.6875 158.164063 62.578125 C 158.164063 62.421875 158.023438 62.34375 157.914063 62.34375 C 157.585938 62.34375 157.289063 62.734375 156.960938 63.25 L 156.882813 62.90625 C 156.773438 62.34375 156.679688 62.34375 156.539063 62.34375 C 156.335938 62.34375 155.929688 62.5 155.757813 62.5625 L 155.773438 62.65625 C 155.976563 62.59375 156.070313 62.578125 156.132813 62.578125 C 156.289063 62.578125 156.320313 62.671875 156.382813 62.859375 C 156.382813 62.890625 156.601563 63.734375 156.601563 63.796875 C 156.039063 64.609375 155.867188 64.828125 155.757813 64.828125 C 155.648438 64.828125 155.539063 64.703125 155.398438 64.703125 C 155.257813 64.703125 155.179688 64.828125 155.179688 64.921875 C 155.179688 65.078125 155.289063 65.1875 155.492188 65.1875 C 155.679688 65.1875 155.757813 65.125 155.867188 65 C 156.085938 64.765625 156.351563 64.4375 156.648438 64.015625 L 156.835938 64.765625 C 156.914063 65.109375 157.007813 65.1875 157.195313 65.1875 C 157.335938 65.1875 157.523438 65.1875 157.976563 64.46875 Z M 157.882813 64.421875 "
       id="path66" />
    <path
       style=" stroke:none;fill-rule:nonzero;fill:rgb(0%,0%,0%);fill-opacity:1;"
       d="M 158.398438 67.015625 L 159.804688 67.015625 L 159.804688 66.9375 C 159.554688 66.9375 159.367188 66.9375 159.367188 66.765625 C 159.367188 66.6875 159.429688 66.5 159.460938 66.40625 L 160.179688 63.78125 C 160.210938 63.703125 160.226563 63.609375 160.195313 63.609375 C 160.148438 63.609375 159.445313 63.75 159.210938 63.796875 L 159.210938 63.875 L 159.507813 63.859375 C 159.539063 63.859375 159.695313 63.859375 159.695313 64.015625 C 159.695313 64.0625 159.679688 64.140625 159.664063 64.1875 L 158.960938 66.671875 C 158.898438 66.90625 158.695313 66.921875 158.398438 66.9375 Z M 158.398438 67.015625 "
       id="path68" />
    <path
       style=" stroke:none;fill-rule:nonzero;fill:rgb(0%,0%,0%);fill-opacity:1;"
       d="M 165.617188 64.75 L 162.945313 63.53125 L 165.617188 62.3125 L 165.617188 61.890625 L 162.414063 63.34375 L 162.414063 63.734375 L 165.617188 65.171875 Z M 165.617188 64.75 "
       id="path70" />
    <path
       style=" stroke:none;fill-rule:nonzero;fill:rgb(0%,0%,0%);fill-opacity:1;"
       d="M 168.074219 64.140625 C 168.074219 63.53125 168.527344 61.046875 169.464844 61.046875 C 169.996094 61.046875 169.996094 61.6875 169.996094 61.875 C 169.996094 62.984375 169.464844 65 168.621094 65 C 168.417969 65 168.074219 64.875 168.074219 64.140625 Z M 170.496094 62.4375 C 170.496094 61.828125 170.324219 60.875 169.496094 60.875 C 168.621094 60.875 167.574219 62.171875 167.574219 63.859375 C 167.574219 64.515625 167.933594 65.171875 168.589844 65.171875 C 169.636719 65.171875 170.496094 63.6875 170.496094 62.4375 Z M 170.496094 62.4375 "
       id="path72" />
    <path
       style=" stroke:none;fill-rule:nonzero;fill:rgb(0%,0%,0%);fill-opacity:1;"
       d="M 171.035156 65.1875 C 171.175781 65.1875 171.394531 65.09375 171.394531 64.859375 C 171.394531 64.65625 171.222656 64.5 171.035156 64.5 C 170.847656 64.5 170.691406 64.65625 170.691406 64.859375 C 170.691406 65.09375 170.910156 65.1875 171.035156 65.1875 Z M 171.035156 65.1875 "
       id="path74" />
    <path
       style=" stroke:none;fill-rule:nonzero;fill:rgb(0%,0%,0%);fill-opacity:1;"
       d="M 172.800781 64.140625 C 172.800781 63.53125 173.253906 61.046875 174.191406 61.046875 C 174.722656 61.046875 174.722656 61.6875 174.722656 61.875 C 174.722656 62.984375 174.191406 65 173.347656 65 C 173.144531 65 172.800781 64.875 172.800781 64.140625 Z M 175.222656 62.4375 C 175.222656 61.828125 175.050781 60.875 174.222656 60.875 C 173.347656 60.875 172.300781 62.171875 172.300781 63.859375 C 172.300781 64.515625 172.660156 65.171875 173.316406 65.171875 C 174.363281 65.171875 175.222656 63.6875 175.222656 62.4375 Z M 175.222656 62.4375 "
       id="path76" />
    <path
       style=" stroke:none;fill-rule:nonzero;fill:rgb(0%,0%,0%);fill-opacity:1;"
       d="M 178.621094 61 L 178.589844 60.9375 L 176.230469 60.9375 L 175.714844 61.78125 L 175.808594 61.84375 C 176.027344 61.59375 176.183594 61.390625 176.636719 61.390625 L 178.042969 61.390625 L 178.058594 61.40625 L 175.746094 65.171875 L 176.183594 65.171875 Z M 178.621094 61 "
       id="path78" />
    <path
       style="fill:none;stroke-width:0.553;stroke-linecap:round;stroke-linejoin:round;stroke:rgb(0%,0%,0%);stroke-opacity:1;stroke-miterlimit:4;"
       d="M 166.035156 66.796875 L 150.707031 84.371094 M 166.035156 66.796875 L 181.359375 84.371094 "
       id="path80" />
    <path
       style=" stroke:none;fill-rule:nonzero;fill:rgb(12.940979%,11.764526%,11.764526%);fill-opacity:1;"
       d="M 215.886719 38.0625 C 215.714844 38.25 215.589844 38.484375 215.464844 38.484375 C 215.339844 38.484375 215.292969 38.328125 215.261719 38.234375 C 215.230469 38.078125 215.011719 37.21875 215.011719 37.109375 C 215.011719 37.109375 215.433594 36.34375 215.621094 36.34375 C 215.761719 36.34375 215.808594 36.453125 215.949219 36.453125 C 216.105469 36.453125 216.167969 36.328125 216.167969 36.21875 C 216.167969 36.0625 216.027344 35.984375 215.917969 35.984375 C 215.589844 35.984375 215.292969 36.375 214.964844 36.890625 L 214.886719 36.546875 C 214.777344 35.984375 214.683594 35.984375 214.542969 35.984375 C 214.339844 35.984375 213.933594 36.140625 213.761719 36.203125 L 213.777344 36.296875 C 213.980469 36.234375 214.074219 36.21875 214.136719 36.21875 C 214.292969 36.21875 214.324219 36.3125 214.386719 36.5 C 214.386719 36.53125 214.605469 37.375 214.605469 37.4375 C 214.042969 38.25 213.871094 38.46875 213.761719 38.46875 C 213.652344 38.46875 213.542969 38.34375 213.402344 38.34375 C 213.261719 38.34375 213.183594 38.46875 213.183594 38.5625 C 213.183594 38.71875 213.292969 38.828125 213.496094 38.828125 C 213.683594 38.828125 213.761719 38.765625 213.871094 38.640625 C 214.089844 38.40625 214.355469 38.078125 214.652344 37.65625 L 214.839844 38.40625 C 214.917969 38.75 215.011719 38.828125 215.199219 38.828125 C 215.339844 38.828125 215.527344 38.828125 215.980469 38.109375 Z M 215.886719 38.0625 "
       id="path82" />
    <path
       style=" stroke:none;fill-rule:nonzero;fill:rgb(0%,0%,0%);fill-opacity:1;"
       d="M 218.167969 39.953125 C 218.089844 40.140625 218.011719 40.265625 217.667969 40.265625 L 216.714844 40.265625 L 216.714844 40.25 L 217.683594 39.28125 C 218.308594 38.65625 218.433594 38.421875 218.433594 38.09375 C 218.433594 37.703125 218.152344 37.25 217.621094 37.25 C 217.496094 37.25 216.824219 37.265625 216.558594 38.046875 L 216.667969 38.09375 C 216.730469 37.96875 216.917969 37.609375 217.371094 37.609375 C 217.761719 37.609375 217.996094 37.921875 217.996094 38.234375 C 217.996094 38.390625 217.980469 38.6875 217.277344 39.4375 L 216.214844 40.578125 L 216.214844 40.65625 L 218.011719 40.65625 L 218.261719 39.984375 Z M 218.167969 39.953125 "
       id="path84" />
    <path
       style=" stroke:none;fill-rule:nonzero;fill:rgb(0%,0%,0%);fill-opacity:1;"
       d="M 223.625 38.390625 L 220.953125 37.171875 L 223.625 35.953125 L 223.625 35.53125 L 220.421875 36.984375 L 220.421875 37.375 L 223.625 38.8125 Z M 223.625 38.390625 "
       id="path86" />
    <path
       style=" stroke:none;fill-rule:nonzero;fill:rgb(0%,0%,0%);fill-opacity:1;"
       d="M 226.078125 37.78125 C 226.078125 37.171875 226.53125 34.6875 227.46875 34.6875 C 228 34.6875 228 35.328125 228 35.515625 C 228 36.625 227.46875 38.640625 226.625 38.640625 C 226.421875 38.640625 226.078125 38.515625 226.078125 37.78125 Z M 228.5 36.078125 C 228.5 35.46875 228.328125 34.515625 227.5 34.515625 C 226.625 34.515625 225.578125 35.8125 225.578125 37.5 C 225.578125 38.15625 225.9375 38.8125 226.59375 38.8125 C 227.640625 38.8125 228.5 37.328125 228.5 36.078125 Z M 228.5 36.078125 "
       id="path88" />
    <path
       style=" stroke:none;fill-rule:nonzero;fill:rgb(0%,0%,0%);fill-opacity:1;"
       d="M 229.042969 38.828125 C 229.183594 38.828125 229.402344 38.734375 229.402344 38.5 C 229.402344 38.296875 229.230469 38.140625 229.042969 38.140625 C 228.855469 38.140625 228.699219 38.296875 228.699219 38.5 C 228.699219 38.734375 228.917969 38.828125 229.042969 38.828125 Z M 229.042969 38.828125 "
       id="path90" />
    <path
       style=" stroke:none;fill-rule:nonzero;fill:rgb(0%,0%,0%);fill-opacity:1;"
       d="M 233.382813 34.453125 C 231.460938 34.5625 230.289063 36.140625 230.289063 37.4375 C 230.289063 38.46875 230.914063 38.8125 231.429688 38.8125 C 232.492188 38.8125 233.007813 37.75 233.007813 37.109375 C 233.007813 36.21875 232.367188 35.953125 231.945313 35.953125 C 231.835938 35.953125 231.742188 35.96875 231.648438 35.984375 C 231.554688 36 231.460938 36.046875 231.382813 36.078125 L 231.351563 36.078125 C 231.507813 35.75 232.273438 34.6875 233.382813 34.546875 Z M 231.695313 36.171875 C 232.179688 36.171875 232.445313 36.484375 232.445313 37 C 232.445313 37.5625 232.101563 38.640625 231.382813 38.640625 C 230.773438 38.640625 230.773438 37.9375 230.773438 37.78125 C 230.773438 37.671875 230.835938 36.171875 231.695313 36.171875 Z M 231.695313 36.171875 "
       id="path92" />
    <path
       style="fill:none;stroke-width:0.553;stroke-linecap:round;stroke-linejoin:round;stroke:rgb(0%,0%,0%);stroke-opacity:1;stroke-miterlimit:4;"
       d="M 221.203125 40.4375 L 205.878906 58.011719 M 221.203125 40.4375 L 236.527344 58.011719 "
       id="path94" />
    <path
       style=" stroke:none;fill-rule:nonzero;fill:rgb(12.940979%,11.764526%,11.764526%);fill-opacity:1;"
       d="M 231.738281 64.421875 C 231.566406 64.609375 231.441406 64.84375 231.316406 64.84375 C 231.191406 64.84375 231.144531 64.6875 231.113281 64.59375 C 231.082031 64.4375 230.863281 63.578125 230.863281 63.46875 C 230.863281 63.46875 231.285156 62.703125 231.472656 62.703125 C 231.613281 62.703125 231.660156 62.8125 231.800781 62.8125 C 231.957031 62.8125 232.019531 62.6875 232.019531 62.578125 C 232.019531 62.421875 231.878906 62.34375 231.769531 62.34375 C 231.441406 62.34375 231.144531 62.734375 230.816406 63.25 L 230.738281 62.90625 C 230.628906 62.34375 230.535156 62.34375 230.394531 62.34375 C 230.191406 62.34375 229.785156 62.5 229.613281 62.5625 L 229.628906 62.65625 C 229.832031 62.59375 229.925781 62.578125 229.988281 62.578125 C 230.144531 62.578125 230.175781 62.671875 230.238281 62.859375 C 230.238281 62.890625 230.457031 63.734375 230.457031 63.796875 C 229.894531 64.609375 229.722656 64.828125 229.613281 64.828125 C 229.503906 64.828125 229.394531 64.703125 229.253906 64.703125 C 229.113281 64.703125 229.035156 64.828125 229.035156 64.921875 C 229.035156 65.078125 229.144531 65.1875 229.347656 65.1875 C 229.535156 65.1875 229.613281 65.125 229.722656 65 C 229.941406 64.765625 230.207031 64.4375 230.503906 64.015625 L 230.691406 64.765625 C 230.769531 65.109375 230.863281 65.1875 231.050781 65.1875 C 231.191406 65.1875 231.378906 65.1875 231.832031 64.46875 Z M 231.738281 64.421875 "
       id="path96" />
    <path
       style=" stroke:none;fill-rule:nonzero;fill:rgb(0%,0%,0%);fill-opacity:1;"
       d="M 232.253906 67.015625 L 233.660156 67.015625 L 233.660156 66.9375 C 233.410156 66.9375 233.222656 66.9375 233.222656 66.765625 C 233.222656 66.6875 233.285156 66.5 233.316406 66.40625 L 234.035156 63.78125 C 234.066406 63.703125 234.082031 63.609375 234.050781 63.609375 C 234.003906 63.609375 233.300781 63.75 233.066406 63.796875 L 233.066406 63.875 L 233.363281 63.859375 C 233.394531 63.859375 233.550781 63.859375 233.550781 64.015625 C 233.550781 64.0625 233.535156 64.140625 233.519531 64.1875 L 232.816406 66.671875 C 232.753906 66.90625 232.550781 66.921875 232.253906 66.9375 Z M 232.253906 67.015625 "
       id="path98" />
    <path
       style=" stroke:none;fill-rule:nonzero;fill:rgb(0%,0%,0%);fill-opacity:1;"
       d="M 239.472656 64.75 L 236.800781 63.53125 L 239.472656 62.3125 L 239.472656 61.890625 L 236.269531 63.34375 L 236.269531 63.734375 L 239.472656 65.171875 Z M 239.472656 64.75 "
       id="path100" />
    <path
       style=" stroke:none;fill-rule:nonzero;fill:rgb(0%,0%,0%);fill-opacity:1;"
       d="M 241.929688 64.140625 C 241.929688 63.53125 242.382813 61.046875 243.320313 61.046875 C 243.851563 61.046875 243.851563 61.6875 243.851563 61.875 C 243.851563 62.984375 243.320313 65 242.476563 65 C 242.273438 65 241.929688 64.875 241.929688 64.140625 Z M 244.351563 62.4375 C 244.351563 61.828125 244.179688 60.875 243.351563 60.875 C 242.476563 60.875 241.429688 62.171875 241.429688 63.859375 C 241.429688 64.515625 241.789063 65.171875 242.445313 65.171875 C 243.492188 65.171875 244.351563 63.6875 244.351563 62.4375 Z M 244.351563 62.4375 "
       id="path102" />
    <path
       style=" stroke:none;fill-rule:nonzero;fill:rgb(0%,0%,0%);fill-opacity:1;"
       d="M 244.890625 65.1875 C 245.03125 65.1875 245.25 65.09375 245.25 64.859375 C 245.25 64.65625 245.078125 64.5 244.890625 64.5 C 244.703125 64.5 244.546875 64.65625 244.546875 64.859375 C 244.546875 65.09375 244.765625 65.1875 244.890625 65.1875 Z M 244.890625 65.1875 "
       id="path104" />
    <path
       style=" stroke:none;fill-rule:nonzero;fill:rgb(0%,0%,0%);fill-opacity:1;"
       d="M 247.449219 61.375 L 248.902344 61.375 L 249.042969 60.9375 L 247.433594 60.9375 L 246.777344 62.296875 L 246.777344 62.40625 C 247.511719 62.5625 248.152344 62.6875 248.152344 63.65625 C 248.152344 64.203125 247.699219 64.90625 247.074219 64.90625 C 246.730469 64.90625 246.574219 64.5625 246.292969 64.5625 C 246.183594 64.5625 246.042969 64.640625 246.042969 64.8125 C 246.042969 65 246.230469 65.171875 246.683594 65.171875 C 247.917969 65.171875 248.589844 64.203125 248.589844 63.390625 C 248.589844 62.546875 248.027344 62.09375 247.199219 61.9375 Z M 247.449219 61.375 "
       id="path106" />
    <path
       style=" stroke:none;fill-rule:nonzero;fill:rgb(0%,0%,0%);fill-opacity:1;"
       d="M 250.601563 61.375 L 252.054688 61.375 L 252.195313 60.9375 L 250.585938 60.9375 L 249.929688 62.296875 L 249.929688 62.40625 C 250.664063 62.5625 251.304688 62.6875 251.304688 63.65625 C 251.304688 64.203125 250.851563 64.90625 250.226563 64.90625 C 249.882813 64.90625 249.726563 64.5625 249.445313 64.5625 C 249.335938 64.5625 249.195313 64.640625 249.195313 64.8125 C 249.195313 65 249.382813 65.171875 249.835938 65.171875 C 251.070313 65.171875 251.742188 64.203125 251.742188 63.390625 C 251.742188 62.546875 251.179688 62.09375 250.351563 61.9375 Z M 250.601563 61.375 "
       id="path108" />
    <path
       style="fill:none;stroke-width:0.553;stroke-linecap:round;stroke-linejoin:round;stroke:rgb(0%,0%,0%);stroke-opacity:1;stroke-miterlimit:4;"
       d="M 236.527344 66.796875 L 221.203125 84.371094 M 236.527344 66.796875 L 251.855469 84.371094 "
       id="path110" />
    <path
       style=" stroke:none;fill-rule:nonzero;fill:rgb(12.940979%,11.764526%,11.764526%);fill-opacity:1;"
       d="M 246.644531 90.363281 C 246.472656 90.550781 246.347656 90.785156 246.222656 90.785156 C 246.097656 90.785156 246.050781 90.628906 246.019531 90.535156 C 245.988281 90.378906 245.769531 89.519531 245.769531 89.410156 C 245.769531 89.410156 246.191406 88.644531 246.378906 88.644531 C 246.519531 88.644531 246.566406 88.753906 246.707031 88.753906 C 246.863281 88.753906 246.925781 88.628906 246.925781 88.519531 C 246.925781 88.363281 246.785156 88.285156 246.675781 88.285156 C 246.347656 88.285156 246.050781 88.675781 245.722656 89.191406 L 245.644531 88.847656 C 245.535156 88.285156 245.441406 88.285156 245.300781 88.285156 C 245.097656 88.285156 244.691406 88.441406 244.519531 88.503906 L 244.535156 88.597656 C 244.738281 88.535156 244.832031 88.519531 244.894531 88.519531 C 245.050781 88.519531 245.082031 88.613281 245.144531 88.800781 C 245.144531 88.832031 245.363281 89.675781 245.363281 89.738281 C 244.800781 90.550781 244.628906 90.769531 244.519531 90.769531 C 244.410156 90.769531 244.300781 90.644531 244.160156 90.644531 C 244.019531 90.644531 243.941406 90.769531 243.941406 90.863281 C 243.941406 91.019531 244.050781 91.128906 244.253906 91.128906 C 244.441406 91.128906 244.519531 91.066406 244.628906 90.941406 C 244.847656 90.707031 245.113281 90.378906 245.410156 89.957031 L 245.597656 90.707031 C 245.675781 91.050781 245.769531 91.128906 245.957031 91.128906 C 246.097656 91.128906 246.285156 91.128906 246.738281 90.410156 Z M 246.644531 90.363281 "
       id="path112" />
    <path
       style=" stroke:none;fill-rule:nonzero;fill:rgb(0%,0%,0%);fill-opacity:1;"
       d="M 248.925781 92.25 C 248.847656 92.4375 248.769531 92.5625 248.425781 92.5625 L 247.472656 92.5625 L 247.472656 92.546875 L 248.441406 91.578125 C 249.066406 90.953125 249.191406 90.71875 249.191406 90.390625 C 249.191406 90 248.910156 89.546875 248.378906 89.546875 C 248.253906 89.546875 247.582031 89.5625 247.316406 90.34375 L 247.425781 90.390625 C 247.488281 90.265625 247.675781 89.90625 248.128906 89.90625 C 248.519531 89.90625 248.753906 90.21875 248.753906 90.53125 C 248.753906 90.6875 248.738281 90.984375 248.035156 91.734375 L 246.972656 92.875 L 246.972656 92.953125 L 248.769531 92.953125 L 249.019531 92.28125 Z M 248.925781 92.25 "
       id="path114" />
    <path
       style=" stroke:none;fill-rule:nonzero;fill:rgb(0%,0%,0%);fill-opacity:1;"
       d="M 254.378906 90.691406 L 251.707031 89.472656 L 254.378906 88.253906 L 254.378906 87.832031 L 251.175781 89.285156 L 251.175781 89.675781 L 254.378906 91.113281 Z M 254.378906 90.691406 "
       id="path116" />
    <path
       style=" stroke:none;fill-rule:nonzero;fill:rgb(0%,0%,0%);fill-opacity:1;"
       d="M 256.835938 90.082031 C 256.835938 89.472656 257.289063 86.988281 258.226563 86.988281 C 258.757813 86.988281 258.757813 87.628906 258.757813 87.816406 C 258.757813 88.925781 258.226563 90.941406 257.382813 90.941406 C 257.179688 90.941406 256.835938 90.816406 256.835938 90.082031 Z M 259.257813 88.378906 C 259.257813 87.769531 259.085938 86.816406 258.257813 86.816406 C 257.382813 86.816406 256.335938 88.113281 256.335938 89.800781 C 256.335938 90.457031 256.695313 91.113281 257.351563 91.113281 C 258.398438 91.113281 259.257813 89.628906 259.257813 88.378906 Z M 259.257813 88.378906 "
       id="path118" />
    <path
       style=" stroke:none;fill-rule:nonzero;fill:rgb(0%,0%,0%);fill-opacity:1;"
       d="M 259.796875 91.128906 C 259.9375 91.128906 260.15625 91.035156 260.15625 90.800781 C 260.15625 90.597656 259.984375 90.441406 259.796875 90.441406 C 259.609375 90.441406 259.453125 90.597656 259.453125 90.800781 C 259.453125 91.035156 259.671875 91.128906 259.796875 91.128906 Z M 259.796875 91.128906 "
       id="path120" />
    <path
       style=" stroke:none;fill-rule:nonzero;fill:rgb(0%,0%,0%);fill-opacity:1;"
       d="M 261.042969 90.082031 C 261.042969 90.269531 261.183594 91.113281 262.308594 91.113281 C 263.152344 91.113281 263.652344 90.550781 263.652344 90.003906 C 263.652344 89.519531 263.402344 89.128906 262.933594 88.660156 C 263.277344 88.550781 263.964844 88.316406 263.964844 87.707031 C 263.964844 87.019531 263.277344 86.816406 262.871094 86.816406 C 262.277344 86.816406 261.730469 87.113281 261.730469 87.769531 C 261.730469 88.097656 261.886719 88.394531 262.277344 88.800781 C 262.121094 88.847656 261.042969 89.160156 261.042969 90.082031 Z M 261.464844 90.097656 C 261.464844 89.300781 262.246094 88.957031 262.417969 88.894531 C 263.027344 89.535156 263.183594 89.691406 263.183594 90.097656 C 263.183594 90.707031 262.683594 90.972656 262.355469 90.972656 C 261.808594 90.972656 261.464844 90.597656 261.464844 90.097656 Z M 262.214844 87.660156 C 262.214844 87.238281 262.449219 86.957031 262.855469 86.957031 C 263.371094 86.957031 263.527344 87.394531 263.527344 87.691406 C 263.527344 88.207031 263.152344 88.394531 262.808594 88.550781 C 262.214844 88.019531 262.214844 87.816406 262.214844 87.660156 Z M 262.214844 87.660156 "
       id="path122" />
    <path
       style=" stroke:none;fill-rule:nonzero;fill:rgb(0%,0%,0%);fill-opacity:1;"
       d="M 267.289063 86.753906 C 265.367188 86.863281 264.195313 88.441406 264.195313 89.738281 C 264.195313 90.769531 264.820313 91.113281 265.335938 91.113281 C 266.398438 91.113281 266.914063 90.050781 266.914063 89.410156 C 266.914063 88.519531 266.273438 88.253906 265.851563 88.253906 C 265.742188 88.253906 265.648438 88.269531 265.554688 88.285156 C 265.460938 88.300781 265.367188 88.347656 265.289063 88.378906 L 265.257813 88.378906 C 265.414063 88.050781 266.179688 86.988281 267.289063 86.847656 Z M 265.601563 88.472656 C 266.085938 88.472656 266.351563 88.785156 266.351563 89.300781 C 266.351563 89.863281 266.007813 90.941406 265.289063 90.941406 C 264.679688 90.941406 264.679688 90.238281 264.679688 90.082031 C 264.679688 89.972656 264.742188 88.472656 265.601563 88.472656 Z M 265.601563 88.472656 "
       id="path124" />
    <path
       style="fill:none;stroke-width:0.553;stroke-linecap:round;stroke-linejoin:round;stroke:rgb(0%,0%,0%);stroke-opacity:1;stroke-miterlimit:4;"
       d="M 251.855469 93.15625 L 236.527344 110.730469 M 251.855469 93.15625 L 267.179688 110.730469 "
       id="path126" />
    <path
       style=" stroke:none;fill-rule:nonzero;fill:rgb(12.940979%,11.764526%,11.764526%);fill-opacity:1;"
       d="M 258.609375 117.140625 C 258.4375 117.328125 258.3125 117.5625 258.1875 117.5625 C 258.0625 117.5625 258.015625 117.40625 257.984375 117.3125 C 257.953125 117.15625 257.734375 116.296875 257.734375 116.1875 C 257.734375 116.1875 258.15625 115.421875 258.34375 115.421875 C 258.484375 115.421875 258.53125 115.53125 258.671875 115.53125 C 258.828125 115.53125 258.890625 115.40625 258.890625 115.296875 C 258.890625 115.140625 258.75 115.0625 258.640625 115.0625 C 258.3125 115.0625 258.015625 115.453125 257.6875 115.96875 L 257.609375 115.625 C 257.5 115.0625 257.40625 115.0625 257.265625 115.0625 C 257.0625 115.0625 256.65625 115.21875 256.484375 115.28125 L 256.5 115.375 C 256.703125 115.3125 256.796875 115.296875 256.859375 115.296875 C 257.015625 115.296875 257.046875 115.390625 257.109375 115.578125 C 257.109375 115.609375 257.328125 116.453125 257.328125 116.515625 C 256.765625 117.328125 256.59375 117.546875 256.484375 117.546875 C 256.375 117.546875 256.265625 117.421875 256.125 117.421875 C 255.984375 117.421875 255.90625 117.546875 255.90625 117.640625 C 255.90625 117.796875 256.015625 117.90625 256.21875 117.90625 C 256.40625 117.90625 256.484375 117.84375 256.59375 117.71875 C 256.8125 117.484375 257.078125 117.15625 257.375 116.734375 L 257.5625 117.484375 C 257.640625 117.828125 257.734375 117.90625 257.921875 117.90625 C 258.0625 117.90625 258.25 117.90625 258.703125 117.1875 Z M 258.609375 117.140625 "
       id="path128" />
    <path
       style=" stroke:none;fill-rule:nonzero;fill:rgb(0%,0%,0%);fill-opacity:1;"
       d="M 259.125 119.734375 L 260.53125 119.734375 L 260.53125 119.65625 C 260.28125 119.65625 260.09375 119.65625 260.09375 119.484375 C 260.09375 119.40625 260.15625 119.21875 260.1875 119.125 L 260.90625 116.5 C 260.9375 116.421875 260.953125 116.328125 260.921875 116.328125 C 260.875 116.328125 260.171875 116.46875 259.9375 116.515625 L 259.9375 116.59375 L 260.234375 116.578125 C 260.265625 116.578125 260.421875 116.578125 260.421875 116.734375 C 260.421875 116.78125 260.40625 116.859375 260.390625 116.90625 L 259.6875 119.390625 C 259.625 119.625 259.421875 119.640625 259.125 119.65625 Z M 259.125 119.734375 "
       id="path130" />
    <path
       style=" stroke:none;fill-rule:nonzero;fill:rgb(0%,0%,0%);fill-opacity:1;"
       d="M 266.34375 117.46875 L 263.671875 116.25 L 266.34375 115.03125 L 266.34375 114.609375 L 263.140625 116.0625 L 263.140625 116.453125 L 266.34375 117.890625 Z M 266.34375 117.46875 "
       id="path132" />
    <path
       style=" stroke:none;fill-rule:nonzero;fill:rgb(0%,0%,0%);fill-opacity:1;"
       d="M 268.800781 116.859375 C 268.800781 116.25 269.253906 113.765625 270.191406 113.765625 C 270.722656 113.765625 270.722656 114.40625 270.722656 114.59375 C 270.722656 115.703125 270.191406 117.71875 269.347656 117.71875 C 269.144531 117.71875 268.800781 117.59375 268.800781 116.859375 Z M 271.222656 115.15625 C 271.222656 114.546875 271.050781 113.59375 270.222656 113.59375 C 269.347656 113.59375 268.300781 114.890625 268.300781 116.578125 C 268.300781 117.234375 268.660156 117.890625 269.316406 117.890625 C 270.363281 117.890625 271.222656 116.40625 271.222656 115.15625 Z M 271.222656 115.15625 "
       id="path134" />
    <path
       style=" stroke:none;fill-rule:nonzero;fill:rgb(0%,0%,0%);fill-opacity:1;"
       d="M 271.761719 117.90625 C 271.902344 117.90625 272.121094 117.8125 272.121094 117.578125 C 272.121094 117.375 271.949219 117.21875 271.761719 117.21875 C 271.574219 117.21875 271.417969 117.375 271.417969 117.578125 C 271.417969 117.8125 271.636719 117.90625 271.761719 117.90625 Z M 271.761719 117.90625 "
       id="path136" />
    <path
       style=" stroke:none;fill-rule:nonzero;fill:rgb(0%,0%,0%);fill-opacity:1;"
       d="M 273.007813 116.859375 C 273.007813 117.046875 273.148438 117.890625 274.273438 117.890625 C 275.117188 117.890625 275.617188 117.328125 275.617188 116.78125 C 275.617188 116.296875 275.367188 115.90625 274.898438 115.4375 C 275.242188 115.328125 275.929688 115.09375 275.929688 114.484375 C 275.929688 113.796875 275.242188 113.59375 274.835938 113.59375 C 274.242188 113.59375 273.695313 113.890625 273.695313 114.546875 C 273.695313 114.875 273.851563 115.171875 274.242188 115.578125 C 274.085938 115.625 273.007813 115.9375 273.007813 116.859375 Z M 273.429688 116.875 C 273.429688 116.078125 274.210938 115.734375 274.382813 115.671875 C 274.992188 116.3125 275.148438 116.46875 275.148438 116.875 C 275.148438 117.484375 274.648438 117.75 274.320313 117.75 C 273.773438 117.75 273.429688 117.375 273.429688 116.875 Z M 274.179688 114.4375 C 274.179688 114.015625 274.414063 113.734375 274.820313 113.734375 C 275.335938 113.734375 275.492188 114.171875 275.492188 114.46875 C 275.492188 114.984375 275.117188 115.171875 274.773438 115.328125 C 274.179688 114.796875 274.179688 114.59375 274.179688 114.4375 Z M 274.179688 114.4375 "
       id="path138" />
    <path
       style=" stroke:none;fill-rule:nonzero;fill:rgb(0%,0%,0%);fill-opacity:1;"
       d="M 276.285156 117.84375 L 278.035156 117.84375 L 278.035156 117.75 C 277.722656 117.75 277.503906 117.734375 277.503906 117.546875 C 277.503906 117.4375 277.582031 117.203125 277.613281 117.078125 L 278.503906 113.8125 C 278.535156 113.71875 278.566406 113.59375 278.519531 113.59375 C 278.472656 113.59375 277.597656 113.78125 277.300781 113.828125 L 277.300781 113.921875 L 277.660156 113.90625 C 277.722656 113.90625 277.894531 113.90625 277.894531 114.109375 C 277.894531 114.15625 277.878906 114.25 277.847656 114.3125 L 276.988281 117.421875 C 276.910156 117.703125 276.660156 117.71875 276.285156 117.75 Z M 276.285156 117.84375 "
       id="path140" />
    <path
       style="fill:none;stroke-width:0.553;stroke-linecap:round;stroke-linejoin:round;stroke:rgb(0%,0%,0%);stroke-opacity:1;stroke-miterlimit:4;"
       d="M 267.179688 119.515625 L 251.855469 137.085938 M 267.179688 119.515625 L 282.503906 137.085938 "
       id="path142" />
    <path
       style="fill:none;stroke-width:0.63;stroke-linecap:round;stroke-linejoin:round;stroke:rgb(0%,0%,0%);stroke-opacity:1;stroke-miterlimit:4;"
       d="M 8.058594 136.144531 L 133.582031 136.144531 "
       id="path144" />
    <path
       style=" stroke:none;fill-rule:nonzero;fill:rgb(0%,0%,0%);fill-opacity:1;"
       d="M 135.066406 135.5 C 134.027344 135.183594 133.351563 134.894531 132.511719 134.558594 L 132.511719 137.738281 C 132.8125 137.59375 134.027344 137.113281 135.066406 136.796875 C 136.183594 136.460938 137.195313 136.230469 137.847656 136.148438 C 137.195313 136.066406 136.183594 135.835938 135.066406 135.5 "
       id="path146" />
    <path
       style=" stroke:none;fill-rule:nonzero;fill:rgb(92.155457%,9.803772%,13.725281%);fill-opacity:1;"
       d="M 234.894531 117.976563 C 235.222656 117.304688 235.347656 116.710938 235.347656 116.570313 C 235.347656 116.289063 235.191406 116.257813 235.097656 116.257813 C 234.644531 116.257813 234.535156 117.367188 234.488281 117.835938 C 234.472656 118.054688 233.785156 118.851563 233.003906 118.851563 C 232.113281 118.851563 231.988281 117.976563 231.988281 117.554688 C 231.988281 117.101563 232.113281 116.210938 232.941406 115.039063 C 233.066406 114.898438 233.066406 114.867188 233.066406 114.835938 C 233.066406 114.742188 232.988281 114.679688 232.910156 114.679688 C 232.847656 114.679688 232.816406 114.710938 232.769531 114.757813 C 232.144531 115.585938 231.597656 116.773438 231.597656 118.023438 C 231.597656 119.132813 232.066406 119.695313 232.847656 119.695313 C 233.535156 119.695313 234.113281 119.242188 234.503906 118.679688 C 234.597656 119.179688 234.863281 119.695313 235.597656 119.695313 C 237.597656 119.695313 238.472656 116.539063 238.472656 115.382813 C 238.472656 114.585938 238.050781 114.539063 237.957031 114.539063 C 237.707031 114.539063 237.394531 114.789063 237.394531 115.117188 C 237.394531 115.179688 237.394531 115.289063 237.535156 115.414063 C 237.800781 115.664063 237.941406 115.992188 237.941406 116.398438 C 237.941406 117.382813 236.957031 118.851563 235.753906 118.851563 C 235.160156 118.851563 234.957031 118.382813 234.894531 117.976563 Z M 234.894531 117.976563 "
       id="path148" />
    <path
       style=" stroke:none;fill-rule:nonzero;fill:rgb(92.155457%,9.803772%,13.725281%);fill-opacity:1;"
       d="M 241.191406 120.585938 C 241.082031 120.804688 240.988281 120.976563 240.566406 120.976563 L 239.378906 120.976563 L 239.378906 120.945313 L 240.582031 119.742188 C 241.363281 118.960938 241.519531 118.679688 241.519531 118.257813 C 241.519531 117.789063 241.175781 117.210938 240.503906 117.210938 C 240.347656 117.210938 239.519531 117.226563 239.175781 118.210938 L 239.316406 118.257813 C 239.394531 118.101563 239.644531 117.664063 240.207031 117.664063 C 240.691406 117.664063 240.972656 118.039063 240.972656 118.429688 C 240.972656 118.632813 240.957031 119.007813 240.066406 119.945313 L 238.753906 121.351563 L 238.753906 121.460938 L 240.988281 121.460938 L 241.300781 120.632813 Z M 241.191406 120.585938 "
       id="path150" />
    <path
       style=" stroke:none;fill-rule:nonzero;fill:rgb(12.940979%,11.764526%,11.764526%);fill-opacity:1;"
       d="M 250.328125 144.75 C 250.65625 144.078125 250.78125 143.484375 250.78125 143.34375 C 250.78125 143.0625 250.625 143.03125 250.53125 143.03125 C 250.078125 143.03125 249.96875 144.140625 249.921875 144.609375 C 249.90625 144.828125 249.21875 145.625 248.4375 145.625 C 247.546875 145.625 247.421875 144.75 247.421875 144.328125 C 247.421875 143.875 247.546875 142.984375 248.375 141.8125 C 248.5 141.671875 248.5 141.640625 248.5 141.609375 C 248.5 141.515625 248.421875 141.453125 248.34375 141.453125 C 248.28125 141.453125 248.25 141.484375 248.203125 141.53125 C 247.578125 142.359375 247.03125 143.546875 247.03125 144.796875 C 247.03125 145.90625 247.5 146.46875 248.28125 146.46875 C 248.96875 146.46875 249.546875 146.015625 249.9375 145.453125 C 250.03125 145.953125 250.296875 146.46875 251.03125 146.46875 C 253.03125 146.46875 253.90625 143.3125 253.90625 142.15625 C 253.90625 141.359375 253.484375 141.3125 253.390625 141.3125 C 253.140625 141.3125 252.828125 141.5625 252.828125 141.890625 C 252.828125 141.953125 252.828125 142.0625 252.96875 142.1875 C 253.234375 142.4375 253.375 142.765625 253.375 143.171875 C 253.375 144.15625 252.390625 145.625 251.1875 145.625 C 250.59375 145.625 250.390625 145.15625 250.328125 144.75 Z M 250.328125 144.75 "
       id="path152" />
    <g
       clip-path="url(#clip1)"
       clip-rule="nonzero"
       id="g156">
      <path
         style=" stroke:none;fill-rule:nonzero;fill:rgb(12.940979%,11.764526%,11.764526%);fill-opacity:1;"
         d="M 254.421875 148.230469 L 256.171875 148.230469 L 256.171875 148.136719 C 255.859375 148.136719 255.640625 148.121094 255.640625 147.933594 C 255.640625 147.824219 255.71875 147.589844 255.75 147.464844 L 256.640625 144.199219 C 256.671875 144.105469 256.703125 143.980469 256.65625 143.980469 C 256.609375 143.980469 255.734375 144.167969 255.4375 144.214844 L 255.4375 144.308594 L 255.796875 144.292969 C 255.859375 144.292969 256.03125 144.292969 256.03125 144.496094 C 256.03125 144.542969 256.015625 144.636719 255.984375 144.699219 L 255.125 147.808594 C 255.046875 148.089844 254.796875 148.105469 254.421875 148.136719 Z M 254.421875 148.230469 "
         id="path154" />
    </g>
    <path
       style=" stroke:none;fill-rule:nonzero;fill:rgb(12.940979%,11.764526%,11.764526%);fill-opacity:1;"
       d="M 149.855469 91.835938 C 150.183594 91.164063 150.308594 90.570313 150.308594 90.429688 C 150.308594 90.148438 150.152344 90.117188 150.058594 90.117188 C 149.605469 90.117188 149.496094 91.226563 149.449219 91.695313 C 149.433594 91.914063 148.746094 92.710938 147.964844 92.710938 C 147.074219 92.710938 146.949219 91.835938 146.949219 91.414063 C 146.949219 90.960938 147.074219 90.070313 147.902344 88.898438 C 148.027344 88.757813 148.027344 88.726563 148.027344 88.695313 C 148.027344 88.601563 147.949219 88.539063 147.871094 88.539063 C 147.808594 88.539063 147.777344 88.570313 147.730469 88.617188 C 147.105469 89.445313 146.558594 90.632813 146.558594 91.882813 C 146.558594 92.992188 147.027344 93.554688 147.808594 93.554688 C 148.496094 93.554688 149.074219 93.101563 149.464844 92.539063 C 149.558594 93.039063 149.824219 93.554688 150.558594 93.554688 C 152.558594 93.554688 153.433594 90.398438 153.433594 89.242188 C 153.433594 88.445313 153.011719 88.398438 152.917969 88.398438 C 152.667969 88.398438 152.355469 88.648438 152.355469 88.976563 C 152.355469 89.039063 152.355469 89.148438 152.496094 89.273438 C 152.761719 89.523438 152.902344 89.851563 152.902344 90.257813 C 152.902344 91.242188 151.917969 92.710938 150.714844 92.710938 C 150.121094 92.710938 149.917969 92.242188 149.855469 91.835938 Z M 149.855469 91.835938 "
       id="path158" />
    <path
       style=" stroke:none;fill-rule:nonzero;fill:rgb(12.940979%,11.764526%,11.764526%);fill-opacity:1;"
       d="M 153.949219 95.316406 L 155.699219 95.316406 L 155.699219 95.222656 C 155.386719 95.222656 155.167969 95.207031 155.167969 95.019531 C 155.167969 94.910156 155.246094 94.675781 155.277344 94.550781 L 156.167969 91.285156 C 156.199219 91.191406 156.230469 91.066406 156.183594 91.066406 C 156.136719 91.066406 155.261719 91.253906 154.964844 91.300781 L 154.964844 91.394531 L 155.324219 91.378906 C 155.386719 91.378906 155.558594 91.378906 155.558594 91.582031 C 155.558594 91.628906 155.542969 91.722656 155.511719 91.785156 L 154.652344 94.894531 C 154.574219 95.175781 154.324219 95.191406 153.949219 95.222656 Z M 153.949219 95.316406 "
       id="path160" />
    <path
       style=" stroke:none;fill-rule:nonzero;fill:rgb(12.940979%,11.764526%,11.764526%);fill-opacity:1;"
       d="M 193.949219 65.691406 C 194.277344 65.019531 194.402344 64.425781 194.402344 64.285156 C 194.402344 64.003906 194.246094 63.972656 194.152344 63.972656 C 193.699219 63.972656 193.589844 65.082031 193.542969 65.550781 C 193.527344 65.769531 192.839844 66.566406 192.058594 66.566406 C 191.167969 66.566406 191.042969 65.691406 191.042969 65.269531 C 191.042969 64.816406 191.167969 63.925781 191.996094 62.753906 C 192.121094 62.613281 192.121094 62.582031 192.121094 62.550781 C 192.121094 62.457031 192.042969 62.394531 191.964844 62.394531 C 191.902344 62.394531 191.871094 62.425781 191.824219 62.472656 C 191.199219 63.300781 190.652344 64.488281 190.652344 65.738281 C 190.652344 66.847656 191.121094 67.410156 191.902344 67.410156 C 192.589844 67.410156 193.167969 66.957031 193.558594 66.394531 C 193.652344 66.894531 193.917969 67.410156 194.652344 67.410156 C 196.652344 67.410156 197.527344 64.253906 197.527344 63.097656 C 197.527344 62.300781 197.105469 62.253906 197.011719 62.253906 C 196.761719 62.253906 196.449219 62.503906 196.449219 62.832031 C 196.449219 62.894531 196.449219 63.003906 196.589844 63.128906 C 196.855469 63.378906 196.996094 63.707031 196.996094 64.113281 C 196.996094 65.097656 196.011719 66.566406 194.808594 66.566406 C 194.214844 66.566406 194.011719 66.097656 193.949219 65.691406 Z M 193.949219 65.691406 "
       id="path162" />
    <path
       style=" stroke:none;fill-rule:nonzero;fill:rgb(12.940979%,11.764526%,11.764526%);fill-opacity:1;"
       d="M 198.042969 69.175781 L 199.792969 69.175781 L 199.792969 69.082031 C 199.480469 69.082031 199.261719 69.066406 199.261719 68.878906 C 199.261719 68.769531 199.339844 68.535156 199.371094 68.410156 L 200.261719 65.144531 C 200.292969 65.050781 200.324219 64.925781 200.277344 64.925781 C 200.230469 64.925781 199.355469 65.113281 199.058594 65.160156 L 199.058594 65.253906 L 199.417969 65.238281 C 199.480469 65.238281 199.652344 65.238281 199.652344 65.441406 C 199.652344 65.488281 199.636719 65.582031 199.605469 65.644531 L 198.746094 68.753906 C 198.667969 69.035156 198.417969 69.050781 198.042969 69.082031 Z M 198.042969 69.175781 "
       id="path164" />
    <path
       style=" stroke:none;fill-rule:nonzero;fill:rgb(12.940979%,11.764526%,11.764526%);fill-opacity:1;"
       d="M 221.035156 91.835938 C 221.363281 91.164063 221.488281 90.570313 221.488281 90.429688 C 221.488281 90.148438 221.332031 90.117188 221.238281 90.117188 C 220.785156 90.117188 220.675781 91.226563 220.628906 91.695313 C 220.613281 91.914063 219.925781 92.710938 219.144531 92.710938 C 218.253906 92.710938 218.128906 91.835938 218.128906 91.414063 C 218.128906 90.960938 218.253906 90.070313 219.082031 88.898438 C 219.207031 88.757813 219.207031 88.726563 219.207031 88.695313 C 219.207031 88.601563 219.128906 88.539063 219.050781 88.539063 C 218.988281 88.539063 218.957031 88.570313 218.910156 88.617188 C 218.285156 89.445313 217.738281 90.632813 217.738281 91.882813 C 217.738281 92.992188 218.207031 93.554688 218.988281 93.554688 C 219.675781 93.554688 220.253906 93.101563 220.644531 92.539063 C 220.738281 93.039063 221.003906 93.554688 221.738281 93.554688 C 223.738281 93.554688 224.613281 90.398438 224.613281 89.242188 C 224.613281 88.445313 224.191406 88.398438 224.097656 88.398438 C 223.847656 88.398438 223.535156 88.648438 223.535156 88.976563 C 223.535156 89.039063 223.535156 89.148438 223.675781 89.273438 C 223.941406 89.523438 224.082031 89.851563 224.082031 90.257813 C 224.082031 91.242188 223.097656 92.710938 221.894531 92.710938 C 221.300781 92.710938 221.097656 92.242188 221.035156 91.835938 Z M 221.035156 91.835938 "
       id="path166" />
    <path
       style=" stroke:none;fill-rule:nonzero;fill:rgb(12.940979%,11.764526%,11.764526%);fill-opacity:1;"
       d="M 225.128906 95.316406 L 226.878906 95.316406 L 226.878906 95.222656 C 226.566406 95.222656 226.347656 95.207031 226.347656 95.019531 C 226.347656 94.910156 226.425781 94.675781 226.457031 94.550781 L 227.347656 91.285156 C 227.378906 91.191406 227.410156 91.066406 227.363281 91.066406 C 227.316406 91.066406 226.441406 91.253906 226.144531 91.300781 L 226.144531 91.394531 L 226.503906 91.378906 C 226.566406 91.378906 226.738281 91.378906 226.738281 91.582031 C 226.738281 91.628906 226.722656 91.722656 226.691406 91.785156 L 225.832031 94.894531 C 225.753906 95.175781 225.503906 95.191406 225.128906 95.222656 Z M 225.128906 95.316406 "
       id="path168" />
    <path
       style=" stroke:none;fill-rule:nonzero;fill:rgb(92.155457%,9.803772%,13.725281%);fill-opacity:1;"
       d="M 282.453125 144.75 C 282.78125 144.078125 282.90625 143.484375 282.90625 143.34375 C 282.90625 143.0625 282.75 143.03125 282.65625 143.03125 C 282.203125 143.03125 282.09375 144.140625 282.046875 144.609375 C 282.03125 144.828125 281.34375 145.625 280.5625 145.625 C 279.671875 145.625 279.546875 144.75 279.546875 144.328125 C 279.546875 143.875 279.671875 142.984375 280.5 141.8125 C 280.625 141.671875 280.625 141.640625 280.625 141.609375 C 280.625 141.515625 280.546875 141.453125 280.46875 141.453125 C 280.40625 141.453125 280.375 141.484375 280.328125 141.53125 C 279.703125 142.359375 279.15625 143.546875 279.15625 144.796875 C 279.15625 145.90625 279.625 146.46875 280.40625 146.46875 C 281.09375 146.46875 281.671875 146.015625 282.0625 145.453125 C 282.15625 145.953125 282.421875 146.46875 283.15625 146.46875 C 285.15625 146.46875 286.03125 143.3125 286.03125 142.15625 C 286.03125 141.359375 285.609375 141.3125 285.515625 141.3125 C 285.265625 141.3125 284.953125 141.5625 284.953125 141.890625 C 284.953125 141.953125 284.953125 142.0625 285.09375 142.1875 C 285.359375 142.4375 285.5 142.765625 285.5 143.171875 C 285.5 144.15625 284.515625 145.625 283.3125 145.625 C 282.71875 145.625 282.515625 145.15625 282.453125 144.75 Z M 282.453125 144.75 "
       id="path170" />
    <g
       clip-path="url(#clip2)"
       clip-rule="nonzero"
       id="g174">
      <path
         style=" stroke:none;fill-rule:nonzero;fill:rgb(92.155457%,9.803772%,13.725281%);fill-opacity:1;"
         d="M 288.753906 147.355469 C 288.644531 147.574219 288.550781 147.746094 288.128906 147.746094 L 286.941406 147.746094 L 286.941406 147.714844 L 288.144531 146.511719 C 288.925781 145.730469 289.082031 145.449219 289.082031 145.027344 C 289.082031 144.558594 288.738281 143.980469 288.066406 143.980469 C 287.910156 143.980469 287.082031 143.996094 286.738281 144.980469 L 286.878906 145.027344 C 286.957031 144.871094 287.207031 144.433594 287.769531 144.433594 C 288.253906 144.433594 288.535156 144.808594 288.535156 145.199219 C 288.535156 145.402344 288.519531 145.777344 287.628906 146.714844 L 286.316406 148.121094 L 286.316406 148.230469 L 288.550781 148.230469 L 288.863281 147.402344 Z M 288.753906 147.355469 "
         id="path172" />
    </g>
    <path
       style=" stroke:none;fill-rule:nonzero;fill:rgb(92.155457%,9.803772%,13.725281%);fill-opacity:1;"
       d="M 207.175781 65.691406 C 207.503906 65.019531 207.628906 64.425781 207.628906 64.285156 C 207.628906 64.003906 207.472656 63.972656 207.378906 63.972656 C 206.925781 63.972656 206.816406 65.082031 206.769531 65.550781 C 206.753906 65.769531 206.066406 66.566406 205.285156 66.566406 C 204.394531 66.566406 204.269531 65.691406 204.269531 65.269531 C 204.269531 64.816406 204.394531 63.925781 205.222656 62.753906 C 205.347656 62.613281 205.347656 62.582031 205.347656 62.550781 C 205.347656 62.457031 205.269531 62.394531 205.191406 62.394531 C 205.128906 62.394531 205.097656 62.425781 205.050781 62.472656 C 204.425781 63.300781 203.878906 64.488281 203.878906 65.738281 C 203.878906 66.847656 204.347656 67.410156 205.128906 67.410156 C 205.816406 67.410156 206.394531 66.957031 206.785156 66.394531 C 206.878906 66.894531 207.144531 67.410156 207.878906 67.410156 C 209.878906 67.410156 210.753906 64.253906 210.753906 63.097656 C 210.753906 62.300781 210.332031 62.253906 210.238281 62.253906 C 209.988281 62.253906 209.675781 62.503906 209.675781 62.832031 C 209.675781 62.894531 209.675781 63.003906 209.816406 63.128906 C 210.082031 63.378906 210.222656 63.707031 210.222656 64.113281 C 210.222656 65.097656 209.238281 66.566406 208.035156 66.566406 C 207.441406 66.566406 207.238281 66.097656 207.175781 65.691406 Z M 207.175781 65.691406 "
       id="path176" />
    <path
       style=" stroke:none;fill-rule:nonzero;fill:rgb(92.155457%,9.803772%,13.725281%);fill-opacity:1;"
       d="M 213.476563 68.300781 C 213.367188 68.519531 213.273438 68.691406 212.851563 68.691406 L 211.664063 68.691406 L 211.664063 68.660156 L 212.867188 67.457031 C 213.648438 66.675781 213.804688 66.394531 213.804688 65.972656 C 213.804688 65.503906 213.460938 64.925781 212.789063 64.925781 C 212.632813 64.925781 211.804688 64.941406 211.460938 65.925781 L 211.601563 65.972656 C 211.679688 65.816406 211.929688 65.378906 212.492188 65.378906 C 212.976563 65.378906 213.257813 65.753906 213.257813 66.144531 C 213.257813 66.347656 213.242188 66.722656 212.351563 67.660156 L 211.039063 69.066406 L 211.039063 69.175781 L 213.273438 69.175781 L 213.585938 68.347656 Z M 213.476563 68.300781 "
       id="path178" />
    <path
       style=" stroke:none;fill-rule:nonzero;fill:rgb(92.155457%,9.803772%,13.725281%);fill-opacity:1;"
       d="M 180.71875 91.835938 C 181.046875 91.164063 181.171875 90.570313 181.171875 90.429688 C 181.171875 90.148438 181.015625 90.117188 180.921875 90.117188 C 180.46875 90.117188 180.359375 91.226563 180.3125 91.695313 C 180.296875 91.914063 179.609375 92.710938 178.828125 92.710938 C 177.9375 92.710938 177.8125 91.835938 177.8125 91.414063 C 177.8125 90.960938 177.9375 90.070313 178.765625 88.898438 C 178.890625 88.757813 178.890625 88.726563 178.890625 88.695313 C 178.890625 88.601563 178.8125 88.539063 178.734375 88.539063 C 178.671875 88.539063 178.640625 88.570313 178.59375 88.617188 C 177.96875 89.445313 177.421875 90.632813 177.421875 91.882813 C 177.421875 92.992188 177.890625 93.554688 178.671875 93.554688 C 179.359375 93.554688 179.9375 93.101563 180.328125 92.539063 C 180.421875 93.039063 180.6875 93.554688 181.421875 93.554688 C 183.421875 93.554688 184.296875 90.398438 184.296875 89.242188 C 184.296875 88.445313 183.875 88.398438 183.78125 88.398438 C 183.53125 88.398438 183.21875 88.648438 183.21875 88.976563 C 183.21875 89.039063 183.21875 89.148438 183.359375 89.273438 C 183.625 89.523438 183.765625 89.851563 183.765625 90.257813 C 183.765625 91.242188 182.78125 92.710938 181.578125 92.710938 C 180.984375 92.710938 180.78125 92.242188 180.71875 91.835938 Z M 180.71875 91.835938 "
       id="path180" />
    <path
       style=" stroke:none;fill-rule:nonzero;fill:rgb(92.155457%,9.803772%,13.725281%);fill-opacity:1;"
       d="M 187.019531 94.441406 C 186.910156 94.660156 186.816406 94.832031 186.394531 94.832031 L 185.207031 94.832031 L 185.207031 94.800781 L 186.410156 93.597656 C 187.191406 92.816406 187.347656 92.535156 187.347656 92.113281 C 187.347656 91.644531 187.003906 91.066406 186.332031 91.066406 C 186.175781 91.066406 185.347656 91.082031 185.003906 92.066406 L 185.144531 92.113281 C 185.222656 91.957031 185.472656 91.519531 186.035156 91.519531 C 186.519531 91.519531 186.800781 91.894531 186.800781 92.285156 C 186.800781 92.488281 186.785156 92.863281 185.894531 93.800781 L 184.582031 95.207031 L 184.582031 95.316406 L 186.816406 95.316406 L 187.128906 94.488281 Z M 187.019531 94.441406 "
       id="path182" />
    <path
       style="fill:none;stroke-width:0.502;stroke-linecap:round;stroke-linejoin:round;stroke:rgb(0%,0%,0%);stroke-opacity:1;stroke-miterlimit:4;"
       d="M 100.085938 37.046875 L 100.085938 9.644531 Z M 69.847656 66.496094 L 69.847656 37.640625 Z M 37.722656 99.035156 L 37.722656 67.160156 M 15.988281 135.570313 L 15.988281 98.839844 M 70.292969 37.679688 L 99.769531 37.679688 M 37.507813 66.65625 L 69.78125 66.65625 M 16.5 98.78125 L 37.339844 98.78125 "
       id="path184" />
    <path
       style=" stroke:none;fill-rule:nonzero;fill:rgb(86.273193%,14.901733%,13.725281%);fill-opacity:1;"
       d="M 98.441406 84.390625 C 99.957031 84.390625 100.285156 84.765625 100.285156 85.234375 C 100.285156 85.65625 99.988281 86.578125 98.644531 86.640625 C 98.253906 86.65625 98.003906 86.9375 98.003906 87 C 98.003906 87.046875 98.035156 87.046875 98.035156 87.046875 C 98.285156 87.09375 98.457031 87.125 98.941406 88.171875 C 99.300781 88.96875 99.519531 89.296875 99.957031 89.296875 C 100.878906 89.296875 101.785156 88.359375 101.785156 88.1875 C 101.785156 88.140625 101.738281 88.140625 101.707031 88.140625 C 101.566406 88.140625 101.285156 88.28125 101.160156 88.453125 C 101.019531 88.65625 100.847656 88.875 100.457031 88.875 C 100.097656 88.875 99.832031 88.328125 99.582031 87.78125 C 99.347656 87.28125 99.238281 87.078125 99.082031 86.890625 C 100.300781 86.4375 100.941406 85.640625 100.941406 84.90625 C 100.941406 83.953125 99.691406 83.953125 98.472656 83.953125 C 97.628906 83.953125 97.128906 83.953125 96.410156 84.328125 C 95.488281 84.796875 95.410156 85.359375 95.410156 85.375 C 95.410156 85.390625 95.425781 85.4375 95.488281 85.4375 C 95.628906 85.4375 96.003906 85.25 96.066406 85.0625 C 96.175781 84.765625 96.285156 84.421875 97.394531 84.390625 C 97.316406 85.265625 97.160156 86.828125 96.222656 89.109375 C 96.175781 89.21875 96.175781 89.234375 96.175781 89.25 C 96.175781 89.28125 96.222656 89.296875 96.253906 89.296875 C 96.410156 89.296875 96.707031 89.125 96.816406 88.96875 C 96.816406 88.953125 96.972656 88.609375 97.207031 87.9375 C 97.597656 86.890625 97.894531 85.671875 98.035156 84.390625 Z M 98.441406 84.390625 "
       id="path186" />
    <path
       style=" stroke:none;fill-rule:nonzero;fill:rgb(86.273193%,14.901733%,13.725281%);fill-opacity:1;"
       d="M 104.09375 90.277344 L 103.921875 90.277344 C 103.921875 90.355469 103.875 90.589844 103.8125 90.621094 C 103.78125 90.652344 103.46875 90.652344 103.40625 90.652344 L 102.671875 90.652344 C 102.921875 90.464844 103.203125 90.246094 103.421875 90.105469 C 103.765625 89.871094 104.09375 89.652344 104.09375 89.246094 C 104.09375 88.761719 103.625 88.496094 103.09375 88.496094 C 102.578125 88.496094 102.203125 88.792969 102.203125 89.152344 C 102.203125 89.355469 102.375 89.386719 102.421875 89.386719 C 102.53125 89.386719 102.640625 89.324219 102.640625 89.167969 C 102.640625 89.027344 102.546875 88.949219 102.4375 88.949219 C 102.53125 88.777344 102.75 88.652344 103.015625 88.652344 C 103.375 88.652344 103.6875 88.886719 103.6875 89.246094 C 103.6875 89.574219 103.46875 89.808594 103.171875 90.058594 L 102.25 90.839844 C 102.21875 90.871094 102.203125 90.871094 102.203125 90.902344 L 102.203125 91.011719 L 103.96875 91.011719 Z M 104.09375 90.277344 "
       id="path188" />
    <path
       style=" stroke:none;fill-rule:nonzero;fill:rgb(12.940979%,11.764526%,11.764526%);fill-opacity:1;"
       d="M 28.625 22.234375 C 30.140625 22.234375 30.46875 22.609375 30.46875 23.078125 C 30.46875 23.5 30.171875 24.421875 28.828125 24.484375 C 28.4375 24.5 28.1875 24.78125 28.1875 24.84375 C 28.1875 24.890625 28.21875 24.890625 28.21875 24.890625 C 28.46875 24.9375 28.640625 24.96875 29.125 26.015625 C 29.484375 26.8125 29.703125 27.140625 30.140625 27.140625 C 31.0625 27.140625 31.96875 26.203125 31.96875 26.03125 C 31.96875 25.984375 31.921875 25.984375 31.890625 25.984375 C 31.75 25.984375 31.46875 26.125 31.34375 26.296875 C 31.203125 26.5 31.03125 26.71875 30.640625 26.71875 C 30.28125 26.71875 30.015625 26.171875 29.765625 25.625 C 29.53125 25.125 29.421875 24.921875 29.265625 24.734375 C 30.484375 24.28125 31.125 23.484375 31.125 22.75 C 31.125 21.796875 29.875 21.796875 28.65625 21.796875 C 27.8125 21.796875 27.3125 21.796875 26.59375 22.171875 C 25.671875 22.640625 25.59375 23.203125 25.59375 23.21875 C 25.59375 23.234375 25.609375 23.28125 25.671875 23.28125 C 25.8125 23.28125 26.1875 23.09375 26.25 22.90625 C 26.359375 22.609375 26.46875 22.265625 27.578125 22.234375 C 27.5 23.109375 27.34375 24.671875 26.40625 26.953125 C 26.359375 27.0625 26.359375 27.078125 26.359375 27.09375 C 26.359375 27.125 26.40625 27.140625 26.4375 27.140625 C 26.59375 27.140625 26.890625 26.96875 27 26.8125 C 27 26.796875 27.15625 26.453125 27.390625 25.78125 C 27.78125 24.734375 28.078125 23.515625 28.21875 22.234375 Z M 28.625 22.234375 "
       id="path190" />
    <path
       style=" stroke:none;fill-rule:nonzero;fill:rgb(12.940979%,11.764526%,11.764526%);fill-opacity:1;"
       d="M 33.542969 26.453125 C 33.542969 26.34375 33.542969 26.34375 33.417969 26.34375 C 33.136719 26.578125 32.730469 26.578125 32.652344 26.578125 L 32.589844 26.578125 L 32.589844 26.75 L 32.652344 26.75 C 32.730469 26.75 32.980469 26.734375 33.199219 26.640625 L 33.199219 28.53125 C 33.199219 28.65625 33.199219 28.6875 32.792969 28.6875 L 32.605469 28.6875 L 32.605469 28.859375 C 32.824219 28.84375 33.152344 28.84375 33.371094 28.84375 C 33.589844 28.84375 33.933594 28.84375 34.136719 28.859375 L 34.136719 28.6875 L 33.949219 28.6875 C 33.542969 28.6875 33.542969 28.65625 33.542969 28.53125 Z M 33.542969 26.453125 "
       id="path192" />
    <path
       style=" stroke:none;fill-rule:nonzero;fill:rgb(12.940979%,11.764526%,11.764526%);fill-opacity:1;"
       d="M 29.144531 144.65625 C 29.285156 144.65625 29.503906 144.5625 29.503906 144.328125 C 29.503906 144.125 29.332031 143.96875 29.144531 143.96875 C 28.957031 143.96875 28.800781 144.125 28.800781 144.328125 C 28.800781 144.5625 29.019531 144.65625 29.144531 144.65625 Z M 29.144531 144.65625 "
       id="path194" />
    <path
       style=" stroke:none;fill-rule:nonzero;fill:rgb(12.940979%,11.764526%,11.764526%);fill-opacity:1;"
       d="M 32.71875 143.71875 C 32.609375 143.9375 32.515625 144.109375 32.09375 144.109375 L 30.90625 144.109375 L 30.90625 144.078125 L 32.109375 142.875 C 32.890625 142.09375 33.046875 141.8125 33.046875 141.390625 C 33.046875 140.921875 32.703125 140.34375 32.03125 140.34375 C 31.875 140.34375 31.046875 140.359375 30.703125 141.34375 L 30.84375 141.390625 C 30.921875 141.234375 31.171875 140.796875 31.734375 140.796875 C 32.21875 140.796875 32.5 141.171875 32.5 141.5625 C 32.5 141.765625 32.484375 142.140625 31.59375 143.078125 L 30.28125 144.484375 L 30.28125 144.59375 L 32.515625 144.59375 L 32.828125 143.765625 Z M 32.71875 143.71875 "
       id="path196" />
    <path
       style=" stroke:none;fill-rule:nonzero;fill:rgb(12.940979%,11.764526%,11.764526%);fill-opacity:1;"
       d="M 51.96875 144.65625 C 52.109375 144.65625 52.328125 144.5625 52.328125 144.328125 C 52.328125 144.125 52.15625 143.96875 51.96875 143.96875 C 51.78125 143.96875 51.625 144.125 51.625 144.328125 C 51.625 144.5625 51.84375 144.65625 51.96875 144.65625 Z M 51.96875 144.65625 "
       id="path198" />
    <path
       style=" stroke:none;fill-rule:nonzero;fill:rgb(12.940979%,11.764526%,11.764526%);fill-opacity:1;"
       d="M 54.777344 143.078125 L 53.433594 143.078125 L 53.433594 143.046875 L 55.355469 141.046875 L 55.371094 141.046875 Z M 55.886719 143.078125 L 55.277344 143.078125 L 56.042969 140.34375 L 55.792969 140.34375 L 53.152344 143.046875 L 53.027344 143.46875 L 54.683594 143.46875 L 54.371094 144.59375 L 54.871094 144.59375 L 55.167969 143.484375 L 55.792969 143.484375 Z M 55.886719 143.078125 "
       id="path200" />
    <path
       style=" stroke:none;fill-rule:nonzero;fill:rgb(12.940979%,11.764526%,11.764526%);fill-opacity:1;"
       d="M 74.789063 144.65625 C 74.929688 144.65625 75.148438 144.5625 75.148438 144.328125 C 75.148438 144.125 74.976563 143.96875 74.789063 143.96875 C 74.601563 143.96875 74.445313 144.125 74.445313 144.328125 C 74.445313 144.5625 74.664063 144.65625 74.789063 144.65625 Z M 74.789063 144.65625 "
       id="path202" />
    <path
       style=" stroke:none;fill-rule:nonzero;fill:rgb(12.940979%,11.764526%,11.764526%);fill-opacity:1;"
       d="M 79.128906 140.28125 C 77.207031 140.390625 76.035156 141.96875 76.035156 143.265625 C 76.035156 144.296875 76.660156 144.640625 77.175781 144.640625 C 78.238281 144.640625 78.753906 143.578125 78.753906 142.9375 C 78.753906 142.046875 78.113281 141.78125 77.691406 141.78125 C 77.582031 141.78125 77.488281 141.796875 77.394531 141.8125 C 77.300781 141.828125 77.207031 141.875 77.128906 141.90625 L 77.097656 141.90625 C 77.253906 141.578125 78.019531 140.515625 79.128906 140.375 Z M 77.441406 142 C 77.925781 142 78.191406 142.3125 78.191406 142.828125 C 78.191406 143.390625 77.847656 144.46875 77.128906 144.46875 C 76.519531 144.46875 76.519531 143.765625 76.519531 143.609375 C 76.519531 143.5 76.582031 142 77.441406 142 Z M 77.441406 142 "
       id="path204" />
    <path
       style=" stroke:none;fill-rule:nonzero;fill:rgb(12.940979%,11.764526%,11.764526%);fill-opacity:1;"
       d="M 97.609375 144.65625 C 97.75 144.65625 97.96875 144.5625 97.96875 144.328125 C 97.96875 144.125 97.796875 143.96875 97.609375 143.96875 C 97.421875 143.96875 97.265625 144.125 97.265625 144.328125 C 97.265625 144.5625 97.484375 144.65625 97.609375 144.65625 Z M 97.609375 144.65625 "
       id="path206" />
    <path
       style=" stroke:none;fill-rule:nonzero;fill:rgb(12.940979%,11.764526%,11.764526%);fill-opacity:1;"
       d="M 98.855469 143.609375 C 98.855469 143.796875 98.996094 144.640625 100.121094 144.640625 C 100.964844 144.640625 101.464844 144.078125 101.464844 143.53125 C 101.464844 143.046875 101.214844 142.65625 100.746094 142.1875 C 101.089844 142.078125 101.777344 141.84375 101.777344 141.234375 C 101.777344 140.546875 101.089844 140.34375 100.683594 140.34375 C 100.089844 140.34375 99.542969 140.640625 99.542969 141.296875 C 99.542969 141.625 99.699219 141.921875 100.089844 142.328125 C 99.933594 142.375 98.855469 142.6875 98.855469 143.609375 Z M 99.277344 143.625 C 99.277344 142.828125 100.058594 142.484375 100.230469 142.421875 C 100.839844 143.0625 100.996094 143.21875 100.996094 143.625 C 100.996094 144.234375 100.496094 144.5 100.167969 144.5 C 99.621094 144.5 99.277344 144.125 99.277344 143.625 Z M 100.027344 141.1875 C 100.027344 140.765625 100.261719 140.484375 100.667969 140.484375 C 101.183594 140.484375 101.339844 140.921875 101.339844 141.21875 C 101.339844 141.734375 100.964844 141.921875 100.621094 142.078125 C 100.027344 141.546875 100.027344 141.34375 100.027344 141.1875 Z M 100.027344 141.1875 "
       id="path208" />
    <path
       style=" stroke:none;fill-rule:nonzero;fill:rgb(12.940979%,11.764526%,11.764526%);fill-opacity:1;"
       d="M 121.015625 144.59375 L 122.765625 144.59375 L 122.765625 144.5 C 122.453125 144.5 122.234375 144.484375 122.234375 144.296875 C 122.234375 144.1875 122.3125 143.953125 122.34375 143.828125 L 123.234375 140.5625 C 123.265625 140.46875 123.296875 140.34375 123.25 140.34375 C 123.203125 140.34375 122.328125 140.53125 122.03125 140.578125 L 122.03125 140.671875 L 122.390625 140.65625 C 122.453125 140.65625 122.625 140.65625 122.625 140.859375 C 122.625 140.90625 122.609375 141 122.578125 141.0625 L 121.71875 144.171875 C 121.640625 144.453125 121.390625 144.46875 121.015625 144.5 Z M 121.015625 144.59375 "
       id="path210" />
    <path
       style=" stroke:none;fill-rule:nonzero;fill:rgb(12.940979%,11.764526%,11.764526%);fill-opacity:1;"
       d="M 1.320313 136.679688 C 1.320313 136.070313 1.773438 133.585938 2.710938 133.585938 C 3.242188 133.585938 3.242188 134.226563 3.242188 134.414063 C 3.242188 135.523438 2.710938 137.539063 1.867188 137.539063 C 1.664063 137.539063 1.320313 137.414063 1.320313 136.679688 Z M 3.742188 134.976563 C 3.742188 134.367188 3.570313 133.414063 2.742188 133.414063 C 1.867188 133.414063 0.820313 134.710938 0.820313 136.398438 C 0.820313 137.054688 1.179688 137.710938 1.835938 137.710938 C 2.882813 137.710938 3.742188 136.226563 3.742188 134.976563 Z M 3.742188 134.976563 "
       id="path212" />
    <path
       style=" stroke:none;fill-rule:nonzero;fill:rgb(12.940979%,11.764526%,11.764526%);fill-opacity:1;"
       d="M 0.34375 114.90625 C 0.484375 114.90625 0.703125 114.8125 0.703125 114.578125 C 0.703125 114.375 0.53125 114.21875 0.34375 114.21875 C 0.15625 114.21875 0 114.375 0 114.578125 C 0 114.8125 0.21875 114.90625 0.34375 114.90625 Z M 0.34375 114.90625 "
       id="path214" />
    <path
       style=" stroke:none;fill-rule:nonzero;fill:rgb(12.940979%,11.764526%,11.764526%);fill-opacity:1;"
       d="M 3.917969 113.96875 C 3.808594 114.1875 3.714844 114.359375 3.292969 114.359375 L 2.105469 114.359375 L 2.105469 114.328125 L 3.308594 113.125 C 4.089844 112.34375 4.246094 112.0625 4.246094 111.640625 C 4.246094 111.171875 3.902344 110.59375 3.230469 110.59375 C 3.074219 110.59375 2.246094 110.609375 1.902344 111.59375 L 2.042969 111.640625 C 2.121094 111.484375 2.371094 111.046875 2.933594 111.046875 C 3.417969 111.046875 3.699219 111.421875 3.699219 111.8125 C 3.699219 112.015625 3.683594 112.390625 2.792969 113.328125 L 1.480469 114.734375 L 1.480469 114.84375 L 3.714844 114.84375 L 4.027344 114.015625 Z M 3.917969 113.96875 "
       id="path216" />
    <path
       style=" stroke:none;fill-rule:nonzero;fill:rgb(12.940979%,11.764526%,11.764526%);fill-opacity:1;"
       d="M 0.34375 92.082031 C 0.484375 92.082031 0.703125 91.988281 0.703125 91.753906 C 0.703125 91.550781 0.53125 91.394531 0.34375 91.394531 C 0.15625 91.394531 0 91.550781 0 91.753906 C 0 91.988281 0.21875 92.082031 0.34375 92.082031 Z M 0.34375 92.082031 "
       id="path218" />
    <path
       style=" stroke:none;fill-rule:nonzero;fill:rgb(12.940979%,11.764526%,11.764526%);fill-opacity:1;"
       d="M 3.152344 90.503906 L 1.808594 90.503906 L 1.808594 90.472656 L 3.730469 88.472656 L 3.746094 88.472656 Z M 4.261719 90.503906 L 3.652344 90.503906 L 4.417969 87.769531 L 4.167969 87.769531 L 1.527344 90.472656 L 1.402344 90.894531 L 3.058594 90.894531 L 2.746094 92.019531 L 3.246094 92.019531 L 3.542969 90.910156 L 4.167969 90.910156 Z M 4.261719 90.503906 "
       id="path220" />
    <path
       style=" stroke:none;fill-rule:nonzero;fill:rgb(12.940979%,11.764526%,11.764526%);fill-opacity:1;"
       d="M 0.34375 69.261719 C 0.484375 69.261719 0.703125 69.167969 0.703125 68.933594 C 0.703125 68.730469 0.53125 68.574219 0.34375 68.574219 C 0.15625 68.574219 0 68.730469 0 68.933594 C 0 69.167969 0.21875 69.261719 0.34375 69.261719 Z M 0.34375 69.261719 "
       id="path222" />
    <path
       style=" stroke:none;fill-rule:nonzero;fill:rgb(12.940979%,11.764526%,11.764526%);fill-opacity:1;"
       d="M 4.683594 64.886719 C 2.761719 64.996094 1.589844 66.574219 1.589844 67.871094 C 1.589844 68.902344 2.214844 69.246094 2.730469 69.246094 C 3.792969 69.246094 4.308594 68.183594 4.308594 67.542969 C 4.308594 66.652344 3.667969 66.386719 3.246094 66.386719 C 3.136719 66.386719 3.042969 66.402344 2.949219 66.417969 C 2.855469 66.433594 2.761719 66.480469 2.683594 66.511719 L 2.652344 66.511719 C 2.808594 66.183594 3.574219 65.121094 4.683594 64.980469 Z M 2.996094 66.605469 C 3.480469 66.605469 3.746094 66.917969 3.746094 67.433594 C 3.746094 67.996094 3.402344 69.074219 2.683594 69.074219 C 2.074219 69.074219 2.074219 68.371094 2.074219 68.214844 C 2.074219 68.105469 2.136719 66.605469 2.996094 66.605469 Z M 2.996094 66.605469 "
       id="path224" />
    <path
       style=" stroke:none;fill-rule:nonzero;fill:rgb(12.940979%,11.764526%,11.764526%);fill-opacity:1;"
       d="M 0.34375 46.4375 C 0.484375 46.4375 0.703125 46.34375 0.703125 46.109375 C 0.703125 45.90625 0.53125 45.75 0.34375 45.75 C 0.15625 45.75 0 45.90625 0 46.109375 C 0 46.34375 0.21875 46.4375 0.34375 46.4375 Z M 0.34375 46.4375 "
       id="path226" />
    <path
       style=" stroke:none;fill-rule:nonzero;fill:rgb(12.940979%,11.764526%,11.764526%);fill-opacity:1;"
       d="M 1.589844 45.390625 C 1.589844 45.578125 1.730469 46.421875 2.855469 46.421875 C 3.699219 46.421875 4.199219 45.859375 4.199219 45.3125 C 4.199219 44.828125 3.949219 44.4375 3.480469 43.96875 C 3.824219 43.859375 4.511719 43.625 4.511719 43.015625 C 4.511719 42.328125 3.824219 42.125 3.417969 42.125 C 2.824219 42.125 2.277344 42.421875 2.277344 43.078125 C 2.277344 43.40625 2.433594 43.703125 2.824219 44.109375 C 2.667969 44.15625 1.589844 44.46875 1.589844 45.390625 Z M 2.011719 45.40625 C 2.011719 44.609375 2.792969 44.265625 2.964844 44.203125 C 3.574219 44.84375 3.730469 45 3.730469 45.40625 C 3.730469 46.015625 3.230469 46.28125 2.902344 46.28125 C 2.355469 46.28125 2.011719 45.90625 2.011719 45.40625 Z M 2.761719 42.96875 C 2.761719 42.546875 2.996094 42.265625 3.402344 42.265625 C 3.917969 42.265625 4.074219 42.703125 4.074219 43 C 4.074219 43.515625 3.699219 43.703125 3.355469 43.859375 C 2.761719 43.328125 2.761719 43.125 2.761719 42.96875 Z M 2.761719 42.96875 "
       id="path228" />
    <path
       style=" stroke:none;fill-rule:nonzero;fill:rgb(12.940979%,11.764526%,11.764526%);fill-opacity:1;"
       d="M 0.929688 23.554688 L 2.679688 23.554688 L 2.679688 23.460938 C 2.367188 23.460938 2.148438 23.445313 2.148438 23.257813 C 2.148438 23.148438 2.226563 22.914063 2.257813 22.789063 L 3.148438 19.523438 C 3.179688 19.429688 3.210938 19.304688 3.164063 19.304688 C 3.117188 19.304688 2.242188 19.492188 1.945313 19.539063 L 1.945313 19.632813 L 2.304688 19.617188 C 2.367188 19.617188 2.539063 19.617188 2.539063 19.820313 C 2.539063 19.867188 2.523438 19.960938 2.492188 20.023438 L 1.632813 23.132813 C 1.554688 23.414063 1.304688 23.429688 0.929688 23.460938 Z M 0.929688 23.554688 "
       id="path230" />
    <path
       style=" stroke:none;fill-rule:nonzero;fill:rgb(12.940979%,11.764526%,11.764526%);fill-opacity:1;"
       d="M 144.011719 136.042969 C 143.839844 136.230469 143.714844 136.464844 143.589844 136.464844 C 143.464844 136.464844 143.417969 136.308594 143.386719 136.214844 C 143.355469 136.058594 143.136719 135.199219 143.136719 135.089844 C 143.136719 135.089844 143.558594 134.324219 143.746094 134.324219 C 143.886719 134.324219 143.933594 134.433594 144.074219 134.433594 C 144.230469 134.433594 144.292969 134.308594 144.292969 134.199219 C 144.292969 134.042969 144.152344 133.964844 144.042969 133.964844 C 143.714844 133.964844 143.417969 134.355469 143.089844 134.871094 L 143.011719 134.527344 C 142.902344 133.964844 142.808594 133.964844 142.667969 133.964844 C 142.464844 133.964844 142.058594 134.121094 141.886719 134.183594 L 141.902344 134.277344 C 142.105469 134.214844 142.199219 134.199219 142.261719 134.199219 C 142.417969 134.199219 142.449219 134.292969 142.511719 134.480469 C 142.511719 134.511719 142.730469 135.355469 142.730469 135.417969 C 142.167969 136.230469 141.996094 136.449219 141.886719 136.449219 C 141.777344 136.449219 141.667969 136.324219 141.527344 136.324219 C 141.386719 136.324219 141.308594 136.449219 141.308594 136.542969 C 141.308594 136.699219 141.417969 136.808594 141.621094 136.808594 C 141.808594 136.808594 141.886719 136.746094 141.996094 136.621094 C 142.214844 136.386719 142.480469 136.058594 142.777344 135.636719 L 142.964844 136.386719 C 143.042969 136.730469 143.136719 136.808594 143.324219 136.808594 C 143.464844 136.808594 143.652344 136.808594 144.105469 136.089844 Z M 144.011719 136.042969 "
       id="path232" />
    <path
       style=" stroke:none;fill-rule:nonzero;fill:rgb(0%,0%,0%);fill-opacity:1;"
       d="M 144.527344 138.636719 L 145.933594 138.636719 L 145.933594 138.558594 C 145.683594 138.558594 145.496094 138.558594 145.496094 138.386719 C 145.496094 138.308594 145.558594 138.121094 145.589844 138.027344 L 146.308594 135.402344 C 146.339844 135.324219 146.355469 135.230469 146.324219 135.230469 C 146.277344 135.230469 145.574219 135.371094 145.339844 135.417969 L 145.339844 135.496094 L 145.636719 135.480469 C 145.667969 135.480469 145.824219 135.480469 145.824219 135.636719 C 145.824219 135.683594 145.808594 135.761719 145.792969 135.808594 L 145.089844 138.292969 C 145.027344 138.527344 144.824219 138.542969 144.527344 138.558594 Z M 144.527344 138.636719 "
       id="path234" />
    <path
       style=" stroke:none;fill-rule:nonzero;fill:rgb(12.940979%,11.764526%,11.764526%);fill-opacity:1;"
       d="M 8.4375 2.078125 C 8.265625 2.265625 8.140625 2.5 8.015625 2.5 C 7.890625 2.5 7.84375 2.34375 7.8125 2.25 C 7.78125 2.09375 7.5625 1.234375 7.5625 1.125 C 7.5625 1.125 7.984375 0.359375 8.171875 0.359375 C 8.3125 0.359375 8.359375 0.46875 8.5 0.46875 C 8.65625 0.46875 8.71875 0.34375 8.71875 0.234375 C 8.71875 0.078125 8.578125 0 8.46875 0 C 8.140625 0 7.84375 0.390625 7.515625 0.90625 L 7.4375 0.5625 C 7.328125 0 7.234375 0 7.09375 0 C 6.890625 0 6.484375 0.15625 6.3125 0.21875 L 6.328125 0.3125 C 6.53125 0.25 6.625 0.234375 6.6875 0.234375 C 6.84375 0.234375 6.875 0.328125 6.9375 0.515625 C 6.9375 0.546875 7.15625 1.390625 7.15625 1.453125 C 6.59375 2.265625 6.421875 2.484375 6.3125 2.484375 C 6.203125 2.484375 6.09375 2.359375 5.953125 2.359375 C 5.8125 2.359375 5.734375 2.484375 5.734375 2.578125 C 5.734375 2.734375 5.84375 2.84375 6.046875 2.84375 C 6.234375 2.84375 6.3125 2.78125 6.421875 2.65625 C 6.640625 2.421875 6.90625 2.09375 7.203125 1.671875 L 7.390625 2.421875 C 7.46875 2.765625 7.5625 2.84375 7.75 2.84375 C 7.890625 2.84375 8.078125 2.84375 8.53125 2.125 Z M 8.4375 2.078125 "
       id="path236" />
    <path
       style=" stroke:none;fill-rule:nonzero;fill:rgb(0%,0%,0%);fill-opacity:1;"
       d="M 10.71875 3.96875 C 10.640625 4.15625 10.5625 4.28125 10.21875 4.28125 L 9.265625 4.28125 L 9.265625 4.265625 L 10.234375 3.296875 C 10.859375 2.671875 10.984375 2.4375 10.984375 2.109375 C 10.984375 1.71875 10.703125 1.265625 10.171875 1.265625 C 10.046875 1.265625 9.375 1.28125 9.109375 2.0625 L 9.21875 2.109375 C 9.28125 1.984375 9.46875 1.625 9.921875 1.625 C 10.3125 1.625 10.546875 1.9375 10.546875 2.25 C 10.546875 2.40625 10.53125 2.703125 9.828125 3.453125 L 8.765625 4.59375 L 8.765625 4.671875 L 10.5625 4.671875 L 10.8125 4 Z M 10.71875 3.96875 "
       id="path238" />
  </g>
</svg>
